<svg width="151" height="150" viewBox="0 0 151 150" fill="none" xmlns="http://www.w3.org/2000/svg">
<g id="account">
<rect x="2.58203" y="2.5" width="145" height="145" rx="7.5" fill="white"/>
<rect x="2.58203" y="2.5" width="145" height="145" rx="7.5" fill="url(#paint0_linear_14_12030)" fill-opacity="0.2"/>
<g id="Group">
<path id="Vector" d="M125.082 46.2495V118.751H105.082V46.2495C105.082 44.8694 106.202 43.7494 107.582 43.7494H122.582C123.962 43.7494 125.082 44.8694 125.082 46.2495Z" fill="#50E6FF"/>
<path id="Vector_2" d="M33.3152 61.3746L59.5806 35.1092L66.2232 41.7518L39.9578 68.0172C38.9803 68.9948 37.3977 68.9948 36.4227 68.0172L33.3152 64.9097C32.3377 63.9347 32.3377 62.3521 33.3152 61.3746Z" fill="#50E6FF"/>
<path id="Vector_3" d="M105.082 58.7498V118.751H85.082V61.2498C85.082 59.8698 86.202 58.7498 87.5821 58.7498H105.082Z" fill="#35C1F1"/>
<path id="Vector_4" d="M85.0823 73.7498V118.751H65.082V76.2499C65.082 74.8698 66.202 73.7498 67.5821 73.7498H85.0823Z" fill="#199BE2"/>
<path id="Vector_5" d="M65.0823 88.7502V118.751H45.082V91.2502C45.082 89.8702 46.202 88.7502 47.5821 88.7502H65.0823Z" fill="#0078D4"/>
<path id="Vector_6" d="M45.0823 103.75V118.751H25.082V106.251C25.082 104.871 26.202 103.75 27.5821 103.75H45.0823Z" fill="#0D62AB"/>
<path id="Vector_7" d="M70.0758 50.7321V33.7493C70.0758 32.3693 68.9558 31.2493 67.5758 31.2493H50.593C49.4805 31.2493 48.9205 32.5968 49.708 33.3843L67.9408 51.6171C68.7283 52.4021 70.0758 51.8446 70.0758 50.7321Z" fill="#50E6FF"/>
</g>
<rect x="2.58203" y="2.5" width="145" height="145" rx="7.5" stroke="#D5EAF6" stroke-width="5"/>
</g>
<defs>
<linearGradient id="paint0_linear_14_12030" x1="75.082" y1="5" x2="75.082" y2="145" gradientUnits="userSpaceOnUse">
<stop stop-color="#199AE0"/>
<stop offset="0.472222" stop-color="#0D5176" stop-opacity="0.527778"/>
<stop offset="0.940972" stop-color="#12A6F7" stop-opacity="0.465278"/>
<stop offset="1" stop-opacity="0"/>
</linearGradient>
</defs>
</svg>
