<svg width="151" height="150" viewBox="0 0 151 150" fill="none" xmlns="http://www.w3.org/2000/svg">
<g id="accounting">
<rect x="2.58203" y="2.5" width="145" height="145" rx="7.5" fill="white"/>
<rect x="2.58203" y="2.5" width="145" height="145" rx="7.5" fill="url(#paint0_linear_14_12039)" fill-opacity="0.2"/>
<g id="Group">
<path id="Vector" d="M103.655 29.762H75.0837C75.0837 32.3929 72.9527 34.5239 70.3218 34.5239C67.6908 34.5239 65.5599 32.3929 65.5599 29.762H36.9885C34.3575 29.762 32.2266 31.8929 32.2266 34.5239V120.238C32.2266 122.869 34.3575 125 36.9885 125H103.655C106.286 125 108.417 122.869 108.417 120.238V34.5239C108.417 31.8929 106.286 29.762 103.655 29.762Z" fill="url(#paint1_linear_14_12039)"/>
<path id="Vector_2" d="M101.278 120.238H39.3731C38.0589 120.238 36.9922 119.171 36.9922 117.857V96.4285H103.659V117.857C103.659 119.171 102.592 120.238 101.278 120.238Z" fill="url(#paint2_linear_14_12039)"/>
<path id="Vector_3" d="M101.278 115.476H39.3731C38.0589 115.476 36.9922 114.41 36.9922 113.095V36.9049C36.9922 35.5906 38.0589 34.5239 39.3731 34.5239H101.278C102.592 34.5239 103.659 35.5906 103.659 36.9049V113.095C103.659 114.41 102.592 115.476 101.278 115.476Z" fill="#F3F3F3"/>
<path id="Vector_4" d="M86.9818 39.2857V29.7619H77.0199C76.0365 26.9929 73.4199 25 70.3151 25C67.2103 25 64.5937 26.9929 63.6103 29.7619H53.6484V39.2857C53.6484 40.6 54.7151 41.6667 56.0294 41.6667H84.6008C85.9151 41.6667 86.9818 40.6 86.9818 39.2857ZM70.3151 29.7619C71.6294 29.7619 72.696 30.8286 72.696 32.1429C72.696 33.4571 71.6294 34.5238 70.3151 34.5238C69.0008 34.5238 67.9341 33.4571 67.9341 32.1429C67.9341 30.8286 69.0008 29.7619 70.3151 29.7619Z" fill="url(#paint3_linear_14_12039)"/>
<path id="Vector_5" d="M75.0804 50V70.2381H67.9375V50C67.9375 49.3429 68.4708 48.8096 69.128 48.8096H73.8899C74.547 48.8096 75.0804 49.3429 75.0804 50Z" fill="#35C1F1"/>
<path id="Vector_6" d="M67.9475 53.5715V70.2382H60.8047V54.762C60.8047 54.1049 61.338 53.5715 61.9952 53.5715H67.9475Z" fill="#199BE2"/>
<path id="Vector_7" d="M60.7913 58.3333V70.238H53.6484V59.5237C53.6484 58.8666 54.1818 58.3333 54.8389 58.3333H60.7913Z" fill="#0078D4"/>
<path id="Vector_8" d="M53.6585 63.0952V70.2381H46.5156V64.2857C46.5156 63.6285 47.049 63.0952 47.7061 63.0952H53.6585Z" fill="#0D62AB"/>
<path id="Vector_9" d="M48.8984 94.0477C48.8984 100.622 54.2294 105.952 60.8032 105.952C67.377 105.952 72.7079 100.622 72.7079 94.0477H60.8032H48.8984Z" fill="#D35230"/>
<path id="Vector_10" d="M60.8047 82.1428V94.0476H72.7094C72.7094 87.4738 67.3785 82.1428 60.8047 82.1428Z" fill="#FF8F6B"/>
<path id="Vector_11" d="M60.8032 82.1428C54.2294 82.1428 48.8984 87.4738 48.8984 94.0476H60.8032V82.1428Z" fill="#ED6C47"/>
<path id="Vector_12" opacity="0.05" d="M108.413 72.6191H82.2228C79.5919 72.6191 77.4609 74.7501 77.4609 77.381V120.238C77.4609 122.869 79.5919 125 82.2228 125H108.413V72.6191Z" fill="black"/>
<path id="Vector_13" opacity="0.07" d="M108.423 75H83.423C81.4516 75 79.8516 76.6 79.8516 78.5714V121.429C79.8516 123.4 81.4516 125 83.423 125H108.423V75Z" fill="black"/>
<path id="Vector_14" d="M115.56 77.3809H84.6075C83.2932 77.3809 82.2266 78.4475 82.2266 79.7618V122.619C82.2266 123.933 83.2932 125 84.6075 125H115.56C116.874 125 117.941 123.933 117.941 122.619V79.7618C117.941 78.4475 116.874 77.3809 115.56 77.3809Z" fill="url(#paint4_linear_14_12039)"/>
<path id="Vector_15" d="M111.992 89.2857H88.1827C87.5255 89.2857 86.9922 88.7523 86.9922 88.0952V83.3333C86.9922 82.6762 87.5255 82.1428 88.1827 82.1428H111.992C112.649 82.1428 113.183 82.6762 113.183 83.3333V88.0952C113.183 88.7523 112.649 89.2857 111.992 89.2857Z" fill="url(#paint5_linear_14_12039)"/>
<path id="Vector_16" d="M102.468 101.191H97.7061C97.049 101.191 96.5156 100.657 96.5156 100V95.2382C96.5156 94.5811 97.049 94.0477 97.7061 94.0477H102.468C103.125 94.0477 103.658 94.5811 103.658 95.2382V100C103.658 100.657 103.125 101.191 102.468 101.191Z" fill="#CAD2D9"/>
<path id="Vector_17" d="M92.9446 101.191H88.1827C87.5255 101.191 86.9922 100.657 86.9922 100V95.2382C86.9922 94.5811 87.5255 94.0477 88.1827 94.0477H92.9446C93.6017 94.0477 94.135 94.5811 94.135 95.2382V100C94.135 100.657 93.6017 101.191 92.9446 101.191Z" fill="#CAD2D9"/>
<path id="Vector_18" d="M102.468 110.714H97.7061C97.049 110.714 96.5156 110.181 96.5156 109.524V104.762C96.5156 104.105 97.049 103.572 97.7061 103.572H102.468C103.125 103.572 103.658 104.105 103.658 104.762V109.524C103.658 110.181 103.125 110.714 102.468 110.714Z" fill="#CAD2D9"/>
<path id="Vector_19" d="M92.9446 110.714H88.1827C87.5255 110.714 86.9922 110.181 86.9922 109.524V104.762C86.9922 104.105 87.5255 103.572 88.1827 103.572H92.9446C93.6017 103.572 94.135 104.105 94.135 104.762V109.524C94.135 110.181 93.6017 110.714 92.9446 110.714Z" fill="#CAD2D9"/>
<path id="Vector_20" d="M102.468 120.238H97.7061C97.049 120.238 96.5156 119.705 96.5156 119.048V114.286C96.5156 113.629 97.049 113.095 97.7061 113.095H102.468C103.125 113.095 103.658 113.629 103.658 114.286V119.048C103.658 119.705 103.125 120.238 102.468 120.238Z" fill="#CAD2D9"/>
<path id="Vector_21" d="M92.9446 120.238H88.1827C87.5255 120.238 86.9922 119.705 86.9922 119.048V114.286C86.9922 113.629 87.5255 113.095 88.1827 113.095H92.9446C93.6017 113.095 94.135 113.629 94.135 114.286V119.048C94.135 119.705 93.6017 120.238 92.9446 120.238Z" fill="#CAD2D9"/>
<path id="Vector_22" d="M111.991 101.191H107.23C106.572 101.191 106.039 100.657 106.039 100V95.2382C106.039 94.5811 106.572 94.0477 107.23 94.0477H111.991C112.649 94.0477 113.182 94.5811 113.182 95.2382V100C113.182 100.657 112.649 101.191 111.991 101.191Z" fill="#CAD2D9"/>
<path id="Vector_23" d="M111.991 120.238H107.23C106.572 120.238 106.039 119.705 106.039 119.048V104.762C106.039 104.105 106.572 103.572 107.23 103.572H111.991C112.649 103.572 113.182 104.105 113.182 104.762V119.048C113.182 119.705 112.649 120.238 111.991 120.238Z" fill="url(#paint6_linear_14_12039)"/>
<path id="Vector_24" d="M92.9468 60.7143H81.042C80.3849 60.7143 79.8516 60.181 79.8516 59.5238V57.1429C79.8516 56.4857 80.3849 55.9524 81.042 55.9524H92.9468C93.6039 55.9524 94.1373 56.4857 94.1373 57.1429V59.5238C94.1373 60.181 93.6039 60.7143 92.9468 60.7143Z" fill="#E0E0E0"/>
<path id="Vector_25" d="M92.9468 70.238H81.042C80.3849 70.238 79.8516 69.7046 79.8516 69.0475V66.6665C79.8516 66.0094 80.3849 65.4761 81.042 65.4761H92.9468C93.6039 65.4761 94.1373 66.0094 94.1373 66.6665V69.0475C94.1373 69.7046 93.6039 70.238 92.9468 70.238Z" fill="#E0E0E0"/>
</g>
<rect x="2.58203" y="2.5" width="145" height="145" rx="7.5" stroke="#D5EAF6" stroke-width="5"/>
</g>
<defs>
<linearGradient id="paint0_linear_14_12039" x1="75.082" y1="5" x2="75.082" y2="145" gradientUnits="userSpaceOnUse">
<stop stop-color="#199AE0"/>
<stop offset="0.472222" stop-color="#0D5176" stop-opacity="0.527778"/>
<stop offset="0.940972" stop-color="#12A6F7" stop-opacity="0.465278"/>
<stop offset="1" stop-opacity="0"/>
</linearGradient>
<linearGradient id="paint1_linear_14_12039" x1="53.3218" y1="23.8882" x2="83.598" y2="119.157" gradientUnits="userSpaceOnUse">
<stop stop-color="#C77740"/>
<stop offset="1" stop-color="#B0622B"/>
</linearGradient>
<linearGradient id="paint2_linear_14_12039" x1="70.3255" y1="108.252" x2="70.3255" y2="117.602" gradientUnits="userSpaceOnUse">
<stop offset="0.442" stop-color="#878786"/>
<stop offset="0.594" stop-color="#9F9F9E"/>
<stop offset="0.859" stop-color="#C3C3C3"/>
<stop offset="1" stop-color="#D1D1D1"/>
</linearGradient>
<linearGradient id="paint3_linear_14_12039" x1="72.5294" y1="43.8762" x2="68.0437" y2="25.2167" gradientUnits="userSpaceOnUse">
<stop stop-color="#C3CDD9"/>
<stop offset="1" stop-color="#9FA7B0"/>
</linearGradient>
<linearGradient id="paint4_linear_14_12039" x1="83.6337" y1="78.4261" x2="115.388" y2="122.371" gradientUnits="userSpaceOnUse">
<stop stop-color="#899198"/>
<stop offset="1" stop-color="#787E85"/>
</linearGradient>
<linearGradient id="paint5_linear_14_12039" x1="89.9636" y1="81.0238" x2="112.395" y2="91.4142" gradientUnits="userSpaceOnUse">
<stop stop-color="#4FE5FF"/>
<stop offset="1" stop-color="#2EB7ED"/>
</linearGradient>
<linearGradient id="paint6_linear_14_12039" x1="109.61" y1="104.226" x2="109.61" y2="119.812" gradientUnits="userSpaceOnUse">
<stop stop-color="#11498A"/>
<stop offset="1" stop-color="#0F417A"/>
</linearGradient>
</defs>
</svg>
