<svg width="151" height="150" viewBox="0 0 151 150" fill="none" xmlns="http://www.w3.org/2000/svg">
<g id="add-folder">
<rect x="2.58203" y="2.5" width="145" height="145" rx="7.5" fill="white"/>
<rect x="2.58203" y="2.5" width="145" height="145" rx="7.5" fill="url(#paint0_linear_14_12066)" fill-opacity="0.2"/>
<g id="Group">
<path id="Vector" d="M72.6679 37.0318L67.0324 31.3964C65.7835 30.1475 64.088 29.4453 62.3192 29.4453H29.5264C27.0709 29.4453 25.082 31.4341 25.082 33.8896V100.555C25.082 103.011 27.0709 105 29.5264 105H113.969C116.425 105 118.414 103.011 118.414 100.555V42.7784C118.414 40.3229 116.425 38.334 113.969 38.334H75.81C74.6323 38.334 73.5012 37.8651 72.6679 37.0318Z" fill="url(#paint1_linear_14_12066)"/>
<path id="Vector_2" d="M66.3835 45.9205L73.6456 38.6584C73.8523 38.4517 74.1345 38.334 74.4301 38.334H113.969C116.425 38.334 118.414 40.3228 118.414 42.7783V100.555C118.414 103.011 116.425 104.999 113.969 104.999H29.5264C27.0709 104.999 25.082 103.011 25.082 100.555V48.3338C25.082 47.7205 25.5798 47.2227 26.1931 47.2227H63.2414C64.4191 47.2227 65.5502 46.7538 66.3835 45.9205Z" fill="url(#paint2_linear_14_12066)"/>
<path id="Vector_3" d="M102.859 120.555C115.131 120.555 125.08 110.606 125.08 98.3329C125.08 86.0601 115.131 76.1111 102.859 76.1111C90.5858 76.1111 80.6367 86.0601 80.6367 98.3329C80.6367 110.606 90.5858 120.555 102.859 120.555Z" fill="url(#paint3_linear_14_12066)"/>
<path id="Vector_4" d="M103.97 109.444H101.748C101.134 109.444 100.637 108.946 100.637 108.333V88.3331C100.637 87.7198 101.134 87.222 101.748 87.222H103.97C104.583 87.222 105.081 87.7198 105.081 88.3331V108.333C105.081 108.946 104.583 109.444 103.97 109.444Z" fill="white"/>
<path id="Vector_5" d="M91.7539 99.4441V97.2219C91.7539 96.6086 92.2517 96.1108 92.865 96.1108H112.865C113.478 96.1108 113.976 96.6086 113.976 97.2219V99.4441C113.976 100.057 113.478 100.555 112.865 100.555H92.865C92.2517 100.555 91.7539 100.057 91.7539 99.4441Z" fill="white"/>
</g>
<rect x="2.58203" y="2.5" width="145" height="145" rx="7.5" stroke="#D5EAF6" stroke-width="5"/>
</g>
<defs>
<linearGradient id="paint0_linear_14_12066" x1="75.082" y1="5" x2="75.082" y2="145" gradientUnits="userSpaceOnUse">
<stop stop-color="#199AE0"/>
<stop offset="0.472222" stop-color="#0D5176" stop-opacity="0.527778"/>
<stop offset="0.940972" stop-color="#12A6F7" stop-opacity="0.465278"/>
<stop offset="1" stop-opacity="0"/>
</linearGradient>
<linearGradient id="paint1_linear_14_12066" x1="71.7479" y1="28.7964" x2="71.7479" y2="47.1716" gradientUnits="userSpaceOnUse">
<stop stop-color="#EBA600"/>
<stop offset="1" stop-color="#C28200"/>
</linearGradient>
<linearGradient id="paint2_linear_14_12066" x1="71.7479" y1="38.0095" x2="71.7479" y2="104.962" gradientUnits="userSpaceOnUse">
<stop stop-color="#FFD869"/>
<stop offset="1" stop-color="#FEC52B"/>
</linearGradient>
<linearGradient id="paint3_linear_14_12066" x1="80.6367" y1="98.3329" x2="125.08" y2="98.3329" gradientUnits="userSpaceOnUse">
<stop stop-color="#21AD64"/>
<stop offset="1" stop-color="#088242"/>
</linearGradient>
</defs>
</svg>
