<svg width="151" height="150" viewBox="0 0 151 150" fill="none" xmlns="http://www.w3.org/2000/svg">
<g id="adjustment">
<rect x="2.58203" y="2.5" width="145" height="145" rx="7.5" fill="white"/>
<rect x="2.58203" y="2.5" width="145" height="145" rx="7.5" fill="url(#paint0_linear_14_12125)" fill-opacity="0.2"/>
<g id="Group">
<path id="Vector" d="M125.082 40V52.5H25.082V40C25.082 37.25 27.332 35 30.082 35H120.082C122.832 35 125.082 37.25 125.082 40Z" fill="url(#paint1_linear_14_12125)"/>
<path id="Vector_2" d="M25.082 110V50H125.082V110C125.082 112.75 122.832 115 120.082 115H30.082C27.332 115 25.082 112.75 25.082 110Z" fill="#50E6FF"/>
<path id="Vector_3" d="M77.582 90H72.582C71.202 90 70.082 88.88 70.082 87.5V62.5C70.082 61.12 71.202 60 72.582 60H77.582C78.962 60 80.082 61.12 80.082 62.5V87.5C80.082 88.88 78.962 90 77.582 90Z" fill="url(#paint2_linear_14_12125)"/>
<path id="Vector_4" d="M55.082 77.5H50.082C48.702 77.5 47.582 76.38 47.582 75V62.5C47.582 61.12 48.702 60 50.082 60H55.082C56.462 60 57.582 61.12 57.582 62.5V75C57.582 76.38 56.462 77.5 55.082 77.5Z" fill="url(#paint3_linear_14_12125)"/>
<path id="Vector_5" d="M102.582 70H97.582C96.202 70 95.082 68.88 95.082 67.5V62.5C95.082 61.12 96.202 60 97.582 60H102.582C103.962 60 105.082 61.12 105.082 62.5V67.5C105.082 68.88 103.962 70 102.582 70Z" fill="url(#paint4_linear_14_12125)"/>
<path id="Vector_6" d="M59.6867 82.5H45.4592C43.8667 82.5 42.5742 81.2075 42.5742 79.6125V75.385C42.5742 73.7925 43.8667 72.5 45.4617 72.5H59.6892C61.2817 72.5 62.5742 73.7925 62.5742 75.3875V79.615C62.5742 81.2075 61.2817 82.5 59.6867 82.5Z" fill="url(#paint5_linear_14_12125)"/>
<path id="Vector_7" d="M107.195 77.5H92.967C91.3745 77.5 90.082 76.2075 90.082 74.6125V70.385C90.082 68.7925 91.3745 67.5 92.9695 67.5H107.197C108.79 67.5 110.082 68.7925 110.082 70.3875V74.615C110.082 76.2075 108.79 77.5 107.195 77.5Z" fill="url(#paint6_linear_14_12125)"/>
<path id="Vector_8" d="M47.582 82.5001V102.5C47.582 103.88 48.702 105 50.082 105H55.082C56.462 105 57.582 103.88 57.582 102.5V82.5001H47.582Z" fill="url(#paint7_linear_14_12125)"/>
<path id="Vector_9" d="M70.082 85V102.5C70.082 103.88 71.202 105 72.582 105H77.582C78.962 105 80.082 103.88 80.082 102.5V85H70.082Z" fill="url(#paint8_linear_14_12125)"/>
<path id="Vector_10" d="M95.082 77.5001V102.5C95.082 103.88 96.202 105 97.582 105H102.582C103.962 105 105.082 103.88 105.082 102.5V77.5001H95.082Z" fill="url(#paint9_linear_14_12125)"/>
<path id="Vector_11" d="M82.1945 95H67.967C66.3745 95 65.082 93.7075 65.082 92.1125V87.885C65.082 86.2925 66.3745 85 67.9695 85H82.197C83.7895 85 85.082 86.2925 85.082 87.8875V92.115C85.082 93.7075 83.7895 95 82.1945 95Z" fill="url(#paint10_linear_14_12125)"/>
</g>
<rect x="2.58203" y="2.5" width="145" height="145" rx="7.5" stroke="#D5EAF6" stroke-width="5"/>
</g>
<defs>
<linearGradient id="paint0_linear_14_12125" x1="75.082" y1="5" x2="75.082" y2="145" gradientUnits="userSpaceOnUse">
<stop stop-color="#199AE0"/>
<stop offset="0.472222" stop-color="#0D5176" stop-opacity="0.527778"/>
<stop offset="0.940972" stop-color="#12A6F7" stop-opacity="0.465278"/>
<stop offset="1" stop-opacity="0"/>
</linearGradient>
<linearGradient id="paint1_linear_14_12125" x1="26.617" y1="34.3525" x2="122.422" y2="53.8325" gradientUnits="userSpaceOnUse">
<stop stop-color="#0077D2"/>
<stop offset="1" stop-color="#0B59A2"/>
</linearGradient>
<linearGradient id="paint2_linear_14_12125" x1="75.082" y1="59.9475" x2="75.082" y2="84.535" gradientUnits="userSpaceOnUse">
<stop stop-color="#0D61A9"/>
<stop offset="1" stop-color="#16528C"/>
</linearGradient>
<linearGradient id="paint3_linear_14_12125" x1="52.582" y1="60.265" x2="52.582" y2="72.0125" gradientUnits="userSpaceOnUse">
<stop stop-color="#0D61A9"/>
<stop offset="1" stop-color="#16528C"/>
</linearGradient>
<linearGradient id="paint4_linear_14_12125" x1="100.082" y1="60.345" x2="100.082" y2="67.39" gradientUnits="userSpaceOnUse">
<stop stop-color="#0D61A9"/>
<stop offset="1" stop-color="#16528C"/>
</linearGradient>
<linearGradient id="paint5_linear_14_12125" x1="52.5742" y1="72.6325" x2="52.5742" y2="81.92" gradientUnits="userSpaceOnUse">
<stop stop-color="#2AA4F4"/>
<stop offset="1" stop-color="#007AD9"/>
</linearGradient>
<linearGradient id="paint6_linear_14_12125" x1="100.082" y1="67.845" x2="100.082" y2="77.9075" gradientUnits="userSpaceOnUse">
<stop stop-color="#2AA4F4"/>
<stop offset="1" stop-color="#007AD9"/>
</linearGradient>
<linearGradient id="paint7_linear_14_12125" x1="52.582" y1="81.6501" x2="52.582" y2="104.913" gradientUnits="userSpaceOnUse">
<stop stop-color="#2AA4F4"/>
<stop offset="1" stop-color="#007AD9"/>
</linearGradient>
<linearGradient id="paint8_linear_14_12125" x1="75.082" y1="90.505" x2="75.082" y2="104.023" gradientUnits="userSpaceOnUse">
<stop stop-color="#2AA4F4"/>
<stop offset="1" stop-color="#007AD9"/>
</linearGradient>
<linearGradient id="paint9_linear_14_12125" x1="100.082" y1="77.1801" x2="100.082" y2="106.39" gradientUnits="userSpaceOnUse">
<stop stop-color="#2AA4F4"/>
<stop offset="1" stop-color="#007AD9"/>
</linearGradient>
<linearGradient id="paint10_linear_14_12125" x1="75.082" y1="84.2025" x2="75.082" y2="95.6675" gradientUnits="userSpaceOnUse">
<stop stop-color="#2AA4F4"/>
<stop offset="1" stop-color="#007AD9"/>
</linearGradient>
</defs>
</svg>
