<svg width="151" height="150" viewBox="0 0 151 150" fill="none" xmlns="http://www.w3.org/2000/svg">
<g id="administrator-male">
<rect x="2.58203" y="2.5" width="145" height="145" rx="7.5" fill="white"/>
<rect x="2.58203" y="2.5" width="145" height="145" rx="7.5" fill="url(#paint0_linear_14_12147)" fill-opacity="0.2"/>
<g id="Group">
<path id="Vector" d="M75.0803 90.5667C52.4214 90.5667 34.0547 103.185 34.0547 116.941V119.872C34.0547 122.705 36.3496 125 39.1829 125H110.978C113.811 125 116.106 122.705 116.106 119.872V116.941C116.106 103.185 97.7393 90.5667 75.0803 90.5667Z" fill="url(#paint1_linear_14_12147)"/>
<path id="Vector_2" d="M87.9067 89.3052C87.9067 109.592 75.0861 119.872 75.0861 119.872C75.0861 119.872 62.2656 109.592 62.2656 89.3052C62.2656 82.5436 62.2656 78.8462 62.2656 78.8462H87.9067C87.9067 78.8462 87.9067 82.5436 87.9067 89.3052Z" fill="white"/>
<path id="Vector_3" d="M87.9067 89.3052C87.9067 109.592 75.0861 119.872 75.0861 119.872C75.0861 119.872 62.2656 109.592 62.2656 89.3052C62.2656 82.5436 62.2656 78.8462 62.2656 78.8462H87.9067C87.9067 78.8462 87.9067 82.5436 87.9067 89.3052Z" fill="white"/>
<path id="Vector_4" d="M87.9067 89.1027C87.9067 93.9668 75.0861 99.3591 75.0861 99.3591C75.0861 99.3591 62.2656 93.9668 62.2656 89.1027C62.2656 82.3411 62.2656 71.0642 62.2656 71.0642H87.9067C87.9067 71.0642 87.9067 82.3411 87.9067 89.1027Z" fill="#D6A121"/>
<path id="Vector_5" d="M69.9609 101.923L72.525 104.487L70.5225 114.864C73.0045 118.177 75.0891 119.872 75.0891 119.872C75.0891 119.872 77.1738 118.177 79.6558 114.864L77.6532 104.487L80.2173 101.923L75.0891 99.359L69.9609 101.923Z" fill="#D32F2F"/>
<path id="Vector_6" d="M97.9372 58.3333H96.5859V68.5897H98.3885C99.709 68.5897 100.835 67.7897 101.058 66.6922L101.94 62.3256C102.363 60.2384 100.453 58.3333 97.9372 58.3333Z" fill="url(#paint2_linear_14_12147)"/>
<path id="Vector_7" d="M52.2177 58.3333H53.569V68.5897H51.7664C50.4459 68.5897 49.3203 67.7897 49.0972 66.6922L48.2151 62.3256C47.7921 60.2384 49.7023 58.3333 52.2177 58.3333Z" fill="url(#paint3_linear_14_12147)"/>
<path id="Vector_8" d="M75.0769 28.59C63.6897 28.59 52 30.3207 52 54.9361C52 56.9053 52 70.0053 52 72.1105C52 80.8976 65.8462 91.6669 75.0769 91.6669C84.3077 91.6669 98.1538 80.8976 98.1538 72.1105C98.1538 70.0053 98.1538 56.9079 98.1538 54.9361C98.1538 30.3207 86.4641 28.59 75.0769 28.59Z" fill="url(#paint4_radial_14_12147)"/>
<path id="Vector_9" d="M75.0863 26.3975C63.9222 26.3975 62.2658 30.5923 62.2658 30.5923C57.7274 31.2616 49.4453 37.9103 49.4453 45.5103C49.4453 49.7513 50.1248 52.8846 52.0094 63.459C53.4069 46.6769 57.7761 40.3821 62.2658 40.3821C65.5145 40.3821 68.094 42.9462 75.0863 42.9462C80.9915 42.9462 82.4581 40.3821 87.9069 40.3821C95.5992 40.3821 98.1633 60.8128 98.1633 63.459C99.7043 55.741 100.727 49.2154 100.727 45.5103C100.727 36.718 91.0069 26.3975 75.0863 26.3975Z" fill="url(#paint5_radial_14_12147)"/>
<path id="Vector_10" d="M75.6457 25C64.9688 25 62.2714 30.5949 62.2714 30.5949C62.1637 33.5667 63.6098 36.1897 63.6098 36.1897C63.6098 36.1897 65.5585 40.3846 76.6867 40.3846C83.4047 40.3846 93.0329 36.1923 93.0329 25C93.0329 25 90.8713 25 75.6457 25Z" fill="url(#paint6_radial_14_12147)"/>
</g>
<rect x="2.58203" y="2.5" width="145" height="145" rx="7.5" stroke="#D5EAF6" stroke-width="5"/>
</g>
<defs>
<linearGradient id="paint0_linear_14_12147" x1="75.082" y1="5" x2="75.082" y2="145" gradientUnits="userSpaceOnUse">
<stop stop-color="#199AE0"/>
<stop offset="0.472222" stop-color="#0D5176" stop-opacity="0.527778"/>
<stop offset="0.940972" stop-color="#12A6F7" stop-opacity="0.465278"/>
<stop offset="1" stop-opacity="0"/>
</linearGradient>
<linearGradient id="paint1_linear_14_12147" x1="51.4547" y1="92.1461" x2="98.3521" y2="139.044" gradientUnits="userSpaceOnUse">
<stop stop-color="#0D61A9"/>
<stop offset="1" stop-color="#16528C"/>
</linearGradient>
<linearGradient id="paint2_linear_14_12147" x1="97.9398" y1="63.4615" x2="101.36" y2="63.4615" gradientUnits="userSpaceOnUse">
<stop stop-color="#C48F0C"/>
<stop offset="0.251" stop-color="#D19B16"/>
<stop offset="0.619" stop-color="#DCA51F"/>
<stop offset="1" stop-color="#E0A922"/>
</linearGradient>
<linearGradient id="paint3_linear_14_12147" x1="52.2151" y1="63.4615" x2="48.7946" y2="63.4615" gradientUnits="userSpaceOnUse">
<stop stop-color="#C48F0C"/>
<stop offset="0.251" stop-color="#D19B16"/>
<stop offset="0.619" stop-color="#DCA51F"/>
<stop offset="1" stop-color="#E0A922"/>
</linearGradient>
<radialGradient id="paint4_radial_14_12147" cx="0" cy="0" r="1" gradientUnits="userSpaceOnUse" gradientTransform="translate(75.0732 60.1261) scale(27.6325 27.6325)">
<stop stop-color="#FFCF54"/>
<stop offset="0.261" stop-color="#FDCB4D"/>
<stop offset="0.639" stop-color="#F7C13A"/>
<stop offset="1" stop-color="#F0B421"/>
</radialGradient>
<radialGradient id="paint5_radial_14_12147" cx="0" cy="0" r="1" gradientUnits="userSpaceOnUse" gradientTransform="translate(53.1511 29.2653) scale(65.3627 65.3627)">
<stop stop-color="#C26715"/>
<stop offset="0.508" stop-color="#B85515"/>
<stop offset="1" stop-color="#AD3F16"/>
</radialGradient>
<radialGradient id="paint6_radial_14_12147" cx="0" cy="0" r="1" gradientUnits="userSpaceOnUse" gradientTransform="translate(71.403 33.6417) scale(72.1996 75.4966)">
<stop stop-color="#C26715"/>
<stop offset="0.508" stop-color="#B85515"/>
<stop offset="1" stop-color="#AD3F16"/>
</radialGradient>
</defs>
</svg>
