<svg width="151" height="150" viewBox="0 0 151 150" fill="none" xmlns="http://www.w3.org/2000/svg">
<g id="administrative-tools">
<rect x="2.58203" y="2.5" width="145" height="145" rx="7.5" fill="white"/>
<rect x="2.58203" y="2.5" width="145" height="145" rx="7.5" fill="url(#paint0_linear_14_12138)" fill-opacity="0.2"/>
<g id="Group">
<path id="Vector" d="M73.6496 101.414C89.0775 101.414 101.584 88.9074 101.584 73.4795C101.584 58.0515 89.0775 45.5447 73.6496 45.5447C58.2217 45.5447 45.7148 58.0515 45.7148 73.4795C45.7148 88.9074 58.2217 101.414 73.6496 101.414Z" fill="url(#paint1_linear_14_12138)"/>
<path id="Vector_2" d="M73.6561 90.4832C83.047 90.4832 90.6599 82.8704 90.6599 73.4795C90.6599 64.0886 83.047 56.4757 73.6561 56.4757C64.2652 56.4757 56.6523 64.0886 56.6523 73.4795C56.6523 82.8704 64.2652 90.4832 73.6561 90.4832Z" fill="url(#paint2_linear_14_12138)"/>
<path id="Vector_3" d="M120.801 61.9241C114.998 61.8537 109.379 58.8294 106.268 53.4392C103.273 48.2507 103.333 42.1463 105.874 37.1812C100.712 32.5975 94.5982 29.0704 87.8259 27.0081C84.7798 31.5894 79.5742 34.6137 73.6618 34.6137C67.7493 34.6137 62.5437 31.5918 59.4976 27.0081C52.7253 29.0704 46.6112 32.5975 41.4494 37.1812C43.9902 42.1463 44.0509 48.2507 41.0558 53.4392C37.9442 58.8294 32.3256 61.8537 26.5225 61.9241C25.6164 65.6334 25.082 69.4908 25.082 73.4794C25.082 76.5984 25.4051 79.6372 25.9662 82.5934C31.9637 82.4695 37.847 85.5278 41.0583 91.0904C44.3813 96.8474 43.9416 103.731 40.5239 108.932C45.5813 113.662 51.6322 117.327 58.3535 119.56C61.0984 113.858 66.9137 109.914 73.6642 109.914C80.4147 109.914 86.23 113.858 88.9749 119.56C95.6962 117.327 101.747 113.662 106.805 108.932C103.387 103.731 102.947 96.8474 106.27 91.0904C109.481 85.5278 115.362 82.4695 121.362 82.5934C121.923 79.6372 122.246 76.5984 122.246 73.4794C122.241 69.4908 121.707 65.6334 120.801 61.9241ZM73.6593 98.985C59.5729 98.985 48.1537 87.5658 48.1537 73.4794C48.1537 59.393 59.5729 47.9737 73.6593 47.9737C87.7457 47.9737 99.165 59.393 99.165 73.4794C99.165 87.5658 87.7457 98.985 73.6593 98.985Z" fill="url(#paint3_linear_14_12138)"/>
<path id="Vector_4" d="M71.6445 118.134V84.1261H125.085V118.134C125.085 120.806 122.899 122.992 120.227 122.992H76.5027C73.8307 122.992 71.6445 120.806 71.6445 118.134Z" fill="url(#paint4_linear_14_12138)"/>
<path id="Vector_5" d="M125.085 79.268V84.1262H71.6445V79.268C71.6445 76.596 73.8307 74.4098 76.5027 74.4098H120.227C122.899 74.4098 125.085 76.596 125.085 79.268Z" fill="url(#paint5_linear_14_12138)"/>
<path id="Vector_6" d="M84.1314 116.565L79.2732 111.706C78.7995 111.233 78.7995 110.463 79.2732 109.989L80.9906 108.272C81.4643 107.798 82.2343 107.798 82.708 108.272L84.9889 110.553L92.1281 103.413C92.6017 102.94 93.3718 102.94 93.8454 103.413L95.5628 105.131C96.0365 105.604 96.0365 106.374 95.5628 106.848L85.8464 116.565C85.3751 117.038 84.6075 117.038 84.1314 116.565Z" fill="#195BBC"/>
<path id="Vector_7" d="M84.1314 101.99L79.2732 97.1316C78.7995 96.6579 78.7995 95.8879 79.2732 95.4142L80.9906 93.6968C81.4643 93.2231 82.2343 93.2231 82.708 93.6968L84.9889 95.9777L92.1281 88.8386C92.6017 88.3649 93.3718 88.3649 93.8454 88.8386L95.5628 90.556C96.0365 91.0296 96.0365 91.7997 95.5628 92.2734L85.8464 101.99C85.3751 102.463 84.6075 102.463 84.1314 101.99Z" fill="#195BBC"/>
</g>
<rect x="2.58203" y="2.5" width="145" height="145" rx="7.5" stroke="#D5EAF6" stroke-width="5"/>
</g>
<defs>
<linearGradient id="paint0_linear_14_12138" x1="75.082" y1="5" x2="75.082" y2="145" gradientUnits="userSpaceOnUse">
<stop stop-color="#199AE0"/>
<stop offset="0.472222" stop-color="#0D5176" stop-opacity="0.527778"/>
<stop offset="0.940972" stop-color="#12A6F7" stop-opacity="0.465278"/>
<stop offset="1" stop-opacity="0"/>
</linearGradient>
<linearGradient id="paint1_linear_14_12138" x1="93.1116" y1="92.9415" x2="53.9277" y2="53.7575" gradientUnits="userSpaceOnUse">
<stop stop-color="white"/>
<stop offset="0.242" stop-color="#F2F2F2"/>
<stop offset="1" stop-color="#CCCCCC"/>
</linearGradient>
<linearGradient id="paint2_linear_14_12138" x1="57.7454" y1="57.5688" x2="85.6559" y2="85.4793" gradientUnits="userSpaceOnUse">
<stop stop-color="#0D61A9"/>
<stop offset="0.363" stop-color="#0E5FA4"/>
<stop offset="0.78" stop-color="#135796"/>
<stop offset="1" stop-color="#16528C"/>
</linearGradient>
<linearGradient id="paint3_linear_14_12138" x1="28.3006" y1="28.1619" x2="107.866" y2="107.73" gradientUnits="userSpaceOnUse">
<stop stop-color="#889097"/>
<stop offset="0.331" stop-color="#848C94"/>
<stop offset="0.669" stop-color="#78828B"/>
<stop offset="1" stop-color="#64717C"/>
</linearGradient>
<linearGradient id="paint4_linear_14_12138" x1="83.5107" y1="80.395" x2="109.318" y2="117.728" gradientUnits="userSpaceOnUse">
<stop stop-color="#7DD8F3"/>
<stop offset="1" stop-color="#45B0D0"/>
</linearGradient>
<linearGradient id="paint5_linear_14_12138" x1="72.7741" y1="74.5094" x2="123.669" y2="84.8574" gradientUnits="userSpaceOnUse">
<stop stop-color="#0077D2"/>
<stop offset="1" stop-color="#0B59A2"/>
</linearGradient>
</defs>
</svg>
