<svg width="151" height="150" viewBox="0 0 151 150" fill="none" xmlns="http://www.w3.org/2000/svg">
<g id="archive">
<rect x="2.58203" y="2.5" width="145" height="145" rx="7.5" fill="white"/>
<rect x="2.58203" y="2.5" width="145" height="145" rx="7.5" fill="url(#paint0_linear_14_12212)" fill-opacity="0.2"/>
<g id="Group">
<path id="Vector" d="M114.557 119.737C114.557 122.645 112.201 125 109.294 125H40.8725C37.9646 125 35.6094 122.645 35.6094 119.737V30.2632C35.6094 27.3553 37.9646 25 40.8725 25H109.294C112.201 25 114.557 27.3553 114.557 30.2632V119.737Z" fill="url(#paint1_linear_14_12212)"/>
<path id="Vector_2" d="M80.7406 66.6263C80.5143 65.3789 79.4248 64.4736 78.1538 64.4736H71.9906C70.7196 64.4736 69.6301 65.3736 69.4038 66.6236C68.6801 70.5999 67.238 79.2368 67.1801 85.1684C67.1406 89.1368 69.9354 92.7473 73.859 93.3315C78.7564 94.0605 82.9669 90.2842 82.9669 85.5263C82.9669 79.5921 81.4801 70.6868 80.7406 66.6263ZM75.0722 88.1578C73.6196 88.1578 72.4406 86.9789 72.4406 85.5263C72.4406 84.0736 73.6196 82.8947 75.0722 82.8947C76.5248 82.8947 77.7038 84.0736 77.7038 85.5263C77.7038 86.9789 76.5248 88.1578 75.0722 88.1578Z" fill="url(#paint2_linear_14_12212)"/>
<path id="Vector_3" d="M73.6545 56.5789H71.2519C70.4598 56.5789 69.8203 55.9394 69.8203 55.1499V52.7473C69.8203 51.9578 70.4598 51.3184 71.2493 51.3184H73.6519C74.4414 51.3184 75.0808 51.9578 75.0808 52.7473V55.1499C75.0835 55.9394 74.444 56.5789 73.6545 56.5789Z" fill="#E97C01"/>
<path id="Vector_4" d="M78.9201 61.8421H76.5175C75.7254 61.8421 75.0859 61.2026 75.0859 60.4131V58.0105C75.0859 57.221 75.7254 56.5815 76.5149 56.5815H78.9175C79.707 56.5815 80.3465 57.221 80.3465 58.0105V60.4131C80.3491 61.2026 79.7096 61.8421 78.9201 61.8421Z" fill="#E97C01"/>
<path id="Vector_5" d="M73.6545 46.0528H71.2519C70.4598 46.0528 69.8203 45.4133 69.8203 44.6238V42.2212C69.8203 41.4317 70.4598 40.7922 71.2493 40.7922H73.6519C74.4414 40.7922 75.0808 41.4317 75.0808 42.2212V44.6238C75.0835 45.4133 74.444 46.0528 73.6545 46.0528Z" fill="#E97C01"/>
<path id="Vector_6" d="M78.9201 51.3158H76.5175C75.7254 51.3158 75.0859 50.6763 75.0859 49.8869V47.4842C75.0859 46.6948 75.7254 46.0553 76.5149 46.0553H78.9175C79.707 46.0553 80.3465 46.6948 80.3465 47.4842V49.8869C80.3491 50.6763 79.7096 51.3158 78.9201 51.3158Z" fill="#E97C01"/>
<path id="Vector_7" d="M73.6545 35.5263H71.2519C70.4598 35.5263 69.8203 34.8869 69.8203 34.0974V31.6921C69.8203 30.9027 70.4598 30.2632 71.2493 30.2632H73.6519C74.444 30.2632 75.0835 30.9027 75.0835 31.6921V34.0948C75.0835 34.8869 74.444 35.5263 73.6545 35.5263Z" fill="#E97C01"/>
<path id="Vector_8" d="M78.9201 40.7895H76.5175C75.7254 40.7895 75.0859 40.1501 75.0859 39.3606V36.9553C75.0859 36.1658 75.7254 35.5264 76.5149 35.5264H78.9175C79.7096 35.5264 80.3491 36.1658 80.3491 36.9553V39.3579C80.3491 40.1501 79.7096 40.7895 78.9201 40.7895Z" fill="#E97C01"/>
<path id="Vector_9" d="M78.9201 30.2632H76.5175C75.7254 30.2632 75.0859 29.6237 75.0859 28.8342V26.4289C75.0859 25.6395 75.7254 25 76.5149 25H78.9175C79.7096 25 80.3491 25.6395 80.3491 26.4289V28.8316C80.3491 29.6237 79.7096 30.2632 78.9201 30.2632Z" fill="#E97C01"/>
</g>
<rect x="2.58203" y="2.5" width="145" height="145" rx="7.5" stroke="#D5EAF6" stroke-width="5"/>
</g>
<defs>
<linearGradient id="paint0_linear_14_12212" x1="75.082" y1="5" x2="75.082" y2="145" gradientUnits="userSpaceOnUse">
<stop stop-color="#199AE0"/>
<stop offset="0.472222" stop-color="#0D5176" stop-opacity="0.527778"/>
<stop offset="0.940972" stop-color="#12A6F7" stop-opacity="0.465278"/>
<stop offset="1" stop-opacity="0"/>
</linearGradient>
<linearGradient id="paint1_linear_14_12212" x1="35.6094" y1="75" x2="114.557" y2="75" gradientUnits="userSpaceOnUse">
<stop stop-color="#FEDE00"/>
<stop offset="1" stop-color="#FFD000"/>
</linearGradient>
<linearGradient id="paint2_linear_14_12212" x1="67.1801" y1="78.9473" x2="82.9669" y2="78.9473" gradientUnits="userSpaceOnUse">
<stop stop-color="#4B4B4B"/>
<stop offset="1" stop-color="#3B3B3B"/>
</linearGradient>
</defs>
</svg>
