<svg width="151" height="150" viewBox="0 0 151 150" fill="none" xmlns="http://www.w3.org/2000/svg">
<g id="aspect-ratio">
<rect x="2.58203" y="2.5" width="145" height="145" rx="7.5" fill="white"/>
<rect x="2.58203" y="2.5" width="145" height="145" rx="7.5" fill="url(#paint0_linear_14_12223)" fill-opacity="0.2"/>
<g id="Group">
<path id="Vector" d="M120.32 114.286H29.8439C27.213 114.286 25.082 112.155 25.082 109.524V40.4762C25.082 37.8452 27.213 35.7143 29.8439 35.7143H120.32C122.951 35.7143 125.082 37.8452 125.082 40.4762V109.524C125.082 112.155 122.951 114.286 120.32 114.286Z" fill="#50E6FF"/>
<path id="Vector_2" d="M110.788 100L89.3669 100.017C88.0526 100.019 86.9859 101.086 86.9883 102.4L86.9954 109.524L110.798 109.505L110.788 100Z" fill="url(#paint1_linear_14_12223)"/>
<path id="Vector_3" d="M110.793 78.5812L110.819 109.534L118.926 101.4C119.817 100.505 120.317 99.2931 120.317 98.0312L120.3 76.1907L113.172 76.1979C111.857 76.2003 110.791 77.2669 110.793 78.5812Z" fill="url(#paint2_linear_14_12223)"/>
<path id="Vector_4" d="M39.3806 50.0001L60.802 49.9834C62.1163 49.981 63.183 48.9144 63.1806 47.6001L63.1735 40.4763L39.3711 40.4953L39.3806 50.0001Z" fill="url(#paint3_linear_14_12223)"/>
<path id="Vector_5" d="M39.3715 71.4191L39.3453 40.4763L31.2358 48.612C30.3453 49.5048 29.8453 50.7144 29.8477 51.9739L29.8643 73.8096L36.9929 73.8024C38.3072 73.8001 39.3739 72.7334 39.3715 71.4191Z" fill="url(#paint4_linear_14_12223)"/>
</g>
<rect x="2.58203" y="2.5" width="145" height="145" rx="7.5" stroke="#D5EAF6" stroke-width="5"/>
</g>
<defs>
<linearGradient id="paint0_linear_14_12223" x1="75.082" y1="5" x2="75.082" y2="145" gradientUnits="userSpaceOnUse">
<stop stop-color="#199AE0"/>
<stop offset="0.472222" stop-color="#0D5176" stop-opacity="0.527778"/>
<stop offset="0.940972" stop-color="#12A6F7" stop-opacity="0.465278"/>
<stop offset="1" stop-opacity="0"/>
</linearGradient>
<linearGradient id="paint1_linear_14_12223" x1="87.6478" y1="104.762" x2="111.457" y2="104.762" gradientUnits="userSpaceOnUse">
<stop offset="0.273" stop-color="#912FBD"/>
<stop offset="0.588" stop-color="#8F2EBB"/>
<stop offset="0.758" stop-color="#892BB3"/>
<stop offset="0.894" stop-color="#7E26A5"/>
<stop offset="1" stop-color="#701F94"/>
</linearGradient>
<linearGradient id="paint2_linear_14_12223" x1="109.61" y1="76.0026" x2="121.326" y2="109.2" gradientUnits="userSpaceOnUse">
<stop stop-color="#AE4CD5"/>
<stop offset="1" stop-color="#AC4AD5"/>
</linearGradient>
<linearGradient id="paint3_linear_14_12223" x1="64.4306" y1="45.2382" x2="40.6211" y2="45.2382" gradientUnits="userSpaceOnUse">
<stop offset="0.273" stop-color="#912FBD"/>
<stop offset="0.588" stop-color="#8F2EBB"/>
<stop offset="0.758" stop-color="#892BB3"/>
<stop offset="0.894" stop-color="#7E26A5"/>
<stop offset="1" stop-color="#701F94"/>
</linearGradient>
<linearGradient id="paint4_linear_14_12223" x1="40.7786" y1="74.6358" x2="29.0667" y2="41.4477" gradientUnits="userSpaceOnUse">
<stop stop-color="#AE4CD5"/>
<stop offset="1" stop-color="#AC4AD5"/>
</linearGradient>
</defs>
</svg>
