<svg width="151" height="150" viewBox="0 0 151 150" fill="none" xmlns="http://www.w3.org/2000/svg">
<g id="attendance">
<rect x="2.58203" y="2.5" width="145" height="145" rx="7.5" fill="white"/>
<rect x="2.58203" y="2.5" width="145" height="145" rx="7.5" fill="url(#paint0_linear_14_12232)" fill-opacity="0.2"/>
<g id="Group">
<path id="Vector" d="M114.557 53.9474V119.737C114.557 122.645 112.201 125 109.294 125H40.8725C37.9646 125 35.6094 122.645 35.6094 119.737V30.2632C35.6094 27.3553 37.9646 25 40.8725 25H85.6094L114.557 53.9474Z" fill="#50E6FF"/>
<path id="Vector_2" d="M85.6094 25V48.6842C85.6094 51.5921 87.9646 53.9474 90.8725 53.9474H114.557L85.6094 25Z" fill="url(#paint1_linear_14_12232)"/>
<path id="Vector_3" d="M81.6591 72.3684H47.4486C46.7223 72.3684 46.1328 71.7789 46.1328 71.0526V68.421C46.1328 67.6947 46.7223 67.1052 47.4486 67.1052H81.6591C82.3854 67.1052 82.9749 67.6947 82.9749 68.421V71.0526C82.9749 71.7789 82.3854 72.3684 81.6591 72.3684Z" fill="#057093"/>
<path id="Vector_4" d="M81.6591 93.421H47.4486C46.7223 93.421 46.1328 92.8315 46.1328 92.1052V89.4736C46.1328 88.7473 46.7223 88.1578 47.4486 88.1578H81.6591C82.3854 88.1578 82.9749 88.7473 82.9749 89.4736V92.1052C82.9749 92.8315 82.3854 93.421 81.6591 93.421Z" fill="#057093"/>
<path id="Vector_5" d="M81.6591 114.474H47.4486C46.7223 114.474 46.1328 113.884 46.1328 113.158V110.526C46.1328 109.8 46.7223 109.21 47.4486 109.21H81.6591C82.3854 109.21 82.9749 109.8 82.9749 110.526V113.158C82.9749 113.884 82.3854 114.474 81.6591 114.474Z" fill="#057093"/>
<path id="Vector_6" d="M95.072 75.2632L89.8088 70.0001C89.2825 69.4737 89.2825 68.6843 89.8088 68.158L91.6509 66.3159C92.1772 65.7895 92.9667 65.7895 93.493 66.3159L95.8614 68.6843L103.493 61.0527C104.019 60.5264 104.809 60.5264 105.335 61.0527L107.177 62.8948C107.704 63.4211 107.704 64.2106 107.177 64.7369L96.6509 75.2632C96.6509 75.7895 95.5983 75.7895 95.072 75.2632Z" fill="url(#paint2_linear_14_12232)"/>
<path id="Vector_7" d="M95.072 117.368L89.8088 112.105C89.2825 111.579 89.2825 110.79 89.8088 110.263L91.6509 108.421C92.1772 107.895 92.9667 107.895 93.493 108.421L95.8614 110.789L103.493 103.158C104.019 102.632 104.809 102.632 105.335 103.158L107.177 105C107.704 105.526 107.704 106.316 107.177 106.842L96.6509 117.368C96.6509 117.895 95.5983 117.895 95.072 117.368Z" fill="url(#paint3_linear_14_12232)"/>
<path id="Vector_8" d="M101.135 88.9474L104.819 85.2632C105.345 84.7368 105.345 83.9474 104.819 83.421L102.977 81.5789C102.451 81.0526 101.661 81.0526 101.135 81.5789L97.4507 85.2632L93.7664 81.5789C93.2401 81.0526 92.4507 81.0526 91.9243 81.5789L90.0822 83.421C89.5559 83.9474 89.5559 84.7368 90.0822 85.2632L93.7664 88.9474L90.0822 92.6316C89.5559 93.1579 89.5559 93.9474 90.0822 94.4737L91.9243 96.3158C92.4507 96.8421 93.2401 96.8421 93.7664 96.3158L97.4507 92.6316L101.135 96.3158C101.661 96.8421 102.451 96.8421 102.977 96.3158L104.819 94.4737C105.345 93.9474 105.345 93.1579 104.819 92.6316L101.135 88.9474Z" fill="url(#paint4_linear_14_12232)"/>
</g>
<rect x="2.58203" y="2.5" width="145" height="145" rx="7.5" stroke="#D5EAF6" stroke-width="5"/>
</g>
<defs>
<linearGradient id="paint0_linear_14_12232" x1="75.082" y1="5" x2="75.082" y2="145" gradientUnits="userSpaceOnUse">
<stop stop-color="#199AE0"/>
<stop offset="0.472222" stop-color="#0D5176" stop-opacity="0.527778"/>
<stop offset="0.940972" stop-color="#12A6F7" stop-opacity="0.465278"/>
<stop offset="1" stop-opacity="0"/>
</linearGradient>
<linearGradient id="paint1_linear_14_12232" x1="87.0015" y1="52.5553" x2="100.346" y2="39.2105" gradientUnits="userSpaceOnUse">
<stop stop-color="#3079D6"/>
<stop offset="1" stop-color="#297CD2"/>
</linearGradient>
<linearGradient id="paint2_linear_14_12232" x1="89.4141" y1="68.158" x2="107.572" y2="68.158" gradientUnits="userSpaceOnUse">
<stop stop-color="#C965EB"/>
<stop offset="1" stop-color="#C767E5"/>
</linearGradient>
<linearGradient id="paint3_linear_14_12232" x1="89.4141" y1="110.263" x2="107.572" y2="110.263" gradientUnits="userSpaceOnUse">
<stop stop-color="#C965EB"/>
<stop offset="1" stop-color="#C767E5"/>
</linearGradient>
<linearGradient id="paint4_linear_14_12232" x1="89.6875" y1="88.9474" x2="105.214" y2="88.9474" gradientUnits="userSpaceOnUse">
<stop stop-color="#C965EB"/>
<stop offset="1" stop-color="#C767E5"/>
</linearGradient>
</defs>
</svg>
