<svg width="151" height="150" viewBox="0 0 151 150" fill="none" xmlns="http://www.w3.org/2000/svg">
<g id="auto-deskew">
<rect x="2.58203" y="2.5" width="145" height="145" rx="7.5" fill="white"/>
<rect x="2.58203" y="2.5" width="145" height="145" rx="7.5" fill="url(#paint0_linear_14_12242)" fill-opacity="0.2"/>
<g id="Group">
<path id="Vector" d="M104.628 111.003C104.315 111.007 104.004 110.95 103.713 110.834C103.42 110.703 103.151 110.524 102.918 110.304C102.474 109.845 102.224 109.232 102.219 108.593C102.219 107.954 102.473 107.341 102.925 106.89C103.376 106.438 103.989 106.184 104.628 106.184C105.268 106.184 105.88 106.438 106.332 106.89C106.784 107.341 107.038 107.954 107.038 108.593C107.041 108.911 106.981 109.225 106.861 109.519C106.741 109.813 106.564 110.08 106.339 110.304C106.115 110.529 105.848 110.706 105.554 110.826C105.26 110.946 104.946 111.006 104.628 111.003L104.628 111.003Z" fill="#057093"/>
<path id="Vector_2" d="M49.5821 119.461C49.5197 119.15 49.5195 118.831 49.5817 118.52C49.6438 118.21 49.767 117.915 49.9442 117.653C50.1213 117.391 50.3488 117.166 50.6134 116.992C50.8781 116.819 51.1746 116.7 51.4858 116.642V116.642C51.7961 116.579 52.1157 116.579 52.4261 116.641C52.7365 116.703 53.0314 116.826 53.2938 117.003C53.5561 117.18 53.7806 117.408 53.9542 117.673C54.1278 117.937 54.247 118.234 54.305 118.545V118.545C54.426 119.171 54.2935 119.82 53.9365 120.349C53.5796 120.877 53.0274 121.243 52.4013 121.364V121.364C52.2502 121.392 52.0972 121.409 51.9436 121.414C51.3839 121.415 50.8413 121.221 50.41 120.864C49.9787 120.507 49.6858 120.011 49.5821 119.461V119.461ZM58.3538 117.726C58.2936 117.416 58.295 117.097 58.358 116.788C58.4211 116.478 58.5444 116.184 58.7211 115.923C58.8978 115.661 59.1243 115.436 59.3877 115.262C59.6512 115.088 59.9463 114.967 60.2564 114.907V114.907C60.5669 114.843 60.8872 114.841 61.1983 114.903C61.5094 114.964 61.8052 115.087 62.068 115.264C62.3309 115.442 62.5555 115.67 62.7288 115.936C62.902 116.201 63.0203 116.499 63.0767 116.811C63.1391 117.119 63.1399 117.437 63.0791 117.746C63.0183 118.055 62.897 118.349 62.7223 118.611C62.5476 118.873 62.3229 119.098 62.061 119.273C61.7992 119.448 61.5054 119.569 61.1965 119.63V119.63C61.039 119.668 60.8771 119.684 60.7153 119.677V119.677C60.1568 119.675 59.6164 119.479 59.1859 119.124C58.7554 118.768 58.4614 118.274 58.3538 117.726ZM67.1243 115.992C67.0081 115.366 67.1425 114.719 67.4986 114.192C67.8547 113.664 68.404 113.297 69.028 113.171V113.171C69.3397 113.108 69.6608 113.108 69.9727 113.17C70.2847 113.231 70.5813 113.354 70.8455 113.531C71.1098 113.708 71.3365 113.936 71.5126 114.2C71.6887 114.465 71.8108 114.762 71.8718 115.074V115.074C71.9883 115.7 71.8539 116.346 71.4977 116.874C71.1415 117.401 70.5921 117.768 69.9682 117.893V117.893C69.819 117.933 69.6646 117.95 69.5105 117.943V117.943C68.9492 117.941 68.4056 117.746 67.971 117.391C67.5365 117.036 67.2375 116.542 67.1243 115.992V115.992ZM75.9195 114.255C75.8571 113.945 75.8571 113.625 75.9193 113.315C75.9815 113.005 76.1047 112.71 76.2818 112.448C76.4589 112.185 76.6864 111.961 76.951 111.787C77.2156 111.614 77.512 111.494 77.8231 111.436C78.1335 111.374 78.4531 111.374 78.7635 111.436C79.0738 111.498 79.3687 111.622 79.6311 111.799C79.8934 111.976 80.118 112.203 80.2918 112.468C80.4656 112.732 80.5851 113.029 80.6435 113.34V113.34C80.706 113.65 80.7062 113.97 80.6441 114.28C80.5819 114.591 80.4587 114.885 80.2816 115.148C80.1044 115.41 79.8769 115.635 79.6122 115.808C79.3475 115.982 79.051 116.101 78.7398 116.159V116.159C78.5885 116.188 78.435 116.205 78.2809 116.208V116.208C77.7213 116.209 77.179 116.015 76.7477 115.658C76.3165 115.301 76.0235 114.805 75.9195 114.255V114.255ZM84.6912 112.544C84.5713 111.916 84.7038 111.265 85.06 110.733C85.4163 110.201 85.9676 109.83 86.5948 109.702V109.702C86.9066 109.639 87.2277 109.639 87.5397 109.7C87.8517 109.762 88.1484 109.885 88.4126 110.062C88.6769 110.239 88.9037 110.466 89.0797 110.731C89.2558 110.996 89.3778 111.293 89.4387 111.605C89.5585 112.232 89.4255 112.88 89.0687 113.408C88.712 113.936 88.1605 114.302 87.535 114.425C87.3756 114.452 87.2143 114.468 87.0526 114.472V114.472C86.4977 114.47 85.9604 114.277 85.5305 113.926C85.1006 113.576 84.8043 113.088 84.6912 112.545V112.544ZM93.4863 110.81C93.422 110.5 93.4196 110.18 93.4794 109.869C93.5392 109.558 93.66 109.262 93.8348 108.997C94.0095 108.733 94.2349 108.506 94.4978 108.329C94.7607 108.153 95.0559 108.03 95.3666 107.967V107.967C95.6785 107.903 96.0001 107.901 96.3127 107.962C96.6253 108.023 96.9226 108.146 97.1872 108.323C97.4519 108.5 97.6786 108.728 97.854 108.994C98.0295 109.26 98.1503 109.558 98.2093 109.871V109.871C98.3306 110.497 98.1983 111.146 97.8415 111.675C97.4848 112.203 96.9327 112.569 96.3067 112.69V112.69C96.1551 112.718 96.0017 112.733 95.8478 112.737V112.737C95.292 112.739 94.7528 112.548 94.3221 112.196C93.8915 111.845 93.5961 111.355 93.4863 110.81V110.81Z" fill="#057093"/>
<path id="Vector_3" d="M43.1558 123.148C42.8406 123.144 42.5292 123.079 42.2392 122.955C41.9518 122.838 41.69 122.666 41.4685 122.449C41.241 122.222 41.0606 121.951 40.9379 121.654C40.8114 121.365 40.7461 121.053 40.7461 120.738C40.7461 120.423 40.8114 120.112 40.9379 119.823C41.0543 119.522 41.2354 119.251 41.4685 119.028C41.69 118.81 41.9518 118.638 42.2392 118.522C42.6789 118.33 43.1672 118.279 43.637 118.376C43.7957 118.403 43.9497 118.452 44.0947 118.522C44.2433 118.569 44.3823 118.642 44.5054 118.738C44.6358 118.821 44.7569 118.918 44.8667 119.028C45.0919 119.257 45.2715 119.527 45.3962 119.823C45.5128 120.114 45.5703 120.425 45.5655 120.738C45.5686 121.056 45.5084 121.371 45.3884 121.664C45.2684 121.958 45.091 122.225 44.8666 122.449C44.6422 122.674 44.3753 122.851 44.0816 122.971C43.7878 123.091 43.4731 123.151 43.1558 123.148V123.148Z" fill="#057093"/>
<path id="Vector_4" d="M38.8397 111.293C38.718 110.663 38.8497 110.011 39.2062 109.478C39.5627 108.946 40.1152 108.575 40.7434 108.448V108.448C41.3695 108.328 42.0173 108.461 42.5456 108.818C43.0738 109.175 43.4394 109.726 43.5626 110.351V110.351C43.6267 110.66 43.6288 110.978 43.5688 111.288C43.5087 111.598 43.3876 111.892 43.2127 112.154C43.0377 112.417 42.8123 112.642 42.5496 112.816C42.2868 112.991 41.992 113.111 41.6823 113.17C41.5252 113.21 41.3631 113.227 41.2011 113.22C40.6452 113.222 40.1058 113.031 39.6751 112.679C39.2444 112.328 38.9492 111.838 38.8397 111.293V111.293ZM36.8876 101.364C36.8233 101.056 36.8211 100.737 36.881 100.428C36.941 100.118 37.0619 99.8237 37.2368 99.5613C37.4117 99.2989 37.637 99.0739 37.8996 98.8995C38.1623 98.725 38.457 98.6046 38.7667 98.5451C39.0768 98.4806 39.3966 98.4781 39.7077 98.5377C40.0188 98.5973 40.315 98.7178 40.5793 98.8924C40.8437 99.0669 41.0708 99.292 41.2478 99.5547C41.4248 99.8174 41.5481 100.112 41.6106 100.423V100.423C41.7321 101.052 41.6003 101.704 41.2438 102.237C40.8874 102.77 40.335 103.14 39.7069 103.268V103.268C39.5557 103.295 39.4027 103.311 39.2492 103.315V103.315C38.6898 103.317 38.1475 103.122 37.7163 102.766C37.285 102.41 36.9919 101.914 36.8876 101.364ZM34.9109 91.4597C34.7913 90.8308 34.9239 90.1801 35.2801 89.6482C35.6363 89.1163 36.1875 88.7459 36.8146 88.617V88.617C37.1264 88.5542 37.4476 88.5537 37.7596 88.6155C38.0716 88.6773 38.3683 88.8002 38.6326 88.9772C38.8969 89.1541 39.1236 89.3816 39.2997 89.6465C39.4757 89.9114 39.5977 90.2085 39.6585 90.5207V90.5207C39.7746 91.1464 39.6401 91.7927 39.284 92.3201C38.9278 92.8475 38.3786 93.2138 37.7548 93.3398V93.3398C37.5957 93.3672 37.4349 93.3829 37.2735 93.3869C36.7194 93.3816 36.1836 93.1879 35.7542 92.8377C35.3248 92.4874 35.0274 92.0014 34.9109 91.4596V91.4597ZM32.96 81.5313C32.8383 80.9022 32.9701 80.2505 33.3266 79.7181C33.6832 79.1856 34.2356 78.8156 34.8637 78.6886V78.6886C35.4898 78.5694 36.1376 78.7027 36.6657 79.0593C37.1939 79.416 37.5595 79.967 37.6829 80.5923C37.7456 80.904 37.7461 81.2251 37.6842 81.537C37.6224 81.8489 37.4994 82.1455 37.3225 82.4097C37.1456 82.6739 36.9181 82.9005 36.6533 83.0765C36.3884 83.2525 36.0914 83.3743 35.7792 83.435C35.6276 83.4565 35.4745 83.4652 35.3215 83.4609V83.4609C34.7662 83.4593 34.2283 83.2666 33.7983 82.9152C33.3683 82.5639 33.0723 82.0752 32.96 81.5313ZM31.0082 71.6031C30.944 71.2926 30.9426 70.9725 31.004 70.6615C31.0654 70.3505 31.1884 70.055 31.3658 69.7922C31.5432 69.5295 31.7714 69.305 32.0369 69.1318C32.3024 68.9586 32.5999 68.8403 32.9119 68.7839V68.7839C33.2205 68.7215 33.5384 68.7208 33.8473 68.7816C34.1562 68.8424 34.4501 68.9637 34.712 69.1384C34.9739 69.3131 35.1988 69.5378 35.3737 69.7996C35.5485 70.0615 35.67 70.3552 35.731 70.6641C35.793 70.9758 35.7928 71.2966 35.7306 71.6082C35.6685 71.9199 35.5454 72.2162 35.3686 72.4802C35.1918 72.7442 34.9647 72.9708 34.7002 73.147C34.4357 73.3231 34.1391 73.4454 33.8274 73.5068C33.6764 73.5361 33.5233 73.5526 33.3697 73.5562V73.5562C32.8099 73.5576 32.2674 73.363 31.8361 73.0063C31.4047 72.6495 31.1119 72.1531 31.0082 71.6031V71.6031ZM29.0315 61.6771C28.9155 61.0511 29.05 60.4047 29.4061 59.8769C29.7622 59.3492 30.3113 58.9824 30.9351 58.8556C31.2469 58.7931 31.568 58.7928 31.8799 58.8547C32.1918 58.9166 32.4885 59.0395 32.7527 59.2164C33.017 59.3933 33.2437 59.6207 33.4198 59.8855C33.5959 60.1502 33.718 60.4472 33.779 60.7593V60.7593C33.8985 61.3856 33.7654 62.0338 33.4088 62.5624C33.0521 63.091 32.5009 63.4571 31.8753 63.5808V63.5808C31.7259 63.6185 31.5717 63.6344 31.4176 63.6279C30.8564 63.6262 30.3127 63.4314 29.8782 63.0761C29.4436 62.7209 29.1446 62.2269 29.0314 61.6771H29.0315ZM27.0795 51.7724C26.9576 51.1433 27.0894 50.4915 27.4459 49.959C27.8025 49.4266 28.355 49.0566 28.9831 48.9297V48.9297C29.6119 48.8127 30.2615 48.9464 30.7929 49.3021C31.3244 49.6579 31.6955 50.2075 31.827 50.8334V50.8334C31.9436 51.4619 31.8097 52.1112 31.454 52.6424C31.0983 53.1735 30.5489 53.5445 29.9233 53.6761V53.6761C29.7643 53.7034 29.6034 53.7191 29.4421 53.7231V53.7231C28.8848 53.7164 28.3465 53.5192 27.9167 53.1644C27.4869 52.8095 27.1915 52.3183 27.0794 51.7724H27.0795Z" fill="#057093"/>
<path id="Vector_5" d="M27.4919 43.795C27.1757 43.8036 26.8618 43.7383 26.5753 43.6044C26.2841 43.4813 26.0156 43.3102 25.7811 43.0983C25.4441 42.7607 25.2157 42.33 25.1253 41.8616C25.035 41.3932 25.0867 40.9085 25.2739 40.4698C25.3911 40.175 25.5632 39.9051 25.781 39.6745C26.2474 39.2455 26.858 39.0073 27.4918 39.0073C28.1255 39.0073 28.7361 39.2455 29.2026 39.6745C29.4197 39.9055 29.5913 40.1753 29.7086 40.4699C29.8654 40.8346 29.9286 41.2326 29.8925 41.628C29.8564 42.0233 29.7222 42.4033 29.502 42.7336C29.2818 43.0639 28.9826 43.334 28.6316 43.5193C28.2806 43.7047 27.8888 43.7994 27.4919 43.795V43.795Z" fill="#057093"/>
<path id="Vector_6" d="M33.9041 40.1097C33.7878 39.484 33.9223 38.8376 34.2784 38.3102C34.6346 37.7827 35.1839 37.4165 35.8078 37.2905V37.2905C36.1182 37.2261 36.4384 37.2244 36.7495 37.2857C37.0606 37.347 37.3563 37.47 37.6191 37.6475C37.8818 37.8249 38.1064 38.0532 38.2795 38.3189C38.4526 38.5845 38.5707 38.8822 38.6269 39.1942C38.6896 39.5028 38.6906 39.8207 38.6299 40.1296C38.5693 40.4386 38.4482 40.7325 38.2735 40.9945C38.0989 41.2565 37.8742 41.4813 37.6124 41.6562C37.3506 41.8311 37.0568 41.9524 36.7479 42.0134C36.5902 42.0523 36.4277 42.0682 36.2655 42.0604V42.0604C35.7082 42.0543 35.1698 41.8573 34.7401 41.5023C34.3104 41.1474 34.0153 40.6558 33.9041 40.1097ZM42.7005 38.373C42.638 38.0645 42.6371 37.7466 42.6979 37.4378C42.7586 37.1289 42.8797 36.835 43.0543 36.5731C43.2289 36.3111 43.4535 36.0862 43.7153 35.9113C43.977 35.7364 44.2707 35.6149 44.5795 35.5538V35.5538C44.8914 35.4898 45.213 35.4883 45.5254 35.5496C45.8379 35.6109 46.1351 35.7337 46.3997 35.9108C46.6643 36.0879 46.891 36.3159 47.0668 36.5814C47.2425 36.8469 47.3638 37.1447 47.4234 37.4575V37.4575C47.5448 38.0838 47.4124 38.7326 47.0554 39.2613C46.6984 39.79 46.146 40.1553 45.5197 40.2767V40.2767C45.3688 40.3059 45.2157 40.3224 45.062 40.3261V40.3261C44.5023 40.3275 43.9598 40.133 43.5284 39.7763C43.0971 39.4196 42.8042 38.9232 42.7005 38.3731V38.373ZM51.471 36.6387C51.3499 36.0124 51.4824 35.3638 51.8394 34.8351C52.1963 34.3065 52.7485 33.9412 53.3746 33.8195V33.8195C53.6851 33.7553 54.0052 33.7538 54.3162 33.8152C54.6272 33.8766 54.9228 33.9997 55.1855 34.1771C55.4482 34.3545 55.6728 34.5827 55.846 34.8482C56.0191 35.1137 56.1374 35.4112 56.1938 35.7232C56.2565 36.0335 56.2569 36.3532 56.1949 36.6637C56.1328 36.9741 56.0097 37.2691 55.8325 37.5315C55.6553 37.7939 55.4277 38.0184 55.1629 38.192C54.8981 38.3655 54.6014 38.4846 54.2901 38.5424C54.1391 38.5705 53.986 38.587 53.8324 38.5918V38.5918C53.2728 38.5928 52.7305 38.3981 52.2992 38.0415C51.868 37.6848 51.575 37.1886 51.471 36.6388V36.6387ZM60.2426 34.9044C60.1261 34.2786 60.2605 33.6321 60.6167 33.1046C60.9729 32.5771 61.5223 32.2109 62.1463 32.0852C62.4581 32.0225 62.7793 32.022 63.0913 32.0839C63.4033 32.1457 63.6999 32.2687 63.9643 32.4456C64.2286 32.6226 64.4553 32.85 64.6314 33.1149C64.8074 33.3798 64.9294 33.6769 64.9903 33.989V33.989C65.1062 34.6147 64.9716 35.2609 64.6155 35.7883C64.2594 36.3157 63.7103 36.682 63.0866 36.8082C62.9271 36.8355 62.7659 36.8512 62.6042 36.8553C62.0468 36.8492 61.5084 36.6522 61.0786 36.2972C60.6489 35.9422 60.3538 35.4506 60.2426 34.9044V34.9044ZM69.0378 33.17C68.9753 32.8597 68.9751 32.5401 69.0373 32.2297C69.0994 31.9194 69.2226 31.6244 69.3998 31.3621C69.5769 31.0998 69.8044 30.8753 70.0691 30.7017C70.3338 30.5281 70.6303 30.4088 70.9415 30.3508V30.3508C71.2518 30.2881 71.5715 30.2877 71.882 30.3497C72.1925 30.4117 72.4875 30.5349 72.7499 30.7121C73.0123 30.8893 73.2368 31.1169 73.4103 31.3817C73.5839 31.6465 73.703 31.9432 73.7607 32.2545V32.2545C73.8231 32.5648 73.8232 32.8844 73.7611 33.1948C73.6989 33.5051 73.5757 33.8 73.3985 34.0623C73.2214 34.3246 72.9939 34.5491 72.7293 34.7227C72.4646 34.8964 72.1681 35.0157 71.857 35.0737C71.7059 35.101 71.5528 35.1167 71.3993 35.1208V35.1208C70.84 35.122 70.2978 34.9277 69.8666 34.5715C69.4354 34.2153 69.1422 33.7196 69.0378 33.1701V33.17ZM77.8095 31.4333C77.6933 30.8076 77.8278 30.1613 78.184 29.6339C78.5401 29.1065 79.0894 28.7402 79.7132 28.6142V28.6142C80.0249 28.5516 80.3459 28.5513 80.6577 28.6133C80.9696 28.6752 81.2661 28.7982 81.5302 28.9751C81.7944 29.152 82.021 29.3793 82.197 29.6441C82.373 29.9089 82.495 30.2058 82.5559 30.5178V30.5178C82.6724 31.1434 82.5381 31.7898 82.1822 32.3172C81.8262 32.8447 81.277 33.211 80.6533 33.337V33.337C80.494 33.3662 80.3327 33.3827 80.1709 33.3864V33.3864C79.6122 33.384 79.0716 33.1881 78.6411 32.832C78.2106 32.4759 77.9167 31.9817 77.8095 31.4334V31.4333Z" fill="#057093"/>
<path id="Vector_7" d="M88.9645 31.6523C88.5699 31.6478 88.1823 31.5476 87.835 31.3603C87.4877 31.173 87.191 30.9041 86.9706 30.5768C86.7501 30.2495 86.6124 29.8736 86.5693 29.4813C86.5262 29.089 86.5789 28.6922 86.7231 28.3248C86.858 28.0418 87.0371 27.782 87.2537 27.5553C87.5933 27.2224 88.022 26.995 88.4881 26.9006C88.9542 26.8062 89.4376 26.8489 89.88 27.0235C90.1777 27.1464 90.448 27.3271 90.6753 27.5553C91.113 28.0093 91.3626 28.6121 91.3742 29.2426C91.3693 29.8814 91.1191 30.4939 90.6753 30.9535C90.2194 31.4026 89.6046 31.6537 88.9645 31.6523V31.6523Z" fill="#057093"/>
<path id="Vector_8" d="M100.316 99.1474C100.19 98.521 100.317 97.87 100.669 97.3368C101.021 96.8037 101.571 96.4318 102.196 96.3025C102.825 96.1827 103.476 96.3152 104.008 96.6715C104.54 97.0277 104.91 97.579 105.039 98.2061C105.161 98.8355 105.029 99.4876 104.673 100.02C104.316 100.553 103.764 100.924 103.135 101.051V101.051C102.984 101.079 102.831 101.094 102.678 101.098V101.098C102.118 101.099 101.576 100.905 101.145 100.549C100.714 100.193 100.421 99.6969 100.316 99.1474ZM98.3407 89.2191C98.2209 88.593 98.3539 87.9449 98.7106 87.4166C99.0674 86.8883 99.6188 86.5228 100.244 86.4V86.4C100.871 86.2732 101.522 86.3999 102.054 86.7524C102.587 87.1048 102.959 87.6543 103.087 88.2802V88.2802C103.207 88.9091 103.074 89.5599 102.718 90.0919C102.362 90.6239 101.811 90.9943 101.183 91.1229V91.1229C101.024 91.1502 100.863 91.166 100.702 91.17V91.17C100.145 91.1638 99.6064 90.9669 99.1767 90.6119C98.747 90.2569 98.4519 89.7654 98.3407 89.2192V89.2191ZM96.3886 79.3144C96.2672 78.6853 96.399 78.0337 96.7555 77.5013C97.1121 76.969 97.6644 76.5989 98.2923 76.4717C98.6026 76.4099 98.922 76.4103 99.2321 76.4727C99.5422 76.5352 99.8368 76.6585 100.099 76.8355C100.361 77.0125 100.586 77.2398 100.759 77.5041C100.933 77.7684 101.053 78.0645 101.111 78.3754V78.3754C101.176 78.684 101.178 79.0024 101.118 79.312C101.058 79.6216 100.937 79.9161 100.762 80.1785C100.588 80.4409 100.362 80.6659 100.1 80.8403C99.8369 81.0148 99.5421 81.1353 99.2325 81.1947V81.1947C99.0746 81.2325 98.9123 81.2483 98.7501 81.2418V81.2418C98.194 81.2443 97.6544 81.0534 97.2236 80.7018C96.7928 80.3502 96.4976 79.8598 96.3886 79.3145V79.3144ZM94.4367 69.3861C94.3727 69.0757 94.3715 68.7556 94.433 68.4447C94.4945 68.1338 94.6176 67.8384 94.7949 67.5757C94.9723 67.313 95.2004 67.0885 95.4658 66.9153C95.7312 66.742 96.0285 66.6236 96.3403 66.5669V66.5669C96.649 66.5046 96.9668 66.5038 97.2758 66.5647C97.5847 66.6255 97.8786 66.7467 98.1405 66.9214C98.4024 67.0961 98.6273 67.3209 98.8022 67.5827C98.977 67.8445 99.0985 68.1383 99.1595 68.4472V68.4472C99.2224 68.7589 99.2229 69.08 99.1611 69.392C99.0993 69.7039 98.9764 70.0006 98.7995 70.2648C98.6225 70.529 98.395 70.7557 98.1301 70.9316C97.8652 71.1075 97.568 71.2293 97.2559 71.2899V71.2899C97.1049 71.3191 96.9518 71.3356 96.7982 71.3393V71.3393C96.2385 71.3405 95.696 71.1459 95.2647 70.7892C94.8335 70.4325 94.5405 69.9362 94.4367 69.3862V69.3861ZM92.4612 59.4579C92.3454 58.8323 92.48 58.1861 92.8361 57.6588C93.1922 57.1314 93.7412 56.7651 94.3649 56.6387V56.6387C94.994 56.5174 95.6455 56.6492 96.1779 57.0057C96.7102 57.3622 97.0803 57.9145 97.2076 58.5424V58.5424C97.3274 59.1685 97.1944 59.8166 96.8376 60.3449C96.4809 60.8732 95.9294 61.2388 95.3039 61.3616V61.3616C95.1451 61.3909 94.9841 61.4074 94.8227 61.411V61.411C94.265 61.4048 93.7263 61.2075 93.2966 60.8521C92.8668 60.4966 92.5719 60.0045 92.4612 59.4579V59.4579ZM90.5091 49.5556C90.3922 48.927 90.5259 48.2776 90.8817 47.7464C91.2374 47.2151 91.787 46.8442 92.4128 46.7129V46.7129C93.0411 46.5959 93.6902 46.7293 94.2214 47.0847C94.7526 47.44 95.1238 47.989 95.2555 48.6143C95.375 49.2407 95.2419 49.8889 94.8853 50.4175C94.5286 50.9461 93.9774 51.3122 93.3518 51.4359V51.4359C93.1943 51.4737 93.0324 51.4895 92.8706 51.4829V51.4829C92.3156 51.4812 91.7781 51.2888 91.3482 50.9379C90.9183 50.587 90.622 50.099 90.5091 49.5556ZM88.5571 39.6273C88.4929 39.3169 88.4914 38.9968 88.5528 38.6858C88.6142 38.3748 88.7372 38.0792 88.9147 37.8165C89.0921 37.5537 89.3202 37.3292 89.5858 37.156C89.8513 36.9829 90.1488 36.8646 90.4608 36.8082V36.8082C90.7694 36.7456 91.0874 36.7446 91.3964 36.8054C91.7054 36.8661 91.9993 36.9873 92.2613 37.1621C92.5233 37.3368 92.7482 37.5616 92.923 37.8236C93.0978 38.0855 93.2191 38.3794 93.2799 38.6884C93.3442 39.0003 93.3458 39.3218 93.2846 39.6343C93.2234 39.9468 93.1007 40.2439 92.9235 40.5085C92.7463 40.7731 92.5183 40.9997 92.2527 41.1753C91.987 41.3509 91.6891 41.4718 91.3763 41.5311V41.5311C91.2251 41.5584 91.0721 41.5742 90.9185 41.5782C90.3591 41.5796 89.8169 41.3853 89.3856 41.029C88.9543 40.6727 88.6613 40.1769 88.5571 39.6272V39.6273Z" fill="#057093"/>
<path id="Vector_9" d="M125.079 45.5316V118.835C125.096 119.959 124.667 121.044 123.885 121.853C123.104 122.661 122.034 123.127 120.91 123.148H66.5951C65.4709 123.127 64.401 122.661 63.6196 121.853C62.8382 121.044 62.4091 119.959 62.4263 118.835V45.5316C62.4091 44.4074 62.8382 43.3222 63.6196 42.5137C64.401 41.7052 65.4709 41.2394 66.5951 41.2182H120.91C122.034 41.2394 123.104 41.7052 123.885 42.5137C124.667 43.3222 125.096 44.4074 125.079 45.5316Z" fill="#50E6FF"/>
<g id="Group_2">
<path id="Vector_10" d="M114.24 60.4958H73.2752C72.9557 60.4957 72.6493 60.3687 72.4233 60.1428C72.1974 59.9169 72.0704 59.6105 72.0703 59.291V56.8812C72.0704 56.5617 72.1974 56.2553 72.4233 56.0294C72.6493 55.8035 72.9557 55.6765 73.2752 55.6764H114.24C114.56 55.6765 114.866 55.8035 115.092 56.0294C115.318 56.2553 115.445 56.5617 115.445 56.8812V59.291C115.445 59.6105 115.318 59.9169 115.092 60.1428C114.866 60.3687 114.56 60.4957 114.24 60.4958Z" fill="#35C1F1"/>
<path id="Vector_11" d="M109.421 70.1347H73.2752C72.9557 70.1345 72.6493 70.0076 72.4233 69.7816C72.1974 69.5557 72.0704 69.2493 72.0703 68.9298V66.5201C72.0704 66.2006 72.1974 65.8942 72.4233 65.6683C72.6493 65.4423 72.9557 65.3154 73.2752 65.3152H109.421C109.74 65.3154 110.047 65.4423 110.273 65.6683C110.499 65.8942 110.626 66.2006 110.626 66.5201V68.9298C110.626 69.2493 110.499 69.5557 110.273 69.7816C110.047 70.0076 109.74 70.1345 109.421 70.1347Z" fill="#35C1F1"/>
<path id="Vector_12" d="M114.24 79.7734H73.2752C72.9557 79.7732 72.6493 79.6463 72.4233 79.4203C72.1974 79.1944 72.0704 78.888 72.0703 78.5685V76.1588C72.0704 75.8393 72.1974 75.5329 72.4233 75.307C72.6493 75.081 72.9557 74.9541 73.2752 74.9539H114.24C114.56 74.9541 114.866 75.081 115.092 75.307C115.318 75.5329 115.445 75.8393 115.445 76.1588V78.5685C115.445 78.888 115.318 79.1944 115.092 79.4203C114.866 79.6463 114.56 79.7732 114.24 79.7734V79.7734Z" fill="#35C1F1"/>
<path id="Vector_13" d="M114.24 99.0511H73.2752C72.9557 99.051 72.6493 98.924 72.4233 98.6981C72.1974 98.4721 72.0704 98.1657 72.0703 97.8462V95.4365C72.0704 95.117 72.1974 94.8106 72.4233 94.5847C72.6493 94.3588 72.9557 94.2318 73.2752 94.2317H114.24C114.56 94.2318 114.866 94.3588 115.092 94.5847C115.318 94.8106 115.445 95.117 115.445 95.4365V97.8462C115.445 98.1657 115.318 98.4721 115.092 98.6981C114.866 98.924 114.56 99.051 114.24 99.0511V99.0511Z" fill="#35C1F1"/>
<path id="Vector_14" d="M109.421 89.4121H73.2752C72.9557 89.412 72.6493 89.285 72.4233 89.0591C72.1974 88.8331 72.0704 88.5268 72.0703 88.2072V85.7975C72.0704 85.478 72.1974 85.1716 72.4233 84.9457C72.6493 84.7198 72.9557 84.5928 73.2752 84.5927H109.421C109.74 84.5928 110.047 84.7198 110.273 84.9457C110.499 85.1716 110.626 85.478 110.626 85.7975V88.2072C110.626 88.5268 110.499 88.8331 110.273 89.0591C110.047 89.285 109.74 89.412 109.421 89.4121V89.4121Z" fill="#35C1F1"/>
<path id="Vector_15" d="M109.421 108.69H73.2752C72.9557 108.69 72.6493 108.563 72.4233 108.337C72.1974 108.111 72.0704 107.805 72.0703 107.485V105.075C72.0704 104.756 72.1974 104.449 72.4233 104.224C72.6493 103.998 72.9557 103.871 73.2752 103.87H109.421C109.74 103.871 110.047 103.998 110.273 104.224C110.499 104.449 110.626 104.756 110.626 105.075V107.485C110.626 107.805 110.499 108.111 110.273 108.337C110.047 108.563 109.74 108.69 109.421 108.69Z" fill="#35C1F1"/>
</g>
<path id="Vector_16" d="M67.2539 71.062V93.3043C67.2624 93.4964 67.3276 93.6817 67.4414 93.8368C67.5551 93.9919 67.7123 94.1098 67.893 94.1756C68.0737 94.2414 68.2698 94.2522 68.4567 94.2065C68.6435 94.1609 68.8126 94.061 68.9427 93.9193L78.9053 83.1838C79.1604 82.9131 79.3024 82.5551 79.3024 82.1831C79.3024 81.8111 79.1604 81.4532 78.9053 81.1825L68.9427 70.447C68.8126 70.3053 68.6435 70.2053 68.4567 70.1597C68.2698 70.1141 68.0737 70.1249 67.893 70.1907C67.7123 70.2565 67.5551 70.3744 67.4414 70.5295C67.3276 70.6845 67.2624 70.8699 67.2539 71.062V71.062Z" fill="url(#paint1_linear_14_12242)"/>
<path id="Vector_17" d="M72.0703 77.3637V87.0026H50.3829C49.7438 87.0026 49.1309 86.7487 48.679 86.2968C48.2271 85.8449 47.9732 85.232 47.9732 84.5929V79.7734C47.9732 79.1344 48.2271 78.5214 48.679 78.0695C49.1309 77.6176 49.7438 77.3637 50.3829 77.3637H72.0703Z" fill="url(#paint2_linear_14_12242)"/>
<g id="Group_3">
<path id="Vector_18" opacity="0.05" d="M80.6829 79.5324L70.7067 68.8092C70.2487 68.3137 69.6527 67.9669 68.9956 67.8133C68.3386 67.6598 67.6506 67.7066 67.0204 67.9478C66.3902 68.189 65.8468 68.6135 65.4601 69.1664C65.0735 69.7194 64.8613 70.3755 64.8511 71.0502V74.9539H62.4414V77.3636H67.2608V71.0502C67.2673 70.801 67.3724 70.5645 67.5532 70.3928C67.7339 70.2211 67.9755 70.1282 68.2247 70.1345C68.3606 70.132 68.4954 70.1587 68.6201 70.2127C68.7448 70.2668 68.8565 70.3469 68.9476 70.4478L78.9238 81.171C79.1685 81.4514 79.3032 81.8109 79.3032 82.1831C79.3032 82.5552 79.1685 82.9147 78.9238 83.1951L68.9476 93.9183C68.8565 94.0192 68.7448 94.0993 68.6201 94.1533C68.4954 94.2073 68.3606 94.234 68.2247 94.2316C67.9755 94.2379 67.734 94.145 67.5532 93.9733C67.3725 93.8016 67.2673 93.5651 67.2608 93.3159V87.0025H62.4414V89.4122H64.8511V93.3159C64.8613 93.9906 65.0735 94.6467 65.4601 95.1997C65.8468 95.7526 66.3902 96.1771 67.0204 96.4183C67.6506 96.6595 68.3386 96.7063 68.9956 96.5528C69.6527 96.3992 70.2487 96.0524 70.7067 95.5569L80.6829 84.8337C81.3563 84.1154 81.7311 83.1677 81.7311 82.1831C81.7311 81.1984 81.3563 80.2507 80.6829 79.5324Z" fill="black"/>
<path id="Vector_19" opacity="0.07" d="M79.7913 80.3517L69.8392 69.6285C69.5445 69.3106 69.1618 69.0877 68.7399 68.9881C68.318 68.8885 67.876 68.9167 67.4703 69.0692C67.0645 69.2217 66.7133 69.4915 66.4614 69.8443C66.2096 70.1971 66.0684 70.6169 66.056 71.0502V76.1588H62.4414V77.3637H67.2608V71.0502C67.2673 70.801 67.3724 70.5645 67.5532 70.3928C67.7339 70.2211 67.9755 70.1282 68.2247 70.1345C68.3606 70.132 68.4954 70.1587 68.6201 70.2128C68.7448 70.2668 68.8565 70.3469 68.9476 70.4478L78.9238 81.171C79.1685 81.4514 79.3032 81.8109 79.3032 82.1831C79.3032 82.5552 79.1685 82.9147 78.9238 83.1951L68.9476 93.9183C68.8565 94.0192 68.7448 94.0993 68.6201 94.1533C68.4954 94.2074 68.3606 94.2341 68.2247 94.2316C67.9755 94.2379 67.734 94.145 67.5532 93.9733C67.3725 93.8016 67.2673 93.5651 67.2608 93.3159V87.0025H62.4414V88.2073H66.056V93.3159C66.0684 93.7492 66.2096 94.169 66.4614 94.5218C66.7133 94.8746 67.0645 95.1445 67.4703 95.2969C67.876 95.4494 68.318 95.4777 68.7399 95.3781C69.1618 95.2785 69.5445 95.0555 69.8392 94.7376L79.7913 84.0145C80.2558 83.5177 80.5141 82.8631 80.5141 82.1831C80.5141 81.503 80.2558 80.8484 79.7913 80.3517V80.3517Z" fill="black"/>
</g>
</g>
<rect x="2.58203" y="2.5" width="145" height="145" rx="7.5" stroke="#D5EAF6" stroke-width="5"/>
</g>
<defs>
<linearGradient id="paint0_linear_14_12242" x1="75.082" y1="5" x2="75.082" y2="145" gradientUnits="userSpaceOnUse">
<stop stop-color="#199AE0"/>
<stop offset="0.472222" stop-color="#0D5176" stop-opacity="0.527778"/>
<stop offset="0.940972" stop-color="#12A6F7" stop-opacity="0.465278"/>
<stop offset="1" stop-opacity="0"/>
</linearGradient>
<linearGradient id="paint1_linear_14_12242" x1="68.5359" y1="66.0213" x2="75.724" y2="98.9066" gradientUnits="userSpaceOnUse">
<stop stop-color="#AE4CD5"/>
<stop offset="1" stop-color="#AC4AD5"/>
</linearGradient>
<linearGradient id="paint2_linear_14_12242" x1="57.2627" y1="68.484" x2="64.4508" y2="101.369" gradientUnits="userSpaceOnUse">
<stop stop-color="#AE4CD5"/>
<stop offset="1" stop-color="#AC4AD5"/>
</linearGradient>
</defs>
</svg>
