<svg width="151" height="150" viewBox="0 0 151 150" fill="none" xmlns="http://www.w3.org/2000/svg">
<g id="back">
<rect x="2.58203" y="2.5" width="145" height="145" rx="7.5" fill="white"/>
<rect x="2.58203" y="2.5" width="145" height="145" rx="7.5" fill="url(#paint0_linear_14_12265)" fill-opacity="0.2"/>
<g id="Group">
<path id="Vector" d="M44.3178 78.3356L89.6001 123.618C91.4429 125.461 94.4285 125.461 96.2714 123.618L105.84 114.049C107.683 112.206 107.683 109.221 105.84 107.378L60.5579 62.0955C58.7151 60.2527 55.7295 60.2527 53.8866 62.0955L44.3178 71.6643C42.4774 73.5071 42.4774 76.4928 44.3178 78.3356Z" fill="url(#paint1_linear_14_12265)"/>
<path id="Vector_2" d="M60.5597 87.9045L105.842 42.6222C107.685 40.7794 107.685 37.7937 105.842 35.9509L96.2731 26.3821C94.4303 24.5393 91.4447 24.5393 89.6019 26.3821L44.3196 71.6644C42.4768 73.5072 42.4768 76.4928 44.3196 78.3356L53.8884 87.9045C55.7312 89.7449 58.7169 89.7449 60.5597 87.9045Z" fill="url(#paint2_linear_14_12265)"/>
</g>
<rect x="2.58203" y="2.5" width="145" height="145" rx="7.5" stroke="#D5EAF6" stroke-width="5"/>
</g>
<defs>
<linearGradient id="paint0_linear_14_12265" x1="75.082" y1="5" x2="75.082" y2="145" gradientUnits="userSpaceOnUse">
<stop stop-color="#199AE0"/>
<stop offset="0.472222" stop-color="#0D5176" stop-opacity="0.527778"/>
<stop offset="0.940972" stop-color="#12A6F7" stop-opacity="0.465278"/>
<stop offset="1" stop-opacity="0"/>
</linearGradient>
<linearGradient id="paint1_linear_14_12265" x1="103.54" y1="121.318" x2="62.8698" y2="80.6474" gradientUnits="userSpaceOnUse">
<stop offset="0.365" stop-color="#199AE0"/>
<stop offset="0.699" stop-color="#1898DE"/>
<stop offset="0.819" stop-color="#1691D8"/>
<stop offset="0.905" stop-color="#1186CC"/>
<stop offset="0.974" stop-color="#0A75BC"/>
<stop offset="1" stop-color="#076CB3"/>
</linearGradient>
<linearGradient id="paint2_linear_14_12265" x1="49.4123" y1="82.8117" x2="101.783" y2="30.4415" gradientUnits="userSpaceOnUse">
<stop stop-color="#32BDEF"/>
<stop offset="1" stop-color="#1EA2E4"/>
</linearGradient>
</defs>
</svg>
