<svg width="151" height="150" viewBox="0 0 151 150" fill="none" xmlns="http://www.w3.org/2000/svg">
<g id="backend-development">
<rect x="2.58203" y="2.5" width="145" height="145" rx="7.5" fill="white"/>
<rect x="2.58203" y="2.5" width="145" height="145" rx="7.5" fill="url(#paint0_linear_14_12269)" fill-opacity="0.2"/>
<g id="Group">
<path id="Vector" d="M123.6 63.3075C117.627 63.235 111.845 60.1225 108.642 54.575C105.56 49.235 105.622 42.9525 108.237 37.8425C102.925 33.125 96.632 29.495 89.662 27.3725C86.5245 32.09 81.1695 35.2 75.082 35.2C68.9945 35.2 63.6395 32.09 60.5045 27.3725C53.5345 29.495 47.242 33.125 41.9295 37.8425C44.5445 42.9525 44.607 49.235 41.5245 54.575C38.322 60.1225 32.5395 63.235 26.567 63.3075C25.632 67.125 25.082 71.095 25.082 75.2C25.082 78.41 25.4145 81.5375 25.992 84.58C32.1645 84.4525 38.2195 87.6 41.5245 93.325C44.9445 99.25 44.492 106.335 40.9745 111.687C46.1795 116.555 52.407 120.327 59.3245 122.625C62.1495 116.76 68.1345 112.7 75.082 112.7C82.0295 112.7 88.0145 116.76 90.8395 122.627C97.757 120.33 103.985 116.557 109.19 111.69C105.672 106.337 105.22 99.2525 108.64 93.3275C111.945 87.6025 117.997 84.455 124.172 84.5825C124.75 81.5375 125.082 78.41 125.082 75.2C125.082 71.095 124.532 67.125 123.6 63.3075Z" fill="url(#paint1_linear_14_12269)"/>
<g id="Group_2" opacity="0.05">
<path id="Vector_2" d="M60.6233 62.7349V68.0724L45.6858 74.4649V74.5999L60.6233 80.6099V85.9499L39.6758 76.3949V72.7624L60.6233 62.7349ZM63.1233 58.7674L59.5433 60.4799L38.5958 70.5049L37.1758 71.1849V72.7599V76.3924V77.9999L38.6383 78.6674L59.5858 88.2224L63.1233 89.8349V85.9499V80.6124V78.9224L61.5558 78.2924L52.0433 74.4649L61.6058 70.3724L63.1233 69.7224V68.0724V62.7349V58.7674Z" fill="black"/>
<path id="Vector_3" d="M85.7695 55.2L70.092 92.7H63.767L79.377 55.2H85.7695ZM89.5245 52.7H85.7695H79.377H77.7095L77.0695 54.24L61.4595 91.74L60.0195 95.2H63.767H70.092H71.757L72.3995 93.665L88.077 56.165L89.5245 52.7Z" fill="black"/>
<path id="Vector_4" d="M89.5117 62.5125L110.459 72.47V76.1025L89.5117 85.6575V80.3425L104.494 74.355V74.265L89.5117 67.85V62.5125ZM87.0117 58.555V62.5125V67.85V69.5L88.5267 70.15L98.0642 74.2325L88.5842 78.0225L87.0117 78.65V80.3425V85.6575V89.545L90.5492 87.9325L111.497 78.3775L112.959 77.71V76.1025V72.47V70.89L111.532 70.2125L90.5842 60.255L87.0117 58.555Z" fill="black"/>
</g>
<g id="Group_3" opacity="0.07">
<path id="Vector_5" d="M60.6389 62.7351V68.0726L45.7014 74.4651V74.6001L60.6389 80.6101V85.9501L39.6914 76.3951V72.7626L60.6389 62.7351ZM61.8889 60.7526L60.0989 61.6101L39.1514 71.6351L38.4414 71.9751V72.7626V76.3951V77.2001L39.1739 77.5326L60.1214 87.0876L61.8889 87.8951V85.9501V80.6126V79.7676L61.1064 79.4526L48.8014 74.5001L61.1314 69.2226L61.8889 68.8976V68.0726V62.7351V60.7526V60.7526Z" fill="black"/>
<path id="Vector_6" d="M85.7695 55.2001L70.092 92.7001H63.767L79.377 55.2001H85.7695ZM87.647 53.9501H85.7695H79.377H78.5445L78.2245 54.7201L62.6145 92.2201L61.8945 93.9501H63.7695H70.0945H70.927L71.247 93.1826L86.9245 55.6826L87.647 53.9501Z" fill="black"/>
<path id="Vector_7" d="M89.5273 62.5125L110.475 72.47V76.1025L89.5273 85.6575V80.3425L104.51 74.355V74.265L89.5273 67.85V62.5125ZM88.2773 60.5325V62.51V67.8475V68.6725L89.0348 68.9975L101.35 74.27L89.0648 79.18L88.2798 79.495V80.3425V85.6575V87.6025L90.0473 86.795L110.995 77.24L111.727 76.9075V76.1025V72.47V71.68L111.015 71.34L90.0673 61.3825L88.2773 60.5325Z" fill="black"/>
</g>
<path id="Vector_8" d="M60.6389 85.95L39.6914 76.395V72.7625L60.6389 62.7375V68.075L45.7014 74.4675V74.6025L60.6389 80.6125V85.95Z" fill="url(#paint2_linear_14_12269)"/>
<path id="Vector_9" d="M85.772 55.2001L70.0945 92.7001H63.7695L79.3795 55.2001H85.772Z" fill="url(#paint3_linear_14_12269)"/>
<path id="Vector_10" d="M110.475 76.1024L89.5273 85.6574V80.3424L104.51 74.3549V74.2649L89.5273 67.8499V62.5124L110.475 72.4699V76.1024Z" fill="url(#paint4_linear_14_12269)"/>
</g>
<rect x="2.58203" y="2.5" width="145" height="145" rx="7.5" stroke="#D5EAF6" stroke-width="5"/>
</g>
<defs>
<linearGradient id="paint0_linear_14_12269" x1="75.082" y1="5" x2="75.082" y2="145" gradientUnits="userSpaceOnUse">
<stop stop-color="#199AE0"/>
<stop offset="0.472222" stop-color="#0D5176" stop-opacity="0.527778"/>
<stop offset="0.940972" stop-color="#12A6F7" stop-opacity="0.465278"/>
<stop offset="1" stop-opacity="0"/>
</linearGradient>
<linearGradient id="paint1_linear_14_12269" x1="28.3995" y1="28.56" x2="110.29" y2="110.447" gradientUnits="userSpaceOnUse">
<stop stop-color="#889097"/>
<stop offset="0.331" stop-color="#848C94"/>
<stop offset="0.669" stop-color="#78828B"/>
<stop offset="1" stop-color="#64717C"/>
</linearGradient>
<linearGradient id="paint2_linear_14_12269" x1="50.1664" y1="59.33" x2="50.1664" y2="146.177" gradientUnits="userSpaceOnUse">
<stop stop-color="white"/>
<stop offset="0.242" stop-color="#F2F2F2"/>
<stop offset="1" stop-color="#CCCCCC"/>
</linearGradient>
<linearGradient id="paint3_linear_14_12269" x1="74.772" y1="59.3301" x2="74.772" y2="146.178" gradientUnits="userSpaceOnUse">
<stop stop-color="white"/>
<stop offset="0.242" stop-color="#F2F2F2"/>
<stop offset="1" stop-color="#CCCCCC"/>
</linearGradient>
<linearGradient id="paint4_linear_14_12269" x1="99.9998" y1="59.3299" x2="99.9998" y2="146.177" gradientUnits="userSpaceOnUse">
<stop stop-color="white"/>
<stop offset="0.242" stop-color="#F2F2F2"/>
<stop offset="1" stop-color="#CCCCCC"/>
</linearGradient>
</defs>
</svg>
