<svg width="151" height="150" viewBox="0 0 151 150" fill="none" xmlns="http://www.w3.org/2000/svg">
<g id="barcode">
<rect x="2.58203" y="2.5" width="145" height="145" rx="7.5" fill="white"/>
<rect x="2.58203" y="2.5" width="145" height="145" rx="7.5" fill="url(#paint0_linear_14_12305)" fill-opacity="0.2"/>
<path id="Vector" d="M43.1376 25H51.4709C52.2376 25 52.8598 25.6222 52.8598 26.3889V123.611C52.8598 124.378 52.2376 125 51.4709 125H43.1376C42.3709 125 41.7487 124.378 41.7487 123.611V26.3889C41.7487 25.6222 42.3709 25 43.1376 25ZM59.8043 125H62.582C63.3487 125 63.9709 124.378 63.9709 123.611V26.3889C63.9709 25.6222 63.3487 25 62.582 25H59.8043C59.0376 25 58.4154 25.6222 58.4154 26.3889V123.611C58.4154 124.378 59.0376 125 59.8043 125ZM26.4709 125H34.8043C35.5709 125 36.1931 124.378 36.1931 123.611V26.3889C36.1931 25.6222 35.5709 25 34.8043 25H26.4709C25.7043 25 25.082 25.6222 25.082 26.3889V123.611C25.082 124.378 25.7043 125 26.4709 125ZM70.9154 125H90.3598C91.1265 125 91.7487 124.378 91.7487 123.611V26.3889C91.7487 25.6222 91.1265 25 90.3598 25H70.9154C70.1487 25 69.5265 25.6222 69.5265 26.3889V123.611C69.5265 124.378 70.1487 125 70.9154 125ZM113.971 26.3889V123.611C113.971 124.378 114.593 125 115.36 125H123.693C124.46 125 125.082 124.378 125.082 123.611V26.3889C125.082 25.6222 124.46 25 123.693 25H115.36C114.593 25 113.971 25.6222 113.971 26.3889ZM98.6931 125H107.026C107.793 125 108.415 124.378 108.415 123.611V26.3889C108.415 25.6222 107.793 25 107.026 25H98.6931C97.9265 25 97.3043 25.6222 97.3043 26.3889V123.611C97.3043 124.378 97.9265 125 98.6931 125Z" fill="url(#paint1_linear_14_12305)"/>
<rect x="2.58203" y="2.5" width="145" height="145" rx="7.5" stroke="#D5EAF6" stroke-width="5"/>
</g>
<defs>
<linearGradient id="paint0_linear_14_12305" x1="75.082" y1="5" x2="75.082" y2="145" gradientUnits="userSpaceOnUse">
<stop stop-color="#199AE0"/>
<stop offset="0.472222" stop-color="#0D5176" stop-opacity="0.527778"/>
<stop offset="0.940972" stop-color="#12A6F7" stop-opacity="0.465278"/>
<stop offset="1" stop-opacity="0"/>
</linearGradient>
<linearGradient id="paint1_linear_14_12305" x1="58.6598" y1="21.7889" x2="89.4404" y2="121.517" gradientUnits="userSpaceOnUse">
<stop stop-color="#0176D0"/>
<stop offset="1" stop-color="#0A85D9"/>
</linearGradient>
</defs>
</svg>
