<svg width="151" height="150" viewBox="0 0 151 150" fill="none" xmlns="http://www.w3.org/2000/svg">
<g id="bill">
<rect x="2.58203" y="2.5" width="145" height="145" rx="7.5" fill="white"/>
<rect x="2.58203" y="2.5" width="145" height="145" rx="7.5" fill="url(#paint0_linear_14_12307)" fill-opacity="0.2"/>
<g id="Group">
<path id="Vector" d="M109.294 25C109.294 26.4526 108.115 27.6316 106.662 27.6316C105.209 27.6316 104.03 26.4526 104.03 25H98.7673C98.7673 26.4526 97.5883 27.6316 96.1357 27.6316C94.6831 27.6316 93.5041 26.4526 93.5041 25H88.241C88.241 26.4526 87.062 27.6316 85.6094 27.6316C84.1567 27.6316 82.9778 26.4526 82.9778 25H77.7146C77.7146 26.4526 76.5357 27.6316 75.0831 27.6316C73.6304 27.6316 72.4515 26.4526 72.4515 25H67.1883C67.1883 26.4526 66.0094 27.6316 64.5567 27.6316C63.1041 27.6316 61.9252 26.4526 61.9252 25H56.662C56.662 26.4526 55.4831 27.6316 54.0304 27.6316C52.5778 27.6316 51.3988 26.4526 51.3988 25H46.1357C46.1357 26.4526 44.9567 27.6316 43.5041 27.6316C42.0515 27.6316 40.8725 26.4526 40.8725 25H38.241C36.7883 25 35.6094 26.1789 35.6094 27.6316V119.737C35.6094 122.645 37.9646 125 40.8725 125H109.294C112.201 125 114.557 122.645 114.557 119.737V27.6316C114.557 26.1789 113.378 25 111.925 25H109.294Z" fill="#50E6FF"/>
<path id="Vector_2" d="M102.712 46.0527H47.4486C46.7223 46.0527 46.1328 45.4632 46.1328 44.7369V39.4737C46.1328 38.7474 46.7223 38.158 47.4486 38.158H102.712C103.438 38.158 104.028 38.7474 104.028 39.4737V44.7369C104.028 45.4632 103.438 46.0527 102.712 46.0527Z" fill="#057093"/>
<path id="Vector_3" d="M102.712 64.4736H97.4486C96.7223 64.4736 96.1328 63.8841 96.1328 63.1578V60.5262C96.1328 59.7999 96.7223 59.2104 97.4486 59.2104H102.712C103.438 59.2104 104.028 59.7999 104.028 60.5262V63.1578C104.028 63.8841 103.438 64.4736 102.712 64.4736Z" fill="#057093"/>
<path id="Vector_4" d="M81.6591 64.4736H47.4486C46.7223 64.4736 46.1328 63.8841 46.1328 63.1578V60.5262C46.1328 59.7999 46.7223 59.2104 47.4486 59.2104H81.6591C82.3854 59.2104 82.9749 59.7999 82.9749 60.5262V63.1578C82.9749 63.8841 82.3854 64.4736 81.6591 64.4736Z" fill="#057093"/>
<path id="Vector_5" d="M102.712 75.0001H97.4486C96.7223 75.0001 96.1328 74.4106 96.1328 73.6843V71.0527C96.1328 70.3264 96.7223 69.7369 97.4486 69.7369H102.712C103.438 69.7369 104.028 70.3264 104.028 71.0527V73.6843C104.028 74.4106 103.438 75.0001 102.712 75.0001Z" fill="#057093"/>
<path id="Vector_6" d="M73.7644 75.0001H47.4486C46.7223 75.0001 46.1328 74.4106 46.1328 73.6843V71.0527C46.1328 70.3264 46.7223 69.7369 47.4486 69.7369H73.7644C74.4907 69.7369 75.0802 70.3264 75.0802 71.0527V73.6843C75.0802 74.4106 74.4907 75.0001 73.7644 75.0001Z" fill="#057093"/>
<path id="Vector_7" d="M102.712 85.5262H97.4486C96.7223 85.5262 96.1328 84.9367 96.1328 84.2104V81.5789C96.1328 80.8525 96.7223 80.2631 97.4486 80.2631H102.712C103.438 80.2631 104.028 80.8525 104.028 81.5789V84.2104C104.028 84.9367 103.438 85.5262 102.712 85.5262Z" fill="#057093"/>
<path id="Vector_8" d="M81.6591 85.5262H47.4486C46.7223 85.5262 46.1328 84.9367 46.1328 84.2104V81.5789C46.1328 80.8525 46.7223 80.2631 47.4486 80.2631H81.6591C82.3854 80.2631 82.9749 80.8525 82.9749 81.5789V84.2104C82.9749 84.9367 82.3854 85.5262 81.6591 85.5262Z" fill="#057093"/>
<path id="Vector_9" d="M102.712 96.0527H97.4486C96.7223 96.0527 96.1328 95.4632 96.1328 94.7369V92.1053C96.1328 91.379 96.7223 90.7896 97.4486 90.7896H102.712C103.438 90.7896 104.028 91.379 104.028 92.1053V94.7369C104.028 95.4632 103.438 96.0527 102.712 96.0527Z" fill="#057093"/>
<path id="Vector_10" d="M73.7644 96.0527H47.4486C46.7223 96.0527 46.1328 95.4632 46.1328 94.7369V92.1053C46.1328 91.379 46.7223 90.7896 47.4486 90.7896H73.7644C74.4907 90.7896 75.0802 91.379 75.0802 92.1053V94.7369C75.0802 95.4632 74.4907 96.0527 73.7644 96.0527Z" fill="#057093"/>
<path id="Vector_11" d="M102.717 111.842H92.1908C91.4645 111.842 90.875 111.253 90.875 110.526V107.895C90.875 107.168 91.4645 106.579 92.1908 106.579H102.717C103.443 106.579 104.033 107.168 104.033 107.895V110.526C104.033 111.253 103.443 111.842 102.717 111.842Z" fill="#057093"/>
<path id="Vector_12" d="M81.6641 111.842H57.9799C57.2535 111.842 56.6641 111.253 56.6641 110.526V107.895C56.6641 107.168 57.2535 106.579 57.9799 106.579H81.6641C82.3904 106.579 82.9799 107.168 82.9799 107.895V110.526C82.9799 111.253 82.3904 111.842 81.6641 111.842Z" fill="#057093"/>
</g>
<rect x="2.58203" y="2.5" width="145" height="145" rx="7.5" stroke="#D5EAF6" stroke-width="5"/>
</g>
<defs>
<linearGradient id="paint0_linear_14_12307" x1="75.082" y1="5" x2="75.082" y2="145" gradientUnits="userSpaceOnUse">
<stop stop-color="#199AE0"/>
<stop offset="0.472222" stop-color="#0D5176" stop-opacity="0.527778"/>
<stop offset="0.940972" stop-color="#12A6F7" stop-opacity="0.465278"/>
<stop offset="1" stop-opacity="0"/>
</linearGradient>
</defs>
</svg>
