<svg width="151" height="150" viewBox="0 0 151 150" fill="none" xmlns="http://www.w3.org/2000/svg">
<g id="bot">
<rect x="2.58203" y="2.5" width="145" height="145" rx="7.5" fill="white"/>
<rect x="2.58203" y="2.5" width="145" height="145" rx="7.5" fill="url(#paint0_linear_14_12323)" fill-opacity="0.2"/>
<g id="Group">
<path id="Vector" d="M77.2501 41.3051H72.9023V54.3482H77.2501V41.3051Z" fill="url(#paint1_linear_14_12323)"/>
<path id="Vector_2" d="M35.9513 82.6086H40.299V104.347H35.9513C34.5239 104.347 33.1105 104.066 31.7918 103.52C30.4731 102.974 29.2749 102.173 28.2656 101.164C26.2272 99.1252 25.082 96.3606 25.082 93.4779V93.4779C25.082 90.5952 26.2272 87.8305 28.2656 85.7921C30.304 83.7537 33.0686 82.6086 35.9513 82.6086V82.6086Z" fill="url(#paint2_linear_14_12323)"/>
<path id="Vector_3" d="M109.863 82.6086H114.211C117.094 82.6086 119.858 83.7537 121.897 85.7921C123.935 87.8305 125.08 90.5952 125.08 93.4779C125.08 96.3606 123.935 99.1252 121.897 101.164C119.858 103.202 117.094 104.347 114.211 104.347H109.863V82.6086Z" fill="url(#paint3_linear_14_12323)"/>
<path id="Vector_4" d="M75.0787 52.1745C85.4564 52.1745 95.4092 56.297 102.747 63.6352C110.086 70.9734 114.208 80.9261 114.208 91.3039V108.695C114.208 109.848 113.75 110.954 112.935 111.769C112.119 112.584 111.013 113.042 109.86 113.042H40.2969C39.1438 113.042 38.038 112.584 37.2226 111.769C36.4073 110.954 35.9492 109.848 35.9492 108.695V91.3039C35.9492 80.9261 40.0718 70.9734 47.41 63.6352C54.7482 56.297 64.7009 52.1745 75.0787 52.1745V52.1745Z" fill="#199BE2"/>
<path id="Vector_5" d="M57.6877 104.347C64.8912 104.347 70.7308 98.5074 70.7308 91.3039C70.7308 84.1004 64.8912 78.2607 57.6877 78.2607C50.4841 78.2607 44.6445 84.1004 44.6445 91.3039C44.6445 98.5074 50.4841 104.347 57.6877 104.347Z" fill="url(#paint4_linear_14_12323)"/>
<path id="Vector_6" d="M92.4611 104.347C99.6646 104.347 105.504 98.5074 105.504 91.3039C105.504 84.1004 99.6646 78.2607 92.4611 78.2607C85.2576 78.2607 79.418 84.1004 79.418 91.3039C79.418 98.5074 85.2576 104.347 92.4611 104.347Z" fill="url(#paint5_linear_14_12323)"/>
<path id="Vector_7" d="M92.465 99.9994C97.2673 99.9994 101.16 96.1064 101.16 91.304C101.16 86.5017 97.2673 82.6086 92.465 82.6086C87.6626 82.6086 83.7695 86.5017 83.7695 91.304C83.7695 96.1064 87.6626 99.9994 92.465 99.9994Z" fill="#50E6FF"/>
<path id="Vector_8" d="M92.4766 95.6517C94.8778 95.6517 96.8243 93.7051 96.8243 91.304C96.8243 88.9028 94.8778 86.9562 92.4766 86.9562C90.0754 86.9562 88.1289 88.9028 88.1289 91.304C88.1289 93.7051 90.0754 95.6517 92.4766 95.6517Z" fill="url(#paint6_linear_14_12323)"/>
<path id="Vector_9" d="M57.6915 99.9994C62.4939 99.9994 66.387 96.1064 66.387 91.304C66.387 86.5017 62.4939 82.6086 57.6915 82.6086C52.8892 82.6086 48.9961 86.5017 48.9961 91.304C48.9961 96.1064 52.8892 99.9994 57.6915 99.9994Z" fill="#50E6FF"/>
<path id="Vector_10" d="M57.6797 95.6517C60.0809 95.6517 62.0275 93.7051 62.0275 91.304C62.0275 88.9028 60.0809 86.9562 57.6797 86.9562C55.2786 86.9562 53.332 88.9028 53.332 91.304C53.332 93.7051 55.2786 95.6517 57.6797 95.6517Z" fill="url(#paint7_linear_14_12323)"/>
<path id="Vector_11" d="M75.0704 45.6529C77.4715 45.6529 79.4181 43.7064 79.4181 41.3052C79.4181 38.904 77.4715 36.9575 75.0704 36.9575C72.6692 36.9575 70.7227 38.904 70.7227 41.3052C70.7227 43.7064 72.6692 45.6529 75.0704 45.6529Z" fill="#199BE2"/>
</g>
<rect x="2.58203" y="2.5" width="145" height="145" rx="7.5" stroke="#D5EAF6" stroke-width="5"/>
</g>
<defs>
<linearGradient id="paint0_linear_14_12323" x1="75.082" y1="5" x2="75.082" y2="145" gradientUnits="userSpaceOnUse">
<stop stop-color="#199AE0"/>
<stop offset="0.472222" stop-color="#0D5176" stop-opacity="0.527778"/>
<stop offset="0.940972" stop-color="#12A6F7" stop-opacity="0.465278"/>
<stop offset="1" stop-opacity="0"/>
</linearGradient>
<linearGradient id="paint1_linear_14_12323" x1="75.0762" y1="43.7159" x2="75.0762" y2="53.4091" gradientUnits="userSpaceOnUse">
<stop stop-color="#0077D2"/>
<stop offset="1" stop-color="#0B59A2"/>
</linearGradient>
<linearGradient id="paint2_linear_14_12323" x1="32.6905" y1="81.9934" x2="32.6905" y2="114.751" gradientUnits="userSpaceOnUse">
<stop stop-color="#0077D2"/>
<stop offset="1" stop-color="#0B59A2"/>
</linearGradient>
<linearGradient id="paint3_linear_14_12323" x1="117.472" y1="81.9934" x2="117.472" y2="114.751" gradientUnits="userSpaceOnUse">
<stop stop-color="#0077D2"/>
<stop offset="1" stop-color="#0B59A2"/>
</linearGradient>
<linearGradient id="paint4_linear_14_12323" x1="57.6877" y1="78.3781" x2="57.6877" y2="118.466" gradientUnits="userSpaceOnUse">
<stop stop-color="#0077D2"/>
<stop offset="1" stop-color="#0B59A2"/>
</linearGradient>
<linearGradient id="paint5_linear_14_12323" x1="92.4611" y1="78.3781" x2="92.4611" y2="118.466" gradientUnits="userSpaceOnUse">
<stop stop-color="#0077D2"/>
<stop offset="1" stop-color="#0B59A2"/>
</linearGradient>
<linearGradient id="paint6_linear_14_12323" x1="92.4766" y1="78.3782" x2="92.4766" y2="118.466" gradientUnits="userSpaceOnUse">
<stop stop-color="#0077D2"/>
<stop offset="1" stop-color="#0B59A2"/>
</linearGradient>
<linearGradient id="paint7_linear_14_12323" x1="57.6797" y1="78.3782" x2="57.6797" y2="118.466" gradientUnits="userSpaceOnUse">
<stop stop-color="#0077D2"/>
<stop offset="1" stop-color="#0B59A2"/>
</linearGradient>
</defs>
</svg>
