<svg width="151" height="150" viewBox="0 0 151 150" fill="none" xmlns="http://www.w3.org/2000/svg">
<g id="businesswoman">
<rect x="2.58203" y="2.5" width="145" height="145" rx="7.5" fill="white"/>
<rect x="2.58203" y="2.5" width="145" height="145" rx="7.5" fill="url(#paint0_linear_14_12343)" fill-opacity="0.2"/>
<g id="Group">
<path id="Vector" d="M75.0815 35.2565C48.6815 35.2565 42.1328 77.8847 42.1328 77.8847C42.1328 85.4744 45.6585 92.1231 53.0379 93.8847C59.361 95.3949 67.3174 96.7949 75.0815 96.7949C82.8456 96.7949 90.802 95.3949 97.1226 93.8872C104.505 92.1257 108.028 85.4744 108.028 77.8872C108.03 77.8847 101.482 35.2565 75.0815 35.2565Z" fill="url(#paint1_radial_14_12343)"/>
<path id="Vector_2" d="M75.0803 90.5667C52.4214 90.5667 34.0547 103.185 34.0547 116.941V119.872C34.0547 122.705 36.3496 125 39.1829 125H110.978C113.811 125 116.106 122.705 116.106 119.872V116.941C116.106 103.185 97.7393 90.5667 75.0803 90.5667Z" fill="url(#paint2_linear_14_12343)"/>
<path id="Vector_3" d="M86.629 104.487C90.1693 104.487 93.0393 101.617 93.0393 98.077C93.0393 94.5367 90.1693 91.6667 86.629 91.6667C83.0887 91.6667 80.2188 94.5367 80.2188 98.077C80.2188 101.617 83.0887 104.487 86.629 104.487Z" fill="#9AAAB8"/>
<path id="Vector_4" d="M93.0268 109.615C93.0268 120.605 75.0781 125 75.0781 125C75.0781 125 75.0781 112.385 75.0781 109.615C75.0781 105.367 81.0858 101.923 85.3345 101.923C89.5832 101.923 93.0268 105.367 93.0268 109.615Z" fill="#9AAAB8"/>
<path id="Vector_5" d="M63.5431 104.487C67.0834 104.487 69.9533 101.617 69.9533 98.077C69.9533 94.5367 67.0834 91.6667 63.5431 91.6667C60.0028 91.6667 57.1328 94.5367 57.1328 98.077C57.1328 101.617 60.0028 104.487 63.5431 104.487Z" fill="#9AAAB8"/>
<path id="Vector_6" d="M57.1328 109.615C57.1328 120.605 75.0815 125 75.0815 125C75.0815 125 75.0815 112.385 75.0815 109.615C75.0815 105.367 69.0738 101.923 64.8251 101.923C60.5764 101.923 57.1328 105.367 57.1328 109.615Z" fill="#9AAAB8"/>
<path id="Vector_7" d="M87.9067 89.3052C87.9067 109.592 75.0861 119.872 75.0861 119.872C75.0861 119.872 62.2656 109.592 62.2656 89.3052C62.2656 82.5436 62.2656 78.8462 62.2656 78.8462H87.9067C87.9067 78.8462 87.9067 82.5436 87.9067 89.3052Z" fill="white"/>
<path id="Vector_8" d="M87.9067 89.3052C87.9067 109.592 75.0861 119.872 75.0861 119.872C75.0861 119.872 62.2656 109.592 62.2656 89.3052C62.2656 82.5436 62.2656 78.8462 62.2656 78.8462H87.9067C87.9067 78.8462 87.9067 82.5436 87.9067 89.3052Z" fill="white"/>
<path id="Vector_9" d="M87.9067 91.6666C87.9067 96.5307 75.0861 107.051 75.0861 107.051C75.0861 107.051 62.2656 96.5307 62.2656 91.6666C62.2656 84.9051 62.2656 73.6282 62.2656 73.6282H87.9067C87.9067 73.6282 87.9067 84.9051 87.9067 91.6666Z" fill="#D6A121"/>
<path id="Vector_10" d="M75.0831 32.8745C85.2062 32.8745 95.5959 34.6514 95.5959 57.8027C95.5959 59.6566 95.5959 72.5104 95.5959 74.4899C95.5959 82.7591 83.0344 94.2309 75.0831 94.2309C67.1318 94.2309 54.5703 82.7591 54.5703 74.4924C54.5703 72.513 54.5703 59.6591 54.5703 57.8053C54.5703 35.2566 64.9601 32.8745 75.0831 32.8745Z" fill="url(#paint3_radial_14_12343)"/>
<path id="Vector_11" d="M75.0833 25C61.7808 25 59.6987 32.6923 59.6987 32.6923C54.291 33.4897 41.75 35.2564 41.75 77.5077C41.75 87.2538 46.6295 90.8333 48.4167 91.8743C41.75 55.0436 66.3038 60.9897 62.2628 37.8205C72.6372 68.1102 104.04 37.959 102.958 90.9846C106.05 88.6333 108.417 83.9154 108.417 77.5077C108.417 42.1077 94.0551 25 75.0833 25Z" fill="url(#paint4_radial_14_12343)"/>
</g>
<rect x="2.58203" y="2.5" width="145" height="145" rx="7.5" stroke="#D5EAF6" stroke-width="5"/>
</g>
<defs>
<linearGradient id="paint0_linear_14_12343" x1="75.082" y1="5" x2="75.082" y2="145" gradientUnits="userSpaceOnUse">
<stop stop-color="#199AE0"/>
<stop offset="0.472222" stop-color="#0D5176" stop-opacity="0.527778"/>
<stop offset="0.940972" stop-color="#12A6F7" stop-opacity="0.465278"/>
<stop offset="1" stop-opacity="0"/>
</linearGradient>
<radialGradient id="paint1_radial_14_12343" cx="0" cy="0" r="1" gradientUnits="userSpaceOnUse" gradientTransform="translate(74.4508 67.0642) scale(35.1538 35.1538)">
<stop offset="0.376" stop-color="#261103"/>
<stop offset="0.68" stop-color="#431D06"/>
<stop offset="1" stop-color="#662C09"/>
</radialGradient>
<linearGradient id="paint2_linear_14_12343" x1="66.788" y1="89.1231" x2="77.7726" y2="126.913" gradientUnits="userSpaceOnUse">
<stop stop-color="#8795A1"/>
<stop offset="1" stop-color="#6D7882"/>
</linearGradient>
<radialGradient id="paint3_radial_14_12343" cx="0" cy="0" r="1" gradientUnits="userSpaceOnUse" gradientTransform="translate(75.0796 63.5531) rotate(180) scale(25.1146 26.5743)">
<stop stop-color="#FFCF54"/>
<stop offset="0.261" stop-color="#FDCB4D"/>
<stop offset="0.639" stop-color="#F7C13A"/>
<stop offset="1" stop-color="#F0B421"/>
</radialGradient>
<radialGradient id="paint4_radial_14_12343" cx="0" cy="0" r="1" gradientUnits="userSpaceOnUse" gradientTransform="translate(56.8372 26.2154) scale(82.9282 82.9282)">
<stop stop-color="#C26715"/>
<stop offset="0.508" stop-color="#B85515"/>
<stop offset="1" stop-color="#AD3F16"/>
</radialGradient>
</defs>
</svg>
