<svg width="151" height="150" viewBox="0 0 151 150" fill="none" xmlns="http://www.w3.org/2000/svg">
<g id="calendar">
<rect x="2.58203" y="2.5" width="145" height="145" rx="7.5" fill="white"/>
<rect x="2.58203" y="2.5" width="145" height="145" rx="7.5" fill="url(#paint0_linear_14_12356)" fill-opacity="0.2"/>
<g id="Group">
<path id="Vector" d="M27.7148 119.737V46.0525H122.452V119.737C122.452 122.631 120.083 125 117.189 125H32.978C30.0833 125 27.7148 122.631 27.7148 119.737Z" fill="url(#paint1_linear_14_12356)"/>
<path id="Vector_2" d="M122.452 35.5262V51.3157H27.7148V35.5262C27.7148 32.6315 30.0833 30.2631 32.978 30.2631H117.189C120.083 30.2631 122.452 32.6315 122.452 35.5262Z" fill="url(#paint2_linear_14_12356)"/>
<path id="Vector_3" opacity="0.05" d="M105.344 47.3683C100.983 47.3683 97.4492 43.8341 97.4492 39.4736V30.2631H113.239V39.4736C113.239 43.8341 109.704 47.3683 105.344 47.3683Z" fill="black"/>
<path id="Vector_4" opacity="0.07" d="M105.347 45.3946C102.076 45.3946 99.4258 42.7446 99.4258 39.4736V30.2631H111.268V39.4736C111.268 42.7446 108.618 45.3946 105.347 45.3946Z" fill="black"/>
<path id="Vector_5" opacity="0.05" d="M44.8205 47.3683C40.46 47.3683 36.9258 43.8341 36.9258 39.4736V30.2631H52.7153V39.4736C52.7153 43.8341 49.181 47.3683 44.8205 47.3683Z" fill="black"/>
<path id="Vector_6" opacity="0.07" d="M44.8312 45.3946C41.5602 45.3946 38.9102 42.7446 38.9102 39.4736V30.2631H50.7523V39.4736C50.7523 42.7446 48.1023 45.3946 44.8312 45.3946Z" fill="black"/>
<path id="Vector_7" d="M44.8185 43.4211C42.6395 43.4211 40.8711 41.6526 40.8711 39.4737V28.9474C40.8711 26.7684 42.6395 25 44.8185 25C46.9974 25 48.7658 26.7684 48.7658 28.9474V39.4737C48.7658 41.6526 46.9974 43.4211 44.8185 43.4211Z" fill="#3CCBF4"/>
<path id="Vector_8" d="M111.917 65.7894V73.6842C111.917 74.4105 111.327 75 110.601 75H102.706C101.98 75 101.39 74.4105 101.39 73.6842V65.7894C101.39 65.0631 101.98 64.4736 102.706 64.4736H110.601C111.327 64.4736 111.917 65.0631 111.917 65.7894ZM90.8641 65.7894V73.6842C90.8641 74.4105 90.2746 75 89.5483 75H81.6536C80.9273 75 80.3378 74.4105 80.3378 73.6842V65.7894C80.3378 65.0631 80.9273 64.4736 81.6536 64.4736H89.5483C90.2746 64.4736 90.8641 65.0631 90.8641 65.7894ZM69.8115 65.7894V73.6842C69.8115 74.4105 69.222 75 68.4957 75H60.6009C59.8746 75 59.2852 74.4105 59.2852 73.6842V65.7894C59.2852 65.0631 59.8746 64.4736 60.6009 64.4736H68.4957C69.222 64.4736 69.8115 65.0631 69.8115 65.7894Z" fill="white"/>
<path id="Vector_9" d="M111.923 84.2106V92.1053C111.923 92.8316 111.333 93.4211 110.607 93.4211H102.712C101.986 93.4211 101.396 92.8316 101.396 92.1053V84.2106C101.396 83.4842 101.986 82.8948 102.712 82.8948H110.607C111.333 82.8948 111.923 83.4842 111.923 84.2106ZM90.8699 84.2106V92.1053C90.8699 92.8316 90.2804 93.4211 89.5541 93.4211H81.6593C80.933 93.4211 80.3436 92.8316 80.3436 92.1053V84.2106C80.3436 83.4842 80.933 82.8948 81.6593 82.8948H89.5541C90.2804 82.8948 90.8699 83.4842 90.8699 84.2106ZM69.8172 84.2106V92.1053C69.8172 92.8316 69.2278 93.4211 68.5014 93.4211H60.6067C59.8804 93.4211 59.2909 92.8316 59.2909 92.1053V84.2106C59.2909 83.4842 59.8804 82.8948 60.6067 82.8948H68.5014C69.2278 82.8948 69.8172 83.4842 69.8172 84.2106ZM48.7646 84.2106V92.1053C48.7646 92.8316 48.1751 93.4211 47.4488 93.4211H39.5541C38.8278 93.4211 38.2383 92.8316 38.2383 92.1053V84.2106C38.2383 83.4842 38.8278 82.8948 39.5541 82.8948H47.4488C48.1751 82.8948 48.7646 83.4842 48.7646 84.2106Z" fill="white"/>
<path id="Vector_10" d="M90.8699 102.632V110.526C90.8699 111.253 90.2804 111.842 89.5541 111.842H81.6593C80.933 111.842 80.3436 111.253 80.3436 110.526V102.632C80.3436 101.905 80.933 101.316 81.6593 101.316H89.5541C90.2804 101.316 90.8699 101.905 90.8699 102.632ZM69.8172 102.632V110.526C69.8172 111.253 69.2278 111.842 68.5014 111.842H60.6067C59.8804 111.842 59.2909 111.253 59.2909 110.526V102.632C59.2909 101.905 59.8804 101.316 60.6067 101.316H68.5014C69.2278 101.316 69.8172 101.905 69.8172 102.632ZM48.7646 102.632V110.526C48.7646 111.253 48.1751 111.842 47.4488 111.842H39.5541C38.8278 111.842 38.2383 111.253 38.2383 110.526V102.632C38.2383 101.905 38.8278 101.316 39.5541 101.316H47.4488C48.1751 101.316 48.7646 101.905 48.7646 102.632Z" fill="white"/>
<path id="Vector_11" d="M105.358 43.4211C103.179 43.4211 101.41 41.6526 101.41 39.4737V28.9474C101.41 26.7684 103.179 25 105.358 25C107.536 25 109.305 26.7684 109.305 28.9474V39.4737C109.305 41.6526 107.536 43.4211 105.358 43.4211Z" fill="#3CCBF4"/>
</g>
<rect x="2.58203" y="2.5" width="145" height="145" rx="7.5" stroke="#D5EAF6" stroke-width="5"/>
</g>
<defs>
<linearGradient id="paint0_linear_14_12356" x1="75.082" y1="5" x2="75.082" y2="145" gradientUnits="userSpaceOnUse">
<stop stop-color="#199AE0"/>
<stop offset="0.472222" stop-color="#0D5176" stop-opacity="0.527778"/>
<stop offset="0.940972" stop-color="#12A6F7" stop-opacity="0.465278"/>
<stop offset="1" stop-opacity="0"/>
</linearGradient>
<linearGradient id="paint1_linear_14_12356" x1="28.8043" y1="50.4262" x2="121.857" y2="118.389" gradientUnits="userSpaceOnUse">
<stop stop-color="#28AFEA"/>
<stop offset="1" stop-color="#047ED6"/>
</linearGradient>
<linearGradient id="paint2_linear_14_12356" x1="28.8201" y1="31.8631" x2="120.341" y2="50.4736" gradientUnits="userSpaceOnUse">
<stop stop-color="#0077D2"/>
<stop offset="1" stop-color="#0B59A2"/>
</linearGradient>
</defs>
</svg>
