<svg width="151" height="150" viewBox="0 0 151 150" fill="none" xmlns="http://www.w3.org/2000/svg">
<g id="calendar-plus">
<rect x="2.58203" y="2.5" width="145" height="145" rx="7.5" fill="white"/>
<rect x="2.58203" y="2.5" width="145" height="145" rx="7.5" fill="url(#paint0_linear_14_12369)" fill-opacity="0.2"/>
<g id="Group">
<path id="Vector" d="M27.3555 106.818V43.1819H109.174V106.818C109.174 109.318 107.128 111.364 104.628 111.364H31.9009C29.4009 111.364 27.3555 109.318 27.3555 106.818Z" fill="url(#paint1_linear_14_12369)"/>
<path id="Vector_2" d="M109.174 34.0909V47.7272H27.3555V34.0909C27.3555 31.5909 29.4009 29.5454 31.9009 29.5454H104.628C107.128 29.5454 109.174 31.5909 109.174 34.0909Z" fill="url(#paint2_linear_14_12369)"/>
<path id="Vector_3" opacity="0.05" d="M94.408 44.3181C90.6421 44.3181 87.5898 41.2659 87.5898 37.5V29.5454H101.226V37.5C101.226 41.2659 98.1739 44.3181 94.408 44.3181Z" fill="black"/>
<path id="Vector_4" opacity="0.07" d="M94.4066 42.6136C91.5816 42.6136 89.293 40.325 89.293 37.5V29.5454H99.5202V37.5C99.5202 40.325 97.2316 42.6136 94.4066 42.6136Z" fill="black"/>
<path id="Vector_5" opacity="0.05" d="M42.1268 44.3181C38.3609 44.3181 35.3086 41.2659 35.3086 37.5V29.5454H48.945V37.5C48.945 41.2659 45.8927 44.3181 42.1268 44.3181Z" fill="black"/>
<path id="Vector_6" opacity="0.07" d="M42.1254 42.6136C39.3004 42.6136 37.0117 40.325 37.0117 37.5V29.5454H47.239V37.5C47.239 40.325 44.9504 42.6136 42.1254 42.6136Z" fill="black"/>
<path id="Vector_7" d="M42.1239 40.9091C40.2421 40.9091 38.7148 39.3818 38.7148 37.5V28.4091C38.7148 26.5273 40.2421 25 42.1239 25C44.0058 25 45.533 26.5273 45.533 28.4091V37.5C45.533 39.3818 44.0058 40.9091 42.1239 40.9091Z" fill="#3CCBF4"/>
<path id="Vector_8" d="M100.076 60.2273V67.0455C100.076 67.6728 99.5666 68.1819 98.9393 68.1819H92.1211C91.4938 68.1819 90.9847 67.6728 90.9847 67.0455V60.2273C90.9847 59.6 91.4938 59.0909 92.1211 59.0909H98.9393C99.5666 59.0909 100.076 59.6 100.076 60.2273ZM81.8938 60.2273V67.0455C81.8938 67.6728 81.3847 68.1819 80.7575 68.1819H73.9393C73.312 68.1819 72.8029 67.6728 72.8029 67.0455V60.2273C72.8029 59.6 73.312 59.0909 73.9393 59.0909H80.7575C81.3847 59.0909 81.8938 59.6 81.8938 60.2273ZM63.712 60.2273V67.0455C63.712 67.6728 63.2029 68.1819 62.5756 68.1819H55.7575C55.1302 68.1819 54.6211 67.6728 54.6211 67.0455V60.2273C54.6211 59.6 55.1302 59.0909 55.7575 59.0909H62.5756C63.2029 59.0909 63.712 59.6 63.712 60.2273Z" fill="white"/>
<path id="Vector_9" d="M100.086 76.1364V82.9545C100.086 83.5818 99.5765 84.0909 98.9492 84.0909H92.1311C91.5038 84.0909 90.9947 83.5818 90.9947 82.9545V76.1364C90.9947 75.5091 91.5038 75 92.1311 75H98.9492C99.5765 75 100.086 75.5091 100.086 76.1364ZM81.9038 76.1364V82.9545C81.9038 83.5818 81.3947 84.0909 80.7674 84.0909H73.9492C73.322 84.0909 72.8129 83.5818 72.8129 82.9545V76.1364C72.8129 75.5091 73.322 75 73.9492 75H80.7674C81.3947 75 81.9038 75.5091 81.9038 76.1364ZM63.722 76.1364V82.9545C63.722 83.5818 63.2129 84.0909 62.5856 84.0909H55.7674C55.1401 84.0909 54.631 83.5818 54.631 82.9545V76.1364C54.631 75.5091 55.1401 75 55.7674 75H62.5856C63.2129 75 63.722 75.5091 63.722 76.1364ZM45.5401 76.1364V82.9545C45.5401 83.5818 45.031 84.0909 44.4038 84.0909H37.5856C36.9583 84.0909 36.4492 83.5818 36.4492 82.9545V76.1364C36.4492 75.5091 36.9583 75 37.5856 75H44.4038C45.031 75 45.5401 75.5091 45.5401 76.1364Z" fill="white"/>
<path id="Vector_10" d="M81.9038 92.0453V98.8635C81.9038 99.4908 81.3947 99.9998 80.7674 99.9998H73.9492C73.322 99.9998 72.8129 99.4908 72.8129 98.8635V92.0453C72.8129 91.418 73.322 90.9089 73.9492 90.9089H80.7674C81.3947 90.9089 81.9038 91.418 81.9038 92.0453ZM63.722 92.0453V98.8635C63.722 99.4908 63.2129 99.9998 62.5856 99.9998H55.7674C55.1401 99.9998 54.631 99.4908 54.631 98.8635V92.0453C54.631 91.418 55.1401 90.9089 55.7674 90.9089H62.5856C63.2129 90.9089 63.722 91.418 63.722 92.0453ZM45.5401 92.0453V98.8635C45.5401 99.4908 45.031 99.9998 44.4038 99.9998H37.5856C36.9583 99.9998 36.4492 99.4908 36.4492 98.8635V92.0453C36.4492 91.418 36.9583 90.9089 37.5856 90.9089H44.4038C45.031 90.9089 45.5401 91.418 45.5401 92.0453Z" fill="white"/>
<path id="Vector_11" d="M94.4052 40.9091C92.5234 40.9091 90.9961 39.3818 90.9961 37.5V28.4091C90.9961 26.5273 92.5234 25 94.4052 25C96.287 25 97.8143 26.5273 97.8143 28.4091V37.5C97.8143 39.3818 96.287 40.9091 94.4052 40.9091Z" fill="#3CCBF4"/>
<path id="Vector_12" d="M100.081 75C85.02 75 72.8086 87.2114 72.8086 102.273C72.8086 105.466 73.3859 108.516 74.3927 111.364H104.627C107.127 111.364 109.172 109.318 109.172 106.818V76.5841C106.325 75.5773 103.275 75 100.081 75Z" fill="url(#paint3_radial_14_12369)"/>
<path id="Vector_13" d="M100.083 125C112.635 125 122.81 114.825 122.81 102.273C122.81 89.7208 112.635 79.5454 100.083 79.5454C87.5308 79.5454 77.3555 89.7208 77.3555 102.273C77.3555 114.825 87.5308 125 100.083 125Z" fill="url(#paint4_linear_14_12369)"/>
<path id="Vector_14" d="M101.218 113.636H98.945C98.3177 113.636 97.8086 113.127 97.8086 112.5V92.0453C97.8086 91.418 98.3177 90.9089 98.945 90.9089H101.218C101.845 90.9089 102.354 91.418 102.354 92.0453V112.5C102.354 113.127 101.845 113.636 101.218 113.636Z" fill="white"/>
<path id="Vector_15" d="M88.7148 103.409V101.136C88.7148 100.509 89.2239 100 89.8512 100H110.306C110.933 100 111.442 100.509 111.442 101.136V103.409C111.442 104.036 110.933 104.545 110.306 104.545H89.8512C89.2239 104.545 88.7148 104.036 88.7148 103.409Z" fill="white"/>
</g>
<rect x="2.58203" y="2.5" width="145" height="145" rx="7.5" stroke="#D5EAF6" stroke-width="5"/>
</g>
<defs>
<linearGradient id="paint0_linear_14_12369" x1="75.082" y1="5" x2="75.082" y2="145" gradientUnits="userSpaceOnUse">
<stop stop-color="#199AE0"/>
<stop offset="0.472222" stop-color="#0D5176" stop-opacity="0.527778"/>
<stop offset="0.940972" stop-color="#12A6F7" stop-opacity="0.465278"/>
<stop offset="1" stop-opacity="0"/>
</linearGradient>
<linearGradient id="paint1_linear_14_12369" x1="28.2964" y1="46.9592" x2="89.5759" y2="91.716" gradientUnits="userSpaceOnUse">
<stop stop-color="#28AFEA"/>
<stop offset="1" stop-color="#047ED6"/>
</linearGradient>
<linearGradient id="paint2_linear_14_12369" x1="28.31" y1="30.9272" x2="107.351" y2="47" gradientUnits="userSpaceOnUse">
<stop stop-color="#0077D2"/>
<stop offset="1" stop-color="#0B59A2"/>
</linearGradient>
<radialGradient id="paint3_radial_14_12369" cx="0" cy="0" r="1" gradientUnits="userSpaceOnUse" gradientTransform="translate(100.129 102.368) scale(26.7205 26.7205)">
<stop/>
<stop offset="1" stop-opacity="0"/>
</radialGradient>
<linearGradient id="paint4_linear_14_12369" x1="91.1964" y1="86.7477" x2="113.78" y2="126.205" gradientUnits="userSpaceOnUse">
<stop stop-color="#21AD64"/>
<stop offset="1" stop-color="#088242"/>
</linearGradient>
</defs>
</svg>
