<svg width="151" height="150" viewBox="0 0 151 150" fill="none" xmlns="http://www.w3.org/2000/svg">
<g id="chain">
<rect x="2.58203" y="2.5" width="145" height="145" rx="7.5" fill="white"/>
<rect x="2.58203" y="2.5" width="145" height="145" rx="7.5" fill="url(#paint0_linear_14_12386)" fill-opacity="0.2"/>
<g id="Group">
<path id="Vector" d="M73.7471 86.9297C73.5953 86.5166 73.4116 86.1159 73.1977 85.7312C73.0385 85.3127 72.8377 84.9112 72.5985 84.5327C71.7683 83.0694 70.7436 81.7255 69.5523 80.5376C68.3709 79.3389 67.0259 78.3134 65.5572 77.4914C65.1795 77.2589 64.7876 77.0504 64.3836 76.8672C63.9841 76.6672 63.5848 76.4926 63.1851 76.3179C59.7049 74.917 55.8895 74.5701 52.2137 75.3203C48.5378 76.0706 45.1636 77.8849 42.5107 80.5376L30.6504 92.398C27.082 95.9876 25.0824 100.846 25.0899 105.907C25.0974 110.968 27.1113 115.821 30.6904 119.4C34.2694 122.979 39.1214 124.993 44.1829 125C49.2444 125.008 54.1023 123.008 57.6919 119.44L69.5523 107.579C72.1972 104.926 74.0047 101.555 74.7505 97.8844C75.4962 94.2134 75.1473 90.4042 73.7471 86.9297ZM62.486 100.513L50.6257 112.373C48.9138 114.085 46.5921 115.047 44.1712 115.047C41.7502 115.047 39.4285 114.085 37.7166 112.373C36.0048 110.661 35.0431 108.34 35.0431 105.919C35.0431 103.498 36.0048 101.176 37.7166 99.4642L49.577 87.6039C50.905 86.273 52.6163 85.3912 54.4709 85.082C54.9894 84.9826 55.5161 84.9324 56.044 84.932C56.128 84.9279 56.2121 84.9364 56.2937 84.957C56.8395 84.9534 57.3841 85.0121 57.9166 85.132C59.6482 85.4927 61.2365 86.352 62.486 87.6039C63.7557 88.8401 64.618 90.4341 64.9579 92.1733C65.0777 92.7059 65.1363 93.2504 65.1327 93.7963C65.1792 94.415 65.1371 95.0371 65.0079 95.644C64.7088 97.4946 63.825 99.2009 62.486 100.513ZM69.5523 80.5376C68.3709 79.3389 67.0259 78.3134 65.5572 77.4914L57.9166 85.1321C59.6482 85.4928 61.2365 86.3521 62.486 87.604C63.7557 88.8402 64.618 90.4342 64.9579 92.1734L72.5985 84.533C71.7683 83.0696 70.7436 81.7256 69.5523 80.5376V80.5376Z" fill="#0078D4"/>
<path id="Vector_2" d="M119.495 30.5994C115.908 27.0141 111.045 25 105.974 25C100.903 25 96.0393 27.0141 92.453 30.5994L80.5927 42.4597C77.9478 45.1124 76.1402 48.4835 75.3945 52.1545C74.6487 55.8255 74.9976 59.6347 76.3979 63.1091C76.5497 63.5223 76.7333 63.923 76.9472 64.3077C77.1065 64.7262 77.3072 65.1277 77.5465 65.5062C78.3766 66.9694 79.4014 68.3133 80.5927 69.5012C81.7741 70.6999 83.1191 71.7255 84.5877 72.5475C84.9655 72.7799 85.3574 72.9884 85.7613 73.1717C86.1608 73.3714 86.5602 73.546 86.9598 73.721C90.4414 75.1139 94.2547 75.4566 97.9288 74.7066C101.603 73.9567 104.977 72.1471 107.634 69.5012L119.495 57.6409C123.069 54.0487 125.075 49.1875 125.075 44.1201C125.075 39.0528 123.069 34.1915 119.495 30.5994V30.5994ZM112.428 50.5746L100.568 62.435C99.2465 63.7748 97.5321 64.6583 95.674 64.9568C95.0756 65.0862 94.4617 65.1282 93.8513 65.0817C93.3054 65.0853 92.7609 65.0266 92.2283 64.9067C90.4973 64.5443 88.9095 63.6853 87.6589 62.4348C86.4084 61.1843 85.5494 59.5964 85.187 57.8654C85.0673 57.3329 85.0086 56.7883 85.0122 56.2425C84.9658 55.6238 85.0078 55.0016 85.1371 54.3947C85.4361 52.5441 86.3199 50.8379 87.6589 49.5259L99.5193 37.6656C101.231 35.9538 103.553 34.9921 105.974 34.9921C107.172 34.9921 108.359 35.2282 109.467 35.6869C110.574 36.1456 111.581 36.818 112.428 37.6656C113.276 38.5132 113.948 39.5195 114.407 40.627C114.866 41.7344 115.102 42.9214 115.102 44.1201C115.102 45.3188 114.866 46.5058 114.407 47.6133C113.948 48.7208 113.276 49.727 112.428 50.5746Z" fill="#0078D4"/>
<path id="Vector_3" d="M60.0907 94.9947C59.1031 94.9945 58.1378 94.7016 57.3167 94.1528C56.4956 93.6041 55.8557 92.8242 55.4777 91.9118C55.0998 90.9994 55.0009 89.9954 55.1936 89.0268C55.3862 88.0582 55.8617 87.1685 56.5599 86.4701L86.5229 56.5071C87.4593 55.5707 88.7293 55.0446 90.0536 55.0446C91.3779 55.0446 92.648 55.5707 93.5844 56.5071C94.5209 57.4436 95.0469 58.7136 95.0469 60.0379C95.0469 61.3622 94.5209 62.6323 93.5844 63.5687L63.6215 93.5316C63.1584 93.9961 62.6081 94.3645 62.0021 94.6155C61.3962 94.8666 60.7466 94.9955 60.0907 94.9947V94.9947Z" fill="#1B9DE2"/>
<path id="Vector_4" opacity="0.05" d="M64.3854 76.8671C63.9859 76.6671 63.5865 76.4925 63.1869 76.3177L54.7973 84.7074C54.6819 84.8259 54.5736 84.9509 54.4727 85.0819C54.9911 84.9825 55.5178 84.9323 56.0457 84.9319C56.1297 84.9278 56.2139 84.9363 56.2954 84.9569C56.8413 84.9533 57.3858 85.012 57.9184 85.1319L65.5589 77.4913C65.1813 77.2588 64.7893 77.0503 64.3854 76.8671V76.8671ZM73.1995 85.7311C73.0402 85.3126 72.8395 84.9111 72.6002 84.5326L64.9597 92.1731C65.0794 92.7057 65.1381 93.2502 65.1345 93.7961C65.1809 94.4148 65.1389 95.037 65.0096 95.6438C65.1406 95.534 65.2656 95.4173 65.3842 95.2943L73.7488 86.9296C73.597 86.5165 73.4134 86.1158 73.1995 85.7311V85.7311ZM93.8489 65.0816C93.303 65.0853 92.7585 65.0266 92.2259 64.9067L84.5854 72.5474C84.9631 72.7798 85.3551 72.9883 85.7589 73.1716C86.1585 73.3714 86.5578 73.5459 86.9575 73.721L95.3471 65.3313C95.4624 65.2128 95.5708 65.0878 95.6717 64.9568C95.0733 65.0861 94.4594 65.1282 93.8489 65.0816V65.0816ZM85.0099 56.2426C84.9634 55.6239 85.0055 55.0017 85.1347 54.3949C85.0037 54.5046 84.8787 54.6213 84.7602 54.7444L76.3955 63.1091C76.5473 63.5222 76.731 63.9229 76.9449 64.3076C77.1041 64.7261 77.3049 65.1276 77.5441 65.5061L85.1847 57.8656C85.0649 57.333 85.0063 56.7885 85.0099 56.2426V56.2426Z" fill="black"/>
<path id="Vector_5" opacity="0.07" d="M64.3908 76.8671L56.3008 84.9571C56.8467 84.9535 57.3912 85.0122 57.9238 85.1321L65.5643 77.4914C65.1866 77.2588 64.7947 77.0503 64.3908 76.8671V76.8671ZM72.6056 84.5328L64.9651 92.1732C65.0848 92.7058 65.1435 93.2503 65.1398 93.7962L73.2049 85.7312C73.0456 85.3127 72.8448 84.9113 72.6056 84.5328V84.5328ZM92.2313 64.9069L84.5908 72.5475C84.9685 72.7799 85.3605 72.9884 85.7643 73.1717L93.8543 65.0817C93.3084 65.0854 92.7639 65.0268 92.2313 64.9069V64.9069ZM85.0153 56.2426L76.9502 64.3077C77.1095 64.7262 77.3102 65.1277 77.5495 65.5062L85.19 57.8656C85.0703 57.333 85.0116 56.7885 85.0153 56.2426V56.2426Z" fill="black"/>
</g>
<rect x="2.58203" y="2.5" width="145" height="145" rx="7.5" stroke="#D5EAF6" stroke-width="5"/>
</g>
<defs>
<linearGradient id="paint0_linear_14_12386" x1="75.082" y1="5" x2="75.082" y2="145" gradientUnits="userSpaceOnUse">
<stop stop-color="#199AE0"/>
<stop offset="0.472222" stop-color="#0D5176" stop-opacity="0.527778"/>
<stop offset="0.940972" stop-color="#12A6F7" stop-opacity="0.465278"/>
<stop offset="1" stop-opacity="0"/>
</linearGradient>
</defs>
</svg>
