<svg width="151" height="150" viewBox="0 0 151 150" fill="none" xmlns="http://www.w3.org/2000/svg">
<g id="change-theme">
<rect x="2.58203" y="2.5" width="145" height="145" rx="7.5" fill="white"/>
<rect x="2.58203" y="2.5" width="145" height="145" rx="7.5" fill="url(#paint0_linear_14_12393)" fill-opacity="0.2"/>
<g id="Group">
<path id="Vector" d="M25.0859 38.1591H93.5049V85.5261H30.3489C27.4411 85.5261 25.0859 83.1709 25.0859 80.2631V38.1591Z" fill="url(#paint1_linear_14_12393)"/>
<path id="Vector_2" d="M93.5049 38.159V32.8961C93.5049 29.9882 91.1497 27.6331 88.2419 27.6331H30.3489C27.4411 27.6331 25.0859 29.9882 25.0859 32.8961V38.159H93.5049Z" fill="url(#paint2_linear_14_12393)"/>
<path id="Vector_3" d="M51.4062 72.3685H38.2487C36.7961 72.3685 35.6172 71.1896 35.6172 69.737V53.9481C35.6172 52.4955 36.7961 51.3166 38.2487 51.3166H51.4062C52.8588 51.3166 54.0377 52.4955 54.0377 53.9481V69.737C54.0377 71.1896 52.8588 72.3685 51.4062 72.3685Z" fill="url(#paint3_linear_14_12393)"/>
<path id="Vector_4" d="M80.3398 72.3685H67.1823C65.7297 72.3685 64.5508 71.1896 64.5508 69.737V53.9481C64.5508 52.4955 65.7297 51.3166 67.1823 51.3166H80.3398C81.7924 51.3166 82.9713 52.4955 82.9713 53.9481V69.737C82.9713 71.1896 81.7924 72.3685 80.3398 72.3685Z" fill="url(#paint4_linear_14_12393)"/>
<path id="Vector_5" opacity="0.05" d="M93.5115 85.526V61.8425H61.9336C57.5811 61.8425 54.0391 65.3845 54.0391 69.737V85.526H93.5115Z" fill="black"/>
<path id="Vector_6" opacity="0.07" d="M93.4887 85.5261V63.1583H61.9108C58.2846 63.1583 55.332 66.1109 55.332 69.7371V85.5261H93.4887Z" fill="black"/>
<path id="Vector_7" d="M56.6602 75H125.079V117.104C125.079 120.012 122.724 122.367 119.816 122.367H61.9232C59.0153 122.367 56.6602 120.012 56.6602 117.104V75Z" fill="url(#paint5_linear_14_12393)"/>
<path id="Vector_8" d="M125.079 74.9999V69.7369C125.079 66.8291 122.724 64.4739 119.816 64.4739H61.9232C59.0153 64.4739 56.6602 66.8291 56.6602 69.7369V74.9999H125.079Z" fill="url(#paint6_linear_14_12393)"/>
<g id="Group_2">
<path id="Vector_9" d="M82.9687 109.209H69.8112C68.3586 109.209 67.1797 108.03 67.1797 106.578V90.7889C67.1797 89.3363 68.3586 88.1574 69.8112 88.1574H82.9687C84.4213 88.1574 85.6002 89.3363 85.6002 90.7889V106.578C85.6002 108.03 84.4213 109.209 82.9687 109.209Z" fill="url(#paint7_linear_14_12393)"/>
<path id="Vector_10" d="M111.922 109.209H98.7643C97.3117 109.209 96.1328 108.03 96.1328 106.578V90.7889C96.1328 89.3363 97.3117 88.1574 98.7643 88.1574H111.922C113.374 88.1574 114.553 89.3363 114.553 90.7889V106.578C114.553 108.03 113.374 109.209 111.922 109.209Z" fill="url(#paint8_linear_14_12393)"/>
</g>
</g>
<rect x="2.58203" y="2.5" width="145" height="145" rx="7.5" stroke="#D5EAF6" stroke-width="5"/>
</g>
<defs>
<linearGradient id="paint0_linear_14_12393" x1="75.082" y1="5" x2="75.082" y2="145" gradientUnits="userSpaceOnUse">
<stop stop-color="#199AE0"/>
<stop offset="0.472222" stop-color="#0D5176" stop-opacity="0.527778"/>
<stop offset="0.940972" stop-color="#12A6F7" stop-opacity="0.465278"/>
<stop offset="1" stop-opacity="0"/>
</linearGradient>
<linearGradient id="paint1_linear_14_12393" x1="32.4357" y1="33.4408" x2="73.9423" y2="74.9475" gradientUnits="userSpaceOnUse">
<stop stop-color="#7DD8F3"/>
<stop offset="1" stop-color="#45B0D0"/>
</linearGradient>
<linearGradient id="paint2_linear_14_12393" x1="25.0859" y1="32.8961" x2="93.5049" y2="32.8961" gradientUnits="userSpaceOnUse">
<stop stop-color="#0077D2"/>
<stop offset="1" stop-color="#0B59A2"/>
</linearGradient>
<linearGradient id="paint3_linear_14_12393" x1="44.8274" y1="51.3166" x2="44.8274" y2="76.1526" gradientUnits="userSpaceOnUse">
<stop stop-color="#199AE0"/>
<stop offset="1" stop-color="#0782D8"/>
</linearGradient>
<linearGradient id="paint4_linear_14_12393" x1="73.761" y1="51.3166" x2="73.761" y2="76.1526" gradientUnits="userSpaceOnUse">
<stop stop-color="#199AE0"/>
<stop offset="1" stop-color="#0782D8"/>
</linearGradient>
<linearGradient id="paint5_linear_14_12393" x1="56.6602" y1="98.6834" x2="125.079" y2="98.6834" gradientUnits="userSpaceOnUse">
<stop stop-color="#9DFFCE"/>
<stop offset="1" stop-color="#50D18D"/>
</linearGradient>
<linearGradient id="paint6_linear_14_12393" x1="56.6602" y1="69.7369" x2="125.079" y2="69.7369" gradientUnits="userSpaceOnUse">
<stop stop-color="#21AD64"/>
<stop offset="1" stop-color="#088242"/>
</linearGradient>
<linearGradient id="paint7_linear_14_12393" x1="67.1797" y1="98.6834" x2="85.6002" y2="98.6834" gradientUnits="userSpaceOnUse">
<stop offset="0.824" stop-color="#135D36"/>
<stop offset="0.931" stop-color="#125933"/>
<stop offset="1" stop-color="#11522F"/>
</linearGradient>
<linearGradient id="paint8_linear_14_12393" x1="96.1328" y1="98.6834" x2="114.553" y2="98.6834" gradientUnits="userSpaceOnUse">
<stop offset="0.824" stop-color="#135D36"/>
<stop offset="0.931" stop-color="#125933"/>
<stop offset="1" stop-color="#11522F"/>
</linearGradient>
</defs>
</svg>
