<svg width="151" height="150" viewBox="0 0 151 150" fill="none" xmlns="http://www.w3.org/2000/svg">
<g id="chart">
<rect x="2.58203" y="2.5" width="145" height="145" rx="7.5" fill="white"/>
<rect x="2.58203" y="2.5" width="145" height="145" rx="7.5" fill="url(#paint0_linear_14_12406)" fill-opacity="0.2"/>
<g id="Group">
<path id="Vector" d="M74.3284 26.346C47.1318 26.346 25.0859 48.3918 25.0859 75.5884C25.0859 102.785 47.1318 124.831 74.3284 124.831C87.5647 124.831 99.5553 119.582 108.404 111.085L74.3284 75.5884V26.346Z" fill="#50E6FF"/>
<path id="Vector_2" d="M123.567 75.5884C123.567 48.3918 101.521 26.346 74.3242 26.346V75.5884H123.567Z" fill="#0078D4"/>
<path id="Vector_3" d="M123.567 75.5886H74.3242L108.4 111.085C117.731 102.123 123.567 89.5488 123.567 75.5886Z" fill="#199BE2"/>
<path id="Vector_4" d="M98.0912 25.1692L79.2461 70.6642L125.081 52.7671C120.373 40.715 110.988 30.512 98.0912 25.1692Z" fill="url(#paint1_linear_14_12406)"/>
</g>
<rect x="2.58203" y="2.5" width="145" height="145" rx="7.5" stroke="#D5EAF6" stroke-width="5"/>
</g>
<defs>
<linearGradient id="paint0_linear_14_12406" x1="75.082" y1="5" x2="75.082" y2="145" gradientUnits="userSpaceOnUse">
<stop stop-color="#199AE0"/>
<stop offset="0.472222" stop-color="#0D5176" stop-opacity="0.527778"/>
<stop offset="0.940972" stop-color="#12A6F7" stop-opacity="0.465278"/>
<stop offset="1" stop-opacity="0"/>
</linearGradient>
<linearGradient id="paint1_linear_14_12406" x1="79.2461" y1="47.9167" x2="125.081" y2="47.9167" gradientUnits="userSpaceOnUse">
<stop stop-color="#C965EB"/>
<stop offset="1" stop-color="#C767E5"/>
</linearGradient>
</defs>
</svg>
