<svg width="150" height="150" viewBox="0 0 150 150" fill="none" xmlns="http://www.w3.org/2000/svg">
<g id="chatbot">
<rect x="2.5" y="2.5" width="145" height="145" rx="7.5" fill="white"/>
<rect x="2.5" y="2.5" width="145" height="145" rx="7.5" fill="url(#paint0_linear_14_9231)" fill-opacity="0.2"/>
<g id="Group">
<path id="Vector" d="M96.7416 113.044H79.3999C78.1977 113.044 77.2259 112.071 77.2259 110.87C77.2259 109.67 78.1977 108.697 79.3999 108.697H96.7416C103.935 108.697 109.785 102.846 109.785 95.6527V91.3047C109.785 90.1047 110.757 89.1308 111.959 89.1308C113.162 89.1308 114.133 90.1047 114.133 91.3047V95.6527C114.133 105.242 106.331 113.044 96.7416 113.044Z" fill="url(#paint1_linear_14_9231)"/>
<path id="Vector_2" d="M113.043 69.5652H107.608V91.3049H113.043C119.648 91.3049 125 86.4374 125 80.435C125 74.4327 119.648 69.5652 113.043 69.5652Z" fill="url(#paint2_linear_14_9231)"/>
<path id="Vector_3" d="M36.9567 69.5652H42.3916V91.3049H36.9567C30.3522 91.3049 24.9999 86.4374 24.9999 80.435C24.9999 74.4327 30.3522 69.5652 36.9567 69.5652Z" fill="url(#paint3_linear_14_9231)"/>
<path id="Vector_4" d="M74.9936 58.6951C73.7914 58.6951 72.8196 57.7211 72.8196 56.5211V41.3033C72.8196 40.1033 73.7914 39.1293 74.9936 39.1293C76.1958 39.1293 77.1676 40.1033 77.1676 41.3033V56.5211C77.1676 57.7211 76.1958 58.6951 74.9936 58.6951Z" fill="url(#paint4_linear_14_9231)"/>
<path id="Vector_5" d="M96.7417 108.697H53.2623C46.0577 108.697 40.2184 102.857 40.2184 95.6527V65.2171C40.2184 58.0126 46.0577 52.1733 53.2623 52.1733H96.7417C103.946 52.1733 109.786 58.0126 109.786 65.2171V95.6527C109.786 102.857 103.946 108.697 96.7417 108.697Z" fill="#199BE2"/>
<path id="Vector_6" d="M48.9137 88.8416V72.0303C48.9137 68.2672 51.9638 65.2171 55.7247 65.2171H94.2758C98.0389 65.2171 101.089 68.2672 101.089 72.0281V88.8394C101.089 92.6026 98.0389 95.6527 94.278 95.6527H55.7247C51.9638 95.6527 48.9137 92.6026 48.9137 88.8416Z" fill="url(#paint5_linear_14_9231)"/>
<path id="Vector_7" d="M74.9958 34.7815C77.398 34.7815 79.3437 36.7272 79.3437 39.1294C79.3437 41.5317 77.398 43.4774 74.9958 43.4774C72.5935 43.4774 70.6478 41.5317 70.6478 39.1294C70.6478 36.7272 72.5935 34.7815 74.9958 34.7815Z" fill="url(#paint6_linear_14_9231)"/>
<path id="Vector_8" opacity="0.05" d="M61.959 91.3049C58.3632 91.3049 55.4371 88.3787 55.4371 84.783V76.0871C55.4371 72.4914 58.3632 69.5652 61.959 69.5652C65.5547 69.5652 68.4809 72.4914 68.4809 76.0871V84.783C68.4809 88.3787 65.5547 91.3049 61.959 91.3049Z" fill="black"/>
<path id="Vector_9" opacity="0.07" d="M61.9579 90.2178C58.96 90.2178 56.5229 87.7786 56.5229 84.7829V76.087C56.5229 73.0913 58.96 70.6521 61.9579 70.6521C64.9558 70.6521 67.3928 73.0913 67.3928 76.087V84.7829C67.3928 87.7786 64.9558 90.2178 61.9579 90.2178Z" fill="black"/>
<path id="Vector_10" d="M61.9568 71.739C64.3591 71.739 66.3048 73.6847 66.3048 76.0869V84.7828C66.3048 87.1851 64.3591 89.1308 61.9568 89.1308C59.5546 89.1308 57.6089 87.1851 57.6089 84.7828V76.0869C57.6089 73.6847 59.5546 71.739 61.9568 71.739Z" fill="#50E6FF"/>
<path id="Vector_11" opacity="0.05" d="M88.0446 91.3049C84.4489 91.3049 81.5227 88.3787 81.5227 84.783V76.0871C81.5227 72.4914 84.4489 69.5652 88.0446 69.5652C91.6404 69.5652 94.5665 72.4914 94.5665 76.0871V84.783C94.5665 88.3787 91.6404 91.3049 88.0446 91.3049Z" fill="black"/>
<path id="Vector_12" opacity="0.07" d="M88.0436 90.2178C85.0457 90.2178 82.6086 87.7786 82.6086 84.7829V76.087C82.6086 73.0913 85.0457 70.6521 88.0436 70.6521C91.0415 70.6521 93.4785 73.0913 93.4785 76.087V84.7829C93.4785 87.7786 91.0415 90.2178 88.0436 90.2178Z" fill="black"/>
<path id="Vector_13" d="M88.0425 71.739C90.4448 71.739 92.3905 73.6847 92.3905 76.0869V84.7828C92.3905 87.1851 90.4448 89.1308 88.0425 89.1308C85.6403 89.1308 83.6946 87.1851 83.6946 84.7828V76.0869C83.6946 73.6847 85.6403 71.739 88.0425 71.739Z" fill="#50E6FF"/>
<path id="Vector_14" opacity="0.05" d="M83.6881 108.697H66.2963C66.2963 106.305 68.2529 104.349 70.6443 104.349H79.3402C81.7315 104.349 83.6881 106.305 83.6881 108.697Z" fill="black"/>
<path id="Vector_15" opacity="0.07" d="M82.6078 108.696H67.39C67.39 106.892 68.8466 105.436 70.651 105.436H79.3469C81.1513 105.436 82.6078 106.892 82.6078 108.696Z" fill="black"/>
<path id="Vector_16" d="M79.3458 115.219H70.6499C69.4499 115.219 68.476 114.245 68.476 113.045V108.697C68.476 107.497 69.4499 106.523 70.6499 106.523H79.3458C80.5458 106.523 81.5198 107.497 81.5198 108.697V113.045C81.5198 114.245 80.5458 115.219 79.3458 115.219Z" fill="url(#paint7_linear_14_9231)"/>
</g>
<rect x="2.5" y="2.5" width="145" height="145" rx="7.5" stroke="#D5EAF6" stroke-width="5"/>
</g>
<defs>
<linearGradient id="paint0_linear_14_9231" x1="75" y1="5" x2="75" y2="145" gradientUnits="userSpaceOnUse">
<stop stop-color="#199AE0"/>
<stop offset="0.472222" stop-color="#0D5176" stop-opacity="0.527778"/>
<stop offset="0.940972" stop-color="#12A6F7" stop-opacity="0.465278"/>
<stop offset="1" stop-opacity="0"/>
</linearGradient>
<linearGradient id="paint1_linear_14_9231" x1="95.6786" y1="104.081" x2="95.6786" y2="92.8613" gradientUnits="userSpaceOnUse">
<stop stop-color="#0077D2"/>
<stop offset="1" stop-color="#0B59A2"/>
</linearGradient>
<linearGradient id="paint2_linear_14_9231" x1="116.304" y1="71.0717" x2="116.304" y2="115.09" gradientUnits="userSpaceOnUse">
<stop stop-color="#0077D2"/>
<stop offset="1" stop-color="#0B59A2"/>
</linearGradient>
<linearGradient id="paint3_linear_14_9231" x1="33.6958" y1="71.0717" x2="33.6958" y2="115.09" gradientUnits="userSpaceOnUse">
<stop stop-color="#0077D2"/>
<stop offset="1" stop-color="#0B59A2"/>
</linearGradient>
<linearGradient id="paint4_linear_14_9231" x1="75.2871" y1="40.8294" x2="74.5566" y2="60.9517" gradientUnits="userSpaceOnUse">
<stop stop-color="#0077D2"/>
<stop offset="1" stop-color="#0B59A2"/>
</linearGradient>
<linearGradient id="paint5_linear_14_9231" x1="75.0013" y1="66.9606" x2="75.0013" y2="110.803" gradientUnits="userSpaceOnUse">
<stop stop-color="#0077D2"/>
<stop offset="1" stop-color="#0B59A2"/>
</linearGradient>
<linearGradient id="paint6_linear_14_9231" x1="74.9958" y1="34.9489" x2="74.9958" y2="43.1578" gradientUnits="userSpaceOnUse">
<stop stop-color="#0077D2"/>
<stop offset="1" stop-color="#0B59A2"/>
</linearGradient>
<linearGradient id="paint7_linear_14_9231" x1="74.9979" y1="107.003" x2="74.9979" y2="116.071" gradientUnits="userSpaceOnUse">
<stop stop-color="#4C4C4C"/>
<stop offset="1" stop-color="#343434"/>
</linearGradient>
</defs>
</svg>
