<svg width="142" height="140" viewBox="0 0 142 140" fill="none" xmlns="http://www.w3.org/2000/svg">
<g id="chat-message">
<rect x="2.5" y="2.5" width="136.083" height="135" rx="7.5" fill="white"/>
<rect x="2.5" y="2.5" width="136.083" height="135" rx="7.5" fill="url(#paint0_linear_14_9493)" fill-opacity="0.2"/>
<g id="Vector">
<path d="M68.1822 20C94.2409 20 115.364 41.198 115.364 67.3488C115.364 75.9591 113.038 84.0084 109.037 90.964L119.804 115.547C120.998 118.272 118.127 120.993 115.485 119.643L92.4739 107.884C85.3706 112.181 77.0784 114.698 68.1822 114.698C42.1235 114.698 21 93.4995 21 67.3488C21 41.198 42.1235 20 68.1822 20Z" fill="url(#paint1_linear_14_9493)"/>
<path d="M43.4658 60.2463C41.4865 60.2463 39.8729 58.653 39.8729 56.6952V54.3277C39.8729 52.3699 41.4865 50.7766 43.4658 50.7766H92.8962C94.8778 50.7766 96.4915 52.3699 96.4915 54.3277V56.6952C96.4915 58.653 94.8778 60.2463 92.8985 60.2463H43.4658Z" fill="white" fill-opacity="0.95"/>
<path d="M43.4658 59.0627C42.1353 59.0627 41.0524 57.9998 41.0524 56.6953V54.3279C41.0524 53.0234 42.1353 51.9604 43.4658 51.9604H92.8962C94.2267 51.9604 95.3096 53.0234 95.3096 54.3279V56.6953C95.3096 57.9998 94.2267 59.0627 92.8962 59.0627H43.4658Z" fill="white" fill-opacity="0.95"/>
<path d="M94.1323 54.3278V56.6952C94.1323 57.3486 93.578 57.8789 92.8962 57.8789H43.4681C42.7864 57.8789 42.232 57.3486 42.232 56.6952V54.3278C42.232 53.6744 42.7864 53.1441 43.4681 53.1441H92.8962C93.578 53.1441 94.1323 53.6744 94.1323 54.3278Z" fill="white" fill-opacity="0.95"/>
<path d="M43.4658 83.9208C41.4865 83.9208 39.8729 82.3275 39.8729 80.3696V78.0022C39.8729 76.0443 41.4865 74.451 43.4658 74.451H92.8962C94.8778 74.451 96.4915 76.0443 96.4915 78.0022V80.3696C96.4915 82.3275 94.8778 83.9208 92.8985 83.9208H43.4658Z" fill="white" fill-opacity="0.95"/>
<path d="M43.4658 82.737C42.1353 82.737 41.0524 81.674 41.0524 80.3695V78.0021C41.0524 76.6976 42.1353 75.6347 43.4658 75.6347H92.8962C94.2267 75.6347 95.3096 76.6976 95.3096 78.0021V80.3695C95.3096 81.674 94.2267 82.737 92.8962 82.737H43.4658Z" fill="white" fill-opacity="0.95"/>
<path d="M94.1323 78.0022V80.3697C94.1323 81.0231 93.578 81.5534 92.8962 81.5534H43.4681C42.7864 81.5534 42.232 81.0231 42.232 80.3697V78.0022C42.232 77.3488 42.7864 76.8185 43.4681 76.8185H92.8962C93.578 76.8185 94.1323 77.3488 94.1323 78.0022Z" fill="white" fill-opacity="0.95"/>
<path d="M43.4729 72.0836C41.4888 72.0836 39.8729 70.4904 39.8729 68.5325V66.165C39.8729 64.2072 41.4888 62.6139 43.4729 62.6139H88.1709C90.1573 62.6139 91.7732 64.2072 91.7732 66.165V68.5325C91.7732 70.4904 90.1573 72.0836 88.1732 72.0836H43.4729Z" fill="white" fill-opacity="0.95"/>
<path d="M43.4729 70.8999C42.1376 70.8999 41.0524 69.8369 41.0524 68.5324V66.165C41.0524 64.8605 42.1376 63.7975 43.4729 63.7975H88.1709C89.5061 63.7975 90.5913 64.8605 90.5913 66.165V68.5324C90.5913 69.8369 89.5061 70.8999 88.1709 70.8999H43.4729Z" fill="white" fill-opacity="0.95"/>
<path d="M89.4141 66.1649V68.5324C89.4141 69.1858 88.8574 69.7161 88.1732 69.7161H43.4729C42.7887 69.7161 42.232 69.1858 42.232 68.5324V66.1649C42.232 65.5115 42.7887 64.9812 43.4729 64.9812H88.1709C88.8574 64.9812 89.4141 65.5115 89.4141 66.1649Z" fill="white" fill-opacity="0.95"/>
</g>
<rect x="2.5" y="2.5" width="136.083" height="135" rx="7.5" stroke="#D5EAF6" stroke-width="5"/>
</g>
<defs>
<linearGradient id="paint0_linear_14_9493" x1="70.5413" y1="5" x2="70.5413" y2="135" gradientUnits="userSpaceOnUse">
<stop stop-color="#199AE0"/>
<stop offset="0.472222" stop-color="#0D5176" stop-opacity="0.527778"/>
<stop offset="0.940972" stop-color="#12A6F7" stop-opacity="0.465278"/>
<stop offset="1" stop-opacity="0"/>
</linearGradient>
<linearGradient id="paint1_linear_14_9493" x1="44.1145" y1="26.6146" x2="101.629" y2="123.274" gradientUnits="userSpaceOnUse">
<stop stop-color="#0176D0"/>
<stop offset="1" stop-color="#0A85D9"/>
</linearGradient>
</defs>
</svg>
