<svg width="150" height="150" viewBox="0 0 150 150" fill="none" xmlns="http://www.w3.org/2000/svg">
<g id="check-file">
<rect x="2.5" y="2.5" width="145" height="145" rx="7.5" fill="white"/>
<rect x="2.5" y="2.5" width="145" height="145" rx="7.5" fill="url(#paint0_linear_14_9283)" fill-opacity="0.2"/>
<g id="Group">
<path id="Vector" d="M114.474 53.9474V119.737C114.474 122.645 112.118 125 109.211 125H40.7895C37.8816 125 35.5263 122.645 35.5263 119.737V30.2632C35.5263 27.3553 37.8816 25 40.7895 25H85.5263L93.421 46.0526L114.474 53.9474Z" fill="#50E6FF"/>
<path id="Vector_2" d="M85.5263 25V48.6842C85.5263 51.5921 87.8816 53.9474 90.7895 53.9474H114.474L85.5263 25Z" fill="url(#paint1_linear_14_9283)"/>
<path id="Vector_3" d="M68.3956 105.976L51.9193 89.5C51.1141 88.6947 51.1141 87.3921 51.9193 86.5868L54.8325 83.6737C55.6377 82.8684 56.9404 82.8684 57.7456 83.6737L69.8535 95.7815L92.2588 73.3763C93.0641 72.571 94.3667 72.571 95.172 73.3763L98.0851 76.2894C98.8904 77.0947 98.8904 78.3973 98.0851 79.2026L71.3088 105.976C70.5035 106.779 69.2009 106.779 68.3956 105.976Z" fill="#057093"/>
</g>
<rect x="2.5" y="2.5" width="145" height="145" rx="7.5" stroke="#D5EAF6" stroke-width="5"/>
</g>
<defs>
<linearGradient id="paint0_linear_14_9283" x1="75" y1="5" x2="75" y2="145" gradientUnits="userSpaceOnUse">
<stop stop-color="#199AE0"/>
<stop offset="0.472222" stop-color="#0D5176" stop-opacity="0.527778"/>
<stop offset="0.940972" stop-color="#12A6F7" stop-opacity="0.465278"/>
<stop offset="1" stop-opacity="0"/>
</linearGradient>
<linearGradient id="paint1_linear_14_9283" x1="86.9184" y1="52.5553" x2="100.263" y2="39.2105" gradientUnits="userSpaceOnUse">
<stop stop-color="#3079D6"/>
<stop offset="1" stop-color="#297CD2"/>
</linearGradient>
</defs>
</svg>
