<svg width="150" height="150" viewBox="0 0 150 150" fill="none" xmlns="http://www.w3.org/2000/svg">
<g id="checked-checkbox">
<rect x="2.5" y="2.5" width="145" height="145" rx="7.5" fill="white"/>
<rect x="2.5" y="2.5" width="145" height="145" rx="7.5" fill="url(#paint0_linear_14_9267)" fill-opacity="0.2"/>
<g id="Group">
<path id="Vector" d="M119.444 25H30.5556C27.4861 25 25 27.4861 25 30.5556V119.444C25 122.514 27.4861 125 30.5556 125H119.444C122.514 125 125 122.514 125 119.444V30.5556C125 27.4861 122.514 25 119.444 25Z" fill="url(#paint1_linear_14_9267)"/>
<path id="Vector_2" opacity="0.018" d="M111.111 116.414H38.8887C35.9609 116.414 33.5859 114.039 33.5859 111.111V38.889C33.5859 35.9612 35.9609 33.5862 38.8887 33.5862H111.111C114.039 33.5862 116.414 35.9612 116.414 38.889V111.111C116.414 114.039 114.039 116.414 111.111 116.414Z" fill="black"/>
<path id="Vector_3" opacity="0.036" d="M111.116 116.161H38.8938C36.1049 116.161 33.8438 113.9 33.8438 111.111V38.889C33.8438 36.1001 36.1049 33.839 38.8938 33.839H111.116C113.905 33.839 116.166 36.1001 116.166 38.889V111.111C116.166 113.9 113.905 116.161 111.116 116.161Z" fill="black"/>
<path id="Vector_4" opacity="0.054" d="M111.113 115.908H38.891C36.241 115.908 34.0938 113.761 34.0938 111.111V38.8889C34.0938 36.2389 36.241 34.0917 38.891 34.0917H111.113C113.763 34.0917 115.91 36.2389 115.91 38.8889V111.111C115.91 113.761 113.763 115.908 111.113 115.908Z" fill="black"/>
<path id="Vector_5" opacity="0.073" d="M111.11 115.656H38.8882C36.3771 115.656 34.3438 113.619 34.3438 111.111V38.8889C34.3438 36.3778 36.3799 34.3445 38.8882 34.3445H111.11C113.622 34.3445 115.655 36.3806 115.655 38.8889V111.111C115.655 113.622 113.622 115.656 111.11 115.656Z" fill="black"/>
<path id="Vector_6" opacity="0.091" d="M111.108 115.403H38.8854C36.5132 115.403 34.5938 113.481 34.5938 111.111V38.889C34.5938 36.5167 36.516 34.5973 38.8854 34.5973H111.108C113.48 34.5973 115.399 36.5195 115.399 38.889V111.111C115.399 113.483 113.48 115.403 111.108 115.403Z" fill="black"/>
<path id="Vector_7" opacity="0.109" d="M111.115 115.153H38.8932C36.6627 115.153 34.8516 113.344 34.8516 111.111V38.8888C34.8516 36.6583 36.6599 34.8472 38.8932 34.8472H111.115C113.346 34.8472 115.157 36.6555 115.157 38.8888V111.111C115.157 113.342 113.346 115.153 111.115 115.153Z" fill="black"/>
<path id="Vector_8" opacity="0.127" d="M111.105 114.9H38.8826C36.791 114.9 35.0938 113.203 35.0938 111.111V38.8889C35.0938 36.7972 36.791 35.1 38.8826 35.1H111.105C113.197 35.1 114.894 36.7972 114.894 38.8889V111.111C114.894 113.203 113.197 114.9 111.105 114.9Z" fill="black"/>
<path id="Vector_9" opacity="0.145" d="M111.11 114.647H38.8877C36.9349 114.647 35.3516 113.064 35.3516 111.111V38.8889C35.3516 36.9361 36.9349 35.3528 38.8877 35.3528H111.11C113.063 35.3528 114.646 36.9361 114.646 38.8889V111.111C114.646 113.064 113.063 114.647 111.11 114.647Z" fill="black"/>
<path id="Vector_10" opacity="0.164" d="M111.115 114.394H38.8927C37.0788 114.394 35.6094 112.925 35.6094 111.111V38.8888C35.6094 37.0749 37.0788 35.6055 38.8927 35.6055H111.115C112.929 35.6055 114.398 37.0749 114.398 38.8888V111.111C114.398 112.925 112.929 114.394 111.115 114.394Z" fill="black"/>
<path id="Vector_11" opacity="0.182" d="M111.112 114.142H38.8899C37.2177 114.142 35.8594 112.786 35.8594 111.111V38.8888C35.8594 37.2166 37.2149 35.8583 38.8899 35.8583H111.112C112.784 35.8583 114.143 37.2138 114.143 38.8888V111.111C114.143 112.783 112.784 114.142 111.112 114.142Z" fill="black"/>
<path id="Vector_12" opacity="0.2" d="M111.109 113.889H38.8872C37.3538 113.889 36.1094 112.644 36.1094 111.111V38.8889C36.1094 37.3555 37.3538 36.1111 38.8872 36.1111H111.109C112.643 36.1111 113.887 37.3555 113.887 38.8889V111.111C113.887 112.644 112.643 113.889 111.109 113.889Z" fill="black"/>
<path id="Vector_13" d="M111.109 113.889H38.8872C37.3538 113.889 36.1094 112.644 36.1094 111.111V38.8889C36.1094 37.3555 37.3538 36.1111 38.8872 36.1111H111.109C112.643 36.1111 113.887 37.3555 113.887 38.8889V111.111C113.887 112.644 112.643 113.889 111.109 113.889Z" fill="url(#paint2_radial_14_9267)"/>
<path id="Vector_14" d="M67.4821 99.1862L45.2599 76.9639C44.1738 75.8778 44.1738 74.1195 45.2599 73.0362L49.1877 69.1084C50.2738 68.0223 52.0321 68.0223 53.1155 69.1084L69.446 85.4389L99.6655 55.2195C100.752 54.1334 102.51 54.1334 103.593 55.2195L107.521 59.1473C108.607 60.2334 108.607 61.9917 107.521 63.075L71.4099 99.1862C70.3266 100.272 68.5654 100.272 67.4821 99.1862Z" fill="#16528C"/>
</g>
<rect x="2.5" y="2.5" width="145" height="145" rx="7.5" stroke="#D5EAF6" stroke-width="5"/>
</g>
<defs>
<linearGradient id="paint0_linear_14_9267" x1="75" y1="5" x2="75" y2="145" gradientUnits="userSpaceOnUse">
<stop stop-color="#199AE0"/>
<stop offset="0.472222" stop-color="#0D5176" stop-opacity="0.527778"/>
<stop offset="0.940972" stop-color="#12A6F7" stop-opacity="0.465278"/>
<stop offset="1" stop-opacity="0"/>
</linearGradient>
<linearGradient id="paint1_linear_14_9267" x1="28.0583" y1="28.0583" x2="126.478" y2="126.478" gradientUnits="userSpaceOnUse">
<stop stop-color="#0176D0"/>
<stop offset="1" stop-color="#22A5E2"/>
</linearGradient>
<radialGradient id="paint2_radial_14_9267" cx="0" cy="0" r="1" gradientUnits="userSpaceOnUse" gradientTransform="translate(53.4382 45.6862) scale(76.5167)">
<stop stop-color="#FAFAFB"/>
<stop offset="0.293" stop-color="#F6F7F8"/>
<stop offset="0.566" stop-color="#EBECEE"/>
<stop offset="0.832" stop-color="#D8DCDF"/>
<stop offset="1" stop-color="#C8CDD1"/>
</radialGradient>
</defs>
</svg>
