<svg width="150" height="150" viewBox="0 0 150 150" fill="none" xmlns="http://www.w3.org/2000/svg">
<g id="checkout">
<rect x="2.5" y="2.5" width="145" height="145" rx="7.5" fill="white"/>
<rect x="2.5" y="2.5" width="145" height="145" rx="7.5" fill="url(#paint0_linear_14_9298)" fill-opacity="0.2"/>
<g id="Group">
<path id="Vector" d="M46.1164 74.7257C45.0792 74.7257 44.1513 73.9986 43.9327 72.9458L37.743 42.8736C37.3169 40.8081 35.4812 39.3115 33.3734 39.3115H29.4632C28.232 39.3115 27.2327 38.3122 27.2327 37.0809C27.2327 35.8497 28.232 34.8504 29.4632 34.8504H33.3734C37.5868 34.8504 41.2628 37.846 42.1126 41.9725L48.3024 72.0446C48.5499 73.2513 47.7737 74.4313 46.567 74.6789C46.4175 74.7123 46.2659 74.7257 46.1164 74.7257Z" fill="url(#paint1_linear_14_9298)"/>
<path id="Vector_2" d="M107.534 117.38C111.229 117.38 114.225 114.384 114.225 110.689C114.225 106.993 111.229 103.997 107.534 103.997C103.838 103.997 100.842 106.993 100.842 110.689C100.842 114.384 103.838 117.38 107.534 117.38Z" fill="#5C5F61"/>
<path id="Vector_3" opacity="0.15" d="M107.526 112.919C108.758 112.919 109.756 111.921 109.756 110.689C109.756 109.457 108.758 108.458 107.526 108.458C106.294 108.458 105.295 109.457 105.295 110.689C105.295 111.921 106.294 112.919 107.526 112.919Z" fill="black"/>
<path id="Vector_4" d="M58.4555 117.38C62.1512 117.38 65.1471 114.384 65.1471 110.689C65.1471 106.993 62.1512 103.997 58.4555 103.997C54.7599 103.997 51.7639 106.993 51.7639 110.689C51.7639 114.384 54.7599 117.38 58.4555 117.38Z" fill="#5C5F61"/>
<path id="Vector_5" opacity="0.15" d="M58.4632 112.919C59.6951 112.919 60.6937 111.921 60.6937 110.689C60.6937 109.457 59.6951 108.458 58.4632 108.458C57.2313 108.458 56.2327 109.457 56.2327 110.689C56.2327 111.921 57.2313 112.919 58.4632 112.919Z" fill="black"/>
<path id="Vector_6" d="M116.454 106.228H53.9986C49.078 106.228 45.0764 102.226 45.0764 97.3055C45.0764 92.3849 49.078 88.3833 53.9986 88.3833H109.762C110.993 88.3833 111.993 89.3826 111.993 90.6139C111.993 91.8451 110.993 92.8444 109.762 92.8444H53.9986C51.5383 92.8444 49.5375 94.8452 49.5375 97.3055C49.5375 99.7658 51.5383 101.767 53.9986 101.767H116.454C117.685 101.767 118.684 102.766 118.684 103.997C118.684 105.228 117.685 106.228 116.454 106.228Z" fill="url(#paint2_linear_14_9298)"/>
<path id="Vector_7" d="M33.9205 37.0809C33.9205 39.5434 31.9219 41.5419 29.4594 41.5419C26.9969 41.5419 24.9983 39.5434 24.9983 37.0809C24.9983 34.6183 26.9969 32.6198 29.4594 32.6198C31.9219 32.6198 33.9205 34.6183 33.9205 37.0809Z" fill="url(#paint3_linear_14_9298)"/>
<path id="Vector_8" d="M46.6142 89.2175C47.0157 91.3231 48.8559 92.8443 50.9972 92.8443H114.904C117.086 92.8443 118.946 91.2673 119.305 89.1171L123.907 61.5053L40.1077 55.059L46.6142 89.2175Z" fill="url(#paint4_linear_14_9298)"/>
<path id="Vector_9" d="M122.943 52.5075L38.3811 46.0032L40.1053 55.0592L123.902 61.5055L124.971 55.0993C125.187 53.8079 124.248 52.6078 122.943 52.5075Z" fill="url(#paint5_linear_14_9298)"/>
<path id="Vector_10" opacity="0.05" d="M88.6544 84.0182C86.7607 84.0182 85.2216 82.4813 85.2216 80.5921V79.4612H68.7424C66.7594 79.4612 65.1467 77.8463 65.1467 75.8656V71.9063C65.1467 69.9234 66.7594 68.3085 68.7424 68.3085H85.2216V67.1776C85.2216 65.2883 86.7607 63.7515 88.6544 63.7515C89.5734 63.7515 90.4344 64.1151 91.0834 64.7753L97.6925 71.4825C98.9952 72.8075 98.9974 74.9622 97.697 76.2871L91.0812 82.9944C90.4344 83.6546 89.5734 84.0182 88.6544 84.0182Z" fill="black"/>
<path id="Vector_11" opacity="0.07" d="M88.6641 82.9028C87.386 82.9028 86.3466 81.8656 86.3466 80.592V78.3458H68.7521C67.3848 78.3458 66.2717 77.2328 66.2717 75.8655V71.9063C66.2717 70.539 67.3848 69.4259 68.7521 69.4259H86.3466V67.1798C86.3466 65.9061 87.386 64.8689 88.6641 64.8689C89.2797 64.8689 89.8597 65.1121 90.2991 65.5604L96.9104 72.2676C97.7892 73.1598 97.7892 74.6164 96.9126 75.5086L90.2991 82.2158C89.8597 82.6597 89.2797 82.9028 88.6641 82.9028Z" fill="black"/>
<path id="Vector_12" d="M96.1104 73.0458L89.4991 66.3386C88.7497 65.578 87.456 66.1089 87.456 67.1773V70.5387H68.7462C67.9923 70.5387 67.3811 71.1499 67.3811 71.9038V75.863C67.3811 76.6192 67.9923 77.2303 68.7462 77.2303H87.456V80.5918C87.456 81.6602 88.7497 82.1911 89.4991 81.4304L96.1104 74.7232C96.5677 74.257 96.5677 73.512 96.1104 73.0458Z" fill="white"/>
</g>
<rect x="2.5" y="2.5" width="145" height="145" rx="7.5" stroke="#D5EAF6" stroke-width="5"/>
</g>
<defs>
<linearGradient id="paint0_linear_14_9298" x1="75" y1="5" x2="75" y2="145" gradientUnits="userSpaceOnUse">
<stop stop-color="#199AE0"/>
<stop offset="0.472222" stop-color="#0D5176" stop-opacity="0.527778"/>
<stop offset="0.940972" stop-color="#12A6F7" stop-opacity="0.465278"/>
<stop offset="1" stop-opacity="0"/>
</linearGradient>
<linearGradient id="paint1_linear_14_9298" x1="37.7898" y1="74.7257" x2="37.7898" y2="34.8504" gradientUnits="userSpaceOnUse">
<stop stop-color="#92A3B0"/>
<stop offset="0.015" stop-color="#A3B5C4"/>
<stop offset="0.032" stop-color="#AEC2D1"/>
<stop offset="0.046" stop-color="#B2C6D6"/>
</linearGradient>
<linearGradient id="paint2_linear_14_9298" x1="81.8803" y1="106.228" x2="81.8803" y2="88.3833" gradientUnits="userSpaceOnUse">
<stop stop-color="#92A3B0"/>
<stop offset="0.015" stop-color="#A3B5C4"/>
<stop offset="0.032" stop-color="#AEC2D1"/>
<stop offset="0.046" stop-color="#B2C6D6"/>
</linearGradient>
<linearGradient id="paint3_linear_14_9298" x1="26.6846" y1="34.3061" x2="32.5465" y2="40.1679" gradientUnits="userSpaceOnUse">
<stop stop-color="#199AE0"/>
<stop offset="1" stop-color="#0782D8"/>
</linearGradient>
<linearGradient id="paint4_linear_14_9298" x1="40.1077" y1="73.9517" x2="123.907" y2="73.9517" gradientUnits="userSpaceOnUse">
<stop stop-color="#3079D6"/>
<stop offset="1" stop-color="#297CD2"/>
</linearGradient>
<linearGradient id="paint5_linear_14_9298" x1="38.3811" y1="53.7543" x2="125.002" y2="53.7543" gradientUnits="userSpaceOnUse">
<stop stop-color="#42A3F2"/>
<stop offset="1" stop-color="#42A4EB"/>
</linearGradient>
</defs>
</svg>
