<svg width="150" height="150" viewBox="0 0 150 150" fill="none" xmlns="http://www.w3.org/2000/svg">
<g id="checklist">
<rect x="2.5" y="2.5" width="145" height="145" rx="7.5" fill="white"/>
<rect x="2.5" y="2.5" width="145" height="145" rx="7.5" fill="url(#paint0_linear_14_9288)" fill-opacity="0.2"/>
<g id="Group">
<path id="Vector" d="M122.56 50.6108H61.5869C60.2455 50.6108 59.1479 49.5133 59.1479 48.1718V43.294C59.1479 41.9525 60.2455 40.855 61.5869 40.855H122.56C123.902 40.855 124.999 41.9525 124.999 43.294V48.1718C124.999 49.5133 123.902 50.6108 122.56 50.6108Z" fill="url(#paint1_linear_14_9288)"/>
<path id="Vector_2" d="M42.0732 55.4885H27.4396C26.0981 55.4885 25.0006 54.391 25.0006 53.0496V38.4159C25.0006 37.0745 26.0981 35.977 27.4396 35.977H42.0732C43.4146 35.977 44.5122 37.0745 44.5122 38.4159V53.0496C44.5122 54.391 43.4146 55.4885 42.0732 55.4885Z" fill="#42A4EB"/>
<path id="Vector_3" d="M39.6312 40.855H29.8755V50.6108H39.6312V40.855Z" fill="url(#paint2_linear_14_9288)"/>
<path id="Vector_4" d="M122.56 79.8781H61.5869C60.2455 79.8781 59.1479 78.7806 59.1479 77.4392V72.5613C59.1479 71.2199 60.2455 70.1224 61.5869 70.1224H122.56C123.902 70.1224 124.999 71.2199 124.999 72.5613V77.4392C124.999 78.7806 123.902 79.8781 122.56 79.8781Z" fill="url(#paint3_linear_14_9288)"/>
<path id="Vector_5" d="M42.0732 84.7559H27.4396C26.0981 84.7559 25.0006 83.6584 25.0006 82.3169V67.6833C25.0006 66.3419 26.0981 65.2444 27.4396 65.2444H42.0732C43.4146 65.2444 44.5122 66.3419 44.5122 67.6833V82.3169C44.5122 83.6584 43.4146 84.7559 42.0732 84.7559Z" fill="#42A4EB"/>
<path id="Vector_6" d="M39.6312 70.1224H29.8755V79.8781H39.6312V70.1224Z" fill="url(#paint4_linear_14_9288)"/>
<path id="Vector_7" d="M122.56 109.145H61.5869C60.2455 109.145 59.1479 108.048 59.1479 106.706V101.828C59.1479 100.487 60.2455 99.3895 61.5869 99.3895H122.56C123.902 99.3895 124.999 100.487 124.999 101.828V106.706C124.999 108.048 123.902 109.145 122.56 109.145Z" fill="url(#paint5_linear_14_9288)"/>
<path id="Vector_8" d="M42.0732 114.023H27.4396C26.0981 114.023 25.0006 112.925 25.0006 111.584V96.9504C25.0006 95.609 26.0981 94.5115 27.4396 94.5115H42.0732C43.4146 94.5115 44.5122 95.609 44.5122 96.9504V111.584C44.5122 112.925 43.4146 114.023 42.0732 114.023Z" fill="#42A4EB"/>
</g>
<rect x="2.5" y="2.5" width="145" height="145" rx="7.5" stroke="#D5EAF6" stroke-width="5"/>
</g>
<defs>
<linearGradient id="paint0_linear_14_9288" x1="75" y1="5" x2="75" y2="145" gradientUnits="userSpaceOnUse">
<stop stop-color="#199AE0"/>
<stop offset="0.472222" stop-color="#0D5176" stop-opacity="0.527778"/>
<stop offset="0.940972" stop-color="#12A6F7" stop-opacity="0.465278"/>
<stop offset="1" stop-opacity="0"/>
</linearGradient>
<linearGradient id="paint1_linear_14_9288" x1="73.0572" y1="26.7165" x2="109.427" y2="63.086" gradientUnits="userSpaceOnUse">
<stop stop-color="#1D59B3"/>
<stop offset="1" stop-color="#195BBC"/>
</linearGradient>
<linearGradient id="paint2_linear_14_9288" x1="29.6535" y1="40.6331" x2="39.4093" y2="50.3888" gradientUnits="userSpaceOnUse">
<stop stop-color="#1D59B3"/>
<stop offset="1" stop-color="#195BBC"/>
</linearGradient>
<linearGradient id="paint3_linear_14_9288" x1="73.0572" y1="55.9838" x2="109.427" y2="92.3533" gradientUnits="userSpaceOnUse">
<stop stop-color="#1D59B3"/>
<stop offset="1" stop-color="#195BBC"/>
</linearGradient>
<linearGradient id="paint4_linear_14_9288" x1="29.6535" y1="69.9004" x2="39.4093" y2="79.6562" gradientUnits="userSpaceOnUse">
<stop stop-color="#1D59B3"/>
<stop offset="1" stop-color="#195BBC"/>
</linearGradient>
<linearGradient id="paint5_linear_14_9288" x1="73.0572" y1="85.2509" x2="109.427" y2="121.62" gradientUnits="userSpaceOnUse">
<stop stop-color="#1D59B3"/>
<stop offset="1" stop-color="#195BBC"/>
</linearGradient>
</defs>
</svg>
