<svg width="150" height="150" viewBox="0 0 150 150" fill="none" xmlns="http://www.w3.org/2000/svg">
<g id="climate-change">
<rect x="2.5" y="2.5" width="145" height="145" rx="7.5" fill="white"/>
<rect x="2.5" y="2.5" width="145" height="145" rx="7.5" fill="url(#paint0_linear_14_9331)" fill-opacity="0.2"/>
<g id="Group">
<path id="Vector" d="M123.78 54.2682V125H104.267V54.2682C104.267 52.9219 105.36 51.8292 106.706 51.8292H121.34C122.687 51.8292 123.78 52.9219 123.78 54.2682Z" fill="url(#paint1_linear_14_9331)"/>
<path id="Vector_2" d="M104.264 66.4633V125H84.7518V68.9023C84.7518 67.5559 85.8445 66.4633 87.1908 66.4633H104.264Z" fill="url(#paint2_linear_14_9331)"/>
<path id="Vector_3" d="M84.7561 81.0975V125H65.244V83.5365C65.244 82.1902 66.3366 81.0975 67.683 81.0975H84.7561Z" fill="url(#paint3_linear_14_9331)"/>
<path id="Vector_4" d="M65.2405 95.7318V125H45.7283V98.1708C45.7283 96.8245 46.821 95.7318 48.1674 95.7318H65.2405Z" fill="url(#paint4_linear_14_9331)"/>
<path id="Vector_5" d="M45.7327 110.366V125H26.2205V112.805C26.2205 111.458 27.3132 110.366 28.6595 110.366H45.7327Z" fill="url(#paint5_linear_14_9331)"/>
<path id="Vector_6" d="M48.1717 61.1195V27.439C48.1717 26.0927 47.079 25 45.7327 25H35.9766C34.6303 25 33.5376 26.0927 33.5376 27.439V61.1195C29.1669 63.6512 26.2205 68.3658 26.2205 73.7805C26.2205 81.8634 32.7717 88.4146 40.8547 88.4146C48.9376 88.4146 55.4888 81.8634 55.4888 73.7805C55.4888 68.3658 52.5424 63.6512 48.1717 61.1195Z" fill="url(#paint6_linear_14_9331)"/>
<path id="Vector_7" d="M43.2906 64.3683V42.0732H38.4126V64.3683C34.2126 65.4562 31.0955 69.2391 31.0955 73.7805C31.0955 79.1683 35.4638 83.5366 40.8516 83.5366C46.2394 83.5366 50.6077 79.1683 50.6077 73.7805C50.6077 69.2391 47.4906 65.4562 43.2906 64.3683Z" fill="url(#paint7_linear_14_9331)"/>
<path id="Vector_8" d="M43.2939 29.8781H38.4158V42.0732H43.2939V29.8781Z" fill="#1B9DE2"/>
</g>
<rect x="2.5" y="2.5" width="145" height="145" rx="7.5" stroke="#D5EAF6" stroke-width="5"/>
</g>
<defs>
<linearGradient id="paint0_linear_14_9331" x1="75" y1="5" x2="75" y2="145" gradientUnits="userSpaceOnUse">
<stop stop-color="#199AE0"/>
<stop offset="0.472222" stop-color="#0D5176" stop-opacity="0.527778"/>
<stop offset="0.940972" stop-color="#12A6F7" stop-opacity="0.465278"/>
<stop offset="1" stop-opacity="0"/>
</linearGradient>
<linearGradient id="paint1_linear_14_9331" x1="104.267" y1="88.4146" x2="123.78" y2="88.4146" gradientUnits="userSpaceOnUse">
<stop stop-color="#50E6FF"/>
<stop offset="1" stop-color="#35C1F1"/>
</linearGradient>
<linearGradient id="paint2_linear_14_9331" x1="84.7518" y1="95.7315" x2="104.264" y2="95.7315" gradientUnits="userSpaceOnUse">
<stop stop-color="#32BDEF"/>
<stop offset="1" stop-color="#1EA2E4"/>
</linearGradient>
<linearGradient id="paint3_linear_14_9331" x1="65.244" y1="103.049" x2="84.7561" y2="103.049" gradientUnits="userSpaceOnUse">
<stop stop-color="#199BE2"/>
<stop offset="1" stop-color="#0078D4"/>
</linearGradient>
<linearGradient id="paint4_linear_14_9331" x1="45.7283" y1="110.366" x2="65.2405" y2="110.366" gradientUnits="userSpaceOnUse">
<stop stop-color="#0078D4"/>
<stop offset="1" stop-color="#0D62AB"/>
</linearGradient>
<linearGradient id="paint5_linear_14_9331" x1="26.2205" y1="117.683" x2="45.7327" y2="117.683" gradientUnits="userSpaceOnUse">
<stop stop-color="#0078D4"/>
<stop offset="1" stop-color="#0D578E"/>
</linearGradient>
<linearGradient id="paint6_linear_14_9331" x1="26.2205" y1="56.7073" x2="55.4888" y2="56.7073" gradientUnits="userSpaceOnUse">
<stop stop-color="#50E6FF"/>
<stop offset="1" stop-color="#35C1F1"/>
</linearGradient>
<linearGradient id="paint7_linear_14_9331" x1="31.0955" y1="62.8049" x2="50.6077" y2="62.8049" gradientUnits="userSpaceOnUse">
<stop stop-color="#D12845"/>
<stop offset="1" stop-color="#AF2031"/>
</linearGradient>
</defs>
</svg>
