<svg width="150" height="150" viewBox="0 0 150 150" fill="none" xmlns="http://www.w3.org/2000/svg">
<g id="cloud-sync">
<rect x="2.5" y="2.5" width="145" height="145" rx="7.5" fill="white"/>
<rect x="2.5" y="2.5" width="145" height="145" rx="7.5" fill="url(#paint0_linear_14_9358)" fill-opacity="0.2"/>
<g id="Group">
<path id="Vector" d="M125 82.2917C125 96.1042 113.812 107.292 100 107.292C96.25 107.292 48.625 107.292 44.7917 107.292C33.8542 107.292 25 98.4375 25 87.5C25 78.0417 31.625 70.125 40.5208 68.1667C44.0625 53.5625 57.2083 42.7083 72.9167 42.7083C84.3958 42.7083 94.5 48.5 100.5 57.3125C114.083 57.5625 125 68.6458 125 82.2917Z" fill="url(#paint1_linear_14_9358)"/>
<path id="Vector_2" opacity="0.05" d="M68.7552 86.8895V93.7499C68.7552 95.4728 67.3531 96.8749 65.6302 96.8749H58.7698C57.5031 96.8749 56.3698 96.1187 55.8823 94.9457C55.399 93.7749 55.6635 92.4374 56.5594 91.5395L57.1656 90.9332C55.2031 87.6937 54.1719 84.0207 54.1719 80.2082C54.1719 69.177 62.7948 60.0416 73.799 59.4103C74.6552 59.3603 75.4865 59.6728 76.101 60.2562C76.7281 60.8499 77.0885 61.6812 77.0885 62.5437V64.6312C77.0885 66.2582 75.799 67.6249 74.1531 67.7395C67.6198 68.1832 62.5052 73.6582 62.5052 80.2082C62.5052 81.7437 62.8052 83.2707 63.3844 84.7166L63.4219 84.6791C64.3177 83.7832 65.6552 83.5145 66.8281 84.002C68.001 84.4895 68.7552 85.6228 68.7552 86.8895ZM92.8385 69.4874L93.451 68.8749C94.349 67.977 94.6135 66.6416 94.1281 65.4687C93.6406 64.2978 92.5073 63.5416 91.2406 63.5416H84.3802C82.6573 63.5416 81.2552 64.9437 81.2552 66.6666V73.527C81.2552 74.7937 82.0115 75.927 83.1844 76.4145C84.3552 76.8978 85.6948 76.6312 86.5906 75.7374L86.6448 75.6832C87.2115 77.1207 87.5052 78.652 87.5052 80.2082C87.5052 86.7582 82.3906 92.2332 75.8573 92.677C74.2115 92.7937 72.9219 94.1582 72.9219 95.7874V97.8749C72.9219 98.7353 73.2823 99.5666 73.9094 100.162C74.4844 100.708 75.2552 101.014 76.0427 101.014C76.099 101.014 76.1552 101.012 76.2115 101.008C87.2156 100.375 95.8385 91.2395 95.8385 80.2082C95.8385 76.402 94.8073 72.7291 92.8385 69.4874Z" fill="black"/>
<path id="Vector_3" opacity="0.07" d="M67.7031 86.8897V93.7501C67.7031 94.9001 66.7698 95.8335 65.6198 95.8335H58.7594C57.9156 95.8335 57.1573 95.3293 56.8344 94.548C56.5115 93.7668 56.6885 92.8751 57.2865 92.2772L58.4823 91.0814C56.3344 87.8397 55.2031 84.1001 55.2031 80.2084C55.2031 69.7293 63.3948 61.0501 73.849 60.4501C74.4031 60.4147 74.9656 60.6251 75.374 61.0147C75.7948 61.4105 76.0344 61.9689 76.0344 62.5439V64.6314C76.0344 65.7314 75.1906 66.6209 74.0698 66.7001C66.9948 67.1793 61.4531 73.1147 61.4531 80.2084C61.4531 82.3855 62.0073 84.5376 63.0594 86.5022L64.1448 85.4168C64.7406 84.8209 65.6302 84.6397 66.4156 84.9647C67.199 85.2876 67.7031 86.046 67.7031 86.8897ZM91.501 69.3418L92.7031 68.1397C93.301 67.5418 93.4781 66.6501 93.1552 65.8689C92.8323 65.0876 92.074 64.5834 91.2302 64.5834H84.3698C83.2198 64.5834 82.2865 65.5168 82.2865 66.6668V73.5272C82.2865 74.3709 82.7906 75.1293 83.5719 75.4522C84.3552 75.7751 85.2469 75.5959 85.8427 75.0001L86.951 73.8918C87.9906 75.8397 88.5365 77.998 88.5365 80.2084C88.5365 87.3022 82.9948 93.2376 75.9177 93.7168C74.7969 93.7959 73.9531 94.6855 73.9531 95.7855V97.873C73.9531 98.448 74.1927 99.0064 74.6135 99.4022C74.9969 99.7668 75.5073 99.9689 76.0302 99.9689C76.0677 99.9689 76.1031 99.9668 76.1406 99.9647C86.5948 99.3668 94.7865 90.6876 94.7865 80.2084C94.7865 76.323 93.6531 72.5855 91.501 69.3418Z" fill="black"/>
<path id="Vector_4" d="M75 64.6292C75 65.1854 74.5583 65.6208 74.0021 65.6583C66.425 66.1729 60.4167 72.5042 60.4167 80.2083C60.4167 83.1625 61.3417 85.8854 62.8583 88.1833L64.8896 86.1521C65.5437 85.4979 66.6667 85.9625 66.6667 86.8896V93.75C66.6667 94.325 66.2 94.7917 65.625 94.7917H58.7646C57.8375 94.7917 57.3708 93.6688 58.0271 93.0125L59.8396 91.2C57.5896 88.1104 56.25 84.3167 56.25 80.2083C56.25 70.2333 64.0771 62.0542 73.9125 61.4896C74.5042 61.4563 75 61.9521 75 62.5438V64.6292ZM90.1542 69.2208L91.9729 67.4021C92.6271 66.7479 92.1625 65.625 91.2354 65.625H84.375C83.8 65.625 83.3333 66.0917 83.3333 66.6667V73.5271C83.3333 74.4542 84.4562 74.9208 85.1125 74.2646L87.1667 72.2104C88.6854 74.5083 89.5833 77.2521 89.5833 80.2083C89.5833 87.9125 83.575 94.2438 75.9979 94.7583C75.4417 94.7958 75 95.2313 75 95.7875V97.8729C75 98.4646 75.4958 98.9604 76.0875 98.9271C85.9229 98.3625 93.75 90.1833 93.75 80.2083C93.75 76.1 92.4062 72.3104 90.1542 69.2208Z" fill="white"/>
</g>
<rect x="2.5" y="2.5" width="145" height="145" rx="7.5" stroke="#D5EAF6" stroke-width="5"/>
</g>
<defs>
<linearGradient id="paint0_linear_14_9358" x1="75" y1="5" x2="75" y2="145" gradientUnits="userSpaceOnUse">
<stop stop-color="#199AE0"/>
<stop offset="0.472222" stop-color="#0D5176" stop-opacity="0.527778"/>
<stop offset="0.940972" stop-color="#12A6F7" stop-opacity="0.465278"/>
<stop offset="1" stop-opacity="0"/>
</linearGradient>
<linearGradient id="paint1_linear_14_9358" x1="54.6708" y1="45.5375" x2="87.8583" y2="108.74" gradientUnits="userSpaceOnUse">
<stop stop-color="#2AA4F4"/>
<stop offset="1" stop-color="#007AD9"/>
</linearGradient>
</defs>
</svg>
