<svg width="150" height="150" viewBox="0 0 150 150" fill="none" xmlns="http://www.w3.org/2000/svg">
<g id="cloud-folder">
<rect x="2.5" y="2.5" width="145" height="145" rx="7.5" fill="white"/>
<rect x="2.5" y="2.5" width="145" height="145" rx="7.5" fill="url(#paint0_linear_14_9345)" fill-opacity="0.2"/>
<g id="Group">
<path id="Vector" d="M75.9857 42.6524L69.9476 36.6143C68.6095 35.2762 66.7929 34.5238 64.8976 34.5238H29.7619C27.131 34.5238 25 36.6548 25 39.2857V110.714C25 113.345 27.131 115.476 29.7619 115.476H120.238C122.869 115.476 125 113.345 125 110.714V48.8095C125 46.1786 122.869 44.0476 120.238 44.0476H79.3524C78.0905 44.0476 76.8786 43.5452 75.9857 42.6524Z" fill="url(#paint1_linear_14_9345)"/>
<path id="Vector_2" d="M69.2524 52.1759L77.0333 44.395C77.2548 44.1736 77.5571 44.0474 77.8738 44.0474H120.238C122.869 44.0474 125 46.1783 125 48.8093V110.714C125 113.345 122.869 115.476 120.238 115.476H29.7619C27.131 115.476 25 113.345 25 110.714V54.7616C25 54.1045 25.5333 53.5712 26.1905 53.5712H65.8857C67.1476 53.5712 68.3595 53.0688 69.2524 52.1759Z" fill="url(#paint2_linear_14_9345)"/>
<path id="Vector_3" d="M90.0528 75.038C87.3838 69.3927 81.6528 65.4761 74.9933 65.4761C66.5933 65.4761 59.6624 71.6975 58.5124 79.7808C58.4504 79.7785 58.3909 79.7618 58.3266 79.7618C51.7528 79.7618 46.4219 85.0927 46.4219 91.6666C46.4219 98.2404 51.7528 103.571 58.3266 103.571C62.7528 103.571 84.8885 103.571 89.279 103.571C97.1695 103.571 103.565 97.1761 103.565 89.2856C103.565 81.657 97.5814 75.4427 90.0528 75.038Z" fill="url(#paint3_linear_14_9345)"/>
</g>
<rect x="2.5" y="2.5" width="145" height="145" rx="7.5" stroke="#D5EAF6" stroke-width="5"/>
</g>
<defs>
<linearGradient id="paint0_linear_14_9345" x1="75" y1="5" x2="75" y2="145" gradientUnits="userSpaceOnUse">
<stop stop-color="#199AE0"/>
<stop offset="0.472222" stop-color="#0D5176" stop-opacity="0.527778"/>
<stop offset="0.940972" stop-color="#12A6F7" stop-opacity="0.465278"/>
<stop offset="1" stop-opacity="0"/>
</linearGradient>
<linearGradient id="paint1_linear_14_9345" x1="75" y1="33.8286" x2="75" y2="53.5167" gradientUnits="userSpaceOnUse">
<stop stop-color="#EBA600"/>
<stop offset="1" stop-color="#C28200"/>
</linearGradient>
<linearGradient id="paint2_linear_14_9345" x1="75" y1="43.6997" x2="75" y2="115.435" gradientUnits="userSpaceOnUse">
<stop stop-color="#FFD869"/>
<stop offset="1" stop-color="#FEC52B"/>
</linearGradient>
<linearGradient id="paint3_linear_14_9345" x1="66.6147" y1="67.3118" x2="80.1409" y2="104.374" gradientUnits="userSpaceOnUse">
<stop stop-color="#2AA4F4"/>
<stop offset="1" stop-color="#007AD9"/>
</linearGradient>
</defs>
</svg>
