<svg width="150" height="150" viewBox="0 0 150 150" fill="none" xmlns="http://www.w3.org/2000/svg">
<g id="code">
<rect x="2.5" y="2.5" width="145" height="145" rx="7.5" fill="white"/>
<rect x="2.5" y="2.5" width="145" height="145" rx="7.5" fill="url(#paint0_linear_14_9364)" fill-opacity="0.2"/>
<g id="Group">
<path id="Vector" d="M120.238 36.9047C122.869 36.9047 125 39.0357 125 41.6666V53.5714H25V41.6666C25 39.0357 27.131 36.9047 29.7619 36.9047H120.238Z" fill="#CCCCCC"/>
<path id="Vector_2" d="M125 48.8095H25V108.333C25 110.964 27.131 113.095 29.7619 113.095H120.238C122.869 113.095 125 110.964 125 108.333V48.8095Z" fill="url(#paint1_linear_14_9364)"/>
<path id="Vector_3" d="M117.85 46.4286C119.165 46.4286 120.231 45.3626 120.231 44.0476C120.231 42.7327 119.165 41.6667 117.85 41.6667C116.535 41.6667 115.469 42.7327 115.469 44.0476C115.469 45.3626 116.535 46.4286 117.85 46.4286Z" fill="#999999"/>
<path id="Vector_4" d="M110.709 46.4286C112.024 46.4286 113.09 45.3626 113.09 44.0476C113.09 42.7327 112.024 41.6667 110.709 41.6667C109.394 41.6667 108.328 42.7327 108.328 44.0476C108.328 45.3626 109.394 46.4286 110.709 46.4286Z" fill="#999999"/>
<path id="Vector_5" opacity="0.05" d="M105.368 79.862L99.8395 69.7239C99.2133 68.5739 98.0085 67.8572 96.6966 67.8572H93.3395C92.2037 67.8572 91.1799 68.4406 90.6014 69.4144C90.0204 70.3906 89.999 71.5668 90.5442 72.5668L95.7657 82.143L90.5418 91.7168C89.9966 92.7168 90.0204 93.893 90.599 94.8668C91.1799 95.843 92.2014 96.4263 93.3371 96.4263H96.6942C98.0061 96.4263 99.2109 95.7096 99.8371 94.5596L105.368 84.4215C106.149 82.9953 106.149 81.2906 105.368 79.862Z" fill="black"/>
<path id="Vector_6" opacity="0.07" d="M104.318 80.4333L98.7874 70.2928C98.3684 69.5237 97.5636 69.0475 96.6898 69.0475H93.3327C92.6208 69.0475 91.9803 69.4118 91.6184 70.0237C91.2541 70.6356 91.2422 71.3714 91.5827 71.9975L97.116 82.1428L91.5827 92.288C91.2422 92.9142 91.2541 93.6499 91.6184 94.2618C91.9803 94.8737 92.6208 95.238 93.3327 95.238H96.6898C97.5636 95.238 98.3684 94.7618 98.7874 93.9928L104.318 83.8523C104.902 82.7833 104.902 81.5023 104.318 80.4333Z" fill="black"/>
<path id="Vector_7" opacity="0.05" d="M44.6329 79.862L50.1615 69.7239C50.7876 68.5739 51.9924 67.8572 53.3043 67.8572H56.6615C57.7972 67.8572 58.821 68.4406 59.3996 69.4144C59.9805 70.3906 60.0019 71.5668 59.4567 72.5668L54.2353 82.143L59.4591 91.7168C60.0043 92.7168 59.9805 93.893 59.4019 94.8668C58.821 95.8453 57.7972 96.4287 56.6615 96.4287H53.3043C51.9924 96.4287 50.7876 95.712 50.1615 94.562L44.6305 84.4239C43.8519 82.9953 43.8519 81.2906 44.6329 79.862Z" fill="black"/>
<path id="Vector_8" opacity="0.07" d="M45.6719 80.4333L51.2028 70.2928C51.6219 69.5237 52.4266 69.0475 53.3004 69.0475H56.6576C57.3695 69.0475 58.01 69.4118 58.3719 70.0237C58.7362 70.6356 58.7481 71.3714 58.4076 71.9975L52.8743 82.1428L58.4076 92.288C58.7481 92.9142 58.7362 93.6499 58.3719 94.2618C58.01 94.8737 57.3695 95.238 56.6576 95.238H53.3004C52.4266 95.238 51.6219 94.7618 51.2028 93.9928L45.6719 83.8523C45.0885 82.7833 45.0885 81.5023 45.6719 80.4333Z" fill="black"/>
<path id="Vector_9" d="M98.4839 82.1427L92.6386 92.857C92.3458 93.3927 92.7339 94.0475 93.3458 94.0475H96.7029C97.141 94.0475 97.5458 93.807 97.7553 93.4237L103.286 83.2832C103.674 82.5737 103.674 81.7142 103.286 81.0023L97.7553 70.8618C97.5458 70.4785 97.141 70.238 96.7029 70.238H93.3458C92.7363 70.238 92.3482 70.8904 92.6386 71.4285L98.4839 82.1427Z" fill="white"/>
<path id="Vector_10" d="M51.5153 82.1427L57.3606 92.857C57.6534 93.3927 57.2653 94.0475 56.6534 94.0475H53.2963C52.8582 94.0475 52.4534 93.807 52.2439 93.4237L46.7129 83.2832C46.3249 82.5737 46.3249 81.7142 46.7129 81.0023L52.2439 70.8618C52.4534 70.4785 52.8582 70.238 53.2963 70.238H56.6534C57.263 70.238 57.651 70.8904 57.3606 71.4285L51.5153 82.1427Z" fill="white"/>
<path id="Vector_11" opacity="0.05" d="M86.2908 59.738C85.6669 58.857 84.6527 58.3332 83.5765 58.3332H81.0122C79.5217 58.3332 78.1884 59.276 77.6955 60.6784L63.2812 101.526C62.9241 102.54 63.0836 103.669 63.705 104.552C64.3265 105.428 65.3384 105.952 66.4146 105.952H68.9788C70.4693 105.952 71.805 105.009 72.2955 103.605L86.7122 62.7618C87.0669 61.7475 86.9098 60.6165 86.2908 59.738Z" fill="black"/>
<path id="Vector_12" opacity="0.07" d="M85.3238 60.4239C84.9262 59.862 84.2738 59.5239 83.5834 59.5239H81.0191C80.0334 59.5239 79.1524 60.1477 78.8262 61.0739L64.4095 101.919C64.181 102.569 64.281 103.295 64.681 103.86C65.0786 104.421 65.731 104.76 66.4215 104.76H68.9857C69.9738 104.76 70.8548 104.133 71.1786 103.207L85.5953 62.3643C85.8238 61.7143 85.7214 60.9882 85.3238 60.4239Z" fill="black"/>
<path id="Vector_13" d="M83.5734 60.7143H81.0091C80.5281 60.7143 80.0996 61.0167 79.94 61.4714L65.5234 102.317C65.3067 102.929 65.7615 103.571 66.4115 103.571H68.9758C69.4567 103.571 69.8853 103.269 70.0448 102.814L84.4615 61.9691C84.6781 61.3572 84.2234 60.7143 83.5734 60.7143Z" fill="white"/>
</g>
<rect x="2.5" y="2.5" width="145" height="145" rx="7.5" stroke="#D5EAF6" stroke-width="5"/>
</g>
<defs>
<linearGradient id="paint0_linear_14_9364" x1="75" y1="5" x2="75" y2="145" gradientUnits="userSpaceOnUse">
<stop stop-color="#199AE0"/>
<stop offset="0.472222" stop-color="#0D5176" stop-opacity="0.527778"/>
<stop offset="0.940972" stop-color="#12A6F7" stop-opacity="0.465278"/>
<stop offset="1" stop-opacity="0"/>
</linearGradient>
<linearGradient id="paint1_linear_14_9364" x1="65.2143" y1="46.1333" x2="85.0809" y2="112.702" gradientUnits="userSpaceOnUse">
<stop stop-color="#6E6E6E"/>
<stop offset="0.999" stop-color="#4D4D4D"/>
</linearGradient>
</defs>
</svg>
