<svg width="150" height="150" viewBox="0 0 150 150" fill="none" xmlns="http://www.w3.org/2000/svg">
<g id="code-file">
<rect x="2.5" y="2.5" width="145" height="145" rx="7.5" fill="white"/>
<rect x="2.5" y="2.5" width="145" height="145" rx="7.5" fill="url(#paint0_linear_14_9379)" fill-opacity="0.2"/>
<g id="Group">
<path id="Vector" d="M114.474 53.9474V119.737C114.474 122.645 112.118 125 109.211 125H40.7895C37.8816 125 35.5264 122.645 35.5264 119.737V30.2632C35.5264 27.3553 37.8816 25 40.7895 25H85.5264L114.474 53.9474Z" fill="#50E6FF"/>
<path id="Vector_2" d="M85.5264 25V48.6842C85.5264 51.5921 87.8816 53.9474 90.7895 53.9474H114.474L85.5264 25Z" fill="url(#paint1_linear_14_9379)"/>
<path id="Vector_3" d="M49.0004 88.9264L59.4267 99.3527C59.8504 99.7764 60.5399 99.7764 60.9635 99.3527L63.1662 97.1501C63.5899 96.7264 63.5899 96.0369 63.1662 95.6132L52.7399 85.1869C52.3162 84.7632 51.6267 84.7632 51.203 85.1869L49.0004 87.3895C48.5767 87.8132 48.5767 88.5027 49.0004 88.9264Z" fill="#0078D4"/>
<path id="Vector_4" d="M52.7399 91.1289L63.1662 80.7026C63.5899 80.2789 63.5899 79.5895 63.1662 79.1658L60.9635 76.9631C60.5399 76.5395 59.8504 76.5395 59.4267 76.9631L49.0004 87.3895C48.5767 87.8131 48.5767 88.5026 49.0004 88.9263L51.203 91.1289C51.6267 91.5526 52.3162 91.5526 52.7399 91.1289Z" fill="#0078D4"/>
<path id="Vector_5" d="M100.994 88.9264L90.568 99.3527C90.1443 99.7764 89.4548 99.7764 89.0311 99.3527L86.8285 97.1501C86.4048 96.7264 86.4048 96.0369 86.8285 95.6132L97.2548 85.1869C97.6785 84.7632 98.368 84.7632 98.7917 85.1869L100.994 87.3895C101.418 87.8132 101.418 88.5027 100.994 88.9264Z" fill="#0078D4"/>
<path id="Vector_6" d="M97.2548 91.1289L86.8285 80.7026C86.4048 80.2789 86.4048 79.5895 86.8285 79.1658L89.0311 76.9631C89.4548 76.5395 90.1443 76.5395 90.568 76.9631L100.994 87.3895C101.418 87.8131 101.418 88.5026 100.994 88.9263L98.7917 91.1289C98.368 91.5526 97.6785 91.5526 97.2548 91.1289Z" fill="#0078D4"/>
<path id="Vector_7" d="M81.8517 64.5842H77.8938C77.3754 64.5842 76.928 64.9474 76.8201 65.4553L67.3412 110.742C67.2333 111.253 67.6254 111.734 68.1465 111.734H72.1044C72.6228 111.734 73.0701 111.371 73.178 110.863L82.657 65.5763C82.7649 65.0632 82.3728 64.5842 81.8517 64.5842Z" fill="#0078D4"/>
</g>
<rect x="2.5" y="2.5" width="145" height="145" rx="7.5" stroke="#D5EAF6" stroke-width="5"/>
</g>
<defs>
<linearGradient id="paint0_linear_14_9379" x1="75" y1="5" x2="75" y2="145" gradientUnits="userSpaceOnUse">
<stop stop-color="#199AE0"/>
<stop offset="0.472222" stop-color="#0D5176" stop-opacity="0.527778"/>
<stop offset="0.940972" stop-color="#12A6F7" stop-opacity="0.465278"/>
<stop offset="1" stop-opacity="0"/>
</linearGradient>
<linearGradient id="paint1_linear_14_9379" x1="86.9185" y1="52.5579" x2="100.263" y2="39.2105" gradientUnits="userSpaceOnUse">
<stop stop-color="#3079D6"/>
<stop offset="1" stop-color="#297CD2"/>
</linearGradient>
</defs>
</svg>
