<svg width="150" height="150" viewBox="0 0 150 150" fill="none" xmlns="http://www.w3.org/2000/svg">
<g id="collapse">
<rect x="2.5" y="2.5" width="145" height="145" rx="7.5" fill="white"/>
<rect x="2.5" y="2.5" width="145" height="145" rx="7.5" fill="url(#paint0_linear_14_9388)" fill-opacity="0.2"/>
<g id="Group">
<path id="Vector" d="M86.1001 90.024L98.0232 101.947L88.4719 111.498C87.5971 112.373 86.1001 111.754 86.1001 110.518V90.024Z" fill="url(#paint1_linear_14_9388)"/>
<path id="Vector_2" d="M124.163 120.25L120.253 124.174C119.17 125.263 117.409 125.263 116.323 124.177L86.9055 94.7622C86.4056 94.2345 86.1001 93.5401 86.1001 92.7903V88.8742C86.1001 87.3467 87.3499 86.0969 88.8774 86.0969H110.513C111.763 86.0969 112.374 87.5967 111.513 88.4576L103.903 96.0675L124.161 116.325C125.244 117.409 125.247 119.164 124.163 120.25Z" fill="url(#paint2_linear_14_9388)"/>
<path id="Vector_3" d="M90.0295 63.878L101.953 51.955L111.504 61.5062C112.379 62.3811 111.759 63.878 110.523 63.878H90.0295Z" fill="url(#paint3_linear_14_9388)"/>
<path id="Vector_4" d="M124.186 29.753C125.272 30.839 125.269 32.597 124.186 33.6829L94.7654 63.0727C94.2377 63.5726 93.5433 63.8781 92.7935 63.8781H88.8774C87.3499 63.8781 86.1001 62.6283 86.1001 61.1008V39.4653C86.1001 38.2155 87.5999 37.6045 88.4608 38.4655L96.0707 46.0754L116.326 25.8203C117.412 24.7344 119.17 24.7344 120.253 25.8203L124.186 29.753Z" fill="url(#paint4_linear_14_9388)"/>
<path id="Vector_5" d="M63.8761 90.024L51.953 101.947L61.5042 111.498C62.3791 112.373 63.8761 111.754 63.8761 110.518V90.024Z" fill="url(#paint5_linear_14_9388)"/>
<path id="Vector_6" d="M63.881 88.8742V92.7903C63.881 93.5401 63.5755 94.2345 63.0756 94.7622L33.6831 124.18C32.5999 125.266 30.8391 125.266 29.7532 124.18L25.8232 120.25C24.7373 119.164 24.7373 117.406 25.8232 116.323L46.0783 96.0675L38.4684 88.4576C37.6075 87.5967 38.2185 86.0969 39.4683 86.0969H61.1037C62.6312 86.0969 63.881 87.3467 63.881 88.8742Z" fill="url(#paint6_linear_14_9388)"/>
<path id="Vector_7" d="M59.947 63.878L48.0239 51.955L38.4726 61.5062C37.5978 62.3811 38.2171 63.878 39.453 63.878H59.947Z" fill="url(#paint7_linear_14_9388)"/>
<path id="Vector_8" d="M63.8753 39.4648V61.1002C63.8753 62.6278 62.6255 63.8776 61.098 63.8776H57.1819C56.432 63.8776 55.7377 63.5721 55.21 63.0721L25.8147 33.6769C24.7316 32.5937 24.7288 30.8384 25.812 29.7525L29.7224 25.8281C30.8056 24.7394 32.5664 24.7394 33.6524 25.8253L53.9047 46.0776L61.5146 38.4678C62.3755 37.604 63.8753 38.215 63.8753 39.4648Z" fill="url(#paint8_linear_14_9388)"/>
</g>
<rect x="2.5" y="2.5" width="145" height="145" rx="7.5" stroke="#D5EAF6" stroke-width="5"/>
</g>
<defs>
<linearGradient id="paint0_linear_14_9388" x1="75" y1="5" x2="75" y2="145" gradientUnits="userSpaceOnUse">
<stop stop-color="#199AE0"/>
<stop offset="0.472222" stop-color="#0D5176" stop-opacity="0.527778"/>
<stop offset="0.940972" stop-color="#12A6F7" stop-opacity="0.465278"/>
<stop offset="1" stop-opacity="0"/>
</linearGradient>
<linearGradient id="paint1_linear_14_9388" x1="81.8146" y1="106.235" x2="90.4733" y2="97.5759" gradientUnits="userSpaceOnUse">
<stop offset="0.365" stop-color="#199AE0"/>
<stop offset="0.699" stop-color="#1898DE"/>
<stop offset="0.819" stop-color="#1691D8"/>
<stop offset="0.905" stop-color="#1186CC"/>
<stop offset="0.974" stop-color="#0A75BC"/>
<stop offset="1" stop-color="#076CB3"/>
</linearGradient>
<linearGradient id="paint2_linear_14_9388" x1="94.2682" y1="181.054" x2="122.075" y2="-10.1071" gradientUnits="userSpaceOnUse">
<stop stop-color="#32BDEF"/>
<stop offset="1" stop-color="#1EA2E4"/>
</linearGradient>
<linearGradient id="paint3_linear_14_9388" x1="106.291" y1="68.2336" x2="97.6359" y2="59.5789" gradientUnits="userSpaceOnUse">
<stop offset="0.365" stop-color="#199AE0"/>
<stop offset="0.699" stop-color="#1898DE"/>
<stop offset="0.819" stop-color="#1691D8"/>
<stop offset="0.905" stop-color="#1186CC"/>
<stop offset="0.974" stop-color="#0A75BC"/>
<stop offset="1" stop-color="#076CB3"/>
</linearGradient>
<linearGradient id="paint4_linear_14_9388" x1="91.4853" y1="132.312" x2="123.264" y2="-86.1423" gradientUnits="userSpaceOnUse">
<stop stop-color="#32BDEF"/>
<stop offset="1" stop-color="#1EA2E4"/>
</linearGradient>
<linearGradient id="paint5_linear_14_9388" x1="68.2134" y1="106.303" x2="59.5586" y2="97.6486" gradientUnits="userSpaceOnUse">
<stop offset="0.365" stop-color="#199AE0"/>
<stop offset="0.699" stop-color="#1898DE"/>
<stop offset="0.819" stop-color="#1691D8"/>
<stop offset="0.905" stop-color="#1186CC"/>
<stop offset="0.974" stop-color="#0A75BC"/>
<stop offset="1" stop-color="#076CB3"/>
</linearGradient>
<linearGradient id="paint6_linear_14_9388" x1="31.7112" y1="193.083" x2="63.5033" y2="-25.4852" gradientUnits="userSpaceOnUse">
<stop stop-color="#32BDEF"/>
<stop offset="1" stop-color="#1EA2E4"/>
</linearGradient>
<linearGradient id="paint7_linear_14_9388" x1="43.7377" y1="68.1649" x2="52.3964" y2="59.5062" gradientUnits="userSpaceOnUse">
<stop offset="0.365" stop-color="#199AE0"/>
<stop offset="0.699" stop-color="#1898DE"/>
<stop offset="0.819" stop-color="#1691D8"/>
<stop offset="0.905" stop-color="#1186CC"/>
<stop offset="0.974" stop-color="#0A75BC"/>
<stop offset="1" stop-color="#076CB3"/>
</linearGradient>
<linearGradient id="paint8_linear_14_9388" x1="34.3106" y1="116.025" x2="60.212" y2="-62.0328" gradientUnits="userSpaceOnUse">
<stop stop-color="#32BDEF"/>
<stop offset="1" stop-color="#1EA2E4"/>
</linearGradient>
</defs>
</svg>
