<svg width="150" height="150" viewBox="0 0 150 150" fill="none" xmlns="http://www.w3.org/2000/svg">
<g id="communication">
<rect x="2.5" y="2.5" width="145" height="145" rx="7.5" fill="white"/>
<rect x="2.5" y="2.5" width="145" height="145" rx="7.5" fill="url(#paint0_linear_14_9398)" fill-opacity="0.2"/>
<g id="Group">
<path id="Vector" d="M124.565 121.546L115.896 101.824C118.539 96.9554 120.04 91.3753 120.04 85.4468C120.04 66.4641 104.651 51.0751 85.668 51.0751C66.6854 51.0751 51.2964 66.4641 51.2964 85.4468C51.2964 104.429 66.6854 119.818 85.668 119.818C91.862 119.818 97.6578 118.157 102.676 115.291L121.201 124.723C123.259 125.771 125.494 123.659 124.565 121.546Z" fill="url(#paint1_linear_14_9398)"/>
<path id="Vector_2" d="M69.0676 86.6318H106.995C107.649 86.6318 108.18 86.1008 108.18 85.4466V83.0761C108.18 82.4219 107.649 81.8909 106.995 81.8909H69.0676C68.4133 81.8909 67.8823 82.4219 67.8823 83.0761V85.4466C67.8823 86.1008 68.4133 86.6318 69.0676 86.6318Z" fill="url(#paint2_linear_14_9398)"/>
<path id="Vector_3" d="M69.0676 96.1136H99.8835C100.538 96.1136 101.069 95.5826 101.069 94.9284V92.5579C101.069 91.9037 100.538 91.3727 99.8835 91.3727H69.0676C68.4133 91.3727 67.8823 91.9037 67.8823 92.5579V94.9284C67.8823 95.5826 68.4133 96.1136 69.0676 96.1136Z" fill="url(#paint3_linear_14_9398)"/>
<path id="Vector_4" opacity="0.15" d="M51.2964 85.4468C51.2964 88.7251 51.7847 91.8826 52.6404 94.8859C55.6912 95.6587 58.8653 96.1138 62.1531 96.1138C83.6247 96.1138 101.033 78.6033 101.033 57.0013C101.033 56.2167 100.962 55.451 100.917 54.6782C96.3161 52.3931 91.1533 51.0751 85.668 51.0751C66.6854 51.0751 51.2964 66.4642 51.2964 85.4468Z" fill="url(#paint4_radial_14_9398)"/>
<path id="Vector_5" d="M61.9591 25C44.2849 25 29.9579 39.327 29.9579 57.0012C29.9579 61.8819 31.0815 66.4877 33.0371 70.6266C33.0063 70.6977 32.9684 70.7546 32.9423 70.8352L25.4351 87.9167C24.5058 90.0311 26.7412 92.1432 28.7987 91.0955L43.8962 83.4081C49.0377 86.9329 55.2531 89.0024 61.9591 89.0024C79.6332 89.0024 93.9603 74.6753 93.9603 57.0012C93.9603 39.327 79.6332 25 61.9591 25Z" fill="url(#paint5_linear_14_9398)"/>
<path id="Vector_6" d="M42.9974 53.4456H80.9247C81.5789 53.4456 82.1099 52.9146 82.1099 52.2603V49.8899C82.1099 49.2356 81.5789 48.7047 80.9247 48.7047H42.9974C42.3431 48.7047 41.8121 49.2356 41.8121 49.8899V52.2603C41.8121 52.9146 42.3431 53.4456 42.9974 53.4456Z" fill="url(#paint6_linear_14_9398)"/>
<path id="Vector_7" d="M42.9974 62.9271H73.8133C74.4676 62.9271 74.9986 62.3962 74.9986 61.7419V59.3714C74.9986 58.7172 74.4676 58.1862 73.8133 58.1862H42.9974C42.3431 58.1862 41.8121 58.7172 41.8121 59.3714V61.7419C41.8121 62.3962 42.3431 62.9271 42.9974 62.9271Z" fill="url(#paint7_linear_14_9398)"/>
</g>
<rect x="2.5" y="2.5" width="145" height="145" rx="7.5" stroke="#D5EAF6" stroke-width="5"/>
</g>
<defs>
<linearGradient id="paint0_linear_14_9398" x1="75" y1="5" x2="75" y2="145" gradientUnits="userSpaceOnUse">
<stop stop-color="#199AE0"/>
<stop offset="0.472222" stop-color="#0D5176" stop-opacity="0.527778"/>
<stop offset="0.940972" stop-color="#12A6F7" stop-opacity="0.465278"/>
<stop offset="1" stop-opacity="0"/>
</linearGradient>
<linearGradient id="paint1_linear_14_9398" x1="68.1361" y1="55.8777" x2="110.669" y2="127.612" gradientUnits="userSpaceOnUse">
<stop stop-color="#0176D0"/>
<stop offset="1" stop-color="#16538C"/>
</linearGradient>
<linearGradient id="paint2_linear_14_9398" x1="83.7146" y1="75.1209" x2="92.7508" y2="94.2576" gradientUnits="userSpaceOnUse">
<stop stop-color="#199AE0"/>
<stop offset="1" stop-color="#0782D8"/>
</linearGradient>
<linearGradient id="paint3_linear_14_9398" x1="80.7918" y1="85.942" x2="88.5029" y2="102.274" gradientUnits="userSpaceOnUse">
<stop stop-color="#199AE0"/>
<stop offset="1" stop-color="#0782D8"/>
</linearGradient>
<radialGradient id="paint4_radial_14_9398" cx="0" cy="0" r="1" gradientUnits="userSpaceOnUse" gradientTransform="translate(62.4138 57.5726) scale(38.1952 38.1952)">
<stop offset="0.627"/>
<stop offset="1" stop-opacity="0"/>
</radialGradient>
<linearGradient id="paint5_linear_14_9398" x1="41.8031" y1="31.9549" x2="69.7342" y2="91.1215" gradientUnits="userSpaceOnUse">
<stop stop-color="#0176D0"/>
<stop offset="1" stop-color="#22A5E2"/>
</linearGradient>
<linearGradient id="paint6_linear_14_9398" x1="57.6444" y1="41.9346" x2="66.6806" y2="61.0713" gradientUnits="userSpaceOnUse">
<stop stop-color="#199AE0"/>
<stop offset="1" stop-color="#0782D8"/>
</linearGradient>
<linearGradient id="paint7_linear_14_9398" x1="54.7217" y1="52.7555" x2="62.4328" y2="69.088" gradientUnits="userSpaceOnUse">
<stop stop-color="#199AE0"/>
<stop offset="1" stop-color="#0782D8"/>
</linearGradient>
</defs>
</svg>
