<svg width="150" height="150" viewBox="0 0 150 150" fill="none" xmlns="http://www.w3.org/2000/svg">
<g id="compress">
<rect x="2.5" y="2.5" width="145" height="145" rx="7.5" fill="white"/>
<rect x="2.5" y="2.5" width="145" height="145" rx="7.5" fill="url(#paint0_linear_14_9424)" fill-opacity="0.2"/>
<g id="Group">
<path id="Vector" d="M84.4697 69.4321L96.3942 57.5076L105.947 67.0599C106.822 67.9349 106.202 69.4321 104.966 69.4321H84.4697Z" fill="url(#paint1_linear_14_9424)"/>
<path id="Vector_2" d="M124.185 29.7477C125.271 30.8338 125.269 32.5921 124.185 33.6781L89.2063 68.6266C88.6786 69.1266 87.9842 69.4322 87.2342 69.4322H83.3177C81.79 69.4322 80.54 68.1822 80.54 66.6545V45.0165C80.54 43.7666 82.04 43.1555 82.9011 44.0166L90.5118 51.6274L116.325 25.8146C117.411 24.7285 119.169 24.7285 120.252 25.8146L124.185 29.7477Z" fill="url(#paint2_linear_14_9424)"/>
<path id="Vector_3" d="M69.4333 84.4705L57.5088 96.395L67.0612 105.947C67.9361 106.822 69.4333 106.203 69.4333 104.967V84.4705Z" fill="url(#paint3_linear_14_9424)"/>
<path id="Vector_4" d="M69.4331 83.3205V87.237C69.4331 87.987 69.1276 88.6814 68.6276 89.2091L33.6763 124.185C32.593 125.272 30.832 125.272 29.7459 124.185L25.8155 120.255C24.7295 119.169 24.7295 117.411 25.8155 116.327L51.6283 90.5146L44.0175 82.9039C43.1565 82.0428 43.7675 80.5428 45.0175 80.5428H66.6555C68.1832 80.5428 69.4331 81.7928 69.4331 83.3205Z" fill="url(#paint4_linear_14_9424)"/>
</g>
<rect x="2.5" y="2.5" width="145" height="145" rx="7.5" stroke="#D5EAF6" stroke-width="5"/>
</g>
<defs>
<linearGradient id="paint0_linear_14_9424" x1="75" y1="5" x2="75" y2="145" gradientUnits="userSpaceOnUse">
<stop stop-color="#199AE0"/>
<stop offset="0.472222" stop-color="#0D5176" stop-opacity="0.527778"/>
<stop offset="0.940972" stop-color="#12A6F7" stop-opacity="0.465278"/>
<stop offset="1" stop-opacity="0"/>
</linearGradient>
<linearGradient id="paint1_linear_14_9424" x1="100.738" y1="73.7736" x2="92.0842" y2="65.1197" gradientUnits="userSpaceOnUse">
<stop offset="0.365" stop-color="#199AE0"/>
<stop offset="0.699" stop-color="#1898DE"/>
<stop offset="0.819" stop-color="#1691D8"/>
<stop offset="0.905" stop-color="#1186CC"/>
<stop offset="0.974" stop-color="#0A75BC"/>
<stop offset="1" stop-color="#076CB3"/>
</linearGradient>
<linearGradient id="paint2_linear_14_9424" x1="86.8259" y1="148.023" x2="123.285" y2="-102.63" gradientUnits="userSpaceOnUse">
<stop stop-color="#32BDEF"/>
<stop offset="1" stop-color="#1EA2E4"/>
</linearGradient>
<linearGradient id="paint3_linear_14_9424" x1="73.7767" y1="100.737" x2="65.1229" y2="92.0831" gradientUnits="userSpaceOnUse">
<stop offset="0.365" stop-color="#199AE0"/>
<stop offset="0.699" stop-color="#1898DE"/>
<stop offset="0.819" stop-color="#1691D8"/>
<stop offset="0.905" stop-color="#1186CC"/>
<stop offset="0.974" stop-color="#0A75BC"/>
<stop offset="1" stop-color="#076CB3"/>
</linearGradient>
<linearGradient id="paint4_linear_14_9424" x1="32.6013" y1="203.246" x2="69.0776" y2="-47.5212" gradientUnits="userSpaceOnUse">
<stop stop-color="#32BDEF"/>
<stop offset="1" stop-color="#1EA2E4"/>
</linearGradient>
</defs>
</svg>
