<svg width="150" height="150" viewBox="0 0 150 150" fill="none" xmlns="http://www.w3.org/2000/svg">
<g id="company">
<rect x="2.5" y="2.5" width="145" height="145" rx="7.5" fill="white"/>
<rect x="2.5" y="2.5" width="145" height="145" rx="7.5" fill="url(#paint0_linear_14_9407)" fill-opacity="0.2"/>
<g id="Group">
<path id="Vector" d="M102.638 51.3158H118.427C121.335 51.3158 123.69 53.6711 123.69 56.579V125H102.638V51.3158Z" fill="url(#paint1_linear_14_9407)"/>
<path id="Vector_2" d="M102.638 114.474H113.164V103.947H102.638V114.474ZM102.638 72.3685H113.164V61.8422H102.638V72.3685ZM102.638 93.4211H113.164V82.8948H102.638V93.4211Z" fill="url(#paint2_linear_14_9407)"/>
<path id="Vector_3" d="M102.627 93.4211H28.9424V125H102.627V93.4211Z" fill="#0078D4"/>
<path id="Vector_4" d="M39.4736 35.5263H92.1052V30.2632C92.1052 27.3579 89.7473 25 86.8421 25H44.7368C41.8315 25 39.4736 27.3579 39.4736 30.2632V35.5263Z" fill="#199BE2"/>
<path id="Vector_5" d="M28.9424 40.7894V93.421H102.627V40.7894H28.9424Z" fill="#199BE2"/>
<path id="Vector_6" d="M50 103.947H39.4736V114.474H50V103.947Z" fill="#005094"/>
<path id="Vector_7" d="M92.1015 103.947H81.5752V114.474H92.1015V103.947Z" fill="#005094"/>
<path id="Vector_8" d="M73.6694 103.947H57.8799V125H73.6694V103.947Z" fill="#005094"/>
<path id="Vector_9" d="M50 72.3683H39.4736V82.8946H50V72.3683Z" fill="#0D62AB"/>
<path id="Vector_10" d="M71.0468 72.3683H60.5205V82.8946H71.0468V72.3683Z" fill="#0D62AB"/>
<path id="Vector_11" d="M92.1015 72.3683H81.5752V82.8946H92.1015V72.3683Z" fill="#0D62AB"/>
<path id="Vector_12" d="M50 51.3158H39.4736V61.8421H50V51.3158Z" fill="#0D62AB"/>
<path id="Vector_13" d="M71.0468 51.3158H60.5205V61.8421H71.0468V51.3158Z" fill="#0D62AB"/>
<path id="Vector_14" d="M92.1015 51.3158H81.5752V61.8421H92.1015V51.3158Z" fill="#0D62AB"/>
<path id="Vector_15" d="M102.625 40.7895H28.9411C27.4859 40.7895 26.3096 39.6132 26.3096 38.1579C26.3096 36.7027 27.4859 35.5264 28.9411 35.5264H102.625C104.081 35.5264 105.257 36.7027 105.257 38.1579C105.257 39.6132 104.081 40.7895 102.625 40.7895Z" fill="#35C1F1"/>
</g>
<rect x="2.5" y="2.5" width="145" height="145" rx="7.5" stroke="#D5EAF6" stroke-width="5"/>
</g>
<defs>
<linearGradient id="paint0_linear_14_9407" x1="75" y1="5" x2="75" y2="145" gradientUnits="userSpaceOnUse">
<stop stop-color="#199AE0"/>
<stop offset="0.472222" stop-color="#0D5176" stop-opacity="0.527778"/>
<stop offset="0.940972" stop-color="#12A6F7" stop-opacity="0.465278"/>
<stop offset="1" stop-opacity="0"/>
</linearGradient>
<linearGradient id="paint1_linear_14_9407" x1="123.453" y1="88.1579" x2="102.567" y2="88.1579" gradientUnits="userSpaceOnUse">
<stop stop-color="#0D61A9"/>
<stop offset="0.482" stop-color="#0D60A7"/>
<stop offset="0.711" stop-color="#0F5C9F"/>
<stop offset="0.886" stop-color="#125592"/>
<stop offset="1" stop-color="#154E85"/>
</linearGradient>
<linearGradient id="paint2_linear_14_9407" x1="112.717" y1="88.158" x2="102.535" y2="88.158" gradientUnits="userSpaceOnUse">
<stop offset="0.365" stop-color="#32BDEF"/>
<stop offset="0.49" stop-color="#2FB7E9"/>
<stop offset="0.66" stop-color="#26A5D7"/>
<stop offset="0.854" stop-color="#1789BB"/>
<stop offset="1" stop-color="#096FA1"/>
</linearGradient>
</defs>
</svg>
