<svg width="150" height="150" viewBox="0 0 150 150" fill="none" xmlns="http://www.w3.org/2000/svg">
<g id="contact-us">
<rect x="2.5" y="2.5" width="145" height="145" rx="7.5" fill="white"/>
<rect x="2.5" y="2.5" width="145" height="145" rx="7.5" fill="url(#paint0_linear_14_9446)" fill-opacity="0.2"/>
<g id="Group">
<path id="Vector" d="M103.059 88.4147H34.7666V117.683H103.059V88.4147Z" fill="#0078D4"/>
<path id="Vector_2" d="M44.5166 34.7561H93.2971V29.878C93.2971 27.1854 91.1117 25 88.419 25H49.3946C46.702 25 44.5166 27.1854 44.5166 29.878V34.7561Z" fill="#199BE2"/>
<path id="Vector_3" d="M34.7666 39.6343V88.4147H103.059V39.6343H34.7666Z" fill="#199BE2"/>
<path id="Vector_4" d="M93.2883 98.1707H83.5322V107.927H93.2883V98.1707Z" fill="#005094"/>
<path id="Vector_5" d="M78.6601 98.1707H61.5869V117.683H78.6601V98.1707Z" fill="#005094"/>
<path id="Vector_6" d="M93.2883 68.9025H83.5322V78.6586H93.2883V68.9025Z" fill="#0D62AB"/>
<path id="Vector_7" d="M73.7883 68.9025H64.0322V78.6586H73.7883V68.9025Z" fill="#0D62AB"/>
<path id="Vector_8" d="M54.2727 49.3903H44.5166V59.1464H54.2727V49.3903Z" fill="#0D62AB"/>
<path id="Vector_9" d="M54.2727 68.9025H44.5166V78.6586H54.2727V68.9025Z" fill="#0D62AB"/>
<path id="Vector_10" d="M54.2727 98.1707H44.5166V107.927H54.2727V98.1707Z" fill="#005094"/>
<path id="Vector_11" d="M73.7883 49.3903H64.0322V59.1464H73.7883V49.3903Z" fill="#0D62AB"/>
<path id="Vector_12" d="M93.2883 49.3903H83.5322V59.1464H93.2883V49.3903Z" fill="#0D62AB"/>
<path id="Vector_13" d="M103.053 39.6343H34.7603C33.4115 39.6343 32.3213 38.5416 32.3213 37.1952C32.3213 35.8489 33.4115 34.7562 34.7603 34.7562H103.053C104.402 34.7562 105.492 35.8489 105.492 37.1952C105.492 38.5416 104.402 39.6343 103.053 39.6343Z" fill="#35C1F1"/>
<path id="Vector_14" d="M117.679 120.122V85.9756C117.679 83.2805 115.496 81.0975 112.801 81.0975H88.4103C85.7152 81.0975 83.5322 83.2805 83.5322 85.9756V120.122C83.5322 122.817 85.7152 125 88.4103 125H112.801C115.496 125 117.679 122.817 117.679 120.122Z" fill="#37C6D0"/>
<path id="Vector_15" opacity="0.05" d="M100.616 100.61C95.236 100.61 90.8604 104.985 90.8604 110.366V112.805C90.8604 115.495 93.0482 117.683 95.7384 117.683H105.494C108.185 117.683 110.373 115.495 110.373 112.805V110.366C110.373 104.985 105.997 100.61 100.616 100.61Z" fill="black"/>
<path id="Vector_16" opacity="0.07" d="M100.616 101.829C95.9084 101.829 92.0791 105.658 92.0791 110.366V112.805C92.0791 114.822 93.7206 116.463 95.7376 116.463H105.494C107.511 116.463 109.152 114.822 109.152 112.805V110.366C109.152 105.658 105.323 101.829 100.616 101.829Z" fill="black"/>
<path id="Vector_17" d="M100.615 103.049C104.656 103.049 107.932 99.7728 107.932 95.7317C107.932 91.6906 104.656 88.4147 100.615 88.4147C96.5738 88.4147 93.2979 91.6906 93.2979 95.7317C93.2979 99.7728 96.5738 103.049 100.615 103.049Z" fill="url(#paint1_radial_14_9446)"/>
<path id="Vector_18" d="M100.615 103.049C96.5735 103.049 93.2979 106.324 93.2979 110.366V112.805C93.2979 114.151 94.3905 115.244 95.7369 115.244H105.493C106.839 115.244 107.932 114.151 107.932 112.805V110.366C107.932 106.324 104.656 103.049 100.615 103.049Z" fill="white"/>
<path id="Vector_19" d="M100.606 100.61C103.3 100.61 105.484 98.4258 105.484 95.7317C105.484 93.0376 103.3 90.8536 100.606 90.8536C97.9115 90.8536 95.7275 93.0376 95.7275 95.7317C95.7275 98.4258 97.9115 100.61 100.606 100.61Z" fill="white"/>
</g>
<rect x="2.5" y="2.5" width="145" height="145" rx="7.5" stroke="#D5EAF6" stroke-width="5"/>
</g>
<defs>
<linearGradient id="paint0_linear_14_9446" x1="75" y1="5" x2="75" y2="145" gradientUnits="userSpaceOnUse">
<stop stop-color="#199AE0"/>
<stop offset="0.472222" stop-color="#0D5176" stop-opacity="0.527778"/>
<stop offset="0.940972" stop-color="#12A6F7" stop-opacity="0.465278"/>
<stop offset="1" stop-opacity="0"/>
</linearGradient>
<radialGradient id="paint1_radial_14_9446" cx="0" cy="0" r="1" gradientUnits="userSpaceOnUse" gradientTransform="translate(100.611 95.729) scale(7.31678)">
<stop/>
<stop offset="1" stop-opacity="0"/>
</radialGradient>
</defs>
</svg>
