<svg width="150" height="150" viewBox="0 0 150 150" fill="none" xmlns="http://www.w3.org/2000/svg">
<g id="copy-to-folder">
<rect x="2.5" y="2.5" width="145" height="145" rx="7.5" fill="white"/>
<rect x="2.5" y="2.5" width="145" height="145" rx="7.5" fill="url(#paint0_linear_14_9484)" fill-opacity="0.2"/>
<g id="Group">
<path id="Vector" d="M71.3979 36.1674L65.6341 30.4036C64.3568 29.1263 62.6227 28.4081 60.8136 28.4081H29.547C27.0356 28.4081 25.0015 30.4423 25.0015 32.9537V47.7267L29.547 96.5914C29.547 99.1028 31.5811 101.137 34.0926 101.137H106.821C109.333 101.137 111.367 99.1028 111.367 96.5914V44.3176C111.367 41.8061 109.333 39.772 106.821 39.772L74.6116 37.4992C73.407 37.4992 72.2502 37.0197 71.3979 36.1674Z" fill="url(#paint1_linear_14_9484)"/>
<path id="Vector_2" d="M64.9705 45.2585L72.3979 37.8311C72.6093 37.6197 72.8979 37.4992 73.2002 37.4992H111.367C113.878 37.4992 115.912 39.5334 115.912 42.0448V101.137C115.912 103.648 113.878 105.682 111.367 105.682H29.547C27.0356 105.682 25.0015 103.648 25.0015 101.137V47.7267C25.0015 47.0994 25.5106 46.5903 26.1379 46.5903H61.7568C62.9613 46.5903 64.1182 46.1108 64.9705 45.2585Z" fill="url(#paint2_linear_14_9484)"/>
<path id="Vector_3" opacity="0.05" d="M118.185 75.2046V105.682H81.821V82.9547C81.821 79.2047 84.8893 76.1364 88.6394 76.1364C88.6394 72.3863 91.7076 69.3181 95.4577 69.3181H112.299L118.185 75.2046Z" fill="black"/>
<path id="Vector_4" opacity="0.07" d="M118.182 76.7954V105.682H82.9539V82.9546C82.9539 79.8181 85.4994 77.2726 88.6358 77.2726H89.7722V76.1362C89.7722 72.9998 92.3177 70.4543 95.4541 70.4543H111.841L118.182 76.7954Z" fill="black"/>
<path id="Vector_5" d="M113.641 121.592H88.64C86.1286 121.592 84.0945 119.558 84.0945 117.046V82.9547C84.0945 80.4433 86.1286 78.4092 88.64 78.4092H104.549C106.822 82.9547 113.641 89.773 118.186 92.0458V117.046C118.186 119.558 116.152 121.592 113.641 121.592Z" fill="#199BE2"/>
<path id="Vector_6" d="M120.453 114.773H95.4525C92.9411 114.773 90.907 112.739 90.907 110.228V76.1363C90.907 73.6249 92.9411 71.5908 95.4525 71.5908H111.362C113.635 76.1363 120.453 82.9546 124.999 85.2274V110.228C124.999 112.739 122.964 114.773 120.453 114.773Z" fill="#50E6FF"/>
<path id="Vector_7" d="M111.36 71.5908V80.6819C111.36 83.1933 113.394 85.2274 115.905 85.2274H124.997L111.36 71.5908Z" fill="url(#paint3_linear_14_9484)"/>
</g>
<rect x="2.5" y="2.5" width="145" height="145" rx="7.5" stroke="#D5EAF6" stroke-width="5"/>
</g>
<defs>
<linearGradient id="paint0_linear_14_9484" x1="75" y1="5" x2="75" y2="145" gradientUnits="userSpaceOnUse">
<stop stop-color="#199AE0"/>
<stop offset="0.472222" stop-color="#0D5176" stop-opacity="0.527778"/>
<stop offset="0.940972" stop-color="#12A6F7" stop-opacity="0.465278"/>
<stop offset="1" stop-opacity="0"/>
</linearGradient>
<linearGradient id="paint1_linear_14_9484" x1="68.1842" y1="27.7831" x2="68.1842" y2="45.4721" gradientUnits="userSpaceOnUse">
<stop stop-color="#EBA600"/>
<stop offset="1" stop-color="#C28200"/>
</linearGradient>
<linearGradient id="paint2_linear_14_9484" x1="70.4569" y1="37.1674" x2="70.4569" y2="105.644" gradientUnits="userSpaceOnUse">
<stop stop-color="#FFD869"/>
<stop offset="1" stop-color="#FEC52B"/>
</linearGradient>
<linearGradient id="paint3_linear_14_9484" x1="112.626" y1="83.9592" x2="118.29" y2="78.2977" gradientUnits="userSpaceOnUse">
<stop stop-color="#3079D6"/>
<stop offset="1" stop-color="#297CD2"/>
</linearGradient>
</defs>
</svg>
