<svg width="151" height="150" viewBox="0 0 151 150" fill="none" xmlns="http://www.w3.org/2000/svg">
<g id="create">
<rect x="2.58252" y="2.5" width="145" height="145" rx="7.5" fill="white"/>
<rect x="2.58252" y="2.5" width="145" height="145" rx="7.5" fill="url(#paint0_linear_14_9495)" fill-opacity="0.2"/>
<g id="Group">
<path id="Vector" d="M106.031 39.2886H29.8458C27.215 39.2886 25.0842 41.4194 25.0842 44.0501V120.235C25.0842 122.866 27.215 124.997 29.8458 124.997H106.031C108.661 124.997 110.792 122.866 110.792 120.235V44.0501C110.792 41.4194 108.661 39.2886 106.031 39.2886Z" fill="url(#paint1_linear_14_9495)"/>
<path id="Vector_2" opacity="0.05" d="M110.793 44.0501C110.793 41.4194 108.663 39.2886 106.032 39.2886H96.7706L55.5879 80.4808C55.2641 80.8046 55.0331 81.2117 54.9212 81.6569L50.8977 97.6248C50.6597 98.5652 51.5144 99.4199 52.4548 99.1818L68.425 95.1631C68.8702 95.0512 69.2773 94.8202 69.6035 94.4941L110.793 53.2971V44.0501Z" fill="black"/>
<path id="Vector_3" opacity="0.07" d="M110.785 44.0501C110.785 41.4194 108.655 39.2886 106.024 39.2886H98.4458L56.5656 81.1784C56.2989 81.445 56.1085 81.7783 56.018 82.145L52.4373 96.3582C52.2421 97.132 52.9444 97.8319 53.7158 97.6367L67.929 94.0584C68.2957 93.9655 68.629 93.7774 68.8956 93.5108L110.785 51.6139V44.0501Z" fill="black"/>
<path id="Vector_4" d="M124.297 32.6487L117.435 25.7873C116.393 24.7422 114.693 24.7422 113.648 25.7873L110.419 29.0204L121.066 39.6673L124.299 36.4389C125.342 35.3914 125.342 33.6963 124.297 32.6487Z" fill="#C94F60"/>
<path id="Vector_5" d="M57.235 82.1998L53.6543 96.4273L67.8842 92.8442L69.377 80.4999L57.235 82.1998Z" fill="#F0F0F0"/>
<path id="Vector_6" d="M111.981 48.7451L67.8871 92.8419L57.2402 82.195L101.335 38.0983L111.981 48.7451Z" fill="#EDBE00"/>
<path id="Vector_7" d="M101.318 38.1008L110.398 29.0157L121.052 39.6626L111.972 48.7476L101.318 38.1008Z" fill="url(#paint2_linear_14_9495)"/>
<path id="Vector_8" d="M55.4684 89.2327L53.6543 96.4274L60.8466 94.6133L55.4684 89.2327Z" fill="#575757"/>
</g>
<rect x="2.58252" y="2.5" width="145" height="145" rx="7.5" stroke="#D5EAF6" stroke-width="5"/>
</g>
<defs>
<linearGradient id="paint0_linear_14_9495" x1="75.0825" y1="5" x2="75.0825" y2="145" gradientUnits="userSpaceOnUse">
<stop stop-color="#199AE0"/>
<stop offset="0.472222" stop-color="#0D5176" stop-opacity="0.527778"/>
<stop offset="0.940972" stop-color="#12A6F7" stop-opacity="0.465278"/>
<stop offset="1" stop-opacity="0"/>
</linearGradient>
<linearGradient id="paint1_linear_14_9495" x1="25.0842" y1="82.1426" x2="110.792" y2="82.1426" gradientUnits="userSpaceOnUse">
<stop stop-color="#0176D0"/>
<stop offset="1" stop-color="#0A85D9"/>
</linearGradient>
<linearGradient id="paint2_linear_14_9495" x1="111.186" y1="29.6895" x2="111.186" y2="49.2904" gradientUnits="userSpaceOnUse">
<stop stop-color="#DEDEDE"/>
<stop offset="1" stop-color="#D6D6D6"/>
</linearGradient>
</defs>
</svg>
