<svg width="151" height="150" viewBox="0 0 151 150" fill="none" xmlns="http://www.w3.org/2000/svg">
<g id="credit-card-cash-withdrawal">
<rect x="2.58252" y="2.5" width="145" height="145" rx="7.5" fill="white"/>
<rect x="2.58252" y="2.5" width="145" height="145" rx="7.5" fill="url(#paint0_linear_14_9505)" fill-opacity="0.2"/>
<g id="Group">
<path id="Vector" d="M114.488 32.6068H31.3325C27.8802 32.6068 25.0823 35.4047 25.0823 38.8571V91.5768C25.0823 95.0291 27.8802 97.827 31.3325 97.827H114.488C117.941 97.827 120.739 95.0291 120.739 91.5768V38.8571C120.739 35.4047 117.941 32.6068 114.488 32.6068Z" fill="url(#paint1_linear_14_9505)"/>
<path id="Vector_2" d="M44.65 65.2168C44.65 66.4168 43.6761 67.3908 42.476 67.3908H33.78C32.5799 67.3908 31.606 66.4168 31.606 65.2168C31.606 64.0167 32.5799 63.0428 33.78 63.0428H42.476C43.6761 63.0428 44.65 64.0167 44.65 65.2168Z" fill="url(#paint2_linear_14_9505)"/>
<path id="Vector_3" d="M62.0414 65.2168C62.0414 66.4168 61.0674 67.3908 59.8674 67.3908H51.1713C49.9713 67.3908 48.9973 66.4168 48.9973 65.2168C48.9973 64.0167 49.9713 63.0428 51.1713 63.0428H59.8674C61.0674 63.0428 62.0414 64.0167 62.0414 65.2168Z" fill="url(#paint3_linear_14_9505)"/>
<path id="Vector_4" d="M79.4405 65.2168C79.4405 66.4168 78.4666 67.3908 77.2665 67.3908H68.5705C67.3704 67.3908 66.3965 66.4168 66.3965 65.2168C66.3965 64.0167 67.3704 63.0428 68.5705 63.0428H77.2665C78.4666 63.0428 79.4405 64.0167 79.4405 65.2168Z" fill="url(#paint4_linear_14_9505)"/>
<path id="Vector_5" d="M96.8241 65.2168C96.8241 66.4168 95.8501 67.3908 94.6501 67.3908H85.954C84.754 67.3908 83.78 66.4168 83.78 65.2168C83.78 64.0167 84.754 63.0428 85.954 63.0428H94.6501C95.8501 63.0428 96.8241 64.0167 96.8241 65.2168Z" fill="url(#paint5_linear_14_9505)"/>
<path id="Vector_6" d="M114.215 65.2168C114.215 66.4168 113.241 67.3908 112.041 67.3908H103.345C102.145 67.3908 101.171 66.4168 101.171 65.2168C101.171 64.0167 102.145 63.0428 103.345 63.0428H112.041C113.241 63.0428 114.215 64.0167 114.215 65.2168Z" fill="url(#paint6_linear_14_9505)"/>
<path id="Vector_7" d="M99.0299 56.5209H112.017C113.233 56.5209 114.22 55.5339 114.22 54.3186V43.5051C114.22 42.2898 113.233 41.3028 112.017 41.3028H99.0299C97.8146 41.3028 96.8276 42.2898 96.8276 43.5051V54.3186C96.8276 55.5339 97.8146 56.5209 99.0299 56.5209Z" fill="#BBD2DE"/>
<path id="Vector_8" d="M50.085 80.435H32.693C32.0929 80.435 31.606 79.948 31.606 79.348V77.1739C31.606 76.5739 32.0929 76.0869 32.693 76.0869H50.085C50.6851 76.0869 51.172 76.5739 51.172 77.1739V79.348C51.172 79.948 50.6851 80.435 50.085 80.435Z" fill="#0078D4"/>
<path id="Vector_9" d="M74.0001 80.435H56.608C56.008 80.435 55.521 79.948 55.521 79.348V77.1739C55.521 76.5739 56.008 76.0869 56.608 76.0869H74.0001C74.6001 76.0869 75.0871 76.5739 75.0871 77.1739V79.348C75.0871 79.948 74.6001 80.435 74.0001 80.435Z" fill="#0078D4"/>
<path id="Vector_10" d="M63.1291 89.1311H32.693C32.0929 89.1311 31.606 88.6442 31.606 88.0441V85.8701C31.606 85.2701 32.0929 84.7831 32.693 84.7831H63.1291C63.7291 84.7831 64.2161 85.2701 64.2161 85.8701V88.0441C64.2161 88.6442 63.7291 89.1311 63.1291 89.1311Z" fill="#0078D4"/>
<path id="Vector_11" opacity="0.05" d="M77.2682 80.4349C74.8703 80.4349 72.9202 82.385 72.9202 84.7829V97.827H114.498C117.95 97.827 120.748 95.029 120.748 91.5767V80.4349H77.2682Z" fill="black"/>
<path id="Vector_12" opacity="0.07" d="M77.2595 81.522C75.4616 81.522 73.9985 82.9851 73.9985 84.783V97.827H114.489C117.942 97.827 120.74 95.0291 120.74 91.5768V81.522H77.2595Z" fill="black"/>
<path id="Vector_13" d="M79.4325 117.393H77.2585C76.0584 117.393 75.0845 116.419 75.0845 115.219V110.734H79.4325V117.393Z" fill="#52BF8D"/>
<path id="Vector_14" d="M120.75 82.6089H79.4441V108.697H120.75V82.6089Z" fill="#33C481"/>
<path id="Vector_15" d="M79.4325 113.045H77.2585C76.0584 113.045 75.0845 112.071 75.0845 110.871V106.073H79.4325V113.045Z" fill="#59D19A"/>
<path id="Vector_16" d="M79.4325 108.697H77.2585C76.0584 108.697 75.0845 107.723 75.0845 106.523V84.783C75.0845 83.5829 76.0584 82.6089 77.2585 82.6089H79.4325V108.697Z" fill="#61E3A7"/>
<path id="Vector_17" d="M120.75 108.697H79.4441V113.045H120.75V108.697Z" fill="#21A366"/>
<path id="Vector_18" d="M120.75 113.045H79.4441V117.393H120.75V113.045Z" fill="#107C42"/>
<path id="Vector_19" d="M92.4761 104.349C97.2787 104.349 101.172 100.456 101.172 95.6531C101.172 90.8504 97.2787 86.957 92.4761 86.957C87.6734 86.957 83.78 90.8504 83.78 95.6531C83.78 100.456 87.6734 104.349 92.4761 104.349Z" fill="#61E3A7"/>
<path id="Vector_20" d="M105.518 104.349C106.718 104.349 107.692 103.376 107.692 102.175C107.692 100.974 106.718 100.001 105.518 100.001C104.317 100.001 103.344 100.974 103.344 102.175C103.344 103.376 104.317 104.349 105.518 104.349Z" fill="#61E3A7"/>
<path id="Vector_21" d="M114.213 104.349C115.414 104.349 116.387 103.376 116.387 102.175C116.387 100.974 115.414 100.001 114.213 100.001C113.012 100.001 112.039 100.974 112.039 102.175C112.039 103.376 113.012 104.349 114.213 104.349Z" fill="#61E3A7"/>
<path id="Vector_22" d="M122.909 117.393H120.735V110.734H125.083V115.219C125.083 116.419 124.109 117.393 122.909 117.393Z" fill="#52BF8D"/>
<path id="Vector_23" d="M122.909 113.045H120.735V106.073H125.083V110.871C125.083 112.071 124.109 113.045 122.909 113.045Z" fill="#59D19A"/>
<path id="Vector_24" d="M122.909 108.697H120.735V82.6089H122.909C124.109 82.6089 125.083 83.5829 125.083 84.783V106.523C125.083 107.723 124.109 108.697 122.909 108.697Z" fill="#61E3A7"/>
</g>
<rect x="2.58252" y="2.5" width="145" height="145" rx="7.5" stroke="#D5EAF6" stroke-width="5"/>
</g>
<defs>
<linearGradient id="paint0_linear_14_9505" x1="75.0825" y1="5" x2="75.0825" y2="145" gradientUnits="userSpaceOnUse">
<stop stop-color="#199AE0"/>
<stop offset="0.472222" stop-color="#0D5176" stop-opacity="0.527778"/>
<stop offset="0.940972" stop-color="#12A6F7" stop-opacity="0.465278"/>
<stop offset="1" stop-opacity="0"/>
</linearGradient>
<linearGradient id="paint1_linear_14_9505" x1="65.0297" y1="37.0874" x2="83.2327" y2="102.058" gradientUnits="userSpaceOnUse">
<stop stop-color="#32BDEF"/>
<stop offset="1" stop-color="#1EA2E4"/>
</linearGradient>
<linearGradient id="paint2_linear_14_9505" x1="32.2886" y1="67.6278" x2="42.3477" y2="63.4754" gradientUnits="userSpaceOnUse">
<stop stop-color="#5BC8EF"/>
<stop offset="1" stop-color="#42BEFC"/>
</linearGradient>
<linearGradient id="paint3_linear_14_9505" x1="49.68" y1="67.6278" x2="59.7391" y2="63.4754" gradientUnits="userSpaceOnUse">
<stop stop-color="#5BC8EF"/>
<stop offset="1" stop-color="#42BEFC"/>
</linearGradient>
<linearGradient id="paint4_linear_14_9505" x1="67.0791" y1="67.6278" x2="77.1383" y2="63.4754" gradientUnits="userSpaceOnUse">
<stop stop-color="#5BC8EF"/>
<stop offset="1" stop-color="#42BEFC"/>
</linearGradient>
<linearGradient id="paint5_linear_14_9505" x1="84.4627" y1="67.6278" x2="94.5218" y2="63.4754" gradientUnits="userSpaceOnUse">
<stop stop-color="#5BC8EF"/>
<stop offset="1" stop-color="#42BEFC"/>
</linearGradient>
<linearGradient id="paint6_linear_14_9505" x1="101.854" y1="67.6278" x2="111.913" y2="63.4754" gradientUnits="userSpaceOnUse">
<stop stop-color="#5BC8EF"/>
<stop offset="1" stop-color="#42BEFC"/>
</linearGradient>
</defs>
</svg>
