<svg width="151" height="150" viewBox="0 0 151 150" fill="none" xmlns="http://www.w3.org/2000/svg">
<g id="dashboard-layout">
<rect x="2.58252" y="2.5" width="145" height="145" rx="7.5" fill="white"/>
<rect x="2.58252" y="2.5" width="145" height="145" rx="7.5" fill="url(#paint0_linear_14_9557)" fill-opacity="0.2"/>
<g id="Group">
<path id="Vector" d="M63.972 86.111H30.639C27.5696 86.111 25.0835 83.6249 25.0835 80.5555V30.556C25.0835 27.4866 27.5696 25.0005 30.639 25.0005H63.972C67.0414 25.0005 69.5275 27.4866 69.5275 30.556V80.5555C69.5275 83.6249 67.0414 86.111 63.972 86.111Z" fill="#0078D4"/>
<path id="Vector_2" d="M119.526 52.778H86.1932C83.1238 52.778 80.6377 50.2919 80.6377 47.2225V30.556C80.6377 27.4866 83.1238 25.0005 86.1932 25.0005H119.526C122.596 25.0005 125.082 27.4866 125.082 30.556V47.2225C125.082 50.2919 122.596 52.778 119.526 52.778Z" fill="#35C1F1"/>
<path id="Vector_3" d="M63.972 124.999H30.639C27.5696 124.999 25.0835 122.513 25.0835 119.444V102.778C25.0835 99.7081 27.5696 97.222 30.639 97.222H63.972C67.0414 97.222 69.5275 99.7081 69.5275 102.778V119.444C69.5275 122.513 67.0414 124.999 63.972 124.999Z" fill="#35C1F1"/>
<path id="Vector_4" d="M119.526 124.999H86.1932C83.1238 124.999 80.6377 122.513 80.6377 119.444V69.4444C80.6377 66.375 83.1238 63.8889 86.1932 63.8889H119.526C122.596 63.8889 125.082 66.375 125.082 69.4444V119.444C125.082 122.513 122.596 124.999 119.526 124.999Z" fill="#0078D4"/>
</g>
<rect x="2.58252" y="2.5" width="145" height="145" rx="7.5" stroke="#D5EAF6" stroke-width="5"/>
</g>
<defs>
<linearGradient id="paint0_linear_14_9557" x1="75.0825" y1="5" x2="75.0825" y2="145" gradientUnits="userSpaceOnUse">
<stop stop-color="#199AE0"/>
<stop offset="0.472222" stop-color="#0D5176" stop-opacity="0.527778"/>
<stop offset="0.940972" stop-color="#12A6F7" stop-opacity="0.465278"/>
<stop offset="1" stop-opacity="0"/>
</linearGradient>
</defs>
</svg>
