<svg width="151" height="150" viewBox="0 0 151 150" fill="none" xmlns="http://www.w3.org/2000/svg">
<g id="decision">
<rect x="2.58252" y="2.5" width="145" height="145" rx="7.5" fill="white"/>
<rect x="2.58252" y="2.5" width="145" height="145" rx="7.5" fill="url(#paint0_linear_14_9599)" fill-opacity="0.2"/>
<g id="Group">
<path id="Vector" d="M112.579 72.5H110.081V95H113.414C115.851 95 117.934 93.2425 118.344 90.84L119.976 81.26C120.754 76.68 117.224 72.5 112.579 72.5Z" fill="url(#paint1_linear_14_9599)"/>
<path id="Vector_2" d="M37.5863 72.5H40.0838V95H36.7513C34.3138 95 32.2313 93.2425 31.8213 90.84L30.1888 81.26C29.4113 76.68 32.9413 72.5 37.5863 72.5Z" fill="url(#paint2_linear_14_9599)"/>
<path id="Vector_3" d="M75.0811 25C56.5761 25 37.5811 32.5 37.5811 67.5C37.5811 70.7025 37.5811 89.8 37.5811 93.22C37.5811 107.5 60.0811 125 75.0811 125C90.081 125 112.581 107.5 112.581 93.22C112.581 89.8 112.581 70.7025 112.581 67.5C112.581 32.5 93.586 25 75.0811 25Z" fill="url(#paint3_radial_14_9599)"/>
<path id="Vector_4" opacity="0.05" d="M84.2723 98.5299C84.2723 103.337 80.6773 106.697 75.5248 106.697C71.2348 106.697 66.6748 103.835 66.6748 98.5299C66.6748 93.2699 71.2348 90.4299 75.5248 90.4299C79.8723 90.4299 84.2723 93.2124 84.2723 98.5299Z" fill="black"/>
<path id="Vector_5" opacity="0.05" d="M75.8648 45C69.4398 45 64.2698 47.21 61.7398 48.54C60.6873 49.0925 60.0498 50.19 60.0498 51.3775V64.1575C60.0498 65.3975 61.5173 66.0325 62.4298 65.19C64.9398 62.87 69.2648 59.7975 74.5573 59.7975C75.8298 59.7975 77.9648 60.1725 77.9648 62.6825C77.9648 65.155 76.4773 66.575 73.8523 68.87C70.7023 71.6225 66.7823 75.05 66.7823 82.02C66.7823 84.185 67.1898 85.9625 67.5898 87.1825C67.9523 88.285 69.0048 89.0075 70.1673 89.0075C70.1673 89.0075 78.7548 88.9925 79.9848 88.9925C82.8798 88.9925 82.6173 86.8675 82.2323 85.815C81.9848 85.135 81.5048 84.085 81.5048 83.105C81.5048 80.7125 83.1873 79.17 86.1623 76.6475C90.0023 73.3925 94.7823 69.34 94.7823 61.035C94.7873 50.995 87.7148 45 75.8648 45Z" fill="black"/>
<path id="Vector_6" opacity="0.07" d="M75.5092 91.6798C79.1617 91.6798 83.0067 93.8998 83.0067 98.5298C83.0067 102.905 79.6292 105.447 75.5092 105.447C71.8217 105.447 67.9092 103.052 67.9092 98.5298C67.9092 94.0298 71.8842 91.6798 75.5092 91.6798Z" fill="black"/>
<path id="Vector_7" opacity="0.07" d="M62.5548 49.5074C64.9298 48.2374 69.5823 46.2499 75.8698 46.2499C89.8998 46.2499 93.5398 54.8199 93.5398 61.0399C93.5398 68.6549 89.2273 72.4174 85.5298 75.5549C83.0698 77.6399 81.4623 79.2174 80.7573 81.2999C79.9798 83.5974 81.1198 85.3299 81.1473 85.4149C81.4673 86.3399 81.1948 87.7549 79.1073 87.7549C77.3673 87.7574 71.3148 87.7599 71.3148 87.7599C70.7348 87.7599 69.0148 87.3999 68.8323 86.8474C68.5273 85.9749 68.0748 84.2324 68.0423 82.3374C68.0373 82.1274 68.0398 81.9149 68.0423 81.7049C68.1773 74.9574 72.3623 71.9449 75.5373 69.0374C77.7648 67.0149 79.2173 65.3549 79.2173 62.6824C79.2173 60.3424 77.6873 59.5174 76.4948 59.1174C74.9923 58.6124 73.3648 58.6999 72.4398 58.8699C69.0873 59.4924 66.2248 60.9774 64.2173 62.4574C63.2598 63.1624 62.1023 63.1499 61.7598 62.7949C61.5698 62.9424 61.2998 61.9474 61.2998 61.7049V52.0349C61.2998 51.8324 61.3523 51.2099 61.4073 51.0249C61.5948 50.3999 61.9548 49.8274 62.5548 49.5074Z" fill="black"/>
<path id="Vector_8" d="M70.062 86.5125C69.812 85.865 69.277 83.9325 69.277 82.025C69.277 71.1625 80.4595 70.745 80.4595 62.6875C80.4595 57.615 75.447 57.3025 74.5495 57.3025C68.857 57.3025 64.412 60.5575 62.542 62.2025V50.945C64.462 49.795 68.857 47.5 75.8595 47.5C92.0745 47.5 92.2795 58.645 92.2795 61.04C92.2795 73.905 79.002 74.86 79.002 83.1075C79.002 84.8275 79.6245 86.0875 79.8995 86.51H70.062V86.5125ZM75.517 104.198C72.4295 104.198 69.167 102.272 69.167 98.53C69.167 94.79 72.557 92.93 75.517 92.93C78.477 92.93 81.7645 94.59 81.7645 98.53C81.7645 102.47 78.6045 104.198 75.517 104.198Z" fill="white"/>
</g>
<rect x="2.58252" y="2.5" width="145" height="145" rx="7.5" stroke="#D5EAF6" stroke-width="5"/>
</g>
<defs>
<linearGradient id="paint0_linear_14_9599" x1="75.0825" y1="5" x2="75.0825" y2="145" gradientUnits="userSpaceOnUse">
<stop stop-color="#199AE0"/>
<stop offset="0.472222" stop-color="#0D5176" stop-opacity="0.527778"/>
<stop offset="0.940972" stop-color="#12A6F7" stop-opacity="0.465278"/>
<stop offset="1" stop-opacity="0"/>
</linearGradient>
<linearGradient id="paint1_linear_14_9599" x1="120.659" y1="83.75" x2="111.674" y2="83.75" gradientUnits="userSpaceOnUse">
<stop stop-color="#0F5695"/>
<stop offset="0.963" stop-color="#134575"/>
</linearGradient>
<linearGradient id="paint2_linear_14_9599" x1="29.9638" y1="83.75" x2="37.7463" y2="83.75" gradientUnits="userSpaceOnUse">
<stop stop-color="#0F5695"/>
<stop offset="1" stop-color="#134575"/>
</linearGradient>
<radialGradient id="paint3_radial_14_9599" cx="0" cy="0" r="1" gradientUnits="userSpaceOnUse" gradientTransform="translate(76.7986 73.2) scale(49.3625 49.3625)">
<stop stop-color="#0370C8"/>
<stop offset="0.484" stop-color="#036FC5"/>
<stop offset="0.775" stop-color="#036ABD"/>
<stop offset="1" stop-color="#0362B0"/>
</radialGradient>
</defs>
</svg>
