<svg width="151" height="150" viewBox="0 0 151 150" fill="none" xmlns="http://www.w3.org/2000/svg">
<g id="decline">
<rect x="2.58252" y="2.5" width="145" height="145" rx="7.5" fill="white"/>
<rect x="2.58252" y="2.5" width="145" height="145" rx="7.5" fill="url(#paint0_linear_14_9609)" fill-opacity="0.2"/>
<g id="Group">
<path id="Vector" d="M27.5816 46.2498H42.5818C43.9618 46.2498 45.0819 47.3698 45.0819 48.7498V121.251H25.0815V48.7498C25.0815 47.3698 26.2016 46.2498 27.5816 46.2498Z" fill="#50E6FF"/>
<path id="Vector_2" d="M87.4583 29.482L113.724 55.7475L107.081 62.3901L80.8157 36.1246C79.8381 35.1471 79.8381 33.5646 80.8157 32.5896L83.9232 29.482C84.8982 28.5045 86.4807 28.5045 87.4583 29.482Z" fill="#50E6FF"/>
<path id="Vector_3" d="M62.5823 61.2501C63.9623 61.2501 65.0823 62.3701 65.0823 63.7501V121.251H45.082V61.2501H62.5823Z" fill="#35C1F1"/>
<path id="Vector_4" d="M82.5828 76.2504C83.9628 76.2504 85.0828 77.3704 85.0828 78.7505V121.251H65.0825V76.2504H82.5828Z" fill="#199BE2"/>
<path id="Vector_5" d="M102.583 91.2505C103.963 91.2505 105.083 92.3705 105.083 93.7506V121.251H85.083V91.2505H102.583Z" fill="#0078D4"/>
<path id="Vector_6" d="M122.584 106.251C123.964 106.251 125.084 107.371 125.084 108.751V121.251H105.083V106.251H122.584Z" fill="#0D62AB"/>
<path id="Vector_7" d="M98.1007 66.2501H115.083C116.463 66.2501 117.583 65.1301 117.583 63.7501V46.7673C117.583 45.6548 116.236 45.0948 115.448 45.8823L97.2157 64.1151C96.4306 64.9026 96.9882 66.2501 98.1007 66.2501Z" fill="#50E6FF"/>
</g>
<rect x="2.58252" y="2.5" width="145" height="145" rx="7.5" stroke="#D5EAF6" stroke-width="5"/>
</g>
<defs>
<linearGradient id="paint0_linear_14_9609" x1="75.0825" y1="5" x2="75.0825" y2="145" gradientUnits="userSpaceOnUse">
<stop stop-color="#199AE0"/>
<stop offset="0.472222" stop-color="#0D5176" stop-opacity="0.527778"/>
<stop offset="0.940972" stop-color="#12A6F7" stop-opacity="0.465278"/>
<stop offset="1" stop-opacity="0"/>
</linearGradient>
</defs>
</svg>
