<svg width="151" height="150" viewBox="0 0 151 150" fill="none" xmlns="http://www.w3.org/2000/svg">
<g id="delete-folder">
<rect x="2.58252" y="2.5" width="145" height="145" rx="7.5" fill="white"/>
<rect x="2.58252" y="2.5" width="145" height="145" rx="7.5" fill="url(#paint0_linear_14_9618)" fill-opacity="0.2"/>
<g id="Group">
<path id="Vector" d="M72.6693 37.0318L67.0339 31.3964C65.785 30.1475 64.0895 29.4453 62.3206 29.4453H29.5279C27.0724 29.4453 25.0835 31.4341 25.0835 33.8896V100.555C25.0835 103.011 27.0724 105 29.5279 105H113.971C116.426 105 118.415 103.011 118.415 100.555V42.7784C118.415 40.3229 116.426 38.334 113.971 38.334H75.8115C74.6337 38.334 73.5027 37.8651 72.6693 37.0318Z" fill="url(#paint1_linear_14_9618)"/>
<path id="Vector_2" d="M66.385 45.9205L73.6471 38.6584C73.8538 38.4517 74.136 38.334 74.4315 38.334H113.971C116.426 38.334 118.415 40.3228 118.415 42.7783V100.555C118.415 103.011 116.426 104.999 113.971 104.999H29.5279C27.0724 104.999 25.0835 103.011 25.0835 100.555V48.3338C25.0835 47.7205 25.5813 47.2227 26.1946 47.2227H63.2428C64.4206 47.2227 65.5517 46.7538 66.385 45.9205Z" fill="url(#paint2_linear_14_9618)"/>
<path id="Vector_3" d="M125.082 98.3329C125.082 110.604 115.131 120.555 102.86 120.555C90.5891 120.555 80.6382 110.604 80.6382 98.3329C80.6382 86.062 90.5891 76.1111 102.86 76.1111C115.131 76.1111 125.082 86.062 125.082 98.3329Z" fill="url(#paint3_linear_14_9618)"/>
<path id="Vector_4" d="M110.724 88.9042L112.295 90.4753C112.728 90.9086 112.728 91.613 112.295 92.0464L96.5819 107.759C96.1486 108.193 95.4442 108.193 95.0108 107.759L93.4397 106.188C93.0064 105.755 93.0064 105.051 93.4397 104.617L109.153 88.9042C109.586 88.4709 110.288 88.4709 110.724 88.9042Z" fill="white"/>
<path id="Vector_5" d="M112.295 106.191L110.724 107.762C110.291 108.195 109.586 108.195 109.153 107.762L93.4397 92.0486C93.0064 91.6152 93.0064 90.9108 93.4397 90.4775L95.0108 88.9064C95.4442 88.4731 96.1486 88.4731 96.5819 88.9064L112.295 104.619C112.728 105.053 112.728 105.755 112.295 106.191Z" fill="white"/>
</g>
<rect x="2.58252" y="2.5" width="145" height="145" rx="7.5" stroke="#D5EAF6" stroke-width="5"/>
</g>
<defs>
<linearGradient id="paint0_linear_14_9618" x1="75.0825" y1="5" x2="75.0825" y2="145" gradientUnits="userSpaceOnUse">
<stop stop-color="#199AE0"/>
<stop offset="0.472222" stop-color="#0D5176" stop-opacity="0.527778"/>
<stop offset="0.940972" stop-color="#12A6F7" stop-opacity="0.465278"/>
<stop offset="1" stop-opacity="0"/>
</linearGradient>
<linearGradient id="paint1_linear_14_9618" x1="71.7494" y1="28.7964" x2="71.7494" y2="47.1716" gradientUnits="userSpaceOnUse">
<stop stop-color="#EBA600"/>
<stop offset="1" stop-color="#C28200"/>
</linearGradient>
<linearGradient id="paint2_linear_14_9618" x1="71.7494" y1="38.0095" x2="71.7494" y2="104.962" gradientUnits="userSpaceOnUse">
<stop stop-color="#FFD869"/>
<stop offset="1" stop-color="#FEC52B"/>
</linearGradient>
<linearGradient id="paint3_linear_14_9618" x1="87.147" y1="82.6198" x2="118.573" y2="114.044" gradientUnits="userSpaceOnUse">
<stop stop-color="#F44F5A"/>
<stop offset="0.443" stop-color="#EE3D4A"/>
<stop offset="1" stop-color="#E52030"/>
</linearGradient>
</defs>
</svg>
