<svg width="151" height="150" viewBox="0 0 151 150" fill="none" xmlns="http://www.w3.org/2000/svg">
<g id="desktop">
<rect x="2.58252" y="2.5" width="145" height="145" rx="7.5" fill="white"/>
<rect x="2.58252" y="2.5" width="145" height="145" rx="7.5" fill="url(#paint0_linear_14_9658)" fill-opacity="0.2"/>
<g id="Group">
<path id="Vector" d="M30.6381 25H119.527C122.596 25 125.083 27.4861 125.083 30.5556V119.444C125.083 122.514 122.596 125 119.527 125H30.6381C27.5686 125 25.0825 122.514 25.0825 119.444V30.5556C25.0825 27.4861 27.5686 25 30.6381 25Z" fill="url(#paint1_radial_14_9658)"/>
<path id="Vector_2" d="M125.083 119.444V108.333H25.0825V119.444C25.0825 122.514 27.5686 125 30.6381 125H119.527C122.596 125 125.083 122.514 125.083 119.444Z" fill="#184F85"/>
<path id="Vector_3" opacity="0.05" d="M32.0226 122.222C29.7254 122.222 27.856 120.353 27.856 118.056V115.278C27.856 112.981 29.7254 111.111 32.0226 111.111H34.8004C37.0976 111.111 38.9671 112.981 38.9671 115.278V118.056C38.9671 120.353 37.0976 122.222 34.8004 122.222H32.0226Z" fill="black"/>
<path id="Vector_4" opacity="0.07" d="M32.0322 120.833C30.5016 120.833 29.2544 119.586 29.2544 118.056V115.278C29.2544 113.747 30.5016 112.5 32.0322 112.5H34.8099C36.3405 112.5 37.5877 113.747 37.5877 115.278V118.056C37.5877 119.586 36.3405 120.833 34.8099 120.833H32.0322Z" fill="black"/>
<path id="Vector_5" d="M34.8039 119.444H32.0261C31.2594 119.444 30.6372 118.822 30.6372 118.056V115.278C30.6372 114.511 31.2594 113.889 32.0261 113.889H34.8039C35.5705 113.889 36.1928 114.511 36.1928 115.278V118.056C36.1928 118.822 35.5705 119.444 34.8039 119.444Z" fill="white"/>
<path id="Vector_6" opacity="0.05" d="M37.5773 49.9999C35.2801 49.9999 33.4106 48.1305 33.4106 45.8333V37.4999C33.4106 35.2027 35.2801 33.3333 37.5773 33.3333H45.9106C48.2079 33.3333 50.0773 35.2027 50.0773 37.4999V45.8333C50.0773 48.1305 48.2079 49.9999 45.9106 49.9999H37.5773Z" fill="black"/>
<path id="Vector_7" opacity="0.07" d="M37.5869 48.6112C36.0563 48.6112 34.8091 47.364 34.8091 45.8334V37.5001C34.8091 35.9695 36.0563 34.7223 37.5869 34.7223H45.9202C47.4508 34.7223 48.698 35.9695 48.698 37.5001V45.8334C48.698 47.364 47.4508 48.6112 45.9202 48.6112H37.5869Z" fill="black"/>
<path id="Vector_8" d="M45.9141 47.2222H37.5808C36.8141 47.2222 36.1919 46.6 36.1919 45.8333V37.5C36.1919 36.7333 36.8141 36.1111 37.5808 36.1111H45.9141C46.6808 36.1111 47.303 36.7333 47.303 37.5V45.8333C47.303 46.6 46.6808 47.2222 45.9141 47.2222Z" fill="white"/>
<path id="Vector_9" opacity="0.05" d="M37.5773 72.2222C35.2801 72.2222 33.4106 70.3528 33.4106 68.0555V59.7222C33.4106 57.425 35.2801 55.5555 37.5773 55.5555H45.9106C48.2079 55.5555 50.0773 57.425 50.0773 59.7222V68.0555C50.0773 70.3528 48.2079 72.2222 45.9106 72.2222H37.5773Z" fill="black"/>
<path id="Vector_10" opacity="0.07" d="M37.5869 70.8333C36.0563 70.8333 34.8091 69.5861 34.8091 68.0556V59.7222C34.8091 58.1917 36.0563 56.9445 37.5869 56.9445H45.9202C47.4508 56.9445 48.698 58.1917 48.698 59.7222V68.0556C48.698 69.5861 47.4508 70.8333 45.9202 70.8333H37.5869Z" fill="black"/>
<path id="Vector_11" d="M45.9141 69.4444H37.5808C36.8141 69.4444 36.1919 68.8221 36.1919 68.0555V59.7221C36.1919 58.9555 36.8141 58.3333 37.5808 58.3333H45.9141C46.6808 58.3333 47.303 58.9555 47.303 59.7221V68.0555C47.303 68.8221 46.6808 69.4444 45.9141 69.4444Z" fill="white"/>
</g>
<rect x="2.58252" y="2.5" width="145" height="145" rx="7.5" stroke="#D5EAF6" stroke-width="5"/>
</g>
<defs>
<linearGradient id="paint0_linear_14_9658" x1="75.0825" y1="5" x2="75.0825" y2="145" gradientUnits="userSpaceOnUse">
<stop stop-color="#199AE0"/>
<stop offset="0.472222" stop-color="#0D5176" stop-opacity="0.527778"/>
<stop offset="0.940972" stop-color="#12A6F7" stop-opacity="0.465278"/>
<stop offset="1" stop-opacity="0"/>
</linearGradient>
<radialGradient id="paint1_radial_14_9658" cx="0" cy="0" r="1" gradientUnits="userSpaceOnUse" gradientTransform="translate(142.958 233.067) scale(205.335 258.304)">
<stop offset="0.323" stop-color="#23D9D6"/>
<stop offset="0.427" stop-color="#23D4D7"/>
<stop offset="0.542" stop-color="#21C7DC"/>
<stop offset="0.664" stop-color="#1FB0E2"/>
<stop offset="0.789" stop-color="#1C91EC"/>
<stop offset="0.917" stop-color="#1969F8"/>
<stop offset="0.944" stop-color="#1860FB"/>
</radialGradient>
</defs>
</svg>
