<svg width="151" height="150" viewBox="0 0 151 150" fill="none" xmlns="http://www.w3.org/2000/svg">
<g id="details-side-pane">
<rect x="2.58252" y="2.5" width="145" height="145" rx="7.5" fill="white"/>
<rect x="2.58252" y="2.5" width="145" height="145" rx="7.5" fill="url(#paint0_linear_14_9671)" fill-opacity="0.2"/>
<g id="Group">
<path id="Vector" d="M25.0825 110V47.5L75.0825 42.5L125.083 47.5L90.0825 115H30.0825C27.3325 115 25.0825 112.75 25.0825 110Z" fill="#50E6FF"/>
<path id="Vector_2" d="M90.0825 115H120.083C122.845 115 125.083 112.762 125.083 110V47.5H90.0825V115Z" fill="#199BE2"/>
<path id="Vector_3" d="M60.0825 47.5H55.0825V115H60.0825V47.5Z" fill="#35C1F1"/>
<path id="Vector_4" d="M125.083 40V47.5H25.0825V40C25.0825 37.25 27.3325 35 30.0825 35H120.083C122.833 35 125.083 37.25 125.083 40ZM117.583 63.75V61.25C117.583 60.56 117.023 60 116.333 60H98.8325C98.1425 60 97.5825 60.56 97.5825 61.25V63.75C97.5825 64.44 98.1425 65 98.8325 65H116.333C117.023 65 117.583 64.44 117.583 63.75ZM117.583 81.25V78.75C117.583 78.06 117.023 77.5 116.333 77.5H98.8325C98.1425 77.5 97.5825 78.06 97.5825 78.75V81.25C97.5825 81.94 98.1425 82.5 98.8325 82.5H116.333C117.023 82.5 117.583 81.94 117.583 81.25ZM117.583 98.75V96.25C117.583 95.56 117.023 95 116.333 95H98.8325C98.1425 95 97.5825 95.56 97.5825 96.25V98.75C97.5825 99.44 98.1425 100 98.8325 100H116.333C117.023 100 117.583 99.44 117.583 98.75Z" fill="url(#paint1_linear_14_9671)"/>
</g>
<rect x="2.58252" y="2.5" width="145" height="145" rx="7.5" stroke="#D5EAF6" stroke-width="5"/>
</g>
<defs>
<linearGradient id="paint0_linear_14_9671" x1="75.0825" y1="5" x2="75.0825" y2="145" gradientUnits="userSpaceOnUse">
<stop stop-color="#199AE0"/>
<stop offset="0.472222" stop-color="#0D5176" stop-opacity="0.527778"/>
<stop offset="0.940972" stop-color="#12A6F7" stop-opacity="0.465278"/>
<stop offset="1" stop-opacity="0"/>
</linearGradient>
<linearGradient id="paint1_linear_14_9671" x1="23.45" y1="49.975" x2="121.058" y2="69.82" gradientUnits="userSpaceOnUse">
<stop stop-color="#0077D2"/>
<stop offset="1" stop-color="#0B59A2"/>
</linearGradient>
</defs>
</svg>
