<svg width="151" height="150" viewBox="0 0 151 150" fill="none" xmlns="http://www.w3.org/2000/svg">
<g id="docker-container">
<rect x="2.58252" y="2.5" width="145" height="145" rx="7.5" fill="white"/>
<rect x="2.58252" y="2.5" width="145" height="145" rx="7.5" fill="url(#paint0_linear_14_9695)" fill-opacity="0.2"/>
<g id="Group">
<path id="Vector" d="M116.767 106.185H33.1906C28.6168 106.185 25.0825 102.651 25.0825 98.2848V51.7152C25.0825 47.3493 28.6168 43.815 33.1906 43.815H116.974C121.34 43.815 125.083 47.3493 125.083 51.7152V98.2848C124.875 102.651 121.34 106.185 116.767 106.185Z" fill="url(#paint1_linear_14_9695)"/>
<path id="Vector_2" d="M71.6451 93.7111C70.6056 93.2953 65.616 92.4637 64.5765 85.3951C59.5869 87.682 55.0131 87.0583 52.9341 86.6425C55.6368 90.5926 60.4185 93.919 69.3582 93.919C70.1898 93.7111 70.8135 93.7111 71.6451 93.7111Z" fill="#0F94BF"/>
<path id="Vector_3" d="M64.1637 85.3951C61.2531 86.4346 56.2635 86.6425 53.145 86.6425C53.7687 87.4741 54.3924 88.3057 55.224 88.9294C57.7188 88.9294 61.2531 88.7215 65.2032 87.682C65.8269 87.4741 66.0348 86.6425 65.8269 86.0188C65.4111 85.3951 64.7874 85.1872 64.1637 85.3951ZM69.3612 81.6529C68.1138 81.6529 66.8664 82.6924 66.8664 84.1477C66.8664 85.3951 67.9059 86.6425 69.3612 86.6425C70.8165 86.6425 71.856 85.603 71.856 84.1477C71.856 82.6924 70.8165 81.6529 69.3612 81.6529Z" fill="#0F94BF"/>
<path id="Vector_4" d="M69.3582 82.9002C68.7345 82.9002 68.1108 83.5239 68.1108 84.1476C68.1108 84.7713 68.7345 85.395 69.3582 85.395C69.9819 85.395 70.6056 84.7713 70.6056 84.1476C70.6056 83.316 69.9819 82.9002 69.3582 82.9002ZM71.6451 93.711C70.6056 93.2952 65.616 92.4636 64.5765 85.395C59.5869 87.6819 55.0131 87.0582 52.9341 86.6424C55.6368 90.5925 60.4185 93.9189 69.3582 93.9189C70.1898 93.711 70.8135 93.711 71.6451 93.711Z" fill="#0F94BF"/>
<path id="Vector_5" d="M64.1637 85.3951C61.2531 86.4346 56.2635 86.6425 53.145 86.6425C53.7687 87.4741 54.3924 88.3057 55.224 88.9294C57.7188 88.9294 61.2531 88.7215 65.2032 87.682C65.8269 87.4741 66.0348 86.6425 65.8269 86.0188C65.4111 85.3951 64.7874 85.1872 64.1637 85.3951ZM69.3612 81.6529C68.1138 81.6529 66.8664 82.6924 66.8664 84.1477C66.8664 85.3951 67.9059 86.6425 69.3612 86.6425C70.8165 86.6425 71.856 85.603 71.856 84.1477C71.856 82.6924 70.8165 81.6529 69.3612 81.6529Z" fill="#0F94BF"/>
<path id="Vector_6" d="M69.369 82.9002C68.7453 82.9002 68.1216 83.5239 68.1216 84.1476C68.1216 84.7713 68.7453 85.395 69.369 85.395C69.9927 85.395 70.6164 84.7713 70.6164 84.1476C70.6164 83.316 69.9927 82.9002 69.369 82.9002Z" fill="#0F94BF"/>
<path id="Vector_7" d="M50.6606 81.237C52.1159 86.6424 56.2739 93.711 69.5796 93.711C82.2615 93.711 88.9143 86.8503 92.2407 81.237H50.6606Z" fill="#0F94BF"/>
<path id="Vector_8" d="M99.9212 68.7631C98.0501 68.7631 96.5948 69.3868 95.7632 70.0105C95.7632 67.7236 95.3474 65.2288 92.4368 62.5261C90.1499 64.6051 89.5262 66.4762 89.5262 68.3473C89.5262 70.2184 90.5657 72.0895 91.6052 73.129C91.6052 73.129 90.1499 75.0001 85.3682 75.0001V68.7631H79.1311V56.2891H72.8941V62.5261H60.4201V68.7631H54.1831V75.0001C51.6883 75.0001 50.0251 75.0001 50.0251 75.0001C50.0251 75.0001 49.8172 76.6633 50.233 78.9502C51.4804 78.7423 52.312 78.1186 53.1436 77.0791C54.1831 78.3265 55.2226 79.1581 57.3016 79.1581C59.3806 79.1581 60.4201 78.3265 61.4596 77.0791C62.4991 78.3265 63.5386 79.1581 65.6176 79.1581C67.6966 79.1581 68.7361 78.3265 69.7756 77.0791C70.8151 78.3265 71.8546 79.1581 73.9336 79.1581C76.0126 79.1581 77.0521 78.3265 78.0916 77.0791C79.1311 78.3265 80.1706 79.1581 82.2497 79.1581C84.3287 79.1581 85.3682 78.3265 86.4077 77.0791C87.4472 78.3265 88.4867 79.1581 90.5657 79.1581C91.8131 79.1581 92.8526 78.7423 93.4763 78.3265C94.1 76.8712 94.5158 75.6238 94.7237 75.0001C95.1395 75.0001 95.5553 75.0001 96.179 75.0001C98.6738 75.0001 102.832 74.7922 104.079 69.5947C102.624 68.971 101.169 68.7631 99.9212 68.7631Z" fill="#0F94BF"/>
<path id="Vector_9" d="M94.7383 81.237H99.9359V78.9501C99.5201 78.9501 99.3122 79.158 98.8964 79.158C96.8173 79.158 95.7778 78.3264 94.7383 77.079C94.3225 77.4948 93.9067 77.9106 93.4909 78.3264C93.0751 79.158 92.6593 80.1975 92.0356 81.237H94.7383Z" fill="#0F94BF"/>
</g>
<rect x="2.58252" y="2.5" width="145" height="145" rx="7.5" stroke="#D5EAF6" stroke-width="5"/>
</g>
<defs>
<linearGradient id="paint0_linear_14_9695" x1="75.0825" y1="5" x2="75.0825" y2="145" gradientUnits="userSpaceOnUse">
<stop stop-color="#199AE0"/>
<stop offset="0.472222" stop-color="#0D5176" stop-opacity="0.527778"/>
<stop offset="0.940972" stop-color="#12A6F7" stop-opacity="0.465278"/>
<stop offset="1" stop-opacity="0"/>
</linearGradient>
<linearGradient id="paint1_linear_14_9695" x1="27.7811" y1="42.9314" x2="115.54" y2="102.559" gradientUnits="userSpaceOnUse">
<stop stop-color="#7DD8F3"/>
<stop offset="1" stop-color="#45B0D0"/>
</linearGradient>
</defs>
</svg>
