<svg width="151" height="150" viewBox="0 0 151 150" fill="none" xmlns="http://www.w3.org/2000/svg">
<g id="doctors-folder">
<rect x="2.58252" y="2.5" width="145" height="145" rx="7.5" fill="white"/>
<rect x="2.58252" y="2.5" width="145" height="145" rx="7.5" fill="url(#paint0_linear_14_9706)" fill-opacity="0.2"/>
<g id="Group">
<path id="Vector" d="M76.0682 42.6524L70.0301 36.6143C68.692 35.2762 66.8754 34.5238 64.9801 34.5238H29.8444C27.2135 34.5238 25.0825 36.6548 25.0825 39.2857V110.714C25.0825 113.345 27.2135 115.476 29.8444 115.476H120.321C122.952 115.476 125.083 113.345 125.083 110.714V48.8095C125.083 46.1786 122.952 44.0476 120.321 44.0476H79.4349C78.173 44.0476 76.9611 43.5452 76.0682 42.6524Z" fill="url(#paint1_linear_14_9706)"/>
<path id="Vector_2" d="M69.3349 52.1759L77.1159 44.395C77.3373 44.1736 77.6397 44.0474 77.9563 44.0474H120.321C122.952 44.0474 125.083 46.1783 125.083 48.8093V110.714C125.083 113.345 122.952 115.476 120.321 115.476H29.8444C27.2135 115.476 25.0825 113.345 25.0825 110.714V54.7616C25.0825 54.1045 25.6159 53.5712 26.273 53.5712H65.9682C67.2301 53.5712 68.442 53.0688 69.3349 52.1759Z" fill="url(#paint2_linear_14_9706)"/>
<path id="Vector_3" d="M75.0795 108.333C88.2292 108.333 98.8891 97.6735 98.8891 84.5239C98.8891 71.3742 88.2292 60.7144 75.0795 60.7144C61.9299 60.7144 51.27 71.3742 51.27 84.5239C51.27 97.6735 61.9299 108.333 75.0795 108.333Z" fill="url(#paint3_linear_14_9706)"/>
<path id="Vector_4" d="M89.3757 80.9521H78.6614V70.2378C78.6614 69.5807 78.1281 69.0474 77.4709 69.0474H72.709C72.0519 69.0474 71.5185 69.5807 71.5185 70.2378V80.9521H60.8042C60.1471 80.9521 59.6138 81.4855 59.6138 82.1426V86.9045C59.6138 87.5617 60.1471 88.095 60.8042 88.095H71.5185V98.8093C71.5185 99.4664 72.0519 99.9997 72.709 99.9997H77.4709C78.1281 99.9997 78.6614 99.4664 78.6614 98.8093V88.095H89.3757C90.0328 88.095 90.5662 87.5617 90.5662 86.9045V82.1426C90.5662 81.4855 90.0328 80.9521 89.3757 80.9521Z" fill="white"/>
</g>
<rect x="2.58252" y="2.5" width="145" height="145" rx="7.5" stroke="#D5EAF6" stroke-width="5"/>
</g>
<defs>
<linearGradient id="paint0_linear_14_9706" x1="75.0825" y1="5" x2="75.0825" y2="145" gradientUnits="userSpaceOnUse">
<stop stop-color="#199AE0"/>
<stop offset="0.472222" stop-color="#0D5176" stop-opacity="0.527778"/>
<stop offset="0.940972" stop-color="#12A6F7" stop-opacity="0.465278"/>
<stop offset="1" stop-opacity="0"/>
</linearGradient>
<linearGradient id="paint1_linear_14_9706" x1="75.0825" y1="33.8286" x2="75.0825" y2="53.5167" gradientUnits="userSpaceOnUse">
<stop stop-color="#EBA600"/>
<stop offset="1" stop-color="#C28200"/>
</linearGradient>
<linearGradient id="paint2_linear_14_9706" x1="75.0825" y1="43.6997" x2="75.0825" y2="115.435" gradientUnits="userSpaceOnUse">
<stop stop-color="#FFD869"/>
<stop offset="1" stop-color="#FEC52B"/>
</linearGradient>
<linearGradient id="paint3_linear_14_9706" x1="71.0748" y1="61.0501" x2="78.901" y2="106.917" gradientUnits="userSpaceOnUse">
<stop stop-color="#F44F5A"/>
<stop offset="0.443" stop-color="#EE3D4A"/>
<stop offset="1" stop-color="#E52030"/>
</linearGradient>
</defs>
</svg>
