<svg width="151" height="150" viewBox="0 0 151 150" fill="none" xmlns="http://www.w3.org/2000/svg">
<g id="download-from-the-cloud">
<rect x="2.58252" y="2.5" width="145" height="145" rx="7.5" fill="white"/>
<rect x="2.58252" y="2.5" width="145" height="145" rx="7.5" fill="url(#paint0_linear_14_9731)" fill-opacity="0.2"/>
<g id="Group">
<path id="Vector" d="M125.083 82.2917C125.083 96.1042 113.895 107.292 100.083 107.292C96.3325 107.292 48.7075 107.292 44.8742 107.292C33.9367 107.292 25.0825 98.4375 25.0825 87.5C25.0825 78.0417 31.7075 70.125 40.6034 68.1667C44.145 53.5625 57.2909 42.7083 72.9992 42.7083C84.4784 42.7083 94.5825 48.5 100.583 57.3125C114.166 57.5625 125.083 68.6458 125.083 82.2917Z" fill="url(#paint1_linear_14_9731)"/>
<path id="Vector_2" opacity="0.05" d="M81.3246 80.2083V65.625C81.3246 63.3229 79.46 61.4583 77.158 61.4583H72.9913C70.6892 61.4583 68.8246 63.3229 68.8246 65.625V80.2083H63.308C60.5246 80.2083 59.1288 83.575 61.0975 85.5438L72.1288 96.575C73.7559 98.2021 76.3934 98.2021 78.0205 96.575L89.0517 85.5438C91.0205 83.575 89.6267 80.2083 86.8413 80.2083H81.3246Z" fill="black"/>
<path id="Vector_3" opacity="0.07" d="M80.2882 81.2501V65.6251C80.2882 63.9001 78.8882 62.5001 77.1632 62.5001H72.9966C71.2716 62.5001 69.8716 63.9001 69.8716 65.6251V81.2501H63.5778C61.6237 81.2501 60.6445 83.6126 62.0257 84.9959L72.7112 95.6834C74.0174 96.9897 76.1362 96.9897 77.4424 95.6834L88.1278 84.9959C89.5091 83.6147 88.532 81.2501 86.5757 81.2501H80.2882V81.2501Z" fill="black"/>
<path id="Vector_4" d="M86.3179 82.2916H79.2491V65.6249C79.2491 64.4749 78.3158 63.5416 77.1658 63.5416H72.9991C71.8491 63.5416 70.9158 64.4749 70.9158 65.6249V82.2916H63.847C62.722 82.2916 62.1595 83.652 62.9554 84.4458L73.297 94.7874C74.2824 95.7728 75.8824 95.7728 76.8679 94.7874L87.2095 84.4458C88.0054 83.652 87.4429 82.2916 86.3179 82.2916Z" fill="white"/>
</g>
<rect x="2.58252" y="2.5" width="145" height="145" rx="7.5" stroke="#D5EAF6" stroke-width="5"/>
</g>
<defs>
<linearGradient id="paint0_linear_14_9731" x1="75.0825" y1="5" x2="75.0825" y2="145" gradientUnits="userSpaceOnUse">
<stop stop-color="#199AE0"/>
<stop offset="0.472222" stop-color="#0D5176" stop-opacity="0.527778"/>
<stop offset="0.940972" stop-color="#12A6F7" stop-opacity="0.465278"/>
<stop offset="1" stop-opacity="0"/>
</linearGradient>
<linearGradient id="paint1_linear_14_9731" x1="54.7534" y1="45.5375" x2="87.9409" y2="108.74" gradientUnits="userSpaceOnUse">
<stop stop-color="#2AA4F4"/>
<stop offset="1" stop-color="#007AD9"/>
</linearGradient>
</defs>
</svg>
