<svg width="151" height="150" viewBox="0 0 151 150" fill="none" xmlns="http://www.w3.org/2000/svg">
<g id="download">
<rect x="2.58252" y="2.5" width="145" height="145" rx="7.5" fill="white"/>
<rect x="2.58252" y="2.5" width="145" height="145" rx="7.5" fill="url(#paint0_linear_14_9725)" fill-opacity="0.2"/>
<g id="Group">
<path id="Vector" d="M92.2072 70.238H82.2309V32.1422C82.2309 30.8279 81.1642 29.7612 79.8499 29.7612H70.326C69.0117 29.7612 67.945 30.8279 67.945 32.1422V70.238H57.9686C56.2543 70.238 55.3972 72.3094 56.6091 73.5214L72.5641 89.4764C73.9593 90.8716 76.2213 90.8716 77.6142 89.4764L93.5691 73.5214C94.7811 72.3094 93.9215 70.238 92.2072 70.238Z" fill="url(#paint1_linear_14_9725)"/>
<path id="Vector_2" d="M110.797 96.4288V120.239L122.293 108.743C124.078 106.958 125.083 104.534 125.083 102.01V96.4288C125.083 95.1145 124.017 94.0479 122.702 94.0479H113.178C111.864 94.0479 110.797 95.1145 110.797 96.4288Z" fill="url(#paint2_linear_14_9725)"/>
<path id="Vector_3" d="M110.8 105.953H39.3701V120.239H110.8V105.953Z" fill="url(#paint3_linear_14_9725)"/>
<path id="Vector_4" d="M39.3675 96.4288V120.239L27.8721 108.743C26.0839 106.955 25.0815 104.534 25.0815 102.007V96.4288C25.0815 95.1145 26.1482 94.0479 27.4625 94.0479H36.9865C38.3008 94.0479 39.3675 95.1145 39.3675 96.4288Z" fill="url(#paint4_linear_14_9725)"/>
</g>
<rect x="2.58252" y="2.5" width="145" height="145" rx="7.5" stroke="#D5EAF6" stroke-width="5"/>
</g>
<defs>
<linearGradient id="paint0_linear_14_9725" x1="75.0825" y1="5" x2="75.0825" y2="145" gradientUnits="userSpaceOnUse">
<stop stop-color="#199AE0"/>
<stop offset="0.472222" stop-color="#0D5176" stop-opacity="0.527778"/>
<stop offset="0.940972" stop-color="#12A6F7" stop-opacity="0.465278"/>
<stop offset="1" stop-opacity="0"/>
</linearGradient>
<linearGradient id="paint1_linear_14_9725" x1="59.2163" y1="29.0588" x2="88.1643" y2="96.3169" gradientUnits="userSpaceOnUse">
<stop stop-color="#32BDEF"/>
<stop offset="1" stop-color="#1EA2E4"/>
</linearGradient>
<linearGradient id="paint2_linear_14_9725" x1="112.609" y1="93.024" x2="121.762" y2="118.958" gradientUnits="userSpaceOnUse">
<stop stop-color="#32BDEF"/>
<stop offset="1" stop-color="#1EA2E4"/>
</linearGradient>
<linearGradient id="paint3_linear_14_9725" x1="39.3701" y1="113.096" x2="110.8" y2="113.096" gradientUnits="userSpaceOnUse">
<stop stop-color="#0362B0"/>
<stop offset="0.112" stop-color="#036ABD"/>
<stop offset="0.258" stop-color="#036FC5"/>
<stop offset="0.5" stop-color="#0370C8"/>
<stop offset="0.742" stop-color="#036FC5"/>
<stop offset="0.888" stop-color="#036ABD"/>
<stop offset="1" stop-color="#0362B0"/>
</linearGradient>
<linearGradient id="paint4_linear_14_9725" x1="37.5555" y1="93.024" x2="28.403" y2="118.958" gradientUnits="userSpaceOnUse">
<stop stop-color="#32BDEF"/>
<stop offset="1" stop-color="#1EA2E4"/>
</linearGradient>
</defs>
</svg>
