<svg width="151" height="150" viewBox="0 0 151 150" fill="none" xmlns="http://www.w3.org/2000/svg">
<g id="e-magazine">
<rect x="2.58203" y="2.5" width="145" height="145" rx="7.5" fill="white"/>
<rect x="2.58203" y="2.5" width="145" height="145" rx="7.5" fill="url(#paint0_linear_14_9788)" fill-opacity="0.2"/>
<g id="Group">
<path id="Vector" d="M42.582 25H107.582C108.908 25 110.18 25.5268 111.118 26.4645C112.055 27.4021 112.582 28.6739 112.582 30V115H37.582V30C37.582 28.6739 38.1088 27.4021 39.0465 26.4645C39.9842 25.5268 41.256 25 42.582 25Z" fill="url(#paint1_linear_14_9788)"/>
<path id="Vector_2" d="M112.582 110H37.582V120C37.5819 120.657 37.7111 121.307 37.9623 121.914C38.2135 122.52 38.5818 123.072 39.0461 123.536C39.5104 124 40.0617 124.369 40.6684 124.62C41.2751 124.871 41.9254 125 42.582 125H107.582C108.239 125 108.889 124.871 109.496 124.62C110.102 124.369 110.654 124 111.118 123.536C111.582 123.072 111.951 122.52 112.202 121.914C112.453 121.307 112.582 120.657 112.582 120V110Z" fill="url(#paint2_linear_14_9788)"/>
<path id="Vector_3" d="M101.332 85H48.832C48.5005 84.9999 48.1827 84.8681 47.9483 84.6338C47.7139 84.3994 47.5822 84.0815 47.582 83.75V81.25C47.5822 80.9185 47.7139 80.6006 47.9483 80.3662C48.1827 80.1319 48.5005 80.0001 48.832 80H101.332C101.664 80.0001 101.981 80.1319 102.216 80.3662C102.45 80.6006 102.582 80.9185 102.582 81.25V83.75C102.582 84.0815 102.45 84.3994 102.216 84.6338C101.981 84.8681 101.664 84.9999 101.332 85V85Z" fill="#0D86AD"/>
<path id="Vector_4" d="M71.332 97.5H48.832C48.5005 97.4999 48.1827 97.3681 47.9483 97.1338C47.7139 96.8994 47.5822 96.5815 47.582 96.25V93.75C47.5822 93.4185 47.7139 93.1006 47.9483 92.8662C48.1827 92.6319 48.5005 92.5001 48.832 92.5H71.332C71.6635 92.5001 71.9814 92.6319 72.2158 92.8662C72.4502 93.1006 72.5819 93.4185 72.5821 93.75V96.25C72.5819 96.5815 72.4502 96.8994 72.2158 97.1338C71.9814 97.3681 71.6635 97.4999 71.332 97.5V97.5Z" fill="#0D86AD"/>
<path id="Vector_5" d="M101.34 97.5H78.8398C78.5084 97.4999 78.1905 97.3681 77.9561 97.1338C77.7217 96.8994 77.59 96.5815 77.5898 96.25V93.75C77.59 93.4185 77.7217 93.1006 77.9561 92.8662C78.1905 92.6319 78.5084 92.5001 78.8398 92.5H101.34C101.671 92.5001 101.989 92.6319 102.224 92.8662C102.458 93.1006 102.59 93.4185 102.59 93.75V96.25C102.59 96.5815 102.458 96.8994 102.224 97.1338C101.989 97.3681 101.671 97.4999 101.34 97.5V97.5Z" fill="#0D86AD"/>
<path id="Vector_6" d="M100.082 37.5H50.082C49.419 37.5 48.7831 37.7634 48.3143 38.2322C47.8454 38.7011 47.582 39.337 47.582 40V70C47.582 70.6631 47.8454 71.299 48.3143 71.7678C48.7831 72.2366 49.419 72.5 50.082 72.5H100.082C100.745 72.5 101.381 72.2366 101.85 71.7678C102.319 71.299 102.582 70.6631 102.582 70V40C102.582 39.337 102.319 38.7011 101.85 38.2322C101.381 37.7634 100.745 37.5 100.082 37.5Z" fill="url(#paint3_radial_14_9788)"/>
<path id="Vector_7" d="M101.104 72.275C100.783 72.4259 100.433 72.5028 100.079 72.5H69.2539V63.125L78.8539 54.025C79.41 53.5059 80.1461 53.2236 80.9066 53.2376C81.6671 53.2516 82.3923 53.5608 82.9289 54.1L101.104 72.275Z" fill="#436DCD"/>
<path id="Vector_8" d="M85.082 47.5C86.4627 47.5 87.582 46.3807 87.582 45C87.582 43.6193 86.4627 42.5 85.082 42.5C83.7013 42.5 82.582 43.6193 82.582 45C82.582 46.3807 83.7013 47.5 85.082 47.5Z" fill="white"/>
<path id="Vector_9" d="M93.8321 72.5L71.257 50.2025C70.7196 49.665 69.9934 49.3586 69.2334 49.3486C68.4733 49.3386 67.7394 49.6258 67.188 50.149L47.582 68.75V70C47.582 70.6631 47.8454 71.2989 48.3143 71.7678C48.7831 72.2366 49.419 72.5 50.082 72.5H93.8321Z" fill="url(#paint4_linear_14_9788)"/>
<path id="Vector_10" opacity="0.05" d="M75.082 115C75.5765 115 76.0598 115.147 76.471 115.421C76.8821 115.696 77.2025 116.086 77.3917 116.543C77.581 117 77.6305 117.503 77.534 117.988C77.4375 118.473 77.1994 118.918 76.8498 119.268C76.5002 119.617 76.0547 119.856 75.5698 119.952C75.0848 120.048 74.5821 119.999 74.1253 119.81C73.6685 119.62 73.2781 119.3 73.0034 118.889C72.7287 118.478 72.582 117.994 72.582 117.5C72.582 116.837 72.8454 116.201 73.3143 115.732C73.7831 115.263 74.419 115 75.082 115ZM75.082 112.5C74.0931 112.5 73.1264 112.793 72.3042 113.343C71.4819 113.892 70.8411 114.673 70.4626 115.587C70.0842 116.5 69.9852 117.506 70.1781 118.475C70.371 119.445 70.8472 120.336 71.5465 121.036C72.2458 121.735 73.1367 122.211 74.1066 122.404C75.0765 122.597 76.0818 122.498 76.9955 122.119C77.9091 121.741 78.69 121.1 79.2394 120.278C79.7888 119.456 80.082 118.489 80.082 117.5C80.0805 116.174 79.5533 114.903 78.6159 113.966C77.6786 113.029 76.4077 112.501 75.082 112.5V112.5Z" fill="black"/>
<path id="Vector_11" opacity="0.07" d="M75.082 115C75.5765 115 76.0598 115.147 76.471 115.421C76.8821 115.696 77.2025 116.086 77.3917 116.543C77.581 117 77.6305 117.503 77.534 117.988C77.4375 118.473 77.1994 118.918 76.8498 119.268C76.5002 119.617 76.0547 119.856 75.5698 119.952C75.0848 120.048 74.5821 119.999 74.1253 119.81C73.6685 119.62 73.2781 119.3 73.0034 118.889C72.7287 118.478 72.582 117.994 72.582 117.5C72.582 116.837 72.8454 116.201 73.3143 115.732C73.7831 115.263 74.419 115 75.082 115ZM75.082 113.75C74.3404 113.75 73.6153 113.97 72.9986 114.382C72.382 114.794 71.9013 115.38 71.6175 116.065C71.3337 116.75 71.2594 117.504 71.4041 118.232C71.5488 118.959 71.9059 119.627 72.4304 120.152C72.9548 120.676 73.623 121.033 74.3504 121.178C75.0779 121.323 75.8319 121.248 76.5171 120.965C77.2023 120.681 77.788 120.2 78.2 119.583C78.6121 118.967 78.832 118.242 78.832 117.5C78.8309 116.506 78.4354 115.553 77.7324 114.85C77.0294 114.147 76.0762 113.751 75.082 113.75Z" fill="black"/>
<path id="Vector_12" d="M75.0742 120C76.4549 120 77.5742 118.881 77.5742 117.5C77.5742 116.119 76.4549 115 75.0742 115C73.6935 115 72.5742 116.119 72.5742 117.5C72.5742 118.881 73.6935 120 75.0742 120Z" fill="url(#paint5_linear_14_9788)"/>
</g>
<rect x="2.58203" y="2.5" width="145" height="145" rx="7.5" stroke="#D5EAF6" stroke-width="5"/>
</g>
<defs>
<linearGradient id="paint0_linear_14_9788" x1="75.082" y1="5" x2="75.082" y2="145" gradientUnits="userSpaceOnUse">
<stop stop-color="#199AE0"/>
<stop offset="0.472222" stop-color="#0D5176" stop-opacity="0.527778"/>
<stop offset="0.940972" stop-color="#12A6F7" stop-opacity="0.465278"/>
<stop offset="1" stop-opacity="0"/>
</linearGradient>
<linearGradient id="paint1_linear_14_9788" x1="55.6745" y1="18.7375" x2="103.125" y2="149.103" gradientUnits="userSpaceOnUse">
<stop stop-color="#7DD8F3"/>
<stop offset="1" stop-color="#45B0D0"/>
</linearGradient>
<linearGradient id="paint2_linear_14_9788" x1="61.497" y1="78.12" x2="92.7221" y2="163.913" gradientUnits="userSpaceOnUse">
<stop stop-color="#0176D0"/>
<stop offset="1" stop-color="#16538C"/>
</linearGradient>
<radialGradient id="paint3_radial_14_9788" cx="0" cy="0" r="1" gradientUnits="userSpaceOnUse" gradientTransform="translate(113.945 74.4675) scale(34.795 34.795)">
<stop stop-color="#BA84F5"/>
<stop offset="0.129" stop-color="#B584F3"/>
<stop offset="0.291" stop-color="#A585EE"/>
<stop offset="0.47" stop-color="#8C87E6"/>
<stop offset="0.662" stop-color="#6889DB"/>
<stop offset="0.862" stop-color="#3B8BCD"/>
<stop offset="1" stop-color="#178DC2"/>
</radialGradient>
<linearGradient id="paint4_linear_14_9788" x1="70.707" y1="49.295" x2="70.707" y2="72.9025" gradientUnits="userSpaceOnUse">
<stop stop-color="#124787"/>
<stop offset="0.923" stop-color="#173B75"/>
<stop offset="1" stop-color="#173A73"/>
</linearGradient>
<linearGradient id="paint5_linear_14_9788" x1="74.9292" y1="117.355" x2="78.5767" y2="121.003" gradientUnits="userSpaceOnUse">
<stop stop-color="#DFE9F2"/>
<stop offset="0.391" stop-color="#D6E0E9"/>
<stop offset="1" stop-color="#BFC8D1"/>
</linearGradient>
</defs>
</svg>
