<svg width="151" height="150" viewBox="0 0 151 150" fill="none" xmlns="http://www.w3.org/2000/svg">
<g id="ecg">
<rect x="2.58203" y="2.5" width="145" height="145" rx="7.5" fill="white"/>
<rect x="2.58203" y="2.5" width="145" height="145" rx="7.5" fill="url(#paint0_linear_14_9763)" fill-opacity="0.2"/>
<g id="Group">
<path id="Vector" d="M29.8445 35H120.32C122.95 35 125.082 37.17 125.082 39.8475V110.15C125.082 112.83 122.95 115 120.32 115H29.8445C27.2145 115 25.082 112.83 25.082 110.153V39.8475C25.082 37.17 27.2145 35 29.8445 35Z" fill="#50E6FF"/>
<path id="Vector_2" d="M115.074 45C115.074 43.62 113.954 42.5 112.574 42.5H37.5742C36.1942 42.5 35.0742 43.62 35.0742 45V105C35.0742 106.38 36.1942 107.5 37.5742 107.5H112.574C113.954 107.5 115.074 106.38 115.074 105C115.074 105 115.074 45.175 115.074 45ZM65.0742 67.5H85.0742V82.5H65.0742V67.5ZM60.0742 82.5H40.0742V67.5H60.0742V82.5ZM85.0742 62.5H65.0742V47.5H85.0742V62.5ZM90.0742 47.5H110.074V62.5H90.0742V47.5ZM90.0742 67.5H110.074V82.5H90.0742V67.5ZM60.0742 47.5V62.5H40.0742V47.5H60.0742ZM40.0742 102.5V87.5H60.0742V102.5H40.0742ZM65.0742 87.5H85.0742V102.5H65.0742V87.5ZM90.0742 102.5V87.5H110.074V102.5H90.0742Z" fill="#8AF2FF"/>
<path id="Vector_3" d="M125.082 97.5001H116.107L108.107 47.1076C107.915 45.8926 106.867 45.0001 105.637 45.0001C104.407 45.0001 103.36 45.8926 103.167 47.1076L95.1695 97.5001H91.017L85.8645 72.0051C85.6295 70.8401 84.607 70.0001 83.4145 70.0001C82.222 70.0001 81.1995 70.8401 80.9645 72.0051L75.8145 97.5001H71.6445L63.6595 49.5901C63.4595 48.3851 62.4145 47.5001 61.192 47.5001C59.9695 47.5001 58.927 48.3851 58.727 49.5901L50.742 97.5001H46.6345L41.4345 67.0776C41.2295 65.8801 40.1895 65.0001 38.972 65.0001C37.7545 65.0001 36.712 65.8801 36.507 67.0776L31.307 97.5001H25.082V102.5H33.4145C34.632 102.5 35.6745 101.62 35.8795 100.423L38.9695 82.3376L42.0595 100.423C42.267 101.62 43.3095 102.5 44.527 102.5H52.8595C54.082 102.5 55.1245 101.615 55.3245 100.41L61.192 65.2076L67.0595 100.41C67.262 101.615 68.3045 102.5 69.527 102.5H77.8595C79.0495 102.5 80.0745 101.66 80.3095 100.495L83.4145 85.1251L86.5195 100.495C86.757 101.66 87.782 102.5 88.972 102.5H97.3045C98.5345 102.5 99.582 101.608 99.7745 100.393L105.64 63.4476L111.505 100.393C111.695 101.608 112.742 102.5 113.972 102.5H125.082V97.5001Z" fill="#0D62AB"/>
</g>
<rect x="2.58203" y="2.5" width="145" height="145" rx="7.5" stroke="#D5EAF6" stroke-width="5"/>
</g>
<defs>
<linearGradient id="paint0_linear_14_9763" x1="75.082" y1="5" x2="75.082" y2="145" gradientUnits="userSpaceOnUse">
<stop stop-color="#199AE0"/>
<stop offset="0.472222" stop-color="#0D5176" stop-opacity="0.527778"/>
<stop offset="0.940972" stop-color="#12A6F7" stop-opacity="0.465278"/>
<stop offset="1" stop-opacity="0"/>
</linearGradient>
</defs>
</svg>
