<svg width="151" height="150" viewBox="0 0 151 150" fill="none" xmlns="http://www.w3.org/2000/svg">
<g id="estimates">
<rect x="2.58203" y="2.5" width="145" height="145" rx="7.5" fill="white"/>
<rect x="2.58203" y="2.5" width="145" height="145" rx="7.5" fill="url(#paint0_linear_14_9827)" fill-opacity="0.2"/>
<g id="Group">
<path id="Vector" d="M109.293 53.9473V119.737C109.293 122.645 106.937 125 104.029 125H35.6084C32.7005 125 30.3452 122.645 30.3452 119.737V30.2632C30.3452 27.3553 32.7005 25 35.6084 25H80.3452L109.293 53.9473Z" fill="#50E6FF"/>
<path id="Vector_2" d="M80.3457 25V48.6842C80.3457 51.5921 82.701 53.9473 85.6089 53.9473H109.293L80.3457 25Z" fill="url(#paint1_linear_14_9827)"/>
<path id="Vector_3" opacity="0.05" d="M109.291 67.1052H80.3432C77.4353 67.1052 75.0801 69.4605 75.0801 72.3684V119.737C75.0801 122.645 77.4353 125 80.3432 125H109.291V67.1052Z" fill="black"/>
<path id="Vector_4" opacity="0.07" d="M109.284 69.7369H81.6524C79.4735 69.7369 77.7051 71.5054 77.7051 73.6843V121.053C77.7051 123.232 79.4735 125 81.6524 125H109.284V69.7369Z" fill="black"/>
<path id="Vector_5" d="M117.188 72.3683H82.9773C81.5246 72.3683 80.3457 73.5472 80.3457 74.9999V122.368C80.3457 123.821 81.5246 125 82.9773 125H117.188C118.64 125 119.819 123.821 119.819 122.368V74.9999C119.819 73.5472 118.64 72.3683 117.188 72.3683Z" fill="url(#paint2_linear_14_9827)"/>
<path id="Vector_6" d="M113.243 85.5264H86.9271C86.2008 85.5264 85.6113 84.937 85.6113 84.2107V78.9475C85.6113 78.2212 86.2008 77.6317 86.9271 77.6317H113.243C113.969 77.6317 114.559 78.2212 114.559 78.9475V84.2107C114.559 84.937 113.969 85.5264 113.243 85.5264Z" fill="url(#paint3_linear_14_9827)"/>
<path id="Vector_7" d="M102.714 98.6842H97.4506C96.7242 98.6842 96.1348 98.0947 96.1348 97.3684V92.1052C96.1348 91.3789 96.7242 90.7894 97.4506 90.7894H102.714C103.44 90.7894 104.029 91.3789 104.029 92.1052V97.3684C104.029 98.0947 103.44 98.6842 102.714 98.6842Z" fill="#CAD2D9"/>
<path id="Vector_8" d="M92.1903 98.6842H86.9271C86.2008 98.6842 85.6113 98.0947 85.6113 97.3684V92.1052C85.6113 91.3789 86.2008 90.7894 86.9271 90.7894H92.1903C92.9166 90.7894 93.5061 91.3789 93.5061 92.1052V97.3684C93.5061 98.0947 92.9166 98.6842 92.1903 98.6842Z" fill="#CAD2D9"/>
<path id="Vector_9" d="M102.714 109.211H97.4506C96.7242 109.211 96.1348 108.621 96.1348 107.895V102.632C96.1348 101.905 96.7242 101.316 97.4506 101.316H102.714C103.44 101.316 104.029 101.905 104.029 102.632V107.895C104.029 108.621 103.44 109.211 102.714 109.211Z" fill="#CAD2D9"/>
<path id="Vector_10" d="M92.1903 109.211H86.9271C86.2008 109.211 85.6113 108.621 85.6113 107.895V102.632C85.6113 101.905 86.2008 101.316 86.9271 101.316H92.1903C92.9166 101.316 93.5061 101.905 93.5061 102.632V107.895C93.5061 108.621 92.9166 109.211 92.1903 109.211Z" fill="#CAD2D9"/>
<path id="Vector_11" d="M102.714 119.737H97.4506C96.7242 119.737 96.1348 119.147 96.1348 118.421V113.158C96.1348 112.432 96.7242 111.842 97.4506 111.842H102.714C103.44 111.842 104.029 112.432 104.029 113.158V118.421C104.029 119.147 103.44 119.737 102.714 119.737Z" fill="#CAD2D9"/>
<path id="Vector_12" d="M92.1903 119.737H86.9271C86.2008 119.737 85.6113 119.147 85.6113 118.421V113.158C85.6113 112.432 86.2008 111.842 86.9271 111.842H92.1903C92.9166 111.842 93.5061 112.432 93.5061 113.158V118.421C93.5061 119.147 92.9166 119.737 92.1903 119.737Z" fill="#CAD2D9"/>
<path id="Vector_13" d="M113.229 98.6842H107.966C107.24 98.6842 106.65 98.0947 106.65 97.3684V92.1052C106.65 91.3789 107.24 90.7894 107.966 90.7894H113.229C113.956 90.7894 114.545 91.3789 114.545 92.1052V97.3684C114.545 98.0947 113.956 98.6842 113.229 98.6842Z" fill="#CAD2D9"/>
<path id="Vector_14" d="M113.229 119.737H107.966C107.24 119.737 106.65 119.147 106.65 118.421V102.632C106.65 101.905 107.24 101.316 107.966 101.316H113.229C113.956 101.316 114.545 101.905 114.545 102.632V118.421C114.545 119.147 113.956 119.737 113.229 119.737Z" fill="url(#paint4_linear_14_9827)"/>
</g>
<rect x="2.58203" y="2.5" width="145" height="145" rx="7.5" stroke="#D5EAF6" stroke-width="5"/>
</g>
<defs>
<linearGradient id="paint0_linear_14_9827" x1="75.082" y1="5" x2="75.082" y2="145" gradientUnits="userSpaceOnUse">
<stop stop-color="#199AE0"/>
<stop offset="0.472222" stop-color="#0D5176" stop-opacity="0.527778"/>
<stop offset="0.940972" stop-color="#12A6F7" stop-opacity="0.465278"/>
<stop offset="1" stop-opacity="0"/>
</linearGradient>
<linearGradient id="paint1_linear_14_9827" x1="81.7378" y1="52.5552" x2="95.0825" y2="39.2105" gradientUnits="userSpaceOnUse">
<stop stop-color="#3079D6"/>
<stop offset="1" stop-color="#297CD2"/>
</linearGradient>
<linearGradient id="paint2_linear_14_9827" x1="81.901" y1="73.5235" x2="116.998" y2="122.095" gradientUnits="userSpaceOnUse">
<stop stop-color="#899198"/>
<stop offset="1" stop-color="#787E85"/>
</linearGradient>
<linearGradient id="paint3_linear_14_9827" x1="88.8955" y1="76.3949" x2="113.688" y2="87.8791" gradientUnits="userSpaceOnUse">
<stop stop-color="#4FE5FF"/>
<stop offset="1" stop-color="#2EB7ED"/>
</linearGradient>
<linearGradient id="paint4_linear_14_9827" x1="110.598" y1="102.039" x2="110.598" y2="119.266" gradientUnits="userSpaceOnUse">
<stop stop-color="#11498A"/>
<stop offset="1" stop-color="#0F417A"/>
</linearGradient>
</defs>
</svg>
