<svg width="151" height="150" viewBox="0 0 151 150" fill="none" xmlns="http://www.w3.org/2000/svg">
<g id="filter">
<rect x="2.58203" y="2.5" width="145" height="145" rx="7.5" fill="white"/>
<rect x="2.58203" y="2.5" width="145" height="145" rx="7.5" fill="url(#paint0_linear_14_9886)" fill-opacity="0.2"/>
<g id="Group">
<path id="Vector" d="M120.082 37.4999H30.082C27.3195 37.4999 25.082 35.2624 25.082 32.4999C25.082 29.7374 27.3195 27.4999 30.082 27.4999H120.082C122.845 27.4999 125.082 29.7374 125.082 32.4999C125.082 35.2624 122.845 37.4999 120.082 37.4999Z" fill="url(#paint1_linear_14_9886)"/>
<path id="Vector_2" d="M85.082 80H65.082L32.582 37.5H117.582L85.082 80Z" fill="url(#paint2_linear_14_9886)"/>
<path id="Vector_3" d="M85.082 79.9999H65.082V119.997C65.082 121.855 67.037 123.065 68.6995 122.232L82.317 115.422C84.012 114.577 85.082 112.845 85.082 110.952V79.9999Z" fill="url(#paint3_linear_14_9886)"/>
</g>
<rect x="2.58203" y="2.5" width="145" height="145" rx="7.5" stroke="#D5EAF6" stroke-width="5"/>
</g>
<defs>
<linearGradient id="paint0_linear_14_9886" x1="75.082" y1="5" x2="75.082" y2="145" gradientUnits="userSpaceOnUse">
<stop stop-color="#199AE0"/>
<stop offset="0.472222" stop-color="#0D5176" stop-opacity="0.527778"/>
<stop offset="0.940972" stop-color="#12A6F7" stop-opacity="0.465278"/>
<stop offset="1" stop-opacity="0"/>
</linearGradient>
<linearGradient id="paint1_linear_14_9886" x1="25.082" y1="32.4999" x2="125.082" y2="32.4999" gradientUnits="userSpaceOnUse">
<stop stop-color="#42A3F2"/>
<stop offset="1" stop-color="#42A4EB"/>
</linearGradient>
<linearGradient id="paint2_linear_14_9886" x1="34.0645" y1="58.75" x2="119.635" y2="58.75" gradientUnits="userSpaceOnUse">
<stop stop-color="#3079D6"/>
<stop offset="1" stop-color="#297CD2"/>
</linearGradient>
<linearGradient id="paint3_linear_14_9886" x1="65.082" y1="101.25" x2="85.082" y2="101.25" gradientUnits="userSpaceOnUse">
<stop stop-color="#1D59B3"/>
<stop offset="1" stop-color="#195BBC"/>
</linearGradient>
</defs>
</svg>
