<svg width="151" height="150" viewBox="0 0 151 150" fill="none" xmlns="http://www.w3.org/2000/svg">
<g id="fit-columns">
<rect x="2.58203" y="2.5" width="145" height="145" rx="7.5" fill="white"/>
<rect x="2.58203" y="2.5" width="145" height="145" rx="7.5" fill="url(#paint0_linear_14_9891)" fill-opacity="0.2"/>
<g id="Group">
<path id="Vector" d="M25.082 77.5V117.812C25.082 120.402 27.427 122.5 30.3195 122.5H119.845C122.737 122.5 125.082 120.402 125.082 117.812V77.5L75.082 72.5L25.082 77.5Z" fill="#50E6FF"/>
<path id="Vector_2" d="M52.582 59.9999H47.582V122.5H52.582V59.9999Z" fill="#35C1F1"/>
<path id="Vector_3" d="M77.5742 59.9999H72.5742V122.5H77.5742V59.9999Z" fill="#35C1F1"/>
<path id="Vector_4" d="M102.574 59.9999H97.5742V122.5H102.574V59.9999Z" fill="#35C1F1"/>
<path id="Vector_5" d="M25.082 77.4999V64.9999C25.082 62.2374 27.3195 59.9999 30.082 59.9999H120.082C122.845 59.9999 125.082 62.2374 125.082 64.9999V77.4999H25.082Z" fill="#199BE2"/>
<path id="Vector_6" d="M52.582 59.9999H47.582V77.4999H52.582V59.9999Z" fill="#0077D1"/>
<path id="Vector_7" d="M77.5742 59.9999H72.5742V77.4999H77.5742V59.9999Z" fill="#0077D1"/>
<path id="Vector_8" d="M102.574 59.9999H97.5742V77.4999H102.574V59.9999Z" fill="#0077D1"/>
<path id="Vector_9" d="M123.832 55H121.332C120.642 55 120.082 54.44 120.082 53.75V28.75C120.082 28.06 120.642 27.5 121.332 27.5H123.832C124.522 27.5 125.082 28.06 125.082 28.75V53.75C125.082 54.44 124.522 55 123.832 55Z" fill="#AD4BD5"/>
<path id="Vector_10" d="M28.832 55H26.332C25.642 55 25.082 54.44 25.082 53.75V28.75C25.082 28.06 25.642 27.5 26.332 27.5H28.832C29.522 27.5 30.082 28.06 30.082 28.75V53.75C30.082 54.44 29.522 55 28.832 55Z" fill="#AD4BD5"/>
<path id="Vector_11" d="M114.28 39.4649L105.137 30.5024C104.187 29.5724 102.587 30.2449 102.587 31.5749V37.4999H47.587V31.5749C47.587 30.2449 45.987 29.5724 45.037 30.5024L35.8945 39.4649C34.8945 40.4449 34.8945 42.0549 35.8945 43.0349L45.037 51.9974C45.987 52.9274 47.587 52.2549 47.587 50.9249V44.9999H102.587V50.9249C102.587 52.2549 104.187 52.9274 105.137 51.9974L114.28 43.0349C115.28 42.0549 115.28 40.4449 114.28 39.4649Z" fill="url(#paint1_linear_14_9891)"/>
</g>
<rect x="2.58203" y="2.5" width="145" height="145" rx="7.5" stroke="#D5EAF6" stroke-width="5"/>
</g>
<defs>
<linearGradient id="paint0_linear_14_9891" x1="75.082" y1="5" x2="75.082" y2="145" gradientUnits="userSpaceOnUse">
<stop stop-color="#199AE0"/>
<stop offset="0.472222" stop-color="#0D5176" stop-opacity="0.527778"/>
<stop offset="0.940972" stop-color="#12A6F7" stop-opacity="0.465278"/>
<stop offset="1" stop-opacity="0"/>
</linearGradient>
<linearGradient id="paint1_linear_14_9891" x1="35.1445" y1="41.2499" x2="115.03" y2="41.2499" gradientUnits="userSpaceOnUse">
<stop stop-color="#C965EB"/>
<stop offset="1" stop-color="#C767E5"/>
</linearGradient>
</defs>
</svg>
