<svg width="151" height="150" viewBox="0 0 151 150" fill="none" xmlns="http://www.w3.org/2000/svg">
<g id="folder-tree">
<rect x="2.58203" y="2.5" width="145" height="145" rx="7.5" fill="white"/>
<rect x="2.58203" y="2.5" width="145" height="145" rx="7.5" fill="url(#paint0_linear_14_9908)" fill-opacity="0.2"/>
<g id="Group">
<path id="Vector" d="M86.627 72.4357V67.3072H45.5992V44.2291H40.4707V110.899C40.4707 112.315 41.6195 113.463 43.0349 113.463H86.627V108.335H45.5992V72.4357H86.627Z" fill="url(#paint1_linear_14_9908)"/>
<path id="Vector_2" d="M59.6973 28.8437H43.0297L41.2168 27.0307C40.7347 26.5487 40.0834 26.2794 39.4039 26.2794H27.6443C26.2289 26.2794 25.0801 27.4282 25.0801 28.8437V50.6397C25.0801 52.7552 26.8109 54.486 28.9264 54.486H59.6973C61.8128 54.486 63.5436 52.7552 63.5436 50.6397V32.69C63.5436 30.5745 61.8128 28.8437 59.6973 28.8437Z" fill="url(#paint2_linear_14_9908)"/>
<path id="Vector_3" d="M59.6973 28.8436L43.0297 28.7871L40.9758 30.7154C40.4988 31.1591 39.8732 31.4078 39.2193 31.4078H27.6443C26.2289 31.4078 25.0801 32.5566 25.0801 33.972V50.6396C25.0801 52.7551 26.8109 54.4859 28.9264 54.4859H59.6973C61.8128 54.4859 63.5436 52.7551 63.5436 50.6396V32.6899C63.5436 30.6385 61.7487 28.8436 59.6973 28.8436Z" fill="url(#paint3_linear_14_9908)"/>
<path id="Vector_4" d="M121.237 57.0501H104.57L102.757 55.2372C102.275 54.7551 101.623 54.4859 100.944 54.4859H89.1844C87.7689 54.4859 86.6201 55.6347 86.6201 57.0501V78.8462C86.6201 80.9616 88.351 82.6925 90.4665 82.6925H121.237C123.353 82.6925 125.084 80.9616 125.084 78.8462V60.8965C125.084 58.781 123.353 57.0501 121.237 57.0501Z" fill="url(#paint4_linear_14_9908)"/>
<path id="Vector_5" d="M121.237 57.0502L104.57 56.9937L102.516 58.922C102.039 59.3657 101.413 59.6144 100.759 59.6144H89.1844C87.7689 59.6144 86.6201 60.7632 86.6201 62.1786V78.8462C86.6201 80.9617 88.351 82.6925 90.4665 82.6925H121.237C123.353 82.6925 125.084 80.9617 125.084 78.8462V60.8965C125.084 58.8451 123.289 57.0502 121.237 57.0502Z" fill="url(#paint5_linear_14_9908)"/>
<path id="Vector_6" d="M121.237 98.0781H104.57L102.757 96.2651C102.275 95.7831 101.623 95.5138 100.944 95.5138H89.1844C87.7689 95.5138 86.6201 96.6626 86.6201 98.0781V119.874C86.6201 121.99 88.351 123.72 90.4665 123.72H121.237C123.353 123.72 125.084 121.99 125.084 119.874V101.924C125.084 99.8089 123.353 98.0781 121.237 98.0781Z" fill="url(#paint6_linear_14_9908)"/>
<path id="Vector_7" d="M121.237 98.0782L104.57 98.0218L102.516 99.9501C102.039 100.394 101.413 100.642 100.759 100.642H89.1844C87.7689 100.642 86.6201 101.791 86.6201 103.207V119.874C86.6201 121.99 88.351 123.721 90.4665 123.721H121.237C123.353 123.721 125.084 121.99 125.084 119.874V101.925C125.084 99.8732 123.289 98.0782 121.237 98.0782Z" fill="url(#paint7_linear_14_9908)"/>
</g>
<rect x="2.58203" y="2.5" width="145" height="145" rx="7.5" stroke="#D5EAF6" stroke-width="5"/>
</g>
<defs>
<linearGradient id="paint0_linear_14_9908" x1="75.082" y1="5" x2="75.082" y2="145" gradientUnits="userSpaceOnUse">
<stop stop-color="#199AE0"/>
<stop offset="0.472222" stop-color="#0D5176" stop-opacity="0.527778"/>
<stop offset="0.940972" stop-color="#12A6F7" stop-opacity="0.465278"/>
<stop offset="1" stop-opacity="0"/>
</linearGradient>
<linearGradient id="paint1_linear_14_9908" x1="21.4543" y1="78.8463" x2="87.3629" y2="78.8463" gradientUnits="userSpaceOnUse">
<stop stop-color="#A1AAB3"/>
<stop offset="1" stop-color="#8F979E"/>
</linearGradient>
<linearGradient id="paint2_linear_14_9908" x1="25.0801" y1="40.3827" x2="63.5436" y2="40.3827" gradientUnits="userSpaceOnUse">
<stop stop-color="#EBA600"/>
<stop offset="1" stop-color="#C28200"/>
</linearGradient>
<linearGradient id="paint3_linear_14_9908" x1="41.7604" y1="28.3666" x2="46.5145" y2="53.1756" gradientUnits="userSpaceOnUse">
<stop stop-color="#FFD869"/>
<stop offset="1" stop-color="#FEC52B"/>
</linearGradient>
<linearGradient id="paint4_linear_14_9908" x1="86.6201" y1="68.5892" x2="125.084" y2="68.5892" gradientUnits="userSpaceOnUse">
<stop stop-color="#EBA600"/>
<stop offset="1" stop-color="#C28200"/>
</linearGradient>
<linearGradient id="paint5_linear_14_9908" x1="103.3" y1="56.5732" x2="108.055" y2="81.3822" gradientUnits="userSpaceOnUse">
<stop stop-color="#FFD869"/>
<stop offset="1" stop-color="#FEC52B"/>
</linearGradient>
<linearGradient id="paint6_linear_14_9908" x1="86.6201" y1="109.617" x2="125.084" y2="109.617" gradientUnits="userSpaceOnUse">
<stop stop-color="#EBA600"/>
<stop offset="1" stop-color="#C28200"/>
</linearGradient>
<linearGradient id="paint7_linear_14_9908" x1="103.3" y1="97.6013" x2="108.055" y2="122.41" gradientUnits="userSpaceOnUse">
<stop stop-color="#FFD869"/>
<stop offset="1" stop-color="#FEC52B"/>
</linearGradient>
</defs>
</svg>
