<svg width="151" height="150" viewBox="0 0 151 150" fill="none" xmlns="http://www.w3.org/2000/svg">
<g id="geography">
<rect x="2.58203" y="2.5" width="145" height="145" rx="7.5" fill="white"/>
<rect x="2.58203" y="2.5" width="145" height="145" rx="7.5" fill="url(#paint0_linear_14_9940)" fill-opacity="0.2"/>
<g id="Group">
<path id="Vector" d="M125.082 75C125.082 102.613 102.695 125 75.082 125C47.4695 125 25.082 102.613 25.082 75C25.082 47.3875 47.4695 25 75.082 25C102.695 25 125.082 47.3875 125.082 75Z" fill="url(#paint1_radial_14_9940)"/>
<path id="Vector_2" d="M117.583 75C117.583 68.8375 116.585 62.955 114.843 57.5H121.87C121.23 55.7875 120.505 54.1175 119.688 52.5H112.983C105.97 36.2125 91.6355 25 75.083 25C58.5305 25 44.1955 36.2125 37.1805 52.5H30.4755C29.658 54.1175 28.9355 55.7875 28.293 57.5H35.3205C33.5805 62.955 32.583 68.8375 32.583 75C32.583 81.1625 33.5805 87.045 35.323 92.5H28.2955C28.9355 94.2125 29.6605 95.8825 30.478 97.5H37.183C44.198 113.787 58.533 125 75.0855 125C91.638 125 105.973 113.787 112.988 97.5H119.693C120.51 95.8825 121.233 94.2125 121.875 92.5H114.848C116.585 87.045 117.583 81.1625 117.583 75ZM112.583 75C112.583 81.2025 111.53 87.1175 109.63 92.5H93.858C94.6655 86.835 95.083 80.875 95.083 75C95.083 69.125 94.668 63.165 93.858 57.5H109.63C111.53 62.8825 112.583 68.7975 112.583 75ZM75.083 120C70.243 120 65.0305 111.387 62.203 97.5H87.963C85.1355 111.387 79.923 120 75.083 120ZM61.333 92.5C60.5455 87.2175 60.083 81.3475 60.083 75C60.083 68.6525 60.5455 62.7825 61.333 57.5H88.833C89.6205 62.7825 90.083 68.6525 90.083 75C90.083 81.3475 89.6205 87.2175 88.833 92.5H61.333ZM75.083 30C79.923 30 85.1355 38.6125 87.963 52.5H62.203C65.0305 38.6125 70.243 30 75.083 30ZM107.508 52.5H93.028C91.4305 44.175 88.9205 36.82 85.543 31.8175C94.888 35.0825 102.718 42.595 107.508 52.5ZM64.623 31.8175C61.248 36.8225 58.7355 44.175 57.138 52.5H42.658C47.448 42.595 55.278 35.0825 64.623 31.8175ZM37.583 75C37.583 68.7975 38.6355 62.8825 40.5355 57.5H56.308C55.498 63.165 55.083 69.125 55.083 75C55.083 80.875 55.498 86.835 56.308 92.5H40.5355C38.6355 87.1175 37.583 81.2025 37.583 75ZM42.658 97.5H57.138C58.7355 105.825 61.2455 113.18 64.623 118.182C55.278 114.917 47.448 107.405 42.658 97.5ZM85.543 118.182C88.918 113.177 91.4305 105.825 93.028 97.5H107.508C102.718 107.405 94.888 114.917 85.543 118.182Z" fill="url(#paint2_radial_14_9940)"/>
</g>
<rect x="2.58203" y="2.5" width="145" height="145" rx="7.5" stroke="#D5EAF6" stroke-width="5"/>
</g>
<defs>
<linearGradient id="paint0_linear_14_9940" x1="75.082" y1="5" x2="75.082" y2="145" gradientUnits="userSpaceOnUse">
<stop stop-color="#199AE0"/>
<stop offset="0.472222" stop-color="#0D5176" stop-opacity="0.527778"/>
<stop offset="0.940972" stop-color="#12A6F7" stop-opacity="0.465278"/>
<stop offset="1" stop-opacity="0"/>
</linearGradient>
<radialGradient id="paint1_radial_14_9940" cx="0" cy="0" r="1" gradientUnits="userSpaceOnUse" gradientTransform="translate(40.237 38.595) scale(102.29)">
<stop stop-color="#6FCEFC"/>
<stop offset="1" stop-color="#167CF7"/>
</radialGradient>
<radialGradient id="paint2_radial_14_9940" cx="0" cy="0" r="1" gradientUnits="userSpaceOnUse" gradientTransform="translate(41.823 35.125) scale(102.295 102.295)">
<stop offset="0.001" stop-color="#54C0F5"/>
<stop offset="0.998" stop-color="#0B69DB"/>
</radialGradient>
</defs>
</svg>
