<svg width="151" height="150" viewBox="0 0 151 150" fill="none" xmlns="http://www.w3.org/2000/svg">
<g id="get-help">
<rect x="2.58203" y="2.5" width="145" height="145" rx="7.5" fill="white"/>
<rect x="2.58203" y="2.5" width="145" height="145" rx="7.5" fill="url(#paint0_linear_14_9944)" fill-opacity="0.2"/>
<g id="Group">
<path id="Vector" d="M62.0415 25C44.3673 25 30.0403 39.327 30.0403 57.0012C30.0403 61.8819 31.1639 66.4877 33.1195 70.6266C33.0887 70.6977 33.0508 70.7546 33.0247 70.8352L25.5175 87.9167C24.5882 90.0311 26.8236 92.1432 28.8811 91.0955L43.9786 83.4081C49.1201 86.9329 55.3355 89.0024 62.0415 89.0024C79.7156 89.0024 94.0427 74.6753 94.0427 57.0012C94.0427 39.327 79.7156 25 62.0415 25Z" fill="url(#paint1_linear_14_9944)"/>
<path id="Vector_2" d="M124.647 121.546L115.979 101.824C118.622 96.9554 120.122 91.3753 120.122 85.4468C120.122 66.4641 104.733 51.0751 85.7506 51.0751C66.7679 51.0751 51.3789 66.4641 51.3789 85.4468C51.3789 104.429 66.7679 119.818 85.7506 119.818C91.9446 119.818 97.7403 118.157 102.759 115.291L121.284 124.723C123.341 125.771 125.577 123.659 124.647 121.546Z" fill="url(#paint2_linear_14_9944)"/>
<path id="Vector_3" d="M82.5836 93.1483C82.4271 92.7406 82.0905 91.5317 82.0905 90.3346C82.0905 83.5219 89.1047 83.2611 89.1047 78.2073C89.1047 75.0261 85.9615 74.8294 85.3997 74.8294C81.8298 74.8294 79.0421 76.8704 77.8711 77.9015V70.8399C79.0753 70.1217 81.8298 68.6828 86.2222 68.6828C96.3915 68.6828 96.5195 75.6733 96.5195 77.1738C96.5195 85.2428 88.1921 85.8425 88.1921 91.0125C88.1921 92.0911 88.5832 92.8804 88.7539 93.1459H82.5836V93.1483ZM86.0065 104.24C84.0698 104.24 82.0241 103.031 82.0241 100.686C82.0241 98.3396 84.1504 97.1757 86.0065 97.1757C87.8626 97.1757 89.9249 98.2163 89.9249 100.686C89.9249 103.156 87.9432 104.24 86.0065 104.24Z" fill="white"/>
</g>
<rect x="2.58203" y="2.5" width="145" height="145" rx="7.5" stroke="#D5EAF6" stroke-width="5"/>
</g>
<defs>
<linearGradient id="paint0_linear_14_9944" x1="75.082" y1="5" x2="75.082" y2="145" gradientUnits="userSpaceOnUse">
<stop stop-color="#199AE0"/>
<stop offset="0.472222" stop-color="#0D5176" stop-opacity="0.527778"/>
<stop offset="0.940972" stop-color="#12A6F7" stop-opacity="0.465278"/>
<stop offset="1" stop-opacity="0"/>
</linearGradient>
<linearGradient id="paint1_linear_14_9944" x1="41.8855" y1="31.9549" x2="69.8166" y2="91.1215" gradientUnits="userSpaceOnUse">
<stop stop-color="#0176D0"/>
<stop offset="1" stop-color="#22A5E2"/>
</linearGradient>
<linearGradient id="paint2_linear_14_9944" x1="68.2186" y1="55.8777" x2="110.752" y2="127.612" gradientUnits="userSpaceOnUse">
<stop stop-color="#0176D0"/>
<stop offset="1" stop-color="#16538C"/>
</linearGradient>
</defs>
</svg>
