<svg width="151" height="150" viewBox="0 0 151 150" fill="none" xmlns="http://www.w3.org/2000/svg">
<g id="good-quality">
<rect x="2.58203" y="2.5" width="145" height="145" rx="7.5" fill="white"/>
<rect x="2.58203" y="2.5" width="145" height="145" rx="7.5" fill="url(#paint0_linear_14_9949)" fill-opacity="0.2"/>
<g id="Group">
<path id="Vector" d="M125.082 75C125.082 102.613 102.695 125 75.082 125C47.4695 125 25.082 102.613 25.082 75C25.082 47.3875 47.4695 25 75.082 25C102.695 25 125.082 47.3875 125.082 75Z" fill="url(#paint1_linear_14_9949)"/>
<path id="Vector_2" opacity="0.05" d="M99.222 72.5C99.7895 71.33 100.082 70.06 100.082 68.75C100.082 63.925 96.157 60 91.332 60H75.5345L76.1445 56.335C77.557 55.05 80.082 52.11 80.082 47.5C80.082 43.365 76.717 40 72.582 40H71.382L53.917 61.83C51.4445 64.9225 50.082 68.8025 50.082 72.76V90C50.082 95.515 54.567 100 60.082 100H86.332C91.157 100 95.082 96.075 95.082 91.25C95.082 90.82 95.047 90.39 94.982 89.96C96.6345 88.3325 97.582 86.1175 97.582 83.75C97.582 83.32 97.547 82.89 97.482 82.46C99.1345 80.8325 100.082 78.6175 100.082 76.25C100.082 74.94 99.7895 73.67 99.222 72.5Z" fill="black"/>
<path id="Vector_3" opacity="0.07" d="M78.8345 47.5001C78.8345 44.4926 76.6745 41.9876 73.8445 41.4676C73.4495 41.3276 72.362 42.0801 71.9195 42.0801L71.022 42.4501L54.892 62.6101C52.592 65.4851 51.332 69.0801 51.332 72.7601V90.0001C51.332 94.4776 54.722 98.1726 59.062 98.6451C59.392 98.7126 60.572 98.7501 60.922 98.7501H85.357C85.757 98.7501 87.1195 98.6951 87.487 98.5951C91.067 98.0876 93.832 94.9876 93.832 91.2501C93.832 90.8026 93.787 90.3601 93.702 89.9276C93.772 89.6751 93.8245 89.4226 93.8645 89.1701C95.382 87.8451 96.332 85.8976 96.332 83.7501C96.332 83.3026 96.287 82.8601 96.202 82.4301C96.272 82.1776 96.327 81.9251 96.3645 81.6701C97.882 80.3451 98.8295 78.3976 98.8295 76.2501C98.8295 74.8876 98.4395 73.6076 97.7595 72.5001C98.4395 71.3926 98.8295 70.1126 98.8295 68.7501C98.8295 65.3651 96.502 62.5176 93.4095 61.7776C92.7895 61.4426 89.8395 61.2501 89.087 61.2501H75.062L74.2345 60.1676L74.847 56.4851C75.007 56.3401 75.3295 55.3351 75.5245 55.1076C76.202 54.3226 78.8345 51.7876 78.8345 47.5001Z" fill="black"/>
<path id="Vector_4" d="M97.582 68.75C97.582 65.2975 94.7845 62.5 91.332 62.5H72.582L73.832 55C73.832 55 77.582 52.5 77.582 47.5C77.582 44.7375 75.3445 42.5 72.582 42.5L55.8695 63.3925C53.742 66.05 52.582 69.355 52.582 72.7625V90C52.582 94.1425 55.9395 97.5 60.082 97.5H86.332C89.7845 97.5 92.582 94.7025 92.582 91.25C92.582 90.4625 92.4195 89.7175 92.1545 89.025C93.9095 87.9175 95.082 85.9775 95.082 83.75C95.082 82.9625 94.9195 82.2175 94.6545 81.525C96.4095 80.4175 97.582 78.4775 97.582 76.25C97.582 74.8375 97.0945 73.5475 96.3045 72.5C97.0945 71.4525 97.582 70.1625 97.582 68.75Z" fill="url(#paint2_linear_14_9949)"/>
</g>
<rect x="2.58203" y="2.5" width="145" height="145" rx="7.5" stroke="#D5EAF6" stroke-width="5"/>
</g>
<defs>
<linearGradient id="paint0_linear_14_9949" x1="75.082" y1="5" x2="75.082" y2="145" gradientUnits="userSpaceOnUse">
<stop stop-color="#199AE0"/>
<stop offset="0.472222" stop-color="#0D5176" stop-opacity="0.527778"/>
<stop offset="0.940972" stop-color="#12A6F7" stop-opacity="0.465278"/>
<stop offset="1" stop-opacity="0"/>
</linearGradient>
<linearGradient id="paint1_linear_14_9949" x1="39.727" y1="39.645" x2="110.437" y2="110.355" gradientUnits="userSpaceOnUse">
<stop stop-color="#21AD64"/>
<stop offset="1" stop-color="#088242"/>
</linearGradient>
<linearGradient id="paint2_linear_14_9949" x1="60.812" y1="44.53" x2="82.9145" y2="98.69" gradientUnits="userSpaceOnUse">
<stop stop-color="#FFCF54"/>
<stop offset="0.261" stop-color="#FDCB4D"/>
<stop offset="0.639" stop-color="#F7C13A"/>
<stop offset="1" stop-color="#F0B421"/>
</linearGradient>
</defs>
</svg>
