<svg width="151" height="150" viewBox="0 0 151 150" fill="none" xmlns="http://www.w3.org/2000/svg">
<g id="group-folder">
<rect x="2.58203" y="2.5" width="145" height="145" rx="7.5" fill="white"/>
<rect x="2.58203" y="2.5" width="145" height="145" rx="7.5" fill="url(#paint0_linear_14_9977)" fill-opacity="0.2"/>
<g id="Group">
<path id="Vector" d="M71.4767 36.1704L65.7134 30.4071C64.4362 29.1299 62.7023 28.4118 60.8933 28.4118H29.6292C27.118 28.4118 25.084 30.4457 25.084 32.957V47.7288L29.6292 96.5896C29.6292 99.1008 31.6631 101.135 34.1744 101.135H106.897C109.409 101.135 111.443 99.1008 111.443 96.5896V44.3199C111.443 41.8087 109.409 39.7747 106.897 39.7747L74.6902 37.5022C73.4857 37.5022 72.329 37.0226 71.4767 36.1704Z" fill="url(#paint1_linear_14_9977)"/>
<path id="Vector_2" d="M65.0498 45.2608L72.4767 37.8339C72.688 37.6226 72.9767 37.5021 73.2789 37.5021H111.443C113.954 37.5021 115.988 39.5361 115.988 42.0473V101.135C115.988 103.646 113.954 105.68 111.443 105.68H29.6292C27.118 105.68 25.084 103.646 25.084 101.135V47.7288C25.084 47.1016 25.593 46.5925 26.2203 46.5925H61.8364C63.0409 46.5925 64.1976 46.113 65.0498 45.2608Z" fill="url(#paint2_linear_14_9977)"/>
<path id="Vector_3" opacity="0.05" d="M111.435 82.954C106.412 82.954 102.344 87.022 102.344 92.0444C102.344 97.0214 106.344 101.067 111.321 101.135H111.435C113.094 101.135 114.639 100.68 115.98 99.9076V84.1812C114.639 83.4085 113.094 82.954 111.435 82.954ZM111.435 101.135H111.321C108.98 101.135 106.639 101.657 104.526 102.657C101.072 98.794 96.1855 96.5896 90.9812 96.5896C84.2771 96.5896 78.3911 100.248 75.2549 105.68H111.435C113.707 105.68 115.616 103.998 115.934 101.794C114.503 101.385 113.003 101.135 111.435 101.135ZM90.9812 73.8636C84.7089 73.8636 79.6183 78.9543 79.6183 85.2266C79.6183 91.499 84.7089 96.5896 90.9812 96.5896C97.2536 96.5896 102.344 91.499 102.344 85.2266C102.344 78.9543 97.2536 73.8636 90.9812 73.8636Z" fill="black"/>
<path id="Vector_4" opacity="0.07" d="M111.445 84.0903C107.059 84.0903 103.491 87.6582 103.491 92.0443C103.491 96.4305 107.059 99.9984 111.445 99.9984C113.127 99.9984 114.718 99.4757 115.991 98.544V85.5447C114.718 84.613 113.127 84.0903 111.445 84.0903ZM111.332 102.271C108.855 102.271 106.423 102.885 104.264 104.089C101.037 100.089 96.1508 97.7258 90.992 97.7258C84.9241 97.7258 79.6063 100.885 76.6064 105.68H111.445C113.332 105.68 114.945 104.521 115.627 102.885C114.263 102.498 112.832 102.271 111.332 102.271ZM90.992 74.9999C85.3559 74.9999 80.7653 79.5905 80.7653 85.2266C80.7653 90.8626 85.3559 95.4532 90.992 95.4532C96.628 95.4532 101.219 90.8626 101.219 85.2266C101.219 79.5905 96.628 74.9999 90.992 74.9999Z" fill="black"/>
<path id="Vector_5" d="M90.9859 94.3171C96.0064 94.3171 100.076 90.2472 100.076 85.2267C100.076 80.2062 96.0064 76.1363 90.9859 76.1363C85.9654 76.1363 81.8955 80.2062 81.8955 85.2267C81.8955 90.2472 85.9654 94.3171 90.9859 94.3171Z" fill="url(#paint3_linear_14_9977)"/>
<path id="Vector_6" d="M111.331 103.407C103.895 103.407 97.8086 109.393 97.8086 116.711V119.593C97.8086 120.702 98.7108 121.588 99.838 121.588H123.053C124.178 121.588 125.08 120.702 125.08 119.593V116.711C124.855 109.173 118.769 103.407 111.331 103.407Z" fill="#0078D4"/>
<path id="Vector_7" d="M90.9912 98.8623C82.2053 98.8623 75.083 105.985 75.083 114.77V119.316C75.083 120.57 76.1011 121.588 77.3556 121.588H104.627C105.881 121.588 106.899 120.57 106.899 119.316V114.77C106.899 105.985 99.777 98.8623 90.9912 98.8623Z" fill="url(#paint4_linear_14_9977)"/>
<path id="Vector_8" d="M111.447 98.8621C115.212 98.8621 118.264 95.8097 118.264 92.0443C118.264 88.279 115.212 85.2266 111.447 85.2266C107.681 85.2266 104.629 88.279 104.629 92.0443C104.629 95.8097 107.681 98.8621 111.447 98.8621Z" fill="#0078D4"/>
</g>
<rect x="2.58203" y="2.5" width="145" height="145" rx="7.5" stroke="#D5EAF6" stroke-width="5"/>
</g>
<defs>
<linearGradient id="paint0_linear_14_9977" x1="75.082" y1="5" x2="75.082" y2="145" gradientUnits="userSpaceOnUse">
<stop stop-color="#199AE0"/>
<stop offset="0.472222" stop-color="#0D5176" stop-opacity="0.527778"/>
<stop offset="0.940972" stop-color="#12A6F7" stop-opacity="0.465278"/>
<stop offset="1" stop-opacity="0"/>
</linearGradient>
<linearGradient id="paint1_linear_14_9977" x1="68.2633" y1="27.7868" x2="68.2633" y2="45.4744" gradientUnits="userSpaceOnUse">
<stop stop-color="#EBA600"/>
<stop offset="1" stop-color="#C28200"/>
</linearGradient>
<linearGradient id="paint2_linear_14_9977" x1="70.5359" y1="37.1703" x2="70.5359" y2="105.641" gradientUnits="userSpaceOnUse">
<stop stop-color="#FFD869"/>
<stop offset="1" stop-color="#FEC52B"/>
</linearGradient>
<linearGradient id="paint3_linear_14_9977" x1="81.8955" y1="85.2267" x2="100.076" y2="85.2267" gradientUnits="userSpaceOnUse">
<stop stop-color="#32BDEF"/>
<stop offset="1" stop-color="#1EA2E4"/>
</linearGradient>
<linearGradient id="paint4_linear_14_9977" x1="75.083" y1="110.225" x2="106.899" y2="110.225" gradientUnits="userSpaceOnUse">
<stop stop-color="#32BDEF"/>
<stop offset="1" stop-color="#1EA2E4"/>
</linearGradient>
</defs>
</svg>
