<svg width="151" height="150" viewBox="0 0 151 150" fill="none" xmlns="http://www.w3.org/2000/svg">
<g id="heart-with-pulse">
<rect x="2.58203" y="2.5" width="145" height="145" rx="7.5" fill="white"/>
<rect x="2.58203" y="2.5" width="145" height="145" rx="7.5" fill="url(#paint0_linear_14_10036)" fill-opacity="0.2"/>
<g id="Group">
<path id="Vector" d="M75.082 45.8437C75.082 45.8437 86.2749 33.3438 100.082 33.3438C113.889 33.3438 125.082 44.689 125.082 58.3437C125.082 81.8414 88.2582 108.672 77.813 115.808C76.1582 116.939 74.0058 116.939 72.3511 115.808C61.9058 108.672 25.082 81.8414 25.082 58.3437C25.082 44.689 36.2749 33.3438 50.082 33.3438C63.8892 33.3438 75.082 45.8437 75.082 45.8437Z" fill="url(#paint1_linear_14_10036)"/>
<path id="Vector_2" d="M81.4395 83.9056C81.7038 84.7675 82.4371 85.4056 83.3276 85.5508C84.2061 85.6889 85.1157 85.3246 85.6442 84.596L89.9895 78.5817H100.082C101.399 78.5817 102.463 77.5151 102.463 76.2008C102.463 74.8865 101.399 73.8198 100.082 73.8198H88.7728C88.0085 73.8198 87.2919 74.1865 86.8419 74.8079L84.5776 77.9413L80.3323 64.2103C80.0323 63.2341 79.1419 62.5603 78.1204 62.5341C77.1085 62.4937 76.1776 63.1317 75.8228 64.0913L68.2228 84.7079L63.749 53.5413C63.5942 52.4556 62.7157 51.6198 61.6276 51.5103C60.518 51.3937 59.5133 52.0508 59.1466 53.0817L51.4942 74.6175L45.2061 65.3413C44.7347 64.6484 43.9299 64.2436 43.1061 64.2984C42.2704 64.3436 41.5228 64.8222 41.1323 65.5579L36.7442 73.8198H29.6133C30.4823 75.4175 31.4514 77.0056 32.5085 78.5817H38.1776C39.0585 78.5817 39.868 78.096 40.28 77.3175L43.4871 71.2841L50.1942 81.1841C50.6966 81.927 51.5538 82.3294 52.468 82.2103C53.3585 82.0984 54.1085 81.4913 54.4085 80.646L60.4061 63.7651L64.8466 94.6936C65.0014 95.7722 65.8704 96.6079 66.9538 96.7246C67.0395 96.7317 67.1228 96.7365 67.2061 96.7365C68.1919 96.7365 69.0895 96.1222 69.4395 95.1794L77.8609 72.3341L81.4395 83.9056Z" fill="#FFEBEE"/>
<path id="Vector_3" d="M101.266 71.439C98.6349 71.439 96.5039 73.5699 96.5039 76.2009C96.5039 78.8318 98.6349 80.9628 101.266 80.9628C103.897 80.9628 106.028 78.8318 106.028 76.2009C106.028 73.5699 103.897 71.439 101.266 71.439Z" fill="#FFEBEE"/>
</g>
<rect x="2.58203" y="2.5" width="145" height="145" rx="7.5" stroke="#D5EAF6" stroke-width="5"/>
</g>
<defs>
<linearGradient id="paint0_linear_14_10036" x1="75.082" y1="5" x2="75.082" y2="145" gradientUnits="userSpaceOnUse">
<stop stop-color="#199AE0"/>
<stop offset="0.472222" stop-color="#0D5176" stop-opacity="0.527778"/>
<stop offset="0.940972" stop-color="#12A6F7" stop-opacity="0.465278"/>
<stop offset="1" stop-opacity="0"/>
</linearGradient>
<linearGradient id="paint1_linear_14_10036" x1="55.0701" y1="28.2652" x2="102.065" y2="100.639" gradientUnits="userSpaceOnUse">
<stop stop-color="#F44F5A"/>
<stop offset="0.443" stop-color="#EE3D4A"/>
<stop offset="1" stop-color="#E52030"/>
</linearGradient>
</defs>
</svg>
