<svg width="151" height="150" viewBox="0 0 151 150" fill="none" xmlns="http://www.w3.org/2000/svg">
<g id="help">
<rect x="2.58203" y="2.5" width="145" height="145" rx="7.5" fill="white"/>
<rect x="2.58203" y="2.5" width="145" height="145" rx="7.5" fill="url(#paint0_linear_14_10055)" fill-opacity="0.2"/>
<g id="Group">
<path id="Vector" d="M125.082 75C125.082 102.613 102.695 125 75.082 125C47.4695 125 25.082 102.613 25.082 75C25.082 47.3875 47.4695 25 75.082 25C102.695 25 125.082 47.3875 125.082 75Z" fill="url(#paint1_linear_14_10055)"/>
<path id="Vector_2" opacity="0.05" d="M84.2733 98.5299C84.2733 103.337 80.6783 106.697 75.5258 106.697C71.2358 106.697 66.6758 103.835 66.6758 98.5299C66.6758 93.2699 71.2358 90.4299 75.5258 90.4299C79.8733 90.4299 84.2733 93.2124 84.2733 98.5299Z" fill="black"/>
<path id="Vector_3" opacity="0.05" d="M75.858 45C69.433 45 64.263 47.21 61.733 48.54C60.6805 49.0925 60.043 50.19 60.043 51.3775V64.1575C60.043 65.3975 61.5105 66.0325 62.423 65.19C64.933 62.87 69.258 59.7975 74.5505 59.7975C75.823 59.7975 77.958 60.1725 77.958 62.6825C77.958 65.155 76.4705 66.575 73.8455 68.87C70.6955 71.6225 66.7755 75.05 66.7755 82.02C66.7755 84.185 67.183 85.9625 67.583 87.1825C67.9455 88.285 68.998 89.0075 70.1605 89.0075C70.1605 89.0075 78.748 88.9925 79.978 88.9925C82.873 88.9925 82.6105 86.8675 82.2255 85.815C81.978 85.135 81.498 84.085 81.498 83.105C81.498 80.7125 83.1805 79.17 86.1555 76.6475C89.9955 73.3925 94.7755 69.34 94.7755 61.035C94.7805 50.995 87.708 45 75.858 45Z" fill="black"/>
<path id="Vector_4" opacity="0.07" d="M75.5258 91.6798C79.1783 91.6798 83.0233 93.8998 83.0233 98.5298C83.0233 102.905 79.6458 105.447 75.5258 105.447C71.8383 105.447 67.9258 103.052 67.9258 98.5298C67.9258 94.0298 71.9008 91.6798 75.5258 91.6798Z" fill="black"/>
<path id="Vector_5" opacity="0.07" d="M62.548 49.5074C64.923 48.2374 69.5755 46.2499 75.863 46.2499C89.893 46.2499 93.533 54.8199 93.533 61.0399C93.533 68.6549 89.2205 72.4174 85.523 75.5549C83.063 77.6399 81.4555 79.2174 80.7505 81.2999C79.973 83.5974 81.113 85.3299 81.1405 85.4149C81.4605 86.3399 81.188 87.7549 79.1005 87.7549C77.3605 87.7574 71.308 87.7599 71.308 87.7599C70.728 87.7599 69.008 87.3999 68.8255 86.8474C68.5205 85.9749 68.068 84.2324 68.0355 82.3374C68.0305 82.1274 68.033 81.9149 68.0355 81.7049C68.1705 74.9574 72.3555 71.9449 75.5305 69.0374C77.758 67.0149 79.2105 65.3549 79.2105 62.6824C79.2105 60.3424 77.6805 59.5174 76.488 59.1174C74.9855 58.6124 73.358 58.6999 72.433 58.8699C69.0805 59.4924 66.218 60.9774 64.2105 62.4574C63.253 63.1624 62.0955 63.1499 61.753 62.7949C61.563 62.9424 61.293 61.9474 61.293 61.7049V52.0349C61.293 51.8324 61.3455 51.2099 61.4005 51.0249C61.588 50.3999 61.948 49.8274 62.548 49.5074Z" fill="black"/>
<path id="Vector_6" d="M70.0708 86.5125C69.8208 85.865 69.2858 83.9325 69.2858 82.025C69.2858 71.1625 80.4683 70.745 80.4683 62.6875C80.4683 57.615 75.4558 57.3025 74.5583 57.3025C68.8658 57.3025 64.4208 60.5575 62.5508 62.2025V50.945C64.4708 49.795 68.8658 47.5 75.8683 47.5C92.0833 47.5 92.2883 58.645 92.2883 61.04C92.2883 73.905 79.0108 74.86 79.0108 83.1075C79.0108 84.8275 79.6333 86.0875 79.9083 86.51H70.0708V86.5125ZM75.5258 104.198C72.4383 104.198 69.1758 102.272 69.1758 98.53C69.1758 94.79 72.5658 92.93 75.5258 92.93C78.4858 92.93 81.7733 94.59 81.7733 98.53C81.7733 102.47 78.6133 104.198 75.5258 104.198Z" fill="white"/>
</g>
<rect x="2.58203" y="2.5" width="145" height="145" rx="7.5" stroke="#D5EAF6" stroke-width="5"/>
</g>
<defs>
<linearGradient id="paint0_linear_14_10055" x1="75.082" y1="5" x2="75.082" y2="145" gradientUnits="userSpaceOnUse">
<stop stop-color="#199AE0"/>
<stop offset="0.472222" stop-color="#0D5176" stop-opacity="0.527778"/>
<stop offset="0.940972" stop-color="#12A6F7" stop-opacity="0.465278"/>
<stop offset="1" stop-opacity="0"/>
</linearGradient>
<linearGradient id="paint1_linear_14_10055" x1="39.727" y1="39.645" x2="110.437" y2="110.355" gradientUnits="userSpaceOnUse">
<stop stop-color="#0176D0"/>
<stop offset="1" stop-color="#0A85D9"/>
</linearGradient>
</defs>
</svg>
