<svg width="151" height="150" viewBox="0 0 151 150" fill="none" xmlns="http://www.w3.org/2000/svg">
<g id="hospital-folder">
<rect x="2.58203" y="2.5" width="145" height="145" rx="7.5" fill="white"/>
<rect x="2.58203" y="2.5" width="145" height="145" rx="7.5" fill="url(#paint0_linear_14_10071)" fill-opacity="0.2"/>
<g id="Group">
<path id="Vector" d="M76.0677 42.6524L70.0297 36.6143C68.6916 35.2762 66.8749 34.5238 64.9796 34.5238H29.8439C27.213 34.5238 25.082 36.6548 25.082 39.2857V110.714C25.082 113.345 27.213 115.476 29.8439 115.476H120.32C122.951 115.476 125.082 113.345 125.082 110.714V48.8095C125.082 46.1786 122.951 44.0476 120.32 44.0476H79.4344C78.1725 44.0476 76.9606 43.5452 76.0677 42.6524Z" fill="url(#paint1_linear_14_10071)"/>
<path id="Vector_2" d="M69.3344 52.1759L77.1154 44.395C77.3368 44.1736 77.6392 44.0474 77.9558 44.0474H120.32C122.951 44.0474 125.082 46.1783 125.082 48.8093V110.714C125.082 113.345 122.951 115.476 120.32 115.476H29.8439C27.213 115.476 25.082 113.345 25.082 110.714V54.7616C25.082 54.1045 25.6154 53.5712 26.2725 53.5712H65.9677C67.2297 53.5712 68.4416 53.0688 69.3344 52.1759Z" fill="url(#paint2_linear_14_10071)"/>
<path id="Vector_3" d="M75.0791 108.333C88.2287 108.333 98.8886 97.6735 98.8886 84.5239C98.8886 71.3742 88.2287 60.7144 75.0791 60.7144C61.9294 60.7144 51.2695 71.3742 51.2695 84.5239C51.2695 97.6735 61.9294 108.333 75.0791 108.333Z" fill="url(#paint3_linear_14_10071)"/>
<path id="Vector_4" d="M81.308 84.5236L88.8318 79.2545C89.3699 78.8783 89.5008 78.1355 89.1246 77.5974L86.3937 73.6974C86.0175 73.1593 85.2746 73.0283 84.7365 73.4045L78.6532 77.664V70.2378C78.6532 69.5807 78.1199 69.0474 77.4627 69.0474H72.7008C72.0437 69.0474 71.5103 69.5807 71.5103 70.2378V77.664L65.427 73.4045C64.8889 73.0283 64.1461 73.1593 63.7699 73.6974L61.0389 77.5974C60.6627 78.1355 60.7937 78.8783 61.3318 79.2545L68.8556 84.5236L61.3318 89.7926C60.7937 90.1688 60.6627 90.9117 61.0389 91.4497L63.7699 95.3497C64.1461 95.8878 64.8889 96.0188 65.427 95.6426L71.5103 91.3831V98.8093C71.5103 99.4664 72.0437 99.9997 72.7008 99.9997H77.4627C78.1199 99.9997 78.6532 99.4664 78.6532 98.8093V91.3831L84.7365 95.6426C85.2746 96.0188 86.0175 95.8878 86.3937 95.3497L89.1246 91.4497C89.5008 90.9117 89.3699 90.1688 88.8318 89.7926L81.308 84.5236Z" fill="white"/>
</g>
<rect x="2.58203" y="2.5" width="145" height="145" rx="7.5" stroke="#D5EAF6" stroke-width="5"/>
</g>
<defs>
<linearGradient id="paint0_linear_14_10071" x1="75.082" y1="5" x2="75.082" y2="145" gradientUnits="userSpaceOnUse">
<stop stop-color="#199AE0"/>
<stop offset="0.472222" stop-color="#0D5176" stop-opacity="0.527778"/>
<stop offset="0.940972" stop-color="#12A6F7" stop-opacity="0.465278"/>
<stop offset="1" stop-opacity="0"/>
</linearGradient>
<linearGradient id="paint1_linear_14_10071" x1="75.082" y1="33.8286" x2="75.082" y2="53.5167" gradientUnits="userSpaceOnUse">
<stop stop-color="#EBA600"/>
<stop offset="1" stop-color="#C28200"/>
</linearGradient>
<linearGradient id="paint2_linear_14_10071" x1="75.082" y1="43.6997" x2="75.082" y2="115.435" gradientUnits="userSpaceOnUse">
<stop stop-color="#FFD869"/>
<stop offset="1" stop-color="#FEC52B"/>
</linearGradient>
<linearGradient id="paint3_linear_14_10071" x1="70.1933" y1="61.0001" x2="79.6624" y2="106.586" gradientUnits="userSpaceOnUse">
<stop stop-color="#0176D0"/>
<stop offset="1" stop-color="#22A5E2"/>
</linearGradient>
</defs>
</svg>
