<svg width="151" height="150" viewBox="0 0 151 150" fill="none" xmlns="http://www.w3.org/2000/svg">
<g id="idea">
<rect x="2.58203" y="2.5" width="145" height="145" rx="7.5" fill="white"/>
<rect x="2.58203" y="2.5" width="145" height="145" rx="7.5" fill="url(#paint0_linear_14_10077)" fill-opacity="0.2"/>
<g id="Group">
<path id="Vector" d="M75.0817 117.683C100.675 117.683 121.423 96.9352 121.423 71.3415C121.423 45.7478 100.675 25 75.0817 25C49.488 25 28.7402 45.7478 28.7402 71.3415C28.7402 96.9352 49.488 117.683 75.0817 117.683Z" fill="url(#paint1_radial_14_10077)"/>
<path id="Vector_2" d="M87.2789 107.927H62.8887C62.8887 109.634 62.8887 112.805 62.8887 112.805C62.8887 119.634 68.2545 125 75.0838 125C81.9131 125 87.2789 119.634 87.2789 112.805C87.2789 112.805 87.2789 109.634 87.2789 107.927Z" fill="url(#paint2_radial_14_10077)"/>
<path id="Vector_3" d="M99.4739 71.3416C99.4739 57.9269 88.4983 46.9513 75.0836 46.9513C61.669 46.9513 50.6934 57.9269 50.6934 71.3416C50.6934 83.5367 62.8885 93.2928 62.8885 105.488V107.927H87.2788V105.488C87.2788 93.2928 99.4739 83.5367 99.4739 71.3416Z" fill="#FEFEFE"/>
</g>
<rect x="2.58203" y="2.5" width="145" height="145" rx="7.5" stroke="#D5EAF6" stroke-width="5"/>
</g>
<defs>
<linearGradient id="paint0_linear_14_10077" x1="75.082" y1="5" x2="75.082" y2="145" gradientUnits="userSpaceOnUse">
<stop stop-color="#199AE0"/>
<stop offset="0.472222" stop-color="#0D5176" stop-opacity="0.527778"/>
<stop offset="0.940972" stop-color="#12A6F7" stop-opacity="0.465278"/>
<stop offset="1" stop-opacity="0"/>
</linearGradient>
<radialGradient id="paint1_radial_14_10077" cx="0" cy="0" r="1" gradientUnits="userSpaceOnUse" gradientTransform="translate(75.0817 71.3415) scale(46.3415)">
<stop offset="0.078" stop-color="white"/>
<stop offset="0.202" stop-color="#FFF5A3"/>
<stop offset="0.216" stop-color="#FFF392"/>
<stop offset="0.263" stop-color="#FFEE5F"/>
<stop offset="0.307" stop-color="#FFEA37"/>
<stop offset="0.347" stop-color="#FFE71A"/>
<stop offset="0.382" stop-color="#FFE508"/>
<stop offset="0.408" stop-color="#FFE402"/>
<stop offset="0.545" stop-color="#FDDE02"/>
<stop offset="0.736" stop-color="#F9CC01"/>
<stop offset="0.956" stop-color="#F2AF00"/>
<stop offset="1" stop-color="#F0A800"/>
</radialGradient>
<radialGradient id="paint2_radial_14_10077" cx="0" cy="0" r="1" gradientUnits="userSpaceOnUse" gradientTransform="translate(69.4179 106.617) scale(24.5512 24.5512)">
<stop stop-color="#6E757B"/>
<stop offset="1" stop-color="#4A4E52"/>
</radialGradient>
</defs>
</svg>
