<svg width="151" height="150" viewBox="0 0 151 150" fill="none" xmlns="http://www.w3.org/2000/svg">
<g id="idea-window">
<rect x="2.58203" y="2.5" width="145" height="145" rx="7.5" fill="white"/>
<rect x="2.58203" y="2.5" width="145" height="145" rx="7.5" fill="url(#paint0_linear_14_10082)" fill-opacity="0.2"/>
<g id="Group">
<path id="Vector" d="M25.082 115V47.5H125.082V115C125.082 117.75 122.832 120 120.082 120H30.082C27.332 120 25.082 117.75 25.082 115Z" fill="#50E6FF"/>
<path id="Vector_2" d="M125.082 35V47.5H25.082V35C25.082 32.25 27.332 30 30.082 30H120.082C122.832 30 125.082 32.25 125.082 35Z" fill="url(#paint1_linear_14_10082)"/>
<path id="Vector_3" d="M33.832 42.5C35.9031 42.5 37.582 40.8211 37.582 38.75C37.582 36.6789 35.9031 35 33.832 35C31.761 35 30.082 36.6789 30.082 38.75C30.082 40.8211 31.761 42.5 33.832 42.5Z" fill="url(#paint2_linear_14_10082)"/>
<path id="Vector_4" d="M46.3242 42.5C48.3953 42.5 50.0742 40.8211 50.0742 38.75C50.0742 36.6789 48.3953 35 46.3242 35C44.2532 35 42.5742 36.6789 42.5742 38.75C42.5742 40.8211 44.2532 42.5 46.3242 42.5Z" fill="url(#paint3_linear_14_10082)"/>
<path id="Vector_5" d="M58.832 42.5C60.9031 42.5 62.582 40.8211 62.582 38.75C62.582 36.6789 60.9031 35 58.832 35C56.761 35 55.082 36.6789 55.082 38.75C55.082 40.8211 56.761 42.5 58.832 42.5Z" fill="url(#paint4_linear_14_10082)"/>
<path id="Vector_6" d="M75.3164 107.5C89.1235 107.5 100.316 96.307 100.316 82.4999C100.316 68.6928 89.1235 57.4999 75.3164 57.4999C61.5093 57.4999 50.3164 68.6928 50.3164 82.4999C50.3164 96.307 61.5093 107.5 75.3164 107.5Z" fill="url(#paint5_radial_14_10082)"/>
<path id="Vector_7" d="M81.7861 103.11H68.3711C68.3711 104.05 68.3711 105.792 68.3711 105.792C68.3711 109.55 71.3236 112.5 75.0786 112.5C78.8336 112.5 81.7861 109.55 81.7861 105.792C81.7861 105.792 81.7861 104.05 81.7861 103.11Z" fill="url(#paint6_radial_14_10082)"/>
<path id="Vector_8" d="M88.322 83.245C88.322 75.96 82.362 70 75.077 70C67.792 70 61.832 75.96 61.832 83.245C61.832 89.8675 68.4545 95.165 68.4545 101.787V103.112H81.6995V101.787C81.6995 95.1625 88.322 89.865 88.322 83.245Z" fill="#FEFEFE"/>
</g>
<rect x="2.58203" y="2.5" width="145" height="145" rx="7.5" stroke="#D5EAF6" stroke-width="5"/>
</g>
<defs>
<linearGradient id="paint0_linear_14_10082" x1="75.082" y1="5" x2="75.082" y2="145" gradientUnits="userSpaceOnUse">
<stop stop-color="#199AE0"/>
<stop offset="0.472222" stop-color="#0D5176" stop-opacity="0.527778"/>
<stop offset="0.940972" stop-color="#12A6F7" stop-opacity="0.465278"/>
<stop offset="1" stop-opacity="0"/>
</linearGradient>
<linearGradient id="paint1_linear_14_10082" x1="26.617" y1="29.3525" x2="122.422" y2="48.8325" gradientUnits="userSpaceOnUse">
<stop stop-color="#0077D2"/>
<stop offset="1" stop-color="#0B59A2"/>
</linearGradient>
<linearGradient id="paint2_linear_14_10082" x1="31.9595" y1="36.04" x2="35.162" y2="40.6725" gradientUnits="userSpaceOnUse">
<stop stop-color="#75DAFF"/>
<stop offset="1" stop-color="#49BEF1"/>
</linearGradient>
<linearGradient id="paint3_linear_14_10082" x1="44.4517" y1="36.04" x2="47.6542" y2="40.6725" gradientUnits="userSpaceOnUse">
<stop stop-color="#75DAFF"/>
<stop offset="1" stop-color="#49BEF1"/>
</linearGradient>
<linearGradient id="paint4_linear_14_10082" x1="56.9595" y1="36.04" x2="60.162" y2="40.6725" gradientUnits="userSpaceOnUse">
<stop stop-color="#75DAFF"/>
<stop offset="1" stop-color="#49BEF1"/>
</linearGradient>
<radialGradient id="paint5_radial_14_10082" cx="0" cy="0" r="1" gradientUnits="userSpaceOnUse" gradientTransform="translate(75.3164 82.4999) scale(25)">
<stop offset="0.078" stop-color="white"/>
<stop offset="0.202" stop-color="#FFF5A3"/>
<stop offset="0.216" stop-color="#FFF392"/>
<stop offset="0.263" stop-color="#FFEE5F"/>
<stop offset="0.307" stop-color="#FFEA37"/>
<stop offset="0.347" stop-color="#FFE71A"/>
<stop offset="0.382" stop-color="#FFE508"/>
<stop offset="0.408" stop-color="#FFE402"/>
<stop offset="0.545" stop-color="#FDDE02"/>
<stop offset="0.736" stop-color="#F9CC01"/>
<stop offset="0.956" stop-color="#F2AF00"/>
<stop offset="1" stop-color="#F0A800"/>
</radialGradient>
<radialGradient id="paint6_radial_14_10082" cx="0" cy="0" r="1" gradientUnits="userSpaceOnUse" gradientTransform="translate(71.9611 102.39) scale(13.5025)">
<stop stop-color="#6E757B"/>
<stop offset="1" stop-color="#4A4E52"/>
</radialGradient>
</defs>
</svg>
