<svg width="151" height="150" viewBox="0 0 151 150" fill="none" xmlns="http://www.w3.org/2000/svg">
<g id="insert">
<rect x="2.58203" y="2.5" width="145" height="145" rx="7.5" fill="white"/>
<rect x="2.58203" y="2.5" width="145" height="145" rx="7.5" fill="url(#paint0_linear_14_10126)" fill-opacity="0.2"/>
<g id="Group">
<path id="Vector" d="M88.9924 84.3262L76.8924 95.6809C75.8948 96.6786 74.2734 96.6786 73.2757 95.6809L61.171 84.3262C60.3638 83.5214 60.9353 82.1429 62.0734 82.1429H88.0876C89.2257 82.1429 89.7972 83.5214 88.9924 84.3262Z" fill="url(#paint1_linear_14_10126)"/>
<path id="Vector_2" d="M77.4582 32.1429H72.6963C71.382 32.1429 70.3153 33.2095 70.3153 34.5238V82.1428H62.0772C60.9344 82.1428 60.3629 83.5238 61.1725 84.3333L73.2677 95.6905C74.2677 96.6667 75.8867 96.6667 76.8867 95.6905L79.8391 92.9286V34.5238C79.8391 33.2095 78.7725 32.1429 77.4582 32.1429Z" fill="url(#paint2_linear_14_10126)"/>
<path id="Vector_3" d="M103.653 117.857H46.5106C38.632 117.857 32.2249 111.45 32.2249 103.571V72.619C32.2249 71.3047 31.1582 70.2381 29.8439 70.2381C27.2154 70.2381 25.082 68.1047 25.082 65.4762C25.082 62.8476 27.2154 60.7143 29.8439 60.7143C36.4082 60.7143 41.7487 66.0547 41.7487 72.619V103.571C41.7487 106.198 43.8844 108.333 46.5106 108.333H103.653C106.28 108.333 108.415 106.198 108.415 103.571V72.619C108.415 66.0547 113.756 60.7143 120.32 60.7143C122.949 60.7143 125.082 62.8476 125.082 65.4762C125.082 68.1047 122.949 70.2381 120.32 70.2381C119.006 70.2381 117.939 71.3047 117.939 72.619V103.571C117.939 111.45 111.532 117.857 103.653 117.857Z" fill="#64717C"/>
</g>
<rect x="2.58203" y="2.5" width="145" height="145" rx="7.5" stroke="#D5EAF6" stroke-width="5"/>
</g>
<defs>
<linearGradient id="paint0_linear_14_10126" x1="75.082" y1="5" x2="75.082" y2="145" gradientUnits="userSpaceOnUse">
<stop stop-color="#199AE0"/>
<stop offset="0.472222" stop-color="#0D5176" stop-opacity="0.527778"/>
<stop offset="0.940972" stop-color="#12A6F7" stop-opacity="0.465278"/>
<stop offset="1" stop-opacity="0"/>
</linearGradient>
<linearGradient id="paint1_linear_14_10126" x1="89.9853" y1="89.2857" x2="79.3138" y2="89.2857" gradientUnits="userSpaceOnUse">
<stop offset="0.365" stop-color="#199AE0"/>
<stop offset="0.699" stop-color="#1898DE"/>
<stop offset="0.819" stop-color="#1691D8"/>
<stop offset="0.905" stop-color="#1186CC"/>
<stop offset="0.974" stop-color="#0A75BC"/>
<stop offset="1" stop-color="#076CB3"/>
</linearGradient>
<linearGradient id="paint2_linear_14_10126" x1="61.6248" y1="35" x2="86.5629" y2="103.519" gradientUnits="userSpaceOnUse">
<stop stop-color="#32BDEF"/>
<stop offset="1" stop-color="#1EA2E4"/>
</linearGradient>
</defs>
</svg>
