<svg width="151" height="150" viewBox="0 0 151 150" fill="none" xmlns="http://www.w3.org/2000/svg">
<g id="insert-column">
<rect x="2.58203" y="2.5" width="145" height="145" rx="7.5" fill="white"/>
<rect x="2.58203" y="2.5" width="145" height="145" rx="7.5" fill="url(#paint0_linear_14_10131)" fill-opacity="0.2"/>
<g id="Group">
<path id="Vector" d="M25.082 57.6614V112.775C25.082 115.13 27.2138 117.036 29.8434 117.036H120.321C122.95 117.036 125.082 115.13 125.082 112.775V57.6614C125.082 55.3068 122.95 53.4 120.321 53.4H29.8434C27.2138 53.4 25.082 55.3068 25.082 57.6614Z" fill="#50E6FF"/>
<path id="Vector_2" d="M100.082 53.4H75.082V117.036H100.082V53.4Z" fill="#199BE2"/>
<path id="Vector_3" d="M52.3619 53.4H47.8164V117.036H52.3619V53.4Z" fill="#35C1F1"/>
<path id="Vector_4" d="M100.755 32.9636H74.423C72.9935 32.9636 72.2799 34.6909 73.289 35.7L85.6049 48.0159C86.7003 49.1113 88.4776 49.1113 89.573 48.0159L101.889 35.7C102.898 34.6909 102.184 32.9636 100.755 32.9636Z" fill="url(#paint1_linear_14_10131)"/>
</g>
<rect x="2.58203" y="2.5" width="145" height="145" rx="7.5" stroke="#D5EAF6" stroke-width="5"/>
</g>
<defs>
<linearGradient id="paint0_linear_14_10131" x1="75.082" y1="5" x2="75.082" y2="145" gradientUnits="userSpaceOnUse">
<stop stop-color="#199AE0"/>
<stop offset="0.472222" stop-color="#0D5176" stop-opacity="0.527778"/>
<stop offset="0.940972" stop-color="#12A6F7" stop-opacity="0.465278"/>
<stop offset="1" stop-opacity="0"/>
</linearGradient>
<linearGradient id="paint1_linear_14_10131" x1="82.8094" y1="25.9704" x2="94.4708" y2="46.9432" gradientUnits="userSpaceOnUse">
<stop stop-color="#C965EB"/>
<stop offset="1" stop-color="#C767E5"/>
</linearGradient>
</defs>
</svg>
