<svg width="151" height="150" viewBox="0 0 151 150" fill="none" xmlns="http://www.w3.org/2000/svg">
<g id="internet-folder">
<rect x="2.58203" y="2.5" width="145" height="145" rx="7.5" fill="white"/>
<rect x="2.58203" y="2.5" width="145" height="145" rx="7.5" fill="url(#paint0_linear_14_10154)" fill-opacity="0.2"/>
<g id="Group">
<path id="Vector" d="M76.0677 42.6524L70.0297 36.6143C68.6916 35.2762 66.8749 34.5238 64.9796 34.5238H29.8439C27.213 34.5238 25.082 36.6548 25.082 39.2857V110.714C25.082 113.345 27.213 115.476 29.8439 115.476H120.32C122.951 115.476 125.082 113.345 125.082 110.714V48.8095C125.082 46.1786 122.951 44.0476 120.32 44.0476H79.4344C78.1725 44.0476 76.9606 43.5452 76.0677 42.6524Z" fill="url(#paint1_linear_14_10154)"/>
<path id="Vector_2" d="M69.3344 52.1759L77.1154 44.395C77.3368 44.1736 77.6392 44.0474 77.9558 44.0474H120.32C122.951 44.0474 125.082 46.1783 125.082 48.8093V110.714C125.082 113.345 122.951 115.476 120.32 115.476H29.8439C27.213 115.476 25.082 113.345 25.082 110.714V54.7616C25.082 54.1045 25.6154 53.5712 26.2725 53.5712H65.9677C67.2297 53.5712 68.4416 53.0688 69.3344 52.1759Z" fill="url(#paint2_linear_14_10154)"/>
<path id="Vector_3" d="M98.8886 84.5239C98.8886 97.6715 88.2267 108.333 75.0791 108.333C61.9314 108.333 51.2695 97.6715 51.2695 84.5239C51.2695 71.3763 61.9314 60.7144 75.0791 60.7144C88.2267 60.7144 98.8886 71.3739 98.8886 84.5239Z" fill="url(#paint3_linear_14_10154)"/>
<path id="Vector_4" d="M74.8052 97.0334C75.0791 97.8453 74.8052 98.9334 74.5314 99.481C74.2648 100.295 73.991 101.383 73.4457 101.924C72.9052 102.469 72.3576 102.743 71.8172 103.014C71.0029 103.555 70.4576 104.641 69.6433 105.462C69.6433 105.729 68.5552 107.112 68.2838 107.112C68.1838 107.164 68.0862 107.214 67.9886 107.262C66.3838 106.762 64.86 106.086 63.4195 105.276C63.41 105.248 63.4005 105.219 63.3886 105.191C63.3886 104.917 63.1219 103.286 63.1219 103.017C62.8481 102.2 62.5767 101.112 62.3029 100.298C61.7624 98.9382 60.6743 97.5786 60.6743 95.9501C60.6743 94.5882 60.9433 93.2358 60.1291 92.1429C59.0433 90.7834 56.8695 90.7834 55.7814 89.9691C54.1481 88.8834 52.5219 87.2548 51.7076 85.6215C51.5124 85.3001 51.3814 85.0025 51.2743 84.7072C51.2767 84.6429 51.2695 84.5858 51.2695 84.5239C51.2695 78.1477 53.791 72.3691 57.8743 68.0953C60.1076 66.2882 64.4624 65.4572 67.1076 66.2548C67.9219 66.5239 70.8529 68.2739 70.8529 69.0905C70.8529 69.3644 70.8529 69.3644 70.5791 69.6358C70.3124 69.9096 70.0386 69.9096 69.7648 69.9096C68.9505 69.9096 66.3838 69.3167 66.11 69.0429C64.4767 68.4977 62.0338 72.031 61.7624 73.1191C61.4886 73.9382 61.4886 75.8382 62.8481 76.112C63.6624 76.112 67.3886 72.9501 67.9362 72.6763C70.11 72.4096 71.7886 74.2715 72.3362 76.1786C73.1505 78.3525 68.5576 80.4525 66.9219 81.0001C66.3814 81.2739 66.11 80.7263 65.5624 81.0001C64.2076 81.5405 63.4052 82.7548 63.2433 84.381C63.1076 85.7548 62.9695 87.0953 62.7029 88.4572C62.4291 88.4572 61.8719 88.4525 61.8719 88.181V87.6405C61.8719 86.8215 61.5981 85.7334 60.7862 85.462C60.5124 85.1953 60.1291 85.6239 59.8552 85.6239C59.041 85.6239 58.2267 84.8048 57.4148 85.3501C56.8695 85.8905 56.3267 86.7096 56.3267 87.5239C56.3267 87.7977 56.3267 88.0691 56.5957 88.3382C57.141 88.612 57.6814 88.0715 58.2291 88.3382C58.7695 88.3382 58.7695 88.8834 58.7695 89.1572C59.3148 89.9715 59.8552 91.0596 60.6743 91.331H66.1076C66.9219 91.6048 68.2814 91.8715 68.8267 92.4191C69.0933 92.9596 69.0933 93.5048 69.3672 94.0477C70.7267 95.4072 72.3529 95.4072 73.9862 95.9525C74.5338 96.2191 74.8052 96.4858 74.8052 97.0334ZM89.9886 65.9763C89.8672 66.012 89.7481 66.0453 89.6314 66.0953C88.8172 66.3691 86.691 70.2905 86.1481 71.1048C85.8743 71.3786 85.6076 71.9191 85.8743 72.1905C85.8743 72.4644 86.1481 72.4644 86.4195 72.4644C86.96 72.7382 87.0338 72.8501 87.5791 73.1167C87.8529 73.1167 88.1195 73.3905 87.8529 73.662C87.8529 73.662 87.8529 73.9358 87.5791 73.9358C86.2195 75.2953 84.86 76.3834 83.5029 77.7382C83.2291 78.0144 83.0481 78.5596 83.0481 78.8263C83.0481 79.1001 83.2291 79.1001 83.2291 79.3715C83.2291 79.6429 82.9552 79.6453 82.6838 79.912C82.1433 80.1858 81.5957 80.4572 81.3243 80.731C81.0576 81.2715 81.3243 82.0905 81.0576 82.6334C80.7838 83.9929 79.9672 85.081 79.4243 86.4405C78.8791 87.2548 78.391 88.0691 77.8457 88.8882C77.8457 89.9739 77.5719 90.7905 78.1195 91.6025C79.4791 93.5072 82.2005 91.6858 84.1029 92.4977C84.6433 92.7715 85.11 92.8191 85.4624 93.312C86.1386 94.2477 86.2195 96.2239 86.4933 97.0405C86.76 98.1286 87.0338 99.2144 87.5791 100.3C87.8505 101.648 88.3814 102.995 88.6576 104.069C94.8362 99.7667 98.8886 92.6215 98.8886 84.5239C98.8886 77.0215 95.41 70.3405 89.9886 65.9763ZM80.5648 67.0905C81.3743 66.5691 81.9172 65.5334 82.1886 64.7572C82.4529 64.2358 83.2672 63.2001 82.9981 62.4239C82.7862 62.0191 81.9314 61.7763 81.3029 61.5644C79.3148 61.0286 77.2362 60.7144 75.0791 60.7144C74.5314 60.7144 73.9957 60.7596 73.4576 60.7977C73.0029 60.9548 72.6148 61.2215 72.4648 61.6477C72.1933 62.9429 73.2743 62.6834 74.3529 62.9429C74.3529 62.9429 74.6243 65.0167 74.6243 65.2786C74.8957 66.5763 74.0838 67.3524 74.0838 68.6453C74.0838 69.4263 74.0838 70.7215 74.6243 71.2405H74.8957C75.1672 71.2405 75.4338 70.9786 75.9743 70.7263C76.7838 70.2048 77.5981 69.4286 78.4052 68.9072C79.2148 68.3882 80.0219 67.6096 80.5648 67.0905Z" fill="url(#paint4_linear_14_10154)"/>
</g>
<rect x="2.58203" y="2.5" width="145" height="145" rx="7.5" stroke="#D5EAF6" stroke-width="5"/>
</g>
<defs>
<linearGradient id="paint0_linear_14_10154" x1="75.082" y1="5" x2="75.082" y2="145" gradientUnits="userSpaceOnUse">
<stop stop-color="#199AE0"/>
<stop offset="0.472222" stop-color="#0D5176" stop-opacity="0.527778"/>
<stop offset="0.940972" stop-color="#12A6F7" stop-opacity="0.465278"/>
<stop offset="1" stop-opacity="0"/>
</linearGradient>
<linearGradient id="paint1_linear_14_10154" x1="75.082" y1="33.8286" x2="75.082" y2="53.5167" gradientUnits="userSpaceOnUse">
<stop stop-color="#EBA600"/>
<stop offset="1" stop-color="#C28200"/>
</linearGradient>
<linearGradient id="paint2_linear_14_10154" x1="75.082" y1="43.6997" x2="75.082" y2="115.435" gradientUnits="userSpaceOnUse">
<stop stop-color="#FFD869"/>
<stop offset="1" stop-color="#FEC52B"/>
</linearGradient>
<linearGradient id="paint3_linear_14_10154" x1="58.2433" y1="67.6882" x2="92.2076" y2="101.65" gradientUnits="userSpaceOnUse">
<stop stop-color="#00BFFE"/>
<stop offset="1" stop-color="#1D55C4"/>
</linearGradient>
<linearGradient id="paint4_linear_14_10154" x1="58.6552" y1="67.4763" x2="92.4886" y2="101.31" gradientUnits="userSpaceOnUse">
<stop stop-color="#84E1FE"/>
<stop offset="1" stop-color="#167CF7"/>
</linearGradient>
</defs>
</svg>
