<svg width="151" height="150" viewBox="0 0 151 150" fill="none" xmlns="http://www.w3.org/2000/svg">
<g id="internet">
<rect x="2.58203" y="2.5" width="145" height="145" rx="7.5" fill="white"/>
<rect x="2.58203" y="2.5" width="145" height="145" rx="7.5" fill="url(#paint0_linear_14_10147)" fill-opacity="0.2"/>
<g id="Group">
<path id="Vector" d="M125.082 75C125.082 102.613 102.695 125 75.082 125C47.4695 125 25.082 102.613 25.082 75C25.082 47.3875 47.4695 25 75.082 25C102.695 25 125.082 47.3875 125.082 75Z" fill="url(#paint1_radial_14_10147)"/>
<path id="Vector_2" d="M117.583 75C117.583 68.8375 116.585 62.955 114.843 57.5H121.87C121.23 55.7875 120.505 54.1175 119.688 52.5H112.983C105.97 36.2125 91.6355 25 75.083 25C58.5305 25 44.1955 36.2125 37.1805 52.5H30.4755C29.658 54.1175 28.9355 55.7875 28.293 57.5H35.3205C33.5805 62.955 32.583 68.8375 32.583 75C32.583 81.1625 33.5805 87.045 35.323 92.5H28.2955C28.9355 94.2125 29.6605 95.8825 30.478 97.5H37.183C44.198 113.787 58.533 125 75.0855 125C91.638 125 105.973 113.787 112.988 97.5H119.693C120.51 95.8825 121.233 94.2125 121.875 92.5H114.848C116.585 87.045 117.583 81.1625 117.583 75ZM112.583 75C112.583 81.2025 111.53 87.1175 109.63 92.5H93.858C94.6655 86.835 95.083 80.875 95.083 75C95.083 69.125 94.668 63.165 93.858 57.5H109.63C111.53 62.8825 112.583 68.7975 112.583 75ZM75.083 120C70.243 120 65.0305 111.387 62.203 97.5H87.963C85.1355 111.387 79.923 120 75.083 120ZM61.333 92.5C60.5455 87.2175 60.083 81.3475 60.083 75C60.083 68.6525 60.5455 62.7825 61.333 57.5H88.833C89.6205 62.7825 90.083 68.6525 90.083 75C90.083 81.3475 89.6205 87.2175 88.833 92.5H61.333ZM75.083 30C79.923 30 85.1355 38.6125 87.963 52.5H62.203C65.0305 38.6125 70.243 30 75.083 30ZM107.508 52.5H93.028C91.4305 44.175 88.9205 36.82 85.543 31.8175C94.888 35.0825 102.718 42.595 107.508 52.5ZM64.623 31.8175C61.248 36.8225 58.7355 44.175 57.138 52.5H42.658C47.448 42.595 55.278 35.0825 64.623 31.8175ZM37.583 75C37.583 68.7975 38.6355 62.8825 40.5355 57.5H56.308C55.498 63.165 55.083 69.125 55.083 75C55.083 80.875 55.498 86.835 56.308 92.5H40.5355C38.6355 87.1175 37.583 81.2025 37.583 75ZM42.658 97.5H57.138C58.7355 105.825 61.2455 113.18 64.623 118.182C55.278 114.917 47.448 107.405 42.658 97.5ZM85.543 118.182C88.918 113.177 91.4305 105.825 93.028 97.5H107.508C102.718 107.405 94.888 114.917 85.543 118.182Z" fill="url(#paint2_radial_14_10147)"/>
<path id="Vector_3" opacity="0.05" d="M103.242 90.755L83.5045 71.0175C82.487 70.0025 80.9795 69.71 79.6795 70.285C78.4045 70.8325 77.582 72.0825 77.582 73.47V101.715C77.582 104.975 81.0645 106.313 83.3045 104.393L87.262 101.095L90.2295 107.92C90.7995 109.22 92.747 110.472 94.7945 109.712L98.157 108.25C99.9245 107.5 100.877 105.663 99.9595 103.685L97.0795 97.055L101.085 96.695C104.275 96.695 105.457 92.95 103.242 90.755Z" fill="black"/>
<path id="Vector_4" opacity="0.07" d="M102.349 91.6376L82.6117 71.9001C81.9467 71.2376 80.9867 71.0751 80.1642 71.4326C79.3642 71.7801 78.8242 72.5626 78.8242 73.4676V101.713C78.8242 103.763 81.0542 104.66 82.4967 103.43L87.7342 99.0626L91.3642 107.418C91.7542 108.313 93.0142 109.05 94.2842 108.565L97.6492 107.103C98.7792 106.62 99.3667 105.418 98.8017 104.183L95.2292 95.9651L100.962 95.4526C102.979 95.4126 103.754 93.0326 102.349 91.6376Z" fill="black"/>
<path id="Vector_5" d="M101.464 92.5226L81.7267 72.7851C81.4167 72.4751 80.9967 72.4351 80.6567 72.5826C80.3292 72.7251 80.0742 73.0451 80.0742 73.4701V101.713C80.0742 102.55 81.0517 103.008 81.6967 102.473L88.2167 97.0351L92.5117 106.918C92.7242 107.408 93.2967 107.633 93.7867 107.42L97.1542 105.955C97.6442 105.743 97.8692 105.17 97.6567 104.68L93.3942 94.8726L100.854 94.2051C101.689 94.1301 102.059 93.1151 101.464 92.5226Z" fill="white"/>
</g>
<rect x="2.58203" y="2.5" width="145" height="145" rx="7.5" stroke="#D5EAF6" stroke-width="5"/>
</g>
<defs>
<linearGradient id="paint0_linear_14_10147" x1="75.082" y1="5" x2="75.082" y2="145" gradientUnits="userSpaceOnUse">
<stop stop-color="#199AE0"/>
<stop offset="0.472222" stop-color="#0D5176" stop-opacity="0.527778"/>
<stop offset="0.940972" stop-color="#12A6F7" stop-opacity="0.465278"/>
<stop offset="1" stop-opacity="0"/>
</linearGradient>
<radialGradient id="paint1_radial_14_10147" cx="0" cy="0" r="1" gradientUnits="userSpaceOnUse" gradientTransform="translate(40.237 38.595) scale(102.29)">
<stop stop-color="#6FCEFC"/>
<stop offset="1" stop-color="#167CF7"/>
</radialGradient>
<radialGradient id="paint2_radial_14_10147" cx="0" cy="0" r="1" gradientUnits="userSpaceOnUse" gradientTransform="translate(41.823 35.125) scale(102.295 102.295)">
<stop offset="0.001" stop-color="#54C0F5"/>
<stop offset="0.998" stop-color="#0B69DB"/>
</radialGradient>
</defs>
</svg>
