<svg width="151" height="150" viewBox="0 0 151 150" fill="none" xmlns="http://www.w3.org/2000/svg">
<g id="invisible">
<rect x="2.58203" y="2.5" width="145" height="145" rx="7.5" fill="white"/>
<rect x="2.58203" y="2.5" width="145" height="145" rx="7.5" fill="url(#paint0_linear_14_10160)" fill-opacity="0.2"/>
<g id="Group">
<path id="Vector" d="M75.0824 115.475C102.696 115.475 125.082 97.353 125.082 74.9989C125.082 52.6448 102.696 34.5232 75.0824 34.5232C47.4685 34.5232 25.083 52.6448 25.083 74.9989C25.083 97.353 47.4685 115.475 75.0824 115.475Z" fill="url(#paint1_radial_14_10160)"/>
<path id="Vector_2" d="M75.0878 101.189C93.4971 101.189 108.421 86.2654 108.421 67.8561C108.421 49.4469 93.4971 34.5232 75.0878 34.5232C56.6785 34.5232 41.7549 49.4469 41.7549 67.8561C41.7549 86.2654 56.6785 101.189 75.0878 101.189Z" fill="url(#paint2_linear_14_10160)"/>
<path id="Vector_3" d="M75.0776 84.5225C84.2822 84.5225 91.7441 77.0607 91.7441 67.856C91.7441 58.6514 84.2822 51.1896 75.0776 51.1896C65.873 51.1896 58.4111 58.6514 58.4111 67.856C58.4111 77.0607 65.873 84.5225 75.0776 84.5225Z" fill="url(#paint3_radial_14_10160)"/>
<path id="Vector_4" d="M63.173 60.7133C65.8029 60.7133 67.9348 58.5813 67.9348 55.9514C67.9348 53.3215 65.8029 51.1896 63.173 51.1896C60.5431 51.1896 58.4111 53.3215 58.4111 55.9514C58.4111 58.5813 60.5431 60.7133 63.173 60.7133Z" fill="white"/>
<path id="Vector_5" d="M124.815 119.603L30.4776 25.2661C30.1228 24.9113 29.549 24.9113 29.1943 25.2661L25.3491 29.1136C24.9943 29.4684 24.9943 30.0422 25.3491 30.397L119.686 124.734C120.041 125.089 120.615 125.089 120.969 124.734L124.817 120.886C125.169 120.532 125.169 119.955 124.815 119.603Z" fill="#E52030"/>
</g>
<rect x="2.58203" y="2.5" width="145" height="145" rx="7.5" stroke="#D5EAF6" stroke-width="5"/>
</g>
<defs>
<linearGradient id="paint0_linear_14_10160" x1="75.082" y1="5" x2="75.082" y2="145" gradientUnits="userSpaceOnUse">
<stop stop-color="#199AE0"/>
<stop offset="0.472222" stop-color="#0D5176" stop-opacity="0.527778"/>
<stop offset="0.940972" stop-color="#12A6F7" stop-opacity="0.465278"/>
<stop offset="1" stop-opacity="0"/>
</linearGradient>
<radialGradient id="paint1_radial_14_10160" cx="0" cy="0" r="1" gradientUnits="userSpaceOnUse" gradientTransform="translate(75.4165 62.3065) scale(53.0569 53.6885)">
<stop offset="0.55" stop-color="#E4E4E6"/>
<stop offset="0.73" stop-color="#E1E2E4"/>
<stop offset="0.854" stop-color="#D8DADC"/>
<stop offset="0.961" stop-color="#C9CDCF"/>
<stop offset="1" stop-color="#C1C6C9"/>
</radialGradient>
<linearGradient id="paint2_linear_14_10160" x1="53.8714" y1="46.6397" x2="96.9042" y2="89.6725" gradientUnits="userSpaceOnUse">
<stop stop-color="#32BDEF"/>
<stop offset="1" stop-color="#1EA2E4"/>
</linearGradient>
<radialGradient id="paint3_radial_14_10160" cx="0" cy="0" r="1" gradientUnits="userSpaceOnUse" gradientTransform="translate(65.2587 43.4706) scale(43.259)">
<stop stop-color="#4B4B4B"/>
<stop offset="0.531" stop-color="#393939"/>
<stop offset="1" stop-color="#252525"/>
</radialGradient>
</defs>
</svg>
