<svg width="151" height="150" viewBox="0 0 151 150" fill="none" xmlns="http://www.w3.org/2000/svg">
<g id="iphone-x">
<rect x="2.58203" y="2.5" width="145" height="145" rx="7.5" fill="white"/>
<rect x="2.58203" y="2.5" width="145" height="145" rx="7.5" fill="url(#paint0_linear_14_10200)" fill-opacity="0.2"/>
<g id="Group">
<path id="Vector" d="M99.472 25H50.6915C47.9964 25 45.8135 27.1829 45.8135 29.878V120.122C45.8135 122.817 47.9964 125 50.6915 125H99.472C102.167 125 104.35 122.817 104.35 120.122V29.878C104.35 27.1829 102.167 25 99.472 25Z" fill="url(#paint1_linear_14_10200)"/>
<path id="Vector_2" d="M58.0088 25H92.1551L90.8283 28.9805C90.1649 30.9732 88.299 32.3171 86.199 32.3171H63.9624C61.8624 32.3171 59.999 30.9732 59.3356 28.9805L58.0088 25Z" fill="#007AD9"/>
<path id="Vector_3" d="M83.6267 29.878C84.3003 29.878 84.8463 29.332 84.8463 28.6585C84.8463 27.985 84.3003 27.439 83.6267 27.439C82.9532 27.439 82.4072 27.985 82.4072 28.6585C82.4072 29.332 82.9532 29.878 83.6267 29.878Z" fill="#184F85"/>
<path id="Vector_4" d="M78.7422 27.439C78.5154 27.439 69.2129 27.439 68.9861 27.439C68.3129 27.439 67.7666 27.9853 67.7666 28.6585C67.7666 29.3316 68.3129 29.878 68.9861 29.878C69.2129 29.878 78.5154 29.878 78.7422 29.878C79.4154 29.878 79.9617 29.3316 79.9617 28.6585C79.9617 27.9853 79.4154 27.439 78.7422 27.439Z" fill="#184F85"/>
</g>
<rect x="2.58203" y="2.5" width="145" height="145" rx="7.5" stroke="#D5EAF6" stroke-width="5"/>
</g>
<defs>
<linearGradient id="paint0_linear_14_10200" x1="75.082" y1="5" x2="75.082" y2="145" gradientUnits="userSpaceOnUse">
<stop stop-color="#199AE0"/>
<stop offset="0.472222" stop-color="#0D5176" stop-opacity="0.527778"/>
<stop offset="0.940972" stop-color="#12A6F7" stop-opacity="0.465278"/>
<stop offset="1" stop-opacity="0"/>
</linearGradient>
<linearGradient id="paint1_linear_14_10200" x1="56.9574" y1="23.8976" x2="92.5915" y2="124.373" gradientUnits="userSpaceOnUse">
<stop stop-color="#32BDEF"/>
<stop offset="1" stop-color="#1EA2E4"/>
</linearGradient>
</defs>
</svg>
