<svg width="151" height="150" viewBox="0 0 151 150" fill="none" xmlns="http://www.w3.org/2000/svg">
<g id="job-seeker">
<rect x="2.58203" y="2.5" width="145" height="145" rx="7.5" fill="white"/>
<rect x="2.58203" y="2.5" width="145" height="145" rx="7.5" fill="url(#paint0_linear_14_10208)" fill-opacity="0.2"/>
<g id="Group">
<path id="Vector" d="M80.7562 27.2743H60.3025C58.4208 27.2743 56.8936 28.8015 56.8936 30.6833V34.0922H84.1651V30.6833C84.1651 28.8015 82.6379 27.2743 80.7562 27.2743Z" fill="url(#paint1_linear_14_10208)"/>
<path id="Vector_2" d="M111.441 106.816H29.6263C27.1264 106.816 25.0811 104.771 25.0811 102.271V43.1826C25.0811 38.1829 29.1718 34.0921 34.1716 34.0921H106.896C111.895 34.0921 115.986 38.1829 115.986 43.1826V102.271C115.986 104.771 113.941 106.816 111.441 106.816Z" fill="url(#paint2_radial_14_10208)"/>
<path id="Vector_3" d="M112.116 71.0337L70.5336 77.2721L28.9513 71.0337C26.7264 70.7019 25.0811 68.7906 25.0811 66.5407V43.1826C25.0811 38.1829 29.1718 34.0921 34.1716 34.0921H106.896C111.895 34.0921 115.986 38.1829 115.986 43.1826V66.5407C115.986 68.7906 114.341 70.7019 112.116 71.0337Z" fill="url(#paint3_linear_14_10208)"/>
<path id="Vector_4" d="M73.9415 61.3637H67.1236C66.4964 61.3637 65.9873 61.8727 65.9873 62.5V69.3179C65.9873 69.9451 66.4964 70.4542 67.1236 70.4542H73.9415C74.5687 70.4542 75.0778 69.9451 75.0778 69.3179V62.5C75.0778 61.8727 74.5687 61.3637 73.9415 61.3637Z" fill="#F6ECA5"/>
<path id="Vector_5" opacity="0.15" d="M100.072 74.9994C87.5203 74.9994 77.3457 85.1739 77.3457 97.7257C77.3457 100.96 78.032 104.03 79.2502 106.816H111.435C113.935 106.816 115.98 104.771 115.98 102.271V81.5082C111.881 77.4856 106.269 74.9994 100.072 74.9994Z" fill="url(#paint4_radial_14_10208)"/>
<path id="Vector_6" d="M118.247 111.87L114.229 115.888L120.899 122.559C121.121 122.781 121.48 122.781 121.703 122.559L124.917 119.345C125.139 119.122 125.139 118.763 124.917 118.541L118.247 111.87Z" fill="#199BE2"/>
<path id="Vector_7" d="M113.26 106.891L109.244 110.907L114.223 115.889L118.241 111.871L113.26 106.891Z" fill="url(#paint5_radial_14_10208)"/>
<path id="Vector_8" d="M100.074 115.907C110.115 115.907 118.255 107.767 118.255 97.7258C118.255 87.6847 110.115 79.5447 100.074 79.5447C90.0325 79.5447 81.8926 87.6847 81.8926 97.7258C81.8926 107.767 90.0325 115.907 100.074 115.907Z" fill="url(#paint6_linear_14_10208)"/>
</g>
<rect x="2.58203" y="2.5" width="145" height="145" rx="7.5" stroke="#D5EAF6" stroke-width="5"/>
</g>
<defs>
<linearGradient id="paint0_linear_14_10208" x1="75.082" y1="5" x2="75.082" y2="145" gradientUnits="userSpaceOnUse">
<stop stop-color="#199AE0"/>
<stop offset="0.472222" stop-color="#0D5176" stop-opacity="0.527778"/>
<stop offset="0.940972" stop-color="#12A6F7" stop-opacity="0.465278"/>
<stop offset="1" stop-opacity="0"/>
</linearGradient>
<linearGradient id="paint1_linear_14_10208" x1="70.5293" y1="34.0445" x2="70.5293" y2="27.9743" gradientUnits="userSpaceOnUse">
<stop stop-color="#B33F20"/>
<stop offset="0.129" stop-color="#C74724"/>
<stop offset="0.295" stop-color="#D94F29"/>
<stop offset="0.469" stop-color="#E4532B"/>
<stop offset="0.659" stop-color="#E8552C"/>
</linearGradient>
<radialGradient id="paint2_radial_14_10208" cx="0" cy="0" r="1" gradientUnits="userSpaceOnUse" gradientTransform="translate(70.1518 27.256) scale(103.95 83.6174)">
<stop stop-color="#40150B"/>
<stop offset="0.156" stop-color="#622110"/>
<stop offset="0.417" stop-color="#953218"/>
<stop offset="0.645" stop-color="#BA3F1E"/>
<stop offset="0.828" stop-color="#D14722"/>
<stop offset="0.944" stop-color="#D94A23"/>
</radialGradient>
<linearGradient id="paint3_linear_14_10208" x1="70.5336" y1="34.1558" x2="70.5336" y2="74.8335" gradientUnits="userSpaceOnUse">
<stop stop-color="#FC7D5B"/>
<stop offset="0.06" stop-color="#F8734F"/>
<stop offset="0.18" stop-color="#F3653D"/>
<stop offset="0.326" stop-color="#F05B31"/>
<stop offset="0.523" stop-color="#EE552A"/>
<stop offset="1" stop-color="#ED5328"/>
</linearGradient>
<radialGradient id="paint4_radial_14_10208" cx="0" cy="0" r="1" gradientUnits="userSpaceOnUse" gradientTransform="translate(99.9379 97.5348) scale(22.4013)">
<stop offset="0.627"/>
<stop offset="1" stop-opacity="0"/>
</radialGradient>
<radialGradient id="paint5_radial_14_10208" cx="0" cy="0" r="1" gradientUnits="userSpaceOnUse" gradientTransform="translate(100.106 97.8348) scale(22.2763)">
<stop offset="0.693" stop-color="#006185"/>
<stop offset="0.921" stop-color="#35C1F1"/>
</radialGradient>
<linearGradient id="paint6_linear_14_10208" x1="87.4719" y1="85.124" x2="112.957" y2="110.609" gradientUnits="userSpaceOnUse">
<stop stop-color="#A3FFFF"/>
<stop offset="0.223" stop-color="#9DFBFF"/>
<stop offset="0.53" stop-color="#8BF1FF"/>
<stop offset="0.885" stop-color="#6EE0FF"/>
<stop offset="1" stop-color="#63DAFF"/>
</linearGradient>
</defs>
</svg>
