<svg width="151" height="150" viewBox="0 0 151 150" fill="none" xmlns="http://www.w3.org/2000/svg">
<g id="knowledge-sharing">
<rect x="2.58203" y="2.5" width="145" height="145" rx="7.5" fill="white"/>
<rect x="2.58203" y="2.5" width="145" height="145" rx="7.5" fill="url(#paint0_linear_14_10218)" fill-opacity="0.2"/>
<g id="Group">
<path id="Vector" d="M111.988 96.4285C115.275 96.4285 117.94 93.7635 117.94 90.4761C117.94 87.1887 115.275 84.5237 111.988 84.5237C108.7 84.5237 106.035 87.1887 106.035 90.4761C106.035 93.7635 108.7 96.4285 111.988 96.4285Z" fill="#C98E00"/>
<path id="Vector_2" d="M80.35 114.721L114.8 95.6976L109.705 84.9786L79.8477 98.8095L80.35 114.721Z" fill="#C98E00"/>
<path id="Vector_3" d="M125.082 92.8571C125.082 89.5691 122.418 86.9048 119.13 86.9048C118.32 86.9048 117.549 87.0691 116.846 87.3619L116.844 87.3595L116.818 87.3714C116.813 87.3738 116.808 87.3762 116.803 87.3786L86.9868 101.19L83.4154 98.8095C86.7035 98.8095 89.3677 96.1452 89.3677 92.8571C89.3677 90.6429 88.1439 88.7333 86.3511 87.7071L86.3606 87.6691L53.8582 71.3214H53.7987C52.2987 70.6405 50.6463 70.2381 48.8916 70.2381C47.182 70.2381 45.5654 70.6119 44.0939 71.2619H44.0416L25.082 79.7619V110.714L44.3439 101.862L82.2273 117.357H82.2297C82.9606 117.676 83.7606 117.857 84.6058 117.857C85.6416 117.857 86.6011 117.569 87.4511 117.102L87.4916 117.1L121.942 98.0786L121.939 98.0738C123.801 97.0691 125.082 95.1238 125.082 92.8571Z" fill="url(#paint1_linear_14_10218)"/>
<path id="Vector_4" d="M83.4191 96.4286C85.3915 96.4286 86.9905 94.8296 86.9905 92.8571C86.9905 90.8847 85.3915 89.2857 83.4191 89.2857C81.4466 89.2857 79.8477 90.8847 79.8477 92.8571C79.8477 94.8296 81.4466 96.4286 83.4191 96.4286Z" fill="#FFDE87"/>
<path id="Vector_5" d="M86.9816 101.191L83.4363 98.8144C80.4483 98.6716 78.0983 97.7001 58.4102 90.4501V98.8097L85.9125 110.081C85.9125 110.081 83.9649 104.645 86.9816 101.191Z" fill="url(#paint2_linear_14_10218)"/>
<path id="Vector_6" d="M98.8889 32.1429C93.6294 32.1429 89.3651 36.4072 89.3651 41.6667V58.3334C84.9746 58.3334 81.5103 62.2953 82.3484 66.8334C82.8651 69.6405 85.1484 71.9429 87.9508 72.481C91.6579 73.1929 94.9413 71.0334 96.0698 67.8548H113.175C115.806 67.8548 117.937 65.7238 117.937 63.0929V36.9048C117.937 34.2738 115.806 32.1429 113.175 32.1429H98.8889Z" fill="#35C1F1"/>
<path id="Vector_7" d="M79.8406 67.8572H65.5549C62.9239 67.8572 60.793 65.7262 60.793 63.0953V36.9048C60.793 34.2738 62.9239 32.1429 65.5549 32.1429H79.8406C85.1001 32.1429 89.3644 36.4072 89.3644 41.6667V67.8572C89.3644 67.8572 85.1001 67.8572 79.8406 67.8572Z" fill="#50E6FF"/>
</g>
<rect x="2.58203" y="2.5" width="145" height="145" rx="7.5" stroke="#D5EAF6" stroke-width="5"/>
</g>
<defs>
<linearGradient id="paint0_linear_14_10218" x1="75.082" y1="5" x2="75.082" y2="145" gradientUnits="userSpaceOnUse">
<stop stop-color="#199AE0"/>
<stop offset="0.472222" stop-color="#0D5176" stop-opacity="0.527778"/>
<stop offset="0.940972" stop-color="#12A6F7" stop-opacity="0.465278"/>
<stop offset="1" stop-opacity="0"/>
</linearGradient>
<linearGradient id="paint1_linear_14_10218" x1="25.082" y1="94.0476" x2="125.082" y2="94.0476" gradientUnits="userSpaceOnUse">
<stop stop-color="#FFCF54"/>
<stop offset="0.261" stop-color="#FDCB4D"/>
<stop offset="0.639" stop-color="#F7C13A"/>
<stop offset="1" stop-color="#F0B421"/>
</linearGradient>
<linearGradient id="paint2_linear_14_10218" x1="71.1173" y1="102.067" x2="75.3697" y2="94.7335" gradientUnits="userSpaceOnUse">
<stop stop-color="#F0B421" stop-opacity="0"/>
<stop offset="0.512" stop-color="#E9AB12" stop-opacity="0.512"/>
<stop offset="1" stop-color="#E09F00"/>
</linearGradient>
</defs>
</svg>
