<svg width="151" height="150" viewBox="0 0 151 150" fill="none" xmlns="http://www.w3.org/2000/svg">
<g id="licence">
<rect x="2.58203" y="2.5" width="145" height="145" rx="7.5" fill="white"/>
<rect x="2.58203" y="2.5" width="145" height="145" rx="7.5" fill="url(#paint0_linear_14_10262)" fill-opacity="0.2"/>
<g id="Group">
<path id="Vector" d="M111.668 29.8781V112.806C111.664 114.098 111.149 115.337 110.235 116.251C109.321 117.165 108.082 117.68 106.789 117.684H43.3742C42.0816 117.68 40.8431 117.165 39.9291 116.251C39.0151 115.337 38.4999 114.098 38.4961 112.806V29.8781C38.4959 29.2375 38.622 28.603 38.8671 28.0111C39.1122 27.4192 39.4715 26.8814 39.9245 26.4284C40.3775 25.9754 40.9153 25.6161 41.5072 25.371C42.0991 25.1259 42.7335 24.9998 43.3742 25H106.789C107.43 24.9998 108.065 25.1259 108.656 25.371C109.248 25.6161 109.786 25.9754 110.239 26.4284C110.692 26.8814 111.052 27.4192 111.297 28.0111C111.542 28.603 111.668 29.2375 111.668 29.8781V29.8781Z" fill="#50E6FF"/>
<path id="Vector_2" d="M97.0163 103.659H82.434L82.4336 124.271C82.4336 124.4 82.4678 124.527 82.5328 124.638C82.5978 124.75 82.6911 124.842 82.8034 124.905C82.9156 124.969 83.0427 125.001 83.1717 125C83.3006 124.998 83.4269 124.962 83.5375 124.896L89.7228 121.343L95.9119 124.896C96.0225 124.962 96.1487 124.998 96.2777 125C96.4067 125.002 96.5338 124.969 96.6461 124.906C96.7583 124.842 96.8517 124.75 96.9166 124.638C96.9816 124.527 97.0158 124.4 97.0158 124.271L97.0163 103.659Z" fill="url(#paint1_radial_14_10262)"/>
<path id="Vector_3" opacity="0.05" d="M104.358 98.1716C104.363 97.5183 104.197 96.8752 103.876 96.3061C103.555 95.7371 103.091 95.2618 102.529 94.9276L102.31 94.8057L102.432 94.5862C102.75 94.0142 102.915 93.3695 102.91 92.7149C102.906 92.0602 102.732 91.4179 102.405 90.8506C102.078 90.2832 101.61 89.8101 101.046 89.4774C100.483 89.1447 99.8423 88.9637 99.1877 88.952H98.9438V88.7081C98.9204 87.7173 98.5131 86.7743 97.8078 86.0781C97.1024 85.3819 96.1543 84.9868 95.1633 84.9763C94.5136 84.9759 93.8749 85.144 93.3096 85.4641L93.0901 85.5861L92.9681 85.3666C92.6305 84.8083 92.1545 84.3466 91.5863 84.0262C91.018 83.7057 90.3766 83.5374 89.7242 83.5374C89.0718 83.5374 88.4304 83.7057 87.8621 84.0262C87.2938 84.3466 86.8179 84.8083 86.4802 85.3666L86.3583 85.5861L86.1388 85.4641C85.581 85.1471 84.951 84.9791 84.3095 84.9763C83.3159 84.9859 82.3647 85.3799 81.6553 86.0757C80.9459 86.7714 80.5335 87.7149 80.5046 88.7081V88.952H80.2607C79.6061 88.9637 78.9657 89.1447 78.4019 89.4774C77.8381 89.8101 77.3701 90.2832 77.0434 90.8506C76.7167 91.4179 76.5426 92.0602 76.5379 92.7149C76.5332 93.3695 76.6982 94.0142 77.0167 94.5862L77.1387 94.8057L76.9192 94.9276C76.3609 95.2652 75.8992 95.7412 75.5787 96.3095C75.2582 96.8778 75.0898 97.5192 75.0898 98.1716C75.0898 98.824 75.2582 99.4654 75.5787 100.034C75.8992 100.602 76.3609 101.078 76.9192 101.416L77.1387 101.537L77.0167 101.757C76.7085 102.308 76.5433 102.928 76.5363 103.56C76.5293 104.191 76.6807 104.814 76.9767 105.372C77.2726 105.93 77.7037 106.405 78.2305 106.754C78.7573 107.102 79.3631 107.313 79.9924 107.367V117.684H82.4314V105.464C82.1371 105.156 81.7354 104.972 81.3095 104.952H80.3094C80.0767 104.948 79.8489 104.884 79.648 104.767C79.4471 104.649 79.2797 104.482 79.1622 104.281C79.0446 104.08 78.9806 103.852 78.9765 103.62C78.9724 103.387 79.0283 103.157 79.1387 102.952L79.6265 102.074C79.8327 101.702 79.8852 101.265 79.7729 100.855L79.7485 100.83C79.7036 100.625 79.6179 100.43 79.4964 100.258C79.3749 100.086 79.2201 99.9409 79.0411 99.8301L78.1875 99.3179C77.987 99.2011 77.8207 99.0338 77.7052 98.8326C77.5896 98.6315 77.5288 98.4036 77.5288 98.1716C77.5288 97.9396 77.5896 97.7117 77.7052 97.5105C77.8207 97.3094 77.987 97.142 78.1875 97.0252L79.0411 96.513C79.2201 96.4023 79.3749 96.2567 79.4964 96.0849C79.6179 95.9131 79.7036 95.7186 79.7485 95.513L79.7729 95.4886C79.8852 95.0786 79.8327 94.6409 79.6265 94.2691L79.1631 93.391C79.0477 93.1888 78.9871 92.9599 78.9874 92.727C78.9876 92.4941 79.0486 92.2653 79.1644 92.0633C79.2803 91.8612 79.4468 91.6929 79.6476 91.575C79.8485 91.4571 80.0766 91.3937 80.3094 91.391H81.3095C81.7329 91.3609 82.1313 91.1791 82.4315 90.8789C82.7317 90.5787 82.9135 90.1803 82.9436 89.7569V88.7568C82.9415 88.5195 83.003 88.2859 83.1216 88.0803C83.2402 87.8747 83.4117 87.7045 83.6183 87.5876C83.8248 87.4706 84.0589 87.4111 84.2963 87.4151C84.5336 87.4191 84.7656 87.4866 84.968 87.6105L85.8217 88.0739C86.0502 88.2092 86.3124 88.2769 86.5778 88.269C86.7414 88.2649 86.9045 88.2486 87.0656 88.2203V88.1959C87.2712 88.151 87.4657 88.0653 87.6375 87.9438C87.8092 87.8222 87.9549 87.6674 88.0656 87.4885L88.5778 86.6349C88.6973 86.4341 88.867 86.2679 89.07 86.1524C89.2731 86.037 89.5028 85.9763 89.7364 85.9763C89.97 85.9763 90.1996 86.037 90.4027 86.1524C90.6058 86.2679 90.7754 86.4341 90.8949 86.6349L91.4071 87.4885C91.513 87.6667 91.6542 87.8213 91.8219 87.9429C91.9897 88.0646 92.1805 88.1506 92.3827 88.1959C92.386 88.1958 92.3892 88.1964 92.3921 88.1976C92.3951 88.1988 92.3978 88.2006 92.4001 88.2029C92.4024 88.2052 92.4041 88.2079 92.4053 88.2109C92.4065 88.2138 92.4071 88.217 92.407 88.2203C92.56 88.2486 92.7149 88.2649 92.8704 88.269C93.1359 88.2769 93.3981 88.2092 93.6265 88.0739L94.5046 87.5861C94.7088 87.4812 94.9337 87.4229 95.1631 87.4154C95.5167 87.4224 95.8539 87.566 96.1039 87.8161C96.354 88.0661 96.4976 88.4033 96.5046 88.7568L96.529 89.7569C96.5401 90.1799 96.715 90.5821 97.0168 90.8788C97.3141 91.1832 97.7141 91.3658 98.1388 91.391H99.1388C99.3715 91.3951 99.5993 91.4589 99.8002 91.5764C100.001 91.694 100.168 91.8612 100.286 92.0621C100.404 92.263 100.468 92.4908 100.472 92.7235C100.476 92.9562 100.42 93.1861 100.31 93.391L99.8217 94.2691C99.7177 94.4527 99.6531 94.656 99.6321 94.866C99.6111 95.076 99.6341 95.2881 99.6998 95.4886V95.513C99.8088 95.92 100.06 96.2746 100.407 96.513L101.261 97.0252C101.461 97.142 101.628 97.3094 101.743 97.5105C101.859 97.7117 101.919 97.9396 101.919 98.1716C101.919 98.4036 101.859 98.6315 101.743 98.8326C101.628 99.0338 101.461 99.2011 101.261 99.3179L100.407 99.8301C100.228 99.9409 100.073 100.086 99.9518 100.258C99.8303 100.43 99.7446 100.625 99.6998 100.83L99.6754 100.855C99.563 101.265 99.6156 101.702 99.8217 102.074L100.31 102.952C100.42 103.157 100.476 103.387 100.472 103.62C100.468 103.852 100.404 104.08 100.286 104.281C100.168 104.482 100.001 104.649 99.8003 104.767C99.5993 104.884 99.3715 104.948 99.1388 104.952H98.1388C97.7129 104.972 97.3111 105.156 97.0168 105.464V117.684H99.4559V107.367C100.085 107.313 100.691 107.102 101.218 106.754C101.745 106.405 102.176 105.93 102.472 105.372C102.768 104.814 102.919 104.191 102.912 103.56C102.905 102.928 102.74 102.308 102.432 101.757L102.31 101.537L102.529 101.416C103.09 101.081 103.555 100.606 103.876 100.037C104.197 99.468 104.363 98.8249 104.358 98.1716V98.1716Z" fill="black"/>
<path id="Vector_4" opacity="0.07" d="M101.886 95.9764L101.033 95.4642C100.951 95.3934 100.891 95.3001 100.862 95.1959C100.831 95.0826 100.84 94.9622 100.886 94.8544L101.35 94.0008C101.572 93.6148 101.688 93.1775 101.688 92.7325C101.688 92.2874 101.572 91.8501 101.35 91.4641C101.125 91.0788 100.805 90.7576 100.421 90.5313C100.037 90.305 99.6007 90.1811 99.1547 90.1714H98.1547C98.0498 90.159 97.9537 90.1066 97.8864 90.0251C97.8439 89.9884 97.8091 89.9436 97.784 89.8934C97.7589 89.8432 97.744 89.7885 97.7401 89.7324L97.7157 88.7324C97.7127 88.2857 97.5926 87.8476 97.3674 87.4619C97.1421 87.0761 96.8196 86.7562 96.4321 86.534C96.0446 86.3119 95.6055 86.1952 95.1588 86.1958C94.7121 86.1964 94.2734 86.3141 93.8864 86.5373L93.0327 87.0251C92.9786 87.0469 92.92 87.0552 92.862 87.0495C92.812 87.0533 92.7617 87.045 92.7157 87.0251C92.6018 87.0023 92.4988 86.9423 92.423 86.8543L91.9108 86.0007C91.6874 85.6179 91.3666 85.3011 90.981 85.0826C90.5954 84.8641 90.1588 84.7517 89.7156 84.7568C89.273 84.7547 88.8376 84.8683 88.4525 85.0866C88.0674 85.3048 87.7461 85.6199 87.5205 86.0007L87.0083 86.8543C86.947 86.9355 86.8616 86.9953 86.7644 87.0251H86.7156C86.6695 87.045 86.6193 87.0533 86.5692 87.0495C86.5113 87.0534 86.4531 87.0451 86.3985 87.0251L85.5448 86.5373C85.1658 86.3201 84.7379 86.2026 84.3011 86.1958C83.6256 86.2017 82.9787 86.4693 82.4965 86.9424C82.0143 87.4155 81.7343 88.0572 81.7155 88.7324V89.7324C81.7058 89.8258 81.6624 89.9125 81.5936 89.9763L81.4716 90.0739V90.0983C81.413 90.1371 81.3462 90.1621 81.2765 90.1714H80.2765C79.8333 90.1831 79.4005 90.3086 79.0198 90.5359C78.6392 90.7632 78.3234 91.0846 78.1029 91.4693C77.8824 91.8539 77.7646 92.2888 77.7608 92.7322C77.757 93.1755 77.8674 93.6124 78.0814 94.0008L78.5692 94.8544C78.6005 94.9486 78.6089 95.049 78.5936 95.1471L78.5692 95.1959C78.5398 95.3001 78.4804 95.3934 78.3984 95.4642L77.5448 95.9764C77.1654 96.2036 76.8514 96.5253 76.6334 96.91C76.4154 97.2947 76.3008 97.7293 76.3008 98.1715C76.3008 98.6137 76.4154 99.0484 76.6334 99.4331C76.8514 99.8178 77.1654 100.139 77.5448 100.367L78.3984 100.879C78.4804 100.95 78.5397 101.043 78.5692 101.147C78.6062 101.258 78.6062 101.378 78.5692 101.489L78.0814 102.342C77.8674 102.731 77.757 103.168 77.7607 103.611C77.7645 104.054 77.8823 104.489 78.1028 104.874C78.3233 105.259 78.6391 105.58 79.0198 105.807C79.4005 106.035 79.8333 106.16 80.2765 106.172H81.2033V117.684H82.4229V105.464C82.1285 105.156 81.7268 104.972 81.3009 104.952H80.3009C80.0681 104.948 79.8404 104.884 79.6394 104.767C79.4385 104.649 79.2712 104.482 79.1536 104.281C79.036 104.08 78.9721 103.852 78.968 103.62C78.9639 103.387 79.0197 103.157 79.1301 102.952L79.618 102.074C79.8241 101.702 79.8766 101.265 79.7643 100.854L79.7399 100.83C79.6951 100.624 79.6094 100.43 79.4879 100.258C79.3663 100.086 79.2115 99.9408 79.0326 99.8301L78.1789 99.3179C77.9785 99.2011 77.8122 99.0337 77.6966 98.8326C77.581 98.6315 77.5202 98.4035 77.5202 98.1715C77.5202 97.9395 77.581 97.7116 77.6966 97.5105C77.8122 97.3093 77.9785 97.142 78.1789 97.0252L79.0326 96.513C79.2115 96.4022 79.3663 96.2566 79.4878 96.0848C79.6093 95.913 79.6951 95.7186 79.7399 95.513L79.7643 95.4886C79.8766 95.0786 79.8241 94.6409 79.618 94.2691L79.1545 93.391C79.0391 93.1887 78.9786 92.9598 78.9788 92.7269C78.979 92.4941 79.0401 92.2653 79.1559 92.0632C79.2717 91.8612 79.4382 91.6929 79.6391 91.575C79.8399 91.4571 80.068 91.3936 80.3009 91.391H81.3009C81.7244 91.3609 82.1228 91.1791 82.423 90.8789C82.7231 90.5787 82.905 90.1803 82.9351 89.7568V88.7568C82.933 88.5194 82.9944 88.2858 83.113 88.0802C83.2317 87.8746 83.4032 87.7045 83.6097 87.5875C83.8163 87.4706 84.0504 87.411 84.2877 87.415C84.5251 87.4191 84.757 87.4865 84.9595 87.6104L85.8131 88.0739C86.0416 88.2092 86.3038 88.2768 86.5692 88.269C86.7328 88.2649 86.8959 88.2485 87.0571 88.2202V88.1958C87.2626 88.151 87.4571 88.0652 87.6289 87.9437C87.8007 87.8222 87.9463 87.6674 88.0571 87.4885L88.5693 86.6348C88.6888 86.4341 88.8584 86.2678 89.0615 86.1524C89.2646 86.0369 89.4942 85.9762 89.7278 85.9762C89.9614 85.9762 90.1911 86.0369 90.3941 86.1524C90.5972 86.2678 90.7669 86.4341 90.8864 86.6348L91.3986 87.4885C91.5044 87.6666 91.6456 87.8212 91.8134 87.9429C91.9811 88.0645 92.172 88.1506 92.3742 88.1958C92.3774 88.1958 92.3806 88.1963 92.3836 88.1975C92.3866 88.1988 92.3893 88.2005 92.3915 88.2028C92.3938 88.2051 92.3956 88.2078 92.3968 88.2108C92.398 88.2138 92.3985 88.217 92.3985 88.2202C92.5514 88.2485 92.7064 88.2648 92.8619 88.269C93.1273 88.2768 93.3895 88.2092 93.618 88.0739L94.496 87.5861C94.7002 87.4812 94.9252 87.4229 95.1546 87.4153C95.5082 87.4224 95.8453 87.5659 96.0954 87.816C96.3454 88.0661 96.489 88.4032 96.4961 88.7568L96.5205 89.7568C96.5316 90.1799 96.7065 90.5821 97.0083 90.8788C97.3055 91.1831 97.7055 91.3657 98.1302 91.391H99.1302C99.363 91.395 99.5908 91.4589 99.7917 91.5764C99.9926 91.6939 100.16 91.8612 100.278 92.0621C100.395 92.263 100.459 92.4907 100.463 92.7235C100.467 92.9562 100.411 93.1861 100.301 93.391L99.8132 94.2691C99.7091 94.4527 99.6445 94.656 99.6235 94.866C99.6025 95.0759 99.6256 95.288 99.6912 95.4886V95.513C99.8003 95.92 100.051 96.2746 100.399 96.513L101.252 97.0252C101.453 97.142 101.619 97.3093 101.735 97.5105C101.85 97.7116 101.911 97.9395 101.911 98.1715C101.911 98.4035 101.85 98.6315 101.735 98.8326C101.619 99.0337 101.453 99.2011 101.252 99.3179L100.399 99.8301C100.22 99.9408 100.065 100.086 99.9433 100.258C99.8218 100.43 99.736 100.624 99.6912 100.83L99.6668 100.854C99.5545 101.265 99.607 101.702 99.8132 102.074L100.301 102.952C100.411 103.157 100.467 103.387 100.463 103.62C100.459 103.852 100.395 104.08 100.278 104.281C100.16 104.482 99.9926 104.649 99.7917 104.767C99.5908 104.884 99.363 104.948 99.1302 104.952H98.1302C97.7043 104.972 97.3026 105.156 97.0083 105.464V117.684H98.2278V106.172H99.1546C99.5979 106.16 100.031 106.035 100.411 105.807C100.792 105.58 101.108 105.259 101.328 104.874C101.549 104.489 101.667 104.054 101.67 103.611C101.674 103.168 101.564 102.731 101.35 102.342L100.862 101.489C100.825 101.386 100.825 101.274 100.862 101.172C100.885 101.058 100.945 100.955 101.033 100.879L101.886 100.367C102.269 100.143 102.586 99.8225 102.804 99.4369C103.023 99.0513 103.135 98.6147 103.13 98.1715C103.132 97.7289 103.019 97.2935 102.801 96.9084C102.582 96.5234 102.267 96.202 101.886 95.9764Z" fill="black"/>
<path id="Vector_5" d="M77.521 42.0734H53.1305C51.7834 42.0734 50.6914 43.1654 50.6914 44.5124C50.6914 45.8595 51.7834 46.9515 53.1305 46.9515H77.521C78.868 46.9515 79.96 45.8595 79.96 44.5124C79.96 43.1654 78.868 42.0734 77.521 42.0734Z" fill="#057093"/>
<path id="Vector_6" d="M87.2772 54.2686H53.1305C51.7834 54.2686 50.6914 55.3606 50.6914 56.7076C50.6914 58.0547 51.7834 59.1467 53.1305 59.1467H87.2772C88.6242 59.1467 89.7162 58.0547 89.7162 56.7076C89.7162 55.3606 88.6242 54.2686 87.2772 54.2686Z" fill="#057093"/>
<path id="Vector_7" d="M97.0334 66.4639H53.1305C51.7834 66.4639 50.6914 67.5559 50.6914 68.9029C50.6914 70.25 51.7834 71.342 53.1305 71.342H97.0334C98.3804 71.342 99.4724 70.25 99.4724 68.9029C99.4724 67.5559 98.3804 66.4639 97.0334 66.4639Z" fill="#057093"/>
<path id="Vector_8" d="M97.0429 42.0734H87.2867C85.9397 42.0734 84.8477 43.1654 84.8477 44.5124C84.8477 45.8595 85.9397 46.9515 87.2867 46.9515H97.0429C98.39 46.9515 99.482 45.8595 99.482 44.5124C99.482 43.1654 98.39 42.0734 97.0429 42.0734Z" fill="#057093"/>
<path id="Vector_9" d="M67.7648 78.6591H53.1305C51.7834 78.6591 50.6914 79.7511 50.6914 81.0981C50.6914 82.4452 51.7834 83.5372 53.1305 83.5372H67.7648C69.1118 83.5372 70.2038 82.4452 70.2038 81.0981C70.2038 79.7511 69.1118 78.6591 67.7648 78.6591Z" fill="#057093"/>
<path id="Vector_10" d="M101.269 97.0173L100.417 96.5051C100.058 96.2822 99.8002 95.929 99.6969 95.5197L99.6909 95.4967C99.5714 95.0875 99.6174 94.6478 99.8189 94.2721L100.302 93.4027C100.415 93.1992 100.474 92.97 100.472 92.7372C100.47 92.5045 100.408 92.2762 100.291 92.0746C100.175 91.873 100.008 91.705 99.8078 91.5869C99.6072 91.4688 99.3794 91.4047 99.1467 91.4008L98.143 91.3832C97.7194 91.3696 97.3178 91.1914 97.0235 90.8865L97.014 90.877C96.7083 90.5829 96.5298 90.1808 96.5166 89.7568L96.4997 88.7532C96.4957 88.5205 96.4316 88.2927 96.3135 88.0922C96.1954 87.8916 96.0274 87.7251 95.8258 87.6087C95.6242 87.4924 95.396 87.4302 95.1633 87.4283C94.9305 87.4264 94.7013 87.4847 94.4978 87.5977L93.6284 88.0809C93.2527 88.2824 92.813 88.3284 92.4038 88.209L92.3808 88.2029C91.9715 88.0996 91.6183 87.8416 91.3954 87.4832L90.8831 86.6307C90.7632 86.4312 90.5938 86.2661 90.3913 86.1514C90.1888 86.0368 89.96 85.9766 89.7273 85.9766C89.4945 85.9766 89.2658 86.0368 89.0632 86.1514C88.8607 86.2661 88.6913 86.4312 88.5715 86.6307L88.0619 87.4798C87.837 87.8408 87.4813 88.1008 87.0692 88.2056L87.0556 88.209C86.6431 88.3301 86.1994 88.2836 85.8209 88.0796L84.9548 87.5991C84.7514 87.486 84.5221 87.4276 84.2894 87.4295C84.0566 87.4314 83.8283 87.4936 83.6267 87.6099C83.4251 87.7263 83.2571 87.8928 83.1391 88.0934C83.021 88.294 82.9569 88.5218 82.953 88.7545L82.9347 89.7568C82.9208 90.1803 82.7427 90.5818 82.438 90.8763L82.4285 90.8858C82.1343 91.1909 81.7326 91.3691 81.3089 91.3825L80.3053 91.3994C80.0726 91.4033 79.8448 91.4674 79.6442 91.5855C79.4436 91.7036 79.277 91.8716 79.1607 92.0732C79.0443 92.2748 78.9822 92.5031 78.9803 92.7358C78.9784 92.9686 79.0368 93.1978 79.1499 93.4013L79.6331 94.2707C79.8346 94.6464 79.8806 95.0861 79.7611 95.4953L79.7537 95.5184C79.6501 95.9275 79.3922 96.2806 79.034 96.5037L78.1815 97.016C77.982 97.1358 77.8169 97.3053 77.7022 97.5078C77.5876 97.7103 77.5273 97.9391 77.5273 98.1718C77.5273 98.4045 77.5876 98.6333 77.7022 98.8358C77.8169 99.0384 77.982 99.2078 78.1815 99.3276L79.034 99.8399C79.3924 100.063 79.6504 100.416 79.7537 100.825L79.7598 100.848C79.8793 101.258 79.8333 101.697 79.6317 102.073L79.1485 102.942C79.0355 103.146 78.977 103.375 78.9789 103.608C78.9808 103.841 79.043 104.069 79.1594 104.27C79.2757 104.472 79.4423 104.64 79.6429 104.758C79.8435 104.876 80.0712 104.94 80.3039 104.944L81.3076 104.961C81.7312 104.975 82.1328 105.153 82.4271 105.458L82.4366 105.467C82.7417 105.762 82.9199 106.163 82.9333 106.587L82.9503 107.59C82.9542 107.823 83.0184 108.051 83.1364 108.251C83.2545 108.452 83.4225 108.619 83.6241 108.735C83.8257 108.851 84.0539 108.913 84.2867 108.915C84.5194 108.917 84.7486 108.859 84.9521 108.746L85.8216 108.263C86.1972 108.061 86.6369 108.015 87.0461 108.135L87.0692 108.141C87.4784 108.244 87.8316 108.502 88.0545 108.86L88.5669 109.713C88.6867 109.912 88.8561 110.078 89.0586 110.192C89.2611 110.307 89.4899 110.367 89.7226 110.367C89.9554 110.367 90.1841 110.307 90.3866 110.192C90.5892 110.078 90.7586 109.912 90.8784 109.713L91.3907 108.86C91.6136 108.502 91.9669 108.244 92.3761 108.141L92.3991 108.135C92.8083 108.015 93.2481 108.061 93.6237 108.263L94.4932 108.746C94.6966 108.859 94.9259 108.917 95.1586 108.915C95.3914 108.914 95.6197 108.851 95.8213 108.735C96.0229 108.619 96.1909 108.452 96.309 108.252C96.427 108.051 96.4911 107.823 96.495 107.59L96.5119 106.587C96.5256 106.163 96.7038 105.762 97.0087 105.467L97.0182 105.458C97.3124 105.153 97.7141 104.975 98.1377 104.961L99.1413 104.944C99.374 104.94 99.6018 104.876 99.8023 104.758C100.003 104.64 100.169 104.472 100.286 104.27C100.402 104.069 100.464 103.84 100.466 103.608C100.468 103.375 100.41 103.146 100.297 102.942L99.8136 102.073C99.6121 101.697 99.5661 101.257 99.6855 100.848L99.6916 100.825C99.7949 100.416 100.053 100.063 100.411 99.8398L101.264 99.3275C101.464 99.2087 101.63 99.0399 101.746 98.8377C101.861 98.6355 101.922 98.4068 101.923 98.1739C101.923 97.941 101.863 97.712 101.749 97.5093C101.634 97.3065 101.469 97.137 101.269 97.0173Z" fill="url(#paint2_linear_14_10262)"/>
</g>
<rect x="2.58203" y="2.5" width="145" height="145" rx="7.5" stroke="#D5EAF6" stroke-width="5"/>
</g>
<defs>
<linearGradient id="paint0_linear_14_10262" x1="75.082" y1="5" x2="75.082" y2="145" gradientUnits="userSpaceOnUse">
<stop stop-color="#199AE0"/>
<stop offset="0.472222" stop-color="#0D5176" stop-opacity="0.527778"/>
<stop offset="0.940972" stop-color="#12A6F7" stop-opacity="0.465278"/>
<stop offset="1" stop-opacity="0"/>
</linearGradient>
<radialGradient id="paint1_radial_14_10262" cx="0" cy="0" r="1" gradientUnits="userSpaceOnUse" gradientTransform="translate(89.6837 93.8471) scale(20.8222 20.8222)">
<stop offset="0.655" stop-color="#871233"/>
<stop offset="0.718" stop-color="#8E1336"/>
<stop offset="0.812" stop-color="#A3163E"/>
<stop offset="0.9" stop-color="#BC1948"/>
</radialGradient>
<linearGradient id="paint2_linear_14_10262" x1="83.525" y1="87.3935" x2="95.8764" y2="108.864" gradientUnits="userSpaceOnUse">
<stop stop-color="#FFDA1C"/>
<stop offset="1" stop-color="#FEB705"/>
</linearGradient>
</defs>
</svg>
