<svg width="151" height="150" viewBox="0 0 151 150" fill="none" xmlns="http://www.w3.org/2000/svg">
<g id="list">
<rect x="2.58203" y="2.5" width="145" height="145" rx="7.5" fill="white"/>
<rect x="2.58203" y="2.5" width="145" height="145" rx="7.5" fill="url(#paint0_linear_14_10292)" fill-opacity="0.2"/>
<g id="Group">
<path id="Vector" d="M120.321 53.5714H53.6545C51.0354 53.5714 48.8926 51.4285 48.8926 48.8094V44.0475C48.8926 41.4285 51.0354 39.2856 53.6545 39.2856H120.321C122.941 39.2856 125.083 41.4285 125.083 44.0475V48.8094C125.083 51.4285 122.941 53.5714 120.321 53.5714Z" fill="url(#paint1_linear_14_10292)"/>
<path id="Vector_2" d="M34.6049 53.5714H29.843C27.2239 53.5714 25.0811 51.4285 25.0811 48.8094V44.0475C25.0811 41.4285 27.2239 39.2856 29.843 39.2856H34.6049C37.224 39.2856 39.3668 41.4285 39.3668 44.0475V48.8094C39.3668 51.4285 37.224 53.5714 34.6049 53.5714Z" fill="url(#paint2_linear_14_10292)"/>
<path id="Vector_3" d="M120.321 82.1429H53.6545C51.0354 82.1429 48.8926 80 48.8926 77.381V72.619C48.8926 70 51.0354 67.8571 53.6545 67.8571H120.321C122.941 67.8571 125.083 70 125.083 72.619V77.381C125.083 80 122.941 82.1429 120.321 82.1429Z" fill="url(#paint3_linear_14_10292)"/>
<path id="Vector_4" d="M34.6049 82.1429H29.843C27.2239 82.1429 25.0811 80 25.0811 77.381V72.619C25.0811 70 27.2239 67.8571 29.843 67.8571H34.6049C37.224 67.8571 39.3668 70 39.3668 72.619V77.381C39.3668 80 37.224 82.1429 34.6049 82.1429Z" fill="url(#paint4_linear_14_10292)"/>
<path id="Vector_5" d="M120.321 110.714H53.6545C51.0354 110.714 48.8926 108.572 48.8926 105.952V101.191C48.8926 98.5715 51.0354 96.4286 53.6545 96.4286H120.321C122.941 96.4286 125.083 98.5715 125.083 101.191V105.952C125.083 108.572 122.941 110.714 120.321 110.714Z" fill="url(#paint5_linear_14_10292)"/>
<path id="Vector_6" d="M34.6049 110.714H29.843C27.2239 110.714 25.0811 108.572 25.0811 105.952V101.191C25.0811 98.5715 27.2239 96.4286 29.843 96.4286H34.6049C37.224 96.4286 39.3668 98.5715 39.3668 101.191V105.952C39.3668 108.572 37.224 110.714 34.6049 110.714Z" fill="url(#paint6_linear_14_10292)"/>
</g>
<rect x="2.58203" y="2.5" width="145" height="145" rx="7.5" stroke="#D5EAF6" stroke-width="5"/>
</g>
<defs>
<linearGradient id="paint0_linear_14_10292" x1="75.082" y1="5" x2="75.082" y2="145" gradientUnits="userSpaceOnUse">
<stop stop-color="#199AE0"/>
<stop offset="0.472222" stop-color="#0D5176" stop-opacity="0.527778"/>
<stop offset="0.940972" stop-color="#12A6F7" stop-opacity="0.465278"/>
<stop offset="1" stop-opacity="0"/>
</linearGradient>
<linearGradient id="paint1_linear_14_10292" x1="64.7974" y1="24.2379" x2="107.238" y2="66.6786" gradientUnits="userSpaceOnUse">
<stop stop-color="#1D59B3"/>
<stop offset="1" stop-color="#195BBC"/>
</linearGradient>
<linearGradient id="paint2_linear_14_10292" x1="26.2168" y1="40.4213" x2="37.7049" y2="51.9095" gradientUnits="userSpaceOnUse">
<stop offset="0.003" stop-color="#42A3F2"/>
<stop offset="1" stop-color="#42A4EB"/>
</linearGradient>
<linearGradient id="paint3_linear_14_10292" x1="64.7974" y1="52.8094" x2="107.238" y2="95.2501" gradientUnits="userSpaceOnUse">
<stop stop-color="#1D59B3"/>
<stop offset="1" stop-color="#195BBC"/>
</linearGradient>
<linearGradient id="paint4_linear_14_10292" x1="26.2168" y1="68.9928" x2="37.7049" y2="80.481" gradientUnits="userSpaceOnUse">
<stop stop-color="#42A3F2"/>
<stop offset="1" stop-color="#42A4EB"/>
</linearGradient>
<linearGradient id="paint5_linear_14_10292" x1="64.7974" y1="81.3809" x2="107.238" y2="123.822" gradientUnits="userSpaceOnUse">
<stop stop-color="#1D59B3"/>
<stop offset="1" stop-color="#195BBC"/>
</linearGradient>
<linearGradient id="paint6_linear_14_10292" x1="26.2168" y1="97.5643" x2="37.7049" y2="109.052" gradientUnits="userSpaceOnUse">
<stop stop-color="#42A3F2"/>
<stop offset="1" stop-color="#42A4EB"/>
</linearGradient>
</defs>
</svg>
