<svg width="151" height="150" viewBox="0 0 151 150" fill="none" xmlns="http://www.w3.org/2000/svg">
<g id="list-view">
<rect x="2.58203" y="2.5" width="145" height="145" rx="7.5" fill="white"/>
<rect x="2.58203" y="2.5" width="145" height="145" rx="7.5" fill="url(#paint0_linear_14_10300)" fill-opacity="0.2"/>
<g id="Group">
<path id="Vector" d="M85.6084 125H40.8716C37.9637 125 35.6084 122.645 35.6084 119.737V30.2632C35.6084 27.3553 37.9637 25 40.8716 25H109.293C112.2 25 114.556 27.3553 114.556 30.2632V96.0526L85.6084 125Z" fill="#50E6FF"/>
<path id="Vector_2" d="M114.556 96.0525H90.8716C87.9637 96.0525 85.6084 98.4078 85.6084 101.316V125L114.556 96.0525Z" fill="url(#paint1_linear_14_10300)"/>
<path id="Vector_3" d="M98.7667 40.7896H72.4509C70.9983 40.7896 69.8193 41.9685 69.8193 43.4211C69.8193 44.8738 70.9983 46.0527 72.4509 46.0527H98.7667C100.219 46.0527 101.398 44.8738 101.398 43.4211C101.398 41.9685 100.219 40.7896 98.7667 40.7896Z" fill="#057093"/>
<path id="Vector_4" d="M48.7634 46.0527H61.9213C63.3739 46.0527 64.5529 44.8738 64.5529 43.4211C64.5529 41.9685 63.3739 40.7896 61.9213 40.7896H48.7634C47.3108 40.7896 46.1318 41.9685 46.1318 43.4211C46.1318 44.8738 47.3108 46.0527 48.7634 46.0527Z" fill="#057093"/>
<path id="Vector_5" d="M48.7634 56.579H61.9213C63.3739 56.579 64.5529 55.4 64.5529 53.9474C64.5529 52.4947 63.3739 51.3158 61.9213 51.3158H48.7634C47.3108 51.3158 46.1318 52.4947 46.1318 53.9474C46.1318 55.4 47.3108 56.579 48.7634 56.579Z" fill="#057093"/>
<path id="Vector_6" d="M48.7634 67.1053H61.9213C63.3739 67.1053 64.5529 65.9264 64.5529 64.4737C64.5529 63.0211 63.3739 61.8422 61.9213 61.8422H48.7634C47.3108 61.8422 46.1318 63.0211 46.1318 64.4737C46.1318 65.9264 47.3108 67.1053 48.7634 67.1053Z" fill="#057093"/>
<path id="Vector_7" d="M48.7634 77.6314H61.9213C63.3739 77.6314 64.5529 76.4525 64.5529 74.9999C64.5529 73.5472 63.3739 72.3683 61.9213 72.3683H48.7634C47.3108 72.3683 46.1318 73.5472 46.1318 74.9999C46.1318 76.4525 47.3108 77.6314 48.7634 77.6314Z" fill="#057093"/>
<path id="Vector_8" d="M48.7634 88.1579H61.9213C63.3739 88.1579 64.5529 86.979 64.5529 85.5264C64.5529 84.0737 63.3739 82.8948 61.9213 82.8948H48.7634C47.3108 82.8948 46.1318 84.0737 46.1318 85.5264C46.1318 86.979 47.3108 88.1579 48.7634 88.1579Z" fill="#057093"/>
<path id="Vector_9" d="M72.4509 88.1579H96.1351C97.5878 88.1579 98.7667 86.979 98.7667 85.5264C98.7667 84.0737 97.5878 82.8948 96.1351 82.8948H72.4509C70.9983 82.8948 69.8193 84.0737 69.8193 85.5264C69.8193 86.979 70.9983 88.1579 72.4509 88.1579Z" fill="#057093"/>
<path id="Vector_10" d="M72.4509 67.1053H101.398C102.851 67.1053 104.03 65.9264 104.03 64.4737C104.03 63.0211 102.851 61.8422 101.398 61.8422H72.4509C70.9983 61.8422 69.8193 63.0211 69.8193 64.4737C69.8193 65.9264 70.9983 67.1053 72.4509 67.1053Z" fill="#057093"/>
<path id="Vector_11" d="M72.4509 56.579H90.872C92.3246 56.579 93.5035 55.4 93.5035 53.9474C93.5035 52.4947 92.3246 51.3158 90.872 51.3158H72.4509C70.9983 51.3158 69.8193 52.4947 69.8193 53.9474C69.8193 55.4 70.9983 56.579 72.4509 56.579Z" fill="#057093"/>
<path id="Vector_12" d="M72.4509 77.6314H90.872C92.3246 77.6314 93.5035 76.4525 93.5035 74.9999C93.5035 73.5472 92.3246 72.3683 90.872 72.3683H72.4509C70.9983 72.3683 69.8193 73.5472 69.8193 74.9999C69.8193 76.4525 70.9983 77.6314 72.4509 77.6314Z" fill="#057093"/>
</g>
<rect x="2.58203" y="2.5" width="145" height="145" rx="7.5" stroke="#D5EAF6" stroke-width="5"/>
</g>
<defs>
<linearGradient id="paint0_linear_14_10300" x1="75.082" y1="5" x2="75.082" y2="145" gradientUnits="userSpaceOnUse">
<stop stop-color="#199AE0"/>
<stop offset="0.472222" stop-color="#0D5176" stop-opacity="0.527778"/>
<stop offset="0.940972" stop-color="#12A6F7" stop-opacity="0.465278"/>
<stop offset="1" stop-opacity="0"/>
</linearGradient>
<linearGradient id="paint1_linear_14_10300" x1="87.0005" y1="97.442" x2="100.345" y2="110.789" gradientUnits="userSpaceOnUse">
<stop stop-color="#3079D6"/>
<stop offset="1" stop-color="#297CD2"/>
</linearGradient>
</defs>
</svg>
