<svg width="151" height="150" viewBox="0 0 151 150" fill="none" xmlns="http://www.w3.org/2000/svg">
<g id="logout">
<rect x="2.58203" y="2.5" width="145" height="145" rx="7.5" fill="white"/>
<rect x="2.58203" y="2.5" width="145" height="145" rx="7.5" fill="url(#paint0_linear_14_10314)" fill-opacity="0.2"/>
<g id="Group">
<path id="Vector" d="M101.933 25H36.9326C34.1701 25 31.9326 27.2375 31.9326 30V120C31.9326 122.763 34.1701 125 36.9326 125H101.933C104.695 125 106.933 122.763 106.933 120V30C106.933 27.2375 104.695 25 101.933 25Z" fill="url(#paint1_linear_14_10314)"/>
<path id="Vector_2" opacity="0.05" d="M106.933 57.1474L100.468 50.6824C97.3176 47.5324 91.9326 49.7649 91.9326 54.2199V62.4999H61.9326C59.1701 62.4999 56.9326 64.7374 56.9326 67.4999V82.4999C56.9326 85.2624 59.1701 87.4999 61.9326 87.4999H91.9326V95.7799C91.9326 100.235 97.3176 102.465 100.468 99.3149L106.933 92.8524V57.1474Z" fill="black"/>
<path id="Vector_3" opacity="0.07" d="M106.933 59.6475L100.425 53.14C98.2126 50.9275 94.4326 52.495 94.4326 55.6225V65H63.1826C61.1126 65 59.4326 66.68 59.4326 68.75V81.25C59.4326 83.32 61.1126 85 63.1826 85H94.4326V94.3775C94.4326 97.505 98.2126 99.07 100.425 96.86L106.933 90.3525V59.6475Z" fill="black"/>
<path id="Vector_4" d="M96.9326 57.0251V67.5001H64.4326C63.0526 67.5001 61.9326 68.6201 61.9326 70.0001V80.0001C61.9326 81.3801 63.0526 82.5001 64.4326 82.5001H96.9326V92.9751C96.9326 94.7751 99.1076 95.6751 100.38 94.4026L117.133 77.6501C118.598 76.1851 118.598 73.8101 117.133 72.3476L100.38 55.5951C99.1076 54.3226 96.9326 55.2251 96.9326 57.0251Z" fill="#50E6FF"/>
</g>
<rect x="2.58203" y="2.5" width="145" height="145" rx="7.5" stroke="#D5EAF6" stroke-width="5"/>
</g>
<defs>
<linearGradient id="paint0_linear_14_10314" x1="75.082" y1="5" x2="75.082" y2="145" gradientUnits="userSpaceOnUse">
<stop stop-color="#199AE0"/>
<stop offset="0.472222" stop-color="#0D5176" stop-opacity="0.527778"/>
<stop offset="0.940972" stop-color="#12A6F7" stop-opacity="0.465278"/>
<stop offset="1" stop-opacity="0"/>
</linearGradient>
<linearGradient id="paint1_linear_14_10314" x1="34.8901" y1="27.1975" x2="101.575" y2="119.48" gradientUnits="userSpaceOnUse">
<stop stop-color="#2AA4F4"/>
<stop offset="1" stop-color="#007AD9"/>
</linearGradient>
</defs>
</svg>
