<svg width="151" height="150" viewBox="0 0 151 150" fill="none" xmlns="http://www.w3.org/2000/svg">
<g id="mail">
<rect x="2.58203" y="2.5" width="145" height="145" rx="7.5" fill="white"/>
<rect x="2.58203" y="2.5" width="145" height="145" rx="7.5" fill="url(#paint0_linear_14_10320)" fill-opacity="0.2"/>
<g id="Group">
<path id="Vector" d="M125.081 94.6108H25.083V60.6695C25.083 58.8642 26.0093 57.1827 27.5356 56.2196L70.8662 28.8518C73.4425 27.2255 76.7213 27.2255 79.2976 28.8518L122.628 56.2196C124.154 57.1853 125.081 58.8642 125.081 60.6695V94.6108Z" fill="url(#paint1_linear_14_10320)"/>
<path id="Vector_2" d="M114.56 103.947H35.6143V59.2115C35.6143 57.7589 36.7932 56.58 38.2458 56.58H111.928C113.381 56.58 114.56 57.7589 114.56 59.2115V103.947Z" fill="url(#paint2_linear_14_10320)"/>
<path id="Vector_3" d="M125.081 61.843V117.779C125.081 120.313 122.992 122.368 120.413 122.368H37.083L49.7222 105.718L125.081 61.843Z" fill="url(#paint3_linear_14_10320)"/>
<path id="Vector_4" d="M25.083 61.843V117.779C25.083 120.313 27.1724 122.368 29.7513 122.368H120.415C121.889 122.368 123.186 121.684 124.041 120.636L25.083 61.843Z" fill="url(#paint4_linear_14_10320)"/>
</g>
<rect x="2.58203" y="2.5" width="145" height="145" rx="7.5" stroke="#D5EAF6" stroke-width="5"/>
</g>
<defs>
<linearGradient id="paint0_linear_14_10320" x1="75.082" y1="5" x2="75.082" y2="145" gradientUnits="userSpaceOnUse">
<stop stop-color="#199AE0"/>
<stop offset="0.472222" stop-color="#0D5176" stop-opacity="0.527778"/>
<stop offset="0.940972" stop-color="#12A6F7" stop-opacity="0.465278"/>
<stop offset="1" stop-opacity="0"/>
</linearGradient>
<linearGradient id="paint1_linear_14_10320" x1="61.7164" y1="32.1464" x2="78.0897" y2="87.4083" gradientUnits="userSpaceOnUse">
<stop stop-color="#0078D3"/>
<stop offset="1" stop-color="#0858A1"/>
</linearGradient>
<linearGradient id="paint2_linear_14_10320" x1="75.0871" y1="57.6168" x2="75.0871" y2="92.0634" gradientUnits="userSpaceOnUse">
<stop stop-color="white"/>
<stop offset="0.24" stop-color="#F8F8F7"/>
<stop offset="1" stop-color="#E3E3E1"/>
</linearGradient>
<linearGradient id="paint3_linear_14_10320" x1="80.0452" y1="90.6213" x2="111.916" y2="136.233" gradientUnits="userSpaceOnUse">
<stop stop-color="#3CCBF4"/>
<stop offset="1" stop-color="#1FA0E5"/>
</linearGradient>
<linearGradient id="paint4_linear_14_10320" x1="20.0147" y1="88.7792" x2="117.086" y2="135.854" gradientUnits="userSpaceOnUse">
<stop stop-color="#28AFEA"/>
<stop offset="1" stop-color="#0B88DA"/>
</linearGradient>
</defs>
</svg>
