<svg width="151" height="150" viewBox="0 0 151 150" fill="none" xmlns="http://www.w3.org/2000/svg">
<g id="mail-error">
<rect x="2.58203" y="2.5" width="145" height="145" rx="7.5" fill="white"/>
<rect x="2.58203" y="2.5" width="145" height="145" rx="7.5" fill="url(#paint0_linear_14_10326)" fill-opacity="0.2"/>
<g id="Group">
<path id="Vector" d="M38.4277 71.6667L118.43 39.8878V98.3342C118.43 100.779 116.43 102.779 113.986 102.779H38.4277V71.6667Z" fill="url(#paint1_linear_14_10326)"/>
<path id="Vector_2" d="M25.084 39.8878V98.3342C25.084 100.779 27.084 102.779 29.5286 102.779H113.976C115.087 102.779 115.976 102.334 116.865 101.668L25.084 39.8878Z" fill="url(#paint2_linear_14_10326)"/>
<path id="Vector_3" opacity="0.05" d="M25.084 38.3322H118.42V42.1101L79.9747 71.8888C75.0856 75.6667 68.4187 75.6667 63.5297 71.8888L25.084 42.1101V38.3322Z" fill="black"/>
<path id="Vector_4" opacity="0.07" d="M25.084 37.2209H118.42V40.9988L78.4191 70.1109C74.4189 72.9999 69.0854 72.9999 65.3075 70.1109L25.084 40.9988V37.2209Z" fill="black"/>
<path id="Vector_5" d="M29.5286 31.6652H113.976C116.42 31.6652 118.42 33.6653 118.42 36.1098V39.8877L76.8634 68.3331C73.7522 70.3332 69.9743 70.3332 66.8631 68.3331L25.084 39.8877V36.1098C25.084 33.6653 27.084 31.6652 29.5286 31.6652Z" fill="#50E6FF"/>
<path id="Vector_6" opacity="0.05" d="M105.754 80.7778C105.087 79.4445 103.754 78.3333 101.754 78.3333C99.5316 78.3333 98.1983 79.8889 97.976 80.5556L83.9756 102.779H113.977C115.754 102.779 117.31 101.667 117.977 100.112L105.754 80.7778Z" fill="black"/>
<path id="Vector_7" opacity="0.07" d="M104.641 81.2225C104.419 80.5558 103.308 79.4447 101.752 79.4447C100.197 79.4447 99.0854 80.5558 98.8632 81.2225L85.085 102.779H113.975C115.308 102.779 116.642 102.112 117.308 101.223L104.641 81.2225Z" fill="black"/>
<path id="Vector_8" d="M124.637 114.779L103.747 81.6669C103.747 81.6669 103.081 80.5558 101.747 80.5558C100.414 80.5558 99.7471 81.6669 99.7471 81.6669L78.8575 114.779C78.8575 114.779 78.4131 115.224 78.4131 116.112C78.4131 117.224 79.302 118.335 80.6354 118.335H122.859C124.192 118.335 125.081 117.446 125.081 116.112C125.081 115.446 124.637 114.779 124.637 114.779Z" fill="url(#paint3_linear_14_10326)"/>
<path id="Vector_9" d="M101.748 113.89C101.082 113.89 100.415 113.668 99.9704 113.223C99.5259 112.779 99.3037 112.335 99.3037 111.668C99.3037 111.001 99.5259 110.557 99.9704 110.112C100.415 109.668 101.082 109.446 101.748 109.446C102.415 109.446 103.082 109.668 103.526 110.112C103.971 110.557 104.193 111.001 104.193 111.668C104.193 112.335 103.971 112.779 103.526 113.223C103.082 113.668 102.415 113.89 101.748 113.89ZM104.193 92.5561L103.748 106.557C103.748 107.001 103.304 107.223 103.082 107.223H100.637C100.193 107.223 99.9704 106.779 99.9704 106.557L99.5259 92.5561C99.5259 92.1117 99.9704 91.6672 100.193 91.6672H103.748C103.971 91.6672 104.193 92.1117 104.193 92.5561Z" fill="url(#paint4_radial_14_10326)"/>
</g>
<rect x="2.58203" y="2.5" width="145" height="145" rx="7.5" stroke="#D5EAF6" stroke-width="5"/>
</g>
<defs>
<linearGradient id="paint0_linear_14_10326" x1="75.082" y1="5" x2="75.082" y2="145" gradientUnits="userSpaceOnUse">
<stop stop-color="#199AE0"/>
<stop offset="0.472222" stop-color="#0D5176" stop-opacity="0.527778"/>
<stop offset="0.940972" stop-color="#12A6F7" stop-opacity="0.465278"/>
<stop offset="1" stop-opacity="0"/>
</linearGradient>
<linearGradient id="paint1_linear_14_10326" x1="66.242" y1="53.0838" x2="119.746" y2="133.164" gradientUnits="userSpaceOnUse">
<stop stop-color="#28AFEA"/>
<stop offset="1" stop-color="#0B88DA"/>
</linearGradient>
<linearGradient id="paint2_linear_14_10326" x1="21.5461" y1="68.1332" x2="99.1553" y2="116.477" gradientUnits="userSpaceOnUse">
<stop stop-color="#28AFEA"/>
<stop offset="1" stop-color="#0B88DA"/>
</linearGradient>
<linearGradient id="paint3_linear_14_10326" x1="-266.185" y1="-310.435" x2="116.01" y2="127.911" gradientUnits="userSpaceOnUse">
<stop stop-color="#FFDA1C"/>
<stop offset="1" stop-color="#FEB705"/>
</linearGradient>
<radialGradient id="paint4_radial_14_10326" cx="0" cy="0" r="1" gradientUnits="userSpaceOnUse" gradientTransform="translate(95.9458 91.4273) scale(22.2696 22.9889)">
<stop stop-color="#4B4B4B"/>
<stop offset="0.531" stop-color="#393939"/>
<stop offset="1" stop-color="#252525"/>
</radialGradient>
</defs>
</svg>
