<svg width="151" height="150" viewBox="0 0 151 150" fill="none" xmlns="http://www.w3.org/2000/svg">
<g id="male-user">
<rect x="2.58203" y="2.5" width="145" height="145" rx="7.5" fill="white"/>
<rect x="2.58203" y="2.5" width="145" height="145" rx="7.5" fill="url(#paint0_linear_14_10350)" fill-opacity="0.2"/>
<g id="Group">
<path id="Vector" d="M125.082 75C125.082 102.613 102.695 125 75.082 125C47.4695 125 25.082 102.613 25.082 75C25.082 47.3875 47.4695 25 75.082 25C102.695 25 125.082 47.3875 125.082 75Z" fill="url(#paint1_radial_14_10350)"/>
<path id="Vector_2" d="M75.0767 125C89.5642 125 102.572 118.8 111.704 108.955C105.519 94.8575 91.4567 85 75.0767 85C58.6967 85 44.6342 94.8575 38.4492 108.955C47.5817 118.8 60.5892 125 75.0767 125Z" fill="url(#paint2_radial_14_10350)"/>
<path id="Vector_3" d="M75.082 88.75C88.1988 88.75 98.832 78.1168 98.832 65C98.832 51.8832 88.1988 41.25 75.082 41.25C61.9653 41.25 51.332 51.8832 51.332 65C51.332 78.1168 61.9653 88.75 75.082 88.75Z" fill="url(#paint3_radial_14_10350)"/>
<path id="Vector_4" d="M75.082 82.5C86.1277 82.5 95.082 73.5457 95.082 62.5C95.082 51.4543 86.1277 42.5 75.082 42.5C64.0363 42.5 55.082 51.4543 55.082 62.5C55.082 73.5457 64.0363 82.5 75.082 82.5Z" fill="url(#paint4_linear_14_10350)"/>
<path id="Vector_5" d="M75.0848 125C87.6223 125 99.0523 120.352 107.83 112.727C102.852 99.4599 90.0898 89.9999 75.0848 89.9999C60.0798 89.9999 47.3173 99.4599 42.3398 112.727C51.1173 120.352 62.5473 125 75.0848 125Z" fill="url(#paint5_linear_14_10350)"/>
</g>
<rect x="2.58203" y="2.5" width="145" height="145" rx="7.5" stroke="#D5EAF6" stroke-width="5"/>
</g>
<defs>
<linearGradient id="paint0_linear_14_10350" x1="75.082" y1="5" x2="75.082" y2="145" gradientUnits="userSpaceOnUse">
<stop stop-color="#199AE0"/>
<stop offset="0.472222" stop-color="#0D5176" stop-opacity="0.527778"/>
<stop offset="0.940972" stop-color="#12A6F7" stop-opacity="0.465278"/>
<stop offset="1" stop-opacity="0"/>
</linearGradient>
<radialGradient id="paint1_radial_14_10350" cx="0" cy="0" r="1" gradientUnits="userSpaceOnUse" gradientTransform="translate(43.0245 35.9825) scale(100.78)">
<stop stop-color="#0370C8"/>
<stop offset="0.484" stop-color="#036FC5"/>
<stop offset="0.775" stop-color="#036ABD"/>
<stop offset="1" stop-color="#0362B0"/>
</radialGradient>
<radialGradient id="paint2_radial_14_10350" cx="0" cy="0" r="1" gradientUnits="userSpaceOnUse" gradientTransform="translate(75.0767 125.27) scale(40.35)">
<stop/>
<stop offset="1" stop-opacity="0"/>
</radialGradient>
<radialGradient id="paint3_radial_14_10350" cx="0" cy="0" r="1" gradientUnits="userSpaceOnUse" gradientTransform="translate(75.082 65) scale(23.75)">
<stop/>
<stop offset="1" stop-opacity="0"/>
</radialGradient>
<linearGradient id="paint4_linear_14_10350" x1="61.5145" y1="48.9325" x2="89.4195" y2="76.8375" gradientUnits="userSpaceOnUse">
<stop stop-color="#75DAFF"/>
<stop offset="1" stop-color="#1EA2E4"/>
</linearGradient>
<linearGradient id="paint5_linear_14_10350" x1="57.6023" y1="93.0249" x2="92.3048" y2="127.727" gradientUnits="userSpaceOnUse">
<stop stop-color="#75DAFF"/>
<stop offset="1" stop-color="#1EA2E4"/>
</linearGradient>
</defs>
</svg>
