<svg width="151" height="150" viewBox="0 0 151 150" fill="none" xmlns="http://www.w3.org/2000/svg">
<g id="map-marker">
<rect x="2.58203" y="2.5" width="145" height="145" rx="7.5" fill="white"/>
<rect x="2.58203" y="2.5" width="145" height="145" rx="7.5" fill="url(#paint0_linear_14_10367)" fill-opacity="0.2"/>
<g id="Group">
<path id="Vector" d="M105.314 125H63.4531V41.2792H105.314C107.883 41.2792 109.965 43.3606 109.965 45.9303V120.349C109.965 122.919 107.883 125 105.314 125Z" fill="#35C1F1"/>
<path id="Vector_2" d="M45.8755 32.4976C45.5476 32.3325 45.1918 32.2511 44.8359 32.2511V115.972C45.1918 115.972 45.5476 116.053 45.8755 116.218L63.4406 125V41.279L45.8755 32.4976Z" fill="#199BE2"/>
<path id="Vector_3" d="M43.8073 32.4976L28.8143 39.993C27.2375 40.7813 26.2422 42.393 26.2422 44.1534V121.237C26.2422 122.965 28.0608 124.091 29.6073 123.316L43.8073 116.216C44.1352 116.053 44.491 115.97 44.8468 115.97V32.2488C44.491 32.2511 44.1352 32.3325 43.8073 32.4976Z" fill="#50E6FF"/>
<path id="Vector_4" opacity="0.05" d="M109.959 45.9303C109.959 43.3606 107.878 41.2792 105.308 41.2792H68.099C66.606 44.8606 65.7734 48.7861 65.7734 52.9071C65.7734 61.0978 69.0455 68.5164 74.3362 73.9629C74.3665 73.9931 93.6316 93.2768 93.6316 93.2768C94.9432 94.5884 97.0711 94.5884 98.3827 93.2768C98.3827 93.2768 104.587 87.0675 109.962 81.6884V45.9303H109.959Z" fill="black"/>
<path id="Vector_5" opacity="0.07" d="M109.969 45.9303C109.969 43.3606 107.887 41.2792 105.317 41.2792H69.3895C67.829 44.842 66.9453 48.7675 66.9453 52.9071C66.9453 60.7838 70.1174 67.8908 75.1779 73.1512C75.2058 73.1815 93.7313 91.721 93.7313 91.721C94.9918 92.9815 97.0383 92.9815 98.2988 91.721C98.2988 91.721 104.699 85.3164 109.969 80.0419V45.9303Z" fill="black"/>
<path id="Vector_6" d="M116.019 72.3418C120.905 67.3162 123.923 60.4674 123.923 52.907C123.923 37.4953 111.428 25 96.0163 25C80.6047 25 68.1094 37.4953 68.1094 52.907C68.1094 60.4674 71.128 67.3162 76.014 72.3418C76.0419 72.3697 93.8256 90.1697 93.8256 90.1697C95.0373 91.3813 97.0001 91.3813 98.2117 90.1697C98.2094 90.1697 115.993 72.3697 116.019 72.3418Z" fill="url(#paint1_linear_14_10367)"/>
<path id="Vector_7" d="M96.0154 65.9303C103.208 65.9303 109.039 60.0996 109.039 52.907C109.039 45.7145 103.208 39.8838 96.0154 39.8838C88.8229 39.8838 82.9922 45.7145 82.9922 52.907C82.9922 60.0996 88.8229 65.9303 96.0154 65.9303Z" fill="url(#paint2_radial_14_10367)"/>
<path id="Vector_8" d="M96.0065 64.0697C102.172 64.0697 107.169 59.072 107.169 52.9069C107.169 46.7419 102.172 41.7441 96.0065 41.7441C89.8415 41.7441 84.8438 46.7419 84.8438 52.9069C84.8438 59.072 89.8415 64.0697 96.0065 64.0697Z" fill="#F9F9F9"/>
</g>
<rect x="2.58203" y="2.5" width="145" height="145" rx="7.5" stroke="#D5EAF6" stroke-width="5"/>
</g>
<defs>
<linearGradient id="paint0_linear_14_10367" x1="75.082" y1="5" x2="75.082" y2="145" gradientUnits="userSpaceOnUse">
<stop stop-color="#199AE0"/>
<stop offset="0.472222" stop-color="#0D5176" stop-opacity="0.527778"/>
<stop offset="0.940972" stop-color="#12A6F7" stop-opacity="0.465278"/>
<stop offset="1" stop-opacity="0"/>
</linearGradient>
<linearGradient id="paint1_linear_14_10367" x1="76.2861" y1="33.1721" x2="115.747" y2="72.6325" gradientUnits="userSpaceOnUse">
<stop stop-color="#D43A02"/>
<stop offset="1" stop-color="#B9360C"/>
</linearGradient>
<radialGradient id="paint2_radial_14_10367" cx="0" cy="0" r="1" gradientUnits="userSpaceOnUse" gradientTransform="translate(96.013 52.9057) scale(13.0228 13.0228)">
<stop offset="0.177"/>
<stop offset="1" stop-opacity="0"/>
</radialGradient>
</defs>
</svg>
