<svg width="151" height="150" viewBox="0 0 151 150" fill="none" xmlns="http://www.w3.org/2000/svg">
<g id="math-folder">
<rect x="2.58203" y="2.5" width="145" height="145" rx="7.5" fill="white"/>
<rect x="2.58203" y="2.5" width="145" height="145" rx="7.5" fill="url(#paint0_linear_14_10377)" fill-opacity="0.2"/>
<g id="Group">
<path id="Vector" d="M76.0677 42.6524L70.0297 36.6143C68.6916 35.2762 66.8749 34.5238 64.9796 34.5238H29.8439C27.213 34.5238 25.082 36.6548 25.082 39.2857V110.714C25.082 113.345 27.213 115.476 29.8439 115.476H120.32C122.951 115.476 125.082 113.345 125.082 110.714V48.8095C125.082 46.1786 122.951 44.0476 120.32 44.0476H79.4344C78.1725 44.0476 76.9606 43.5452 76.0677 42.6524Z" fill="url(#paint1_linear_14_10377)"/>
<path id="Vector_2" d="M69.3344 52.1759L77.1154 44.395C77.3368 44.1736 77.6392 44.0474 77.9558 44.0474H120.32C122.951 44.0474 125.082 46.1783 125.082 48.8093V110.714C125.082 113.345 122.951 115.476 120.32 115.476H29.8439C27.213 115.476 25.082 113.345 25.082 110.714V54.7616C25.082 54.1045 25.6154 53.5712 26.2725 53.5712H65.9677C67.2297 53.5712 68.4416 53.0688 69.3344 52.1759Z" fill="url(#paint2_linear_14_10377)"/>
<path id="Vector_3" d="M82.2227 69.0475V71.4285C82.2227 72.0856 82.756 72.619 83.4131 72.619H100.08C100.737 72.619 101.27 72.0856 101.27 71.4285V69.0475C101.27 68.3904 100.737 67.8571 100.08 67.8571H83.4131C82.756 67.8571 82.2227 68.3904 82.2227 69.0475Z" fill="url(#paint3_linear_14_10377)"/>
<path id="Vector_4" d="M82.2227 92.8571V95.2381C82.2227 95.8952 82.756 96.4285 83.4131 96.4285H100.08C100.737 96.4285 101.27 95.8952 101.27 95.2381V92.8571C101.27 92.2 100.737 91.6666 100.08 91.6666H83.4131C82.756 91.6666 82.2227 92.2 82.2227 92.8571Z" fill="url(#paint4_linear_14_10377)"/>
<path id="Vector_5" d="M82.2227 102.381V104.762C82.2227 105.419 82.756 105.952 83.4131 105.952H100.08C100.737 105.952 101.27 105.419 101.27 104.762V102.381C101.27 101.724 100.737 101.191 100.08 101.191H83.4131C82.756 101.191 82.2227 101.724 82.2227 102.381Z" fill="url(#paint5_linear_14_10377)"/>
<path id="Vector_6" d="M59.6088 60.7144H57.2279C56.5707 60.7144 56.0374 61.2477 56.0374 61.9048V67.8572H50.085C49.4279 67.8572 48.8945 68.3905 48.8945 69.0477V71.4286C48.8945 72.0858 49.4279 72.6191 50.085 72.6191H56.0374V78.5715C56.0374 79.2286 56.5707 79.762 57.2279 79.762H59.6088C60.266 79.762 60.7993 79.2286 60.7993 78.5715V72.6191H66.7517C67.4088 72.6191 67.9422 72.0858 67.9422 71.4286V69.0477C67.9422 68.3905 67.4088 67.8572 66.7517 67.8572H60.7993V61.9048C60.7993 61.2477 60.266 60.7144 59.6088 60.7144Z" fill="url(#paint6_linear_14_10377)"/>
<path id="Vector_7" d="M62.6222 91.2356L58.4127 95.4427L54.2032 91.2332C53.7389 90.7689 52.9841 90.7689 52.5198 91.2332L50.8365 92.9166C50.3722 93.3808 50.3722 94.1356 50.8365 94.5999L55.046 98.8094L50.8365 103.019C50.3722 103.483 50.3722 104.238 50.8365 104.702L52.5198 106.386C52.9841 106.85 53.7389 106.85 54.2032 106.386L58.4127 102.176L62.6222 106.386C63.0865 106.85 63.8413 106.85 64.3055 106.386L65.9889 104.702C66.4532 104.238 66.4532 103.483 65.9889 103.019L61.7794 98.8094L65.9889 94.5999C66.4532 94.1356 66.4532 93.3808 65.9889 92.9166L64.3055 91.2332C63.8389 90.7689 63.0865 90.7689 62.6222 91.2356Z" fill="url(#paint7_linear_14_10377)"/>
</g>
<rect x="2.58203" y="2.5" width="145" height="145" rx="7.5" stroke="#D5EAF6" stroke-width="5"/>
</g>
<defs>
<linearGradient id="paint0_linear_14_10377" x1="75.082" y1="5" x2="75.082" y2="145" gradientUnits="userSpaceOnUse">
<stop stop-color="#199AE0"/>
<stop offset="0.472222" stop-color="#0D5176" stop-opacity="0.527778"/>
<stop offset="0.940972" stop-color="#12A6F7" stop-opacity="0.465278"/>
<stop offset="1" stop-opacity="0"/>
</linearGradient>
<linearGradient id="paint1_linear_14_10377" x1="75.082" y1="33.8286" x2="75.082" y2="53.5167" gradientUnits="userSpaceOnUse">
<stop stop-color="#EBA600"/>
<stop offset="1" stop-color="#C28200"/>
</linearGradient>
<linearGradient id="paint2_linear_14_10377" x1="75.082" y1="43.6997" x2="75.082" y2="115.435" gradientUnits="userSpaceOnUse">
<stop stop-color="#FFD869"/>
<stop offset="1" stop-color="#FEC52B"/>
</linearGradient>
<linearGradient id="paint3_linear_14_10377" x1="91.5108" y1="67.819" x2="91.9179" y2="72.0094" gradientUnits="userSpaceOnUse">
<stop stop-color="#BD4FF4"/>
<stop offset="0.587" stop-color="#A235EC"/>
<stop offset="1" stop-color="#8C20E5"/>
</linearGradient>
<linearGradient id="paint4_linear_14_10377" x1="91.5108" y1="91.6285" x2="91.9179" y2="95.8166" gradientUnits="userSpaceOnUse">
<stop stop-color="#BD4FF4"/>
<stop offset="0.587" stop-color="#A235EC"/>
<stop offset="1" stop-color="#8C20E5"/>
</linearGradient>
<linearGradient id="paint5_linear_14_10377" x1="91.5108" y1="101.152" x2="91.9179" y2="105.341" gradientUnits="userSpaceOnUse">
<stop stop-color="#BD4FF4"/>
<stop offset="0.587" stop-color="#A235EC"/>
<stop offset="1" stop-color="#8C20E5"/>
</linearGradient>
<linearGradient id="paint6_linear_14_10377" x1="55.9922" y1="60.9501" x2="60.5231" y2="78.2905" gradientUnits="userSpaceOnUse">
<stop stop-color="#BD4FF4"/>
<stop offset="0.587" stop-color="#A235EC"/>
<stop offset="1" stop-color="#8C20E5"/>
</linearGradient>
<linearGradient id="paint7_linear_14_10377" x1="57.3484" y1="90.7499" x2="59.3246" y2="105.719" gradientUnits="userSpaceOnUse">
<stop stop-color="#BD4FF4"/>
<stop offset="0.587" stop-color="#A235EC"/>
<stop offset="1" stop-color="#8C20E5"/>
</linearGradient>
</defs>
</svg>
