<svg width="151" height="150" viewBox="0 0 151 150" fill="none" xmlns="http://www.w3.org/2000/svg">
<g id="meeting-room">
<rect x="2.58203" y="2.5" width="145" height="145" rx="7.5" fill="white"/>
<rect x="2.58203" y="2.5" width="145" height="145" rx="7.5" fill="url(#paint0_linear_14_10386)" fill-opacity="0.2"/>
<g id="Group">
<path id="Vector" d="M75.074 48.8111C80.3335 48.8111 84.5972 44.5474 84.5972 39.2879C84.5972 34.0283 80.3335 29.7646 75.074 29.7646C69.8145 29.7646 65.5508 34.0283 65.5508 39.2879C65.5508 44.5474 69.8145 48.8111 75.074 48.8111Z" fill="url(#paint1_linear_14_10386)"/>
<path id="Vector_2" d="M115.558 53.5728C120.818 53.5728 125.082 49.3091 125.082 44.0496C125.082 38.7901 120.818 34.5264 115.558 34.5264C110.299 34.5264 106.035 38.7901 106.035 44.0496C106.035 49.3091 110.299 53.5728 115.558 53.5728Z" fill="url(#paint2_linear_14_10386)"/>
<path id="Vector_3" d="M91.7414 80.9521H58.4102V72.6193C58.4102 63.4151 65.8716 55.9536 75.0758 55.9536C84.28 55.9536 91.7414 63.4151 91.7414 72.6193V80.9521Z" fill="url(#paint3_linear_14_10386)"/>
<path id="Vector_4" d="M115.544 60.7152C110.285 60.7152 106.021 64.9792 106.021 70.2384V89.2396L93.2148 91.7562C91.0173 92.1776 89.3555 94.106 89.3555 96.4273V116.664C89.3555 118.635 90.9554 120.235 92.9267 120.235C94.898 120.235 96.3098 118.593 96.5431 116.664C96.6312 115.933 98.4263 101.189 98.4263 101.189H115.544C120.804 101.189 125.068 96.9249 125.068 91.6657V70.2384C125.068 64.9792 120.804 60.7152 115.544 60.7152Z" fill="url(#paint4_linear_14_10386)"/>
<path id="Vector_5" d="M34.6053 53.5728C39.8648 53.5728 44.1285 49.3091 44.1285 44.0496C44.1285 38.7901 39.8648 34.5264 34.6053 34.5264C29.3457 34.5264 25.082 38.7901 25.082 44.0496C25.082 49.3091 29.3457 53.5728 34.6053 53.5728Z" fill="url(#paint5_linear_14_10386)"/>
<path id="Vector_6" d="M34.6053 60.7152C39.8645 60.7152 44.1285 64.9792 44.1285 70.2384V89.2396L56.9348 91.7562C59.1323 92.1776 60.7941 94.106 60.7941 96.4273V116.664C60.7941 118.635 59.1942 120.235 57.2229 120.235C55.2516 120.235 53.8398 118.593 53.6065 116.664C53.5184 115.933 51.7232 101.189 51.7232 101.189H34.6053C29.3461 101.189 25.082 96.9249 25.082 91.6657V70.2384C25.082 64.9792 29.3461 60.7152 34.6053 60.7152Z" fill="url(#paint6_linear_14_10386)"/>
<path id="Vector_7" d="M96.497 84.5233H53.6425C52.3283 84.5233 51.2617 83.4567 51.2617 82.1425V79.7617C51.2617 78.4475 52.3283 77.3809 53.6425 77.3809H96.497C97.8112 77.3809 98.8778 78.4475 98.8778 79.7617V82.1425C98.8778 83.4567 97.8112 84.5233 96.497 84.5233Z" fill="#33CCFF"/>
</g>
<rect x="2.58203" y="2.5" width="145" height="145" rx="7.5" stroke="#D5EAF6" stroke-width="5"/>
</g>
<defs>
<linearGradient id="paint0_linear_14_10386" x1="75.082" y1="5" x2="75.082" y2="145" gradientUnits="userSpaceOnUse">
<stop stop-color="#199AE0"/>
<stop offset="0.472222" stop-color="#0D5176" stop-opacity="0.527778"/>
<stop offset="0.940972" stop-color="#12A6F7" stop-opacity="0.465278"/>
<stop offset="1" stop-opacity="0"/>
</linearGradient>
<linearGradient id="paint1_linear_14_10386" x1="68.0411" y1="32.255" x2="81.6831" y2="45.897" gradientUnits="userSpaceOnUse">
<stop stop-color="#0D61A9"/>
<stop offset="1" stop-color="#16528C"/>
</linearGradient>
<linearGradient id="paint2_linear_14_10386" x1="110.904" y1="34.8478" x2="119.949" y2="52.73" gradientUnits="userSpaceOnUse">
<stop stop-color="#199AE0"/>
<stop offset="1" stop-color="#0782D8"/>
</linearGradient>
<linearGradient id="paint3_linear_14_10386" x1="67.0858" y1="58.0082" x2="78.3351" y2="81.8092" gradientUnits="userSpaceOnUse">
<stop stop-color="#0D61A9"/>
<stop offset="1" stop-color="#16528C"/>
</linearGradient>
<linearGradient id="paint4_linear_14_10386" x1="85.7105" y1="10.0517" x2="119.696" y2="141.272" gradientUnits="userSpaceOnUse">
<stop stop-color="#199AE0"/>
<stop offset="1" stop-color="#0782D8"/>
</linearGradient>
<linearGradient id="paint5_linear_14_10386" x1="39.2597" y1="34.8478" x2="30.2151" y2="52.73" gradientUnits="userSpaceOnUse">
<stop stop-color="#199AE0"/>
<stop offset="1" stop-color="#0782D8"/>
</linearGradient>
<linearGradient id="paint6_linear_14_10386" x1="64.4391" y1="10.0517" x2="30.4531" y2="141.272" gradientUnits="userSpaceOnUse">
<stop stop-color="#199AE0"/>
<stop offset="1" stop-color="#0782D8"/>
</linearGradient>
</defs>
</svg>
