<svg width="151" height="150" viewBox="0 0 151 150" fill="none" xmlns="http://www.w3.org/2000/svg">
<g id="microsoft-outlook-2019">
<rect x="2.58203" y="2.5" width="145" height="145" rx="7.5" fill="white"/>
<rect x="2.58203" y="2.5" width="145" height="145" rx="7.5" fill="url(#paint0_linear_14_10411)" fill-opacity="0.2"/>
<g id="Group">
<path id="Vector" d="M123.254 73.8952L106.646 64.2209V92.495H125.071V77.0557C125.071 75.7534 124.378 74.5512 123.254 73.8952Z" fill="#103262"/>
<path id="Vector_2" d="M49.4727 40.8584H73.8595V62.8066H49.4727V40.8584Z" fill="#0084D7"/>
<path id="Vector_3" d="M73.8496 40.8584H98.2365V62.8066H73.8496V40.8584Z" fill="#33AFEC"/>
<path id="Vector_4" d="M98.248 40.8584H122.635V62.8066H98.248V40.8584Z" fill="#54DAFF"/>
<path id="Vector_5" d="M73.8496 62.8064H98.2365V84.7546H73.8496V62.8064Z" fill="#027AD4"/>
<path id="Vector_6" d="M73.8496 84.7546H98.2365V106.703H73.8496V84.7546Z" fill="#0553A4"/>
<path id="Vector_7" d="M98.248 62.8064H122.635V84.7546H98.248V62.8064Z" fill="#25A2E5"/>
<path id="Vector_8" d="M98.248 84.7546H122.635V106.703H98.248V84.7546Z" fill="#0262B8"/>
<path id="Vector_9" opacity="0.019" d="M49.4727 106.703H122.633V75.5804L88.4672 95.0899L49.4727 75.5804V106.703Z" fill="black"/>
<path id="Vector_10" opacity="0.038" d="M49.4727 106.703H122.633V76.1609L88.4672 95.6703L49.4727 76.1609V106.703Z" fill="black"/>
<path id="Vector_11" opacity="0.057" d="M49.4727 106.703H122.633V76.7411L88.4672 96.2506L49.4727 76.7411V106.703Z" fill="black"/>
<path id="Vector_12" opacity="0.076" d="M49.4727 106.703H122.633V77.3215L88.4672 96.831L49.4727 77.3215V106.703Z" fill="black"/>
<path id="Vector_13" opacity="0.095" d="M49.4727 106.703H122.633V77.902L88.4672 97.4115L49.4727 77.902V106.703Z" fill="black"/>
<path id="Vector_14" opacity="0.114" d="M49.4727 106.703H122.633V78.4848L88.4672 97.9943L49.4727 78.4848V106.703Z" fill="black"/>
<path id="Vector_15" opacity="0.133" d="M49.4727 106.703H122.633V79.0651L88.4672 98.5746L49.4727 79.0651V106.703Z" fill="black"/>
<path id="Vector_16" opacity="0.152" d="M49.4727 106.703H122.633V79.6456L88.4672 99.1551L49.4727 79.6456V106.703Z" fill="black"/>
<path id="Vector_17" opacity="0.171" d="M49.4727 106.703H122.633V80.226L88.4672 99.7355L49.4727 80.226V106.703Z" fill="black"/>
<path id="Vector_18" opacity="0.191" d="M49.4727 106.703H122.633V80.8064L88.4672 100.316L49.4727 80.8064V106.703Z" fill="black"/>
<path id="Vector_19" opacity="0.209" d="M49.4727 106.703H122.633V81.3868L88.4672 100.896L49.4727 81.3868V106.703Z" fill="black"/>
<path id="Vector_20" opacity="0.229" d="M49.4727 106.703H122.633V81.9672L88.4672 101.477L49.4727 81.9672V106.703Z" fill="black"/>
<path id="Vector_21" opacity="0.248" d="M49.4727 106.703H122.633V82.5477L88.4672 102.057L49.4727 82.5477V106.703Z" fill="black"/>
<path id="Vector_22" opacity="0.267" d="M49.4727 106.703H122.633V83.128L88.4672 102.637L49.4727 83.128V106.703Z" fill="black"/>
<path id="Vector_23" opacity="0.286" d="M49.4727 106.703H122.633V83.7083L88.4672 103.218L49.4727 83.7083V106.703Z" fill="black"/>
<path id="Vector_24" opacity="0.305" d="M49.4727 106.703H122.633V84.2913L88.4672 103.801L49.4727 84.2913V106.703Z" fill="black"/>
<path id="Vector_25" opacity="0.324" d="M49.4727 106.703H122.633V84.8717L88.4672 104.381L49.4727 84.8717V106.703Z" fill="black"/>
<path id="Vector_26" opacity="0.343" d="M49.4727 106.703H122.633V85.4521L88.4672 104.962L49.4727 85.4521V106.703Z" fill="black"/>
<path id="Vector_27" opacity="0.362" d="M49.4727 106.703H122.633V86.0325L88.4672 105.542L49.4727 86.0325V106.703Z" fill="black"/>
<path id="Vector_28" opacity="0.381" d="M49.4727 106.703H122.633V86.613L88.4672 106.122L49.4727 86.613V106.703Z" fill="black"/>
<path id="Vector_29" opacity="0.4" d="M49.4727 106.703H122.633V87.1932L88.4672 106.703L49.4727 87.1932V106.703Z" fill="black"/>
<path id="Vector_30" d="M55.4224 118.896H120.201C122.894 118.896 125.076 116.728 125.079 114.034C125.086 103.008 125.069 77.0559 125.069 77.0559C125.069 77.0559 125.052 77.5973 120.799 80.0116C116.546 82.4259 53.7227 117.838 53.7227 117.838C53.7227 117.838 54.2933 118.896 55.4224 118.896Z" fill="url(#paint1_linear_14_10411)"/>
<path id="Vector_31" d="M122.633 40.8583H49.4727V35.981C49.4727 33.2862 51.6553 31.1036 54.35 31.1036H117.756C120.451 31.1036 122.633 33.2862 122.633 35.981V40.8583Z" fill="url(#paint2_linear_14_10411)"/>
<path id="Vector_32" d="M49.4727 77.4386V114.019C49.4727 116.714 51.6553 118.896 54.35 118.896H90.9303H120.204C121.331 118.896 122.358 118.501 123.182 117.86L49.4727 77.4386Z" fill="url(#paint3_linear_14_10411)"/>
<path id="Vector_33" opacity="0.05" d="M69.7601 48.1745H49.4727V106.703H69.7601C74.7179 106.703 78.7369 102.684 78.7369 97.7261V57.1513C78.7369 52.1934 74.7179 48.1745 69.7601 48.1745Z" fill="black"/>
<path id="Vector_34" opacity="0.07" d="M69.5016 104.264H49.4727V48.9865H69.5016C73.7059 48.9865 77.1127 52.3934 77.1127 56.5976V96.653C77.1103 100.857 73.7034 104.264 69.5016 104.264Z" fill="black"/>
<path id="Vector_35" opacity="0.09" d="M69.2406 101.826H49.4727V49.8011H69.2406C72.6889 49.8011 75.4837 52.5958 75.4837 56.0441V95.5825C75.4861 99.0308 72.6889 101.826 69.2406 101.826Z" fill="black"/>
<path id="Vector_36" d="M68.9784 99.3869H29.9594C27.2647 99.3869 25.082 97.2042 25.082 94.5095V55.4905C25.082 52.7958 27.2647 50.6132 29.9594 50.6132H68.9784C71.6731 50.6132 73.8557 52.7958 73.8557 55.4905V94.5095C73.8557 97.2042 71.6731 99.3869 68.9784 99.3869Z" fill="url(#paint4_linear_14_10411)"/>
<path id="Vector_37" d="M49.4654 62.053C41.8787 62.053 37.3086 67.8497 37.3086 75C37.3086 82.1502 41.8616 87.9469 49.4654 87.9469C57.0717 87.9469 61.6223 82.1502 61.6223 75.0024C61.6223 67.8497 57.0522 62.053 49.4654 62.053ZM49.4654 83.5768C45.1612 83.5768 42.5883 79.7383 42.5883 75.0024C42.5883 70.2665 45.1733 66.428 49.4654 66.428C53.7575 66.428 56.345 70.2689 56.345 75.0024C56.345 79.7359 53.7673 83.5768 49.4654 83.5768Z" fill="white"/>
</g>
<rect x="2.58203" y="2.5" width="145" height="145" rx="7.5" stroke="#D5EAF6" stroke-width="5"/>
</g>
<defs>
<linearGradient id="paint0_linear_14_10411" x1="75.082" y1="5" x2="75.082" y2="145" gradientUnits="userSpaceOnUse">
<stop stop-color="#199AE0"/>
<stop offset="0.472222" stop-color="#0D5176" stop-opacity="0.527778"/>
<stop offset="0.940972" stop-color="#12A6F7" stop-opacity="0.465278"/>
<stop offset="1" stop-opacity="0"/>
</linearGradient>
<linearGradient id="paint1_linear_14_10411" x1="112.692" y1="76.3584" x2="96.5021" y2="104.323" gradientUnits="userSpaceOnUse">
<stop stop-color="#31ABEC"/>
<stop offset="1" stop-color="#1582D5"/>
</linearGradient>
<linearGradient id="paint2_linear_14_10411" x1="51.0944" y1="33.5228" x2="118.451" y2="38.6001" gradientUnits="userSpaceOnUse">
<stop offset="0.042" stop-color="#076DB4"/>
<stop offset="0.85" stop-color="#0461AF"/>
</linearGradient>
<linearGradient id="paint3_linear_14_10411" x1="86.426" y1="97.4797" x2="75.4154" y2="116.701" gradientUnits="userSpaceOnUse">
<stop stop-color="#33ACEE"/>
<stop offset="1" stop-color="#1B8EDF"/>
</linearGradient>
<linearGradient id="paint4_linear_14_10411" x1="26.3745" y1="51.9057" x2="72.4169" y2="97.948" gradientUnits="userSpaceOnUse">
<stop stop-color="#1784D8"/>
<stop offset="1" stop-color="#0864C5"/>
</linearGradient>
</defs>
</svg>
