<svg width="151" height="150" viewBox="0 0 151 150" fill="none" xmlns="http://www.w3.org/2000/svg">
<g id="mobile-shop-credit">
<rect x="2.58203" y="2.5" width="145" height="145" rx="7.5" fill="white"/>
<rect x="2.58203" y="2.5" width="145" height="145" rx="7.5" fill="url(#paint0_linear_14_10450)" fill-opacity="0.2"/>
<g id="Group">
<path id="Vector" d="M90.9947 36.3635H36.4492V113.636C36.4492 116.148 38.4833 118.182 40.9947 118.182H86.4492C88.9606 118.182 90.9947 116.148 90.9947 113.636V36.3635Z" fill="#1B9DE2"/>
<path id="Vector_2" opacity="0.05" d="M90.9876 113.636V86.3635H68.2603C65.7535 86.3635 63.7148 88.4021 63.7148 90.9089V118.182H72.8058H86.4421C88.9535 118.182 90.9876 116.148 90.9876 113.636Z" fill="black"/>
<path id="Vector_3" opacity="0.07" d="M71.6658 117.045H89.4181C90.3704 116.211 90.984 115.002 90.984 113.636V87.5H68.2567C66.3772 87.5 64.8477 89.0295 64.8477 90.9091V118.182H71.6658V117.045Z" fill="black"/>
<path id="Vector_4" d="M90.9947 36.3636H36.4492V29.5454C36.4492 27.0341 38.4833 25 40.9947 25H86.4492C88.9606 25 90.9947 27.0341 90.9947 29.5454V36.3636Z" fill="url(#paint1_linear_14_10450)"/>
<path id="Vector_5" d="M54.6225 32.3864C55.5639 32.3864 56.3271 31.6232 56.3271 30.6818C56.3271 29.7404 55.5639 28.9773 54.6225 28.9773C53.6811 28.9773 52.918 29.7404 52.918 30.6818C52.918 31.6232 53.6811 32.3864 54.6225 32.3864Z" fill="#6D75CF"/>
<path id="Vector_6" d="M71.6658 28.9773C71.2249 28.9773 60.7431 28.9773 60.3022 28.9773C59.3613 28.9773 58.5977 29.7409 58.5977 30.6818C58.5977 31.6227 59.3613 32.3864 60.3022 32.3864C60.7431 32.3864 71.2249 32.3864 71.6658 32.3864C72.6067 32.3864 73.3704 31.6227 73.3704 30.6818C73.3704 29.7409 72.6067 28.9773 71.6658 28.9773Z" fill="#6D75CF"/>
<path id="Vector_7" d="M88.7205 47.7273H38.7205L31.9023 54.5454V56.8182C31.9023 59.3295 33.9364 61.3636 36.4478 61.3636H90.9932C93.5046 61.3636 95.5387 59.3295 95.5387 56.8182V54.5454L88.7205 47.7273Z" fill="#353C9F"/>
<path id="Vector_8" d="M90.9932 36.3635H36.4478L31.9023 54.5453H95.5387L90.9932 36.3635Z" fill="#6D75CF"/>
<path id="Vector_9" d="M70.5415 125H68.2688C67.0143 125 65.9961 123.982 65.9961 122.727V118.039H70.5415V125Z" fill="#52BF8D"/>
<path id="Vector_10" d="M113.725 88.6363H70.543V115.909H113.725V88.6363Z" fill="#33C481"/>
<path id="Vector_11" d="M70.5415 120.454H68.2688C67.0143 120.454 65.9961 119.436 65.9961 118.182V113.166H70.5415V120.454Z" fill="#59D19A"/>
<path id="Vector_12" d="M70.5415 115.909H68.2688C67.0143 115.909 65.9961 114.891 65.9961 113.636V90.909C65.9961 89.6545 67.0143 88.6363 68.2688 88.6363H70.5415V115.909Z" fill="#61E3A7"/>
<path id="Vector_13" d="M113.725 115.909H70.543V120.454H113.725V115.909Z" fill="#21A366"/>
<path id="Vector_14" d="M113.725 120.455H70.543V125H113.725V120.455Z" fill="#107C42"/>
<path id="Vector_15" d="M84.1651 111.364C89.1859 111.364 93.256 107.294 93.256 102.273C93.256 97.252 89.1859 93.1819 84.1651 93.1819C79.1444 93.1819 75.0742 97.252 75.0742 102.273C75.0742 107.294 79.1444 111.364 84.1651 111.364Z" fill="#61E3A7"/>
<path id="Vector_16" d="M97.8079 111.364C99.0631 111.364 100.081 110.346 100.081 109.091C100.081 107.836 99.0631 106.818 97.8079 106.818C96.5527 106.818 95.5352 107.836 95.5352 109.091C95.5352 110.346 96.5527 111.364 97.8079 111.364Z" fill="#61E3A7"/>
<path id="Vector_17" d="M106.902 111.364C108.157 111.364 109.174 110.346 109.174 109.091C109.174 107.836 108.157 106.818 106.902 106.818C105.646 106.818 104.629 107.836 104.629 109.091C104.629 110.346 105.646 111.364 106.902 111.364Z" fill="#61E3A7"/>
<path id="Vector_18" d="M115.988 125H113.715V118.039H118.26V122.727C118.26 123.982 117.242 125 115.988 125Z" fill="#52BF8D"/>
<path id="Vector_19" d="M115.988 120.454H113.715V113.166H118.26V118.182C118.26 119.436 117.242 120.454 115.988 120.454Z" fill="#59D19A"/>
<path id="Vector_20" d="M115.988 115.909H113.715V88.6363H115.988C117.242 88.6363 118.26 89.6545 118.26 90.909V113.636C118.26 114.891 117.242 115.909 115.988 115.909Z" fill="#61E3A7"/>
</g>
<rect x="2.58203" y="2.5" width="145" height="145" rx="7.5" stroke="#D5EAF6" stroke-width="5"/>
</g>
<defs>
<linearGradient id="paint0_linear_14_10450" x1="75.082" y1="5" x2="75.082" y2="145" gradientUnits="userSpaceOnUse">
<stop stop-color="#199AE0"/>
<stop offset="0.472222" stop-color="#0D5176" stop-opacity="0.527778"/>
<stop offset="0.940972" stop-color="#12A6F7" stop-opacity="0.465278"/>
<stop offset="1" stop-opacity="0"/>
</linearGradient>
<linearGradient id="paint1_linear_14_10450" x1="36.4492" y1="30.6818" x2="90.9947" y2="30.6818" gradientUnits="userSpaceOnUse">
<stop stop-color="#464EB0"/>
<stop offset="1" stop-color="#343B9E"/>
</linearGradient>
</defs>
</svg>
