<svg width="151" height="150" viewBox="0 0 151 150" fill="none" xmlns="http://www.w3.org/2000/svg">
<g id="mockup">
<rect x="2.58203" y="2.5" width="145" height="145" rx="7.5" fill="white"/>
<rect x="2.58203" y="2.5" width="145" height="145" rx="7.5" fill="url(#paint0_linear_14_10472)" fill-opacity="0.2"/>
<g id="Group">
<path id="Vector" d="M119.538 124.914L30.7237 125C27.6709 125.003 25.1709 122.508 25.1681 119.456L25.082 30.6417C25.0793 27.5889 27.5737 25.0889 30.6265 25.0861L119.44 25C122.493 24.9972 124.993 27.4917 124.996 30.5444L125.082 119.358C125.085 122.411 122.59 124.911 119.538 124.914Z" fill="url(#paint1_linear_14_10472)"/>
<path id="Vector_2" d="M115.355 111.111H34.799C34.0324 111.111 33.4102 110.489 33.4102 109.722V40.2778C33.4102 39.5111 34.0324 38.8889 34.799 38.8889H115.355C116.121 38.8889 116.743 39.5111 116.743 40.2778V109.722C116.743 110.489 116.121 111.111 115.355 111.111Z" fill="#50E6FF"/>
<path id="Vector_3" d="M108.421 75H41.7539V102.778H108.421V75Z" fill="url(#paint2_linear_14_10472)"/>
<path id="Vector_4" d="M72.3095 47.2223H41.7539V69.4445H72.3095V47.2223Z" fill="url(#paint3_linear_14_10472)"/>
<path id="Vector_5" d="M108.411 47.2223H77.8555V69.4445H108.411V47.2223Z" fill="url(#paint4_linear_14_10472)"/>
</g>
<rect x="2.58203" y="2.5" width="145" height="145" rx="7.5" stroke="#D5EAF6" stroke-width="5"/>
</g>
<defs>
<linearGradient id="paint0_linear_14_10472" x1="75.082" y1="5" x2="75.082" y2="145" gradientUnits="userSpaceOnUse">
<stop stop-color="#199AE0"/>
<stop offset="0.472222" stop-color="#0D5176" stop-opacity="0.527778"/>
<stop offset="0.940972" stop-color="#12A6F7" stop-opacity="0.465278"/>
<stop offset="1" stop-opacity="0"/>
</linearGradient>
<linearGradient id="paint1_linear_14_10472" x1="75.0154" y1="25.4389" x2="75.0154" y2="125.125" gradientUnits="userSpaceOnUse">
<stop stop-color="#0568BA"/>
<stop offset="1" stop-color="#0B59A2"/>
</linearGradient>
<linearGradient id="paint2_linear_14_10472" x1="-799.868" y1="1092.39" x2="119.012" y2="38.5085" gradientUnits="userSpaceOnUse">
<stop stop-color="#42A3F2"/>
<stop offset="1" stop-color="#42A4EB"/>
</linearGradient>
<linearGradient id="paint3_linear_14_10472" x1="-440.654" y1="629.139" x2="82.0179" y2="29.6779" gradientUnits="userSpaceOnUse">
<stop stop-color="#42A3F2"/>
<stop offset="1" stop-color="#42A4EB"/>
</linearGradient>
<linearGradient id="paint4_linear_14_10472" x1="-404.553" y1="629.139" x2="118.119" y2="29.6779" gradientUnits="userSpaceOnUse">
<stop stop-color="#42A3F2"/>
<stop offset="1" stop-color="#42A4EB"/>
</linearGradient>
</defs>
</svg>
