<svg width="151" height="150" viewBox="0 0 151 150" fill="none" xmlns="http://www.w3.org/2000/svg">
<g id="movie-ticket">
<rect x="2.58203" y="2.5" width="145" height="145" rx="7.5" fill="white"/>
<rect x="2.58203" y="2.5" width="145" height="145" rx="7.5" fill="url(#paint0_linear_14_10492)" fill-opacity="0.2"/>
<g id="Group">
<path id="Vector" d="M125.082 65.0575V42.5C125.082 39.7375 122.845 37.5 120.082 37.5H30.082C27.3195 37.5 25.082 39.7375 25.082 42.5V65.0575C28.102 67.3375 30.082 70.925 30.082 75C30.082 79.075 28.102 82.6625 25.082 84.9425V107.5C25.082 110.262 27.3195 112.5 30.082 112.5H120.082C122.845 112.5 125.082 110.262 125.082 107.5V84.9425C122.062 82.66 120.082 79.075 120.082 75C120.082 70.925 122.062 67.3375 125.082 65.0575ZM102.582 107.5C101.202 107.5 100.082 106.38 100.082 105C100.082 103.62 101.202 102.5 102.582 102.5C103.962 102.5 105.082 103.62 105.082 105C105.082 106.38 103.962 107.5 102.582 107.5ZM102.582 97.5C101.202 97.5 100.082 96.38 100.082 95C100.082 93.62 101.202 92.5 102.582 92.5C103.962 92.5 105.082 93.62 105.082 95C105.082 96.38 103.962 97.5 102.582 97.5ZM102.582 87.5C101.202 87.5 100.082 86.38 100.082 85C100.082 83.62 101.202 82.5 102.582 82.5C103.962 82.5 105.082 83.62 105.082 85C105.082 86.38 103.962 87.5 102.582 87.5ZM102.582 77.5C101.202 77.5 100.082 76.38 100.082 75C100.082 73.62 101.202 72.5 102.582 72.5C103.962 72.5 105.082 73.62 105.082 75C105.082 76.38 103.962 77.5 102.582 77.5ZM102.582 67.5C101.202 67.5 100.082 66.38 100.082 65C100.082 63.62 101.202 62.5 102.582 62.5C103.962 62.5 105.082 63.62 105.082 65C105.082 66.38 103.962 67.5 102.582 67.5ZM102.582 57.5C101.202 57.5 100.082 56.38 100.082 55C100.082 53.62 101.202 52.5 102.582 52.5C103.962 52.5 105.082 53.62 105.082 55C105.082 56.38 103.962 57.5 102.582 57.5ZM102.582 47.5C101.202 47.5 100.082 46.38 100.082 45C100.082 43.62 101.202 42.5 102.582 42.5C103.962 42.5 105.082 43.62 105.082 45C105.082 46.38 103.962 47.5 102.582 47.5Z" fill="url(#paint1_linear_14_10492)"/>
<path id="Vector_2" d="M66.6509 54.585L61.0934 67.0575L47.5159 68.4925C46.6409 68.5875 46.2909 69.6675 46.9409 70.2575L57.0809 79.395L54.2509 92.75C54.0684 93.61 54.9909 94.2775 55.7509 93.8375L67.5734 87.015L79.3984 93.8375C80.1584 94.275 81.0809 93.605 80.8984 92.75L78.0684 79.3925L88.2084 70.255C88.8609 69.67 88.5084 68.585 87.6334 68.49L74.0559 67.055L68.4984 54.5825C68.1484 53.78 67.0109 53.78 66.6509 54.585Z" fill="url(#paint2_linear_14_10492)"/>
</g>
<rect x="2.58203" y="2.5" width="145" height="145" rx="7.5" stroke="#D5EAF6" stroke-width="5"/>
</g>
<defs>
<linearGradient id="paint0_linear_14_10492" x1="75.082" y1="5" x2="75.082" y2="145" gradientUnits="userSpaceOnUse">
<stop stop-color="#199AE0"/>
<stop offset="0.472222" stop-color="#0D5176" stop-opacity="0.527778"/>
<stop offset="0.940972" stop-color="#12A6F7" stop-opacity="0.465278"/>
<stop offset="1" stop-opacity="0"/>
</linearGradient>
<linearGradient id="paint1_linear_14_10492" x1="46.797" y1="28.98" x2="104.032" y2="122.102" gradientUnits="userSpaceOnUse">
<stop stop-color="#FFD869"/>
<stop offset="1" stop-color="#FEC52B"/>
</linearGradient>
<linearGradient id="paint2_linear_14_10492" x1="65.7159" y1="52.76" x2="71.2409" y2="102.498" gradientUnits="userSpaceOnUse">
<stop stop-color="#F44F5A"/>
<stop offset="0.443" stop-color="#EE3D4A"/>
<stop offset="1" stop-color="#E52030"/>
</linearGradient>
</defs>
</svg>
