<svg width="151" height="150" viewBox="0 0 151 150" fill="none" xmlns="http://www.w3.org/2000/svg">
<g id="multiple-pages-mode">
<rect x="2.58203" y="2.5" width="145" height="145" rx="7.5" fill="white"/>
<rect x="2.58203" y="2.5" width="145" height="145" rx="7.5" fill="url(#paint0_linear_14_10496)" fill-opacity="0.2"/>
<g id="Group">
<path id="Vector" d="M66.7467 72.2223H30.6373C27.568 72.2223 25.082 69.7364 25.082 66.6671V30.5576C25.082 27.4883 27.568 25.0023 30.6373 25.0023H66.7467C69.816 25.0023 72.302 27.4883 72.302 30.5576V66.6671C72.302 69.7364 69.816 72.2223 66.7467 72.2223Z" fill="#50E6FF"/>
<path id="Vector_2" d="M25.082 30.5576H57.025C57.7916 30.5576 58.4138 31.1798 58.4138 31.9464V34.7241C58.4138 35.4907 57.7916 36.1129 57.025 36.1129H25.082V30.5576Z" fill="#057093"/>
<path id="Vector_3" d="M25.082 44.446H57.025C57.7916 44.446 58.4138 45.0681 58.4138 45.8348V48.6124C58.4138 49.3791 57.7916 50.0012 57.025 50.0012H25.082V44.446Z" fill="#057093"/>
<path id="Vector_4" d="M77.8535 66.9754V30.2493C77.8535 27.3522 80.2034 25.0023 83.1005 25.0023H119.827C122.724 25.0023 125.074 27.3522 125.074 30.2493V66.9754C125.074 69.8725 122.724 72.2223 119.827 72.2223H83.1005C80.2034 72.2223 77.8535 69.8725 77.8535 66.9754Z" fill="#50E6FF"/>
<path id="Vector_5" d="M125.084 36.1129H93.1408C92.3741 36.1129 91.752 35.4907 91.752 34.7241V31.9464C91.752 31.1798 92.3741 30.5576 93.1408 30.5576H125.084V36.1129Z" fill="#057093"/>
<path id="Vector_6" d="M125.084 50.0012H93.1408C92.3741 50.0012 91.752 49.3791 91.752 48.6124V45.8348C91.752 45.0681 92.3741 44.446 93.1408 44.446H125.084V50.0012Z" fill="#057093"/>
<path id="Vector_7" d="M72.302 83.3329V119.442C72.302 122.512 69.816 124.998 66.7467 124.998H30.6373C27.568 124.998 25.082 122.512 25.082 119.442V83.3329C25.082 80.2636 27.568 77.7776 30.6373 77.7776H66.7467C69.816 77.7776 72.302 80.2636 72.302 83.3329Z" fill="#50E6FF"/>
<path id="Vector_8" d="M25.082 113.887H57.025C57.7916 113.887 58.4138 114.509 58.4138 115.276V118.053C58.4138 118.82 57.7916 119.442 57.025 119.442H25.082V113.887Z" fill="#057093"/>
<path id="Vector_9" d="M25.082 99.9987H57.025C57.7916 99.9987 58.4138 100.621 58.4138 101.388V104.165C58.4138 104.932 57.7916 105.554 57.025 105.554H25.082V99.9987Z" fill="#057093"/>
<path id="Vector_10" d="M83.4088 77.7776H119.518C122.588 77.7776 125.074 80.2636 125.074 83.3329V119.442C125.074 122.512 122.588 124.998 119.518 124.998H83.4088C80.3395 124.998 77.8535 122.512 77.8535 119.442V83.3329C77.8535 80.2636 80.3395 77.7776 83.4088 77.7776Z" fill="#50E6FF"/>
<path id="Vector_11" d="M125.084 119.442H93.1408C92.3741 119.442 91.752 118.82 91.752 118.053V115.276C91.752 114.509 92.3741 113.887 93.1408 113.887H125.084V119.442Z" fill="#057093"/>
<path id="Vector_12" d="M125.084 105.554H93.1408C92.3741 105.554 91.752 104.932 91.752 104.165V101.388C91.752 100.621 92.3741 99.9987 93.1408 99.9987H125.084V105.554Z" fill="#057093"/>
</g>
<rect x="2.58203" y="2.5" width="145" height="145" rx="7.5" stroke="#D5EAF6" stroke-width="5"/>
</g>
<defs>
<linearGradient id="paint0_linear_14_10496" x1="75.082" y1="5" x2="75.082" y2="145" gradientUnits="userSpaceOnUse">
<stop stop-color="#199AE0"/>
<stop offset="0.472222" stop-color="#0D5176" stop-opacity="0.527778"/>
<stop offset="0.940972" stop-color="#12A6F7" stop-opacity="0.465278"/>
<stop offset="1" stop-opacity="0"/>
</linearGradient>
</defs>
</svg>
