<svg width="151" height="150" viewBox="0 0 151 150" fill="none" xmlns="http://www.w3.org/2000/svg">
<g id="navigation-toolbar-left">
<rect x="2.58203" y="2.5" width="145" height="145" rx="7.5" fill="white"/>
<rect x="2.58203" y="2.5" width="145" height="145" rx="7.5" fill="url(#paint0_linear_14_10519)" fill-opacity="0.2"/>
<g id="Group">
<path id="Vector" d="M47.3086 122.22C47.3086 123.753 48.553 124.998 50.0863 124.998H119.528C122.597 124.998 125.083 122.512 125.083 119.443V30.5575C125.083 27.4882 122.597 25.0022 119.528 25.0022H50.0863C48.553 25.0022 47.3086 26.2466 47.3086 27.7798V122.22Z" fill="#50E6FF"/>
<path id="Vector_2" d="M63.9692 25.0022H30.6373C27.568 25.0022 25.082 27.4882 25.082 30.5575V119.443C25.082 122.512 27.568 124.998 30.6373 124.998H63.9692V25.0022Z" fill="url(#paint1_linear_14_10519)"/>
<path id="Vector_3" d="M36.192 30.5575C33.1227 30.5575 30.6367 33.0435 30.6367 36.1128C30.6367 39.1821 33.1227 41.6681 36.192 41.6681C39.2613 41.6681 41.7473 39.1821 41.7473 36.1128C41.7473 33.0435 39.2613 30.5575 36.192 30.5575Z" fill="url(#paint2_linear_14_10519)"/>
<path id="Vector_4" d="M52.8639 30.5575C49.7946 30.5575 47.3086 33.0435 47.3086 36.1128C47.3086 39.1821 49.7946 41.6681 52.8639 41.6681C55.9332 41.6681 58.4192 39.1821 58.4192 36.1128C58.4192 33.0435 55.9332 30.5575 52.8639 30.5575Z" fill="url(#paint3_linear_14_10519)"/>
<path id="Vector_5" d="M57.0245 52.7788H32.0255C31.2589 52.7788 30.6367 52.1566 30.6367 51.39V48.6123C30.6367 47.8457 31.2589 47.2235 32.0255 47.2235H57.0245C57.7911 47.2235 58.4133 47.8457 58.4133 48.6123V51.39C58.4133 52.1566 57.7911 52.7788 57.0245 52.7788Z" fill="url(#paint4_linear_14_10519)"/>
</g>
<rect x="2.58203" y="2.5" width="145" height="145" rx="7.5" stroke="#D5EAF6" stroke-width="5"/>
</g>
<defs>
<linearGradient id="paint0_linear_14_10519" x1="75.082" y1="5" x2="75.082" y2="145" gradientUnits="userSpaceOnUse">
<stop stop-color="#199AE0"/>
<stop offset="0.472222" stop-color="#0D5176" stop-opacity="0.527778"/>
<stop offset="0.940972" stop-color="#12A6F7" stop-opacity="0.465278"/>
<stop offset="1" stop-opacity="0"/>
</linearGradient>
<linearGradient id="paint1_linear_14_10519" x1="79.1491" y1="122.762" x2="19.5767" y2="37.3044" gradientUnits="userSpaceOnUse">
<stop stop-color="#1951A8"/>
<stop offset="0.175" stop-color="#1955B0"/>
<stop offset="0.505" stop-color="#195AB9"/>
<stop offset="1" stop-color="#195BBC"/>
</linearGradient>
<linearGradient id="paint2_linear_14_10519" x1="31.4645" y1="31.3852" x2="39.3974" y2="39.3182" gradientUnits="userSpaceOnUse">
<stop stop-color="#FFC430"/>
<stop offset="0.41" stop-color="#FEC130"/>
<stop offset="0.72" stop-color="#FCB730"/>
<stop offset="0.998" stop-color="#F7A72F"/>
<stop offset="1" stop-color="#F7A72F"/>
</linearGradient>
<linearGradient id="paint3_linear_14_10519" x1="48.0919" y1="31.3408" x2="56.0054" y2="39.2543" gradientUnits="userSpaceOnUse">
<stop stop-color="#9DFFCE"/>
<stop offset="1" stop-color="#50D18D"/>
</linearGradient>
<linearGradient id="paint4_linear_14_10519" x1="30.6367" y1="50.0011" x2="58.4133" y2="50.0011" gradientUnits="userSpaceOnUse">
<stop stop-color="#7DD8F3"/>
<stop offset="1" stop-color="#45B0D0"/>
</linearGradient>
</defs>
</svg>
