<svg width="151" height="150" viewBox="0 0 151 150" fill="none" xmlns="http://www.w3.org/2000/svg">
<g id="new-window">
<rect x="2.58203" y="2.5" width="145" height="145" rx="7.5" fill="white"/>
<rect x="2.58203" y="2.5" width="145" height="145" rx="7.5" fill="url(#paint0_linear_14_10545)" fill-opacity="0.2"/>
<g id="Group">
<path id="Vector" d="M125.082 40V52.5H25.082V40C25.082 37.25 27.332 35 30.082 35H120.082C122.832 35 125.082 37.25 125.082 40Z" fill="url(#paint1_linear_14_10545)"/>
<path id="Vector_2" d="M25.082 110V50H125.082V110C125.082 112.75 122.832 115 120.082 115H30.082C27.332 115 25.082 112.75 25.082 110Z" fill="url(#paint2_linear_14_10545)"/>
<path id="Vector_3" opacity="0.05" d="M72.582 105C69.8245 105 67.582 102.758 67.582 100V90H57.582C54.8245 90 52.582 87.7575 52.582 85V80C52.582 77.2425 54.8245 75 57.582 75H67.582V65C67.582 62.2425 69.8245 60 72.582 60H77.582C80.3395 60 82.582 62.2425 82.582 65V75H92.582C95.3395 75 97.582 77.2425 97.582 80V85C97.582 87.7575 95.3395 90 92.582 90H82.582V100C82.582 102.758 80.3395 105 77.582 105H72.582Z" fill="black"/>
<path id="Vector_4" opacity="0.07" d="M72.5742 103.75C70.5067 103.75 68.8242 102.068 68.8242 100V88.75H57.5742C55.5067 88.75 53.8242 87.0675 53.8242 85V80C53.8242 77.9325 55.5067 76.25 57.5742 76.25H68.8242V65C68.8242 62.9325 70.5067 61.25 72.5742 61.25H77.5742C79.6417 61.25 81.3242 62.9325 81.3242 65V76.25H92.5742C94.6417 76.25 96.3242 77.9325 96.3242 80V85C96.3242 87.0675 94.6417 88.75 92.5742 88.75H81.3242V100C81.3242 102.068 79.6417 103.75 77.5742 103.75H72.5742Z" fill="black"/>
<path id="Vector_5" d="M92.582 77.5H80.082V65C80.082 63.62 78.962 62.5 77.582 62.5H72.582C71.202 62.5 70.082 63.62 70.082 65V77.5H57.582C56.202 77.5 55.082 78.62 55.082 80V85C55.082 86.38 56.202 87.5 57.582 87.5H70.082V100C70.082 101.38 71.202 102.5 72.582 102.5H77.582C78.962 102.5 80.082 101.38 80.082 100V87.5H92.582C93.962 87.5 95.082 86.38 95.082 85V80C95.082 78.62 93.962 77.5 92.582 77.5Z" fill="white"/>
</g>
<rect x="2.58203" y="2.5" width="145" height="145" rx="7.5" stroke="#D5EAF6" stroke-width="5"/>
</g>
<defs>
<linearGradient id="paint0_linear_14_10545" x1="75.082" y1="5" x2="75.082" y2="145" gradientUnits="userSpaceOnUse">
<stop stop-color="#199AE0"/>
<stop offset="0.472222" stop-color="#0D5176" stop-opacity="0.527778"/>
<stop offset="0.940972" stop-color="#12A6F7" stop-opacity="0.465278"/>
<stop offset="1" stop-opacity="0"/>
</linearGradient>
<linearGradient id="paint1_linear_14_10545" x1="26.617" y1="34.3525" x2="122.422" y2="53.8325" gradientUnits="userSpaceOnUse">
<stop stop-color="#0077D2"/>
<stop offset="1" stop-color="#0B59A2"/>
</linearGradient>
<linearGradient id="paint2_linear_14_10545" x1="48.2695" y1="41.99" x2="94.532" y2="108.91" gradientUnits="userSpaceOnUse">
<stop stop-color="#7DD8F3"/>
<stop offset="1" stop-color="#45B0D0"/>
</linearGradient>
</defs>
</svg>
