<svg width="151" height="150" viewBox="0 0 151 150" fill="none" xmlns="http://www.w3.org/2000/svg">
<g id="numbered-list">
<rect x="2.58203" y="2.5" width="145" height="145" rx="7.5" fill="white"/>
<rect x="2.58203" y="2.5" width="145" height="145" rx="7.5" fill="url(#paint0_linear_14_10558)" fill-opacity="0.2"/>
<g id="Group">
<path id="Vector" d="M120.321 53.5713H53.6545C51.0354 53.5713 48.8926 51.4285 48.8926 48.8094V44.0475C48.8926 41.4284 51.0354 39.2856 53.6545 39.2856H120.321C122.941 39.2856 125.083 41.4284 125.083 44.0475V48.8094C125.083 51.4285 122.941 53.5713 120.321 53.5713Z" fill="#727D86"/>
<path id="Vector_2" d="M120.321 82.143H53.6545C51.0354 82.143 48.8926 80.0001 48.8926 77.3811V72.6191C48.8926 70.0001 51.0354 67.8572 53.6545 67.8572H120.321C122.941 67.8572 125.083 70.0001 125.083 72.6191V77.3811C125.083 80.0001 122.941 82.143 120.321 82.143Z" fill="#727D86"/>
<path id="Vector_3" d="M120.321 110.715H53.6545C51.0354 110.715 48.8926 108.572 48.8926 105.953V101.191C48.8926 98.5716 51.0354 96.4287 53.6545 96.4287H120.321C122.941 96.4287 125.083 98.5716 125.083 101.191V105.953C125.083 108.572 122.941 110.715 120.321 110.715Z" fill="#727D86"/>
<path id="Vector_4" d="M29.1301 55.9523V42.5428C28.5301 42.8975 27.9087 43.1689 27.2658 43.3547C26.6229 43.5428 25.8944 43.6785 25.0801 43.7642V39.607C26.2372 39.4094 27.3158 39.0927 28.3134 38.6665C29.3111 38.2356 30.3325 37.6499 31.3777 36.9046H34.6039V55.9523H29.1301Z" fill="#C866E7"/>
<path id="Vector_5" d="M25.0801 84.5239V83.0215C25.0801 81.9596 25.211 81.0358 25.4753 80.2524C25.7396 79.4691 26.1563 78.7334 26.7229 78.0453C27.292 77.3572 28.2777 76.4738 29.6872 75.3929C30.6896 74.6095 31.3563 74.0453 31.6849 73.7024C32.0158 73.3572 32.2611 73.0262 32.423 72.7024C32.5849 72.381 32.6658 72.031 32.6658 71.6572C32.6658 70.4119 31.9111 69.7881 30.3944 69.7881C28.8539 69.7881 27.3991 70.3405 26.0253 71.4476V66.8881C27.0729 66.3666 28.0515 66 28.961 65.7905C29.8801 65.5809 30.8134 65.4762 31.773 65.4762C33.8325 65.4762 35.4277 65.9643 36.5539 66.9405C37.6801 67.9167 38.2444 69.2833 38.2444 71.0429C38.2444 72.3929 37.9468 73.5381 37.3587 74.4786C36.7706 75.4191 35.673 76.4 34.073 77.4191C32.8492 78.2024 32.0349 78.7762 31.6349 79.1381C31.2349 79.5 31.0301 79.8072 31.0206 80.0596H38.4135V84.5239H25.0801Z" fill="#C866E7"/>
<path id="Vector_6" d="M38.4135 107.507C38.4135 109.279 37.7182 110.655 36.3301 111.631C34.942 112.607 32.9563 113.095 30.3706 113.095C29.4087 113.095 28.4563 113.019 27.511 112.872C26.5682 112.722 25.7563 112.522 25.0801 112.274V107.983C25.6991 108.326 26.4087 108.595 27.2039 108.793C28.0015 108.991 28.8063 109.088 29.623 109.088C30.5682 109.088 31.292 108.931 31.7968 108.619C32.3015 108.307 32.5539 107.86 32.5539 107.276C32.5539 106.686 32.2444 106.224 31.6253 105.888C31.0039 105.555 30.1372 105.388 29.0277 105.388H27.1087V101.355H28.8039C29.923 101.355 30.7515 101.193 31.2825 100.874C31.8134 100.552 32.0825 100.136 32.0825 99.6215C32.0825 99.1334 31.8825 98.7477 31.4777 98.4644C31.0753 98.181 30.4587 98.0405 29.6253 98.0405C28.3372 98.0405 27.0515 98.3834 25.761 99.0691V94.9715C27.3706 94.3548 29.0682 94.0477 30.8444 94.0477C33.0468 94.0477 34.773 94.462 36.023 95.2929C37.273 96.1239 37.8992 97.2739 37.8992 98.7477C37.8992 99.8953 37.5611 100.857 36.8897 101.638C36.2182 102.417 35.2754 102.926 34.0658 103.167V103.231C35.4087 103.402 36.4682 103.876 37.2444 104.65C38.0254 105.426 38.4135 106.379 38.4135 107.507Z" fill="#C866E7"/>
</g>
<rect x="2.58203" y="2.5" width="145" height="145" rx="7.5" stroke="#D5EAF6" stroke-width="5"/>
</g>
<defs>
<linearGradient id="paint0_linear_14_10558" x1="75.082" y1="5" x2="75.082" y2="145" gradientUnits="userSpaceOnUse">
<stop stop-color="#199AE0"/>
<stop offset="0.472222" stop-color="#0D5176" stop-opacity="0.527778"/>
<stop offset="0.940972" stop-color="#12A6F7" stop-opacity="0.465278"/>
<stop offset="1" stop-opacity="0"/>
</linearGradient>
</defs>
</svg>
