<svg width="151" height="150" viewBox="0 0 151 150" fill="none" xmlns="http://www.w3.org/2000/svg">
<g id="number-pad">
<rect x="2.58203" y="2.5" width="145" height="145" rx="7.5" fill="white"/>
<rect x="2.58203" y="2.5" width="145" height="145" rx="7.5" fill="url(#paint0_linear_14_10566)" fill-opacity="0.2"/>
<g id="Group">
<path id="Vector" d="M123.789 54.4453C123.789 54.4453 118.78 48.5044 112.355 46.3476C105.93 44.193 91.2254 41.2476 90.3867 45.0453C92.9254 45.3999 93.8208 47.7612 93.7935 49.3749C93.7754 50.4226 93.639 55.2839 93.5435 58.5703C93.4913 60.393 94.6776 62.0226 96.4276 62.5339L113.319 67.4635C115.15 67.9976 117.105 67.168 117.991 65.4794L123.789 54.4453Z" fill="#1A9BA1"/>
<path id="Vector_2" d="M26.3711 54.4453C26.3711 54.4453 31.3802 48.5044 37.8052 46.3476C44.2302 44.193 58.9347 41.2476 59.7733 45.0453C57.2347 45.3999 56.3393 47.7612 56.3665 49.3749C56.3847 50.4226 56.5211 55.2839 56.6165 58.5703C56.6688 60.393 55.4824 62.0226 53.7324 62.5339L36.8415 67.4635C35.0097 67.9976 33.0552 67.168 32.1688 65.4794L26.3711 54.4453Z" fill="#1A9BA1"/>
<path id="Vector_3" d="M75.0809 44.066C57.7264 44.066 41.2627 47.8091 26.3741 54.4455L25.2332 50.166C24.6741 48.0705 25.7037 45.8455 27.6946 44.9864C42.2309 38.716 58.2445 35.2273 75.0809 35.2273C91.9172 35.2273 107.931 38.716 122.469 44.9841C124.46 45.8432 125.49 48.0682 124.931 50.1637L123.79 54.4432C108.899 47.8069 92.4354 44.066 75.0809 44.066Z" fill="#37C6D0"/>
<path id="Vector_4" d="M75.0721 92.0456C78.8377 92.0456 81.8903 88.993 81.8903 85.2274C81.8903 81.4618 78.8377 78.4092 75.0721 78.4092C71.3065 78.4092 68.2539 81.4618 68.2539 85.2274C68.2539 88.993 71.3065 92.0456 75.0721 92.0456Z" fill="#1B9DE2"/>
<path id="Vector_5" d="M75.0721 114.773C78.8377 114.773 81.8903 111.72 81.8903 107.954C81.8903 104.189 78.8377 101.136 75.0721 101.136C71.3065 101.136 68.2539 104.189 68.2539 107.954C68.2539 111.72 71.3065 114.773 75.0721 114.773Z" fill="#1B9DE2"/>
<path id="Vector_6" d="M97.8065 92.0456C101.572 92.0456 104.625 88.993 104.625 85.2274C104.625 81.4618 101.572 78.4092 97.8065 78.4092C94.0409 78.4092 90.9883 81.4618 90.9883 85.2274C90.9883 88.993 94.0409 92.0456 97.8065 92.0456Z" fill="#1B9DE2"/>
<path id="Vector_7" d="M97.8065 114.773C101.572 114.773 104.625 111.72 104.625 107.954C104.625 104.189 101.572 101.136 97.8065 101.136C94.0409 101.136 90.9883 104.189 90.9883 107.954C90.9883 111.72 94.0409 114.773 97.8065 114.773Z" fill="#1B9DE2"/>
<path id="Vector_8" d="M52.3533 92.0456C56.1189 92.0456 59.1715 88.993 59.1715 85.2274C59.1715 81.4618 56.1189 78.4092 52.3533 78.4092C48.5878 78.4092 45.5352 81.4618 45.5352 85.2274C45.5352 88.993 48.5878 92.0456 52.3533 92.0456Z" fill="#1B9DE2"/>
<path id="Vector_9" d="M52.3533 114.773C56.1189 114.773 59.1715 111.72 59.1715 107.954C59.1715 104.189 56.1189 101.136 52.3533 101.136C48.5878 101.136 45.5352 104.189 45.5352 107.954C45.5352 111.72 48.5878 114.773 52.3533 114.773Z" fill="#1B9DE2"/>
</g>
<rect x="2.58203" y="2.5" width="145" height="145" rx="7.5" stroke="#D5EAF6" stroke-width="5"/>
</g>
<defs>
<linearGradient id="paint0_linear_14_10566" x1="75.082" y1="5" x2="75.082" y2="145" gradientUnits="userSpaceOnUse">
<stop stop-color="#199AE0"/>
<stop offset="0.472222" stop-color="#0D5176" stop-opacity="0.527778"/>
<stop offset="0.940972" stop-color="#12A6F7" stop-opacity="0.465278"/>
<stop offset="1" stop-opacity="0"/>
</linearGradient>
</defs>
</svg>
