<svg width="151" height="150" viewBox="0 0 151 150" fill="none" xmlns="http://www.w3.org/2000/svg">
<g id="ok">
<rect x="2.58203" y="2.5" width="145" height="145" rx="7.5" fill="white"/>
<rect x="2.58203" y="2.5" width="145" height="145" rx="7.5" fill="url(#paint0_linear_14_10583)" fill-opacity="0.2"/>
<g id="Group">
<path id="Vector" d="M50.2337 101.796C42.8137 101.796 36.7651 99.3795 32.0928 94.5489C27.4206 89.7183 25.082 83.4261 25.082 75.6675C25.082 67.4776 27.4547 60.8517 32.2 55.7921C36.9478 50.7326 43.2375 48.204 51.0668 48.204C58.4601 48.204 64.4405 50.6278 69.0055 55.4682C73.5706 60.3109 75.8531 66.6932 75.8531 74.62C75.8531 82.7611 73.4878 89.3261 68.7546 94.3126C64.019 99.3015 57.8487 101.796 50.2337 101.796ZM50.7404 58.2501C46.6455 58.2501 43.3934 59.7872 40.9842 62.8565C38.575 65.9308 37.3716 69.9965 37.3716 75.056C37.3716 80.1862 38.575 84.2471 40.9842 87.2336C43.3934 90.2226 46.5481 91.7134 50.453 91.7134C54.4748 91.7134 57.6684 90.2615 60.0313 87.3578C62.3918 84.4565 63.5684 80.425 63.5684 75.2728C63.5684 69.899 62.4235 65.7213 60.1361 62.7323C57.8487 59.7458 54.716 58.2501 50.7404 58.2501Z" fill="url(#paint1_linear_14_10583)"/>
<path id="Vector_2" d="M122.515 100.89H114.152C113.299 100.89 112.5 100.463 112.025 99.7546L96.1255 78.0815V98.3271C96.1255 99.7424 94.9781 100.887 93.5652 100.887H87.0173C85.6019 100.887 84.457 99.74 84.457 98.3271V51.629C84.457 50.2137 85.6044 49.0688 87.0173 49.0688H93.5652C94.9805 49.0688 96.1255 50.2161 96.1255 51.629V71.0074L111.304 50.2161C111.779 49.4999 112.581 49.0688 113.441 49.0688H120.934C123.029 49.0688 124.239 51.4487 123.002 53.1417L107.911 73.7868L124.59 96.8265C125.815 98.522 124.607 100.89 122.515 100.89Z" fill="url(#paint2_linear_14_10583)"/>
</g>
<rect x="2.58203" y="2.5" width="145" height="145" rx="7.5" stroke="#D5EAF6" stroke-width="5"/>
</g>
<defs>
<linearGradient id="paint0_linear_14_10583" x1="75.082" y1="5" x2="75.082" y2="145" gradientUnits="userSpaceOnUse">
<stop stop-color="#199AE0"/>
<stop offset="0.472222" stop-color="#0D5176" stop-opacity="0.527778"/>
<stop offset="0.940972" stop-color="#12A6F7" stop-opacity="0.465278"/>
<stop offset="1" stop-opacity="0"/>
</linearGradient>
<linearGradient id="paint1_linear_14_10583" x1="7.689" y1="35.9485" x2="84.8517" y2="106.244" gradientUnits="userSpaceOnUse">
<stop stop-color="#BD4FF4"/>
<stop offset="0.587" stop-color="#A235EC"/>
<stop offset="1" stop-color="#8C20E5"/>
</linearGradient>
<linearGradient id="paint2_linear_14_10583" x1="35.5617" y1="12.6506" x2="108.184" y2="78.8123" gradientUnits="userSpaceOnUse">
<stop stop-color="#BD4FF4"/>
<stop offset="0.587" stop-color="#A235EC"/>
<stop offset="1" stop-color="#8C20E5"/>
</linearGradient>
</defs>
</svg>
