<svg width="151" height="150" viewBox="0 0 151 150" fill="none" xmlns="http://www.w3.org/2000/svg">
<g id="omnichannel">
<rect x="2.58203" y="2.5" width="145" height="145" rx="7.5" fill="white"/>
<rect x="2.58203" y="2.5" width="145" height="145" rx="7.5" fill="url(#paint0_linear_14_10587)" fill-opacity="0.2"/>
<g id="Group">
<path id="Vector" d="M75.0784 39.2857C79.0233 39.2857 82.2213 36.0878 82.2213 32.1429C82.2213 28.198 79.0233 25 75.0784 25C71.1335 25 67.9355 28.198 67.9355 32.1429C67.9355 36.0878 71.1335 39.2857 75.0784 39.2857Z" fill="#21A366"/>
<path id="Vector_2" d="M36.9847 60.7142C40.9295 60.7142 44.1275 57.5162 44.1275 53.5713C44.1275 49.6264 40.9295 46.4285 36.9847 46.4285C33.0398 46.4285 29.8418 49.6264 29.8418 53.5713C29.8418 57.5162 33.0398 60.7142 36.9847 60.7142Z" fill="#21A366"/>
<path id="Vector_3" d="M36.9847 103.571C40.9295 103.571 44.1275 100.374 44.1275 96.4286C44.1275 92.4837 40.9295 89.2858 36.9847 89.2858C33.0398 89.2858 29.8418 92.4837 29.8418 96.4286C29.8418 100.374 33.0398 103.571 36.9847 103.571Z" fill="#21A366"/>
<path id="Vector_4" d="M113.18 60.7142C117.125 60.7142 120.323 57.5162 120.323 53.5713C120.323 49.6264 117.125 46.4285 113.18 46.4285C109.235 46.4285 106.037 49.6264 106.037 53.5713C106.037 57.5162 109.235 60.7142 113.18 60.7142Z" fill="#21A366"/>
<path id="Vector_5" d="M113.18 103.571C117.125 103.571 120.323 100.374 120.323 96.4286C120.323 92.4837 117.125 89.2858 113.18 89.2858C109.235 89.2858 106.037 92.4837 106.037 96.4286C106.037 100.374 109.235 103.571 113.18 103.571Z" fill="#21A366"/>
<path id="Vector_6" d="M75.0784 125C79.0233 125 82.2213 121.802 82.2213 117.857C82.2213 113.912 79.0233 110.714 75.0784 110.714C71.1335 110.714 67.9355 113.912 67.9355 117.857C67.9355 121.802 71.1335 125 75.0784 125Z" fill="#21A366"/>
<path id="Vector_7" d="M101.277 75.0001C101.277 89.4643 89.5513 101.191 75.087 101.191C60.6227 101.191 48.8965 89.4643 48.8965 75.0001C48.8965 60.5358 60.6227 48.8096 75.087 48.8096C89.5513 48.8096 101.277 60.5358 101.277 75.0001Z" fill="url(#paint1_radial_14_10587)"/>
<path id="Vector_8" d="M75.0822 101.191C82.6703 101.191 89.4846 97.9429 94.2679 92.7858C91.0274 85.4024 83.6632 80.2382 75.0822 80.2382C66.5013 80.2382 59.137 85.4024 55.8965 92.7858C60.6798 97.9429 67.4941 101.191 75.0822 101.191Z" fill="url(#paint2_radial_14_10587)"/>
<path id="Vector_9" d="M75.0747 79.7619C81.6495 79.7619 86.9795 74.432 86.9795 67.8572C86.9795 61.2823 81.6495 55.9524 75.0747 55.9524C68.4999 55.9524 63.1699 61.2823 63.1699 67.8572C63.1699 74.432 68.4999 79.7619 75.0747 79.7619Z" fill="url(#paint3_radial_14_10587)"/>
<path id="Vector_10" d="M75.0765 77.3809C80.3364 77.3809 84.6004 73.1169 84.6004 67.8571C84.6004 62.5972 80.3364 58.3333 75.0765 58.3333C69.8167 58.3333 65.5527 62.5972 65.5527 67.8571C65.5527 73.1169 69.8167 77.3809 75.0765 77.3809Z" fill="url(#paint4_linear_14_10587)"/>
<path id="Vector_11" d="M75.0801 101.19C81.6468 101.19 87.6349 98.7547 92.2325 94.7618C89.6254 87.8118 82.9397 82.8571 75.0801 82.8571C67.2206 82.8571 60.5349 87.8118 57.9277 94.7618C62.5254 98.7547 68.5135 101.19 75.0801 101.19Z" fill="url(#paint5_linear_14_10587)"/>
</g>
<rect x="2.58203" y="2.5" width="145" height="145" rx="7.5" stroke="#D5EAF6" stroke-width="5"/>
</g>
<defs>
<linearGradient id="paint0_linear_14_10587" x1="75.082" y1="5" x2="75.082" y2="145" gradientUnits="userSpaceOnUse">
<stop stop-color="#199AE0"/>
<stop offset="0.472222" stop-color="#0D5176" stop-opacity="0.527778"/>
<stop offset="0.940972" stop-color="#12A6F7" stop-opacity="0.465278"/>
<stop offset="1" stop-opacity="0"/>
</linearGradient>
<radialGradient id="paint1_radial_14_10587" cx="0" cy="0" r="1" gradientUnits="userSpaceOnUse" gradientTransform="translate(58.2941 54.562) scale(52.7905 52.7905)">
<stop stop-color="#0370C8"/>
<stop offset="0.484" stop-color="#036FC5"/>
<stop offset="0.775" stop-color="#036ABD"/>
<stop offset="1" stop-color="#0362B0"/>
</radialGradient>
<radialGradient id="paint2_radial_14_10587" cx="0" cy="0" r="1" gradientUnits="userSpaceOnUse" gradientTransform="translate(75.0822 101.331) scale(21.1357 21.1357)">
<stop/>
<stop offset="1" stop-opacity="0"/>
</radialGradient>
<radialGradient id="paint3_radial_14_10587" cx="0" cy="0" r="1" gradientUnits="userSpaceOnUse" gradientTransform="translate(75.0727 67.8532) scale(11.9043)">
<stop/>
<stop offset="1" stop-opacity="0"/>
</radialGradient>
<linearGradient id="paint4_linear_14_10587" x1="68.6146" y1="61.3952" x2="81.9027" y2="74.6833" gradientUnits="userSpaceOnUse">
<stop stop-color="#75DAFF"/>
<stop offset="1" stop-color="#1EA2E4"/>
</linearGradient>
<linearGradient id="paint5_linear_14_10587" x1="65.923" y1="84.4404" x2="84.0992" y2="102.619" gradientUnits="userSpaceOnUse">
<stop stop-color="#75DAFF"/>
<stop offset="1" stop-color="#1EA2E4"/>
</linearGradient>
</defs>
</svg>
