<svg width="151" height="150" viewBox="0 0 151 150" fill="none" xmlns="http://www.w3.org/2000/svg">
<g id="online-store">
<rect x="2.58203" y="2.5" width="145" height="145" rx="7.5" fill="white"/>
<rect x="2.58203" y="2.5" width="145" height="145" rx="7.5" fill="url(#paint0_linear_14_10636)" fill-opacity="0.2"/>
<g id="Group">
<path id="Vector" d="M120.324 36.9048V46.4286H29.8477V36.9048C29.8477 34.2857 31.9905 32.1429 34.6096 32.1429H115.562C118.181 32.1429 120.324 34.2857 120.324 36.9048Z" fill="url(#paint1_linear_14_10636)"/>
<path id="Vector_2" d="M103.65 41.6667C104.965 41.6667 106.031 40.6007 106.031 39.2858C106.031 37.9708 104.965 36.9048 103.65 36.9048C102.336 36.9048 101.27 37.9708 101.27 39.2858C101.27 40.6007 102.336 41.6667 103.65 41.6667Z" fill="#6D75CF"/>
<path id="Vector_3" d="M113.174 41.6667C114.489 41.6667 115.555 40.6007 115.555 39.2858C115.555 37.9708 114.489 36.9048 113.174 36.9048C111.859 36.9048 110.793 37.9708 110.793 39.2858C110.793 40.6007 111.859 41.6667 113.174 41.6667Z" fill="#6D75CF"/>
<path id="Vector_4" d="M29.8477 63.0952H120.324V110.714H29.8477V63.0952Z" fill="#50E6FF"/>
<path id="Vector_5" d="M29.8477 110.714H120.324V113.095C120.324 115.726 118.193 117.857 115.562 117.857H34.6096C31.9786 117.857 29.8477 115.726 29.8477 113.095V110.714Z" fill="#35C1F1"/>
<path id="Vector_6" d="M117.939 60.7143H32.2249L25.082 67.8571V70.2381C25.082 72.869 27.213 75 29.8439 75H120.32C122.951 75 125.082 72.869 125.082 70.2381V67.8571L117.939 60.7143Z" fill="#353C9F"/>
<path id="Vector_7" d="M120.32 46.4286H29.8439L25.082 67.8572H125.082L120.32 46.4286Z" fill="#6D75CF"/>
<path id="Vector_8" d="M67.9384 110.714H44.1289V82.1429H67.9384V110.714Z" fill="#199BE2"/>
<path id="Vector_9" d="M106.036 103.571H77.4648V82.1429H106.036V103.571Z" fill="#199BE2"/>
<path id="Vector_10" d="M67.9384 110.714H44.1289V117.857H67.9384V110.714Z" fill="#0078D4"/>
</g>
<rect x="2.58203" y="2.5" width="145" height="145" rx="7.5" stroke="#D5EAF6" stroke-width="5"/>
</g>
<defs>
<linearGradient id="paint0_linear_14_10636" x1="75.082" y1="5" x2="75.082" y2="145" gradientUnits="userSpaceOnUse">
<stop stop-color="#199AE0"/>
<stop offset="0.472222" stop-color="#0D5176" stop-opacity="0.527778"/>
<stop offset="0.940972" stop-color="#12A6F7" stop-opacity="0.465278"/>
<stop offset="1" stop-opacity="0"/>
</linearGradient>
<linearGradient id="paint1_linear_14_10636" x1="31.4238" y1="30.8429" x2="117.769" y2="48.4" gradientUnits="userSpaceOnUse">
<stop stop-color="#464EB0"/>
<stop offset="1" stop-color="#343B9E"/>
</linearGradient>
</defs>
</svg>
