<svg width="151" height="150" viewBox="0 0 151 150" fill="none" xmlns="http://www.w3.org/2000/svg">
<g id="paypal">
<rect x="2.58203" y="2.5" width="145" height="145" rx="7.5" fill="white"/>
<rect x="2.58203" y="2.5" width="145" height="145" rx="7.5" fill="url(#paint0_linear_14_10656)" fill-opacity="0.2"/>
<g id="Group">
<path id="Vector" d="M63.141 46.575L63.1549 46.5806C63.4437 45.35 64.4937 44.4445 65.8076 44.4445H103.23C103.277 44.4445 103.324 44.425 103.372 44.4278C102.574 31.1528 91.4382 25 81.6132 25H44.191C42.8743 25 41.8243 25.9306 41.5382 27.1584L41.5243 27.1528L25.166 102.258L25.2021 102.261C25.1632 102.439 25.0938 102.608 25.0938 102.8C25.0938 104.336 26.3354 105.553 27.8715 105.553H50.291L63.141 46.575Z" fill="#0D62AB"/>
<path id="Vector_2" d="M103.361 44.4278C103.509 46.8611 103.348 49.5083 102.725 52.4333C99.167 69.0861 86.3031 77.7528 70.4059 77.7528C70.4059 77.7528 60.767 77.7528 58.4253 77.7528C56.9781 77.7528 56.2948 78.6028 55.9809 79.2528L51.1476 101.611L50.3003 105.581H50.2837L46.7753 121.681L46.8115 121.683C46.7726 121.861 46.7031 122.031 46.7031 122.222C46.7031 123.758 47.9448 125 49.4809 125H69.8503L69.8865 124.972C71.1976 124.953 72.2392 124.017 72.5115 122.783L72.5615 122.742L77.5948 99.3639C77.5948 99.3639 77.9448 97.1333 80.2892 97.1333C82.6337 97.1333 91.8948 97.1333 91.8948 97.1333C107.792 97.1333 120.786 88.5055 124.348 71.85C128.353 53.0722 114.959 44.4972 103.361 44.4278Z" fill="#199BE2"/>
<path id="Vector_3" d="M65.8038 44.4444C64.4871 44.4444 63.4372 45.3499 63.151 46.5805L63.1372 46.5749L55.9844 79.2555C56.2983 78.6055 56.9816 77.7555 58.4288 77.7555C60.7733 77.7555 70.1927 77.7555 70.1927 77.7555C86.0899 77.7555 99.1705 69.0888 102.729 52.436C103.354 49.511 103.512 46.8638 103.365 44.4305C103.32 44.4249 103.27 44.4444 103.226 44.4444H65.8038Z" fill="#006FC4"/>
</g>
<rect x="2.58203" y="2.5" width="145" height="145" rx="7.5" stroke="#D5EAF6" stroke-width="5"/>
</g>
<defs>
<linearGradient id="paint0_linear_14_10656" x1="75.082" y1="5" x2="75.082" y2="145" gradientUnits="userSpaceOnUse">
<stop stop-color="#199AE0"/>
<stop offset="0.472222" stop-color="#0D5176" stop-opacity="0.527778"/>
<stop offset="0.940972" stop-color="#12A6F7" stop-opacity="0.465278"/>
<stop offset="1" stop-opacity="0"/>
</linearGradient>
</defs>
</svg>
