<svg width="151" height="150" viewBox="0 0 151 150" fill="none" xmlns="http://www.w3.org/2000/svg">
<g id="pencil-drawing">
<rect x="2.58203" y="2.5" width="145" height="145" rx="7.5" fill="white"/>
<rect x="2.58203" y="2.5" width="145" height="145" rx="7.5" fill="url(#paint0_linear_14_10668)" fill-opacity="0.2"/>
<g id="Group">
<path id="Vector" d="M42.8923 70.0659L38.5729 74.3852C37.2942 75.664 36.3857 77.2656 35.9428 79.0199L30.4473 100.849L36.2356 113.86L49.2061 119.626L71.0456 114.128C72.7998 113.685 74.4015 112.776 75.6828 111.498L80.0296 107.128L42.8923 70.0659Z" fill="url(#paint1_linear_14_10668)"/>
<path id="Vector_2" d="M30.4562 100.852L25.1584 121.863C24.6954 123.7 26.3596 125.364 28.1964 124.901L49.2001 119.606L30.4562 100.852Z" fill="url(#paint2_linear_14_10668)"/>
<path id="Vector_3" d="M87.9335 25.0206L39.5098 73.4443C44.1745 75.2636 47.4928 79.7731 47.4928 85.081C47.4928 85.081 47.4928 85.6415 47.4928 86.3322C47.4928 87.0229 48.0534 87.5835 48.7441 87.5835C49.4347 87.5835 49.9953 87.5835 49.9953 87.5835C56.9048 87.5835 62.5079 93.1866 62.5079 100.096C62.5079 100.096 62.5079 100.657 62.5079 101.347C62.5079 102.038 63.0685 102.599 63.7591 102.599C64.4498 102.599 65.0104 102.599 65.0104 102.599C70.3057 102.599 74.8053 105.899 76.6346 110.544L125.071 62.0828L87.9335 25.0206Z" fill="#EDBE00"/>
<path id="Vector_4" d="M47.8582 87.2181L99.0046 36.0717L87.9335 25.0206L39.5098 73.4443C44.1745 75.2636 47.4928 79.7731 47.4928 85.081C47.4928 85.081 47.4928 85.6415 47.4928 86.3322C47.4928 86.6776 47.6329 86.9904 47.8582 87.2181Z" fill="url(#paint3_linear_14_10668)"/>
<path id="Vector_5" d="M62.8848 102.233C63.1125 102.458 63.4253 102.599 63.7707 102.599C64.4614 102.599 65.0219 102.599 65.0219 102.599C70.3172 102.599 74.8168 105.899 76.6461 110.544L125.082 62.0829L114.049 51.0693L62.8848 102.233Z" fill="url(#paint4_linear_14_10668)"/>
</g>
<rect x="2.58203" y="2.5" width="145" height="145" rx="7.5" stroke="#D5EAF6" stroke-width="5"/>
</g>
<defs>
<linearGradient id="paint0_linear_14_10668" x1="75.082" y1="5" x2="75.082" y2="145" gradientUnits="userSpaceOnUse">
<stop stop-color="#199AE0"/>
<stop offset="0.472222" stop-color="#0D5176" stop-opacity="0.527778"/>
<stop offset="0.940972" stop-color="#12A6F7" stop-opacity="0.465278"/>
<stop offset="1" stop-opacity="0"/>
</linearGradient>
<linearGradient id="paint1_linear_14_10668" x1="18.255" y1="70.6164" x2="82.5096" y2="134.869" gradientUnits="userSpaceOnUse">
<stop stop-color="#F9F9F9"/>
<stop offset="1" stop-color="#C2C8CC"/>
</linearGradient>
<linearGradient id="paint2_linear_14_10668" x1="23.4492" y1="107.862" x2="42.198" y2="126.61" gradientUnits="userSpaceOnUse">
<stop stop-color="#787878"/>
<stop offset="1" stop-color="#666666"/>
</linearGradient>
<linearGradient id="paint3_linear_14_10668" x1="75.571" y1="63.782" x2="61.1115" y2="49.3225" gradientUnits="userSpaceOnUse">
<stop stop-color="#FEDE00"/>
<stop offset="1" stop-color="#FFD000"/>
</linearGradient>
<linearGradient id="paint4_linear_14_10668" x1="99.5091" y1="87.6811" x2="49.6665" y2="37.841" gradientUnits="userSpaceOnUse">
<stop stop-color="#EBA601"/>
<stop offset="1" stop-color="#C18310"/>
</linearGradient>
</defs>
</svg>
