<svg width="151" height="150" viewBox="0 0 151 150" fill="none" xmlns="http://www.w3.org/2000/svg">
<g id="people">
<rect x="2.58203" y="2.5" width="145" height="145" rx="7.5" fill="white"/>
<rect x="2.58203" y="2.5" width="145" height="145" rx="7.5" fill="url(#paint0_linear_14_10675)" fill-opacity="0.2"/>
<g id="Group">
<path id="Vector" d="M46.5185 65.4758C53.0936 65.4758 58.4238 60.1456 58.4238 53.5705C58.4238 46.9955 53.0936 41.6653 46.5185 41.6653C39.9434 41.6653 34.6133 46.9955 34.6133 53.5705C34.6133 60.1456 39.9434 65.4758 46.5185 65.4758Z" fill="url(#paint1_linear_14_10675)"/>
<path id="Vector_2" d="M46.5115 70.2379C34.6753 70.2379 25.082 79.8311 25.082 91.6674V113.097C25.082 115.728 27.2131 117.859 29.8441 117.859H63.1789C65.8099 117.859 67.941 115.728 67.941 113.097V91.6674C67.941 79.8311 58.3477 70.2379 46.5115 70.2379Z" fill="url(#paint2_linear_14_10675)"/>
<path id="Vector_3" d="M103.659 65.4758C110.234 65.4758 115.564 60.1456 115.564 53.5705C115.564 46.9955 110.234 41.6653 103.659 41.6653C97.0841 41.6653 91.7539 46.9955 91.7539 53.5705C91.7539 60.1456 97.0841 65.4758 103.659 65.4758Z" fill="url(#paint3_linear_14_10675)"/>
<path id="Vector_4" d="M103.652 70.2379C91.8159 70.2379 82.2227 79.8311 82.2227 91.6674V113.097C82.2227 115.728 84.3537 117.859 86.9848 117.859H120.319C122.951 117.859 125.082 115.728 125.082 113.097V91.6674C125.082 79.8311 115.488 70.2379 103.652 70.2379Z" fill="url(#paint4_linear_14_10675)"/>
<path id="Vector_5" d="M75.081 55.9515C81.6561 55.9515 86.9863 50.6214 86.9863 44.0463C86.9863 37.4712 81.6561 32.141 75.081 32.141C68.5059 32.141 63.1758 37.4712 63.1758 44.0463C63.1758 50.6214 68.5059 55.9515 75.081 55.9515Z" fill="url(#paint5_linear_14_10675)"/>
<path id="Vector_6" opacity="0.05" d="M101.271 113.097V82.1431C101.271 78.0929 100.321 74.269 98.671 70.8426C89.242 73.0927 82.2227 81.5502 82.2227 91.6673V113.097C82.2227 115.728 84.3537 117.859 86.9848 117.859H99.9472C100.766 116.452 101.271 114.84 101.271 113.097Z" fill="black"/>
<path id="Vector_7" opacity="0.067" d="M99.6829 113.097V82.1431C99.6829 78.2834 98.7662 74.6428 97.1757 71.3879C88.5301 74.0523 82.2227 82.1122 82.2227 91.6673V113.097C82.2227 115.728 84.3537 117.859 86.9848 117.859H97.2138C98.6376 116.921 99.6829 115.135 99.6829 113.097Z" fill="black"/>
<path id="Vector_8" opacity="0.09" d="M98.0971 113.097V82.1432C98.0971 78.4716 97.2138 75.0143 95.6827 71.9332C87.8181 75.0119 82.2227 82.6741 82.2227 91.6674V113.097C82.2227 115.728 84.3537 117.859 86.9848 117.859H94.4803C96.5066 117.39 98.0971 115.43 98.0971 113.097Z" fill="black"/>
<path id="Vector_9" opacity="0.05" d="M48.8945 113.097V82.1431C48.8945 78.0929 49.8446 74.269 51.4946 70.8426C60.9236 73.0927 67.9429 81.5502 67.9429 91.6673V113.097C67.9429 115.728 65.8119 117.859 63.1808 117.859H50.2184C49.3993 116.452 48.8945 114.84 48.8945 113.097Z" fill="black"/>
<path id="Vector_10" opacity="0.067" d="M50.4805 113.097V82.1431C50.4805 78.2834 51.3972 74.6428 52.9877 71.3879C61.6333 74.0523 67.9407 82.1122 67.9407 91.6673V113.097C67.9407 115.728 65.8097 117.859 63.1786 117.859H52.9496C51.5258 116.921 50.4805 115.135 50.4805 113.097Z" fill="black"/>
<path id="Vector_11" opacity="0.09" d="M52.0664 113.097V82.1432C52.0664 78.4716 52.9498 75.0143 54.4808 71.9332C62.3454 75.0119 67.9409 82.6741 67.9409 91.6674V113.097C67.9409 115.728 65.8098 117.859 63.1788 117.859H55.6832C53.6569 117.39 52.0664 115.43 52.0664 113.097Z" fill="black"/>
<path id="Vector_12" d="M75.0896 60.7137C63.2534 60.7137 53.6602 70.307 53.6602 82.1432V113.097C53.6602 115.728 55.7912 117.859 58.4223 117.859H91.757C94.3881 117.859 96.5191 115.728 96.5191 113.097V82.1432C96.5191 70.307 86.9258 60.7137 75.0896 60.7137Z" fill="url(#paint6_linear_14_10675)"/>
</g>
<rect x="2.58203" y="2.5" width="145" height="145" rx="7.5" stroke="#D5EAF6" stroke-width="5"/>
</g>
<defs>
<linearGradient id="paint0_linear_14_10675" x1="75.082" y1="5" x2="75.082" y2="145" gradientUnits="userSpaceOnUse">
<stop stop-color="#199AE0"/>
<stop offset="0.472222" stop-color="#0D5176" stop-opacity="0.527778"/>
<stop offset="0.940972" stop-color="#12A6F7" stop-opacity="0.465278"/>
<stop offset="1" stop-opacity="0"/>
</linearGradient>
<linearGradient id="paint1_linear_14_10675" x1="38.442" y1="45.494" x2="55.0522" y2="62.1042" gradientUnits="userSpaceOnUse">
<stop stop-color="#199AE0"/>
<stop offset="1" stop-color="#0782D8"/>
</linearGradient>
<linearGradient id="paint2_linear_14_10675" x1="28.4893" y1="80.9098" x2="65.5552" y2="117.973" gradientUnits="userSpaceOnUse">
<stop stop-color="#199AE0"/>
<stop offset="1" stop-color="#0782D8"/>
</linearGradient>
<linearGradient id="paint3_linear_14_10675" x1="95.5826" y1="45.494" x2="112.193" y2="62.1042" gradientUnits="userSpaceOnUse">
<stop stop-color="#0D61A9"/>
<stop offset="1" stop-color="#16528C"/>
</linearGradient>
<linearGradient id="paint4_linear_14_10675" x1="85.6299" y1="80.9098" x2="122.696" y2="117.973" gradientUnits="userSpaceOnUse">
<stop stop-color="#0D61A9"/>
<stop offset="1" stop-color="#16528C"/>
</linearGradient>
<linearGradient id="paint5_linear_14_10675" x1="67.0045" y1="35.9698" x2="83.6147" y2="52.58" gradientUnits="userSpaceOnUse">
<stop stop-color="#32BDEF"/>
<stop offset="1" stop-color="#1EA2E4"/>
</linearGradient>
<linearGradient id="paint6_linear_14_10675" x1="68.3774" y1="63.2305" x2="80.3327" y2="123.002" gradientUnits="userSpaceOnUse">
<stop stop-color="#32BDEF"/>
<stop offset="1" stop-color="#1EA2E4"/>
</linearGradient>
</defs>
</svg>
