<svg width="151" height="150" viewBox="0 0 151 150" fill="none" xmlns="http://www.w3.org/2000/svg">
<g id="pin">
<rect x="2.58203" y="2.5" width="145" height="145" rx="7.5" fill="white"/>
<rect x="2.58203" y="2.5" width="145" height="145" rx="7.5" fill="url(#paint0_linear_14_10711)" fill-opacity="0.2"/>
<g id="Group">
<path id="Vector" d="M34.1519 123.077L25.0859 125L27.009 115.934C27.009 115.385 27.2837 114.835 27.8332 114.56L59.7013 82.6923L67.3936 90.3846L35.5255 122.253C35.2508 122.527 34.7013 122.802 34.1519 123.077Z" fill="#50E6FF"/>
<path id="Vector_2" d="M89.3775 87.9122L62.1797 60.7144L103.388 28.5715L121.52 46.7034L89.3775 87.9122Z" fill="#C94F60"/>
<path id="Vector_3" d="M59.6341 82.6154L55.5547 86.695L63.3252 94.4652L67.4046 90.3857L59.6341 82.6154Z" fill="#35C1F1"/>
<path id="Vector_4" d="M86.8986 109.89L40.1953 63.1866L45.9645 57.4174C52.2832 51.0987 62.7228 51.0987 69.3162 57.4174L92.6679 80.769C98.9865 87.0877 98.9865 97.5273 92.6679 104.121L86.8986 109.89Z" fill="#BF2336"/>
<path id="Vector_5" d="M113.265 54.9451L95.1327 36.8132C92.9349 34.6154 92.9349 30.7692 95.1327 28.5714L97.0558 26.6484C99.2536 24.4505 103.1 24.4505 105.298 26.6484L123.429 44.7802C125.627 46.978 125.627 50.8242 123.429 53.022L121.506 54.9451C119.309 57.1429 115.462 57.1429 113.265 54.9451Z" fill="#BF2336"/>
</g>
<rect x="2.58203" y="2.5" width="145" height="145" rx="7.5" stroke="#D5EAF6" stroke-width="5"/>
</g>
<defs>
<linearGradient id="paint0_linear_14_10711" x1="75.082" y1="5" x2="75.082" y2="145" gradientUnits="userSpaceOnUse">
<stop stop-color="#199AE0"/>
<stop offset="0.472222" stop-color="#0D5176" stop-opacity="0.527778"/>
<stop offset="0.940972" stop-color="#12A6F7" stop-opacity="0.465278"/>
<stop offset="1" stop-opacity="0"/>
</linearGradient>
</defs>
</svg>
