<svg width="151" height="150" viewBox="0 0 151 150" fill="none" xmlns="http://www.w3.org/2000/svg">
<g id="portrait-mode-scanning">
<rect x="2.58203" y="2.5" width="145" height="145" rx="7.5" fill="white"/>
<rect x="2.58203" y="2.5" width="145" height="145" rx="7.5" fill="url(#paint0_linear_14_10730)" fill-opacity="0.2"/>
<g id="Group">
<path id="Vector" d="M97.3086 38.8889H52.8642C49.7959 38.8889 47.3086 41.3762 47.3086 44.4445V105.556C47.3086 108.624 49.7959 111.111 52.8642 111.111H97.3086C100.377 111.111 102.864 108.624 102.864 105.556V44.4445C102.864 41.3762 100.377 38.8889 97.3086 38.8889Z" fill="#50E6FF"/>
<path id="Vector_2" d="M47.3043 31.9444C47.3043 32.3128 47.1579 32.6661 46.8975 32.9265C46.637 33.187 46.2837 33.3333 45.9154 33.3333H33.4154V45.8333C33.4154 46.2017 33.269 46.555 33.0086 46.8154C32.7481 47.0759 32.3948 47.2222 32.0265 47.2222H26.4709C26.1026 47.2222 25.7493 47.0759 25.4888 46.8154C25.2284 46.555 25.082 46.2017 25.082 45.8333V26.3889C25.082 26.0205 25.2284 25.6673 25.4888 25.4068C25.7493 25.1463 26.1026 25 26.4709 25H45.9154C46.2837 25 46.637 25.1463 46.8975 25.4068C47.1579 25.6673 47.3043 26.0205 47.3043 26.3889V31.9444ZM102.86 31.9444C102.86 32.3128 103.006 32.6661 103.267 32.9265C103.527 33.187 103.88 33.3333 104.249 33.3333H116.749V45.8333C116.749 46.2017 116.895 46.555 117.155 46.8154C117.416 47.0759 117.769 47.2222 118.138 47.2222H123.693C124.061 47.2222 124.415 47.0759 124.675 46.8154C124.936 46.555 125.082 46.2017 125.082 45.8333V26.3889C125.082 26.0205 124.936 25.6673 124.675 25.4068C124.415 25.1463 124.061 25 123.693 25H104.249C103.88 25 103.527 25.1463 103.267 25.4068C103.006 25.6673 102.86 26.0205 102.86 26.3889V31.9444ZM47.3043 118.056C47.3043 117.687 47.1579 117.334 46.8975 117.073C46.637 116.813 46.2837 116.667 45.9154 116.667H33.4154V104.167C33.4154 103.798 33.269 103.445 33.0086 103.185C32.7481 102.924 32.3948 102.778 32.0265 102.778H26.4709C26.1026 102.778 25.7493 102.924 25.4888 103.185C25.2284 103.445 25.082 103.798 25.082 104.167V123.611C25.082 123.979 25.2284 124.333 25.4888 124.593C25.7493 124.854 26.1026 125 26.4709 125H45.9154C46.2837 125 46.637 124.854 46.8975 124.593C47.1579 124.333 47.3043 123.979 47.3043 123.611V118.056ZM102.86 123.611C102.86 123.979 103.006 124.333 103.267 124.593C103.527 124.854 103.88 125 104.249 125H123.693C124.061 125 124.415 124.854 124.675 124.593C124.936 124.333 125.082 123.979 125.082 123.611V104.167C125.082 103.798 124.936 103.445 124.675 103.185C124.415 102.924 124.061 102.778 123.693 102.778H118.138C117.769 102.778 117.416 102.924 117.155 103.185C116.895 103.445 116.749 103.798 116.749 104.167V116.667H104.249C103.88 116.667 103.527 116.813 103.267 117.073C103.006 117.334 102.86 117.687 102.86 118.056V123.611Z" fill="url(#paint1_linear_14_10730)"/>
<path id="Vector_3" d="M113.966 83.3333H36.1879C34.6538 83.3333 33.4102 84.5769 33.4102 86.111C33.4102 87.6452 34.6538 88.8888 36.1879 88.8888H113.966C115.5 88.8888 116.743 87.6452 116.743 86.111C116.743 84.5769 115.5 83.3333 113.966 83.3333Z" fill="url(#paint2_linear_14_10730)"/>
<path id="Vector_4" d="M93.1343 61.1111H56.9787C56.2117 61.1111 55.5898 61.7329 55.5898 62.5V65.2778C55.5898 66.0448 56.2117 66.6666 56.9787 66.6666H93.1343C93.9014 66.6666 94.5232 66.0448 94.5232 65.2778V62.5C94.5232 61.7329 93.9014 61.1111 93.1343 61.1111Z" fill="#057093"/>
<path id="Vector_5" d="M93.1343 50H56.9787C56.2117 50 55.5898 50.6218 55.5898 51.3889V54.1667C55.5898 54.9337 56.2117 55.5556 56.9787 55.5556H93.1343C93.9014 55.5556 94.5232 54.9337 94.5232 54.1667V51.3889C94.5232 50.6218 93.9014 50 93.1343 50Z" fill="#057093"/>
<path id="Vector_6" d="M93.1343 94.4445H56.9787C56.2117 94.4445 55.5898 95.0663 55.5898 95.8333V98.6111C55.5898 99.3782 56.2117 100 56.9787 100H93.1343C93.9014 100 94.5232 99.3782 94.5232 98.6111V95.8333C94.5232 95.0663 93.9014 94.4445 93.1343 94.4445Z" fill="#057093"/>
<path id="Vector_7" d="M93.1343 72.2223H56.9787C56.2117 72.2223 55.5898 72.8441 55.5898 73.6112V76.389C55.5898 77.156 56.2117 77.7778 56.9787 77.7778H93.1343C93.9014 77.7778 94.5232 77.156 94.5232 76.389V73.6112C94.5232 72.8441 93.9014 72.2223 93.1343 72.2223Z" fill="#057093"/>
</g>
<rect x="2.58203" y="2.5" width="145" height="145" rx="7.5" stroke="#D5EAF6" stroke-width="5"/>
</g>
<defs>
<linearGradient id="paint0_linear_14_10730" x1="75.082" y1="5" x2="75.082" y2="145" gradientUnits="userSpaceOnUse">
<stop stop-color="#199AE0"/>
<stop offset="0.472222" stop-color="#0D5176" stop-opacity="0.527778"/>
<stop offset="0.940972" stop-color="#12A6F7" stop-opacity="0.465278"/>
<stop offset="1" stop-opacity="0"/>
</linearGradient>
<linearGradient id="paint1_linear_14_10730" x1="17.232" y1="17.15" x2="134.279" y2="134.197" gradientUnits="userSpaceOnUse">
<stop stop-color="#C3CDD9"/>
<stop offset="1" stop-color="#9FA7B0"/>
</linearGradient>
<linearGradient id="paint2_linear_14_10730" x1="33.4102" y1="86.111" x2="116.743" y2="86.111" gradientUnits="userSpaceOnUse">
<stop stop-color="#3079D6"/>
<stop offset="1" stop-color="#297CD2"/>
</linearGradient>
</defs>
</svg>
