<svg width="151" height="150" viewBox="0 0 151 150" fill="none" xmlns="http://www.w3.org/2000/svg">
<g id="presentation">
<rect x="2.58203" y="2.5" width="145" height="145" rx="7.5" fill="white"/>
<rect x="2.58203" y="2.5" width="145" height="145" rx="7.5" fill="url(#paint0_linear_14_10751)" fill-opacity="0.2"/>
<g id="Group">
<path id="Vector" d="M122.703 35.7145H27.4648V102.381H122.703V35.7145Z" fill="url(#paint1_radial_14_10751)"/>
<path id="Vector_2" d="M72.6992 102.381H77.4611V116.667H72.6992V102.381Z" fill="#64717C"/>
<path id="Vector_3" d="M122.701 38.0953H27.463C26.1487 38.0953 25.082 37.0287 25.082 35.7144V30.9525C25.082 29.6382 26.1487 28.5715 27.463 28.5715H122.701C124.015 28.5715 125.082 29.6382 125.082 30.9525V35.7144C125.082 37.0287 124.015 38.0953 122.701 38.0953Z" fill="#35C1F1"/>
<path id="Vector_4" d="M122.703 100H27.4648V104.762H122.703V100Z" fill="#35C1F1"/>
<path id="Vector_5" d="M70.3164 116.667C70.3164 119.295 72.4497 121.428 75.0783 121.428C77.7069 121.428 79.8402 119.295 79.8402 116.667C79.8402 114.038 77.7069 111.905 75.0783 111.905C72.4497 111.905 70.3164 114.038 70.3164 116.667Z" fill="#ABB4BE"/>
<path id="Vector_6" d="M53.6549 52.3811C44.4502 52.3811 36.9883 59.843 36.9883 69.0477C36.9883 78.2525 44.4502 85.7144 53.6549 85.7144C62.8596 85.7144 70.3215 78.2525 70.3215 69.0477H53.6549V52.3811Z" fill="white"/>
<path id="Vector_7" d="M58.4102 47.6191V64.2858H75.0768C75.0768 55.081 67.6149 47.6191 58.4102 47.6191Z" fill="white"/>
<path id="Vector_8" d="M111.994 54.7619H85.8038C85.1466 54.7619 84.6133 54.2286 84.6133 53.5714V51.1905C84.6133 50.5333 85.1466 50 85.8038 50H111.994C112.651 50 113.185 50.5333 113.185 51.1905V53.5714C113.185 54.2286 112.651 54.7619 111.994 54.7619Z" fill="white"/>
<path id="Vector_9" d="M107.232 59.5239H85.8038C85.1466 59.5239 84.6133 60.0573 84.6133 60.7144V63.0953C84.6133 63.7525 85.1466 64.2858 85.8038 64.2858H107.232C107.889 64.2858 108.423 63.7525 108.423 63.0953V60.7144C108.423 60.0573 107.889 59.5239 107.232 59.5239Z" fill="white"/>
<path id="Vector_10" d="M111.994 69.0476H85.8038C85.1466 69.0476 84.6133 69.5809 84.6133 70.2381V72.619C84.6133 73.2762 85.1466 73.8095 85.8038 73.8095H111.994C112.651 73.8095 113.185 73.2762 113.185 72.619V70.2381C113.185 69.5809 112.651 69.0476 111.994 69.0476Z" fill="white"/>
<path id="Vector_11" d="M107.232 78.5713H85.8038C85.1466 78.5713 84.6133 79.1046 84.6133 79.7618V82.1427C84.6133 82.7999 85.1466 83.3332 85.8038 83.3332H107.232C107.889 83.3332 108.423 82.7999 108.423 82.1427V79.7618C108.423 79.1046 107.889 78.5713 107.232 78.5713Z" fill="white"/>
<path id="Vector_12" d="M122.697 104.762C124.012 104.762 125.078 103.696 125.078 102.381C125.078 101.066 124.012 100 122.697 100C121.382 100 120.316 101.066 120.316 102.381C120.316 103.696 121.382 104.762 122.697 104.762Z" fill="#35C1F1"/>
<path id="Vector_13" d="M27.463 104.762C28.7779 104.762 29.8439 103.696 29.8439 102.381C29.8439 101.066 28.7779 100 27.463 100C26.148 100 25.082 101.066 25.082 102.381C25.082 103.696 26.148 104.762 27.463 104.762Z" fill="#35C1F1"/>
</g>
<rect x="2.58203" y="2.5" width="145" height="145" rx="7.5" stroke="#D5EAF6" stroke-width="5"/>
</g>
<defs>
<linearGradient id="paint0_linear_14_10751" x1="75.082" y1="5" x2="75.082" y2="145" gradientUnits="userSpaceOnUse">
<stop stop-color="#199AE0"/>
<stop offset="0.472222" stop-color="#0D5176" stop-opacity="0.527778"/>
<stop offset="0.940972" stop-color="#12A6F7" stop-opacity="0.465278"/>
<stop offset="1" stop-opacity="0"/>
</linearGradient>
<radialGradient id="paint1_radial_14_10751" cx="0" cy="0" r="1" gradientUnits="userSpaceOnUse" gradientTransform="translate(147.251 126.58) scale(182.078 138.069)">
<stop offset="0.131" stop-color="#23D9D6"/>
<stop offset="0.214" stop-color="#21BDDD"/>
<stop offset="0.364" stop-color="#1E90E7"/>
<stop offset="0.508" stop-color="#1B6CF0"/>
<stop offset="0.642" stop-color="#1953F6"/>
<stop offset="0.764" stop-color="#1843FA"/>
<stop offset="0.862" stop-color="#183EFB"/>
</radialGradient>
</defs>
</svg>
