<svg width="151" height="150" viewBox="0 0 151 150" fill="none" xmlns="http://www.w3.org/2000/svg">
<g id="private-lock">
<rect x="2.58203" y="2.5" width="145" height="145" rx="7.5" fill="white"/>
<rect x="2.58203" y="2.5" width="145" height="145" rx="7.5" fill="url(#paint0_linear_14_10766)" fill-opacity="0.2"/>
<g id="Group">
<path id="Vector" d="M111.538 85.5625H28.2051V104.021H111.538V85.5625Z" fill="#E3A600"/>
<path id="Vector_2" d="M111.538 102.083H28.2051V112.5C28.2051 114.802 30.0697 116.667 32.3717 116.667H107.372C109.674 116.667 111.538 114.802 111.538 112.5V102.083Z" fill="#C48C00"/>
<path id="Vector_3" d="M42.7832 52.0833V58.3333H51.1165V52.0833C51.1165 41.7271 59.5103 33.3333 69.8665 33.3333C80.2228 33.3333 88.6165 41.7271 88.6165 52.0833V58.3333H96.9499V52.0833C96.9499 37.125 84.8249 25 69.8665 25C54.9082 25 42.7832 37.125 42.7832 52.0833Z" fill="url(#paint1_linear_14_10766)"/>
<path id="Vector_4" d="M111.538 74.9999H28.2051V62.4999C28.2051 60.1978 30.0697 58.3333 32.3717 58.3333H107.372C109.674 58.3333 111.538 60.1978 111.538 62.4999V74.9999Z" fill="#FAD500"/>
<path id="Vector_5" d="M111.538 72.9167H28.2051V87.5001H111.538V72.9167Z" fill="#EDBE00"/>
<path id="Vector_6" d="M76.127 85.4167C76.127 81.9647 73.329 79.1667 69.877 79.1667C66.4249 79.1667 63.627 81.9647 63.627 85.4167C63.627 88.1334 65.3707 90.423 67.7936 91.2834V97.9167C67.7936 99.0667 68.727 100 69.877 100C71.027 100 71.9603 99.0667 71.9603 97.9167V91.2834C74.3832 90.423 76.127 88.1334 76.127 85.4167Z" fill="url(#paint2_linear_14_10766)"/>
<path id="Vector_7" opacity="0.05" d="M111.533 88.2084V112.5C111.533 114.792 109.658 116.667 107.367 116.667H77.3874C75.2415 113.604 74.0332 110.042 74.0332 106.25C74.0332 94.7709 85.2415 85.4167 99.0332 85.4167C103.575 85.4167 107.846 86.4376 111.533 88.2084Z" fill="black"/>
<path id="Vector_8" opacity="0.07" d="M111.538 89.3541V112.5C111.538 114.792 109.663 116.667 107.372 116.667H78.6842C76.3926 113.646 75.0801 110.062 75.0801 106.25C75.0801 95.3333 85.8301 86.4583 99.0384 86.4583C103.622 86.4583 107.893 87.5208 111.538 89.3541Z" fill="black"/>
<path id="Vector_9" d="M99.0436 125C111.7 125 121.96 116.605 121.96 106.25C121.96 95.8947 111.7 87.5 99.0436 87.5C86.3871 87.5 76.127 95.8947 76.127 106.25C76.127 116.605 86.3871 125 99.0436 125Z" fill="url(#paint3_radial_14_10766)"/>
<path id="Vector_10" d="M99.0436 118.75C108.248 118.75 115.71 111.754 115.71 103.125C115.71 94.4956 108.248 87.5 99.0436 87.5C89.8389 87.5 82.377 94.4956 82.377 103.125C82.377 111.754 89.8389 118.75 99.0436 118.75Z" fill="url(#paint4_linear_14_10766)"/>
<path id="Vector_11" d="M99.0436 110.417C103.071 110.417 106.335 107.152 106.335 103.125C106.335 99.0978 103.071 95.8333 99.0436 95.8333C95.0165 95.8333 91.752 99.0978 91.752 103.125C91.752 107.152 95.0165 110.417 99.0436 110.417Z" fill="url(#paint5_radial_14_10766)"/>
<path id="Vector_12" d="M93.8301 102.083C95.556 102.083 96.9551 100.684 96.9551 98.9583C96.9551 97.2324 95.556 95.8333 93.8301 95.8333C92.1042 95.8333 90.7051 97.2324 90.7051 98.9583C90.7051 100.684 92.1042 102.083 93.8301 102.083Z" fill="white"/>
</g>
<rect x="2.58203" y="2.5" width="145" height="145" rx="7.5" stroke="#D5EAF6" stroke-width="5"/>
</g>
<defs>
<linearGradient id="paint0_linear_14_10766" x1="75.082" y1="5" x2="75.082" y2="145" gradientUnits="userSpaceOnUse">
<stop stop-color="#199AE0"/>
<stop offset="0.472222" stop-color="#0D5176" stop-opacity="0.527778"/>
<stop offset="0.940972" stop-color="#12A6F7" stop-opacity="0.465278"/>
<stop offset="1" stop-opacity="0"/>
</linearGradient>
<linearGradient id="paint1_linear_14_10766" x1="69.8665" y1="57.5979" x2="69.8665" y2="24.3833" gradientUnits="userSpaceOnUse">
<stop stop-color="#92A3B0"/>
<stop offset="0.015" stop-color="#A3B5C4"/>
<stop offset="0.032" stop-color="#AEC2D1"/>
<stop offset="0.046" stop-color="#B2C6D6"/>
</linearGradient>
<linearGradient id="paint2_linear_14_10766" x1="69.877" y1="98.6938" x2="69.877" y2="81.573" gradientUnits="userSpaceOnUse">
<stop stop-color="#4B4B4B"/>
<stop offset="1" stop-color="#3B3B3B"/>
</linearGradient>
<radialGradient id="paint3_radial_14_10766" cx="0" cy="0" r="1" gradientUnits="userSpaceOnUse" gradientTransform="translate(99.1979 100.371) scale(24.3189 24.8714)">
<stop offset="0.55" stop-color="#E4E4E6"/>
<stop offset="0.73" stop-color="#E1E2E4"/>
<stop offset="0.854" stop-color="#D8DADC"/>
<stop offset="0.961" stop-color="#C9CDCF"/>
<stop offset="1" stop-color="#C1C6C9"/>
</radialGradient>
<linearGradient id="paint4_linear_14_10766" x1="88.7624" y1="92.8417" x2="109.617" y2="113.698" gradientUnits="userSpaceOnUse">
<stop stop-color="#32BDEF"/>
<stop offset="1" stop-color="#1EA2E4"/>
</linearGradient>
<radialGradient id="paint5_radial_14_10766" cx="0" cy="0" r="1" gradientUnits="userSpaceOnUse" gradientTransform="translate(94.7482 92.4465) scale(18.9269)">
<stop stop-color="#4B4B4B"/>
<stop offset="0.531" stop-color="#393939"/>
<stop offset="1" stop-color="#252525"/>
</radialGradient>
</defs>
</svg>
