<svg width="151" height="150" viewBox="0 0 151 150" fill="none" xmlns="http://www.w3.org/2000/svg">
<g id="prize">
<rect x="2.58203" y="2.5" width="145" height="145" rx="7.5" fill="white"/>
<rect x="2.58203" y="2.5" width="145" height="145" rx="7.5" fill="url(#paint0_linear_14_10780)" fill-opacity="0.2"/>
<g id="Group">
<path id="Vector" d="M96.8216 83.1831H53.3418V122.824C53.3418 124.513 55.1853 125.556 56.6332 124.687L75.0817 113.619L93.5301 124.687C94.9802 125.556 96.8216 124.513 96.8216 122.824V83.1831V83.1831Z" fill="url(#paint1_radial_14_10780)"/>
<path id="Vector_2" d="M112.115 60.4192L109.38 58.7756C108.215 58.0756 107.428 56.9256 107.072 55.6146C107.063 55.5907 107.061 55.5668 107.052 55.5407C106.689 54.219 106.798 52.8102 107.463 51.6123L109.013 48.8231C110.598 45.9708 108.572 42.4555 105.306 42.4011L102.087 42.3446C100.721 42.3207 99.4561 41.7142 98.4952 40.7511C98.4843 40.7402 98.4756 40.7315 98.4648 40.7207C97.4952 39.7576 96.893 38.4901 96.869 37.1271L96.8147 33.9074C96.7603 30.6442 93.245 28.6159 90.3927 30.2007L87.6035 31.7508C86.4013 32.416 84.9969 32.5247 83.6751 32.1617C83.6512 32.153 83.6273 32.1508 83.6012 32.1421C82.2903 31.7856 81.1402 30.9986 80.4402 29.8333L78.7967 27.0984C77.1184 24.3005 73.0595 24.3005 71.3812 27.0984L69.7464 29.8225C69.042 30.9964 67.8789 31.7899 66.5615 32.1508C66.5463 32.1551 66.5332 32.1595 66.518 32.1617C65.1832 32.5291 63.7679 32.4204 62.557 31.7464L59.7786 30.2051C56.9264 28.6202 53.411 30.6464 53.3567 33.9117L53.298 37.1271C53.2741 38.488 52.6675 39.7576 51.7044 40.7185C51.6936 40.7272 51.6805 40.738 51.674 40.7489C50.7109 41.7163 49.4435 42.3185 48.0826 42.3425L44.8629 42.3968C41.5997 42.4511 39.5714 45.9621 41.1562 48.8188L42.7063 51.608C43.3715 52.8102 43.4802 54.2146 43.1172 55.5364C43.1063 55.5603 43.102 55.5864 43.0933 55.6103C42.7367 56.9212 41.9476 58.0713 40.7845 58.7713L38.0496 60.4148C35.2517 62.0931 35.2517 66.152 38.0496 67.8303L40.7845 69.4738C41.9497 70.1738 42.7367 71.3239 43.0933 72.6348C43.102 72.6587 43.1041 72.6826 43.1128 72.7087C43.4759 74.0305 43.3672 75.4392 42.7019 76.6371L41.1519 79.4263C39.5671 82.2786 41.5932 85.794 44.8585 85.8483L48.0782 85.9027C49.4435 85.9266 50.7087 86.5331 51.6697 87.4962C51.6805 87.5071 51.6892 87.5158 51.7001 87.5266C52.6675 88.4897 53.2697 89.7571 53.2936 91.1181L53.348 94.3377C53.4023 97.6009 56.9177 99.6292 59.7699 98.0444L62.5592 96.4943C63.7614 95.8291 65.1658 95.7204 66.4876 96.0834C66.5115 96.0921 66.5376 96.0943 66.5615 96.103C67.8724 96.4595 69.0224 97.2465 69.7224 98.4118L71.366 101.147C73.0443 103.945 77.1031 103.945 78.7815 101.147L80.425 98.4118C81.125 97.2465 82.2751 96.4595 83.586 96.103C83.6099 96.0943 83.636 96.0921 83.6599 96.0834C84.9817 95.7204 86.3904 95.8291 87.5883 96.4943L90.3775 98.0444C93.2298 99.6292 96.7451 97.6031 96.7995 94.3377L96.8538 91.1181C96.8777 89.7528 97.4843 88.4875 98.4474 87.5266C98.4582 87.5158 98.4669 87.5071 98.4778 87.4962C99.4409 86.5288 100.708 85.9266 102.069 85.9027L105.289 85.8483C108.552 85.794 110.58 82.2786 108.996 79.4263L107.445 76.6371C106.78 75.4349 106.672 74.0305 107.035 72.7087C107.043 72.6848 107.045 72.6609 107.054 72.6348C107.411 71.3239 108.198 70.1738 109.363 69.4738L112.098 67.8303C114.913 66.1541 114.913 62.0997 112.115 60.4192Z" fill="url(#paint2_linear_14_10780)"/>
<path id="Vector_3" d="M75.0817 85.8677C87.0883 85.8677 96.8216 76.1344 96.8216 64.1278C96.8216 52.1212 87.0883 42.3879 75.0817 42.3879C63.0751 42.3879 53.3418 52.1212 53.3418 64.1278C53.3418 76.1344 63.0751 85.8677 75.0817 85.8677Z" stroke="#FFDF26" stroke-width="1.33333" stroke-miterlimit="10"/>
</g>
<rect x="2.58203" y="2.5" width="145" height="145" rx="7.5" stroke="#D5EAF6" stroke-width="5"/>
</g>
<defs>
<linearGradient id="paint0_linear_14_10780" x1="75.082" y1="5" x2="75.082" y2="145" gradientUnits="userSpaceOnUse">
<stop stop-color="#199AE0"/>
<stop offset="0.472222" stop-color="#0D5176" stop-opacity="0.527778"/>
<stop offset="0.940972" stop-color="#12A6F7" stop-opacity="0.465278"/>
<stop offset="1" stop-opacity="0"/>
</linearGradient>
<radialGradient id="paint1_radial_14_10780" cx="0" cy="0" r="1" gradientUnits="userSpaceOnUse" gradientTransform="translate(74.9578 63.9563) scale(49.4908 49.4909)">
<stop offset="0.655" stop-color="#871233"/>
<stop offset="0.718" stop-color="#8E1336"/>
<stop offset="0.812" stop-color="#A3163E"/>
<stop offset="0.9" stop-color="#BC1948"/>
</radialGradient>
<linearGradient id="paint2_linear_14_10780" x1="55.1872" y1="29.5485" x2="94.8168" y2="98.4292" gradientUnits="userSpaceOnUse">
<stop stop-color="#FFDA1C"/>
<stop offset="1" stop-color="#FEB705"/>
</linearGradient>
</defs>
</svg>
