<svg width="151" height="150" viewBox="0 0 151 150" fill="none" xmlns="http://www.w3.org/2000/svg">
<g id="profit-analysis">
<rect x="2.58203" y="2.5" width="145" height="145" rx="7.5" fill="white"/>
<rect x="2.58203" y="2.5" width="145" height="145" rx="7.5" fill="url(#paint0_linear_14_10827)" fill-opacity="0.2"/>
<g id="Group">
<path id="Vector" d="M105.041 96.1195L96.2012 104.959L115.876 124.634C116.364 125.122 117.156 125.122 117.644 124.634L124.714 117.564C125.201 117.077 125.201 116.284 124.714 115.797L105.041 96.1195Z" fill="#199BE2"/>
<path id="Vector_2" d="M94.0802 85.1623L85.2402 94.0022L96.1977 104.957L105.035 96.1197L94.0802 85.1623Z" fill="url(#paint1_radial_14_10827)"/>
<path id="Vector_3" d="M65.0837 105C87.175 105 105.084 87.0911 105.084 64.9998C105.084 42.9085 87.175 25 65.0837 25C42.9925 25 25.084 42.9085 25.084 64.9998C25.084 87.0911 42.9925 105 65.0837 105Z" fill="url(#paint2_linear_14_10827)"/>
<path id="Vector_4" d="M80.8263 75.0548C80.8263 59.6349 58.0589 62.6449 58.0589 53.5349C58.0589 48.7774 63.4064 48.5275 65.0789 48.5275C69.0964 48.5275 72.9763 49.6049 75.9338 50.9924C76.8663 51.4299 77.9363 50.7824 77.9363 49.7549V45.2675C77.9363 43.7625 77.3688 42.87 76.4663 42.5175C74.4388 41.73 71.5264 41.155 67.2214 41.0125V36.0725C67.2239 35.48 66.7439 35 66.1514 35H64.0089C63.4164 35 62.9364 35.48 62.9364 36.0725V41.09C56.2589 41.7425 49.334 45.5125 49.334 54.2799C49.334 70.2648 72.0988 67.0948 72.0988 75.5148C72.0988 78.1623 70.4089 80.4423 65.0789 80.4423C59.7214 80.4423 54.8015 78.5723 52.0765 77.1773C51.1615 76.7073 50.0815 77.3873 50.0815 78.4173V83.5247C50.0815 84.5047 50.6715 85.3747 51.574 85.7597C54.8015 87.1322 59.1314 88.1697 62.9389 88.4722V93.9297C62.9389 94.5222 63.4189 95.0022 64.0114 95.0022H66.1539C66.7464 95.0022 67.2264 94.5222 67.2264 93.9297V88.4847C77.2138 87.6472 80.8263 80.9598 80.8263 75.0548Z" fill="#0D61A9"/>
</g>
<rect x="2.58203" y="2.5" width="145" height="145" rx="7.5" stroke="#D5EAF6" stroke-width="5"/>
</g>
<defs>
<linearGradient id="paint0_linear_14_10827" x1="75.082" y1="5" x2="75.082" y2="145" gradientUnits="userSpaceOnUse">
<stop stop-color="#199AE0"/>
<stop offset="0.472222" stop-color="#0D5176" stop-opacity="0.527778"/>
<stop offset="0.940972" stop-color="#12A6F7" stop-opacity="0.465278"/>
<stop offset="1" stop-opacity="0"/>
</linearGradient>
<radialGradient id="paint1_radial_14_10827" cx="0" cy="0" r="1" gradientUnits="userSpaceOnUse" gradientTransform="translate(65.1379 65.2399) scale(49.0097 49.0097)">
<stop offset="0.693" stop-color="#006185"/>
<stop offset="0.921" stop-color="#35C1F1"/>
</radialGradient>
<linearGradient id="paint2_linear_14_10827" x1="37.3614" y1="37.2775" x2="93.4311" y2="93.3471" gradientUnits="userSpaceOnUse">
<stop stop-color="#A3FFFF"/>
<stop offset="0.223" stop-color="#9DFBFF"/>
<stop offset="0.53" stop-color="#8BF1FF"/>
<stop offset="0.885" stop-color="#6EE0FF"/>
<stop offset="1" stop-color="#63DAFF"/>
</linearGradient>
</defs>
</svg>
