<svg width="151" height="150" viewBox="0 0 151 150" fill="none" xmlns="http://www.w3.org/2000/svg">
<g id="proforma-invoice">
<rect x="2.58203" y="2.5" width="145" height="145" rx="7.5" fill="white"/>
<rect x="2.58203" y="2.5" width="145" height="145" rx="7.5" fill="url(#paint0_linear_14_10833)" fill-opacity="0.2"/>
<g id="Group">
<path id="Vector" d="M111.834 125H38.3449C34.2727 125 30.9727 121.7 30.9727 117.628V32.3722C30.9727 28.3 34.2727 25 38.3449 25H111.837C115.909 25 119.209 28.3 119.209 32.3722V117.628C119.206 121.7 115.906 125 111.834 125Z" fill="#50E6FF"/>
<path id="Vector_2" d="M101.475 52.7778H48.6975C47.9308 52.7778 47.3086 52.1556 47.3086 51.3889V45.8333C47.3086 45.0667 47.9308 44.4445 48.6975 44.4445H101.475C102.242 44.4445 102.864 45.0667 102.864 45.8333V51.3889C102.864 52.1556 102.242 52.7778 101.475 52.7778Z" fill="#057093"/>
<path id="Vector_3" d="M101.464 69.4445H95.9084C95.1418 69.4445 94.5195 68.8222 94.5195 68.0556V65.2778C94.5195 64.5111 95.1418 63.8889 95.9084 63.8889H101.464C102.231 63.8889 102.853 64.5111 102.853 65.2778V68.0556C102.853 68.8222 102.231 69.4445 101.464 69.4445Z" fill="#057093"/>
<path id="Vector_4" d="M79.253 69.4445H48.6975C47.9308 69.4445 47.3086 68.8222 47.3086 68.0556V65.2778C47.3086 64.5111 47.9308 63.8889 48.6975 63.8889H79.253C80.0197 63.8889 80.6419 64.5111 80.6419 65.2778V68.0556C80.6419 68.8222 80.0197 69.4445 79.253 69.4445Z" fill="#057093"/>
<path id="Vector_5" d="M101.464 80.5556H95.9084C95.1418 80.5556 94.5195 79.9333 94.5195 79.1667V76.3889C94.5195 75.6222 95.1418 75 95.9084 75H101.464C102.231 75 102.853 75.6222 102.853 76.3889V79.1667C102.853 79.9333 102.231 80.5556 101.464 80.5556Z" fill="#057093"/>
<path id="Vector_6" d="M70.9197 80.5556H48.6975C47.9308 80.5556 47.3086 79.9333 47.3086 79.1667V76.3889C47.3086 75.6222 47.9308 75 48.6975 75H70.9197C71.6864 75 72.3086 75.6222 72.3086 76.3889V79.1667C72.3086 79.9333 71.6864 80.5556 70.9197 80.5556Z" fill="#057093"/>
<path id="Vector_7" d="M101.464 91.6666H95.9084C95.1418 91.6666 94.5195 91.0444 94.5195 90.2777V87.5C94.5195 86.7333 95.1418 86.1111 95.9084 86.1111H101.464C102.231 86.1111 102.853 86.7333 102.853 87.5V90.2777C102.853 91.0444 102.231 91.6666 101.464 91.6666Z" fill="#057093"/>
<path id="Vector_8" d="M79.253 91.6666H48.6975C47.9308 91.6666 47.3086 91.0444 47.3086 90.2777V87.5C47.3086 86.7333 47.9308 86.1111 48.6975 86.1111H79.253C80.0197 86.1111 80.6419 86.7333 80.6419 87.5V90.2777C80.6419 91.0444 80.0197 91.6666 79.253 91.6666Z" fill="#057093"/>
<path id="Vector_9" d="M101.464 102.778H95.9084C95.1418 102.778 94.5195 102.156 94.5195 101.389V98.6112C94.5195 97.8445 95.1418 97.2223 95.9084 97.2223H101.464C102.231 97.2223 102.853 97.8445 102.853 98.6112V101.389C102.853 102.156 102.231 102.778 101.464 102.778Z" fill="#057093"/>
<path id="Vector_10" d="M70.9197 102.778H48.6975C47.9308 102.778 47.3086 102.156 47.3086 101.389V98.6112C47.3086 97.8445 47.9308 97.2223 48.6975 97.2223H70.9197C71.6864 97.2223 72.3086 97.8445 72.3086 98.6112V101.389C72.3086 102.156 71.6864 102.778 70.9197 102.778Z" fill="#057093"/>
<path id="Vector_11" d="M108.414 30.5556H113.97V36.1111C113.97 37.6444 115.214 38.8889 116.748 38.8889C118.281 38.8889 119.526 37.6444 119.526 36.1111V30.5556C119.526 27.5 117.026 25 113.97 25H108.414C106.881 25 105.637 26.2444 105.637 27.7778C105.637 29.3111 106.881 30.5556 108.414 30.5556Z" fill="#64717C"/>
<path id="Vector_12" d="M36.1923 36.1111V30.5556H41.7478C43.2812 30.5556 44.5256 29.3111 44.5256 27.7778C44.5256 26.2444 43.2812 25 41.7478 25H36.1923C33.1367 25 30.6367 27.5 30.6367 30.5556V36.1111C30.6367 37.6444 31.8812 38.8889 33.4145 38.8889C34.9478 38.8889 36.1923 37.6444 36.1923 36.1111Z" fill="#64717C"/>
<path id="Vector_13" d="M113.97 113.889V119.444H108.414C106.881 119.444 105.637 120.689 105.637 122.222C105.637 123.756 106.881 125 108.414 125H113.97C117.026 125 119.526 122.5 119.526 119.444V113.889C119.526 112.356 118.281 111.111 116.748 111.111C115.214 111.111 113.97 112.356 113.97 113.889Z" fill="#64717C"/>
<path id="Vector_14" d="M41.7478 119.444H36.1923V113.889C36.1923 112.356 34.9478 111.111 33.4145 111.111C31.8812 111.111 30.6367 112.356 30.6367 113.889V119.444C30.6367 122.5 33.1367 125 36.1923 125H41.7478C43.2812 125 44.5256 123.756 44.5256 122.222C44.5256 120.689 43.2812 119.444 41.7478 119.444Z" fill="#64717C"/>
<path id="Vector_15" d="M52.8598 30.5556C54.3939 30.5556 55.6376 29.3119 55.6376 27.7778C55.6376 26.2437 54.3939 25 52.8598 25C51.3257 25 50.082 26.2437 50.082 27.7778C50.082 29.3119 51.3257 30.5556 52.8598 30.5556Z" fill="#64717C"/>
<path id="Vector_16" d="M63.9692 30.5556C65.5033 30.5556 66.747 29.3119 66.747 27.7778C66.747 26.2437 65.5033 25 63.9692 25C62.4351 25 61.1914 26.2437 61.1914 27.7778C61.1914 29.3119 62.4351 30.5556 63.9692 30.5556Z" fill="#64717C"/>
<path id="Vector_17" d="M75.0864 30.5556C76.6205 30.5556 77.8641 29.3119 77.8641 27.7778C77.8641 26.2437 76.6205 25 75.0864 25C73.5522 25 72.3086 26.2437 72.3086 27.7778C72.3086 29.3119 73.5522 30.5556 75.0864 30.5556Z" fill="#64717C"/>
<path id="Vector_18" d="M97.2973 30.5556C98.8314 30.5556 100.075 29.3119 100.075 27.7778C100.075 26.2437 98.8314 25 97.2973 25C95.7632 25 94.5195 26.2437 94.5195 27.7778C94.5195 29.3119 95.7632 30.5556 97.2973 30.5556Z" fill="#64717C"/>
<path id="Vector_19" d="M113.969 30.5556C115.503 30.5556 116.747 29.3119 116.747 27.7778C116.747 26.2437 115.503 25 113.969 25C112.435 25 111.191 26.2437 111.191 27.7778C111.191 29.3119 112.435 30.5556 113.969 30.5556Z" fill="#64717C"/>
<path id="Vector_20" d="M86.1879 30.5556C87.7221 30.5556 88.9657 29.3119 88.9657 27.7778C88.9657 26.2437 87.7221 25 86.1879 25C84.6538 25 83.4102 26.2437 83.4102 27.7778C83.4102 29.3119 84.6538 30.5556 86.1879 30.5556Z" fill="#64717C"/>
<path id="Vector_21" d="M52.8598 125C54.3939 125 55.6376 123.756 55.6376 122.222C55.6376 120.688 54.3939 119.444 52.8598 119.444C51.3257 119.444 50.082 120.688 50.082 122.222C50.082 123.756 51.3257 125 52.8598 125Z" fill="#64717C"/>
<path id="Vector_22" d="M63.9692 125C65.5033 125 66.747 123.756 66.747 122.222C66.747 120.688 65.5033 119.444 63.9692 119.444C62.4351 119.444 61.1914 120.688 61.1914 122.222C61.1914 123.756 62.4351 125 63.9692 125Z" fill="#64717C"/>
<path id="Vector_23" d="M75.0864 125C76.6205 125 77.8641 123.756 77.8641 122.222C77.8641 120.688 76.6205 119.444 75.0864 119.444C73.5522 119.444 72.3086 120.688 72.3086 122.222C72.3086 123.756 73.5522 125 75.0864 125Z" fill="#64717C"/>
<path id="Vector_24" d="M97.2973 125C98.8314 125 100.075 123.756 100.075 122.222C100.075 120.688 98.8314 119.444 97.2973 119.444C95.7632 119.444 94.5195 120.688 94.5195 122.222C94.5195 123.756 95.7632 125 97.2973 125Z" fill="#64717C"/>
<path id="Vector_25" d="M113.969 125C115.503 125 116.747 123.756 116.747 122.222C116.747 120.688 115.503 119.444 113.969 119.444C112.435 119.444 111.191 120.688 111.191 122.222C111.191 123.756 112.435 125 113.969 125Z" fill="#64717C"/>
<path id="Vector_26" d="M86.1879 125C87.7221 125 88.9657 123.756 88.9657 122.222C88.9657 120.688 87.7221 119.444 86.1879 119.444C84.6538 119.444 83.4102 120.688 83.4102 122.222C83.4102 123.756 84.6538 125 86.1879 125Z" fill="#64717C"/>
<path id="Vector_27" d="M116.743 50C118.277 50 119.52 48.7564 119.52 47.2222C119.52 45.6881 118.277 44.4445 116.743 44.4445C115.208 44.4445 113.965 45.6881 113.965 47.2222C113.965 48.7564 115.208 50 116.743 50Z" fill="#64717C"/>
<path id="Vector_28" d="M116.743 61.1111C118.277 61.1111 119.52 59.8674 119.52 58.3333C119.52 56.7992 118.277 55.5555 116.743 55.5555C115.208 55.5555 113.965 56.7992 113.965 58.3333C113.965 59.8674 115.208 61.1111 116.743 61.1111Z" fill="#64717C"/>
<path id="Vector_29" d="M116.743 72.2223C118.277 72.2223 119.52 70.9786 119.52 69.4445C119.52 67.9104 118.277 66.6667 116.743 66.6667C115.208 66.6667 113.965 67.9104 113.965 69.4445C113.965 70.9786 115.208 72.2223 116.743 72.2223Z" fill="#64717C"/>
<path id="Vector_30" d="M116.743 94.4445C118.277 94.4445 119.52 93.2008 119.52 91.6667C119.52 90.1326 118.277 88.8889 116.743 88.8889C115.208 88.8889 113.965 90.1326 113.965 91.6667C113.965 93.2008 115.208 94.4445 116.743 94.4445Z" fill="#64717C"/>
<path id="Vector_31" d="M116.743 105.556C118.277 105.556 119.52 104.312 119.52 102.778C119.52 101.244 118.277 100 116.743 100C115.208 100 113.965 101.244 113.965 102.778C113.965 104.312 115.208 105.556 116.743 105.556Z" fill="#64717C"/>
<path id="Vector_32" d="M116.743 83.3333C118.277 83.3333 119.52 82.0896 119.52 80.5555C119.52 79.0214 118.277 77.7777 116.743 77.7777C115.208 77.7777 113.965 79.0214 113.965 80.5555C113.965 82.0896 115.208 83.3333 116.743 83.3333Z" fill="#64717C"/>
<path id="Vector_33" d="M33.4145 50C34.9486 50 36.1923 48.7564 36.1923 47.2222C36.1923 45.6881 34.9486 44.4445 33.4145 44.4445C31.8804 44.4445 30.6367 45.6881 30.6367 47.2222C30.6367 48.7564 31.8804 50 33.4145 50Z" fill="#64717C"/>
<path id="Vector_34" d="M33.4145 61.1111C34.9486 61.1111 36.1923 59.8674 36.1923 58.3333C36.1923 56.7992 34.9486 55.5555 33.4145 55.5555C31.8804 55.5555 30.6367 56.7992 30.6367 58.3333C30.6367 59.8674 31.8804 61.1111 33.4145 61.1111Z" fill="#64717C"/>
<path id="Vector_35" d="M33.4145 72.2223C34.9486 72.2223 36.1923 70.9786 36.1923 69.4445C36.1923 67.9104 34.9486 66.6667 33.4145 66.6667C31.8804 66.6667 30.6367 67.9104 30.6367 69.4445C30.6367 70.9786 31.8804 72.2223 33.4145 72.2223Z" fill="#64717C"/>
<path id="Vector_36" d="M33.4145 94.4445C34.9486 94.4445 36.1923 93.2008 36.1923 91.6667C36.1923 90.1326 34.9486 88.8889 33.4145 88.8889C31.8804 88.8889 30.6367 90.1326 30.6367 91.6667C30.6367 93.2008 31.8804 94.4445 33.4145 94.4445Z" fill="#64717C"/>
<path id="Vector_37" d="M33.4145 105.556C34.9486 105.556 36.1923 104.312 36.1923 102.778C36.1923 101.244 34.9486 100 33.4145 100C31.8804 100 30.6367 101.244 30.6367 102.778C30.6367 104.312 31.8804 105.556 33.4145 105.556Z" fill="#64717C"/>
<path id="Vector_38" d="M33.4145 83.3333C34.9486 83.3333 36.1923 82.0896 36.1923 80.5555C36.1923 79.0214 34.9486 77.7777 33.4145 77.7777C31.8804 77.7777 30.6367 79.0214 30.6367 80.5555C30.6367 82.0896 31.8804 83.3333 33.4145 83.3333Z" fill="#64717C"/>
</g>
<rect x="2.58203" y="2.5" width="145" height="145" rx="7.5" stroke="#D5EAF6" stroke-width="5"/>
</g>
<defs>
<linearGradient id="paint0_linear_14_10833" x1="75.082" y1="5" x2="75.082" y2="145" gradientUnits="userSpaceOnUse">
<stop stop-color="#199AE0"/>
<stop offset="0.472222" stop-color="#0D5176" stop-opacity="0.527778"/>
<stop offset="0.940972" stop-color="#12A6F7" stop-opacity="0.465278"/>
<stop offset="1" stop-opacity="0"/>
</linearGradient>
</defs>
</svg>
