<svg width="151" height="150" viewBox="0 0 151 150" fill="none" xmlns="http://www.w3.org/2000/svg">
<g id="program">
<rect x="2.58203" y="2.5" width="145" height="145" rx="7.5" fill="white"/>
<rect x="2.58203" y="2.5" width="145" height="145" rx="7.5" fill="url(#paint0_linear_14_10873)" fill-opacity="0.2"/>
<g id="Group">
<path id="Vector" d="M76.0677 42.6524L70.0297 36.6143C68.6916 35.2762 66.8749 34.5238 64.9796 34.5238H29.8439C27.213 34.5238 25.082 36.6548 25.082 39.2857V110.714C25.082 113.345 27.213 115.476 29.8439 115.476H120.32C122.951 115.476 125.082 113.345 125.082 110.714V48.8095C125.082 46.1786 122.951 44.0476 120.32 44.0476H79.4344C78.1725 44.0476 76.9606 43.5452 76.0677 42.6524Z" fill="url(#paint1_linear_14_10873)"/>
<path id="Vector_2" d="M69.3344 52.1759L77.1154 44.395C77.3368 44.1736 77.6392 44.0474 77.9558 44.0474H120.32C122.951 44.0474 125.082 46.1783 125.082 48.8093V110.714C125.082 113.345 122.951 115.476 120.32 115.476H29.8439C27.213 115.476 25.082 113.345 25.082 110.714V54.7616C25.082 54.1045 25.6154 53.5712 26.2725 53.5712H65.9677C67.2297 53.5712 68.4416 53.0688 69.3344 52.1759Z" fill="url(#paint2_linear_14_10873)"/>
<path id="Vector_3" d="M46.634 94.2619L63.2602 77.6357C63.715 77.181 64.4531 77.181 64.9078 77.6357L69.8483 82.5762C70.3031 83.031 70.3031 83.7691 69.8483 84.2238L53.2221 100.85C52.7674 101.305 52.0293 101.305 51.5745 100.85L46.634 95.9096C46.1793 95.4548 46.1793 94.7167 46.634 94.2619Z" fill="url(#paint3_linear_14_10873)"/>
<path id="Vector_4" d="M53.3549 65.8167L69.9811 82.4428C70.4359 82.8976 70.4359 83.6357 69.9811 84.0905L65.0407 89.0309C64.5859 89.4857 63.8478 89.4857 63.393 89.0309L46.7669 72.4048C46.3121 71.95 46.3121 71.2119 46.7669 70.7571L51.7073 65.8167C52.1645 65.3619 52.9002 65.3619 53.3549 65.8167Z" fill="url(#paint4_linear_14_10873)"/>
<path id="Vector_5" d="M78.6553 94.0474H104.846C105.503 94.0474 106.036 94.5807 106.036 95.2378V99.9997C106.036 100.657 105.503 101.19 104.846 101.19H78.6553C77.9982 101.19 77.4648 100.657 77.4648 99.9997V95.2378C77.4648 94.5807 77.9982 94.0474 78.6553 94.0474Z" fill="url(#paint5_linear_14_10873)"/>
</g>
<rect x="2.58203" y="2.5" width="145" height="145" rx="7.5" stroke="#D5EAF6" stroke-width="5"/>
</g>
<defs>
<linearGradient id="paint0_linear_14_10873" x1="75.082" y1="5" x2="75.082" y2="145" gradientUnits="userSpaceOnUse">
<stop stop-color="#199AE0"/>
<stop offset="0.472222" stop-color="#0D5176" stop-opacity="0.527778"/>
<stop offset="0.940972" stop-color="#12A6F7" stop-opacity="0.465278"/>
<stop offset="1" stop-opacity="0"/>
</linearGradient>
<linearGradient id="paint1_linear_14_10873" x1="75.082" y1="33.8286" x2="75.082" y2="53.5167" gradientUnits="userSpaceOnUse">
<stop stop-color="#EBA600"/>
<stop offset="1" stop-color="#C28200"/>
</linearGradient>
<linearGradient id="paint2_linear_14_10873" x1="75.082" y1="43.6997" x2="75.082" y2="115.435" gradientUnits="userSpaceOnUse">
<stop stop-color="#FFD869"/>
<stop offset="1" stop-color="#FEC52B"/>
</linearGradient>
<linearGradient id="paint3_linear_14_10873" x1="49.4055" y1="98.0762" x2="64.2793" y2="83.2024" gradientUnits="userSpaceOnUse">
<stop stop-color="#1552B3"/>
<stop offset="0.275" stop-color="#144FAE"/>
<stop offset="0.623" stop-color="#12479E"/>
<stop offset="0.86" stop-color="#103F8F"/>
</linearGradient>
<linearGradient id="paint4_linear_14_10873" x1="49.7097" y1="68.7571" x2="67.5097" y2="86.5571" gradientUnits="userSpaceOnUse">
<stop stop-color="#1F60C2"/>
<stop offset="1" stop-color="#195BBC"/>
</linearGradient>
<linearGradient id="paint5_linear_14_10873" x1="77.4648" y1="97.6188" x2="106.036" y2="97.6188" gradientUnits="userSpaceOnUse">
<stop stop-color="#1F60C2"/>
<stop offset="1" stop-color="#195BBC"/>
</linearGradient>
</defs>
</svg>
