<svg width="151" height="150" viewBox="0 0 151 150" fill="none" xmlns="http://www.w3.org/2000/svg">
<g id="project">
<rect x="2.58203" y="2.5" width="145" height="145" rx="7.5" fill="white"/>
<rect x="2.58203" y="2.5" width="145" height="145" rx="7.5" fill="url(#paint0_linear_14_10880)" fill-opacity="0.2"/>
<g id="Group">
<path id="Vector" d="M25.082 45H120.082C122.845 45 125.082 47.2375 125.082 50V115C125.082 117.762 122.845 120 120.082 120H42.582C32.917 120 25.082 112.165 25.082 102.5V45Z" fill="url(#paint1_linear_14_10880)"/>
<path id="Vector_2" d="M42.582 85H47.582C50.3445 85 52.582 82.7625 52.582 80V35C52.582 32.2375 50.3445 30 47.582 30H42.582C32.917 30 25.082 37.835 25.082 47.5V102.5C25.082 92.835 32.917 85 42.582 85Z" fill="url(#paint2_linear_14_10880)"/>
<path id="Vector_3" d="M61.3242 97.5H108.824C109.514 97.5 110.074 98.06 110.074 98.75V101.25C110.074 101.94 109.514 102.5 108.824 102.5H61.3242C60.6342 102.5 60.0742 101.94 60.0742 101.25V98.75C60.0742 98.06 60.6342 97.5 61.3242 97.5Z" fill="#35C1F1"/>
<path id="Vector_4" d="M63.4573 88.3825L61.6898 86.615C61.2023 86.1275 61.2023 85.335 61.6898 84.8475L77.9398 68.5975C78.4273 68.11 79.2198 68.11 79.7073 68.5975L88.8223 77.7125L102.055 64.48L105.59 68.015L89.7073 83.8975C89.2198 84.385 88.4273 84.385 87.9398 83.8975L78.8248 74.785L65.2273 88.3825C64.7373 88.8725 63.9473 88.8725 63.4573 88.3825Z" fill="#35C1F1"/>
<path id="Vector_5" d="M97.2164 62.135L107.949 72.8675C108.734 73.6525 110.081 73.095 110.081 71.9825V61.25C110.081 60.56 109.521 60 108.831 60H98.0989C96.9864 60 96.4289 61.3475 97.2164 62.135Z" fill="#35C1F1"/>
</g>
<rect x="2.58203" y="2.5" width="145" height="145" rx="7.5" stroke="#D5EAF6" stroke-width="5"/>
</g>
<defs>
<linearGradient id="paint0_linear_14_10880" x1="75.082" y1="5" x2="75.082" y2="145" gradientUnits="userSpaceOnUse">
<stop stop-color="#199AE0"/>
<stop offset="0.472222" stop-color="#0D5176" stop-opacity="0.527778"/>
<stop offset="0.940972" stop-color="#12A6F7" stop-opacity="0.465278"/>
<stop offset="1" stop-opacity="0"/>
</linearGradient>
<linearGradient id="paint1_linear_14_10880" x1="124.737" y1="82.5" x2="23.5995" y2="82.5" gradientUnits="userSpaceOnUse">
<stop stop-color="#0068B8"/>
<stop offset="1" stop-color="#004D94"/>
</linearGradient>
<linearGradient id="paint2_linear_14_10880" x1="25.4795" y1="66.25" x2="53.252" y2="66.25" gradientUnits="userSpaceOnUse">
<stop stop-color="#28AFEA"/>
<stop offset="1" stop-color="#0B88DA"/>
</linearGradient>
</defs>
</svg>
