<svg width="151" height="150" viewBox="0 0 151 150" fill="none" xmlns="http://www.w3.org/2000/svg">
<g id="purchase-order">
<rect x="2.58203" y="2.5" width="145" height="145" rx="7.5" fill="white"/>
<rect x="2.58203" y="2.5" width="145" height="145" rx="7.5" fill="url(#paint0_linear_14_10887)" fill-opacity="0.2"/>
<g id="Group">
<path id="Vector" d="M116.752 125H44.5302C41.4607 125 38.9746 122.514 38.9746 119.444V30.5555C38.9746 27.4861 41.4607 25 44.5302 25H116.752C119.822 25 122.308 27.4861 122.308 30.5555V119.444C122.308 122.514 119.822 125 116.752 125Z" fill="url(#paint1_linear_14_10887)"/>
<path id="Vector_2" d="M111.191 119.444V111.111H27.8574V119.444C27.8574 122.514 30.3435 125 33.413 125H116.746C113.677 125 111.191 122.514 111.191 119.444Z" fill="url(#paint2_linear_14_10887)"/>
<path id="Vector_3" d="M107.029 61.111H70.9182C70.1515 61.111 69.5293 60.4888 69.5293 59.7221V54.1666C69.5293 53.3999 70.1515 52.7777 70.9182 52.7777H107.029C107.796 52.7777 108.418 53.3999 108.418 54.1666V59.7221C108.418 60.4888 107.796 61.111 107.029 61.111Z" fill="#057093"/>
<path id="Vector_4" d="M107.029 77.7777H70.9182C70.1515 77.7777 69.5293 77.1555 69.5293 76.3888V70.8333C69.5293 70.0666 70.1515 69.4444 70.9182 69.4444H107.029C107.796 69.4444 108.418 70.0666 108.418 70.8333V76.3888C108.418 77.1555 107.796 77.7777 107.029 77.7777Z" fill="#057093"/>
<path id="Vector_5" d="M107.029 94.4445H70.9182C70.1515 94.4445 69.5293 93.8223 69.5293 93.0556V87.5C69.5293 86.7334 70.1515 86.1111 70.9182 86.1111H107.029C107.796 86.1111 108.418 86.7334 108.418 87.5V93.0556C108.418 93.8223 107.796 94.4445 107.029 94.4445Z" fill="#057093"/>
<path id="Vector_6" d="M59.8019 61.111H54.2463C53.4796 61.111 52.8574 60.4888 52.8574 59.7221V54.1666C52.8574 53.3999 53.4796 52.7777 54.2463 52.7777H59.8019C60.5685 52.7777 61.1907 53.3999 61.1907 54.1666V59.7221C61.1907 60.4888 60.5685 61.111 59.8019 61.111Z" fill="#057093"/>
<path id="Vector_7" d="M59.8019 77.7777H54.2463C53.4796 77.7777 52.8574 77.1555 52.8574 76.3888V70.8333C52.8574 70.0666 53.4796 69.4444 54.2463 69.4444H59.8019C60.5685 69.4444 61.1907 70.0666 61.1907 70.8333V76.3888C61.1907 77.1555 60.5685 77.7777 59.8019 77.7777Z" fill="#057093"/>
<path id="Vector_8" d="M59.8019 94.4445H54.2463C53.4796 94.4445 52.8574 93.8223 52.8574 93.0556V87.5C52.8574 86.7334 53.4796 86.1111 54.2463 86.1111H59.8019C60.5685 86.1111 61.1907 86.7334 61.1907 87.5V93.0556C61.1907 93.8223 60.5685 94.4445 59.8019 94.4445Z" fill="#057093"/>
</g>
<rect x="2.58203" y="2.5" width="145" height="145" rx="7.5" stroke="#D5EAF6" stroke-width="5"/>
</g>
<defs>
<linearGradient id="paint0_linear_14_10887" x1="75.082" y1="5" x2="75.082" y2="145" gradientUnits="userSpaceOnUse">
<stop stop-color="#199AE0"/>
<stop offset="0.472222" stop-color="#0D5176" stop-opacity="0.527778"/>
<stop offset="0.940972" stop-color="#12A6F7" stop-opacity="0.465278"/>
<stop offset="1" stop-opacity="0"/>
</linearGradient>
<linearGradient id="paint1_linear_14_10887" x1="52.7302" y1="28.9722" x2="112.269" y2="127.158" gradientUnits="userSpaceOnUse">
<stop stop-color="#7DD8F3"/>
<stop offset="1" stop-color="#45B0D0"/>
</linearGradient>
<linearGradient id="paint2_linear_14_10887" x1="72.3018" y1="111.9" x2="72.3018" y2="125.028" gradientUnits="userSpaceOnUse">
<stop stop-color="#0176D0"/>
<stop offset="1" stop-color="#16538C"/>
</linearGradient>
</defs>
</svg>
