<svg width="151" height="150" viewBox="0 0 151 150" fill="none" xmlns="http://www.w3.org/2000/svg">
<g id="push-notifications">
<rect x="2.58203" y="2.5" width="145" height="145" rx="7.5" fill="white"/>
<rect x="2.58203" y="2.5" width="145" height="145" rx="7.5" fill="url(#paint0_linear_14_10897)" fill-opacity="0.2"/>
<g id="Group">
<path id="Vector" d="M87.2749 112.805H28.7383V120.122C28.7383 122.817 30.9212 125 33.6163 125H82.3968C85.0919 125 87.2749 122.817 87.2749 120.122V112.805Z" fill="#184F85"/>
<path id="Vector_2" d="M87.2749 95.7317H28.7383V112.805H87.2749V95.7317Z" fill="#0078D4"/>
<path id="Vector_3" d="M87.2749 71.3414H28.7383V95.7316H87.2749V71.3414Z" fill="#1B9DE2"/>
<path id="Vector_4" d="M87.2749 37.1952H28.7383V71.3415H87.2749V37.1952Z" fill="#35C1F1"/>
<path id="Vector_5" d="M87.2749 37.1951H28.7383V29.878C28.7383 27.1829 30.9212 25 33.6163 25H82.3968C85.0919 25 87.2749 27.1829 87.2749 29.878V37.1951Z" fill="#50E6FF"/>
<path id="Vector_6" d="M48.255 32.9267C49.2653 32.9267 50.0843 32.1077 50.0843 31.0975C50.0843 30.0872 49.2653 29.2682 48.255 29.2682C47.2448 29.2682 46.4258 30.0872 46.4258 31.0975C46.4258 32.1077 47.2448 32.9267 48.255 32.9267Z" fill="#0C63AD"/>
<path id="Vector_7" d="M66.5517 29.2682C66.0786 29.2682 54.8298 29.2682 54.3566 29.2682C53.3469 29.2682 52.5273 30.0877 52.5273 31.0975C52.5273 32.1072 53.3469 32.9267 54.3566 32.9267C54.8298 32.9267 66.0786 32.9267 66.5517 32.9267C67.5615 32.9267 68.381 32.1072 68.381 31.0975C68.381 30.0877 67.5615 29.2682 66.5517 29.2682Z" fill="#0C63AD"/>
<path id="Vector_8" opacity="0.07" d="M87.2792 43.2927H63.5378C61.1622 43.2927 59.2305 45.2244 59.2305 47.6V87.7683C59.2305 90.1439 61.1622 92.0757 63.5378 92.0757H73.8646V103.215C73.8646 104.739 75.1085 105.981 76.6378 105.981C77.3671 105.981 78.0573 105.693 78.5793 105.168L87.2792 96.4659V43.2927Z" fill="black"/>
<path id="Vector_9" opacity="0.05" d="M87.2722 42.0731H63.5307C60.4844 42.0731 58.0039 44.5512 58.0039 47.5999V87.7682C58.0039 90.8146 60.4844 93.2926 63.5307 93.2926H72.6381V103.212C72.6381 105.41 74.4283 107.198 76.6307 107.198C77.6844 107.198 78.682 106.783 79.4356 106.029L87.2722 98.1902V42.0731Z" fill="black"/>
<path id="Vector_10" d="M118.339 44.5121H63.5346C61.8321 44.5121 60.4492 45.895 60.4492 47.5975V87.7657C60.4492 89.4706 61.8321 90.8535 63.5346 90.8535H75.0834V103.212C75.0834 104.588 76.7443 105.276 77.7175 104.302L91.1663 90.8535H118.337C120.042 90.8535 121.425 89.4706 121.425 87.7682V47.5975C121.425 45.895 120.042 44.5121 118.339 44.5121Z" fill="url(#paint1_linear_14_10897)"/>
<path id="Vector_11" d="M90.9269 61.5098C89.9172 61.5098 89.0977 60.6903 89.0977 59.6805V53.1244C89.0977 52.1147 89.9172 51.2952 90.9269 51.2952C91.9367 51.2952 92.7562 52.1147 92.7562 53.1244V59.6805C92.7562 60.6903 91.9367 61.5098 90.9269 61.5098Z" fill="#FFD600"/>
<path id="Vector_12" d="M104.357 67.1488C104.357 58.7024 95.8883 52.1561 86.6615 54.9049C81.1273 56.5537 77.5273 61.9098 77.5273 67.6829V76.2195H104.357C104.357 76.2195 104.357 67.4829 104.357 67.1488Z" fill="#F5BE00"/>
<path id="Vector_13" d="M94.6422 79.8268C94.6422 81.8755 92.9812 83.5365 90.9324 83.5365C88.8836 83.5365 87.2227 81.8755 87.2227 79.8268H94.6422Z" fill="url(#paint2_linear_14_10897)"/>
<path id="Vector_14" d="M106.879 78.1926L104.355 76.2195H77.5257L75.0013 78.1926C74.6159 78.4902 74.3477 78.939 74.3477 79.4731C74.3477 80.3707 75.0599 81.0999 75.9379 81.0999H105.945C106.823 81.0999 107.535 80.3707 107.535 79.4731C107.533 78.939 107.267 78.4902 106.879 78.1926Z" fill="url(#paint3_linear_14_10897)"/>
</g>
<rect x="2.58203" y="2.5" width="145" height="145" rx="7.5" stroke="#D5EAF6" stroke-width="5"/>
</g>
<defs>
<linearGradient id="paint0_linear_14_10897" x1="75.082" y1="5" x2="75.082" y2="145" gradientUnits="userSpaceOnUse">
<stop stop-color="#199AE0"/>
<stop offset="0.472222" stop-color="#0D5176" stop-opacity="0.527778"/>
<stop offset="0.940972" stop-color="#12A6F7" stop-opacity="0.465278"/>
<stop offset="1" stop-opacity="0"/>
</linearGradient>
<linearGradient id="paint1_linear_14_10897" x1="65.5492" y1="43.8414" x2="116.405" y2="92.4145" gradientUnits="userSpaceOnUse">
<stop stop-color="#F44F5A"/>
<stop offset="0.443" stop-color="#EE3D4A"/>
<stop offset="1" stop-color="#E52030"/>
</linearGradient>
<linearGradient id="paint2_linear_14_10897" x1="90.9324" y1="83.4609" x2="90.9324" y2="79.695" gradientUnits="userSpaceOnUse">
<stop offset="0.486" stop-color="#FBC300"/>
<stop offset="1" stop-color="#DBAA00"/>
</linearGradient>
<linearGradient id="paint3_linear_14_10897" x1="90.9403" y1="76.2121" x2="90.9403" y2="81.1024" gradientUnits="userSpaceOnUse">
<stop stop-color="#FEDE00"/>
<stop offset="1" stop-color="#FFD000"/>
</linearGradient>
</defs>
</svg>
