<svg width="151" height="150" viewBox="0 0 151 150" fill="none" xmlns="http://www.w3.org/2000/svg">
<g id="receipt-terminal">
<rect x="2.58203" y="2.5" width="145" height="145" rx="7.5" fill="white"/>
<rect x="2.58203" y="2.5" width="145" height="145" rx="7.5" fill="url(#paint0_linear_14_10946)" fill-opacity="0.2"/>
<g id="Group">
<path id="Vector" d="M122.45 119.737V53.9474C122.45 51.0395 120.094 48.6842 117.187 48.6842H32.976C30.0682 48.6842 27.7129 51.0395 27.7129 53.9474V119.737C27.7129 122.645 30.0682 125 32.976 125H117.187C120.094 125 122.45 122.645 122.45 119.737Z" fill="url(#paint1_linear_14_10946)"/>
<path id="Vector_2" d="M43.4995 61.8422H106.657C109.565 61.8422 111.921 64.1974 111.921 67.1053C111.921 70.0132 109.565 72.3685 106.657 72.3685H43.4995C40.5916 72.3685 38.2363 70.0132 38.2363 67.1053C38.2363 64.1974 40.5916 61.8422 43.4995 61.8422Z" fill="url(#paint2_linear_14_10946)"/>
<path id="Vector_3" d="M104.037 69.7368V27.6316C104.037 26.1789 102.858 25 101.406 25H98.7742C98.7742 26.4526 97.5952 27.6316 96.1426 27.6316C94.69 27.6316 93.511 26.4526 93.511 25H88.2478C88.2478 26.4526 87.0689 27.6316 85.6163 27.6316C84.1636 27.6316 82.9847 26.4526 82.9847 25H77.7215C77.7215 26.4526 76.5426 27.6316 75.0899 27.6316C73.6373 27.6316 72.4584 26.4526 72.4584 25H67.1952C67.1952 26.4526 66.0163 27.6316 64.5636 27.6316C63.111 27.6316 61.9321 26.4526 61.9321 25H56.6689C56.6689 26.4526 55.4899 27.6316 54.0373 27.6316C52.5847 27.6316 51.4057 26.4526 51.4057 25H48.7742C47.3215 25 46.1426 26.1789 46.1426 27.6316V69.7368H104.037Z" fill="#50E6FF"/>
<path id="Vector_4" d="M46.1323 80.2631H104.027C106.935 80.2631 109.29 82.6183 109.29 85.5262V90.7894C109.29 93.6973 106.935 96.0525 104.027 96.0525H46.1323C43.2244 96.0525 40.8691 93.6973 40.8691 90.7894V85.5262C40.8691 82.6183 43.2244 80.2631 46.1323 80.2631Z" fill="url(#paint3_linear_14_10946)"/>
<path id="Vector_5" d="M106.653 117.105H98.7585C97.3059 117.105 96.127 115.926 96.127 114.474V106.579C96.127 105.126 97.3059 103.947 98.7585 103.947H106.653C108.106 103.947 109.285 105.126 109.285 106.579V114.474C109.285 115.926 108.106 117.105 106.653 117.105Z" fill="#107C42"/>
<path id="Vector_6" d="M51.3955 117.105H43.5007C42.0481 117.105 40.8691 115.926 40.8691 114.474V106.579C40.8691 105.126 42.0481 103.947 43.5007 103.947H51.3955C52.8481 103.947 54.027 105.126 54.027 106.579V114.474C54.027 115.926 52.8481 117.105 51.3955 117.105ZM69.8165 117.105H61.9218C60.4691 117.105 59.2902 115.926 59.2902 114.474V106.579C59.2902 105.126 60.4691 103.947 61.9218 103.947H69.8165C71.2691 103.947 72.4481 105.126 72.4481 106.579V114.474C72.4481 115.926 71.2691 117.105 69.8165 117.105ZM88.2376 117.105H80.3428C78.8902 117.105 77.7112 115.926 77.7112 114.474V106.579C77.7112 105.126 78.8902 103.947 80.3428 103.947H88.2376C89.6902 103.947 90.8691 105.126 90.8691 106.579V114.474C90.8691 115.926 89.6902 117.105 88.2376 117.105Z" fill="#CAD2D9"/>
<path id="Vector_7" d="M104.037 67.1052H46.1426V72.3684H104.037V67.1052Z" fill="#35C1F1"/>
<path id="Vector_8" opacity="0.05" d="M74.6485 62.1263C72.9774 62.1263 71.6117 60.779 71.5827 59.1132C70.5117 58.879 69.4774 58.5579 68.588 58.179C67.2485 57.6079 66.3827 56.3026 66.3827 54.8526V52.7869C66.3827 51.0263 67.8117 49.5948 69.5722 49.5948H69.7327C67.7985 48.3369 66.0801 46.3605 66.0801 43.0316C66.0801 39.4921 68.1617 36.7132 71.5801 35.5763C71.6301 33.9316 72.9853 32.6079 74.6432 32.6079H75.509C77.0643 32.6079 78.3511 33.7711 78.5485 35.2737C79.3301 35.4053 80.0196 35.5869 80.6327 35.8263C81.1696 36.0369 82.9038 36.9132 82.9038 39.3895V41.2026C82.9038 42.9579 81.4722 44.3895 79.7143 44.3895H79.3775C81.7038 45.5816 84.0722 47.5632 84.0722 51.429C84.0722 54.2 82.609 57.7053 78.5774 59.0079V59.0579C78.5774 60.7474 77.2038 62.1237 75.5117 62.1237H74.6485V62.1263Z" fill="black"/>
<path id="Vector_9" opacity="0.07" d="M74.653 60.8104C73.6899 60.8104 72.903 60.0262 72.903 59.0604V58.021C71.5714 57.8104 70.2162 57.4394 69.1083 56.9683C68.2557 56.6052 67.703 55.7736 67.703 54.8525V52.7867C67.703 51.7525 68.5425 50.9104 69.5767 50.9104H69.8925L70.4241 51.1157C70.9635 51.392 72.8872 52.292 75.082 52.292C76.6057 52.292 76.6057 51.8183 76.6057 51.6157C76.6057 51.0999 75.132 50.5552 73.9504 50.1183C71.3425 49.1525 67.4004 47.6946 67.4004 43.0341C67.4004 39.7631 69.5214 37.3262 72.8978 36.5788V35.6736C72.8978 34.7104 73.682 33.9236 74.6478 33.9236H75.5135C76.4767 33.9236 77.2636 34.7078 77.2636 35.6736V36.4341C78.4162 36.5446 79.3741 36.7473 80.1609 37.0552C80.5951 37.2262 81.5925 37.792 81.5925 39.392V41.2052C81.5925 42.2367 80.7504 43.0762 79.7188 43.0762H79.4214L78.903 42.892C78.2136 42.5683 76.7872 42.0236 75.0793 42.0236C74.0688 42.0236 73.5557 42.2631 73.5557 42.7341C73.5557 43.3867 74.6899 43.8736 76.4188 44.5446C79.0951 45.5841 82.7583 47.0078 82.7583 51.4315C82.7583 54.0367 81.2925 57.1657 77.2636 57.9999V59.0631C77.2636 60.0262 76.4793 60.8131 75.5135 60.8131H74.653V60.8104Z" fill="black"/>
<path id="Vector_10" d="M81.4367 51.4342C81.4367 45.2 72.234 46.4185 72.234 42.7342C72.234 40.8106 74.3972 40.7079 75.0709 40.7079C76.6946 40.7079 78.263 41.1448 79.4577 41.7053C79.8367 41.8842 80.2682 41.6211 80.2682 41.2053V39.3921C80.2682 38.7842 80.0393 38.4237 79.6735 38.279C78.8551 37.9606 77.6788 37.7263 75.9367 37.6685V35.6737C75.9367 35.4342 75.7419 35.2395 75.5024 35.2395H74.6367C74.3972 35.2395 74.2024 35.4342 74.2024 35.6737V37.7027C71.5024 37.9658 68.7051 39.4895 68.7051 43.0342C68.7051 49.4974 77.9077 48.2132 77.9077 51.6184C77.9077 52.6895 77.2235 53.6106 75.0709 53.6106C72.9051 53.6106 70.9156 52.8553 69.8156 52.2895C69.4446 52.1 69.0077 52.3737 69.0077 52.7895V54.8553C69.0077 55.25 69.2472 55.6027 69.613 55.7606C70.9182 56.3158 72.6682 56.7342 74.2077 56.8579V59.0632C74.2077 59.3027 74.4024 59.4974 74.6419 59.4974H75.5077C75.7472 59.4974 75.9419 59.3027 75.9419 59.0632V56.8606C79.9788 56.5237 81.4367 53.8211 81.4367 51.4342Z" fill="white"/>
</g>
<rect x="2.58203" y="2.5" width="145" height="145" rx="7.5" stroke="#D5EAF6" stroke-width="5"/>
</g>
<defs>
<linearGradient id="paint0_linear_14_10946" x1="75.082" y1="5" x2="75.082" y2="145" gradientUnits="userSpaceOnUse">
<stop stop-color="#199AE0"/>
<stop offset="0.472222" stop-color="#0D5176" stop-opacity="0.527778"/>
<stop offset="0.940972" stop-color="#12A6F7" stop-opacity="0.465278"/>
<stop offset="1" stop-opacity="0"/>
</linearGradient>
<linearGradient id="paint1_linear_14_10946" x1="75.0813" y1="47.2842" x2="75.0813" y2="125.287" gradientUnits="userSpaceOnUse">
<stop stop-color="#899198"/>
<stop offset="1" stop-color="#787E85"/>
</linearGradient>
<linearGradient id="paint2_linear_14_10946" x1="75.0784" y1="72.4237" x2="75.0784" y2="62.2343" gradientUnits="userSpaceOnUse">
<stop stop-color="#0D61A9"/>
<stop offset="1" stop-color="#16528C"/>
</linearGradient>
<linearGradient id="paint3_linear_14_10946" x1="42.4823" y1="79.6104" x2="106.535" y2="96.4078" gradientUnits="userSpaceOnUse">
<stop stop-color="#4FE5FF"/>
<stop offset="1" stop-color="#2EB7ED"/>
</linearGradient>
</defs>
</svg>
