<svg width="151" height="150" viewBox="0 0 151 150" fill="none" xmlns="http://www.w3.org/2000/svg">
<g id="receipt-dollar">
<rect x="2.58203" y="2.5" width="145" height="145" rx="7.5" fill="white"/>
<rect x="2.58203" y="2.5" width="145" height="145" rx="7.5" fill="url(#paint0_linear_14_10927)" fill-opacity="0.2"/>
<g id="Group">
<path id="Vector" d="M94.8526 25C94.8526 26.2837 93.8108 27.3256 92.527 27.3256C91.2433 27.3256 90.2015 26.2837 90.2015 25H85.5503C85.5503 26.2837 84.5084 27.3256 83.2247 27.3256C81.941 27.3256 80.8991 26.2837 80.8991 25H76.248C76.248 26.2837 75.2061 27.3256 73.9224 27.3256C72.6387 27.3256 71.5968 26.2837 71.5968 25H66.9456C66.9456 26.2837 65.9038 27.3256 64.6201 27.3256C63.3363 27.3256 62.2945 26.2837 62.2945 25H57.6433C57.6433 26.2837 56.6015 27.3256 55.3177 27.3256C54.034 27.3256 52.9921 26.2837 52.9921 25H48.341C48.341 26.2837 47.2991 27.3256 46.0154 27.3256C44.7317 27.3256 43.6898 26.2837 43.6898 25H39.0387C39.0387 26.2837 37.9968 27.3256 36.7131 27.3256C35.4294 27.3256 34.3875 26.2837 34.3875 25H32.0619C30.7782 25 29.7363 26.0419 29.7363 27.3256V108.721C29.7363 111.291 31.8177 113.372 34.3875 113.372H94.8526C97.4224 113.372 99.5038 111.291 99.5038 108.721V27.3256C99.5038 26.0419 98.4619 25 97.1782 25H94.8526Z" fill="#50E6FF"/>
<path id="Vector_2" d="M89.0332 43.6046H40.196C39.5541 43.6046 39.0332 43.0836 39.0332 42.4418V37.7906C39.0332 37.1487 39.5541 36.6278 40.196 36.6278H89.0332C89.6751 36.6278 90.196 37.1487 90.196 37.7906V42.4418C90.196 43.0836 89.6751 43.6046 89.0332 43.6046Z" fill="#057093"/>
<path id="Vector_3" d="M89.0347 59.8837H84.3835C83.7416 59.8837 83.2207 59.3628 83.2207 58.7209V56.3953C83.2207 55.7535 83.7416 55.2325 84.3835 55.2325H89.0347C89.6765 55.2325 90.1974 55.7535 90.1974 56.3953V58.7209C90.1974 59.3628 89.6765 59.8837 89.0347 59.8837Z" fill="#057093"/>
<path id="Vector_4" d="M70.4286 59.8837H40.196C39.5541 59.8837 39.0332 59.3628 39.0332 58.7209V56.3953C39.0332 55.7535 39.5541 55.2325 40.196 55.2325H70.4286C71.0704 55.2325 71.5914 55.7535 71.5914 56.3953V58.7209C71.5914 59.3628 71.0704 59.8837 70.4286 59.8837Z" fill="#057093"/>
<path id="Vector_5" d="M89.0347 69.1861H84.3835C83.7416 69.1861 83.2207 68.6651 83.2207 68.0233V65.6977C83.2207 65.0558 83.7416 64.5349 84.3835 64.5349H89.0347C89.6765 64.5349 90.1974 65.0558 90.1974 65.6977V68.0233C90.1974 68.6651 89.6765 69.1861 89.0347 69.1861Z" fill="#057093"/>
<path id="Vector_6" d="M63.4518 69.1861H40.196C39.5541 69.1861 39.0332 68.6651 39.0332 68.0233V65.6977C39.0332 65.0558 39.5541 64.5349 40.196 64.5349H63.4518C64.0937 64.5349 64.6146 65.0558 64.6146 65.6977V68.0233C64.6146 68.6651 64.0937 69.1861 63.4518 69.1861Z" fill="#057093"/>
<path id="Vector_7" d="M89.0347 78.4883H84.3835C83.7416 78.4883 83.2207 77.9674 83.2207 77.3255V74.9999C83.2207 74.3581 83.7416 73.8372 84.3835 73.8372H89.0347C89.6765 73.8372 90.1974 74.3581 90.1974 74.9999V77.3255C90.1974 77.9674 89.6765 78.4883 89.0347 78.4883Z" fill="#057093"/>
<path id="Vector_8" d="M70.4286 78.4883H40.196C39.5541 78.4883 39.0332 77.9674 39.0332 77.3255V74.9999C39.0332 74.3581 39.5541 73.8372 40.196 73.8372H70.4286C71.0704 73.8372 71.5914 74.3581 71.5914 74.9999V77.3255C71.5914 77.9674 71.0704 78.4883 70.4286 78.4883Z" fill="#057093"/>
<path id="Vector_9" d="M89.0347 87.7907H84.3835C83.7416 87.7907 83.2207 87.2698 83.2207 86.6279V84.3023C83.2207 83.6605 83.7416 83.1395 84.3835 83.1395H89.0347C89.6765 83.1395 90.1974 83.6605 90.1974 84.3023V86.6279C90.1974 87.2698 89.6765 87.7907 89.0347 87.7907Z" fill="#057093"/>
<path id="Vector_10" d="M63.4518 87.7907H40.196C39.5541 87.7907 39.0332 87.2698 39.0332 86.6279V84.3023C39.0332 83.6605 39.5541 83.1395 40.196 83.1395H63.4518C64.0937 83.1395 64.6146 83.6605 64.6146 84.3023V86.6279C64.6146 87.2698 64.0937 87.7907 63.4518 87.7907Z" fill="#057093"/>
<path id="Vector_11" d="M89.0374 101.744H79.7351C79.0932 101.744 78.5723 101.223 78.5723 100.582V98.2559C78.5723 97.6141 79.0932 97.0931 79.7351 97.0931H89.0374C89.6792 97.0931 90.2002 97.6141 90.2002 98.2559V100.582C90.2002 101.223 89.6792 101.744 89.0374 101.744Z" fill="#057093"/>
<path id="Vector_12" d="M70.4231 101.744H49.4929C48.851 101.744 48.3301 101.223 48.3301 100.582V98.2559C48.3301 97.6141 48.851 97.0931 49.4929 97.0931H70.4231C71.065 97.0931 71.5859 97.6141 71.5859 98.2559V100.582C71.5859 101.223 71.065 101.744 70.4231 101.744Z" fill="#057093"/>
<path id="Vector_13" d="M97.1746 73.8372C81.7862 73.8372 69.2676 86.3558 69.2676 101.744C69.2676 105.898 70.2048 109.828 71.8373 113.372H94.849C97.4187 113.372 99.5001 111.291 99.5001 108.721V73.9558C98.7304 73.8906 97.9606 73.8372 97.1746 73.8372Z" fill="url(#paint1_radial_14_10927)"/>
<path id="Vector_14" d="M97.1718 125C110.016 125 120.428 114.588 120.428 101.744C120.428 88.9004 110.016 78.4884 97.1718 78.4884C84.328 78.4884 73.916 88.9004 73.916 101.744C73.916 114.588 84.328 125 97.1718 125Z" fill="url(#paint2_linear_14_10927)"/>
<path id="Vector_15" opacity="0.05" d="M96.5973 120.353C94.995 120.353 93.6904 119.049 93.6904 117.447V116.526C92.0066 116.226 90.3206 115.742 88.9392 115.156C87.5834 114.574 86.7113 113.258 86.7113 111.8V109.03C86.7113 107.333 88.0904 105.949 89.7857 105.949C90.2648 105.949 90.7462 106.065 91.1764 106.284C91.8764 106.642 94.3625 107.802 97.1787 107.802C98.3927 107.802 98.6764 107.54 98.6787 107.535C98.4508 107.072 96.4322 106.323 95.4625 105.965C91.8183 104.616 86.3066 102.577 86.3066 95.9302C86.3066 91.3581 89.0462 88.0139 93.688 86.8256V86.0465C93.688 84.4442 94.9927 83.1395 96.595 83.1395H97.7578C99.3601 83.1395 100.665 84.4442 100.665 86.0465V86.5628C102.044 86.7209 103.207 86.9907 104.2 87.3767C104.737 87.5884 106.481 88.4721 106.481 91.0372V93.4721C106.481 95.1674 105.1 96.5465 103.402 96.5465C102.944 96.5465 102.497 96.4465 102.079 96.2488C101.19 95.8326 99.3694 95.1326 97.1787 95.1326C96.6276 95.1326 95.695 95.2163 95.695 95.5233C95.695 96.0814 97.9648 96.9628 99.1834 97.4349C102.718 98.8093 108.051 100.881 108.051 107.202C108.051 110.723 106.095 115.128 100.669 116.463V117.444C100.669 119.047 99.3648 120.351 97.7625 120.351L96.5973 120.353Z" fill="black"/>
<path id="Vector_16" opacity="0.05" d="M96.5963 119.191C95.6358 119.191 94.8521 118.409 94.8521 117.446V115.53C92.9591 115.277 90.98 114.758 89.3916 114.084C88.4684 113.688 87.873 112.791 87.873 111.8V109.03C87.873 107.972 88.7312 107.112 89.7847 107.112C90.0823 107.112 90.3823 107.184 90.6475 107.319C91.4033 107.707 94.0963 108.965 97.1777 108.965C99.8242 108.965 99.8242 107.867 99.8242 107.453C99.8242 106.416 98.3288 105.788 95.8661 104.874C92.3242 103.563 87.4707 101.765 87.4707 95.9278C87.4707 90.8767 91.1102 88.4441 94.8521 87.7581V86.0464C94.8521 85.0836 95.6358 84.3022 96.5963 84.3022H97.7591C98.7195 84.3022 99.5033 85.0836 99.5033 86.0464V87.6232C101.247 87.7464 102.652 88.0232 103.778 88.4604C104.243 88.6441 105.32 89.2557 105.32 91.0371V93.472C105.32 94.5255 104.459 95.3836 103.403 95.3836C103.115 95.3836 102.838 95.3208 102.575 95.1953C101.599 94.7371 99.5986 93.9697 97.18 93.9697C95.4242 93.9697 94.5335 94.4929 94.5335 95.5232C94.5335 96.786 96.1335 97.4976 98.7637 98.5208C102.192 99.8534 106.887 101.677 106.887 107.205C106.887 110.563 104.929 114.616 99.5056 115.519V117.449C99.5056 118.412 98.7219 119.193 97.7614 119.193H96.5963V119.191Z" fill="black"/>
<path id="Vector_17" d="M105.723 107.202C105.723 98.8325 93.3673 100.467 93.3673 95.5232C93.3673 92.9418 96.2697 92.8046 97.1766 92.8046C99.358 92.8046 101.463 93.3907 103.067 94.1418C103.574 94.3814 104.156 94.0302 104.156 93.4721V91.0372C104.156 90.2209 103.849 89.7372 103.358 89.5442C102.258 89.1163 100.679 88.8023 98.3417 88.7256V86.0465C98.3417 85.7256 98.0813 85.4651 97.7603 85.4651H96.5976C96.2766 85.4651 96.0162 85.7256 96.0162 86.0465V88.7697C92.3906 89.1232 88.6348 91.1697 88.6348 95.9279C88.6348 104.605 100.991 102.881 100.991 107.451C100.991 108.888 100.072 110.126 97.1813 110.126C94.2743 110.126 91.6022 109.112 90.1255 108.353C89.6278 108.1 89.0417 108.467 89.0417 109.026V111.798C89.0417 112.328 89.3627 112.802 89.8534 113.012C91.6045 113.756 93.9534 114.319 96.0208 114.484V117.444C96.0208 117.765 96.2813 118.026 96.6022 118.026H97.765C98.0859 118.026 98.3464 117.765 98.3464 117.444V114.488C103.765 114.037 105.723 110.407 105.723 107.202Z" fill="white"/>
</g>
<rect x="2.58203" y="2.5" width="145" height="145" rx="7.5" stroke="#D5EAF6" stroke-width="5"/>
</g>
<defs>
<linearGradient id="paint0_linear_14_10927" x1="75.082" y1="5" x2="75.082" y2="145" gradientUnits="userSpaceOnUse">
<stop stop-color="#199AE0"/>
<stop offset="0.472222" stop-color="#0D5176" stop-opacity="0.527778"/>
<stop offset="0.940972" stop-color="#12A6F7" stop-opacity="0.465278"/>
<stop offset="1" stop-opacity="0"/>
</linearGradient>
<radialGradient id="paint1_radial_14_10927" cx="0" cy="0" r="1" gradientUnits="userSpaceOnUse" gradientTransform="translate(96.456 101.521) scale(27.8535)">
<stop/>
<stop offset="0.979" stop-opacity="0"/>
</radialGradient>
<linearGradient id="paint2_linear_14_10927" x1="73.916" y1="101.744" x2="120.428" y2="101.744" gradientUnits="userSpaceOnUse">
<stop stop-color="#21AD64"/>
<stop offset="1" stop-color="#088242"/>
</linearGradient>
</defs>
</svg>
