<svg width="151" height="150" viewBox="0 0 151 150" fill="none" xmlns="http://www.w3.org/2000/svg">
<g id="repeat">
<rect x="2.58203" y="2.5" width="145" height="145" rx="7.5" fill="white"/>
<rect x="2.58203" y="2.5" width="145" height="145" rx="7.5" fill="url(#paint0_linear_14_10979)" fill-opacity="0.2"/>
<g id="Group">
<path id="Vector" d="M48.8897 98.8102V79.8548C48.8897 78.7191 48.4825 77.6191 47.7444 76.7547L38.7941 66.3116C37.3536 64.633 34.6035 65.652 34.6035 67.8616V98.8102H48.8897Z" fill="#0368BA"/>
<path id="Vector_2" d="M101.275 51.1897V70.145C101.275 71.2808 101.683 72.3808 102.421 73.2451L111.371 83.6883C112.811 85.3669 115.562 84.3478 115.562 82.1382V51.1897H101.275Z" fill="#0368BA"/>
<path id="Vector_3" d="M94.1291 88.8337V98.8102H34.6035L46.0991 110.306C47.8849 112.092 50.3087 113.096 52.8326 113.096H94.1291V123.073C94.1291 124.787 96.2006 125.644 97.4125 124.432L113.368 108.477C114.763 107.082 114.763 104.82 113.368 103.427L97.4125 87.4718C96.2006 86.2599 94.1291 87.1194 94.1291 88.8337Z" fill="#0884DB"/>
<path id="Vector_4" d="M56.0293 61.1663V51.1898H115.555L104.059 39.6942C102.271 37.9061 99.8496 36.9037 97.3234 36.9037H56.0293V26.9272C56.0293 25.2128 53.9578 24.3557 52.7458 25.5676L36.7906 41.5205C35.3953 42.9157 35.3953 45.1777 36.7906 46.5706L52.7458 62.5258C53.9578 63.7402 56.0293 62.8806 56.0293 61.1663Z" fill="#0884DB"/>
</g>
<rect x="2.58203" y="2.5" width="145" height="145" rx="7.5" stroke="#D5EAF6" stroke-width="5"/>
</g>
<defs>
<linearGradient id="paint0_linear_14_10979" x1="75.082" y1="5" x2="75.082" y2="145" gradientUnits="userSpaceOnUse">
<stop stop-color="#199AE0"/>
<stop offset="0.472222" stop-color="#0D5176" stop-opacity="0.527778"/>
<stop offset="0.940972" stop-color="#12A6F7" stop-opacity="0.465278"/>
<stop offset="1" stop-opacity="0"/>
</linearGradient>
</defs>
</svg>
