<svg width="151" height="150" viewBox="0 0 151 150" fill="none" xmlns="http://www.w3.org/2000/svg">
<g id="report-file">
<rect x="2.58203" y="2.5" width="145" height="145" rx="7.5" fill="white"/>
<rect x="2.58203" y="2.5" width="145" height="145" rx="7.5" fill="url(#paint0_linear_14_10985)" fill-opacity="0.2"/>
<g id="Group">
<path id="Vector" d="M100.694 51.8292V112.805C100.694 115.5 98.5112 117.683 95.8161 117.683H32.4015C29.7064 117.683 27.5234 115.5 27.5234 112.805V29.878C27.5234 27.1829 29.7064 25 32.4015 25H73.8649L100.694 51.8292Z" fill="#50E6FF"/>
<path id="Vector_2" d="M73.8516 25V46.9512C73.8516 49.6463 76.0345 51.8292 78.7296 51.8292H100.681L73.8516 25Z" fill="url(#paint1_linear_14_10985)"/>
<path id="Vector_3" d="M84.847 64.0244H43.3836C42.7104 64.0244 42.1641 63.478 42.1641 62.8049V60.3658C42.1641 59.6927 42.7104 59.1463 43.3836 59.1463H84.847C85.5201 59.1463 86.0665 59.6927 86.0665 60.3658V62.8049C86.0665 63.478 85.5201 64.0244 84.847 64.0244Z" fill="#057093"/>
<path id="Vector_4" d="M79.9689 73.7804H43.3836C42.7104 73.7804 42.1641 73.234 42.1641 72.5608V70.1218C42.1641 69.4487 42.7104 68.9023 43.3836 68.9023H79.9689C80.6421 68.9023 81.1884 69.4487 81.1884 70.1218V72.5608C81.1884 73.234 80.6421 73.7804 79.9689 73.7804Z" fill="#057093"/>
<path id="Vector_5" d="M84.847 83.5366H43.3836C42.7104 83.5366 42.1641 82.9902 42.1641 82.3171V79.8781C42.1641 79.2049 42.7104 78.6585 43.3836 78.6585H84.847C85.5201 78.6585 86.0665 79.2049 86.0665 79.8781V82.3171C86.0665 82.9902 85.5201 83.5366 84.847 83.5366Z" fill="#057093"/>
<path id="Vector_6" d="M79.9689 93.2926H43.3836C42.7104 93.2926 42.1641 92.7462 42.1641 92.0731V89.634C42.1641 88.9609 42.7104 88.4145 43.3836 88.4145H79.9689C80.6421 88.4145 81.1884 88.9609 81.1884 89.634V92.0731C81.1884 92.7462 80.6421 93.2926 79.9689 93.2926Z" fill="#057093"/>
<path id="Vector_7" d="M86.0452 125H78.7281C77.3817 125 76.2891 123.907 76.2891 122.561V107.927C76.2891 106.58 77.3817 105.488 78.7281 105.488H86.0452C87.3915 105.488 88.4842 106.58 88.4842 107.927V122.561C88.4842 123.907 87.3915 125 86.0452 125Z" fill="url(#paint2_linear_14_10985)"/>
<path id="Vector_8" d="M103.131 125H95.814C94.4677 125 93.375 123.907 93.375 122.561V93.2926C93.375 91.9463 94.4677 90.8536 95.814 90.8536H103.131C104.477 90.8536 105.57 91.9463 105.57 93.2926V122.561C105.57 123.907 104.477 125 103.131 125Z" fill="url(#paint3_linear_14_10985)"/>
<path id="Vector_9" d="M120.201 125H112.884C111.538 125 110.445 123.907 110.445 122.561V100.61C110.445 99.2634 111.538 98.1707 112.884 98.1707H120.201C121.548 98.1707 122.64 99.2634 122.64 100.61V122.561C122.64 123.907 121.548 125 120.201 125Z" fill="url(#paint4_linear_14_10985)"/>
</g>
<rect x="2.58203" y="2.5" width="145" height="145" rx="7.5" stroke="#D5EAF6" stroke-width="5"/>
</g>
<defs>
<linearGradient id="paint0_linear_14_10985" x1="75.082" y1="5" x2="75.082" y2="145" gradientUnits="userSpaceOnUse">
<stop stop-color="#199AE0"/>
<stop offset="0.472222" stop-color="#0D5176" stop-opacity="0.527778"/>
<stop offset="0.940972" stop-color="#12A6F7" stop-opacity="0.465278"/>
<stop offset="1" stop-opacity="0"/>
</linearGradient>
<linearGradient id="paint1_linear_14_10985" x1="75.1418" y1="50.539" x2="87.5101" y2="38.1707" gradientUnits="userSpaceOnUse">
<stop stop-color="#3079D6"/>
<stop offset="1" stop-color="#297CD2"/>
</linearGradient>
<linearGradient id="paint2_linear_14_10985" x1="76.2891" y1="115.244" x2="88.4842" y2="115.244" gradientUnits="userSpaceOnUse">
<stop stop-color="#3079D6"/>
<stop offset="1" stop-color="#297CD2"/>
</linearGradient>
<linearGradient id="paint3_linear_14_10985" x1="93.375" y1="107.927" x2="105.57" y2="107.927" gradientUnits="userSpaceOnUse">
<stop stop-color="#3079D6"/>
<stop offset="1" stop-color="#297CD2"/>
</linearGradient>
<linearGradient id="paint4_linear_14_10985" x1="110.445" y1="111.585" x2="122.64" y2="111.585" gradientUnits="userSpaceOnUse">
<stop stop-color="#3079D6"/>
<stop offset="1" stop-color="#297CD2"/>
</linearGradient>
</defs>
</svg>
