<svg width="151" height="150" viewBox="0 0 151 150" fill="none" xmlns="http://www.w3.org/2000/svg">
<g id="resume">
<rect x="2.58203" y="2.5" width="145" height="145" rx="7.5" fill="white"/>
<rect x="2.58203" y="2.5" width="145" height="145" rx="7.5" fill="url(#paint0_linear_14_11016)" fill-opacity="0.2"/>
<g id="Group">
<path id="Vector" d="M114.555 30.2632V119.737C114.555 122.645 112.2 125 109.292 125H40.8706C37.9627 125 35.6074 122.645 35.6074 119.737V30.2632C35.6074 27.3553 37.9627 25 40.8706 25H109.292C112.2 25 114.555 27.3553 114.555 30.2632Z" fill="#50E6FF"/>
<path id="Vector_2" d="M56.6596 51.3159C59.5664 51.3159 61.9228 48.9595 61.9228 46.0527C61.9228 43.1459 59.5664 40.7896 56.6596 40.7896C53.7529 40.7896 51.3965 43.1459 51.3965 46.0527C51.3965 48.9595 53.7529 51.3159 56.6596 51.3159Z" fill="#057093"/>
<path id="Vector_3" d="M56.6584 53.9475C52.2979 53.9475 48.7637 57.4817 48.7637 61.8422V65.5265C48.7637 66.3975 49.4716 67.1054 50.3426 67.1054H62.9742C63.8452 67.1054 64.5531 66.3975 64.5531 65.5265V61.8422C64.5531 57.4817 61.0189 53.9475 56.6584 53.9475Z" fill="#057093"/>
<path id="Vector_4" d="M88.2374 85.5264H51.3953C49.9426 85.5264 48.7637 86.7053 48.7637 88.1579C48.7637 89.6106 49.9426 90.7895 51.3953 90.7895H88.2374C89.69 90.7895 90.8689 89.6106 90.8689 88.1579C90.8689 86.7053 89.69 85.5264 88.2374 85.5264Z" fill="#057093"/>
<path id="Vector_5" d="M98.7637 75H51.3953C49.9426 75 48.7637 76.1789 48.7637 77.6316C48.7637 79.0842 49.9426 80.2632 51.3953 80.2632H98.7637C100.216 80.2632 101.395 79.0842 101.395 77.6316C101.395 76.1789 100.216 75 98.7637 75Z" fill="#057093"/>
<path id="Vector_6" d="M88.2374 106.579H51.3953C49.9426 106.579 48.7637 107.758 48.7637 109.211C48.7637 110.663 49.9426 111.842 51.3953 111.842H88.2374C89.69 111.842 90.8689 110.663 90.8689 109.211C90.8689 107.758 89.69 106.579 88.2374 106.579Z" fill="#057093"/>
<path id="Vector_7" d="M98.7637 96.0525H51.3953C49.9426 96.0525 48.7637 97.2314 48.7637 98.6841C48.7637 100.137 49.9426 101.316 51.3953 101.316H98.7637C100.216 101.316 101.395 100.137 101.395 98.6841C101.395 97.2314 100.216 96.0525 98.7637 96.0525Z" fill="#057093"/>
<path id="Vector_8" d="M98.7682 53.9475H77.7156C76.2629 53.9475 75.084 55.1265 75.084 56.5791C75.084 58.0317 76.2629 59.2107 77.7156 59.2107H98.7682C100.221 59.2107 101.4 58.0317 101.4 56.5791C101.4 55.1265 100.221 53.9475 98.7682 53.9475Z" fill="#057093"/>
<path id="Vector_9" d="M98.7682 43.421H77.7156C76.2629 43.421 75.084 44.6 75.084 46.0526C75.084 47.5052 76.2629 48.6842 77.7156 48.6842H98.7682C100.221 48.6842 101.4 47.5052 101.4 46.0526C101.4 44.6 100.221 43.421 98.7682 43.421Z" fill="#057093"/>
</g>
<rect x="2.58203" y="2.5" width="145" height="145" rx="7.5" stroke="#D5EAF6" stroke-width="5"/>
</g>
<defs>
<linearGradient id="paint0_linear_14_11016" x1="75.082" y1="5" x2="75.082" y2="145" gradientUnits="userSpaceOnUse">
<stop stop-color="#199AE0"/>
<stop offset="0.472222" stop-color="#0D5176" stop-opacity="0.527778"/>
<stop offset="0.940972" stop-color="#12A6F7" stop-opacity="0.465278"/>
<stop offset="1" stop-opacity="0"/>
</linearGradient>
</defs>
</svg>
