<svg width="151" height="150" viewBox="0 0 151 150" fill="none" xmlns="http://www.w3.org/2000/svg">
<g id="resume-website">
<rect x="2.58203" y="2.5" width="145" height="145" rx="7.5" fill="white"/>
<rect x="2.58203" y="2.5" width="145" height="145" rx="7.5" fill="url(#paint0_linear_14_11027)" fill-opacity="0.2"/>
<g id="Group">
<path id="Vector" d="M25.082 110V52.5H125.082V110C125.082 112.75 122.832 115 120.082 115H30.082C27.332 115 25.082 112.75 25.082 110Z" fill="#50E6FF"/>
<path id="Vector_2" d="M125.082 40V52.5H25.082V40C25.082 37.25 27.332 35 30.082 35H120.082C122.832 35 125.082 37.25 125.082 40Z" fill="url(#paint1_linear_14_11027)"/>
<path id="Vector_3" d="M56.332 47.5001H118.832C119.522 47.5001 120.082 46.9401 120.082 46.2501V41.2501C120.082 40.5601 119.522 40.0001 118.832 40.0001H56.332C55.642 40.0001 55.082 40.5601 55.082 41.2501V46.2501C55.082 46.9401 55.642 47.5001 56.332 47.5001Z" fill="url(#paint2_linear_14_11027)"/>
<path id="Vector_4" d="M33.832 47.5001C35.9031 47.5001 37.582 45.8212 37.582 43.7501C37.582 41.6791 35.9031 40.0001 33.832 40.0001C31.761 40.0001 30.082 41.6791 30.082 43.7501C30.082 45.8212 31.761 47.5001 33.832 47.5001Z" fill="url(#paint3_linear_14_11027)"/>
<path id="Vector_5" d="M46.3242 47.5001C48.3953 47.5001 50.0742 45.8212 50.0742 43.7501C50.0742 41.6791 48.3953 40.0001 46.3242 40.0001C44.2532 40.0001 42.5742 41.6791 42.5742 43.7501C42.5742 45.8212 44.2532 47.5001 46.3242 47.5001Z" fill="url(#paint4_linear_14_11027)"/>
<path id="Vector_6" d="M52.582 80.0001C55.3435 80.0001 57.582 77.7615 57.582 75.0001C57.582 72.2387 55.3435 70.0001 52.582 70.0001C49.8206 70.0001 47.582 72.2387 47.582 75.0001C47.582 77.7615 49.8206 80.0001 52.582 80.0001Z" fill="#057093"/>
<path id="Vector_7" d="M52.582 82.5001C48.4395 82.5001 45.082 85.8576 45.082 90.0001V96.0001C45.082 96.8276 45.7545 97.5001 46.582 97.5001H58.582C59.4095 97.5001 60.082 96.8276 60.082 96.0001V90.0001C60.082 85.8576 56.7245 82.5001 52.582 82.5001Z" fill="#057093"/>
<path id="Vector_8" d="M102.582 82.5001H72.582C71.202 82.5001 70.082 83.6201 70.082 85.0001C70.082 86.3801 71.202 87.5001 72.582 87.5001H102.582C103.962 87.5001 105.082 86.3801 105.082 85.0001C105.082 83.6201 103.962 82.5001 102.582 82.5001Z" fill="#057093"/>
<path id="Vector_9" d="M92.582 92.5H72.582C71.202 92.5 70.082 93.62 70.082 95C70.082 96.38 71.202 97.5 72.582 97.5H92.582C93.962 97.5 95.082 96.38 95.082 95C95.082 93.62 93.962 92.5 92.582 92.5Z" fill="#057093"/>
<path id="Vector_10" d="M102.582 72.5H72.582C71.202 72.5 70.082 73.62 70.082 75C70.082 76.38 71.202 77.5 72.582 77.5H102.582C103.962 77.5 105.082 76.38 105.082 75C105.082 73.62 103.962 72.5 102.582 72.5Z" fill="#057093"/>
</g>
<rect x="2.58203" y="2.5" width="145" height="145" rx="7.5" stroke="#D5EAF6" stroke-width="5"/>
</g>
<defs>
<linearGradient id="paint0_linear_14_11027" x1="75.082" y1="5" x2="75.082" y2="145" gradientUnits="userSpaceOnUse">
<stop stop-color="#199AE0"/>
<stop offset="0.472222" stop-color="#0D5176" stop-opacity="0.527778"/>
<stop offset="0.940972" stop-color="#12A6F7" stop-opacity="0.465278"/>
<stop offset="1" stop-opacity="0"/>
</linearGradient>
<linearGradient id="paint1_linear_14_11027" x1="26.617" y1="34.3525" x2="122.422" y2="53.8325" gradientUnits="userSpaceOnUse">
<stop stop-color="#0077D2"/>
<stop offset="1" stop-color="#0B59A2"/>
</linearGradient>
<linearGradient id="paint2_linear_14_11027" x1="55.082" y1="43.7501" x2="120.082" y2="43.7501" gradientUnits="userSpaceOnUse">
<stop stop-color="#7DD8F3"/>
<stop offset="1" stop-color="#45B0D0"/>
</linearGradient>
<linearGradient id="paint3_linear_14_11027" x1="31.9595" y1="41.0401" x2="35.162" y2="45.6726" gradientUnits="userSpaceOnUse">
<stop stop-color="#75DAFF"/>
<stop offset="1" stop-color="#49BEF1"/>
</linearGradient>
<linearGradient id="paint4_linear_14_11027" x1="44.4517" y1="41.0401" x2="47.6542" y2="45.6726" gradientUnits="userSpaceOnUse">
<stop stop-color="#75DAFF"/>
<stop offset="1" stop-color="#49BEF1"/>
</linearGradient>
</defs>
</svg>
