<svg width="151" height="150" viewBox="0 0 151 150" fill="none" xmlns="http://www.w3.org/2000/svg">
<g id="rgb-color-wheel">
<rect x="2.58203" y="2.5" width="145" height="145" rx="7.5" fill="white"/>
<rect x="2.58203" y="2.5" width="145" height="145" rx="7.5" fill="url(#paint0_linear_14_11039)" fill-opacity="0.2"/>
<g id="Group">
<path id="Vector" d="M75.0742 25L72.5742 27.5V75H78.6092L110.424 43.185V39.65C101.374 30.6 88.8742 25 75.0742 25Z" fill="url(#paint1_linear_14_11039)"/>
<path id="Vector_2" d="M110.437 39.645L75.082 75L77.582 77.5H122.575L125.075 75C125.075 62.2025 120.195 49.4025 110.437 39.645Z" fill="url(#paint2_linear_14_11039)"/>
<path id="Vector_3" d="M125.082 75H75.082V78.535L106.897 110.35H110.432C119.482 101.3 125.082 88.8 125.082 75Z" fill="url(#paint3_linear_14_11039)"/>
<path id="Vector_4" d="M110.429 110.355L75.0742 75L72.5742 77.5V122.493L75.0742 124.993C87.8717 124.993 100.672 120.113 110.429 110.355Z" fill="url(#paint4_linear_14_11039)"/>
<path id="Vector_5" d="M75.0805 125V75H71.5455L39.7305 106.815V110.35C48.7805 119.4 61.2805 125 75.0805 125Z" fill="url(#paint5_linear_14_11039)"/>
<path id="Vector_6" d="M39.7273 110.355L75.0823 75L72.5823 72.5H27.5898L25.0898 75C25.0898 87.7975 29.9698 100.597 39.7273 110.355Z" fill="url(#paint6_linear_14_11039)"/>
<path id="Vector_7" d="M25.082 74.9999H75.082V71.4649L43.267 39.6499H39.732C30.682 48.6999 25.082 61.1999 25.082 74.9999Z" fill="url(#paint7_linear_14_11039)"/>
<path id="Vector_8" d="M39.7227 39.6449L75.0777 74.9999V25.0074C62.2802 25.0074 49.4802 29.8874 39.7227 39.6449Z" fill="url(#paint8_linear_14_11039)"/>
</g>
<rect x="2.58203" y="2.5" width="145" height="145" rx="7.5" stroke="#D5EAF6" stroke-width="5"/>
</g>
<defs>
<linearGradient id="paint0_linear_14_11039" x1="75.082" y1="5" x2="75.082" y2="145" gradientUnits="userSpaceOnUse">
<stop stop-color="#199AE0"/>
<stop offset="0.472222" stop-color="#0D5176" stop-opacity="0.527778"/>
<stop offset="0.940972" stop-color="#12A6F7" stop-opacity="0.465278"/>
<stop offset="1" stop-opacity="0"/>
</linearGradient>
<linearGradient id="paint1_linear_14_11039" x1="56.9692" y1="22.795" x2="92.2817" y2="58.105" gradientUnits="userSpaceOnUse">
<stop stop-color="#F44F5A"/>
<stop offset="0.443" stop-color="#EE3D4A"/>
<stop offset="1" stop-color="#E52030"/>
</linearGradient>
<linearGradient id="paint2_linear_14_11039" x1="100.085" y1="15.2685" x2="100.081" y2="134.414" gradientUnits="userSpaceOnUse">
<stop stop-color="#FED100"/>
<stop offset="1" stop-color="#E36001"/>
</linearGradient>
<linearGradient id="paint3_linear_14_11039" x1="117.757" y1="67.675" x2="90.9895" y2="94.4425" gradientUnits="userSpaceOnUse">
<stop stop-color="#FFD747"/>
<stop offset="0.482" stop-color="#FFD645"/>
<stop offset="1" stop-color="#F5BC00"/>
</linearGradient>
<linearGradient id="paint4_linear_14_11039" x1="110.427" y1="99.9965" x2="72.5721" y2="99.9972" gradientUnits="userSpaceOnUse">
<stop stop-color="#33C481"/>
<stop offset="1" stop-color="#21A366"/>
</linearGradient>
<linearGradient id="paint5_linear_14_11039" x1="82.4055" y1="117.675" x2="55.638" y2="90.9075" gradientUnits="userSpaceOnUse">
<stop stop-color="#28AFEA"/>
<stop offset="1" stop-color="#0B88DA"/>
</linearGradient>
<linearGradient id="paint6_linear_14_11039" x1="50.0884" y1="115.772" x2="50.089" y2="77.9173" gradientUnits="userSpaceOnUse">
<stop offset="0.002" stop-color="#427FDB"/>
<stop offset="0.397" stop-color="#2668CB"/>
<stop offset="0.763" stop-color="#1358BF"/>
<stop offset="1" stop-color="#0C52BB"/>
</linearGradient>
<linearGradient id="paint7_linear_14_11039" x1="32.407" y1="82.3249" x2="59.1745" y2="55.5574" gradientUnits="userSpaceOnUse">
<stop stop-color="#A235D4"/>
<stop offset="0.441" stop-color="#A033D1"/>
<stop offset="0.702" stop-color="#982CC9"/>
<stop offset="0.915" stop-color="#8B21BB"/>
<stop offset="1" stop-color="#831BB3"/>
</linearGradient>
<linearGradient id="paint8_linear_14_11039" x1="39.7182" y1="50.0035" x2="136.396" y2="50" gradientUnits="userSpaceOnUse">
<stop stop-color="#E83C67"/>
<stop offset="0.423" stop-color="#C5214A"/>
<stop offset="0.773" stop-color="#B01038"/>
<stop offset="1" stop-color="#A80A31"/>
</linearGradient>
</defs>
</svg>
