<svg width="151" height="150" viewBox="0 0 151 150" fill="none" xmlns="http://www.w3.org/2000/svg">
<g id="rocket">
<rect x="2.58203" y="2.5" width="145" height="145" rx="7.5" fill="white"/>
<rect x="2.58203" y="2.5" width="145" height="145" rx="7.5" fill="url(#paint0_linear_14_11049)" fill-opacity="0.2"/>
<g id="Group">
<path id="Vector" d="M41.4792 119.746C38.4006 122.825 25.0801 125 25.0801 125C25.0801 125 27.2551 111.679 30.3337 108.601C33.4123 105.522 38.4006 105.522 41.4792 108.601C44.5578 111.679 44.5578 116.67 41.4792 119.746Z" fill="url(#paint1_linear_14_11049)"/>
<path id="Vector_2" d="M38.8565 116.802C37.3198 118.341 30.6582 119.428 30.6582 119.428C30.6582 119.428 31.7457 112.767 33.285 111.23C34.8243 109.691 37.3198 109.691 38.8565 111.23C40.3958 112.767 40.3958 115.262 38.8565 116.802Z" fill="url(#paint2_linear_14_11049)"/>
<path id="Vector_3" d="M43.9614 113.405L36.6772 106.121C35.7526 105.196 35.6501 103.733 36.4329 102.688L42.9474 94.0034L56.0814 107.137L47.3972 113.652C46.3491 114.435 44.886 114.33 43.9614 113.405Z" fill="#199BE2"/>
<path id="Vector_4" d="M121.927 25.0079C116.274 25.4098 104.758 26.936 98.9504 32.7439L96.7754 34.9189L115.163 53.3065L117.338 51.1315C123.146 45.3237 124.672 33.8077 125.074 28.1549C125.203 26.3555 123.726 24.8792 121.927 25.0079Z" fill="#50E6FF"/>
<path id="Vector_5" d="M98.9552 32.7418L41.166 90.5331L59.553 108.919L117.342 51.1282L98.9552 32.7418Z" fill="#35C1F1"/>
<path id="Vector_6" d="M41.1672 90.5334L40.0797 91.6209C38.0281 93.6724 38.0281 96.998 40.0797 99.0495L51.0387 110.009C53.0902 112.06 56.4158 112.06 58.4673 110.009L59.5548 108.921L41.1672 90.5334Z" fill="#50E6FF"/>
<path id="Vector_7" d="M92.3833 66.8923C97.4609 66.8923 101.577 62.7761 101.577 57.6985C101.577 52.6208 97.4609 48.5046 92.3833 48.5046C87.3057 48.5046 83.1895 52.6208 83.1895 57.6985C83.1895 62.7761 87.3057 66.8923 92.3833 66.8923Z" fill="#50E6FF"/>
<path id="Vector_8" d="M92.3893 64.2654C96.0161 64.2654 98.9563 61.3252 98.9563 57.6984C98.9563 54.0715 96.0161 51.1314 92.3893 51.1314C88.7624 51.1314 85.8223 54.0715 85.8223 57.6984C85.8223 61.3252 88.7624 64.2654 92.3893 64.2654Z" fill="#0078D4"/>
<path id="Vector_9" d="M74.0005 85.2799C79.0781 85.2799 83.1943 81.1637 83.1943 76.0861C83.1943 71.0085 79.0781 66.8923 74.0005 66.8923C68.9229 66.8923 64.8066 71.0085 64.8066 76.0861C64.8066 81.1637 68.9229 85.2799 74.0005 85.2799Z" fill="#50E6FF"/>
<path id="Vector_10" d="M74.0065 82.6532C77.6333 82.6532 80.5735 79.713 80.5735 76.0862C80.5735 72.4593 77.6333 69.5192 74.0065 69.5192C70.3796 69.5192 67.4395 72.4593 67.4395 76.0862C67.4395 79.713 70.3796 82.6532 74.0065 82.6532Z" fill="#0078D4"/>
<path id="Vector_11" d="M75.3175 93.1604V110.91C75.3175 113.001 74.4874 115.005 73.0085 116.481L64.8102 124.682L59.5566 108.921L75.3175 93.1604Z" fill="#199BE2"/>
<path id="Vector_12" d="M56.922 74.7728H39.1727C37.0818 74.7728 35.0775 75.6028 33.6013 77.0817L25.4004 85.28L41.1612 90.5336L56.922 74.7728Z" fill="#199BE2"/>
</g>
<rect x="2.58203" y="2.5" width="145" height="145" rx="7.5" stroke="#D5EAF6" stroke-width="5"/>
</g>
<defs>
<linearGradient id="paint0_linear_14_11049" x1="75.082" y1="5" x2="75.082" y2="145" gradientUnits="userSpaceOnUse">
<stop stop-color="#199AE0"/>
<stop offset="0.472222" stop-color="#0D5176" stop-opacity="0.527778"/>
<stop offset="0.940972" stop-color="#12A6F7" stop-opacity="0.465278"/>
<stop offset="1" stop-opacity="0"/>
</linearGradient>
<linearGradient id="paint1_linear_14_11049" x1="37.1635" y1="106.975" x2="32.9505" y2="126.79" gradientUnits="userSpaceOnUse">
<stop stop-color="#F44F5A"/>
<stop offset="0.443" stop-color="#EE3D4A"/>
<stop offset="1" stop-color="#E52030"/>
</linearGradient>
<linearGradient id="paint2_linear_14_11049" x1="30.7712" y1="119.316" x2="38.0133" y2="112.073" gradientUnits="userSpaceOnUse">
<stop stop-color="#FFCF7B"/>
<stop offset="0.195" stop-color="#FECD76"/>
<stop offset="0.439" stop-color="#FAC666"/>
<stop offset="0.71" stop-color="#F3BC4D"/>
<stop offset="0.997" stop-color="#EAAD29"/>
<stop offset="1" stop-color="#EAAD29"/>
</linearGradient>
</defs>
</svg>
