<svg width="151" height="150" viewBox="0 0 151 150" fill="none" xmlns="http://www.w3.org/2000/svg">
<g id="rss">
<rect x="2.58203" y="2.5" width="145" height="145" rx="7.5" fill="white"/>
<rect x="2.58203" y="2.5" width="145" height="145" rx="7.5" fill="url(#paint0_linear_14_11073)" fill-opacity="0.2"/>
<g id="Group">
<path id="Vector" d="M108.415 25H41.7487C32.5431 25 25.082 32.4611 25.082 41.6667V108.333C25.082 117.539 32.5431 125 41.7487 125H108.415C117.621 125 125.082 117.539 125.082 108.333V41.6667C125.082 32.4611 117.621 25 108.415 25Z" fill="url(#paint1_linear_14_11073)"/>
<path id="Vector_2" opacity="0.05" d="M48.6914 113.889C55.595 113.889 61.1914 108.292 61.1914 101.389C61.1914 94.4854 55.595 88.8889 48.6914 88.8889C41.7878 88.8889 36.1914 94.4854 36.1914 101.389C36.1914 108.292 41.7878 113.889 48.6914 113.889Z" fill="black"/>
<path id="Vector_3" opacity="0.07" d="M48.6931 112.5C54.8296 112.5 59.8043 107.525 59.8043 101.389C59.8043 95.2523 54.8296 90.2777 48.6931 90.2777C42.5566 90.2777 37.582 95.2523 37.582 101.389C37.582 107.525 42.5566 112.5 48.6931 112.5Z" fill="black"/>
<path id="Vector_4" d="M58.4171 101.389C58.4171 96.1112 53.9727 91.6667 48.6949 91.6667C43.4171 91.6667 38.9727 96.1112 38.9727 101.389C38.9727 106.667 43.4171 111.111 48.6949 111.111C53.9727 111.111 58.4171 106.667 58.4171 101.389Z" fill="white"/>
<path id="Vector_5" opacity="0.05" d="M75.0803 113.889C72.0164 113.889 69.5247 111.397 69.5247 108.333C69.5247 93.0167 57.0636 80.5556 41.747 80.5556C38.6831 80.5556 36.1914 78.0639 36.1914 75V69.4445C36.1914 66.3806 38.6831 63.8889 41.747 63.8889C66.2525 63.8889 86.1914 83.8278 86.1914 108.333C86.1914 111.397 83.6997 113.889 80.6358 113.889H75.0803Z" fill="black"/>
<path id="Vector_6" opacity="0.07" d="M75.082 112.5C72.7848 112.5 70.9154 110.63 70.9154 108.333C70.9154 92.2499 57.832 79.1666 41.7487 79.1666C39.4515 79.1666 37.582 77.2972 37.582 74.9999V69.4444C37.582 67.1472 39.4515 65.2777 41.7487 65.2777C65.4904 65.2777 84.8043 84.5916 84.8043 108.333C84.8043 110.63 82.9348 112.5 80.6376 112.5H75.082Z" fill="black"/>
<path id="Vector_7" d="M80.6393 111.111H75.0838C73.5504 111.111 72.306 109.867 72.306 108.333C72.306 91.4584 58.6254 77.7779 41.7504 77.7779C40.2171 77.7779 38.9727 76.5334 38.9727 75.0001V69.4445C38.9727 67.9112 40.2171 66.6667 41.7504 66.6667C64.7615 66.6667 83.4171 85.3223 83.4171 108.333C83.4171 109.867 82.1727 111.111 80.6393 111.111Z" fill="white"/>
<path id="Vector_8" opacity="0.05" d="M102.858 113.889C99.7942 113.889 97.3025 111.397 97.3025 108.333C97.3025 77.7 72.3803 52.7778 41.747 52.7778C38.6831 52.7778 36.1914 50.2861 36.1914 47.2222V41.6666C36.1914 38.6028 38.6831 36.1111 41.747 36.1111C81.572 36.1111 113.969 68.5111 113.969 108.333C113.969 111.397 111.478 113.889 108.414 113.889H102.858Z" fill="black"/>
<path id="Vector_9" opacity="0.07" d="M102.86 112.5C100.563 112.5 98.6931 110.631 98.6931 108.333C98.6931 76.9333 73.1487 51.3889 41.7487 51.3889C39.4515 51.3889 37.582 49.5194 37.582 47.2222V41.6667C37.582 39.3694 39.4515 37.5 41.7487 37.5C80.807 37.5 112.582 69.275 112.582 108.333C112.582 110.631 110.713 112.5 108.415 112.5H102.86Z" fill="black"/>
<path id="Vector_10" d="M108.417 111.111H102.862C101.328 111.111 100.084 109.867 100.084 108.333C100.084 76.1167 73.9671 50 41.7504 50C40.2171 50 38.9727 48.7556 38.9727 47.2223V41.6667C38.9727 40.1334 40.2171 38.8889 41.7504 38.8889C80.1032 38.8889 111.195 69.9806 111.195 108.333C111.195 109.867 109.95 111.111 108.417 111.111Z" fill="white"/>
</g>
<rect x="2.58203" y="2.5" width="145" height="145" rx="7.5" stroke="#D5EAF6" stroke-width="5"/>
</g>
<defs>
<linearGradient id="paint0_linear_14_11073" x1="75.082" y1="5" x2="75.082" y2="145" gradientUnits="userSpaceOnUse">
<stop stop-color="#199AE0"/>
<stop offset="0.472222" stop-color="#0D5176" stop-opacity="0.527778"/>
<stop offset="0.940972" stop-color="#12A6F7" stop-opacity="0.465278"/>
<stop offset="1" stop-opacity="0"/>
</linearGradient>
<linearGradient id="paint1_linear_14_11073" x1="26.382" y1="26.3" x2="113.418" y2="113.336" gradientUnits="userSpaceOnUse">
<stop stop-color="#FFDA1C"/>
<stop offset="1" stop-color="#FEB705"/>
</linearGradient>
</defs>
</svg>
