<svg width="151" height="150" viewBox="0 0 151 150" fill="none" xmlns="http://www.w3.org/2000/svg">
<g id="rubik&#39;s-cube">
<rect x="2.58203" y="2.5" width="145" height="145" rx="7.5" fill="white"/>
<rect x="2.58203" y="2.5" width="145" height="145" rx="7.5" fill="url(#paint0_linear_14_11085)" fill-opacity="0.2"/>
<g id="Group">
<path id="Vector" d="M32.9858 122.368C30.0911 122.368 27.7227 120 27.7227 117.105V96.0527C27.7227 93.158 30.0911 90.7896 32.9858 90.7896H54.0384C56.9332 90.7896 59.3016 93.158 59.3016 96.0527V117.105C59.3016 120 56.9332 122.368 54.0384 122.368H32.9858Z" fill="url(#paint1_linear_14_11085)"/>
<path id="Vector_2" d="M64.5561 122.368C61.6614 122.368 59.293 120 59.293 117.105V96.0527C59.293 93.158 61.6614 90.7896 64.5561 90.7896H85.6088C88.5035 90.7896 90.8719 93.158 90.8719 96.0527V117.105C90.8719 120 88.5035 122.368 85.6088 122.368H64.5561Z" fill="url(#paint2_linear_14_11085)"/>
<path id="Vector_3" d="M96.1343 122.368C93.2395 122.368 90.8711 120 90.8711 117.105V96.0527C90.8711 93.158 93.2395 90.7896 96.1343 90.7896H117.187C120.082 90.7896 122.45 93.158 122.45 96.0527V117.105C122.45 120 120.082 122.368 117.187 122.368H96.1343Z" fill="url(#paint3_linear_14_11085)"/>
<path id="Vector_4" d="M32.9858 90.7894C30.0911 90.7894 27.7227 88.421 27.7227 85.5262V64.4736C27.7227 61.5789 30.0911 59.2104 32.9858 59.2104H54.0384C56.9332 59.2104 59.3016 61.5789 59.3016 64.4736V85.5262C59.3016 88.421 56.9332 90.7894 54.0384 90.7894H32.9858Z" fill="url(#paint4_linear_14_11085)"/>
<path id="Vector_5" d="M64.5561 90.7894C61.6614 90.7894 59.293 88.421 59.293 85.5262V64.4736C59.293 61.5789 61.6614 59.2104 64.5561 59.2104H85.6088C88.5035 59.2104 90.8719 61.5789 90.8719 64.4736V85.5262C90.8719 88.421 88.5035 90.7894 85.6088 90.7894H64.5561Z" fill="url(#paint5_linear_14_11085)"/>
<path id="Vector_6" d="M96.1343 90.7894C93.2395 90.7894 90.8711 88.421 90.8711 85.5262V64.4736C90.8711 61.5789 93.2395 59.2104 96.1343 59.2104H117.187C120.082 59.2104 122.45 61.5789 122.45 64.4736V85.5262C122.45 88.421 120.082 90.7894 117.187 90.7894H96.1343Z" fill="url(#paint6_linear_14_11085)"/>
<path id="Vector_7" d="M32.9858 59.2107C30.0911 59.2107 27.7227 56.8422 27.7227 53.9475V32.8949C27.7227 30.0001 30.0911 27.6317 32.9858 27.6317H54.0384C56.9332 27.6317 59.3016 30.0001 59.3016 32.8949V53.9475C59.3016 56.8422 56.9332 59.2107 54.0384 59.2107H32.9858Z" fill="url(#paint7_linear_14_11085)"/>
<path id="Vector_8" d="M64.5561 59.2107C61.6614 59.2107 59.293 56.8422 59.293 53.9475V32.8949C59.293 30.0001 61.6614 27.6317 64.5561 27.6317H85.6088C88.5035 27.6317 90.8719 30.0001 90.8719 32.8949V53.9475C90.8719 56.8422 88.5035 59.2107 85.6088 59.2107H64.5561Z" fill="url(#paint8_linear_14_11085)"/>
<path id="Vector_9" d="M96.1343 59.2107C93.2395 59.2107 90.8711 56.8422 90.8711 53.9475V32.8949C90.8711 30.0001 93.2395 27.6317 96.1343 27.6317H117.187C120.082 27.6317 122.45 30.0001 122.45 32.8949V53.9475C122.45 56.8422 120.082 59.2107 117.187 59.2107H96.1343Z" fill="url(#paint9_linear_14_11085)"/>
<path id="Vector_10" d="M125.082 32.8947C125.082 28.4211 121.661 25 117.187 25H96.1347C94.0715 25 92.2557 25.75 90.8715 26.9737C89.4873 25.75 87.6715 25 85.6083 25H64.5557C62.4926 25 60.6768 25.75 59.2926 26.9737C57.9083 25.75 56.0926 25 54.0294 25H32.9768C28.5031 25 25.082 28.4211 25.082 32.8947V53.9474C25.082 56.0105 25.832 57.8263 27.0557 59.2105C25.832 60.5947 25.082 62.4105 25.082 64.4737V85.5263C25.082 87.5895 25.832 89.4053 27.0557 90.7895C25.832 92.1737 25.082 93.9895 25.082 96.0526V117.105C25.082 121.579 28.5031 125 32.9768 125H54.0294C56.0926 125 57.9083 124.25 59.2926 123.026C60.6768 124.247 62.4926 125 64.5557 125H85.6083C87.6715 125 89.4873 124.25 90.8715 123.026C92.2557 124.247 94.0715 125 96.1347 125H117.187C121.661 125 125.082 121.579 125.082 117.105V96.0526C125.082 93.9895 124.332 92.1737 123.108 90.7895C124.329 89.4053 125.082 87.5895 125.082 85.5263V64.4737C125.082 62.4105 124.332 60.5947 123.108 59.2105C124.329 57.8263 125.082 56.0105 125.082 53.9474V32.8947ZM96.1347 30.2632H117.187C118.766 30.2632 119.819 31.3158 119.819 32.8947V53.9474C119.819 55.5263 118.766 56.5789 117.187 56.5789H96.1347C94.5557 56.5789 93.5031 55.5263 93.5031 53.9474V32.8947C93.5031 31.3158 94.5557 30.2632 96.1347 30.2632ZM119.819 64.4737V85.5263C119.819 87.1053 118.766 88.1579 117.187 88.1579H96.1347C94.5557 88.1579 93.5031 87.1053 93.5031 85.5263V64.4737C93.5031 62.8947 94.5557 61.8421 96.1347 61.8421H117.187C118.766 61.8421 119.819 62.8947 119.819 64.4737ZM30.3452 85.5263V64.4737C30.3452 62.8947 31.3978 61.8421 32.9768 61.8421H54.0294C55.6083 61.8421 56.661 62.8947 56.661 64.4737V85.5263C56.661 87.1053 55.6083 88.1579 54.0294 88.1579H32.9768C31.3978 88.1579 30.3452 87.1053 30.3452 85.5263ZM61.9241 85.5263V64.4737C61.9241 62.8947 62.9768 61.8421 64.5557 61.8421H85.6083C87.1873 61.8421 88.2399 62.8947 88.2399 64.4737V85.5263C88.2399 87.1053 87.1873 88.1579 85.6083 88.1579H64.5557C62.9768 88.1579 61.9241 87.1053 61.9241 85.5263ZM64.5557 30.2632H85.6083C87.1873 30.2632 88.2399 31.3158 88.2399 32.8947V53.9474C88.2399 55.5263 87.1873 56.5789 85.6083 56.5789H64.5557C62.9768 56.5789 61.9241 55.5263 61.9241 53.9474V32.8947C61.9241 31.3158 62.9768 30.2632 64.5557 30.2632ZM30.3452 32.8947C30.3452 31.3158 31.3978 30.2632 32.9768 30.2632H54.0294C55.6083 30.2632 56.661 31.3158 56.661 32.8947V53.9474C56.661 55.5263 55.6083 56.5789 54.0294 56.5789H32.9768C31.3978 56.5789 30.3452 55.5263 30.3452 53.9474V32.8947ZM54.0294 119.737H32.9768C31.3978 119.737 30.3452 118.684 30.3452 117.105V96.0526C30.3452 94.4737 31.3978 93.4211 32.9768 93.4211H54.0294C55.6083 93.4211 56.661 94.4737 56.661 96.0526V117.105C56.661 118.684 55.6083 119.737 54.0294 119.737ZM85.6083 119.737H64.5557C62.9768 119.737 61.9241 118.684 61.9241 117.105V96.0526C61.9241 94.4737 62.9768 93.4211 64.5557 93.4211H85.6083C87.1873 93.4211 88.2399 94.4737 88.2399 96.0526V117.105C88.2399 118.684 87.1873 119.737 85.6083 119.737ZM119.819 117.105C119.819 118.684 118.766 119.737 117.187 119.737H96.1347C94.5557 119.737 93.5031 118.684 93.5031 117.105V96.0526C93.5031 94.4737 94.5557 93.4211 96.1347 93.4211H117.187C118.766 93.4211 119.819 94.4737 119.819 96.0526V117.105Z" fill="url(#paint10_linear_14_11085)"/>
</g>
<rect x="2.58203" y="2.5" width="145" height="145" rx="7.5" stroke="#D5EAF6" stroke-width="5"/>
</g>
<defs>
<linearGradient id="paint0_linear_14_11085" x1="75.082" y1="5" x2="75.082" y2="145" gradientUnits="userSpaceOnUse">
<stop stop-color="#199AE0"/>
<stop offset="0.472222" stop-color="#0D5176" stop-opacity="0.527778"/>
<stop offset="0.940972" stop-color="#12A6F7" stop-opacity="0.465278"/>
<stop offset="1" stop-opacity="0"/>
</linearGradient>
<linearGradient id="paint1_linear_14_11085" x1="39.8227" y1="89.2185" x2="47.2016" y2="123.94" gradientUnits="userSpaceOnUse">
<stop stop-color="#FFDA1C"/>
<stop offset="1" stop-color="#FEB705"/>
</linearGradient>
<linearGradient id="paint2_linear_14_11085" x1="71.393" y1="89.2185" x2="78.7719" y2="123.94" gradientUnits="userSpaceOnUse">
<stop stop-color="#2AA4F4"/>
<stop offset="1" stop-color="#007AD9"/>
</linearGradient>
<linearGradient id="paint3_linear_14_11085" x1="102.971" y1="89.2185" x2="110.35" y2="123.94" gradientUnits="userSpaceOnUse">
<stop stop-color="#21AD64"/>
<stop offset="1" stop-color="#088242"/>
</linearGradient>
<linearGradient id="paint4_linear_14_11085" x1="39.8227" y1="57.6394" x2="47.2016" y2="92.3604" gradientUnits="userSpaceOnUse">
<stop stop-color="#21AD64"/>
<stop offset="1" stop-color="#088242"/>
</linearGradient>
<linearGradient id="paint5_linear_14_11085" x1="71.393" y1="57.6394" x2="78.7719" y2="92.3604" gradientUnits="userSpaceOnUse">
<stop stop-color="#F45560"/>
<stop offset="1" stop-color="#CF1928"/>
</linearGradient>
<linearGradient id="paint6_linear_14_11085" x1="102.971" y1="57.6394" x2="110.35" y2="92.3604" gradientUnits="userSpaceOnUse">
<stop stop-color="#F9F9F9"/>
<stop offset="0.168" stop-color="#F1F2F3"/>
<stop offset="0.376" stop-color="#E5E7E9"/>
<stop offset="0.607" stop-color="#DDE0E2"/>
<stop offset="1" stop-color="#C2C8CC"/>
</linearGradient>
<linearGradient id="paint7_linear_14_11085" x1="39.8227" y1="26.0607" x2="47.2016" y2="60.7817" gradientUnits="userSpaceOnUse">
<stop stop-color="#2AA4F4"/>
<stop offset="1" stop-color="#007AD9"/>
</linearGradient>
<linearGradient id="paint8_linear_14_11085" x1="71.393" y1="26.0607" x2="78.7719" y2="60.7817" gradientUnits="userSpaceOnUse">
<stop stop-color="#F9F9F9"/>
<stop offset="0.168" stop-color="#F1F2F3"/>
<stop offset="0.376" stop-color="#E5E7E9"/>
<stop offset="0.607" stop-color="#DDE0E2"/>
<stop offset="1" stop-color="#C2C8CC"/>
</linearGradient>
<linearGradient id="paint9_linear_14_11085" x1="102.971" y1="26.0607" x2="110.35" y2="60.7817" gradientUnits="userSpaceOnUse">
<stop stop-color="#FFDA1C"/>
<stop offset="1" stop-color="#FEB705"/>
</linearGradient>
<linearGradient id="paint10_linear_14_11085" x1="25.082" y1="75" x2="125.082" y2="75" gradientUnits="userSpaceOnUse">
<stop stop-color="#41474A"/>
<stop offset="1" stop-color="#323538"/>
</linearGradient>
</defs>
</svg>
