<svg width="151" height="150" viewBox="0 0 151 150" fill="none" xmlns="http://www.w3.org/2000/svg">
<g id="search-chat">
<rect x="2.58203" y="2.5" width="145" height="145" rx="7.5" fill="white"/>
<rect x="2.58203" y="2.5" width="145" height="145" rx="7.5" fill="url(#paint0_linear_14_11136)" fill-opacity="0.2"/>
<g id="Group">
<path id="Vector" d="M111.489 29.55H29.6279C27.1266 29.55 25.0801 31.5966 25.0801 34.0979V93.2198C25.0801 95.7211 27.1266 97.7676 29.6279 97.7676H47.8193V115.959C47.8193 118.006 50.3206 118.915 51.6849 117.551L71.468 97.7676H111.489C113.99 97.7676 116.037 95.7211 116.037 93.2198V34.0979C116.037 31.5966 113.99 29.55 111.489 29.55Z" fill="url(#paint1_linear_14_11136)"/>
<path id="Vector_2" d="M116.044 107.318L111.951 111.411L120.819 120.279C121.047 120.507 121.502 120.507 121.729 120.279L124.913 117.096C125.14 116.868 125.14 116.414 124.913 116.186L116.044 107.318Z" fill="#199BE2"/>
<path id="Vector_3" d="M111.029 102.315L106.936 106.408L111.938 111.411L116.031 107.318L111.029 102.315Z" fill="url(#paint2_radial_14_11136)"/>
<path id="Vector_4" opacity="0.05" d="M116.039 93.2199V83.8968C112.629 77.3024 105.807 72.7546 97.8481 72.7546C86.4785 72.7546 77.3828 81.8503 77.3828 93.2199C77.3828 94.8116 77.6102 96.4033 77.8376 97.7677H111.492C113.993 97.7677 116.039 95.7212 116.039 93.2199Z" fill="black"/>
<path id="Vector_5" opacity="0.07" d="M116.035 93.2198V86.8529C113.307 79.3489 106.257 73.8915 97.8439 73.8915C87.1565 73.8915 78.5156 82.5324 78.5156 93.2198C78.5156 94.8116 78.743 96.4033 78.9704 97.7677H111.487C113.989 97.7677 116.035 95.7211 116.035 93.2198Z" fill="black"/>
<path id="Vector_6" d="M97.8476 111.411C107.894 111.411 116.039 103.267 116.039 93.2198C116.039 83.173 107.894 75.0284 97.8476 75.0284C87.8008 75.0284 79.6562 83.173 79.6562 93.2198C79.6562 103.267 87.8008 111.411 97.8476 111.411Z" fill="url(#paint3_linear_14_11136)"/>
</g>
<rect x="2.58203" y="2.5" width="145" height="145" rx="7.5" stroke="#D5EAF6" stroke-width="5"/>
</g>
<defs>
<linearGradient id="paint0_linear_14_11136" x1="75.082" y1="5" x2="75.082" y2="145" gradientUnits="userSpaceOnUse">
<stop stop-color="#199AE0"/>
<stop offset="0.472222" stop-color="#0D5176" stop-opacity="0.527778"/>
<stop offset="0.940972" stop-color="#12A6F7" stop-opacity="0.465278"/>
<stop offset="1" stop-opacity="0"/>
</linearGradient>
<linearGradient id="paint1_linear_14_11136" x1="44.8313" y1="21.8005" x2="96.8905" y2="106.502" gradientUnits="userSpaceOnUse">
<stop stop-color="#0176D0"/>
<stop offset="1" stop-color="#0A85D9"/>
</linearGradient>
<radialGradient id="paint2_radial_14_11136" cx="0" cy="0" r="1" gradientUnits="userSpaceOnUse" gradientTransform="translate(97.8672 93.3289) scale(22.289 22.289)">
<stop offset="0.693" stop-color="#006185"/>
<stop offset="0.921" stop-color="#35C1F1"/>
</radialGradient>
<linearGradient id="paint3_linear_14_11136" x1="85.2387" y1="80.6109" x2="110.738" y2="106.111" gradientUnits="userSpaceOnUse">
<stop stop-color="#A3FFFF"/>
<stop offset="0.223" stop-color="#9DFBFF"/>
<stop offset="0.53" stop-color="#8BF1FF"/>
<stop offset="0.885" stop-color="#6EE0FF"/>
<stop offset="1" stop-color="#63DAFF"/>
</linearGradient>
</defs>
</svg>
