<svg width="151" height="150" viewBox="0 0 151 150" fill="none" xmlns="http://www.w3.org/2000/svg">
<g id="search">
<rect x="2.58203" y="2.5" width="145" height="145" rx="7.5" fill="white"/>
<rect x="2.58203" y="2.5" width="145" height="145" rx="7.5" fill="url(#paint0_linear_14_11125)" fill-opacity="0.2"/>
<g id="Group">
<path id="Vector" d="M105.041 96.1195L96.2012 104.959L115.876 124.634C116.364 125.122 117.156 125.122 117.644 124.634L124.714 117.564C125.201 117.077 125.201 116.284 124.714 115.797L105.041 96.1195Z" fill="#199BE2"/>
<path id="Vector_2" d="M94.0802 85.1623L85.2402 94.0022L96.1977 104.957L105.035 96.1197L94.0802 85.1623Z" fill="url(#paint1_radial_14_11125)"/>
<path id="Vector_3" d="M65.0837 105C87.175 105 105.084 87.0911 105.084 64.9998C105.084 42.9085 87.175 25 65.0837 25C42.9925 25 25.084 42.9085 25.084 64.9998C25.084 87.0911 42.9925 105 65.0837 105Z" fill="url(#paint2_linear_14_11125)"/>
</g>
<rect x="2.58203" y="2.5" width="145" height="145" rx="7.5" stroke="#D5EAF6" stroke-width="5"/>
</g>
<defs>
<linearGradient id="paint0_linear_14_11125" x1="75.082" y1="5" x2="75.082" y2="145" gradientUnits="userSpaceOnUse">
<stop stop-color="#199AE0"/>
<stop offset="0.472222" stop-color="#0D5176" stop-opacity="0.527778"/>
<stop offset="0.940972" stop-color="#12A6F7" stop-opacity="0.465278"/>
<stop offset="1" stop-opacity="0"/>
</linearGradient>
<radialGradient id="paint1_radial_14_11125" cx="0" cy="0" r="1" gradientUnits="userSpaceOnUse" gradientTransform="translate(65.1379 65.2399) scale(49.0097 49.0097)">
<stop offset="0.693" stop-color="#006185"/>
<stop offset="0.921" stop-color="#35C1F1"/>
</radialGradient>
<linearGradient id="paint2_linear_14_11125" x1="37.3614" y1="37.2775" x2="93.4311" y2="93.3471" gradientUnits="userSpaceOnUse">
<stop stop-color="#A3FFFF"/>
<stop offset="0.223" stop-color="#9DFBFF"/>
<stop offset="0.53" stop-color="#8BF1FF"/>
<stop offset="0.885" stop-color="#6EE0FF"/>
<stop offset="1" stop-color="#63DAFF"/>
</linearGradient>
</defs>
</svg>
