<svg width="151" height="150" viewBox="0 0 151 150" fill="none" xmlns="http://www.w3.org/2000/svg">
<g id="security-portal">
<rect x="2.58203" y="2.5" width="145" height="145" rx="7.5" fill="white"/>
<rect x="2.58203" y="2.5" width="145" height="145" rx="7.5" fill="url(#paint0_linear_14_11187)" fill-opacity="0.2"/>
<g id="Group">
<path id="Vector" d="M25.082 97.7275V45.4543H115.992V97.7275C115.992 100.227 113.946 102.273 111.446 102.273H29.6275C27.1275 102.273 25.082 100.227 25.082 97.7275Z" fill="#50E6FF"/>
<path id="Vector_2" d="M115.992 34.0905V45.4542H25.082V34.0905C25.082 31.5905 27.1275 29.545 29.6275 29.545H111.446C113.946 29.545 115.992 31.5905 115.992 34.0905Z" fill="url(#paint1_linear_14_11187)"/>
<path id="Vector_3" d="M33.0458 40.9088C34.9286 40.9088 36.455 39.3825 36.455 37.4997C36.455 35.6169 34.9286 34.0906 33.0458 34.0906C31.163 34.0906 29.6367 35.6169 29.6367 37.4997C29.6367 39.3825 31.163 40.9088 33.0458 40.9088Z" fill="url(#paint2_linear_14_11187)"/>
<path id="Vector_4" opacity="0.05" d="M112.189 75.8955C109.903 74.3364 107.542 72.7273 103.501 72.7273C99.4596 72.7273 97.0982 74.3364 94.8118 75.8955C92.18 77.691 89.4573 79.5455 83.0458 79.5455C81.1663 79.5455 79.6367 81.0751 79.6367 82.9547V93.182C79.6367 94.8548 79.8481 96.5661 80.2617 98.2684C80.5981 99.6457 81.0708 100.982 81.6481 102.273H111.455C113.955 102.273 116.001 100.228 116.001 97.7275V78.1273C114.512 77.4773 113.342 76.6796 112.189 75.8955Z" fill="black"/>
<path id="Vector_5" opacity="0.07" d="M111.531 76.834C109.291 75.3067 107.172 73.8635 103.481 73.8635C99.7904 73.8635 97.6722 75.3067 95.4313 76.834C92.7858 78.6385 89.7858 80.6817 83.0267 80.6817C81.7721 80.6817 80.7539 81.6999 80.7539 82.9545V93.1819C80.7539 94.766 80.9539 96.3864 81.3471 97.9978C81.7085 99.4774 82.2289 100.905 82.8676 102.273H111.436C113.936 102.273 115.981 100.227 115.981 97.7273V79.3522C114.163 78.6272 112.806 77.7022 111.531 76.834Z" fill="black"/>
<path id="Vector_6" d="M44.3974 40.9088C46.2802 40.9088 47.8065 39.3825 47.8065 37.4997C47.8065 35.6169 46.2802 34.0906 44.3974 34.0906C42.5146 34.0906 40.9883 35.6169 40.9883 37.4997C40.9883 39.3825 42.5146 40.9088 44.3974 40.9088Z" fill="url(#paint3_linear_14_11187)"/>
<path id="Vector_7" d="M103.484 120.455C102.857 120.455 102.348 119.946 102.348 119.319C102.348 118.691 102.857 118.182 103.484 118.182V120.455Z" fill="#107C42"/>
<path id="Vector_8" d="M104.625 119.319C104.625 119.946 104.116 120.455 103.488 120.455V118.182C104.116 118.182 104.625 118.691 104.625 119.319Z" fill="#185C37"/>
<path id="Vector_9" d="M123.943 84.0909C124.571 84.0909 125.079 83.5821 125.079 82.9545C125.079 82.3269 124.571 81.8181 123.943 81.8181C123.315 81.8181 122.807 82.3269 122.807 82.9545C122.807 83.5821 123.315 84.0909 123.943 84.0909Z" fill="#21A366"/>
<path id="Vector_10" d="M83.0387 84.0909C83.6663 84.0909 84.1751 83.5821 84.1751 82.9545C84.1751 82.3269 83.6663 81.8181 83.0387 81.8181C82.4111 81.8181 81.9023 82.3269 81.9023 82.9545C81.9023 83.5821 82.4111 84.0909 83.0387 84.0909Z" fill="#33C481"/>
<path id="Vector_11" d="M103.488 119.319L103.975 120.348C103.975 120.348 121.184 111.371 124.52 97.7275H103.488V119.319Z" fill="#185C37"/>
<path id="Vector_12" d="M125.079 82.9546L123.943 81.8182C111.304 81.8182 111.127 75 103.488 75V97.7274H124.52C124.877 96.2638 125.079 94.7479 125.079 93.182C125.079 89.6092 125.079 82.9546 125.079 82.9546Z" fill="#21A366"/>
<path id="Vector_13" d="M103.497 119.319L103.01 120.348C103.01 120.348 85.8012 111.371 82.4648 97.7275H103.497V119.319Z" fill="#107C42"/>
<path id="Vector_14" d="M81.9023 82.9546L83.0387 81.8182C95.6775 81.8182 95.8547 75 103.493 75V97.7274H82.4637C82.1046 96.2638 81.9023 94.7479 81.9023 93.182C81.9023 89.6092 81.9023 82.9546 81.9023 82.9546Z" fill="#33C481"/>
</g>
<rect x="2.58203" y="2.5" width="145" height="145" rx="7.5" stroke="#D5EAF6" stroke-width="5"/>
</g>
<defs>
<linearGradient id="paint0_linear_14_11187" x1="75.082" y1="5" x2="75.082" y2="145" gradientUnits="userSpaceOnUse">
<stop stop-color="#199AE0"/>
<stop offset="0.472222" stop-color="#0D5176" stop-opacity="0.527778"/>
<stop offset="0.940972" stop-color="#12A6F7" stop-opacity="0.465278"/>
<stop offset="1" stop-opacity="0"/>
</linearGradient>
<linearGradient id="paint1_linear_14_11187" x1="26.4775" y1="28.9564" x2="113.574" y2="46.6656" gradientUnits="userSpaceOnUse">
<stop stop-color="#0077D2"/>
<stop offset="1" stop-color="#0B59A2"/>
</linearGradient>
<linearGradient id="paint2_linear_14_11187" x1="31.3436" y1="35.0361" x2="34.2549" y2="39.2475" gradientUnits="userSpaceOnUse">
<stop stop-color="#75DAFF"/>
<stop offset="1" stop-color="#49BEF1"/>
</linearGradient>
<linearGradient id="paint3_linear_14_11187" x1="42.6951" y1="35.0361" x2="45.6065" y2="39.2475" gradientUnits="userSpaceOnUse">
<stop stop-color="#75DAFF"/>
<stop offset="1" stop-color="#49BEF1"/>
</linearGradient>
</defs>
</svg>
