<svg width="151" height="150" viewBox="0 0 151 150" fill="none" xmlns="http://www.w3.org/2000/svg">
<g id="sell-stock">
<rect x="2.58203" y="2.5" width="145" height="145" rx="7.5" fill="white"/>
<rect x="2.58203" y="2.5" width="145" height="145" rx="7.5" fill="url(#paint0_linear_14_11237)" fill-opacity="0.2"/>
<g id="Group">
<path id="Vector" d="M107.299 117.22C110.981 117.22 113.966 114.236 113.966 110.554C113.966 106.872 110.981 103.888 107.299 103.888C103.617 103.888 100.633 106.872 100.633 110.554C100.633 114.236 103.617 117.22 107.299 117.22Z" fill="#5C5F61"/>
<path id="Vector_2" opacity="0.15" d="M107.3 112.776C108.527 112.776 109.522 111.781 109.522 110.554C109.522 109.327 108.527 108.332 107.3 108.332C106.073 108.332 105.078 109.327 105.078 110.554C105.078 111.781 106.073 112.776 107.3 112.776Z" fill="black"/>
<path id="Vector_3" d="M58.4183 117.22C62.1 117.22 65.0847 114.236 65.0847 110.554C65.0847 106.872 62.1 103.888 58.4183 103.888C54.7366 103.888 51.752 106.872 51.752 110.554C51.752 114.236 54.7366 117.22 58.4183 117.22Z" fill="#5C5F61"/>
<path id="Vector_4" opacity="0.15" d="M58.4194 112.776C59.6466 112.776 60.6415 111.781 60.6415 110.554C60.6415 109.327 59.6466 108.332 58.4194 108.332C57.1921 108.332 56.1973 109.327 56.1973 110.554C56.1973 111.781 57.1921 112.776 58.4194 112.776Z" fill="black"/>
<path id="Vector_5" d="M49.5952 83.8885H122.794C124.058 83.8885 125.083 84.884 125.083 86.1106V90.5549C125.083 91.7815 124.058 92.777 122.796 92.777H49.5952C48.333 92.777 47.3086 91.7815 47.3086 90.5549V86.1106C47.3086 84.884 48.333 83.8885 49.5952 83.8885Z" fill="url(#paint1_linear_14_11237)"/>
<path id="Vector_6" d="M116.193 106.11H53.294C50.0209 106.11 47.2565 103.767 46.7188 100.539L37.157 43.1593C36.797 41.0082 34.9527 39.4461 32.7706 39.4461H29.5307C28.3041 39.4461 27.3086 38.4506 27.3086 37.224C27.3086 35.9974 28.3041 35.0019 29.5307 35.0019H32.7706C37.1326 35.0019 40.8213 38.1262 41.539 42.4282L51.103 99.8077C51.283 100.883 52.2052 101.665 53.294 101.665H116.193C117.42 101.665 118.415 102.661 118.415 103.887C118.415 105.114 117.42 106.11 116.193 106.11Z" fill="url(#paint2_linear_14_11237)"/>
<path id="Vector_7" d="M33.9705 37.224C33.9705 39.6772 31.9795 41.6683 29.5263 41.6683C27.073 41.6683 25.082 39.6772 25.082 37.224C25.082 34.7708 27.073 32.7798 29.5263 32.7798C31.9795 32.7798 33.9705 34.7708 33.9705 37.224Z" fill="url(#paint3_linear_14_11237)"/>
<path id="Vector_8" d="M117.299 83.8884H55.0801V41.6682C55.0801 40.4416 56.0756 39.4461 57.3022 39.4461H115.077C116.304 39.4461 117.299 40.4416 117.299 41.6682V83.8884Z" fill="#E3A600"/>
</g>
<rect x="2.58203" y="2.5" width="145" height="145" rx="7.5" stroke="#D5EAF6" stroke-width="5"/>
</g>
<defs>
<linearGradient id="paint0_linear_14_11237" x1="75.082" y1="5" x2="75.082" y2="145" gradientUnits="userSpaceOnUse">
<stop stop-color="#199AE0"/>
<stop offset="0.472222" stop-color="#0D5176" stop-opacity="0.527778"/>
<stop offset="0.940972" stop-color="#12A6F7" stop-opacity="0.465278"/>
<stop offset="1" stop-opacity="0"/>
</linearGradient>
<linearGradient id="paint1_linear_14_11237" x1="47.3086" y1="88.3328" x2="125.083" y2="88.3328" gradientUnits="userSpaceOnUse">
<stop stop-color="#3079D6"/>
<stop offset="1" stop-color="#297CD2"/>
</linearGradient>
<linearGradient id="paint2_linear_14_11237" x1="72.862" y1="105.732" x2="72.862" y2="82.1819" gradientUnits="userSpaceOnUse">
<stop stop-color="#92A3B0"/>
<stop offset="0.015" stop-color="#A3B5C4"/>
<stop offset="0.032" stop-color="#AEC2D1"/>
<stop offset="0.046" stop-color="#B2C6D6"/>
</linearGradient>
<linearGradient id="paint3_linear_14_11237" x1="26.762" y1="34.4597" x2="32.6017" y2="40.2994" gradientUnits="userSpaceOnUse">
<stop stop-color="#199AE0"/>
<stop offset="1" stop-color="#0782D8"/>
</linearGradient>
</defs>
</svg>
