<svg width="151" height="150" viewBox="0 0 151 150" fill="none" xmlns="http://www.w3.org/2000/svg">
<g id="send-mail">
<rect x="2.58203" y="2.5" width="145" height="145" rx="7.5" fill="white"/>
<rect x="2.58203" y="2.5" width="145" height="145" rx="7.5" fill="url(#paint0_linear_14_11272)" fill-opacity="0.2"/>
<g id="Group">
<path id="Vector" d="M47.8008 47.7525H93.2424C105.739 47.7525 115.963 57.9769 115.963 70.4733V118.187C115.963 120.686 113.918 122.731 111.419 122.731H47.8008V47.7525Z" fill="#007AD9"/>
<path id="Vector_2" d="M47.8009 47.7525C35.3044 47.7525 25.0801 57.9769 25.0801 70.4733V118.187C25.0801 120.686 27.125 122.731 29.6242 122.731H65.9775C68.4768 122.731 70.5217 120.686 70.5217 118.187V70.4733C70.5217 57.9769 60.2973 47.7525 47.8009 47.7525Z" fill="url(#paint1_linear_14_11272)"/>
<path id="Vector_3" opacity="0.05" d="M93.2384 47.7525H71.1992C71.4264 47.9797 71.4264 48.2069 71.6536 48.2069L81.6508 58.2041V67.0652C81.6508 69.1101 83.2412 70.7005 85.2861 70.7005H94.1472L104.144 80.6977C104.826 81.3793 105.735 81.8337 106.871 81.8337C108.461 81.8337 109.825 80.9249 110.506 79.3344L115.505 64.7931C112.778 55.0232 103.917 47.7525 93.2384 47.7525Z" fill="black"/>
<path id="Vector_4" opacity="0.07" d="M93.2423 47.7525H72.5664L82.5636 57.7497V67.2924C82.5636 68.6556 83.6996 69.7917 85.0628 69.7917H94.6056L104.83 80.016C105.284 80.4705 105.966 80.6977 106.648 80.6977C107.784 80.6977 108.692 80.016 109.147 78.88L114.6 62.7482C111.419 54.1143 103.239 47.7525 93.2423 47.7525Z" fill="black"/>
<path id="Vector_5" d="M54.6161 75.0176H38.7115C37.3483 75.0176 36.4395 74.1088 36.4395 72.7455C36.4395 71.3823 37.3483 70.4734 38.7115 70.4734H54.6161C55.9793 70.4734 56.8882 71.3823 56.8882 72.7455C56.8882 74.1088 55.9793 75.0176 54.6161 75.0176Z" fill="#007AD9"/>
<path id="Vector_6" d="M123.23 27.3039L73.6988 44.3445C72.5628 44.7989 72.3356 45.9349 73.2444 46.8438L105.735 79.3345C106.417 80.0161 107.78 79.7889 108.234 78.8801L125.048 29.1215C125.275 27.9855 124.366 27.0767 123.23 27.3039Z" fill="#CCCCCC"/>
<path id="Vector_7" d="M118.235 34.1202L83.6992 57.2954V67.2926C83.6992 67.9742 84.3808 68.6558 85.0625 68.6558H95.0596L118.235 34.1202Z" fill="#64717C"/>
</g>
<rect x="2.58203" y="2.5" width="145" height="145" rx="7.5" stroke="#D5EAF6" stroke-width="5"/>
</g>
<defs>
<linearGradient id="paint0_linear_14_11272" x1="75.082" y1="5" x2="75.082" y2="145" gradientUnits="userSpaceOnUse">
<stop stop-color="#199AE0"/>
<stop offset="0.472222" stop-color="#0D5176" stop-opacity="0.527778"/>
<stop offset="0.940972" stop-color="#12A6F7" stop-opacity="0.465278"/>
<stop offset="1" stop-opacity="0"/>
</linearGradient>
<linearGradient id="paint1_linear_14_11272" x1="32.3621" y1="52.2285" x2="61.8491" y2="129.422" gradientUnits="userSpaceOnUse">
<stop stop-color="#32BDEF"/>
<stop offset="1" stop-color="#1EA2E4"/>
</linearGradient>
</defs>
</svg>
