<svg width="151" height="150" viewBox="0 0 151 150" fill="none" xmlns="http://www.w3.org/2000/svg">
<g id="send-email">
<rect x="2.58203" y="2.5" width="145" height="145" rx="7.5" fill="white"/>
<rect x="2.58203" y="2.5" width="145" height="145" rx="7.5" fill="url(#paint0_linear_14_11257)" fill-opacity="0.2"/>
<g id="Group">
<path id="Vector" d="M36.1738 60.3786L102.704 33.9358V82.5547C102.704 84.5979 101.049 86.2507 99.0083 86.2507H36.1738V60.3786Z" fill="url(#paint1_linear_14_11257)"/>
<path id="Vector_2" d="M25.0801 33.8537V82.6643C25.0801 84.7052 26.7352 86.3603 28.7761 86.3603H99.0025C99.9089 86.3603 100.731 86.0201 101.374 85.4768L25.0801 33.8537Z" fill="url(#paint2_linear_14_11257)"/>
<path id="Vector_3" d="M28.7761 27.1146H99.0025C101.043 27.1146 102.699 28.7674 102.699 30.8106V33.9382L68.051 57.5433C65.5398 59.2555 62.2365 59.2555 59.7276 57.5433L25.0801 33.9359V30.8084C25.0801 28.7674 26.7352 27.1146 28.7761 27.1146Z" fill="#7B83EB"/>
<path id="Vector_4" opacity="0.05" d="M102.698 47.5511H42.473C39.1697 47.5511 36.4941 50.2267 36.4941 53.5301V86.3604H38.777L102.698 49.834V47.5511Z" fill="black"/>
<path id="Vector_5" opacity="0.07" d="M102.705 48.8021H42.48C39.8113 48.8021 37.6426 50.9708 37.6426 53.6396V86.3603H41.0669L102.705 49.834V48.8021Z" fill="black"/>
<path id="Vector_6" d="M49.8613 83.2076L116.392 56.7648V105.384C116.392 107.427 114.737 109.08 112.696 109.08H49.8613V83.2076Z" fill="url(#paint3_linear_14_11257)"/>
<path id="Vector_7" d="M38.7676 56.7648V105.384C38.7676 107.427 40.4227 109.08 42.4636 109.08H112.69C113.596 109.08 114.418 108.739 115.062 108.196L38.7676 56.7648Z" fill="url(#paint4_linear_14_11257)"/>
<path id="Vector_8" opacity="0.05" d="M38.7676 55.4865H116.386V58.6711L84.3776 83.9884C80.3756 87.1525 74.778 87.1525 70.7761 83.9884L38.7676 58.6711V55.4865Z" fill="black"/>
<path id="Vector_9" opacity="0.07" d="M38.7676 54.5618H116.386V57.7259L83.058 82.2488C79.8026 84.6869 75.351 84.6869 72.0956 82.2488L38.7676 57.7282V54.5618Z" fill="black"/>
<path id="Vector_10" d="M42.4636 49.9435H112.69C114.733 49.9435 116.386 51.5985 116.386 53.6395V56.767L81.7385 80.3722C79.2273 82.0843 75.924 82.0843 73.4151 80.3722L38.7676 56.7647V53.6372C38.7676 51.5963 40.4227 49.9435 42.4636 49.9435Z" fill="#50E6FF"/>
<path id="Vector_11" opacity="0.05" d="M110.504 85.2943C109.721 84.509 108.689 84.0775 107.596 84.0775C105.313 84.0775 103.457 85.9313 103.457 88.2073V96.2522H87.4764C84.5383 96.2522 82.1504 98.6401 82.1504 101.578V107.667C82.1504 108.16 82.2394 108.628 82.365 109.08H112.698C114.739 109.08 116.394 107.425 116.394 105.384V91.1819L110.504 85.2943Z" fill="black"/>
<path id="Vector_12" opacity="0.07" d="M109.693 86.1001C109.127 85.5317 108.382 85.2189 107.595 85.2189C105.942 85.2189 104.597 86.559 104.597 88.2072V97.3936H87.4756C85.1676 97.3936 83.291 99.2701 83.291 101.578V107.667C83.291 108.164 83.3937 108.637 83.5535 109.08H112.697C114.738 109.08 116.393 107.425 116.393 105.384V92.7981L109.693 86.1001Z" fill="black"/>
<path id="Vector_13" d="M105.746 88.2072V98.5351H87.4826C85.8023 98.5351 84.4395 99.898 84.4395 101.578V107.667C84.4395 109.347 85.8023 110.71 87.4826 110.71H105.746V121.038C105.746 122.681 107.734 123.503 108.894 122.341L124.004 107.231C125.445 105.79 125.445 103.452 124.004 102.014L108.894 86.9037C107.734 85.7417 105.746 86.5636 105.746 88.2072Z" fill="url(#paint5_linear_14_11257)"/>
</g>
<rect x="2.58203" y="2.5" width="145" height="145" rx="7.5" stroke="#D5EAF6" stroke-width="5"/>
</g>
<defs>
<linearGradient id="paint0_linear_14_11257" x1="75.082" y1="5" x2="75.082" y2="145" gradientUnits="userSpaceOnUse">
<stop stop-color="#199AE0"/>
<stop offset="0.472222" stop-color="#0D5176" stop-opacity="0.527778"/>
<stop offset="0.940972" stop-color="#12A6F7" stop-opacity="0.465278"/>
<stop offset="1" stop-opacity="0"/>
</linearGradient>
<linearGradient id="paint1_linear_14_11257" x1="59.3041" y1="44.9257" x2="103.798" y2="111.52" gradientUnits="userSpaceOnUse">
<stop stop-color="#5059C9"/>
<stop offset="0.999" stop-color="#4750B3"/>
</linearGradient>
<linearGradient id="paint2_linear_14_11257" x1="22.1055" y1="57.4314" x2="86.716" y2="97.6789" gradientUnits="userSpaceOnUse">
<stop stop-color="#5961C3"/>
<stop offset="1" stop-color="#3A41AC"/>
</linearGradient>
<linearGradient id="paint3_linear_14_11257" x1="72.9916" y1="67.7546" x2="117.485" y2="134.349" gradientUnits="userSpaceOnUse">
<stop stop-color="#28AFEA"/>
<stop offset="1" stop-color="#0B88DA"/>
</linearGradient>
<linearGradient id="paint4_linear_14_11257" x1="35.8249" y1="80.2695" x2="100.365" y2="120.471" gradientUnits="userSpaceOnUse">
<stop stop-color="#28AFEA"/>
<stop offset="1" stop-color="#0B88DA"/>
</linearGradient>
<linearGradient id="paint5_linear_14_11257" x1="125.004" y1="104.624" x2="84.1564" y2="104.624" gradientUnits="userSpaceOnUse">
<stop stop-color="#C965EB"/>
<stop offset="1" stop-color="#C767E5"/>
</linearGradient>
</defs>
</svg>
