<svg width="151" height="150" viewBox="0 0 151 150" fill="none" xmlns="http://www.w3.org/2000/svg">
<g id="show-property">
<rect x="2.58203" y="2.5" width="145" height="145" rx="7.5" fill="white"/>
<rect x="2.58203" y="2.5" width="145" height="145" rx="7.5" fill="url(#paint0_linear_14_11349)" fill-opacity="0.2"/>
<g id="Group">
<path id="Vector" d="M25.084 97.729V40.9062H116V97.729C116 100.229 113.955 102.275 111.455 102.275H29.6298C27.1296 102.275 25.084 100.229 25.084 97.729Z" fill="url(#paint1_linear_14_11349)"/>
<path id="Vector_2" d="M103.497 61.3626H51.2204C50.5386 61.3626 50.084 60.908 50.084 60.2261V57.9532C50.084 57.2713 50.5386 56.8167 51.2204 56.8167H103.497C104.179 56.8167 104.634 57.2713 104.634 57.9532V60.2261C104.634 60.908 104.179 61.3626 103.497 61.3626Z" fill="#0F94BF"/>
<path id="Vector_3" d="M103.497 72.7271H51.2204C50.5386 72.7271 50.084 72.2725 50.084 71.5906V69.3177C50.084 68.6359 50.5386 68.1813 51.2204 68.1813H103.497C104.179 68.1813 104.634 68.6359 104.634 69.3177V71.5906C104.634 72.2725 104.179 72.7271 103.497 72.7271Z" fill="#0F94BF"/>
<path id="Vector_4" d="M103.497 84.0916H51.2204C50.5386 84.0916 50.084 83.637 50.084 82.9551V80.6822C50.084 80.0004 50.5386 79.5458 51.2204 79.5458H103.497C104.179 79.5458 104.634 80.0004 104.634 80.6822V82.9551C104.634 83.637 104.179 84.0916 103.497 84.0916Z" fill="#0F94BF"/>
<path id="Vector_5" d="M116 34.0876V40.9063H25.084V34.0876C25.084 31.5874 27.1296 29.5417 29.6298 29.5417H111.455C113.955 29.5417 116 31.5874 116 34.0876Z" fill="url(#paint2_linear_14_11349)"/>
<path id="Vector_6" d="M37.5798 61.3626H39.8527C40.5346 61.3626 40.9892 60.908 40.9892 60.2261V57.9532C40.9892 57.2713 40.5346 56.8167 39.8527 56.8167H37.5798C36.8979 56.8167 36.4434 57.2713 36.4434 57.9532V60.2261C36.4434 60.908 36.8979 61.3626 37.5798 61.3626Z" fill="#0F94BF"/>
<path id="Vector_7" d="M37.5798 72.7271H39.8527C40.5346 72.7271 40.9892 72.2725 40.9892 71.5906V69.3177C40.9892 68.6359 40.5346 68.1813 39.8527 68.1813H37.5798C36.8979 68.1813 36.4434 68.6359 36.4434 69.3177V71.5906C36.4434 72.2725 36.8979 72.7271 37.5798 72.7271Z" fill="#0F94BF"/>
<path id="Vector_8" d="M37.5798 84.0916H39.8527C40.5346 84.0916 40.9892 83.637 40.9892 82.9551V80.6822C40.9892 80.0004 40.5346 79.5458 39.8527 79.5458H37.5798C36.8979 79.5458 36.4434 80.0004 36.4434 80.6822V82.9551C36.4434 83.637 36.8979 84.0916 37.5798 84.0916Z" fill="#0F94BF"/>
<path id="Vector_9" opacity="0.05" d="M101.224 79.5458C86.9051 79.5458 75.0859 89.3193 75.0859 101.138C75.0859 101.593 75.0859 101.82 75.0859 102.275H111.452C113.953 102.275 115.998 100.229 115.998 97.7291V83.4097C111.68 80.9095 106.679 79.5458 101.224 79.5458Z" fill="black"/>
<path id="Vector_10" opacity="0.07" d="M101.236 80.6821C87.3716 80.6821 76.2344 89.7738 76.2344 101.138C76.2344 101.593 76.2344 101.82 76.2344 102.275H111.464C113.965 102.275 116.01 100.229 116.01 97.729V84.7734C111.919 82.2732 106.691 80.6821 101.236 80.6821Z" fill="black"/>
<path id="Vector_11" d="M101.217 120.458C114.398 120.458 125.083 111.808 125.083 101.138C125.083 90.4685 114.398 81.8188 101.217 81.8188C88.0365 81.8188 77.3516 90.4685 77.3516 101.138C77.3516 111.808 88.0365 120.458 101.217 120.458Z" fill="url(#paint3_radial_14_11349)"/>
<path id="Vector_12" d="M101.223 113.639C110.01 113.639 117.133 106.516 117.133 97.7291C117.133 88.9421 110.01 81.8188 101.223 81.8188C92.4358 81.8188 85.3125 88.9421 85.3125 97.7291C85.3125 106.516 92.4358 113.639 101.223 113.639Z" fill="url(#paint4_linear_14_11349)"/>
<path id="Vector_13" d="M101.232 106.821C106.253 106.821 110.324 102.75 110.324 97.7292C110.324 92.708 106.253 88.6375 101.232 88.6375C96.2111 88.6375 92.1406 92.708 92.1406 97.7292C92.1406 102.75 96.2111 106.821 101.232 106.821Z" fill="url(#paint5_radial_14_11349)"/>
<path id="Vector_14" d="M105.773 93.1833C107.028 93.1833 108.046 92.1657 108.046 90.9104C108.046 89.6551 107.028 88.6375 105.773 88.6375C104.518 88.6375 103.5 89.6551 103.5 90.9104C103.5 92.1657 104.518 93.1833 105.773 93.1833Z" fill="white"/>
</g>
<rect x="2.58203" y="2.5" width="145" height="145" rx="7.5" stroke="#D5EAF6" stroke-width="5"/>
</g>
<defs>
<linearGradient id="paint0_linear_14_11349" x1="75.082" y1="5" x2="75.082" y2="145" gradientUnits="userSpaceOnUse">
<stop stop-color="#199AE0"/>
<stop offset="0.472222" stop-color="#0D5176" stop-opacity="0.527778"/>
<stop offset="0.940972" stop-color="#12A6F7" stop-opacity="0.465278"/>
<stop offset="1" stop-opacity="0"/>
</linearGradient>
<linearGradient id="paint1_linear_14_11349" x1="45.697" y1="34.0852" x2="88.5573" y2="96.0811" gradientUnits="userSpaceOnUse">
<stop stop-color="#7DD8F3"/>
<stop offset="1" stop-color="#45B0D0"/>
</linearGradient>
<linearGradient id="paint2_linear_14_11349" x1="26.9205" y1="26.7688" x2="113.159" y2="44.3043" gradientUnits="userSpaceOnUse">
<stop stop-color="#0077D2"/>
<stop offset="1" stop-color="#0B59A2"/>
</linearGradient>
<radialGradient id="paint3_radial_14_11349" cx="0" cy="0" r="1" gradientUnits="userSpaceOnUse" gradientTransform="translate(101.376 95.0827) scale(25.3261 25.6276)">
<stop offset="0.55" stop-color="#E4E4E6"/>
<stop offset="0.73" stop-color="#E1E2E4"/>
<stop offset="0.854" stop-color="#D8DADC"/>
<stop offset="0.961" stop-color="#C9CDCF"/>
<stop offset="1" stop-color="#C1C6C9"/>
</radialGradient>
<linearGradient id="paint4_linear_14_11349" x1="91.0948" y1="87.601" x2="111.637" y2="108.144" gradientUnits="userSpaceOnUse">
<stop stop-color="#32BDEF"/>
<stop offset="1" stop-color="#1EA2E4"/>
</linearGradient>
<radialGradient id="paint5_radial_14_11349" cx="0" cy="0" r="1" gradientUnits="userSpaceOnUse" gradientTransform="translate(95.875 84.4281) scale(23.5974 23.5973)">
<stop stop-color="#4B4B4B"/>
<stop offset="0.531" stop-color="#393939"/>
<stop offset="1" stop-color="#252525"/>
</radialGradient>
</defs>
</svg>
