<svg width="151" height="150" viewBox="0 0 151 150" fill="none" xmlns="http://www.w3.org/2000/svg">
<g id="smart-card">
<rect x="2.58203" y="2.5" width="145" height="145" rx="7.5" fill="white"/>
<rect x="2.58203" y="2.5" width="145" height="145" rx="7.5" fill="url(#paint0_linear_14_11404)" fill-opacity="0.2"/>
<g id="Group">
<path id="Vector" d="M120.082 32.5H30.082C27.3195 32.5 25.082 34.7375 25.082 37.5V112.5C25.082 115.263 27.3195 117.5 30.082 117.5H120.082C122.845 117.5 125.082 115.263 125.082 112.5V37.5C125.082 34.7375 122.845 32.5 120.082 32.5Z" fill="url(#paint1_linear_14_11404)"/>
<path id="Vector_2" d="M57.582 84.9999H42.582C41.202 84.9999 40.082 83.8799 40.082 82.4999V67.4999C40.082 66.1199 41.202 64.9999 42.582 64.9999H57.582C58.962 64.9999 60.082 66.1199 60.082 67.4999V82.4999C60.082 83.8799 58.962 84.9999 57.582 84.9999Z" fill="url(#paint2_linear_14_11404)"/>
<path id="Vector_3" d="M35.082 80L30.082 75L35.082 70V80Z" fill="#50E6FF"/>
<path id="Vector_4" d="M92.5742 72.5C99.4778 72.5 105.074 66.9036 105.074 60C105.074 53.0964 99.4778 47.5 92.5742 47.5C85.6707 47.5 80.0742 53.0964 80.0742 60C80.0742 66.9036 85.6707 72.5 92.5742 72.5Z" fill="url(#paint3_radial_14_11404)"/>
<path id="Vector_5" d="M92.582 70C98.1049 70 102.582 65.5228 102.582 60C102.582 54.4772 98.1049 50 92.582 50C87.0592 50 82.582 54.4772 82.582 60C82.582 65.5228 87.0592 70 92.582 70Z" fill="url(#paint4_linear_14_11404)"/>
<path id="Vector_6" opacity="0.05" d="M92.5742 72.4999C81.5467 72.4999 72.5742 81.4724 72.5742 92.4999V97.8124C72.5742 100.397 74.6767 102.5 77.2617 102.5H107.887C110.472 102.5 112.574 100.397 112.574 97.8124V92.4999C112.574 81.4724 103.602 72.4999 92.5742 72.4999Z" fill="black"/>
<path id="Vector_7" opacity="0.07" d="M92.582 73.75C82.242 73.75 73.832 82.16 73.832 92.5V97.8125C73.832 99.7075 75.3745 101.25 77.2695 101.25H107.895C109.79 101.25 111.332 99.7075 111.332 97.8125V92.5C111.332 82.16 102.922 73.75 92.582 73.75Z" fill="black"/>
<path id="Vector_8" d="M110.082 92.5C110.082 82.835 102.247 75 92.582 75C82.917 75 75.082 82.835 75.082 92.5C75.082 94.0125 75.082 97.8125 75.082 97.8125C75.082 99.02 76.062 100 77.2695 100H107.895C109.102 100 110.082 99.02 110.082 97.8125C110.082 97.8125 110.082 94.0125 110.082 92.5Z" fill="url(#paint5_linear_14_11404)"/>
</g>
<rect x="2.58203" y="2.5" width="145" height="145" rx="7.5" stroke="#D5EAF6" stroke-width="5"/>
</g>
<defs>
<linearGradient id="paint0_linear_14_11404" x1="75.082" y1="5" x2="75.082" y2="145" gradientUnits="userSpaceOnUse">
<stop stop-color="#199AE0"/>
<stop offset="0.472222" stop-color="#0D5176" stop-opacity="0.527778"/>
<stop offset="0.940972" stop-color="#12A6F7" stop-opacity="0.465278"/>
<stop offset="1" stop-opacity="0"/>
</linearGradient>
<linearGradient id="paint1_linear_14_11404" x1="69.007" y1="32.0625" x2="81.222" y2="118.382" gradientUnits="userSpaceOnUse">
<stop stop-color="#0D61A9"/>
<stop offset="1" stop-color="#16528C"/>
</linearGradient>
<linearGradient id="paint2_linear_14_11404" x1="40.082" y1="74.9999" x2="60.082" y2="74.9999" gradientUnits="userSpaceOnUse">
<stop stop-color="#FFD869"/>
<stop offset="1" stop-color="#FEC52B"/>
</linearGradient>
<radialGradient id="paint3_radial_14_11404" cx="0" cy="0" r="1" gradientUnits="userSpaceOnUse" gradientTransform="translate(92.5717 59.9975) scale(12.4995)">
<stop/>
<stop offset="1" stop-opacity="0"/>
</radialGradient>
<linearGradient id="paint4_linear_14_11404" x1="85.797" y1="53.215" x2="99.7495" y2="67.1675" gradientUnits="userSpaceOnUse">
<stop stop-color="#75DAFF"/>
<stop offset="1" stop-color="#1EA2E4"/>
</linearGradient>
<linearGradient id="paint5_linear_14_11404" x1="88.2895" y1="75.91" x2="93.8245" y2="99.5825" gradientUnits="userSpaceOnUse">
<stop stop-color="#75DAFF"/>
<stop offset="1" stop-color="#1EA2E4"/>
</linearGradient>
</defs>
</svg>
