<svg width="151" height="150" viewBox="0 0 151 150" fill="none" xmlns="http://www.w3.org/2000/svg">
<g id="start-menu">
<rect x="2.58203" y="2.5" width="145" height="145" rx="7.5" fill="white"/>
<rect x="2.58203" y="2.5" width="145" height="145" rx="7.5" fill="url(#paint0_linear_14_11439)" fill-opacity="0.2"/>
<g id="Group">
<path id="Vector" d="M102.179 25H30.6376C27.5681 25 25.082 27.4861 25.082 30.5556V111.111H108.415V31.2361C108.415 27.7917 105.624 25 102.179 25Z" fill="url(#paint1_linear_14_11439)"/>
<path id="Vector_2" d="M75.082 25H102.86C105.929 25 108.415 27.4861 108.415 30.5556V108.333H75.082V25Z" fill="url(#paint2_linear_14_11439)"/>
<path id="Vector_3" d="M25.082 108.333H119.526C122.596 108.333 125.082 110.819 125.082 113.889V119.444C125.082 122.514 122.596 125 119.526 125H30.6376C27.5681 125 25.082 122.514 25.082 119.444V108.333Z" fill="#184F85"/>
<path id="Vector_4" opacity="0.05" d="M34.8034 41.6667C32.5062 41.6667 30.6367 39.7972 30.6367 37.5V34.7222C30.6367 32.425 32.5062 30.5555 34.8034 30.5555H65.3589C67.6562 30.5555 69.5256 32.425 69.5256 34.7222V37.5C69.5256 39.7972 67.6562 41.6667 65.3589 41.6667H34.8034Z" fill="black"/>
<path id="Vector_5" opacity="0.07" d="M34.8051 40.2778C33.2746 40.2778 32.0273 39.0306 32.0273 37.5V34.7222C32.0273 33.1917 33.2746 31.9445 34.8051 31.9445H65.3607C66.8912 31.9445 68.1385 33.1917 68.1385 34.7222V37.5C68.1385 39.0306 66.8912 40.2778 65.3607 40.2778H34.8051Z" fill="black"/>
<path id="Vector_6" d="M34.799 33.3333H65.3546C66.1213 33.3333 66.7435 33.9555 66.7435 34.7221V37.4999C66.7435 38.2666 66.1213 38.8888 65.3546 38.8888H34.799C34.0324 38.8888 33.4102 38.2666 33.4102 37.4999V34.7221C33.4102 33.9555 34.0324 33.3333 34.799 33.3333Z" fill="white"/>
<path id="Vector_7" opacity="0.05" d="M34.8034 55.5556C32.5062 55.5556 30.6367 53.6861 30.6367 51.3889V48.6111C30.6367 46.3139 32.5062 44.4445 34.8034 44.4445H65.3589C67.6562 44.4445 69.5256 46.3139 69.5256 48.6111V51.3889C69.5256 53.6861 67.6562 55.5556 65.3589 55.5556H34.8034Z" fill="black"/>
<path id="Vector_8" opacity="0.07" d="M34.8051 54.1666C33.2746 54.1666 32.0273 52.9194 32.0273 51.3888V48.611C32.0273 47.0805 33.2746 45.8333 34.8051 45.8333H65.3607C66.8912 45.8333 68.1385 47.0805 68.1385 48.611V51.3888C68.1385 52.9194 66.8912 54.1666 65.3607 54.1666H34.8051Z" fill="black"/>
<path id="Vector_9" d="M34.799 47.2223H65.3546C66.1213 47.2223 66.7435 47.8445 66.7435 48.6112V51.389C66.7435 52.1556 66.1213 52.7778 65.3546 52.7778H34.799C34.0324 52.7778 33.4102 52.1556 33.4102 51.389V48.6112C33.4102 47.8445 34.0324 47.2223 34.799 47.2223Z" fill="white"/>
<path id="Vector_10" opacity="0.05" d="M82.0221 102.778C79.7249 102.778 77.8555 100.908 77.8555 98.6112V95.8334C77.8555 93.5362 79.7249 91.6667 82.0221 91.6667H101.467C103.764 91.6667 105.633 93.5362 105.633 95.8334V98.6112C105.633 100.908 103.764 102.778 101.467 102.778H82.0221Z" fill="black"/>
<path id="Vector_11" opacity="0.07" d="M82.0317 101.389C80.5011 101.389 79.2539 100.142 79.2539 98.6111V95.8333C79.2539 94.3028 80.5011 93.0555 82.0317 93.0555H101.476C103.007 93.0555 104.254 94.3028 104.254 95.8333V98.6111C104.254 100.142 103.007 101.389 101.476 101.389H82.0317Z" fill="black"/>
<path id="Vector_12" d="M82.0256 94.4445H101.47C102.237 94.4445 102.859 95.0667 102.859 95.8333V98.6111C102.859 99.3778 102.237 100 101.47 100H82.0256C81.2589 100 80.6367 99.3778 80.6367 98.6111V95.8333C80.6367 95.0667 81.2589 94.4445 82.0256 94.4445Z" fill="white"/>
<path id="Vector_13" opacity="0.05" d="M34.8034 122.222C32.5062 122.222 30.6367 120.353 30.6367 118.056V115.278C30.6367 112.981 32.5062 111.111 34.8034 111.111H37.5812C39.8784 111.111 41.7478 112.981 41.7478 115.278V118.056C41.7478 120.353 39.8784 122.222 37.5812 122.222H34.8034Z" fill="black"/>
<path id="Vector_14" opacity="0.07" d="M34.8051 120.833C33.2746 120.833 32.0273 119.586 32.0273 118.056V115.278C32.0273 113.747 33.2746 112.5 34.8051 112.5H37.5829C39.1135 112.5 40.3607 113.747 40.3607 115.278V118.056C40.3607 119.586 39.1135 120.833 37.5829 120.833H34.8051Z" fill="black"/>
<path id="Vector_15" d="M37.5768 119.444H34.799C34.0324 119.444 33.4102 118.822 33.4102 118.056V115.278C33.4102 114.511 34.0324 113.889 34.799 113.889H37.5768C38.3435 113.889 38.9657 114.511 38.9657 115.278V118.056C38.9657 118.822 38.3435 119.444 37.5768 119.444Z" fill="white"/>
</g>
<rect x="2.58203" y="2.5" width="145" height="145" rx="7.5" stroke="#D5EAF6" stroke-width="5"/>
</g>
<defs>
<linearGradient id="paint0_linear_14_11439" x1="75.082" y1="5" x2="75.082" y2="145" gradientUnits="userSpaceOnUse">
<stop stop-color="#199AE0"/>
<stop offset="0.472222" stop-color="#0D5176" stop-opacity="0.527778"/>
<stop offset="0.940972" stop-color="#12A6F7" stop-opacity="0.465278"/>
<stop offset="1" stop-opacity="0"/>
</linearGradient>
<linearGradient id="paint1_linear_14_11439" x1="25.082" y1="68.0556" x2="108.415" y2="68.0556" gradientUnits="userSpaceOnUse">
<stop stop-color="#42A3F2"/>
<stop offset="1" stop-color="#42A4EB"/>
</linearGradient>
<linearGradient id="paint2_linear_14_11439" x1="75.082" y1="66.6667" x2="108.415" y2="66.6667" gradientUnits="userSpaceOnUse">
<stop stop-color="#1951A8"/>
<stop offset="0.175" stop-color="#1955B0"/>
<stop offset="0.505" stop-color="#195AB9"/>
<stop offset="1" stop-color="#195BBC"/>
</linearGradient>
</defs>
</svg>
