<svg width="151" height="150" viewBox="0 0 151 150" fill="none" xmlns="http://www.w3.org/2000/svg">
<g id="static-view-level2">
<rect x="2.58203" y="2.5" width="145" height="145" rx="7.5" fill="white"/>
<rect x="2.58203" y="2.5" width="145" height="145" rx="7.5" fill="url(#paint0_linear_14_11456)" fill-opacity="0.2"/>
<g id="Group">
<path id="Vector" d="M102.582 90.8788V39.7763H25.082V90.8788C25.082 93.1263 26.827 94.9663 28.957 94.9663H98.707C100.837 94.9663 102.582 93.1263 102.582 90.8788Z" fill="url(#paint1_linear_14_11456)"/>
<path id="Vector_2" opacity="0.05" d="M51.457 52.5337C47.942 52.5337 45.082 55.4012 45.082 58.9312V94.9662H98.707C100.837 94.9662 102.582 93.1262 102.582 90.8787V52.5337H51.457Z" fill="black"/>
<path id="Vector_3" opacity="0.07" d="M51.457 53.7838C48.632 53.7838 46.332 56.0938 46.332 58.9313V94.9663H98.707C100.837 94.9663 102.582 93.1263 102.582 90.8788V53.7838H51.457Z" fill="black"/>
<path id="Vector_4" d="M25.082 33.9312V40.5062H102.582V33.9312C102.582 31.7862 100.837 30.0337 98.707 30.0337H28.957C26.8245 30.0337 25.082 31.7862 25.082 33.9312Z" fill="url(#paint2_linear_14_11456)"/>
<path id="Vector_5" d="M125.082 115.879V64.7763H47.582V115.879C47.582 118.126 49.327 119.966 51.457 119.966H121.207C123.337 119.966 125.082 118.126 125.082 115.879Z" fill="#50E6FF"/>
<path id="Vector_6" d="M47.582 58.9312V65.5062H125.082V58.9312C125.082 56.7862 123.337 55.0337 121.207 55.0337H51.457C49.3245 55.0337 47.582 56.7862 47.582 58.9312Z" fill="url(#paint3_linear_14_11456)"/>
</g>
<rect x="2.58203" y="2.5" width="145" height="145" rx="7.5" stroke="#D5EAF6" stroke-width="5"/>
</g>
<defs>
<linearGradient id="paint0_linear_14_11456" x1="75.082" y1="5" x2="75.082" y2="145" gradientUnits="userSpaceOnUse">
<stop stop-color="#199AE0"/>
<stop offset="0.472222" stop-color="#0D5176" stop-opacity="0.527778"/>
<stop offset="0.940972" stop-color="#12A6F7" stop-opacity="0.465278"/>
<stop offset="1" stop-opacity="0"/>
</linearGradient>
<linearGradient id="paint1_linear_14_11456" x1="25.082" y1="67.3713" x2="102.582" y2="67.3713" gradientUnits="userSpaceOnUse">
<stop stop-color="#199AE0"/>
<stop offset="1" stop-color="#0782D8"/>
</linearGradient>
<linearGradient id="paint2_linear_14_11456" x1="20.562" y1="35.2712" x2="101.995" y2="35.2712" gradientUnits="userSpaceOnUse">
<stop stop-color="#004C87"/>
<stop offset="1" stop-color="#003A70"/>
</linearGradient>
<linearGradient id="paint3_linear_14_11456" x1="65.402" y1="60.2712" x2="154.125" y2="60.2712" gradientUnits="userSpaceOnUse">
<stop stop-color="#2AA4F4"/>
<stop offset="1" stop-color="#007AD9"/>
</linearGradient>
</defs>
</svg>
