<svg width="151" height="150" viewBox="0 0 151 150" fill="none" xmlns="http://www.w3.org/2000/svg">
<g id="statistics">
<rect x="2.58203" y="2.5" width="145" height="145" rx="7.5" fill="white"/>
<rect x="2.58203" y="2.5" width="145" height="145" rx="7.5" fill="url(#paint0_linear_14_11464)" fill-opacity="0.2"/>
<g id="Group">
<path id="Vector" d="M75.073 38.1579C73.6204 38.1579 72.4414 36.9789 72.4414 35.5263V27.6316C72.4414 26.1789 73.6204 25 75.073 25C76.5256 25 77.7046 26.1789 77.7046 27.6316V35.5263C77.7046 36.9789 76.5256 38.1579 75.073 38.1579Z" fill="#16538C"/>
<path id="Vector_2" d="M92.1857 125C90.5593 125 89.0383 123.987 88.4646 122.368L75.0804 84.5342L61.6962 122.368C60.9699 124.424 58.7067 125.497 56.6593 124.774C54.6041 124.047 53.5278 121.792 54.2541 119.737L71.3593 71.3816C71.9172 69.8026 73.4067 68.75 75.0804 68.75C76.7541 68.75 78.2435 69.8026 78.8014 71.3816L95.9067 119.737C96.633 121.792 95.5567 124.047 93.5014 124.774C93.0672 124.929 92.6225 125 92.1857 125Z" fill="#16538C"/>
<path id="Vector_3" d="M122.45 30.5922H27.7136C26.261 30.5922 25.082 31.7711 25.082 33.2237V103.947C25.082 105.4 26.261 106.579 27.7136 106.579H122.45C123.903 106.579 125.082 105.4 125.082 103.947V33.2237C125.082 31.7711 123.903 30.5922 122.45 30.5922Z" fill="url(#paint1_radial_14_11464)"/>
<path id="Vector_4" d="M46.144 85.5263C45.4703 85.5263 44.7966 85.2684 44.2834 84.7552C43.2545 83.7263 43.2545 82.0631 44.2834 81.0342L64.0203 61.2973C65.0492 60.2684 66.7124 60.2684 67.7413 61.2973L81.6703 75.2263L98.2308 58.6658C99.2597 57.6368 100.923 57.6368 101.952 58.6658C102.981 59.6947 102.981 61.3579 101.952 62.3868L83.5308 80.8079C82.5018 81.8368 80.8387 81.8368 79.8097 80.8079L65.8808 66.8789L48.0045 84.7552C47.4913 85.2684 46.8176 85.5263 46.144 85.5263Z" fill="white"/>
<path id="Vector_5" d="M93.5117 53.9473L106.67 67.1052V53.9473H93.5117Z" fill="white"/>
</g>
<rect x="2.58203" y="2.5" width="145" height="145" rx="7.5" stroke="#D5EAF6" stroke-width="5"/>
</g>
<defs>
<linearGradient id="paint0_linear_14_11464" x1="75.082" y1="5" x2="75.082" y2="145" gradientUnits="userSpaceOnUse">
<stop stop-color="#199AE0"/>
<stop offset="0.472222" stop-color="#0D5176" stop-opacity="0.527778"/>
<stop offset="0.940972" stop-color="#12A6F7" stop-opacity="0.465278"/>
<stop offset="1" stop-opacity="0"/>
</linearGradient>
<radialGradient id="paint1_radial_14_11464" cx="0" cy="0" r="1" gradientUnits="userSpaceOnUse" gradientTransform="translate(150.856 134.163) scale(170.724 170.724)">
<stop offset="0.131" stop-color="#23D9D6"/>
<stop offset="0.214" stop-color="#21BDDD"/>
<stop offset="0.364" stop-color="#1E90E7"/>
<stop offset="0.508" stop-color="#1B6CF0"/>
<stop offset="0.642" stop-color="#1953F6"/>
<stop offset="0.764" stop-color="#1843FA"/>
<stop offset="0.862" stop-color="#183EFB"/>
</radialGradient>
</defs>
</svg>
