<svg width="151" height="150" viewBox="0 0 151 150" fill="none" xmlns="http://www.w3.org/2000/svg">
<g id="stethoscope">
<rect x="2.58203" y="2.5" width="145" height="145" rx="7.5" fill="white"/>
<rect x="2.58203" y="2.5" width="145" height="145" rx="7.5" fill="url(#paint0_linear_14_11471)" fill-opacity="0.2"/>
<g id="Group">
<path id="Vector" d="M70.0898 32.5H72.5898V25H70.0898C68.7098 25 67.5898 26.12 67.5898 27.5V30C67.5898 31.38 68.7098 32.5 70.0898 32.5Z" fill="#0669BC"/>
<path id="Vector_2" d="M37.582 25H35.082V32.5H37.582C38.962 32.5 40.082 31.38 40.082 30V27.5C40.082 26.12 38.962 25 37.582 25Z" fill="#0669BC"/>
<path id="Vector_3" d="M105.082 75V93.75C105.082 106.868 94.4495 117.5 81.332 117.5C68.2145 117.5 57.582 106.868 57.582 93.75V75C70.0095 75 80.082 64.9275 80.082 52.5V30C80.082 27.2375 77.8445 25 75.082 25H72.582V52.5C72.582 60.785 65.867 67.5 57.582 67.5H50.082C41.797 67.5 35.082 60.785 35.082 52.5V25H32.582C29.8195 25 27.582 27.2375 27.582 30V52.5C27.582 64.9275 37.6545 75 50.082 75V93.75C50.082 111.01 64.072 125 81.332 125C98.592 125 112.582 111.01 112.582 93.75V75H105.082Z" fill="url(#paint1_linear_14_11471)"/>
<path id="Vector_4" d="M108.832 87.5C116.426 87.5 122.582 81.3439 122.582 73.75C122.582 66.1561 116.426 60 108.832 60C101.238 60 95.082 66.1561 95.082 73.75C95.082 81.3439 101.238 87.5 108.832 87.5Z" fill="#0B5CA8"/>
<path id="Vector_5" d="M108.832 80C112.284 80 115.082 77.2018 115.082 73.75C115.082 70.2982 112.284 67.5 108.832 67.5C105.38 67.5 102.582 70.2982 102.582 73.75C102.582 77.2018 105.38 80 108.832 80Z" fill="#45D7F9"/>
</g>
<rect x="2.58203" y="2.5" width="145" height="145" rx="7.5" stroke="#D5EAF6" stroke-width="5"/>
</g>
<defs>
<linearGradient id="paint0_linear_14_11471" x1="75.082" y1="5" x2="75.082" y2="145" gradientUnits="userSpaceOnUse">
<stop stop-color="#199AE0"/>
<stop offset="0.472222" stop-color="#0D5176" stop-opacity="0.527778"/>
<stop offset="0.940972" stop-color="#12A6F7" stop-opacity="0.465278"/>
<stop offset="1" stop-opacity="0"/>
</linearGradient>
<linearGradient id="paint1_linear_14_11471" x1="62.8895" y1="22.0175" x2="81.1045" y2="130.125" gradientUnits="userSpaceOnUse">
<stop stop-color="#26ABE7"/>
<stop offset="1" stop-color="#086DBF"/>
</linearGradient>
</defs>
</svg>
