<svg width="151" height="150" viewBox="0 0 151 150" fill="none" xmlns="http://www.w3.org/2000/svg">
<g id="stocks-growth">
<rect x="2.58203" y="2.5" width="145" height="145" rx="7.5" fill="white"/>
<rect x="2.58203" y="2.5" width="145" height="145" rx="7.5" fill="url(#paint0_linear_14_11478)" fill-opacity="0.2"/>
<g id="Group">
<path id="Vector" d="M125.082 83.7502V118.751H105.082V81.2502H122.582C123.962 81.2502 125.082 82.3702 125.082 83.7502Z" fill="#61E3A7"/>
<path id="Vector_2" d="M105.082 81.2502V118.751H85.082V81.2502H105.082Z" fill="#33C481"/>
<path id="Vector_3" d="M85.0804 61.2498V118.751H65.0801V61.2498C65.0801 59.8698 66.2001 58.7498 67.5801 58.7498H82.5804C83.9604 58.7498 85.0804 59.8698 85.0804 61.2498Z" fill="#21A366"/>
<path id="Vector_4" d="M65.0804 73.7498V118.751H45.0801V76.2499C45.0801 74.8699 46.2001 73.7498 47.5801 73.7498H65.0804Z" fill="#107C42"/>
<path id="Vector_5" d="M45.0804 88.7502V118.751H25.0801V91.2502C25.0801 89.8702 26.2001 88.7502 27.5801 88.7502H45.0804Z" fill="#185C37"/>
<path id="Vector_6" d="M26.5893 58.6572L56.6398 36.8244L62.1624 44.4245L32.1119 66.2573C30.9944 67.0698 29.4294 66.8223 28.6194 65.7048L26.0368 62.1498C25.2218 61.0348 25.4693 59.4697 26.5893 58.6572Z" fill="#33C481"/>
<path id="Vector_7" d="M64.5744 53.8995L67.2319 37.1268C67.4469 35.7642 66.5169 34.4817 65.1544 34.2667L48.3816 31.6092C47.2816 31.4342 46.5191 32.6792 47.1741 33.5792L62.3293 54.4395C62.9819 55.337 64.3994 54.997 64.5744 53.8995Z" fill="#33C481"/>
<path id="Vector_8" d="M106.743 65.1548C108.978 64.7948 110.095 63.6223 110.095 61.6373C110.095 60.0297 108.978 58.7172 106.743 57.6997C105.778 57.2822 104.628 56.7997 103.32 56.2972C99.6626 54.8697 97.1651 53.3246 95.8301 51.6596C94.7025 50.2571 94.0525 48.5946 93.875 46.672C93.6225 43.917 94.4875 41.0695 96.3326 39.0919C98.0776 37.2169 100.408 36.1294 103.323 35.8269V32.4768C103.318 31.7993 103.843 31.2493 104.488 31.2493H105.57C106.215 31.2493 106.74 31.7993 106.74 32.4768V35.7269C109.623 35.8694 111.868 36.3144 113.473 37.0594C113.885 37.2519 114.125 37.6994 114.125 38.1744V42.0145C114.125 42.897 113.258 43.5045 112.495 43.1295C110.735 42.2695 108.818 41.7195 106.74 41.4845C105.678 41.362 104.4 41.3245 103.238 41.547C101.26 41.9345 100.06 43.247 100.058 45.1495C100.055 46.8395 101.128 48.2071 103.318 49.3821C104.523 50.0371 105.695 50.4896 106.74 50.8096C110.17 51.9846 112.615 53.5871 114.1 55.2522C115.585 56.9172 116.328 58.9297 116.328 61.2923C116.328 64.0148 115.5 66.2098 113.843 67.8724C112.185 69.5374 109.818 70.5499 106.74 70.9099V75.02C106.74 75.6975 106.215 76.2475 105.57 76.2475H104.488C103.843 76.2475 103.318 75.6975 103.318 75.02V71.0574C100.403 71.0424 97.6751 70.4049 95.13 69.1449C94.7175 68.9399 94.4575 68.4874 94.4575 68.0074V64.2348C94.4575 63.3198 95.3725 62.6798 96.1501 63.0923C96.8251 63.4498 97.6126 63.7923 98.5126 64.1198C100.31 64.7748 101.913 65.1523 103.318 65.2523C104.518 65.3273 105.663 65.2998 106.743 65.1548Z" fill="#107C42"/>
</g>
<rect x="2.58203" y="2.5" width="145" height="145" rx="7.5" stroke="#D5EAF6" stroke-width="5"/>
</g>
<defs>
<linearGradient id="paint0_linear_14_11478" x1="75.082" y1="5" x2="75.082" y2="145" gradientUnits="userSpaceOnUse">
<stop stop-color="#199AE0"/>
<stop offset="0.472222" stop-color="#0D5176" stop-opacity="0.527778"/>
<stop offset="0.940972" stop-color="#12A6F7" stop-opacity="0.465278"/>
<stop offset="1" stop-opacity="0"/>
</linearGradient>
</defs>
</svg>
