<svg width="151" height="150" viewBox="0 0 151 150" fill="none" xmlns="http://www.w3.org/2000/svg">
<g id="sun">
<rect x="2.58203" y="2.5" width="145" height="145" rx="7.5" fill="white"/>
<rect x="2.58203" y="2.5" width="145" height="145" rx="7.5" fill="url(#paint0_linear_14_11488)" fill-opacity="0.2"/>
<g id="Group">
<path id="Vector" d="M75.082 25L78.3116 28.35C80.4252 30.5432 83.7389 31.0682 86.4275 29.6364L90.5343 27.4477L92.5707 31.6318C93.9025 34.3705 96.8934 35.8955 99.8934 35.3614L104.475 34.55L105.118 39.1591C105.539 42.1773 107.912 44.5477 110.93 44.9705L115.539 45.6136L114.727 50.1955C114.196 53.1955 115.718 56.1841 118.457 57.5182L122.641 59.5545L120.452 63.6614C119.018 66.35 119.543 69.6636 121.739 71.7773L125.082 75L121.732 78.2295C119.539 80.3432 119.014 83.6568 120.446 86.3455L122.634 90.4523L118.45 92.4886C115.712 93.8205 114.187 96.8114 114.721 99.8114L115.532 104.393L110.923 105.036C107.905 105.457 105.534 107.83 105.112 110.848L104.468 115.457L99.8866 114.645C96.8866 114.114 93.8979 115.636 92.5638 118.375L90.5275 122.559L86.4207 120.37C83.732 118.936 80.4184 119.461 78.3048 121.657L75.082 125L71.8525 121.65C69.7389 119.457 66.4252 118.932 63.7366 120.364L59.6298 122.552L57.5934 118.368C56.2616 115.63 53.2707 114.105 50.2707 114.639L45.6889 115.45L45.0457 110.841C44.6252 107.823 42.2525 105.452 39.2343 105.03L34.6252 104.386L35.4366 99.8045C35.9684 96.8045 34.4457 93.8159 31.707 92.4818L27.5229 90.4455L29.7116 86.3386C31.1457 83.65 30.6207 80.3364 28.4252 78.2227L25.082 75L28.432 71.7705C30.6252 69.6568 31.1502 66.3432 29.7184 63.6545L27.5298 59.5477L31.7138 57.5114C34.4525 56.1795 35.9775 53.1886 35.4434 50.1886L34.632 45.6068L39.2411 44.9636C42.2593 44.5432 44.6298 42.1705 45.0525 39.1523L45.6957 34.5432L50.2775 35.3545C53.2775 35.8864 56.2661 34.3636 57.6002 31.625L59.6366 27.4409L63.7434 29.6295C66.432 31.0636 69.7457 30.5386 71.8593 28.3432L75.082 25Z" fill="url(#paint1_radial_14_11488)"/>
<path id="Vector_2" d="M75.0856 36.3636C53.7469 36.3636 36.4492 53.6614 36.4492 75C36.4492 96.3386 53.7469 113.636 75.0856 113.636C96.4242 113.636 113.722 96.3386 113.722 75C113.722 53.6614 96.4242 36.3636 75.0856 36.3636Z" fill="url(#paint2_linear_14_11488)"/>
</g>
<rect x="2.58203" y="2.5" width="145" height="145" rx="7.5" stroke="#D5EAF6" stroke-width="5"/>
</g>
<defs>
<linearGradient id="paint0_linear_14_11488" x1="75.082" y1="5" x2="75.082" y2="145" gradientUnits="userSpaceOnUse">
<stop stop-color="#199AE0"/>
<stop offset="0.472222" stop-color="#0D5176" stop-opacity="0.527778"/>
<stop offset="0.940972" stop-color="#12A6F7" stop-opacity="0.465278"/>
<stop offset="1" stop-opacity="0"/>
</linearGradient>
<radialGradient id="paint1_radial_14_11488" cx="0" cy="0" r="1" gradientUnits="userSpaceOnUse" gradientTransform="translate(75.082 75) scale(50)">
<stop offset="0.724" stop-color="#FFED54"/>
<stop offset="0.779" stop-color="#FFE649"/>
<stop offset="0.877" stop-color="#FFD22D"/>
<stop offset="1" stop-color="#FFB300"/>
</radialGradient>
<linearGradient id="paint2_linear_14_11488" x1="38.931" y1="38.8455" x2="102.349" y2="102.264" gradientUnits="userSpaceOnUse">
<stop stop-color="#FED100"/>
<stop offset="1" stop-color="#E36001"/>
</linearGradient>
</defs>
</svg>
