<svg width="151" height="150" viewBox="0 0 151 150" fill="none" xmlns="http://www.w3.org/2000/svg">
<g id="synchronize-folder">
<rect x="2.58203" y="2.5" width="145" height="145" rx="7.5" fill="white"/>
<rect x="2.58203" y="2.5" width="145" height="145" rx="7.5" fill="url(#paint0_linear_14_11510)" fill-opacity="0.2"/>
<g id="Group">
<path id="Vector" d="M76.0677 42.6524L70.0297 36.6143C68.6916 35.2762 66.8749 34.5238 64.9796 34.5238H29.8439C27.213 34.5238 25.082 36.6548 25.082 39.2857V110.714C25.082 113.345 27.213 115.476 29.8439 115.476H120.32C122.951 115.476 125.082 113.345 125.082 110.714V48.8095C125.082 46.1786 122.951 44.0476 120.32 44.0476H79.4344C78.1725 44.0476 76.9606 43.5452 76.0677 42.6524Z" fill="url(#paint1_linear_14_11510)"/>
<path id="Vector_2" d="M69.3344 52.1759L77.1154 44.395C77.3368 44.1736 77.6392 44.0474 77.9558 44.0474H120.32C122.951 44.0474 125.082 46.1783 125.082 48.8093V110.714C125.082 113.345 122.951 115.476 120.32 115.476H29.8439C27.213 115.476 25.082 113.345 25.082 110.714V54.7616C25.082 54.1045 25.6154 53.5712 26.2725 53.5712H65.9677C67.2297 53.5712 68.4416 53.0688 69.3344 52.1759Z" fill="url(#paint2_linear_14_11510)"/>
<path id="Vector_3" d="M75.0887 66.7191C75.0887 67.3548 74.584 67.8524 73.9482 67.8953C65.2887 68.4833 58.4221 75.7191 58.4221 84.5238C58.4221 87.9 59.4792 91.0119 61.2125 93.6381L63.534 91.3167C64.2816 90.5691 65.5649 91.1 65.5649 92.1595V100C65.5649 100.657 65.0316 101.19 64.3744 101.19H56.534C55.4744 101.19 54.9411 99.9072 55.6911 99.1572L57.7625 97.0857C55.1911 93.5548 53.6602 89.2191 53.6602 84.5238C53.6602 73.1238 62.6054 63.7762 73.8459 63.131C74.5221 63.0929 75.0887 63.6595 75.0887 64.3357V66.7191ZM92.4078 71.9667L94.4863 69.8881C95.234 69.1405 94.703 67.8572 93.6435 67.8572H85.803C85.1459 67.8572 84.6125 68.3905 84.6125 69.0476V76.8881C84.6125 77.9476 85.8959 78.481 86.6459 77.731L88.9935 75.3833C90.7292 78.0095 91.7554 81.1453 91.7554 84.5238C91.7554 93.3286 84.8887 100.564 76.2292 101.152C75.5935 101.195 75.0887 101.693 75.0887 102.329V104.712C75.0887 105.388 75.6554 105.955 76.3316 105.917C87.5721 105.271 96.5173 95.9238 96.5173 84.5238C96.5173 79.8286 94.9816 75.4976 92.4078 71.9667Z" fill="url(#paint3_linear_14_11510)"/>
</g>
<rect x="2.58203" y="2.5" width="145" height="145" rx="7.5" stroke="#D5EAF6" stroke-width="5"/>
</g>
<defs>
<linearGradient id="paint0_linear_14_11510" x1="75.082" y1="5" x2="75.082" y2="145" gradientUnits="userSpaceOnUse">
<stop stop-color="#199AE0"/>
<stop offset="0.472222" stop-color="#0D5176" stop-opacity="0.527778"/>
<stop offset="0.940972" stop-color="#12A6F7" stop-opacity="0.465278"/>
<stop offset="1" stop-opacity="0"/>
</linearGradient>
<linearGradient id="paint1_linear_14_11510" x1="75.082" y1="33.8286" x2="75.082" y2="53.5167" gradientUnits="userSpaceOnUse">
<stop stop-color="#EBA600"/>
<stop offset="1" stop-color="#C28200"/>
</linearGradient>
<linearGradient id="paint2_linear_14_11510" x1="75.082" y1="43.6997" x2="75.082" y2="115.435" gradientUnits="userSpaceOnUse">
<stop stop-color="#FFD869"/>
<stop offset="1" stop-color="#FEC52B"/>
</linearGradient>
<linearGradient id="paint3_linear_14_11510" x1="69.4102" y1="65.0095" x2="80.7887" y2="104.117" gradientUnits="userSpaceOnUse">
<stop stop-color="#0370C8"/>
<stop offset="0.484" stop-color="#036FC5"/>
<stop offset="0.775" stop-color="#036ABD"/>
<stop offset="1" stop-color="#0362B0"/>
</linearGradient>
</defs>
</svg>
