<svg width="151" height="150" viewBox="0 0 151 150" fill="none" xmlns="http://www.w3.org/2000/svg">
<g id="tab">
<rect x="2.58203" y="2.5" width="145" height="145" rx="7.5" fill="white"/>
<rect x="2.58203" y="2.5" width="145" height="145" rx="7.5" fill="url(#paint0_linear_14_11515)" fill-opacity="0.2"/>
<g id="Group">
<path id="Vector" d="M125.082 40V60H62.582V35H120.082C122.832 35 125.082 37.25 125.082 40Z" fill="url(#paint1_linear_14_11515)"/>
<path id="Vector_2" d="M110.485 52.5C108.69 52.5 107.035 51.5375 106.145 49.98L99.0245 37.5175C98.132 35.9625 96.4745 35 94.6795 35H65.082V52.5H110.485Z" fill="#35C1F1"/>
<path id="Vector_3" d="M76.142 49.98L69.022 37.5175C68.132 35.9625 66.4745 35 64.6795 35H30.082C27.3195 35 25.082 37.2375 25.082 40V110C25.082 112.75 27.332 115 30.082 115H120.082C122.832 115 125.082 112.75 125.082 110V57.5C125.082 54.7375 122.845 52.5 120.082 52.5H80.4845C78.6895 52.5 77.032 51.5375 76.142 49.98Z" fill="#50E6FF"/>
</g>
<rect x="2.58203" y="2.5" width="145" height="145" rx="7.5" stroke="#D5EAF6" stroke-width="5"/>
</g>
<defs>
<linearGradient id="paint0_linear_14_11515" x1="75.082" y1="5" x2="75.082" y2="145" gradientUnits="userSpaceOnUse">
<stop stop-color="#199AE0"/>
<stop offset="0.472222" stop-color="#0D5176" stop-opacity="0.527778"/>
<stop offset="0.940972" stop-color="#12A6F7" stop-opacity="0.465278"/>
<stop offset="1" stop-opacity="0"/>
</linearGradient>
<linearGradient id="paint1_linear_14_11515" x1="120.615" y1="58.935" x2="55.3795" y2="33.04" gradientUnits="userSpaceOnUse">
<stop stop-color="#3079D6"/>
<stop offset="1" stop-color="#297CD2"/>
</linearGradient>
</defs>
</svg>
