<svg width="151" height="150" viewBox="0 0 151 150" fill="none" xmlns="http://www.w3.org/2000/svg">
<g id="tasklist">
<rect x="2.58203" y="2.5" width="145" height="145" rx="7.5" fill="white"/>
<rect x="2.58203" y="2.5" width="145" height="145" rx="7.5" fill="url(#paint0_linear_14_11528)" fill-opacity="0.2"/>
<g id="Group">
<path id="Vector" d="M120.082 32.5H30.082C27.3195 32.5 25.082 34.7375 25.082 37.5V112.5C25.082 115.263 27.3195 117.5 30.082 117.5H120.082C122.845 117.5 125.082 115.263 125.082 112.5V37.5C125.082 34.7375 122.845 32.5 120.082 32.5Z" fill="url(#paint1_linear_14_11528)"/>
<path id="Vector_2" d="M66.332 57.5H113.832C114.522 57.5 115.082 58.06 115.082 58.75V61.25C115.082 61.94 114.522 62.5 113.832 62.5H66.332C65.642 62.5 65.082 61.94 65.082 61.25V58.75C65.082 58.06 65.642 57.5 66.332 57.5Z" fill="#35C1F1"/>
<path id="Vector_3" d="M66.332 72.4999H113.832C114.522 72.4999 115.082 73.0599 115.082 73.7499V76.2499C115.082 76.9399 114.522 77.4999 113.832 77.4999H66.332C65.642 77.4999 65.082 76.9399 65.082 76.2499V73.7499C65.082 73.0599 65.642 72.4999 66.332 72.4999Z" fill="#35C1F1"/>
<path id="Vector_4" d="M38.832 72.4999H46.332C47.022 72.4999 47.582 73.0599 47.582 73.7499V76.2499C47.582 76.9399 47.022 77.4999 46.332 77.4999H38.832C38.142 77.4999 37.582 76.9399 37.582 76.2499V73.7499C37.582 73.0599 38.142 72.4999 38.832 72.4999Z" fill="#0782D8"/>
<path id="Vector_5" d="M38.832 87.5H46.332C47.022 87.5 47.582 88.06 47.582 88.75V91.25C47.582 91.94 47.022 92.5 46.332 92.5H38.832C38.142 92.5 37.582 91.94 37.582 91.25V88.75C37.582 88.06 38.142 87.5 38.832 87.5Z" fill="#0782D8"/>
<path id="Vector_6" d="M66.332 87.5H113.832C114.522 87.5 115.082 88.06 115.082 88.75V91.25C115.082 91.94 114.522 92.5 113.832 92.5H66.332C65.642 92.5 65.082 91.94 65.082 91.25V88.75C65.082 88.06 65.642 87.5 66.332 87.5Z" fill="#35C1F1"/>
<path id="Vector_7" d="M40.8152 64.2675L32.9477 56.4C32.4602 55.9125 32.4602 55.12 32.9477 54.6325L34.7152 52.865C35.2027 52.3775 35.9952 52.3775 36.4827 52.865L42.5827 58.965L56.1127 45.435C56.6002 44.9475 57.3927 44.9475 57.8802 45.435L59.6477 47.2025C60.1352 47.69 60.1352 48.4825 59.6477 48.97L44.3502 64.2675C43.3752 65.2425 41.7902 65.2425 40.8152 64.2675Z" fill="#35C1F1"/>
</g>
<rect x="2.58203" y="2.5" width="145" height="145" rx="7.5" stroke="#D5EAF6" stroke-width="5"/>
</g>
<defs>
<linearGradient id="paint0_linear_14_11528" x1="75.082" y1="5" x2="75.082" y2="145" gradientUnits="userSpaceOnUse">
<stop stop-color="#199AE0"/>
<stop offset="0.472222" stop-color="#0D5176" stop-opacity="0.527778"/>
<stop offset="0.940972" stop-color="#12A6F7" stop-opacity="0.465278"/>
<stop offset="1" stop-opacity="0"/>
</linearGradient>
<linearGradient id="paint1_linear_14_11528" x1="69.007" y1="32.0625" x2="81.222" y2="118.382" gradientUnits="userSpaceOnUse">
<stop stop-color="#0D61A9"/>
<stop offset="1" stop-color="#16528C"/>
</linearGradient>
</defs>
</svg>
