<svg width="151" height="150" viewBox="0 0 151 150" fill="none" xmlns="http://www.w3.org/2000/svg">
<g id="template">
<rect x="2.58203" y="2.5" width="145" height="145" rx="7.5" fill="white"/>
<rect x="2.58203" y="2.5" width="145" height="145" rx="7.5" fill="url(#paint0_linear_14_11537)" fill-opacity="0.2"/>
<g id="Group">
<path id="Vector" d="M120.082 35H30.082C27.332 35 25.082 37.25 25.082 40V110C25.082 112.75 27.332 115 30.082 115H120.082C122.832 115 125.082 112.75 125.082 110V40C125.082 37.25 122.832 35 120.082 35Z" fill="#50E6FF"/>
<path id="Vector_2" d="M115.074 45V55C115.074 56.5 113.824 57.5 112.324 57.5H37.8242C36.3242 57.5 35.0742 56.5 35.0742 55V45C35.0742 43.5 36.3242 42.5 37.8242 42.5H112.574C113.824 42.5 115.074 43.5 115.074 45Z" fill="#35C1F1"/>
<path id="Vector_3" d="M70.0742 103.25V69.25C70.0742 67 68.3242 65 66.0742 65H39.0742C36.8242 65 35.0742 67 35.0742 69.25V103.25C35.0742 105.5 36.8242 107.5 39.0742 107.5H66.3242C68.3242 107.5 70.0742 105.5 70.0742 103.25Z" fill="url(#paint1_linear_14_11537)"/>
<path id="Vector_4" d="M115.074 103.25V69.25C115.074 67 113.324 65 111.074 65H84.0742C81.8242 65 80.0742 67 80.0742 69.25V103.25C80.0742 105.5 81.8242 107.5 84.0742 107.5H111.324C113.324 107.5 115.074 105.5 115.074 103.25Z" fill="url(#paint2_linear_14_11537)"/>
</g>
<rect x="2.58203" y="2.5" width="145" height="145" rx="7.5" stroke="#D5EAF6" stroke-width="5"/>
</g>
<defs>
<linearGradient id="paint0_linear_14_11537" x1="75.082" y1="5" x2="75.082" y2="145" gradientUnits="userSpaceOnUse">
<stop stop-color="#199AE0"/>
<stop offset="0.472222" stop-color="#0D5176" stop-opacity="0.527778"/>
<stop offset="0.940972" stop-color="#12A6F7" stop-opacity="0.465278"/>
<stop offset="1" stop-opacity="0"/>
</linearGradient>
<linearGradient id="paint1_linear_14_11537" x1="35.0742" y1="86.25" x2="70.0742" y2="86.25" gradientUnits="userSpaceOnUse">
<stop stop-color="#3079D6"/>
<stop offset="1" stop-color="#297CD2"/>
</linearGradient>
<linearGradient id="paint2_linear_14_11537" x1="80.0742" y1="86.25" x2="115.074" y2="86.25" gradientUnits="userSpaceOnUse">
<stop stop-color="#3079D6"/>
<stop offset="1" stop-color="#297CD2"/>
</linearGradient>
</defs>
</svg>
