<svg width="151" height="150" viewBox="0 0 151 150" fill="none" xmlns="http://www.w3.org/2000/svg">
<g id="text-input-form">
<rect x="2.58203" y="2.5" width="145" height="145" rx="7.5" fill="white"/>
<rect x="2.58203" y="2.5" width="145" height="145" rx="7.5" fill="url(#paint0_linear_14_11581)" fill-opacity="0.2"/>
<g id="Group">
<path id="Vector" d="M25.082 55.8696V94.1305C25.082 96.7718 27.319 98.9131 30.082 98.9131H120.082C122.845 98.9131 125.082 96.7718 125.082 94.1305V55.8696C125.082 53.2283 122.845 51.087 120.082 51.087H30.082C27.319 51.087 25.082 53.2283 25.082 55.8696Z" fill="#50E6FF"/>
<path id="Vector_2" d="M47.9054 88.0434C49.7063 88.0434 51.1663 86.5835 51.1663 84.7825C51.1663 82.9816 49.7063 81.5217 47.9054 81.5217C46.1045 81.5217 44.6445 82.9816 44.6445 84.7825C44.6445 86.5835 46.1045 88.0434 47.9054 88.0434Z" fill="#184F85"/>
<path id="Vector_3" d="M37.0304 88.0434C38.8313 88.0434 40.2913 86.5835 40.2913 84.7825C40.2913 82.9816 38.8313 81.5217 37.0304 81.5217C35.2295 81.5217 33.7695 82.9816 33.7695 84.7825C33.7695 86.5835 35.2295 88.0434 37.0304 88.0434Z" fill="#184F85"/>
<path id="Vector_4" d="M58.7804 88.0434C60.5813 88.0434 62.0413 86.5835 62.0413 84.7825C62.0413 82.9816 60.5813 81.5217 58.7804 81.5217C56.9795 81.5217 55.5195 82.9816 55.5195 84.7825C55.5195 86.5835 56.9795 88.0434 58.7804 88.0434Z" fill="#184F85"/>
</g>
<rect x="2.58203" y="2.5" width="145" height="145" rx="7.5" stroke="#D5EAF6" stroke-width="5"/>
</g>
<defs>
<linearGradient id="paint0_linear_14_11581" x1="75.082" y1="5" x2="75.082" y2="145" gradientUnits="userSpaceOnUse">
<stop stop-color="#199AE0"/>
<stop offset="0.472222" stop-color="#0D5176" stop-opacity="0.527778"/>
<stop offset="0.940972" stop-color="#12A6F7" stop-opacity="0.465278"/>
<stop offset="1" stop-opacity="0"/>
</linearGradient>
</defs>
</svg>
