<svg width="151" height="150" viewBox="0 0 151 150" fill="none" xmlns="http://www.w3.org/2000/svg">
<g id="ticket-booth">
<rect x="2.58203" y="2.5" width="145" height="145" rx="7.5" fill="white"/>
<rect x="2.58203" y="2.5" width="145" height="145" rx="7.5" fill="url(#paint0_linear_14_11604)" fill-opacity="0.2"/>
<g id="Group">
<path id="Vector" d="M97.582 32.5H52.582V125H97.582V32.5Z" fill="url(#paint1_linear_14_11604)"/>
<path id="Vector_2" d="M52.582 32.5H40.082V125H52.582V32.5Z" fill="url(#paint2_linear_14_11604)"/>
<path id="Vector_3" d="M110.082 32.5H97.582V125H110.082V32.5Z" fill="url(#paint3_linear_14_11604)"/>
<path id="Vector_4" d="M92.582 42.5H57.582V77.5H92.582V42.5Z" fill="#50E6FF"/>
<path id="Vector_5" d="M52.582 42.5H40.082V77.5H52.582V42.5Z" fill="#45D5ED"/>
<path id="Vector_6" d="M110.082 42.5H97.582V77.5H110.082V42.5Z" fill="#45D5ED"/>
<path id="Vector_7" d="M110.082 32.5H40.082C37.3206 32.5 35.082 34.7386 35.082 37.5C35.082 40.2614 37.3206 42.5 40.082 42.5H110.082C112.843 42.5 115.082 40.2614 115.082 37.5C115.082 34.7386 112.843 32.5 110.082 32.5Z" fill="url(#paint4_linear_14_11604)"/>
<path id="Vector_8" d="M97.5785 32.8125C95.0785 28.75 86.3285 25 75.0785 25C63.8285 25 55.0785 28.75 52.5785 32.8125C50.3172 36.4872 62.6521 40.625 75.0785 40.625C87.5049 40.625 99.8398 36.4872 97.5785 32.8125Z" fill="url(#paint5_linear_14_11604)"/>
<path id="Vector_9" d="M75.082 64.9999C77.0712 64.9999 78.9788 65.7901 80.3853 67.1966C81.7919 68.6031 82.582 70.5108 82.582 72.4999V77.4999H67.582V72.4999C67.582 70.5108 68.3722 68.6031 69.7787 67.1966C71.1853 65.7901 73.0929 64.9999 75.082 64.9999Z" fill="url(#paint6_linear_14_11604)"/>
<path id="Vector_10" opacity="0.05" d="M84.0898 92.4999C84.3548 92.5006 84.6087 92.6062 84.7961 92.7935C84.9834 92.9808 85.089 93.2347 85.0898 93.4996V97.4999C84.4268 97.4999 83.7909 97.7633 83.3221 98.2321C82.8532 98.701 82.5898 99.3368 82.5898 99.9999C82.5898 100.663 82.8532 101.299 83.3221 101.768C83.7909 102.236 84.4268 102.5 85.0898 102.5V106.5C85.0891 106.765 84.9835 107.019 84.7961 107.206C84.6088 107.394 84.3548 107.499 84.0898 107.5H66.0898C65.9585 107.5 65.8284 107.474 65.7071 107.424C65.5858 107.374 65.4755 107.3 65.3826 107.207C65.2898 107.114 65.2161 107.004 65.1659 106.883C65.1156 106.761 65.0898 106.631 65.0898 106.5V102.5C65.7529 102.5 66.3888 102.236 66.8576 101.768C67.3265 101.299 67.5898 100.663 67.5898 99.9999C67.5898 99.3368 67.3265 98.701 66.8576 98.2321C66.3888 97.7633 65.7529 97.4999 65.0898 97.4999V93.4996C65.0898 93.3683 65.1157 93.2383 65.1659 93.1169C65.2162 92.9956 65.2898 92.8854 65.3827 92.7925C65.4756 92.6997 65.5858 92.6261 65.7071 92.5758C65.8285 92.5256 65.9585 92.4998 66.0898 92.4999H84.0898M84.0898 89.9999H66.0898C65.1619 90.0009 64.2723 90.3699 63.6162 91.026C62.96 91.6821 62.5909 92.5717 62.5898 93.4996V106.5C62.5909 107.428 62.96 108.317 63.6161 108.974C64.2723 109.63 65.1619 109.999 66.0898 110H84.0898C85.0178 109.999 85.9074 109.63 86.5635 108.974C87.2197 108.317 87.5888 107.428 87.5898 106.5V99.9999V93.4996C87.5888 92.5717 87.2197 91.6821 86.5635 91.026C85.9074 90.3699 85.0178 90.0009 84.0898 89.9999Z" fill="black"/>
<path id="Vector_11" opacity="0.07" d="M84.082 92.5C84.347 92.5007 84.6009 92.6063 84.7882 92.7936C84.9756 92.9809 85.0812 93.2348 85.082 93.4998V97.5C84.419 97.5 83.7831 97.7634 83.3143 98.2322C82.8454 98.7011 82.582 99.337 82.582 100C82.582 100.663 82.8454 101.299 83.3143 101.768C83.7831 102.237 84.419 102.5 85.082 102.5V106.5C85.0813 106.765 84.9757 107.019 84.7883 107.206C84.6009 107.394 84.347 107.499 84.082 107.5H66.082C65.9507 107.5 65.8206 107.474 65.6993 107.424C65.5779 107.374 65.4677 107.3 65.3748 107.207C65.2819 107.114 65.2083 107.004 65.158 106.883C65.1078 106.761 65.082 106.631 65.082 106.5V102.5C65.7451 102.5 66.381 102.237 66.8498 101.768C67.3186 101.299 67.582 100.663 67.582 100C67.582 99.337 67.3186 98.7011 66.8498 98.2322C66.381 97.7634 65.7451 97.5 65.082 97.5V93.4998C65.082 93.3684 65.1078 93.2384 65.1581 93.1171C65.2083 92.9957 65.282 92.8855 65.3749 92.7927C65.4677 92.6998 65.578 92.6262 65.6993 92.576C65.8207 92.5258 65.9507 92.4999 66.082 92.5H84.082M84.082 91.25H66.082C65.4855 91.2507 64.9137 91.4879 64.4919 91.9097C64.0701 92.3314 63.8328 92.9033 63.832 93.4998V98.75H65.082C65.4136 98.75 65.7315 98.8817 65.9659 99.1161C66.2003 99.3505 66.332 99.6685 66.332 100C66.332 100.332 66.2003 100.649 65.9659 100.884C65.7315 101.118 65.4136 101.25 65.082 101.25H63.832V106.5C63.8327 107.097 64.07 107.668 64.4918 108.09C64.9136 108.512 65.4855 108.749 66.082 108.75H84.082C84.6785 108.749 85.2504 108.512 85.6722 108.09C86.094 107.668 86.3313 107.097 86.332 106.5V101.25H85.082C84.7505 101.25 84.4326 101.118 84.1981 100.884C83.9637 100.649 83.832 100.332 83.832 100C83.832 99.6685 83.9637 99.3505 84.1981 99.1161C84.4326 98.8817 84.7505 98.75 85.082 98.75H86.332V93.4998C86.3313 92.9033 86.094 92.3314 85.6722 91.9097C85.2504 91.4879 84.6785 91.2507 84.082 91.25V91.25Z" fill="black"/>
<path id="Vector_12" d="M82.582 100C82.582 99.337 82.8454 98.7011 83.3143 98.2322C83.7831 97.7634 84.419 97.5 85.082 97.5V93.4998C85.0812 93.2348 84.9756 92.9809 84.7882 92.7936C84.6009 92.6063 84.347 92.5007 84.082 92.5H66.082C65.9507 92.4999 65.8207 92.5258 65.6993 92.576C65.578 92.6262 65.4677 92.6998 65.3749 92.7927C65.282 92.8855 65.2083 92.9957 65.1581 93.1171C65.1078 93.2384 65.082 93.3684 65.082 93.4998V97.5C65.7451 97.5 66.381 97.7634 66.8498 98.2322C67.3186 98.7011 67.582 99.337 67.582 100C67.582 100.663 67.3186 101.299 66.8498 101.768C66.381 102.237 65.7451 102.5 65.082 102.5V106.5C65.082 106.631 65.1078 106.761 65.158 106.883C65.2083 107.004 65.2819 107.114 65.3748 107.207C65.4677 107.3 65.5779 107.374 65.6993 107.424C65.8206 107.474 65.9507 107.5 66.082 107.5H84.082C84.347 107.499 84.6009 107.394 84.7883 107.206C84.9757 107.019 85.0813 106.765 85.082 106.5V102.5C84.419 102.5 83.7831 102.237 83.3143 101.768C82.8454 101.299 82.582 100.663 82.582 100Z" fill="white"/>
</g>
<rect x="2.58203" y="2.5" width="145" height="145" rx="7.5" stroke="#D5EAF6" stroke-width="5"/>
</g>
<defs>
<linearGradient id="paint0_linear_14_11604" x1="75.082" y1="5" x2="75.082" y2="145" gradientUnits="userSpaceOnUse">
<stop stop-color="#199AE0"/>
<stop offset="0.472222" stop-color="#0D5176" stop-opacity="0.527778"/>
<stop offset="0.940972" stop-color="#12A6F7" stop-opacity="0.465278"/>
<stop offset="1" stop-opacity="0"/>
</linearGradient>
<linearGradient id="paint1_linear_14_11604" x1="52.5545" y1="16.8575" x2="104.682" y2="160.073" gradientUnits="userSpaceOnUse">
<stop stop-color="#32BDEF"/>
<stop offset="1" stop-color="#1EA2E4"/>
</linearGradient>
<linearGradient id="paint2_linear_14_11604" x1="40.082" y1="78.75" x2="52.582" y2="78.75" gradientUnits="userSpaceOnUse">
<stop stop-color="#3079D6"/>
<stop offset="1" stop-color="#297CD2"/>
</linearGradient>
<linearGradient id="paint3_linear_14_11604" x1="97.582" y1="15" x2="110.082" y2="15" gradientUnits="userSpaceOnUse">
<stop stop-color="#3079D6"/>
<stop offset="1" stop-color="#297CD2"/>
</linearGradient>
<linearGradient id="paint4_linear_14_11604" x1="62.567" y1="3.1175" x2="143.692" y2="226.008" gradientUnits="userSpaceOnUse">
<stop stop-color="#32BDEF"/>
<stop offset="1" stop-color="#1EA2E4"/>
</linearGradient>
<linearGradient id="paint5_linear_14_11604" x1="67.246" y1="12.1925" x2="129.389" y2="182.932" gradientUnits="userSpaceOnUse">
<stop stop-color="#32BDEF"/>
<stop offset="1" stop-color="#1EA2E4"/>
</linearGradient>
<linearGradient id="paint6_linear_14_11604" x1="67.582" y1="71.2499" x2="82.582" y2="71.2499" gradientUnits="userSpaceOnUse">
<stop stop-color="#3079D6"/>
<stop offset="1" stop-color="#297CD2"/>
</linearGradient>
</defs>
</svg>
