<svg width="151" height="150" viewBox="0 0 151 150" fill="none" xmlns="http://www.w3.org/2000/svg">
<g id="time-card">
<rect x="2.58203" y="2.5" width="145" height="145" rx="7.5" fill="white"/>
<rect x="2.58203" y="2.5" width="145" height="145" rx="7.5" fill="url(#paint0_linear_14_11618)" fill-opacity="0.2"/>
<g id="Group">
<path id="Vector" d="M117.188 125H32.978C30.0833 125 27.7148 122.632 27.7148 119.737V59.2107C27.7148 56.3159 30.0833 53.9475 32.978 53.9475H117.188C120.083 53.9475 122.452 56.3159 122.452 59.2107V119.737C122.452 122.632 120.083 125 117.188 125Z" fill="url(#paint1_linear_14_11618)"/>
<path id="Vector_2" d="M109.291 59.2107H40.8699C39.4172 59.2107 38.2383 58.0317 38.2383 56.5791V53.9475H111.922V56.5791C111.922 58.0317 110.743 59.2107 109.291 59.2107Z" fill="#586067"/>
<path id="Vector_3" d="M106.662 30.2632V59.2105H43.5039V30.2632C43.5039 27.3553 45.8592 25 48.7671 25H101.399C104.306 25 106.662 27.3553 106.662 30.2632Z" fill="url(#paint2_linear_14_11618)"/>
<path id="Vector_4" d="M75.0919 119.737C91.0791 119.737 104.039 106.777 104.039 90.7895C104.039 74.8023 91.0791 61.8422 75.0919 61.8422C59.1047 61.8422 46.1445 74.8023 46.1445 90.7895C46.1445 106.777 59.1047 119.737 75.0919 119.737Z" fill="url(#paint3_radial_14_11618)"/>
<path id="Vector_5" d="M75.087 116.521C89.2982 116.521 100.819 105.001 100.819 90.7894C100.819 76.5783 89.2982 65.0579 75.087 65.0579C60.8759 65.0579 49.3555 76.5783 49.3555 90.7894C49.3555 105.001 60.8759 116.521 75.087 116.521Z" fill="url(#paint4_radial_14_11618)"/>
<path id="Vector_6" d="M84.4812 109.018C83.8891 109.324 83.1628 109.089 82.8575 108.497L74.0207 91.342C73.7154 90.7499 73.9497 90.0236 74.5418 89.7183C75.1339 89.4131 75.8602 89.6473 76.1654 90.2394L85.0023 107.395C85.3049 107.987 85.0733 108.713 84.4812 109.018Z" fill="#D83B01"/>
<path id="Vector_7" d="M75.0848 91.9948C74.7743 91.9948 74.4664 91.8763 74.2322 91.6421C73.7611 91.1711 73.7611 90.4079 74.2322 89.9369L87.8769 76.2921C88.348 75.8211 89.1111 75.8211 89.5822 76.2921C90.0532 76.7632 90.0532 77.5263 89.5822 77.9974L75.9375 91.6421C75.7032 91.879 75.3954 91.9948 75.0848 91.9948Z" fill="#45494D"/>
<path id="Vector_8" d="M75.0838 92.8001C74.7917 92.8001 74.497 92.737 74.2154 92.6027L61.6917 86.5949C60.6917 86.1133 60.268 84.9133 60.7496 83.9133C61.2312 82.9133 62.4312 82.4896 63.4312 82.9712L75.9549 88.9791C76.9549 89.4606 77.3785 90.6606 76.897 91.6606C76.5522 92.3791 75.8338 92.8001 75.0838 92.8001Z" fill="#45494D"/>
<path id="Vector_9" d="M75.0791 94.0051C76.8551 94.0051 78.2949 92.5653 78.2949 90.7893C78.2949 89.0132 76.8551 87.5735 75.0791 87.5735C73.303 87.5735 71.8633 89.0132 71.8633 90.7893C71.8633 92.5653 73.303 94.0051 75.0791 94.0051Z" fill="#1E2021"/>
<path id="Vector_10" d="M90.8756 48.6842H69.823C68.3704 48.6842 67.1914 49.8632 67.1914 51.3158C67.1914 52.7684 68.3704 53.9474 69.823 53.9474H90.8756C92.3282 53.9474 93.5072 52.7684 93.5072 51.3158C93.5072 49.8632 92.3282 48.6842 90.8756 48.6842Z" fill="#057093"/>
<path id="Vector_11" d="M59.2917 53.9474C60.7451 53.9474 61.9233 52.7692 61.9233 51.3158C61.9233 49.8624 60.7451 48.6842 59.2917 48.6842C57.8384 48.6842 56.6602 49.8624 56.6602 51.3158C56.6602 52.7692 57.8384 53.9474 59.2917 53.9474Z" fill="#057093"/>
<path id="Vector_12" d="M90.8756 38.158H69.823C68.3704 38.158 67.1914 39.3369 67.1914 40.7895C67.1914 42.2422 68.3704 43.4211 69.823 43.4211H90.8756C92.3282 43.4211 93.5072 42.2422 93.5072 40.7895C93.5072 39.3369 92.3282 38.158 90.8756 38.158Z" fill="#057093"/>
<path id="Vector_13" d="M59.2917 43.4211C60.7451 43.4211 61.9233 42.2429 61.9233 40.7895C61.9233 39.3362 60.7451 38.158 59.2917 38.158C57.8384 38.158 56.6602 39.3362 56.6602 40.7895C56.6602 42.2429 57.8384 43.4211 59.2917 43.4211Z" fill="#057093"/>
</g>
<rect x="2.58203" y="2.5" width="145" height="145" rx="7.5" stroke="#D5EAF6" stroke-width="5"/>
</g>
<defs>
<linearGradient id="paint0_linear_14_11618" x1="75.082" y1="5" x2="75.082" y2="145" gradientUnits="userSpaceOnUse">
<stop stop-color="#199AE0"/>
<stop offset="0.472222" stop-color="#0D5176" stop-opacity="0.527778"/>
<stop offset="0.940972" stop-color="#12A6F7" stop-opacity="0.465278"/>
<stop offset="1" stop-opacity="0"/>
</linearGradient>
<linearGradient id="paint1_linear_14_11618" x1="72.6227" y1="55.9712" x2="77.8385" y2="127.008" gradientUnits="userSpaceOnUse">
<stop stop-color="#889097"/>
<stop offset="1" stop-color="#64717C"/>
</linearGradient>
<linearGradient id="paint2_linear_14_11618" x1="75.0828" y1="25.2289" x2="75.0828" y2="59.4395" gradientUnits="userSpaceOnUse">
<stop offset="0.647" stop-color="#50E6FF"/>
<stop offset="1" stop-color="#2AB1C7"/>
</linearGradient>
<radialGradient id="paint3_radial_14_11618" cx="0" cy="0" r="1" gradientUnits="userSpaceOnUse" gradientTransform="translate(75.0919 90.7895) scale(28.9474)">
<stop/>
<stop offset="1" stop-opacity="0"/>
</radialGradient>
<radialGradient id="paint4_radial_14_11618" cx="0" cy="0" r="1" gradientUnits="userSpaceOnUse" gradientTransform="translate(74.9212 65.6552) scale(57.3394 57.3394)">
<stop stop-color="#FAFAFB"/>
<stop offset="1" stop-color="#C8CDD1"/>
</radialGradient>
</defs>
</svg>
