<svg width="151" height="150" viewBox="0 0 151 150" fill="none" xmlns="http://www.w3.org/2000/svg">
<g id="timetable">
<rect x="2.58203" y="2.5" width="145" height="145" rx="7.5" fill="white"/>
<rect x="2.58203" y="2.5" width="145" height="145" rx="7.5" fill="url(#paint0_linear_14_11700)" fill-opacity="0.2"/>
<g id="Group">
<path id="Vector" d="M27.3555 106.818V43.1819H109.174V106.818C109.167 109.325 107.135 111.357 104.628 111.364H31.9009C29.3941 111.357 27.3623 109.325 27.3555 106.818Z" fill="url(#paint1_linear_14_11700)"/>
<path id="Vector_2" d="M109.174 34.0909V47.7272H27.3555V34.0909C27.3623 31.584 29.3941 29.5522 31.9009 29.5454H104.628C107.135 29.5522 109.167 31.584 109.174 34.0909Z" fill="url(#paint2_linear_14_11700)"/>
<path id="Vector_3" opacity="0.05" d="M94.408 44.3181C90.6421 44.3181 87.5898 41.2659 87.5898 37.5V29.5454H101.226V37.5C101.226 41.2659 98.1739 44.3181 94.408 44.3181Z" fill="black"/>
<path id="Vector_4" opacity="0.07" d="M94.4066 42.6136C91.5839 42.6136 89.293 40.325 89.293 37.5022V37.5V29.5454H99.5202V37.5C99.5202 40.3227 97.2316 42.6136 94.4066 42.6136C94.4066 42.6136 94.4089 42.6136 94.4066 42.6136Z" fill="black"/>
<path id="Vector_5" opacity="0.05" d="M42.1268 44.3181C38.3609 44.3181 35.3086 41.2659 35.3086 37.5V29.5454H48.945V37.5C48.945 41.2659 45.8927 44.3181 42.1268 44.3181Z" fill="black"/>
<path id="Vector_6" opacity="0.07" d="M42.1254 42.6136C39.3026 42.6136 37.0117 40.325 37.0117 37.5022V37.5V29.5454H47.239V37.5C47.239 40.3227 44.9504 42.6136 42.1254 42.6136C42.1254 42.6136 42.1276 42.6136 42.1254 42.6136Z" fill="black"/>
<path id="Vector_7" d="M42.1239 40.9091C40.2421 40.9091 38.7148 39.3818 38.7148 37.5V28.4091C38.7148 26.5273 40.2421 25 42.1239 25C44.0058 25 45.533 26.5273 45.533 28.4091V37.5C45.533 39.3818 44.0058 40.9091 42.1239 40.9091Z" fill="#3CCBF4"/>
<path id="Vector_8" d="M92.1325 59.0909H98.9506C99.5779 59.0909 100.087 59.6 100.087 60.2273V67.0455C100.087 67.6728 99.5779 68.1819 98.9506 68.1819H92.1325C91.5052 68.1819 90.9961 67.6728 90.9961 67.0455V60.2273C90.9961 59.6 91.5052 59.0909 92.1325 59.0909Z" fill="#E52030"/>
<path id="Vector_9" d="M92.1325 90.9089H98.9506C99.5779 90.9089 100.087 91.418 100.087 92.0453V98.8635C100.087 99.4908 99.5779 99.9998 98.9506 99.9998H92.1325C91.5052 99.9998 90.9961 99.4908 90.9961 98.8635V92.0453C90.9961 91.418 91.5052 90.9089 92.1325 90.9089Z" fill="white"/>
<path id="Vector_10" d="M73.945 59.0909H80.7631C81.3904 59.0909 81.8995 59.6 81.8995 60.2273V67.0455C81.8995 67.6728 81.3904 68.1819 80.7631 68.1819H73.945C73.3177 68.1819 72.8086 67.6728 72.8086 67.0455V60.2273C72.8086 59.6 73.3177 59.0909 73.945 59.0909Z" fill="#E52030"/>
<path id="Vector_11" d="M55.7575 59.0909H62.5756C63.2029 59.0909 63.712 59.6 63.712 60.2273V67.0455C63.712 67.6728 63.2029 68.1819 62.5756 68.1819H55.7575C55.1302 68.1819 54.6211 67.6728 54.6211 67.0455V60.2273C54.6211 59.6 55.1302 59.0909 55.7575 59.0909Z" fill="#E52030"/>
<path id="Vector_12" d="M37.5856 59.0909H44.4038C45.031 59.0909 45.5401 59.6 45.5401 60.2273V67.0455C45.5401 67.6728 45.031 68.1819 44.4038 68.1819H37.5856C36.9583 68.1819 36.4492 67.6728 36.4492 67.0455V60.2273C36.4492 59.6 36.9583 59.0909 37.5856 59.0909Z" fill="#E52030"/>
<path id="Vector_13" d="M73.945 75H80.7631C81.3904 75 81.8995 75.5091 81.8995 76.1364V82.9545C81.8995 83.5818 81.3904 84.0909 80.7631 84.0909H73.945C73.3177 84.0909 72.8086 83.5818 72.8086 82.9545V76.1364C72.8086 75.5091 73.3177 75 73.945 75Z" fill="white"/>
<path id="Vector_14" d="M73.945 90.9089H80.7631C81.3904 90.9089 81.8995 91.418 81.8995 92.0453V98.8635C81.8995 99.4908 81.3904 99.9998 80.7631 99.9998H73.945C73.3177 99.9998 72.8086 99.4908 72.8086 98.8635V92.0453C72.8086 91.418 73.3177 90.9089 73.945 90.9089Z" fill="white"/>
<path id="Vector_15" d="M92.1325 75H98.9506C99.5779 75 100.087 75.5091 100.087 76.1364V82.9545C100.087 83.5818 99.5779 84.0909 98.9506 84.0909H92.1325C91.5052 84.0909 90.9961 83.5818 90.9961 82.9545V76.1364C90.9961 75.5091 91.5052 75 92.1325 75Z" fill="white"/>
<path id="Vector_16" d="M55.7575 75H62.5756C63.2029 75 63.712 75.5091 63.712 76.1364V82.9545C63.712 83.5818 63.2029 84.0909 62.5756 84.0909H55.7575C55.1302 84.0909 54.6211 83.5818 54.6211 82.9545V76.1364C54.6211 75.5091 55.1302 75 55.7575 75Z" fill="white"/>
<path id="Vector_17" d="M37.5856 75H44.4038C45.031 75 45.5401 75.5091 45.5401 76.1364V82.9545C45.5401 83.5818 45.031 84.0909 44.4038 84.0909H37.5856C36.9583 84.0909 36.4492 83.5818 36.4492 82.9545V76.1364C36.4492 75.5091 36.9583 75 37.5856 75Z" fill="white"/>
<path id="Vector_18" d="M55.7575 90.9089H62.5756C63.2029 90.9089 63.712 91.418 63.712 92.0453V98.8635C63.712 99.4908 63.2029 99.9998 62.5756 99.9998H55.7575C55.1302 99.9998 54.6211 99.4908 54.6211 98.8635V92.0453C54.6211 91.418 55.1302 90.9089 55.7575 90.9089Z" fill="white"/>
<path id="Vector_19" d="M37.5856 90.9089H44.4038C45.031 90.9089 45.5401 91.418 45.5401 92.0453V98.8635C45.5401 99.4908 45.031 99.9998 44.4038 99.9998H37.5856C36.9583 99.9998 36.4492 99.4908 36.4492 98.8635V92.0453C36.4492 91.418 36.9583 90.9089 37.5856 90.9089Z" fill="white"/>
<path id="Vector_20" d="M94.4052 40.9091C92.5234 40.9091 90.9961 39.3818 90.9961 37.5V28.4091C90.9961 26.5273 92.5234 25 94.4052 25C96.287 25 97.8143 26.5273 97.8143 28.4091V37.5C97.8143 39.3818 96.287 40.9091 94.4052 40.9091Z" fill="#3CCBF4"/>
<path id="Vector_21" opacity="0.2" d="M105.131 111.364C107.361 111.357 109.165 109.552 109.172 107.323V76.7864C106.215 75.6591 103.029 75 99.6768 75C84.8381 75 72.8086 87.0295 72.8086 101.868C72.8086 105.22 73.4677 108.407 74.595 111.364H105.131Z" fill="url(#paint3_radial_14_11700)"/>
<path id="Vector_22" d="M100.083 125C112.635 125 122.81 114.825 122.81 102.273C122.81 89.7208 112.635 79.5454 100.083 79.5454C87.5308 79.5454 77.3555 89.7208 77.3555 102.273C77.3555 114.825 87.5308 125 100.083 125Z" fill="url(#paint4_linear_14_11700)"/>
<path id="Vector_23" d="M100.092 120.455C110.134 120.455 118.274 112.314 118.274 102.273C118.274 92.2312 110.134 84.0909 100.092 84.0909C90.0504 84.0909 81.9102 92.2312 81.9102 102.273C81.9102 112.314 90.0504 120.455 100.092 120.455Z" fill="url(#paint5_radial_14_11700)"/>
<path id="Vector_24" d="M106.678 115.227C106.224 115.454 105.769 115.227 105.542 114.773L99.4056 102.727C99.1783 102.273 99.4056 101.818 99.8601 101.591C100.315 101.363 100.769 101.591 100.996 102.045L107.133 114.091C107.36 114.318 107.133 115 106.678 115.227Z" fill="#D83B01"/>
<path id="Vector_25" d="M100.083 103.182C99.8555 103.182 99.6282 103.182 99.4009 102.954C99.1737 102.727 99.1737 102.045 99.4009 101.818L108.946 92.2726C109.174 92.0454 109.855 92.0454 110.083 92.2726C110.31 92.4999 110.31 93.1817 110.083 93.409L100.537 102.954C100.537 102.954 100.31 103.182 100.083 103.182Z" fill="#45494D"/>
<path id="Vector_26" d="M100.082 103.636C99.8548 103.636 99.6275 103.636 99.4002 103.409L90.5366 99.091C89.8548 98.8637 89.6275 97.9546 89.8548 97.2728C90.082 96.591 90.9911 96.3637 91.6729 96.591L100.537 100.909C101.218 101.136 101.446 102.046 101.218 102.727C101.218 103.409 100.537 103.636 100.082 103.636Z" fill="#45494D"/>
<path id="Vector_27" d="M100.081 104.545C101.337 104.545 102.354 103.528 102.354 102.273C102.354 101.018 101.337 100 100.081 100C98.8261 100 97.8086 101.018 97.8086 102.273C97.8086 103.528 98.8261 104.545 100.081 104.545Z" fill="#1E2021"/>
</g>
<rect x="2.58203" y="2.5" width="145" height="145" rx="7.5" stroke="#D5EAF6" stroke-width="5"/>
</g>
<defs>
<linearGradient id="paint0_linear_14_11700" x1="75.082" y1="5" x2="75.082" y2="145" gradientUnits="userSpaceOnUse">
<stop stop-color="#199AE0"/>
<stop offset="0.472222" stop-color="#0D5176" stop-opacity="0.527778"/>
<stop offset="0.940972" stop-color="#12A6F7" stop-opacity="0.465278"/>
<stop offset="1" stop-opacity="0"/>
</linearGradient>
<linearGradient id="paint1_linear_14_11700" x1="28.2964" y1="46.9592" x2="108.66" y2="105.655" gradientUnits="userSpaceOnUse">
<stop stop-color="#A8E2F7"/>
<stop offset="1" stop-color="#47C1FF"/>
</linearGradient>
<linearGradient id="paint2_linear_14_11700" x1="28.31" y1="30.9272" x2="107.351" y2="47" gradientUnits="userSpaceOnUse">
<stop stop-color="#0077D2"/>
<stop offset="1" stop-color="#0B59A2"/>
</linearGradient>
<radialGradient id="paint3_radial_14_11700" cx="0" cy="0" r="1" gradientUnits="userSpaceOnUse" gradientTransform="translate(99.1541 101.564) scale(25.5318 25.5318)">
<stop offset="0.847"/>
<stop offset="1" stop-opacity="0"/>
</radialGradient>
<linearGradient id="paint4_linear_14_11700" x1="84.0123" y1="86.2022" x2="116.153" y2="118.343" gradientUnits="userSpaceOnUse">
<stop stop-color="#889097"/>
<stop offset="1" stop-color="#64717C"/>
</linearGradient>
<radialGradient id="paint5_radial_14_11700" cx="0" cy="0" r="1" gradientUnits="userSpaceOnUse" gradientTransform="translate(99.9738 84.5137) scale(40.5182 40.5182)">
<stop stop-color="#FAFAFB"/>
<stop offset="1" stop-color="#C8CDD1"/>
</radialGradient>
</defs>
</svg>
