<svg width="151" height="150" viewBox="0 0 151 150" fill="none" xmlns="http://www.w3.org/2000/svg">
<g id="timer">
<rect x="2.58203" y="2.5" width="145" height="145" rx="7.5" fill="white"/>
<rect x="2.58203" y="2.5" width="145" height="145" rx="7.5" fill="url(#paint0_linear_14_11674)" fill-opacity="0.2"/>
<g id="Group">
<path id="Vector" d="M75.082 125C102.696 125 125.082 102.614 125.082 75C125.082 47.3858 102.696 25 75.082 25C47.4678 25 25.082 47.3858 25.082 75C25.082 102.614 47.4678 125 75.082 125Z" fill="url(#paint1_linear_14_11674)"/>
<path id="Vector_2" opacity="0.15" d="M75.082 121.25C100.625 121.25 121.332 100.543 121.332 75C121.332 49.4568 100.625 28.75 75.082 28.75C49.5389 28.75 28.832 49.4568 28.832 75C28.832 100.543 49.5389 121.25 75.082 121.25Z" fill="url(#paint2_radial_14_11674)"/>
<path id="Vector_3" d="M75.082 117.5C98.5541 117.5 117.582 98.4721 117.582 75C117.582 51.5279 98.5541 32.5 75.082 32.5C51.6099 32.5 32.582 51.5279 32.582 75C32.582 98.4721 51.6099 117.5 75.082 117.5Z" fill="url(#paint3_radial_14_11674)"/>
<path id="Vector_4" d="M75.072 75V32.5C63.337 32.5 52.712 37.2575 45.0195 44.9475L75.072 75Z" fill="#6EEBFF"/>
<path id="Vector_5" d="M70.1602 32.8075L75.0802 42.5L80.0002 32.8075C78.3827 32.62 76.7477 32.5 75.0802 32.5C73.4127 32.5 71.7777 32.62 70.1602 32.8075Z" fill="url(#paint4_linear_14_11674)"/>
<g id="Group_2">
<path id="Vector_6" d="M78.6211 78.5401C76.6661 80.4901 73.5011 80.4876 71.5511 78.5326C69.6011 76.5776 47.6211 47.4701 47.6211 47.4701C47.6211 47.4701 76.6811 69.5151 78.6311 71.4701C80.5811 73.4251 80.5736 76.5901 78.6211 78.5401Z" fill="url(#paint5_linear_14_11674)"/>
</g>
</g>
<rect x="2.58203" y="2.5" width="145" height="145" rx="7.5" stroke="#D5EAF6" stroke-width="5"/>
</g>
<defs>
<linearGradient id="paint0_linear_14_11674" x1="75.082" y1="5" x2="75.082" y2="145" gradientUnits="userSpaceOnUse">
<stop stop-color="#199AE0"/>
<stop offset="0.472222" stop-color="#0D5176" stop-opacity="0.527778"/>
<stop offset="0.940972" stop-color="#12A6F7" stop-opacity="0.465278"/>
<stop offset="1" stop-opacity="0"/>
</linearGradient>
<linearGradient id="paint1_linear_14_11674" x1="39.727" y1="39.645" x2="110.437" y2="110.355" gradientUnits="userSpaceOnUse">
<stop stop-color="#889097"/>
<stop offset="1" stop-color="#64717C"/>
</linearGradient>
<radialGradient id="paint2_radial_14_11674" cx="0" cy="0" r="1" gradientUnits="userSpaceOnUse" gradientTransform="translate(75.082 75) scale(46.25)">
<stop/>
<stop offset="0.978" stop-opacity="0.022"/>
<stop offset="1" stop-opacity="0"/>
</radialGradient>
<radialGradient id="paint3_radial_14_11674" cx="0" cy="0" r="1" gradientUnits="userSpaceOnUse" gradientTransform="translate(74.807 33.485) scale(94.7075)">
<stop stop-color="#FAFAFB"/>
<stop offset="1" stop-color="#C8CDD1"/>
</radialGradient>
<linearGradient id="paint4_linear_14_11674" x1="70.1602" y1="37.5" x2="80.0002" y2="37.5" gradientUnits="userSpaceOnUse">
<stop stop-color="#1D59B3"/>
<stop offset="1" stop-color="#195BBC"/>
</linearGradient>
<linearGradient id="paint5_linear_14_11674" x1="63.8697" y1="47.488" x2="63.8329" y2="79.9866" gradientUnits="userSpaceOnUse">
<stop stop-color="#889097"/>
<stop offset="1" stop-color="#444D54"/>
</linearGradient>
</defs>
</svg>
