<svg width="151" height="150" viewBox="0 0 151 150" fill="none" xmlns="http://www.w3.org/2000/svg">
<g id="to-do">
<rect x="2.58203" y="2.5" width="145" height="145" rx="7.5" fill="white"/>
<rect x="2.58203" y="2.5" width="145" height="145" rx="7.5" fill="url(#paint0_linear_14_11729)" fill-opacity="0.2"/>
<g id="Group">
<path id="Vector" d="M122.644 53.0511H66.5521C65.2107 53.0511 64.1133 51.9536 64.1133 50.6123V45.7347C64.1133 44.3934 65.2107 43.2959 66.5521 43.2959H122.644C123.986 43.2959 125.083 44.3934 125.083 45.7347V50.6123C125.083 51.9536 123.986 53.0511 122.644 53.0511Z" fill="url(#paint1_linear_14_11729)"/>
<path id="Vector_2" d="M34.2531 57.302L25.7076 48.7565C24.8735 47.9224 24.8735 46.5689 25.7076 45.7348L28.7292 42.7132C29.5633 41.8791 30.9168 41.8791 31.7509 42.7132L35.7652 46.7274L48.3274 34.1652C49.1614 33.3311 50.515 33.3311 51.349 34.1652L54.3707 37.1869C55.2048 38.0209 55.2048 39.3745 54.3707 40.2085L37.2748 57.302C36.4407 58.1385 35.0872 58.1385 34.2531 57.302Z" fill="#42A4EB"/>
<path id="Vector_3" d="M122.644 82.3166H66.5521C65.2107 82.3166 64.1133 81.2192 64.1133 79.8778V75.0003C64.1133 73.6589 65.2107 72.5615 66.5521 72.5615H122.644C123.986 72.5615 125.083 73.6589 125.083 75.0003V79.8778C125.083 81.2192 123.986 82.3166 122.644 82.3166Z" fill="url(#paint2_linear_14_11729)"/>
<path id="Vector_4" d="M34.2531 86.5675L25.7076 78.022C24.8735 77.1879 24.8735 75.8344 25.7076 75.0004L28.7292 71.9787C29.5633 71.1446 30.9168 71.1446 31.7509 71.9787L35.7652 75.9929L48.3274 63.4307C49.1614 62.5967 50.515 62.5967 51.349 63.4307L54.3707 66.4524C55.2048 67.2865 55.2048 68.64 54.3707 69.474L37.2748 86.5675C36.4407 87.404 35.0872 87.404 34.2531 86.5675Z" fill="#42A4EB"/>
<path id="Vector_5" d="M122.644 111.582H66.5521C65.2107 111.582 64.1133 110.485 64.1133 109.143V104.266C64.1133 102.924 65.2107 101.827 66.5521 101.827H122.644C123.986 101.827 125.083 102.924 125.083 104.266V109.143C125.083 110.485 123.986 111.582 122.644 111.582Z" fill="url(#paint3_linear_14_11729)"/>
<path id="Vector_6" d="M34.2531 115.833L25.7076 107.287C24.8735 106.453 24.8735 105.1 25.7076 104.266L28.7292 101.244C29.5633 100.41 30.9168 100.41 31.7509 101.244L35.7652 105.258L48.3274 92.6961C49.1614 91.8621 50.515 91.8621 51.349 92.6961L54.3707 95.7178C55.2048 96.5519 55.2048 97.9054 54.3707 98.7395L37.2748 115.833C36.4407 116.669 35.0872 116.669 34.2531 115.833Z" fill="#42A4EB"/>
</g>
<rect x="2.58203" y="2.5" width="145" height="145" rx="7.5" stroke="#D5EAF6" stroke-width="5"/>
</g>
<defs>
<linearGradient id="paint0_linear_14_11729" x1="75.082" y1="5" x2="75.082" y2="145" gradientUnits="userSpaceOnUse">
<stop stop-color="#199AE0"/>
<stop offset="0.472222" stop-color="#0D5176" stop-opacity="0.527778"/>
<stop offset="0.940972" stop-color="#12A6F7" stop-opacity="0.465278"/>
<stop offset="1" stop-opacity="0"/>
</linearGradient>
<linearGradient id="paint1_linear_14_11729" x1="76.8584" y1="30.4337" x2="110.787" y2="64.3622" gradientUnits="userSpaceOnUse">
<stop stop-color="#1D59B3"/>
<stop offset="1" stop-color="#195BBC"/>
</linearGradient>
<linearGradient id="paint2_linear_14_11729" x1="76.8584" y1="59.6993" x2="110.787" y2="93.6277" gradientUnits="userSpaceOnUse">
<stop stop-color="#1D59B3"/>
<stop offset="1" stop-color="#195BBC"/>
</linearGradient>
<linearGradient id="paint3_linear_14_11729" x1="76.8584" y1="88.9648" x2="110.787" y2="122.893" gradientUnits="userSpaceOnUse">
<stop stop-color="#1D59B3"/>
<stop offset="1" stop-color="#195BBC"/>
</linearGradient>
</defs>
</svg>
