<svg width="151" height="150" viewBox="0 0 151 150" fill="none" xmlns="http://www.w3.org/2000/svg">
<g id="trash-can">
<rect x="2.58203" y="2.5" width="145" height="145" rx="7.5" fill="white"/>
<rect x="2.58203" y="2.5" width="145" height="145" rx="7.5" fill="url(#paint0_linear_14_11744)" fill-opacity="0.2"/>
<g id="Group">
<path id="Vector" d="M102.685 25H47.4849C45.5414 25 43.767 26.0974 42.8978 27.8359L39.1875 35.2564H110.982L107.272 27.8359C106.403 26.0974 104.626 25 102.685 25Z" fill="#35C1F1"/>
<path id="Vector_2" d="M110.978 35.2563H39.1829C36.3496 35.2563 34.0547 37.5512 34.0547 40.3846V42.9487H116.106V40.3846C116.106 37.5512 113.811 35.2563 110.978 35.2563Z" fill="#50E6FF"/>
<path id="Vector_3" d="M112.25 42.9487H37.8906L42.0624 120.149C42.2086 122.869 44.4573 125 47.1829 125H102.957C105.683 125 107.932 122.869 108.078 120.149L112.25 42.9487Z" fill="url(#paint1_linear_14_11744)"/>
</g>
<rect x="2.58203" y="2.5" width="145" height="145" rx="7.5" stroke="#D5EAF6" stroke-width="5"/>
</g>
<defs>
<linearGradient id="paint0_linear_14_11744" x1="75.082" y1="5" x2="75.082" y2="145" gradientUnits="userSpaceOnUse">
<stop stop-color="#199AE0"/>
<stop offset="0.472222" stop-color="#0D5176" stop-opacity="0.527778"/>
<stop offset="0.940972" stop-color="#12A6F7" stop-opacity="0.465278"/>
<stop offset="1" stop-opacity="0"/>
</linearGradient>
<linearGradient id="paint1_linear_14_11744" x1="55.3599" y1="36.2667" x2="94.0086" y2="117.362" gradientUnits="userSpaceOnUse">
<stop stop-color="#2AA4F4"/>
<stop offset="1" stop-color="#007AD9"/>
</linearGradient>
</defs>
</svg>
