<svg width="151" height="150" viewBox="0 0 151 150" fill="none" xmlns="http://www.w3.org/2000/svg">
<g id="tree-structure">
<rect x="2.58203" y="2.5" width="145" height="145" rx="7.5" fill="white"/>
<rect x="2.58203" y="2.5" width="145" height="145" rx="7.5" fill="url(#paint0_linear_14_11749)" fill-opacity="0.2"/>
<g id="Group">
<path id="Vector" d="M56.0392 32.1428H51.2773V108.333C51.2773 112.279 54.475 115.476 58.4202 115.476H79.8488V110.714H58.4202C57.1059 110.714 56.0392 109.648 56.0392 108.333V77.3809H79.8488V72.619H56.0392V32.1428Z" fill="#64717C"/>
<path id="Vector_2" d="M70.3198 25H36.9864C35.6721 25 34.6055 26.0667 34.6055 27.381V46.4286C34.6055 47.7429 35.6721 48.8095 36.9864 48.8095H70.3198C71.634 48.8095 72.7007 47.7429 72.7007 46.4286V27.381C72.7007 26.0667 71.634 25 70.3198 25Z" fill="url(#paint1_linear_14_11749)"/>
<path id="Vector_3" d="M113.179 63.0952H79.8458C78.5315 63.0952 77.4648 64.1619 77.4648 65.4762V84.5238C77.4648 85.8381 78.5315 86.9047 79.8458 86.9047H113.179C114.493 86.9047 115.56 85.8381 115.56 84.5238V65.4762C115.56 64.1619 114.493 63.0952 113.179 63.0952Z" fill="url(#paint2_linear_14_11749)"/>
<path id="Vector_4" d="M113.179 101.19H79.8458C78.5315 101.19 77.4648 102.257 77.4648 103.571V122.619C77.4648 123.933 78.5315 125 79.8458 125H113.179C114.493 125 115.56 123.933 115.56 122.619V103.571C115.56 102.257 114.493 101.19 113.179 101.19Z" fill="url(#paint3_linear_14_11749)"/>
</g>
<rect x="2.58203" y="2.5" width="145" height="145" rx="7.5" stroke="#D5EAF6" stroke-width="5"/>
</g>
<defs>
<linearGradient id="paint0_linear_14_11749" x1="75.082" y1="5" x2="75.082" y2="145" gradientUnits="userSpaceOnUse">
<stop stop-color="#199AE0"/>
<stop offset="0.472222" stop-color="#0D5176" stop-opacity="0.527778"/>
<stop offset="0.940972" stop-color="#12A6F7" stop-opacity="0.465278"/>
<stop offset="1" stop-opacity="0"/>
</linearGradient>
<linearGradient id="paint1_linear_14_11749" x1="53.6531" y1="48.7119" x2="53.6531" y2="26.1905" gradientUnits="userSpaceOnUse">
<stop stop-color="#42A3F2"/>
<stop offset="1" stop-color="#42A4EB"/>
</linearGradient>
<linearGradient id="paint2_linear_14_11749" x1="96.5125" y1="86.8071" x2="96.5125" y2="64.2857" gradientUnits="userSpaceOnUse">
<stop stop-color="#3079D6"/>
<stop offset="1" stop-color="#297CD2"/>
</linearGradient>
<linearGradient id="paint3_linear_14_11749" x1="96.5125" y1="124.902" x2="96.5125" y2="102.381" gradientUnits="userSpaceOnUse">
<stop stop-color="#3079D6"/>
<stop offset="1" stop-color="#297CD2"/>
</linearGradient>
</defs>
</svg>
