<svg width="151" height="150" viewBox="0 0 151 150" fill="none" xmlns="http://www.w3.org/2000/svg">
<g id="truck">
<rect x="2.58203" y="2.5" width="145" height="145" rx="7.5" fill="white"/>
<rect x="2.58203" y="2.5" width="145" height="145" rx="7.5" fill="url(#paint0_linear_14_11755)" fill-opacity="0.2"/>
<g id="Group">
<path id="Vector" d="M120.322 103.572H86.9883V51.1899H112.129C114.177 51.1899 115.998 52.5018 116.646 54.4471L125.084 79.7618V98.8098C125.084 101.441 122.953 103.572 120.322 103.572Z" fill="url(#paint1_linear_14_11755)"/>
<path id="Vector_2" d="M86.9879 103.572H29.844C27.213 103.572 25.082 101.441 25.082 98.8099V39.285C25.082 36.654 27.213 34.523 29.844 34.523H82.226C84.857 34.523 86.9879 36.654 86.9879 39.285V103.572Z" fill="url(#paint2_linear_14_11755)"/>
<path id="Vector_3" d="M117.939 103.572C117.939 110.146 112.61 115.477 106.034 115.477C99.4576 115.477 94.1289 110.146 94.1289 103.572C94.1289 96.9981 99.4576 91.6671 106.034 91.6671C112.61 91.6671 117.939 96.9981 117.939 103.572Z" fill="#586169"/>
<path id="Vector_4" d="M60.7982 103.572C60.7982 110.146 55.4672 115.477 48.8933 115.477C42.3193 115.477 36.9883 110.146 36.9883 103.572C36.9883 96.9981 42.3193 91.6671 48.8933 91.6671C55.4672 91.6671 60.7982 96.9981 60.7982 103.572Z" fill="#586169"/>
<path id="Vector_5" d="M110.794 103.572C110.794 106.203 108.663 108.334 106.032 108.334C103.401 108.334 101.27 106.203 101.27 103.572C101.27 100.941 103.401 98.81 106.032 98.81C108.663 98.81 110.794 100.941 110.794 103.572Z" fill="#999999"/>
<path id="Vector_6" d="M53.6529 103.572C53.6529 106.203 51.5219 108.334 48.8909 108.334C46.2599 108.334 44.1289 106.203 44.1289 103.572C44.1289 100.941 46.2599 98.81 48.8909 98.81C51.5219 98.81 53.6529 100.941 53.6529 103.572Z" fill="#999999"/>
<path id="Vector_7" d="M115.552 77.3809H98.8849C97.5706 77.3809 96.5039 76.3142 96.5039 74.9999V58.333C96.5039 57.0187 97.5706 55.952 98.8849 55.952H110.79C111.818 55.952 112.726 56.6067 113.049 57.5806L117.811 71.8665C117.89 72.1094 117.933 72.3642 117.933 72.6189V74.9999C117.933 76.3142 116.866 77.3809 115.552 77.3809Z" fill="url(#paint3_linear_14_11755)"/>
</g>
<rect x="2.58203" y="2.5" width="145" height="145" rx="7.5" stroke="#D5EAF6" stroke-width="5"/>
</g>
<defs>
<linearGradient id="paint0_linear_14_11755" x1="75.082" y1="5" x2="75.082" y2="145" gradientUnits="userSpaceOnUse">
<stop stop-color="#199AE0"/>
<stop offset="0.472222" stop-color="#0D5176" stop-opacity="0.527778"/>
<stop offset="0.940972" stop-color="#12A6F7" stop-opacity="0.465278"/>
<stop offset="1" stop-opacity="0"/>
</linearGradient>
<linearGradient id="paint1_linear_14_11755" x1="85.5906" y1="53.2423" x2="118.051" y2="104.527" gradientUnits="userSpaceOnUse">
<stop stop-color="#42A3F2"/>
<stop offset="1" stop-color="#42A4EB"/>
</linearGradient>
<linearGradient id="paint2_linear_14_11755" x1="33.275" y1="34.2087" x2="77.4163" y2="101.774" gradientUnits="userSpaceOnUse">
<stop stop-color="#3079D6"/>
<stop offset="1" stop-color="#297CD2"/>
</linearGradient>
<linearGradient id="paint3_linear_14_11755" x1="116.847" y1="79.3929" x2="98.5706" y2="60.0235" gradientUnits="userSpaceOnUse">
<stop stop-color="#3079D6"/>
<stop offset="1" stop-color="#297CD2"/>
</linearGradient>
</defs>
</svg>
