<svg width="151" height="150" viewBox="0 0 151 150" fill="none" xmlns="http://www.w3.org/2000/svg">
<g id="twitter">
<rect x="2.58203" y="2.5" width="145" height="145" rx="7.5" fill="white"/>
<rect x="2.58203" y="2.5" width="145" height="145" rx="7.5" fill="url(#paint0_linear_14_11764)" fill-opacity="0.2"/>
<path id="Vector" d="M125.082 44.2504C121.408 45.8779 117.456 46.9629 113.287 47.477C117.525 44.9611 120.787 40.9481 122.317 36.2053C118.352 38.5293 113.957 40.2374 109.283 41.1376C105.55 37.1814 100.224 34.7271 94.3254 34.7271C82.9945 34.7271 73.8075 43.8311 73.8075 55.0578C73.8075 56.6474 73.9947 58.1943 74.3429 59.6963C57.2956 58.8411 42.1743 50.7367 32.0587 38.4369C30.282 41.4432 29.2823 44.9611 29.2823 48.6757C29.2823 55.733 32.895 61.9468 38.4053 65.6069C35.0413 65.5051 31.8763 64.5693 29.1046 63.0674C29.1046 63.129 29.1046 63.219 29.1046 63.3066C29.1046 73.1688 36.1784 81.3821 45.5549 83.2512C43.8421 83.7203 42.0298 83.9808 40.1631 83.9808C38.8388 83.9808 37.5477 83.8316 36.2969 83.6065C38.9075 91.6659 46.4812 97.5576 55.4549 97.7329C48.4332 103.177 39.5898 106.437 29.974 106.437C28.3133 106.437 26.6882 106.342 25.082 106.148C34.1719 111.902 44.9579 115.273 56.5375 115.273C94.2685 115.273 114.912 84.2888 114.912 57.4078C114.912 56.5266 114.884 55.65 114.843 54.783C118.871 51.9378 122.341 48.3512 125.082 44.2504Z" fill="url(#paint1_linear_14_11764)"/>
<rect x="2.58203" y="2.5" width="145" height="145" rx="7.5" stroke="#D5EAF6" stroke-width="5"/>
</g>
<defs>
<linearGradient id="paint0_linear_14_11764" x1="75.082" y1="5" x2="75.082" y2="145" gradientUnits="userSpaceOnUse">
<stop stop-color="#199AE0"/>
<stop offset="0.472222" stop-color="#0D5176" stop-opacity="0.527778"/>
<stop offset="0.940972" stop-color="#12A6F7" stop-opacity="0.465278"/>
<stop offset="1" stop-opacity="0"/>
</linearGradient>
<linearGradient id="paint1_linear_14_11764" x1="40.3573" y1="37.8352" x2="112.51" y2="109.988" gradientUnits="userSpaceOnUse">
<stop stop-color="#2AA4F4"/>
<stop offset="1" stop-color="#007AD9"/>
</linearGradient>
</defs>
</svg>
