<svg width="151" height="150" viewBox="0 0 151 150" fill="none" xmlns="http://www.w3.org/2000/svg">
<g id="unchecked-radio-button">
<rect x="2.58203" y="2.5" width="145" height="145" rx="7.5" fill="white"/>
<rect x="2.58203" y="2.5" width="145" height="145" rx="7.5" fill="url(#paint0_linear_14_11772)" fill-opacity="0.2"/>
<g id="Group">
<path id="Vector" d="M125.082 75C125.082 102.613 102.695 125 75.082 125C47.4695 125 25.082 102.613 25.082 75C25.082 47.3875 47.4695 25 75.082 25C102.695 25 125.082 47.3875 125.082 75Z" fill="url(#paint1_linear_14_11772)"/>
<path id="Vector_2" opacity="0.15" d="M75.082 121.25C100.625 121.25 121.332 100.543 121.332 75C121.332 49.4568 100.625 28.75 75.082 28.75C49.5389 28.75 28.832 49.4568 28.832 75C28.832 100.543 49.5389 121.25 75.082 121.25Z" fill="url(#paint2_radial_14_11772)"/>
<path id="Vector_3" d="M75.082 117.5C98.5541 117.5 117.582 98.4721 117.582 75C117.582 51.5279 98.5541 32.5 75.082 32.5C51.6099 32.5 32.582 51.5279 32.582 75C32.582 98.4721 51.6099 117.5 75.082 117.5Z" fill="url(#paint3_radial_14_11772)"/>
</g>
<rect x="2.58203" y="2.5" width="145" height="145" rx="7.5" stroke="#D5EAF6" stroke-width="5"/>
</g>
<defs>
<linearGradient id="paint0_linear_14_11772" x1="75.082" y1="5" x2="75.082" y2="145" gradientUnits="userSpaceOnUse">
<stop stop-color="#199AE0"/>
<stop offset="0.472222" stop-color="#0D5176" stop-opacity="0.527778"/>
<stop offset="0.940972" stop-color="#12A6F7" stop-opacity="0.465278"/>
<stop offset="1" stop-opacity="0"/>
</linearGradient>
<linearGradient id="paint1_linear_14_11772" x1="39.727" y1="39.645" x2="110.437" y2="110.355" gradientUnits="userSpaceOnUse">
<stop stop-color="#C3CDD9"/>
<stop offset="1" stop-color="#9FA7B0"/>
</linearGradient>
<radialGradient id="paint2_radial_14_11772" cx="0" cy="0" r="1" gradientUnits="userSpaceOnUse" gradientTransform="translate(75.082 75) scale(46.25)">
<stop offset="0.847"/>
<stop offset="1" stop-opacity="0"/>
</radialGradient>
<radialGradient id="paint3_radial_14_11772" cx="0" cy="0" r="1" gradientUnits="userSpaceOnUse" gradientTransform="translate(51.5195 42.965) scale(83.625)">
<stop stop-color="#FAFAFB"/>
<stop offset="0.293" stop-color="#F6F7F8"/>
<stop offset="0.566" stop-color="#EBECEE"/>
<stop offset="0.832" stop-color="#D8DCDF"/>
<stop offset="1" stop-color="#C8CDD1"/>
</radialGradient>
</defs>
</svg>
