<svg width="151" height="150" viewBox="0 0 151 150" fill="none" xmlns="http://www.w3.org/2000/svg">
<g id="underline">
<rect x="2.58203" y="2.5" width="145" height="145" rx="7.5" fill="white"/>
<rect x="2.58203" y="2.5" width="145" height="145" rx="7.5" fill="url(#paint0_linear_14_11777)" fill-opacity="0.2"/>
<g id="Group">
<path id="Vector" d="M115.56 115.476H34.6075C33.2908 115.476 32.2266 116.54 32.2266 117.857V122.619C32.2266 123.933 33.2908 125 34.6075 125H115.56C116.874 125 117.941 123.933 117.941 122.619V117.857C117.941 116.54 116.874 115.476 115.56 115.476Z" fill="url(#paint1_linear_14_11777)"/>
<path id="Vector_2" d="M108.246 25H94.1291C92.8148 25 91.7482 26.0667 91.7482 27.381V70.8857C91.7482 84.7381 86.2434 91.6667 75.2363 91.6667C64.0196 91.6667 58.4148 84.4953 58.4148 70.1453V27.381C58.4148 26.0667 57.3481 25 56.0339 25H41.9172C40.51 25 39.3672 26.1429 39.3672 27.55V70.3286C39.3672 95.6643 51.0886 108.333 74.5386 108.333C98.7101 108.333 110.796 95.3643 110.796 69.4238V27.55C110.796 26.1429 109.653 25 108.246 25Z" fill="url(#paint2_linear_14_11777)"/>
</g>
<rect x="2.58203" y="2.5" width="145" height="145" rx="7.5" stroke="#D5EAF6" stroke-width="5"/>
</g>
<defs>
<linearGradient id="paint0_linear_14_11777" x1="75.082" y1="5" x2="75.082" y2="145" gradientUnits="userSpaceOnUse">
<stop stop-color="#199AE0"/>
<stop offset="0.472222" stop-color="#0D5176" stop-opacity="0.527778"/>
<stop offset="0.940972" stop-color="#12A6F7" stop-opacity="0.465278"/>
<stop offset="1" stop-opacity="0"/>
</linearGradient>
<linearGradient id="paint1_linear_14_11777" x1="66.0599" y1="100.583" x2="100.038" y2="174.588" gradientUnits="userSpaceOnUse">
<stop stop-color="#FED100"/>
<stop offset="1" stop-color="#E36001"/>
</linearGradient>
<linearGradient id="paint2_linear_14_11777" x1="69.4791" y1="20.1" x2="84.8743" y2="107.414" gradientUnits="userSpaceOnUse">
<stop stop-color="#A235D4"/>
<stop offset="0.441" stop-color="#A033D1"/>
<stop offset="0.702" stop-color="#982CC9"/>
<stop offset="0.915" stop-color="#8B21BB"/>
<stop offset="1" stop-color="#831BB3"/>
</linearGradient>
</defs>
</svg>
