<svg width="151" height="150" viewBox="0 0 151 150" fill="none" xmlns="http://www.w3.org/2000/svg">
<g id="unpin">
<rect x="2.58203" y="2.5" width="145" height="145" rx="7.5" fill="white"/>
<rect x="2.58203" y="2.5" width="145" height="145" rx="7.5" fill="url(#paint0_linear_14_11800)" fill-opacity="0.2"/>
<g id="Group">
<path id="Vector" d="M39.5853 116.716L31.7188 118.385L33.3874 110.518C33.3874 110.042 33.6258 109.565 34.1025 109.327L61.7545 81.6746L68.4291 88.3492L40.7772 116.001C40.5388 116.24 40.062 116.478 39.5853 116.716Z" fill="#50E6FF"/>
<path id="Vector_2" d="M87.4823 86.2037L63.8828 62.6042L99.6397 34.7139L115.373 50.4469L87.4823 86.2037Z" fill="#6D75CF"/>
<path id="Vector_3" d="M59.3053 83.9919L55.7656 87.5317L62.5081 94.274L66.0478 90.7342L59.3053 83.9919Z" fill="#35C1F1"/>
<path id="Vector_4" d="M82.9619 107.658L42.4375 67.1334L46.9667 62.6042C52.4494 57.1215 61.5078 57.1215 67.2289 62.6042L87.4911 82.8664C92.9739 88.3492 92.9739 97.4076 87.4911 103.129L82.9619 107.658Z" fill="#353C9F"/>
<path id="Vector_5" d="M108.234 57.5983L92.5006 41.8653C90.5936 39.9583 90.5936 36.6209 92.5006 34.7139L94.1692 33.0453C96.0763 31.1382 99.4136 31.1382 101.321 33.0453L117.054 48.7783C118.961 50.6853 118.961 54.0226 117.054 55.9297L115.385 57.5983C113.478 59.5053 110.141 59.5053 108.234 57.5983Z" fill="url(#paint1_linear_14_11800)"/>
<path id="Vector_6" d="M124.915 119.577L30.5169 25.1788C30.0401 24.9404 29.5634 24.9404 29.0866 25.1788L25.2725 28.9928C25.0342 29.4696 25.0342 29.9464 25.2725 30.4231L119.671 124.821C119.909 125.06 120.624 125.06 120.863 124.821L124.677 121.007C125.153 120.53 125.153 120.054 124.915 119.577Z" fill="#E52030"/>
</g>
<rect x="2.58203" y="2.5" width="145" height="145" rx="7.5" stroke="#D5EAF6" stroke-width="5"/>
</g>
<defs>
<linearGradient id="paint0_linear_14_11800" x1="75.082" y1="5" x2="75.082" y2="145" gradientUnits="userSpaceOnUse">
<stop stop-color="#199AE0"/>
<stop offset="0.472222" stop-color="#0D5176" stop-opacity="0.527778"/>
<stop offset="0.940972" stop-color="#12A6F7" stop-opacity="0.465278"/>
<stop offset="1" stop-opacity="0"/>
</linearGradient>
<linearGradient id="paint1_linear_14_11800" x1="91.0584" y1="45.3075" x2="118.527" y2="45.3075" gradientUnits="userSpaceOnUse">
<stop stop-color="#464EB0"/>
<stop offset="1" stop-color="#343B9E"/>
</linearGradient>
</defs>
</svg>
