<svg width="151" height="150" viewBox="0 0 151 150" fill="none" xmlns="http://www.w3.org/2000/svg">
<g id="upload-to-ftp">
<rect x="2.58203" y="2.5" width="145" height="145" rx="7.5" fill="white"/>
<rect x="2.58203" y="2.5" width="145" height="145" rx="7.5" fill="url(#paint0_linear_14_11814)" fill-opacity="0.2"/>
<g id="Group">
<path id="Vector" d="M71.3024 37.8813L65.2648 31.8437C63.9268 30.5057 62.1102 29.7534 60.2151 29.7534H29.8436C27.2128 29.7534 25.082 31.8842 25.082 34.5149V53.085L29.8436 105.938H120.313V44.038L78.8376 39.2765H74.6712C73.407 39.2765 72.1952 38.7741 71.3024 37.8813Z" fill="url(#paint1_linear_14_11814)"/>
<path id="Vector_2" d="M66.9504 47.4043L74.7307 39.6239C74.9521 39.4025 75.2545 39.2763 75.5711 39.2763H85.3395L125.075 78.2901V105.938C125.075 108.569 122.944 110.7 120.313 110.7H29.8436C27.2128 110.7 25.082 108.569 25.082 105.938V49.9898C25.082 49.3327 25.6153 48.7994 26.2724 48.7994H63.5839C64.8457 48.7994 66.0576 48.2971 66.9504 47.4043Z" fill="url(#paint2_linear_14_11814)"/>
<path id="Vector_3" opacity="0.05" d="M95.5051 93.6058C94.7433 95.3676 93.0768 96.4389 91.1483 96.4389H84.6012V110.7H65.555V96.4389H59.0079C57.0794 96.4389 55.4129 95.3676 54.651 93.6058C53.8654 91.8678 54.1749 89.9156 55.4605 88.4871L69.769 72.5835C71.126 71.0836 73.0544 70.2266 75.0781 70.2266C77.1017 70.2266 79.0302 71.0836 80.3872 72.5835L94.6957 88.4871C95.9813 89.9156 96.2908 91.8678 95.5051 93.6058Z" fill="black"/>
<path id="Vector_4" opacity="0.07" d="M94.4141 93.1296C93.8427 94.4391 92.6047 95.2485 91.1524 95.2485H83.4149V110.7H66.7495V95.2485H59.0119C57.5597 95.2485 56.3217 94.4391 55.7503 93.1296C55.1551 91.8202 55.3932 90.3441 56.3455 89.2966L70.6539 73.393C71.7967 72.1312 73.3918 71.417 75.0822 71.417C76.7725 71.417 78.3676 72.1312 79.5104 73.393L93.8189 89.2966C94.7712 90.3441 95.0093 91.8202 94.4141 93.1296Z" fill="black"/>
<path id="Vector_5" d="M58.9969 94.0582H67.9367V117.866C67.9367 119.18 69.0033 120.247 70.3174 120.247H79.8405C81.1547 120.247 82.2213 119.18 82.2213 117.866V94.0582H91.1611C93.2229 94.0582 94.3085 91.6179 92.93 90.0846L78.6192 74.1834C76.7289 72.0812 73.4315 72.0812 71.5412 74.1834L57.2303 90.0846C55.8495 91.6179 56.9375 94.0582 58.9969 94.0582Z" fill="url(#paint3_linear_14_11814)"/>
<path id="Vector_6" opacity="0.05" d="M125.083 67.8218V84.4396C124.274 84.4873 123.488 84.5111 122.702 84.5111C111.322 84.5111 100.561 80.0352 92.4188 71.9406C83.8004 63.2746 79.2531 51.3945 79.9197 39.2763H96.5375V39.3716C96.2756 46.5853 98.8945 53.7276 103.727 58.9654C108.894 64.6078 116.25 67.8456 123.893 67.8456C124.274 67.8456 124.607 67.8456 124.94 67.8218H125.083Z" fill="black"/>
<path id="Vector_7" opacity="0.07" d="M125.074 69.0122V83.2493C124.264 83.2969 123.479 83.3207 122.693 83.3207C111.622 83.3207 101.171 78.9877 93.2666 71.0835C84.8625 62.6794 80.4343 51.085 81.1009 39.2763H95.3379V39.324C95.0522 46.8472 97.7901 54.299 102.837 59.7748C108.242 65.6553 115.908 69.036 123.883 69.036H123.955C124.288 69.036 124.645 69.036 125.002 69.0122H125.074Z" fill="black"/>
<path id="Vector_8" d="M94.0946 70.2502C86.2428 62.3722 81.586 51.3564 82.2836 39.2763H94.1423C93.8566 47.1091 96.6421 54.8228 101.951 60.5843C107.57 66.7029 115.569 70.2264 123.878 70.2264C124.259 70.2264 124.664 70.2264 125.069 70.2026V82.0612C112.988 82.7588 101.973 78.102 94.0946 70.2502Z" fill="url(#paint4_linear_14_11814)"/>
<path id="Vector_9" d="M91.7461 40.4667C91.7461 40.062 91.7461 39.6573 91.7699 39.2763H103.698C103.388 44.7521 105.293 50.1327 108.959 54.1562C112.792 58.3225 118.22 60.7033 123.887 60.7033C124.291 60.7033 124.672 60.7033 125.077 60.6557V72.5834C124.696 72.6072 124.291 72.6072 123.887 72.6072C106.174 72.6072 91.7461 58.1797 91.7461 40.4667Z" fill="#A238C2"/>
<path id="Vector_10" d="M101.262 40.4667C101.262 40.062 101.262 39.6811 101.286 39.2763H113.38C113.856 42.2761 115.284 44.9426 117.356 46.99C119.403 49.0613 122.07 50.4898 125.069 50.9659V63.0603C124.665 63.0841 124.284 63.0841 123.879 63.0841C111.404 63.0841 101.262 52.942 101.262 40.4667Z" fill="#BA54D9"/>
<path id="Vector_11" d="M110.844 39.2954C110.851 39.2882 110.856 39.2835 110.865 39.2763H120.317C122.948 39.2763 125.078 41.4024 125.078 44.0331V53.4229C125.069 53.5086 125.069 53.5086 125.059 53.511C116.901 54.2181 110.137 47.4567 110.844 39.2954Z" fill="#C767E5"/>
</g>
<rect x="2.58203" y="2.5" width="145" height="145" rx="7.5" stroke="#D5EAF6" stroke-width="5"/>
</g>
<defs>
<linearGradient id="paint0_linear_14_11814" x1="75.082" y1="5" x2="75.082" y2="145" gradientUnits="userSpaceOnUse">
<stop stop-color="#199AE0"/>
<stop offset="0.472222" stop-color="#0D5176" stop-opacity="0.527778"/>
<stop offset="0.940972" stop-color="#12A6F7" stop-opacity="0.465278"/>
<stop offset="1" stop-opacity="0"/>
</linearGradient>
<linearGradient id="paint1_linear_14_11814" x1="72.6975" y1="29.0986" x2="72.6975" y2="47.6282" gradientUnits="userSpaceOnUse">
<stop stop-color="#EBA600"/>
<stop offset="1" stop-color="#C28200"/>
</linearGradient>
<linearGradient id="paint2_linear_14_11814" x1="75.0783" y1="38.9287" x2="75.0783" y2="110.659" gradientUnits="userSpaceOnUse">
<stop stop-color="#FFD869"/>
<stop offset="1" stop-color="#FEC52B"/>
</linearGradient>
<linearGradient id="paint3_linear_14_11814" x1="89.1613" y1="119.911" x2="64.0536" y2="74.762" gradientUnits="userSpaceOnUse">
<stop stop-color="#007AD9"/>
<stop offset="1" stop-color="#2AA4F4"/>
</linearGradient>
<linearGradient id="paint4_linear_14_11814" x1="82.2146" y1="60.7033" x2="125.069" y2="60.7033" gradientUnits="userSpaceOnUse">
<stop stop-color="#7819A2"/>
<stop offset="1" stop-color="#771AA9"/>
</linearGradient>
</defs>
</svg>
