<svg width="151" height="150" viewBox="0 0 151 150" fill="none" xmlns="http://www.w3.org/2000/svg">
<g id="usa">
<rect x="2.58203" y="2.5" width="145" height="145" rx="7.5" fill="white"/>
<rect x="2.58203" y="2.5" width="145" height="145" rx="7.5" fill="url(#paint0_linear_14_11827)" fill-opacity="0.2"/>
<g id="Group">
<path id="Vector" d="M125.082 75C125.082 102.613 102.695 125 75.082 125C47.4695 125 25.082 102.613 25.082 75C25.082 47.3875 47.4695 25 75.082 25C102.695 25 125.082 47.3875 125.082 75Z" fill="url(#paint1_linear_14_11827)"/>
<path id="Vector_2" d="M75.082 25C47.4695 25 25.082 47.3875 25.082 75H75.082V25Z" fill="url(#paint2_linear_14_11827)"/>
<path id="Vector_3" d="M67.582 69.9999C68.9627 69.9999 70.082 68.8806 70.082 67.4999C70.082 66.1192 68.9627 64.9999 67.582 64.9999C66.2013 64.9999 65.082 66.1192 65.082 67.4999C65.082 68.8806 66.2013 69.9999 67.582 69.9999Z" fill="#99F0FF"/>
<path id="Vector_4" d="M57.582 69.9999C58.9627 69.9999 60.082 68.8806 60.082 67.4999C60.082 66.1192 58.9627 64.9999 57.582 64.9999C56.2013 64.9999 55.082 66.1192 55.082 67.4999C55.082 68.8806 56.2013 69.9999 57.582 69.9999Z" fill="#99F0FF"/>
<path id="Vector_5" d="M47.582 69.9999C48.9627 69.9999 50.082 68.8806 50.082 67.4999C50.082 66.1192 48.9627 64.9999 47.582 64.9999C46.2013 64.9999 45.082 66.1192 45.082 67.4999C45.082 68.8806 46.2013 69.9999 47.582 69.9999Z" fill="#99F0FF"/>
<path id="Vector_6" d="M37.5742 69.9999C38.9549 69.9999 40.0742 68.8806 40.0742 67.4999C40.0742 66.1192 38.9549 64.9999 37.5742 64.9999C36.1935 64.9999 35.0742 66.1192 35.0742 67.4999C35.0742 68.8806 36.1935 69.9999 37.5742 69.9999Z" fill="#99F0FF"/>
<path id="Vector_7" d="M62.5742 60C63.9549 60 65.0742 58.8807 65.0742 57.5C65.0742 56.1193 63.9549 55 62.5742 55C61.1935 55 60.0742 56.1193 60.0742 57.5C60.0742 58.8807 61.1935 60 62.5742 60Z" fill="#99F0FF"/>
<path id="Vector_8" d="M52.582 60C53.9627 60 55.082 58.8807 55.082 57.5C55.082 56.1193 53.9627 55 52.582 55C51.2013 55 50.082 56.1193 50.082 57.5C50.082 58.8807 51.2013 60 52.582 60Z" fill="#99F0FF"/>
<path id="Vector_9" d="M42.582 60C43.9627 60 45.082 58.8807 45.082 57.5C45.082 56.1193 43.9627 55 42.582 55C41.2013 55 40.082 56.1193 40.082 57.5C40.082 58.8807 41.2013 60 42.582 60Z" fill="#99F0FF"/>
<path id="Vector_10" d="M32.582 60C33.9627 60 35.082 58.8807 35.082 57.5C35.082 56.1193 33.9627 55 32.582 55C31.2013 55 30.082 56.1193 30.082 57.5C30.082 58.8807 31.2013 60 32.582 60Z" fill="#99F0FF"/>
<path id="Vector_11" d="M67.582 50C68.9627 50 70.082 48.8807 70.082 47.5C70.082 46.1193 68.9627 45 67.582 45C66.2013 45 65.082 46.1193 65.082 47.5C65.082 48.8807 66.2013 50 67.582 50Z" fill="#99F0FF"/>
<path id="Vector_12" d="M57.582 50C58.9627 50 60.082 48.8807 60.082 47.5C60.082 46.1193 58.9627 45 57.582 45C56.2013 45 55.082 46.1193 55.082 47.5C55.082 48.8807 56.2013 50 57.582 50Z" fill="#99F0FF"/>
<path id="Vector_13" d="M47.582 50C48.9627 50 50.082 48.8807 50.082 47.5C50.082 46.1193 48.9627 45 47.582 45C46.2013 45 45.082 46.1193 45.082 47.5C45.082 48.8807 46.2013 50 47.582 50Z" fill="#99F0FF"/>
<path id="Vector_14" d="M67.582 30C68.9627 30 70.082 28.8807 70.082 27.5C70.082 26.1193 68.9627 25 67.582 25C66.2013 25 65.082 26.1193 65.082 27.5C65.082 28.8807 66.2013 30 67.582 30Z" fill="#99F0FF"/>
<path id="Vector_15" d="M57.5773 30.0001C58.9573 30.0001 60.0773 28.8801 60.0773 27.5001C60.0773 27.4326 60.0448 27.3776 60.0398 27.3101C58.5248 27.7876 57.0398 28.3276 55.5898 28.9426C56.0448 29.5676 56.7448 30.0001 57.5773 30.0001Z" fill="#99F0FF"/>
<path id="Vector_16" d="M37.5742 50C38.9549 50 40.0742 48.8807 40.0742 47.5C40.0742 46.1193 38.9549 45 37.5742 45C36.1935 45 35.0742 46.1193 35.0742 47.5C35.0742 48.8807 36.1935 50 37.5742 50Z" fill="#99F0FF"/>
<path id="Vector_17" d="M62.5742 40C63.9549 40 65.0742 38.8807 65.0742 37.5C65.0742 36.1193 63.9549 35 62.5742 35C61.1935 35 60.0742 36.1193 60.0742 37.5C60.0742 38.8807 61.1935 40 62.5742 40Z" fill="#99F0FF"/>
<path id="Vector_18" d="M52.582 40C53.9627 40 55.082 38.8807 55.082 37.5C55.082 36.1193 53.9627 35 52.582 35C51.2013 35 50.082 36.1193 50.082 37.5C50.082 38.8807 51.2013 40 52.582 40Z" fill="#99F0FF"/>
<path id="Vector_19" d="M42.5733 40C43.9533 40 45.0733 38.88 45.0733 37.5C45.0733 36.775 44.7533 36.135 44.2608 35.6775C42.9708 36.69 41.7333 37.7575 40.5508 38.89C41.0008 39.545 41.7183 40 42.5733 40Z" fill="#99F0FF"/>
<path id="Vector_20" d="M27.5814 69.9999C28.9614 69.9999 30.0814 68.8799 30.0814 67.4999C30.0814 66.1199 28.9614 64.9999 27.5814 64.9999C26.9689 64.9999 26.4264 65.2449 25.9914 65.6124C25.7914 66.6649 25.6364 67.7349 25.5039 68.8099C25.9464 69.5074 26.6914 69.9999 27.5814 69.9999Z" fill="#99F0FF"/>
<path id="Vector_21" d="M125.077 75H75.077V65H124.072C124.73 68.2325 125.077 71.575 125.077 75ZM45.1695 115H104.985C108.782 112.155 112.155 108.792 115.007 105H35.147C37.9995 108.792 41.372 112.155 45.1695 115ZM75.077 25V35H104.985C96.637 28.7475 86.307 25 75.077 25ZM115.007 45H75.077V55H120.887C119.322 51.42 117.33 48.0825 115.007 45ZM29.267 95H120.89C122.28 91.8225 123.367 88.4825 124.075 85H26.082C26.7895 88.4825 27.877 91.8225 29.267 95Z" fill="url(#paint3_linear_14_11827)"/>
</g>
<rect x="2.58203" y="2.5" width="145" height="145" rx="7.5" stroke="#D5EAF6" stroke-width="5"/>
</g>
<defs>
<linearGradient id="paint0_linear_14_11827" x1="75.082" y1="5" x2="75.082" y2="145" gradientUnits="userSpaceOnUse">
<stop stop-color="#199AE0"/>
<stop offset="0.472222" stop-color="#0D5176" stop-opacity="0.527778"/>
<stop offset="0.940972" stop-color="#12A6F7" stop-opacity="0.465278"/>
<stop offset="1" stop-opacity="0"/>
</linearGradient>
<linearGradient id="paint1_linear_14_11827" x1="41.0245" y1="40.9425" x2="111.525" y2="111.442" gradientUnits="userSpaceOnUse">
<stop stop-color="#DFE9F2"/>
<stop offset="0.998" stop-color="#9EA7B0"/>
</linearGradient>
<linearGradient id="paint2_linear_14_11827" x1="39.4345" y1="39.3525" x2="109.9" y2="109.817" gradientUnits="userSpaceOnUse">
<stop stop-color="#0D61A9"/>
<stop offset="1" stop-color="#16528C"/>
</linearGradient>
<linearGradient id="paint3_linear_14_11827" x1="39.3295" y1="39.6025" x2="111.827" y2="112.1" gradientUnits="userSpaceOnUse">
<stop stop-color="#DB3542"/>
<stop offset="0.996" stop-color="#BA0B1A"/>
</linearGradient>
</defs>
</svg>
