<svg width="151" height="150" viewBox="0 0 151 150" fill="none" xmlns="http://www.w3.org/2000/svg">
<g id="user-manual">
<rect x="2.58203" y="2.5" width="145" height="145" rx="7.5" fill="white"/>
<rect x="2.58203" y="2.5" width="145" height="145" rx="7.5" fill="url(#paint0_linear_14_11866)" fill-opacity="0.2"/>
<g id="Group">
<path id="Vector" d="M120.32 35.7143H75.082V111.905H120.32C122.951 111.905 125.082 109.774 125.082 107.143V40.4762C125.082 37.8452 122.951 35.7143 120.32 35.7143Z" fill="#0078D4"/>
<path id="Vector_2" d="M75.082 35.7143H29.8439C27.213 35.7143 25.082 37.8452 25.082 40.4762V107.143C25.082 109.774 27.213 111.905 29.8439 111.905H75.082V35.7143Z" fill="#1B9DE2"/>
<path id="Vector_3" d="M67.9414 107.143C67.9414 111.088 71.139 114.286 75.0843 114.286V100C71.139 100 67.9414 103.198 67.9414 107.143Z" fill="#1B9DE2"/>
<path id="Vector_4" d="M82.2249 107.143C82.2249 103.198 79.0273 100 75.082 100V114.286C79.0273 114.286 82.2249 111.088 82.2249 107.143Z" fill="#0078D4"/>
<path id="Vector_5" d="M75.0858 35.7143H32.2286C30.9143 35.7143 29.8477 36.781 29.8477 38.0952V104.762C29.8477 106.076 30.9143 107.143 32.2286 107.143H75.0858V35.7143Z" fill="white"/>
<path id="Vector_6" d="M117.939 35.7143H75.082V107.143H117.939C119.253 107.143 120.32 106.076 120.32 104.762V38.0952C120.32 36.781 119.253 35.7143 117.939 35.7143Z" fill="#F0F0F0"/>
<path id="Vector_7" d="M66.7502 50.0001H38.1788C37.5216 50.0001 36.9883 49.4668 36.9883 48.8096V46.4287C36.9883 45.7716 37.5216 45.2382 38.1788 45.2382H66.7502C67.4073 45.2382 67.9407 45.7716 67.9407 46.4287V48.8096C67.9407 49.4668 67.4073 50.0001 66.7502 50.0001Z" fill="#35C1F1"/>
<path id="Vector_8" d="M66.7502 59.5239H38.1788C37.5216 59.5239 36.9883 58.9906 36.9883 58.3335V55.9525C36.9883 55.2954 37.5216 54.762 38.1788 54.762H66.7502C67.4073 54.762 67.9407 55.2954 67.9407 55.9525V58.3335C67.9407 58.9906 67.4073 59.5239 66.7502 59.5239Z" fill="#35C1F1"/>
<path id="Vector_9" d="M66.7502 69.0476H38.1788C37.5216 69.0476 36.9883 68.5143 36.9883 67.8571V65.4762C36.9883 64.819 37.5216 64.2857 38.1788 64.2857H66.7502C67.4073 64.2857 67.9407 64.819 67.9407 65.4762V67.8571C67.9407 68.5143 67.4073 69.0476 66.7502 69.0476Z" fill="#35C1F1"/>
<path id="Vector_10" d="M66.7502 78.5714H38.1788C37.5216 78.5714 36.9883 78.0381 36.9883 77.3809V75C36.9883 74.3428 37.5216 73.8095 38.1788 73.8095H66.7502C67.4073 73.8095 67.9407 74.3428 67.9407 75V77.3809C67.9407 78.0381 67.4073 78.5714 66.7502 78.5714Z" fill="#35C1F1"/>
<path id="Vector_11" d="M66.7502 88.0953H38.1788C37.5216 88.0953 36.9883 87.562 36.9883 86.9049V84.5239C36.9883 83.8668 37.5216 83.3334 38.1788 83.3334H66.7502C67.4073 83.3334 67.9407 83.8668 67.9407 84.5239V86.9049C67.9407 87.562 67.4073 88.0953 66.7502 88.0953Z" fill="#35C1F1"/>
<path id="Vector_12" d="M61.9883 97.619H38.1788C37.5216 97.619 36.9883 97.0857 36.9883 96.4285V94.0476C36.9883 93.3905 37.5216 92.8571 38.1788 92.8571H61.9883C62.6454 92.8571 63.1788 93.3905 63.1788 94.0476V96.4285C63.1788 97.0857 62.6454 97.619 61.9883 97.619Z" fill="#35C1F1"/>
<path id="Vector_13" d="M96.5087 56.5049C100.556 56.5049 102.818 53.962 102.818 50.8192C102.818 47.6763 100.43 45.2382 96.5087 45.2382C92.5873 45.2382 90.1992 47.6763 90.1992 50.8192C90.1992 53.962 92.4611 56.5049 96.5087 56.5049Z" fill="#0D62AB"/>
<path id="Vector_14" d="M101.278 61.9047H91.7539V97.619H101.278V61.9047Z" fill="#0D62AB"/>
</g>
<rect x="2.58203" y="2.5" width="145" height="145" rx="7.5" stroke="#D5EAF6" stroke-width="5"/>
</g>
<defs>
<linearGradient id="paint0_linear_14_11866" x1="75.082" y1="5" x2="75.082" y2="145" gradientUnits="userSpaceOnUse">
<stop stop-color="#199AE0"/>
<stop offset="0.472222" stop-color="#0D5176" stop-opacity="0.527778"/>
<stop offset="0.940972" stop-color="#12A6F7" stop-opacity="0.465278"/>
<stop offset="1" stop-opacity="0"/>
</linearGradient>
</defs>
</svg>
