<svg width="151" height="150" viewBox="0 0 151 150" fill="none" xmlns="http://www.w3.org/2000/svg">
<g id="user_menu-avatar">
<rect x="2.58252" y="2.5" width="145" height="145" rx="4.5" fill="white"/>
<rect x="2.58252" y="2.5" width="145" height="145" rx="4.5" fill="url(#paint0_linear_14_9537)" fill-opacity="0.2"/>
<g id="Group">
<path id="Vector" d="M75.0819 67.1053C86.709 67.1053 96.1346 57.6797 96.1346 46.0526C96.1346 34.4256 86.709 25 75.0819 25C63.4549 25 54.0293 34.4256 54.0293 46.0526C54.0293 57.6797 63.4549 67.1053 75.0819 67.1053Z" fill="url(#paint1_linear_14_9537)"/>
<path id="Vector_2" d="M75.0823 75C54.735 75 38.2402 91.4947 38.2402 111.842V119.737C38.2402 122.645 40.5955 125 43.5034 125H106.661C109.569 125 111.924 122.645 111.924 119.737V111.842C111.924 91.4947 95.4297 75 75.0823 75Z" fill="url(#paint2_linear_14_9537)"/>
</g>
<rect x="2.58252" y="2.5" width="145" height="145" rx="4.5" stroke="#D5EAF6" stroke-width="5"/>
</g>
<defs>
<linearGradient id="paint0_linear_14_9537" x1="75.0825" y1="5" x2="75.0825" y2="145" gradientUnits="userSpaceOnUse">
<stop stop-color="#199AE0"/>
<stop offset="0.472222" stop-color="#0D5176" stop-opacity="0.527778"/>
<stop offset="0.940972" stop-color="#12A6F7" stop-opacity="0.465278"/>
<stop offset="1" stop-opacity="0"/>
</linearGradient>
<linearGradient id="paint1_linear_14_9537" x1="60.8003" y1="31.7711" x2="90.174" y2="61.1447" gradientUnits="userSpaceOnUse">
<stop stop-color="#32BDEF"/>
<stop offset="1" stop-color="#1EA2E4"/>
</linearGradient>
<linearGradient id="paint2_linear_14_9537" x1="50.3271" y1="84.4947" x2="99.4666" y2="133.634" gradientUnits="userSpaceOnUse">
<stop stop-color="#32BDEF"/>
<stop offset="1" stop-color="#1EA2E4"/>
</linearGradient>
</defs>
</svg>
