<svg width="151" height="150" viewBox="0 0 151 150" fill="none" xmlns="http://www.w3.org/2000/svg">
<g id="web">
<rect x="2.58203" y="2.5" width="145" height="145" rx="7.5" fill="white"/>
<rect x="2.58203" y="2.5" width="145" height="145" rx="7.5" fill="url(#paint0_linear_14_11917)" fill-opacity="0.2"/>
<g id="Group">
<path id="Vector" d="M25.082 110V52.5H125.082V110C125.082 112.75 122.832 115 120.082 115H30.082C27.332 115 25.082 112.75 25.082 110Z" fill="url(#paint1_linear_14_11917)"/>
<path id="Vector_2" d="M125.082 40V52.5H25.082V40C25.082 37.25 27.332 35 30.082 35H120.082C122.832 35 125.082 37.25 125.082 40Z" fill="url(#paint2_linear_14_11917)"/>
<path id="Vector_3" d="M56.332 47.5001H118.832C119.522 47.5001 120.082 46.9401 120.082 46.2501V41.2501C120.082 40.5601 119.522 40.0001 118.832 40.0001H56.332C55.642 40.0001 55.082 40.5601 55.082 41.2501V46.2501C55.082 46.9401 55.642 47.5001 56.332 47.5001Z" fill="url(#paint3_linear_14_11917)"/>
<path id="Vector_4" d="M33.832 47.5001C35.9031 47.5001 37.582 45.8212 37.582 43.7501C37.582 41.6791 35.9031 40.0001 33.832 40.0001C31.761 40.0001 30.082 41.6791 30.082 43.7501C30.082 45.8212 31.761 47.5001 33.832 47.5001Z" fill="url(#paint4_linear_14_11917)"/>
<path id="Vector_5" d="M46.3242 47.5001C48.3953 47.5001 50.0742 45.8212 50.0742 43.7501C50.0742 41.6791 48.3953 40.0001 46.3242 40.0001C44.2532 40.0001 42.5742 41.6791 42.5742 43.7501C42.5742 45.8212 44.2532 47.5001 46.3242 47.5001Z" fill="url(#paint5_linear_14_11917)"/>
<path id="Vector_6" d="M115.082 107.5H95.082C93.702 107.5 92.582 106.38 92.582 105V62.5C92.582 61.12 93.702 60 95.082 60H115.082C116.462 60 117.582 61.12 117.582 62.5V105C117.582 106.38 116.462 107.5 115.082 107.5Z" fill="#0D86AD"/>
<path id="Vector_7" d="M82.582 80H35.082C33.702 80 32.582 78.88 32.582 77.5V62.5C32.582 61.12 33.702 60 35.082 60H82.582C83.962 60 85.082 61.12 85.082 62.5V77.5C85.082 78.88 83.962 80 82.582 80Z" fill="#0D86AD"/>
<path id="Vector_8" d="M82.582 107.5H35.082C33.702 107.5 32.582 106.38 32.582 105V90C32.582 88.62 33.702 87.5 35.082 87.5H82.582C83.962 87.5 85.082 88.62 85.082 90V105C85.082 106.38 83.962 107.5 82.582 107.5Z" fill="#0D86AD"/>
</g>
<rect x="2.58203" y="2.5" width="145" height="145" rx="7.5" stroke="#D5EAF6" stroke-width="5"/>
</g>
<defs>
<linearGradient id="paint0_linear_14_11917" x1="75.082" y1="5" x2="75.082" y2="145" gradientUnits="userSpaceOnUse">
<stop stop-color="#199AE0"/>
<stop offset="0.472222" stop-color="#0D5176" stop-opacity="0.527778"/>
<stop offset="0.940972" stop-color="#12A6F7" stop-opacity="0.465278"/>
<stop offset="1" stop-opacity="0"/>
</linearGradient>
<linearGradient id="paint1_linear_14_11917" x1="48.782" y1="43.9825" x2="94.167" y2="109.633" gradientUnits="userSpaceOnUse">
<stop stop-color="#7DD8F3"/>
<stop offset="1" stop-color="#45B0D0"/>
</linearGradient>
<linearGradient id="paint2_linear_14_11917" x1="26.617" y1="34.3525" x2="122.422" y2="53.8325" gradientUnits="userSpaceOnUse">
<stop stop-color="#0077D2"/>
<stop offset="1" stop-color="#0B59A2"/>
</linearGradient>
<linearGradient id="paint3_linear_14_11917" x1="55.082" y1="43.7501" x2="120.082" y2="43.7501" gradientUnits="userSpaceOnUse">
<stop stop-color="#7DD8F3"/>
<stop offset="1" stop-color="#45B0D0"/>
</linearGradient>
<linearGradient id="paint4_linear_14_11917" x1="31.9595" y1="41.0401" x2="35.162" y2="45.6726" gradientUnits="userSpaceOnUse">
<stop stop-color="#75DAFF"/>
<stop offset="1" stop-color="#49BEF1"/>
</linearGradient>
<linearGradient id="paint5_linear_14_11917" x1="44.4517" y1="41.0401" x2="47.6542" y2="45.6726" gradientUnits="userSpaceOnUse">
<stop stop-color="#75DAFF"/>
<stop offset="1" stop-color="#49BEF1"/>
</linearGradient>
</defs>
</svg>
