<svg width="151" height="150" viewBox="0 0 151 150" fill="none" xmlns="http://www.w3.org/2000/svg">
<g id="webpage">
<rect x="2.58203" y="2.5" width="145" height="145" rx="7.5" fill="white"/>
<rect x="2.58203" y="2.5" width="145" height="145" rx="7.5" fill="url(#paint0_linear_14_11927)" fill-opacity="0.2"/>
<g id="Group">
<path id="Vector" d="M76.0677 42.6524L70.0297 36.6143C68.6916 35.2762 66.8749 34.5238 64.9796 34.5238H29.8439C27.213 34.5238 25.082 36.6548 25.082 39.2857V110.714C25.082 113.345 27.213 115.476 29.8439 115.476H120.32C122.951 115.476 125.082 113.345 125.082 110.714V48.8095C125.082 46.1786 122.951 44.0476 120.32 44.0476H79.4344C78.1725 44.0476 76.9606 43.5452 76.0677 42.6524Z" fill="url(#paint1_linear_14_11927)"/>
<path id="Vector_2" d="M69.3344 52.1759L77.1154 44.395C77.3368 44.1736 77.6392 44.0474 77.9558 44.0474H120.32C122.951 44.0474 125.082 46.1783 125.082 48.8093V110.714C125.082 113.345 122.951 115.476 120.32 115.476H29.8439C27.213 115.476 25.082 113.345 25.082 110.714V54.7616C25.082 54.1045 25.6154 53.5712 26.2725 53.5712H65.9677C67.2297 53.5712 68.4416 53.0688 69.3344 52.1759Z" fill="url(#paint2_linear_14_11927)"/>
<path id="Vector_3" d="M60.5291 75.6023L56.1195 92.2737H51.9576L49.191 81.5785C49.0457 81.0213 48.9529 80.3975 48.9267 79.7071H48.8791C48.81 80.4666 48.7076 81.0904 48.5767 81.5785L45.741 92.2737H41.4005L37.0195 75.6023H41.1219L43.4695 86.7047C43.5719 87.1761 43.6457 87.8142 43.6933 88.6118H43.7624C43.791 88.0142 43.9076 87.3642 44.0981 86.6594L47.1219 75.6023H51.1433L53.8767 86.7975C53.9743 87.2094 54.0672 87.8047 54.141 88.588H54.1886C54.2219 87.9761 54.3005 87.3547 54.4362 86.7285L56.7386 75.6023H60.5291Z" fill="url(#paint3_linear_14_11927)"/>
<path id="Vector_4" d="M86.8392 75.6023L82.4296 92.2737H78.2677L75.5011 81.5785C75.3558 81.0213 75.263 80.3975 75.2368 79.7071H75.1892C75.1201 80.4666 75.0177 81.0904 74.8868 81.5785L72.0511 92.2737H67.713L63.332 75.6023H67.4344L69.782 86.7047C69.8844 87.1761 69.9582 87.8142 70.0058 88.6118H70.0749C70.1035 88.0142 70.2201 87.3642 70.4106 86.6594L73.4344 75.6023H77.4558L80.1892 86.7975C80.2868 87.2094 80.3797 87.8047 80.4535 88.588H80.5011C80.5344 87.9761 80.613 87.3547 80.7487 86.7285L83.0511 75.6023H86.8392Z" fill="url(#paint4_linear_14_11927)"/>
<path id="Vector_5" d="M113.136 75.6023L108.727 92.2737H104.565L101.798 81.5785C101.653 81.0213 101.56 80.3975 101.534 79.7071H101.486C101.417 80.4666 101.315 81.0904 101.184 81.5785L98.348 92.2737H94.0099L89.6289 75.6023H93.7313L96.0789 86.7047C96.1813 87.1761 96.2551 87.8142 96.3027 88.6118H96.3718C96.4003 88.0142 96.517 87.3642 96.7075 86.6594L99.7313 75.6023H103.753L106.486 86.7975C106.584 87.2094 106.677 87.8047 106.75 88.588H106.798C106.831 87.9761 106.91 87.3547 107.046 86.7285L109.348 75.6023H113.136Z" fill="url(#paint5_linear_14_11927)"/>
</g>
<rect x="2.58203" y="2.5" width="145" height="145" rx="7.5" stroke="#D5EAF6" stroke-width="5"/>
</g>
<defs>
<linearGradient id="paint0_linear_14_11927" x1="75.082" y1="5" x2="75.082" y2="145" gradientUnits="userSpaceOnUse">
<stop stop-color="#199AE0"/>
<stop offset="0.472222" stop-color="#0D5176" stop-opacity="0.527778"/>
<stop offset="0.940972" stop-color="#12A6F7" stop-opacity="0.465278"/>
<stop offset="1" stop-opacity="0"/>
</linearGradient>
<linearGradient id="paint1_linear_14_11927" x1="75.082" y1="33.8286" x2="75.082" y2="53.5167" gradientUnits="userSpaceOnUse">
<stop stop-color="#EBA600"/>
<stop offset="1" stop-color="#C28200"/>
</linearGradient>
<linearGradient id="paint2_linear_14_11927" x1="75.082" y1="43.6997" x2="75.082" y2="115.435" gradientUnits="userSpaceOnUse">
<stop stop-color="#FFD869"/>
<stop offset="1" stop-color="#FEC52B"/>
</linearGradient>
<linearGradient id="paint3_linear_14_11927" x1="37.0219" y1="83.938" x2="60.5291" y2="83.938" gradientUnits="userSpaceOnUse">
<stop stop-color="#912FBD"/>
<stop offset="1" stop-color="#9332BF"/>
</linearGradient>
<linearGradient id="paint4_linear_14_11927" x1="63.332" y1="83.938" x2="86.8368" y2="83.938" gradientUnits="userSpaceOnUse">
<stop stop-color="#912FBD"/>
<stop offset="1" stop-color="#9332BF"/>
</linearGradient>
<linearGradient id="paint5_linear_14_11927" x1="89.6289" y1="83.938" x2="113.136" y2="83.938" gradientUnits="userSpaceOnUse">
<stop stop-color="#912FBD"/>
<stop offset="1" stop-color="#9332BF"/>
</linearGradient>
</defs>
</svg>
