<svg width="151" height="150" viewBox="0 0 151 150" fill="none" xmlns="http://www.w3.org/2000/svg">
<g id="window-cloud">
<rect x="2.58203" y="2.5" width="145" height="145" rx="7.5" fill="white"/>
<rect x="2.58203" y="2.5" width="145" height="145" rx="7.5" fill="url(#paint0_linear_14_11934)" fill-opacity="0.2"/>
<g id="Group">
<path id="Vector" d="M25.0781 97.7286V45.4526H115.993V97.7286C115.993 100.229 113.947 102.274 111.447 102.274H29.6239C27.1237 102.274 25.0781 100.229 25.0781 97.7286Z" fill="#50E6FF"/>
<path id="Vector_2" d="M115.993 34.0884V45.4527H25.0781V34.0884C25.0781 31.5882 27.1237 29.5426 29.6239 29.5426H111.447C113.947 29.5426 115.993 31.5882 115.993 34.0884Z" fill="url(#paint1_linear_14_11934)"/>
<path id="Vector_3" d="M33.0343 40.9069C34.9172 40.9069 36.4436 39.3806 36.4436 37.4976C36.4436 35.6147 34.9172 34.0883 33.0343 34.0883C31.1514 34.0883 29.625 35.6147 29.625 37.4976C29.625 39.3806 31.1514 40.9069 33.0343 40.9069Z" fill="url(#paint2_linear_14_11934)"/>
<path id="Vector_4" d="M44.3937 40.9069C46.2766 40.9069 47.803 39.3806 47.803 37.4976C47.803 35.6147 46.2766 34.0883 44.3937 34.0883C42.5108 34.0883 40.9844 35.6147 40.9844 37.4976C40.9844 39.3806 42.5108 40.9069 44.3937 40.9069Z" fill="url(#paint3_linear_14_11934)"/>
<path id="Vector_5" d="M55.7531 40.9069C57.636 40.9069 59.1624 39.3806 59.1624 37.4976C59.1624 35.6147 57.636 34.0883 55.7531 34.0883C53.8701 34.0883 52.3438 35.6147 52.3438 37.4976C52.3438 39.3806 53.8701 40.9069 55.7531 40.9069Z" fill="url(#paint4_linear_14_11934)"/>
<path id="Vector_6" opacity="0.05" d="M115.998 91.626C115.212 91.3896 114.421 91.1874 113.639 91.0783C110.441 85.4325 104.298 81.8186 97.8156 81.8186C89.4923 81.8186 82.2146 87.5485 80.1986 95.5626C76.2688 96.0627 72.6867 98.2946 70.4911 101.654L70.082 102.274H111.453C113.953 102.274 115.998 100.229 115.998 97.7287V91.626Z" fill="black"/>
<path id="Vector_7" opacity="0.07" d="M111.453 102.274C113.953 102.274 115.999 100.229 115.999 97.7286V92.7874C115.015 92.4692 113.987 92.2419 112.921 92.1351C109.998 86.537 104.141 82.955 97.8158 82.955C89.7198 82.955 82.7126 88.7622 81.1238 96.6172C77.0713 96.8672 73.5415 99.0628 71.4414 102.274H111.453Z" fill="black"/>
<path id="Vector_8" d="M112.185 93.2194C109.638 87.8304 104.167 84.0915 97.8096 84.0915C89.7909 84.0915 83.1746 90.0305 82.0768 97.7469C82.0177 97.7446 81.9609 97.7287 81.8995 97.7287C75.6241 97.7287 70.5352 102.818 70.5352 109.093C70.5352 115.368 75.6241 120.457 81.8995 120.457C86.1247 120.457 107.256 120.457 111.447 120.457C118.979 120.457 125.084 114.352 125.084 106.82C125.084 99.5379 119.372 93.6057 112.185 93.2194Z" fill="url(#paint5_linear_14_11934)"/>
</g>
<rect x="2.58203" y="2.5" width="145" height="145" rx="7.5" stroke="#D5EAF6" stroke-width="5"/>
</g>
<defs>
<linearGradient id="paint0_linear_14_11934" x1="75.082" y1="5" x2="75.082" y2="145" gradientUnits="userSpaceOnUse">
<stop stop-color="#199AE0"/>
<stop offset="0.472222" stop-color="#0D5176" stop-opacity="0.527778"/>
<stop offset="0.940972" stop-color="#12A6F7" stop-opacity="0.465278"/>
<stop offset="1" stop-opacity="0"/>
</linearGradient>
<linearGradient id="paint1_linear_14_11934" x1="26.4737" y1="28.954" x2="113.574" y2="46.6641" gradientUnits="userSpaceOnUse">
<stop stop-color="#0077D2"/>
<stop offset="1" stop-color="#0B59A2"/>
</linearGradient>
<linearGradient id="paint2_linear_14_11934" x1="31.3319" y1="35.0339" x2="34.2435" y2="39.2455" gradientUnits="userSpaceOnUse">
<stop stop-color="#75DAFF"/>
<stop offset="1" stop-color="#49BEF1"/>
</linearGradient>
<linearGradient id="paint3_linear_14_11934" x1="42.6913" y1="35.0339" x2="45.6028" y2="39.2455" gradientUnits="userSpaceOnUse">
<stop stop-color="#75DAFF"/>
<stop offset="1" stop-color="#49BEF1"/>
</linearGradient>
<linearGradient id="paint4_linear_14_11934" x1="54.0507" y1="35.0339" x2="56.9622" y2="39.2455" gradientUnits="userSpaceOnUse">
<stop stop-color="#75DAFF"/>
<stop offset="1" stop-color="#49BEF1"/>
</linearGradient>
<linearGradient id="paint5_linear_14_11934" x1="89.8113" y1="85.8439" x2="102.723" y2="121.223" gradientUnits="userSpaceOnUse">
<stop stop-color="#2AA4F4"/>
<stop offset="1" stop-color="#007AD9"/>
</linearGradient>
</defs>
</svg>
