<svg width="151" height="150" viewBox="0 0 151 150" fill="none" xmlns="http://www.w3.org/2000/svg">
<g id="windows-calendar">
<rect x="2.58203" y="2.5" width="145" height="145" rx="7.5" fill="white"/>
<rect x="2.58203" y="2.5" width="145" height="145" rx="7.5" fill="url(#paint0_linear_14_11960)" fill-opacity="0.2"/>
<g id="Group">
<path id="Vector" d="M121.237 53.2051H28.9297V37.8205C28.9297 34.9871 31.2246 32.6923 34.0579 32.6923H116.109C118.943 32.6923 121.237 34.9871 121.237 37.8205V53.2051Z" fill="url(#paint1_linear_14_11960)"/>
<path id="Vector_2" d="M28.9297 53.205V119.872C28.9297 122.705 31.2246 125 34.0579 125H116.109C118.943 125 121.237 122.705 121.237 119.872V53.205H28.9297Z" fill="url(#paint2_linear_14_11960)"/>
<path id="Vector_3" d="M67.3954 76.282H62.2672C60.8518 76.282 59.7031 75.1333 59.7031 73.7179V68.5897C59.7031 67.1744 60.8518 66.0256 62.2672 66.0256H67.3954C68.8108 66.0256 69.9595 67.1744 69.9595 68.5897V73.7179C69.9595 75.1333 68.8108 76.282 67.3954 76.282Z" fill="white"/>
<path id="Vector_4" d="M87.9032 76.282H82.775C81.3597 76.282 80.2109 75.1333 80.2109 73.7179V68.5897C80.2109 67.1744 81.3597 66.0256 82.775 66.0256H87.9032C89.3186 66.0256 90.4674 67.1744 90.4674 68.5897V73.7179C90.4674 75.1333 89.3186 76.282 87.9032 76.282Z" fill="white"/>
<path id="Vector_5" d="M108.419 76.282H103.291C101.875 76.282 100.727 75.1333 100.727 73.7179V68.5897C100.727 67.1744 101.875 66.0256 103.291 66.0256H108.419C109.834 66.0256 110.983 67.1744 110.983 68.5897V73.7179C110.983 75.1333 109.834 76.282 108.419 76.282Z" fill="white"/>
<path id="Vector_6" d="M67.3954 94.2308H62.2672C60.8518 94.2308 59.7031 93.0821 59.7031 91.6667V86.5385C59.7031 85.1231 60.8518 83.9744 62.2672 83.9744H67.3954C68.8108 83.9744 69.9595 85.1231 69.9595 86.5385V91.6667C69.9595 93.0821 68.8108 94.2308 67.3954 94.2308Z" fill="white"/>
<path id="Vector_7" d="M46.872 94.2308H41.7438C40.3284 94.2308 39.1797 93.0821 39.1797 91.6667V86.5385C39.1797 85.1231 40.3284 83.9744 41.7438 83.9744H46.872C48.2874 83.9744 49.4361 85.1231 49.4361 86.5385V91.6667C49.4361 93.0821 48.2874 94.2308 46.872 94.2308Z" fill="white"/>
<path id="Vector_8" d="M87.9032 94.2308H82.775C81.3597 94.2308 80.2109 93.0821 80.2109 91.6667V86.5385C80.2109 85.1231 81.3597 83.9744 82.775 83.9744H87.9032C89.3186 83.9744 90.4674 85.1231 90.4674 86.5385V91.6667C90.4674 93.0821 89.3186 94.2308 87.9032 94.2308Z" fill="white"/>
<path id="Vector_9" d="M67.3954 112.18H62.2672C60.8518 112.18 59.7031 111.031 59.7031 109.615V104.487C59.7031 103.072 60.8518 101.923 62.2672 101.923H67.3954C68.8108 101.923 69.9595 103.072 69.9595 104.487V109.615C69.9595 111.031 68.8108 112.18 67.3954 112.18Z" fill="white"/>
<path id="Vector_10" d="M46.872 112.18H41.7438C40.3284 112.18 39.1797 111.031 39.1797 109.615V104.487C39.1797 103.072 40.3284 101.923 41.7438 101.923H46.872C48.2874 101.923 49.4361 103.072 49.4361 104.487V109.615C49.4361 111.031 48.2874 112.18 46.872 112.18Z" fill="white"/>
<path id="Vector_11" d="M87.9032 112.18H82.775C81.3597 112.18 80.2109 111.031 80.2109 109.615V104.487C80.2109 103.072 81.3597 101.923 82.775 101.923H87.9032C89.3186 101.923 90.4674 103.072 90.4674 104.487V109.615C90.4674 111.031 89.3186 112.18 87.9032 112.18Z" fill="white"/>
<path id="Vector_12" d="M108.419 94.2308H103.291C101.875 94.2308 100.727 93.0821 100.727 91.6667V86.5385C100.727 85.1231 101.875 83.9744 103.291 83.9744H108.419C109.834 83.9744 110.983 85.1231 110.983 86.5385V91.6667C110.983 93.0821 109.834 94.2308 108.419 94.2308Z" fill="white"/>
<path id="Vector_13" opacity="0.05" d="M49.4345 32.6923V41.6666C49.4345 42.3743 48.8576 42.9487 48.1524 42.9487C47.4473 42.9487 46.8704 42.3743 46.8704 41.6666V32.6923H41.7422V41.6666C41.7422 45.2 44.6165 48.0769 48.1524 48.0769C51.6883 48.0769 54.5627 45.2 54.5627 41.6666V32.6923H49.4345Z" fill="black"/>
<path id="Vector_14" opacity="0.07" d="M50.7236 32.6923V41.6666C50.7236 43.0794 49.5748 44.2307 48.1595 44.2307C46.7441 44.2307 45.5954 43.0794 45.5954 41.6666V32.6923H43.0312V41.6666C43.0312 44.4948 45.3313 46.7948 48.1595 46.7948C50.9877 46.7948 53.2877 44.4948 53.2877 41.6666V32.6923H50.7236Z" fill="black"/>
<path id="Vector_15" opacity="0.05" d="M103.294 32.6923V41.6666C103.294 42.3743 102.717 42.9487 102.012 42.9487C101.307 42.9487 100.73 42.3743 100.73 41.6666V32.6923H95.6016V41.6666C95.6016 45.2 98.4759 48.0769 102.012 48.0769C105.548 48.0769 108.422 45.2 108.422 41.6666V32.6923H103.294Z" fill="black"/>
<path id="Vector_16" opacity="0.07" d="M104.575 32.6923V41.6666C104.575 43.0794 103.426 44.2307 102.011 44.2307C100.596 44.2307 99.4469 43.0794 99.4469 41.6666V32.6923H96.8828V41.6666C96.8828 44.4948 99.1828 46.7948 102.011 46.7948C104.839 46.7948 107.139 44.4948 107.139 41.6666V32.6923H104.575Z" fill="black"/>
<path id="Vector_17" d="M102.002 45.5128C99.8793 45.5128 98.1562 43.7897 98.1562 41.6667V28.8462C98.1562 26.7231 99.8793 25 102.002 25C104.125 25 105.849 26.7231 105.849 28.8462V41.6667C105.849 43.7897 104.125 45.5128 102.002 45.5128Z" fill="#54DAFF"/>
<path id="Vector_18" d="M48.1665 45.5128C46.0434 45.5128 44.3203 43.7897 44.3203 41.6667V28.8462C44.3203 26.7231 46.0434 25 48.1665 25C50.2895 25 52.0126 26.7231 52.0126 28.8462V41.6667C52.0126 43.7897 50.2895 45.5128 48.1665 45.5128Z" fill="#54DAFF"/>
</g>
<rect x="2.58203" y="2.5" width="145" height="145" rx="7.5" stroke="#D5EAF6" stroke-width="5"/>
</g>
<defs>
<linearGradient id="paint0_linear_14_11960" x1="75.082" y1="5" x2="75.082" y2="145" gradientUnits="userSpaceOnUse">
<stop stop-color="#199AE0"/>
<stop offset="0.472222" stop-color="#0D5176" stop-opacity="0.527778"/>
<stop offset="0.940972" stop-color="#12A6F7" stop-opacity="0.465278"/>
<stop offset="1" stop-opacity="0"/>
</linearGradient>
<linearGradient id="paint1_linear_14_11960" x1="72.5707" y1="28.4923" x2="77.8092" y2="63.5743" gradientUnits="userSpaceOnUse">
<stop offset="0.042" stop-color="#076DB4"/>
<stop offset="0.85" stop-color="#0461AF"/>
</linearGradient>
<linearGradient id="paint2_linear_14_11960" x1="69.0194" y1="33.7614" x2="84.2297" y2="166.52" gradientUnits="userSpaceOnUse">
<stop stop-color="#0176D0"/>
<stop offset="1" stop-color="#0A85D9"/>
</linearGradient>
</defs>
</svg>
