<svg width="151" height="150" viewBox="0 0 151 150" fill="none" xmlns="http://www.w3.org/2000/svg">
<g id="window-favorite">
<rect x="2.58203" y="2.5" width="145" height="145" rx="7.5" fill="white"/>
<rect x="2.58203" y="2.5" width="145" height="145" rx="7.5" fill="url(#paint0_linear_14_11944)" fill-opacity="0.2"/>
<g id="Group">
<path id="Vector" d="M25.082 97.7294V45.4547H115.995V97.7294C115.995 100.23 113.949 102.275 111.449 102.275H29.6277C27.1276 102.275 25.082 100.23 25.082 97.7294Z" fill="#50E6FF"/>
<path id="Vector_2" d="M115.995 34.0905V45.4546H25.082V34.0905C25.082 31.5904 27.1276 29.5449 29.6277 29.5449H111.449C113.949 29.5449 115.995 31.5904 115.995 34.0905Z" fill="url(#paint1_linear_14_11944)"/>
<path id="Vector_3" d="M33.0381 40.909C34.921 40.909 36.4473 39.3827 36.4473 37.4998C36.4473 35.617 34.921 34.0906 33.0381 34.0906C31.1553 34.0906 29.6289 35.617 29.6289 37.4998C29.6289 39.3827 31.1553 40.909 33.0381 40.909Z" fill="url(#paint2_linear_14_11944)"/>
<path id="Vector_4" d="M44.3975 40.909C46.2804 40.909 47.8067 39.3827 47.8067 37.4998C47.8067 35.617 46.2804 34.0906 44.3975 34.0906C42.5146 34.0906 40.9883 35.617 40.9883 37.4998C40.9883 39.3827 42.5146 40.909 44.3975 40.909Z" fill="url(#paint3_linear_14_11944)"/>
<path id="Vector_5" d="M55.7647 40.909C57.6475 40.909 59.1739 39.3827 59.1739 37.4998C59.1739 35.617 57.6475 34.0906 55.7647 34.0906C53.8818 34.0906 52.3555 35.617 52.3555 37.4998C52.3555 39.3827 53.8818 40.909 55.7647 40.909Z" fill="url(#paint4_linear_14_11944)"/>
<path id="Vector_6" opacity="0.05" d="M114.864 84.0923C110.486 84.0923 106.804 86.5765 104.636 88.4675C102.468 86.5765 98.7858 84.0923 94.4084 84.0923C91.0582 84.0923 87.9127 85.4447 85.5444 87.897C83.1988 90.3244 81.9079 93.5245 81.9102 96.9042C81.9102 98.8997 82.6693 100.779 83.5352 102.275H111.454C113.955 102.275 116 100.229 116 97.7292V84.1469C115.625 84.1105 115.248 84.0923 114.864 84.0923Z" fill="black"/>
<path id="Vector_7" opacity="0.07" d="M114.844 85.2289C110.178 85.2289 106.281 88.4085 104.617 90.0063C102.953 88.4108 99.0552 85.2289 94.3891 85.2289C91.3527 85.2289 88.4935 86.4562 86.3411 88.6858C84.2047 90.8995 83.0251 93.8178 83.0273 96.902C83.0273 98.9066 83.9342 100.834 84.8524 102.273H111.435C113.935 102.273 115.981 100.227 115.981 97.7271V85.2857C115.608 85.2493 115.229 85.2289 114.844 85.2289Z" fill="black"/>
<path id="Vector_8" d="M104.629 91.6359C104.629 91.6359 109.209 86.3652 114.856 86.3652C120.504 86.3652 125.084 91.1495 125.084 96.9042C125.084 100.473 121.675 103.93 121.675 103.93L106.354 119.719C105.402 120.701 103.856 120.701 102.904 119.719L87.585 103.93C87.585 103.93 84.1758 100.47 84.1758 96.9042C84.1735 91.1495 88.7532 86.3652 94.4012 86.3652C100.049 86.3652 104.629 91.6359 104.629 91.6359Z" fill="url(#paint5_linear_14_11944)"/>
</g>
<rect x="2.58203" y="2.5" width="145" height="145" rx="7.5" stroke="#D5EAF6" stroke-width="5"/>
</g>
<defs>
<linearGradient id="paint0_linear_14_11944" x1="75.082" y1="5" x2="75.082" y2="145" gradientUnits="userSpaceOnUse">
<stop stop-color="#199AE0"/>
<stop offset="0.472222" stop-color="#0D5176" stop-opacity="0.527778"/>
<stop offset="0.940972" stop-color="#12A6F7" stop-opacity="0.465278"/>
<stop offset="1" stop-opacity="0"/>
</linearGradient>
<linearGradient id="paint1_linear_14_11944" x1="26.4775" y1="28.9562" x2="113.576" y2="46.666" gradientUnits="userSpaceOnUse">
<stop stop-color="#0077D2"/>
<stop offset="1" stop-color="#0B59A2"/>
</linearGradient>
<linearGradient id="paint2_linear_14_11944" x1="31.3358" y1="35.0361" x2="34.2473" y2="39.2476" gradientUnits="userSpaceOnUse">
<stop stop-color="#75DAFF"/>
<stop offset="1" stop-color="#49BEF1"/>
</linearGradient>
<linearGradient id="paint3_linear_14_11944" x1="42.6952" y1="35.0361" x2="45.6066" y2="39.2476" gradientUnits="userSpaceOnUse">
<stop stop-color="#75DAFF"/>
<stop offset="1" stop-color="#49BEF1"/>
</linearGradient>
<linearGradient id="paint4_linear_14_11944" x1="54.0624" y1="35.0361" x2="56.9738" y2="39.2476" gradientUnits="userSpaceOnUse">
<stop stop-color="#75DAFF"/>
<stop offset="1" stop-color="#49BEF1"/>
</linearGradient>
<linearGradient id="paint5_linear_14_11944" x1="96.6785" y1="84.1856" x2="115.92" y2="113.821" gradientUnits="userSpaceOnUse">
<stop stop-color="#F44F5A"/>
<stop offset="0.443" stop-color="#EE3D4A"/>
<stop offset="1" stop-color="#E52030"/>
</linearGradient>
</defs>
</svg>
