<svg width="151" height="150" viewBox="0 0 151 150" fill="none" xmlns="http://www.w3.org/2000/svg">
<g id="workflow">
<rect x="2.58203" y="2.5" width="145" height="145" rx="7.5" fill="white"/>
<rect x="2.58203" y="2.5" width="145" height="145" rx="7.5" fill="url(#paint0_linear_14_11992)" fill-opacity="0.2"/>
<g id="Group">
<path id="Vector" d="M43.7497 59.6677C52.5861 59.6677 59.7494 52.5044 59.7494 43.668C59.7494 34.8316 52.5861 27.6682 43.7497 27.6682C34.9133 27.6682 27.75 34.8316 27.75 43.668C27.75 52.5044 34.9133 59.6677 43.7497 59.6677Z" fill="#33C481"/>
<path id="Vector_2" d="M118.424 123.666H97.0911C94.1444 123.666 91.7578 121.28 91.7578 118.333V97.0003C91.7578 94.0536 94.1444 91.667 97.0911 91.667H118.424C121.371 91.667 123.757 94.0536 123.757 97.0003V118.333C123.757 121.28 121.371 123.666 118.424 123.666Z" fill="url(#paint1_linear_14_11992)"/>
<path id="Vector_3" d="M105.076 59.8943L91.522 46.3399C90.0447 44.8626 90.0447 42.4706 91.522 40.996L105.076 27.4415C106.554 25.9642 108.946 25.9642 110.42 27.4415L123.975 40.996C125.452 42.4733 125.452 44.8652 123.975 46.3399L110.42 59.8943C108.946 61.3689 106.551 61.3689 105.076 59.8943Z" fill="url(#paint2_linear_14_11992)"/>
<path id="Vector_4" d="M43.7604 86.3338C42.2884 86.3338 41.0938 85.1391 41.0938 83.6671V70.334C41.0938 68.8621 42.2884 67.6674 43.7604 67.6674C45.2323 67.6674 46.427 68.8621 46.427 70.334V83.6671C46.427 85.1391 45.2323 86.3338 43.7604 86.3338Z" fill="#7A848D"/>
<path id="Vector_5" d="M107.753 83.6672C106.281 83.6672 105.086 82.4725 105.086 81.0005V67.6674C105.086 66.1955 106.281 65.0008 107.753 65.0008C109.225 65.0008 110.419 66.1955 110.419 67.6674V81.0005C110.419 82.4725 109.225 83.6672 107.753 83.6672Z" fill="#7A848D"/>
<path id="Vector_6" d="M81.0857 46.3346H67.7526C66.2806 46.3346 65.0859 45.1399 65.0859 43.668C65.0859 42.196 66.2806 41.0013 67.7526 41.0013H81.0857C82.5576 41.0013 83.7523 42.196 83.7523 43.668C83.7523 45.1399 82.5576 46.3346 81.0857 46.3346Z" fill="#7A848D"/>
<path id="Vector_7" d="M59.7522 123.666H27.7528C26.7928 123.666 25.9048 123.149 25.4328 122.314C24.9582 121.48 24.9715 120.453 25.4675 119.629L41.4672 92.963C42.4299 91.355 45.0778 91.355 46.0405 92.963L62.0402 119.629C62.5362 120.453 62.5468 121.48 62.0749 122.314C61.6002 123.149 60.7122 123.666 59.7522 123.666Z" fill="#ED6C47"/>
<path id="Vector_8" d="M46.4301 73.0007H41.0968C40.0195 73.0007 39.0462 72.3501 38.6329 71.3554C38.2195 70.3581 38.4489 69.2115 39.2115 68.4488L41.8781 65.7822C42.9208 64.7396 44.6061 64.7396 45.6487 65.7822L48.3154 68.4488C49.078 69.2115 49.3073 70.3581 48.894 71.3554C48.4807 72.3501 47.5074 73.0007 46.4301 73.0007Z" fill="#7A848D"/>
<path id="Vector_9" d="M78.4297 46.3346V41.0014C78.4297 39.9241 79.0803 38.9508 80.075 38.5374C81.0723 38.1241 82.219 38.3534 82.9816 39.1161L85.6482 41.7827C86.6909 42.8254 86.6909 44.5107 85.6482 45.5533L82.9816 48.2199C82.219 48.9826 81.0723 49.2119 80.075 48.7986C79.0803 48.3853 78.4297 47.4119 78.4297 46.3346Z" fill="#7A848D"/>
<path id="Vector_10" d="M105.089 78.3339H110.422C111.5 78.3339 112.473 78.9846 112.886 79.9792C113.3 80.9765 113.07 82.1232 112.308 82.8858L109.641 85.5525C108.598 86.5951 106.913 86.5951 105.87 85.5525L103.204 82.8858C102.441 82.1232 102.212 80.9765 102.625 79.9792C103.038 78.9846 104.012 78.3339 105.089 78.3339Z" fill="#7A848D"/>
</g>
<rect x="2.58203" y="2.5" width="145" height="145" rx="7.5" stroke="#D5EAF6" stroke-width="5"/>
</g>
<defs>
<linearGradient id="paint0_linear_14_11992" x1="75.082" y1="5" x2="75.082" y2="145" gradientUnits="userSpaceOnUse">
<stop stop-color="#199AE0"/>
<stop offset="0.472222" stop-color="#0D5176" stop-opacity="0.527778"/>
<stop offset="0.940972" stop-color="#12A6F7" stop-opacity="0.465278"/>
<stop offset="1" stop-opacity="0"/>
</linearGradient>
<linearGradient id="paint1_linear_14_11992" x1="91.7578" y1="107.667" x2="123.757" y2="107.667" gradientUnits="userSpaceOnUse">
<stop stop-color="#C965EB"/>
<stop offset="1" stop-color="#C767E5"/>
</linearGradient>
<linearGradient id="paint2_linear_14_11992" x1="90.4154" y1="43.6679" x2="125.084" y2="43.6679" gradientUnits="userSpaceOnUse">
<stop stop-color="#42A3F2"/>
<stop offset="1" stop-color="#42A4EB"/>
</linearGradient>
</defs>
</svg>
