<svg width="151" height="150" viewBox="0 0 151 150" fill="none" xmlns="http://www.w3.org/2000/svg">
<g id="x2">
<rect x="2.58203" y="2.5" width="145" height="145" rx="7.5" fill="white"/>
<rect x="2.58203" y="2.5" width="145" height="145" rx="7.5" fill="url(#paint0_linear_14_12010)" fill-opacity="0.2"/>
<g id="Group">
<path id="Vector" d="M125.082 113.889C125.082 120.025 120.107 125 113.971 125H36.1931C30.057 125 25.082 120.025 25.082 113.889V36.1111C25.082 29.975 30.057 25 36.1931 25H113.971C120.107 25 125.082 29.975 125.082 36.1111V113.889Z" fill="url(#paint1_linear_14_12010)"/>
<path id="Vector_2" opacity="0.05" d="M78.1393 111.111L73.9977 103.82L69.7921 111.111H55.9727L66.9143 95.3252L56.6949 79.1668H70.3727L74.3865 86.7252L78.6171 79.1668H86.1477V72.7529L87.2532 71.9168C88.1115 71.2724 88.9977 70.7002 89.8893 70.214C90.781 69.7252 91.731 69.3057 92.7143 68.9724C93.681 68.639 94.7199 68.3835 95.7977 68.2196C96.8477 68.0613 97.9671 67.9807 99.1282 67.9807C101.07 67.9807 102.887 68.2474 104.514 68.7724C106.239 69.3307 107.742 70.1724 108.984 71.2696C110.259 72.3946 111.253 73.8113 111.937 75.4724C112.595 77.0807 112.931 78.9113 112.931 80.9113C112.931 82.6835 112.703 84.3168 112.253 85.7668C111.806 87.2057 111.164 88.564 110.348 89.8057C109.562 91.0057 108.598 92.1557 107.492 93.2196C106.481 94.1918 105.356 95.1946 104.114 96.2196C103.078 97.0557 102.07 97.8557 101.07 98.6335C100.281 99.2446 99.5588 99.8391 98.9088 100.425H113.498V111.111H78.1393ZM85.3754 101.353C85.3754 101.347 85.3782 101.345 85.3782 101.339C85.7754 100.111 86.306 98.9391 86.9671 97.8529C87.6199 96.7835 88.381 95.7807 89.2282 94.864C90.031 93.9946 90.8865 93.1585 91.7977 92.3529C92.6754 91.5724 93.5754 90.8168 94.4865 90.0918C95.3504 89.4113 96.1865 88.7279 97.0088 88.0391C97.7365 87.4252 98.4032 86.8168 99.006 86.2224C99.5282 85.7085 99.9754 85.1779 100.337 84.6446C100.656 84.1696 100.912 83.6613 101.089 83.1363C101.25 82.6613 101.331 82.1224 101.331 81.5363C101.331 80.9279 101.25 80.4224 101.087 80.0279C100.942 79.6779 100.764 79.414 100.528 79.2002C100.273 78.9696 99.9643 78.7946 99.5838 78.6668C99.1393 78.514 98.6227 78.4391 98.0504 78.4391C96.9449 78.4391 95.7754 78.714 94.5754 79.2529C93.3199 79.8196 92.0727 80.7002 90.8671 81.8752L88.9004 83.7946L81.3338 95.2863L85.3754 101.353Z" fill="black"/>
<path id="Vector_3" opacity="0.07" d="M95.8216 101.817C95.8577 101.758 95.8911 101.705 95.9299 101.647C96.3549 101.011 96.9327 100.355 97.6411 99.6999C98.3994 98.9943 99.2605 98.2749 100.216 97.5388C101.208 96.7693 102.211 95.9749 103.227 95.1527C104.441 94.1527 105.538 93.1721 106.527 92.2221C107.558 91.2305 108.452 90.161 109.185 89.0444C109.93 87.9138 110.516 86.6721 110.924 85.3555C111.333 84.0332 111.541 82.5388 111.541 80.911C111.541 79.0916 111.241 77.4388 110.649 75.9999C110.047 74.536 109.174 73.2916 108.058 72.3082C106.96 71.336 105.624 70.5916 104.083 70.0916C102.591 69.611 100.922 69.3666 99.1216 69.3666C98.0216 69.3666 96.9716 69.4416 95.9994 69.5888C95.0022 69.7416 94.0438 69.9749 93.1577 70.2805C92.2633 70.586 91.3827 70.9721 90.5494 71.4305C89.7105 71.886 88.8799 72.4221 88.0827 73.0221L87.5299 73.4388V80.5555H79.4244L74.3466 89.6249L69.5244 80.5555H59.2049L68.5688 95.361L58.6133 109.722H68.9744L73.9938 101.022L78.9327 109.722H112.102V101.817H95.8216V101.817ZM92.7077 93.3916C91.8327 94.1666 91.0105 94.9721 90.2383 95.8055C89.4494 96.661 88.7438 97.5944 88.1411 98.5749C87.5383 99.5638 87.0494 100.636 86.6911 101.761C86.3605 102.789 86.1994 103.903 86.1661 105.061L79.6577 95.286L87.8105 82.8999L89.8855 80.8749C91.2077 79.586 92.5911 78.6138 93.9938 77.9805C95.3716 77.3582 96.7327 77.0444 98.0383 77.0444C98.7605 77.0444 99.4244 77.1444 100.016 77.3444C100.577 77.5332 101.047 77.8027 101.447 78.1638C101.838 78.5166 102.136 78.9527 102.361 79.4944C102.591 80.0555 102.708 80.7388 102.708 81.5277C102.708 82.2638 102.602 82.9527 102.394 83.5721C102.177 84.211 101.869 84.8332 101.477 85.4138C101.069 86.0194 100.563 86.6221 99.9744 87.2027C99.3466 87.8221 98.6522 88.4555 97.8938 89.0971C97.0633 89.7944 96.2161 90.486 95.3438 91.1749C94.4494 91.8888 93.5688 92.6277 92.7077 93.3916Z" fill="black"/>
<path id="Vector_4" d="M86.7806 81.9445H80.239L74.3362 92.4861H74.2612C73.9334 91.8139 73.6001 91.1611 73.2556 90.5278L68.6945 81.9445H61.7334L70.2418 95.3972L61.2695 108.333H68.1751L72.889 100.164C73.5418 99.05 73.9029 98.4111 73.9723 98.2584H74.0751C74.4723 99.0278 74.814 99.6667 75.1056 100.164L79.7473 108.333H86.6779L77.9945 95.2945L86.7806 81.9445Z" fill="white"/>
<path id="Vector_5" d="M110.725 108.333V103.206H94.0501V103.075C94.0501 102.336 94.2973 101.603 94.7862 100.872C95.2779 100.142 95.9168 99.4139 96.7056 98.6805C97.4945 97.95 98.3834 97.2055 99.3723 96.4389C100.361 95.6722 101.353 94.8861 102.35 94.0777C103.533 93.1 104.608 92.1472 105.57 91.2194C106.531 90.2916 107.353 89.3111 108.031 88.2805C108.708 87.25 109.233 86.1389 109.603 84.9444C109.972 83.75 110.156 82.4055 110.156 80.9111C110.156 79.2611 109.892 77.8027 109.37 76.5305C108.847 75.2583 108.103 74.1972 107.139 73.3472C106.178 72.4944 105.017 71.8527 103.661 71.4139C102.306 70.9777 100.792 70.7583 99.1251 70.7583C98.0945 70.7583 97.1223 70.825 96.2112 70.9639C95.3029 71.1027 94.4334 71.3111 93.6084 71.5972C92.7834 71.8805 91.9834 72.2333 91.214 72.6527C90.439 73.075 89.6751 73.5666 88.9195 74.1361V79.8805C90.364 78.4722 91.8668 77.4139 93.4279 76.7111C94.9918 76.0055 96.5306 75.6527 98.0417 75.6527C98.9167 75.6527 99.7251 75.7777 100.464 76.0277C101.203 76.2777 101.842 76.6472 102.383 77.1333C102.922 77.625 103.345 78.2333 103.645 78.9639C103.945 79.6944 104.097 80.5472 104.097 81.5277C104.097 82.4194 103.967 83.25 103.708 84.0166C103.45 84.7833 103.089 85.5055 102.625 86.1944C102.161 86.8805 101.603 87.5444 100.947 88.1916C100.297 88.8333 99.5751 89.4944 98.7834 90.1611C97.9418 90.8666 97.0862 91.5666 96.2056 92.2639C95.3334 92.9583 94.4723 93.6805 93.6279 94.4277C92.7862 95.175 91.9973 95.9472 91.2556 96.7472C90.5168 97.5444 89.8751 98.3972 89.3251 99.2972C88.7751 100.2 88.339 101.164 88.0112 102.183C87.6834 103.206 87.5195 104.303 87.5195 105.472V108.333H110.725Z" fill="white"/>
</g>
<rect x="2.58203" y="2.5" width="145" height="145" rx="7.5" stroke="#D5EAF6" stroke-width="5"/>
</g>
<defs>
<linearGradient id="paint0_linear_14_12010" x1="75.082" y1="5" x2="75.082" y2="145" gradientUnits="userSpaceOnUse">
<stop stop-color="#199AE0"/>
<stop offset="0.472222" stop-color="#0D5176" stop-opacity="0.527778"/>
<stop offset="0.940972" stop-color="#12A6F7" stop-opacity="0.465278"/>
<stop offset="1" stop-opacity="0"/>
</linearGradient>
<linearGradient id="paint1_linear_14_12010" x1="27.3737" y1="23.7139" x2="123.607" y2="127.167" gradientUnits="userSpaceOnUse">
<stop stop-color="#0176D0"/>
<stop offset="1" stop-color="#0A85D9"/>
</linearGradient>
</defs>
</svg>
