<svg width="199" height="199" viewBox="0 0 199 199" fill="none" xmlns="http://www.w3.org/2000/svg">
<g filter="url(#filter0_d_127_600)">
<path d="M172.887 8H26.1129C18.3186 8 12 14.3186 12 22.1129V168.887C12 176.681 18.3186 183 26.1129 183H172.887C180.681 183 187 176.681 187 168.887V22.1129C187 14.3186 180.681 8 172.887 8Z" fill="white"/>
<path d="M172.887 8H26.1129C18.3186 8 12 14.3186 12 22.1129V168.887C12 176.681 18.3186 183 26.1129 183H172.887C180.681 183 187 176.681 187 168.887V22.1129C187 14.3186 180.681 8 172.887 8Z" fill="url(#paint0_linear_127_600)" fill-opacity="0.2"/>
<path d="M172.887 8H26.1129C18.3186 8 12 14.3186 12 22.1129V168.887C12 176.681 18.3186 183 26.1129 183H172.887C180.681 183 187 176.681 187 168.887V22.1129C187 14.3186 180.681 8 172.887 8Z" stroke="#D5EAF6" stroke-width="15" stroke-linecap="round"/>
</g>
<g filter="url(#filter1_bd_127_600)">
<path d="M149.5 49H50.5C47.4612 49 45 51.4612 45 54.5V137C45 140.039 47.4612 142.501 50.5 142.501H149.5C152.539 142.501 155 140.039 155 137V54.5C155 51.4612 152.539 49 149.5 49Z" fill="url(#paint1_linear_127_600)"/>
<path d="M80.7502 106.751H64.2502C62.7322 106.751 61.5002 105.519 61.5002 104.001V87.5014C61.5002 85.9834 62.7322 84.7513 64.2502 84.7513H80.7502C82.2682 84.7513 83.5003 85.9834 83.5003 87.5014V104.001C83.5003 105.519 82.2682 106.751 80.7502 106.751Z" fill="url(#paint2_linear_127_600)"/>
<path d="M56 101.25L50.5 95.7504L56 90.2504V101.25Z" fill="#50E6FF"/>
<path d="M119.251 90.2514C125.325 90.2514 130.25 85.3266 130.25 79.2515C130.25 73.1762 125.325 68.2514 119.251 68.2514C113.175 68.2514 108.25 73.1762 108.25 79.2515C108.25 85.3266 113.175 90.2514 119.251 90.2514Z" fill="url(#paint3_linear_127_600)"/>
<path d="M138.5 115.001C138.5 104.369 129.882 95.7507 119.251 95.7507C108.619 95.7507 100 104.369 100 115.001C100 116.664 100 120.845 100 120.845C100 122.172 101.078 123.251 102.407 123.251H136.094C137.422 123.251 138.5 122.172 138.5 120.845C138.5 120.845 138.5 116.664 138.5 115.001Z" fill="url(#paint4_linear_127_600)"/>
</g>
<defs>
<filter id="filter0_d_127_600" x="0.5" y="0.5" width="198" height="198" filterUnits="userSpaceOnUse" color-interpolation-filters="sRGB">
<feFlood flood-opacity="0" result="BackgroundImageFix"/>
<feColorMatrix in="SourceAlpha" type="matrix" values="0 0 0 0 0 0 0 0 0 0 0 0 0 0 0 0 0 0 127 0" result="hardAlpha"/>
<feOffset dy="4"/>
<feGaussianBlur stdDeviation="2"/>
<feComposite in2="hardAlpha" operator="out"/>
<feColorMatrix type="matrix" values="0 0 0 0 0.8375 0 0 0 0 0.732812 0 0 0 0 0.732812 0 0 0 0.25 0"/>
<feBlend mode="normal" in2="BackgroundImageFix" result="effect1_dropShadow_127_600"/>
<feBlend mode="normal" in="SourceGraphic" in2="effect1_dropShadow_127_600" result="shape"/>
</filter>
<filter id="filter1_bd_127_600" x="41" y="45" width="118" height="105.501" filterUnits="userSpaceOnUse" color-interpolation-filters="sRGB">
<feFlood flood-opacity="0" result="BackgroundImageFix"/>
<feGaussianBlur in="BackgroundImageFix" stdDeviation="2"/>
<feComposite in2="SourceAlpha" operator="in" result="effect1_backgroundBlur_127_600"/>
<feColorMatrix in="SourceAlpha" type="matrix" values="0 0 0 0 0 0 0 0 0 0 0 0 0 0 0 0 0 0 127 0" result="hardAlpha"/>
<feOffset dy="4"/>
<feGaussianBlur stdDeviation="2"/>
<feComposite in2="hardAlpha" operator="out"/>
<feColorMatrix type="matrix" values="0 0 0 0 1 0 0 0 0 1 0 0 0 0 1 0 0 0 0.25 0"/>
<feBlend mode="normal" in2="effect1_backgroundBlur_127_600" result="effect2_dropShadow_127_600"/>
<feBlend mode="normal" in="SourceGraphic" in2="effect2_dropShadow_127_600" result="shape"/>
</filter>
<linearGradient id="paint0_linear_127_600" x1="99.5" y1="16.4677" x2="99.5" y2="174.532" gradientUnits="userSpaceOnUse">
<stop stop-color="white"/>
<stop offset="0.472222" stop-color="#0D5176" stop-opacity="0.527778"/>
<stop offset="0.940972" stop-color="#12A6F7" stop-opacity="0.465278"/>
<stop offset="1" stop-opacity="0"/>
</linearGradient>
<linearGradient id="paint1_linear_127_600" x1="93.3176" y1="48.5188" x2="106.754" y2="143.471" gradientUnits="userSpaceOnUse">
<stop stop-color="#0D61A9"/>
<stop offset="1" stop-color="#16528C"/>
</linearGradient>
<linearGradient id="paint2_linear_127_600" x1="61.5002" y1="95.7514" x2="83.5003" y2="95.7514" gradientUnits="userSpaceOnUse">
<stop stop-color="#FFD869"/>
<stop offset="1" stop-color="#FEC52B"/>
</linearGradient>
<linearGradient id="paint3_linear_127_600" x1="111.787" y1="71.7879" x2="127.135" y2="87.1357" gradientUnits="userSpaceOnUse">
<stop stop-color="#75DAFF"/>
<stop offset="1" stop-color="#1EA2E4"/>
</linearGradient>
<linearGradient id="paint4_linear_127_600" x1="114.529" y1="96.7517" x2="120.617" y2="122.792" gradientUnits="userSpaceOnUse">
<stop stop-color="#75DAFF"/>
<stop offset="1" stop-color="#1EA2E4"/>
</linearGradient>
</defs>
</svg>
