<svg width="199" height="199" viewBox="0 0 199 199" fill="none" xmlns="http://www.w3.org/2000/svg">
<g filter="url(#filter0_d_146_2547)">
<path d="M172.887 8H26.1129C18.3186 8 12 14.3186 12 22.1129V168.887C12 176.681 18.3186 183 26.1129 183H172.887C180.681 183 187 176.681 187 168.887V22.1129C187 14.3186 180.681 8 172.887 8Z" fill="white"/>
<path d="M172.887 8H26.1129C18.3186 8 12 14.3186 12 22.1129V168.887C12 176.681 18.3186 183 26.1129 183H172.887C180.681 183 187 176.681 187 168.887V22.1129C187 14.3186 180.681 8 172.887 8Z" fill="url(#paint0_linear_146_2547)" fill-opacity="0.2"/>
<path d="M172.887 8H26.1129C18.3186 8 12 14.3186 12 22.1129V168.887C12 176.681 18.3186 183 26.1129 183H172.887C180.681 183 187 176.681 187 168.887V22.1129C187 14.3186 180.681 8 172.887 8Z" stroke="#D5EAF6" stroke-width="15" stroke-linecap="round"/>
<g filter="url(#filter1_b_146_2547)">
<path d="M55 141.161V66.3691H145V141.161C145 144.1 142.75 146.504 140 146.504H60C57.25 146.504 55 144.1 55 141.161Z" fill="url(#paint1_linear_146_2547)"/>
<path d="M145 55.6842V71.7112H55V55.6842C55 52.746 57.25 50.3419 60 50.3419H140C142.75 50.3419 145 52.746 145 55.6842Z" fill="url(#paint2_linear_146_2547)"/>
<path opacity="0.05" d="M128.75 67.7044C124.608 67.7044 121.25 64.1171 121.25 59.691V50.3419H136.25V59.691C136.25 64.1171 132.893 67.7044 128.75 67.7044Z" fill="black"/>
<path opacity="0.07" d="M128.75 65.7011C125.642 65.7011 123.125 63.0112 123.125 59.691V50.3419H134.375V59.691C134.375 63.0112 131.857 65.7011 128.75 65.7011Z" fill="black"/>
<path opacity="0.05" d="M71.2502 67.7044C67.1077 67.7044 63.7502 64.1171 63.7502 59.691V50.3419H78.7502V59.691C78.7502 64.1171 75.3927 67.7044 71.2502 67.7044Z" fill="black"/>
<path opacity="0.07" d="M71.2499 65.7011C68.1424 65.7011 65.6249 63.0112 65.6249 59.691V50.3419H76.8749V59.691C76.8749 63.0112 74.3574 65.7011 71.2499 65.7011Z" fill="black"/>
<path d="M71.2502 63.6981C69.1802 63.6981 67.5002 61.9031 67.5002 59.6914V49.0067C67.5002 46.795 69.1802 45 71.2502 45C73.3202 45 75.0002 46.795 75.0002 49.0067V59.6914C75.0002 61.9031 73.3202 63.6981 71.2502 63.6981Z" fill="#3CCBF4"/>
<path d="M135 86.403V94.4164C135 95.1537 134.44 95.752 133.75 95.752H126.25C125.56 95.752 125 95.1537 125 94.4164V86.403C125 85.6657 125.56 85.0674 126.25 85.0674H133.75C134.44 85.0674 135 85.6657 135 86.403ZM115 86.403V94.4164C115 95.1537 114.44 95.752 113.75 95.752H106.25C105.56 95.752 105 95.1537 105 94.4164V86.403C105 85.6657 105.56 85.0674 106.25 85.0674H113.75C114.44 85.0674 115 85.6657 115 86.403ZM95.0001 86.403V94.4164C95.0001 95.1537 94.4401 95.752 93.7501 95.752H86.2501C85.5601 95.752 85.0001 95.1537 85.0001 94.4164V86.403C85.0001 85.6657 85.5601 85.0674 86.2501 85.0674H93.7501C94.4401 85.0674 95.0001 85.6657 95.0001 86.403Z" fill="white"/>
<path d="M135 105.101V113.114C135 113.852 134.44 114.45 133.75 114.45H126.25C125.56 114.45 125 113.852 125 113.114V105.101C125 104.364 125.56 103.765 126.25 103.765H133.75C134.44 103.765 135 104.364 135 105.101ZM115 105.101V113.114C115 113.852 114.44 114.45 113.75 114.45H106.25C105.56 114.45 105 113.852 105 113.114V105.101C105 104.364 105.56 103.765 106.25 103.765H113.75C114.44 103.765 115 104.364 115 105.101ZM95 105.101V113.114C95 113.852 94.44 114.45 93.75 114.45H86.25C85.56 114.45 85 113.852 85 113.114V105.101C85 104.364 85.56 103.765 86.25 103.765H93.75C94.44 103.765 95 104.364 95 105.101ZM75 105.101V113.114C75 113.852 74.44 114.45 73.75 114.45H66.25C65.56 114.45 65 113.852 65 113.114V105.101C65 104.364 65.56 103.765 66.25 103.765H73.75C74.44 103.765 75 104.364 75 105.101Z" fill="white"/>
<path d="M115 123.799V131.812C115 132.55 114.44 133.148 113.75 133.148H106.25C105.56 133.148 105 132.55 105 131.812V123.799C105 123.062 105.56 122.463 106.25 122.463H113.75C114.44 122.463 115 123.062 115 123.799ZM95 123.799V131.812C95 132.55 94.44 133.148 93.75 133.148H86.25C85.56 133.148 85 132.55 85 131.812V123.799C85 123.062 85.56 122.463 86.25 122.463H93.75C94.44 122.463 95 123.062 95 123.799ZM75 123.799V131.812C75 132.55 74.44 133.148 73.75 133.148H66.25C65.56 133.148 65 132.55 65 131.812V123.799C65 123.062 65.56 122.463 66.25 122.463H73.75C74.44 122.463 75 123.062 75 123.799Z" fill="white"/>
<path d="M128.75 63.6981C126.68 63.6981 125 61.9031 125 59.6914V49.0067C125 46.795 126.68 45 128.75 45C130.82 45 132.5 46.795 132.5 49.0067V59.6914C132.5 61.9031 130.82 63.6981 128.75 63.6981Z" fill="#3CCBF4"/>
</g>
</g>
<defs>
<filter id="filter0_d_146_2547" x="0.5" y="0.5" width="198" height="198" filterUnits="userSpaceOnUse" color-interpolation-filters="sRGB">
<feFlood flood-opacity="0" result="BackgroundImageFix"/>
<feColorMatrix in="SourceAlpha" type="matrix" values="0 0 0 0 0 0 0 0 0 0 0 0 0 0 0 0 0 0 127 0" result="hardAlpha"/>
<feOffset dy="4"/>
<feGaussianBlur stdDeviation="2"/>
<feComposite in2="hardAlpha" operator="out"/>
<feColorMatrix type="matrix" values="0 0 0 0 0.8375 0 0 0 0 0.732812 0 0 0 0 0.732812 0 0 0 0.25 0"/>
<feBlend mode="normal" in2="BackgroundImageFix" result="effect1_dropShadow_146_2547"/>
<feBlend mode="normal" in="SourceGraphic" in2="effect1_dropShadow_146_2547" result="shape"/>
</filter>
<filter id="filter1_b_146_2547" x="51" y="41" width="98" height="109.504" filterUnits="userSpaceOnUse" color-interpolation-filters="sRGB">
<feFlood flood-opacity="0" result="BackgroundImageFix"/>
<feGaussianBlur in="BackgroundImageFix" stdDeviation="2"/>
<feComposite in2="SourceAlpha" operator="in" result="effect1_backgroundBlur_146_2547"/>
<feBlend mode="normal" in="SourceGraphic" in2="effect1_backgroundBlur_146_2547" result="shape"/>
</filter>
<linearGradient id="paint0_linear_146_2547" x1="99.5" y1="16.4677" x2="99.5" y2="174.532" gradientUnits="userSpaceOnUse">
<stop stop-color="white"/>
<stop offset="0.472222" stop-color="#0D5176" stop-opacity="0.527778"/>
<stop offset="0.940972" stop-color="#12A6F7" stop-opacity="0.465278"/>
<stop offset="1" stop-opacity="0"/>
</linearGradient>
<linearGradient id="paint1_linear_146_2547" x1="56.035" y1="70.8085" x2="126.482" y2="118.964" gradientUnits="userSpaceOnUse">
<stop stop-color="#28AFEA"/>
<stop offset="1" stop-color="#047ED6"/>
</linearGradient>
<linearGradient id="paint2_linear_146_2547" x1="56.05" y1="51.966" x2="143.425" y2="68.595" gradientUnits="userSpaceOnUse">
<stop stop-color="#0077D2"/>
<stop offset="1" stop-color="#0B59A2"/>
</linearGradient>
</defs>
</svg>
