<svg width="118" height="118" viewBox="0 0 118 118" fill="none" xmlns="http://www.w3.org/2000/svg">
<g id="icon">
<g id="app-icon-frame" filter="url(#filter0_d_29_223)">
<path id="Vector" d="M100.935 5H17.0645C12.6106 5 9 8.61061 9 13.0645V96.9355C9 101.389 12.6106 105 17.0645 105H100.935C105.389 105 109 101.389 109 96.9355V13.0645C109 8.61061 105.389 5 100.935 5Z" fill="white"/>
<path id="Vector_2" d="M100.935 5H17.0645C12.6106 5 9 8.61061 9 13.0645V96.9355C9 101.389 12.6106 105 17.0645 105H100.935C105.389 105 109 101.389 109 96.9355V13.0645C109 8.61061 105.389 5 100.935 5Z" fill="url(#paint0_linear_29_223)" fill-opacity="0.2"/>
<path id="Vector_3" d="M100.935 5H17.0645C12.6106 5 9 8.61061 9 13.0645V96.9355C9 101.389 12.6106 105 17.0645 105H100.935C105.389 105 109 101.389 109 96.9355V13.0645C109 8.61061 105.389 5 100.935 5Z" stroke="#D5EAF6" stroke-width="10"/>
</g>
<g id="sales" filter="url(#filter1_bd_29_223)">
<g id="sales_2" filter="url(#filter2_bd_29_223)">
<path d="M24 80.5V40.25H94V80.5C94 82.425 92.425 84 90.5 84H27.5C25.575 84 24 82.425 24 80.5Z" fill="url(#paint1_linear_29_223)"/>
<path d="M94 31.5V40.25H24V31.5C24 29.575 25.575 28 27.5 28H90.5C92.425 28 94 29.575 94 31.5Z" fill="url(#paint2_linear_29_223)"/>
<path d="M45.875 36.75H89.625C90.108 36.75 90.5 36.358 90.5 35.875V32.375C90.5 31.892 90.108 31.5 89.625 31.5H45.875C45.392 31.5 45 31.892 45 32.375V35.875C45 36.358 45.392 36.75 45.875 36.75Z" fill="url(#paint3_linear_29_223)"/>
<path d="M30.125 36.75C31.5748 36.75 32.75 35.5748 32.75 34.125C32.75 32.6753 31.5748 31.5 30.125 31.5C28.6753 31.5 27.5 32.6753 27.5 34.125C27.5 35.5748 28.6753 36.75 30.125 36.75Z" fill="url(#paint4_linear_29_223)"/>
<path d="M38.8695 36.75C40.3193 36.75 41.4945 35.5748 41.4945 34.125C41.4945 32.6753 40.3193 31.5 38.8695 31.5C37.4198 31.5 36.2445 32.6753 36.2445 34.125C36.2445 35.5748 37.4198 36.75 38.8695 36.75Z" fill="url(#paint5_linear_29_223)"/>
<path d="M66.4667 65.8277C66.4667 57.9113 54.9956 59.4576 54.9956 54.7802C54.9956 52.3375 57.6891 52.2097 58.5326 52.2097C60.558 52.2097 62.511 52.7626 64.0013 53.4757C64.4714 53.7006 65.0111 53.3679 65.0111 52.8396V50.5355C65.0111 49.7624 64.7254 49.3049 64.2704 49.1248C63.2486 48.7197 61.7824 48.4255 59.6118 48.3516V45.8165C59.6118 45.5131 59.37 45.2667 59.0722 45.2667H57.993C57.6952 45.2667 57.4533 45.5131 57.4533 45.8165V48.3932C54.0886 48.7289 50.6 50.6634 50.6 55.1652C50.6 63.3712 62.0711 61.7448 62.0711 66.0664C62.0711 67.4249 61.2201 68.5954 58.5341 68.5954C55.8345 68.5954 53.3555 67.6359 51.9831 66.9197C51.519 66.6764 50.9749 67.0244 50.9749 67.5527V70.1756C50.9749 70.6792 51.2726 71.1258 51.7261 71.323C53.3525 72.0268 55.5337 72.5597 57.4518 72.7153V75.5168C57.4518 75.8202 57.6937 76.0667 57.9914 76.0667H59.0707C59.3685 76.0667 59.6103 75.8202 59.6103 75.5168V72.7215C64.6468 72.2933 66.4667 68.8587 66.4667 65.8277Z" fill="#FCFCFC"/>
</g>
</g>
</g>
<defs>
<filter id="filter0_d_29_223" x="0" y="0" width="118" height="118" filterUnits="userSpaceOnUse" color-interpolation-filters="sRGB">
<feFlood flood-opacity="0" result="BackgroundImageFix"/>
<feColorMatrix in="SourceAlpha" type="matrix" values="0 0 0 0 0 0 0 0 0 0 0 0 0 0 0 0 0 0 127 0" result="hardAlpha"/>
<feOffset dy="4"/>
<feGaussianBlur stdDeviation="2"/>
<feComposite in2="hardAlpha" operator="out"/>
<feColorMatrix type="matrix" values="0 0 0 0 0.8375 0 0 0 0 0.732812 0 0 0 0 0.732812 0 0 0 0.25 0"/>
<feBlend mode="normal" in2="BackgroundImageFix" result="effect1_dropShadow_29_223"/>
<feBlend mode="normal" in="SourceGraphic" in2="effect1_dropShadow_29_223" result="shape"/>
</filter>
<filter id="filter1_bd_29_223" x="20" y="24" width="78" height="68" filterUnits="userSpaceOnUse" color-interpolation-filters="sRGB">
<feFlood flood-opacity="0" result="BackgroundImageFix"/>
<feGaussianBlur in="BackgroundImageFix" stdDeviation="2"/>
<feComposite in2="SourceAlpha" operator="in" result="effect1_backgroundBlur_29_223"/>
<feColorMatrix in="SourceAlpha" type="matrix" values="0 0 0 0 0 0 0 0 0 0 0 0 0 0 0 0 0 0 127 0" result="hardAlpha"/>
<feOffset dy="4"/>
<feGaussianBlur stdDeviation="2"/>
<feComposite in2="hardAlpha" operator="out"/>
<feColorMatrix type="matrix" values="0 0 0 0 0.857346 0 0 0 0 0.887393 0 0 0 0 0.897222 0 0 0 1 0"/>
<feBlend mode="normal" in2="effect1_backgroundBlur_29_223" result="effect2_dropShadow_29_223"/>
<feBlend mode="normal" in="SourceGraphic" in2="effect2_dropShadow_29_223" result="shape"/>
</filter>
<filter id="filter2_bd_29_223" x="20" y="24" width="78" height="68" filterUnits="userSpaceOnUse" color-interpolation-filters="sRGB">
<feFlood flood-opacity="0" result="BackgroundImageFix"/>
<feGaussianBlur in="BackgroundImageFix" stdDeviation="2"/>
<feComposite in2="SourceAlpha" operator="in" result="effect1_backgroundBlur_29_223"/>
<feColorMatrix in="SourceAlpha" type="matrix" values="0 0 0 0 0 0 0 0 0 0 0 0 0 0 0 0 0 0 127 0" result="hardAlpha"/>
<feOffset dy="4"/>
<feGaussianBlur stdDeviation="2"/>
<feComposite in2="hardAlpha" operator="out"/>
<feColorMatrix type="matrix" values="0 0 0 0 1 0 0 0 0 1 0 0 0 0 1 0 0 0 0.25 0"/>
<feBlend mode="normal" in2="effect1_backgroundBlur_29_223" result="effect2_dropShadow_29_223"/>
<feBlend mode="normal" in="SourceGraphic" in2="effect2_dropShadow_29_223" result="shape"/>
</filter>
<linearGradient id="paint0_linear_29_223" x1="59" y1="9.83871" x2="59" y2="100.161" gradientUnits="userSpaceOnUse">
<stop stop-color="white"/>
<stop offset="0.472222" stop-color="#0D5176" stop-opacity="0.527778"/>
<stop offset="0.940972" stop-color="#12A6F7" stop-opacity="0.465278"/>
<stop offset="1" stop-opacity="0"/>
</linearGradient>
<linearGradient id="paint1_linear_29_223" x1="40.59" y1="20.3683" x2="83.7344" y2="69.1257" gradientUnits="userSpaceOnUse">
<stop stop-color="#7DD8F3"/>
<stop offset="1" stop-color="#45B0D0"/>
</linearGradient>
<linearGradient id="paint2_linear_29_223" x1="25.0745" y1="25.928" x2="94.7727" y2="29.0281" gradientUnits="userSpaceOnUse">
<stop stop-color="#0077D2"/>
<stop offset="1" stop-color="#0B59A2"/>
</linearGradient>
<linearGradient id="paint3_linear_29_223" x1="24" y1="56" x2="94" y2="56" gradientUnits="userSpaceOnUse">
<stop stop-color="#7DD8F3"/>
<stop offset="1" stop-color="#45B0D0"/>
</linearGradient>
<linearGradient id="paint4_linear_29_223" x1="41.5233" y1="35.7653" x2="63.1733" y2="74.9118" gradientUnits="userSpaceOnUse">
<stop stop-color="#75DAFF"/>
<stop offset="1" stop-color="#49BEF1"/>
</linearGradient>
<linearGradient id="paint5_linear_29_223" x1="41.5233" y1="35.7653" x2="63.1733" y2="74.9118" gradientUnits="userSpaceOnUse">
<stop stop-color="#75DAFF"/>
<stop offset="1" stop-color="#49BEF1"/>
</linearGradient>
</defs>
</svg>
