<svg width="118" height="118" viewBox="0 0 118 118" fill="none" xmlns="http://www.w3.org/2000/svg">
<g id="app-icon">
<g id="app-icon-frame" filter="url(#filter0_d_29_263)">
<path id="Vector" d="M100.935 5H17.0645C12.6106 5 9 8.61061 9 13.0645V96.9355C9 101.389 12.6106 105 17.0645 105H100.935C105.389 105 109 101.389 109 96.9355V13.0645C109 8.61061 105.389 5 100.935 5Z" fill="white"/>
<path id="Vector_2" d="M100.935 5H17.0645C12.6106 5 9 8.61061 9 13.0645V96.9355C9 101.389 12.6106 105 17.0645 105H100.935C105.389 105 109 101.389 109 96.9355V13.0645C109 8.61061 105.389 5 100.935 5Z" fill="url(#paint0_linear_29_263)" fill-opacity="0.2"/>
<path id="Vector_3" d="M100.935 5H17.0645C12.6106 5 9 8.61061 9 13.0645V96.9355C9 101.389 12.6106 105 17.0645 105H100.935C105.389 105 109 101.389 109 96.9355V13.0645C109 8.61061 105.389 5 100.935 5Z" stroke="#D5EAF6" stroke-width="10"/>
</g>
<g id="app-icon-frame_2" filter="url(#filter1_d_29_263)">
<path id="Vector_4" d="M100.935 5H17.0645C12.6106 5 9 8.61061 9 13.0645V96.9355C9 101.389 12.6106 105 17.0645 105H100.935C105.389 105 109 101.389 109 96.9355V13.0645C109 8.61061 105.389 5 100.935 5Z" fill="white"/>
<path id="Vector_5" d="M100.935 5H17.0645C12.6106 5 9 8.61061 9 13.0645V96.9355C9 101.389 12.6106 105 17.0645 105H100.935C105.389 105 109 101.389 109 96.9355V13.0645C109 8.61061 105.389 5 100.935 5Z" fill="url(#paint1_linear_29_263)" fill-opacity="0.2"/>
<path id="Vector_6" d="M100.935 5H17.0645C12.6106 5 9 8.61061 9 13.0645V96.9355C9 101.389 12.6106 105 17.0645 105H100.935C105.389 105 109 101.389 109 96.9355V13.0645C109 8.61061 105.389 5 100.935 5Z" stroke="#D5EAF6" stroke-width="10"/>
</g>
<g id="app-icon-frame_3" filter="url(#filter2_d_29_263)">
<path id="Vector_7" d="M100.935 5H17.0645C12.6106 5 9 8.61061 9 13.0645V96.9355C9 101.389 12.6106 105 17.0645 105H100.935C105.389 105 109 101.389 109 96.9355V13.0645C109 8.61061 105.389 5 100.935 5Z" fill="white"/>
<path id="Vector_8" d="M100.935 5H17.0645C12.6106 5 9 8.61061 9 13.0645V96.9355C9 101.389 12.6106 105 17.0645 105H100.935C105.389 105 109 101.389 109 96.9355V13.0645C109 8.61061 105.389 5 100.935 5Z" fill="url(#paint2_linear_29_263)" fill-opacity="0.2"/>
<path id="Vector_9" d="M100.935 5H17.0645C12.6106 5 9 8.61061 9 13.0645V96.9355C9 101.389 12.6106 105 17.0645 105H100.935C105.389 105 109 101.389 109 96.9355V13.0645C109 8.61061 105.389 5 100.935 5Z" stroke="#D5EAF6" stroke-width="10"/>
</g>
<g id="Frame">
<g id="sales" filter="url(#filter3_bd_29_263)">
<g id="sales_2" filter="url(#filter4_bd_29_263)">
<path d="M25 79.7857V39.5357H95V79.7857C95 81.7107 93.425 83.2857 91.5 83.2857H28.5C26.575 83.2857 25 81.7107 25 79.7857Z" fill="url(#paint3_linear_29_263)"/>
<path d="M95 30.7857V39.5357H25V30.7857C25 28.8607 26.575 27.2857 28.5 27.2857H91.5C93.425 27.2857 95 28.8607 95 30.7857Z" fill="url(#paint4_linear_29_263)"/>
<path d="M46.875 36.0357H90.625C91.108 36.0357 91.5 35.6437 91.5 35.1607V31.6607C91.5 31.1777 91.108 30.7857 90.625 30.7857H46.875C46.392 30.7857 46 31.1777 46 31.6607V35.1607C46 35.6437 46.392 36.0357 46.875 36.0357Z" fill="url(#paint5_linear_29_263)"/>
<path d="M31.125 36.0357C32.5748 36.0357 33.75 34.8605 33.75 33.4107C33.75 31.961 32.5748 30.7857 31.125 30.7857C29.6753 30.7857 28.5 31.961 28.5 33.4107C28.5 34.8605 29.6753 36.0357 31.125 36.0357Z" fill="url(#paint6_linear_29_263)"/>
<path d="M39.8695 36.0357C41.3193 36.0357 42.4945 34.8605 42.4945 33.4107C42.4945 31.961 41.3193 30.7857 39.8695 30.7857C38.4198 30.7857 37.2445 31.961 37.2445 33.4107C37.2445 34.8605 38.4198 36.0357 39.8695 36.0357Z" fill="url(#paint7_linear_29_263)"/>
<path d="M67.4667 65.1134C67.4667 57.197 55.9956 58.7434 55.9956 54.0659C55.9956 51.6232 58.6891 51.4954 59.5326 51.4954C61.558 51.4954 63.511 52.0483 65.0013 52.7614C65.4714 52.9863 66.0111 52.6536 66.0111 52.1253V49.8212C66.0111 49.0481 65.7254 48.5907 65.2704 48.4105C64.2486 48.0054 62.7824 47.7112 60.6118 47.6373V45.1022C60.6118 44.7988 60.37 44.5524 60.0722 44.5524H58.993C58.6952 44.5524 58.4533 44.7988 58.4533 45.1022V47.6789C55.0886 48.0146 51.6 49.9491 51.6 54.4509C51.6 62.6569 63.0711 61.0305 63.0711 65.3521C63.0711 66.7106 62.2201 67.8811 59.5341 67.8811C56.8345 67.8811 54.3555 66.9216 52.9831 66.2054C52.519 65.9621 51.9749 66.3101 51.9749 66.8384V69.4613C51.9749 69.9649 52.2726 70.4116 52.7261 70.6087C54.3525 71.3125 56.5337 71.8454 58.4518 72.001V74.8025C58.4518 75.1059 58.6937 75.3524 58.9914 75.3524H60.0707C60.3685 75.3524 60.6103 75.1059 60.6103 74.8025V72.0072C65.6468 71.579 67.4667 68.1445 67.4667 65.1134Z" fill="#FCFCFC"/>
</g>
</g>
</g>
<g id="Hidden Frame">
<g id="hidden">
<g id="plus">
<g id="Vector_10" filter="url(#filter5_bf_29_263)">
<path d="M95.4469 76.7143C95.4469 83.6174 89.9899 89.2143 83.2592 89.2143C76.5286 89.2143 71.0715 83.6174 71.0715 76.7143C71.0715 69.8112 76.5286 64.2143 83.2592 64.2143C89.9899 64.2143 95.4469 69.8112 95.4469 76.7143Z" fill="url(#paint8_radial_29_263)" fill-opacity="0.2"/>
<path d="M95.4469 76.7143C95.4469 83.6174 89.9899 89.2143 83.2592 89.2143C76.5286 89.2143 71.0715 83.6174 71.0715 76.7143C71.0715 69.8112 76.5286 64.2143 83.2592 64.2143C89.9899 64.2143 95.4469 69.8112 95.4469 76.7143Z" fill="white"/>
</g>
<g id="Group 16">
<path id="Vector_11" d="M96.0714 76.7143C96.0714 83.6174 90.6144 89.2143 83.8837 89.2143C77.1531 89.2143 71.696 83.6174 71.696 76.7143C71.696 69.8112 77.1531 64.2143 83.8837 64.2143C90.6144 64.2143 96.0714 69.8112 96.0714 76.7143Z" fill="url(#paint9_linear_29_263)" fill-opacity="0.5"/>
</g>
</g>
<g id="Group 17">
<path id="Vector_12" d="M84.1885 83.2322C88.3282 83.2322 91.684 80.5139 91.684 77.1607C91.684 73.8076 88.3282 71.0893 84.1885 71.0893C80.0489 71.0893 76.6931 73.8076 76.6931 77.1607C76.6931 80.5139 80.0489 83.2322 84.1885 83.2322Z" fill="url(#paint10_radial_29_263)"/>
<path id="Vector_13" d="M84.1884 81.0893C86.9481 81.0893 89.1853 78.8507 89.1853 76.0893C89.1853 73.3279 86.9481 71.0893 84.1884 71.0893C81.4286 71.0893 79.1914 73.3279 79.1914 76.0893C79.1914 78.8507 81.4286 81.0893 84.1884 81.0893Z" fill="url(#paint11_linear_29_263)" fill-opacity="0.5"/>
<path id="Vector_14" d="M84.1884 78.5893C85.5683 78.5893 86.6869 77.47 86.6869 76.0893C86.6869 74.7086 85.5683 73.5893 84.1884 73.5893C82.8085 73.5893 81.6899 74.7086 81.6899 76.0893C81.6899 77.47 82.8085 78.5893 84.1884 78.5893Z" fill="url(#paint12_radial_29_263)"/>
<path id="Vector_15" d="M82.4038 75.0179C82.798 75.0179 83.1176 74.6981 83.1176 74.3036C83.1176 73.9091 82.798 73.5893 82.4038 73.5893C82.0095 73.5893 81.6899 73.9091 81.6899 74.3036C81.6899 74.6981 82.0095 75.0179 82.4038 75.0179Z" fill="white"/>
</g>
<line id="Line 1" x1="93.2936" y1="68.4063" x2="74.9842" y2="86.7143" stroke="#889097" stroke-opacity="0.5" stroke-width="2" stroke-linecap="round"/>
</g>
</g>
</g>
<defs>
<filter id="filter0_d_29_263" x="0" y="0" width="118" height="118" filterUnits="userSpaceOnUse" color-interpolation-filters="sRGB">
<feFlood flood-opacity="0" result="BackgroundImageFix"/>
<feColorMatrix in="SourceAlpha" type="matrix" values="0 0 0 0 0 0 0 0 0 0 0 0 0 0 0 0 0 0 127 0" result="hardAlpha"/>
<feOffset dy="4"/>
<feGaussianBlur stdDeviation="2"/>
<feComposite in2="hardAlpha" operator="out"/>
<feColorMatrix type="matrix" values="0 0 0 0 0.8375 0 0 0 0 0.732812 0 0 0 0 0.732812 0 0 0 0.25 0"/>
<feBlend mode="normal" in2="BackgroundImageFix" result="effect1_dropShadow_29_263"/>
<feBlend mode="normal" in="SourceGraphic" in2="effect1_dropShadow_29_263" result="shape"/>
</filter>
<filter id="filter1_d_29_263" x="0" y="0" width="118" height="118" filterUnits="userSpaceOnUse" color-interpolation-filters="sRGB">
<feFlood flood-opacity="0" result="BackgroundImageFix"/>
<feColorMatrix in="SourceAlpha" type="matrix" values="0 0 0 0 0 0 0 0 0 0 0 0 0 0 0 0 0 0 127 0" result="hardAlpha"/>
<feOffset dy="4"/>
<feGaussianBlur stdDeviation="2"/>
<feComposite in2="hardAlpha" operator="out"/>
<feColorMatrix type="matrix" values="0 0 0 0 0.8375 0 0 0 0 0.732812 0 0 0 0 0.732812 0 0 0 0.25 0"/>
<feBlend mode="normal" in2="BackgroundImageFix" result="effect1_dropShadow_29_263"/>
<feBlend mode="normal" in="SourceGraphic" in2="effect1_dropShadow_29_263" result="shape"/>
</filter>
<filter id="filter2_d_29_263" x="0" y="0" width="118" height="118" filterUnits="userSpaceOnUse" color-interpolation-filters="sRGB">
<feFlood flood-opacity="0" result="BackgroundImageFix"/>
<feColorMatrix in="SourceAlpha" type="matrix" values="0 0 0 0 0 0 0 0 0 0 0 0 0 0 0 0 0 0 127 0" result="hardAlpha"/>
<feOffset dy="4"/>
<feGaussianBlur stdDeviation="2"/>
<feComposite in2="hardAlpha" operator="out"/>
<feColorMatrix type="matrix" values="0 0 0 0 0.8375 0 0 0 0 0.732812 0 0 0 0 0.732812 0 0 0 0.25 0"/>
<feBlend mode="normal" in2="BackgroundImageFix" result="effect1_dropShadow_29_263"/>
<feBlend mode="normal" in="SourceGraphic" in2="effect1_dropShadow_29_263" result="shape"/>
</filter>
<filter id="filter3_bd_29_263" x="21" y="23.2857" width="78" height="68" filterUnits="userSpaceOnUse" color-interpolation-filters="sRGB">
<feFlood flood-opacity="0" result="BackgroundImageFix"/>
<feGaussianBlur in="BackgroundImageFix" stdDeviation="2"/>
<feComposite in2="SourceAlpha" operator="in" result="effect1_backgroundBlur_29_263"/>
<feColorMatrix in="SourceAlpha" type="matrix" values="0 0 0 0 0 0 0 0 0 0 0 0 0 0 0 0 0 0 127 0" result="hardAlpha"/>
<feOffset dy="4"/>
<feGaussianBlur stdDeviation="2"/>
<feComposite in2="hardAlpha" operator="out"/>
<feColorMatrix type="matrix" values="0 0 0 0 0.857346 0 0 0 0 0.887393 0 0 0 0 0.897222 0 0 0 1 0"/>
<feBlend mode="normal" in2="effect1_backgroundBlur_29_263" result="effect2_dropShadow_29_263"/>
<feBlend mode="normal" in="SourceGraphic" in2="effect2_dropShadow_29_263" result="shape"/>
</filter>
<filter id="filter4_bd_29_263" x="21" y="23.2857" width="78" height="68" filterUnits="userSpaceOnUse" color-interpolation-filters="sRGB">
<feFlood flood-opacity="0" result="BackgroundImageFix"/>
<feGaussianBlur in="BackgroundImageFix" stdDeviation="2"/>
<feComposite in2="SourceAlpha" operator="in" result="effect1_backgroundBlur_29_263"/>
<feColorMatrix in="SourceAlpha" type="matrix" values="0 0 0 0 0 0 0 0 0 0 0 0 0 0 0 0 0 0 127 0" result="hardAlpha"/>
<feOffset dy="4"/>
<feGaussianBlur stdDeviation="2"/>
<feComposite in2="hardAlpha" operator="out"/>
<feColorMatrix type="matrix" values="0 0 0 0 1 0 0 0 0 1 0 0 0 0 1 0 0 0 0.25 0"/>
<feBlend mode="normal" in2="effect1_backgroundBlur_29_263" result="effect2_dropShadow_29_263"/>
<feBlend mode="normal" in="SourceGraphic" in2="effect2_dropShadow_29_263" result="shape"/>
</filter>
<filter id="filter5_bf_29_263" x="67.0715" y="60.2143" width="32.3755" height="33" filterUnits="userSpaceOnUse" color-interpolation-filters="sRGB">
<feFlood flood-opacity="0" result="BackgroundImageFix"/>
<feGaussianBlur in="BackgroundImageFix" stdDeviation="2"/>
<feComposite in2="SourceAlpha" operator="in" result="effect1_backgroundBlur_29_263"/>
<feBlend mode="normal" in="SourceGraphic" in2="effect1_backgroundBlur_29_263" result="shape"/>
<feGaussianBlur stdDeviation="2" result="effect2_foregroundBlur_29_263"/>
</filter>
<linearGradient id="paint0_linear_29_263" x1="59" y1="9.83871" x2="59" y2="100.161" gradientUnits="userSpaceOnUse">
<stop stop-color="white"/>
<stop offset="0.472222" stop-color="#0D5176" stop-opacity="0.527778"/>
<stop offset="0.940972" stop-color="#12A6F7" stop-opacity="0.465278"/>
<stop offset="1" stop-opacity="0"/>
</linearGradient>
<linearGradient id="paint1_linear_29_263" x1="59" y1="9.83871" x2="59" y2="100.161" gradientUnits="userSpaceOnUse">
<stop stop-color="white"/>
<stop offset="0.472222" stop-color="#0D5176" stop-opacity="0.527778"/>
<stop offset="0.940972" stop-color="#12A6F7" stop-opacity="0.465278"/>
<stop offset="1" stop-opacity="0"/>
</linearGradient>
<linearGradient id="paint2_linear_29_263" x1="59" y1="9.83871" x2="59" y2="100.161" gradientUnits="userSpaceOnUse">
<stop stop-color="white"/>
<stop offset="0.472222" stop-color="#0D5176" stop-opacity="0.527778"/>
<stop offset="0.940972" stop-color="#12A6F7" stop-opacity="0.465278"/>
<stop offset="1" stop-opacity="0"/>
</linearGradient>
<linearGradient id="paint3_linear_29_263" x1="41.59" y1="19.654" x2="84.7344" y2="68.4114" gradientUnits="userSpaceOnUse">
<stop stop-color="#7DD8F3"/>
<stop offset="1" stop-color="#45B0D0"/>
</linearGradient>
<linearGradient id="paint4_linear_29_263" x1="26.0745" y1="25.2137" x2="95.7727" y2="28.3138" gradientUnits="userSpaceOnUse">
<stop stop-color="#0077D2"/>
<stop offset="1" stop-color="#0B59A2"/>
</linearGradient>
<linearGradient id="paint5_linear_29_263" x1="25" y1="55.2857" x2="95" y2="55.2857" gradientUnits="userSpaceOnUse">
<stop stop-color="#7DD8F3"/>
<stop offset="1" stop-color="#45B0D0"/>
</linearGradient>
<linearGradient id="paint6_linear_29_263" x1="42.5233" y1="35.051" x2="64.1733" y2="74.1975" gradientUnits="userSpaceOnUse">
<stop stop-color="#75DAFF"/>
<stop offset="1" stop-color="#49BEF1"/>
</linearGradient>
<linearGradient id="paint7_linear_29_263" x1="42.5233" y1="35.051" x2="64.1733" y2="74.1975" gradientUnits="userSpaceOnUse">
<stop stop-color="#75DAFF"/>
<stop offset="1" stop-color="#49BEF1"/>
</linearGradient>
<radialGradient id="paint8_radial_29_263" cx="0" cy="0" r="1" gradientUnits="userSpaceOnUse" gradientTransform="translate(83.2592 76.7143) rotate(45.7248) scale(12.3447 12.3408)">
<stop stop-color="#64717C" stop-opacity="0.19"/>
<stop offset="1" stop-color="#64717C"/>
</radialGradient>
<linearGradient id="paint9_linear_29_263" x1="75.2658" y1="67.8755" x2="92.9377" y2="85.1059" gradientUnits="userSpaceOnUse">
<stop stop-color="#889097" stop-opacity="0.62"/>
<stop offset="1" stop-color="#889097"/>
</linearGradient>
<radialGradient id="paint10_radial_29_263" cx="0" cy="0" r="1" gradientUnits="userSpaceOnUse" gradientTransform="translate(84.2388 75.2568) scale(7.95377 8.05337)">
<stop offset="0.55" stop-color="#E4E4E6"/>
<stop offset="0.73" stop-color="#E1E2E4"/>
<stop offset="0.854" stop-color="#D8DADC"/>
<stop offset="0.961" stop-color="#C9CDCF"/>
<stop offset="1" stop-color="#C1C6C9"/>
</radialGradient>
<linearGradient id="paint11_linear_29_263" x1="81.0078" y1="72.9068" x2="87.4628" y2="79.3579" gradientUnits="userSpaceOnUse">
<stop stop-color="#32BDEF"/>
<stop offset="1" stop-color="#1EA2E4"/>
</linearGradient>
<radialGradient id="paint12_radial_29_263" cx="0" cy="0" r="1" gradientUnits="userSpaceOnUse" gradientTransform="translate(82.7165 72.4314) scale(6.48497 6.48893)">
<stop stop-color="#4B4B4B"/>
<stop offset="0.531" stop-color="#393939"/>
<stop offset="1" stop-color="#252525"/>
</radialGradient>
</defs>
</svg>
