<svg width="118" height="118" viewBox="0 0 118 118" fill="none" xmlns="http://www.w3.org/2000/svg">
<g id="app-icon-combo">
<g id="app-icon-frame" filter="url(#filter0_d_29_318)">
<path id="Vector" d="M100.935 5H17.0645C12.6106 5 9 8.61061 9 13.0645V96.9355C9 101.389 12.6106 105 17.0645 105H100.935C105.389 105 109 101.389 109 96.9355V13.0645C109 8.61061 105.389 5 100.935 5Z" fill="white"/>
<path id="Vector_2" d="M100.935 5H17.0645C12.6106 5 9 8.61061 9 13.0645V96.9355C9 101.389 12.6106 105 17.0645 105H100.935C105.389 105 109 101.389 109 96.9355V13.0645C109 8.61061 105.389 5 100.935 5Z" fill="url(#paint0_linear_29_318)" fill-opacity="0.2"/>
<path id="Vector_3" d="M100.935 5H17.0645C12.6106 5 9 8.61061 9 13.0645V96.9355C9 101.389 12.6106 105 17.0645 105H100.935C105.389 105 109 101.389 109 96.9355V13.0645C109 8.61061 105.389 5 100.935 5Z" stroke="#D5EAF6" stroke-width="10"/>
</g>
<g id="Vector_4">
<path d="M40.785 42.8563L37.15 39.2213C34.5325 43.1725 33 47.905 33 53C33 57.585 34.2412 61.8787 36.3987 65.5725C36.765 66.2 37.6412 66.2888 38.155 65.7738L40.205 63.7237C40.5487 63.38 40.6125 62.8575 40.3825 62.43C38.8713 59.6188 38 56.415 38 53C38 49.2925 39.0262 45.8337 40.785 42.8563Z" fill="#50E6FF" fill-opacity="0.5"/>
<path d="M78 53C78 56.7075 76.9737 60.1663 75.215 63.1438L78.85 66.7787C81.4675 62.8275 83 58.0938 83 53C83 48.415 81.7587 44.1213 79.6012 40.4275C79.235 39.8 78.3587 39.7125 77.845 40.2262L75.795 42.2762C75.4512 42.62 75.3875 43.1425 75.6175 43.57C77.1288 46.3812 78 49.585 78 53Z" fill="#199BE2" fill-opacity="0.5"/>
<path d="M47.2762 35.205C47.62 35.5487 48.1425 35.6125 48.57 35.3825C51.3812 33.8713 54.585 33 58 33C61.7075 33 65.1663 34.0262 68.1438 35.785L71.78 32.1487C67.8275 29.5325 63.095 28 58 28C53.4375 28 49.165 29.2287 45.4838 31.3662C44.8325 31.745 44.695 32.6238 45.2275 33.1562L47.2762 35.205Z" fill="#35C1F1" fill-opacity="0.5"/>
<path d="M68.7237 70.795C68.38 70.4512 67.8575 70.3875 67.43 70.6175C64.6188 72.1288 61.415 73 58 73C54.2925 73 50.8337 71.9737 47.8563 70.215L44.2213 73.85C48.1725 76.4675 52.9062 78 58 78C62.585 78 66.8787 76.7587 70.5725 74.6012C71.2 74.235 71.2888 73.3587 70.7738 72.845L68.7237 70.795Z" fill="#0078D4" fill-opacity="0.5"/>
<path d="M72.9175 38.0938L66.875 37.8863C66.4475 37.8713 66.235 37.36 66.5288 37.0475L72.35 30.8288C72.6525 30.505 73.195 30.7075 73.2125 31.15L73.4637 37.5463C73.475 37.8525 73.2237 38.1038 72.9175 38.0938Z" fill="#35C1F1" fill-opacity="0.5"/>
<path d="M43.0825 67.9062L49.125 68.1138C49.5525 68.1287 49.765 68.64 49.4713 68.9525L43.65 75.1712C43.3475 75.495 42.805 75.2925 42.7875 74.85L42.5362 68.4538C42.525 68.1475 42.7762 67.8962 43.0825 67.9062Z" fill="#0078D4" fill-opacity="0.5"/>
<path d="M72.9062 67.9175L73.1138 61.875C73.1287 61.4475 73.64 61.235 73.9525 61.5288L80.1712 67.35C80.495 67.6525 80.2925 68.195 79.85 68.2125L73.4538 68.4637C73.1475 68.475 72.8962 68.2237 72.9062 67.9175Z" fill="#199BE2" fill-opacity="0.5"/>
<path d="M43.0938 38.0825L42.8863 44.125C42.8713 44.5525 42.36 44.765 42.0475 44.4713L35.8275 38.65C35.5038 38.3475 35.7062 37.805 36.1488 37.7875L42.545 37.5362C42.8525 37.525 43.1038 37.7762 43.0938 38.0825Z" fill="#50E6FF" fill-opacity="0.5"/>
</g>
<g id="App Frame">
<g id="sales" filter="url(#filter1_bd_29_318)">
<g id="sales_2" filter="url(#filter2_bd_29_318)">
<path d="M18 43.75V23.625H53V43.75C53 44.7125 52.2125 45.5 51.25 45.5H19.75C18.7875 45.5 18 44.7125 18 43.75Z" fill="url(#paint1_linear_29_318)"/>
<path d="M53 19.25V23.625H18V19.25C18 18.2875 18.7875 17.5 19.75 17.5H51.25C52.2125 17.5 53 18.2875 53 19.25Z" fill="url(#paint2_linear_29_318)"/>
<path d="M28.9375 21.875H50.8125C51.054 21.875 51.25 21.679 51.25 21.4375V19.6875C51.25 19.446 51.054 19.25 50.8125 19.25H28.9375C28.696 19.25 28.5 19.446 28.5 19.6875V21.4375C28.5 21.679 28.696 21.875 28.9375 21.875Z" fill="url(#paint3_linear_29_318)"/>
<path d="M21.0625 21.875C21.7874 21.875 22.375 21.2874 22.375 20.5625C22.375 19.8377 21.7874 19.25 21.0625 19.25C20.3377 19.25 19.75 19.8377 19.75 20.5625C19.75 21.2874 20.3377 21.875 21.0625 21.875Z" fill="url(#paint4_linear_29_318)"/>
<path d="M25.4348 21.875C26.1597 21.875 26.7473 21.2874 26.7473 20.5625C26.7473 19.8377 26.1597 19.25 25.4348 19.25C24.7099 19.25 24.1223 19.8377 24.1223 20.5625C24.1223 21.2874 24.7099 21.875 25.4348 21.875Z" fill="url(#paint5_linear_29_318)"/>
<path d="M39.2333 36.4139C39.2333 32.4557 33.4978 33.2288 33.4978 30.8901C33.4978 29.6688 34.8446 29.6048 35.2663 29.6048C36.279 29.6048 37.2555 29.8813 38.0007 30.2378C38.2357 30.3503 38.5055 30.1839 38.5055 29.9198V28.7678C38.5055 28.3812 38.3627 28.1525 38.1352 28.0624C37.6243 27.8598 36.8912 27.7128 35.8059 27.6758V26.4082C35.8059 26.2565 35.685 26.1333 35.5361 26.1333H34.9965C34.8476 26.1333 34.7267 26.2565 34.7267 26.4082V27.6966C33.0443 27.8645 31.3 28.8317 31.3 31.0826C31.3 35.1856 37.0355 34.3724 37.0355 36.5332C37.0355 37.2124 36.6101 37.7977 35.267 37.7977C33.9172 37.7977 32.6778 37.3179 31.9915 36.9598C31.7595 36.8382 31.4874 37.0122 31.4874 37.2763V38.5878C31.4874 38.8396 31.6363 39.0629 31.863 39.1615C32.6763 39.5134 33.7668 39.7799 34.7259 39.8576V41.2584C34.7259 41.4101 34.8468 41.5333 34.9957 41.5333H35.5353C35.6842 41.5333 35.8052 41.4101 35.8052 41.2584V39.8607C38.3234 39.6466 39.2333 37.9294 39.2333 36.4139Z" fill="#FCFCFC"/>
</g>
</g>
</g>
</g>
<defs>
<filter id="filter0_d_29_318" x="0" y="0" width="118" height="118" filterUnits="userSpaceOnUse" color-interpolation-filters="sRGB">
<feFlood flood-opacity="0" result="BackgroundImageFix"/>
<feColorMatrix in="SourceAlpha" type="matrix" values="0 0 0 0 0 0 0 0 0 0 0 0 0 0 0 0 0 0 127 0" result="hardAlpha"/>
<feOffset dy="4"/>
<feGaussianBlur stdDeviation="2"/>
<feComposite in2="hardAlpha" operator="out"/>
<feColorMatrix type="matrix" values="0 0 0 0 0.8375 0 0 0 0 0.732812 0 0 0 0 0.732812 0 0 0 0.25 0"/>
<feBlend mode="normal" in2="BackgroundImageFix" result="effect1_dropShadow_29_318"/>
<feBlend mode="normal" in="SourceGraphic" in2="effect1_dropShadow_29_318" result="shape"/>
</filter>
<filter id="filter1_bd_29_318" x="14" y="13.5" width="43" height="40" filterUnits="userSpaceOnUse" color-interpolation-filters="sRGB">
<feFlood flood-opacity="0" result="BackgroundImageFix"/>
<feGaussianBlur in="BackgroundImageFix" stdDeviation="2"/>
<feComposite in2="SourceAlpha" operator="in" result="effect1_backgroundBlur_29_318"/>
<feColorMatrix in="SourceAlpha" type="matrix" values="0 0 0 0 0 0 0 0 0 0 0 0 0 0 0 0 0 0 127 0" result="hardAlpha"/>
<feOffset dy="4"/>
<feGaussianBlur stdDeviation="2"/>
<feComposite in2="hardAlpha" operator="out"/>
<feColorMatrix type="matrix" values="0 0 0 0 0.857346 0 0 0 0 0.887393 0 0 0 0 0.897222 0 0 0 1 0"/>
<feBlend mode="normal" in2="effect1_backgroundBlur_29_318" result="effect2_dropShadow_29_318"/>
<feBlend mode="normal" in="SourceGraphic" in2="effect2_dropShadow_29_318" result="shape"/>
</filter>
<filter id="filter2_bd_29_318" x="14" y="13.5" width="43" height="40" filterUnits="userSpaceOnUse" color-interpolation-filters="sRGB">
<feFlood flood-opacity="0" result="BackgroundImageFix"/>
<feGaussianBlur in="BackgroundImageFix" stdDeviation="2"/>
<feComposite in2="SourceAlpha" operator="in" result="effect1_backgroundBlur_29_318"/>
<feColorMatrix in="SourceAlpha" type="matrix" values="0 0 0 0 0 0 0 0 0 0 0 0 0 0 0 0 0 0 127 0" result="hardAlpha"/>
<feOffset dy="4"/>
<feGaussianBlur stdDeviation="2"/>
<feComposite in2="hardAlpha" operator="out"/>
<feColorMatrix type="matrix" values="0 0 0 0 1 0 0 0 0 1 0 0 0 0 1 0 0 0 0.25 0"/>
<feBlend mode="normal" in2="effect1_backgroundBlur_29_318" result="effect2_dropShadow_29_318"/>
<feBlend mode="normal" in="SourceGraphic" in2="effect2_dropShadow_29_318" result="shape"/>
</filter>
<linearGradient id="paint0_linear_29_318" x1="59" y1="9.83871" x2="59" y2="100.161" gradientUnits="userSpaceOnUse">
<stop stop-color="white"/>
<stop offset="0.472222" stop-color="#0D5176" stop-opacity="0.527778"/>
<stop offset="0.940972" stop-color="#12A6F7" stop-opacity="0.465278"/>
<stop offset="1" stop-opacity="0"/>
</linearGradient>
<linearGradient id="paint1_linear_29_318" x1="26.295" y1="13.6842" x2="47.8672" y2="38.0629" gradientUnits="userSpaceOnUse">
<stop stop-color="#7DD8F3"/>
<stop offset="1" stop-color="#45B0D0"/>
</linearGradient>
<linearGradient id="paint2_linear_29_318" x1="18.5373" y1="16.464" x2="53.3864" y2="18.014" gradientUnits="userSpaceOnUse">
<stop stop-color="#0077D2"/>
<stop offset="1" stop-color="#0B59A2"/>
</linearGradient>
<linearGradient id="paint3_linear_29_318" x1="18" y1="31.5" x2="53" y2="31.5" gradientUnits="userSpaceOnUse">
<stop stop-color="#7DD8F3"/>
<stop offset="1" stop-color="#45B0D0"/>
</linearGradient>
<linearGradient id="paint4_linear_29_318" x1="26.7617" y1="21.3827" x2="37.5866" y2="40.9559" gradientUnits="userSpaceOnUse">
<stop stop-color="#75DAFF"/>
<stop offset="1" stop-color="#49BEF1"/>
</linearGradient>
<linearGradient id="paint5_linear_29_318" x1="26.7617" y1="21.3827" x2="37.5866" y2="40.9559" gradientUnits="userSpaceOnUse">
<stop stop-color="#75DAFF"/>
<stop offset="1" stop-color="#49BEF1"/>
</linearGradient>
</defs>
</svg>
