<svg width="62" height="56" viewBox="0 0 62 56" fill="none" xmlns="http://www.w3.org/2000/svg">
<g id="sales+add">
<g id="Group 19">
<g id="Frame">
<g id="sales" filter="url(#filter0_bd_32_860)">
<g id="sales_2" filter="url(#filter1_bd_32_860)">
<path d="M4 43.2143V14.4643H54V43.2143C54 44.5893 52.875 45.7143 51.5 45.7143H6.5C5.125 45.7143 4 44.5893 4 43.2143Z" fill="url(#paint0_linear_32_860)"/>
<path d="M54 8.21429V14.4643H4V8.21429C4 6.83929 5.125 5.71429 6.5 5.71429H51.5C52.875 5.71429 54 6.83929 54 8.21429Z" fill="url(#paint1_linear_32_860)"/>
<path d="M19.625 11.9643H50.875C51.22 11.9643 51.5 11.6843 51.5 11.3393V8.83929C51.5 8.49429 51.22 8.21429 50.875 8.21429H19.625C19.28 8.21429 19 8.49429 19 8.83929V11.3393C19 11.6843 19.28 11.9643 19.625 11.9643Z" fill="url(#paint2_linear_32_860)"/>
<path d="M8.375 11.9643C9.41055 11.9643 10.25 11.1248 10.25 10.0893C10.25 9.05379 9.41055 8.21429 8.375 8.21429C7.3395 8.21429 6.5 9.05379 6.5 10.0893C6.5 11.1248 7.3395 11.9643 8.375 11.9643Z" fill="url(#paint3_linear_32_860)"/>
<path d="M14.6211 11.9643C15.6566 11.9643 16.4961 11.1248 16.4961 10.0893C16.4961 9.05379 15.6566 8.21429 14.6211 8.21429C13.5856 8.21429 12.7461 9.05379 12.7461 10.0893C12.7461 11.1248 13.5856 11.9643 14.6211 11.9643Z" fill="url(#paint4_linear_32_860)"/>
<path d="M34.3333 32.7341C34.3333 27.0795 26.1397 28.184 26.1397 24.843C26.1397 23.0982 28.0637 23.0069 28.6661 23.0069C30.1129 23.0069 31.5078 23.4019 32.5724 23.9112C32.9082 24.0718 33.2936 23.8342 33.2936 23.4569V21.8111C33.2936 21.2588 33.0896 20.9321 32.7646 20.8034C32.0347 20.5141 30.9874 20.3039 29.437 20.2511V18.4404C29.437 18.2236 29.2643 18.0476 29.0516 18.0476H28.2807C28.068 18.0476 27.8952 18.2236 27.8952 18.4404V20.2808C25.4919 20.5207 23 21.9024 23 25.118C23 30.9794 31.1936 29.8177 31.1936 32.9046C31.1936 33.8749 30.5858 34.711 28.6672 34.711C26.7389 34.711 24.9682 34.0256 23.9879 33.5141C23.6564 33.3403 23.2678 33.5889 23.2678 33.9662V35.8397C23.2678 36.1994 23.4805 36.5185 23.8044 36.6593C24.9661 37.162 26.5241 37.5427 27.8942 37.6538V39.6549C27.8942 39.8716 28.0669 40.0476 28.2796 40.0476H29.0505C29.2632 40.0476 29.4359 39.8716 29.4359 39.6549V37.6582C33.0334 37.3524 34.3333 34.8991 34.3333 32.7341Z" fill="#FCFCFC"/>
</g>
</g>
</g>
<g id="remove">
<g id="Vector" filter="url(#filter2_bf_32_860)">
<path d="M56.131 41.2886C56.131 46.3394 52.1359 50.4344 47.2083 50.4344C42.2808 50.4344 38.2856 46.3394 38.2856 41.2886C38.2856 36.2379 42.2808 32.1429 47.2083 32.1429C52.1359 32.1429 56.131 36.2379 56.131 41.2886Z" fill="url(#paint5_radial_32_860)" fill-opacity="0.2"/>
<path d="M56.131 41.2886C56.131 46.3394 52.1359 50.4344 47.2083 50.4344C42.2808 50.4344 38.2856 46.3394 38.2856 41.2886C38.2856 36.2379 42.2808 32.1429 47.2083 32.1429C52.1359 32.1429 56.131 36.2379 56.131 41.2886Z" fill="white"/>
</g>
<g id="plus">
<g id="Vector_2" filter="url(#filter3_bf_32_860)">
<path d="M57.5373 42.1693C57.5373 47.4071 53.3942 51.6538 48.2842 51.6538C43.1741 51.6538 39.031 47.4071 39.031 42.1693C39.031 36.9315 43.1741 32.6848 48.2842 32.6848C53.3942 32.6848 57.5373 36.9315 57.5373 42.1693Z" fill="url(#paint6_radial_32_860)" fill-opacity="0.2"/>
<path d="M57.5373 42.1693C57.5373 47.4071 53.3942 51.6538 48.2842 51.6538C43.1741 51.6538 39.031 47.4071 39.031 42.1693C39.031 36.9315 43.1741 32.6848 48.2842 32.6848C53.3942 32.6848 57.5373 36.9315 57.5373 42.1693Z" fill="white"/>
</g>
<path id="Vector_3" opacity="0.05" d="M52.448 40.2724H49.2094V36.9529C49.2094 36.4288 48.7953 36.0044 48.2841 36.0044H47.3588C46.8475 36.0044 46.4335 36.4288 46.4335 36.9529V40.2724H43.1948C42.6836 40.2724 42.2695 40.6969 42.2695 41.2209V42.1693C42.2695 42.6933 42.6836 43.1178 43.1948 43.1178H46.4335V46.4373C46.4335 46.9614 46.8475 47.3858 47.3588 47.3858H48.2841C48.7953 47.3858 49.2094 46.9614 49.2094 46.4373V43.1178H52.448C52.9592 43.1178 53.3733 42.6933 53.3733 42.1693V41.2209C53.3733 40.6969 52.9592 40.2724 52.448 40.2724Z" fill="black"/>
<g id="Group 16">
<path id="Vector_4" d="M58 42.1693C58 47.4071 53.8569 51.6538 48.7468 51.6538C43.6368 51.6538 39.4937 47.4071 39.4937 42.1693C39.4937 36.9315 43.6368 32.6848 48.7468 32.6848C53.8569 32.6848 58 36.9315 58 42.1693Z" fill="url(#paint7_linear_32_860)"/>
<path id="Vector_5" opacity="0.07" d="M53.6049 41.2208H50.1349V37.6642C50.1349 37.2715 49.824 36.9528 49.4409 36.9528H48.5156C48.1325 36.9528 47.8216 37.2715 47.8216 37.6642V41.2208H44.3517C43.9686 41.2208 43.6577 41.5395 43.6577 41.9322V42.8806C43.6577 43.2733 43.9686 43.592 44.3517 43.592H47.8216V47.1486C47.8216 47.5413 48.1325 47.86 48.5156 47.86H49.4409C49.824 47.86 50.1349 47.5413 50.1349 47.1486V43.592H53.6049C53.9879 43.592 54.2989 43.2733 54.2989 42.8806V41.9322C54.2989 41.5395 53.9879 41.2208 53.6049 41.2208Z" fill="black"/>
<path id="Vector_6" d="M48.3999 36.9528H49.5565C49.8757 36.9528 50.1348 37.1749 50.1348 37.4486V47.3642C50.1348 47.6379 49.8757 47.86 49.5565 47.86H48.3999C48.0806 47.86 47.8215 47.6379 47.8215 47.3642V37.4486C47.8215 37.1749 48.0806 36.9528 48.3999 36.9528Z" fill="white"/>
<path id="Vector_7" d="M54.2989 41.8137V42.9992C54.2989 43.3265 54.0822 43.592 53.8152 43.592H44.1414C43.8744 43.592 43.6577 43.3265 43.6577 42.9992V41.8137C43.6577 41.4865 43.8744 41.2209 44.1414 41.2209H53.8152C54.0822 41.2209 54.2989 41.4865 54.2989 41.8137Z" fill="white"/>
</g>
</g>
</g>
</g>
</g>
<defs>
<filter id="filter0_bd_32_860" x="0" y="1.71429" width="58" height="52" filterUnits="userSpaceOnUse" color-interpolation-filters="sRGB">
<feFlood flood-opacity="0" result="BackgroundImageFix"/>
<feGaussianBlur in="BackgroundImageFix" stdDeviation="2"/>
<feComposite in2="SourceAlpha" operator="in" result="effect1_backgroundBlur_32_860"/>
<feColorMatrix in="SourceAlpha" type="matrix" values="0 0 0 0 0 0 0 0 0 0 0 0 0 0 0 0 0 0 127 0" result="hardAlpha"/>
<feOffset dy="4"/>
<feGaussianBlur stdDeviation="2"/>
<feComposite in2="hardAlpha" operator="out"/>
<feColorMatrix type="matrix" values="0 0 0 0 0.857346 0 0 0 0 0.887393 0 0 0 0 0.897222 0 0 0 1 0"/>
<feBlend mode="normal" in2="effect1_backgroundBlur_32_860" result="effect2_dropShadow_32_860"/>
<feBlend mode="normal" in="SourceGraphic" in2="effect2_dropShadow_32_860" result="shape"/>
</filter>
<filter id="filter1_bd_32_860" x="0" y="1.71429" width="58" height="52" filterUnits="userSpaceOnUse" color-interpolation-filters="sRGB">
<feFlood flood-opacity="0" result="BackgroundImageFix"/>
<feGaussianBlur in="BackgroundImageFix" stdDeviation="2"/>
<feComposite in2="SourceAlpha" operator="in" result="effect1_backgroundBlur_32_860"/>
<feColorMatrix in="SourceAlpha" type="matrix" values="0 0 0 0 0 0 0 0 0 0 0 0 0 0 0 0 0 0 127 0" result="hardAlpha"/>
<feOffset dy="4"/>
<feGaussianBlur stdDeviation="2"/>
<feComposite in2="hardAlpha" operator="out"/>
<feColorMatrix type="matrix" values="0 0 0 0 1 0 0 0 0 1 0 0 0 0 1 0 0 0 0.25 0"/>
<feBlend mode="normal" in2="effect1_backgroundBlur_32_860" result="effect2_dropShadow_32_860"/>
<feBlend mode="normal" in="SourceGraphic" in2="effect2_dropShadow_32_860" result="shape"/>
</filter>
<filter id="filter2_bf_32_860" x="34.2856" y="28.1429" width="25.8453" height="26.2915" filterUnits="userSpaceOnUse" color-interpolation-filters="sRGB">
<feFlood flood-opacity="0" result="BackgroundImageFix"/>
<feGaussianBlur in="BackgroundImageFix" stdDeviation="2"/>
<feComposite in2="SourceAlpha" operator="in" result="effect1_backgroundBlur_32_860"/>
<feBlend mode="normal" in="SourceGraphic" in2="effect1_backgroundBlur_32_860" result="shape"/>
<feGaussianBlur stdDeviation="2" result="effect2_foregroundBlur_32_860"/>
</filter>
<filter id="filter3_bf_32_860" x="35.031" y="28.6848" width="26.5063" height="26.969" filterUnits="userSpaceOnUse" color-interpolation-filters="sRGB">
<feFlood flood-opacity="0" result="BackgroundImageFix"/>
<feGaussianBlur in="BackgroundImageFix" stdDeviation="2"/>
<feComposite in2="SourceAlpha" operator="in" result="effect1_backgroundBlur_32_860"/>
<feBlend mode="normal" in="SourceGraphic" in2="effect1_backgroundBlur_32_860" result="shape"/>
<feGaussianBlur stdDeviation="2" result="effect2_foregroundBlur_32_860"/>
</filter>
<linearGradient id="paint0_linear_32_860" x1="15.85" y1="0.263088" x2="46.6675" y2="35.0898" gradientUnits="userSpaceOnUse">
<stop stop-color="#7DD8F3"/>
<stop offset="1" stop-color="#45B0D0"/>
</linearGradient>
<linearGradient id="paint1_linear_32_860" x1="4.7675" y1="4.23428" x2="54.5519" y2="6.44862" gradientUnits="userSpaceOnUse">
<stop stop-color="#0077D2"/>
<stop offset="1" stop-color="#0B59A2"/>
</linearGradient>
<linearGradient id="paint2_linear_32_860" x1="4" y1="25.7143" x2="54" y2="25.7143" gradientUnits="userSpaceOnUse">
<stop stop-color="#7DD8F3"/>
<stop offset="1" stop-color="#45B0D0"/>
</linearGradient>
<linearGradient id="paint3_linear_32_860" x1="16.5167" y1="11.261" x2="31.9809" y2="39.2227" gradientUnits="userSpaceOnUse">
<stop stop-color="#75DAFF"/>
<stop offset="1" stop-color="#49BEF1"/>
</linearGradient>
<linearGradient id="paint4_linear_32_860" x1="16.5167" y1="11.261" x2="31.9809" y2="39.2227" gradientUnits="userSpaceOnUse">
<stop stop-color="#75DAFF"/>
<stop offset="1" stop-color="#49BEF1"/>
</linearGradient>
<radialGradient id="paint5_radial_32_860" cx="0" cy="0" r="1" gradientUnits="userSpaceOnUse" gradientTransform="translate(47.2083 41.2886) rotate(45.7073) scale(9.03483 9.03207)">
<stop stop-color="#64717C" stop-opacity="0.19"/>
<stop offset="1" stop-color="#64717C"/>
</radialGradient>
<radialGradient id="paint6_radial_32_860" cx="0" cy="0" r="1" gradientUnits="userSpaceOnUse" gradientTransform="translate(48.2842 42.1693) rotate(45.7073) scale(9.36945 9.36659)">
<stop stop-color="#64717C" stop-opacity="0.19"/>
<stop offset="1" stop-color="#64717C"/>
</radialGradient>
<linearGradient id="paint7_linear_32_860" x1="42.2039" y1="35.4628" x2="55.6128" y2="48.5447" gradientUnits="userSpaceOnUse">
<stop stop-color="#21AD64"/>
<stop offset="1" stop-color="#088242"/>
</linearGradient>
</defs>
</svg>
