<svg width="62" height="56" viewBox="0 0 62 56" fill="none" xmlns="http://www.w3.org/2000/svg">
<g id="sale-remove">
<g id="Group 23">
<g id="sales-remove">
<g id="sales" filter="url(#filter0_bd_32_866)">
<g id="sales_2" filter="url(#filter1_bd_32_866)">
<path d="M4 43.2143V14.4643H54V43.2143C54 44.5893 52.875 45.7143 51.5 45.7143H6.5C5.125 45.7143 4 44.5893 4 43.2143Z" fill="url(#paint0_linear_32_866)"/>
<path d="M54 8.21429V14.4643H4V8.21429C4 6.83929 5.125 5.71429 6.5 5.71429H51.5C52.875 5.71429 54 6.83929 54 8.21429Z" fill="url(#paint1_linear_32_866)"/>
<path d="M19.625 11.9643H50.875C51.22 11.9643 51.5 11.6843 51.5 11.3393V8.83929C51.5 8.49429 51.22 8.21429 50.875 8.21429H19.625C19.28 8.21429 19 8.49429 19 8.83929V11.3393C19 11.6843 19.28 11.9643 19.625 11.9643Z" fill="url(#paint2_linear_32_866)"/>
<path d="M8.375 11.9643C9.41055 11.9643 10.25 11.1248 10.25 10.0893C10.25 9.05379 9.41055 8.21429 8.375 8.21429C7.3395 8.21429 6.5 9.05379 6.5 10.0893C6.5 11.1248 7.3395 11.9643 8.375 11.9643Z" fill="url(#paint3_linear_32_866)"/>
<path d="M14.6211 11.9643C15.6566 11.9643 16.4961 11.1248 16.4961 10.0893C16.4961 9.05379 15.6566 8.21429 14.6211 8.21429C13.5856 8.21429 12.7461 9.05379 12.7461 10.0893C12.7461 11.1248 13.5856 11.9643 14.6211 11.9643Z" fill="url(#paint4_linear_32_866)"/>
<path d="M34.3333 32.7341C34.3333 27.0795 26.1397 28.184 26.1397 24.843C26.1397 23.0982 28.0637 23.0069 28.6661 23.0069C30.1129 23.0069 31.5078 23.4019 32.5724 23.9112C32.9082 24.0718 33.2936 23.8342 33.2936 23.4569V21.8111C33.2936 21.2588 33.0896 20.9321 32.7646 20.8034C32.0347 20.5141 30.9874 20.3039 29.437 20.2511V18.4404C29.437 18.2236 29.2643 18.0476 29.0516 18.0476H28.2807C28.068 18.0476 27.8952 18.2236 27.8952 18.4404V20.2808C25.4919 20.5207 23 21.9024 23 25.118C23 30.9794 31.1936 29.8177 31.1936 32.9046C31.1936 33.8749 30.5858 34.711 28.6672 34.711C26.7389 34.711 24.9682 34.0256 23.9879 33.5141C23.6564 33.3403 23.2678 33.5889 23.2678 33.9662V35.8397C23.2678 36.1994 23.4805 36.5185 23.8044 36.6593C24.9661 37.162 26.5241 37.5427 27.8942 37.6538V39.6549C27.8942 39.8716 28.0669 40.0476 28.2796 40.0476H29.0505C29.2632 40.0476 29.4359 39.8716 29.4359 39.6549V37.6582C33.0334 37.3524 34.3333 34.8991 34.3333 32.7341Z" fill="#FCFCFC"/>
</g>
</g>
</g>
<g id="remove">
<g id="Vector" filter="url(#filter2_bf_32_866)">
<path d="M57.1011 41.7857C57.1011 47.1109 52.8888 51.4285 47.6934 51.4285C42.498 51.4285 38.2858 47.1109 38.2858 41.7857C38.2858 36.4604 42.498 32.1428 47.6934 32.1428C52.8888 32.1428 57.1011 36.4604 57.1011 41.7857Z" fill="url(#paint5_radial_32_866)" fill-opacity="0.2"/>
<path d="M57.1011 41.7857C57.1011 47.1109 52.8888 51.4285 47.6934 51.4285C42.498 51.4285 38.2858 47.1109 38.2858 41.7857C38.2858 36.4604 42.498 32.1428 47.6934 32.1428C52.8888 32.1428 57.1011 36.4604 57.1011 41.7857Z" fill="white"/>
</g>
<path id="Vector_2" opacity="0.05" d="M51.9269 39.8571H48.6342V36.4821C48.6342 35.9493 48.2132 35.5178 47.6935 35.5178H46.7527C46.2329 35.5178 45.8119 35.9493 45.8119 36.4821V39.8571H42.5193C41.9995 39.8571 41.5785 40.2886 41.5785 40.8214V41.7857C41.5785 42.3184 41.9995 42.75 42.5193 42.75H45.8119V46.125C45.8119 46.6577 46.2329 47.0892 46.7527 47.0892H47.6935C48.2132 47.0892 48.6342 46.6577 48.6342 46.125V42.75H51.9269C52.4467 42.75 52.8677 42.3184 52.8677 41.7857V40.8214C52.8677 40.2886 52.4467 39.8571 51.9269 39.8571Z" fill="black"/>
<g id="Group 16">
<path id="Vector_3" d="M57.5716 41.7857C57.5716 47.1109 53.3593 51.4285 48.1639 51.4285C42.9685 51.4285 38.7562 47.1109 38.7562 41.7857C38.7562 36.4604 42.9685 32.1428 48.1639 32.1428C53.3593 32.1428 57.5716 36.4604 57.5716 41.7857Z" fill="url(#paint6_linear_32_866)"/>
<path id="Vector_4" d="M53.8086 41.4241V42.6294C53.8086 42.9621 53.5883 43.2321 53.3168 43.2321H43.4815C43.2101 43.2321 42.9897 42.9621 42.9897 42.6294V41.4241C42.9897 41.0914 43.2101 40.8214 43.4815 40.8214H53.3168C53.5883 40.8214 53.8086 41.0914 53.8086 41.4241Z" fill="white"/>
</g>
</g>
</g>
</g>
<defs>
<filter id="filter0_bd_32_866" x="0" y="1.71429" width="58" height="52" filterUnits="userSpaceOnUse" color-interpolation-filters="sRGB">
<feFlood flood-opacity="0" result="BackgroundImageFix"/>
<feGaussianBlur in="BackgroundImageFix" stdDeviation="2"/>
<feComposite in2="SourceAlpha" operator="in" result="effect1_backgroundBlur_32_866"/>
<feColorMatrix in="SourceAlpha" type="matrix" values="0 0 0 0 0 0 0 0 0 0 0 0 0 0 0 0 0 0 127 0" result="hardAlpha"/>
<feOffset dy="4"/>
<feGaussianBlur stdDeviation="2"/>
<feComposite in2="hardAlpha" operator="out"/>
<feColorMatrix type="matrix" values="0 0 0 0 0.857346 0 0 0 0 0.887393 0 0 0 0 0.897222 0 0 0 1 0"/>
<feBlend mode="normal" in2="effect1_backgroundBlur_32_866" result="effect2_dropShadow_32_866"/>
<feBlend mode="normal" in="SourceGraphic" in2="effect2_dropShadow_32_866" result="shape"/>
</filter>
<filter id="filter1_bd_32_866" x="0" y="1.71429" width="58" height="52" filterUnits="userSpaceOnUse" color-interpolation-filters="sRGB">
<feFlood flood-opacity="0" result="BackgroundImageFix"/>
<feGaussianBlur in="BackgroundImageFix" stdDeviation="2"/>
<feComposite in2="SourceAlpha" operator="in" result="effect1_backgroundBlur_32_866"/>
<feColorMatrix in="SourceAlpha" type="matrix" values="0 0 0 0 0 0 0 0 0 0 0 0 0 0 0 0 0 0 127 0" result="hardAlpha"/>
<feOffset dy="4"/>
<feGaussianBlur stdDeviation="2"/>
<feComposite in2="hardAlpha" operator="out"/>
<feColorMatrix type="matrix" values="0 0 0 0 1 0 0 0 0 1 0 0 0 0 1 0 0 0 0.25 0"/>
<feBlend mode="normal" in2="effect1_backgroundBlur_32_866" result="effect2_dropShadow_32_866"/>
<feBlend mode="normal" in="SourceGraphic" in2="effect2_dropShadow_32_866" result="shape"/>
</filter>
<filter id="filter2_bf_32_866" x="34.2858" y="28.1428" width="26.8153" height="27.2857" filterUnits="userSpaceOnUse" color-interpolation-filters="sRGB">
<feFlood flood-opacity="0" result="BackgroundImageFix"/>
<feGaussianBlur in="BackgroundImageFix" stdDeviation="2"/>
<feComposite in2="SourceAlpha" operator="in" result="effect1_backgroundBlur_32_866"/>
<feBlend mode="normal" in="SourceGraphic" in2="effect1_backgroundBlur_32_866" result="shape"/>
<feGaussianBlur stdDeviation="2" result="effect2_foregroundBlur_32_866"/>
</filter>
<linearGradient id="paint0_linear_32_866" x1="15.85" y1="0.263088" x2="46.6675" y2="35.0898" gradientUnits="userSpaceOnUse">
<stop stop-color="#7DD8F3"/>
<stop offset="1" stop-color="#45B0D0"/>
</linearGradient>
<linearGradient id="paint1_linear_32_866" x1="4.7675" y1="4.23428" x2="54.5519" y2="6.44862" gradientUnits="userSpaceOnUse">
<stop stop-color="#0077D2"/>
<stop offset="1" stop-color="#0B59A2"/>
</linearGradient>
<linearGradient id="paint2_linear_32_866" x1="4" y1="25.7143" x2="54" y2="25.7143" gradientUnits="userSpaceOnUse">
<stop stop-color="#7DD8F3"/>
<stop offset="1" stop-color="#45B0D0"/>
</linearGradient>
<linearGradient id="paint3_linear_32_866" x1="16.5167" y1="11.261" x2="31.9809" y2="39.2227" gradientUnits="userSpaceOnUse">
<stop stop-color="#75DAFF"/>
<stop offset="1" stop-color="#49BEF1"/>
</linearGradient>
<linearGradient id="paint4_linear_32_866" x1="16.5167" y1="11.261" x2="31.9809" y2="39.2227" gradientUnits="userSpaceOnUse">
<stop stop-color="#75DAFF"/>
<stop offset="1" stop-color="#49BEF1"/>
</linearGradient>
<radialGradient id="paint5_radial_32_866" cx="0" cy="0" r="1" gradientUnits="userSpaceOnUse" gradientTransform="translate(47.6934 41.7857) rotate(45.7073) scale(9.52589 9.52299)">
<stop stop-color="#64717C" stop-opacity="0.19"/>
<stop offset="1" stop-color="#64717C"/>
</radialGradient>
<linearGradient id="paint6_linear_32_866" x1="41.5117" y1="34.9672" x2="55.1445" y2="48.2675" gradientUnits="userSpaceOnUse">
<stop stop-color="#D12121"/>
<stop offset="1" stop-color="#AB1111" stop-opacity="0.81"/>
</linearGradient>
</defs>
</svg>
