<svg width="191" height="191" viewBox="0 0 191 191" fill="none" xmlns="http://www.w3.org/2000/svg">
<path d="M168.887 8H22.1129C14.3186 8 8 14.3186 8 22.1129V168.887C8 176.681 14.3186 183 22.1129 183H168.887C176.681 183 183 176.681 183 168.887V22.1129C183 14.3186 176.681 8 168.887 8Z" fill="white"/>
<path d="M168.887 8H22.1129C14.3186 8 8 14.3186 8 22.1129V168.887C8 176.681 14.3186 183 22.1129 183H168.887C176.681 183 183 176.681 183 168.887V22.1129C183 14.3186 176.681 8 168.887 8Z" fill="url(#paint0_linear_68_10989)" fill-opacity="0.2"/>
<path d="M168.887 8H22.1129C14.3186 8 8 14.3186 8 22.1129V168.887C8 176.681 14.3186 183 22.1129 183H168.887C176.681 183 183 176.681 183 168.887V22.1129C183 14.3186 176.681 8 168.887 8Z" stroke="#D5EAF6" stroke-width="15"/>
<g filter="url(#filter0_bd_68_10989)">
<path d="M119.725 124.341C121.099 124.341 122.212 123.223 122.212 121.845C122.212 120.466 121.099 119.348 119.725 119.348C118.351 119.348 117.238 120.466 117.238 121.845C117.238 123.223 118.351 124.341 119.725 124.341Z" fill="url(#paint1_linear_68_10989)" fill-opacity="0.5"/>
<path d="M120.444 56.2778H71.5556C68.1805 56.2778 65.4444 59.0138 65.4444 62.3889V129.611C65.4444 132.986 68.1805 135.722 71.5556 135.722H120.444C123.82 135.722 126.556 132.986 126.556 129.611V62.3889C126.556 59.0138 123.82 56.2778 120.444 56.2778Z" fill="#50E6FF"/>
<path d="M65.4444 48.6389C65.4444 49.0441 65.2835 49.4327 64.997 49.7192C64.7105 50.0057 64.3219 50.1667 63.9167 50.1667H50.1667V63.9167C50.1667 64.3219 50.0057 64.7105 49.7192 64.997C49.4327 65.2835 49.0441 65.4444 48.6389 65.4444H42.5278C42.1226 65.4444 41.734 65.2835 41.4475 64.997C41.161 64.7105 41 64.3219 41 63.9167V42.5278C41 42.1226 41.161 41.734 41.4475 41.4475C41.734 41.161 42.1226 41 42.5278 41H63.9167C64.3219 41 64.7105 41.161 64.997 41.4475C65.2835 41.734 65.4444 42.1226 65.4444 42.5278V48.6389ZM126.556 48.6389C126.556 49.0441 126.717 49.4327 127.003 49.7192C127.29 50.0057 127.678 50.1667 128.083 50.1667H141.833V63.9167C141.833 64.3219 141.994 64.7105 142.281 64.997C142.567 65.2835 142.956 65.4444 143.361 65.4444H149.472C149.877 65.4444 150.266 65.2835 150.553 64.997C150.839 64.7105 151 64.3219 151 63.9167V42.5278C151 42.1226 150.839 41.734 150.553 41.4475C150.266 41.161 149.877 41 149.472 41H128.083C127.678 41 127.29 41.161 127.003 41.4475C126.717 41.734 126.556 42.1226 126.556 42.5278V48.6389ZM65.4444 143.361C65.4444 142.956 65.2835 142.567 64.997 142.281C64.7105 141.994 64.3219 141.833 63.9167 141.833H50.1667V128.083C50.1667 127.678 50.0057 127.29 49.7192 127.003C49.4327 126.717 49.0441 126.556 48.6389 126.556H42.5278C42.1226 126.556 41.734 126.717 41.4475 127.003C41.161 127.29 41 127.678 41 128.083V149.472C41 149.877 41.161 150.266 41.4475 150.553C41.734 150.839 42.1226 151 42.5278 151H63.9167C64.3219 151 64.7105 150.839 64.997 150.553C65.2835 150.266 65.4444 149.877 65.4444 149.472V143.361ZM126.556 149.472C126.556 149.877 126.717 150.266 127.003 150.553C127.29 150.839 127.678 151 128.083 151H149.472C149.877 151 150.266 150.839 150.553 150.553C150.839 150.266 151 149.877 151 149.472V128.083C151 127.678 150.839 127.29 150.553 127.003C150.266 126.717 149.877 126.556 149.472 126.556H143.361C142.956 126.556 142.567 126.717 142.281 127.003C141.994 127.29 141.833 127.678 141.833 128.083V141.833H128.083C127.678 141.833 127.29 141.994 127.003 142.281C126.717 142.567 126.556 142.956 126.556 143.361V149.472Z" fill="url(#paint2_linear_68_10989)"/>
<path d="M82.5152 69.2665L85.9618 69.2626C86.2788 69.2622 86.5366 69.5777 86.537 69.9669L86.5938 119.316C86.5942 119.705 86.3372 120.021 86.0201 120.021L82.5736 120.025C82.2565 120.026 81.9988 119.71 81.9983 119.321L81.9416 69.9722C81.9411 69.583 82.1981 69.2669 82.5152 69.2665ZM89.4667 120.017L90.6156 120.016C90.9326 120.016 91.1896 119.7 91.1892 119.31L91.1324 69.9616C91.132 69.5725 90.8743 69.2569 90.5572 69.2573L89.4083 69.2586C89.0913 69.259 88.8343 69.5751 88.8347 69.9642L88.8915 119.313C88.8919 119.702 89.1496 120.018 89.4667 120.017ZM75.6804 120.033L79.127 120.029C79.4441 120.029 79.701 119.713 79.7006 119.324L79.6439 69.9748C79.6434 69.5857 79.3857 69.2701 79.0686 69.2705L75.622 69.2745C75.305 69.2748 75.048 69.5909 75.0484 69.9801L75.1052 119.329C75.1056 119.718 75.3633 120.034 75.6804 120.033ZM94.0621 120.012L102.104 120.003C102.421 120.003 102.678 119.686 102.678 119.297L102.621 69.9484C102.621 69.5592 102.363 69.2437 102.046 69.2441L94.0038 69.2533C93.6867 69.2537 93.4297 69.5698 93.4301 69.959L93.4869 119.308C93.4873 119.697 93.745 120.012 94.0621 120.012ZM111.812 69.9378L111.869 119.287C111.869 119.676 112.127 119.991 112.444 119.991L115.89 119.987C116.208 119.987 116.464 119.671 116.464 119.281L116.407 69.9325C116.407 69.5434 116.149 69.2279 115.832 69.2282L112.385 69.2322C112.068 69.2325 111.811 69.5487 111.812 69.9378ZM105.551 119.999L108.997 119.995C109.314 119.995 109.571 119.678 109.571 119.289L109.514 69.9405C109.514 69.5513 109.256 69.2358 108.939 69.2361L105.492 69.2401C105.175 69.2405 104.918 69.5566 104.919 69.9457L104.975 119.295C104.976 119.684 105.234 119.999 105.551 119.999Z" fill="url(#paint3_linear_68_10989)"/>
<path d="M138.923 99.2011H53.3677C51.6802 99.2011 50.3122 100.569 50.3122 102.257C50.3122 103.944 51.6802 105.312 53.3677 105.312H138.923C140.611 105.312 141.979 103.944 141.979 102.257C141.979 100.569 140.611 99.2011 138.923 99.2011Z" fill="url(#paint4_linear_68_10989)"/>
</g>
<defs>
<filter id="filter0_bd_68_10989" x="37" y="37" width="118" height="122" filterUnits="userSpaceOnUse" color-interpolation-filters="sRGB">
<feFlood flood-opacity="0" result="BackgroundImageFix"/>
<feGaussianBlur in="BackgroundImageFix" stdDeviation="2"/>
<feComposite in2="SourceAlpha" operator="in" result="effect1_backgroundBlur_68_10989"/>
<feColorMatrix in="SourceAlpha" type="matrix" values="0 0 0 0 0 0 0 0 0 0 0 0 0 0 0 0 0 0 127 0" result="hardAlpha"/>
<feOffset dy="4"/>
<feGaussianBlur stdDeviation="2"/>
<feComposite in2="hardAlpha" operator="out"/>
<feColorMatrix type="matrix" values="0 0 0 0 0 0 0 0 0 0 0 0 0 0 0 0 0 0 0.25 0"/>
<feBlend mode="normal" in2="effect1_backgroundBlur_68_10989" result="effect2_dropShadow_68_10989"/>
<feBlend mode="normal" in="SourceGraphic" in2="effect2_dropShadow_68_10989" result="shape"/>
</filter>
<linearGradient id="paint0_linear_68_10989" x1="95.5" y1="16.4677" x2="95.5" y2="174.532" gradientUnits="userSpaceOnUse">
<stop stop-color="white"/>
<stop offset="0.472222" stop-color="#0D5176" stop-opacity="0.527778"/>
<stop offset="0.940972" stop-color="#12A6F7" stop-opacity="0.465278"/>
<stop offset="1" stop-opacity="0"/>
</linearGradient>
<linearGradient id="paint1_linear_68_10989" x1="41" y1="96" x2="151" y2="96" gradientUnits="userSpaceOnUse">
<stop stop-color="#32383D"/>
<stop offset="1" stop-color="#3079D6"/>
</linearGradient>
<linearGradient id="paint2_linear_68_10989" x1="32.365" y1="32.365" x2="161.117" y2="161.117" gradientUnits="userSpaceOnUse">
<stop stop-color="#C3CDD9"/>
<stop offset="1" stop-color="#9FA7B0"/>
</linearGradient>
<linearGradient id="paint3_linear_68_10989" x1="77.9356" y1="37.4678" x2="111.794" y2="147.168" gradientUnits="userSpaceOnUse">
<stop stop-color="#0176D0"/>
<stop offset="1" stop-color="#0A85D9"/>
</linearGradient>
<linearGradient id="paint4_linear_68_10989" x1="50.3122" y1="102.257" x2="141.979" y2="102.257" gradientUnits="userSpaceOnUse">
<stop stop-color="#3079D6"/>
<stop offset="1" stop-color="#297CD2"/>
</linearGradient>
</defs>
</svg>
