<svg width="191" height="191" viewBox="0 0 191 191" fill="none" xmlns="http://www.w3.org/2000/svg">
<path d="M168.887 8H22.1129C14.3186 8 8 14.3186 8 22.1129V168.887C8 176.681 14.3186 183 22.1129 183H168.887C176.681 183 183 176.681 183 168.887V22.1129C183 14.3186 176.681 8 168.887 8Z" fill="white"/>
<path d="M168.887 8H22.1129C14.3186 8 8 14.3186 8 22.1129V168.887C8 176.681 14.3186 183 22.1129 183H168.887C176.681 183 183 176.681 183 168.887V22.1129C183 14.3186 176.681 8 168.887 8Z" fill="url(#paint0_linear_191_1116)" fill-opacity="0.2"/>
<path d="M168.887 8H22.1129C14.3186 8 8 14.3186 8 22.1129V168.887C8 176.681 14.3186 183 22.1129 183H168.887C176.681 183 183 176.681 183 168.887V22.1129C183 14.3186 176.681 8 168.887 8Z" stroke="#D5EAF6" stroke-width="15" stroke-linecap="round"/>
<path d="M40 129.746V70.9086H142.326V129.746C142.326 132.56 140.023 134.863 137.21 134.863H45.1163C42.3023 134.863 40 132.56 40 129.746Z" fill="#50E6FF"/>
<path d="M142.326 58.1164V70.9071H40V58.1164C40 55.3023 42.3023 53 45.1163 53H137.21C140.023 53 142.326 55.3023 142.326 58.1164Z" fill="url(#paint1_linear_191_1116)"/>
<path d="M48.9532 65.7931C51.0724 65.7931 52.7904 64.0751 52.7904 61.9559C52.7904 59.8366 51.0724 58.1187 48.9532 58.1187C46.834 58.1187 45.116 59.8366 45.116 61.9559C45.116 64.0751 46.834 65.7931 48.9532 65.7931Z" fill="url(#paint2_linear_191_1116)"/>
<path d="M61.7444 65.7931C63.8637 65.7931 65.5817 64.0751 65.5817 61.9559C65.5817 59.8366 63.8637 58.1187 61.7444 58.1187C59.6252 58.1187 57.9072 59.8366 57.9072 61.9559C57.9072 64.0751 59.6252 65.7931 61.7444 65.7931Z" fill="url(#paint3_linear_191_1116)"/>
<path d="M74.535 65.7931C76.6542 65.7931 78.3723 64.0751 78.3723 61.9559C78.3723 59.8366 76.6542 58.1187 74.535 58.1187C72.4158 58.1187 70.6978 59.8366 70.6978 61.9559C70.6978 64.0751 72.4158 65.7931 74.535 65.7931Z" fill="url(#paint4_linear_191_1116)"/>
<path opacity="0.05" d="M142.325 129.745V108.134C139.397 105.707 136.02 103.842 132.403 102.772L130.202 102.123L129.317 104.241C128.489 106.226 126.565 107.507 124.416 107.507C122.267 107.507 120.343 106.226 119.514 104.238L118.627 102.12L116.427 102.772C112.208 104.023 108.279 106.298 105.064 109.352L103.404 110.93L104.79 112.752C106.09 114.463 106.235 116.768 105.161 118.628C104.217 120.265 102.449 121.283 100.551 121.283C100.331 121.283 100.109 121.27 99.886 121.24L97.6093 120.953L97.0771 123.187C96.5451 125.4 96.279 127.604 96.279 129.745C96.279 131.423 96.4913 133.14 96.8162 134.861H137.209C140.023 134.861 142.325 132.559 142.325 129.745Z" fill="black"/>
<path opacity="0.07" d="M142.325 129.745V118.655C141.54 116.913 141.543 114.969 142.325 113.255V109.802C139.355 107.134 135.83 105.118 132.039 103.997L130.939 103.672L130.497 104.731C129.468 107.195 127.082 108.786 124.416 108.786C121.751 108.786 119.363 107.195 118.335 104.731L117.892 103.672L116.793 103.997C112.769 105.189 109.016 107.361 105.946 110.277L105.114 111.068L105.808 111.979C107.419 114.102 107.601 116.962 106.269 119.266C105.097 121.298 102.907 122.561 100.551 122.561C100.277 122.561 100.001 122.544 99.7247 122.508L98.5864 122.365L98.3202 123.482C97.8137 125.601 97.558 127.708 97.558 129.745C97.558 131.421 97.7729 133.137 98.1131 134.861H137.209C140.023 134.861 142.325 132.558 142.325 129.745Z" fill="black"/>
<path d="M149.271 123.781C146.222 124.17 143.093 122.74 141.459 119.909C139.827 117.079 140.149 113.656 142.009 111.208C139.121 108.465 135.6 106.386 131.679 105.227C130.492 108.069 127.688 110.067 124.417 110.067C121.144 110.067 118.341 108.066 117.154 105.227C113.232 106.389 109.715 108.463 106.824 111.208C108.684 113.656 109.009 117.079 107.374 119.909C105.742 122.737 102.613 124.168 99.5616 123.781C99.1063 125.697 98.8376 127.688 98.8376 129.747C98.8376 131.806 99.1062 133.796 99.5667 135.713C102.616 135.323 105.745 136.757 107.38 139.586C109.012 142.415 108.689 145.838 106.83 148.286C109.718 151.028 113.238 153.108 117.159 154.267C118.346 151.425 121.15 149.427 124.422 149.427C127.694 149.427 130.498 151.427 131.684 154.267C135.606 153.105 139.124 151.031 142.014 148.286C140.154 145.838 139.827 142.415 141.464 139.586C143.096 136.757 146.224 135.326 149.277 135.713C149.732 133.796 150 131.806 150 129.747C150 127.688 149.732 125.697 149.271 123.781Z" fill="url(#paint5_linear_191_1116)"/>
<path d="M124.419 142.537C131.483 142.537 137.209 136.809 137.209 129.745C137.209 122.681 131.483 116.955 124.419 116.955C117.355 116.955 111.628 122.681 111.628 129.745C111.628 136.809 117.355 142.537 124.419 142.537Z" fill="url(#paint6_linear_191_1116)"/>
<path d="M124.419 137.418C128.657 137.418 132.094 133.983 132.094 129.744C132.094 125.506 128.657 122.07 124.419 122.07C120.18 122.07 116.745 125.506 116.745 129.744C116.745 133.983 120.18 137.418 124.419 137.418Z" fill="url(#paint7_linear_191_1116)"/>
<path d="M93.7587 103.278L86.7595 96.2789L76.3739 106.665C72.5891 106.709 69.535 109.787 69.535 113.582C69.535 117.404 72.6336 120.503 76.456 120.503C80.2508 120.503 83.3287 117.448 83.3731 113.664L93.7587 103.278Z" fill="url(#paint8_linear_191_1116)"/>
<path d="M103.053 93.925C101.136 95.8412 98.0298 95.8412 96.1135 93.925C94.1975 92.0089 94.1975 88.9023 96.1135 86.9861C96.5813 86.5185 98.4658 84.634 100.385 82.7148C100.846 82.2541 100.641 81.4503 100.009 81.2951C98.4529 80.9124 96.7789 80.8323 95.0379 81.1606C89.9312 82.1236 85.9486 86.3969 85.4186 91.5669C84.6455 99.1049 90.9367 105.395 98.4746 104.62C103.644 104.089 107.917 100.107 108.878 94.9998C109.206 93.2586 109.125 91.5857 108.743 90.0304C108.587 89.3986 107.784 89.194 107.323 89.6547C105.405 91.5728 103.52 93.4573 103.053 93.925Z" fill="url(#paint9_linear_191_1116)"/>
<path d="M76.456 117.537C78.6403 117.537 80.4109 115.767 80.4109 113.582C80.4109 111.398 78.6403 109.627 76.456 109.627C74.2718 109.627 72.5012 111.398 72.5012 113.582C72.5012 115.767 74.2718 117.537 76.456 117.537Z" fill="url(#paint10_linear_191_1116)"/>
<defs>
<linearGradient id="paint0_linear_191_1116" x1="95.5" y1="16.4677" x2="95.5" y2="174.532" gradientUnits="userSpaceOnUse">
<stop stop-color="white"/>
<stop offset="0.472222" stop-color="#0D5176" stop-opacity="0.527778"/>
<stop offset="0.940972" stop-color="#12A6F7" stop-opacity="0.465278"/>
<stop offset="1" stop-opacity="0"/>
</linearGradient>
<linearGradient id="paint1_linear_191_1116" x1="41.5707" y1="52.3375" x2="139.604" y2="72.2706" gradientUnits="userSpaceOnUse">
<stop stop-color="#0077D2"/>
<stop offset="1" stop-color="#0B59A2"/>
</linearGradient>
<linearGradient id="paint2_linear_191_1116" x1="47.0371" y1="59.1828" x2="50.3142" y2="63.9231" gradientUnits="userSpaceOnUse">
<stop stop-color="#75DAFF"/>
<stop offset="1" stop-color="#49BEF1"/>
</linearGradient>
<linearGradient id="paint3_linear_191_1116" x1="59.8284" y1="59.1828" x2="63.1054" y2="63.9231" gradientUnits="userSpaceOnUse">
<stop stop-color="#75DAFF"/>
<stop offset="1" stop-color="#49BEF1"/>
</linearGradient>
<linearGradient id="paint4_linear_191_1116" x1="72.619" y1="59.1828" x2="75.8959" y2="63.9231" gradientUnits="userSpaceOnUse">
<stop stop-color="#75DAFF"/>
<stop offset="1" stop-color="#49BEF1"/>
</linearGradient>
<linearGradient id="paint5_linear_191_1116" x1="106.995" y1="112.324" x2="143.416" y2="148.744" gradientUnits="userSpaceOnUse">
<stop stop-color="#889097"/>
<stop offset="0.331" stop-color="#848C94"/>
<stop offset="0.669" stop-color="#78828B"/>
<stop offset="1" stop-color="#64717C"/>
</linearGradient>
<linearGradient id="paint6_linear_191_1116" x1="133.331" y1="138.658" x2="115.388" y2="120.715" gradientUnits="userSpaceOnUse">
<stop stop-color="white"/>
<stop offset="0.242" stop-color="#FCFCFC"/>
<stop offset="1" stop-color="#CCCCCC"/>
</linearGradient>
<linearGradient id="paint7_linear_191_1116" x1="117.239" y1="122.563" x2="129.834" y2="135.16" gradientUnits="userSpaceOnUse">
<stop stop-color="#0D61A9"/>
<stop offset="0.363" stop-color="#0E5FA4"/>
<stop offset="0.78" stop-color="#135796"/>
<stop offset="1" stop-color="#16528C"/>
</linearGradient>
<linearGradient id="paint8_linear_191_1116" x1="71.9425" y1="118.095" x2="88.995" y2="101.043" gradientUnits="userSpaceOnUse">
<stop offset="0.503" stop-color="#A1AAB3"/>
<stop offset="0.658" stop-color="#9EA7AF"/>
<stop offset="0.796" stop-color="#949DA5"/>
<stop offset="0.928" stop-color="#848C92"/>
<stop offset="1" stop-color="#787F85"/>
</linearGradient>
<linearGradient id="paint9_linear_191_1116" x1="88.1633" y1="84.9118" x2="104.682" y2="101.43" gradientUnits="userSpaceOnUse">
<stop stop-color="#A1AAB3"/>
<stop offset="1" stop-color="#8F979E"/>
</linearGradient>
<linearGradient id="paint10_linear_191_1116" x1="79.2136" y1="116.34" x2="73.6698" y2="110.796" gradientUnits="userSpaceOnUse">
<stop stop-color="white"/>
<stop offset="0.242" stop-color="#FCFCFC"/>
<stop offset="1" stop-color="#CCCCCC"/>
</linearGradient>
</defs>
</svg>
