<svg width="199" height="199" viewBox="0 0 199 199" fill="none" xmlns="http://www.w3.org/2000/svg">
<g filter="url(#filter0_d_151_1348)">
<path d="M172.887 8H26.1129C18.3186 8 12 14.3186 12 22.1129V168.887C12 176.681 18.3186 183 26.1129 183H172.887C180.681 183 187 176.681 187 168.887V22.1129C187 14.3186 180.681 8 172.887 8Z" fill="white"/>
<path d="M172.887 8H26.1129C18.3186 8 12 14.3186 12 22.1129V168.887C12 176.681 18.3186 183 26.1129 183H172.887C180.681 183 187 176.681 187 168.887V22.1129C187 14.3186 180.681 8 172.887 8Z" fill="url(#paint0_linear_151_1348)" fill-opacity="0.2"/>
<path d="M172.887 8H26.1129C18.3186 8 12 14.3186 12 22.1129V168.887C12 176.681 18.3186 183 26.1129 183H172.887C180.681 183 187 176.681 187 168.887V22.1129C187 14.3186 180.681 8 172.887 8Z" stroke="#D5EAF6" stroke-width="15" stroke-linecap="round"/>
</g>
<path d="M149 134.667C149 137.733 146.511 140.222 143.444 140.222H79.5556C76.4889 140.222 74 137.733 74 134.667V56.8889C74 53.8223 76.4889 51.3334 79.5556 51.3334H143.444C146.511 51.3334 149 53.8223 149 56.8889V134.667Z" fill="url(#paint1_linear_151_1348)"/>
<path d="M94.8333 84.6666H103.167C103.933 84.6666 104.556 85.2888 104.556 86.0555V94.3888C104.556 95.1555 103.933 95.7777 103.167 95.7777H94.8333C94.0667 95.7777 93.4445 95.1555 93.4445 94.3888V86.0555C93.4445 85.2888 94.0667 84.6666 94.8333 84.6666ZM111.5 84.6666H119.833C120.6 84.6666 121.222 85.2888 121.222 86.0555V94.3888C121.222 95.1555 120.6 95.7777 119.833 95.7777H111.5C110.733 95.7777 110.111 95.1555 110.111 94.3888V86.0555C110.111 85.2888 110.733 84.6666 111.5 84.6666ZM128.167 84.6666H136.5C137.267 84.6666 137.889 85.2888 137.889 86.0555V94.3888C137.889 95.1555 137.267 95.7777 136.5 95.7777H128.167C127.4 95.7777 126.778 95.1555 126.778 94.3888V86.0555C126.778 85.2888 127.4 84.6666 128.167 84.6666ZM94.8333 101.333H103.167C103.933 101.333 104.556 101.956 104.556 102.722V111.056C104.556 111.822 103.933 112.444 103.167 112.444H94.8333C94.0667 112.444 93.4445 111.822 93.4445 111.056V102.722C93.4445 101.956 94.0667 101.333 94.8333 101.333ZM111.5 101.333H119.833C120.6 101.333 121.222 101.956 121.222 102.722V111.056C121.222 111.822 120.6 112.444 119.833 112.444H111.5C110.733 112.444 110.111 111.822 110.111 111.056V102.722C110.111 101.956 110.733 101.333 111.5 101.333ZM128.167 101.333H136.5C137.267 101.333 137.889 101.956 137.889 102.722V111.056C137.889 111.822 137.267 112.444 136.5 112.444H128.167C127.4 112.444 126.778 111.822 126.778 111.056V102.722C126.778 101.956 127.4 101.333 128.167 101.333ZM94.8333 118H103.167C103.933 118 104.556 118.622 104.556 119.389V127.722C104.556 128.489 103.933 129.111 103.167 129.111H94.8333C94.0667 129.111 93.4445 128.489 93.4445 127.722V119.389C93.4445 118.622 94.0667 118 94.8333 118ZM111.5 118H119.833C120.6 118 121.222 118.622 121.222 119.389V127.722C121.222 128.489 120.6 129.111 119.833 129.111H111.5C110.733 129.111 110.111 128.489 110.111 127.722V119.389C110.111 118.622 110.733 118 111.5 118ZM128.167 118H136.5C137.267 118 137.889 118.622 137.889 119.389V127.722C137.889 128.489 137.267 129.111 136.5 129.111H128.167C127.4 129.111 126.778 128.489 126.778 127.722V119.389C126.778 118.622 127.4 118 128.167 118Z" fill="#CAD2D9"/>
<path d="M65.6668 43C49.0001 43 49.0001 48.5556 49.0001 51.3333C49.0001 54.1111 49.0001 137.444 49.0001 140.222C49.0001 143 48.8084 148.556 65.6668 148.556C82.5251 148.556 82.3334 143 82.3334 140.222C82.3334 137.444 82.3334 54.1111 82.3334 51.3333C82.3334 48.5556 82.3334 43 65.6668 43Z" fill="url(#paint2_linear_151_1348)"/>
<path d="M135.111 73.5556H96.2222C94.6889 73.5556 93.4445 72.3111 93.4445 70.7778V65.2222C93.4445 63.6889 94.6889 62.4445 96.2222 62.4445H135.111C136.644 62.4445 137.889 63.6889 137.889 65.2222V70.7778C137.889 72.3111 136.644 73.5556 135.111 73.5556Z" fill="url(#paint3_linear_151_1348)"/>
<defs>
<filter id="filter0_d_151_1348" x="0.5" y="0.5" width="198" height="198" filterUnits="userSpaceOnUse" color-interpolation-filters="sRGB">
<feFlood flood-opacity="0" result="BackgroundImageFix"/>
<feColorMatrix in="SourceAlpha" type="matrix" values="0 0 0 0 0 0 0 0 0 0 0 0 0 0 0 0 0 0 127 0" result="hardAlpha"/>
<feOffset dy="4"/>
<feGaussianBlur stdDeviation="2"/>
<feComposite in2="hardAlpha" operator="out"/>
<feColorMatrix type="matrix" values="0 0 0 0 0.8375 0 0 0 0 0.732812 0 0 0 0 0.732812 0 0 0 0.25 0"/>
<feBlend mode="normal" in2="BackgroundImageFix" result="effect1_dropShadow_151_1348"/>
<feBlend mode="normal" in="SourceGraphic" in2="effect1_dropShadow_151_1348" result="shape"/>
</filter>
<linearGradient id="paint0_linear_151_1348" x1="99.5" y1="16.4677" x2="99.5" y2="174.532" gradientUnits="userSpaceOnUse">
<stop stop-color="white"/>
<stop offset="0.472222" stop-color="#0D5176" stop-opacity="0.527778"/>
<stop offset="0.940972" stop-color="#12A6F7" stop-opacity="0.465278"/>
<stop offset="1" stop-opacity="0"/>
</linearGradient>
<linearGradient id="paint1_linear_151_1348" x1="105.775" y1="49.9778" x2="116.861" y2="138.672" gradientUnits="userSpaceOnUse">
<stop stop-color="#0D61A9"/>
<stop offset="1" stop-color="#16528C"/>
</linearGradient>
<linearGradient id="paint2_linear_151_1348" x1="58.1501" y1="43.2194" x2="73.1195" y2="147.992" gradientUnits="userSpaceOnUse">
<stop stop-color="#199AE0"/>
<stop offset="1" stop-color="#0782D8"/>
</linearGradient>
<linearGradient id="paint3_linear_151_1348" x1="98.8445" y1="60.2083" x2="136.117" y2="77.4722" gradientUnits="userSpaceOnUse">
<stop stop-color="#4FE5FF"/>
<stop offset="1" stop-color="#2EB7ED"/>
</linearGradient>
</defs>
</svg>
