<svg width="191" height="191" viewBox="0 0 191 191" fill="none" xmlns="http://www.w3.org/2000/svg">
<path d="M168.887 8H22.1129C14.3186 8 8 14.3186 8 22.1129V168.887C8 176.681 14.3186 183 22.1129 183H168.887C176.681 183 183 176.681 183 168.887V22.1129C183 14.3186 176.681 8 168.887 8Z" fill="white"/>
<path d="M168.887 8H22.1129C14.3186 8 8 14.3186 8 22.1129V168.887C8 176.681 14.3186 183 22.1129 183H168.887C176.681 183 183 176.681 183 168.887V22.1129C183 14.3186 176.681 8 168.887 8Z" fill="url(#paint0_linear_70_11)" fill-opacity="0.2"/>
<path d="M168.887 8H22.1129C14.3186 8 8 14.3186 8 22.1129V168.887C8 176.681 14.3186 183 22.1129 183H168.887C176.681 183 183 176.681 183 168.887V22.1129C183 14.3186 176.681 8 168.887 8Z" stroke="#D5EAF6" stroke-width="15"/>
<g opacity="0.303">
<path d="M48.5542 126.808H46.2148V125.356H52.6119V126.808H50.2703V133.2H48.5542V126.808Z" fill="black" fill-opacity="0.27"/>
<path d="M53.5078 125.356H55.9239L57.7485 130.75H57.771L59.4985 125.356H61.9146V133.2H60.3068V127.641H60.2865L58.3717 133.2H57.0485L55.1359 127.698H55.1133V133.2H53.5078V125.356Z" fill="black" fill-opacity="0.27"/>
<path d="M140.492 115.868C144.015 115.868 146.871 112.998 146.871 109.459C146.871 105.92 144.015 103.051 140.492 103.051C136.969 103.051 134.113 105.92 134.113 109.459C134.113 112.998 136.969 115.868 140.492 115.868Z" fill="black" fill-opacity="0.27"/>
<path d="M92.3939 98.1956H57.2855C59.5165 104.211 64.701 107.029 69.7229 107.029C74.9345 107.029 79.2858 104.509 82.2665 101.962L89.411 110.687C82.8039 116.513 75.551 118.572 69.5355 118.572C55.4068 118.572 44.8232 107.327 44.8232 93.9143C44.8232 80.6098 55.3255 70.2046 68.7023 70.2046C82.2665 70.1775 92.3939 81.0434 92.3939 98.1956ZM57.3668 88.8201H79.2045C78.2652 84.2137 74.1826 80.2846 68.4336 80.2846C62.8471 80.3117 58.3061 83.8614 57.369 88.8201H57.3668Z" fill="black" fill-opacity="0.27"/>
<path d="M137.76 94.1855C137.76 107.49 128.037 118.302 116.004 118.302C110.711 118.302 106.199 116.513 102.733 112.936V136.971C102.734 137.179 102.652 137.378 102.506 137.525C102.36 137.673 102.162 137.756 101.954 137.757H90.9688V94.1855C90.9688 80.9623 100.611 70.1777 114.392 70.1777C128.143 70.1777 137.76 80.9893 137.76 94.1855ZM126.102 94.1855C126.102 86.7881 120.893 81.2332 114.446 81.2332C107.999 81.2332 102.787 87.0319 102.787 94.1855C102.787 101.502 107.999 107.409 114.446 107.409C120.893 107.409 126.102 101.691 126.102 94.1855Z" fill="black" fill-opacity="0.27"/>
</g>
<path d="M48.5542 122.291H46.2148V120.839H52.6119V122.291H50.2703V128.684H48.5542V122.291Z" fill="#007AD9"/>
<path d="M53.5078 120.839H55.9239L57.7485 126.234H57.771L59.4985 120.839H61.9146V128.684H60.3068V123.125H60.2865L58.3717 128.684H57.0485L55.1359 123.181H55.1133V128.684H53.5078V120.839Z" fill="#007AD9"/>
<path d="M140.492 111.351C144.015 111.351 146.871 108.482 146.871 104.943C146.871 101.403 144.015 98.5342 140.492 98.5342C136.969 98.5342 134.113 101.403 134.113 104.943C134.113 108.482 136.969 111.351 140.492 111.351Z" fill="#007AD9"/>
<path d="M92.3939 93.6795H57.2855C59.5165 99.695 64.701 102.513 69.7229 102.513C74.9345 102.513 79.2858 99.993 82.2665 97.4459L89.411 106.171C82.8039 111.997 75.551 114.056 69.5355 114.056C55.4068 114.056 44.8232 102.811 44.8232 89.3982C44.8232 76.0937 55.3255 65.6885 68.7023 65.6885C82.2665 65.6614 92.3939 76.5272 92.3939 93.6795ZM57.3668 84.304H79.2045C78.2652 79.6976 74.1826 75.7685 68.4336 75.7685C62.8471 75.7956 58.3061 79.3453 57.369 84.304H57.3668Z" fill="#007AD9"/>
<path d="M137.76 89.6694C137.76 102.974 128.037 113.785 116.004 113.785C110.711 113.785 106.199 111.997 102.733 108.42V132.455C102.734 132.663 102.652 132.862 102.506 133.009C102.36 133.156 102.162 133.24 101.954 133.241H90.9688V89.6694C90.9688 76.4461 100.611 65.6616 114.392 65.6616C128.143 65.6616 137.76 76.4732 137.76 89.6694ZM126.102 89.6694C126.102 82.2719 120.893 76.7171 114.446 76.7171C107.999 76.7171 102.787 82.5158 102.787 89.6694C102.787 96.9855 107.999 102.893 114.446 102.893C120.893 102.893 126.102 97.1752 126.102 89.6694Z" fill="#007AD9"/>
<defs>
<linearGradient id="paint0_linear_70_11" x1="95.5" y1="16.4677" x2="95.5" y2="174.532" gradientUnits="userSpaceOnUse">
<stop stop-color="white"/>
<stop offset="0.472222" stop-color="#0D5176" stop-opacity="0.527778"/>
<stop offset="0.940972" stop-color="#12A6F7" stop-opacity="0.465278"/>
<stop offset="1" stop-opacity="0"/>
</linearGradient>
</defs>
</svg>
