<svg width="224" height="427" viewBox="0 0 224 427" fill="none" xmlns="http://www.w3.org/2000/svg">
<g filter="url(#filter0_d_68_10908)">
<path d="M197.887 8H51.1129C43.3186 8 37 14.3186 37 22.1129V168.887C37 176.681 43.3186 183 51.1129 183H197.887C205.681 183 212 176.681 212 168.887V22.1129C212 14.3186 205.681 8 197.887 8Z" fill="white"/>
<path d="M197.887 8H51.1129C43.3186 8 37 14.3186 37 22.1129V168.887C37 176.681 43.3186 183 51.1129 183H197.887C205.681 183 212 176.681 212 168.887V22.1129C212 14.3186 205.681 8 197.887 8Z" fill="url(#paint0_linear_68_10908)" fill-opacity="0.2"/>
<path d="M197.887 8H51.1129C43.3186 8 37 14.3186 37 22.1129V168.887C37 176.681 43.3186 183 51.1129 183H197.887C205.681 183 212 176.681 212 168.887V22.1129C212 14.3186 205.681 8 197.887 8Z" stroke="#D5EAF6" stroke-width="15"/>
</g>
<g filter="url(#filter1_bd_68_10908)">
<path d="M175 140.444C175 143.514 172.514 146 169.444 146H80.5556C77.4861 146 75 143.514 75 140.444V51.5556C75 48.4861 77.4861 46 80.5556 46H169.444C172.514 46 175 48.4861 175 51.5556V140.444Z" fill="url(#paint1_linear_68_10908)"/>
<path opacity="0.05" d="M113.895 126.555C104.895 126.555 96.2528 124.35 90.1861 120.506L89.25 119.914L90.8945 115.272L91.9945 115.4C92.4084 115.45 92.7334 115.458 93.0639 115.458L94.4361 115.444C97.2056 115.444 101.247 115 105.119 113.842C101.242 112.519 96.325 109.95 94.7861 105.189L93.6084 101.556H96.4611C93.4084 98.7694 91.6723 94.8944 91.6723 90.6027V86.1027L93.3639 86.8833C92.2667 84.7583 91.6861 82.6138 91.6861 80.5999C91.6861 77.686 92.4584 74.836 93.925 72.361L95.95 68.9499L98.4667 72.011C104.014 78.7638 113.033 86.1666 122.228 87.4638V84.8888C122.228 75.5444 129.083 68.2222 137.831 68.2222C142.122 68.2222 145.839 69.4499 148.631 71.7805C151.517 71.0555 155.042 69.7166 156.933 68.6027L163.222 64.9027L160.981 71.8472C160.875 72.1805 160.742 72.5138 160.581 72.8527L165.967 70.4666L159.972 79.4472C158.725 81.3444 157.542 83.1472 155.542 84.8333C155.556 85.5527 155.561 86.3083 155.561 86.6388C155.561 105.989 140.958 126.555 113.895 126.555Z" fill="black"/>
<path opacity="0.07" d="M113.896 125.167C105.155 125.167 96.7825 123.039 90.9297 119.331L91.8325 116.778C92.3103 116.833 92.6825 116.847 93.0603 116.847L94.4519 116.833C98.9325 116.833 105.005 115.808 109.66 113.603C104.032 112.556 97.6992 109.672 96.1103 104.758L95.5214 102.944H97.4325C98.7547 102.944 99.8075 102.875 100.669 102.764C95.9381 100.389 93.0658 95.9473 93.0658 90.6029V88.2751L95.1131 89.2223C95.7103 89.5445 96.5047 89.914 97.3714 90.2723C94.9269 87.4668 93.0797 84.0084 93.0797 80.6029C93.0797 77.939 93.7881 75.3334 95.1242 73.0723L96.1353 71.3668L97.3936 72.8973C103.53 80.3668 113.516 88.3251 123.616 89.0084V84.889C123.616 76.3223 129.86 69.6112 137.83 69.6112C142.077 69.6112 145.66 70.8834 148.249 73.3001C151.371 72.6001 155.43 71.1001 157.635 69.8029L160.78 67.9529L159.66 71.4251C159.13 73.0751 157.844 74.7362 156.335 76.2195C156.819 76.0307 157.302 75.8307 157.78 75.6195L162.16 73.6779L158.821 78.6807C157.48 80.7251 156.305 82.514 154.146 84.1834C154.163 85.0251 154.174 86.2029 154.174 86.6362C154.174 105.317 140.057 125.167 113.896 125.167Z" fill="black"/>
<path d="M158.339 71C155.697 72.5528 150.919 74.2111 147.802 74.8111C145.314 72.1722 141.764 71 137.83 71C130.275 71 125.005 77.4028 125.005 84.8889V90.4444C113.894 90.4444 103.061 81.9806 96.3191 73.7778C95.133 75.7806 94.4663 78.125 94.4663 80.6028C94.4663 85.6556 99.108 90.7833 102.783 93.2222C100.541 93.1528 96.2969 91.4417 94.4497 90.4444V90.6028C94.4497 97.1778 99.0636 101.642 105.316 102.886C104.175 103.2 102.783 104.333 97.4275 104.333C99.1663 109.708 107.908 112.55 113.894 112.667C109.211 116.297 100.861 118.222 94.4497 118.222C93.3414 118.222 92.7414 118.283 91.6719 118.158C97.7219 121.992 106.172 123.778 113.894 123.778C139.052 123.778 152.783 104.561 152.783 86.6389C152.783 86.05 152.764 84.0778 152.733 83.5C155.422 81.6056 156.511 79.6222 158.339 76.8889C155.889 77.975 152.786 78.9944 150.005 79.3333C152.833 77.6556 157.319 74.1611 158.339 71Z" fill="white"/>
</g>
<path d="M168.887 244H22.1129C14.3186 244 8 250.319 8 258.113V404.887C8 412.681 14.3186 419 22.1129 419H168.887C176.681 419 183 412.681 183 404.887V258.113C183 250.319 176.681 244 168.887 244Z" fill="white"/>
<path d="M168.887 244H22.1129C14.3186 244 8 250.319 8 258.113V404.887C8 412.681 14.3186 419 22.1129 419H168.887C176.681 419 183 412.681 183 404.887V258.113C183 250.319 176.681 244 168.887 244Z" fill="url(#paint2_linear_68_10908)" fill-opacity="0.2"/>
<path d="M168.887 244H22.1129C14.3186 244 8 250.319 8 258.113V404.887C8 412.681 14.3186 419 22.1129 419H168.887C176.681 419 183 412.681 183 404.887V258.113C183 250.319 176.681 244 168.887 244Z" stroke="#D5EAF6" stroke-width="15"/>
<path d="M60.2856 377.238V310.571H146V377.238C146 379.857 143.857 382 141.238 382H65.0475C62.4285 382 60.2856 379.857 60.2856 377.238Z" fill="url(#paint3_linear_68_10908)"/>
<path d="M146 301.048V315.333H60.2856V301.048C60.2856 298.429 62.4285 296.286 65.0475 296.286H141.238C143.857 296.286 146 298.429 146 301.048Z" fill="url(#paint4_linear_68_10908)"/>
<path d="M136.476 328.429V335.571C136.476 336.229 135.943 336.762 135.286 336.762H128.143C127.486 336.762 126.952 336.229 126.952 335.571V328.429C126.952 327.771 127.486 327.238 128.143 327.238H135.286C135.943 327.238 136.476 327.771 136.476 328.429ZM117.429 328.429V335.571C117.429 336.229 116.895 336.762 116.238 336.762H109.095C108.438 336.762 107.905 336.229 107.905 335.571V328.429C107.905 327.771 108.438 327.238 109.095 327.238H116.238C116.895 327.238 117.429 327.771 117.429 328.429ZM98.381 328.429V335.571C98.381 336.229 97.8477 336.762 97.1905 336.762H90.0477C89.3905 336.762 88.8572 336.229 88.8572 335.571V328.429C88.8572 327.771 89.3905 327.238 90.0477 327.238H97.1905C97.8477 327.238 98.381 327.771 98.381 328.429Z" fill="white"/>
<path d="M136.476 345.095V352.238C136.476 352.895 135.943 353.428 135.286 353.428H128.143C127.486 353.428 126.952 352.895 126.952 352.238V345.095C126.952 344.438 127.486 343.905 128.143 343.905H135.286C135.943 343.905 136.476 344.438 136.476 345.095ZM117.428 345.095V352.238C117.428 352.895 116.895 353.428 116.238 353.428H109.095C108.438 353.428 107.905 352.895 107.905 352.238V345.095C107.905 344.438 108.438 343.905 109.095 343.905H116.238C116.895 343.905 117.428 344.438 117.428 345.095ZM98.3808 345.095V352.238C98.3808 352.895 97.8474 353.428 97.1903 353.428H90.0474C89.3903 353.428 88.8569 352.895 88.8569 352.238V345.095C88.8569 344.438 89.3903 343.905 90.0474 343.905H97.1903C97.8474 343.905 98.3808 344.438 98.3808 345.095ZM79.3331 345.095V352.238C79.3331 352.895 78.7998 353.428 78.1427 353.428H70.9998C70.3427 353.428 69.8093 352.895 69.8093 352.238V345.095C69.8093 344.438 70.3427 343.905 70.9998 343.905H78.1427C78.7998 343.905 79.3331 344.438 79.3331 345.095Z" fill="white"/>
<path d="M117.428 361.762V368.905C117.428 369.562 116.895 370.095 116.238 370.095H109.095C108.438 370.095 107.905 369.562 107.905 368.905V361.762C107.905 361.105 108.438 360.571 109.095 360.571H116.238C116.895 360.571 117.428 361.105 117.428 361.762ZM98.3808 361.762V368.905C98.3808 369.562 97.8474 370.095 97.1903 370.095H90.0474C89.3903 370.095 88.8569 369.562 88.8569 368.905V361.762C88.8569 361.105 89.3903 360.571 90.0474 360.571H97.1903C97.8474 360.571 98.3808 361.105 98.3808 361.762ZM79.3331 361.762V368.905C79.3331 369.562 78.7998 370.095 78.1427 370.095H70.9998C70.3427 370.095 69.8093 369.562 69.8093 368.905V361.762C69.8093 361.105 70.3427 360.571 70.9998 360.571H78.1427C78.7998 360.571 79.3331 361.105 79.3331 361.762Z" fill="white"/>
<path opacity="0.2" d="M60.2856 301.048V340.655C64.6214 342.717 69.4523 343.905 74.5714 343.905C92.9809 343.905 107.905 328.981 107.905 310.571C107.905 305.452 106.717 300.621 104.655 296.286H65.0475C62.4285 296.286 60.2856 298.429 60.2856 301.048Z" fill="url(#paint5_radial_68_10908)"/>
<path d="M74.5714 339.143C90.351 339.143 103.143 326.351 103.143 310.571C103.143 294.792 90.351 282 74.5714 282C58.7919 282 46 294.792 46 310.571C46 326.351 58.7919 339.143 74.5714 339.143Z" fill="url(#paint6_linear_68_10908)"/>
<path d="M74.5713 336.762C89.0359 336.762 100.762 325.036 100.762 310.571C100.762 296.107 89.0359 284.381 74.5713 284.381C60.1067 284.381 48.3809 296.107 48.3809 310.571C48.3809 325.036 60.1067 336.762 74.5713 336.762Z" fill="url(#paint7_radial_68_10908)"/>
<path d="M74.5712 334.381C87.7209 334.381 98.3808 323.721 98.3808 310.571C98.3808 297.422 87.7209 286.762 74.5712 286.762C61.4216 286.762 50.7617 297.422 50.7617 310.571C50.7617 323.721 61.4216 334.381 74.5712 334.381Z" fill="url(#paint8_radial_68_10908)"/>
<path d="M74.571 311.762C74.2662 311.762 73.9614 311.645 73.7281 311.414C73.2638 310.95 73.2638 310.195 73.7281 309.731L85.8495 297.609C86.3138 297.145 87.0686 297.145 87.5329 297.609C87.9971 298.074 87.9971 298.828 87.5329 299.293L75.4114 311.414C75.1805 311.645 74.8757 311.762 74.571 311.762Z" fill="#45494D"/>
<path d="M74.5695 312.357C74.3029 312.357 74.0291 312.298 73.7743 312.169L59.4886 305.026C58.6053 304.583 58.2481 303.512 58.6886 302.631C59.1315 301.748 60.2029 301.39 61.0838 301.831L75.3696 308.974C76.2529 309.417 76.61 310.488 76.1695 311.369C75.8553 311.998 75.2243 312.357 74.5695 312.357Z" fill="#45494D"/>
<path d="M74.5714 314.143C76.5439 314.143 78.1429 312.544 78.1429 310.571C78.1429 308.599 76.5439 307 74.5714 307C72.599 307 71 308.599 71 310.571C71 312.544 72.599 314.143 74.5714 314.143Z" fill="#1E2021"/>
<path opacity="0.05" d="M130.524 311.762C126.578 311.762 123.381 308.564 123.381 304.619V296.286H137.667V304.619C137.667 308.564 134.469 311.762 130.524 311.762Z" fill="black"/>
<path opacity="0.07" d="M130.524 309.976C127.564 309.976 125.167 307.579 125.167 304.619V296.286H135.881V304.619C135.881 307.579 133.483 309.976 130.524 309.976Z" fill="black"/>
<path d="M130.524 308.19C128.552 308.19 126.952 306.59 126.952 304.619V295.095C126.952 293.124 128.552 291.524 130.524 291.524C132.495 291.524 134.095 293.124 134.095 295.095V304.619C134.095 306.59 132.495 308.19 130.524 308.19Z" fill="#3CCBF4"/>
<defs>
<filter id="filter0_d_68_10908" x="25.5" y="0.5" width="198" height="198" filterUnits="userSpaceOnUse" color-interpolation-filters="sRGB">
<feFlood flood-opacity="0" result="BackgroundImageFix"/>
<feColorMatrix in="SourceAlpha" type="matrix" values="0 0 0 0 0 0 0 0 0 0 0 0 0 0 0 0 0 0 127 0" result="hardAlpha"/>
<feOffset dy="4"/>
<feGaussianBlur stdDeviation="2"/>
<feComposite in2="hardAlpha" operator="out"/>
<feColorMatrix type="matrix" values="0 0 0 0 0.8375 0 0 0 0 0.732812 0 0 0 0 0.732812 0 0 0 0.25 0"/>
<feBlend mode="normal" in2="BackgroundImageFix" result="effect1_dropShadow_68_10908"/>
<feBlend mode="normal" in="SourceGraphic" in2="effect1_dropShadow_68_10908" result="shape"/>
</filter>
<filter id="filter1_bd_68_10908" x="71" y="42" width="108" height="112" filterUnits="userSpaceOnUse" color-interpolation-filters="sRGB">
<feFlood flood-opacity="0" result="BackgroundImageFix"/>
<feGaussianBlur in="BackgroundImageFix" stdDeviation="2"/>
<feComposite in2="SourceAlpha" operator="in" result="effect1_backgroundBlur_68_10908"/>
<feColorMatrix in="SourceAlpha" type="matrix" values="0 0 0 0 0 0 0 0 0 0 0 0 0 0 0 0 0 0 127 0" result="hardAlpha"/>
<feOffset dy="4"/>
<feGaussianBlur stdDeviation="2"/>
<feComposite in2="hardAlpha" operator="out"/>
<feColorMatrix type="matrix" values="0 0 0 0 0.9875 0 0 0 0 0.9875 0 0 0 0 0.9875 0 0 0 0.25 0"/>
<feBlend mode="normal" in2="effect1_backgroundBlur_68_10908" result="effect2_dropShadow_68_10908"/>
<feBlend mode="normal" in="SourceGraphic" in2="effect2_dropShadow_68_10908" result="shape"/>
</filter>
<linearGradient id="paint0_linear_68_10908" x1="124.5" y1="16.4677" x2="124.5" y2="174.532" gradientUnits="userSpaceOnUse">
<stop stop-color="white"/>
<stop offset="0.472222" stop-color="#0D5176" stop-opacity="0.527778"/>
<stop offset="0.940972" stop-color="#12A6F7" stop-opacity="0.465278"/>
<stop offset="1" stop-opacity="0"/>
</linearGradient>
<linearGradient id="paint1_linear_68_10908" x1="77.325" y1="49.225" x2="171.297" y2="141.422" gradientUnits="userSpaceOnUse">
<stop stop-color="#2AA4F4"/>
<stop offset="1" stop-color="#007AD9"/>
</linearGradient>
<linearGradient id="paint2_linear_68_10908" x1="95.5" y1="252.468" x2="95.5" y2="410.532" gradientUnits="userSpaceOnUse">
<stop stop-color="white"/>
<stop offset="0.472222" stop-color="#0D5176" stop-opacity="0.527778"/>
<stop offset="0.940972" stop-color="#12A6F7" stop-opacity="0.465278"/>
<stop offset="1" stop-opacity="0"/>
</linearGradient>
<linearGradient id="paint3_linear_68_10908" x1="61.2714" y1="314.529" x2="145.462" y2="376.019" gradientUnits="userSpaceOnUse">
<stop stop-color="#28AFEA"/>
<stop offset="1" stop-color="#047ED6"/>
</linearGradient>
<linearGradient id="paint4_linear_68_10908" x1="61.2856" y1="297.733" x2="144.09" y2="314.571" gradientUnits="userSpaceOnUse">
<stop stop-color="#0077D2"/>
<stop offset="1" stop-color="#0B59A2"/>
</linearGradient>
<radialGradient id="paint5_radial_68_10908" cx="0" cy="0" r="1" gradientUnits="userSpaceOnUse" gradientTransform="translate(74.5214 310.26) scale(33.4357)">
<stop offset="0.847"/>
<stop offset="1" stop-opacity="0"/>
</radialGradient>
<linearGradient id="paint6_linear_68_10908" x1="54.369" y1="290.369" x2="94.7738" y2="330.774" gradientUnits="userSpaceOnUse">
<stop stop-color="#889097"/>
<stop offset="1" stop-color="#64717C"/>
</linearGradient>
<radialGradient id="paint7_radial_68_10908" cx="0" cy="0" r="1" gradientUnits="userSpaceOnUse" gradientTransform="translate(74.5713 310.571) scale(26.1905)">
<stop/>
<stop offset="1" stop-opacity="0"/>
</radialGradient>
<radialGradient id="paint8_radial_68_10908" cx="0" cy="0" r="1" gradientUnits="userSpaceOnUse" gradientTransform="translate(74.4165 287.314) scale(53.0571)">
<stop stop-color="#FAFAFB"/>
<stop offset="1" stop-color="#C8CDD1"/>
</radialGradient>
</defs>
</svg>
