<svg width="89" height="89" viewBox="0 0 89 89" fill="none" xmlns="http://www.w3.org/2000/svg">
<g id="app-icon-visible">
<g id="app-icon-frame" filter="url(#filter0_d_29_430)">
<path id="Vector" d="M75.9516 3H13.0484C9.70796 3 7 5.70796 7 9.04839V71.9516C7 75.292 9.70796 78 13.0484 78H75.9516C79.292 78 82 75.292 82 71.9516V9.04839C82 5.70796 79.292 3 75.9516 3Z" fill="white"/>
<path id="Vector_2" d="M75.9516 3H13.0484C9.70796 3 7 5.70796 7 9.04839V71.9516C7 75.292 9.70796 78 13.0484 78H75.9516C79.292 78 82 75.292 82 71.9516V9.04839C82 5.70796 79.292 3 75.9516 3Z" fill="url(#paint0_linear_29_430)" fill-opacity="0.2"/>
<path id="Vector_3" d="M75.9516 3H13.0484C9.70796 3 7 5.70796 7 9.04839V71.9516C7 75.292 9.70796 78 13.0484 78H75.9516C79.292 78 82 75.292 82 71.9516V9.04839C82 5.70796 79.292 3 75.9516 3Z" stroke="#D5EAF6" stroke-width="5"/>
</g>
<g id="Frame">
<g id="sales" filter="url(#filter1_bd_29_430)">
<g id="sales_2" filter="url(#filter2_bd_29_430)">
<path d="M19 58.2143V29.4643H69V58.2143C69 59.5893 67.875 60.7143 66.5 60.7143H21.5C20.125 60.7143 19 59.5893 19 58.2143Z" fill="url(#paint1_linear_29_430)"/>
<path d="M69 23.2143V29.4643H19V23.2143C19 21.8393 20.125 20.7143 21.5 20.7143H66.5C67.875 20.7143 69 21.8393 69 23.2143Z" fill="url(#paint2_linear_29_430)"/>
<path d="M34.625 26.9643H65.875C66.22 26.9643 66.5 26.6843 66.5 26.3393V23.8393C66.5 23.4943 66.22 23.2143 65.875 23.2143H34.625C34.28 23.2143 34 23.4943 34 23.8393V26.3393C34 26.6843 34.28 26.9643 34.625 26.9643Z" fill="url(#paint3_linear_29_430)"/>
<path d="M23.375 26.9643C24.4106 26.9643 25.25 26.1248 25.25 25.0893C25.25 24.0538 24.4106 23.2143 23.375 23.2143C22.3395 23.2143 21.5 24.0538 21.5 25.0893C21.5 26.1248 22.3395 26.9643 23.375 26.9643Z" fill="url(#paint4_linear_29_430)"/>
<path d="M29.6211 26.9643C30.6566 26.9643 31.4961 26.1248 31.4961 25.0893C31.4961 24.0538 30.6566 23.2143 29.6211 23.2143C28.5856 23.2143 27.7461 24.0538 27.7461 25.0893C27.7461 26.1248 28.5856 26.9643 29.6211 26.9643Z" fill="url(#paint5_linear_29_430)"/>
<path d="M49.3333 47.7341C49.3333 42.0795 41.1397 43.184 41.1397 39.843C41.1397 38.0982 43.0637 38.0069 43.6661 38.0069C45.1129 38.0069 46.5078 38.4019 47.5724 38.9112C47.9082 39.0718 48.2936 38.8342 48.2936 38.4569V36.8111C48.2936 36.2588 48.0896 35.9321 47.7646 35.8034C47.0347 35.5141 45.9874 35.3039 44.437 35.2511V33.4404C44.437 33.2236 44.2643 33.0476 44.0516 33.0476H43.2807C43.068 33.0476 42.8952 33.2236 42.8952 33.4404V35.2808C40.4919 35.5207 38 36.9024 38 40.118C38 45.9794 46.1936 44.8177 46.1936 47.9046C46.1936 48.8749 45.5858 49.711 43.6672 49.711C41.7389 49.711 39.9682 49.0256 38.9879 48.5141C38.6564 48.3403 38.2678 48.5889 38.2678 48.9662V50.8397C38.2678 51.1994 38.4805 51.5185 38.8044 51.6593C39.9661 52.162 41.5241 52.5427 42.8942 52.6538V54.6549C42.8942 54.8716 43.0669 55.0476 43.2796 55.0476H44.0505C44.2632 55.0476 44.4359 54.8716 44.4359 54.6549V52.6582C48.0334 52.3524 49.3333 49.8991 49.3333 47.7341Z" fill="#FCFCFC"/>
</g>
</g>
</g>
<g id="Hidden Frame">
<g id="Hidden Frame_2">
<g id="Visibile Frame">
<g id="visible">
<g id="Vector_4" filter="url(#filter3_bf_29_430)">
<path d="M72.4288 56.7857C72.4288 62.3082 68.0631 66.7857 62.6786 66.7857C57.2941 66.7857 52.9285 62.3082 52.9285 56.7857C52.9285 51.2632 57.2941 46.7857 62.6786 46.7857C68.0631 46.7857 72.4288 51.2632 72.4288 56.7857Z" fill="url(#paint6_radial_29_430)" fill-opacity="0.2"/>
<path d="M72.4288 56.7857C72.4288 62.3082 68.0631 66.7857 62.6786 66.7857C57.2941 66.7857 52.9285 62.3082 52.9285 56.7857C52.9285 51.2632 57.2941 46.7857 62.6786 46.7857C68.0631 46.7857 72.4288 51.2632 72.4288 56.7857Z" fill="white"/>
</g>
<g id="Group">
<path id="Vector_5" d="M72.9285 56.7857C72.9285 62.3082 68.5629 66.7857 63.1784 66.7857C57.7939 66.7857 53.4282 62.3082 53.4282 56.7857C53.4282 51.2632 57.7939 46.7857 63.1784 46.7857C68.5629 46.7857 72.9285 51.2632 72.9285 56.7857Z" fill="url(#paint7_linear_29_430)" fill-opacity="0.5"/>
</g>
<g id="Group_2">
<path id="Vector_6" d="M63.4221 62C66.7338 62 69.4185 59.8254 69.4185 57.1428C69.4185 54.4603 66.7338 52.2857 63.4221 52.2857C60.1104 52.2857 57.4258 54.4603 57.4258 57.1428C57.4258 59.8254 60.1104 62 63.4221 62Z" fill="url(#paint8_radial_29_430)"/>
<path id="Vector_7" d="M63.4221 60.2857C65.6299 60.2857 67.4197 58.4949 67.4197 56.2857C67.4197 54.0766 65.6299 52.2857 63.4221 52.2857C61.2143 52.2857 59.4246 54.0766 59.4246 56.2857C59.4246 58.4949 61.2143 60.2857 63.4221 60.2857Z" fill="url(#paint9_linear_29_430)"/>
<path id="Vector_8" d="M63.4221 58.2857C64.526 58.2857 65.4209 57.3903 65.4209 56.2857C65.4209 55.1811 64.526 54.2857 63.4221 54.2857C62.3182 54.2857 61.4233 55.1811 61.4233 56.2857C61.4233 57.3903 62.3182 58.2857 63.4221 58.2857Z" fill="url(#paint10_radial_29_430)"/>
<path id="Vector_9" d="M61.9944 55.4286C62.3098 55.4286 62.5655 55.1727 62.5655 54.8571C62.5655 54.5416 62.3098 54.2857 61.9944 54.2857C61.679 54.2857 61.4233 54.5416 61.4233 54.8571C61.4233 55.1727 61.679 55.4286 61.9944 55.4286Z" fill="white"/>
</g>
</g>
</g>
</g>
</g>
</g>
<defs>
<filter id="filter0_d_29_430" x="0.5" y="0.5" width="88" height="88" filterUnits="userSpaceOnUse" color-interpolation-filters="sRGB">
<feFlood flood-opacity="0" result="BackgroundImageFix"/>
<feColorMatrix in="SourceAlpha" type="matrix" values="0 0 0 0 0 0 0 0 0 0 0 0 0 0 0 0 0 0 127 0" result="hardAlpha"/>
<feOffset dy="4"/>
<feGaussianBlur stdDeviation="2"/>
<feComposite in2="hardAlpha" operator="out"/>
<feColorMatrix type="matrix" values="0 0 0 0 0.8375 0 0 0 0 0.732812 0 0 0 0 0.732812 0 0 0 0.25 0"/>
<feBlend mode="normal" in2="BackgroundImageFix" result="effect1_dropShadow_29_430"/>
<feBlend mode="normal" in="SourceGraphic" in2="effect1_dropShadow_29_430" result="shape"/>
</filter>
<filter id="filter1_bd_29_430" x="15" y="16.7143" width="58" height="52" filterUnits="userSpaceOnUse" color-interpolation-filters="sRGB">
<feFlood flood-opacity="0" result="BackgroundImageFix"/>
<feGaussianBlur in="BackgroundImageFix" stdDeviation="2"/>
<feComposite in2="SourceAlpha" operator="in" result="effect1_backgroundBlur_29_430"/>
<feColorMatrix in="SourceAlpha" type="matrix" values="0 0 0 0 0 0 0 0 0 0 0 0 0 0 0 0 0 0 127 0" result="hardAlpha"/>
<feOffset dy="4"/>
<feGaussianBlur stdDeviation="2"/>
<feComposite in2="hardAlpha" operator="out"/>
<feColorMatrix type="matrix" values="0 0 0 0 0.857346 0 0 0 0 0.887393 0 0 0 0 0.897222 0 0 0 1 0"/>
<feBlend mode="normal" in2="effect1_backgroundBlur_29_430" result="effect2_dropShadow_29_430"/>
<feBlend mode="normal" in="SourceGraphic" in2="effect2_dropShadow_29_430" result="shape"/>
</filter>
<filter id="filter2_bd_29_430" x="15" y="16.7143" width="58" height="52" filterUnits="userSpaceOnUse" color-interpolation-filters="sRGB">
<feFlood flood-opacity="0" result="BackgroundImageFix"/>
<feGaussianBlur in="BackgroundImageFix" stdDeviation="2"/>
<feComposite in2="SourceAlpha" operator="in" result="effect1_backgroundBlur_29_430"/>
<feColorMatrix in="SourceAlpha" type="matrix" values="0 0 0 0 0 0 0 0 0 0 0 0 0 0 0 0 0 0 127 0" result="hardAlpha"/>
<feOffset dy="4"/>
<feGaussianBlur stdDeviation="2"/>
<feComposite in2="hardAlpha" operator="out"/>
<feColorMatrix type="matrix" values="0 0 0 0 1 0 0 0 0 1 0 0 0 0 1 0 0 0 0.25 0"/>
<feBlend mode="normal" in2="effect1_backgroundBlur_29_430" result="effect2_dropShadow_29_430"/>
<feBlend mode="normal" in="SourceGraphic" in2="effect2_dropShadow_29_430" result="shape"/>
</filter>
<filter id="filter3_bf_29_430" x="48.9285" y="42.7857" width="27.5002" height="28" filterUnits="userSpaceOnUse" color-interpolation-filters="sRGB">
<feFlood flood-opacity="0" result="BackgroundImageFix"/>
<feGaussianBlur in="BackgroundImageFix" stdDeviation="2"/>
<feComposite in2="SourceAlpha" operator="in" result="effect1_backgroundBlur_29_430"/>
<feBlend mode="normal" in="SourceGraphic" in2="effect1_backgroundBlur_29_430" result="shape"/>
<feGaussianBlur stdDeviation="2" result="effect2_foregroundBlur_29_430"/>
</filter>
<linearGradient id="paint0_linear_29_430" x1="44.5" y1="6.62903" x2="44.5" y2="74.371" gradientUnits="userSpaceOnUse">
<stop stop-color="white"/>
<stop offset="0.472222" stop-color="#0D5176" stop-opacity="0.527778"/>
<stop offset="0.940972" stop-color="#12A6F7" stop-opacity="0.465278"/>
<stop offset="1" stop-opacity="0"/>
</linearGradient>
<linearGradient id="paint1_linear_29_430" x1="30.85" y1="15.2631" x2="61.6675" y2="50.0898" gradientUnits="userSpaceOnUse">
<stop stop-color="#7DD8F3"/>
<stop offset="1" stop-color="#45B0D0"/>
</linearGradient>
<linearGradient id="paint2_linear_29_430" x1="19.7675" y1="19.2343" x2="69.5519" y2="21.4486" gradientUnits="userSpaceOnUse">
<stop stop-color="#0077D2"/>
<stop offset="1" stop-color="#0B59A2"/>
</linearGradient>
<linearGradient id="paint3_linear_29_430" x1="19" y1="40.7143" x2="69" y2="40.7143" gradientUnits="userSpaceOnUse">
<stop stop-color="#7DD8F3"/>
<stop offset="1" stop-color="#45B0D0"/>
</linearGradient>
<linearGradient id="paint4_linear_29_430" x1="31.5167" y1="26.261" x2="46.9809" y2="54.2227" gradientUnits="userSpaceOnUse">
<stop stop-color="#75DAFF"/>
<stop offset="1" stop-color="#49BEF1"/>
</linearGradient>
<linearGradient id="paint5_linear_29_430" x1="31.5167" y1="26.261" x2="46.9809" y2="54.2227" gradientUnits="userSpaceOnUse">
<stop stop-color="#75DAFF"/>
<stop offset="1" stop-color="#49BEF1"/>
</linearGradient>
<radialGradient id="paint6_radial_29_430" cx="0" cy="0" r="1" gradientUnits="userSpaceOnUse" gradientTransform="translate(62.6786 56.7857) rotate(45.7248) scale(9.87577 9.87261)">
<stop stop-color="#64717C" stop-opacity="0.19"/>
<stop offset="1" stop-color="#64717C"/>
</radialGradient>
<linearGradient id="paint7_linear_29_430" x1="56.284" y1="49.7147" x2="70.4215" y2="63.499" gradientUnits="userSpaceOnUse">
<stop stop-color="#889097" stop-opacity="0.62"/>
<stop offset="1" stop-color="#889097"/>
</linearGradient>
<radialGradient id="paint8_radial_29_430" cx="0" cy="0" r="1" gradientUnits="userSpaceOnUse" gradientTransform="translate(63.4623 55.6197) scale(6.36302 6.4427)">
<stop offset="0.55" stop-color="#E4E4E6"/>
<stop offset="0.73" stop-color="#E1E2E4"/>
<stop offset="0.854" stop-color="#D8DADC"/>
<stop offset="0.961" stop-color="#C9CDCF"/>
<stop offset="1" stop-color="#C1C6C9"/>
</radialGradient>
<linearGradient id="paint9_linear_29_430" x1="60.8777" y1="53.7397" x2="66.0417" y2="58.9006" gradientUnits="userSpaceOnUse">
<stop stop-color="#32BDEF"/>
<stop offset="1" stop-color="#1EA2E4"/>
</linearGradient>
<radialGradient id="paint10_radial_29_430" cx="0" cy="0" r="1" gradientUnits="userSpaceOnUse" gradientTransform="translate(62.2446 53.3594) scale(5.18798 5.19114)">
<stop stop-color="#4B4B4B"/>
<stop offset="0.531" stop-color="#393939"/>
<stop offset="1" stop-color="#252525"/>
</radialGradient>
</defs>
</svg>
