<svg width="89" height="89" viewBox="0 0 89 89" fill="none" xmlns="http://www.w3.org/2000/svg">
<g id="app-icon-remove">
<g id="app-icon-frame" filter="url(#filter0_d_29_338)">
<path id="Vector" d="M75.9516 3H13.0484C9.70796 3 7 5.70796 7 9.04839V71.9516C7 75.292 9.70796 78 13.0484 78H75.9516C79.292 78 82 75.292 82 71.9516V9.04839C82 5.70796 79.292 3 75.9516 3Z" fill="white"/>
<path id="Vector_2" d="M75.9516 3H13.0484C9.70796 3 7 5.70796 7 9.04839V71.9516C7 75.292 9.70796 78 13.0484 78H75.9516C79.292 78 82 75.292 82 71.9516V9.04839C82 5.70796 79.292 3 75.9516 3Z" fill="url(#paint0_linear_29_338)" fill-opacity="0.2"/>
<path id="Vector_3" d="M75.9516 3H13.0484C9.70796 3 7 5.70796 7 9.04839V71.9516C7 75.292 9.70796 78 13.0484 78H75.9516C79.292 78 82 75.292 82 71.9516V9.04839C82 5.70796 79.292 3 75.9516 3Z" stroke="#D5EAF6" stroke-width="5"/>
</g>
<g id="Frame">
<g id="sales" filter="url(#filter1_bd_29_338)">
<g id="sales_2" filter="url(#filter2_bd_29_338)">
<path d="M19 58.2143V29.4643H69V58.2143C69 59.5893 67.875 60.7143 66.5 60.7143H21.5C20.125 60.7143 19 59.5893 19 58.2143Z" fill="url(#paint1_linear_29_338)"/>
<path d="M69 23.2143V29.4643H19V23.2143C19 21.8393 20.125 20.7143 21.5 20.7143H66.5C67.875 20.7143 69 21.8393 69 23.2143Z" fill="url(#paint2_linear_29_338)"/>
<path d="M34.625 26.9643H65.875C66.22 26.9643 66.5 26.6843 66.5 26.3393V23.8393C66.5 23.4943 66.22 23.2143 65.875 23.2143H34.625C34.28 23.2143 34 23.4943 34 23.8393V26.3393C34 26.6843 34.28 26.9643 34.625 26.9643Z" fill="url(#paint3_linear_29_338)"/>
<path d="M23.375 26.9643C24.4106 26.9643 25.25 26.1248 25.25 25.0893C25.25 24.0538 24.4106 23.2143 23.375 23.2143C22.3395 23.2143 21.5 24.0538 21.5 25.0893C21.5 26.1248 22.3395 26.9643 23.375 26.9643Z" fill="url(#paint4_linear_29_338)"/>
<path d="M29.6211 26.9643C30.6566 26.9643 31.4961 26.1248 31.4961 25.0893C31.4961 24.0538 30.6566 23.2143 29.6211 23.2143C28.5856 23.2143 27.7461 24.0538 27.7461 25.0893C27.7461 26.1248 28.5856 26.9643 29.6211 26.9643Z" fill="url(#paint5_linear_29_338)"/>
<path d="M49.3333 47.7341C49.3333 42.0795 41.1397 43.184 41.1397 39.843C41.1397 38.0982 43.0637 38.0069 43.6661 38.0069C45.1129 38.0069 46.5078 38.4019 47.5724 38.9112C47.9082 39.0718 48.2936 38.8342 48.2936 38.4569V36.8111C48.2936 36.2588 48.0896 35.9321 47.7646 35.8034C47.0347 35.5141 45.9874 35.3039 44.437 35.2511V33.4404C44.437 33.2236 44.2643 33.0476 44.0516 33.0476H43.2807C43.068 33.0476 42.8952 33.2236 42.8952 33.4404V35.2808C40.4919 35.5207 38 36.9024 38 40.118C38 45.9794 46.1936 44.8177 46.1936 47.9046C46.1936 48.8749 45.5858 49.711 43.6672 49.711C41.7389 49.711 39.9682 49.0256 38.9879 48.5141C38.6564 48.3403 38.2678 48.5889 38.2678 48.9662V50.8397C38.2678 51.1994 38.4805 51.5185 38.8044 51.6593C39.9661 52.162 41.5241 52.5427 42.8942 52.6538V54.6549C42.8942 54.8716 43.0669 55.0476 43.2796 55.0476H44.0505C44.2632 55.0476 44.4359 54.8716 44.4359 54.6549V52.6582C48.0334 52.3524 49.3333 49.8991 49.3333 47.7341Z" fill="#FCFCFC"/>
</g>
</g>
</g>
<g id="remove">
<g id="Vector_4" filter="url(#filter3_bf_29_338)">
<path d="M72.1011 56.7857C72.1011 62.111 67.8888 66.4286 62.6934 66.4286C57.498 66.4286 53.2858 62.111 53.2858 56.7857C53.2858 51.4604 57.498 47.1429 62.6934 47.1429C67.8888 47.1429 72.1011 51.4604 72.1011 56.7857Z" fill="url(#paint6_radial_29_338)" fill-opacity="0.2"/>
<path d="M72.1011 56.7857C72.1011 62.111 67.8888 66.4286 62.6934 66.4286C57.498 66.4286 53.2858 62.111 53.2858 56.7857C53.2858 51.4604 57.498 47.1429 62.6934 47.1429C67.8888 47.1429 72.1011 51.4604 72.1011 56.7857Z" fill="white"/>
</g>
<path id="Vector_5" opacity="0.05" d="M66.9269 54.8571H63.6342V51.4821C63.6342 50.9494 63.2132 50.5178 62.6935 50.5178H61.7527C61.2329 50.5178 60.8119 50.9494 60.8119 51.4821V54.8571H57.5193C56.9995 54.8571 56.5785 55.2886 56.5785 55.8214V56.7857C56.5785 57.3185 56.9995 57.75 57.5193 57.75H60.8119V61.125C60.8119 61.6578 61.2329 62.0893 61.7527 62.0893H62.6935C63.2132 62.0893 63.6342 61.6578 63.6342 61.125V57.75H66.9269C67.4467 57.75 67.8677 57.3185 67.8677 56.7857V55.8214C67.8677 55.2886 67.4467 54.8571 66.9269 54.8571Z" fill="black"/>
<g id="Group 16">
<path id="Vector_6" d="M72.5716 56.7857C72.5716 62.111 68.3593 66.4286 63.1639 66.4286C57.9685 66.4286 53.7562 62.111 53.7562 56.7857C53.7562 51.4604 57.9685 47.1429 63.1639 47.1429C68.3593 47.1429 72.5716 51.4604 72.5716 56.7857Z" fill="url(#paint7_linear_29_338)"/>
<path id="Vector_7" d="M68.8086 56.4241V57.6295C68.8086 57.9622 68.5883 58.2322 68.3168 58.2322H58.4815C58.2101 58.2322 57.9897 57.9622 57.9897 57.6295V56.4241C57.9897 56.0914 58.2101 55.8214 58.4815 55.8214H68.3168C68.5883 55.8214 68.8086 56.0914 68.8086 56.4241Z" fill="white"/>
</g>
</g>
</g>
<defs>
<filter id="filter0_d_29_338" x="0.5" y="0.5" width="88" height="88" filterUnits="userSpaceOnUse" color-interpolation-filters="sRGB">
<feFlood flood-opacity="0" result="BackgroundImageFix"/>
<feColorMatrix in="SourceAlpha" type="matrix" values="0 0 0 0 0 0 0 0 0 0 0 0 0 0 0 0 0 0 127 0" result="hardAlpha"/>
<feOffset dy="4"/>
<feGaussianBlur stdDeviation="2"/>
<feComposite in2="hardAlpha" operator="out"/>
<feColorMatrix type="matrix" values="0 0 0 0 0.8375 0 0 0 0 0.732812 0 0 0 0 0.732812 0 0 0 0.25 0"/>
<feBlend mode="normal" in2="BackgroundImageFix" result="effect1_dropShadow_29_338"/>
<feBlend mode="normal" in="SourceGraphic" in2="effect1_dropShadow_29_338" result="shape"/>
</filter>
<filter id="filter1_bd_29_338" x="15" y="16.7143" width="58" height="52" filterUnits="userSpaceOnUse" color-interpolation-filters="sRGB">
<feFlood flood-opacity="0" result="BackgroundImageFix"/>
<feGaussianBlur in="BackgroundImageFix" stdDeviation="2"/>
<feComposite in2="SourceAlpha" operator="in" result="effect1_backgroundBlur_29_338"/>
<feColorMatrix in="SourceAlpha" type="matrix" values="0 0 0 0 0 0 0 0 0 0 0 0 0 0 0 0 0 0 127 0" result="hardAlpha"/>
<feOffset dy="4"/>
<feGaussianBlur stdDeviation="2"/>
<feComposite in2="hardAlpha" operator="out"/>
<feColorMatrix type="matrix" values="0 0 0 0 0.857346 0 0 0 0 0.887393 0 0 0 0 0.897222 0 0 0 1 0"/>
<feBlend mode="normal" in2="effect1_backgroundBlur_29_338" result="effect2_dropShadow_29_338"/>
<feBlend mode="normal" in="SourceGraphic" in2="effect2_dropShadow_29_338" result="shape"/>
</filter>
<filter id="filter2_bd_29_338" x="15" y="16.7143" width="58" height="52" filterUnits="userSpaceOnUse" color-interpolation-filters="sRGB">
<feFlood flood-opacity="0" result="BackgroundImageFix"/>
<feGaussianBlur in="BackgroundImageFix" stdDeviation="2"/>
<feComposite in2="SourceAlpha" operator="in" result="effect1_backgroundBlur_29_338"/>
<feColorMatrix in="SourceAlpha" type="matrix" values="0 0 0 0 0 0 0 0 0 0 0 0 0 0 0 0 0 0 127 0" result="hardAlpha"/>
<feOffset dy="4"/>
<feGaussianBlur stdDeviation="2"/>
<feComposite in2="hardAlpha" operator="out"/>
<feColorMatrix type="matrix" values="0 0 0 0 1 0 0 0 0 1 0 0 0 0 1 0 0 0 0.25 0"/>
<feBlend mode="normal" in2="effect1_backgroundBlur_29_338" result="effect2_dropShadow_29_338"/>
<feBlend mode="normal" in="SourceGraphic" in2="effect2_dropShadow_29_338" result="shape"/>
</filter>
<filter id="filter3_bf_29_338" x="49.2858" y="43.1429" width="26.8153" height="27.2857" filterUnits="userSpaceOnUse" color-interpolation-filters="sRGB">
<feFlood flood-opacity="0" result="BackgroundImageFix"/>
<feGaussianBlur in="BackgroundImageFix" stdDeviation="2"/>
<feComposite in2="SourceAlpha" operator="in" result="effect1_backgroundBlur_29_338"/>
<feBlend mode="normal" in="SourceGraphic" in2="effect1_backgroundBlur_29_338" result="shape"/>
<feGaussianBlur stdDeviation="2" result="effect2_foregroundBlur_29_338"/>
</filter>
<linearGradient id="paint0_linear_29_338" x1="44.5" y1="6.62903" x2="44.5" y2="74.371" gradientUnits="userSpaceOnUse">
<stop stop-color="white"/>
<stop offset="0.472222" stop-color="#0D5176" stop-opacity="0.527778"/>
<stop offset="0.940972" stop-color="#12A6F7" stop-opacity="0.465278"/>
<stop offset="1" stop-opacity="0"/>
</linearGradient>
<linearGradient id="paint1_linear_29_338" x1="30.85" y1="15.2631" x2="61.6675" y2="50.0898" gradientUnits="userSpaceOnUse">
<stop stop-color="#7DD8F3"/>
<stop offset="1" stop-color="#45B0D0"/>
</linearGradient>
<linearGradient id="paint2_linear_29_338" x1="19.7675" y1="19.2343" x2="69.5519" y2="21.4486" gradientUnits="userSpaceOnUse">
<stop stop-color="#0077D2"/>
<stop offset="1" stop-color="#0B59A2"/>
</linearGradient>
<linearGradient id="paint3_linear_29_338" x1="19" y1="40.7143" x2="69" y2="40.7143" gradientUnits="userSpaceOnUse">
<stop stop-color="#7DD8F3"/>
<stop offset="1" stop-color="#45B0D0"/>
</linearGradient>
<linearGradient id="paint4_linear_29_338" x1="31.5167" y1="26.261" x2="46.9809" y2="54.2227" gradientUnits="userSpaceOnUse">
<stop stop-color="#75DAFF"/>
<stop offset="1" stop-color="#49BEF1"/>
</linearGradient>
<linearGradient id="paint5_linear_29_338" x1="31.5167" y1="26.261" x2="46.9809" y2="54.2227" gradientUnits="userSpaceOnUse">
<stop stop-color="#75DAFF"/>
<stop offset="1" stop-color="#49BEF1"/>
</linearGradient>
<radialGradient id="paint6_radial_29_338" cx="0" cy="0" r="1" gradientUnits="userSpaceOnUse" gradientTransform="translate(62.6934 56.7857) rotate(45.7073) scale(9.52589 9.52299)">
<stop stop-color="#64717C" stop-opacity="0.19"/>
<stop offset="1" stop-color="#64717C"/>
</radialGradient>
<linearGradient id="paint7_linear_29_338" x1="56.5117" y1="49.9672" x2="70.1445" y2="63.2675" gradientUnits="userSpaceOnUse">
<stop stop-color="#D12121"/>
<stop offset="1" stop-color="#AB1111" stop-opacity="0.81"/>
</linearGradient>
</defs>
</svg>
