<svg width="62" height="56" viewBox="0 0 62 56" fill="none" xmlns="http://www.w3.org/2000/svg">
<g id="sales-hidden">
<g id="Group 21">
<g id="sales" filter="url(#filter0_bd_32_867)">
<g id="sales_2" filter="url(#filter1_bd_32_867)">
<path d="M4 43.2143V14.4643H54V43.2143C54 44.5893 52.875 45.7143 51.5 45.7143H6.5C5.125 45.7143 4 44.5893 4 43.2143Z" fill="url(#paint0_linear_32_867)"/>
<path d="M54 8.21428V14.4643H4V8.21428C4 6.83928 5.125 5.71428 6.5 5.71428H51.5C52.875 5.71428 54 6.83928 54 8.21428Z" fill="url(#paint1_linear_32_867)"/>
<path d="M19.625 11.9643H50.875C51.22 11.9643 51.5 11.6843 51.5 11.3393V8.83928C51.5 8.49429 51.22 8.21428 50.875 8.21428H19.625C19.28 8.21428 19 8.49429 19 8.83928V11.3393C19 11.6843 19.28 11.9643 19.625 11.9643Z" fill="url(#paint2_linear_32_867)"/>
<path d="M8.375 11.9643C9.41055 11.9643 10.25 11.1248 10.25 10.0893C10.25 9.05378 9.41055 8.21428 8.375 8.21428C7.3395 8.21428 6.5 9.05378 6.5 10.0893C6.5 11.1248 7.3395 11.9643 8.375 11.9643Z" fill="url(#paint3_linear_32_867)"/>
<path d="M14.6211 11.9643C15.6566 11.9643 16.4961 11.1248 16.4961 10.0893C16.4961 9.05378 15.6566 8.21428 14.6211 8.21428C13.5856 8.21428 12.7461 9.05378 12.7461 10.0893C12.7461 11.1248 13.5856 11.9643 14.6211 11.9643Z" fill="url(#paint4_linear_32_867)"/>
<path d="M34.3333 32.7341C34.3333 27.0795 26.1397 28.184 26.1397 24.843C26.1397 23.0982 28.0637 23.0069 28.6661 23.0069C30.1129 23.0069 31.5078 23.4019 32.5724 23.9112C32.9082 24.0718 33.2936 23.8342 33.2936 23.4569V21.8111C33.2936 21.2588 33.0896 20.9321 32.7646 20.8034C32.0347 20.5141 30.9874 20.3039 29.437 20.2511V18.4404C29.437 18.2236 29.2643 18.0476 29.0516 18.0476H28.2807C28.068 18.0476 27.8952 18.2236 27.8952 18.4404V20.2808C25.4919 20.5207 23 21.9024 23 25.118C23 30.9794 31.1936 29.8177 31.1936 32.9046C31.1936 33.8749 30.5858 34.711 28.6672 34.711C26.7389 34.711 24.9682 34.0256 23.9879 33.5141C23.6564 33.3403 23.2678 33.5889 23.2678 33.9662V35.8397C23.2678 36.1994 23.4805 36.5185 23.8044 36.6593C24.9661 37.162 26.5241 37.5427 27.8942 37.6538V39.6549C27.8942 39.8716 28.0669 40.0476 28.2796 40.0476H29.0505C29.2632 40.0476 29.4359 39.8716 29.4359 39.6549V37.6582C33.0334 37.3523 34.3333 34.8991 34.3333 32.7341Z" fill="#FCFCFC"/>
</g>
</g>
<g id="Hidden Frame">
<g id="hidden">
<g id="plus">
<g id="Vector" filter="url(#filter2_bf_32_867)">
<path d="M57.4297 41.7857C57.4297 47.3082 53.0641 51.7857 47.6796 51.7857C42.2951 51.7857 37.9294 47.3082 37.9294 41.7857C37.9294 36.2632 42.2951 31.7857 47.6796 31.7857C53.0641 31.7857 57.4297 36.2632 57.4297 41.7857Z" fill="url(#paint5_radial_32_867)" fill-opacity="0.2"/>
<path d="M57.4297 41.7857C57.4297 47.3082 53.0641 51.7857 47.6796 51.7857C42.2951 51.7857 37.9294 47.3082 37.9294 41.7857C37.9294 36.2632 42.2951 31.7857 47.6796 31.7857C53.0641 31.7857 57.4297 36.2632 57.4297 41.7857Z" fill="white"/>
</g>
<g id="Group 16">
<path id="Vector_2" d="M57.9278 41.7857C57.9278 47.3082 53.5622 51.7857 48.1776 51.7857C42.7931 51.7857 38.4275 47.3082 38.4275 41.7857C38.4275 36.2632 42.7931 31.7857 48.1776 31.7857C53.5622 31.7857 57.9278 36.2632 57.9278 41.7857Z" fill="url(#paint6_linear_32_867)" fill-opacity="0.5"/>
</g>
</g>
<g id="Group 17">
<path id="Vector_3" d="M48.4229 47C51.7345 47 54.4192 44.8254 54.4192 42.1429C54.4192 39.4603 51.7345 37.2857 48.4229 37.2857C45.1112 37.2857 42.4265 39.4603 42.4265 42.1429C42.4265 44.8254 45.1112 47 48.4229 47Z" fill="url(#paint7_radial_32_867)"/>
<path id="Vector_4" d="M48.4211 45.2857C50.6289 45.2857 52.4187 43.4948 52.4187 41.2857C52.4187 39.0766 50.6289 37.2857 48.4211 37.2857C46.2134 37.2857 44.4236 39.0766 44.4236 41.2857C44.4236 43.4948 46.2134 45.2857 48.4211 45.2857Z" fill="url(#paint8_linear_32_867)" fill-opacity="0.5"/>
<path id="Vector_5" d="M48.4243 43.2857C49.5282 43.2857 50.4231 42.3902 50.4231 41.2857C50.4231 40.1811 49.5282 39.2857 48.4243 39.2857C47.3204 39.2857 46.4255 40.1811 46.4255 41.2857C46.4255 42.3902 47.3204 43.2857 48.4243 43.2857Z" fill="url(#paint9_radial_32_867)"/>
<path id="Vector_6" d="M46.9966 40.4285C47.312 40.4285 47.5677 40.1727 47.5677 39.8571C47.5677 39.5415 47.312 39.2857 46.9966 39.2857C46.6812 39.2857 46.4255 39.5415 46.4255 39.8571C46.4255 40.1727 46.6812 40.4285 46.9966 40.4285Z" fill="white"/>
</g>
<line id="Line 1" x1="55.7077" y1="35.4222" x2="41.343" y2="49.7858" stroke="#889097" stroke-opacity="0.5" stroke-width="2" stroke-linecap="round"/>
</g>
</g>
</g>
</g>
<defs>
<filter id="filter0_bd_32_867" x="0" y="1.71428" width="58" height="52" filterUnits="userSpaceOnUse" color-interpolation-filters="sRGB">
<feFlood flood-opacity="0" result="BackgroundImageFix"/>
<feGaussianBlur in="BackgroundImageFix" stdDeviation="2"/>
<feComposite in2="SourceAlpha" operator="in" result="effect1_backgroundBlur_32_867"/>
<feColorMatrix in="SourceAlpha" type="matrix" values="0 0 0 0 0 0 0 0 0 0 0 0 0 0 0 0 0 0 127 0" result="hardAlpha"/>
<feOffset dy="4"/>
<feGaussianBlur stdDeviation="2"/>
<feComposite in2="hardAlpha" operator="out"/>
<feColorMatrix type="matrix" values="0 0 0 0 0.857346 0 0 0 0 0.887393 0 0 0 0 0.897222 0 0 0 1 0"/>
<feBlend mode="normal" in2="effect1_backgroundBlur_32_867" result="effect2_dropShadow_32_867"/>
<feBlend mode="normal" in="SourceGraphic" in2="effect2_dropShadow_32_867" result="shape"/>
</filter>
<filter id="filter1_bd_32_867" x="0" y="1.71428" width="58" height="52" filterUnits="userSpaceOnUse" color-interpolation-filters="sRGB">
<feFlood flood-opacity="0" result="BackgroundImageFix"/>
<feGaussianBlur in="BackgroundImageFix" stdDeviation="2"/>
<feComposite in2="SourceAlpha" operator="in" result="effect1_backgroundBlur_32_867"/>
<feColorMatrix in="SourceAlpha" type="matrix" values="0 0 0 0 0 0 0 0 0 0 0 0 0 0 0 0 0 0 127 0" result="hardAlpha"/>
<feOffset dy="4"/>
<feGaussianBlur stdDeviation="2"/>
<feComposite in2="hardAlpha" operator="out"/>
<feColorMatrix type="matrix" values="0 0 0 0 1 0 0 0 0 1 0 0 0 0 1 0 0 0 0.25 0"/>
<feBlend mode="normal" in2="effect1_backgroundBlur_32_867" result="effect2_dropShadow_32_867"/>
<feBlend mode="normal" in="SourceGraphic" in2="effect2_dropShadow_32_867" result="shape"/>
</filter>
<filter id="filter2_bf_32_867" x="33.9294" y="27.7857" width="27.5002" height="28" filterUnits="userSpaceOnUse" color-interpolation-filters="sRGB">
<feFlood flood-opacity="0" result="BackgroundImageFix"/>
<feGaussianBlur in="BackgroundImageFix" stdDeviation="2"/>
<feComposite in2="SourceAlpha" operator="in" result="effect1_backgroundBlur_32_867"/>
<feBlend mode="normal" in="SourceGraphic" in2="effect1_backgroundBlur_32_867" result="shape"/>
<feGaussianBlur stdDeviation="2" result="effect2_foregroundBlur_32_867"/>
</filter>
<linearGradient id="paint0_linear_32_867" x1="15.85" y1="0.263086" x2="46.6675" y2="35.0898" gradientUnits="userSpaceOnUse">
<stop stop-color="#7DD8F3"/>
<stop offset="1" stop-color="#45B0D0"/>
</linearGradient>
<linearGradient id="paint1_linear_32_867" x1="4.7675" y1="4.23428" x2="54.5519" y2="6.44861" gradientUnits="userSpaceOnUse">
<stop stop-color="#0077D2"/>
<stop offset="1" stop-color="#0B59A2"/>
</linearGradient>
<linearGradient id="paint2_linear_32_867" x1="4" y1="25.7143" x2="54" y2="25.7143" gradientUnits="userSpaceOnUse">
<stop stop-color="#7DD8F3"/>
<stop offset="1" stop-color="#45B0D0"/>
</linearGradient>
<linearGradient id="paint3_linear_32_867" x1="16.5167" y1="11.261" x2="31.9809" y2="39.2227" gradientUnits="userSpaceOnUse">
<stop stop-color="#75DAFF"/>
<stop offset="1" stop-color="#49BEF1"/>
</linearGradient>
<linearGradient id="paint4_linear_32_867" x1="16.5167" y1="11.261" x2="31.9809" y2="39.2227" gradientUnits="userSpaceOnUse">
<stop stop-color="#75DAFF"/>
<stop offset="1" stop-color="#49BEF1"/>
</linearGradient>
<radialGradient id="paint5_radial_32_867" cx="0" cy="0" r="1" gradientUnits="userSpaceOnUse" gradientTransform="translate(47.6796 41.7857) rotate(45.7248) scale(9.87577 9.87261)">
<stop stop-color="#64717C" stop-opacity="0.19"/>
<stop offset="1" stop-color="#64717C"/>
</radialGradient>
<linearGradient id="paint6_linear_32_867" x1="41.2833" y1="34.7147" x2="55.4208" y2="48.4989" gradientUnits="userSpaceOnUse">
<stop stop-color="#889097" stop-opacity="0.62"/>
<stop offset="1" stop-color="#889097"/>
</linearGradient>
<radialGradient id="paint7_radial_32_867" cx="0" cy="0" r="1" gradientUnits="userSpaceOnUse" gradientTransform="translate(48.463 40.6197) scale(6.36302 6.4427)">
<stop offset="0.55" stop-color="#E4E4E6"/>
<stop offset="0.73" stop-color="#E1E2E4"/>
<stop offset="0.854" stop-color="#D8DADC"/>
<stop offset="0.961" stop-color="#C9CDCF"/>
<stop offset="1" stop-color="#C1C6C9"/>
</radialGradient>
<linearGradient id="paint8_linear_32_867" x1="45.8767" y1="38.7397" x2="51.0407" y2="43.9006" gradientUnits="userSpaceOnUse">
<stop stop-color="#32BDEF"/>
<stop offset="1" stop-color="#1EA2E4"/>
</linearGradient>
<radialGradient id="paint9_radial_32_867" cx="0" cy="0" r="1" gradientUnits="userSpaceOnUse" gradientTransform="translate(47.2468 38.3594) scale(5.18798 5.19114)">
<stop stop-color="#4B4B4B"/>
<stop offset="0.531" stop-color="#393939"/>
<stop offset="1" stop-color="#252525"/>
</radialGradient>
</defs>
</svg>
