<svg width="118" height="119" viewBox="0 0 118 119" fill="none" xmlns="http://www.w3.org/2000/svg">
<g id="app-icon-add">
<g id="app-icon-frame" filter="url(#filter0_d_29_231)">
<path id="Vector" d="M100.935 5.5H17.0645C12.6106 5.5 9 9.11061 9 13.5645V97.4355C9 101.889 12.6106 105.5 17.0645 105.5H100.935C105.389 105.5 109 101.889 109 97.4355V13.5645C109 9.11061 105.389 5.5 100.935 5.5Z" fill="white"/>
<path id="Vector_2" d="M100.935 5.5H17.0645C12.6106 5.5 9 9.11061 9 13.5645V97.4355C9 101.889 12.6106 105.5 17.0645 105.5H100.935C105.389 105.5 109 101.889 109 97.4355V13.5645C109 9.11061 105.389 5.5 100.935 5.5Z" fill="url(#paint0_linear_29_231)" fill-opacity="0.2"/>
<path id="Vector_3" d="M100.935 5.5H17.0645C12.6106 5.5 9 9.11061 9 13.5645V97.4355C9 101.889 12.6106 105.5 17.0645 105.5H100.935C105.389 105.5 109 101.889 109 97.4355V13.5645C109 9.11061 105.389 5.5 100.935 5.5Z" stroke="#D5EAF6" stroke-width="10"/>
</g>
<g id="Frame">
<g id="sales" filter="url(#filter1_bd_29_231)">
<g id="sales_2" filter="url(#filter2_bd_29_231)">
<path d="M25 80.2857V40.0357H95V80.2857C95 82.2107 93.425 83.7857 91.5 83.7857H28.5C26.575 83.7857 25 82.2107 25 80.2857Z" fill="url(#paint1_linear_29_231)"/>
<path d="M95 31.2857V40.0357H25V31.2857C25 29.3607 26.575 27.7857 28.5 27.7857H91.5C93.425 27.7857 95 29.3607 95 31.2857Z" fill="url(#paint2_linear_29_231)"/>
<path d="M46.875 36.5357H90.625C91.108 36.5357 91.5 36.1437 91.5 35.6607V32.1607C91.5 31.6777 91.108 31.2857 90.625 31.2857H46.875C46.392 31.2857 46 31.6777 46 32.1607V35.6607C46 36.1437 46.392 36.5357 46.875 36.5357Z" fill="url(#paint3_linear_29_231)"/>
<path d="M31.125 36.5357C32.5748 36.5357 33.75 35.3605 33.75 33.9107C33.75 32.461 32.5748 31.2857 31.125 31.2857C29.6753 31.2857 28.5 32.461 28.5 33.9107C28.5 35.3605 29.6753 36.5357 31.125 36.5357Z" fill="url(#paint4_linear_29_231)"/>
<path d="M39.8695 36.5357C41.3193 36.5357 42.4945 35.3605 42.4945 33.9107C42.4945 32.461 41.3193 31.2857 39.8695 31.2857C38.4198 31.2857 37.2445 32.461 37.2445 33.9107C37.2445 35.3605 38.4198 36.5357 39.8695 36.5357Z" fill="url(#paint5_linear_29_231)"/>
<path d="M67.4667 65.6134C67.4667 57.697 55.9956 59.2434 55.9956 54.5659C55.9956 52.1232 58.6891 51.9954 59.5326 51.9954C61.558 51.9954 63.511 52.5483 65.0013 53.2614C65.4714 53.4863 66.0111 53.1536 66.0111 52.6253V50.3212C66.0111 49.5481 65.7254 49.0907 65.2704 48.9105C64.2486 48.5054 62.7824 48.2112 60.6118 48.1373V45.6022C60.6118 45.2988 60.37 45.0524 60.0722 45.0524H58.993C58.6952 45.0524 58.4533 45.2988 58.4533 45.6022V48.1789C55.0886 48.5146 51.6 50.4491 51.6 54.9509C51.6 63.1569 63.0711 61.5305 63.0711 65.8521C63.0711 67.2106 62.2201 68.3811 59.5341 68.3811C56.8345 68.3811 54.3555 67.4216 52.9831 66.7054C52.519 66.4621 51.9749 66.8101 51.9749 67.3384V69.9613C51.9749 70.4649 52.2726 70.9116 52.7261 71.1087C54.3525 71.8125 56.5337 72.3454 58.4518 72.501V75.3025C58.4518 75.6059 58.6937 75.8524 58.9914 75.8524H60.0707C60.3685 75.8524 60.6103 75.6059 60.6103 75.3025V72.5072C65.6468 72.079 67.4667 68.6445 67.4667 65.6134Z" fill="#FCFCFC"/>
</g>
</g>
</g>
<g id="Plus Frame">
<g id="plus">
<g id="Vector_4" filter="url(#filter3_bf_29_231)">
<path d="M95.4617 77.2143C95.4617 84.1174 90.0013 89.7143 83.2665 89.7143C76.5318 89.7143 71.0714 84.1174 71.0714 77.2143C71.0714 70.3112 76.5318 64.7143 83.2665 64.7143C90.0013 64.7143 95.4617 70.3112 95.4617 77.2143Z" fill="url(#paint6_radial_29_231)" fill-opacity="0.2"/>
<path d="M95.4617 77.2143C95.4617 84.1174 90.0013 89.7143 83.2665 89.7143C76.5318 89.7143 71.0714 84.1174 71.0714 77.2143C71.0714 70.3112 76.5318 64.7143 83.2665 64.7143C90.0013 64.7143 95.4617 70.3112 95.4617 77.2143Z" fill="white"/>
</g>
<path id="Vector_5" opacity="0.05" d="M88.7545 74.7143H84.4862V70.3393C84.4862 69.6487 83.9405 69.0893 83.2667 69.0893H82.0472C81.3734 69.0893 80.8276 69.6487 80.8276 70.3393V74.7143H76.5594C75.8856 74.7143 75.3398 75.2737 75.3398 75.9643V77.2143C75.3398 77.9049 75.8856 78.4643 76.5594 78.4643H80.8276V82.8393C80.8276 83.5299 81.3734 84.0893 82.0472 84.0893H83.2667C83.9405 84.0893 84.4862 83.5299 84.4862 82.8393V78.4643H88.7545C89.4283 78.4643 89.974 77.9049 89.974 77.2143V75.9643C89.974 75.2737 89.4283 74.7143 88.7545 74.7143Z" fill="black"/>
<g id="Group 16">
<path id="Vector_6" d="M96.0713 77.2143C96.0713 84.1174 90.6109 89.7143 83.8762 89.7143C77.1414 89.7143 71.681 84.1174 71.681 77.2143C71.681 70.3112 77.1414 64.7143 83.8762 64.7143C90.6109 64.7143 96.0713 70.3112 96.0713 77.2143Z" fill="url(#paint7_linear_29_231)"/>
<path id="Vector_7" opacity="0.07" d="M90.2787 75.9643H85.7055V71.2768C85.7055 70.7593 85.2958 70.3393 84.7909 70.3393H83.5714C83.0665 70.3393 82.6568 70.7593 82.6568 71.2768V75.9643H78.0836C77.5787 75.9643 77.1689 76.3843 77.1689 76.9018V78.1518C77.1689 78.6693 77.5787 79.0893 78.0836 79.0893H82.6568V83.7768C82.6568 84.2943 83.0665 84.7143 83.5714 84.7143H84.7909C85.2958 84.7143 85.7055 84.2943 85.7055 83.7768V79.0893H90.2787C90.7836 79.0893 91.1933 78.6693 91.1933 78.1518V76.9018C91.1933 76.3843 90.7836 75.9643 90.2787 75.9643Z" fill="black"/>
<path id="Vector_8" d="M83.4191 70.3393H84.9434C85.3642 70.3393 85.7056 70.632 85.7056 70.9927V84.0609C85.7056 84.4215 85.3642 84.7143 84.9434 84.7143H83.4191C82.9983 84.7143 82.6569 84.4215 82.6569 84.0609V70.9927C82.6569 70.632 82.9983 70.3393 83.4191 70.3393Z" fill="white"/>
<path id="Vector_9" d="M91.1933 76.7456V78.3081C91.1933 78.7393 90.9077 79.0893 90.5559 79.0893H77.8064C77.4545 79.0893 77.1689 78.7393 77.1689 78.3081V76.7456C77.1689 76.3143 77.4545 75.9643 77.8064 75.9643H90.5559C90.9077 75.9643 91.1933 76.3143 91.1933 76.7456Z" fill="white"/>
</g>
</g>
</g>
</g>
<defs>
<filter id="filter0_d_29_231" x="0" y="0.5" width="118" height="118" filterUnits="userSpaceOnUse" color-interpolation-filters="sRGB">
<feFlood flood-opacity="0" result="BackgroundImageFix"/>
<feColorMatrix in="SourceAlpha" type="matrix" values="0 0 0 0 0 0 0 0 0 0 0 0 0 0 0 0 0 0 127 0" result="hardAlpha"/>
<feOffset dy="4"/>
<feGaussianBlur stdDeviation="2"/>
<feComposite in2="hardAlpha" operator="out"/>
<feColorMatrix type="matrix" values="0 0 0 0 0.8375 0 0 0 0 0.732812 0 0 0 0 0.732812 0 0 0 0.25 0"/>
<feBlend mode="normal" in2="BackgroundImageFix" result="effect1_dropShadow_29_231"/>
<feBlend mode="normal" in="SourceGraphic" in2="effect1_dropShadow_29_231" result="shape"/>
</filter>
<filter id="filter1_bd_29_231" x="21" y="23.7857" width="78" height="68" filterUnits="userSpaceOnUse" color-interpolation-filters="sRGB">
<feFlood flood-opacity="0" result="BackgroundImageFix"/>
<feGaussianBlur in="BackgroundImageFix" stdDeviation="2"/>
<feComposite in2="SourceAlpha" operator="in" result="effect1_backgroundBlur_29_231"/>
<feColorMatrix in="SourceAlpha" type="matrix" values="0 0 0 0 0 0 0 0 0 0 0 0 0 0 0 0 0 0 127 0" result="hardAlpha"/>
<feOffset dy="4"/>
<feGaussianBlur stdDeviation="2"/>
<feComposite in2="hardAlpha" operator="out"/>
<feColorMatrix type="matrix" values="0 0 0 0 0.857346 0 0 0 0 0.887393 0 0 0 0 0.897222 0 0 0 1 0"/>
<feBlend mode="normal" in2="effect1_backgroundBlur_29_231" result="effect2_dropShadow_29_231"/>
<feBlend mode="normal" in="SourceGraphic" in2="effect2_dropShadow_29_231" result="shape"/>
</filter>
<filter id="filter2_bd_29_231" x="21" y="23.7857" width="78" height="68" filterUnits="userSpaceOnUse" color-interpolation-filters="sRGB">
<feFlood flood-opacity="0" result="BackgroundImageFix"/>
<feGaussianBlur in="BackgroundImageFix" stdDeviation="2"/>
<feComposite in2="SourceAlpha" operator="in" result="effect1_backgroundBlur_29_231"/>
<feColorMatrix in="SourceAlpha" type="matrix" values="0 0 0 0 0 0 0 0 0 0 0 0 0 0 0 0 0 0 127 0" result="hardAlpha"/>
<feOffset dy="4"/>
<feGaussianBlur stdDeviation="2"/>
<feComposite in2="hardAlpha" operator="out"/>
<feColorMatrix type="matrix" values="0 0 0 0 1 0 0 0 0 1 0 0 0 0 1 0 0 0 0.25 0"/>
<feBlend mode="normal" in2="effect1_backgroundBlur_29_231" result="effect2_dropShadow_29_231"/>
<feBlend mode="normal" in="SourceGraphic" in2="effect2_dropShadow_29_231" result="shape"/>
</filter>
<filter id="filter3_bf_29_231" x="67.0714" y="60.7143" width="32.3903" height="33" filterUnits="userSpaceOnUse" color-interpolation-filters="sRGB">
<feFlood flood-opacity="0" result="BackgroundImageFix"/>
<feGaussianBlur in="BackgroundImageFix" stdDeviation="2"/>
<feComposite in2="SourceAlpha" operator="in" result="effect1_backgroundBlur_29_231"/>
<feBlend mode="normal" in="SourceGraphic" in2="effect1_backgroundBlur_29_231" result="shape"/>
<feGaussianBlur stdDeviation="2" result="effect2_foregroundBlur_29_231"/>
</filter>
<linearGradient id="paint0_linear_29_231" x1="59" y1="10.3387" x2="59" y2="100.661" gradientUnits="userSpaceOnUse">
<stop stop-color="white"/>
<stop offset="0.472222" stop-color="#0D5176" stop-opacity="0.527778"/>
<stop offset="0.940972" stop-color="#12A6F7" stop-opacity="0.465278"/>
<stop offset="1" stop-opacity="0"/>
</linearGradient>
<linearGradient id="paint1_linear_29_231" x1="41.59" y1="20.154" x2="84.7344" y2="68.9114" gradientUnits="userSpaceOnUse">
<stop stop-color="#7DD8F3"/>
<stop offset="1" stop-color="#45B0D0"/>
</linearGradient>
<linearGradient id="paint2_linear_29_231" x1="26.0745" y1="25.7137" x2="95.7727" y2="28.8138" gradientUnits="userSpaceOnUse">
<stop stop-color="#0077D2"/>
<stop offset="1" stop-color="#0B59A2"/>
</linearGradient>
<linearGradient id="paint3_linear_29_231" x1="25" y1="55.7857" x2="95" y2="55.7857" gradientUnits="userSpaceOnUse">
<stop stop-color="#7DD8F3"/>
<stop offset="1" stop-color="#45B0D0"/>
</linearGradient>
<linearGradient id="paint4_linear_29_231" x1="42.5233" y1="35.551" x2="64.1733" y2="74.6975" gradientUnits="userSpaceOnUse">
<stop stop-color="#75DAFF"/>
<stop offset="1" stop-color="#49BEF1"/>
</linearGradient>
<linearGradient id="paint5_linear_29_231" x1="42.5233" y1="35.551" x2="64.1733" y2="74.6975" gradientUnits="userSpaceOnUse">
<stop stop-color="#75DAFF"/>
<stop offset="1" stop-color="#49BEF1"/>
</linearGradient>
<radialGradient id="paint6_radial_29_231" cx="0" cy="0" r="1" gradientUnits="userSpaceOnUse" gradientTransform="translate(83.2665 77.2143) rotate(45.7073) scale(12.3484 12.3446)">
<stop stop-color="#64717C" stop-opacity="0.19"/>
<stop offset="1" stop-color="#64717C"/>
</radialGradient>
<linearGradient id="paint7_linear_29_231" x1="75.253" y1="68.3755" x2="92.9251" y2="85.6166" gradientUnits="userSpaceOnUse">
<stop stop-color="#21AD64"/>
<stop offset="1" stop-color="#088242"/>
</linearGradient>
</defs>
</svg>
