<svg xmlns="http://www.w3.org/2000/svg"  viewBox="0 0 64 64" width="50px" height="50px"><radialGradient id="z2KaMNOqsOiQLwKRyOJKGa" cx="34.625" cy="78.235" r="23.206" gradientTransform="matrix(1 0 0 -1 0 110.11)" gradientUnits="userSpaceOnUse"><stop offset="0" stop-color="#f4e9c3"/><stop offset=".219" stop-color="#f8eecd"/><stop offset=".644" stop-color="#fdf4dc"/><stop offset="1" stop-color="#fff6e1"/></radialGradient><path fill="url(#z2KaMNOqsOiQLwKRyOJKGa)" d="M54,8L54,8c-2.209,0-4-1.791-4-4l0,0c0-2.209,1.791-4,4-4l0,0c2.209,0,4,1.791,4,4l0,0 C58,6.209,56.209,8,54,8z"/><radialGradient id="z2KaMNOqsOiQLwKRyOJKGb" cx="33.112" cy="32" r="31.449" gradientTransform="matrix(1 0 0 .9 0 3.2)" gradientUnits="userSpaceOnUse"><stop offset="0" stop-color="#f4e9c3"/><stop offset=".219" stop-color="#f8eecd"/><stop offset=".644" stop-color="#fdf4dc"/><stop offset="1" stop-color="#fff6e1"/></radialGradient><path fill="url(#z2KaMNOqsOiQLwKRyOJKGb)" d="M53,39l1,1c0,1.93-2.93,4-1,4h3c1.1,0,2.1,0.45,2.83,1.17 c0.678,0.687,1.116,1.614,1.165,2.638C60.105,50.111,58.08,52,55.775,52L51.5,52c-0.69,0-1.32,0.28-1.77,0.73S49,53.81,49,54.5 s0.28,1.32,0.73,1.77C50.18,56.72,50.81,57,51.5,57c0.96,0,1.84,0.39,2.47,1.03c0.611,0.601,0.994,1.43,1.028,2.339 C55.072,62.365,53.301,64,51.304,64L7.5,64c-0.96,0-1.84-0.39-2.47-1.03c-0.611-0.601-0.994-1.43-1.028-2.339 C3.928,58.635,5.699,57,7.696,57L19,57c0.55,0,1.05-0.22,1.41-0.59c0.409-0.398,0.635-0.968,0.583-1.587 C20.903,53.77,19.945,53,18.888,53l-5.638,0c-1.11,0-2.11-0.45-2.83-1.17c-0.89-0.902-1.367-2.216-1.093-3.622 C9.698,46.309,11.466,45,13.401,45H13.5c0.69,0,1.32-0.28,1.77-0.73c0.417-0.417,0.688-0.988,0.725-1.618 C16.083,41.196,14.799,40,13.34,40L8,40c-2.21,0-4-1.79-4-4c0,0-3.21-7-1-7l4-2h3.5c1.381,0,2.5-1.119,2.5-2.5v0 c0-1.381-1.119-2.5-2.5-2.5H8c-1.657,0-3-1.343-3-3v0c0-1.657,1.343-3,3-3h13c1.1,0,2.1-0.45,2.83-1.17 c0.678-0.687,1.116-1.614,1.165-2.638C25.105,9.889,23.08,8,20.775,8L13,8c-1.1,0-2.1-0.45-2.83-1.17 C9.492,6.143,9.053,5.216,9.005,4.192C8.895,1.889,10.92,0,13.225,0L44,0c1.1,0,2.1,0.45,2.83,1.17 c0.678,0.687,1.116,1.614,1.165,2.638C48.105,6.111,46.08,8,43.775,8L42,8c-0.83,0-1.58,0.34-2.12,0.88 c-0.587,0.587-0.938,1.423-0.872,2.339C39.123,12.818,40.567,14,42.169,14H44.5c0.96,0,1.84,0.39,2.47,1.03 c0.611,0.601,0.994,1.43,1.028,2.339C48.072,19.365,46.301,21,44.304,21L43,21c-0.83,0-1.58,0.34-2.12,0.88 c-0.587,0.587-0.938,1.423-0.872,2.339C40.123,25.818,41.567,27,43.169,27H59c1.38,0,2.63,0.56,3.54,1.46 c0.86,0.87,1.41,2.05,1.457,3.358C64.099,34.666,61.609,37,58.759,37H56.5C54.57,37,53,37.07,53,39z"/><linearGradient id="z2KaMNOqsOiQLwKRyOJKGc" x1="8.13" x2="8.13" y1="39.664" y2="24.535" gradientUnits="userSpaceOnUse"><stop offset="0" stop-color="#ff634d"/><stop offset=".204" stop-color="#fe6464"/><stop offset=".521" stop-color="#fc6581"/><stop offset=".794" stop-color="#fa6694"/><stop offset=".989" stop-color="#fa669a"/><stop offset="1" stop-color="#fa669a"/></linearGradient><path fill="url(#z2KaMNOqsOiQLwKRyOJKGc)" d="M8.363,24.535c-4.507,0-8.263,1.912-8.263,7.681c0,4.57,2.525,7.448,8.379,7.448 c4.256,0,6.052-1.732,6.803-3.056c0.376-0.663-0.118-1.483-0.879-1.483l-2.378,0c-0.309,0-0.625,0.107-0.822,0.346 c-1.613,1.945-6.322,1.534-6.817-1.908c-0.044-0.309,0.181-0.593,0.493-0.593c1.834,0,7.885,0,10.286,0 c0.552,0,0.995-0.448,0.995-1v-0.685C16.16,28.63,14.474,24.535,8.363,24.535z M10.846,29.82H5.519 c-0.434,0-0.657-0.511-0.374-0.841c1.456-1.701,4.849-1.764,6.132,0.082C11.498,29.38,11.234,29.82,10.846,29.82z"/><linearGradient id="z2KaMNOqsOiQLwKRyOJKGd" x1="24.464" x2="24.464" y1="44.163" y2="20.933" gradientUnits="userSpaceOnUse"><stop offset="0" stop-color="#155cde"/><stop offset=".278" stop-color="#1f7fe5"/><stop offset=".569" stop-color="#279ceb"/><stop offset=".82" stop-color="#2cafef"/><stop offset="1" stop-color="#2eb5f0"/></linearGradient><path fill="url(#z2KaMNOqsOiQLwKRyOJKGd)" d="M17.158,19.1c-0.552,0-1,0.448-1,1v16.818c0,0.438-0.014,0.954-0.029,1.397 c-0.009,0.271,0.092,0.535,0.28,0.73c0.189,0.195,0.448,0.305,0.72,0.305h2.226c0.529,0,0.967-0.412,0.998-0.94 c0.001-0.011,0.001-0.021,0.002-0.032c0.892,0.686,2.449,1.481,4.88,1.481c4.505,0,7.565-3.127,7.565-7.608 c0-4.168-2.811-7.521-7.557-7.521c-2.466,0-3.989,0.739-4.856,1.397V20.1c0-0.552-0.448-1-1-1H17.158z M24.42,27.934 c5.498,0.014,5.179,8.721,0.023,8.721C19.087,36.655,19.066,27.949,24.42,27.934z"/><linearGradient id="z2KaMNOqsOiQLwKRyOJKGe" x1="40.093" x2="40.093" y1="49.681" y2="20.105" gradientUnits="userSpaceOnUse"><stop offset="0" stop-color="#feaa53"/><stop offset=".612" stop-color="#ffcd49"/><stop offset="1" stop-color="#ffde44"/></linearGradient><path fill="url(#z2KaMNOqsOiQLwKRyOJKGe)" d="M40.713,24.686c-4.461,0-6.175,1.607-6.826,2.875 c-0.336,0.655,0.169,1.431,0.904,1.431h2.262c0.329,0,0.616-0.182,0.808-0.449c0.309-0.428,1.017-0.952,2.613-0.952 c2.598,0,3.031,1.383,3.063,1.464c0.118,0.303,0.138,0.626,0.137,0.95c0,0.276-0.224,0.5-0.5,0.5l-2.695,0.001 c-5.253,0-8.03,1.537-8.03,4.655c0,3.069,2.566,4.739,6.033,4.739c2.692,0,4.344-0.847,5.268-1.577 c0.001,0.023,0.002,0.046,0.003,0.069c0.022,0.536,0.462,0.959,0.999,0.959h1.98c0.276,0,0.539-0.114,0.728-0.314 c0.189-0.201,0.288-0.47,0.271-0.746c-0.021-0.343-0.037-0.714-0.037-1.02v-7.015C47.696,25.654,43.986,24.686,40.713,24.686z M42.867,33.609c0.326,0.005,0.556,0.318,0.477,0.635c-0.812,3.256-6.518,3.201-6.518,0.949 C36.826,33.59,40.643,33.575,42.867,33.609z"/><linearGradient id="z2KaMNOqsOiQLwKRyOJKGf" x1="54.956" x2="54.956" y1="21.551" y2="60.06" gradientUnits="userSpaceOnUse"><stop offset="0" stop-color="#42d778"/><stop offset=".996" stop-color="#34b171"/><stop offset="1" stop-color="#34b171"/></linearGradient><path fill="url(#z2KaMNOqsOiQLwKRyOJKGf)" d="M46.662,26.739c-0.355-0.666,0.128-1.47,0.883-1.47h2.56 c0.379,0,0.725,0.214,0.895,0.553l3.676,7.366c0.184,0.369,0.711,0.369,0.895,0l3.667-7.364c0.169-0.34,0.516-0.554,0.895-0.554 h2.235c0.747,0,1.23,0.789,0.891,1.454l-8.883,17.435c-0.171,0.335-0.515,0.546-0.891,0.546h-2.473 c-0.753,0-1.236-0.801-0.885-1.467l2.526-4.788c0.077-0.147,0.077-0.322-0.001-0.468L46.662,26.739z"/></svg>