<svg xmlns="http://www.w3.org/2000/svg"  viewBox="0 0 48 48" width="50px" height="50px"><path fill="#50e6ff" d="M4,38V13l20-2l20,2L30,40H6C4.9,40,4,39.1,4,38z"/><path fill="#199be2" d="M30,40h12c1.105,0,2-0.895,2-2V13H30V40z"/><rect width="2" height="27" x="16" y="13" fill="#35c1f1"/><linearGradient id="nd67chKj1YKiy03u0oEVua" x1="3.347" x2="42.39" y1="13.99" y2="21.928" gradientUnits="userSpaceOnUse"><stop offset="0" stop-color="#0077d2"/><stop offset="1" stop-color="#0b59a2"/></linearGradient><path fill="url(#nd67chKj1YKiy03u0oEVua)" d="M44,10v3H4v-3c0-1.1,0.9-2,2-2h36C43.1,8,44,8.9,44,10z M41,19.5v-1	c0-0.276-0.224-0.5-0.5-0.5h-7c-0.276,0-0.5,0.224-0.5,0.5v1c0,0.276,0.224,0.5,0.5,0.5h7C40.776,20,41,19.776,41,19.5z M41,26.5v-1	c0-0.276-0.224-0.5-0.5-0.5h-7c-0.276,0-0.5,0.224-0.5,0.5v1c0,0.276,0.224,0.5,0.5,0.5h7C40.776,27,41,26.776,41,26.5z M41,33.5v-1	c0-0.276-0.224-0.5-0.5-0.5h-7c-0.276,0-0.5,0.224-0.5,0.5v1c0,0.276,0.224,0.5,0.5,0.5h7C40.776,34,41,33.776,41,33.5z"/></svg>