<svg width="82" height="60" viewBox="0 0 82 60" fill="none" xmlns="http://www.w3.org/2000/svg">
<g filter="url(#filter0_b_3_3950)">
<g clip-path="url(#clip0_3_3950)">
<rect width="82" height="60" rx="3" fill="url(#paint0_linear_3_3950)"/>
<rect width="82" height="60" rx="3" fill="url(#paint1_radial_3_3950)" fill-opacity="0.2"/>
<rect width="82" height="60" rx="3" fill="white" fill-opacity="0.2"/>
<path d="M62.6 23H22C20.8954 23 20 23.8954 20 25V34.118C20 35.2226 20.8954 36.118 22 36.118H62.6C63.7046 36.118 64.6 35.2226 64.6 34.118V25C64.6 23.8954 63.7046 23 62.6 23Z" fill="#427F87" fill-opacity="0.82"/>
<path d="M62.6 23H22C20.8954 23 20 23.8954 20 25V34.118C20 35.2226 20.8954 36.118 22 36.118H62.6C63.7046 36.118 64.6 35.2226 64.6 34.118V25C64.6 23.8954 63.7046 23 62.6 23Z" fill="url(#paint2_linear_3_3950)"/>
<path d="M58.6176 28.7353H36.0588C35.6365 28.7353 35.2941 29.0777 35.2941 29.5C35.2941 29.9223 35.6365 30.2647 36.0588 30.2647H58.6176C59.0399 30.2647 59.3823 29.9223 59.3823 29.5C59.3823 29.0777 59.0399 28.7353 58.6176 28.7353Z" fill="white"/>
<path d="M30.1892 30.5037H26.7404C26.612 30.5037 26.5158 30.6214 26.5414 30.7473C26.5607 30.8419 26.6439 30.9099 26.7404 30.9099H29.9599C30.1541 30.9099 30.2981 31.0915 30.255 31.2821C30.2142 31.4627 30.3144 31.6418 30.4295 31.7868C30.526 31.9083 30.5837 32.0625 30.5837 32.2302C30.5837 32.6263 30.2619 32.9468 29.867 32.9411C29.4909 32.9356 29.1816 32.6284 29.1714 32.2499C29.1657 32.0355 29.0131 31.7224 28.7985 31.7224H27.3043C27.097 31.7224 26.9514 32.0229 26.9514 32.2302C26.9514 32.6341 26.6168 32.9593 26.2114 32.9404C25.8515 32.9236 25.5587 32.6308 25.5398 32.2686C25.5154 31.8012 25.8308 31.3047 25.7376 30.8461L25.1831 28.1174C25.081 27.6148 24.639 27.2537 24.1262 27.2537C23.959 27.2537 23.8235 27.1173 23.8235 26.949V26.7458C23.8235 26.5776 23.959 26.4412 24.1262 26.4412H25.4193C25.5631 26.4412 25.6871 26.543 25.7159 26.6848C25.7832 27.0158 26.0742 27.2537 26.412 27.2537H30.7854C30.9796 27.2537 31.1236 27.4352 31.0806 27.6259L30.4843 30.2665C30.453 30.4052 30.3305 30.5037 30.1892 30.5037ZM28.9694 28.574H28.8718C28.5913 28.574 28.364 28.3466 28.364 28.0662C28.364 27.954 28.2736 27.863 28.1622 27.863H27.9604C27.8489 27.863 27.7586 27.954 27.7586 28.0662C27.7586 28.3466 27.5312 28.574 27.2508 28.574H27.1532C27.0417 28.574 26.9514 28.6649 26.9514 28.7771V28.9802C26.9514 29.0924 27.0417 29.1833 27.1532 29.1833H27.2507C27.5312 29.1833 27.7586 29.4107 27.7586 29.6912C27.7586 29.8033 27.8489 29.8943 27.9604 29.8943H28.1622C28.2736 29.8943 28.364 29.8033 28.364 29.6912C28.364 29.4107 28.5914 29.1833 28.8719 29.1833H28.9694C29.0808 29.1833 29.1711 29.0924 29.1711 28.9802V28.7771C29.1711 28.6649 29.0808 28.574 28.9694 28.574Z" fill="white"/>
</g>
</g>
<defs>
<filter id="filter0_b_3_3950" x="-4" y="-4" width="90" height="68" filterUnits="userSpaceOnUse" color-interpolation-filters="sRGB">
<feFlood flood-opacity="0" result="BackgroundImageFix"/>
<feGaussianBlur in="BackgroundImageFix" stdDeviation="2"/>
<feComposite in2="SourceAlpha" operator="in" result="effect1_backgroundBlur_3_3950"/>
<feBlend mode="normal" in="SourceGraphic" in2="effect1_backgroundBlur_3_3950" result="shape"/>
</filter>
<linearGradient id="paint0_linear_3_3950" x1="41" y1="0" x2="41" y2="60" gradientUnits="userSpaceOnUse">
<stop stop-color="#F2F2F2" stop-opacity="0.23"/>
<stop offset="1" stop-color="white" stop-opacity="0"/>
</linearGradient>
<radialGradient id="paint1_radial_3_3950" cx="0" cy="0" r="1" gradientUnits="userSpaceOnUse" gradientTransform="translate(41 30) rotate(90) scale(30 41)">
<stop stop-color="#F2F2F2"/>
<stop offset="1" stop-opacity="0.25"/>
</radialGradient>
<linearGradient id="paint2_linear_3_3950" x1="13.8462" y1="12.5415" x2="55.2032" y2="24.7028" gradientUnits="userSpaceOnUse">
<stop stop-color="#318F8E"/>
<stop offset="1" stop-color="#00C0D9"/>
</linearGradient>
<clipPath id="clip0_3_3950">
<rect width="82" height="60" rx="3" fill="white"/>
</clipPath>
</defs>
</svg>
