<svg width="82" height="60" viewBox="0 0 82 60" fill="none" xmlns="http://www.w3.org/2000/svg">
<g filter="url(#filter0_b_3_4024)">
<g clip-path="url(#clip0_3_4024)">
<rect width="82" height="60" rx="3" fill="url(#paint0_linear_3_4024)"/>
<rect width="82" height="60" rx="3" fill="url(#paint1_radial_3_4024)" fill-opacity="0.2"/>
<rect width="82" height="60" rx="3" fill="white" fill-opacity="0.2"/>
<g opacity="0.4">
<path d="M82 0H0V60H82V0Z" fill="url(#paint2_linear_3_4024)"/>
</g>
<path d="M41 23C41 22.4477 40.5523 22 40 22H14C13.4477 22 13 22.4477 13 23V37C13 37.5523 13.4477 38 14 38H40C40.5523 38 41 37.5523 41 37V23Z" fill="white"/>
<path d="M37 26C37 25.4477 36.5523 25 36 25H17C16.4477 25 16 25.4477 16 26C16 26.5523 16.4477 27 17 27H36C36.5523 27 37 26.5523 37 26Z" fill="#64717C" fill-opacity="0.19"/>
<path d="M37 26C37 25.4477 36.5523 25 36 25H17C16.4477 25 16 25.4477 16 26C16 26.5523 16.4477 27 17 27H36C36.5523 27 37 26.5523 37 26Z" fill="black" fill-opacity="0.697"/>
<path d="M30.5 33C30.7761 33 31 33.2239 31 33.5C31 33.7761 30.7761 34 30.5 34H16.5C16.2239 34 16 33.7761 16 33.5C16 33.2239 16.2239 33 16.5 33H30.5ZM32.5 30C32.7761 30 33 30.2239 33 30.5C33 30.7761 32.7761 31 32.5 31H16.5C16.2239 31 16 30.7761 16 30.5C16 30.2239 16.2239 30 16.5 30H32.5Z" fill="#64717C" fill-opacity="0.19"/>
<path d="M30.5 33C30.7761 33 31 33.2239 31 33.5C31 33.7761 30.7761 34 30.5 34H16.5C16.2239 34 16 33.7761 16 33.5C16 33.2239 16.2239 33 16.5 33H30.5ZM32.5 30C32.7761 30 33 30.2239 33 30.5C33 30.7761 32.7761 31 32.5 31H16.5C16.2239 31 16 30.7761 16 30.5C16 30.2239 16.2239 30 16.5 30H32.5Z" fill="black" fill-opacity="0.348"/>
</g>
</g>
<defs>
<filter id="filter0_b_3_4024" x="-4" y="-4" width="90" height="68" filterUnits="userSpaceOnUse" color-interpolation-filters="sRGB">
<feFlood flood-opacity="0" result="BackgroundImageFix"/>
<feGaussianBlur in="BackgroundImageFix" stdDeviation="2"/>
<feComposite in2="SourceAlpha" operator="in" result="effect1_backgroundBlur_3_4024"/>
<feBlend mode="normal" in="SourceGraphic" in2="effect1_backgroundBlur_3_4024" result="shape"/>
</filter>
<linearGradient id="paint0_linear_3_4024" x1="41" y1="0" x2="41" y2="60" gradientUnits="userSpaceOnUse">
<stop stop-color="#F2F2F2" stop-opacity="0.23"/>
<stop offset="1" stop-color="white" stop-opacity="0"/>
</linearGradient>
<radialGradient id="paint1_radial_3_4024" cx="0" cy="0" r="1" gradientUnits="userSpaceOnUse" gradientTransform="translate(41 30) rotate(90) scale(30 41)">
<stop stop-color="#F2F2F2"/>
<stop offset="1" stop-opacity="0.25"/>
</radialGradient>
<linearGradient id="paint2_linear_3_4024" x1="5.97556e-07" y1="13.938" x2="68.7152" y2="64.2178" gradientUnits="userSpaceOnUse">
<stop stop-color="#0E8DF2"/>
<stop offset="1" stop-color="#00E2FF"/>
</linearGradient>
<clipPath id="clip0_3_4024">
<rect width="82" height="60" rx="3" fill="white"/>
</clipPath>
</defs>
</svg>
