<svg width="82" height="60" viewBox="0 0 82 60" fill="none" xmlns="http://www.w3.org/2000/svg">
<g filter="url(#filter0_b_3_4002)">
<g clip-path="url(#clip0_3_4002)">
<rect width="82" height="60" rx="3" fill="url(#paint0_linear_3_4002)"/>
<rect width="82" height="60" rx="3" fill="url(#paint1_radial_3_4002)" fill-opacity="0.2"/>
<rect width="82" height="60" rx="3" fill="white" fill-opacity="0.2"/>
<g opacity="0.4">
<path d="M82 16H0V44H82V16Z" fill="url(#paint2_linear_3_4002)"/>
</g>
<g filter="url(#filter1_i_3_4002)">
<path d="M37 25H15V27H37V25Z" fill="black"/>
</g>
<path d="M37 25H15V27H37V25Z" fill="white" fill-opacity="0.95"/>
<g filter="url(#filter2_i_3_4002)">
<path d="M31 33V34H15V33H31ZM35 30V31H15V30H35Z" fill="black"/>
</g>
<path d="M31 33V34H15V33H31ZM35 30V31H15V30H35Z" fill="white" fill-opacity="0.8"/>
<path opacity="0.703" d="M66.5 25.5H52.5C51.9477 25.5 51.5 25.9477 51.5 26.5V31.5C51.5 32.0523 51.9477 32.5 52.5 32.5H66.5C67.0523 32.5 67.5 32.0523 67.5 31.5V26.5C67.5 25.9477 67.0523 25.5 66.5 25.5Z" fill="#1C1C1C" stroke="white"/>
<mask id="mask0_3_4002" style="mask-type:alpha" maskUnits="userSpaceOnUse" x="60" y="29" width="9" height="13">
<path d="M68.22 36.566C68.37 36.711 68.403 36.878 68.32 37.067C68.239 37.26 68.096 37.357 67.893 37.357H65.122L66.58 40.81C66.6269 40.9238 66.6273 41.0514 66.5811 41.1654C66.5349 41.2795 66.4458 41.3709 66.333 41.42L65.049 41.964C64.9352 42.0109 64.8076 42.0113 64.6936 41.9651C64.5795 41.9189 64.4881 41.8298 64.439 41.717L63.054 38.438L60.791 40.701C60.7281 40.7671 60.6464 40.8123 60.557 40.8306C60.4676 40.8488 60.3748 40.8392 60.291 40.803C60.097 40.721 60 40.578 60 40.375V29.465C60 29.261 60.097 29.118 60.29 29.036C60.3739 29.0004 60.4666 28.9911 60.5559 29.0093C60.6451 29.0275 60.7268 29.0724 60.79 29.138L68.22 36.566Z" fill="white"/>
</mask>
<g mask="url(#mask0_3_4002)">
<g filter="url(#filter3_d_3_4002)">
<path d="M68.22 36.566C68.37 36.711 68.403 36.878 68.32 37.067C68.239 37.26 68.096 37.357 67.893 37.357H65.122L66.58 40.81C66.6269 40.9238 66.6273 41.0514 66.5811 41.1654C66.5349 41.2795 66.4458 41.3709 66.333 41.42L65.049 41.964C64.9352 42.0109 64.8076 42.0113 64.6936 41.9651C64.5795 41.9189 64.4881 41.8298 64.439 41.717L63.054 38.438L60.791 40.701C60.7281 40.7671 60.6464 40.8123 60.557 40.8306C60.4676 40.8488 60.3748 40.8392 60.291 40.803C60.097 40.721 60 40.578 60 40.375V29.465C60 29.261 60.097 29.118 60.29 29.036C60.3739 29.0004 60.4666 28.9911 60.5559 29.0093C60.6451 29.0275 60.7268 29.0724 60.79 29.138L68.22 36.566Z" fill="black"/>
</g>
<path d="M68.22 36.566C68.37 36.711 68.403 36.878 68.32 37.067C68.239 37.26 68.096 37.357 67.893 37.357H65.122L66.58 40.81C66.6269 40.9238 66.6273 41.0514 66.5811 41.1654C66.5349 41.2795 66.4458 41.3709 66.333 41.42L65.049 41.964C64.9352 42.0109 64.8076 42.0113 64.6936 41.9651C64.5795 41.9189 64.4881 41.8298 64.439 41.717L63.054 38.438L60.791 40.701C60.7281 40.7671 60.6464 40.8123 60.557 40.8306C60.4676 40.8488 60.3748 40.8392 60.291 40.803C60.097 40.721 60 40.578 60 40.375V29.465C60 29.261 60.097 29.118 60.29 29.036C60.3739 29.0004 60.4666 28.9911 60.5559 29.0093C60.6451 29.0275 60.7268 29.0724 60.79 29.138L68.22 36.566Z" fill="white"/>
</g>
</g>
</g>
<defs>
<filter id="filter0_b_3_4002" x="-4" y="-4" width="90" height="68" filterUnits="userSpaceOnUse" color-interpolation-filters="sRGB">
<feFlood flood-opacity="0" result="BackgroundImageFix"/>
<feGaussianBlur in="BackgroundImageFix" stdDeviation="2"/>
<feComposite in2="SourceAlpha" operator="in" result="effect1_backgroundBlur_3_4002"/>
<feBlend mode="normal" in="SourceGraphic" in2="effect1_backgroundBlur_3_4002" result="shape"/>
</filter>
<filter id="filter1_i_3_4002" x="15" y="25" width="22" height="3" filterUnits="userSpaceOnUse" color-interpolation-filters="sRGB">
<feFlood flood-opacity="0" result="BackgroundImageFix"/>
<feBlend mode="normal" in="SourceGraphic" in2="BackgroundImageFix" result="shape"/>
<feColorMatrix in="SourceAlpha" type="matrix" values="0 0 0 0 0 0 0 0 0 0 0 0 0 0 0 0 0 0 127 0" result="hardAlpha"/>
<feOffset dy="1"/>
<feGaussianBlur stdDeviation="2"/>
<feComposite in2="hardAlpha" operator="arithmetic" k2="-1" k3="1"/>
<feColorMatrix type="matrix" values="0 0 0 0 1 0 0 0 0 1 0 0 0 0 1 0 0 0 0.4 0"/>
<feBlend mode="normal" in2="shape" result="effect1_innerShadow_3_4002"/>
</filter>
<filter id="filter2_i_3_4002" x="15" y="30" width="20" height="5" filterUnits="userSpaceOnUse" color-interpolation-filters="sRGB">
<feFlood flood-opacity="0" result="BackgroundImageFix"/>
<feBlend mode="normal" in="SourceGraphic" in2="BackgroundImageFix" result="shape"/>
<feColorMatrix in="SourceAlpha" type="matrix" values="0 0 0 0 0 0 0 0 0 0 0 0 0 0 0 0 0 0 127 0" result="hardAlpha"/>
<feOffset dy="1"/>
<feGaussianBlur stdDeviation="2"/>
<feComposite in2="hardAlpha" operator="arithmetic" k2="-1" k3="1"/>
<feColorMatrix type="matrix" values="0 0 0 0 1 0 0 0 0 1 0 0 0 0 1 0 0 0 0.2 0"/>
<feBlend mode="normal" in2="shape" result="effect1_innerShadow_3_4002"/>
</filter>
<filter id="filter3_d_3_4002" x="56" y="26.0002" width="16.3645" height="20.9992" filterUnits="userSpaceOnUse" color-interpolation-filters="sRGB">
<feFlood flood-opacity="0" result="BackgroundImageFix"/>
<feColorMatrix in="SourceAlpha" type="matrix" values="0 0 0 0 0 0 0 0 0 0 0 0 0 0 0 0 0 0 127 0" result="hardAlpha"/>
<feOffset dy="1"/>
<feGaussianBlur stdDeviation="2"/>
<feColorMatrix type="matrix" values="0 0 0 0 0 0 0 0 0 0 0 0 0 0 0 0 0 0 1 0"/>
<feBlend mode="normal" in2="BackgroundImageFix" result="effect1_dropShadow_3_4002"/>
<feBlend mode="normal" in="SourceGraphic" in2="effect1_dropShadow_3_4002" result="shape"/>
</filter>
<linearGradient id="paint0_linear_3_4002" x1="41" y1="0" x2="41" y2="60" gradientUnits="userSpaceOnUse">
<stop stop-color="#F2F2F2" stop-opacity="0.23"/>
<stop offset="1" stop-color="white" stop-opacity="0"/>
</linearGradient>
<radialGradient id="paint1_radial_3_4002" cx="0" cy="0" r="1" gradientUnits="userSpaceOnUse" gradientTransform="translate(41 30) rotate(90) scale(30 41)">
<stop stop-color="#F2F2F2"/>
<stop offset="1" stop-opacity="0.25"/>
</radialGradient>
<linearGradient id="paint2_linear_3_4002" x1="7.62565e-08" y1="28.3676" x2="74.4355" y2="53.7852" gradientUnits="userSpaceOnUse">
<stop stop-color="#00A09D"/>
<stop offset="1" stop-color="#00E2FF"/>
</linearGradient>
<clipPath id="clip0_3_4002">
<rect width="82" height="60" rx="3" fill="white"/>
</clipPath>
</defs>
</svg>
