<svg width="82" height="60" viewBox="0 0 82 60" fill="none" xmlns="http://www.w3.org/2000/svg">
<g filter="url(#filter0_b_3_4056)">
<g clip-path="url(#clip0_3_4056)">
<rect width="82" height="60" rx="3" fill="url(#paint0_linear_3_4056)"/>
<rect width="82" height="60" rx="3" fill="url(#paint1_radial_3_4056)" fill-opacity="0.2"/>
<rect width="82" height="60" rx="3" fill="white" fill-opacity="0.2"/>
<path d="M63 25V38C63 38.5523 62.5523 39 62 39H20C19.4477 39 19 38.5523 19 38V25H63ZM44 29C44 28.4477 43.5523 28 43 28H23C22.4477 28 22 28.4477 22 29C22 29.5523 22.4477 30 23 30H43C43.5523 30 44 29.5523 44 29Z" fill="black"/>
<path d="M63 25V38C63 38.5523 62.5523 39 62 39H20C19.4477 39 19 38.5523 19 38V25H63ZM44 29C44 28.4477 43.5523 28 43 28H23C22.4477 28 22 28.4477 22 29C22 29.5523 22.4477 30 23 30H43C43.5523 30 44 29.5523 44 29Z" fill="white" fill-opacity="0.95"/>
<path d="M42 32.5C42 32.2239 41.7761 32 41.5 32H22.5C22.2239 32 22 32.2239 22 32.5C22 32.7761 22.2239 33 22.5 33H41.5C41.7761 33 42 32.7761 42 32.5Z" fill="black"/>
<path d="M42 32.5C42 32.2239 41.7761 32 41.5 32H22.5C22.2239 32 22 32.2239 22 32.5C22 32.7761 22.2239 33 22.5 33H41.5C41.7761 33 42 32.7761 42 32.5Z" fill="#FFD869"/>
<path d="M63 22C63 21.4477 62.5523 21 62 21H20C19.4477 21 19 21.4477 19 22V25H63V22Z" fill="white" fill-opacity="0.78"/>
</g>
</g>
<defs>
<filter id="filter0_b_3_4056" x="-4" y="-4" width="90" height="68" filterUnits="userSpaceOnUse" color-interpolation-filters="sRGB">
<feFlood flood-opacity="0" result="BackgroundImageFix"/>
<feGaussianBlur in="BackgroundImageFix" stdDeviation="2"/>
<feComposite in2="SourceAlpha" operator="in" result="effect1_backgroundBlur_3_4056"/>
<feBlend mode="normal" in="SourceGraphic" in2="effect1_backgroundBlur_3_4056" result="shape"/>
</filter>
<linearGradient id="paint0_linear_3_4056" x1="41" y1="0" x2="41" y2="60" gradientUnits="userSpaceOnUse">
<stop stop-color="#F2F2F2" stop-opacity="0.23"/>
<stop offset="1" stop-color="white" stop-opacity="0"/>
</linearGradient>
<radialGradient id="paint1_radial_3_4056" cx="0" cy="0" r="1" gradientUnits="userSpaceOnUse" gradientTransform="translate(41 30) rotate(90) scale(30 41)">
<stop stop-color="#F2F2F2"/>
<stop offset="1" stop-opacity="0.25"/>
</radialGradient>
<clipPath id="clip0_3_4056">
<rect width="82" height="60" rx="3" fill="white"/>
</clipPath>
</defs>
</svg>
