<svg width="82" height="60" viewBox="0 0 82 60" fill="none" xmlns="http://www.w3.org/2000/svg">
<g filter="url(#filter0_b_3_4072)">
<g clip-path="url(#clip0_3_4072)">
<rect width="82" height="60" rx="3" fill="url(#paint0_linear_3_4072)"/>
<rect width="82" height="60" rx="3" fill="url(#paint1_radial_3_4072)" fill-opacity="0.2"/>
<rect width="82" height="60" rx="3" fill="white" fill-opacity="0.2"/>
<g opacity="0.5">
<mask id="mask0_3_4072" style="mask-type:alpha" maskUnits="userSpaceOnUse" x="0" y="0" width="82" height="60">
<path d="M82 0H0V60H82V0Z" fill="white"/>
</mask>
<g mask="url(#mask0_3_4072)">
<path d="M82 0H0V60H82V0Z" fill="#79D1F2"/>
<path d="M65.5 19C69.6421 19 73 15.6421 73 11.5C73 7.35786 69.6421 4 65.5 4C61.3579 4 58 7.35786 58 11.5C58 15.6421 61.3579 19 65.5 19Z" fill="#F3EC60"/>
<path d="M68.5 82C83.1355 82 95 73.0457 95 62C95 50.9543 83.1355 42 68.5 42C53.8645 42 42 50.9543 42 62C42 73.0457 53.8645 82 68.5 82Z" fill="url(#paint2_linear_3_4072)"/>
<path d="M18 99C46.1665 99 69 84.6731 69 67C69 49.3269 46.1665 35 18 35C-10.1665 35 -33 49.3269 -33 67C-33 84.6731 -10.1665 99 18 99Z" fill="url(#paint3_linear_3_4072)"/>
</g>
</g>
<path d="M38 20H17V34H38V20Z" fill="white"/>
<g filter="url(#filter1_i_3_4072)">
<path d="M34 22H19V24H34V22Z" fill="black"/>
</g>
<path d="M34 22H19V24H34V22Z" fill="black" fill-opacity="0.697"/>
<g filter="url(#filter2_i_3_4072)">
<path d="M31 30V31H19V30H31ZM36 27V28H19V27H36Z" fill="black"/>
</g>
<path d="M31 30V31H19V30H31ZM36 27V28H19V27H36Z" fill="black" fill-opacity="0.348"/>
<g filter="url(#filter3_i_3_4072)">
<path d="M34 50V52H29V50H34ZM48 50V52H43V50H48ZM55 50V52H50V50H55ZM41 50V52H36V50H41Z" fill="black"/>
</g>
<path d="M34 50V52H29V50H34ZM48 50V52H43V50H48ZM55 50V52H50V50H55ZM41 50V52H36V50H41Z" fill="white" fill-opacity="0.78"/>
<path fill-rule="evenodd" clip-rule="evenodd" d="M9.5 22.648V32.352L5.341 27.5L9.5 22.648ZM73.5 21.648L77.659 26.5L73.5 31.352V21.648Z" fill="white" stroke="white"/>
</g>
</g>
<defs>
<filter id="filter0_b_3_4072" x="-4" y="-4" width="90" height="68" filterUnits="userSpaceOnUse" color-interpolation-filters="sRGB">
<feFlood flood-opacity="0" result="BackgroundImageFix"/>
<feGaussianBlur in="BackgroundImageFix" stdDeviation="2"/>
<feComposite in2="SourceAlpha" operator="in" result="effect1_backgroundBlur_3_4072"/>
<feBlend mode="normal" in="SourceGraphic" in2="effect1_backgroundBlur_3_4072" result="shape"/>
</filter>
<filter id="filter1_i_3_4072" x="19" y="22" width="15" height="3" filterUnits="userSpaceOnUse" color-interpolation-filters="sRGB">
<feFlood flood-opacity="0" result="BackgroundImageFix"/>
<feBlend mode="normal" in="SourceGraphic" in2="BackgroundImageFix" result="shape"/>
<feColorMatrix in="SourceAlpha" type="matrix" values="0 0 0 0 0 0 0 0 0 0 0 0 0 0 0 0 0 0 127 0" result="hardAlpha"/>
<feOffset dy="1"/>
<feGaussianBlur stdDeviation="2"/>
<feComposite in2="hardAlpha" operator="arithmetic" k2="-1" k3="1"/>
<feColorMatrix type="matrix" values="0 0 0 0 0.259588 0 0 0 0 0.25963 0 0 0 0 0.259575 0 0 0 0.525896 0"/>
<feBlend mode="normal" in2="shape" result="effect1_innerShadow_3_4072"/>
</filter>
<filter id="filter2_i_3_4072" x="19" y="27" width="17" height="5" filterUnits="userSpaceOnUse" color-interpolation-filters="sRGB">
<feFlood flood-opacity="0" result="BackgroundImageFix"/>
<feBlend mode="normal" in="SourceGraphic" in2="BackgroundImageFix" result="shape"/>
<feColorMatrix in="SourceAlpha" type="matrix" values="0 0 0 0 0 0 0 0 0 0 0 0 0 0 0 0 0 0 127 0" result="hardAlpha"/>
<feOffset dy="1"/>
<feGaussianBlur stdDeviation="2"/>
<feComposite in2="hardAlpha" operator="arithmetic" k2="-1" k3="1"/>
<feColorMatrix type="matrix" values="0 0 0 0 0 0 0 0 0 0 0 0 0 0 0 0 0 0 0.0995138 0"/>
<feBlend mode="normal" in2="shape" result="effect1_innerShadow_3_4072"/>
</filter>
<filter id="filter3_i_3_4072" x="29" y="50" width="26" height="3" filterUnits="userSpaceOnUse" color-interpolation-filters="sRGB">
<feFlood flood-opacity="0" result="BackgroundImageFix"/>
<feBlend mode="normal" in="SourceGraphic" in2="BackgroundImageFix" result="shape"/>
<feColorMatrix in="SourceAlpha" type="matrix" values="0 0 0 0 0 0 0 0 0 0 0 0 0 0 0 0 0 0 127 0" result="hardAlpha"/>
<feOffset dy="1"/>
<feGaussianBlur stdDeviation="2"/>
<feComposite in2="hardAlpha" operator="arithmetic" k2="-1" k3="1"/>
<feColorMatrix type="matrix" values="0 0 0 0 1 0 0 0 0 1 0 0 0 0 1 0 0 0 0.292013 0"/>
<feBlend mode="normal" in2="shape" result="effect1_innerShadow_3_4072"/>
</filter>
<linearGradient id="paint0_linear_3_4072" x1="41" y1="0" x2="41" y2="60" gradientUnits="userSpaceOnUse">
<stop stop-color="#F2F2F2" stop-opacity="0.23"/>
<stop offset="1" stop-color="white" stop-opacity="0"/>
</linearGradient>
<radialGradient id="paint1_radial_3_4072" cx="0" cy="0" r="1" gradientUnits="userSpaceOnUse" gradientTransform="translate(41 30) rotate(90) scale(30 41)">
<stop stop-color="#F2F2F2"/>
<stop offset="1" stop-opacity="0.25"/>
</radialGradient>
<linearGradient id="paint2_linear_3_4072" x1="80.6237" y1="59.8696" x2="66.0999" y2="48.8121" gradientUnits="userSpaceOnUse">
<stop stop-color="#008374"/>
<stop offset="1" stop-color="#006A59"/>
</linearGradient>
<linearGradient id="paint3_linear_3_4072" x1="57.2873" y1="59.6278" x2="22.4096" y2="76.2516" gradientUnits="userSpaceOnUse">
<stop stop-color="#00AA89"/>
<stop offset="1" stop-color="#009989"/>
</linearGradient>
<clipPath id="clip0_3_4072">
<rect width="82" height="60" rx="3" fill="white"/>
</clipPath>
</defs>
</svg>
