<svg width="82" height="60" viewBox="0 0 82 60" fill="none" xmlns="http://www.w3.org/2000/svg">
<g filter="url(#filter0_b_3_2054)">
<g clip-path="url(#clip0_3_2054)">
<rect width="82" height="60" rx="3" fill="url(#paint0_linear_3_2054)"/>
<rect width="82" height="60" rx="3" fill="url(#paint1_radial_3_2054)" fill-opacity="0.2"/>
<rect width="82" height="60" rx="3" fill="white" fill-opacity="0.2"/>
<path opacity="0.4" fill-rule="evenodd" clip-rule="evenodd" d="M82 0V60H42V0H82ZM63 6C57.477 6 53 10.494 53 16.038C53 21.582 57.477 26.076 63 26.076C68.523 26.076 73 21.582 73 16.038C73 10.494 68.523 6 63 6Z" fill="url(#paint2_linear_3_2054)"/>
<path opacity="0.4" fill-rule="evenodd" clip-rule="evenodd" d="M40 0V60H0V0H40ZM20 6C14.477 6 10 10.494 10 16.038C10 21.582 14.477 26.076 20 26.076C25.523 26.076 30 21.582 30 16.038C30 10.494 25.523 6 20 6Z" fill="url(#paint3_linear_3_2054)"/>
<path fill-rule="evenodd" clip-rule="evenodd" d="M20 7C22.3869 7 24.6761 7.94821 26.364 9.63604C28.0518 11.3239 29 13.6131 29 16C29 18.3869 28.0518 20.6761 26.364 22.364C24.6761 24.0518 22.3869 25 20 25C17.6131 25 15.3239 24.0518 13.636 22.364C11.9482 20.6761 11 18.3869 11 16C11 13.6131 11.9482 11.3239 13.636 9.63604C15.3239 7.94821 17.6131 7 20 7ZM63 7C65.3869 7 67.6761 7.94821 69.364 9.63604C71.0518 11.3239 72 13.6131 72 16C72 18.3869 71.0518 20.6761 69.364 22.364C67.6761 24.0518 65.3869 25 63 25C60.6131 25 58.3239 24.0518 56.636 22.364C54.9482 20.6761 54 18.3869 54 16C54 13.6131 54.9482 11.3239 56.636 9.63604C58.3239 7.94821 60.6131 7 63 7Z" fill="url(#paint4_linear_3_2054)"/>
<g filter="url(#filter1_i_3_2054)">
<path d="M27 50.429V52H13V50.429H27ZM25.444 45.714V47.286H16.111V45.714H25.444ZM27 41V42.571H13V41H27Z" fill="black"/>
</g>
<path d="M27 50.429V52H13V50.429H27ZM25.444 45.714V47.286H16.111V45.714H25.444ZM27 41V42.571H13V41H27Z" fill="white" fill-opacity="0.8"/>
<g filter="url(#filter2_i_3_2054)">
<path d="M34 33H7V36H34V33Z" fill="black"/>
</g>
<path d="M34 33H7V36H34V33Z" fill="white" fill-opacity="0.95"/>
<g filter="url(#filter3_i_3_2054)">
<path d="M69 50.429V52H55V50.429H69ZM67.444 45.714V47.286H58.111V45.714H67.444ZM69 41V42.571H55V41H69Z" fill="black"/>
</g>
<path d="M69 50.429V52H55V50.429H69ZM67.444 45.714V47.286H58.111V45.714H67.444ZM69 41V42.571H55V41H69Z" fill="white" fill-opacity="0.8"/>
<g filter="url(#filter4_i_3_2054)">
<path d="M76 33H49V36H76V33Z" fill="black"/>
</g>
<path d="M76 33H49V36H76V33Z" fill="white" fill-opacity="0.95"/>
<path d="M29 16C29 20.9703 24.9703 25 20 25C15.0297 25 11 20.9703 11 16C11 11.0297 15.0297 7 20 7C24.9703 7 29 11.0297 29 16Z" fill="url(#paint5_radial_3_2054)"/>
<path d="M20 25C22.2579 25 24.2852 24.2029 25.7086 22.9371C24.7446 21.1245 22.5529 19.8571 20 19.8571C17.4471 19.8571 15.2554 21.1245 14.2914 22.9371C15.7148 24.2029 17.7421 25 20 25Z" fill="url(#paint6_radial_3_2054)"/>
<path d="M20 19.0921C22.361 19.0921 24.275 17.1782 24.275 14.8171C24.275 12.4561 22.361 10.5421 20 10.5421C17.639 10.5421 15.725 12.4561 15.725 14.8171C15.725 17.1782 17.639 19.0921 20 19.0921Z" fill="url(#paint7_radial_3_2054)"/>
<path d="M20 17.9671C21.9882 17.9671 23.6 16.3553 23.6 14.3671C23.6 12.3789 21.9882 10.7671 20 10.7671C18.0118 10.7671 16.4 12.3789 16.4 14.3671C16.4 16.3553 18.0118 17.9671 20 17.9671Z" fill="url(#paint8_linear_3_2054)"/>
<path d="M20 25C22.0676 25 23.9525 24.3171 25.4 23.1967C24.5792 21.2472 22.4745 19.8571 20 19.8571C17.5255 19.8571 15.4208 21.2472 14.6 23.1967C16.0475 24.3171 17.9324 25 20 25Z" fill="url(#paint9_linear_3_2054)"/>
<path d="M72 16C72 20.9703 67.9703 25 63 25C58.0297 25 54 20.9703 54 16C54 11.0297 58.0297 7 63 7C67.9703 7 72 11.0297 72 16Z" fill="url(#paint10_radial_3_2054)"/>
<path d="M63 25C65.2579 25 67.2852 24.2029 68.7086 22.9371C67.7446 21.1245 65.5529 19.8571 63 19.8571C60.4471 19.8571 58.2554 21.1245 57.2914 22.9371C58.7148 24.2029 60.7421 25 63 25Z" fill="url(#paint11_radial_3_2054)"/>
<path d="M63 19.0921C65.361 19.0921 67.275 17.1782 67.275 14.8171C67.275 12.4561 65.361 10.5421 63 10.5421C60.639 10.5421 58.725 12.4561 58.725 14.8171C58.725 17.1782 60.639 19.0921 63 19.0921Z" fill="url(#paint12_radial_3_2054)"/>
<path d="M63 17.9671C64.9882 17.9671 66.6 16.3553 66.6 14.3671C66.6 12.3789 64.9882 10.7671 63 10.7671C61.0118 10.7671 59.4 12.3789 59.4 14.3671C59.4 16.3553 61.0118 17.9671 63 17.9671Z" fill="url(#paint13_linear_3_2054)"/>
<path d="M63 25C65.0676 25 66.9525 24.3171 68.4 23.1967C67.5792 21.2472 65.4745 19.8571 63 19.8571C60.5255 19.8571 58.4208 21.2472 57.6 23.1967C59.0475 24.3171 60.9324 25 63 25Z" fill="url(#paint14_linear_3_2054)"/>
</g>
</g>
<defs>
<filter id="filter0_b_3_2054" x="-4" y="-4" width="90" height="68" filterUnits="userSpaceOnUse" color-interpolation-filters="sRGB">
<feFlood flood-opacity="0" result="BackgroundImageFix"/>
<feGaussianBlur in="BackgroundImageFix" stdDeviation="2"/>
<feComposite in2="SourceAlpha" operator="in" result="effect1_backgroundBlur_3_2054"/>
<feBlend mode="normal" in="SourceGraphic" in2="effect1_backgroundBlur_3_2054" result="shape"/>
</filter>
<filter id="filter1_i_3_2054" x="13" y="41" width="14" height="12" filterUnits="userSpaceOnUse" color-interpolation-filters="sRGB">
<feFlood flood-opacity="0" result="BackgroundImageFix"/>
<feBlend mode="normal" in="SourceGraphic" in2="BackgroundImageFix" result="shape"/>
<feColorMatrix in="SourceAlpha" type="matrix" values="0 0 0 0 0 0 0 0 0 0 0 0 0 0 0 0 0 0 127 0" result="hardAlpha"/>
<feOffset dy="1"/>
<feGaussianBlur stdDeviation="2"/>
<feComposite in2="hardAlpha" operator="arithmetic" k2="-1" k3="1"/>
<feColorMatrix type="matrix" values="0 0 0 0 1 0 0 0 0 1 0 0 0 0 1 0 0 0 0.2 0"/>
<feBlend mode="normal" in2="shape" result="effect1_innerShadow_3_2054"/>
</filter>
<filter id="filter2_i_3_2054" x="7" y="33" width="27" height="4" filterUnits="userSpaceOnUse" color-interpolation-filters="sRGB">
<feFlood flood-opacity="0" result="BackgroundImageFix"/>
<feBlend mode="normal" in="SourceGraphic" in2="BackgroundImageFix" result="shape"/>
<feColorMatrix in="SourceAlpha" type="matrix" values="0 0 0 0 0 0 0 0 0 0 0 0 0 0 0 0 0 0 127 0" result="hardAlpha"/>
<feOffset dy="1"/>
<feGaussianBlur stdDeviation="2"/>
<feComposite in2="hardAlpha" operator="arithmetic" k2="-1" k3="1"/>
<feColorMatrix type="matrix" values="0 0 0 0 1 0 0 0 0 1 0 0 0 0 1 0 0 0 0.4 0"/>
<feBlend mode="normal" in2="shape" result="effect1_innerShadow_3_2054"/>
</filter>
<filter id="filter3_i_3_2054" x="55" y="41" width="14" height="12" filterUnits="userSpaceOnUse" color-interpolation-filters="sRGB">
<feFlood flood-opacity="0" result="BackgroundImageFix"/>
<feBlend mode="normal" in="SourceGraphic" in2="BackgroundImageFix" result="shape"/>
<feColorMatrix in="SourceAlpha" type="matrix" values="0 0 0 0 0 0 0 0 0 0 0 0 0 0 0 0 0 0 127 0" result="hardAlpha"/>
<feOffset dy="1"/>
<feGaussianBlur stdDeviation="2"/>
<feComposite in2="hardAlpha" operator="arithmetic" k2="-1" k3="1"/>
<feColorMatrix type="matrix" values="0 0 0 0 1 0 0 0 0 1 0 0 0 0 1 0 0 0 0.2 0"/>
<feBlend mode="normal" in2="shape" result="effect1_innerShadow_3_2054"/>
</filter>
<filter id="filter4_i_3_2054" x="49" y="33" width="27" height="4" filterUnits="userSpaceOnUse" color-interpolation-filters="sRGB">
<feFlood flood-opacity="0" result="BackgroundImageFix"/>
<feBlend mode="normal" in="SourceGraphic" in2="BackgroundImageFix" result="shape"/>
<feColorMatrix in="SourceAlpha" type="matrix" values="0 0 0 0 0 0 0 0 0 0 0 0 0 0 0 0 0 0 127 0" result="hardAlpha"/>
<feOffset dy="1"/>
<feGaussianBlur stdDeviation="2"/>
<feComposite in2="hardAlpha" operator="arithmetic" k2="-1" k3="1"/>
<feColorMatrix type="matrix" values="0 0 0 0 1 0 0 0 0 1 0 0 0 0 1 0 0 0 0.4 0"/>
<feBlend mode="normal" in2="shape" result="effect1_innerShadow_3_2054"/>
</filter>
<linearGradient id="paint0_linear_3_2054" x1="41" y1="0" x2="41" y2="60" gradientUnits="userSpaceOnUse">
<stop stop-color="#F2F2F2" stop-opacity="0.23"/>
<stop offset="1" stop-color="white" stop-opacity="0"/>
</linearGradient>
<radialGradient id="paint1_radial_3_2054" cx="0" cy="0" r="1" gradientUnits="userSpaceOnUse" gradientTransform="translate(41 30) rotate(90) scale(30 41)">
<stop stop-color="#F2F2F2"/>
<stop offset="1" stop-opacity="0.25"/>
</radialGradient>
<linearGradient id="paint2_linear_3_2054" x1="53.1112" y1="5.01612e-08" x2="86.2734" y2="49.7437" gradientUnits="userSpaceOnUse">
<stop stop-color="#00E2FF"/>
<stop offset="1" stop-color="#00A09D"/>
</linearGradient>
<linearGradient id="paint3_linear_3_2054" x1="11.1112" y1="5.01612e-08" x2="44.2734" y2="49.7437" gradientUnits="userSpaceOnUse">
<stop stop-color="#0E8DF2"/>
<stop offset="1" stop-color="#199BE2" stop-opacity="0.85"/>
</linearGradient>
<linearGradient id="paint4_linear_3_2054" x1="41.5" y1="7" x2="41.5" y2="25" gradientUnits="userSpaceOnUse">
<stop stop-color="#45B0D0" stop-opacity="0.59"/>
<stop offset="1" stop-color="#22A5E2"/>
</linearGradient>
<radialGradient id="paint5_radial_3_2054" cx="0" cy="0" r="1" gradientUnits="userSpaceOnUse" gradientTransform="translate(14.2297 8.97685) scale(18.1404)">
<stop stop-color="#0370C8"/>
<stop offset="0.484" stop-color="#036FC5"/>
<stop offset="0.775" stop-color="#036ABD"/>
<stop offset="1" stop-color="#0362B0"/>
</radialGradient>
<radialGradient id="paint6_radial_3_2054" cx="0" cy="0" r="1" gradientUnits="userSpaceOnUse" gradientTransform="translate(20 25.0347) scale(6.28874 5.18786)">
<stop/>
<stop offset="1" stop-opacity="0"/>
</radialGradient>
<radialGradient id="paint7_radial_3_2054" cx="0" cy="0" r="1" gradientUnits="userSpaceOnUse" gradientTransform="translate(20 14.8171) scale(4.275)">
<stop/>
<stop offset="1" stop-opacity="0"/>
</radialGradient>
<linearGradient id="paint8_linear_3_2054" x1="17.5578" y1="11.925" x2="22.5807" y2="16.9479" gradientUnits="userSpaceOnUse">
<stop stop-color="#75DAFF"/>
<stop offset="1" stop-color="#1EA2E4"/>
</linearGradient>
<linearGradient id="paint9_linear_3_2054" x1="17.117" y1="20.3016" x2="22.1823" y2="25.9866" gradientUnits="userSpaceOnUse">
<stop stop-color="#75DAFF"/>
<stop offset="1" stop-color="#1EA2E4"/>
</linearGradient>
<radialGradient id="paint10_radial_3_2054" cx="0" cy="0" r="1" gradientUnits="userSpaceOnUse" gradientTransform="translate(57.2297 8.97685) scale(18.1404)">
<stop stop-color="#0370C8"/>
<stop offset="0.484" stop-color="#036FC5"/>
<stop offset="0.775" stop-color="#036ABD"/>
<stop offset="1" stop-color="#0362B0"/>
</radialGradient>
<radialGradient id="paint11_radial_3_2054" cx="0" cy="0" r="1" gradientUnits="userSpaceOnUse" gradientTransform="translate(63 25.0347) scale(6.28874 5.18786)">
<stop/>
<stop offset="1" stop-opacity="0"/>
</radialGradient>
<radialGradient id="paint12_radial_3_2054" cx="0" cy="0" r="1" gradientUnits="userSpaceOnUse" gradientTransform="translate(63 14.8171) scale(4.275)">
<stop/>
<stop offset="1" stop-opacity="0"/>
</radialGradient>
<linearGradient id="paint13_linear_3_2054" x1="60.5578" y1="11.925" x2="65.5807" y2="16.9479" gradientUnits="userSpaceOnUse">
<stop stop-color="#75DAFF"/>
<stop offset="1" stop-color="#1EA2E4"/>
</linearGradient>
<linearGradient id="paint14_linear_3_2054" x1="60.117" y1="20.3016" x2="65.1823" y2="25.9866" gradientUnits="userSpaceOnUse">
<stop stop-color="#75DAFF"/>
<stop offset="1" stop-color="#1EA2E4"/>
</linearGradient>
<clipPath id="clip0_3_2054">
<rect width="82" height="60" rx="3" fill="white"/>
</clipPath>
</defs>
</svg>
