<svg width="82" height="60" viewBox="0 0 82 60" fill="none" xmlns="http://www.w3.org/2000/svg">
<g filter="url(#filter0_b_3_2131)">
<g clip-path="url(#clip0_3_2131)">
<rect width="82" height="60" rx="3" fill="url(#paint0_linear_3_2131)"/>
<rect width="82" height="60" rx="3" fill="url(#paint1_radial_3_2131)" fill-opacity="0.2"/>
<rect width="82" height="60" rx="3" fill="white" fill-opacity="0.2"/>
<path fill-rule="evenodd" clip-rule="evenodd" d="M41 17.396C43.0069 17.3933 44.993 17.8026 46.8352 18.5987C48.6775 19.3947 50.3367 20.5606 51.71 22.024L49.69 23.268C47.3757 20.9824 44.2526 19.703 41 19.708C34.172 19.708 28.636 25.23 28.636 32.042C28.636 38.853 34.172 44.375 41 44.375C47.828 44.375 53.364 38.853 53.364 32.042C53.364 31.644 53.4 30.888 53.364 30.5H55.602C55.655 31.007 55.682 31.521 55.682 32.042C55.682 40.13 49.109 46.687 41 46.687C32.891 46.687 26.318 40.13 26.318 32.043C26.318 23.953 32.891 17.396 41 17.396Z" fill="url(#paint2_linear_3_2131)"/>
<path fill-rule="evenodd" clip-rule="evenodd" d="M42.546 41.945V49H39.455V41.945C40.479 42.1027 41.521 42.1027 42.545 41.945H42.546ZM50.927 30.5H58V33.583H50.927C51.0852 32.5614 51.0852 31.5216 50.927 30.5ZM30.955 32.042C30.955 32.566 30.995 33.082 31.073 33.584H24V30.5H31.073C30.9942 31.0102 30.9548 31.5257 30.955 32.042ZM43.09 12C43.3552 12 43.6096 12.1054 43.7971 12.2929C43.9846 12.4804 44.09 12.7348 44.09 13V15.854H42.544V22.139C41.52 21.9813 40.478 21.9813 39.454 22.139V15.854H37.908V13C37.908 12.7348 38.0134 12.4804 38.2009 12.2929C38.3884 12.1054 38.6428 12 38.908 12H43.09Z" fill="#84848C"/>
<path fill-rule="evenodd" clip-rule="evenodd" d="M41 42.063C46.548 42.063 51.045 37.576 51.045 32.042C51.045 26.507 46.548 22.021 41 22.021C35.452 22.021 30.955 26.507 30.955 32.04C30.955 37.575 35.452 42.061 41 42.061V42.063ZM43.438 32.027C43.6812 32.1712 43.8958 32.359 44.071 32.581C44.246 32.803 44.381 33.058 44.476 33.347C44.571 33.635 44.618 33.945 44.618 34.275C44.618 34.72 44.528 35.119 44.348 35.474C44.168 35.828 43.91 36.131 43.573 36.381C43.2062 36.6464 42.7946 36.8435 42.358 36.963C41.8393 37.1061 41.303 37.1754 40.765 37.169C39.325 37.169 38.197 36.748 37.382 35.906L38.604 34.289C38.86 34.554 39.152 34.755 39.479 34.892C39.806 35.029 40.197 35.098 40.652 35.098C41.722 35.098 42.258 34.706 42.258 33.921C42.258 33.495 42.099 33.174 41.782 32.956C41.464 32.739 40.964 32.63 40.282 32.63H39.855V31H40.325C40.855 31 41.27 30.89 41.569 30.673C41.7097 30.5775 41.8243 30.4484 41.9024 30.2973C41.9804 30.1462 42.0195 29.978 42.016 29.808C42.016 29.496 41.907 29.259 41.689 29.098C41.471 28.938 41.182 28.858 40.822 28.858C40.4506 28.8533 40.0848 28.9487 39.763 29.134C39.4357 29.3277 39.1602 29.5977 38.96 29.921L37.524 28.276C37.675 28.077 37.874 27.893 38.121 27.723C38.367 27.553 38.647 27.409 38.96 27.29C39.6387 27.0409 40.356 26.9136 41.079 26.914C41.58 26.914 42.04 26.974 42.457 27.092C42.874 27.21 43.23 27.38 43.523 27.602C43.817 27.825 44.045 28.089 44.206 28.397C44.366 28.704 44.448 29.047 44.448 29.425C44.448 29.709 44.403 29.978 44.313 30.233C44.2255 30.4834 44.0982 30.7181 43.936 30.928C43.775 31.136 43.583 31.308 43.36 31.446C43.1359 31.5839 42.8874 31.6776 42.628 31.722C42.922 31.779 43.192 31.881 43.438 32.027Z" fill="white" fill-opacity="0.78"/>
</g>
</g>
<defs>
<filter id="filter0_b_3_2131" x="-4" y="-4" width="90" height="68" filterUnits="userSpaceOnUse" color-interpolation-filters="sRGB">
<feFlood flood-opacity="0" result="BackgroundImageFix"/>
<feGaussianBlur in="BackgroundImageFix" stdDeviation="2"/>
<feComposite in2="SourceAlpha" operator="in" result="effect1_backgroundBlur_3_2131"/>
<feBlend mode="normal" in="SourceGraphic" in2="effect1_backgroundBlur_3_2131" result="shape"/>
</filter>
<linearGradient id="paint0_linear_3_2131" x1="41" y1="0" x2="41" y2="60" gradientUnits="userSpaceOnUse">
<stop stop-color="#F2F2F2" stop-opacity="0.23"/>
<stop offset="1" stop-color="white" stop-opacity="0"/>
</linearGradient>
<radialGradient id="paint1_radial_3_2131" cx="0" cy="0" r="1" gradientUnits="userSpaceOnUse" gradientTransform="translate(41 30) rotate(90) scale(30 41)">
<stop stop-color="#F2F2F2"/>
<stop offset="1" stop-opacity="0.25"/>
</radialGradient>
<linearGradient id="paint2_linear_3_2131" x1="26.318" y1="17.4677" x2="55.6093" y2="46.6881" gradientUnits="userSpaceOnUse">
<stop stop-color="#0A85D9"/>
<stop offset="1" stop-color="#00E2FF"/>
</linearGradient>
<clipPath id="clip0_3_2131">
<rect width="82" height="60" rx="3" fill="white"/>
</clipPath>
</defs>
</svg>
