<svg width="82" height="60" viewBox="0 0 82 60" fill="none" xmlns="http://www.w3.org/2000/svg">
<g filter="url(#filter0_b_3_2107)">
<g clip-path="url(#clip0_3_2107)">
<rect width="82" height="60" rx="3" fill="url(#paint0_linear_3_2107)"/>
<rect width="82" height="60" rx="3" fill="url(#paint1_radial_3_2107)" fill-opacity="0.2"/>
<rect width="82" height="60" rx="3" fill="white" fill-opacity="0.2"/>
<path fill-rule="evenodd" clip-rule="evenodd" d="M29 15C29.2652 15 29.5196 15.1054 29.7071 15.2929C29.8946 15.4804 30 15.7348 30 16V45C30 45.2652 29.8946 45.5196 29.7071 45.7071C29.5196 45.8946 29.2652 46 29 46H16C15.7348 46 15.4804 45.8946 15.2929 45.7071C15.1054 45.5196 15 45.2652 15 45V16C15 15.7348 15.1054 15.4804 15.2929 15.2929C15.4804 15.1054 15.7348 15 16 15H29ZM29 19H16V45H29V19ZM66 15C66.2652 15 66.5196 15.1054 66.7071 15.2929C66.8946 15.4804 67 15.7348 67 16V45C67 45.2652 66.8946 45.5196 66.7071 45.7071C66.5196 45.8946 66.2652 46 66 46H53C52.7348 46 52.4804 45.8946 52.2929 45.7071C52.1054 45.5196 52 45.2652 52 45V16C52 15.7348 52.1054 15.4804 52.2929 15.2929C52.4804 15.1054 52.7348 15 53 15H66ZM66 19H53V45H66V19ZM49 12C49.2652 12 49.5196 12.1054 49.7071 12.2929C49.8946 12.4804 50 12.7348 50 13V47C50 47.2652 49.8946 47.5196 49.7071 47.7071C49.5196 47.8946 49.2652 48 49 48H33C32.7348 48 32.4804 47.8946 32.2929 47.7071C32.1054 47.5196 32 47.2652 32 47V13C32 12.7348 32.1054 12.4804 32.2929 12.2929C32.4804 12.1054 32.7348 12 33 12H49ZM49 16H33V47H49V16Z" fill="#D8D8D8"/>
<path d="M26 40H19V42H26V40Z" fill="url(#paint2_linear_3_2107)"/>
<path d="M63 40H56V42H63V40Z" fill="url(#paint3_linear_3_2107)"/>
<path d="M45 41H37V44H45V41Z" fill="url(#paint4_linear_3_2107)"/>
<g filter="url(#filter1_i_3_2107)">
<path d="M27 21V23H18V21H27ZM64 21V23H55V21H64Z" fill="black"/>
</g>
<path d="M27 21V23H18V21H27ZM64 21V23H55V21H64Z" fill="white" fill-opacity="0.78"/>
<g filter="url(#filter2_i_3_2107)">
<path d="M23 34V35H18V34H23ZM27 32V33H18V32H27ZM24 29V30H18V29H24ZM26 26V27H18V26H26Z" fill="black"/>
</g>
<path d="M23 34V35H18V34H23ZM27 32V33H18V32H27ZM24 29V30H18V29H24ZM26 26V27H18V26H26Z" fill="#F0B421"/>
<g filter="url(#filter3_i_3_2107)">
<path d="M42 32V33H35V32H42ZM47 29V30H35V29H47ZM43 26V27H35V26H43ZM46 23V24H35V23H46Z" fill="black"/>
</g>
<path d="M42 32V33H35V32H42ZM47 29V30H35V29H47ZM43 26V27H35V26H43ZM46 23V24H35V23H46Z" fill="#F0B421"/>
<g filter="url(#filter4_i_3_2107)">
<path d="M64 34V35H55V34H64ZM59 32V33H55V32H59ZM63 29V30H55V29H63ZM61 26V27H55V26H61Z" fill="black"/>
</g>
<path d="M64 34V35H55V34H64ZM59 32V33H55V32H59ZM63 29V30H55V29H63ZM61 26V27H55V26H61Z" fill="#F0B421"/>
<g filter="url(#filter5_i_3_2107)">
<path d="M47 18H35V20H47V18Z" fill="black"/>
</g>
<path d="M47 18H35V20H47V18Z" fill="white" fill-opacity="0.78"/>
</g>
</g>
<defs>
<filter id="filter0_b_3_2107" x="-4" y="-4" width="90" height="68" filterUnits="userSpaceOnUse" color-interpolation-filters="sRGB">
<feFlood flood-opacity="0" result="BackgroundImageFix"/>
<feGaussianBlur in="BackgroundImageFix" stdDeviation="2"/>
<feComposite in2="SourceAlpha" operator="in" result="effect1_backgroundBlur_3_2107"/>
<feBlend mode="normal" in="SourceGraphic" in2="effect1_backgroundBlur_3_2107" result="shape"/>
</filter>
<filter id="filter1_i_3_2107" x="18" y="21" width="46" height="3" filterUnits="userSpaceOnUse" color-interpolation-filters="sRGB">
<feFlood flood-opacity="0" result="BackgroundImageFix"/>
<feBlend mode="normal" in="SourceGraphic" in2="BackgroundImageFix" result="shape"/>
<feColorMatrix in="SourceAlpha" type="matrix" values="0 0 0 0 0 0 0 0 0 0 0 0 0 0 0 0 0 0 127 0" result="hardAlpha"/>
<feOffset dy="1"/>
<feGaussianBlur stdDeviation="2"/>
<feComposite in2="hardAlpha" operator="arithmetic" k2="-1" k3="1"/>
<feColorMatrix type="matrix" values="0 0 0 0 1 0 0 0 0 1 0 0 0 0 1 0 0 0 0.292013 0"/>
<feBlend mode="normal" in2="shape" result="effect1_innerShadow_3_2107"/>
</filter>
<filter id="filter2_i_3_2107" x="18" y="26" width="9" height="10" filterUnits="userSpaceOnUse" color-interpolation-filters="sRGB">
<feFlood flood-opacity="0" result="BackgroundImageFix"/>
<feBlend mode="normal" in="SourceGraphic" in2="BackgroundImageFix" result="shape"/>
<feColorMatrix in="SourceAlpha" type="matrix" values="0 0 0 0 0 0 0 0 0 0 0 0 0 0 0 0 0 0 127 0" result="hardAlpha"/>
<feOffset dy="1"/>
<feGaussianBlur stdDeviation="2"/>
<feComposite in2="hardAlpha" operator="arithmetic" k2="-1" k3="1"/>
<feColorMatrix type="matrix" values="0 0 0 0 1 0 0 0 0 1 0 0 0 0 1 0 0 0 0.0995138 0"/>
<feBlend mode="normal" in2="shape" result="effect1_innerShadow_3_2107"/>
</filter>
<filter id="filter3_i_3_2107" x="35" y="23" width="12" height="11" filterUnits="userSpaceOnUse" color-interpolation-filters="sRGB">
<feFlood flood-opacity="0" result="BackgroundImageFix"/>
<feBlend mode="normal" in="SourceGraphic" in2="BackgroundImageFix" result="shape"/>
<feColorMatrix in="SourceAlpha" type="matrix" values="0 0 0 0 0 0 0 0 0 0 0 0 0 0 0 0 0 0 127 0" result="hardAlpha"/>
<feOffset dy="1"/>
<feGaussianBlur stdDeviation="2"/>
<feComposite in2="hardAlpha" operator="arithmetic" k2="-1" k3="1"/>
<feColorMatrix type="matrix" values="0 0 0 0 1 0 0 0 0 1 0 0 0 0 1 0 0 0 0.0995138 0"/>
<feBlend mode="normal" in2="shape" result="effect1_innerShadow_3_2107"/>
</filter>
<filter id="filter4_i_3_2107" x="55" y="26" width="9" height="10" filterUnits="userSpaceOnUse" color-interpolation-filters="sRGB">
<feFlood flood-opacity="0" result="BackgroundImageFix"/>
<feBlend mode="normal" in="SourceGraphic" in2="BackgroundImageFix" result="shape"/>
<feColorMatrix in="SourceAlpha" type="matrix" values="0 0 0 0 0 0 0 0 0 0 0 0 0 0 0 0 0 0 127 0" result="hardAlpha"/>
<feOffset dy="1"/>
<feGaussianBlur stdDeviation="2"/>
<feComposite in2="hardAlpha" operator="arithmetic" k2="-1" k3="1"/>
<feColorMatrix type="matrix" values="0 0 0 0 1 0 0 0 0 1 0 0 0 0 1 0 0 0 0.0995138 0"/>
<feBlend mode="normal" in2="shape" result="effect1_innerShadow_3_2107"/>
</filter>
<filter id="filter5_i_3_2107" x="35" y="18" width="12" height="3" filterUnits="userSpaceOnUse" color-interpolation-filters="sRGB">
<feFlood flood-opacity="0" result="BackgroundImageFix"/>
<feBlend mode="normal" in="SourceGraphic" in2="BackgroundImageFix" result="shape"/>
<feColorMatrix in="SourceAlpha" type="matrix" values="0 0 0 0 0 0 0 0 0 0 0 0 0 0 0 0 0 0 127 0" result="hardAlpha"/>
<feOffset dy="1"/>
<feGaussianBlur stdDeviation="2"/>
<feComposite in2="hardAlpha" operator="arithmetic" k2="-1" k3="1"/>
<feColorMatrix type="matrix" values="0 0 0 0 1 0 0 0 0 1 0 0 0 0 1 0 0 0 0.292013 0"/>
<feBlend mode="normal" in2="shape" result="effect1_innerShadow_3_2107"/>
</filter>
<linearGradient id="paint0_linear_3_2107" x1="41" y1="0" x2="41" y2="60" gradientUnits="userSpaceOnUse">
<stop stop-color="#F2F2F2" stop-opacity="0.23"/>
<stop offset="1" stop-color="white" stop-opacity="0"/>
</linearGradient>
<radialGradient id="paint1_radial_3_2107" cx="0" cy="0" r="1" gradientUnits="userSpaceOnUse" gradientTransform="translate(41 30) rotate(90) scale(30 41)">
<stop stop-color="#F2F2F2"/>
<stop offset="1" stop-opacity="0.25"/>
</radialGradient>
<linearGradient id="paint2_linear_3_2107" x1="19" y1="40.9184" x2="25.5147" y2="42.7799" gradientUnits="userSpaceOnUse">
<stop stop-color="#00A09D"/>
<stop offset="1" stop-color="#00E2FF"/>
</linearGradient>
<linearGradient id="paint3_linear_3_2107" x1="56" y1="40.9184" x2="62.5147" y2="42.7799" gradientUnits="userSpaceOnUse">
<stop stop-color="#00A09D"/>
<stop offset="1" stop-color="#00E2FF"/>
</linearGradient>
<linearGradient id="paint4_linear_3_2107" x1="37" y1="42.2891" x2="44.1525" y2="44.9711" gradientUnits="userSpaceOnUse">
<stop stop-color="#00A09D"/>
<stop offset="1" stop-color="#00E2FF"/>
</linearGradient>
<clipPath id="clip0_3_2107">
<rect width="82" height="60" rx="3" fill="white"/>
</clipPath>
</defs>
</svg>
