<svg width="82" height="60" viewBox="0 0 82 60" fill="none" xmlns="http://www.w3.org/2000/svg">
<g filter="url(#filter0_b_3_2214)">
<g clip-path="url(#clip0_3_2214)">
<rect width="82" height="60" rx="3" fill="url(#paint0_linear_3_2214)"/>
<rect width="82" height="60" rx="3" fill="url(#paint1_radial_3_2214)" fill-opacity="0.2"/>
<rect width="82" height="60" rx="3" fill="white" fill-opacity="0.2"/>
<path d="M62.446 23.55H19.846C19.2937 23.55 18.846 23.9977 18.846 24.55V35.668C18.846 36.2203 19.2937 36.668 19.846 36.668H62.446C62.9983 36.668 63.446 36.2203 63.446 35.668V24.55C63.446 23.9977 62.9983 23.55 62.446 23.55Z" fill="url(#paint2_linear_3_2214)"/>
<path d="M19.846 24.05H62.446C62.7221 24.05 62.946 24.2739 62.946 24.55V35.668C62.946 35.9441 62.7221 36.168 62.446 36.168H19.846C19.5699 36.168 19.346 35.9441 19.346 35.668V24.55C19.346 24.2739 19.5699 24.05 19.846 24.05Z" stroke="black" stroke-opacity="0.07"/>
<path d="M57.5 29.25C57.9142 29.25 58.25 29.5858 58.25 30V30C58.25 30.4142 57.9142 30.75 57.5 30.75H34.938C34.5238 30.75 34.188 30.4142 34.188 30V30C34.188 29.5858 34.5238 29.25 34.938 29.25H57.5Z" fill="white"/>
<path d="M57.5 30.25H34.938C34.7999 30.25 34.688 30.1381 34.688 30C34.688 29.8619 34.7999 29.75 34.938 29.75H57.5C57.6381 29.75 57.75 29.8619 57.75 30C57.75 30.1381 57.6381 30.25 57.5 30.25Z" stroke="black" stroke-opacity="0.07"/>
<path d="M29.36 27.145C28.495 26.328 26.31 26.828 26.31 28.188V28.193C26.31 26.833 24.125 26.334 23.26 27.15C22.394 27.968 22.418 29.358 23.26 30.2L26.31 33.25V33.245L29.36 30.195C30.203 29.353 30.226 27.963 29.36 27.145Z" fill="white"/>
</g>
</g>
<defs>
<filter id="filter0_b_3_2214" x="-4" y="-4" width="90" height="68" filterUnits="userSpaceOnUse" color-interpolation-filters="sRGB">
<feFlood flood-opacity="0" result="BackgroundImageFix"/>
<feGaussianBlur in="BackgroundImageFix" stdDeviation="2"/>
<feComposite in2="SourceAlpha" operator="in" result="effect1_backgroundBlur_3_2214"/>
<feBlend mode="normal" in="SourceGraphic" in2="effect1_backgroundBlur_3_2214" result="shape"/>
</filter>
<linearGradient id="paint0_linear_3_2214" x1="41" y1="0" x2="41" y2="60" gradientUnits="userSpaceOnUse">
<stop stop-color="#F2F2F2" stop-opacity="0.23"/>
<stop offset="1" stop-color="white" stop-opacity="0"/>
</linearGradient>
<radialGradient id="paint1_radial_3_2214" cx="0" cy="0" r="1" gradientUnits="userSpaceOnUse" gradientTransform="translate(41 30) rotate(90) scale(30 41)">
<stop stop-color="#F2F2F2"/>
<stop offset="1" stop-opacity="0.25"/>
</radialGradient>
<linearGradient id="paint2_linear_3_2214" x1="18.8462" y1="29.5415" x2="60.2032" y2="41.7028" gradientUnits="userSpaceOnUse">
<stop stop-color="#00A09D"/>
<stop offset="1" stop-color="#00C0D9"/>
</linearGradient>
<clipPath id="clip0_3_2214">
<rect width="82" height="60" rx="3" fill="white"/>
</clipPath>
</defs>
</svg>
