<svg width="82" height="60" viewBox="0 0 82 60" fill="none" xmlns="http://www.w3.org/2000/svg">
<g filter="url(#filter0_b_3_2222)">
<g clip-path="url(#clip0_3_2222)">
<rect width="82" height="60" rx="3" fill="url(#paint0_linear_3_2222)"/>
<rect width="82" height="60" rx="3" fill="url(#paint1_radial_3_2222)" fill-opacity="0.2"/>
<rect width="82" height="60" rx="3" fill="white" fill-opacity="0.2"/>
<path fill-rule="evenodd" clip-rule="evenodd" d="M22 16L12 26L22 36L15 26L22 16Z" fill="url(#paint2_linear_3_2222)"/>
<path fill-rule="evenodd" clip-rule="evenodd" d="M60 16L70 26L60 36L67 26L60 16Z" fill="url(#paint3_linear_3_2222)"/>
<path d="M41 11H29V13H41V11Z" fill="black"/>
<path d="M41 11H29V13H41V11Z" fill="white" fill-opacity="0.78"/>
<path d="M53 16H33V18H53V16Z" fill="black"/>
<path d="M53 16H33V18H53V16Z" fill="#F0B421"/>
<path d="M49 21H33V23H49V21Z" fill="black"/>
<path d="M49 21H33V23H49V21Z" fill="#F0B421"/>
<path d="M55 26H33V28H55V26Z" fill="black"/>
<path d="M55 26H33V28H55V26Z" fill="#F0B421"/>
<path d="M47 31H33V33H47V31Z" fill="black"/>
<path d="M47 31H33V33H47V31Z" fill="#F0B421"/>
<path d="M37 36H29V38H37V36Z" fill="black"/>
<path d="M37 36H29V38H37V36Z" fill="white" fill-opacity="0.78"/>
</g>
</g>
<defs>
<filter id="filter0_b_3_2222" x="-4" y="-4" width="90" height="68" filterUnits="userSpaceOnUse" color-interpolation-filters="sRGB">
<feFlood flood-opacity="0" result="BackgroundImageFix"/>
<feGaussianBlur in="BackgroundImageFix" stdDeviation="2"/>
<feComposite in2="SourceAlpha" operator="in" result="effect1_backgroundBlur_3_2222"/>
<feBlend mode="normal" in="SourceGraphic" in2="effect1_backgroundBlur_3_2222" result="shape"/>
</filter>
<linearGradient id="paint0_linear_3_2222" x1="41" y1="0" x2="41" y2="60" gradientUnits="userSpaceOnUse">
<stop stop-color="#F2F2F2" stop-opacity="0.23"/>
<stop offset="1" stop-color="white" stop-opacity="0"/>
</linearGradient>
<radialGradient id="paint1_radial_3_2222" cx="0" cy="0" r="1" gradientUnits="userSpaceOnUse" gradientTransform="translate(41 30) rotate(90) scale(30 41)">
<stop stop-color="#F2F2F2"/>
<stop offset="1" stop-opacity="0.25"/>
</radialGradient>
<linearGradient id="paint2_linear_3_2222" x1="17" y1="16" x2="17" y2="36" gradientUnits="userSpaceOnUse">
<stop stop-color="#00A09D"/>
<stop offset="1" stop-color="#00E2FF"/>
</linearGradient>
<linearGradient id="paint3_linear_3_2222" x1="65" y1="16" x2="65" y2="36" gradientUnits="userSpaceOnUse">
<stop stop-color="#00A09D"/>
<stop offset="1" stop-color="#00E2FF"/>
</linearGradient>
<clipPath id="clip0_3_2222">
<rect width="82" height="60" rx="3" fill="white"/>
</clipPath>
</defs>
</svg>
