<svg width="82" height="60" viewBox="0 0 82 60" fill="none" xmlns="http://www.w3.org/2000/svg">
<g filter="url(#filter0_b_3_2381)">
<g clip-path="url(#clip0_3_2381)">
<rect width="82" height="60" rx="3" fill="url(#paint0_linear_3_2381)"/>
<rect width="82" height="60" rx="3" fill="url(#paint1_radial_3_2381)" fill-opacity="0.2"/>
<rect width="82" height="60" rx="3" fill="white" fill-opacity="0.2"/>
<path opacity="0.219" d="M68 13H15V26H68V13Z" fill="#D8D8D8"/>
<path opacity="0.219" d="M68 29H15V34H68V29Z" fill="#D8D8D8"/>
<path opacity="0.219" d="M68 36H15V41H68V36Z" fill="#D8D8D8"/>
<path opacity="0.219" d="M68 43H15V48H68V43Z" fill="#D8D8D8"/>
<path d="M19 44H18C17.4477 44 17 44.4477 17 45V46C17 46.5523 17.4477 47 18 47H19C19.5523 47 20 46.5523 20 46V45C20 44.4477 19.5523 44 19 44Z" fill="url(#paint2_linear_3_2381)"/>
<path d="M19 37H18C17.4477 37 17 37.4477 17 38V39C17 39.5523 17.4477 40 18 40H19C19.5523 40 20 39.5523 20 39V38C20 37.4477 19.5523 37 19 37Z" fill="url(#paint3_linear_3_2381)"/>
<path d="M19 30H18C17.4477 30 17 30.4477 17 31V32C17 32.5523 17.4477 33 18 33H19C19.5523 33 20 32.5523 20 32V31C20 30.4477 19.5523 30 19 30Z" fill="url(#paint4_linear_3_2381)"/>
<path d="M19 15H18C17.4477 15 17 15.4477 17 16V17C17 17.5523 17.4477 18 18 18H19C19.5523 18 20 17.5523 20 17V16C20 15.4477 19.5523 15 19 15Z" fill="url(#paint5_linear_3_2381)"/>
<g filter="url(#filter1_i_3_2381)">
<path d="M53 21V22H23V21H53ZM46 18V19H23V18H46ZM58 15V16H23V15H58Z" fill="black"/>
</g>
<path d="M53 21V22H23V21H53ZM46 18V19H23V18H46ZM58 15V16H23V15H58Z" fill="white" fill-opacity="0.78"/>
<g filter="url(#filter2_i_3_2381)">
<path d="M49 30H23V31H49V30Z" fill="black"/>
</g>
<path d="M49 30H23V31H49V30Z" fill="#F0B421"/>
<g filter="url(#filter3_i_3_2381)">
<path d="M56 37H23V38H56V37Z" fill="black"/>
</g>
<path d="M56 37H23V38H56V37Z" fill="#F0B421"/>
<g filter="url(#filter4_i_3_2381)">
<path d="M51 44H23V45H51V44Z" fill="black"/>
</g>
<path d="M51 44H23V45H51V44Z" fill="#F0B421"/>
</g>
</g>
<defs>
<filter id="filter0_b_3_2381" x="-4" y="-4" width="90" height="68" filterUnits="userSpaceOnUse" color-interpolation-filters="sRGB">
<feFlood flood-opacity="0" result="BackgroundImageFix"/>
<feGaussianBlur in="BackgroundImageFix" stdDeviation="2"/>
<feComposite in2="SourceAlpha" operator="in" result="effect1_backgroundBlur_3_2381"/>
<feBlend mode="normal" in="SourceGraphic" in2="effect1_backgroundBlur_3_2381" result="shape"/>
</filter>
<filter id="filter1_i_3_2381" x="23" y="15" width="35" height="8" filterUnits="userSpaceOnUse" color-interpolation-filters="sRGB">
<feFlood flood-opacity="0" result="BackgroundImageFix"/>
<feBlend mode="normal" in="SourceGraphic" in2="BackgroundImageFix" result="shape"/>
<feColorMatrix in="SourceAlpha" type="matrix" values="0 0 0 0 0 0 0 0 0 0 0 0 0 0 0 0 0 0 127 0" result="hardAlpha"/>
<feOffset dy="1"/>
<feGaussianBlur stdDeviation="2"/>
<feComposite in2="hardAlpha" operator="arithmetic" k2="-1" k3="1"/>
<feColorMatrix type="matrix" values="0 0 0 0 1 0 0 0 0 1 0 0 0 0 1 0 0 0 0.292013 0"/>
<feBlend mode="normal" in2="shape" result="effect1_innerShadow_3_2381"/>
</filter>
<filter id="filter2_i_3_2381" x="23" y="30" width="26" height="2" filterUnits="userSpaceOnUse" color-interpolation-filters="sRGB">
<feFlood flood-opacity="0" result="BackgroundImageFix"/>
<feBlend mode="normal" in="SourceGraphic" in2="BackgroundImageFix" result="shape"/>
<feColorMatrix in="SourceAlpha" type="matrix" values="0 0 0 0 0 0 0 0 0 0 0 0 0 0 0 0 0 0 127 0" result="hardAlpha"/>
<feOffset dy="1"/>
<feGaussianBlur stdDeviation="2"/>
<feComposite in2="hardAlpha" operator="arithmetic" k2="-1" k3="1"/>
<feColorMatrix type="matrix" values="0 0 0 0 1 0 0 0 0 1 0 0 0 0 1 0 0 0 0.0995138 0"/>
<feBlend mode="normal" in2="shape" result="effect1_innerShadow_3_2381"/>
</filter>
<filter id="filter3_i_3_2381" x="23" y="37" width="33" height="2" filterUnits="userSpaceOnUse" color-interpolation-filters="sRGB">
<feFlood flood-opacity="0" result="BackgroundImageFix"/>
<feBlend mode="normal" in="SourceGraphic" in2="BackgroundImageFix" result="shape"/>
<feColorMatrix in="SourceAlpha" type="matrix" values="0 0 0 0 0 0 0 0 0 0 0 0 0 0 0 0 0 0 127 0" result="hardAlpha"/>
<feOffset dy="1"/>
<feGaussianBlur stdDeviation="2"/>
<feComposite in2="hardAlpha" operator="arithmetic" k2="-1" k3="1"/>
<feColorMatrix type="matrix" values="0 0 0 0 1 0 0 0 0 1 0 0 0 0 1 0 0 0 0.0995138 0"/>
<feBlend mode="normal" in2="shape" result="effect1_innerShadow_3_2381"/>
</filter>
<filter id="filter4_i_3_2381" x="23" y="44" width="28" height="2" filterUnits="userSpaceOnUse" color-interpolation-filters="sRGB">
<feFlood flood-opacity="0" result="BackgroundImageFix"/>
<feBlend mode="normal" in="SourceGraphic" in2="BackgroundImageFix" result="shape"/>
<feColorMatrix in="SourceAlpha" type="matrix" values="0 0 0 0 0 0 0 0 0 0 0 0 0 0 0 0 0 0 127 0" result="hardAlpha"/>
<feOffset dy="1"/>
<feGaussianBlur stdDeviation="2"/>
<feComposite in2="hardAlpha" operator="arithmetic" k2="-1" k3="1"/>
<feColorMatrix type="matrix" values="0 0 0 0 1 0 0 0 0 1 0 0 0 0 1 0 0 0 0.0995138 0"/>
<feBlend mode="normal" in2="shape" result="effect1_innerShadow_3_2381"/>
</filter>
<linearGradient id="paint0_linear_3_2381" x1="41" y1="0" x2="41" y2="60" gradientUnits="userSpaceOnUse">
<stop stop-color="#F2F2F2" stop-opacity="0.23"/>
<stop offset="1" stop-color="white" stop-opacity="0"/>
</linearGradient>
<radialGradient id="paint1_radial_3_2381" cx="0" cy="0" r="1" gradientUnits="userSpaceOnUse" gradientTransform="translate(41 30) rotate(90) scale(30 41)">
<stop stop-color="#F2F2F2"/>
<stop offset="1" stop-opacity="0.25"/>
</radialGradient>
<linearGradient id="paint2_linear_3_2381" x1="17" y1="44" x2="20" y2="47" gradientUnits="userSpaceOnUse">
<stop stop-color="#00A09D"/>
<stop offset="1" stop-color="#00E2FF"/>
</linearGradient>
<linearGradient id="paint3_linear_3_2381" x1="17" y1="37" x2="20" y2="40" gradientUnits="userSpaceOnUse">
<stop stop-color="#00A09D"/>
<stop offset="1" stop-color="#00E2FF"/>
</linearGradient>
<linearGradient id="paint4_linear_3_2381" x1="17" y1="30" x2="20" y2="33" gradientUnits="userSpaceOnUse">
<stop stop-color="#00A09D"/>
<stop offset="1" stop-color="#00E2FF"/>
</linearGradient>
<linearGradient id="paint5_linear_3_2381" x1="17" y1="15" x2="20" y2="18" gradientUnits="userSpaceOnUse">
<stop stop-color="#00A09D"/>
<stop offset="1" stop-color="#00E2FF"/>
</linearGradient>
<clipPath id="clip0_3_2381">
<rect width="82" height="60" rx="3" fill="white"/>
</clipPath>
</defs>
</svg>
