<svg width="82" height="60" viewBox="0 0 82 60" fill="none" xmlns="http://www.w3.org/2000/svg">
<g filter="url(#filter0_b_3_2321)">
<g clip-path="url(#clip0_3_2321)">
<rect width="82" height="60" rx="3" fill="url(#paint0_linear_3_2321)"/>
<rect width="82" height="60" rx="3" fill="url(#paint1_radial_3_2321)" fill-opacity="0.2"/>
<rect width="82" height="60" rx="3" fill="white" fill-opacity="0.2"/>
<path fill-rule="evenodd" clip-rule="evenodd" d="M22 13C23.5913 13 25.1174 13.6321 26.2426 14.7574C27.3679 15.8826 28 17.4087 28 19C28 20.5913 27.3679 22.1174 26.2426 23.2426C25.1174 24.3679 23.5913 25 22 25C20.4087 25 18.8826 24.3679 17.7574 23.2426C16.6321 22.1174 16 20.5913 16 19C16 17.4087 16.6321 15.8826 17.7574 14.7574C18.8826 13.6321 20.4087 13 22 13V13ZM41 13C42.5913 13 44.1174 13.6321 45.2426 14.7574C46.3679 15.8826 47 17.4087 47 19C47 20.5913 46.3679 22.1174 45.2426 23.2426C44.1174 24.3679 42.5913 25 41 25C39.4087 25 37.8826 24.3679 36.7574 23.2426C35.6321 22.1174 35 20.5913 35 19C35 17.4087 35.6321 15.8826 36.7574 14.7574C37.8826 13.6321 39.4087 13 41 13V13ZM60 13C61.5913 13 63.1174 13.6321 64.2426 14.7574C65.3679 15.8826 66 17.4087 66 19C66 20.5913 65.3679 22.1174 64.2426 23.2426C63.1174 24.3679 61.5913 25 60 25C58.4087 25 56.8826 24.3679 55.7574 23.2426C54.6321 22.1174 54 20.5913 54 19C54 17.4087 54.6321 15.8826 55.7574 14.7574C56.8826 13.6321 58.4087 13 60 13V13Z" fill="url(#paint2_linear_3_2321)"/>
<g filter="url(#filter1_i_3_2321)">
<path d="M30 29V31H15V29H30ZM49 29V31H34V29H49ZM68 29V31H53V29H68Z" fill="black"/>
</g>
<path d="M30 29V31H15V29H30ZM49 29V31H34V29H49ZM68 29V31H53V29H68Z" fill="white" fill-opacity="0.78"/>
<g filter="url(#filter2_i_3_2321)">
<path d="M29 41V42H15V41H29ZM48 41V42H34V41H48ZM67 41V42H53V41H67ZM26 38V39H15V38H26ZM45 38V39H34V38H45ZM64 38V39H53V38H64ZM29 35V36H15V35H29ZM48 35V36H34V35H48ZM67 35V36H53V35H67Z" fill="black"/>
</g>
<path d="M29 41V42H15V41H29ZM48 41V42H34V41H48ZM67 41V42H53V41H67ZM26 38V39H15V38H26ZM45 38V39H34V38H45ZM64 38V39H53V38H64ZM29 35V36H15V35H29ZM48 35V36H34V35H48ZM67 35V36H53V35H67Z" fill="#F0B421"/>
</g>
</g>
<defs>
<filter id="filter0_b_3_2321" x="-4" y="-4" width="90" height="68" filterUnits="userSpaceOnUse" color-interpolation-filters="sRGB">
<feFlood flood-opacity="0" result="BackgroundImageFix"/>
<feGaussianBlur in="BackgroundImageFix" stdDeviation="2"/>
<feComposite in2="SourceAlpha" operator="in" result="effect1_backgroundBlur_3_2321"/>
<feBlend mode="normal" in="SourceGraphic" in2="effect1_backgroundBlur_3_2321" result="shape"/>
</filter>
<filter id="filter1_i_3_2321" x="15" y="29" width="53" height="3" filterUnits="userSpaceOnUse" color-interpolation-filters="sRGB">
<feFlood flood-opacity="0" result="BackgroundImageFix"/>
<feBlend mode="normal" in="SourceGraphic" in2="BackgroundImageFix" result="shape"/>
<feColorMatrix in="SourceAlpha" type="matrix" values="0 0 0 0 0 0 0 0 0 0 0 0 0 0 0 0 0 0 127 0" result="hardAlpha"/>
<feOffset dy="1"/>
<feGaussianBlur stdDeviation="2"/>
<feComposite in2="hardAlpha" operator="arithmetic" k2="-1" k3="1"/>
<feColorMatrix type="matrix" values="0 0 0 0 1 0 0 0 0 1 0 0 0 0 1 0 0 0 0.292013 0"/>
<feBlend mode="normal" in2="shape" result="effect1_innerShadow_3_2321"/>
</filter>
<filter id="filter2_i_3_2321" x="15" y="35" width="52" height="8" filterUnits="userSpaceOnUse" color-interpolation-filters="sRGB">
<feFlood flood-opacity="0" result="BackgroundImageFix"/>
<feBlend mode="normal" in="SourceGraphic" in2="BackgroundImageFix" result="shape"/>
<feColorMatrix in="SourceAlpha" type="matrix" values="0 0 0 0 0 0 0 0 0 0 0 0 0 0 0 0 0 0 127 0" result="hardAlpha"/>
<feOffset dy="1"/>
<feGaussianBlur stdDeviation="2"/>
<feComposite in2="hardAlpha" operator="arithmetic" k2="-1" k3="1"/>
<feColorMatrix type="matrix" values="0 0 0 0 1 0 0 0 0 1 0 0 0 0 1 0 0 0 0.0995138 0"/>
<feBlend mode="normal" in2="shape" result="effect1_innerShadow_3_2321"/>
</filter>
<linearGradient id="paint0_linear_3_2321" x1="41" y1="0" x2="41" y2="60" gradientUnits="userSpaceOnUse">
<stop stop-color="#F2F2F2" stop-opacity="0.23"/>
<stop offset="1" stop-color="white" stop-opacity="0"/>
</linearGradient>
<radialGradient id="paint1_radial_3_2321" cx="0" cy="0" r="1" gradientUnits="userSpaceOnUse" gradientTransform="translate(41 30) rotate(90) scale(30 41)">
<stop stop-color="#F2F2F2"/>
<stop offset="1" stop-opacity="0.25"/>
</radialGradient>
<linearGradient id="paint2_linear_3_2321" x1="41" y1="13" x2="41" y2="25" gradientUnits="userSpaceOnUse">
<stop stop-color="#00A09D"/>
<stop offset="1" stop-color="#00E2FF"/>
</linearGradient>
<clipPath id="clip0_3_2321">
<rect width="82" height="60" rx="3" fill="white"/>
</clipPath>
</defs>
</svg>
