<svg width="82" height="60" viewBox="0 0 82 60" fill="none" xmlns="http://www.w3.org/2000/svg">
<g filter="url(#filter0_b_3_2528)">
<g clip-path="url(#clip0_3_2528)">
<rect width="82" height="60" rx="3" fill="url(#paint0_linear_3_2528)"/>
<rect width="82" height="60" rx="3" fill="url(#paint1_radial_3_2528)" fill-opacity="0.2"/>
<rect width="82" height="60" rx="3" fill="white" fill-opacity="0.2"/>
<g opacity="0.5">
<mask id="mask0_3_2528" style="mask-type:alpha" maskUnits="userSpaceOnUse" x="0" y="0" width="82" height="60">
<path d="M82 0H0V60H82V0Z" fill="white"/>
</mask>
<g mask="url(#mask0_3_2528)">
<path d="M82 0H0V60H82V0Z" fill="#79D1F2"/>
<path d="M65.5 19C69.6421 19 73 15.6421 73 11.5C73 7.35786 69.6421 4 65.5 4C61.3579 4 58 7.35786 58 11.5C58 15.6421 61.3579 19 65.5 19Z" fill="#F3EC60"/>
<path d="M68.5 82C83.1355 82 95 73.0457 95 62C95 50.9543 83.1355 42 68.5 42C53.8645 42 42 50.9543 42 62C42 73.0457 53.8645 82 68.5 82Z" fill="url(#paint2_linear_3_2528)"/>
<path d="M18 99C46.1665 99 69 84.6731 69 67C69 49.3269 46.1665 35 18 35C-10.1665 35 -33 49.3269 -33 67C-33 84.6731 -10.1665 99 18 99Z" fill="url(#paint3_linear_3_2528)"/>
</g>
</g>
<path fill-rule="evenodd" clip-rule="evenodd" d="M70.5 25.648L74.659 30.5L70.5 35.352V25.648ZM12.5 25.648V35.352L8.341 30.5L12.5 25.648Z" fill="white" stroke="white"/>
</g>
</g>
<defs>
<filter id="filter0_b_3_2528" x="-4" y="-4" width="90" height="68" filterUnits="userSpaceOnUse" color-interpolation-filters="sRGB">
<feFlood flood-opacity="0" result="BackgroundImageFix"/>
<feGaussianBlur in="BackgroundImageFix" stdDeviation="2"/>
<feComposite in2="SourceAlpha" operator="in" result="effect1_backgroundBlur_3_2528"/>
<feBlend mode="normal" in="SourceGraphic" in2="effect1_backgroundBlur_3_2528" result="shape"/>
</filter>
<linearGradient id="paint0_linear_3_2528" x1="41" y1="0" x2="41" y2="60" gradientUnits="userSpaceOnUse">
<stop stop-color="#F2F2F2" stop-opacity="0.23"/>
<stop offset="1" stop-color="white" stop-opacity="0"/>
</linearGradient>
<radialGradient id="paint1_radial_3_2528" cx="0" cy="0" r="1" gradientUnits="userSpaceOnUse" gradientTransform="translate(41 30) rotate(90) scale(30 41)">
<stop stop-color="#F2F2F2"/>
<stop offset="1" stop-opacity="0.25"/>
</radialGradient>
<linearGradient id="paint2_linear_3_2528" x1="80.6237" y1="59.8696" x2="66.0999" y2="48.8121" gradientUnits="userSpaceOnUse">
<stop stop-color="#008374"/>
<stop offset="1" stop-color="#006A59"/>
</linearGradient>
<linearGradient id="paint3_linear_3_2528" x1="57.2873" y1="59.6278" x2="22.4096" y2="76.2516" gradientUnits="userSpaceOnUse">
<stop stop-color="#00AA89"/>
<stop offset="1" stop-color="#009989"/>
</linearGradient>
<clipPath id="clip0_3_2528">
<rect width="82" height="60" rx="3" fill="white"/>
</clipPath>
</defs>
</svg>
