<svg width="82" height="60" viewBox="0 0 82 60" fill="none" xmlns="http://www.w3.org/2000/svg">
<g filter="url(#filter0_b_3_2596)">
<g clip-path="url(#clip0_3_2596)">
<rect width="82" height="60" rx="3" fill="url(#paint0_linear_3_2596)"/>
<rect width="82" height="60" rx="3" fill="url(#paint1_radial_3_2596)" fill-opacity="0.2"/>
<rect width="82" height="60" rx="3" fill="white" fill-opacity="0.2"/>
<path d="M18 20C19.6569 20 21 18.6569 21 17C21 15.3431 19.6569 14 18 14C16.3431 14 15 15.3431 15 17C15 18.6569 16.3431 20 18 20Z" fill="url(#paint2_linear_3_2596)"/>
<path d="M27 15H22V17H27V15Z" fill="black"/>
<path d="M27 15H22V17H27V15Z" fill="white" fill-opacity="0.78"/>
<g filter="url(#filter1_i_3_2596)">
<path d="M29 18V19H22V18H29Z" fill="black"/>
</g>
<path d="M29 18V19H22V18H29Z" fill="#F0B421"/>
<path d="M37 20C38.6569 20 40 18.6569 40 17C40 15.3431 38.6569 14 37 14C35.3431 14 34 15.3431 34 17C34 18.6569 35.3431 20 37 20Z" fill="url(#paint3_linear_3_2596)"/>
<path d="M46 15H41V17H46V15Z" fill="black"/>
<path d="M46 15H41V17H46V15Z" fill="white" fill-opacity="0.78"/>
<g filter="url(#filter2_i_3_2596)">
<path d="M48 18V19H41V18H48Z" fill="black"/>
</g>
<path d="M48 18V19H41V18H48Z" fill="#F0B421"/>
<path d="M56 20C57.6569 20 59 18.6569 59 17C59 15.3431 57.6569 14 56 14C54.3431 14 53 15.3431 53 17C53 18.6569 54.3431 20 56 20Z" fill="url(#paint4_linear_3_2596)"/>
<path d="M65 15H60V17H65V15Z" fill="black"/>
<path d="M65 15H60V17H65V15Z" fill="white" fill-opacity="0.78"/>
<g filter="url(#filter3_i_3_2596)">
<path d="M67 18V19H60V18H67Z" fill="black"/>
</g>
<path d="M67 18V19H60V18H67Z" fill="#F0B421"/>
<path d="M18 32C19.6569 32 21 30.6569 21 29C21 27.3431 19.6569 26 18 26C16.3431 26 15 27.3431 15 29C15 30.6569 16.3431 32 18 32Z" fill="url(#paint5_linear_3_2596)"/>
<path d="M27 27H22V29H27V27Z" fill="black"/>
<path d="M27 27H22V29H27V27Z" fill="white" fill-opacity="0.78"/>
<g filter="url(#filter4_i_3_2596)">
<path d="M29 30V31H22V30H29Z" fill="black"/>
</g>
<path d="M29 30V31H22V30H29Z" fill="#F0B421"/>
<path d="M37 32C38.6569 32 40 30.6569 40 29C40 27.3431 38.6569 26 37 26C35.3431 26 34 27.3431 34 29C34 30.6569 35.3431 32 37 32Z" fill="url(#paint6_linear_3_2596)"/>
<path d="M46 27H41V29H46V27Z" fill="black"/>
<path d="M46 27H41V29H46V27Z" fill="white" fill-opacity="0.78"/>
<g filter="url(#filter5_i_3_2596)">
<path d="M48 30V31H41V30H48Z" fill="black"/>
</g>
<path d="M48 30V31H41V30H48Z" fill="#F0B421"/>
<path d="M56 32C57.6569 32 59 30.6569 59 29C59 27.3431 57.6569 26 56 26C54.3431 26 53 27.3431 53 29C53 30.6569 54.3431 32 56 32Z" fill="url(#paint7_linear_3_2596)"/>
<path d="M65 27H60V29H65V27Z" fill="black"/>
<path d="M65 27H60V29H65V27Z" fill="white" fill-opacity="0.78"/>
<g filter="url(#filter6_i_3_2596)">
<path d="M67 30V31H60V30H67Z" fill="black"/>
</g>
<path d="M67 30V31H60V30H67Z" fill="#F0B421"/>
<path d="M18 44C19.6569 44 21 42.6569 21 41C21 39.3431 19.6569 38 18 38C16.3431 38 15 39.3431 15 41C15 42.6569 16.3431 44 18 44Z" fill="url(#paint8_linear_3_2596)"/>
<path d="M27 39H22V41H27V39Z" fill="black"/>
<path d="M27 39H22V41H27V39Z" fill="white" fill-opacity="0.78"/>
<g filter="url(#filter7_i_3_2596)">
<path d="M29 42V43H22V42H29Z" fill="black"/>
</g>
<path d="M29 42V43H22V42H29Z" fill="#F0B421"/>
<path d="M37 44C38.6569 44 40 42.6569 40 41C40 39.3431 38.6569 38 37 38C35.3431 38 34 39.3431 34 41C34 42.6569 35.3431 44 37 44Z" fill="url(#paint9_linear_3_2596)"/>
<path d="M46 39H41V41H46V39Z" fill="black"/>
<path d="M46 39H41V41H46V39Z" fill="white" fill-opacity="0.78"/>
<g filter="url(#filter8_i_3_2596)">
<path d="M48 42V43H41V42H48Z" fill="black"/>
</g>
<path d="M48 42V43H41V42H48Z" fill="#F0B421"/>
<path d="M56 44C57.6569 44 59 42.6569 59 41C59 39.3431 57.6569 38 56 38C54.3431 38 53 39.3431 53 41C53 42.6569 54.3431 44 56 44Z" fill="url(#paint10_linear_3_2596)"/>
<path d="M65 39H60V41H65V39Z" fill="black"/>
<path d="M65 39H60V41H65V39Z" fill="white" fill-opacity="0.78"/>
<g filter="url(#filter9_i_3_2596)">
<path d="M67 42V43H60V42H67Z" fill="black"/>
</g>
<path d="M67 42V43H60V42H67Z" fill="#F0B421"/>
</g>
</g>
<defs>
<filter id="filter0_b_3_2596" x="-4" y="-4" width="90" height="68" filterUnits="userSpaceOnUse" color-interpolation-filters="sRGB">
<feFlood flood-opacity="0" result="BackgroundImageFix"/>
<feGaussianBlur in="BackgroundImageFix" stdDeviation="2"/>
<feComposite in2="SourceAlpha" operator="in" result="effect1_backgroundBlur_3_2596"/>
<feBlend mode="normal" in="SourceGraphic" in2="effect1_backgroundBlur_3_2596" result="shape"/>
</filter>
<filter id="filter1_i_3_2596" x="22" y="18" width="7" height="2" filterUnits="userSpaceOnUse" color-interpolation-filters="sRGB">
<feFlood flood-opacity="0" result="BackgroundImageFix"/>
<feBlend mode="normal" in="SourceGraphic" in2="BackgroundImageFix" result="shape"/>
<feColorMatrix in="SourceAlpha" type="matrix" values="0 0 0 0 0 0 0 0 0 0 0 0 0 0 0 0 0 0 127 0" result="hardAlpha"/>
<feOffset dy="1"/>
<feGaussianBlur stdDeviation="2"/>
<feComposite in2="hardAlpha" operator="arithmetic" k2="-1" k3="1"/>
<feColorMatrix type="matrix" values="0 0 0 0 1 0 0 0 0 1 0 0 0 0 1 0 0 0 0.0995138 0"/>
<feBlend mode="normal" in2="shape" result="effect1_innerShadow_3_2596"/>
</filter>
<filter id="filter2_i_3_2596" x="41" y="18" width="7" height="2" filterUnits="userSpaceOnUse" color-interpolation-filters="sRGB">
<feFlood flood-opacity="0" result="BackgroundImageFix"/>
<feBlend mode="normal" in="SourceGraphic" in2="BackgroundImageFix" result="shape"/>
<feColorMatrix in="SourceAlpha" type="matrix" values="0 0 0 0 0 0 0 0 0 0 0 0 0 0 0 0 0 0 127 0" result="hardAlpha"/>
<feOffset dy="1"/>
<feGaussianBlur stdDeviation="2"/>
<feComposite in2="hardAlpha" operator="arithmetic" k2="-1" k3="1"/>
<feColorMatrix type="matrix" values="0 0 0 0 1 0 0 0 0 1 0 0 0 0 1 0 0 0 0.0995138 0"/>
<feBlend mode="normal" in2="shape" result="effect1_innerShadow_3_2596"/>
</filter>
<filter id="filter3_i_3_2596" x="60" y="18" width="7" height="2" filterUnits="userSpaceOnUse" color-interpolation-filters="sRGB">
<feFlood flood-opacity="0" result="BackgroundImageFix"/>
<feBlend mode="normal" in="SourceGraphic" in2="BackgroundImageFix" result="shape"/>
<feColorMatrix in="SourceAlpha" type="matrix" values="0 0 0 0 0 0 0 0 0 0 0 0 0 0 0 0 0 0 127 0" result="hardAlpha"/>
<feOffset dy="1"/>
<feGaussianBlur stdDeviation="2"/>
<feComposite in2="hardAlpha" operator="arithmetic" k2="-1" k3="1"/>
<feColorMatrix type="matrix" values="0 0 0 0 1 0 0 0 0 1 0 0 0 0 1 0 0 0 0.0995138 0"/>
<feBlend mode="normal" in2="shape" result="effect1_innerShadow_3_2596"/>
</filter>
<filter id="filter4_i_3_2596" x="22" y="30" width="7" height="2" filterUnits="userSpaceOnUse" color-interpolation-filters="sRGB">
<feFlood flood-opacity="0" result="BackgroundImageFix"/>
<feBlend mode="normal" in="SourceGraphic" in2="BackgroundImageFix" result="shape"/>
<feColorMatrix in="SourceAlpha" type="matrix" values="0 0 0 0 0 0 0 0 0 0 0 0 0 0 0 0 0 0 127 0" result="hardAlpha"/>
<feOffset dy="1"/>
<feGaussianBlur stdDeviation="2"/>
<feComposite in2="hardAlpha" operator="arithmetic" k2="-1" k3="1"/>
<feColorMatrix type="matrix" values="0 0 0 0 1 0 0 0 0 1 0 0 0 0 1 0 0 0 0.0995138 0"/>
<feBlend mode="normal" in2="shape" result="effect1_innerShadow_3_2596"/>
</filter>
<filter id="filter5_i_3_2596" x="41" y="30" width="7" height="2" filterUnits="userSpaceOnUse" color-interpolation-filters="sRGB">
<feFlood flood-opacity="0" result="BackgroundImageFix"/>
<feBlend mode="normal" in="SourceGraphic" in2="BackgroundImageFix" result="shape"/>
<feColorMatrix in="SourceAlpha" type="matrix" values="0 0 0 0 0 0 0 0 0 0 0 0 0 0 0 0 0 0 127 0" result="hardAlpha"/>
<feOffset dy="1"/>
<feGaussianBlur stdDeviation="2"/>
<feComposite in2="hardAlpha" operator="arithmetic" k2="-1" k3="1"/>
<feColorMatrix type="matrix" values="0 0 0 0 1 0 0 0 0 1 0 0 0 0 1 0 0 0 0.0995138 0"/>
<feBlend mode="normal" in2="shape" result="effect1_innerShadow_3_2596"/>
</filter>
<filter id="filter6_i_3_2596" x="60" y="30" width="7" height="2" filterUnits="userSpaceOnUse" color-interpolation-filters="sRGB">
<feFlood flood-opacity="0" result="BackgroundImageFix"/>
<feBlend mode="normal" in="SourceGraphic" in2="BackgroundImageFix" result="shape"/>
<feColorMatrix in="SourceAlpha" type="matrix" values="0 0 0 0 0 0 0 0 0 0 0 0 0 0 0 0 0 0 127 0" result="hardAlpha"/>
<feOffset dy="1"/>
<feGaussianBlur stdDeviation="2"/>
<feComposite in2="hardAlpha" operator="arithmetic" k2="-1" k3="1"/>
<feColorMatrix type="matrix" values="0 0 0 0 1 0 0 0 0 1 0 0 0 0 1 0 0 0 0.0995138 0"/>
<feBlend mode="normal" in2="shape" result="effect1_innerShadow_3_2596"/>
</filter>
<filter id="filter7_i_3_2596" x="22" y="42" width="7" height="2" filterUnits="userSpaceOnUse" color-interpolation-filters="sRGB">
<feFlood flood-opacity="0" result="BackgroundImageFix"/>
<feBlend mode="normal" in="SourceGraphic" in2="BackgroundImageFix" result="shape"/>
<feColorMatrix in="SourceAlpha" type="matrix" values="0 0 0 0 0 0 0 0 0 0 0 0 0 0 0 0 0 0 127 0" result="hardAlpha"/>
<feOffset dy="1"/>
<feGaussianBlur stdDeviation="2"/>
<feComposite in2="hardAlpha" operator="arithmetic" k2="-1" k3="1"/>
<feColorMatrix type="matrix" values="0 0 0 0 1 0 0 0 0 1 0 0 0 0 1 0 0 0 0.0995138 0"/>
<feBlend mode="normal" in2="shape" result="effect1_innerShadow_3_2596"/>
</filter>
<filter id="filter8_i_3_2596" x="41" y="42" width="7" height="2" filterUnits="userSpaceOnUse" color-interpolation-filters="sRGB">
<feFlood flood-opacity="0" result="BackgroundImageFix"/>
<feBlend mode="normal" in="SourceGraphic" in2="BackgroundImageFix" result="shape"/>
<feColorMatrix in="SourceAlpha" type="matrix" values="0 0 0 0 0 0 0 0 0 0 0 0 0 0 0 0 0 0 127 0" result="hardAlpha"/>
<feOffset dy="1"/>
<feGaussianBlur stdDeviation="2"/>
<feComposite in2="hardAlpha" operator="arithmetic" k2="-1" k3="1"/>
<feColorMatrix type="matrix" values="0 0 0 0 1 0 0 0 0 1 0 0 0 0 1 0 0 0 0.0995138 0"/>
<feBlend mode="normal" in2="shape" result="effect1_innerShadow_3_2596"/>
</filter>
<filter id="filter9_i_3_2596" x="60" y="42" width="7" height="2" filterUnits="userSpaceOnUse" color-interpolation-filters="sRGB">
<feFlood flood-opacity="0" result="BackgroundImageFix"/>
<feBlend mode="normal" in="SourceGraphic" in2="BackgroundImageFix" result="shape"/>
<feColorMatrix in="SourceAlpha" type="matrix" values="0 0 0 0 0 0 0 0 0 0 0 0 0 0 0 0 0 0 127 0" result="hardAlpha"/>
<feOffset dy="1"/>
<feGaussianBlur stdDeviation="2"/>
<feComposite in2="hardAlpha" operator="arithmetic" k2="-1" k3="1"/>
<feColorMatrix type="matrix" values="0 0 0 0 1 0 0 0 0 1 0 0 0 0 1 0 0 0 0.0995138 0"/>
<feBlend mode="normal" in2="shape" result="effect1_innerShadow_3_2596"/>
</filter>
<linearGradient id="paint0_linear_3_2596" x1="41" y1="0" x2="41" y2="60" gradientUnits="userSpaceOnUse">
<stop stop-color="#F2F2F2" stop-opacity="0.23"/>
<stop offset="1" stop-color="white" stop-opacity="0"/>
</linearGradient>
<radialGradient id="paint1_radial_3_2596" cx="0" cy="0" r="1" gradientUnits="userSpaceOnUse" gradientTransform="translate(41 30) rotate(90) scale(30 41)">
<stop stop-color="#F2F2F2"/>
<stop offset="1" stop-opacity="0.25"/>
</radialGradient>
<linearGradient id="paint2_linear_3_2596" x1="15" y1="14" x2="21" y2="20" gradientUnits="userSpaceOnUse">
<stop stop-color="#00A09D"/>
<stop offset="1" stop-color="#00E2FF"/>
</linearGradient>
<linearGradient id="paint3_linear_3_2596" x1="34" y1="14" x2="40" y2="20" gradientUnits="userSpaceOnUse">
<stop stop-color="#00A09D"/>
<stop offset="1" stop-color="#00E2FF"/>
</linearGradient>
<linearGradient id="paint4_linear_3_2596" x1="53" y1="14" x2="59" y2="20" gradientUnits="userSpaceOnUse">
<stop stop-color="#00A09D"/>
<stop offset="1" stop-color="#00E2FF"/>
</linearGradient>
<linearGradient id="paint5_linear_3_2596" x1="15" y1="26" x2="21" y2="32" gradientUnits="userSpaceOnUse">
<stop stop-color="#00A09D"/>
<stop offset="1" stop-color="#00E2FF"/>
</linearGradient>
<linearGradient id="paint6_linear_3_2596" x1="34" y1="26" x2="40" y2="32" gradientUnits="userSpaceOnUse">
<stop stop-color="#00A09D"/>
<stop offset="1" stop-color="#00E2FF"/>
</linearGradient>
<linearGradient id="paint7_linear_3_2596" x1="53" y1="26" x2="59" y2="32" gradientUnits="userSpaceOnUse">
<stop stop-color="#00A09D"/>
<stop offset="1" stop-color="#00E2FF"/>
</linearGradient>
<linearGradient id="paint8_linear_3_2596" x1="15" y1="38" x2="21" y2="44" gradientUnits="userSpaceOnUse">
<stop stop-color="#00A09D"/>
<stop offset="1" stop-color="#00E2FF"/>
</linearGradient>
<linearGradient id="paint9_linear_3_2596" x1="34" y1="38" x2="40" y2="44" gradientUnits="userSpaceOnUse">
<stop stop-color="#00A09D"/>
<stop offset="1" stop-color="#00E2FF"/>
</linearGradient>
<linearGradient id="paint10_linear_3_2596" x1="53" y1="38" x2="59" y2="44" gradientUnits="userSpaceOnUse">
<stop stop-color="#00A09D"/>
<stop offset="1" stop-color="#00E2FF"/>
</linearGradient>
<clipPath id="clip0_3_2596">
<rect width="82" height="60" rx="3" fill="white"/>
</clipPath>
</defs>
</svg>
