<svg width="82" height="60" viewBox="0 0 82 60" fill="none" xmlns="http://www.w3.org/2000/svg">
<g filter="url(#filter0_b_3_3265)">
<g clip-path="url(#clip0_3_3265)">
<rect width="82" height="60" rx="3" fill="url(#paint0_linear_3_3265)"/>
<rect width="82" height="60" rx="3" fill="url(#paint1_radial_3_3265)" fill-opacity="0.2"/>
<rect width="82" height="60" rx="3" fill="white" fill-opacity="0.2"/>
<g filter="url(#filter1_i_3_3265)">
<path d="M29 17H15V19H29V17Z" fill="black"/>
</g>
<path d="M29 17H15V19H29V17Z" fill="white" fill-opacity="0.78"/>
<path d="M29 21H15V22H29V21Z" fill="url(#paint2_linear_3_3265)"/>
<g filter="url(#filter2_i_3_3265)">
<path d="M28 32V33H15V32H28ZM26 29V30H15V29H26ZM28 26V27H15V26H28Z" fill="black"/>
</g>
<path d="M28 32V33H15V32H28ZM26 29V30H15V29H26ZM28 26V27H15V26H28Z" fill="#F0B421"/>
<g filter="url(#filter3_i_3_3265)">
<path d="M49 17H35V19H49V17Z" fill="black"/>
</g>
<path d="M49 17H35V19H49V17Z" fill="white" fill-opacity="0.78"/>
<path d="M49 21H35V22H49V21Z" fill="url(#paint3_linear_3_3265)"/>
<g filter="url(#filter4_i_3_3265)">
<path d="M48 32V33H35V32H48ZM46 29V30H35V29H46ZM48 26V27H35V26H48Z" fill="black"/>
</g>
<path d="M48 32V33H35V32H48ZM46 29V30H35V29H46ZM48 26V27H35V26H48Z" fill="#F0B421"/>
<g filter="url(#filter5_i_3_3265)">
<path d="M68 17H54V19H68V17Z" fill="black"/>
</g>
<path d="M68 17H54V19H68V17Z" fill="white" fill-opacity="0.78"/>
<path d="M68 21H54V22H68V21Z" fill="url(#paint4_linear_3_3265)"/>
<g filter="url(#filter6_i_3_3265)">
<path d="M67 32V33H54V32H67ZM65 29V30H54V29H65ZM67 26V27H54V26H67Z" fill="black"/>
</g>
<path d="M67 32V33H54V32H67ZM65 29V30H54V29H65ZM67 26V27H54V26H67Z" fill="#F0B421"/>
<path d="M29 43C30.1046 43 31 42.1046 31 41C31 39.8954 30.1046 39 29 39C27.8954 39 27 39.8954 27 41C27 42.1046 27.8954 43 29 43Z" fill="url(#paint5_linear_3_3265)"/>
<path d="M35 43C36.1046 43 37 42.1046 37 41C37 39.8954 36.1046 39 35 39C33.8954 39 33 39.8954 33 41C33 42.1046 33.8954 43 35 43Z" fill="url(#paint6_linear_3_3265)"/>
<path d="M41 43C42.1046 43 43 42.1046 43 41C43 39.8954 42.1046 39 41 39C39.8954 39 39 39.8954 39 41C39 42.1046 39.8954 43 41 43Z" fill="url(#paint7_linear_3_3265)"/>
<path d="M47 43C48.1046 43 49 42.1046 49 41C49 39.8954 48.1046 39 47 39C45.8954 39 45 39.8954 45 41C45 42.1046 45.8954 43 47 43Z" fill="url(#paint8_linear_3_3265)"/>
<path d="M53 43C54.1046 43 55 42.1046 55 41C55 39.8954 54.1046 39 53 39C51.8954 39 51 39.8954 51 41C51 42.1046 51.8954 43 53 43Z" fill="url(#paint9_linear_3_3265)"/>
</g>
</g>
<defs>
<filter id="filter0_b_3_3265" x="-4" y="-4" width="90" height="68" filterUnits="userSpaceOnUse" color-interpolation-filters="sRGB">
<feFlood flood-opacity="0" result="BackgroundImageFix"/>
<feGaussianBlur in="BackgroundImageFix" stdDeviation="2"/>
<feComposite in2="SourceAlpha" operator="in" result="effect1_backgroundBlur_3_3265"/>
<feBlend mode="normal" in="SourceGraphic" in2="effect1_backgroundBlur_3_3265" result="shape"/>
</filter>
<filter id="filter1_i_3_3265" x="15" y="17" width="14" height="3" filterUnits="userSpaceOnUse" color-interpolation-filters="sRGB">
<feFlood flood-opacity="0" result="BackgroundImageFix"/>
<feBlend mode="normal" in="SourceGraphic" in2="BackgroundImageFix" result="shape"/>
<feColorMatrix in="SourceAlpha" type="matrix" values="0 0 0 0 0 0 0 0 0 0 0 0 0 0 0 0 0 0 127 0" result="hardAlpha"/>
<feOffset dy="1"/>
<feGaussianBlur stdDeviation="2"/>
<feComposite in2="hardAlpha" operator="arithmetic" k2="-1" k3="1"/>
<feColorMatrix type="matrix" values="0 0 0 0 1 0 0 0 0 1 0 0 0 0 1 0 0 0 0.292013 0"/>
<feBlend mode="normal" in2="shape" result="effect1_innerShadow_3_3265"/>
</filter>
<filter id="filter2_i_3_3265" x="15" y="26" width="13" height="8" filterUnits="userSpaceOnUse" color-interpolation-filters="sRGB">
<feFlood flood-opacity="0" result="BackgroundImageFix"/>
<feBlend mode="normal" in="SourceGraphic" in2="BackgroundImageFix" result="shape"/>
<feColorMatrix in="SourceAlpha" type="matrix" values="0 0 0 0 0 0 0 0 0 0 0 0 0 0 0 0 0 0 127 0" result="hardAlpha"/>
<feOffset dy="1"/>
<feGaussianBlur stdDeviation="2"/>
<feComposite in2="hardAlpha" operator="arithmetic" k2="-1" k3="1"/>
<feColorMatrix type="matrix" values="0 0 0 0 1 0 0 0 0 1 0 0 0 0 1 0 0 0 0.0995138 0"/>
<feBlend mode="normal" in2="shape" result="effect1_innerShadow_3_3265"/>
</filter>
<filter id="filter3_i_3_3265" x="35" y="17" width="14" height="3" filterUnits="userSpaceOnUse" color-interpolation-filters="sRGB">
<feFlood flood-opacity="0" result="BackgroundImageFix"/>
<feBlend mode="normal" in="SourceGraphic" in2="BackgroundImageFix" result="shape"/>
<feColorMatrix in="SourceAlpha" type="matrix" values="0 0 0 0 0 0 0 0 0 0 0 0 0 0 0 0 0 0 127 0" result="hardAlpha"/>
<feOffset dy="1"/>
<feGaussianBlur stdDeviation="2"/>
<feComposite in2="hardAlpha" operator="arithmetic" k2="-1" k3="1"/>
<feColorMatrix type="matrix" values="0 0 0 0 1 0 0 0 0 1 0 0 0 0 1 0 0 0 0.292013 0"/>
<feBlend mode="normal" in2="shape" result="effect1_innerShadow_3_3265"/>
</filter>
<filter id="filter4_i_3_3265" x="35" y="26" width="13" height="8" filterUnits="userSpaceOnUse" color-interpolation-filters="sRGB">
<feFlood flood-opacity="0" result="BackgroundImageFix"/>
<feBlend mode="normal" in="SourceGraphic" in2="BackgroundImageFix" result="shape"/>
<feColorMatrix in="SourceAlpha" type="matrix" values="0 0 0 0 0 0 0 0 0 0 0 0 0 0 0 0 0 0 127 0" result="hardAlpha"/>
<feOffset dy="1"/>
<feGaussianBlur stdDeviation="2"/>
<feComposite in2="hardAlpha" operator="arithmetic" k2="-1" k3="1"/>
<feColorMatrix type="matrix" values="0 0 0 0 1 0 0 0 0 1 0 0 0 0 1 0 0 0 0.0995138 0"/>
<feBlend mode="normal" in2="shape" result="effect1_innerShadow_3_3265"/>
</filter>
<filter id="filter5_i_3_3265" x="54" y="17" width="14" height="3" filterUnits="userSpaceOnUse" color-interpolation-filters="sRGB">
<feFlood flood-opacity="0" result="BackgroundImageFix"/>
<feBlend mode="normal" in="SourceGraphic" in2="BackgroundImageFix" result="shape"/>
<feColorMatrix in="SourceAlpha" type="matrix" values="0 0 0 0 0 0 0 0 0 0 0 0 0 0 0 0 0 0 127 0" result="hardAlpha"/>
<feOffset dy="1"/>
<feGaussianBlur stdDeviation="2"/>
<feComposite in2="hardAlpha" operator="arithmetic" k2="-1" k3="1"/>
<feColorMatrix type="matrix" values="0 0 0 0 1 0 0 0 0 1 0 0 0 0 1 0 0 0 0.292013 0"/>
<feBlend mode="normal" in2="shape" result="effect1_innerShadow_3_3265"/>
</filter>
<filter id="filter6_i_3_3265" x="54" y="26" width="13" height="8" filterUnits="userSpaceOnUse" color-interpolation-filters="sRGB">
<feFlood flood-opacity="0" result="BackgroundImageFix"/>
<feBlend mode="normal" in="SourceGraphic" in2="BackgroundImageFix" result="shape"/>
<feColorMatrix in="SourceAlpha" type="matrix" values="0 0 0 0 0 0 0 0 0 0 0 0 0 0 0 0 0 0 127 0" result="hardAlpha"/>
<feOffset dy="1"/>
<feGaussianBlur stdDeviation="2"/>
<feComposite in2="hardAlpha" operator="arithmetic" k2="-1" k3="1"/>
<feColorMatrix type="matrix" values="0 0 0 0 1 0 0 0 0 1 0 0 0 0 1 0 0 0 0.0995138 0"/>
<feBlend mode="normal" in2="shape" result="effect1_innerShadow_3_3265"/>
</filter>
<linearGradient id="paint0_linear_3_3265" x1="41" y1="0" x2="41" y2="60" gradientUnits="userSpaceOnUse">
<stop stop-color="#F2F2F2" stop-opacity="0.23"/>
<stop offset="1" stop-color="white" stop-opacity="0"/>
</linearGradient>
<radialGradient id="paint1_radial_3_3265" cx="0" cy="0" r="1" gradientUnits="userSpaceOnUse" gradientTransform="translate(41 30) rotate(90) scale(30 41)">
<stop stop-color="#F2F2F2"/>
<stop offset="1" stop-opacity="0.25"/>
</radialGradient>
<linearGradient id="paint2_linear_3_3265" x1="15" y1="21" x2="15.1421" y2="22.9898" gradientUnits="userSpaceOnUse">
<stop stop-color="#00A09D"/>
<stop offset="1" stop-color="#00E2FF"/>
</linearGradient>
<linearGradient id="paint3_linear_3_3265" x1="35" y1="21" x2="35.1421" y2="22.9898" gradientUnits="userSpaceOnUse">
<stop stop-color="#00A09D"/>
<stop offset="1" stop-color="#00E2FF"/>
</linearGradient>
<linearGradient id="paint4_linear_3_3265" x1="54" y1="21" x2="54.1421" y2="22.9898" gradientUnits="userSpaceOnUse">
<stop stop-color="#00A09D"/>
<stop offset="1" stop-color="#00E2FF"/>
</linearGradient>
<linearGradient id="paint5_linear_3_3265" x1="27" y1="39" x2="31" y2="43" gradientUnits="userSpaceOnUse">
<stop stop-color="#00A09D"/>
<stop offset="1" stop-color="#00E2FF"/>
</linearGradient>
<linearGradient id="paint6_linear_3_3265" x1="33" y1="39" x2="37" y2="43" gradientUnits="userSpaceOnUse">
<stop stop-color="#00A09D"/>
<stop offset="1" stop-color="#00E2FF"/>
</linearGradient>
<linearGradient id="paint7_linear_3_3265" x1="39" y1="39" x2="43" y2="43" gradientUnits="userSpaceOnUse">
<stop stop-color="#00A09D"/>
<stop offset="1" stop-color="#00E2FF"/>
</linearGradient>
<linearGradient id="paint8_linear_3_3265" x1="45" y1="39" x2="49" y2="43" gradientUnits="userSpaceOnUse">
<stop stop-color="#00A09D"/>
<stop offset="1" stop-color="#00E2FF"/>
</linearGradient>
<linearGradient id="paint9_linear_3_3265" x1="51" y1="39" x2="55" y2="43" gradientUnits="userSpaceOnUse">
<stop stop-color="#00A09D"/>
<stop offset="1" stop-color="#00E2FF"/>
</linearGradient>
<clipPath id="clip0_3_3265">
<rect width="82" height="60" rx="3" fill="white"/>
</clipPath>
</defs>
</svg>
