<svg width="82" height="60" viewBox="0 0 82 60" fill="none" xmlns="http://www.w3.org/2000/svg">
<g filter="url(#filter0_b_3_3347)">
<g clip-path="url(#clip0_3_3347)">
<rect width="82" height="60" rx="3" fill="url(#paint0_linear_3_3347)"/>
<rect width="82" height="60" rx="3" fill="url(#paint1_radial_3_3347)" fill-opacity="0.2"/>
<rect width="82" height="60" rx="3" fill="white" fill-opacity="0.2"/>
<path d="M59 24H24C23.4477 24 23 24.4477 23 25V47C23 47.5523 23.4477 48 24 48H59C59.5523 48 60 47.5523 60 47V25C60 24.4477 59.5523 24 59 24Z" fill="white"/>
<mask id="mask0_3_3347" style="mask-type:alpha" maskUnits="userSpaceOnUse" x="23" y="24" width="37" height="24">
<path d="M58.302 24.706H24.698C24.1457 24.706 23.698 25.1537 23.698 25.706V46.294C23.698 46.8463 24.1457 47.294 24.698 47.294H58.302C58.8543 47.294 59.302 46.8463 59.302 46.294V25.706C59.302 25.1537 58.8543 24.706 58.302 24.706Z" fill="white"/>
</mask>
<g mask="url(#mask0_3_3347)">
<path d="M58.302 24.706H24.698C24.1457 24.706 23.698 25.1537 23.698 25.706V46.294C23.698 46.8463 24.1457 47.294 24.698 47.294H58.302C58.8543 47.294 59.302 46.8463 59.302 46.294V25.706C59.302 25.1537 58.8543 24.706 58.302 24.706Z" fill="#79D1F2"/>
<path d="M54.066 34.256C56.1868 34.256 57.906 32.5659 57.906 30.481C57.906 28.3961 56.1868 26.706 54.066 26.706C51.9452 26.706 50.226 28.3961 50.226 30.481C50.226 32.5659 51.9452 34.256 54.066 34.256Z" fill="#F3EC60"/>
<path d="M58.953 58.589C68.0138 58.589 75.359 54.6384 75.359 49.765C75.359 44.8916 68.0138 40.941 58.953 40.941C49.8922 40.941 42.547 44.8916 42.547 49.765C42.547 54.6384 49.8922 58.589 58.953 58.589Z" fill="url(#paint2_linear_3_3347)"/>
<path d="M17.637 61.412C34.7241 61.412 48.576 55.7233 48.576 48.706C48.576 41.6887 34.7241 36 17.637 36C0.54986 36 -13.302 41.6887 -13.302 48.706C-13.302 55.7233 0.54986 61.412 17.637 61.412Z" fill="url(#paint3_linear_3_3347)"/>
</g>
<path fill-rule="evenodd" clip-rule="evenodd" d="M59 24C59.5523 24 60 24.4477 60 25V47C60 47.5523 59.5523 48 59 48H24C23.4477 48 23 47.5523 23 47V25C23 24.4477 23.4477 24 24 24H59ZM59.302 25.706C59.302 25.1537 58.8543 24.706 58.302 24.706H24.698C24.1457 24.706 23.698 25.1537 23.698 25.706V46.294C23.698 46.8463 24.1457 47.294 24.698 47.294H58.302C58.8543 47.294 59.302 46.8463 59.302 46.294V25.706Z" fill="white"/>
<g filter="url(#filter1_i_3_3347)">
<path d="M50 21V22H33V21H50ZM47 18V19H36V18H47Z" fill="black"/>
</g>
<path d="M50 21V22H33V21H50ZM47 18V19H36V18H47Z" fill="#F0B421"/>
<g filter="url(#filter2_i_3_3347)">
<path d="M56 13H27V15H56V13Z" fill="black"/>
</g>
<path d="M56 13H27V15H56V13Z" fill="white" fill-opacity="0.78"/>
</g>
</g>
<defs>
<filter id="filter0_b_3_3347" x="-4" y="-4" width="90" height="68" filterUnits="userSpaceOnUse" color-interpolation-filters="sRGB">
<feFlood flood-opacity="0" result="BackgroundImageFix"/>
<feGaussianBlur in="BackgroundImageFix" stdDeviation="2"/>
<feComposite in2="SourceAlpha" operator="in" result="effect1_backgroundBlur_3_3347"/>
<feBlend mode="normal" in="SourceGraphic" in2="effect1_backgroundBlur_3_3347" result="shape"/>
</filter>
<filter id="filter1_i_3_3347" x="33" y="18" width="17" height="5" filterUnits="userSpaceOnUse" color-interpolation-filters="sRGB">
<feFlood flood-opacity="0" result="BackgroundImageFix"/>
<feBlend mode="normal" in="SourceGraphic" in2="BackgroundImageFix" result="shape"/>
<feColorMatrix in="SourceAlpha" type="matrix" values="0 0 0 0 0 0 0 0 0 0 0 0 0 0 0 0 0 0 127 0" result="hardAlpha"/>
<feOffset dy="1"/>
<feGaussianBlur stdDeviation="2"/>
<feComposite in2="hardAlpha" operator="arithmetic" k2="-1" k3="1"/>
<feColorMatrix type="matrix" values="0 0 0 0 1 0 0 0 0 1 0 0 0 0 1 0 0 0 0.0995138 0"/>
<feBlend mode="normal" in2="shape" result="effect1_innerShadow_3_3347"/>
</filter>
<filter id="filter2_i_3_3347" x="27" y="13" width="29" height="3" filterUnits="userSpaceOnUse" color-interpolation-filters="sRGB">
<feFlood flood-opacity="0" result="BackgroundImageFix"/>
<feBlend mode="normal" in="SourceGraphic" in2="BackgroundImageFix" result="shape"/>
<feColorMatrix in="SourceAlpha" type="matrix" values="0 0 0 0 0 0 0 0 0 0 0 0 0 0 0 0 0 0 127 0" result="hardAlpha"/>
<feOffset dy="1"/>
<feGaussianBlur stdDeviation="2"/>
<feComposite in2="hardAlpha" operator="arithmetic" k2="-1" k3="1"/>
<feColorMatrix type="matrix" values="0 0 0 0 1 0 0 0 0 1 0 0 0 0 1 0 0 0 0.292013 0"/>
<feBlend mode="normal" in2="shape" result="effect1_innerShadow_3_3347"/>
</filter>
<linearGradient id="paint0_linear_3_3347" x1="41" y1="0" x2="41" y2="60" gradientUnits="userSpaceOnUse">
<stop stop-color="#F2F2F2" stop-opacity="0.23"/>
<stop offset="1" stop-color="white" stop-opacity="0"/>
</linearGradient>
<radialGradient id="paint1_radial_3_3347" cx="0" cy="0" r="1" gradientUnits="userSpaceOnUse" gradientTransform="translate(41 30) rotate(90) scale(30 41)">
<stop stop-color="#F2F2F2"/>
<stop offset="1" stop-opacity="0.25"/>
</radialGradient>
<linearGradient id="paint2_linear_3_3347" x1="66.4587" y1="49.2876" x2="57.5065" y2="44.4308" gradientUnits="userSpaceOnUse">
<stop stop-color="#008374"/>
<stop offset="1" stop-color="#006A59"/>
</linearGradient>
<linearGradient id="paint3_linear_3_3347" x1="41.4705" y1="47.4519" x2="19.3945" y2="54.3393" gradientUnits="userSpaceOnUse">
<stop stop-color="#00AA89"/>
<stop offset="1" stop-color="#009989"/>
</linearGradient>
<clipPath id="clip0_3_3347">
<rect width="82" height="60" rx="3" fill="white"/>
</clipPath>
</defs>
</svg>
