<svg width="82" height="60" viewBox="0 0 82 60" fill="none" xmlns="http://www.w3.org/2000/svg">
<g filter="url(#filter0_b_3_3402)">
<g clip-path="url(#clip0_3_3402)">
<rect width="82" height="60" rx="3" fill="url(#paint0_linear_3_3402)"/>
<rect width="82" height="60" rx="3" fill="url(#paint1_radial_3_3402)" fill-opacity="0.2"/>
<rect width="82" height="60" rx="3" fill="white" fill-opacity="0.2"/>
<g opacity="0.4">
<path d="M67 24H15V42H67V24Z" fill="url(#paint2_linear_3_3402)"/>
</g>
<g filter="url(#filter1_i_3_3402)">
<path d="M41 28H19V30H41V28Z" fill="black"/>
</g>
<path d="M41 28H19V30H41V28Z" fill="white" fill-opacity="0.95"/>
<path fill-rule="evenodd" clip-rule="evenodd" d="M67 18V24H15V18H67ZM65.462 19L64 20.461L62.538 19L62.008 19.537L63.467 20.997L62 22.464L62.529 23.001L64 21.53L65.471 23L66 22.463L64.533 20.998L65.991 19.537L65.462 19Z" fill="white" fill-opacity="0.78"/>
<g filter="url(#filter2_i_3_3402)">
<path d="M35 36V37H19V36H35ZM39 33V34H19V33H39Z" fill="black"/>
</g>
<path d="M35 36V37H19V36H35ZM39 33V34H19V33H39Z" fill="white" fill-opacity="0.8"/>
</g>
</g>
<defs>
<filter id="filter0_b_3_3402" x="-4" y="-4" width="90" height="68" filterUnits="userSpaceOnUse" color-interpolation-filters="sRGB">
<feFlood flood-opacity="0" result="BackgroundImageFix"/>
<feGaussianBlur in="BackgroundImageFix" stdDeviation="2"/>
<feComposite in2="SourceAlpha" operator="in" result="effect1_backgroundBlur_3_3402"/>
<feBlend mode="normal" in="SourceGraphic" in2="effect1_backgroundBlur_3_3402" result="shape"/>
</filter>
<filter id="filter1_i_3_3402" x="19" y="28" width="22" height="3" filterUnits="userSpaceOnUse" color-interpolation-filters="sRGB">
<feFlood flood-opacity="0" result="BackgroundImageFix"/>
<feBlend mode="normal" in="SourceGraphic" in2="BackgroundImageFix" result="shape"/>
<feColorMatrix in="SourceAlpha" type="matrix" values="0 0 0 0 0 0 0 0 0 0 0 0 0 0 0 0 0 0 127 0" result="hardAlpha"/>
<feOffset dy="1"/>
<feGaussianBlur stdDeviation="2"/>
<feComposite in2="hardAlpha" operator="arithmetic" k2="-1" k3="1"/>
<feColorMatrix type="matrix" values="0 0 0 0 1 0 0 0 0 1 0 0 0 0 1 0 0 0 0.4 0"/>
<feBlend mode="normal" in2="shape" result="effect1_innerShadow_3_3402"/>
</filter>
<filter id="filter2_i_3_3402" x="19" y="33" width="20" height="5" filterUnits="userSpaceOnUse" color-interpolation-filters="sRGB">
<feFlood flood-opacity="0" result="BackgroundImageFix"/>
<feBlend mode="normal" in="SourceGraphic" in2="BackgroundImageFix" result="shape"/>
<feColorMatrix in="SourceAlpha" type="matrix" values="0 0 0 0 0 0 0 0 0 0 0 0 0 0 0 0 0 0 127 0" result="hardAlpha"/>
<feOffset dy="1"/>
<feGaussianBlur stdDeviation="2"/>
<feComposite in2="hardAlpha" operator="arithmetic" k2="-1" k3="1"/>
<feColorMatrix type="matrix" values="0 0 0 0 1 0 0 0 0 1 0 0 0 0 1 0 0 0 0.2 0"/>
<feBlend mode="normal" in2="shape" result="effect1_innerShadow_3_3402"/>
</filter>
<linearGradient id="paint0_linear_3_3402" x1="41" y1="0" x2="41" y2="60" gradientUnits="userSpaceOnUse">
<stop stop-color="#F2F2F2" stop-opacity="0.23"/>
<stop offset="1" stop-color="white" stop-opacity="0"/>
</linearGradient>
<radialGradient id="paint1_radial_3_3402" cx="0" cy="0" r="1" gradientUnits="userSpaceOnUse" gradientTransform="translate(41 30) rotate(90) scale(30 41)">
<stop stop-color="#F2F2F2"/>
<stop offset="1" stop-opacity="0.25"/>
</radialGradient>
<linearGradient id="paint2_linear_3_3402" x1="15" y1="31.9216" x2="62.1028" y2="48.2261" gradientUnits="userSpaceOnUse">
<stop stop-color="#00A09D"/>
<stop offset="1" stop-color="#00E2FF"/>
</linearGradient>
<clipPath id="clip0_3_3402">
<rect width="82" height="60" rx="3" fill="white"/>
</clipPath>
</defs>
</svg>
