<svg width="82" height="60" viewBox="0 0 82 60" fill="none" xmlns="http://www.w3.org/2000/svg">
<g filter="url(#filter0_b_3_3417)">
<g clip-path="url(#clip0_3_3417)">
<rect width="82" height="60" rx="3" fill="url(#paint0_linear_3_3417)"/>
<rect width="82" height="60" rx="3" fill="url(#paint1_radial_3_3417)" fill-opacity="0.2"/>
<rect width="82" height="60" rx="3" fill="white" fill-opacity="0.2"/>
<g filter="url(#filter1_i_3_3417)">
<path d="M57 30H26V31H57V30Z" fill="black"/>
</g>
<path d="M57 30H26V31H57V30Z" fill="#0176D0"/>
<path opacity="0.426" d="M62.5 36C65.5376 36 68 33.5376 68 30.5C68 27.4624 65.5376 25 62.5 25C59.4624 25 57 27.4624 57 30.5C57 33.5376 59.4624 36 62.5 36Z" fill="url(#paint2_linear_3_3417)"/>
<path d="M20.5 36C23.5376 36 26 33.5376 26 30.5C26 27.4624 23.5376 25 20.5 25C17.4624 25 15 27.4624 15 30.5C15 33.5376 17.4624 36 20.5 36Z" fill="white" fill-opacity="0.78"/>
<path d="M41.5 36C44.5376 36 47 33.5376 47 30.5C47 27.4624 44.5376 25 41.5 25C38.4624 25 36 27.4624 36 30.5C36 33.5376 38.4624 36 41.5 36Z" fill="url(#paint3_linear_3_3417)"/>
</g>
</g>
<defs>
<filter id="filter0_b_3_3417" x="-4" y="-4" width="90" height="68" filterUnits="userSpaceOnUse" color-interpolation-filters="sRGB">
<feFlood flood-opacity="0" result="BackgroundImageFix"/>
<feGaussianBlur in="BackgroundImageFix" stdDeviation="2"/>
<feComposite in2="SourceAlpha" operator="in" result="effect1_backgroundBlur_3_3417"/>
<feBlend mode="normal" in="SourceGraphic" in2="effect1_backgroundBlur_3_3417" result="shape"/>
</filter>
<filter id="filter1_i_3_3417" x="26" y="30" width="31" height="2" filterUnits="userSpaceOnUse" color-interpolation-filters="sRGB">
<feFlood flood-opacity="0" result="BackgroundImageFix"/>
<feBlend mode="normal" in="SourceGraphic" in2="BackgroundImageFix" result="shape"/>
<feColorMatrix in="SourceAlpha" type="matrix" values="0 0 0 0 0 0 0 0 0 0 0 0 0 0 0 0 0 0 127 0" result="hardAlpha"/>
<feOffset dy="1"/>
<feGaussianBlur stdDeviation="2"/>
<feComposite in2="hardAlpha" operator="arithmetic" k2="-1" k3="1"/>
<feColorMatrix type="matrix" values="0 0 0 0 1 0 0 0 0 1 0 0 0 0 1 0 0 0 0.0995138 0"/>
<feBlend mode="normal" in2="shape" result="effect1_innerShadow_3_3417"/>
</filter>
<linearGradient id="paint0_linear_3_3417" x1="41" y1="0" x2="41" y2="60" gradientUnits="userSpaceOnUse">
<stop stop-color="#F2F2F2" stop-opacity="0.23"/>
<stop offset="1" stop-color="white" stop-opacity="0"/>
</linearGradient>
<radialGradient id="paint1_radial_3_3417" cx="0" cy="0" r="1" gradientUnits="userSpaceOnUse" gradientTransform="translate(41 30) rotate(90) scale(30 41)">
<stop stop-color="#F2F2F2"/>
<stop offset="1" stop-opacity="0.25"/>
</radialGradient>
<linearGradient id="paint2_linear_3_3417" x1="57" y1="25" x2="68" y2="36" gradientUnits="userSpaceOnUse">
<stop stop-color="#FEC52B"/>
<stop offset="1" stop-color="#FFD869"/>
</linearGradient>
<linearGradient id="paint3_linear_3_3417" x1="36" y1="25" x2="47" y2="36" gradientUnits="userSpaceOnUse">
<stop stop-color="#FEC52B"/>
<stop offset="1" stop-color="#FFD869"/>
</linearGradient>
<clipPath id="clip0_3_3417">
<rect width="82" height="60" rx="3" fill="white"/>
</clipPath>
</defs>
</svg>
