<svg width="82" height="60" viewBox="0 0 82 60" fill="none" xmlns="http://www.w3.org/2000/svg">
<g filter="url(#filter0_b_3_3459)">
<g clip-path="url(#clip0_3_3459)">
<rect width="82" height="60" rx="3" fill="url(#paint0_linear_3_3459)"/>
<rect width="82" height="60" rx="3" fill="url(#paint1_radial_3_3459)" fill-opacity="0.2"/>
<rect width="82" height="60" rx="3" fill="white" fill-opacity="0.2"/>
<path fill-rule="evenodd" clip-rule="evenodd" d="M28 38V40H16V38H28ZM48 38V40H35V38H48ZM68 38V40H53V38H68Z" fill="url(#paint2_linear_3_3459)"/>
<g filter="url(#filter1_ii_3_3459)">
<path d="M28.6293 24.4219H18.6853V20.3707H28.261C28.4643 20.3707 28.6293 20.5357 28.6293 20.739V24.4219Z" fill="url(#paint3_linear_3_3459)"/>
<path d="M24.9464 24.4219H15.739C15.5357 24.4219 15.3707 24.2569 15.3707 24.0537V20.739C15.3707 20.5357 15.5357 20.3707 15.739 20.3707H24.9464C25.1497 20.3707 25.3147 20.5357 25.3147 20.739V24.0537C25.3147 24.2569 25.1497 24.4219 24.9464 24.4219Z" fill="url(#paint4_linear_3_3459)"/>
<path opacity="0.05" d="M28.6293 23.317H15.3707V24.0536C15.3707 24.2569 15.5357 24.4219 15.739 24.4219H18.6853H24.9464H28.6293V23.317Z" fill="black"/>
<path opacity="0.07" d="M28.6293 23.5012H15.3707V24.0537C15.3707 24.257 15.5357 24.422 15.739 24.422H18.6853H24.9464H28.6293V23.5012Z" fill="black"/>
<path d="M28.6293 33.6293H24.5781V23.6854H28.9976C29.2009 23.6854 29.3659 23.8504 29.3659 24.0537V32.8927C29.3659 33.2996 29.0364 33.6293 28.6293 33.6293Z" fill="url(#paint5_linear_3_3459)"/>
<path d="M24.5781 33.6293H15.3707C14.9637 33.6293 14.6341 33.2996 14.6341 32.8927V24.0537C14.6341 23.8504 14.7991 23.6854 15.0024 23.6854H25.3146V32.8927C25.3146 33.2996 24.9849 33.6293 24.5781 33.6293Z" fill="url(#paint6_linear_3_3459)"/>
<path d="M25.3146 23.6854H14.8617C14.7221 23.6854 14.5947 23.7642 14.5324 23.889L13.6625 25.6289C13.6014 25.7511 13.6901 25.8951 13.8271 25.8951H23.9822C24.1217 25.8951 24.2491 25.8163 24.3114 25.6915L25.3146 23.6854Z" fill="url(#paint7_linear_3_3459)"/>
<path d="M25.3147 23.6854H29.1383C29.278 23.6854 29.4054 23.7642 29.4676 23.889L30.3375 25.6289C30.3986 25.7511 30.3099 25.8951 30.1729 25.8951H26.6471C26.5075 25.8951 26.3801 25.8163 26.3179 25.6915L25.3147 23.6854Z" fill="url(#paint8_linear_3_3459)"/>
</g>
<g filter="url(#filter2_ii_3_3459)">
<path d="M28.6293 24.4219H18.6853V20.3707H28.261C28.4643 20.3707 28.6293 20.5357 28.6293 20.739V24.4219Z" fill="url(#paint9_linear_3_3459)"/>
<path d="M24.9464 24.4219H15.739C15.5357 24.4219 15.3707 24.2569 15.3707 24.0537V20.739C15.3707 20.5357 15.5357 20.3707 15.739 20.3707H24.9464C25.1497 20.3707 25.3147 20.5357 25.3147 20.739V24.0537C25.3147 24.2569 25.1497 24.4219 24.9464 24.4219Z" fill="url(#paint10_linear_3_3459)"/>
<path opacity="0.05" d="M28.6293 23.317H15.3707V24.0536C15.3707 24.2569 15.5357 24.4219 15.739 24.4219H18.6853H24.9464H28.6293V23.317Z" fill="black"/>
<path opacity="0.07" d="M28.6293 23.5012H15.3707V24.0537C15.3707 24.257 15.5357 24.422 15.739 24.422H18.6853H24.9464H28.6293V23.5012Z" fill="black"/>
<path d="M28.6293 33.6293H24.5781V23.6854H28.9976C29.2009 23.6854 29.3659 23.8504 29.3659 24.0537V32.8927C29.3659 33.2996 29.0364 33.6293 28.6293 33.6293Z" fill="url(#paint11_linear_3_3459)"/>
<path d="M24.5781 33.6293H15.3707C14.9637 33.6293 14.6341 33.2996 14.6341 32.8927V24.0537C14.6341 23.8504 14.7991 23.6854 15.0024 23.6854H25.3146V32.8927C25.3146 33.2996 24.9849 33.6293 24.5781 33.6293Z" fill="url(#paint12_linear_3_3459)"/>
<path d="M25.3146 23.6854H14.8617C14.7221 23.6854 14.5947 23.7642 14.5324 23.889L13.6625 25.6289C13.6014 25.7511 13.6901 25.8951 13.8271 25.8951H23.9822C24.1217 25.8951 24.2491 25.8163 24.3114 25.6915L25.3146 23.6854Z" fill="url(#paint13_linear_3_3459)"/>
<path d="M25.3147 23.6854H29.1383C29.278 23.6854 29.4054 23.7642 29.4676 23.889L30.3375 25.6289C30.3986 25.7511 30.3099 25.8951 30.1729 25.8951H26.6471C26.5075 25.8951 26.3801 25.8163 26.3179 25.6915L25.3147 23.6854Z" fill="url(#paint14_linear_3_3459)"/>
</g>
<g filter="url(#filter3_ii_3_3459)">
<path d="M47.6293 24.4219H37.6853V20.3707H47.261C47.4643 20.3707 47.6293 20.5357 47.6293 20.739V24.4219Z" fill="url(#paint15_linear_3_3459)"/>
<path d="M43.9464 24.4219H34.739C34.5357 24.4219 34.3707 24.2569 34.3707 24.0537V20.739C34.3707 20.5357 34.5357 20.3707 34.739 20.3707H43.9464C44.1497 20.3707 44.3147 20.5357 44.3147 20.739V24.0537C44.3147 24.2569 44.1497 24.4219 43.9464 24.4219Z" fill="url(#paint16_linear_3_3459)"/>
<path opacity="0.05" d="M47.6293 23.317H34.3707V24.0536C34.3707 24.2569 34.5357 24.4219 34.739 24.4219H37.6853H43.9464H47.6293V23.317Z" fill="black"/>
<path opacity="0.07" d="M47.6293 23.5012H34.3707V24.0537C34.3707 24.257 34.5357 24.422 34.739 24.422H37.6853H43.9464H47.6293V23.5012Z" fill="black"/>
<path d="M47.6293 33.6293H43.5781V23.6854H47.9976C48.2009 23.6854 48.3659 23.8504 48.3659 24.0537V32.8927C48.3659 33.2996 48.0364 33.6293 47.6293 33.6293Z" fill="url(#paint17_linear_3_3459)"/>
<path d="M43.5781 33.6293H34.3707C33.9637 33.6293 33.6341 33.2996 33.6341 32.8927V24.0537C33.6341 23.8504 33.7991 23.6854 34.0024 23.6854H44.3146V32.8927C44.3146 33.2996 43.9849 33.6293 43.5781 33.6293Z" fill="url(#paint18_linear_3_3459)"/>
<path d="M44.3146 23.6854H33.8617C33.7221 23.6854 33.5947 23.7642 33.5324 23.889L32.6625 25.6289C32.6014 25.7511 32.6901 25.8951 32.8271 25.8951H42.9822C43.1217 25.8951 43.2491 25.8163 43.3114 25.6915L44.3146 23.6854Z" fill="url(#paint19_linear_3_3459)"/>
<path d="M44.3147 23.6854H48.1383C48.278 23.6854 48.4054 23.7642 48.4676 23.889L49.3375 25.6289C49.3986 25.7511 49.3099 25.8951 49.1729 25.8951H45.6471C45.5075 25.8951 45.3801 25.8163 45.3179 25.6915L44.3147 23.6854Z" fill="url(#paint20_linear_3_3459)"/>
</g>
<g filter="url(#filter4_ii_3_3459)">
<path d="M47.6293 24.4219H37.6853V20.3707H47.261C47.4643 20.3707 47.6293 20.5357 47.6293 20.739V24.4219Z" fill="url(#paint21_linear_3_3459)"/>
<path d="M43.9464 24.4219H34.739C34.5357 24.4219 34.3707 24.2569 34.3707 24.0537V20.739C34.3707 20.5357 34.5357 20.3707 34.739 20.3707H43.9464C44.1497 20.3707 44.3147 20.5357 44.3147 20.739V24.0537C44.3147 24.2569 44.1497 24.4219 43.9464 24.4219Z" fill="url(#paint22_linear_3_3459)"/>
<path opacity="0.05" d="M47.6293 23.317H34.3707V24.0536C34.3707 24.2569 34.5357 24.4219 34.739 24.4219H37.6853H43.9464H47.6293V23.317Z" fill="black"/>
<path opacity="0.07" d="M47.6293 23.5012H34.3707V24.0537C34.3707 24.257 34.5357 24.422 34.739 24.422H37.6853H43.9464H47.6293V23.5012Z" fill="black"/>
<path d="M47.6293 33.6293H43.5781V23.6854H47.9976C48.2009 23.6854 48.3659 23.8504 48.3659 24.0537V32.8927C48.3659 33.2996 48.0364 33.6293 47.6293 33.6293Z" fill="url(#paint23_linear_3_3459)"/>
<path d="M43.5781 33.6293H34.3707C33.9637 33.6293 33.6341 33.2996 33.6341 32.8927V24.0537C33.6341 23.8504 33.7991 23.6854 34.0024 23.6854H44.3146V32.8927C44.3146 33.2996 43.9849 33.6293 43.5781 33.6293Z" fill="url(#paint24_linear_3_3459)"/>
<path d="M44.3146 23.6854H33.8617C33.7221 23.6854 33.5947 23.7642 33.5324 23.889L32.6625 25.6289C32.6014 25.7511 32.6901 25.8951 32.8271 25.8951H42.9822C43.1217 25.8951 43.2491 25.8163 43.3114 25.6915L44.3146 23.6854Z" fill="url(#paint25_linear_3_3459)"/>
<path d="M44.3147 23.6854H48.1383C48.278 23.6854 48.4054 23.7642 48.4676 23.889L49.3375 25.6289C49.3986 25.7511 49.3099 25.8951 49.1729 25.8951H45.6471C45.5075 25.8951 45.3801 25.8163 45.3179 25.6915L44.3147 23.6854Z" fill="url(#paint26_linear_3_3459)"/>
</g>
<g filter="url(#filter5_ii_3_3459)">
<path d="M66.6293 24.4219H56.6853V20.3707H66.261C66.4643 20.3707 66.6293 20.5357 66.6293 20.739V24.4219Z" fill="url(#paint27_linear_3_3459)"/>
<path d="M62.9464 24.4219H53.739C53.5357 24.4219 53.3707 24.2569 53.3707 24.0537V20.739C53.3707 20.5357 53.5357 20.3707 53.739 20.3707H62.9464C63.1497 20.3707 63.3147 20.5357 63.3147 20.739V24.0537C63.3147 24.2569 63.1497 24.4219 62.9464 24.4219Z" fill="url(#paint28_linear_3_3459)"/>
<path opacity="0.05" d="M66.6293 23.317H53.3707V24.0536C53.3707 24.2569 53.5357 24.4219 53.739 24.4219H56.6853H62.9464H66.6293V23.317Z" fill="black"/>
<path opacity="0.07" d="M66.6293 23.5012H53.3707V24.0537C53.3707 24.257 53.5357 24.422 53.739 24.422H56.6853H62.9464H66.6293V23.5012Z" fill="black"/>
<path d="M66.6293 33.6293H62.5781V23.6854H66.9976C67.2009 23.6854 67.3659 23.8504 67.3659 24.0537V32.8927C67.3659 33.2996 67.0364 33.6293 66.6293 33.6293Z" fill="url(#paint29_linear_3_3459)"/>
<path d="M62.5781 33.6293H53.3707C52.9637 33.6293 52.6341 33.2996 52.6341 32.8927V24.0537C52.6341 23.8504 52.7991 23.6854 53.0024 23.6854H63.3146V32.8927C63.3146 33.2996 62.9849 33.6293 62.5781 33.6293Z" fill="url(#paint30_linear_3_3459)"/>
<path d="M63.3146 23.6854H52.8617C52.7221 23.6854 52.5947 23.7642 52.5324 23.889L51.6625 25.6289C51.6014 25.7511 51.6901 25.8951 51.8271 25.8951H61.9822C62.1217 25.8951 62.2491 25.8163 62.3114 25.6915L63.3146 23.6854Z" fill="url(#paint31_linear_3_3459)"/>
<path d="M63.3147 23.6854H67.1383C67.278 23.6854 67.4054 23.7642 67.4676 23.889L68.3375 25.6289C68.3986 25.7511 68.3099 25.8951 68.1729 25.8951H64.6471C64.5075 25.8951 64.3801 25.8163 64.3179 25.6915L63.3147 23.6854Z" fill="url(#paint32_linear_3_3459)"/>
</g>
<g filter="url(#filter6_ii_3_3459)">
<path d="M66.6293 24.4219H56.6853V20.3707H66.261C66.4643 20.3707 66.6293 20.5357 66.6293 20.739V24.4219Z" fill="url(#paint33_linear_3_3459)"/>
<path d="M62.9464 24.4219H53.739C53.5357 24.4219 53.3707 24.2569 53.3707 24.0537V20.739C53.3707 20.5357 53.5357 20.3707 53.739 20.3707H62.9464C63.1497 20.3707 63.3147 20.5357 63.3147 20.739V24.0537C63.3147 24.2569 63.1497 24.4219 62.9464 24.4219Z" fill="url(#paint34_linear_3_3459)"/>
<path opacity="0.05" d="M66.6293 23.317H53.3707V24.0536C53.3707 24.2569 53.5357 24.4219 53.739 24.4219H56.6853H62.9464H66.6293V23.317Z" fill="black"/>
<path opacity="0.07" d="M66.6293 23.5012H53.3707V24.0537C53.3707 24.257 53.5357 24.422 53.739 24.422H56.6853H62.9464H66.6293V23.5012Z" fill="black"/>
<path d="M66.6293 33.6293H62.5781V23.6854H66.9976C67.2009 23.6854 67.3659 23.8504 67.3659 24.0537V32.8927C67.3659 33.2996 67.0364 33.6293 66.6293 33.6293Z" fill="url(#paint35_linear_3_3459)"/>
<path d="M62.5781 33.6293H53.3707C52.9637 33.6293 52.6341 33.2996 52.6341 32.8927V24.0537C52.6341 23.8504 52.7991 23.6854 53.0024 23.6854H63.3146V32.8927C63.3146 33.2996 62.9849 33.6293 62.5781 33.6293Z" fill="url(#paint36_linear_3_3459)"/>
<path d="M63.3146 23.6854H52.8617C52.7221 23.6854 52.5947 23.7642 52.5324 23.889L51.6625 25.6289C51.6014 25.7511 51.6901 25.8951 51.8271 25.8951H61.9822C62.1217 25.8951 62.2491 25.8163 62.3114 25.6915L63.3146 23.6854Z" fill="url(#paint37_linear_3_3459)"/>
<path d="M63.3147 23.6854H67.1383C67.278 23.6854 67.4054 23.7642 67.4676 23.889L68.3375 25.6289C68.3986 25.7511 68.3099 25.8951 68.1729 25.8951H64.6471C64.5075 25.8951 64.3801 25.8163 64.3179 25.6915L63.3147 23.6854Z" fill="url(#paint38_linear_3_3459)"/>
</g>
</g>
</g>
<defs>
<filter id="filter0_b_3_3459" x="-4" y="-4" width="90" height="68" filterUnits="userSpaceOnUse" color-interpolation-filters="sRGB">
<feFlood flood-opacity="0" result="BackgroundImageFix"/>
<feGaussianBlur in="BackgroundImageFix" stdDeviation="2"/>
<feComposite in2="SourceAlpha" operator="in" result="effect1_backgroundBlur_3_3459"/>
<feBlend mode="normal" in="SourceGraphic" in2="effect1_backgroundBlur_3_3459" result="shape"/>
</filter>
<filter id="filter1_ii_3_3459" x="13.6429" y="20.3707" width="16.7143" height="17.2586" filterUnits="userSpaceOnUse" color-interpolation-filters="sRGB">
<feFlood flood-opacity="0" result="BackgroundImageFix"/>
<feBlend mode="normal" in="SourceGraphic" in2="BackgroundImageFix" result="shape"/>
<feColorMatrix in="SourceAlpha" type="matrix" values="0 0 0 0 0 0 0 0 0 0 0 0 0 0 0 0 0 0 127 0" result="hardAlpha"/>
<feOffset dy="4"/>
<feGaussianBlur stdDeviation="2"/>
<feComposite in2="hardAlpha" operator="arithmetic" k2="-1" k3="1"/>
<feColorMatrix type="matrix" values="0 0 0 0 0.991667 0 0 0 0 0.991667 0 0 0 0 0.991667 0 0 0 0.25 0"/>
<feBlend mode="normal" in2="shape" result="effect1_innerShadow_3_3459"/>
<feColorMatrix in="SourceAlpha" type="matrix" values="0 0 0 0 0 0 0 0 0 0 0 0 0 0 0 0 0 0 127 0" result="hardAlpha"/>
<feOffset dy="4"/>
<feGaussianBlur stdDeviation="2"/>
<feComposite in2="hardAlpha" operator="arithmetic" k2="-1" k3="1"/>
<feColorMatrix type="matrix" values="0 0 0 0 0 0 0 0 0 0 0 0 0 0 0 0 0 0 0.25 0"/>
<feBlend mode="normal" in2="effect1_innerShadow_3_3459" result="effect2_innerShadow_3_3459"/>
</filter>
<filter id="filter2_ii_3_3459" x="13.6429" y="20.3707" width="16.7143" height="17.2586" filterUnits="userSpaceOnUse" color-interpolation-filters="sRGB">
<feFlood flood-opacity="0" result="BackgroundImageFix"/>
<feBlend mode="normal" in="SourceGraphic" in2="BackgroundImageFix" result="shape"/>
<feColorMatrix in="SourceAlpha" type="matrix" values="0 0 0 0 0 0 0 0 0 0 0 0 0 0 0 0 0 0 127 0" result="hardAlpha"/>
<feOffset dy="4"/>
<feGaussianBlur stdDeviation="2"/>
<feComposite in2="hardAlpha" operator="arithmetic" k2="-1" k3="1"/>
<feColorMatrix type="matrix" values="0 0 0 0 0.991667 0 0 0 0 0.991667 0 0 0 0 0.991667 0 0 0 0.25 0"/>
<feBlend mode="normal" in2="shape" result="effect1_innerShadow_3_3459"/>
<feColorMatrix in="SourceAlpha" type="matrix" values="0 0 0 0 0 0 0 0 0 0 0 0 0 0 0 0 0 0 127 0" result="hardAlpha"/>
<feOffset dy="4"/>
<feGaussianBlur stdDeviation="2"/>
<feComposite in2="hardAlpha" operator="arithmetic" k2="-1" k3="1"/>
<feColorMatrix type="matrix" values="0 0 0 0 0 0 0 0 0 0 0 0 0 0 0 0 0 0 0.25 0"/>
<feBlend mode="normal" in2="effect1_innerShadow_3_3459" result="effect2_innerShadow_3_3459"/>
</filter>
<filter id="filter3_ii_3_3459" x="32.6429" y="20.3707" width="16.7143" height="17.2586" filterUnits="userSpaceOnUse" color-interpolation-filters="sRGB">
<feFlood flood-opacity="0" result="BackgroundImageFix"/>
<feBlend mode="normal" in="SourceGraphic" in2="BackgroundImageFix" result="shape"/>
<feColorMatrix in="SourceAlpha" type="matrix" values="0 0 0 0 0 0 0 0 0 0 0 0 0 0 0 0 0 0 127 0" result="hardAlpha"/>
<feOffset dy="4"/>
<feGaussianBlur stdDeviation="2"/>
<feComposite in2="hardAlpha" operator="arithmetic" k2="-1" k3="1"/>
<feColorMatrix type="matrix" values="0 0 0 0 0.991667 0 0 0 0 0.991667 0 0 0 0 0.991667 0 0 0 0.25 0"/>
<feBlend mode="normal" in2="shape" result="effect1_innerShadow_3_3459"/>
<feColorMatrix in="SourceAlpha" type="matrix" values="0 0 0 0 0 0 0 0 0 0 0 0 0 0 0 0 0 0 127 0" result="hardAlpha"/>
<feOffset dy="4"/>
<feGaussianBlur stdDeviation="2"/>
<feComposite in2="hardAlpha" operator="arithmetic" k2="-1" k3="1"/>
<feColorMatrix type="matrix" values="0 0 0 0 0 0 0 0 0 0 0 0 0 0 0 0 0 0 0.25 0"/>
<feBlend mode="normal" in2="effect1_innerShadow_3_3459" result="effect2_innerShadow_3_3459"/>
</filter>
<filter id="filter4_ii_3_3459" x="32.6429" y="20.3707" width="16.7143" height="17.2586" filterUnits="userSpaceOnUse" color-interpolation-filters="sRGB">
<feFlood flood-opacity="0" result="BackgroundImageFix"/>
<feBlend mode="normal" in="SourceGraphic" in2="BackgroundImageFix" result="shape"/>
<feColorMatrix in="SourceAlpha" type="matrix" values="0 0 0 0 0 0 0 0 0 0 0 0 0 0 0 0 0 0 127 0" result="hardAlpha"/>
<feOffset dy="4"/>
<feGaussianBlur stdDeviation="2"/>
<feComposite in2="hardAlpha" operator="arithmetic" k2="-1" k3="1"/>
<feColorMatrix type="matrix" values="0 0 0 0 0.991667 0 0 0 0 0.991667 0 0 0 0 0.991667 0 0 0 0.25 0"/>
<feBlend mode="normal" in2="shape" result="effect1_innerShadow_3_3459"/>
<feColorMatrix in="SourceAlpha" type="matrix" values="0 0 0 0 0 0 0 0 0 0 0 0 0 0 0 0 0 0 127 0" result="hardAlpha"/>
<feOffset dy="4"/>
<feGaussianBlur stdDeviation="2"/>
<feComposite in2="hardAlpha" operator="arithmetic" k2="-1" k3="1"/>
<feColorMatrix type="matrix" values="0 0 0 0 0 0 0 0 0 0 0 0 0 0 0 0 0 0 0.25 0"/>
<feBlend mode="normal" in2="effect1_innerShadow_3_3459" result="effect2_innerShadow_3_3459"/>
</filter>
<filter id="filter5_ii_3_3459" x="51.6429" y="20.3707" width="16.7143" height="17.2586" filterUnits="userSpaceOnUse" color-interpolation-filters="sRGB">
<feFlood flood-opacity="0" result="BackgroundImageFix"/>
<feBlend mode="normal" in="SourceGraphic" in2="BackgroundImageFix" result="shape"/>
<feColorMatrix in="SourceAlpha" type="matrix" values="0 0 0 0 0 0 0 0 0 0 0 0 0 0 0 0 0 0 127 0" result="hardAlpha"/>
<feOffset dy="4"/>
<feGaussianBlur stdDeviation="2"/>
<feComposite in2="hardAlpha" operator="arithmetic" k2="-1" k3="1"/>
<feColorMatrix type="matrix" values="0 0 0 0 0.991667 0 0 0 0 0.991667 0 0 0 0 0.991667 0 0 0 0.25 0"/>
<feBlend mode="normal" in2="shape" result="effect1_innerShadow_3_3459"/>
<feColorMatrix in="SourceAlpha" type="matrix" values="0 0 0 0 0 0 0 0 0 0 0 0 0 0 0 0 0 0 127 0" result="hardAlpha"/>
<feOffset dy="4"/>
<feGaussianBlur stdDeviation="2"/>
<feComposite in2="hardAlpha" operator="arithmetic" k2="-1" k3="1"/>
<feColorMatrix type="matrix" values="0 0 0 0 0 0 0 0 0 0 0 0 0 0 0 0 0 0 0.25 0"/>
<feBlend mode="normal" in2="effect1_innerShadow_3_3459" result="effect2_innerShadow_3_3459"/>
</filter>
<filter id="filter6_ii_3_3459" x="51.6429" y="20.3707" width="16.7143" height="17.2586" filterUnits="userSpaceOnUse" color-interpolation-filters="sRGB">
<feFlood flood-opacity="0" result="BackgroundImageFix"/>
<feBlend mode="normal" in="SourceGraphic" in2="BackgroundImageFix" result="shape"/>
<feColorMatrix in="SourceAlpha" type="matrix" values="0 0 0 0 0 0 0 0 0 0 0 0 0 0 0 0 0 0 127 0" result="hardAlpha"/>
<feOffset dy="4"/>
<feGaussianBlur stdDeviation="2"/>
<feComposite in2="hardAlpha" operator="arithmetic" k2="-1" k3="1"/>
<feColorMatrix type="matrix" values="0 0 0 0 0.991667 0 0 0 0 0.991667 0 0 0 0 0.991667 0 0 0 0.25 0"/>
<feBlend mode="normal" in2="shape" result="effect1_innerShadow_3_3459"/>
<feColorMatrix in="SourceAlpha" type="matrix" values="0 0 0 0 0 0 0 0 0 0 0 0 0 0 0 0 0 0 127 0" result="hardAlpha"/>
<feOffset dy="4"/>
<feGaussianBlur stdDeviation="2"/>
<feComposite in2="hardAlpha" operator="arithmetic" k2="-1" k3="1"/>
<feColorMatrix type="matrix" values="0 0 0 0 0 0 0 0 0 0 0 0 0 0 0 0 0 0 0.25 0"/>
<feBlend mode="normal" in2="effect1_innerShadow_3_3459" result="effect2_innerShadow_3_3459"/>
</filter>
<linearGradient id="paint0_linear_3_3459" x1="41" y1="0" x2="41" y2="60" gradientUnits="userSpaceOnUse">
<stop stop-color="#F2F2F2" stop-opacity="0.23"/>
<stop offset="1" stop-color="white" stop-opacity="0"/>
</linearGradient>
<radialGradient id="paint1_radial_3_3459" cx="0" cy="0" r="1" gradientUnits="userSpaceOnUse" gradientTransform="translate(41 30) rotate(90) scale(30 41)">
<stop stop-color="#F2F2F2"/>
<stop offset="1" stop-opacity="0.25"/>
</radialGradient>
<linearGradient id="paint2_linear_3_3459" x1="42" y1="38" x2="42" y2="40" gradientUnits="userSpaceOnUse">
<stop stop-color="#00A09D"/>
<stop offset="1" stop-color="#00E2FF"/>
</linearGradient>
<linearGradient id="paint3_linear_3_3459" x1="22.1925" y1="21.0436" x2="27.7719" y2="26.607" gradientUnits="userSpaceOnUse">
<stop stop-color="#C26715"/>
<stop offset="0.508" stop-color="#B85515"/>
<stop offset="1" stop-color="#AD3F16"/>
</linearGradient>
<linearGradient id="paint4_linear_3_3459" x1="15.8465" y1="18.8901" x2="23.4633" y2="24.8296" gradientUnits="userSpaceOnUse">
<stop stop-color="#EBA84B"/>
<stop offset="1" stop-color="#D97218"/>
</linearGradient>
<linearGradient id="paint5_linear_3_3459" x1="23.3016" y1="24.9877" x2="30.2682" y2="32.1609" gradientUnits="userSpaceOnUse">
<stop stop-color="#EBA600"/>
<stop offset="1" stop-color="#C28200"/>
</linearGradient>
<linearGradient id="paint6_linear_3_3459" x1="15.1563" y1="23.4773" x2="24.8322" y2="33.4403" gradientUnits="userSpaceOnUse">
<stop stop-color="#FFD869"/>
<stop offset="1" stop-color="#FEC52B"/>
</linearGradient>
<linearGradient id="paint7_linear_3_3459" x1="19.4786" y1="25.7994" x2="19.4786" y2="14.1204" gradientUnits="userSpaceOnUse">
<stop stop-color="#EBA600"/>
<stop offset="1" stop-color="#C28200"/>
</linearGradient>
<linearGradient id="paint8_linear_3_3459" x1="27.836" y1="25.7953" x2="27.836" y2="24.2643" gradientUnits="userSpaceOnUse">
<stop stop-color="#FFD869"/>
<stop offset="1" stop-color="#FEC52B"/>
</linearGradient>
<linearGradient id="paint9_linear_3_3459" x1="22.1925" y1="21.0436" x2="27.7719" y2="26.607" gradientUnits="userSpaceOnUse">
<stop stop-color="#C26715"/>
<stop offset="0.508" stop-color="#B85515"/>
<stop offset="1" stop-color="#AD3F16"/>
</linearGradient>
<linearGradient id="paint10_linear_3_3459" x1="15.8465" y1="18.8901" x2="23.4633" y2="24.8296" gradientUnits="userSpaceOnUse">
<stop stop-color="#EBA84B"/>
<stop offset="1" stop-color="#D97218"/>
</linearGradient>
<linearGradient id="paint11_linear_3_3459" x1="23.3016" y1="24.9877" x2="30.2682" y2="32.1609" gradientUnits="userSpaceOnUse">
<stop stop-color="#EBA600"/>
<stop offset="1" stop-color="#C28200"/>
</linearGradient>
<linearGradient id="paint12_linear_3_3459" x1="15.1563" y1="23.4773" x2="24.8322" y2="33.4403" gradientUnits="userSpaceOnUse">
<stop stop-color="#FFD869"/>
<stop offset="1" stop-color="#FEC52B"/>
</linearGradient>
<linearGradient id="paint13_linear_3_3459" x1="19.4786" y1="25.7994" x2="19.4786" y2="14.1204" gradientUnits="userSpaceOnUse">
<stop stop-color="#EBA600"/>
<stop offset="1" stop-color="#C28200"/>
</linearGradient>
<linearGradient id="paint14_linear_3_3459" x1="27.836" y1="25.7953" x2="27.836" y2="24.2643" gradientUnits="userSpaceOnUse">
<stop stop-color="#FFD869"/>
<stop offset="1" stop-color="#FEC52B"/>
</linearGradient>
<linearGradient id="paint15_linear_3_3459" x1="41.1925" y1="21.0436" x2="46.7719" y2="26.607" gradientUnits="userSpaceOnUse">
<stop stop-color="#C26715"/>
<stop offset="0.508" stop-color="#B85515"/>
<stop offset="1" stop-color="#AD3F16"/>
</linearGradient>
<linearGradient id="paint16_linear_3_3459" x1="34.8465" y1="18.8901" x2="42.4633" y2="24.8296" gradientUnits="userSpaceOnUse">
<stop stop-color="#EBA84B"/>
<stop offset="1" stop-color="#D97218"/>
</linearGradient>
<linearGradient id="paint17_linear_3_3459" x1="42.3016" y1="24.9877" x2="49.2682" y2="32.1609" gradientUnits="userSpaceOnUse">
<stop stop-color="#EBA600"/>
<stop offset="1" stop-color="#C28200"/>
</linearGradient>
<linearGradient id="paint18_linear_3_3459" x1="34.1563" y1="23.4773" x2="43.8322" y2="33.4403" gradientUnits="userSpaceOnUse">
<stop stop-color="#FFD869"/>
<stop offset="1" stop-color="#FEC52B"/>
</linearGradient>
<linearGradient id="paint19_linear_3_3459" x1="38.4786" y1="25.7994" x2="38.4786" y2="14.1204" gradientUnits="userSpaceOnUse">
<stop stop-color="#EBA600"/>
<stop offset="1" stop-color="#C28200"/>
</linearGradient>
<linearGradient id="paint20_linear_3_3459" x1="46.836" y1="25.7953" x2="46.836" y2="24.2643" gradientUnits="userSpaceOnUse">
<stop stop-color="#FFD869"/>
<stop offset="1" stop-color="#FEC52B"/>
</linearGradient>
<linearGradient id="paint21_linear_3_3459" x1="41.1925" y1="21.0436" x2="46.7719" y2="26.607" gradientUnits="userSpaceOnUse">
<stop stop-color="#C26715"/>
<stop offset="0.508" stop-color="#B85515"/>
<stop offset="1" stop-color="#AD3F16"/>
</linearGradient>
<linearGradient id="paint22_linear_3_3459" x1="34.8465" y1="18.8901" x2="42.4633" y2="24.8296" gradientUnits="userSpaceOnUse">
<stop stop-color="#EBA84B"/>
<stop offset="1" stop-color="#D97218"/>
</linearGradient>
<linearGradient id="paint23_linear_3_3459" x1="42.3016" y1="24.9877" x2="49.2682" y2="32.1609" gradientUnits="userSpaceOnUse">
<stop stop-color="#EBA600"/>
<stop offset="1" stop-color="#C28200"/>
</linearGradient>
<linearGradient id="paint24_linear_3_3459" x1="34.1563" y1="23.4773" x2="43.8322" y2="33.4403" gradientUnits="userSpaceOnUse">
<stop stop-color="#FFD869"/>
<stop offset="1" stop-color="#FEC52B"/>
</linearGradient>
<linearGradient id="paint25_linear_3_3459" x1="38.4786" y1="25.7994" x2="38.4786" y2="14.1204" gradientUnits="userSpaceOnUse">
<stop stop-color="#EBA600"/>
<stop offset="1" stop-color="#C28200"/>
</linearGradient>
<linearGradient id="paint26_linear_3_3459" x1="46.836" y1="25.7953" x2="46.836" y2="24.2643" gradientUnits="userSpaceOnUse">
<stop stop-color="#FFD869"/>
<stop offset="1" stop-color="#FEC52B"/>
</linearGradient>
<linearGradient id="paint27_linear_3_3459" x1="60.1925" y1="21.0436" x2="65.7719" y2="26.607" gradientUnits="userSpaceOnUse">
<stop stop-color="#C26715"/>
<stop offset="0.508" stop-color="#B85515"/>
<stop offset="1" stop-color="#AD3F16"/>
</linearGradient>
<linearGradient id="paint28_linear_3_3459" x1="53.8465" y1="18.8901" x2="61.4633" y2="24.8296" gradientUnits="userSpaceOnUse">
<stop stop-color="#EBA84B"/>
<stop offset="1" stop-color="#D97218"/>
</linearGradient>
<linearGradient id="paint29_linear_3_3459" x1="61.3016" y1="24.9877" x2="68.2682" y2="32.1609" gradientUnits="userSpaceOnUse">
<stop stop-color="#EBA600"/>
<stop offset="1" stop-color="#C28200"/>
</linearGradient>
<linearGradient id="paint30_linear_3_3459" x1="53.1563" y1="23.4773" x2="62.8322" y2="33.4403" gradientUnits="userSpaceOnUse">
<stop stop-color="#FFD869"/>
<stop offset="1" stop-color="#FEC52B"/>
</linearGradient>
<linearGradient id="paint31_linear_3_3459" x1="57.4786" y1="25.7994" x2="57.4786" y2="14.1204" gradientUnits="userSpaceOnUse">
<stop stop-color="#EBA600"/>
<stop offset="1" stop-color="#C28200"/>
</linearGradient>
<linearGradient id="paint32_linear_3_3459" x1="65.836" y1="25.7953" x2="65.836" y2="24.2643" gradientUnits="userSpaceOnUse">
<stop stop-color="#FFD869"/>
<stop offset="1" stop-color="#FEC52B"/>
</linearGradient>
<linearGradient id="paint33_linear_3_3459" x1="60.1925" y1="21.0436" x2="65.7719" y2="26.607" gradientUnits="userSpaceOnUse">
<stop stop-color="#C26715"/>
<stop offset="0.508" stop-color="#B85515"/>
<stop offset="1" stop-color="#AD3F16"/>
</linearGradient>
<linearGradient id="paint34_linear_3_3459" x1="53.8465" y1="18.8901" x2="61.4633" y2="24.8296" gradientUnits="userSpaceOnUse">
<stop stop-color="#EBA84B"/>
<stop offset="1" stop-color="#D97218"/>
</linearGradient>
<linearGradient id="paint35_linear_3_3459" x1="61.3016" y1="24.9877" x2="68.2682" y2="32.1609" gradientUnits="userSpaceOnUse">
<stop stop-color="#EBA600"/>
<stop offset="1" stop-color="#C28200"/>
</linearGradient>
<linearGradient id="paint36_linear_3_3459" x1="53.1563" y1="23.4773" x2="62.8322" y2="33.4403" gradientUnits="userSpaceOnUse">
<stop stop-color="#FFD869"/>
<stop offset="1" stop-color="#FEC52B"/>
</linearGradient>
<linearGradient id="paint37_linear_3_3459" x1="57.4786" y1="25.7994" x2="57.4786" y2="14.1204" gradientUnits="userSpaceOnUse">
<stop stop-color="#EBA600"/>
<stop offset="1" stop-color="#C28200"/>
</linearGradient>
<linearGradient id="paint38_linear_3_3459" x1="65.836" y1="25.7953" x2="65.836" y2="24.2643" gradientUnits="userSpaceOnUse">
<stop stop-color="#FFD869"/>
<stop offset="1" stop-color="#FEC52B"/>
</linearGradient>
<clipPath id="clip0_3_3459">
<rect width="82" height="60" rx="3" fill="white"/>
</clipPath>
</defs>
</svg>
