<svg width="82" height="60" viewBox="0 0 82 60" fill="none" xmlns="http://www.w3.org/2000/svg">
<g filter="url(#filter0_b_3_3514)">
<g clip-path="url(#clip0_3_3514)">
<rect width="82" height="60" rx="3" fill="url(#paint0_linear_3_3514)"/>
<rect width="82" height="60" rx="3" fill="url(#paint1_radial_3_3514)" fill-opacity="0.2"/>
<rect width="82" height="60" rx="3" fill="white" fill-opacity="0.2"/>
<g opacity="0.4">
<path d="M82 17H0V45H82V17Z" fill="url(#paint2_linear_3_3514)"/>
</g>
<path fill-rule="evenodd" clip-rule="evenodd" d="M70.5 25.648L74.659 30.5L70.5 35.352V25.648ZM11.5 25.648V35.352L7.341 30.5L11.5 25.648Z" fill="white" stroke="white"/>
<g filter="url(#filter1_i_3_3514)">
<path d="M19.193 29C19.642 29 20.032 28.84 20.362 28.521C20.692 28.202 20.857 27.83 20.857 27.405C20.857 27.198 20.827 26.999 20.766 26.806C20.7023 26.6089 20.5953 26.4285 20.453 26.278C20.2847 26.1019 20.077 25.9683 19.847 25.888C19.597 25.796 19.273 25.749 18.876 25.749H18.337C18.401 25.058 18.638 24.469 19.049 23.984C19.459 23.499 20.027 23.074 20.751 22.708L20.328 22C19.4091 22.4203 18.603 23.0526 17.976 23.845C17.326 24.655 17 25.46 17 26.258C17 27.115 17.19 27.787 17.568 28.272C17.946 28.757 18.488 29 19.193 29ZM24.336 29C24.785 29 25.174 28.84 25.505 28.521C25.835 28.202 26 27.83 26 27.405C26 27.198 25.97 26.999 25.909 26.806C25.8453 26.6089 25.7383 26.4285 25.596 26.278C25.4277 26.1019 25.22 25.9683 24.99 25.888C24.74 25.796 24.416 25.749 24.019 25.749H23.479C23.544 25.058 23.781 24.469 24.192 23.984C24.602 23.499 25.17 23.074 25.894 22.708L25.471 22C24.5521 22.4203 23.746 23.0526 23.119 23.845C22.469 24.655 22.143 25.46 22.143 26.258C22.143 27.115 22.332 27.787 22.71 28.272C23.089 28.757 23.63 29 24.336 29Z" fill="black"/>
</g>
<path d="M19.193 29C19.642 29 20.032 28.84 20.362 28.521C20.692 28.202 20.857 27.83 20.857 27.405C20.857 27.198 20.827 26.999 20.766 26.806C20.7023 26.6089 20.5953 26.4285 20.453 26.278C20.2847 26.1019 20.077 25.9683 19.847 25.888C19.597 25.796 19.273 25.749 18.876 25.749H18.337C18.401 25.058 18.638 24.469 19.049 23.984C19.459 23.499 20.027 23.074 20.751 22.708L20.328 22C19.4091 22.4203 18.603 23.0526 17.976 23.845C17.326 24.655 17 25.46 17 26.258C17 27.115 17.19 27.787 17.568 28.272C17.946 28.757 18.488 29 19.193 29ZM24.336 29C24.785 29 25.174 28.84 25.505 28.521C25.835 28.202 26 27.83 26 27.405C26 27.198 25.97 26.999 25.909 26.806C25.8453 26.6089 25.7383 26.4285 25.596 26.278C25.4277 26.1019 25.22 25.9683 24.99 25.888C24.74 25.796 24.416 25.749 24.019 25.749H23.479C23.544 25.058 23.781 24.469 24.192 23.984C24.602 23.499 25.17 23.074 25.894 22.708L25.471 22C24.5521 22.4203 23.746 23.0526 23.119 23.845C22.469 24.655 22.143 25.46 22.143 26.258C22.143 27.115 22.332 27.787 22.71 28.272C23.089 28.757 23.63 29 24.336 29Z" fill="white" fill-opacity="0.78"/>
<g filter="url(#filter2_i_3_3514)">
<path d="M49 28H30V31H49V28Z" fill="black"/>
</g>
<path d="M49 28H30V31H49V28Z" fill="white" fill-opacity="0.95"/>
<g filter="url(#filter3_i_3_3514)">
<path d="M55.549 36C56.4954 35.5847 57.3308 34.9527 57.988 34.155C58.663 33.345 59 32.54 59 31.742C59 30.885 58.804 30.213 58.411 29.728C58.02 29.243 57.457 29 56.726 29C56.26 29 55.856 29.16 55.514 29.479C55.171 29.798 55 30.17 55 30.595C55 30.802 55.032 31.001 55.095 31.194C55.158 31.387 55.266 31.563 55.419 31.722C55.579 31.888 55.788 32.018 56.047 32.112C56.307 32.204 56.643 32.251 57.055 32.251H57.613C57.547 32.942 57.301 33.531 56.875 34.016C56.45 34.501 55.861 34.926 55.11 35.292L55.549 36ZM60.549 36C61.4954 35.5847 62.3308 34.9527 62.988 34.155C63.663 33.345 64 32.54 64 31.742C64 30.885 63.804 30.213 63.411 29.728C63.02 29.243 62.457 29 61.726 29C61.26 29 60.856 29.16 60.514 29.479C60.171 29.798 60 30.17 60 30.595C60 30.802 60.032 31.001 60.095 31.194C60.158 31.387 60.266 31.563 60.419 31.722C60.579 31.888 60.788 32.018 61.047 32.112C61.307 32.204 61.643 32.251 62.055 32.251H62.613C62.547 32.942 62.301 33.531 61.875 34.016C61.45 34.501 60.861 34.926 60.11 35.292L60.549 36Z" fill="black"/>
</g>
<path d="M55.549 36C56.4954 35.5847 57.3308 34.9527 57.988 34.155C58.663 33.345 59 32.54 59 31.742C59 30.885 58.804 30.213 58.411 29.728C58.02 29.243 57.457 29 56.726 29C56.26 29 55.856 29.16 55.514 29.479C55.171 29.798 55 30.17 55 30.595C55 30.802 55.032 31.001 55.095 31.194C55.158 31.387 55.266 31.563 55.419 31.722C55.579 31.888 55.788 32.018 56.047 32.112C56.307 32.204 56.643 32.251 57.055 32.251H57.613C57.547 32.942 57.301 33.531 56.875 34.016C56.45 34.501 55.861 34.926 55.11 35.292L55.549 36ZM60.549 36C61.4954 35.5847 62.3308 34.9527 62.988 34.155C63.663 33.345 64 32.54 64 31.742C64 30.885 63.804 30.213 63.411 29.728C63.02 29.243 62.457 29 61.726 29C61.26 29 60.856 29.16 60.514 29.479C60.171 29.798 60 30.17 60 30.595C60 30.802 60.032 31.001 60.095 31.194C60.158 31.387 60.266 31.563 60.419 31.722C60.579 31.888 60.788 32.018 61.047 32.112C61.307 32.204 61.643 32.251 62.055 32.251H62.613C62.547 32.942 62.301 33.531 61.875 34.016C61.45 34.501 60.861 34.926 60.11 35.292L60.549 36Z" fill="white" fill-opacity="0.78"/>
</g>
</g>
<defs>
<filter id="filter0_b_3_3514" x="-4" y="-4" width="90" height="68" filterUnits="userSpaceOnUse" color-interpolation-filters="sRGB">
<feFlood flood-opacity="0" result="BackgroundImageFix"/>
<feGaussianBlur in="BackgroundImageFix" stdDeviation="2"/>
<feComposite in2="SourceAlpha" operator="in" result="effect1_backgroundBlur_3_3514"/>
<feBlend mode="normal" in="SourceGraphic" in2="effect1_backgroundBlur_3_3514" result="shape"/>
</filter>
<filter id="filter1_i_3_3514" x="17" y="22" width="9" height="8" filterUnits="userSpaceOnUse" color-interpolation-filters="sRGB">
<feFlood flood-opacity="0" result="BackgroundImageFix"/>
<feBlend mode="normal" in="SourceGraphic" in2="BackgroundImageFix" result="shape"/>
<feColorMatrix in="SourceAlpha" type="matrix" values="0 0 0 0 0 0 0 0 0 0 0 0 0 0 0 0 0 0 127 0" result="hardAlpha"/>
<feOffset dy="1"/>
<feGaussianBlur stdDeviation="2"/>
<feComposite in2="hardAlpha" operator="arithmetic" k2="-1" k3="1"/>
<feColorMatrix type="matrix" values="0 0 0 0 1 0 0 0 0 1 0 0 0 0 1 0 0 0 0.292013 0"/>
<feBlend mode="normal" in2="shape" result="effect1_innerShadow_3_3514"/>
</filter>
<filter id="filter2_i_3_3514" x="30" y="28" width="19" height="4" filterUnits="userSpaceOnUse" color-interpolation-filters="sRGB">
<feFlood flood-opacity="0" result="BackgroundImageFix"/>
<feBlend mode="normal" in="SourceGraphic" in2="BackgroundImageFix" result="shape"/>
<feColorMatrix in="SourceAlpha" type="matrix" values="0 0 0 0 0 0 0 0 0 0 0 0 0 0 0 0 0 0 127 0" result="hardAlpha"/>
<feOffset dy="1"/>
<feGaussianBlur stdDeviation="2"/>
<feComposite in2="hardAlpha" operator="arithmetic" k2="-1" k3="1"/>
<feColorMatrix type="matrix" values="0 0 0 0 1 0 0 0 0 1 0 0 0 0 1 0 0 0 0.4 0"/>
<feBlend mode="normal" in2="shape" result="effect1_innerShadow_3_3514"/>
</filter>
<filter id="filter3_i_3_3514" x="55" y="29" width="9" height="8" filterUnits="userSpaceOnUse" color-interpolation-filters="sRGB">
<feFlood flood-opacity="0" result="BackgroundImageFix"/>
<feBlend mode="normal" in="SourceGraphic" in2="BackgroundImageFix" result="shape"/>
<feColorMatrix in="SourceAlpha" type="matrix" values="0 0 0 0 0 0 0 0 0 0 0 0 0 0 0 0 0 0 127 0" result="hardAlpha"/>
<feOffset dy="1"/>
<feGaussianBlur stdDeviation="2"/>
<feComposite in2="hardAlpha" operator="arithmetic" k2="-1" k3="1"/>
<feColorMatrix type="matrix" values="0 0 0 0 1 0 0 0 0 1 0 0 0 0 1 0 0 0 0.292013 0"/>
<feBlend mode="normal" in2="shape" result="effect1_innerShadow_3_3514"/>
</filter>
<linearGradient id="paint0_linear_3_3514" x1="41" y1="0" x2="41" y2="60" gradientUnits="userSpaceOnUse">
<stop stop-color="#F2F2F2" stop-opacity="0.23"/>
<stop offset="1" stop-color="white" stop-opacity="0"/>
</linearGradient>
<radialGradient id="paint1_radial_3_3514" cx="0" cy="0" r="1" gradientUnits="userSpaceOnUse" gradientTransform="translate(41 30) rotate(90) scale(30 41)">
<stop stop-color="#F2F2F2"/>
<stop offset="1" stop-opacity="0.25"/>
</radialGradient>
<linearGradient id="paint2_linear_3_3514" x1="7.62565e-08" y1="29.3676" x2="74.4355" y2="54.7852" gradientUnits="userSpaceOnUse">
<stop stop-color="#00A09D"/>
<stop offset="1" stop-color="#00E2FF"/>
</linearGradient>
<clipPath id="clip0_3_3514">
<rect width="82" height="60" rx="3" fill="white"/>
</clipPath>
</defs>
</svg>
