<svg width="82" height="60" viewBox="0 0 82 60" fill="none" xmlns="http://www.w3.org/2000/svg">
<g filter="url(#filter0_b_3_3495)">
<g clip-path="url(#clip0_3_3495)">
<rect width="82" height="60" rx="3" fill="url(#paint0_linear_3_3495)"/>
<rect width="82" height="60" rx="3" fill="url(#paint1_radial_3_3495)" fill-opacity="0.2"/>
<rect width="82" height="60" rx="3" fill="white" fill-opacity="0.2"/>
<g filter="url(#filter1_i_3_3495)">
<path d="M42 24H20V26H42V24Z" fill="black"/>
</g>
<path d="M42 24H20V26H42V24Z" fill="white" fill-opacity="0.95"/>
<g filter="url(#filter2_i_3_3495)">
<path d="M63 32.1C63 32.174 62.953 32.255 62.86 32.342L60.896 34.127L61.361 36.647C61.3654 36.6805 61.3674 36.7142 61.367 36.748C61.367 36.818 61.347 36.878 61.31 36.927C61.272 36.976 61.217 37 61.145 37C61.0688 36.9982 60.9943 36.9776 60.928 36.94L58.5 35.75L56.072 36.94C56.0054 36.9767 55.931 36.9973 55.855 37C55.779 37 55.723 36.976 55.685 36.927C55.6462 36.8756 55.6261 36.8124 55.628 36.748C55.628 36.728 55.632 36.694 55.638 36.648L56.104 34.127L54.135 32.342C54.045 32.252 54 32.171 54 32.1C54 31.976 54.101 31.899 54.303 31.868L57.018 31.5L58.235 29.207C58.303 29.069 58.392 29 58.5 29C58.608 29 58.697 29.069 58.765 29.207L59.982 31.5L62.697 31.868C62.899 31.898 63 31.976 63 32.1Z" fill="black"/>
</g>
<path d="M63 32.1C63 32.174 62.953 32.255 62.86 32.342L60.896 34.127L61.361 36.647C61.3654 36.6805 61.3674 36.7142 61.367 36.748C61.367 36.818 61.347 36.878 61.31 36.927C61.272 36.976 61.217 37 61.145 37C61.0688 36.9982 60.9943 36.9776 60.928 36.94L58.5 35.75L56.072 36.94C56.0054 36.9767 55.931 36.9973 55.855 37C55.779 37 55.723 36.976 55.685 36.927C55.6462 36.8756 55.6261 36.8124 55.628 36.748C55.628 36.728 55.632 36.694 55.638 36.648L56.104 34.127L54.135 32.342C54.045 32.252 54 32.171 54 32.1C54 31.976 54.101 31.899 54.303 31.868L57.018 31.5L58.235 29.207C58.303 29.069 58.392 29 58.5 29C58.608 29 58.697 29.069 58.765 29.207L59.982 31.5L62.697 31.868C62.899 31.898 63 31.976 63 32.1Z" fill="#F0B421"/>
<g filter="url(#filter3_i_3_3495)">
<path d="M51 32.1C51 32.174 50.953 32.255 50.86 32.342L48.896 34.127L49.361 36.647C49.3654 36.6805 49.3674 36.7142 49.367 36.748C49.367 36.818 49.347 36.878 49.31 36.927C49.272 36.976 49.217 37 49.145 37C49.0688 36.9982 48.9943 36.9776 48.928 36.94L46.5 35.75L44.072 36.94C44.0054 36.9767 43.931 36.9973 43.855 37C43.779 37 43.723 36.976 43.685 36.927C43.6462 36.8756 43.6261 36.8124 43.628 36.748C43.628 36.728 43.632 36.694 43.638 36.648L44.104 34.127L42.135 32.342C42.045 32.252 42 32.171 42 32.1C42 31.976 42.101 31.899 42.303 31.868L45.018 31.5L46.235 29.207C46.303 29.069 46.392 29 46.5 29C46.608 29 46.697 29.069 46.765 29.207L47.982 31.5L50.697 31.868C50.899 31.898 51 31.976 51 32.1Z" fill="black"/>
</g>
<path d="M51 32.1C51 32.174 50.953 32.255 50.86 32.342L48.896 34.127L49.361 36.647C49.3654 36.6805 49.3674 36.7142 49.367 36.748C49.367 36.818 49.347 36.878 49.31 36.927C49.272 36.976 49.217 37 49.145 37C49.0688 36.9982 48.9943 36.9776 48.928 36.94L46.5 35.75L44.072 36.94C44.0054 36.9767 43.931 36.9973 43.855 37C43.779 37 43.723 36.976 43.685 36.927C43.6462 36.8756 43.6261 36.8124 43.628 36.748C43.628 36.728 43.632 36.694 43.638 36.648L44.104 34.127L42.135 32.342C42.045 32.252 42 32.171 42 32.1C42 31.976 42.101 31.899 42.303 31.868L45.018 31.5L46.235 29.207C46.303 29.069 46.392 29 46.5 29C46.608 29 46.697 29.069 46.765 29.207L47.982 31.5L50.697 31.868C50.899 31.898 51 31.976 51 32.1Z" fill="#F0B421"/>
<path fill-rule="evenodd" clip-rule="evenodd" d="M39 32.1C39 32.174 38.958 32.255 38.875 32.342L37.13 34.127L37.543 36.647C37.5468 36.6805 37.5485 36.7143 37.548 36.748C37.548 36.818 37.531 36.878 37.498 36.927C37.4819 36.9508 37.4598 36.97 37.4341 36.9828C37.4083 36.9956 37.3797 37.0015 37.351 37C37.2827 36.9978 37.2164 36.9771 37.159 36.94L35 35.75L32.841 36.94C32.7832 36.9762 32.7171 36.9969 32.649 37C32.582 37 32.531 36.976 32.498 36.927C32.4632 36.8739 32.4458 36.8114 32.448 36.748C32.448 36.728 32.45 36.694 32.457 36.648L32.87 34.127L31.12 32.342C31.04 32.252 31 32.171 31 32.1C31 31.976 31.09 31.899 31.27 31.868L33.683 31.5L34.764 29.207C34.825 29.069 34.904 29 35 29C35.096 29 35.175 29.069 35.236 29.207L36.317 31.5L38.731 31.868C38.911 31.898 39 31.976 39 32.1Z" fill="url(#paint2_linear_3_3495)"/>
<path fill-rule="evenodd" clip-rule="evenodd" d="M28 32.1C28 32.174 27.958 32.255 27.875 32.342L26.13 34.127L26.543 36.647C26.5468 36.6805 26.5485 36.7143 26.548 36.748C26.548 36.818 26.531 36.878 26.498 36.927C26.4818 36.9509 26.4596 36.9703 26.4336 36.9831C26.4077 36.9959 26.3789 37.0017 26.35 37C26.2817 36.9978 26.2154 36.9771 26.158 36.94L24 35.75L21.841 36.94C21.7833 36.9762 21.7171 36.9969 21.649 37C21.582 37 21.531 36.976 21.498 36.927C21.4632 36.8739 21.4458 36.8114 21.448 36.748C21.448 36.728 21.45 36.694 21.457 36.648L21.87 34.127L20.12 32.342C20.04 32.252 20 32.171 20 32.1C20 31.976 20.09 31.899 20.27 31.868L22.682 31.5L23.763 29.207C23.825 29.069 23.904 29 24 29C24.096 29 24.175 29.069 24.236 29.207L25.317 31.5L27.731 31.868C27.911 31.898 28 31.976 28 32.1Z" fill="url(#paint3_linear_3_3495)"/>
</g>
</g>
<defs>
<filter id="filter0_b_3_3495" x="-4" y="-4" width="90" height="68" filterUnits="userSpaceOnUse" color-interpolation-filters="sRGB">
<feFlood flood-opacity="0" result="BackgroundImageFix"/>
<feGaussianBlur in="BackgroundImageFix" stdDeviation="2"/>
<feComposite in2="SourceAlpha" operator="in" result="effect1_backgroundBlur_3_3495"/>
<feBlend mode="normal" in="SourceGraphic" in2="effect1_backgroundBlur_3_3495" result="shape"/>
</filter>
<filter id="filter1_i_3_3495" x="20" y="24" width="22" height="3" filterUnits="userSpaceOnUse" color-interpolation-filters="sRGB">
<feFlood flood-opacity="0" result="BackgroundImageFix"/>
<feBlend mode="normal" in="SourceGraphic" in2="BackgroundImageFix" result="shape"/>
<feColorMatrix in="SourceAlpha" type="matrix" values="0 0 0 0 0 0 0 0 0 0 0 0 0 0 0 0 0 0 127 0" result="hardAlpha"/>
<feOffset dy="1"/>
<feGaussianBlur stdDeviation="2"/>
<feComposite in2="hardAlpha" operator="arithmetic" k2="-1" k3="1"/>
<feColorMatrix type="matrix" values="0 0 0 0 1 0 0 0 0 1 0 0 0 0 1 0 0 0 0.4 0"/>
<feBlend mode="normal" in2="shape" result="effect1_innerShadow_3_3495"/>
</filter>
<filter id="filter2_i_3_3495" x="54" y="29" width="9" height="9" filterUnits="userSpaceOnUse" color-interpolation-filters="sRGB">
<feFlood flood-opacity="0" result="BackgroundImageFix"/>
<feBlend mode="normal" in="SourceGraphic" in2="BackgroundImageFix" result="shape"/>
<feColorMatrix in="SourceAlpha" type="matrix" values="0 0 0 0 0 0 0 0 0 0 0 0 0 0 0 0 0 0 127 0" result="hardAlpha"/>
<feOffset dy="1"/>
<feGaussianBlur stdDeviation="2"/>
<feComposite in2="hardAlpha" operator="arithmetic" k2="-1" k3="1"/>
<feColorMatrix type="matrix" values="0 0 0 0 1 0 0 0 0 1 0 0 0 0 1 0 0 0 0.0995138 0"/>
<feBlend mode="normal" in2="shape" result="effect1_innerShadow_3_3495"/>
</filter>
<filter id="filter3_i_3_3495" x="42" y="29" width="9" height="9" filterUnits="userSpaceOnUse" color-interpolation-filters="sRGB">
<feFlood flood-opacity="0" result="BackgroundImageFix"/>
<feBlend mode="normal" in="SourceGraphic" in2="BackgroundImageFix" result="shape"/>
<feColorMatrix in="SourceAlpha" type="matrix" values="0 0 0 0 0 0 0 0 0 0 0 0 0 0 0 0 0 0 127 0" result="hardAlpha"/>
<feOffset dy="1"/>
<feGaussianBlur stdDeviation="2"/>
<feComposite in2="hardAlpha" operator="arithmetic" k2="-1" k3="1"/>
<feColorMatrix type="matrix" values="0 0 0 0 1 0 0 0 0 1 0 0 0 0 1 0 0 0 0.0995138 0"/>
<feBlend mode="normal" in2="shape" result="effect1_innerShadow_3_3495"/>
</filter>
<linearGradient id="paint0_linear_3_3495" x1="41" y1="0" x2="41" y2="60" gradientUnits="userSpaceOnUse">
<stop stop-color="#F2F2F2" stop-opacity="0.23"/>
<stop offset="1" stop-color="white" stop-opacity="0"/>
</linearGradient>
<radialGradient id="paint1_radial_3_3495" cx="0" cy="0" r="1" gradientUnits="userSpaceOnUse" gradientTransform="translate(41 30) rotate(90) scale(30 41)">
<stop stop-color="#F2F2F2"/>
<stop offset="1" stop-opacity="0.25"/>
</radialGradient>
<linearGradient id="paint2_linear_3_3495" x1="35" y1="29" x2="35" y2="37.0002" gradientUnits="userSpaceOnUse">
<stop stop-color="#00A09D"/>
<stop offset="1" stop-color="#00E2FF"/>
</linearGradient>
<linearGradient id="paint3_linear_3_3495" x1="24" y1="29" x2="24" y2="37.0003" gradientUnits="userSpaceOnUse">
<stop stop-color="#00A09D"/>
<stop offset="1" stop-color="#00E2FF"/>
</linearGradient>
<clipPath id="clip0_3_3495">
<rect width="82" height="60" rx="3" fill="white"/>
</clipPath>
</defs>
</svg>
