<svg width="82" height="60" viewBox="0 0 82 60" fill="none" xmlns="http://www.w3.org/2000/svg">
<g filter="url(#filter0_b_3_3652)">
<g clip-path="url(#clip0_3_3652)">
<rect width="82" height="60" rx="3" fill="url(#paint0_linear_3_3652)"/>
<rect width="82" height="60" rx="3" fill="url(#paint1_radial_3_3652)" fill-opacity="0.2"/>
<rect width="82" height="60" rx="3" fill="white" fill-opacity="0.2"/>
<g filter="url(#filter1_i_3_3652)">
<path d="M41 17H40V36H41V17Z" fill="black"/>
</g>
<path d="M41 17H40V36H41V17Z" fill="#F0B421"/>
<g filter="url(#filter2_i_3_3652)">
<path d="M27 33V34H16V33H27ZM27 22V23H19V22H27Z" fill="black"/>
</g>
<path d="M27 33V34H16V33H27ZM27 22V23H19V22H27Z" fill="#F0B421"/>
<g filter="url(#filter3_i_3_3652)">
<path d="M27 29V31H14V29H27ZM27 18V20H14V18H27Z" fill="black"/>
</g>
<path d="M27 29V31H14V29H27ZM27 18V20H14V18H27Z" fill="white" fill-opacity="0.78"/>
<g filter="url(#filter4_i_3_3652)">
<path d="M47 39H34V44H47V39Z" fill="black"/>
</g>
<path d="M47 39H34V44H47V39Z" fill="white" fill-opacity="0.78"/>
<g filter="url(#filter5_i_3_3652)">
<path d="M46 40H35V43H46V40Z" fill="black"/>
</g>
<path d="M46 40H35V43H46V40Z" fill="black" fill-opacity="0.348"/>
<g filter="url(#filter6_i_3_3652)">
<path d="M65 33V34H54V33H65ZM65 22V23H54V22H65Z" fill="black"/>
</g>
<path d="M65 33V34H54V33H65ZM65 22V23H54V22H65Z" fill="#F0B421"/>
<g filter="url(#filter7_i_3_3652)">
<path d="M68 29V31H54V29H68ZM64 18V20H54V18H64Z" fill="black"/>
</g>
<path d="M68 29V31H54V29H68ZM64 18V20H54V18H64Z" fill="white" fill-opacity="0.78"/>
<path fill-rule="evenodd" clip-rule="evenodd" d="M32 29C32.7956 29 33.5587 29.3161 34.1213 29.8787C34.6839 30.4413 35 31.2044 35 32C35 32.7956 34.6839 33.5587 34.1213 34.1213C33.5587 34.6839 32.7956 35 32 35C31.2044 35 30.4413 34.6839 29.8787 34.1213C29.3161 33.5587 29 32.7956 29 32C29 31.2044 29.3161 30.4413 29.8787 29.8787C30.4413 29.3161 31.2044 29 32 29ZM32 18C32.394 18 32.7841 18.0776 33.1481 18.2284C33.512 18.3791 33.8427 18.6001 34.1213 18.8787C34.3999 19.1573 34.6209 19.488 34.7716 19.8519C34.9224 20.2159 35 20.606 35 21C35 21.394 34.9224 21.7841 34.7716 22.1481C34.6209 22.512 34.3999 22.8427 34.1213 23.1213C33.8427 23.3999 33.512 23.6209 33.1481 23.7716C32.7841 23.9224 32.394 24 32 24C31.2044 24 30.4413 23.6839 29.8787 23.1213C29.3161 22.5587 29 21.7956 29 21C29 20.2044 29.3161 19.4413 29.8787 18.8787C30.4413 18.3161 31.2044 18 32 18ZM49 29C49.7956 29 50.5587 29.3161 51.1213 29.8787C51.6839 30.4413 52 31.2044 52 32C52 32.7956 51.6839 33.5587 51.1213 34.1213C50.5587 34.6839 49.7956 35 49 35C48.2044 35 47.4413 34.6839 46.8787 34.1213C46.3161 33.5587 46 32.7956 46 32C46 31.2044 46.3161 30.4413 46.8787 29.8787C47.4413 29.3161 48.2044 29 49 29ZM49 18C49.394 18 49.7841 18.0776 50.1481 18.2284C50.512 18.3791 50.8427 18.6001 51.1213 18.8787C51.3999 19.1573 51.6209 19.488 51.7716 19.8519C51.9224 20.2159 52 20.606 52 21C52 21.394 51.9224 21.7841 51.7716 22.1481C51.6209 22.512 51.3999 22.8427 51.1213 23.1213C50.8427 23.3999 50.512 23.6209 50.1481 23.7716C49.7841 23.9224 49.394 24 49 24C48.2044 24 47.4413 23.6839 46.8787 23.1213C46.3161 22.5587 46 21.7956 46 21C46 20.2044 46.3161 19.4413 46.8787 18.8787C47.4413 18.3161 48.2044 18 49 18Z" fill="url(#paint2_linear_3_3652)"/>
</g>
</g>
<defs>
<filter id="filter0_b_3_3652" x="-4" y="-4" width="90" height="68" filterUnits="userSpaceOnUse" color-interpolation-filters="sRGB">
<feFlood flood-opacity="0" result="BackgroundImageFix"/>
<feGaussianBlur in="BackgroundImageFix" stdDeviation="2"/>
<feComposite in2="SourceAlpha" operator="in" result="effect1_backgroundBlur_3_3652"/>
<feBlend mode="normal" in="SourceGraphic" in2="effect1_backgroundBlur_3_3652" result="shape"/>
</filter>
<filter id="filter1_i_3_3652" x="40" y="17" width="1" height="20" filterUnits="userSpaceOnUse" color-interpolation-filters="sRGB">
<feFlood flood-opacity="0" result="BackgroundImageFix"/>
<feBlend mode="normal" in="SourceGraphic" in2="BackgroundImageFix" result="shape"/>
<feColorMatrix in="SourceAlpha" type="matrix" values="0 0 0 0 0 0 0 0 0 0 0 0 0 0 0 0 0 0 127 0" result="hardAlpha"/>
<feOffset dy="1"/>
<feGaussianBlur stdDeviation="2"/>
<feComposite in2="hardAlpha" operator="arithmetic" k2="-1" k3="1"/>
<feColorMatrix type="matrix" values="0 0 0 0 1 0 0 0 0 1 0 0 0 0 1 0 0 0 0.0995138 0"/>
<feBlend mode="normal" in2="shape" result="effect1_innerShadow_3_3652"/>
</filter>
<filter id="filter2_i_3_3652" x="16" y="22" width="11" height="13" filterUnits="userSpaceOnUse" color-interpolation-filters="sRGB">
<feFlood flood-opacity="0" result="BackgroundImageFix"/>
<feBlend mode="normal" in="SourceGraphic" in2="BackgroundImageFix" result="shape"/>
<feColorMatrix in="SourceAlpha" type="matrix" values="0 0 0 0 0 0 0 0 0 0 0 0 0 0 0 0 0 0 127 0" result="hardAlpha"/>
<feOffset dy="1"/>
<feGaussianBlur stdDeviation="2"/>
<feComposite in2="hardAlpha" operator="arithmetic" k2="-1" k3="1"/>
<feColorMatrix type="matrix" values="0 0 0 0 1 0 0 0 0 1 0 0 0 0 1 0 0 0 0.0995138 0"/>
<feBlend mode="normal" in2="shape" result="effect1_innerShadow_3_3652"/>
</filter>
<filter id="filter3_i_3_3652" x="14" y="18" width="13" height="14" filterUnits="userSpaceOnUse" color-interpolation-filters="sRGB">
<feFlood flood-opacity="0" result="BackgroundImageFix"/>
<feBlend mode="normal" in="SourceGraphic" in2="BackgroundImageFix" result="shape"/>
<feColorMatrix in="SourceAlpha" type="matrix" values="0 0 0 0 0 0 0 0 0 0 0 0 0 0 0 0 0 0 127 0" result="hardAlpha"/>
<feOffset dy="1"/>
<feGaussianBlur stdDeviation="2"/>
<feComposite in2="hardAlpha" operator="arithmetic" k2="-1" k3="1"/>
<feColorMatrix type="matrix" values="0 0 0 0 1 0 0 0 0 1 0 0 0 0 1 0 0 0 0.292013 0"/>
<feBlend mode="normal" in2="shape" result="effect1_innerShadow_3_3652"/>
</filter>
<filter id="filter4_i_3_3652" x="34" y="39" width="13" height="6" filterUnits="userSpaceOnUse" color-interpolation-filters="sRGB">
<feFlood flood-opacity="0" result="BackgroundImageFix"/>
<feBlend mode="normal" in="SourceGraphic" in2="BackgroundImageFix" result="shape"/>
<feColorMatrix in="SourceAlpha" type="matrix" values="0 0 0 0 0 0 0 0 0 0 0 0 0 0 0 0 0 0 127 0" result="hardAlpha"/>
<feOffset dy="1"/>
<feGaussianBlur stdDeviation="2"/>
<feComposite in2="hardAlpha" operator="arithmetic" k2="-1" k3="1"/>
<feColorMatrix type="matrix" values="0 0 0 0 1 0 0 0 0 1 0 0 0 0 1 0 0 0 0.292013 0"/>
<feBlend mode="normal" in2="shape" result="effect1_innerShadow_3_3652"/>
</filter>
<filter id="filter5_i_3_3652" x="35" y="40" width="11" height="4" filterUnits="userSpaceOnUse" color-interpolation-filters="sRGB">
<feFlood flood-opacity="0" result="BackgroundImageFix"/>
<feBlend mode="normal" in="SourceGraphic" in2="BackgroundImageFix" result="shape"/>
<feColorMatrix in="SourceAlpha" type="matrix" values="0 0 0 0 0 0 0 0 0 0 0 0 0 0 0 0 0 0 127 0" result="hardAlpha"/>
<feOffset dy="1"/>
<feGaussianBlur stdDeviation="2"/>
<feComposite in2="hardAlpha" operator="arithmetic" k2="-1" k3="1"/>
<feColorMatrix type="matrix" values="0 0 0 0 0 0 0 0 0 0 0 0 0 0 0 0 0 0 0.0995138 0"/>
<feBlend mode="normal" in2="shape" result="effect1_innerShadow_3_3652"/>
</filter>
<filter id="filter6_i_3_3652" x="54" y="22" width="11" height="13" filterUnits="userSpaceOnUse" color-interpolation-filters="sRGB">
<feFlood flood-opacity="0" result="BackgroundImageFix"/>
<feBlend mode="normal" in="SourceGraphic" in2="BackgroundImageFix" result="shape"/>
<feColorMatrix in="SourceAlpha" type="matrix" values="0 0 0 0 0 0 0 0 0 0 0 0 0 0 0 0 0 0 127 0" result="hardAlpha"/>
<feOffset dy="1"/>
<feGaussianBlur stdDeviation="2"/>
<feComposite in2="hardAlpha" operator="arithmetic" k2="-1" k3="1"/>
<feColorMatrix type="matrix" values="0 0 0 0 1 0 0 0 0 1 0 0 0 0 1 0 0 0 0.0995138 0"/>
<feBlend mode="normal" in2="shape" result="effect1_innerShadow_3_3652"/>
</filter>
<filter id="filter7_i_3_3652" x="54" y="18" width="14" height="14" filterUnits="userSpaceOnUse" color-interpolation-filters="sRGB">
<feFlood flood-opacity="0" result="BackgroundImageFix"/>
<feBlend mode="normal" in="SourceGraphic" in2="BackgroundImageFix" result="shape"/>
<feColorMatrix in="SourceAlpha" type="matrix" values="0 0 0 0 0 0 0 0 0 0 0 0 0 0 0 0 0 0 127 0" result="hardAlpha"/>
<feOffset dy="1"/>
<feGaussianBlur stdDeviation="2"/>
<feComposite in2="hardAlpha" operator="arithmetic" k2="-1" k3="1"/>
<feColorMatrix type="matrix" values="0 0 0 0 1 0 0 0 0 1 0 0 0 0 1 0 0 0 0.292013 0"/>
<feBlend mode="normal" in2="shape" result="effect1_innerShadow_3_3652"/>
</filter>
<linearGradient id="paint0_linear_3_3652" x1="41" y1="0" x2="41" y2="60" gradientUnits="userSpaceOnUse">
<stop stop-color="#F2F2F2" stop-opacity="0.23"/>
<stop offset="1" stop-color="white" stop-opacity="0"/>
</linearGradient>
<radialGradient id="paint1_radial_3_3652" cx="0" cy="0" r="1" gradientUnits="userSpaceOnUse" gradientTransform="translate(41 30) rotate(90) scale(30 41)">
<stop stop-color="#F2F2F2"/>
<stop offset="1" stop-opacity="0.25"/>
</radialGradient>
<linearGradient id="paint2_linear_3_3652" x1="40.5" y1="18" x2="40.5" y2="35" gradientUnits="userSpaceOnUse">
<stop stop-color="#00A09D"/>
<stop offset="1" stop-color="#00E2FF"/>
</linearGradient>
<clipPath id="clip0_3_3652">
<rect width="82" height="60" rx="3" fill="white"/>
</clipPath>
</defs>
</svg>
