<svg width="82" height="60" viewBox="0 0 82 60" fill="none" xmlns="http://www.w3.org/2000/svg">
<g filter="url(#filter0_b_3_3575)">
<g clip-path="url(#clip0_3_3575)">
<rect width="82" height="60" rx="3" fill="url(#paint0_linear_3_3575)"/>
<rect width="82" height="60" rx="3" fill="url(#paint1_radial_3_3575)" fill-opacity="0.2"/>
<rect width="82" height="60" rx="3" fill="white" fill-opacity="0.2"/>
<g filter="url(#filter1_i_3_3575)">
<path d="M21 38.71V25.29C21 24.577 21.597 24 22.336 24H49.498L47.588 25.843H22.909V38.156H55.093V35.681L57 33.837V38.71C56.999 39.422 56.402 40 55.664 40H22.336C21.598 40 21 39.423 21 38.71Z" fill="black"/>
</g>
<path d="M21 38.71V25.29C21 24.577 21.597 24 22.336 24H49.498L47.588 25.843H22.909V38.156H55.093V35.681L57 33.837V38.71C56.999 39.422 56.402 40 55.664 40H22.336C21.598 40 21 39.423 21 38.71Z" fill="white" fill-opacity="0.78"/>
<path fill-rule="evenodd" clip-rule="evenodd" d="M54.852 23.409V21L61 27.234L54.826 33.496V30.99C54.826 30.99 51.205 30.736 48.608 32.367C46.883 33.45 45.854 34.535 45 36C45 36 45.233 32.11 47.44 28.567C50.2 24.137 54.852 23.409 54.852 23.409Z" fill="url(#paint2_linear_3_3575)"/>
</g>
</g>
<defs>
<filter id="filter0_b_3_3575" x="-4" y="-4" width="90" height="68" filterUnits="userSpaceOnUse" color-interpolation-filters="sRGB">
<feFlood flood-opacity="0" result="BackgroundImageFix"/>
<feGaussianBlur in="BackgroundImageFix" stdDeviation="2"/>
<feComposite in2="SourceAlpha" operator="in" result="effect1_backgroundBlur_3_3575"/>
<feBlend mode="normal" in="SourceGraphic" in2="effect1_backgroundBlur_3_3575" result="shape"/>
</filter>
<filter id="filter1_i_3_3575" x="21" y="24" width="36" height="17" filterUnits="userSpaceOnUse" color-interpolation-filters="sRGB">
<feFlood flood-opacity="0" result="BackgroundImageFix"/>
<feBlend mode="normal" in="SourceGraphic" in2="BackgroundImageFix" result="shape"/>
<feColorMatrix in="SourceAlpha" type="matrix" values="0 0 0 0 0 0 0 0 0 0 0 0 0 0 0 0 0 0 127 0" result="hardAlpha"/>
<feOffset dy="1"/>
<feGaussianBlur stdDeviation="2"/>
<feComposite in2="hardAlpha" operator="arithmetic" k2="-1" k3="1"/>
<feColorMatrix type="matrix" values="0 0 0 0 1 0 0 0 0 1 0 0 0 0 1 0 0 0 0.292013 0"/>
<feBlend mode="normal" in2="shape" result="effect1_innerShadow_3_3575"/>
</filter>
<linearGradient id="paint0_linear_3_3575" x1="41" y1="0" x2="41" y2="60" gradientUnits="userSpaceOnUse">
<stop stop-color="#F2F2F2" stop-opacity="0.23"/>
<stop offset="1" stop-color="white" stop-opacity="0"/>
</linearGradient>
<radialGradient id="paint1_radial_3_3575" cx="0" cy="0" r="1" gradientUnits="userSpaceOnUse" gradientTransform="translate(41 30) rotate(90) scale(30 41)">
<stop stop-color="#F2F2F2"/>
<stop offset="1" stop-opacity="0.25"/>
</radialGradient>
<linearGradient id="paint2_linear_3_3575" x1="53" y1="21" x2="53" y2="36" gradientUnits="userSpaceOnUse">
<stop stop-color="#00A09D"/>
<stop offset="1" stop-color="#00E2FF"/>
</linearGradient>
<clipPath id="clip0_3_3575">
<rect width="82" height="60" rx="3" fill="white"/>
</clipPath>
</defs>
</svg>
