<svg width="196" height="148" viewBox="0 0 196 148" fill="none" xmlns="http://www.w3.org/2000/svg">
<g filter="url(#filter0_b_3_3641)">
<rect width="196" height="148" rx="3" fill="url(#paint0_linear_3_3641)"/>
<rect width="196" height="148" rx="3" fill="url(#paint1_radial_3_3641)" fill-opacity="0.2"/>
<rect width="196" height="148" rx="3" fill="white" fill-opacity="0.2"/>
<path opacity="0.8" d="M70.25 56.11H43.42C42.9398 56.1087 42.4641 56.2021 42.0201 56.385C41.5761 56.5678 41.1726 56.8365 40.8326 57.1755C40.4926 57.5146 40.2228 57.9174 40.0388 58.3609C39.8547 58.8044 39.76 59.2798 39.76 59.76V86.59C39.76 87.0702 39.8547 87.5456 40.0388 87.9891C40.2228 88.4326 40.4926 88.8354 40.8326 89.1745C41.1726 89.5135 41.5761 89.7822 42.0201 89.965C42.4641 90.1479 42.9398 90.2413 43.42 90.24H53.88V78.64H49.08V73.17H53.88V69C53.88 64.26 56.7 61.65 61.02 61.65C62.4372 61.6696 63.851 61.7933 65.25 62.02V66.67H62.87C60.52 66.67 59.79 68.12 59.79 69.62V73.16H65L64.16 78.63H59.76V90.23H70.25C70.7297 90.2313 71.2049 90.1378 71.6483 89.9548C72.0918 89.7719 72.4947 89.5031 72.8339 89.1639C73.1731 88.8247 73.4419 88.4218 73.6248 87.9784C73.8078 87.5349 73.9013 87.0597 73.9 86.58V59.76C73.9013 59.2803 73.8078 58.8051 73.6248 58.3616C73.4419 57.9182 73.1731 57.5153 72.8339 57.1761C72.4947 56.8369 72.0918 56.5681 71.6483 56.3851C71.2049 56.2022 70.7297 56.1087 70.25 56.11Z" fill="white"/>
<path opacity="0.8" d="M111.41 56.11H84.59C84.1098 56.1087 83.6341 56.2021 83.1901 56.385C82.7461 56.5678 82.3426 56.8365 82.0026 57.1755C81.6626 57.5146 81.3928 57.9174 81.2088 58.3609C81.0247 58.8044 80.93 59.2798 80.93 59.76V86.59C80.93 87.0702 81.0247 87.5456 81.2088 87.9891C81.3928 88.4326 81.6626 88.8354 82.0026 89.1745C82.3426 89.5135 82.7461 89.7822 83.1901 89.965C83.6341 90.1479 84.1098 90.2413 84.59 90.24H111.41C111.89 90.2413 112.366 90.1479 112.81 89.965C113.254 89.7822 113.657 89.5135 113.997 89.1745C114.337 88.8354 114.607 88.4326 114.791 87.9891C114.975 87.5456 115.07 87.0702 115.07 86.59V59.76C115.07 59.2798 114.975 58.8044 114.791 58.3609C114.607 57.9174 114.337 57.5146 113.997 57.1755C113.657 56.8365 113.254 56.5678 112.81 56.385C112.366 56.2021 111.89 56.1087 111.41 56.11ZM107.69 68.21C107.69 68.42 107.69 68.64 107.69 68.85C107.691 71.4026 107.006 73.9086 105.706 76.1053C104.406 78.302 102.539 80.1086 100.3 81.3357C98.0621 82.5627 95.5348 83.1651 92.9837 83.0796C90.4325 82.9942 87.9512 82.2241 85.8 80.85C86.1983 80.8952 86.5991 80.9152 87 80.91C89.2473 80.9168 91.4314 80.1665 93.2 78.78C92.1569 78.7611 91.1458 78.4164 90.3083 77.7942C89.4709 77.1719 88.8491 76.3033 88.53 75.31C89.2809 75.4446 90.0522 75.4138 90.79 75.22C89.659 74.9891 88.6426 74.374 87.9135 73.479C87.1844 72.5841 86.7875 71.4644 86.79 70.31V70.25C87.4773 70.6419 88.2493 70.8614 89.04 70.89C88.3549 70.4317 87.7938 69.8112 87.4065 69.0837C87.0191 68.3562 86.8177 67.5442 86.82 66.72C86.8147 65.834 87.0497 64.9631 87.5 64.2C88.752 65.7477 90.3166 67.0135 92.0916 67.9148C93.8665 68.8161 95.8117 69.3324 97.8 69.43C97.5435 68.3551 97.6503 67.2256 98.1038 66.2178C98.5572 65.2101 99.3317 64.381 100.306 63.86C101.281 63.339 102.4 63.1556 103.49 63.3383C104.58 63.521 105.579 64.0597 106.33 64.87C107.448 64.6491 108.519 64.2399 109.5 63.66C109.124 64.8131 108.343 65.7905 107.3 66.41C108.293 66.2987 109.264 66.0391 110.18 65.64C109.499 66.6293 108.657 67.4979 107.69 68.21Z" fill="white"/>
<path opacity="0.8" d="M152.76 56.11H125.6C124.672 56.11 123.782 56.4787 123.125 57.1351C122.469 57.7915 122.1 58.6817 122.1 59.61V86.74C122.1 87.6682 122.469 88.5585 123.125 89.2149C123.782 89.8712 124.672 90.24 125.6 90.24H152.76C153.217 90.2413 153.669 90.1525 154.091 89.9787C154.513 89.8049 154.897 89.5495 155.22 89.2272C155.543 88.9048 155.8 88.5219 155.975 88.1002C156.15 87.6786 156.24 87.2265 156.24 86.77V59.58C156.235 58.6596 155.866 57.7785 155.214 57.1286C154.563 56.4787 153.68 56.1126 152.76 56.11ZM132.41 85.37H127.35V69.07H132.42V85.37H132.41ZM129.88 66.85C129.298 66.85 128.729 66.6773 128.246 66.3538C127.762 66.0303 127.385 65.5706 127.163 65.0328C126.941 64.495 126.883 63.9033 126.997 63.3327C127.111 62.7622 127.392 62.2383 127.805 61.8276C128.217 61.4168 128.742 61.1376 129.313 61.0253C129.884 60.913 130.475 60.9726 131.012 61.1967C131.549 61.4207 132.008 61.7991 132.329 62.2839C132.651 62.7687 132.822 63.3381 132.82 63.92C132.82 64.3056 132.744 64.6874 132.596 65.0436C132.448 65.3997 132.231 65.7231 131.958 65.9954C131.685 66.2676 131.361 66.4832 131.004 66.6298C130.648 66.7765 130.266 66.8513 129.88 66.85ZM151.38 85.37H146.32V77.44C146.32 75.55 146.32 73.12 143.69 73.12C141.06 73.12 140.69 75.18 140.69 77.3V85.37H135.63V69.07H140.49V71.3H140.55C141.039 70.4701 141.743 69.7876 142.588 69.3247C143.433 68.8618 144.387 68.6356 145.35 68.67C150.47 68.67 151.42 72.05 151.42 76.44L151.38 85.37Z" fill="white"/>
</g>
<defs>
<filter id="filter0_b_3_3641" x="-4" y="-4" width="204" height="156" filterUnits="userSpaceOnUse" color-interpolation-filters="sRGB">
<feFlood flood-opacity="0" result="BackgroundImageFix"/>
<feGaussianBlur in="BackgroundImageFix" stdDeviation="2"/>
<feComposite in2="SourceAlpha" operator="in" result="effect1_backgroundBlur_3_3641"/>
<feBlend mode="normal" in="SourceGraphic" in2="effect1_backgroundBlur_3_3641" result="shape"/>
</filter>
<linearGradient id="paint0_linear_3_3641" x1="98" y1="0" x2="98" y2="148" gradientUnits="userSpaceOnUse">
<stop stop-color="#F2F2F2" stop-opacity="0.23"/>
<stop offset="1" stop-color="white" stop-opacity="0"/>
</linearGradient>
<radialGradient id="paint1_radial_3_3641" cx="0" cy="0" r="1" gradientUnits="userSpaceOnUse" gradientTransform="translate(98 74) rotate(90) scale(74 98)">
<stop stop-color="#F2F2F2"/>
<stop offset="1" stop-opacity="0.25"/>
</radialGradient>
</defs>
</svg>
