<svg width="82" height="60" viewBox="0 0 82 60" fill="none" xmlns="http://www.w3.org/2000/svg">
<g filter="url(#filter0_b_3_3693)">
<g clip-path="url(#clip0_3_3693)">
<rect width="82" height="60" rx="3" fill="url(#paint0_linear_3_3693)"/>
<rect width="82" height="60" rx="3" fill="url(#paint1_radial_3_3693)" fill-opacity="0.2"/>
<rect width="82" height="60" rx="3" fill="white" fill-opacity="0.2"/>
<g filter="url(#filter1_i_3_3693)">
<path d="M61 32V34H34V32H61ZM66 16V18H34V16H66Z" fill="black"/>
</g>
<path d="M61 32V34H34V32H61ZM66 16V18H34V16H66Z" fill="white" fill-opacity="0.78"/>
<g filter="url(#filter2_i_3_3693)">
<path d="M46 40V41H34V40H46ZM59 37V38H34V37H59ZM57 24V25H34V24H57ZM64 21V22H34V21H64Z" fill="black"/>
</g>
<path d="M46 40V41H34V40H46ZM59 37V38H34V37H59ZM57 24V25H34V24H57ZM64 21V22H34V21H64Z" fill="#F0B421"/>
<g filter="url(#filter3_i_3_3693)">
<path d="M31 16H30V45H31V16Z" fill="black"/>
</g>
<path d="M31 16H30V45H31V16Z" fill="#F0B421"/>
<g filter="url(#filter4_i_3_3693)">
<path d="M27 16H17V17H27V16Z" fill="black"/>
</g>
<path d="M27 16H17V17H27V16Z" fill="#F0B421"/>
<g filter="url(#filter5_i_3_3693)">
<path d="M27 19H17V20H27V19Z" fill="black"/>
</g>
<path d="M27 19H17V20H27V19Z" fill="#F0B421"/>
<g filter="url(#filter6_i_3_3693)">
<path d="M27 22H17V23H27V22Z" fill="black"/>
</g>
<path d="M27 22H17V23H27V22Z" fill="#F0B421"/>
</g>
</g>
<defs>
<filter id="filter0_b_3_3693" x="-4" y="-4" width="90" height="68" filterUnits="userSpaceOnUse" color-interpolation-filters="sRGB">
<feFlood flood-opacity="0" result="BackgroundImageFix"/>
<feGaussianBlur in="BackgroundImageFix" stdDeviation="2"/>
<feComposite in2="SourceAlpha" operator="in" result="effect1_backgroundBlur_3_3693"/>
<feBlend mode="normal" in="SourceGraphic" in2="effect1_backgroundBlur_3_3693" result="shape"/>
</filter>
<filter id="filter1_i_3_3693" x="34" y="16" width="32" height="19" filterUnits="userSpaceOnUse" color-interpolation-filters="sRGB">
<feFlood flood-opacity="0" result="BackgroundImageFix"/>
<feBlend mode="normal" in="SourceGraphic" in2="BackgroundImageFix" result="shape"/>
<feColorMatrix in="SourceAlpha" type="matrix" values="0 0 0 0 0 0 0 0 0 0 0 0 0 0 0 0 0 0 127 0" result="hardAlpha"/>
<feOffset dy="1"/>
<feGaussianBlur stdDeviation="2"/>
<feComposite in2="hardAlpha" operator="arithmetic" k2="-1" k3="1"/>
<feColorMatrix type="matrix" values="0 0 0 0 1 0 0 0 0 1 0 0 0 0 1 0 0 0 0.292013 0"/>
<feBlend mode="normal" in2="shape" result="effect1_innerShadow_3_3693"/>
</filter>
<filter id="filter2_i_3_3693" x="34" y="21" width="30" height="21" filterUnits="userSpaceOnUse" color-interpolation-filters="sRGB">
<feFlood flood-opacity="0" result="BackgroundImageFix"/>
<feBlend mode="normal" in="SourceGraphic" in2="BackgroundImageFix" result="shape"/>
<feColorMatrix in="SourceAlpha" type="matrix" values="0 0 0 0 0 0 0 0 0 0 0 0 0 0 0 0 0 0 127 0" result="hardAlpha"/>
<feOffset dy="1"/>
<feGaussianBlur stdDeviation="2"/>
<feComposite in2="hardAlpha" operator="arithmetic" k2="-1" k3="1"/>
<feColorMatrix type="matrix" values="0 0 0 0 1 0 0 0 0 1 0 0 0 0 1 0 0 0 0.0995138 0"/>
<feBlend mode="normal" in2="shape" result="effect1_innerShadow_3_3693"/>
</filter>
<filter id="filter3_i_3_3693" x="30" y="16" width="1" height="30" filterUnits="userSpaceOnUse" color-interpolation-filters="sRGB">
<feFlood flood-opacity="0" result="BackgroundImageFix"/>
<feBlend mode="normal" in="SourceGraphic" in2="BackgroundImageFix" result="shape"/>
<feColorMatrix in="SourceAlpha" type="matrix" values="0 0 0 0 0 0 0 0 0 0 0 0 0 0 0 0 0 0 127 0" result="hardAlpha"/>
<feOffset dy="1"/>
<feGaussianBlur stdDeviation="2"/>
<feComposite in2="hardAlpha" operator="arithmetic" k2="-1" k3="1"/>
<feColorMatrix type="matrix" values="0 0 0 0 1 0 0 0 0 1 0 0 0 0 1 0 0 0 0.0995138 0"/>
<feBlend mode="normal" in2="shape" result="effect1_innerShadow_3_3693"/>
</filter>
<filter id="filter4_i_3_3693" x="17" y="16" width="10" height="2" filterUnits="userSpaceOnUse" color-interpolation-filters="sRGB">
<feFlood flood-opacity="0" result="BackgroundImageFix"/>
<feBlend mode="normal" in="SourceGraphic" in2="BackgroundImageFix" result="shape"/>
<feColorMatrix in="SourceAlpha" type="matrix" values="0 0 0 0 0 0 0 0 0 0 0 0 0 0 0 0 0 0 127 0" result="hardAlpha"/>
<feOffset dy="1"/>
<feGaussianBlur stdDeviation="2"/>
<feComposite in2="hardAlpha" operator="arithmetic" k2="-1" k3="1"/>
<feColorMatrix type="matrix" values="0 0 0 0 1 0 0 0 0 1 0 0 0 0 1 0 0 0 0.0995138 0"/>
<feBlend mode="normal" in2="shape" result="effect1_innerShadow_3_3693"/>
</filter>
<filter id="filter5_i_3_3693" x="17" y="19" width="10" height="2" filterUnits="userSpaceOnUse" color-interpolation-filters="sRGB">
<feFlood flood-opacity="0" result="BackgroundImageFix"/>
<feBlend mode="normal" in="SourceGraphic" in2="BackgroundImageFix" result="shape"/>
<feColorMatrix in="SourceAlpha" type="matrix" values="0 0 0 0 0 0 0 0 0 0 0 0 0 0 0 0 0 0 127 0" result="hardAlpha"/>
<feOffset dy="1"/>
<feGaussianBlur stdDeviation="2"/>
<feComposite in2="hardAlpha" operator="arithmetic" k2="-1" k3="1"/>
<feColorMatrix type="matrix" values="0 0 0 0 1 0 0 0 0 1 0 0 0 0 1 0 0 0 0.0995138 0"/>
<feBlend mode="normal" in2="shape" result="effect1_innerShadow_3_3693"/>
</filter>
<filter id="filter6_i_3_3693" x="17" y="22" width="10" height="2" filterUnits="userSpaceOnUse" color-interpolation-filters="sRGB">
<feFlood flood-opacity="0" result="BackgroundImageFix"/>
<feBlend mode="normal" in="SourceGraphic" in2="BackgroundImageFix" result="shape"/>
<feColorMatrix in="SourceAlpha" type="matrix" values="0 0 0 0 0 0 0 0 0 0 0 0 0 0 0 0 0 0 127 0" result="hardAlpha"/>
<feOffset dy="1"/>
<feGaussianBlur stdDeviation="2"/>
<feComposite in2="hardAlpha" operator="arithmetic" k2="-1" k3="1"/>
<feColorMatrix type="matrix" values="0 0 0 0 1 0 0 0 0 1 0 0 0 0 1 0 0 0 0.0995138 0"/>
<feBlend mode="normal" in2="shape" result="effect1_innerShadow_3_3693"/>
</filter>
<linearGradient id="paint0_linear_3_3693" x1="41" y1="0" x2="41" y2="60" gradientUnits="userSpaceOnUse">
<stop stop-color="#F2F2F2" stop-opacity="0.23"/>
<stop offset="1" stop-color="white" stop-opacity="0"/>
</linearGradient>
<radialGradient id="paint1_radial_3_3693" cx="0" cy="0" r="1" gradientUnits="userSpaceOnUse" gradientTransform="translate(41 30) rotate(90) scale(30 41)">
<stop stop-color="#F2F2F2"/>
<stop offset="1" stop-opacity="0.25"/>
</radialGradient>
<clipPath id="clip0_3_3693">
<rect width="82" height="60" rx="3" fill="white"/>
</clipPath>
</defs>
</svg>
