<svg width="82" height="60" viewBox="0 0 82 60" fill="none" xmlns="http://www.w3.org/2000/svg">
<g filter="url(#filter0_b_3_3680)">
<g clip-path="url(#clip0_3_3680)">
<rect width="82" height="60" rx="3" fill="url(#paint0_linear_3_3680)"/>
<rect width="82" height="60" rx="3" fill="url(#paint1_radial_3_3680)" fill-opacity="0.2"/>
<rect width="82" height="60" rx="3" fill="white" fill-opacity="0.2"/>
<g filter="url(#filter1_i_3_3680)">
<path d="M53 37V38H15V37H53ZM67 34V35H15V34H67ZM67 31V32H15V31H67ZM43 26V27H15V26H43ZM67 23V24H15V23H67Z" fill="black"/>
</g>
<path d="M53 37V38H15V37H53ZM67 34V35H15V34H67ZM67 31V32H15V31H67ZM43 26V27H15V26H43ZM67 23V24H15V23H67Z" fill="#F0B421"/>
</g>
</g>
<defs>
<filter id="filter0_b_3_3680" x="-4" y="-4" width="90" height="68" filterUnits="userSpaceOnUse" color-interpolation-filters="sRGB">
<feFlood flood-opacity="0" result="BackgroundImageFix"/>
<feGaussianBlur in="BackgroundImageFix" stdDeviation="2"/>
<feComposite in2="SourceAlpha" operator="in" result="effect1_backgroundBlur_3_3680"/>
<feBlend mode="normal" in="SourceGraphic" in2="effect1_backgroundBlur_3_3680" result="shape"/>
</filter>
<filter id="filter1_i_3_3680" x="15" y="23" width="52" height="16" filterUnits="userSpaceOnUse" color-interpolation-filters="sRGB">
<feFlood flood-opacity="0" result="BackgroundImageFix"/>
<feBlend mode="normal" in="SourceGraphic" in2="BackgroundImageFix" result="shape"/>
<feColorMatrix in="SourceAlpha" type="matrix" values="0 0 0 0 0 0 0 0 0 0 0 0 0 0 0 0 0 0 127 0" result="hardAlpha"/>
<feOffset dy="1"/>
<feGaussianBlur stdDeviation="2"/>
<feComposite in2="hardAlpha" operator="arithmetic" k2="-1" k3="1"/>
<feColorMatrix type="matrix" values="0 0 0 0 1 0 0 0 0 1 0 0 0 0 1 0 0 0 0.0995138 0"/>
<feBlend mode="normal" in2="shape" result="effect1_innerShadow_3_3680"/>
</filter>
<linearGradient id="paint0_linear_3_3680" x1="41" y1="0" x2="41" y2="60" gradientUnits="userSpaceOnUse">
<stop stop-color="#F2F2F2" stop-opacity="0.23"/>
<stop offset="1" stop-color="white" stop-opacity="0"/>
</linearGradient>
<radialGradient id="paint1_radial_3_3680" cx="0" cy="0" r="1" gradientUnits="userSpaceOnUse" gradientTransform="translate(41 30) rotate(90) scale(30 41)">
<stop stop-color="#F2F2F2"/>
<stop offset="1" stop-opacity="0.25"/>
</radialGradient>
<clipPath id="clip0_3_3680">
<rect width="82" height="60" rx="3" fill="white"/>
</clipPath>
</defs>
</svg>
