<svg width="82" height="60" viewBox="0 0 82 60" fill="none" xmlns="http://www.w3.org/2000/svg">
<g filter="url(#filter0_b_3_3884)">
<g clip-path="url(#clip0_3_3884)">
<rect width="82" height="60" rx="3" fill="url(#paint0_linear_3_3884)"/>
<rect width="82" height="60" rx="3" fill="url(#paint1_radial_3_3884)" fill-opacity="0.2"/>
<rect width="82" height="60" rx="3" fill="white" fill-opacity="0.2"/>
<path d="M19.076 33.364V32.983C18.661 32.968 18.366 32.917 18.189 32.829C17.887 32.673 17.735 32.373 17.735 31.929V28.47H21.31V31.927C21.31 32.357 21.17 32.65 20.892 32.807C20.712 32.909 20.406 32.967 19.977 32.982V33.362H25.082V32.982C24.682 32.967 24.396 32.914 24.225 32.821C23.927 32.665 23.778 32.367 23.778 31.927V24.67C23.778 24.24 23.912 23.95 24.181 23.798C24.341 23.706 24.642 23.642 25.081 23.608V23.228H19.977V23.608C20.431 23.638 20.741 23.698 20.907 23.791C21.175 23.942 21.31 24.235 21.31 24.67V27.775H17.735V24.67C17.735 24.235 17.877 23.94 18.16 23.784C18.331 23.691 18.636 23.632 19.076 23.608V23.228H14V23.608C14.444 23.652 14.742 23.718 14.894 23.806C15.143 23.957 15.267 24.246 15.267 24.67V31.928C15.267 32.363 15.127 32.658 14.85 32.814C14.684 32.907 14.4 32.964 14 32.983V33.363H19.076V33.364ZM28.773 33.576C29.286 33.576 29.74 33.481 30.135 33.291C30.745 32.993 31.283 32.463 31.747 31.701L31.402 31.489C31.119 31.801 30.882 32.023 30.692 32.155C30.379 32.375 30.047 32.485 29.696 32.485C28.958 32.485 28.443 32.072 28.15 31.247C27.99 30.807 27.892 30.287 27.857 29.687H31.681C31.681 29.55 31.664 29.353 31.629 29.094C31.561 28.542 31.439 28.093 31.263 27.746C31.0391 27.2981 30.6909 26.9241 30.26 26.669C29.8404 26.4144 29.3588 26.2802 28.868 26.281C28.004 26.281 27.265 26.6 26.653 27.237C26.04 27.874 25.733 28.769 25.733 29.921C25.733 31.196 26.056 32.124 26.7 32.705C27.345 33.285 28.036 33.576 28.773 33.576ZM29.835 29.13H27.821C27.841 28.354 27.922 27.763 28.066 27.358C28.21 26.953 28.478 26.75 28.868 26.75C29.249 26.75 29.503 26.926 29.63 27.277C29.757 27.629 29.825 28.247 29.835 29.13ZM37.694 33.576C37.943 33.576 38.18 33.532 38.404 33.444C38.761 33.308 39.085 33.068 39.378 32.727L39.151 32.412C39.088 32.4821 39.0153 32.5427 38.935 32.592C38.8857 32.6142 38.8321 32.6252 38.778 32.624C38.709 32.624 38.648 32.586 38.591 32.51C38.5338 32.4303 38.5042 32.3341 38.507 32.236V28.603C38.507 27.714 38.224 27.104 37.657 26.772C37.086 26.445 36.375 26.282 35.526 26.282C34.735 26.282 34.068 26.45 33.526 26.787C32.984 27.124 32.713 27.58 32.713 28.157C32.713 28.479 32.815 28.725 33.017 28.896C33.22 29.066 33.465 29.152 33.753 29.152C34.003 29.152 34.221 29.075 34.409 28.922C34.597 28.768 34.691 28.549 34.691 28.266C34.6916 28.1569 34.6705 28.0488 34.629 27.948C34.588 27.8486 34.5324 27.7559 34.464 27.673L34.376 27.57C34.3414 27.5326 34.3118 27.491 34.288 27.446C34.2667 27.4 34.2564 27.3497 34.258 27.299C34.258 27.148 34.345 27.022 34.518 26.922C34.692 26.822 34.913 26.772 35.182 26.772C35.66 26.772 35.993 26.878 36.182 27.091C36.369 27.303 36.463 27.631 36.463 28.076V29.167C35.077 29.567 34.059 29.965 33.409 30.361C32.759 30.756 32.435 31.291 32.435 31.965C32.435 32.517 32.613 32.923 32.97 33.185C33.326 33.445 33.71 33.576 34.12 33.576C34.427 33.576 34.74 33.522 35.057 33.415C35.58 33.245 36.048 32.951 36.463 32.536C36.517 32.824 36.603 33.042 36.72 33.188C36.925 33.447 37.25 33.576 37.694 33.576ZM35.343 32.506C35.157 32.506 34.99 32.423 34.841 32.254C34.692 32.086 34.618 31.838 34.618 31.511C34.618 30.959 34.874 30.505 35.387 30.148C35.689 29.938 36.041 29.785 36.441 29.687V31.877C36.281 32.063 36.141 32.199 36.024 32.287C35.814 32.434 35.587 32.507 35.343 32.507V32.506ZM44.637 33.576C45.252 33.406 45.682 33.299 45.927 33.258C46.17 33.216 46.712 33.154 47.552 33.071V32.727C47.21 32.697 46.981 32.623 46.864 32.503C46.747 32.383 46.688 32.167 46.688 31.855V23.227H43.458V23.593C43.917 23.613 44.22 23.668 44.366 23.758C44.513 23.848 44.586 24.082 44.586 24.458V27.204C44.298 26.901 44.059 26.691 43.868 26.574C43.5521 26.3763 43.1856 26.2745 42.813 26.281C42.023 26.281 41.345 26.624 40.781 27.311C40.217 27.996 39.935 28.933 39.935 30.119C39.935 31.184 40.206 32.026 40.748 32.646C41.29 33.266 41.928 33.576 42.66 33.576C43.09 33.576 43.49 33.464 43.86 33.239C44.095 33.098 44.354 32.88 44.637 32.587V33.577V33.576ZM43.333 32.726C42.821 32.726 42.474 32.373 42.293 31.665C42.196 31.274 42.147 30.693 42.147 29.921C42.147 29.199 42.198 28.64 42.301 28.244C42.491 27.507 42.853 27.138 43.385 27.138C43.746 27.138 44.037 27.258 44.256 27.498C44.476 27.736 44.586 27.917 44.586 28.039V31.687C44.586 31.804 44.458 32.007 44.201 32.294C43.945 32.583 43.656 32.727 43.333 32.727V32.726ZM49.962 25.329C50.279 25.329 50.552 25.216 50.779 24.989C51.006 24.761 51.119 24.487 51.119 24.165C51.1217 24.0117 51.093 23.8595 51.0345 23.7177C50.976 23.576 50.8891 23.4478 50.779 23.341C50.6733 23.2314 50.5463 23.1447 50.4058 23.086C50.2653 23.0274 50.1142 22.9981 49.962 23C49.64 23 49.365 23.114 49.138 23.34C48.911 23.568 48.798 23.842 48.798 24.165C48.798 24.487 48.911 24.761 49.138 24.989C49.365 25.216 49.64 25.329 49.962 25.329ZM51.712 33.364V33.004C51.444 32.951 51.261 32.878 51.163 32.785C51.065 32.692 51.017 32.482 51.017 32.155V26.457H48.138V26.823C48.441 26.877 48.644 26.959 48.746 27.069C48.849 27.179 48.9 27.385 48.9 27.688V32.097C48.9 32.438 48.827 32.675 48.68 32.807C48.583 32.895 48.402 32.961 48.138 33.005V33.364H51.712ZM55.917 33.364V33.004C55.647 32.951 55.465 32.878 55.367 32.785C55.27 32.692 55.221 32.482 55.221 32.155V28.142C55.338 27.952 55.505 27.762 55.722 27.574C55.94 27.386 56.178 27.292 56.437 27.292C56.783 27.292 57.015 27.446 57.132 27.753C57.201 27.924 57.235 28.181 57.235 28.523V32.155C57.235 32.482 57.186 32.692 57.088 32.785C56.991 32.878 56.808 32.951 56.539 33.005V33.364H60.062V33.004C59.793 32.971 59.602 32.904 59.487 32.807C59.372 32.709 59.315 32.492 59.315 32.155V28.53C59.315 27.695 59.138 27.111 58.784 26.78C58.43 26.447 57.931 26.281 57.286 26.281C56.836 26.281 56.428 26.4 56.059 26.636C55.6953 26.868 55.3846 27.174 55.147 27.534V26.457H52.306V26.823C52.628 26.863 52.842 26.94 52.946 27.058C53.052 27.175 53.104 27.385 53.104 27.688V32.097C53.104 32.438 53.039 32.667 52.91 32.781C52.78 32.896 52.58 32.971 52.306 33.005V33.364H55.916H55.917ZM63.827 36.477C64.686 36.477 65.399 36.381 65.965 36.191C67.04 35.825 67.577 35.153 67.577 34.177C67.577 33.42 67.217 32.895 66.5 32.602C66.124 32.451 65.66 32.37 65.108 32.36L64.134 32.346C64.002 32.346 63.817 32.342 63.578 32.335C63.4211 32.3325 63.2643 32.3239 63.108 32.309C62.9797 32.2972 62.859 32.2431 62.765 32.155C62.7216 32.1079 62.6881 32.0526 62.6666 31.9923C62.6452 31.9319 62.6361 31.8679 62.64 31.804C62.64 31.614 62.723 31.45 62.89 31.313C63.0205 31.1965 63.179 31.1158 63.35 31.079C63.443 31.079 63.513 31.081 63.56 31.086C63.606 31.091 63.705 31.093 63.856 31.093C64.554 31.093 65.138 31 65.606 30.815C66.5 30.468 66.946 29.826 66.946 28.889C66.946 28.591 66.894 28.315 66.789 28.061C66.6862 27.8105 66.5331 27.5838 66.339 27.395H67.555V26.596H65.577C65.3571 26.5042 65.1291 26.4332 64.896 26.384C64.5787 26.3128 64.2542 26.2783 63.929 26.281C62.997 26.281 62.257 26.503 61.71 26.948C61.163 27.392 60.89 27.956 60.89 28.64C60.89 29.182 61.046 29.643 61.358 30.024C61.671 30.404 62.081 30.698 62.588 30.903V31.005C62.238 31.123 61.878 31.33 61.508 31.628C61.14 31.926 60.956 32.285 60.956 32.705C60.956 33.056 61.073 33.337 61.307 33.547C61.439 33.664 61.651 33.779 61.944 33.891V33.994C61.504 34.062 61.196 34.21 61.018 34.437C60.84 34.664 60.75 34.885 60.75 35.1C60.75 35.651 61.17 36.042 62.01 36.271C62.518 36.408 63.124 36.477 63.827 36.477ZM63.929 30.639C63.514 30.639 63.233 30.419 63.087 29.98C62.989 29.702 62.94 29.274 62.94 28.698C62.94 28.068 63.006 27.588 63.138 27.259C63.27 26.929 63.534 26.765 63.929 26.765C64.291 26.765 64.546 26.918 64.695 27.226C64.844 27.534 64.918 28.024 64.918 28.698C64.918 29.333 64.848 29.815 64.706 30.145C64.564 30.475 64.306 30.639 63.929 30.639ZM63.995 35.986C63.37 35.986 62.893 35.898 62.563 35.722C62.233 35.546 62.069 35.305 62.069 34.997C62.069 34.817 62.129 34.646 62.252 34.484C62.32 34.396 62.432 34.289 62.589 34.162H65.049C65.558 34.162 65.908 34.227 66.101 34.356C66.294 34.486 66.391 34.68 66.391 34.938C66.391 35.383 66.051 35.688 65.372 35.854C65.011 35.942 64.552 35.986 63.995 35.986Z" fill="#E4E4E4"/>
</g>
</g>
<defs>
<filter id="filter0_b_3_3884" x="-4" y="-4" width="90" height="68" filterUnits="userSpaceOnUse" color-interpolation-filters="sRGB">
<feFlood flood-opacity="0" result="BackgroundImageFix"/>
<feGaussianBlur in="BackgroundImageFix" stdDeviation="2"/>
<feComposite in2="SourceAlpha" operator="in" result="effect1_backgroundBlur_3_3884"/>
<feBlend mode="normal" in="SourceGraphic" in2="effect1_backgroundBlur_3_3884" result="shape"/>
</filter>
<linearGradient id="paint0_linear_3_3884" x1="41" y1="0" x2="41" y2="60" gradientUnits="userSpaceOnUse">
<stop stop-color="#F2F2F2" stop-opacity="0.23"/>
<stop offset="1" stop-color="white" stop-opacity="0"/>
</linearGradient>
<radialGradient id="paint1_radial_3_3884" cx="0" cy="0" r="1" gradientUnits="userSpaceOnUse" gradientTransform="translate(41 30) rotate(90) scale(30 41)">
<stop stop-color="#F2F2F2"/>
<stop offset="1" stop-opacity="0.25"/>
</radialGradient>
<clipPath id="clip0_3_3884">
<rect width="82" height="60" rx="3" fill="white"/>
</clipPath>
</defs>
</svg>
