<svg width="82" height="60" viewBox="0 0 82 60" fill="none" xmlns="http://www.w3.org/2000/svg">
<g filter="url(#filter0_b_3_3787)">
<g clip-path="url(#clip0_3_3787)">
<rect width="82" height="60" rx="3" fill="url(#paint0_linear_3_3787)"/>
<rect width="82" height="60" rx="3" fill="url(#paint1_radial_3_3787)" fill-opacity="0.2"/>
<rect width="82" height="60" rx="3" fill="white" fill-opacity="0.2"/>
<g filter="url(#filter1_i_3_3787)">
<path d="M32 38H22V40H32V38Z" fill="black"/>
</g>
<path d="M32 38H22V40H32V38Z" fill="white" fill-opacity="0.78"/>
<g filter="url(#filter2_i_3_3787)">
<path d="M32 14H19V16H32V14Z" fill="black"/>
</g>
<path d="M32 14H19V16H32V14Z" fill="white" fill-opacity="0.78"/>
<g filter="url(#filter3_i_3_3787)">
<path d="M32 46V47H21V46H32ZM32 43V44H18V43H32Z" fill="black"/>
</g>
<path d="M32 46V47H21V46H32ZM32 43V44H18V43H32Z" fill="#F0B421"/>
<g filter="url(#filter4_i_3_3787)">
<path d="M55 34V35H48V34H55ZM62 31V32H48V31H62Z" fill="black"/>
</g>
<path d="M55 34V35H48V34H55ZM62 31V32H48V31H62Z" fill="#F0B421"/>
<g filter="url(#filter5_i_3_3787)">
<path d="M64 26H48V28H64V26Z" fill="black"/>
</g>
<path d="M64 26H48V28H64V26Z" fill="white" fill-opacity="0.78"/>
<g filter="url(#filter6_i_3_3787)">
<path d="M41 13H40V47H41V13Z" fill="black"/>
</g>
<path d="M41 13H40V47H41V13Z" fill="#F0B421"/>
<g filter="url(#filter7_i_3_3787)">
<path d="M32 22V23H22V22H32ZM32 19V20H22V19H32Z" fill="black"/>
</g>
<path d="M32 22V23H22V22H32ZM32 19V20H22V19H32Z" fill="#F0B421"/>
<path d="M40.5 18C41.8807 18 43 16.8807 43 15.5C43 14.1193 41.8807 13 40.5 13C39.1193 13 38 14.1193 38 15.5C38 16.8807 39.1193 18 40.5 18Z" fill="url(#paint2_linear_3_3787)"/>
<path d="M40.5 30C41.8807 30 43 28.8807 43 27.5C43 26.1193 41.8807 25 40.5 25C39.1193 25 38 26.1193 38 27.5C38 28.8807 39.1193 30 40.5 30Z" fill="url(#paint3_linear_3_3787)"/>
<path d="M40.5 42C41.8807 42 43 40.8807 43 39.5C43 38.1193 41.8807 37 40.5 37C39.1193 37 38 38.1193 38 39.5C38 40.8807 39.1193 42 40.5 42Z" fill="url(#paint4_linear_3_3787)"/>
</g>
</g>
<defs>
<filter id="filter0_b_3_3787" x="-4" y="-4" width="90" height="68" filterUnits="userSpaceOnUse" color-interpolation-filters="sRGB">
<feFlood flood-opacity="0" result="BackgroundImageFix"/>
<feGaussianBlur in="BackgroundImageFix" stdDeviation="2"/>
<feComposite in2="SourceAlpha" operator="in" result="effect1_backgroundBlur_3_3787"/>
<feBlend mode="normal" in="SourceGraphic" in2="effect1_backgroundBlur_3_3787" result="shape"/>
</filter>
<filter id="filter1_i_3_3787" x="22" y="38" width="10" height="3" filterUnits="userSpaceOnUse" color-interpolation-filters="sRGB">
<feFlood flood-opacity="0" result="BackgroundImageFix"/>
<feBlend mode="normal" in="SourceGraphic" in2="BackgroundImageFix" result="shape"/>
<feColorMatrix in="SourceAlpha" type="matrix" values="0 0 0 0 0 0 0 0 0 0 0 0 0 0 0 0 0 0 127 0" result="hardAlpha"/>
<feOffset dy="1"/>
<feGaussianBlur stdDeviation="2"/>
<feComposite in2="hardAlpha" operator="arithmetic" k2="-1" k3="1"/>
<feColorMatrix type="matrix" values="0 0 0 0 1 0 0 0 0 1 0 0 0 0 1 0 0 0 0.292013 0"/>
<feBlend mode="normal" in2="shape" result="effect1_innerShadow_3_3787"/>
</filter>
<filter id="filter2_i_3_3787" x="19" y="14" width="13" height="3" filterUnits="userSpaceOnUse" color-interpolation-filters="sRGB">
<feFlood flood-opacity="0" result="BackgroundImageFix"/>
<feBlend mode="normal" in="SourceGraphic" in2="BackgroundImageFix" result="shape"/>
<feColorMatrix in="SourceAlpha" type="matrix" values="0 0 0 0 0 0 0 0 0 0 0 0 0 0 0 0 0 0 127 0" result="hardAlpha"/>
<feOffset dy="1"/>
<feGaussianBlur stdDeviation="2"/>
<feComposite in2="hardAlpha" operator="arithmetic" k2="-1" k3="1"/>
<feColorMatrix type="matrix" values="0 0 0 0 1 0 0 0 0 1 0 0 0 0 1 0 0 0 0.292013 0"/>
<feBlend mode="normal" in2="shape" result="effect1_innerShadow_3_3787"/>
</filter>
<filter id="filter3_i_3_3787" x="18" y="43" width="14" height="5" filterUnits="userSpaceOnUse" color-interpolation-filters="sRGB">
<feFlood flood-opacity="0" result="BackgroundImageFix"/>
<feBlend mode="normal" in="SourceGraphic" in2="BackgroundImageFix" result="shape"/>
<feColorMatrix in="SourceAlpha" type="matrix" values="0 0 0 0 0 0 0 0 0 0 0 0 0 0 0 0 0 0 127 0" result="hardAlpha"/>
<feOffset dy="1"/>
<feGaussianBlur stdDeviation="2"/>
<feComposite in2="hardAlpha" operator="arithmetic" k2="-1" k3="1"/>
<feColorMatrix type="matrix" values="0 0 0 0 1 0 0 0 0 1 0 0 0 0 1 0 0 0 0.0995138 0"/>
<feBlend mode="normal" in2="shape" result="effect1_innerShadow_3_3787"/>
</filter>
<filter id="filter4_i_3_3787" x="48" y="31" width="14" height="5" filterUnits="userSpaceOnUse" color-interpolation-filters="sRGB">
<feFlood flood-opacity="0" result="BackgroundImageFix"/>
<feBlend mode="normal" in="SourceGraphic" in2="BackgroundImageFix" result="shape"/>
<feColorMatrix in="SourceAlpha" type="matrix" values="0 0 0 0 0 0 0 0 0 0 0 0 0 0 0 0 0 0 127 0" result="hardAlpha"/>
<feOffset dy="1"/>
<feGaussianBlur stdDeviation="2"/>
<feComposite in2="hardAlpha" operator="arithmetic" k2="-1" k3="1"/>
<feColorMatrix type="matrix" values="0 0 0 0 1 0 0 0 0 1 0 0 0 0 1 0 0 0 0.0995138 0"/>
<feBlend mode="normal" in2="shape" result="effect1_innerShadow_3_3787"/>
</filter>
<filter id="filter5_i_3_3787" x="48" y="26" width="16" height="3" filterUnits="userSpaceOnUse" color-interpolation-filters="sRGB">
<feFlood flood-opacity="0" result="BackgroundImageFix"/>
<feBlend mode="normal" in="SourceGraphic" in2="BackgroundImageFix" result="shape"/>
<feColorMatrix in="SourceAlpha" type="matrix" values="0 0 0 0 0 0 0 0 0 0 0 0 0 0 0 0 0 0 127 0" result="hardAlpha"/>
<feOffset dy="1"/>
<feGaussianBlur stdDeviation="2"/>
<feComposite in2="hardAlpha" operator="arithmetic" k2="-1" k3="1"/>
<feColorMatrix type="matrix" values="0 0 0 0 1 0 0 0 0 1 0 0 0 0 1 0 0 0 0.292013 0"/>
<feBlend mode="normal" in2="shape" result="effect1_innerShadow_3_3787"/>
</filter>
<filter id="filter6_i_3_3787" x="40" y="13" width="1" height="35" filterUnits="userSpaceOnUse" color-interpolation-filters="sRGB">
<feFlood flood-opacity="0" result="BackgroundImageFix"/>
<feBlend mode="normal" in="SourceGraphic" in2="BackgroundImageFix" result="shape"/>
<feColorMatrix in="SourceAlpha" type="matrix" values="0 0 0 0 0 0 0 0 0 0 0 0 0 0 0 0 0 0 127 0" result="hardAlpha"/>
<feOffset dy="1"/>
<feGaussianBlur stdDeviation="2"/>
<feComposite in2="hardAlpha" operator="arithmetic" k2="-1" k3="1"/>
<feColorMatrix type="matrix" values="0 0 0 0 1 0 0 0 0 1 0 0 0 0 1 0 0 0 0.0995138 0"/>
<feBlend mode="normal" in2="shape" result="effect1_innerShadow_3_3787"/>
</filter>
<filter id="filter7_i_3_3787" x="22" y="19" width="10" height="5" filterUnits="userSpaceOnUse" color-interpolation-filters="sRGB">
<feFlood flood-opacity="0" result="BackgroundImageFix"/>
<feBlend mode="normal" in="SourceGraphic" in2="BackgroundImageFix" result="shape"/>
<feColorMatrix in="SourceAlpha" type="matrix" values="0 0 0 0 0 0 0 0 0 0 0 0 0 0 0 0 0 0 127 0" result="hardAlpha"/>
<feOffset dy="1"/>
<feGaussianBlur stdDeviation="2"/>
<feComposite in2="hardAlpha" operator="arithmetic" k2="-1" k3="1"/>
<feColorMatrix type="matrix" values="0 0 0 0 1 0 0 0 0 1 0 0 0 0 1 0 0 0 0.0995138 0"/>
<feBlend mode="normal" in2="shape" result="effect1_innerShadow_3_3787"/>
</filter>
<linearGradient id="paint0_linear_3_3787" x1="41" y1="0" x2="41" y2="60" gradientUnits="userSpaceOnUse">
<stop stop-color="#F2F2F2" stop-opacity="0.23"/>
<stop offset="1" stop-color="white" stop-opacity="0"/>
</linearGradient>
<radialGradient id="paint1_radial_3_3787" cx="0" cy="0" r="1" gradientUnits="userSpaceOnUse" gradientTransform="translate(41 30) rotate(90) scale(30 41)">
<stop stop-color="#F2F2F2"/>
<stop offset="1" stop-opacity="0.25"/>
</radialGradient>
<linearGradient id="paint2_linear_3_3787" x1="38" y1="13" x2="43" y2="18" gradientUnits="userSpaceOnUse">
<stop stop-color="#00A09D"/>
<stop offset="1" stop-color="#00E2FF"/>
</linearGradient>
<linearGradient id="paint3_linear_3_3787" x1="38" y1="25" x2="43" y2="30" gradientUnits="userSpaceOnUse">
<stop stop-color="#00A09D"/>
<stop offset="1" stop-color="#00E2FF"/>
</linearGradient>
<linearGradient id="paint4_linear_3_3787" x1="38" y1="37" x2="43" y2="42" gradientUnits="userSpaceOnUse">
<stop stop-color="#00A09D"/>
<stop offset="1" stop-color="#00E2FF"/>
</linearGradient>
<clipPath id="clip0_3_3787">
<rect width="82" height="60" rx="3" fill="white"/>
</clipPath>
</defs>
</svg>
