<svg width="12" height="9" viewBox="0 0 12 9" fill="none" xmlns="http://www.w3.org/2000/svg">
<path d="M10.8196 8.65567H1.08195C0.484173 8.65567 0 8.1715 0 7.5737V1.08195C0 0.484173 0.484173 0 1.08195 0H10.8196C11.4174 0 11.9015 0.484173 11.9015 1.08195V7.5737C11.9015 8.1715 11.4174 8.65567 10.8196 8.65567Z" fill="#199AE0"/>
<path d="M10.1325 8.65573H1.08195C0.486881 8.65573 0 8.16885 0 7.57378V5.39362L2.74276 2.65086C3.12685 2.26677 3.74357 2.26677 4.12226 2.65086L10.1325 8.65573Z" fill="url(#paint0_linear_180_1100)"/>
<path d="M11.3766 8.65617C11.7207 8.65617 11.9998 8.37702 11.9998 8.03296V7.72136L8.1735 3.89501C7.79265 3.51416 7.17484 3.51416 6.794 3.89501L2.03284 8.65617H11.3766Z" fill="url(#paint1_linear_180_1100)"/>
<path d="M9.46723 2.70546C9.91538 2.70546 10.2787 2.34214 10.2787 1.89399C10.2787 1.44582 9.91538 1.08252 9.46723 1.08252C9.01906 1.08252 8.65576 1.44582 8.65576 1.89399C8.65576 2.34214 9.01906 2.70546 9.46723 2.70546Z" fill="#FEC52B"/>
<defs>
<linearGradient id="paint0_linear_180_1100" x1="5.06627" y1="2.34899" x2="5.06627" y2="8.76555" gradientUnits="userSpaceOnUse">
<stop stop-color="#124787"/>
<stop offset="0.923" stop-color="#173B75"/>
<stop offset="1" stop-color="#173A73"/>
</linearGradient>
<linearGradient id="paint1_linear_180_1100" x1="7.01634" y1="3.60937" x2="7.01634" y2="8.65617" gradientUnits="userSpaceOnUse">
<stop stop-color="white"/>
<stop offset="1" stop-color="white" stop-opacity="0"/>
</linearGradient>
</defs>
</svg>
