<svg width="21" height="18" viewBox="0 0 21 18" fill="none" xmlns="http://www.w3.org/2000/svg">
<path d="M12.8894 11.6705H1.46086C0.671815 11.6705 0.0322876 11.031 0.0322876 10.2419V1.67052C0.0322876 0.88147 0.671815 0.241943 1.46086 0.241943H12.8894C13.6785 0.241943 14.318 0.88147 14.318 1.67052V10.2419C14.318 11.031 13.6785 11.6705 12.8894 11.6705Z" fill="url(#paint0_linear_184_1103)"/>
<g filter="url(#filter0_b_184_1103)">
<path d="M18.6514 17.3848H7.60373C6.84087 17.3848 6.22278 16.7719 6.22278 16.0156V7.80142C6.22278 7.04524 6.84087 6.43237 7.60373 6.43237H18.6514C19.4142 6.43237 20.0323 7.04524 20.0323 7.80142V16.0156C20.0323 16.7719 19.4142 17.3848 18.6514 17.3848Z" fill="url(#paint1_radial_184_1103)" fill-opacity="0.49"/>
<path d="M18.6514 17.3848H7.60373C6.84087 17.3848 6.22278 16.7719 6.22278 16.0156V7.80142C6.22278 7.04524 6.84087 6.43237 7.60373 6.43237H18.6514C19.4142 6.43237 20.0323 7.04524 20.0323 7.80142V16.0156C20.0323 16.7719 19.4142 17.3848 18.6514 17.3848Z" fill="white" fill-opacity="0.2"/>
</g>
<path d="M9.0799 0.480034V0.95623C9.0799 1.08766 9.18656 1.19432 9.31798 1.19432H10.7466C10.878 1.19432 10.9846 1.08766 10.9846 0.95623V0.480034C10.9846 0.348605 10.878 0.241943 10.7466 0.241943H9.31798C9.18656 0.241943 9.0799 0.348605 9.0799 0.480034Z" fill="#199BE2"/>
<path d="M6.46087 1.19432H7.88944C8.02087 1.19432 8.12753 1.08766 8.12753 0.95623V0.480034C8.12753 0.348605 8.02087 0.241943 7.88944 0.241943H6.46087C6.32944 0.241943 6.22278 0.348605 6.22278 0.480034V0.95623C6.22278 1.08766 6.32944 1.19432 6.46087 1.19432Z" fill="#199BE2"/>
<path d="M3.60369 1.19432H5.03226C5.16369 1.19432 5.27035 1.08766 5.27035 0.95623V0.480034C5.27035 0.348605 5.16369 0.241943 5.03226 0.241943H3.60369C3.47226 0.241943 3.3656 0.348605 3.3656 0.480034V0.95623C3.3656 1.08766 3.47226 1.19432 3.60369 1.19432Z" fill="#199BE2"/>
<path d="M0.270377 5.47996H0.746574C0.878002 5.47996 0.984664 5.37329 0.984664 5.24186V3.81329C0.984664 3.68186 0.878002 3.5752 0.746574 3.5752H0.270377C0.138949 3.5752 0.0322876 3.68186 0.0322876 3.81329V5.24186C0.0322876 5.37329 0.138949 5.47996 0.270377 5.47996Z" fill="#199BE2"/>
<path d="M12.1752 1.19432H13.3657V2.3848C13.3657 2.51623 13.4723 2.62289 13.6037 2.62289H14.08C14.2114 2.62289 14.318 2.51623 14.318 2.3848V1.19432C14.318 0.668132 13.8919 0.241943 13.3657 0.241943H12.1752C12.0437 0.241943 11.9371 0.348605 11.9371 0.480034V0.95623C11.9371 1.08766 12.0437 1.19432 12.1752 1.19432Z" fill="#199BE2"/>
<path d="M0.984664 8.09904V6.67046C0.984664 6.53904 0.878002 6.43237 0.746574 6.43237H0.270377C0.138949 6.43237 0.0322876 6.53904 0.0322876 6.67046V8.09904C0.0322876 8.23046 0.138949 8.33714 0.270377 8.33714H0.746574C0.878002 8.33714 0.984664 8.23046 0.984664 8.09904Z" fill="#199BE2"/>
<path d="M0.984664 2.3848V1.19432H2.17515C2.30657 1.19432 2.41324 1.08766 2.41324 0.95623V0.480034C2.41324 0.348605 2.30657 0.241943 2.17515 0.241943H0.984664C0.458476 0.241943 0.0322876 0.668132 0.0322876 1.19432V2.3848C0.0322876 2.51623 0.138949 2.62289 0.270378 2.62289H0.746574C0.878002 2.62289 0.984664 2.51623 0.984664 2.3848Z" fill="#199BE2"/>
<path d="M13.3657 3.81329V5.24186C13.3657 5.37329 13.4723 5.47996 13.6037 5.47996H14.0799C14.2114 5.47996 14.318 5.37329 14.318 5.24186V3.81329C14.318 3.68186 14.2114 3.5752 14.0799 3.5752H13.6037C13.4723 3.5752 13.3657 3.68186 13.3657 3.81329Z" fill="#199BE2"/>
<path d="M3.3656 10.9562V11.4325C3.3656 11.5639 3.47226 11.6705 3.60369 11.6705H5.03226C5.16369 11.6705 5.27035 11.5639 5.27035 11.4325V10.9562C5.27035 10.8248 5.16369 10.7181 5.03226 10.7181H3.60369C3.47226 10.7181 3.3656 10.8248 3.3656 10.9562Z" fill="#199BE2"/>
<path d="M0.746574 9.28955H0.270378C0.138949 9.28955 0.0322876 9.39621 0.0322876 9.52764V10.7181C0.0322876 11.2443 0.458476 11.6705 0.984664 11.6705H2.17515C2.30657 11.6705 2.41324 11.5639 2.41324 11.4325V10.9562C2.41324 10.8248 2.30657 10.7181 2.17515 10.7181H0.984664V9.52764C0.984664 9.39621 0.878002 9.28955 0.746574 9.28955Z" fill="#199BE2"/>
<path opacity="0.05" d="M13.9995 15.9562C13.7352 15.9562 13.4971 15.7999 13.3928 15.5577L12.8286 14.2595L12.0752 14.8876C11.9542 14.9877 11.8042 15.0419 11.6504 15.0419C11.2833 15.0419 10.9847 14.7438 10.9847 14.3771V8.9981C10.9847 8.73383 11.1414 8.49572 11.3842 8.39192C11.4652 8.35572 11.5542 8.33716 11.6471 8.33716C11.8223 8.33716 11.9875 8.4062 12.1128 8.53097L15.8723 12.2905C16.0571 12.4742 16.1166 12.741 16.0271 12.9872C15.9384 13.2329 15.7213 13.3996 15.4609 13.422L14.6984 13.4905L15.2475 14.7534C15.317 14.9162 15.32 15.0953 15.2557 15.2595C15.1913 15.4233 15.0666 15.5524 14.9041 15.6233L14.2633 15.902C14.1809 15.9376 14.0914 15.9562 13.9995 15.9562Z" fill="black"/>
<path opacity="0.07" d="M13.9995 15.7182C13.8308 15.7182 13.678 15.6181 13.6114 15.4633L12.9205 13.8733L11.9228 14.7053C11.8452 14.7696 11.749 14.8042 11.6509 14.8042C11.4152 14.8042 11.2233 14.6128 11.2233 14.3776V8.99807C11.2233 8.8295 11.3233 8.67712 11.4785 8.61093C11.5309 8.5876 11.588 8.57568 11.6471 8.57568C11.7585 8.57568 11.8642 8.61998 11.9442 8.69998L15.7038 12.4595C15.8224 12.5776 15.8604 12.7485 15.8033 12.9062C15.7466 13.0638 15.607 13.1709 15.44 13.1853L14.3481 13.2834L15.029 14.8486C15.0738 14.9524 15.0756 15.0671 15.0343 15.1724C14.9928 15.2777 14.9128 15.3599 14.809 15.4047L14.168 15.6834C14.1143 15.7067 14.0576 15.7182 13.9995 15.7182Z" fill="black"/>
<path d="M15.5352 12.6272L11.7756 8.86766C11.7166 8.80861 11.6366 8.80098 11.5718 8.82908C11.5094 8.85623 11.4609 8.91718 11.4609 8.99813V14.3776C11.4609 14.5371 11.6471 14.6243 11.7699 14.5224L13.0119 13.4867L13.8299 15.3691C13.8703 15.4623 13.9794 15.5053 14.0728 15.4648L14.7143 15.1858C14.8075 15.1453 14.8504 15.0362 14.8099 14.9428L13.998 13.0747L15.4189 12.9477C15.5781 12.9334 15.6485 12.7401 15.5352 12.6272Z" fill="white"/>
<defs>
<filter id="filter0_b_184_1103" x="2.22278" y="2.43237" width="21.8095" height="18.9524" filterUnits="userSpaceOnUse" color-interpolation-filters="sRGB">
<feFlood flood-opacity="0" result="BackgroundImageFix"/>
<feGaussianBlur in="BackgroundImageFix" stdDeviation="2"/>
<feComposite in2="SourceAlpha" operator="in" result="effect1_backgroundBlur_184_1103"/>
<feBlend mode="normal" in="SourceGraphic" in2="effect1_backgroundBlur_184_1103" result="shape"/>
</filter>
<linearGradient id="paint0_linear_184_1103" x1="3.82134" y1="1.46624" x2="10.7599" y2="10.7553" gradientUnits="userSpaceOnUse">
<stop stop-color="#0D61A9"/>
<stop offset="1" stop-color="#16528C"/>
</linearGradient>
<radialGradient id="paint1_radial_184_1103" cx="0" cy="0" r="1" gradientUnits="userSpaceOnUse" gradientTransform="translate(13.1275 11.9086) rotate(90) scale(5.47621 6.90476)">
<stop stop-color="#64717C"/>
<stop offset="1" stop-color="#546067" stop-opacity="0"/>
</radialGradient>
</defs>
</svg>
