<svg width="151" height="150" viewBox="0 0 151 150" fill="none" xmlns="http://www.w3.org/2000/svg">
<g id="add-shopping-cart">
<rect x="2.58203" y="2.5" width="145" height="145" rx="7.5" fill="white"/>
<rect x="2.58203" y="2.5" width="145" height="145" rx="7.5" fill="url(#paint0_linear_14_12101)" fill-opacity="0.2"/>
<g id="Group">
<path id="Vector" d="M46.2001 74.7257C45.1629 74.7257 44.235 74.0008 44.0165 72.9435L37.8267 42.8736C37.4007 40.8104 35.5627 39.3115 33.4571 39.3115H29.5469C28.3135 39.3115 27.3164 38.3144 27.3164 37.0809C27.3164 35.8474 28.3135 34.8504 29.5469 34.8504H33.4571C37.6728 34.8504 41.3465 37.846 42.1963 41.9747L48.3861 72.0446C48.6337 73.2491 47.8574 74.4291 46.6507 74.6789C46.5013 74.7101 46.3474 74.7257 46.2001 74.7257Z" fill="url(#paint1_linear_14_12101)"/>
<path id="Vector_2" d="M107.617 117.38C111.313 117.38 114.309 114.384 114.309 110.689C114.309 106.993 111.313 103.997 107.617 103.997C103.922 103.997 100.926 106.993 100.926 110.689C100.926 114.384 103.922 117.38 107.617 117.38Z" fill="#5C5F61"/>
<path id="Vector_3" opacity="0.15" d="M107.609 112.919C108.841 112.919 109.84 111.921 109.84 110.689C109.84 109.457 108.841 108.458 107.609 108.458C106.378 108.458 105.379 109.457 105.379 110.689C105.379 111.921 106.378 112.919 107.609 112.919Z" fill="black"/>
<path id="Vector_4" d="M58.5393 117.38C62.235 117.38 65.2309 114.384 65.2309 110.689C65.2309 106.993 62.235 103.997 58.5393 103.997C54.8436 103.997 51.8477 106.993 51.8477 110.689C51.8477 114.384 54.8436 117.38 58.5393 117.38Z" fill="#5C5F61"/>
<path id="Vector_5" opacity="0.15" d="M58.5469 112.919C59.7788 112.919 60.7775 111.921 60.7775 110.689C60.7775 109.457 59.7788 108.458 58.5469 108.458C57.3151 108.458 56.3164 109.457 56.3164 110.689C56.3164 111.921 57.3151 112.919 58.5469 112.919Z" fill="black"/>
<path id="Vector_6" d="M116.537 106.228H54.0823C49.1617 106.228 45.1602 102.226 45.1602 97.3055C45.1602 92.3849 49.1617 88.3833 54.0823 88.3833H109.846C111.079 88.3833 112.076 89.3804 112.076 90.6139C112.076 91.8474 111.079 92.8444 109.846 92.8444H54.0823C51.622 92.8444 49.6212 94.8452 49.6212 97.3055C49.6212 99.7658 51.622 101.767 54.0823 101.767H116.537C117.771 101.767 118.768 102.764 118.768 103.997C118.768 105.231 117.771 106.228 116.537 106.228Z" fill="url(#paint2_linear_14_12101)"/>
<path id="Vector_7" d="M34.0042 37.0809C34.0042 39.5434 32.0056 41.5419 29.5431 41.5419C27.0806 41.5419 25.082 39.5434 25.082 37.0809C25.082 34.6183 27.0806 32.6198 29.5431 32.6198C32.0056 32.6198 34.0042 34.6183 34.0042 37.0809Z" fill="url(#paint3_linear_14_12101)"/>
<path id="Vector_8" d="M46.6979 89.2175C47.0994 91.3231 48.9396 92.8443 51.0809 92.8443H114.988C117.17 92.8443 119.03 91.2673 119.389 89.1171L123.991 61.5053L40.1914 55.059L46.6979 89.2175Z" fill="url(#paint4_linear_14_12101)"/>
<path id="Vector_9" d="M123.027 52.5075L38.4648 46.0032L40.189 55.0592L123.986 61.5055L125.054 55.0993C125.271 53.8079 124.332 52.6078 123.027 52.5075Z" fill="url(#paint5_linear_14_12101)"/>
<path id="Vector_10" opacity="0.05" d="M93.1121 70.539H87.5357V64.9627C87.5357 63.1158 86.0368 61.6169 84.1899 61.6169H81.9594C80.1125 61.6169 78.6136 63.1158 78.6136 64.9627V70.539H73.0372C71.1903 70.539 69.6914 72.0379 69.6914 73.8848V76.1154C69.6914 77.9622 71.1903 79.4612 73.0372 79.4612H78.6136V85.0375C78.6136 86.8844 80.1125 88.3833 81.9594 88.3833H84.1899C86.0368 88.3833 87.5357 86.8844 87.5357 85.0375V79.4612H93.1121C94.959 79.4612 96.4579 77.9622 96.4579 76.1154V73.8848C96.4579 72.0379 94.959 70.539 93.1121 70.539Z" fill="black"/>
<path id="Vector_11" opacity="0.07" d="M93.114 71.6544H86.4224V64.9627C86.4224 63.7315 85.4231 62.7322 84.1918 62.7322H81.9613C80.73 62.7322 79.7307 63.7315 79.7307 64.9627V71.6544H73.0391C71.8079 71.6544 70.8086 72.6536 70.8086 73.8849V76.1154C70.8086 77.3467 71.8079 78.346 73.0391 78.346H79.7307V85.0376C79.7307 86.2689 80.73 87.2681 81.9613 87.2681H84.1918C85.4231 87.2681 86.4224 86.2689 86.4224 85.0376V78.346H93.114C94.3452 78.346 95.3445 77.3467 95.3445 76.1154V73.8849C95.3445 72.6536 94.3452 71.6544 93.114 71.6544Z" fill="black"/>
<path id="Vector_12" d="M84.1935 86.1526H81.9629C81.3473 86.1526 80.8477 85.6529 80.8477 85.0373V64.9625C80.8477 64.3468 81.3473 63.8472 81.9629 63.8472H84.1935C84.8091 63.8472 85.3087 64.3468 85.3087 64.9625V85.0373C85.3087 85.6529 84.8091 86.1526 84.1935 86.1526Z" fill="white"/>
<path id="Vector_13" d="M71.9258 76.1155V73.885C71.9258 73.2693 72.4254 72.7697 73.0411 72.7697H93.1159C93.7315 72.7697 94.2312 73.2693 94.2312 73.885V76.1155C94.2312 76.7311 93.7315 77.2308 93.1159 77.2308H73.0411C72.4254 77.2308 71.9258 76.7311 71.9258 76.1155Z" fill="white"/>
</g>
<rect x="2.58203" y="2.5" width="145" height="145" rx="7.5" stroke="#D5EAF6" stroke-width="5"/>
</g>
<defs>
<linearGradient id="paint0_linear_14_12101" x1="75.082" y1="5" x2="75.082" y2="145" gradientUnits="userSpaceOnUse">
<stop stop-color="#199AE0"/>
<stop offset="0.472222" stop-color="#0D5176" stop-opacity="0.527778"/>
<stop offset="0.940972" stop-color="#12A6F7" stop-opacity="0.465278"/>
<stop offset="1" stop-opacity="0"/>
</linearGradient>
<linearGradient id="paint1_linear_14_12101" x1="37.8758" y1="74.7257" x2="37.8758" y2="34.8504" gradientUnits="userSpaceOnUse">
<stop stop-color="#92A3B0"/>
<stop offset="0.015" stop-color="#A3B5C4"/>
<stop offset="0.032" stop-color="#AEC2D1"/>
<stop offset="0.046" stop-color="#B2C6D6"/>
</linearGradient>
<linearGradient id="paint2_linear_14_12101" x1="81.964" y1="106.228" x2="81.964" y2="88.3833" gradientUnits="userSpaceOnUse">
<stop stop-color="#92A3B0"/>
<stop offset="0.015" stop-color="#A3B5C4"/>
<stop offset="0.032" stop-color="#AEC2D1"/>
<stop offset="0.046" stop-color="#B2C6D6"/>
</linearGradient>
<linearGradient id="paint3_linear_14_12101" x1="26.7683" y1="34.3061" x2="32.6302" y2="40.1679" gradientUnits="userSpaceOnUse">
<stop stop-color="#199AE0"/>
<stop offset="1" stop-color="#0782D8"/>
</linearGradient>
<linearGradient id="paint4_linear_14_12101" x1="40.1914" y1="73.9517" x2="123.991" y2="73.9517" gradientUnits="userSpaceOnUse">
<stop stop-color="#3079D6"/>
<stop offset="1" stop-color="#297CD2"/>
</linearGradient>
<linearGradient id="paint5_linear_14_12101" x1="38.4648" y1="53.7543" x2="125.086" y2="53.7543" gradientUnits="userSpaceOnUse">
<stop stop-color="#42A3F2"/>
<stop offset="1" stop-color="#42A4EB"/>
</linearGradient>
</defs>
</svg>
