<svg width="151" height="150" viewBox="0 0 151 150" fill="none" xmlns="http://www.w3.org/2000/svg">
<g id="alarms">
<rect x="2.58203" y="2.5" width="145" height="145" rx="7.5" fill="white"/>
<rect x="2.58203" y="2.5" width="145" height="145" rx="7.5" fill="url(#paint0_linear_14_12169)" fill-opacity="0.2"/>
<g id="Group">
<path id="Vector" d="M31.7461 49.4427L71.7487 33.5439V62.7769C71.7487 64.0037 70.7531 64.9993 69.5263 64.9993H31.7461V49.4427Z" fill="url(#paint1_linear_14_12169)"/>
<path id="Vector_2" d="M25.082 33.5439V62.7769C25.082 64.0037 26.0777 64.9993 27.3044 64.9993H69.5294C70.0761 64.9993 70.5694 64.7948 70.9561 64.4682L25.082 33.5439Z" fill="url(#paint2_linear_14_12169)"/>
<path id="Vector_3" opacity="0.05" d="M25.082 32.7752H71.7517V34.6553L52.506 49.6008C50.0992 51.4698 46.7346 51.4698 44.3277 49.6008L25.082 34.6553V32.7752Z" fill="black"/>
<path id="Vector_4" opacity="0.07" d="M25.082 32.2194H71.7517V34.0995L51.7127 48.6694C49.7547 50.1184 47.079 50.1184 45.1211 48.6694L25.082 34.0995V32.2194Z" fill="black"/>
<path id="Vector_5" d="M27.3044 29.4415H69.5294C70.7561 29.4415 71.7517 30.4371 71.7517 31.6639V33.544L50.9193 47.7383C49.4103 48.7672 47.4235 48.7672 45.9145 47.7383L25.082 33.544V31.6639C25.082 30.4371 26.0777 29.4415 27.3044 29.4415Z" fill="#50E6FF"/>
<path id="Vector_6" d="M124.272 113.549L82.3272 46.747C82.3272 46.747 81.1982 44.4135 78.4158 44.4135C75.6334 44.4135 74.5044 46.747 74.5044 46.747L32.5595 113.549C32.5595 113.549 31.7461 114.64 31.7461 116.114C31.7461 118.569 33.7351 120.558 36.1908 120.558H120.641C123.096 120.558 125.085 118.569 125.085 116.114C125.085 114.64 124.272 113.549 124.272 113.549Z" fill="url(#paint3_linear_14_12169)"/>
<path id="Vector_7" d="M78.4535 111.669C76.8268 111.669 75.4845 111.176 74.4266 110.189C73.3688 109.202 72.8398 108.009 72.8398 106.604C72.8398 105.14 73.3732 103.94 74.4422 103.004C75.5089 102.068 76.8468 101.602 78.4535 101.602C80.0803 101.602 81.4137 102.075 82.4494 103.02C83.4872 103.966 84.005 105.16 84.005 106.604C84.005 108.069 83.4916 109.278 82.4649 110.233C81.4382 111.189 80.1003 111.669 78.4535 111.669ZM83.3916 68.824L82.3227 95.8813C82.2893 96.708 81.6093 97.3614 80.7826 97.3614H75.94C75.1111 97.3614 74.4311 96.7058 74.3999 95.8768L73.3888 68.8218C73.3554 67.9484 74.0555 67.2216 74.9289 67.2216H81.8538C82.7272 67.2216 83.4272 67.9484 83.3916 68.824Z" fill="url(#paint4_radial_14_12169)"/>
</g>
<rect x="2.58203" y="2.5" width="145" height="145" rx="7.5" stroke="#D5EAF6" stroke-width="5"/>
</g>
<defs>
<linearGradient id="paint0_linear_14_12169" x1="75.082" y1="5" x2="75.082" y2="145" gradientUnits="userSpaceOnUse">
<stop stop-color="#199AE0"/>
<stop offset="0.472222" stop-color="#0D5176" stop-opacity="0.527778"/>
<stop offset="0.940972" stop-color="#12A6F7" stop-opacity="0.465278"/>
<stop offset="1" stop-opacity="0"/>
</linearGradient>
<linearGradient id="paint1_linear_14_12169" x1="45.6537" y1="40.151" x2="72.4065" y2="80.1914" gradientUnits="userSpaceOnUse">
<stop stop-color="#28AFEA"/>
<stop offset="1" stop-color="#0B88DA"/>
</linearGradient>
<linearGradient id="paint2_linear_14_12169" x1="23.313" y1="47.6759" x2="62.12" y2="71.8486" gradientUnits="userSpaceOnUse">
<stop stop-color="#28AFEA"/>
<stop offset="1" stop-color="#0B88DA"/>
</linearGradient>
<linearGradient id="paint3_linear_14_12169" x1="-661.079" y1="-741.44" x2="107.095" y2="139.597" gradientUnits="userSpaceOnUse">
<stop stop-color="#FFDA1C"/>
<stop offset="1" stop-color="#FEB705"/>
</linearGradient>
<radialGradient id="paint4_radial_14_12169" cx="0" cy="0" r="1" gradientUnits="userSpaceOnUse" gradientTransform="translate(65.5083 66.7349) scale(49.6988 49.6988)">
<stop stop-color="#4B4B4B"/>
<stop offset="0.531" stop-color="#393939"/>
<stop offset="1" stop-color="#252525"/>
</radialGradient>
</defs>
</svg>
