<svg width="151" height="150" viewBox="0 0 151 150" fill="none" xmlns="http://www.w3.org/2000/svg">
<g id="analyze">
<rect x="2.58203" y="2.5" width="145" height="145" rx="7.5" fill="white"/>
<rect x="2.58203" y="2.5" width="145" height="145" rx="7.5" fill="url(#paint0_linear_14_12184)" fill-opacity="0.2"/>
<g id="Group">
<path id="Vector" d="M103.286 53.2051V117.308C103.282 118.666 102.741 119.969 101.78 120.929C100.819 121.89 99.5169 122.432 98.1581 122.436H31.4915C30.1326 122.432 28.8306 121.89 27.8697 120.929C26.9089 119.969 26.3673 118.666 26.3633 117.308V30.1282C26.3631 29.4547 26.4956 28.7878 26.7533 28.1655C27.0109 27.5432 27.3887 26.9778 27.8649 26.5016C28.3411 26.0254 28.9065 25.6476 29.5288 25.39C30.1511 25.1323 30.818 24.9998 31.4915 25H75.0812L103.286 53.2051Z" fill="#50E6FF"/>
<path id="Vector_2" d="M75.082 25V48.0769C75.0818 48.7504 75.2144 49.4173 75.472 50.0396C75.7297 50.6619 76.1074 51.2273 76.5836 51.7035C77.0599 52.1797 77.6253 52.5575 78.2475 52.8151C78.8698 53.0728 79.5367 53.2053 80.2102 53.2051H103.287L75.082 25Z" fill="url(#paint1_linear_14_12184)"/>
<path id="Vector_3" d="M108.767 105.416L104.215 109.968L119.057 124.811C119.117 124.871 119.188 124.918 119.266 124.951C119.345 124.983 119.428 125 119.513 125C119.598 125 119.682 124.983 119.76 124.951C119.838 124.918 119.909 124.871 119.969 124.811L123.609 121.17C123.669 121.111 123.717 121.04 123.749 120.961C123.782 120.883 123.798 120.799 123.798 120.715C123.798 120.63 123.782 120.546 123.749 120.468C123.717 120.39 123.669 120.319 123.609 120.259L108.767 105.416Z" fill="#199BE2"/>
<path id="Vector_4" d="M37.8953 66.0256H87.8953V71.1538H37.8953C37.5553 71.1538 37.2292 71.0188 36.9888 70.7783C36.7484 70.5379 36.6133 70.2118 36.6133 69.8718V67.3077C36.6133 66.9677 36.7484 66.6416 36.9888 66.4011C37.2292 66.1607 37.5553 66.0256 37.8953 66.0256Z" fill="#057093"/>
<path id="Vector_5" d="M91.7414 78.8462H37.8953C37.1873 78.8462 36.6133 79.4202 36.6133 80.1282V82.6923C36.6133 83.4004 37.1873 83.9744 37.8953 83.9744H91.7414C92.4495 83.9744 93.0235 83.4004 93.0235 82.6923V80.1282C93.0235 79.4202 92.4495 78.8462 91.7414 78.8462Z" fill="#057093"/>
<path id="Vector_6" d="M91.7414 91.6667H37.8953C37.1873 91.6667 36.6133 92.2407 36.6133 92.9488V95.5129C36.6133 96.221 37.1873 96.7949 37.8953 96.7949H91.7414C92.4495 96.7949 93.0235 96.221 93.0235 95.5129V92.9488C93.0235 92.2407 92.4495 91.6667 91.7414 91.6667Z" fill="#057093"/>
<path id="Vector_7" d="M105.271 101.923L100.723 106.472L106.364 112.115L110.915 107.564L105.271 101.923Z" fill="url(#paint2_radial_14_12184)"/>
<path id="Vector_8" d="M87.9077 66.0281C92.0197 66.0291 96.0569 67.1289 99.6013 69.2138C103.146 71.2986 106.069 74.2927 108.068 77.8862C110.067 81.4797 111.069 85.5421 110.971 89.6531C110.873 93.764 109.678 97.7741 107.511 101.268C105.343 104.763 102.281 107.614 98.6412 109.528C95.0016 111.442 90.9167 112.348 86.8092 112.153C82.7017 111.959 78.7209 110.67 75.2786 108.42C71.8364 106.171 69.0578 103.043 67.2303 99.3588C66.8191 98.5313 68.5015 97.2429 68.1904 96.3627C67.8956 95.5288 65.6021 95.1055 65.4036 94.2306C64.6413 90.8543 64.6415 87.3505 65.4042 83.9742C65.6028 83.0994 67.9375 82.6064 68.2323 81.7725C68.5464 80.8839 66.8271 79.6575 67.2432 78.8227C69.1562 74.9787 72.1038 71.7447 75.7544 69.4843C79.4051 67.224 83.6139 66.027 87.9077 66.0281V66.0281Z" fill="url(#paint3_linear_14_12184)"/>
<path id="Vector_9" d="M63.5539 53.2053H37.8719C37.1638 53.2053 36.5898 53.7793 36.5898 54.4874V57.0515C36.5898 57.7595 37.1638 58.3335 37.8719 58.3335H63.5539C64.262 58.3335 64.836 57.7595 64.836 57.0515V54.4874C64.836 53.7793 64.262 53.2053 63.5539 53.2053Z" fill="#057093"/>
<path id="Vector_10" d="M63.5539 40.3845H37.8719C37.1638 40.3845 36.5898 40.9585 36.5898 41.6666V44.2307C36.5898 44.9387 37.1638 45.5127 37.8719 45.5127H63.5539C64.262 45.5127 64.836 44.9387 64.836 44.2307V41.6666C64.836 40.9585 64.262 40.3845 63.5539 40.3845Z" fill="#057093"/>
<path id="Vector_11" opacity="0.05" d="M87.9027 63.4614C81.1023 63.4614 74.5804 66.1629 69.7718 70.9715C64.9632 75.7801 62.2617 82.302 62.2617 89.1024C62.2617 95.9029 64.9632 102.425 69.7718 107.233C74.5804 112.042 81.1023 114.743 87.9027 114.743C92.7022 114.757 97.4066 113.405 101.467 110.846L103.287 112.667V109.025L101.775 107.513C98.2834 110.146 94.1156 111.733 89.7571 112.088C85.3986 112.444 81.0289 111.553 77.1572 109.52C73.2855 107.487 70.0714 104.396 67.8894 100.606C65.7075 96.8162 64.6476 92.4844 64.8333 88.1154C65.019 83.7464 66.4427 79.5201 68.9384 75.9292C71.4341 72.3383 74.8989 69.5307 78.9292 67.8337C82.9594 66.1366 87.389 65.6199 91.7016 66.344C96.0142 67.068 100.032 69.0028 103.287 71.923V68.6153C98.858 65.2664 93.4556 63.4566 87.9027 63.4614V63.4614Z" fill="black"/>
<path id="Vector_12" opacity="0.07" d="M87.8976 66.0255C93.5787 66.0204 99.0601 68.1216 103.282 71.923V70.2307C99.7802 67.3668 95.5502 65.5343 91.0658 64.9384C86.5814 64.3425 82.0196 65.0067 77.8913 66.8567C73.763 68.7066 70.2312 71.6692 67.6913 75.4128C65.1514 79.1563 63.7038 83.533 63.5105 88.0527C63.3173 92.5724 64.386 97.0567 66.597 101.003C68.808 104.95 72.074 108.203 76.0293 110.399C79.9846 112.595 84.473 113.646 88.9919 113.435C93.5109 113.224 97.8819 111.759 101.615 109.205L103.282 110.872V109.026L101.769 107.513C98.8484 109.714 95.4458 111.189 91.8423 111.816C88.2389 112.443 84.538 112.205 81.0451 111.12C77.5521 110.035 74.3672 108.135 71.7532 105.577C69.1392 103.018 67.1711 99.875 66.0112 96.4062C64.8514 92.9374 64.5331 89.2425 65.0826 85.6264C65.6321 82.0103 67.0336 78.5768 69.1716 75.6091C71.3095 72.6414 74.1225 70.2247 77.3785 68.5583C80.6344 66.892 84.24 66.0239 87.8976 66.0255V66.0255Z" fill="black"/>
<path id="Vector_13" d="M95.588 80.1282V85.2564C95.588 85.5965 95.4529 85.9226 95.2125 86.163C94.9721 86.4034 94.646 86.5385 94.306 86.5385H64.9727C65.2534 83.859 66.0179 81.2527 67.2291 78.8462H94.306C94.646 78.8462 94.9721 78.9813 95.2125 79.2217C95.4529 79.4621 95.588 79.7882 95.588 80.1282Z" fill="url(#paint4_linear_14_12184)"/>
<path id="Vector_14" d="M95.5996 95.5128V100.641C95.5996 100.981 95.4646 101.307 95.2241 101.548C94.9837 101.788 94.6576 101.923 94.3176 101.923H68.7279C67.1593 99.5824 66.0297 96.9758 65.3945 94.2307H94.3176C94.6576 94.2307 94.9837 94.3658 95.2241 94.6062C95.4646 94.8466 95.5996 95.1727 95.5996 95.5128Z" fill="url(#paint5_linear_14_12184)"/>
</g>
<rect x="2.58203" y="2.5" width="145" height="145" rx="7.5" stroke="#D5EAF6" stroke-width="5"/>
</g>
<defs>
<linearGradient id="paint0_linear_14_12184" x1="75.082" y1="5" x2="75.082" y2="145" gradientUnits="userSpaceOnUse">
<stop stop-color="#199AE0"/>
<stop offset="0.472222" stop-color="#0D5176" stop-opacity="0.527778"/>
<stop offset="0.940972" stop-color="#12A6F7" stop-opacity="0.465278"/>
<stop offset="1" stop-opacity="0"/>
</linearGradient>
<linearGradient id="paint1_linear_14_12184" x1="76.4384" y1="51.8513" x2="89.441" y2="38.8461" gradientUnits="userSpaceOnUse">
<stop stop-color="#3079D6"/>
<stop offset="1" stop-color="#297CD2"/>
</linearGradient>
<radialGradient id="paint2_radial_14_12184" cx="0" cy="0" r="1" gradientUnits="userSpaceOnUse" gradientTransform="translate(89.2406 91.0357) scale(25.2359 25.2359)">
<stop offset="0.693" stop-color="#006185"/>
<stop offset="0.921" stop-color="#35C1F1"/>
</radialGradient>
<linearGradient id="paint3_linear_14_12184" x1="70.1423" y1="71.3383" x2="120.335" y2="121.531" gradientUnits="userSpaceOnUse">
<stop stop-color="#A3FFFF"/>
<stop offset="0.223" stop-color="#9DFBFF"/>
<stop offset="0.53" stop-color="#8BF1FF"/>
<stop offset="0.885" stop-color="#6EE0FF"/>
<stop offset="1" stop-color="#63DAFF"/>
</linearGradient>
<linearGradient id="paint4_linear_14_12184" x1="55.2598" y1="82.6923" x2="93.406" y2="82.6923" gradientUnits="userSpaceOnUse">
<stop stop-color="#3B8FBF"/>
<stop offset="1" stop-color="#057093"/>
</linearGradient>
<linearGradient id="paint5_linear_14_12184" x1="55.2715" y1="98.0769" x2="93.4176" y2="98.0769" gradientUnits="userSpaceOnUse">
<stop stop-color="#3B8FBF"/>
<stop offset="1" stop-color="#057093"/>
</linearGradient>
</defs>
</svg>
