<svg width="151" height="150" viewBox="0 0 151 150" fill="none" xmlns="http://www.w3.org/2000/svg">
<g id="approved-unlock">
<rect x="2.58203" y="2.5" width="145" height="145" rx="7.5" fill="white"/>
<rect x="2.58203" y="2.5" width="145" height="145" rx="7.5" fill="url(#paint0_linear_14_12200)" fill-opacity="0.2"/>
<g id="Group">
<path id="Vector" d="M112.583 102.083H29.25V112.5C29.25 114.802 31.1146 116.667 33.4167 116.667H108.417C110.719 116.667 112.583 114.802 112.583 112.5V102.083Z" fill="#C48C00"/>
<path id="Vector_2" d="M112.583 72.9166H29.25V62.4999C29.25 60.1978 31.1146 58.3333 33.4167 58.3333H108.417C110.719 58.3333 112.583 60.1978 112.583 62.4999V72.9166Z" fill="#FAD500"/>
<path id="Vector_3" d="M112.583 72.9167H29.25V87.5001H112.583V72.9167Z" fill="#EDBE00"/>
<path id="Vector_4" d="M112.583 87.5H29.25V102.083H112.583V87.5Z" fill="#E3A600"/>
<path id="Vector_5" d="M77.1719 85.4167C77.1719 81.9647 74.374 79.1667 70.9219 79.1667C67.4698 79.1667 64.6719 81.9647 64.6719 85.4167C64.6719 88.1334 66.4156 90.423 68.8385 91.2834V97.9167C68.8385 99.0667 69.7719 100 70.9219 100C72.0719 100 73.0052 99.0667 73.0052 97.9167V91.2834C75.4281 90.423 77.1719 88.1334 77.1719 85.4167Z" fill="url(#paint1_linear_14_12200)"/>
<path id="Vector_6" d="M88.5614 45.8333H97.2219C94.3989 33.8958 83.7135 25 70.9115 25C55.9531 25 43.8281 37.125 43.8281 52.0833V58.3333H52.1615V52.0833C52.1615 41.7271 60.5552 33.3333 70.9115 33.3333C79.0698 33.3333 85.9864 38.5562 88.5614 45.8333Z" fill="url(#paint2_linear_14_12200)"/>
<path id="Vector_7" opacity="0.05" d="M112.589 84.9583V112.5C112.589 114.792 110.714 116.667 108.422 116.667H80.8802C78.526 113.062 77.1719 108.792 77.1719 104.167C77.1719 91.5208 87.4427 81.25 100.089 81.25C104.714 81.25 108.984 82.6042 112.589 84.9583Z" fill="black"/>
<path id="Vector_8" opacity="0.07" d="M112.578 86.2292V112.5C112.578 114.792 110.703 116.667 108.411 116.667H82.1406C79.6615 113.125 78.2031 108.813 78.2031 104.167C78.2031 92.1042 88.0156 82.2917 100.078 82.2917C104.724 82.2917 109.036 83.7501 112.578 86.2292Z" fill="black"/>
<path id="Vector_9" d="M120.917 104.167C120.917 115.671 111.587 125 100.083 125C88.5792 125 79.25 115.671 79.25 104.167C79.25 92.6624 88.5792 83.3333 100.083 83.3333C111.587 83.3333 120.917 92.6624 120.917 104.167Z" fill="url(#paint3_linear_14_12200)"/>
<path id="Vector_10" d="M97.263 113.237L88.9297 104.904C88.5234 104.498 88.5234 103.837 88.9297 103.431L90.4026 101.958C90.8089 101.552 91.4693 101.552 91.8755 101.958L98.0005 108.081L109.332 96.7499C109.738 96.3436 110.398 96.3436 110.805 96.7499L112.278 98.2228C112.684 98.629 112.684 99.2895 112.278 99.6957L98.7359 113.237C98.3297 113.644 97.6714 113.644 97.263 113.237Z" fill="white"/>
</g>
<rect x="2.58203" y="2.5" width="145" height="145" rx="7.5" stroke="#D5EAF6" stroke-width="5"/>
</g>
<defs>
<linearGradient id="paint0_linear_14_12200" x1="75.082" y1="5" x2="75.082" y2="145" gradientUnits="userSpaceOnUse">
<stop stop-color="#199AE0"/>
<stop offset="0.472222" stop-color="#0D5176" stop-opacity="0.527778"/>
<stop offset="0.940972" stop-color="#12A6F7" stop-opacity="0.465278"/>
<stop offset="1" stop-opacity="0"/>
</linearGradient>
<linearGradient id="paint1_linear_14_12200" x1="70.9219" y1="98.6938" x2="70.9219" y2="81.573" gradientUnits="userSpaceOnUse">
<stop stop-color="#4B4B4B"/>
<stop offset="1" stop-color="#3B3B3B"/>
</linearGradient>
<linearGradient id="paint2_linear_14_12200" x1="70.524" y1="57.5979" x2="70.524" y2="24.3833" gradientUnits="userSpaceOnUse">
<stop stop-color="#92A3B0"/>
<stop offset="0.015" stop-color="#A3B5C4"/>
<stop offset="0.032" stop-color="#AEC2D1"/>
<stop offset="0.046" stop-color="#B2C6D6"/>
</linearGradient>
<linearGradient id="paint3_linear_14_12200" x1="85.3521" y1="89.4353" x2="114.815" y2="118.898" gradientUnits="userSpaceOnUse">
<stop stop-color="#21AD64"/>
<stop offset="1" stop-color="#088242"/>
</linearGradient>
</defs>
</svg>
