<svg width="151" height="150" viewBox="0 0 151 150" fill="none" xmlns="http://www.w3.org/2000/svg">
<g id="attach">
<rect x="2.58203" y="2.5" width="145" height="145" rx="7.5" fill="white"/>
<rect x="2.58203" y="2.5" width="145" height="145" rx="7.5" fill="url(#paint0_linear_14_12230)" fill-opacity="0.2"/>
<path id="Vector" d="M60.7156 125C52.5484 125 44.3786 121.889 38.1644 115.664C25.7887 103.267 26.4809 82.3244 38.8672 69.9381L76.0471 32.7582C80.4268 28.3785 86.1698 25.4333 92.3525 25.049C99.4563 24.6068 106.21 27.1704 111.187 32.1528C116.17 37.1326 118.733 43.8864 118.291 50.9876C117.907 57.1676 114.959 62.9133 110.582 67.293L74.0704 103.804C71.1278 106.747 67.3088 108.792 63.166 109.155C58.0599 109.603 53.1854 107.818 49.619 104.249C46.0499 100.683 44.2654 95.8083 44.7129 90.7021C45.0761 86.5593 47.1212 82.7376 50.0638 79.7977L75.5128 54.3513C76.026 53.8381 76.8604 53.8381 77.3736 54.3513L81.0953 58.073C81.6085 58.5862 81.6085 59.4206 81.0953 59.9338L55.4384 85.5908C54.0776 86.9515 53.0353 88.6571 52.6958 90.5521C52.1483 93.5947 53.0932 96.5584 55.2041 98.6693C58.6336 102.099 64.6083 102.104 68.0457 98.6693L105.607 61.1077C108.726 57.9809 110.445 53.8328 110.445 49.4189C110.445 45.005 108.726 40.8543 105.605 37.7354C102.483 34.6164 98.3324 32.8951 93.9211 32.8951C89.5099 32.8951 85.3592 34.6138 82.2376 37.7354L43.768 76.2023C34.4243 85.5486 34.4243 100.754 43.768 110.1C53.1169 119.444 68.3221 119.441 77.6658 110.1L114.977 72.7886C115.491 72.2754 116.325 72.2754 116.838 72.7886L120.56 76.5103C121.073 77.0235 121.073 77.8579 120.56 78.3711L83.2483 115.683C77.0394 121.894 68.8775 125 60.7156 125Z" fill="#199BE2"/>
<rect x="2.58203" y="2.5" width="145" height="145" rx="7.5" stroke="#D5EAF6" stroke-width="5"/>
</g>
<defs>
<linearGradient id="paint0_linear_14_12230" x1="75.082" y1="5" x2="75.082" y2="145" gradientUnits="userSpaceOnUse">
<stop stop-color="#199AE0"/>
<stop offset="0.472222" stop-color="#0D5176" stop-opacity="0.527778"/>
<stop offset="0.940972" stop-color="#12A6F7" stop-opacity="0.465278"/>
<stop offset="1" stop-opacity="0"/>
</linearGradient>
</defs>
</svg>
