<svg width="150" height="150" viewBox="0 0 150 150" fill="none" xmlns="http://www.w3.org/2000/svg">
<g id="chat-message">
<rect x="2.5" y="2.5" width="145" height="145" rx="7.5" fill="white"/>
<rect x="2.5" y="2.5" width="145" height="145" rx="7.5" fill="url(#paint0_linear_14_9249)" fill-opacity="0.2"/>
<g id="Group">
<path id="Vector" d="M72.6326 25C98.7833 25 119.981 46.198 119.981 72.3488C119.981 80.9591 117.647 89.0084 113.632 95.964L124.437 120.547C125.635 123.272 122.754 125.993 120.102 124.643L97.0101 112.884C89.8817 117.181 81.5602 119.698 72.6326 119.698C46.4819 119.698 25.2838 98.4995 25.2838 72.3488C25.2838 46.198 46.4819 25 72.6326 25Z" fill="url(#paint1_linear_14_9249)"/>
<path id="Vector_2" opacity="0.05" d="M47.8269 65.2464C45.8406 65.2464 44.2213 63.6531 44.2213 61.6952V59.3278C44.2213 57.3699 45.8406 55.7766 47.8269 55.7766H97.4319C99.4205 55.7766 101.04 57.3699 101.04 59.3278V61.6952C101.04 63.6531 99.4205 65.2464 97.4342 65.2464H47.8269Z" fill="black"/>
<path id="Vector_3" opacity="0.07" d="M47.8229 64.0628C46.4877 64.0628 45.401 62.9998 45.401 61.6953V59.3279C45.401 58.0234 46.4877 56.9604 47.8229 56.9604H97.4278C98.7631 56.9604 99.8497 58.0234 99.8497 59.3279V61.6953C99.8497 62.9998 98.7631 64.0628 97.4278 64.0628H47.8229Z" fill="black"/>
<path id="Vector_4" d="M98.6799 59.3278V61.6952C98.6799 62.3486 98.1236 62.8789 97.4394 62.8789H47.8369C47.1527 62.8789 46.5963 62.3486 46.5963 61.6952V59.3278C46.5963 58.6743 47.1527 58.144 47.8369 58.144H97.4394C98.1236 58.144 98.6799 58.6743 98.6799 59.3278Z" fill="white"/>
<path id="Vector_5" opacity="0.05" d="M47.8269 88.9207C45.8406 88.9207 44.2213 87.3274 44.2213 85.3695V83.0021C44.2213 81.0442 45.8406 79.4509 47.8269 79.4509H97.4319C99.4205 79.4509 101.04 81.0442 101.04 83.0021V85.3695C101.04 87.3274 99.4205 88.9207 97.4342 88.9207H47.8269Z" fill="black"/>
<path id="Vector_6" opacity="0.07" d="M47.8229 87.7371C46.4877 87.7371 45.401 86.6741 45.401 85.3696V83.0022C45.401 81.6977 46.4877 80.6348 47.8229 80.6348H97.4278C98.7631 80.6348 99.8497 81.6977 99.8497 83.0022V85.3696C99.8497 86.6741 98.7631 87.7371 97.4278 87.7371H47.8229Z" fill="black"/>
<path id="Vector_7" d="M98.6799 83.0023V85.3698C98.6799 86.0232 98.1236 86.5535 97.4394 86.5535H47.8369C47.1527 86.5535 46.5963 86.0232 46.5963 85.3698V83.0023C46.5963 82.3489 47.1527 81.8186 47.8369 81.8186H97.4394C98.1236 81.8186 98.6799 82.3489 98.6799 83.0023Z" fill="white"/>
<path id="Vector_8" opacity="0.05" d="M47.834 77.0835C45.843 77.0835 44.2213 75.4902 44.2213 73.5324V71.1649C44.2213 69.2071 45.843 67.6138 47.834 67.6138H92.6899C94.6833 67.6138 96.3049 69.2071 96.3049 71.1649V73.5324C96.3049 75.4902 94.6832 77.0835 92.6922 77.0835H47.834Z" fill="black"/>
<path id="Vector_9" opacity="0.07" d="M47.83 75.8999C46.49 75.8999 45.401 74.8369 45.401 73.5325V71.165C45.401 69.8606 46.49 68.7976 47.83 68.7976H92.6858C94.0258 68.7976 95.1148 69.8606 95.1148 71.165V73.5325C95.1148 74.8369 94.0258 75.8999 92.6858 75.8999H47.83Z" fill="black"/>
<path id="Vector_10" d="M93.9451 71.1649V73.5324C93.9451 74.1858 93.3864 74.7161 92.6998 74.7161H47.8416C47.155 74.7161 46.5963 74.1858 46.5963 73.5324V71.1649C46.5963 70.5115 47.155 69.9812 47.8416 69.9812H92.6974C93.3864 69.9812 93.9451 70.5115 93.9451 71.1649Z" fill="white"/>
</g>
<rect x="2.5" y="2.5" width="145" height="145" rx="7.5" stroke="#D5EAF6" stroke-width="5"/>
</g>
<defs>
<linearGradient id="paint0_linear_14_9249" x1="75" y1="5" x2="75" y2="145" gradientUnits="userSpaceOnUse">
<stop stop-color="#199AE0"/>
<stop offset="0.472222" stop-color="#0D5176" stop-opacity="0.527778"/>
<stop offset="0.940972" stop-color="#12A6F7" stop-opacity="0.465278"/>
<stop offset="1" stop-opacity="0"/>
</linearGradient>
<linearGradient id="paint1_linear_14_9249" x1="48.48" y1="31.6146" x2="105.897" y2="128.452" gradientUnits="userSpaceOnUse">
<stop stop-color="#0176D0"/>
<stop offset="1" stop-color="#0A85D9"/>
</linearGradient>
</defs>
</svg>
