<svg width="150" height="150" viewBox="0 0 150 150" fill="none" xmlns="http://www.w3.org/2000/svg">
<g id="cloud-mail">
<rect x="2.5" y="2.5" width="145" height="145" rx="7.5" fill="white"/>
<rect x="2.5" y="2.5" width="145" height="145" rx="7.5" fill="url(#paint0_linear_14_9350)" fill-opacity="0.2"/>
<g id="Group">
<path id="Vector" d="M124.931 89.5892C124.931 103.329 113.689 114.572 99.949 114.572C96.2016 114.572 48.5269 114.572 44.7796 114.572C33.9539 114.572 25.0018 105.828 25.0018 94.7938C25.0018 85.4254 31.6638 77.5144 40.4076 75.4325C43.9468 60.8594 57.2708 50.0337 72.8847 50.0337C84.335 50.0337 94.5362 55.8629 100.365 64.6068C114.106 64.815 124.931 76.057 124.931 89.5892Z" fill="url(#paint1_linear_14_9350)"/>
<path id="Vector_2" opacity="0.05" d="M100.376 64.6066C94.9635 56.4873 86.0114 51.0745 75.6021 50.2417C75.3939 50.6581 74.9776 51.0745 74.9776 51.4908C74.7694 52.74 74.9776 53.7809 75.8103 54.6136L84.9705 63.7739V72.1013C84.9705 73.975 86.4278 75.4323 88.3015 75.4323H96.4208L105.581 84.5925C106.206 85.2171 107.038 85.6335 108.079 85.6335C109.537 85.6335 110.786 84.8007 111.41 83.3434L115.782 70.4358C111.618 66.8967 106.206 64.8148 100.376 64.6066Z" fill="black"/>
<path id="Vector_3" opacity="0.07" d="M100.362 64.6066C95.1571 56.9037 86.6215 51.4908 77.0449 50.2417C76.6285 50.6581 76.2122 51.0745 76.004 51.699C75.7958 52.5318 76.004 53.3645 76.6285 53.9891L85.9969 63.3575V72.1013C85.9969 73.3504 87.0379 74.3914 88.287 74.3914H97.0308L106.399 83.7598C106.816 84.1761 107.44 84.3843 108.065 84.3843C109.106 84.3843 109.938 83.7598 110.355 82.7188L114.935 69.6031C110.771 66.4803 105.775 64.8148 100.362 64.6066Z" fill="black"/>
<path id="Vector_4" d="M123.264 35.4606L77.8796 51.0746C76.8386 51.491 76.6304 52.5319 77.4632 53.3646L107.234 83.1353C107.858 83.7599 109.108 83.5517 109.524 82.7189L124.93 37.1261C125.138 36.0851 124.305 35.2524 123.264 35.4606Z" fill="#CCCCCC"/>
<path id="Vector_5" d="M92.2313 68.1459L107.013 82.9272C107.637 83.5517 108.886 83.3435 109.303 82.5108L124.917 37.1261C125.125 36.7097 124.917 36.0852 124.5 35.877L92.2313 68.1459Z" fill="#999999"/>
<path id="Vector_6" d="M118.68 41.7062L87.0358 62.9412V72.1015C87.0358 72.726 87.6603 73.3506 88.2849 73.3506H97.4451L118.68 41.7062Z" fill="#64717C"/>
</g>
<rect x="2.5" y="2.5" width="145" height="145" rx="7.5" stroke="#D5EAF6" stroke-width="5"/>
</g>
<defs>
<linearGradient id="paint0_linear_14_9350" x1="75" y1="5" x2="75" y2="145" gradientUnits="userSpaceOnUse">
<stop stop-color="#199AE0"/>
<stop offset="0.472222" stop-color="#0D5176" stop-opacity="0.527778"/>
<stop offset="0.940972" stop-color="#12A6F7" stop-opacity="0.465278"/>
<stop offset="1" stop-opacity="0"/>
</linearGradient>
<linearGradient id="paint1_linear_14_9350" x1="54.6518" y1="52.8609" x2="87.8159" y2="116.018" gradientUnits="userSpaceOnUse">
<stop stop-color="#2AA4F4"/>
<stop offset="1" stop-color="#007AD9"/>
</linearGradient>
</defs>
</svg>
