<svg width="141" height="140" viewBox="0 0 141 140" fill="none" xmlns="http://www.w3.org/2000/svg">
<g id="communication">
<g id="Group">
<path id="Vector" d="M119.647 116.547L110.979 96.8243C113.622 91.9554 115.122 86.3753 115.122 80.4468C115.122 61.4642 99.7332 46.0751 80.7506 46.0751C61.7679 46.0751 46.3789 61.4642 46.3789 80.4468C46.3789 99.4294 61.7679 114.818 80.7506 114.818C86.9446 114.818 92.7404 113.157 97.7586 110.291L116.284 119.723C118.341 120.771 120.577 118.659 119.647 116.547Z" fill="url(#paint0_linear_14_12159)"/>
<path id="Vector_2" d="M64.1501 81.6318H102.077C102.732 81.6318 103.263 81.1009 103.263 80.4466V78.0762C103.263 77.4219 102.732 76.8909 102.077 76.8909H64.1501C63.4958 76.8909 62.9648 77.4219 62.9648 78.0762V80.4466C62.9648 81.1009 63.4958 81.6318 64.1501 81.6318Z" fill="url(#paint1_linear_14_12159)"/>
<path id="Vector_3" d="M64.1501 91.1137H94.9661C95.6203 91.1137 96.1513 90.5827 96.1513 89.9284V87.558C96.1513 86.9037 95.6203 86.3727 94.9661 86.3727H64.1501C63.4958 86.3727 62.9648 86.9037 62.9648 87.558V89.9284C62.9648 90.5827 63.4958 91.1137 64.1501 91.1137Z" fill="url(#paint2_linear_14_12159)"/>
<path id="Vector_4" opacity="0.15" d="M46.3789 80.4468C46.3789 83.7251 46.8672 86.8826 47.723 89.886C50.7737 90.6587 53.9478 91.1139 57.2356 91.1139C78.7072 91.1139 96.1159 73.6033 96.1159 52.0013C96.1159 51.2167 96.0448 50.451 95.9997 49.6782C91.3987 47.3931 86.2358 46.0751 80.7506 46.0751C61.7679 46.0751 46.3789 61.4642 46.3789 80.4468Z" fill="url(#paint3_radial_14_12159)"/>
<path id="Vector_5" d="M57.0415 19.9999C39.3674 19.9999 25.0403 34.327 25.0403 52.0011C25.0403 56.8819 26.1639 61.4877 28.1195 65.6265C28.0887 65.6977 28.0508 65.7546 28.0247 65.8352L20.5175 82.9167C19.5882 85.0311 21.8236 87.1432 23.8811 86.0955L38.9786 78.4081C44.1201 81.9329 50.3355 84.0024 57.0415 84.0024C74.7156 84.0024 89.0427 69.6753 89.0427 52.0011C89.0427 34.327 74.7156 19.9999 57.0415 19.9999Z" fill="url(#paint4_linear_14_12159)"/>
<path id="Vector_6" d="M38.0798 48.4454H76.0071C76.6614 48.4454 77.1923 47.9145 77.1923 47.2602V44.8898C77.1923 44.2355 76.6614 43.7045 76.0071 43.7045H38.0798C37.4255 43.7045 36.8945 44.2355 36.8945 44.8898V47.2602C36.8945 47.9145 37.4255 48.4454 38.0798 48.4454Z" fill="url(#paint5_linear_14_12159)"/>
<path id="Vector_7" d="M38.0798 57.9274H68.8957C69.55 57.9274 70.081 57.3964 70.081 56.7422V54.3717C70.081 53.7174 69.55 53.1865 68.8957 53.1865H38.0798C37.4255 53.1865 36.8945 53.7174 36.8945 54.3717V56.7422C36.8945 57.3964 37.4255 57.9274 38.0798 57.9274Z" fill="url(#paint6_linear_14_12159)"/>
</g>
</g>
<defs>
<linearGradient id="paint0_linear_14_12159" x1="63.2187" y1="50.8777" x2="105.752" y2="122.613" gradientUnits="userSpaceOnUse">
<stop stop-color="#0176D0"/>
<stop offset="1" stop-color="#16538C"/>
</linearGradient>
<linearGradient id="paint1_linear_14_12159" x1="78.7971" y1="70.1209" x2="87.8333" y2="89.2576" gradientUnits="userSpaceOnUse">
<stop stop-color="#199AE0"/>
<stop offset="1" stop-color="#0782D8"/>
</linearGradient>
<linearGradient id="paint2_linear_14_12159" x1="75.8744" y1="80.942" x2="83.5855" y2="97.2745" gradientUnits="userSpaceOnUse">
<stop stop-color="#199AE0"/>
<stop offset="1" stop-color="#0782D8"/>
</linearGradient>
<radialGradient id="paint3_radial_14_12159" cx="0" cy="0" r="1" gradientUnits="userSpaceOnUse" gradientTransform="translate(57.4964 52.5726) scale(38.1952 38.1952)">
<stop offset="0.627"/>
<stop offset="1" stop-opacity="0"/>
</radialGradient>
<linearGradient id="paint4_linear_14_12159" x1="36.8855" y1="26.9549" x2="64.8166" y2="86.1215" gradientUnits="userSpaceOnUse">
<stop stop-color="#0176D0"/>
<stop offset="1" stop-color="#22A5E2"/>
</linearGradient>
<linearGradient id="paint5_linear_14_12159" x1="52.7268" y1="36.9345" x2="61.763" y2="56.0712" gradientUnits="userSpaceOnUse">
<stop stop-color="#199AE0"/>
<stop offset="1" stop-color="#0782D8"/>
</linearGradient>
<linearGradient id="paint6_linear_14_12159" x1="49.8041" y1="47.7557" x2="57.5152" y2="64.0882" gradientUnits="userSpaceOnUse">
<stop stop-color="#199AE0"/>
<stop offset="1" stop-color="#0782D8"/>
</linearGradient>
</defs>
</svg>
