<svg width="151" height="150" viewBox="0 0 151 150" fill="none" xmlns="http://www.w3.org/2000/svg">
<g id="database-server">
<rect x="2.58252" y="2.5" width="145" height="145" rx="7.5" fill="white"/>
<rect x="2.58252" y="2.5" width="145" height="145" rx="7.5" fill="url(#paint0_linear_14_9569)" fill-opacity="0.2"/>
<g id="Group">
<path id="Vector" d="M91.1136 25H36.5693C34.058 25 32.0239 27.034 32.0239 29.5454V111.362C32.0239 113.873 34.058 115.907 36.5693 115.907H91.1136C93.6249 115.907 95.6589 113.873 95.6589 111.362V29.5454C95.6589 27.034 93.6249 25 91.1136 25Z" fill="url(#paint1_linear_14_9569)"/>
<path id="Vector_2" d="M63.592 106.816C67.3575 106.816 70.41 103.764 70.41 99.9985C70.41 96.233 67.3575 93.1804 63.592 93.1804C59.8265 93.1804 56.7739 96.233 56.7739 99.9985C56.7739 103.764 59.8265 106.816 63.592 106.816Z" fill="url(#paint2_radial_14_9569)"/>
<path id="Vector_3" d="M63.6005 104.544C66.1109 104.544 68.1459 102.509 68.1459 99.9982C68.1459 97.4879 66.1109 95.4529 63.6005 95.4529C61.0902 95.4529 59.0552 97.4879 59.0552 99.9982C59.0552 102.509 61.0902 104.544 63.6005 104.544Z" fill="white"/>
<path id="Vector_4" d="M85.1927 47.7268H42.0118C41.3846 47.7268 40.8755 47.2177 40.8755 46.5904V35.227C40.8755 34.5998 41.3846 34.0907 42.0118 34.0907H85.1927C85.82 34.0907 86.329 34.5998 86.329 35.227V46.5904C86.329 47.2177 85.82 47.7268 85.1927 47.7268Z" fill="url(#paint3_linear_14_9569)"/>
<path id="Vector_5" d="M79.4997 43.1816C80.7549 43.1816 81.7724 42.1641 81.7724 40.9089C81.7724 39.6537 80.7549 38.6362 79.4997 38.6362C78.2446 38.6362 77.2271 39.6537 77.2271 40.9089C77.2271 42.1641 78.2446 43.1816 79.4997 43.1816Z" fill="#50E6FF"/>
<path id="Vector_6" d="M85.1927 65.9083H42.0118C41.3846 65.9083 40.8755 65.3992 40.8755 64.7719V53.4086C40.8755 52.7813 41.3846 52.2722 42.0118 52.2722H85.1927C85.82 52.2722 86.329 52.7813 86.329 53.4086V64.7719C86.329 65.3992 85.82 65.9083 85.1927 65.9083Z" fill="url(#paint4_linear_14_9569)"/>
<path id="Vector_7" d="M79.4997 61.3629C80.7549 61.3629 81.7724 60.3453 81.7724 59.0902C81.7724 57.835 80.7549 56.8175 79.4997 56.8175C78.2446 56.8175 77.2271 57.835 77.2271 59.0902C77.2271 60.3453 78.2446 61.3629 79.4997 61.3629Z" fill="#50E6FF"/>
<path id="Vector_8" d="M85.1927 84.0896H42.0118C41.3846 84.0896 40.8755 83.5805 40.8755 82.9532V71.5898C40.8755 70.9626 41.3846 70.4535 42.0118 70.4535H85.1927C85.82 70.4535 86.329 70.9626 86.329 71.5898V82.9532C86.329 83.5805 85.82 84.0896 85.1927 84.0896Z" fill="url(#paint5_linear_14_9569)"/>
<path id="Vector_9" d="M79.4997 79.5441C80.7549 79.5441 81.7724 78.5266 81.7724 77.2715C81.7724 76.0163 80.7549 74.9988 79.4997 74.9988C78.2446 74.9988 77.2271 76.0163 77.2271 77.2715C77.2271 78.5266 78.2446 79.5441 79.4997 79.5441Z" fill="#50E6FF"/>
<path id="Vector_10" opacity="0.07" d="M80.8911 85.9304V115.907H82.0275L95.6635 116.248V81.0442C89.9364 81.3624 80.8911 82.4078 80.8911 85.9304Z" fill="black"/>
<path id="Vector_11" opacity="0.05" d="M79.7505 85.9306V115.907H95.6592V79.8853C88.8867 80.2034 79.7505 81.4761 79.7505 85.9306Z" fill="black"/>
<path id="Vector_12" d="M118.139 107.103H82.0239C82.0239 107.103 82.0239 119.357 82.0239 120.227C82.0239 122.864 90.1078 125 100.083 125C110.057 125 118.139 122.864 118.139 120.227C118.139 119.355 118.139 107.103 118.139 107.103Z" fill="url(#paint6_linear_14_9569)"/>
<path id="Vector_13" d="M118.139 95.8165H82.0239C82.0239 95.8165 82.0239 108.732 82.0239 109.648C82.0239 112.425 90.1078 114.677 100.083 114.677C110.057 114.677 118.139 112.428 118.139 109.648C118.139 108.732 118.139 95.8165 118.139 95.8165Z" fill="url(#paint7_linear_14_9569)"/>
<path id="Vector_14" d="M118.139 85.9214H82.0239C82.0239 85.9214 82.0239 96.5507 82.0239 97.4666C82.0239 99.8484 90.1078 101.78 100.083 101.78C110.057 101.78 118.139 99.8484 118.139 97.4666C118.139 96.5507 118.139 85.9214 118.139 85.9214Z" fill="url(#paint8_linear_14_9569)"/>
<path id="Vector_15" d="M100.083 89.7916C110.056 89.7916 118.141 88.0588 118.141 85.9213C118.141 83.7837 110.056 82.0509 100.083 82.0509C90.1091 82.0509 82.0239 83.7837 82.0239 85.9213C82.0239 88.0588 90.1091 89.7916 100.083 89.7916Z" fill="url(#paint9_linear_14_9569)"/>
</g>
<rect x="2.58252" y="2.5" width="145" height="145" rx="7.5" stroke="#D5EAF6" stroke-width="5"/>
</g>
<defs>
<linearGradient id="paint0_linear_14_9569" x1="75.0825" y1="5" x2="75.0825" y2="145" gradientUnits="userSpaceOnUse">
<stop stop-color="#199AE0"/>
<stop offset="0.472222" stop-color="#0D5176" stop-opacity="0.527778"/>
<stop offset="0.940972" stop-color="#12A6F7" stop-opacity="0.465278"/>
<stop offset="1" stop-opacity="0"/>
</linearGradient>
<linearGradient id="paint1_linear_14_9569" x1="33.1989" y1="28.0499" x2="92.3544" y2="109.91" gradientUnits="userSpaceOnUse">
<stop stop-color="#2AA4F4"/>
<stop offset="1" stop-color="#007AD9"/>
</linearGradient>
<radialGradient id="paint2_radial_14_9569" cx="0" cy="0" r="1" gradientUnits="userSpaceOnUse" gradientTransform="translate(63.592 99.9985) scale(6.81803)">
<stop offset="0.582" stop-opacity="0.2"/>
<stop offset="1" stop-opacity="0"/>
</radialGradient>
<linearGradient id="paint3_linear_14_9569" x1="40.8755" y1="40.9087" x2="86.329" y2="40.9087" gradientUnits="userSpaceOnUse">
<stop stop-color="#1D59B3"/>
<stop offset="1" stop-color="#195BBC"/>
</linearGradient>
<linearGradient id="paint4_linear_14_9569" x1="40.8755" y1="59.0902" x2="86.329" y2="59.0902" gradientUnits="userSpaceOnUse">
<stop stop-color="#1D59B3"/>
<stop offset="1" stop-color="#195BBC"/>
</linearGradient>
<linearGradient id="paint5_linear_14_9569" x1="40.8755" y1="77.2715" x2="86.329" y2="77.2715" gradientUnits="userSpaceOnUse">
<stop stop-color="#1D59B3"/>
<stop offset="1" stop-color="#195BBC"/>
</linearGradient>
<linearGradient id="paint6_linear_14_9569" x1="82.0239" y1="116.05" x2="118.139" y2="116.05" gradientUnits="userSpaceOnUse">
<stop stop-color="#7819A2"/>
<stop offset="1" stop-color="#771AA9"/>
</linearGradient>
<linearGradient id="paint7_linear_14_9569" x1="82.0239" y1="105.248" x2="118.139" y2="105.248" gradientUnits="userSpaceOnUse">
<stop stop-color="#912FBD"/>
<stop offset="1" stop-color="#9332BF"/>
</linearGradient>
<linearGradient id="paint8_linear_14_9569" x1="82.0239" y1="93.8508" x2="118.139" y2="93.8508" gradientUnits="userSpaceOnUse">
<stop stop-color="#AE4CD5"/>
<stop offset="1" stop-color="#AC4AD5"/>
</linearGradient>
<linearGradient id="paint9_linear_14_9569" x1="82.0262" y1="85.9213" x2="118.141" y2="85.9213" gradientUnits="userSpaceOnUse">
<stop stop-color="#C965EB"/>
<stop offset="1" stop-color="#C767E5"/>
</linearGradient>
</defs>
</svg>
