<svg width="151" height="150" viewBox="0 0 151 150" fill="none" xmlns="http://www.w3.org/2000/svg">
<g id="date-to">
<rect x="2.58252" y="2.5" width="145" height="145" rx="7.5" fill="white"/>
<rect x="2.58252" y="2.5" width="145" height="145" rx="7.5" fill="url(#paint0_linear_14_9586)" fill-opacity="0.2"/>
<g id="Group">
<path id="Vector" d="M27.7139 119.737V46.0525H122.451V119.737C122.451 122.631 120.082 125 117.188 125H32.977C30.0823 125 27.7139 122.631 27.7139 119.737Z" fill="url(#paint1_linear_14_9586)"/>
<path id="Vector_2" opacity="0.05" d="M79.4151 84.1867L72.452 76.963L63.4546 67.6315C62.3335 66.4657 60.6414 66.1078 59.1335 66.7051C57.6335 67.3104 56.6625 68.7499 56.6625 70.3683V74.9999H30.3467H36.9256C34.7493 74.9999 32.9783 76.7709 32.9783 78.9472V94.7367C32.9783 96.913 34.7493 98.6841 36.9256 98.6841H30.3467H56.6625V103.318C56.6625 104.937 57.6335 106.376 59.1362 106.981C59.6125 107.171 60.1098 107.268 60.6151 107.268C61.673 107.268 62.7098 106.826 63.4546 106.055L72.452 96.7236L79.4151 89.4999C80.8467 88.0078 80.8467 85.6788 79.4151 84.1867Z" fill="black"/>
<path id="Vector_3" opacity="0.07" d="M78.4678 85.1L62.5072 68.5447C61.7572 67.7658 60.6177 67.5316 59.6256 67.929C58.623 68.3316 57.9783 69.2895 57.9783 70.3684V76.3158H30.3467H36.9256C35.473 76.3158 34.294 77.4947 34.294 78.9474V94.7369C34.294 96.1895 35.473 97.3684 36.9256 97.3684H30.3467H57.9783V103.318C57.9783 104.397 58.623 105.355 59.6256 105.761C59.9467 105.889 60.2809 105.953 60.6151 105.953C61.3151 105.953 61.9967 105.671 62.5072 105.142L78.4678 88.5869C79.4099 87.6079 79.4099 86.079 78.4678 85.1Z" fill="black"/>
<path id="Vector_4" d="M59.2965 70.3683V77.6315H36.9281C36.2018 77.6315 35.6123 78.221 35.6123 78.9473V94.7368C35.6123 95.4631 36.2018 96.0526 36.9281 96.0526H59.2965V103.318C59.2965 104.503 60.7386 105.084 61.5597 104.232L77.5228 87.6762C77.9702 87.2131 77.9702 86.4789 77.5228 86.0131L61.5597 69.4578C60.7386 68.6025 59.2965 69.1841 59.2965 70.3683Z" fill="#50E6FF"/>
<path id="Vector_5" d="M122.451 35.5262V51.3157H27.7139V35.5262C27.7139 32.6315 30.0823 30.2631 32.977 30.2631H117.188C120.082 30.2631 122.451 32.6315 122.451 35.5262Z" fill="url(#paint2_linear_14_9586)"/>
<path id="Vector_6" opacity="0.05" d="M105.343 47.3683C100.982 47.3683 97.4482 43.8341 97.4482 39.4736V30.2631H113.238V39.4736C113.238 43.8341 109.704 47.3683 105.343 47.3683Z" fill="black"/>
<path id="Vector_7" opacity="0.07" d="M105.346 45.3946C102.075 45.3946 99.4248 42.7446 99.4248 39.4736V30.2631H111.267V39.4736C111.267 42.7446 108.617 45.3946 105.346 45.3946Z" fill="black"/>
<path id="Vector_8" opacity="0.05" d="M44.8195 47.3683C40.459 47.3683 36.9248 43.8341 36.9248 39.4736V30.2631H52.7143V39.4736C52.7143 43.8341 49.1801 47.3683 44.8195 47.3683Z" fill="black"/>
<path id="Vector_9" opacity="0.07" d="M44.8302 45.3946C41.5592 45.3946 38.9092 42.7446 38.9092 39.4736V30.2631H50.7513V39.4736C50.7513 42.7446 48.1013 45.3946 44.8302 45.3946Z" fill="black"/>
<path id="Vector_10" d="M44.8175 43.4211C42.6385 43.4211 40.8701 41.6526 40.8701 39.4737V28.9474C40.8701 26.7684 42.6385 25 44.8175 25C46.9964 25 48.7649 26.7684 48.7649 28.9474V39.4737C48.7649 41.6526 46.9964 43.4211 44.8175 43.4211Z" fill="#3CCBF4"/>
<path id="Vector_11" d="M105.357 43.4211C103.178 43.4211 101.409 41.6526 101.409 39.4737V28.9474C101.409 26.7684 103.178 25 105.357 25C107.535 25 109.304 26.7684 109.304 28.9474V39.4737C109.304 41.6526 107.535 43.4211 105.357 43.4211Z" fill="#3CCBF4"/>
</g>
<rect x="2.58252" y="2.5" width="145" height="145" rx="7.5" stroke="#D5EAF6" stroke-width="5"/>
</g>
<defs>
<linearGradient id="paint0_linear_14_9586" x1="75.0825" y1="5" x2="75.0825" y2="145" gradientUnits="userSpaceOnUse">
<stop stop-color="#199AE0"/>
<stop offset="0.472222" stop-color="#0D5176" stop-opacity="0.527778"/>
<stop offset="0.940972" stop-color="#12A6F7" stop-opacity="0.465278"/>
<stop offset="1" stop-opacity="0"/>
</linearGradient>
<linearGradient id="paint1_linear_14_9586" x1="35.156" y1="44.0709" x2="116.653" y2="125.531" gradientUnits="userSpaceOnUse">
<stop stop-color="#28AFEA"/>
<stop offset="1" stop-color="#047ED6"/>
</linearGradient>
<linearGradient id="paint2_linear_14_9586" x1="28.8191" y1="31.8631" x2="120.34" y2="50.4736" gradientUnits="userSpaceOnUse">
<stop stop-color="#0077D2"/>
<stop offset="1" stop-color="#0B59A2"/>
</linearGradient>
</defs>
</svg>
