<svg width="151" height="150" viewBox="0 0 151 150" fill="none" xmlns="http://www.w3.org/2000/svg">
<g id="delete-receipt">
<rect x="2.58252" y="2.5" width="145" height="145" rx="7.5" fill="white"/>
<rect x="2.58252" y="2.5" width="145" height="145" rx="7.5" fill="url(#paint0_linear_14_9625)" fill-opacity="0.2"/>
<g id="Group">
<path id="Vector" d="M94.8531 25C94.8531 26.2837 93.8113 27.3256 92.5275 27.3256C91.2438 27.3256 90.2019 26.2837 90.2019 25H85.5508C85.5508 26.2837 84.5089 27.3256 83.2252 27.3256C81.9415 27.3256 80.8996 26.2837 80.8996 25H76.2485C76.2485 26.2837 75.2066 27.3256 73.9229 27.3256C72.6392 27.3256 71.5973 26.2837 71.5973 25H66.9461C66.9461 26.2837 65.9043 27.3256 64.6205 27.3256C63.3368 27.3256 62.295 26.2837 62.295 25H57.6438C57.6438 26.2837 56.6019 27.3256 55.3182 27.3256C54.0345 27.3256 52.9926 26.2837 52.9926 25H48.3415C48.3415 26.2837 47.2996 27.3256 46.0159 27.3256C44.7322 27.3256 43.6903 26.2837 43.6903 25H39.0391C39.0391 26.2837 37.9973 27.3256 36.7136 27.3256C35.4298 27.3256 34.388 26.2837 34.388 25H32.0624C30.7787 25 29.7368 26.0419 29.7368 27.3256V108.721C29.7368 111.291 31.8182 113.372 34.388 113.372H94.8531C97.4229 113.372 99.5043 111.291 99.5043 108.721V27.3256C99.5043 26.0419 98.4624 25 97.1787 25H94.8531Z" fill="#50E6FF"/>
<path id="Vector_2" d="M89.0337 43.6046H40.1965C39.5546 43.6046 39.0337 43.0836 39.0337 42.4418V37.7906C39.0337 37.1487 39.5546 36.6278 40.1965 36.6278H89.0337C89.6756 36.6278 90.1965 37.1487 90.1965 37.7906V42.4418C90.1965 43.0836 89.6756 43.6046 89.0337 43.6046Z" fill="#057093"/>
<path id="Vector_3" d="M89.0351 59.8837H84.384C83.7421 59.8837 83.2212 59.3628 83.2212 58.7209V56.3953C83.2212 55.7535 83.7421 55.2325 84.384 55.2325H89.0351C89.677 55.2325 90.1979 55.7535 90.1979 56.3953V58.7209C90.1979 59.3628 89.677 59.8837 89.0351 59.8837Z" fill="#057093"/>
<path id="Vector_4" d="M70.429 59.8837H40.1965C39.5546 59.8837 39.0337 59.3628 39.0337 58.7209V56.3953C39.0337 55.7535 39.5546 55.2325 40.1965 55.2325H70.429C71.0709 55.2325 71.5918 55.7535 71.5918 56.3953V58.7209C71.5918 59.3628 71.0709 59.8837 70.429 59.8837Z" fill="#057093"/>
<path id="Vector_5" d="M89.0351 69.1861H84.384C83.7421 69.1861 83.2212 68.6651 83.2212 68.0233V65.6977C83.2212 65.0558 83.7421 64.5349 84.384 64.5349H89.0351C89.677 64.5349 90.1979 65.0558 90.1979 65.6977V68.0233C90.1979 68.6651 89.677 69.1861 89.0351 69.1861Z" fill="#057093"/>
<path id="Vector_6" d="M63.4523 69.1861H40.1965C39.5546 69.1861 39.0337 68.6651 39.0337 68.0233V65.6977C39.0337 65.0558 39.5546 64.5349 40.1965 64.5349H63.4523C64.0942 64.5349 64.6151 65.0558 64.6151 65.6977V68.0233C64.6151 68.6651 64.0942 69.1861 63.4523 69.1861Z" fill="#057093"/>
<path id="Vector_7" d="M89.0351 78.4883H84.384C83.7421 78.4883 83.2212 77.9674 83.2212 77.3255V74.9999C83.2212 74.3581 83.7421 73.8372 84.384 73.8372H89.0351C89.677 73.8372 90.1979 74.3581 90.1979 74.9999V77.3255C90.1979 77.9674 89.677 78.4883 89.0351 78.4883Z" fill="#057093"/>
<path id="Vector_8" d="M70.429 78.4883H40.1965C39.5546 78.4883 39.0337 77.9674 39.0337 77.3255V74.9999C39.0337 74.3581 39.5546 73.8372 40.1965 73.8372H70.429C71.0709 73.8372 71.5918 74.3581 71.5918 74.9999V77.3255C71.5918 77.9674 71.0709 78.4883 70.429 78.4883Z" fill="#057093"/>
<path id="Vector_9" d="M89.0351 87.7907H84.384C83.7421 87.7907 83.2212 87.2698 83.2212 86.6279V84.3023C83.2212 83.6605 83.7421 83.1395 84.384 83.1395H89.0351C89.677 83.1395 90.1979 83.6605 90.1979 84.3023V86.6279C90.1979 87.2698 89.677 87.7907 89.0351 87.7907Z" fill="#057093"/>
<path id="Vector_10" d="M63.4523 87.7907H40.1965C39.5546 87.7907 39.0337 87.2698 39.0337 86.6279V84.3023C39.0337 83.6605 39.5546 83.1395 40.1965 83.1395H63.4523C64.0942 83.1395 64.6151 83.6605 64.6151 84.3023V86.6279C64.6151 87.2698 64.0942 87.7907 63.4523 87.7907Z" fill="#057093"/>
<path id="Vector_11" d="M89.0379 101.744H79.7355C79.0937 101.744 78.5728 101.223 78.5728 100.582V98.2559C78.5728 97.6141 79.0937 97.0931 79.7355 97.0931H89.0379C89.6797 97.0931 90.2007 97.6141 90.2007 98.2559V100.582C90.2007 101.223 89.6797 101.744 89.0379 101.744Z" fill="#057093"/>
<path id="Vector_12" d="M70.4236 101.744H49.4934C48.8515 101.744 48.3306 101.223 48.3306 100.582V98.2559C48.3306 97.6141 48.8515 97.0931 49.4934 97.0931H70.4236C71.0655 97.0931 71.5864 97.6141 71.5864 98.2559V100.582C71.5864 101.223 71.0655 101.744 70.4236 101.744Z" fill="#057093"/>
<path id="Vector_13" d="M97.1751 73.8372C81.7867 73.8372 69.2681 86.3558 69.2681 101.744C69.2681 105.898 70.2053 109.828 71.8378 113.372H94.8495C97.4192 113.372 99.5006 111.291 99.5006 108.721V73.9558C98.7309 73.8906 97.9611 73.8372 97.1751 73.8372Z" fill="url(#paint1_radial_14_9625)"/>
<path id="Vector_14" d="M97.1723 125C110.016 125 120.428 114.588 120.428 101.744C120.428 88.9004 110.016 78.4884 97.1723 78.4884C84.3285 78.4884 73.9165 88.9004 73.9165 101.744C73.9165 114.588 84.3285 125 97.1723 125Z" fill="url(#paint2_linear_14_9625)"/>
<path id="Vector_15" d="M85.5571 102.907V100.581C85.5571 99.9396 86.0781 99.4187 86.7199 99.4187H107.65C108.292 99.4187 108.813 99.9396 108.813 100.581V102.907C108.813 103.549 108.292 104.07 107.65 104.07H86.7199C86.0781 104.07 85.5571 103.549 85.5571 102.907Z" fill="white"/>
</g>
<rect x="2.58252" y="2.5" width="145" height="145" rx="7.5" stroke="#D5EAF6" stroke-width="5"/>
</g>
<defs>
<linearGradient id="paint0_linear_14_9625" x1="75.0825" y1="5" x2="75.0825" y2="145" gradientUnits="userSpaceOnUse">
<stop stop-color="#199AE0"/>
<stop offset="0.472222" stop-color="#0D5176" stop-opacity="0.527778"/>
<stop offset="0.940972" stop-color="#12A6F7" stop-opacity="0.465278"/>
<stop offset="1" stop-opacity="0"/>
</linearGradient>
<radialGradient id="paint1_radial_14_9625" cx="0" cy="0" r="1" gradientUnits="userSpaceOnUse" gradientTransform="translate(96.4564 101.521) scale(27.8535)">
<stop/>
<stop offset="0.979" stop-opacity="0"/>
</radialGradient>
<linearGradient id="paint2_linear_14_9625" x1="73.9165" y1="101.744" x2="120.428" y2="101.744" gradientUnits="userSpaceOnUse">
<stop stop-color="#F44F5A"/>
<stop offset="0.443" stop-color="#EE3D4A"/>
<stop offset="1" stop-color="#E52030"/>
</linearGradient>
</defs>
</svg>
