<svg width="151" height="150" viewBox="0 0 151 150" fill="none" xmlns="http://www.w3.org/2000/svg">
<g id="drag-and-drop">
<rect x="2.58252" y="2.5" width="145" height="145" rx="7.5" fill="white"/>
<rect x="2.58252" y="2.5" width="145" height="145" rx="7.5" fill="url(#paint0_linear_14_9737)" fill-opacity="0.2"/>
<g id="Group">
<path id="Vector" d="M89.3663 89.2849H32.2265C28.2814 89.2849 25.084 86.0875 25.084 82.1425V39.2876C25.084 35.3425 28.2814 32.1451 32.2265 32.1451H89.3663C93.3114 32.1451 96.5088 35.3425 96.5088 39.2876V82.1425C96.5088 86.0875 93.3114 89.2849 89.3663 89.2849Z" fill="url(#paint1_linear_14_9737)"/>
<path id="Vector_2" d="M118.177 117.855H62.9415C59.1274 117.855 56.0371 114.791 56.0371 111.01V69.9408C56.0371 66.16 59.1274 63.0959 62.9415 63.0959H118.177C121.991 63.0959 125.081 66.16 125.081 69.9408V111.01C125.081 114.791 121.991 117.855 118.177 117.855Z" fill="#50E6FF"/>
<path id="Vector_3" d="M70.3184 33.3355V35.7163C70.3184 36.3734 70.8517 36.9067 71.5088 36.9067H78.6513C79.3084 36.9067 79.8417 36.3734 79.8417 35.7163V33.3355C79.8417 32.6784 79.3084 32.1451 78.6513 32.1451H71.5088C70.8517 32.1451 70.3184 32.6784 70.3184 33.3355Z" fill="#199BE2"/>
<path id="Vector_4" d="M57.2275 36.9067H64.37C65.0271 36.9067 65.5604 36.3734 65.5604 35.7163V33.3355C65.5604 32.6784 65.0271 32.1451 64.37 32.1451H57.2275C56.5704 32.1451 56.0371 32.6784 56.0371 33.3355V35.7163C56.0371 36.3734 56.5704 36.9067 57.2275 36.9067Z" fill="#199BE2"/>
<path id="Vector_5" d="M42.9463 36.9067H50.0888C50.7459 36.9067 51.2792 36.3734 51.2792 35.7163V33.3355C51.2792 32.6784 50.7459 32.1451 50.0888 32.1451H42.9463C42.2892 32.1451 41.7559 32.6784 41.7559 33.3355V35.7163C41.7559 36.3734 42.2892 36.9067 42.9463 36.9067Z" fill="#199BE2"/>
<path id="Vector_6" d="M26.2744 58.334H28.6552C29.3123 58.334 29.8456 57.8007 29.8456 57.1436V50.0011C29.8456 49.344 29.3123 48.8107 28.6552 48.8107H26.2744C25.6173 48.8107 25.084 49.344 25.084 50.0011V57.1436C25.084 57.8007 25.6173 58.334 26.2744 58.334Z" fill="#199BE2"/>
<path id="Vector_7" d="M85.8056 36.9067H91.7577V42.8588C91.7577 43.5159 92.291 44.0492 92.9481 44.0492H95.329C95.9861 44.0492 96.5194 43.5159 96.5194 42.8588V36.9067C96.5194 34.2759 94.3885 32.1451 91.7577 32.1451H85.8056C85.1485 32.1451 84.6152 32.6784 84.6152 33.3355V35.7163C84.6152 36.3734 85.1485 36.9067 85.8056 36.9067Z" fill="#199BE2"/>
<path id="Vector_8" d="M29.8456 71.4288V64.2863C29.8456 63.6292 29.3123 63.0959 28.6552 63.0959H26.2744C25.6173 63.0959 25.084 63.6292 25.084 64.2863V71.4288C25.084 72.0859 25.6173 72.6192 26.2744 72.6192H28.6552C29.3123 72.6192 29.8456 72.0859 29.8456 71.4288Z" fill="#199BE2"/>
<path id="Vector_9" d="M29.8456 42.8588V36.9067H35.7977C36.4548 36.9067 36.9881 36.3734 36.9881 35.7163V33.3355C36.9881 32.6784 36.4548 32.1451 35.7977 32.1451H29.8456C27.2148 32.1451 25.084 34.2759 25.084 36.9067V42.8588C25.084 43.5159 25.6173 44.0492 26.2744 44.0492H28.6552C29.3123 44.0492 29.8456 43.5159 29.8456 42.8588Z" fill="#199BE2"/>
<path id="Vector_10" d="M91.748 50.0011V57.1436C91.748 57.8007 92.2814 58.334 92.9385 58.334H95.3193C95.9764 58.334 96.5097 57.8007 96.5097 57.1436V50.0011C96.5097 49.344 95.9764 48.8107 95.3193 48.8107H92.9385C92.2814 48.8107 91.748 49.344 91.748 50.0011Z" fill="#199BE2"/>
<path id="Vector_11" d="M41.7559 85.7138V88.0946C41.7559 88.7517 42.2892 89.285 42.9463 89.285H50.0888C50.7459 89.285 51.2792 88.7517 51.2792 88.0946V85.7138C51.2792 85.0567 50.7459 84.5234 50.0888 84.5234H42.9463C42.2892 84.5234 41.7559 85.0567 41.7559 85.7138Z" fill="#199BE2"/>
<path id="Vector_12" d="M28.6552 77.3808H26.2744C25.6173 77.3808 25.084 77.9141 25.084 78.5712V84.5233C25.084 87.1541 27.2148 89.2849 29.8456 89.2849H35.7977C36.4548 89.2849 36.9881 88.7516 36.9881 88.0945V85.7137C36.9881 85.0566 36.4548 84.5233 35.7977 84.5233H29.8456V78.5712C29.8456 77.9141 29.3123 77.3808 28.6552 77.3808Z" fill="#199BE2"/>
<path id="Vector_13" opacity="0.05" d="M94.9226 110.712C93.6013 110.712 92.4109 109.932 91.8895 108.72L89.0682 102.23L85.3017 105.37C84.697 105.87 83.947 106.141 83.178 106.141C81.3424 106.141 79.8496 104.651 79.8496 102.818V75.9238C79.8496 74.6024 80.6329 73.412 81.8471 72.893C82.2519 72.7121 82.6971 72.6192 83.1613 72.6192C84.0375 72.6192 84.8636 72.9644 85.4898 73.5882L104.286 92.3848C105.21 93.3038 105.508 94.6371 105.06 95.868C104.617 97.0965 103.532 97.9298 102.229 98.0417L98.4177 98.3845L101.163 104.698C101.51 105.513 101.525 106.408 101.203 107.229C100.882 108.048 100.258 108.693 99.4462 109.048L96.2416 110.441C95.8297 110.62 95.3821 110.712 94.9226 110.712Z" fill="black"/>
<path id="Vector_14" opacity="0.07" d="M94.9173 109.522C94.0745 109.522 93.3103 109.022 92.977 108.248L89.5224 100.299L84.5345 104.458C84.1465 104.779 83.6655 104.953 83.1751 104.953C81.9966 104.953 81.0371 103.996 81.0371 102.82V75.9237C81.0371 75.0809 81.5371 74.3191 82.3132 73.9881C82.5751 73.8715 82.8608 73.812 83.156 73.812C83.7132 73.812 84.2417 74.0334 84.6417 74.4333L103.438 93.23C104.031 93.8204 104.222 94.6751 103.936 95.4632C103.653 96.2513 102.955 96.7869 102.119 96.8584L96.6601 97.3488L100.065 105.175C100.288 105.694 100.298 106.267 100.091 106.794C99.8837 107.32 99.4838 107.732 98.9647 107.955L95.7602 109.348C95.4911 109.465 95.2078 109.522 94.9173 109.522Z" fill="black"/>
<path id="Vector_15" d="M102.595 94.0679L83.7983 75.2713C83.5031 74.9761 83.1031 74.938 82.7793 75.0784C82.4675 75.2142 82.2246 75.5189 82.2246 75.9236V102.82C82.2246 103.617 83.1555 104.053 83.7698 103.544L89.979 98.3653L94.0692 107.777C94.2716 108.243 94.8168 108.458 95.2835 108.255L98.4904 106.86C98.9571 106.658 99.1713 106.113 98.969 105.646L94.9097 96.3059L102.014 95.6702C102.809 95.5988 103.162 94.6322 102.595 94.0679Z" fill="white"/>
</g>
<rect x="2.58252" y="2.5" width="145" height="145" rx="7.5" stroke="#D5EAF6" stroke-width="5"/>
</g>
<defs>
<linearGradient id="paint0_linear_14_9737" x1="75.0825" y1="5" x2="75.0825" y2="145" gradientUnits="userSpaceOnUse">
<stop stop-color="#199AE0"/>
<stop offset="0.472222" stop-color="#0D5176" stop-opacity="0.527778"/>
<stop offset="0.940972" stop-color="#12A6F7" stop-opacity="0.465278"/>
<stop offset="1" stop-opacity="0"/>
</linearGradient>
<linearGradient id="paint1_linear_14_9737" x1="44.0282" y1="38.2662" x2="78.7193" y2="84.709" gradientUnits="userSpaceOnUse">
<stop stop-color="#0D61A9"/>
<stop offset="1" stop-color="#16528C"/>
</linearGradient>
</defs>
</svg>
