<svg width="151" height="150" viewBox="0 0 151 150" fill="none" xmlns="http://www.w3.org/2000/svg">
<g id="dropdown-field">
<rect x="2.58252" y="2.5" width="145" height="145" rx="7.5" fill="white"/>
<rect x="2.58252" y="2.5" width="145" height="145" rx="7.5" fill="url(#paint0_linear_14_9754)" fill-opacity="0.2"/>
<g id="Group">
<path id="Vector" d="M25.0825 55V95C25.0825 97.7625 27.32 100 30.0825 100H120.083C122.845 100 125.083 97.7625 125.083 95V55C125.083 52.2375 122.845 50 120.083 50H30.0825C27.32 50 25.0825 52.2375 25.0825 55Z" fill="#50E6FF"/>
<path id="Vector_2" opacity="0.05" d="M96.0825 92.5C91.395 92.5 87.5825 88.6875 87.5825 84V66C87.5825 61.3125 91.395 57.5 96.0825 57.5H114.083C118.77 57.5 122.583 61.3125 122.583 66V84C122.583 88.6875 118.77 92.5 114.083 92.5H96.0825Z" fill="black"/>
<path id="Vector_3" opacity="0.07" d="M96.0825 91.25C92.0825 91.25 88.8325 87.9975 88.8325 84V66C88.8325 62.0025 92.085 58.75 96.0825 58.75H114.083C118.083 58.75 121.333 62.0025 121.333 66V84C121.333 87.9975 118.08 91.25 114.083 91.25H96.0825Z" fill="black"/>
<path id="Vector_4" d="M96.0825 90.0001H114.083C117.395 90.0001 120.083 87.3126 120.083 84.0001V66.0001C120.083 62.6876 117.395 60.0001 114.083 60.0001H96.0825C92.77 60.0001 90.0825 62.6876 90.0825 66.0001V84.0001C90.0825 87.3126 92.77 90.0001 96.0825 90.0001Z" fill="url(#paint1_linear_14_9754)"/>
<path id="Vector_5" opacity="0.05" d="M105.082 82.5C103.947 82.5 102.887 82.03 102.1 81.18L96.2621 74.8925C95.0596 73.5925 94.7446 71.6875 95.4646 70.0375C96.1496 68.4725 97.5971 67.5 99.2446 67.5H110.92C112.567 67.5 114.015 68.4725 114.702 70.035C115.422 71.69 115.107 73.5925 113.905 74.89L108.065 81.1825C107.275 82.0325 106.217 82.5 105.082 82.5Z" fill="black"/>
<path id="Vector_6" opacity="0.07" d="M105.085 81.2499C104.302 81.2499 103.57 80.9249 103.02 80.3299L97.18 74.0399C96.3125 73.1049 96.09 71.7299 96.61 70.5349C97.0925 69.4324 98.1025 68.7474 99.2475 68.7474H110.922C112.067 68.7474 113.075 69.4324 113.56 70.5349C114.08 71.7299 113.857 73.1049 112.99 74.0374L107.15 80.3299C106.6 80.9249 105.867 81.2499 105.085 81.2499Z" fill="black"/>
<path id="Vector_7" d="M110.914 70H99.2361C97.7436 70 97.0111 72.0325 98.0861 73.19L103.924 79.48C104.566 80.1725 105.581 80.1725 106.224 79.48L112.061 73.19C113.139 72.0325 112.406 70 110.914 70Z" fill="url(#paint2_linear_14_9754)"/>
</g>
<rect x="2.58252" y="2.5" width="145" height="145" rx="7.5" stroke="#D5EAF6" stroke-width="5"/>
</g>
<defs>
<linearGradient id="paint0_linear_14_9754" x1="75.0825" y1="5" x2="75.0825" y2="145" gradientUnits="userSpaceOnUse">
<stop stop-color="#199AE0"/>
<stop offset="0.472222" stop-color="#0D5176" stop-opacity="0.527778"/>
<stop offset="0.940972" stop-color="#12A6F7" stop-opacity="0.465278"/>
<stop offset="1" stop-opacity="0"/>
</linearGradient>
<linearGradient id="paint1_linear_14_9754" x1="90.9125" y1="60.8301" x2="120.398" y2="90.3126" gradientUnits="userSpaceOnUse">
<stop stop-color="#0077D2"/>
<stop offset="1" stop-color="#0B59A2"/>
</linearGradient>
<linearGradient id="paint2_linear_14_9754" x1="97.5761" y1="75" x2="112.576" y2="75" gradientUnits="userSpaceOnUse">
<stop stop-color="#7DD8F3"/>
<stop offset="1" stop-color="#45B0D0"/>
</linearGradient>
</defs>
</svg>
