<svg width="151" height="150" viewBox="0 0 151 150" fill="none" xmlns="http://www.w3.org/2000/svg">
<g id="edit-property">
<rect x="2.58203" y="2.5" width="145" height="145" rx="7.5" fill="white"/>
<rect x="2.58203" y="2.5" width="145" height="145" rx="7.5" fill="url(#paint0_linear_14_9768)" fill-opacity="0.2"/>
<g id="Group">
<path id="Vector" d="M25.082 106.82V49.9984H115.997V106.82C115.997 109.321 113.952 111.366 111.452 111.366H29.6278C27.1276 111.366 25.082 109.321 25.082 106.82Z" fill="url(#paint1_linear_14_9768)"/>
<path id="Vector_2" d="M103.496 68.1812H51.2194C50.5921 68.1812 50.083 67.6721 50.083 67.0448V64.7719C50.083 64.1446 50.5921 63.6354 51.2194 63.6354H103.496C104.123 63.6354 104.632 64.1446 104.632 64.7719V67.0448C104.632 67.6721 104.123 68.1812 103.496 68.1812Z" fill="#0F94BF"/>
<path id="Vector_3" d="M103.496 77.2728H51.2194C50.5921 77.2728 50.083 76.7636 50.083 76.1363V73.8634C50.083 73.2361 50.5921 72.727 51.2194 72.727H103.496C104.123 72.727 104.632 73.2361 104.632 73.8634V76.1363C104.632 76.7636 104.123 77.2728 103.496 77.2728Z" fill="#0F94BF"/>
<path id="Vector_4" d="M103.496 86.3643H51.2194C50.5921 86.3643 50.083 85.8552 50.083 85.2279V82.955C50.083 82.3277 50.5921 81.8186 51.2194 81.8186H103.496C104.123 81.8186 104.632 82.3277 104.632 82.955V85.2279C104.632 85.8552 104.123 86.3643 103.496 86.3643Z" fill="#0F94BF"/>
<path id="Vector_5" d="M95.5406 95.4558H51.2194C50.5921 95.4558 50.083 94.9466 50.083 94.3193V92.0464C50.083 91.4191 50.5921 90.91 51.2194 90.91H95.5406V95.4558Z" fill="#0F94BF"/>
<path id="Vector_6" opacity="0.05" d="M116.003 60.4579L79.8664 96.6013L77.064 107.729C76.8117 108.734 77.7231 109.645 78.7277 109.393L89.858 106.591L116.003 80.4411V60.4579Z" fill="black"/>
<path id="Vector_7" opacity="0.07" d="M115.997 62.0649L81.7694 96.2991L80.5261 98.6106H80.5239L78.5601 106.416C78.3351 107.307 79.142 108.111 80.0329 107.889L87.8653 105.916L90.1518 104.681L115.997 78.7797V62.0649Z" fill="black"/>
<path id="Vector_8" opacity="0.2" d="M116.005 63.6696L98.9629 80.7162L81.9208 97.7628L81.9231 97.7651H81.9185L80.0707 105.109C79.8752 105.884 80.5775 106.586 81.3526 106.391L88.6963 104.543V104.541L102.349 90.8851L116.005 77.2274V63.6696Z" fill="black"/>
<path id="Vector_9" d="M115.997 43.1796V49.9982H25.082V43.1796C25.082 40.6794 27.1276 38.6338 29.6278 38.6338H111.452C113.952 38.6338 115.997 40.6794 115.997 43.1796Z" fill="url(#paint2_linear_14_9768)"/>
<path id="Vector_10" d="M37.5783 68.1812H39.8512C40.4785 68.1812 40.9877 67.6721 40.9877 67.0448V64.7719C40.9877 64.1446 40.4785 63.6354 39.8512 63.6354H37.5783C36.951 63.6354 36.4419 64.1446 36.4419 64.7719V67.0448C36.4419 67.6721 36.951 68.1812 37.5783 68.1812Z" fill="#0F94BF"/>
<path id="Vector_11" d="M37.5783 77.2728H39.8512C40.4785 77.2728 40.9877 76.7636 40.9877 76.1363V73.8634C40.9877 73.2361 40.4785 72.727 39.8512 72.727H37.5783C36.951 72.727 36.4419 73.2361 36.4419 73.8634V76.1363C36.4419 76.7636 36.951 77.2728 37.5783 77.2728Z" fill="#0F94BF"/>
<path id="Vector_12" d="M37.5783 86.3643H39.8512C40.4785 86.3643 40.9877 85.8552 40.9877 85.2279V82.955C40.9877 82.3277 40.4785 81.8186 39.8512 81.8186H37.5783C36.951 81.8186 36.4419 82.3277 36.4419 82.955V85.2279C36.4419 85.8552 36.951 86.3643 37.5783 86.3643Z" fill="#0F94BF"/>
<path id="Vector_13" d="M37.5783 95.4558H39.8512C40.4785 95.4558 40.9877 94.9466 40.9877 94.3193V92.0464C40.9877 91.4191 40.4785 90.91 39.8512 90.91H37.5783C36.951 90.91 36.4419 91.4191 36.4419 92.0464V94.3193C36.4419 94.9466 36.951 95.4558 37.5783 95.4558Z" fill="#0F94BF"/>
<path id="Vector_14" d="M124.585 66.2288L120.216 61.8626C119.553 61.1966 118.471 61.1966 117.805 61.8626L115.75 63.9196L122.525 70.695L124.582 68.6403C125.248 67.9721 125.248 66.8948 124.585 66.2288Z" fill="#C94F60"/>
<path id="Vector_15" d="M81.911 97.7651L79.6313 106.82L88.6888 104.541L89.6388 96.6855L81.911 97.7651Z" fill="#F0F0F0"/>
<path id="Vector_16" d="M116.754 76.4728L88.6881 104.538L81.9126 97.7629L109.978 69.6973L116.754 76.4728Z" fill="#EDBE00"/>
<path id="Vector_17" d="M109.968 69.6973L115.748 63.9151L122.528 70.6906L116.748 76.4728L109.968 69.6973Z" fill="url(#paint3_linear_14_9768)"/>
<path id="Vector_18" d="M80.786 102.24L79.6313 106.82L84.2089 105.665L80.786 102.24Z" fill="#787878"/>
</g>
<rect x="2.58203" y="2.5" width="145" height="145" rx="7.5" stroke="#D5EAF6" stroke-width="5"/>
</g>
<defs>
<linearGradient id="paint0_linear_14_9768" x1="75.082" y1="5" x2="75.082" y2="145" gradientUnits="userSpaceOnUse">
<stop stop-color="#199AE0"/>
<stop offset="0.472222" stop-color="#0D5176" stop-opacity="0.527778"/>
<stop offset="0.940972" stop-color="#12A6F7" stop-opacity="0.465278"/>
<stop offset="1" stop-opacity="0"/>
</linearGradient>
<linearGradient id="paint1_linear_14_9768" x1="45.6948" y1="43.1752" x2="88.5545" y2="105.173" gradientUnits="userSpaceOnUse">
<stop stop-color="#7DD8F3"/>
<stop offset="1" stop-color="#45B0D0"/>
</linearGradient>
<linearGradient id="paint2_linear_14_9768" x1="26.9185" y1="35.8609" x2="113.156" y2="53.3962" gradientUnits="userSpaceOnUse">
<stop stop-color="#0077D2"/>
<stop offset="1" stop-color="#0B59A2"/>
</linearGradient>
<linearGradient id="paint3_linear_14_9768" x1="116.248" y1="64.3447" x2="116.248" y2="76.8205" gradientUnits="userSpaceOnUse">
<stop stop-color="#DEDEDE"/>
<stop offset="1" stop-color="#D6D6D6"/>
</linearGradient>
</defs>
</svg>
