<svg width="151" height="150" viewBox="0 0 151 150" fill="none" xmlns="http://www.w3.org/2000/svg">
<g id="enlarge">
<rect x="2.58203" y="2.5" width="145" height="145" rx="7.5" fill="white"/>
<rect x="2.58203" y="2.5" width="145" height="145" rx="7.5" fill="url(#paint0_linear_14_9802)" fill-opacity="0.2"/>
<g id="Group">
<path id="Vector" d="M125.083 28.9338L113.158 40.8586L122.711 50.4113C123.586 51.2863 125.083 50.6669 125.083 49.4308V28.9338Z" fill="url(#paint1_linear_14_9802)"/>
<path id="Vector_2" d="M29.0029 124.994L40.9278 113.069L50.4805 122.622C51.3554 123.497 50.736 124.994 49.4971 124.994H29.0029Z" fill="url(#paint2_linear_14_9802)"/>
<path id="Vector_3" d="M122.302 25.0061H100.664C99.4135 25.0061 98.8024 26.5061 99.6635 27.3672L107.275 34.9782L35.0532 107.188L27.4421 99.5775C26.581 98.7164 25.0811 99.3275 25.0811 100.577V122.216C25.0811 123.744 26.331 124.994 27.8588 124.994H31.7754C32.5254 124.994 33.2198 124.688 33.7476 124.188L124.274 33.6727C124.774 33.1449 125.08 32.4505 125.08 31.7005V27.7838C125.08 26.2561 123.83 25.0061 122.302 25.0061Z" fill="url(#paint3_linear_14_9802)"/>
</g>
<rect x="2.58203" y="2.5" width="145" height="145" rx="7.5" stroke="#D5EAF6" stroke-width="5"/>
</g>
<defs>
<linearGradient id="paint0_linear_14_9802" x1="75.082" y1="5" x2="75.082" y2="145" gradientUnits="userSpaceOnUse">
<stop stop-color="#199AE0"/>
<stop offset="0.472222" stop-color="#0D5176" stop-opacity="0.527778"/>
<stop offset="0.940972" stop-color="#12A6F7" stop-opacity="0.465278"/>
<stop offset="1" stop-opacity="0"/>
</linearGradient>
<linearGradient id="paint1_linear_14_9802" x1="129.426" y1="45.2052" x2="120.77" y2="36.5491" gradientUnits="userSpaceOnUse">
<stop offset="0.365" stop-color="#199AE0"/>
<stop offset="0.699" stop-color="#1898DE"/>
<stop offset="0.819" stop-color="#1691D8"/>
<stop offset="0.905" stop-color="#1186CC"/>
<stop offset="0.974" stop-color="#0A75BC"/>
<stop offset="1" stop-color="#076CB3"/>
</linearGradient>
<linearGradient id="paint2_linear_14_9802" x1="45.2724" y1="129.338" x2="36.6164" y2="120.682" gradientUnits="userSpaceOnUse">
<stop offset="0.365" stop-color="#199AE0"/>
<stop offset="0.699" stop-color="#1898DE"/>
<stop offset="0.819" stop-color="#1691D8"/>
<stop offset="0.905" stop-color="#1186CC"/>
<stop offset="0.974" stop-color="#0A75BC"/>
<stop offset="1" stop-color="#076CB3"/>
</linearGradient>
<linearGradient id="paint3_linear_14_9802" x1="40.2031" y1="305.953" x2="123.883" y2="-269.321" gradientUnits="userSpaceOnUse">
<stop stop-color="#32BDEF"/>
<stop offset="1" stop-color="#1EA2E4"/>
</linearGradient>
</defs>
</svg>
