<svg width="151" height="150" viewBox="0 0 151 150" fill="none" xmlns="http://www.w3.org/2000/svg">
<g id="event-accepted-tentatively">
<rect x="2.58203" y="2.5" width="145" height="145" rx="7.5" fill="white"/>
<rect x="2.58203" y="2.5" width="145" height="145" rx="7.5" fill="url(#paint0_linear_14_9843)" fill-opacity="0.2"/>
<g id="Group">
<path id="Vector" d="M27.3545 106.818V43.1819H109.173V106.818C109.173 109.318 107.127 111.364 104.627 111.364H31.8999C29.3999 111.364 27.3545 109.318 27.3545 106.818Z" fill="url(#paint1_linear_14_9843)"/>
<path id="Vector_2" d="M67.4659 58.1885L62.6454 68.9976L50.8772 70.2408C50.1204 70.3203 49.8159 71.259 50.3795 71.7703L59.1704 79.6931L56.7159 91.2726C56.5591 92.0181 57.3568 92.5976 58.0159 92.2158L68.2682 86.2999L78.5204 92.2135C79.1795 92.5931 79.9773 92.0135 79.8204 91.2703L77.3659 79.6908L86.1568 71.768C86.7227 71.259 86.4182 70.3203 85.6591 70.2385L73.8909 68.9953L69.0704 58.1862C68.7613 57.493 67.775 57.493 67.4659 58.1885Z" fill="white"/>
<path id="Vector_3" d="M109.173 34.0909V47.7272H27.3545V34.0909C27.3545 31.5909 29.3999 29.5454 31.8999 29.5454H104.627C107.127 29.5454 109.173 31.5909 109.173 34.0909Z" fill="url(#paint2_linear_14_9843)"/>
<path id="Vector_4" opacity="0.05" d="M94.4071 44.3181C90.6411 44.3181 87.5889 41.2659 87.5889 37.5V29.5454H101.225V37.5C101.225 41.2659 98.173 44.3181 94.4071 44.3181Z" fill="black"/>
<path id="Vector_5" opacity="0.07" d="M94.4056 42.6136C91.5806 42.6136 89.292 40.325 89.292 37.5V29.5454H99.5193V37.5C99.5193 40.325 97.2306 42.6136 94.4056 42.6136Z" fill="black"/>
<path id="Vector_6" opacity="0.05" d="M42.1258 44.3181C38.3599 44.3181 35.3076 41.2659 35.3076 37.5V29.5454H48.944V37.5C48.944 41.2659 45.8917 44.3181 42.1258 44.3181Z" fill="black"/>
<path id="Vector_7" opacity="0.07" d="M42.1244 42.6136C39.2994 42.6136 37.0107 40.325 37.0107 37.5V29.5454H47.238V37.5C47.238 40.325 44.9494 42.6136 42.1244 42.6136Z" fill="black"/>
<path id="Vector_8" d="M42.123 40.9091C40.2411 40.9091 38.7139 39.3818 38.7139 37.5V28.4091C38.7139 26.5273 40.2411 25 42.123 25C44.0048 25 45.5321 26.5273 45.5321 28.4091V37.5C45.5321 39.3818 44.0048 40.9091 42.123 40.9091Z" fill="#3CCBF4"/>
<path id="Vector_9" d="M94.4042 40.9091C92.5224 40.9091 90.9951 39.3818 90.9951 37.5V28.4091C90.9951 26.5273 92.5224 25 94.4042 25C96.286 25 97.8133 26.5273 97.8133 28.4091V37.5C97.8133 39.3818 96.286 40.9091 94.4042 40.9091Z" fill="#3CCBF4"/>
<path id="Vector_10" opacity="0.2" d="M105.13 111.364C107.36 111.357 109.164 109.552 109.171 107.323V76.7864C106.214 75.6591 103.028 75 99.6758 75C84.8372 75 72.8076 87.0295 72.8076 101.868C72.8076 105.22 73.4667 108.407 74.594 111.364H105.13Z" fill="url(#paint3_radial_14_9843)"/>
<path id="Vector_11" d="M100.082 125C112.634 125 122.809 114.825 122.809 102.273C122.809 89.7208 112.634 79.5454 100.082 79.5454C87.5298 79.5454 77.3545 89.7208 77.3545 102.273C77.3545 114.825 87.5298 125 100.082 125Z" fill="url(#paint4_linear_14_9843)"/>
<path id="Vector_12" d="M100.091 120.455C110.133 120.455 118.273 112.314 118.273 102.273C118.273 92.2312 110.133 84.0909 100.091 84.0909C90.0495 84.0909 81.9092 92.2312 81.9092 102.273C81.9092 112.314 90.0495 120.455 100.091 120.455Z" fill="url(#paint5_radial_14_9843)"/>
<path id="Vector_13" d="M106.677 115.227C106.223 115.454 105.768 115.227 105.541 114.773L99.4046 102.727C99.1773 102.273 99.4046 101.818 99.8591 101.591C100.314 101.363 100.768 101.591 100.996 102.045L107.132 114.091C107.359 114.318 107.132 115 106.677 115.227Z" fill="#D83B01"/>
<path id="Vector_14" d="M100.082 103.182C99.8545 103.182 99.6272 103.182 99.3999 102.954C99.1727 102.727 99.1727 102.045 99.3999 101.818L108.945 92.2726C109.173 92.0454 109.854 92.0454 110.082 92.2726C110.309 92.4999 110.309 93.1817 110.082 93.409L100.536 102.954C100.536 102.954 100.309 103.182 100.082 103.182Z" fill="#45494D"/>
<path id="Vector_15" d="M100.081 103.636C99.8538 103.636 99.6265 103.636 99.3992 103.409L90.5356 99.091C89.8538 98.8637 89.6265 97.9546 89.8538 97.2728C90.0811 96.591 90.9901 96.3637 91.672 96.591L100.536 100.909C101.217 101.136 101.445 102.046 101.217 102.727C101.217 103.409 100.536 103.636 100.081 103.636Z" fill="#45494D"/>
<path id="Vector_16" d="M100.08 104.545C101.336 104.545 102.353 103.528 102.353 102.273C102.353 101.018 101.336 100 100.08 100C98.8252 100 97.8076 101.018 97.8076 102.273C97.8076 103.528 98.8252 104.545 100.08 104.545Z" fill="#1E2021"/>
</g>
<rect x="2.58203" y="2.5" width="145" height="145" rx="7.5" stroke="#D5EAF6" stroke-width="5"/>
</g>
<defs>
<linearGradient id="paint0_linear_14_9843" x1="75.082" y1="5" x2="75.082" y2="145" gradientUnits="userSpaceOnUse">
<stop stop-color="#199AE0"/>
<stop offset="0.472222" stop-color="#0D5176" stop-opacity="0.527778"/>
<stop offset="0.940972" stop-color="#12A6F7" stop-opacity="0.465278"/>
<stop offset="1" stop-opacity="0"/>
</linearGradient>
<linearGradient id="paint1_linear_14_9843" x1="28.2954" y1="46.9592" x2="93.9795" y2="94.9342" gradientUnits="userSpaceOnUse">
<stop stop-color="#28AFEA"/>
<stop offset="1" stop-color="#047ED6"/>
</linearGradient>
<linearGradient id="paint2_linear_14_9843" x1="28.309" y1="30.9272" x2="107.35" y2="47" gradientUnits="userSpaceOnUse">
<stop stop-color="#0077D2"/>
<stop offset="1" stop-color="#0B59A2"/>
</linearGradient>
<radialGradient id="paint3_radial_14_9843" cx="0" cy="0" r="1" gradientUnits="userSpaceOnUse" gradientTransform="translate(99.1531 101.564) scale(25.5318 25.5318)">
<stop offset="0.847"/>
<stop offset="1" stop-opacity="0"/>
</radialGradient>
<linearGradient id="paint4_linear_14_9843" x1="84.0113" y1="86.2022" x2="116.152" y2="118.343" gradientUnits="userSpaceOnUse">
<stop stop-color="#889097"/>
<stop offset="1" stop-color="#64717C"/>
</linearGradient>
<radialGradient id="paint5_radial_14_9843" cx="0" cy="0" r="1" gradientUnits="userSpaceOnUse" gradientTransform="translate(99.9728 84.5137) scale(40.5182 40.5182)">
<stop stop-color="#FAFAFB"/>
<stop offset="1" stop-color="#C8CDD1"/>
</radialGradient>
</defs>
</svg>
