<svg width="151" height="150" viewBox="0 0 151 150" fill="none" xmlns="http://www.w3.org/2000/svg">
<g id="exchange">
<rect x="2.58203" y="2.5" width="145" height="145" rx="7.5" fill="white"/>
<rect x="2.58203" y="2.5" width="145" height="145" rx="7.5" fill="url(#paint0_linear_14_9861)" fill-opacity="0.2"/>
<g id="Group">
<path id="Vector" d="M112.583 121.361C112.583 122.376 113.811 122.883 114.526 122.163L123.898 112.741C124.716 111.916 124.716 110.586 123.898 109.763L114.526 100.34C113.811 99.6179 112.583 100.125 112.583 101.14V121.361Z" fill="url(#paint1_linear_14_9861)"/>
<path id="Vector_2" d="M37.0094 101.14C37.0094 100.125 35.7819 99.6178 35.0669 100.338L25.6942 109.761C24.8767 110.586 24.8767 111.916 25.6942 112.738L35.0669 122.161C35.7819 122.883 37.0094 122.376 37.0094 121.361V101.14Z" fill="url(#paint2_linear_14_9861)"/>
<path id="Vector_3" d="M47.5735 52.4994C54.4772 52.4994 60.0738 46.9028 60.0738 39.9991C60.0738 33.0954 54.4772 27.4989 47.5735 27.4989C40.6698 27.4989 35.0732 33.0954 35.0732 39.9991C35.0732 46.9028 40.6698 52.4994 47.5735 52.4994Z" fill="url(#paint3_linear_14_9861)"/>
<path id="Vector_4" d="M47.5815 57.4995C35.1538 57.4995 25.0811 67.5722 25.0811 80V87.5002C25.0811 90.2627 27.3186 92.5003 30.0812 92.5003H65.0819C67.8445 92.5003 70.082 90.2627 70.082 87.5002V80C70.082 67.5722 60.0093 57.4995 47.5815 57.4995Z" fill="url(#paint4_linear_14_9861)"/>
<path id="Vector_5" d="M102.582 52.4994C109.486 52.4994 115.083 46.9028 115.083 39.9991C115.083 33.0954 109.486 27.4989 102.582 27.4989C95.6786 27.4989 90.082 33.0954 90.082 39.9991C90.082 46.9028 95.6786 52.4994 102.582 52.4994Z" fill="url(#paint5_linear_14_9861)"/>
<path id="Vector_6" d="M102.583 57.4995C90.1547 57.4995 80.082 67.5722 80.082 80V87.5002C80.082 90.2627 82.3196 92.5003 85.0821 92.5003H120.083C122.845 92.5003 125.083 90.2627 125.083 87.5002V80C125.083 67.5722 115.01 57.4995 102.583 57.4995Z" fill="url(#paint6_linear_14_9861)"/>
<path id="Vector_7" d="M53.8315 115.001H33.8311C33.1411 115.001 32.5811 114.441 32.5811 113.751V108.751C32.5811 108.061 33.1411 107.5 33.8311 107.5H53.8315C54.5215 107.5 55.0815 108.061 55.0815 108.751V113.751C55.0815 114.441 54.5215 115.001 53.8315 115.001Z" fill="url(#paint7_linear_14_9861)"/>
<path id="Vector_8" d="M113.832 115.001H93.8321C93.142 115.001 92.582 114.441 92.582 113.751V108.751C92.582 108.061 93.142 107.5 93.8321 107.5H113.832C114.523 107.5 115.083 108.061 115.083 108.751V113.751C115.083 114.441 114.523 115.001 113.832 115.001Z" fill="url(#paint8_linear_14_9861)"/>
<path id="Vector_9" d="M68.8322 115.001H63.8321C63.142 115.001 62.582 114.441 62.582 113.751V108.751C62.582 108.061 63.142 107.5 63.8321 107.5H68.8322C69.5222 107.5 70.0822 108.061 70.0822 108.751V113.751C70.0822 114.441 69.5222 115.001 68.8322 115.001Z" fill="url(#paint9_linear_14_9861)"/>
<path id="Vector_10" d="M83.84 115.001H78.8399C78.1499 115.001 77.5898 114.441 77.5898 113.751V108.751C77.5898 108.061 78.1499 107.5 78.8399 107.5H83.84C84.53 107.5 85.09 108.061 85.09 108.751V113.751C85.09 114.441 84.53 115.001 83.84 115.001Z" fill="url(#paint10_linear_14_9861)"/>
</g>
<rect x="2.58203" y="2.5" width="145" height="145" rx="7.5" stroke="#D5EAF6" stroke-width="5"/>
</g>
<defs>
<linearGradient id="paint0_linear_14_9861" x1="75.082" y1="5" x2="75.082" y2="145" gradientUnits="userSpaceOnUse">
<stop stop-color="#199AE0"/>
<stop offset="0.472222" stop-color="#0D5176" stop-opacity="0.527778"/>
<stop offset="0.940972" stop-color="#12A6F7" stop-opacity="0.465278"/>
<stop offset="1" stop-opacity="0"/>
</linearGradient>
<linearGradient id="paint1_linear_14_9861" x1="112.583" y1="111.251" x2="124.511" y2="111.251" gradientUnits="userSpaceOnUse">
<stop stop-color="#C965EB"/>
<stop offset="1" stop-color="#C767E5"/>
</linearGradient>
<linearGradient id="paint2_linear_14_9861" x1="37.0119" y1="111.251" x2="25.0842" y2="111.251" gradientUnits="userSpaceOnUse">
<stop stop-color="#C965EB"/>
<stop offset="1" stop-color="#C767E5"/>
</linearGradient>
<linearGradient id="paint3_linear_14_9861" x1="39.0933" y1="31.519" x2="56.5337" y2="48.9593" gradientUnits="userSpaceOnUse">
<stop stop-color="#0D61A9"/>
<stop offset="1" stop-color="#16528C"/>
</linearGradient>
<linearGradient id="paint4_linear_14_9861" x1="32.2562" y1="64.8022" x2="63.7744" y2="96.3178" gradientUnits="userSpaceOnUse">
<stop stop-color="#0D61A9"/>
<stop offset="1" stop-color="#16528C"/>
</linearGradient>
<linearGradient id="paint5_linear_14_9861" x1="94.1021" y1="31.519" x2="111.542" y2="48.9593" gradientUnits="userSpaceOnUse">
<stop stop-color="#32BDEF"/>
<stop offset="1" stop-color="#1EA2E4"/>
</linearGradient>
<linearGradient id="paint6_linear_14_9861" x1="87.2572" y1="64.8022" x2="118.775" y2="96.3178" gradientUnits="userSpaceOnUse">
<stop stop-color="#32BDEF"/>
<stop offset="1" stop-color="#1EA2E4"/>
</linearGradient>
<linearGradient id="paint7_linear_14_9861" x1="32.5811" y1="111.251" x2="55.0815" y2="111.251" gradientUnits="userSpaceOnUse">
<stop stop-color="#C965EB"/>
<stop offset="1" stop-color="#C767E5"/>
</linearGradient>
<linearGradient id="paint8_linear_14_9861" x1="92.582" y1="111.251" x2="115.083" y2="111.251" gradientUnits="userSpaceOnUse">
<stop stop-color="#C965EB"/>
<stop offset="1" stop-color="#C767E5"/>
</linearGradient>
<linearGradient id="paint9_linear_14_9861" x1="62.582" y1="111.251" x2="70.0822" y2="111.251" gradientUnits="userSpaceOnUse">
<stop stop-color="#C965EB"/>
<stop offset="1" stop-color="#C767E5"/>
</linearGradient>
<linearGradient id="paint10_linear_14_9861" x1="77.5898" y1="111.251" x2="85.09" y2="111.251" gradientUnits="userSpaceOnUse">
<stop stop-color="#C965EB"/>
<stop offset="1" stop-color="#C767E5"/>
</linearGradient>
</defs>
</svg>
