<svg width="151" height="150" viewBox="0 0 151 150" fill="none" xmlns="http://www.w3.org/2000/svg">
<g id="full-page-view">
<rect x="2.58203" y="2.5" width="145" height="145" rx="7.5" fill="white"/>
<rect x="2.58203" y="2.5" width="145" height="145" rx="7.5" fill="url(#paint0_linear_14_9924)" fill-opacity="0.2"/>
<g id="Group">
<path id="Vector" d="M110.082 35H40.082C31.832 35 25.082 41.75 25.082 50V100C25.082 108.25 31.832 115 40.082 115H110.082C118.332 115 125.082 108.25 125.082 100V50C125.082 41.75 118.332 35 110.082 35Z" fill="#50E6FF"/>
<path id="Vector_2" d="M31.332 92.5H36.332C37.022 92.5 37.582 93.06 37.582 93.75V102.5H30.082V93.75C30.082 93.06 30.642 92.5 31.332 92.5Z" fill="url(#paint1_linear_14_9924)"/>
<path id="Vector_3" d="M118.832 92.5H113.832C113.142 92.5 112.582 93.06 112.582 93.75V102.5H120.082V93.75C120.082 93.06 119.522 92.5 118.832 92.5Z" fill="url(#paint2_linear_14_9924)"/>
<path id="Vector_4" d="M31.332 57.5H36.332C37.022 57.5 37.582 56.94 37.582 56.25V47.5H30.082V56.25C30.082 56.94 30.642 57.5 31.332 57.5Z" fill="url(#paint3_linear_14_9924)"/>
<path id="Vector_5" d="M118.832 57.5H113.832C113.142 57.5 112.582 56.94 112.582 56.25V47.5H120.082V56.25C120.082 56.94 119.522 57.5 118.832 57.5Z" fill="url(#paint4_linear_14_9924)"/>
<path id="Vector_6" d="M46.332 102.5H30.082C33.832 107.187 36.6445 110 40.3945 110H46.332C47.022 110 47.582 109.44 47.582 108.75V103.75C47.582 103.06 47.022 102.5 46.332 102.5Z" fill="url(#paint5_linear_14_9924)"/>
<path id="Vector_7" d="M102.582 103.75V108.75C102.582 109.44 103.142 110 103.832 110H109.77C113.52 110 116.332 107.187 120.082 102.5H103.832C103.142 102.5 102.582 103.06 102.582 103.75Z" fill="url(#paint6_linear_14_9924)"/>
<path id="Vector_8" d="M47.582 46.2501V41.2501C47.582 40.5601 47.022 40.0001 46.332 40.0001H40.3945C36.6445 40.0001 33.832 42.8126 30.082 47.5001H46.332C47.022 47.5001 47.582 46.9401 47.582 46.2501Z" fill="url(#paint7_linear_14_9924)"/>
<path id="Vector_9" d="M103.832 47.5001H120.082C116.332 42.8126 113.52 40.0001 109.77 40.0001H103.832C103.142 40.0001 102.582 40.5601 102.582 41.2501V46.2501C102.582 46.9401 103.142 47.5001 103.832 47.5001Z" fill="url(#paint8_linear_14_9924)"/>
<path id="Vector_10" d="M47.582 46.2501V41.2501C47.582 40.5601 47.022 40.0001 46.332 40.0001H40.3945C36.6445 40.0001 33.832 42.8126 30.082 47.5001H46.332C47.022 47.5001 47.582 46.9401 47.582 46.2501Z" fill="url(#paint9_linear_14_9924)"/>
</g>
<rect x="2.58203" y="2.5" width="145" height="145" rx="7.5" stroke="#D5EAF6" stroke-width="5"/>
</g>
<defs>
<linearGradient id="paint0_linear_14_9924" x1="75.082" y1="5" x2="75.082" y2="145" gradientUnits="userSpaceOnUse">
<stop stop-color="#199AE0"/>
<stop offset="0.472222" stop-color="#0D5176" stop-opacity="0.527778"/>
<stop offset="0.940972" stop-color="#12A6F7" stop-opacity="0.465278"/>
<stop offset="1" stop-opacity="0"/>
</linearGradient>
<linearGradient id="paint1_linear_14_9924" x1="33.832" y1="92.5" x2="33.832" y2="102.5" gradientUnits="userSpaceOnUse">
<stop offset="0.478" stop-color="#199AE0"/>
<stop offset="0.868" stop-color="#1186CC"/>
<stop offset="1" stop-color="#076CB3"/>
</linearGradient>
<linearGradient id="paint2_linear_14_9924" x1="116.332" y1="92.5" x2="116.332" y2="102.5" gradientUnits="userSpaceOnUse">
<stop offset="0.478" stop-color="#199AE0"/>
<stop offset="0.868" stop-color="#1186CC"/>
<stop offset="1" stop-color="#076CB3"/>
</linearGradient>
<linearGradient id="paint3_linear_14_9924" x1="33.832" y1="57.5" x2="33.832" y2="47.5" gradientUnits="userSpaceOnUse">
<stop offset="0.478" stop-color="#199AE0"/>
<stop offset="0.868" stop-color="#1186CC"/>
<stop offset="1" stop-color="#076CB3"/>
</linearGradient>
<linearGradient id="paint4_linear_14_9924" x1="116.332" y1="57.5" x2="116.332" y2="47.5" gradientUnits="userSpaceOnUse">
<stop offset="0.478" stop-color="#199AE0"/>
<stop offset="0.868" stop-color="#1186CC"/>
<stop offset="1" stop-color="#076CB3"/>
</linearGradient>
<linearGradient id="paint5_linear_14_9924" x1="35.9245" y1="86.5825" x2="40.0595" y2="110.032" gradientUnits="userSpaceOnUse">
<stop stop-color="#32BDEF"/>
<stop offset="0.661" stop-color="#25ABE8"/>
<stop offset="1" stop-color="#1EA2E4"/>
</linearGradient>
<linearGradient id="paint6_linear_14_9924" x1="108.432" y1="89.23" x2="111.887" y2="108.825" gradientUnits="userSpaceOnUse">
<stop stop-color="#32BDEF"/>
<stop offset="0.661" stop-color="#25ABE8"/>
<stop offset="1" stop-color="#1EA2E4"/>
</linearGradient>
<linearGradient id="paint7_linear_14_9924" x1="35.9945" y1="28.2251" x2="39.4495" y2="47.8201" gradientUnits="userSpaceOnUse">
<stop stop-color="#32BDEF"/>
<stop offset="0.661" stop-color="#25ABE8"/>
<stop offset="1" stop-color="#1EA2E4"/>
</linearGradient>
<linearGradient id="paint8_linear_14_9924" x1="107.372" y1="24.4701" x2="111.507" y2="47.9201" gradientUnits="userSpaceOnUse">
<stop stop-color="#32BDEF"/>
<stop offset="0.661" stop-color="#25ABE8"/>
<stop offset="1" stop-color="#1EA2E4"/>
</linearGradient>
<linearGradient id="paint9_linear_14_9924" x1="35.9945" y1="28.2251" x2="39.4495" y2="47.8201" gradientUnits="userSpaceOnUse">
<stop stop-color="#32BDEF"/>
<stop offset="0.661" stop-color="#25ABE8"/>
<stop offset="1" stop-color="#1EA2E4"/>
</linearGradient>
</defs>
</svg>
