<svg width="151" height="150" viewBox="0 0 151 150" fill="none" xmlns="http://www.w3.org/2000/svg">
<g id="google-calendar">
<rect x="2.58203" y="2.5" width="145" height="145" rx="7.5" fill="white"/>
<rect x="2.58203" y="2.5" width="145" height="145" rx="7.5" fill="url(#paint0_linear_14_9955)" fill-opacity="0.2"/>
<g id="Group">
<path id="Vector" d="M105.639 44.4445H44.5283V105.556H105.639V44.4445Z" fill="white"/>
<path id="Vector_2" d="M79.7559 66.4444L82.5559 70.4444L86.9559 67.2444V90.4444H91.7559V60.0444H87.7559L79.7559 66.4444Z" fill="#1E88E5"/>
<path id="Vector_3" d="M72.147 74.2918C73.8831 72.6973 74.9609 70.4862 74.9609 68.0445C74.9609 63.1918 70.7026 59.2445 65.4692 59.2445C61.0192 59.2445 57.2137 62.0473 56.2192 66.0584L60.822 67.2279C61.2803 65.3834 63.2331 64.0445 65.4692 64.0445C68.0859 64.0445 70.2165 65.839 70.2165 68.0445C70.2165 70.2501 68.0859 72.0445 65.4692 72.0445H62.6998V76.8445H65.4692C68.472 76.8445 71.0053 78.9307 71.0053 81.4001C71.0053 83.9112 68.5998 85.9557 65.6415 85.9557C62.9692 85.9557 60.6859 84.2612 60.3248 82.0168L55.6387 82.7834C56.3665 87.3279 60.6665 90.7557 65.6387 90.7557C71.2137 90.7557 75.7498 86.5584 75.7498 81.4001C75.7498 78.5584 74.3498 76.0084 72.147 74.2918Z" fill="#1E88E5"/>
<path id="Vector_4" d="M102.862 125H47.3061L44.5283 113.889L47.3061 102.778H102.862L105.639 113.889L102.862 125Z" fill="#FBC02D"/>
<path id="Vector_5" d="M113.97 105.556L125.081 102.778V47.2223L113.97 44.4445L102.858 47.2223V102.778L113.97 105.556Z" fill="#4CAF50"/>
<path id="Vector_6" d="M102.861 47.2222L105.639 36.1111L102.861 25H33.4163C28.8136 25 25.083 28.7306 25.083 33.3333V102.778L36.1941 105.556L47.3052 102.778V47.2222H102.861Z" fill="#1E88E5"/>
<path id="Vector_7" d="M102.858 102.778V125L125.081 102.778H102.858Z" fill="#E53935"/>
<path id="Vector_8" d="M116.747 25H102.858V47.2222H125.081V33.3333C125.081 28.7306 121.35 25 116.747 25Z" fill="#1565C0"/>
<path id="Vector_9" d="M33.4163 125H47.3052V102.778H25.083V116.667C25.083 121.269 28.8136 125 33.4163 125Z" fill="#1565C0"/>
</g>
<rect x="2.58203" y="2.5" width="145" height="145" rx="7.5" stroke="#D5EAF6" stroke-width="5"/>
</g>
<defs>
<linearGradient id="paint0_linear_14_9955" x1="75.082" y1="5" x2="75.082" y2="145" gradientUnits="userSpaceOnUse">
<stop stop-color="#199AE0"/>
<stop offset="0.472222" stop-color="#0D5176" stop-opacity="0.527778"/>
<stop offset="0.940972" stop-color="#12A6F7" stop-opacity="0.465278"/>
<stop offset="1" stop-opacity="0"/>
</linearGradient>
</defs>
</svg>
