<svg width="151" height="150" viewBox="0 0 151 150" fill="none" xmlns="http://www.w3.org/2000/svg">
<g id="header-2">
<rect x="2.58203" y="2.5" width="145" height="145" rx="7.5" fill="white"/>
<rect x="2.58203" y="2.5" width="145" height="145" rx="7.5" fill="url(#paint0_linear_14_10032)" fill-opacity="0.2"/>
<g id="Group">
<path id="Vector" d="M72.9966 104.687H64.6614C63.5114 104.687 62.5802 103.754 62.5802 102.604V79.6874H37.5808L37.5787 102.604C37.5787 103.754 36.6454 104.687 35.4954 104.687H27.1643C26.0144 104.687 25.0811 103.754 25.0811 102.604V48.4381C25.0811 47.2882 26.0144 46.3549 27.1643 46.3549H35.4954C36.6454 46.3549 37.5787 47.2882 37.5787 48.4381L37.5808 69.271H62.5802V48.4381C62.5802 47.2882 63.5114 46.3549 64.6614 46.3549H72.9966C74.1466 46.3549 75.0799 47.2882 75.0799 48.4381V102.604C75.0799 103.754 74.1466 104.687 72.9966 104.687Z" fill="url(#paint1_linear_14_10032)"/>
<path id="Vector_2" d="M100.084 94.2704H123C124.15 94.2704 125.083 95.2037 125.083 96.3536V102.604C125.083 103.753 124.15 104.687 123 104.687H87.5843C86.4343 104.687 85.501 103.753 85.501 102.604V100.289C85.501 97.3036 86.0114 94.6224 87.0322 92.2475C88.053 89.8725 89.3363 87.7413 90.8842 85.8539C92.43 83.9664 94.1195 82.2977 95.957 80.8457C97.7903 79.3936 99.5382 78.0832 101.194 76.9166C102.936 75.6937 104.459 74.5271 105.769 73.4146C107.082 72.3021 108.186 71.1959 109.082 70.0959C109.978 68.9959 110.648 67.8835 111.09 66.7564C111.532 65.6293 111.75 64.4294 111.75 63.1523C111.75 60.6545 111.034 58.7691 109.598 57.492C108.163 56.215 105.969 55.5775 103.015 55.5775C98.4944 55.5775 93.5383 57.3629 89.2238 60.542C88.5426 61.0419 87.5843 60.5378 87.5843 59.6941V51.7067C87.5843 50.9713 87.9593 50.2755 88.5947 49.9068C93.5925 46.9985 99.759 45.3131 105.83 45.3131C108.838 45.3131 111.538 45.7006 113.925 46.4735C116.313 47.2485 118.334 48.3547 119.992 49.7922C121.648 51.2318 122.908 52.9755 123.779 55.0233C124.646 57.0754 125.083 59.3628 125.083 61.8878C125.083 64.5752 124.661 66.9647 123.819 69.0543C122.977 71.1459 121.861 73.0458 120.467 74.7562C119.071 76.4666 117.465 78.0353 115.642 79.4603C113.821 80.8852 111.93 82.2644 109.969 83.5935C108.644 84.5164 107.367 85.4331 106.14 86.3435C104.911 87.2539 103.828 88.1497 102.89 89.0309C101.951 89.9142 101.205 90.7746 100.655 91.6163C100.101 92.4558 100.084 93.51 100.084 94.2704Z" fill="url(#paint2_linear_14_10032)"/>
</g>
<rect x="2.58203" y="2.5" width="145" height="145" rx="7.5" stroke="#D5EAF6" stroke-width="5"/>
</g>
<defs>
<linearGradient id="paint0_linear_14_10032" x1="75.082" y1="5" x2="75.082" y2="145" gradientUnits="userSpaceOnUse">
<stop stop-color="#199AE0"/>
<stop offset="0.472222" stop-color="#0D5176" stop-opacity="0.527778"/>
<stop offset="0.940972" stop-color="#12A6F7" stop-opacity="0.465278"/>
<stop offset="1" stop-opacity="0"/>
</linearGradient>
<linearGradient id="paint1_linear_14_10032" x1="44.3952" y1="43.2841" x2="55.7658" y2="107.758" gradientUnits="userSpaceOnUse">
<stop stop-color="#A235D4"/>
<stop offset="0.441" stop-color="#A033D1"/>
<stop offset="0.702" stop-color="#982CC9"/>
<stop offset="0.915" stop-color="#8B21BB"/>
<stop offset="1" stop-color="#831BB3"/>
</linearGradient>
<linearGradient id="paint2_linear_14_10032" x1="99.0382" y1="45.9881" x2="109.805" y2="107.045" gradientUnits="userSpaceOnUse">
<stop stop-color="#A235D4"/>
<stop offset="0.441" stop-color="#A033D1"/>
<stop offset="0.702" stop-color="#982CC9"/>
<stop offset="0.915" stop-color="#8B21BB"/>
<stop offset="1" stop-color="#831BB3"/>
</linearGradient>
</defs>
</svg>
