<svg width="151" height="150" viewBox="0 0 151 150" fill="none" xmlns="http://www.w3.org/2000/svg">
<g id="heat-map">
<rect x="2.58203" y="2.5" width="145" height="145" rx="7.5" fill="white"/>
<rect x="2.58203" y="2.5" width="145" height="145" rx="7.5" fill="url(#paint0_linear_14_10041)" fill-opacity="0.2"/>
<g id="Group">
<path id="Vector" d="M51.3974 43.421C51.3974 46.3263 49.0395 48.6842 46.1343 48.6842C43.229 48.6842 40.8711 46.3263 40.8711 43.421C40.8711 40.5157 43.229 38.1578 46.1343 38.1578C49.0395 38.1578 51.3974 40.5157 51.3974 43.421Z" fill="url(#paint1_linear_14_10041)"/>
<path id="Vector_2" d="M80.3456 43.4211C80.3456 49.2342 75.6324 53.9474 69.8193 53.9474C64.0061 53.9474 59.293 49.2342 59.293 43.4211C59.293 37.6079 64.0061 32.8948 69.8193 32.8948C75.6324 32.8948 80.3456 37.6079 80.3456 43.4211Z" fill="url(#paint2_linear_14_10041)"/>
<path id="Vector_3" d="M119.822 101.316C119.822 107.129 115.109 111.842 109.296 111.842C103.483 111.842 98.7695 107.129 98.7695 101.316C98.7695 95.5027 103.483 90.7896 109.296 90.7896C115.109 90.7896 119.822 95.5027 119.822 101.316Z" fill="url(#paint3_linear_14_10041)"/>
<path id="Vector_4" d="M101.403 72.3684C101.403 76.7289 97.8685 80.2631 93.508 80.2631C89.1475 80.2631 85.6133 76.7289 85.6133 72.3684C85.6133 68.0078 89.1475 64.4736 93.508 64.4736C97.8685 64.4736 101.403 68.0078 101.403 72.3684Z" fill="url(#paint4_linear_14_10041)"/>
<path id="Vector_5" d="M75.0824 101.316C75.0824 105.676 71.5482 109.21 67.1877 109.21C62.8272 109.21 59.293 105.676 59.293 101.316C59.293 96.9552 62.8272 93.421 67.1877 93.421C71.5482 93.421 75.0824 96.9552 75.0824 101.316Z" fill="url(#paint5_linear_14_10041)"/>
<path id="Vector_6" d="M51.3974 72.3684C51.3974 75.2736 49.0395 77.6315 46.1343 77.6315C43.229 77.6315 40.8711 75.2736 40.8711 72.3684C40.8711 69.4631 43.229 67.1052 46.1343 67.1052C49.0395 67.1052 51.3974 69.4631 51.3974 72.3684Z" fill="url(#paint6_linear_14_10041)"/>
<path id="Vector_7" d="M51.3974 101.316C51.3974 104.221 49.0395 106.579 46.1343 106.579C43.229 106.579 40.8711 104.221 40.8711 101.316C40.8711 98.4104 43.229 96.0525 46.1343 96.0525C49.0395 96.0525 51.3974 98.4104 51.3974 101.316Z" fill="url(#paint7_linear_14_10041)"/>
<path id="Vector_8" d="M93.5068 101.316C93.5068 104.221 91.1489 106.579 88.2436 106.579C85.3384 106.579 82.9805 104.221 82.9805 101.316C82.9805 98.4104 85.3384 96.0525 88.2436 96.0525C91.1489 96.0525 93.5068 98.4104 93.5068 101.316Z" fill="url(#paint8_linear_14_10041)"/>
<path id="Vector_9" d="M117.186 72.3684C117.186 75.2736 114.829 77.6315 111.923 77.6315C109.018 77.6315 106.66 75.2736 106.66 72.3684C106.66 69.4631 109.018 67.1052 111.923 67.1052C114.829 67.1052 117.186 69.4631 117.186 72.3684Z" fill="url(#paint9_linear_14_10041)"/>
<path id="Vector_10" d="M117.186 43.421C117.186 46.3263 114.829 48.6842 111.923 48.6842C109.018 48.6842 106.66 46.3263 106.66 43.421C106.66 40.5157 109.018 38.1578 111.923 38.1578C114.829 38.1578 117.186 40.5157 117.186 43.421Z" fill="url(#paint10_linear_14_10041)"/>
<path id="Vector_11" d="M98.7724 43.421C98.7724 46.3263 96.4145 48.6842 93.5093 48.6842C90.604 48.6842 88.2461 46.3263 88.2461 43.421C88.2461 40.5157 90.604 38.1578 93.5093 38.1578C96.4145 38.1578 98.7724 40.5157 98.7724 43.421Z" fill="url(#paint11_linear_14_10041)"/>
<path id="Vector_12" d="M122.45 125H27.7136C26.261 125 25.082 123.821 25.082 122.368V27.6316C25.082 26.1789 26.261 25 27.7136 25C29.1662 25 30.3452 26.1789 30.3452 27.6316V119.737H122.45C123.903 119.737 125.082 120.916 125.082 122.368C125.082 123.821 123.903 125 122.45 125Z" fill="#ABB4BE"/>
</g>
<rect x="2.58203" y="2.5" width="145" height="145" rx="7.5" stroke="#D5EAF6" stroke-width="5"/>
</g>
<defs>
<linearGradient id="paint0_linear_14_10041" x1="75.082" y1="5" x2="75.082" y2="145" gradientUnits="userSpaceOnUse">
<stop stop-color="#199AE0"/>
<stop offset="0.472222" stop-color="#0D5176" stop-opacity="0.527778"/>
<stop offset="0.940972" stop-color="#12A6F7" stop-opacity="0.465278"/>
<stop offset="1" stop-opacity="0"/>
</linearGradient>
<linearGradient id="paint1_linear_14_10041" x1="43.7658" y1="38.8131" x2="48.6553" y2="48.3289" gradientUnits="userSpaceOnUse">
<stop stop-color="#0176D0"/>
<stop offset="1" stop-color="#0A85D9"/>
</linearGradient>
<linearGradient id="paint2_linear_14_10041" x1="65.0851" y1="34.2079" x2="74.864" y2="53.2342" gradientUnits="userSpaceOnUse">
<stop stop-color="#0176D0"/>
<stop offset="1" stop-color="#0A85D9"/>
</linearGradient>
<linearGradient id="paint3_linear_14_10041" x1="104.559" y1="92.1027" x2="114.341" y2="111.129" gradientUnits="userSpaceOnUse">
<stop stop-color="#0176D0"/>
<stop offset="1" stop-color="#0A85D9"/>
</linearGradient>
<linearGradient id="paint4_linear_14_10041" x1="89.9554" y1="65.4578" x2="97.2922" y2="79.7289" gradientUnits="userSpaceOnUse">
<stop stop-color="#0176D0"/>
<stop offset="1" stop-color="#0A85D9"/>
</linearGradient>
<linearGradient id="paint5_linear_14_10041" x1="63.6351" y1="94.4052" x2="70.9719" y2="108.676" gradientUnits="userSpaceOnUse">
<stop stop-color="#0176D0"/>
<stop offset="1" stop-color="#0A85D9"/>
</linearGradient>
<linearGradient id="paint6_linear_14_10041" x1="43.7658" y1="67.7605" x2="48.6553" y2="77.2763" gradientUnits="userSpaceOnUse">
<stop stop-color="#0176D0"/>
<stop offset="1" stop-color="#0A85D9"/>
</linearGradient>
<linearGradient id="paint7_linear_14_10041" x1="43.7658" y1="96.7078" x2="48.6553" y2="106.224" gradientUnits="userSpaceOnUse">
<stop stop-color="#0176D0"/>
<stop offset="1" stop-color="#0A85D9"/>
</linearGradient>
<linearGradient id="paint8_linear_14_10041" x1="85.8752" y1="96.7078" x2="90.7647" y2="106.224" gradientUnits="userSpaceOnUse">
<stop stop-color="#0176D0"/>
<stop offset="1" stop-color="#0A85D9"/>
</linearGradient>
<linearGradient id="paint9_linear_14_10041" x1="109.555" y1="67.7605" x2="114.444" y2="77.2763" gradientUnits="userSpaceOnUse">
<stop stop-color="#0176D0"/>
<stop offset="1" stop-color="#0A85D9"/>
</linearGradient>
<linearGradient id="paint10_linear_14_10041" x1="109.555" y1="38.8131" x2="114.444" y2="48.3289" gradientUnits="userSpaceOnUse">
<stop stop-color="#0176D0"/>
<stop offset="1" stop-color="#0A85D9"/>
</linearGradient>
<linearGradient id="paint11_linear_14_10041" x1="91.1408" y1="38.8131" x2="96.0303" y2="48.3289" gradientUnits="userSpaceOnUse">
<stop stop-color="#0176D0"/>
<stop offset="1" stop-color="#0A85D9"/>
</linearGradient>
</defs>
</svg>
