<svg width="151" height="150" viewBox="0 0 151 150" fill="none" xmlns="http://www.w3.org/2000/svg">
<g id="ios-application-placeholder">
<rect x="2.58203" y="2.5" width="145" height="145" rx="7.5" fill="white"/>
<rect x="2.58203" y="2.5" width="145" height="145" rx="7.5" fill="url(#paint0_linear_14_10167)" fill-opacity="0.2"/>
<g id="Group">
<path id="Vector" d="M111.189 124.998H38.9695L25.0811 116.665V33.3346L40.3583 25.0016H109.801L125.078 33.3346V116.665L111.189 124.998Z" fill="#50E6FF"/>
<path id="Vector_2" d="M123.694 108.332H118.139C117.372 108.332 116.75 108.954 116.75 109.721V116.665H125.083V109.721C125.083 108.954 124.461 108.332 123.694 108.332Z" fill="url(#paint1_linear_14_10167)"/>
<path id="Vector_3" d="M123.694 41.6676H118.139C117.372 41.6676 116.75 41.0454 116.75 40.2788V33.3346H125.083V40.2788C125.083 41.0454 124.461 41.6676 123.694 41.6676Z" fill="url(#paint2_linear_14_10167)"/>
<path id="Vector_4" d="M108.406 118.054V123.61C108.406 124.376 109.028 124.998 109.795 124.998H113.614C117.781 124.998 120.906 121.874 125.072 116.665H109.795C109.028 116.665 108.406 117.288 108.406 118.054Z" fill="url(#paint3_linear_14_10167)"/>
<path id="Vector_5" d="M109.795 33.3346H125.072C120.906 28.1265 117.781 25.0016 113.614 25.0016H109.795C109.028 25.0016 108.406 25.6238 108.406 26.3904V31.9458C108.406 32.7124 109.028 33.3346 109.795 33.3346Z" fill="url(#paint4_linear_14_10167)"/>
<path id="Vector_6" d="M25.0811 109.721V116.665H33.4141V109.721C33.4141 108.954 32.7919 108.332 32.0253 108.332H26.4699C25.7033 108.332 25.0811 108.954 25.0811 109.721Z" fill="url(#paint5_linear_14_10167)"/>
<path id="Vector_7" d="M25.0811 40.2788V33.3346H33.4141V40.2788C33.4141 41.0454 32.7919 41.6676 32.0253 41.6676H26.4699C25.7033 41.6676 25.0811 41.0454 25.0811 40.2788Z" fill="url(#paint6_linear_14_10167)"/>
<path id="Vector_8" d="M40.3583 116.665H25.0811C29.2476 121.874 32.3725 124.998 36.539 124.998H40.3583C41.125 124.998 41.7472 124.376 41.7472 123.61V118.054C41.7472 117.288 41.125 116.665 40.3583 116.665Z" fill="url(#paint7_linear_14_10167)"/>
<path id="Vector_9" d="M41.7472 31.9458V26.3904C41.7472 25.6238 41.125 25.0016 40.3583 25.0016H36.539C32.3725 25.0016 29.2476 28.1265 25.0811 33.3346H40.3583C41.125 33.3346 41.7472 32.7124 41.7472 31.9458Z" fill="url(#paint8_linear_14_10167)"/>
<path id="Vector_10" d="M32.0253 50.0008H26.4699C25.7033 50.0008 25.0811 50.623 25.0811 51.3896V59.7227C25.0811 60.4893 25.7033 61.1115 26.4699 61.1115H32.0253C32.7919 61.1115 33.4141 60.4893 33.4141 59.7227V51.3896C33.4141 50.623 32.7919 50.0008 32.0253 50.0008Z" fill="url(#paint9_linear_14_10167)"/>
<path id="Vector_11" d="M32.0253 69.4446H26.4699C25.7033 69.4446 25.0811 70.0668 25.0811 70.8334V79.1665C25.0811 79.9331 25.7033 80.5553 26.4699 80.5553H32.0253C32.7919 80.5553 33.4141 79.9331 33.4141 79.1665V70.8334C33.4141 70.0668 32.7919 69.4446 32.0253 69.4446Z" fill="url(#paint10_linear_14_10167)"/>
<path id="Vector_12" d="M32.0253 88.8884H26.4699C25.7033 88.8884 25.0811 89.5106 25.0811 90.2773V98.6103C25.0811 99.377 25.7033 99.9992 26.4699 99.9992H32.0253C32.7919 99.9992 33.4141 99.377 33.4141 98.6103V90.2773C33.4141 89.5106 32.7919 88.8884 32.0253 88.8884Z" fill="url(#paint11_linear_14_10167)"/>
<path id="Vector_13" d="M123.694 50.0008H118.139C117.372 50.0008 116.75 50.623 116.75 51.3896V59.7227C116.75 60.4893 117.372 61.1115 118.139 61.1115H123.694C124.461 61.1115 125.083 60.4893 125.083 59.7227V51.3896C125.083 50.623 124.461 50.0008 123.694 50.0008Z" fill="url(#paint12_linear_14_10167)"/>
<path id="Vector_14" d="M123.694 69.4446H118.139C117.372 69.4446 116.75 70.0668 116.75 70.8334V79.1665C116.75 79.9331 117.372 80.5553 118.139 80.5553H123.694C124.461 80.5553 125.083 79.9331 125.083 79.1665V70.8334C125.083 70.0668 124.461 69.4446 123.694 69.4446Z" fill="url(#paint13_linear_14_10167)"/>
<path id="Vector_15" d="M123.694 88.8884H118.139C117.372 88.8884 116.75 89.5106 116.75 90.2773V98.6103C116.75 99.377 117.372 99.9992 118.139 99.9992H123.694C124.461 99.9992 125.083 99.377 125.083 98.6103V90.2773C125.083 89.5106 124.461 88.8884 123.694 88.8884Z" fill="url(#paint14_linear_14_10167)"/>
<path id="Vector_16" d="M100.08 31.9458V26.3904C100.08 25.6238 99.4583 25.0016 98.6916 25.0016H90.3586C89.5919 25.0016 88.9697 25.6238 88.9697 26.3904V31.9458C88.9697 32.7124 89.5919 33.3346 90.3586 33.3346H98.6916C99.4583 33.3346 100.08 32.7124 100.08 31.9458Z" fill="url(#paint15_linear_14_10167)"/>
<path id="Vector_17" d="M80.6361 31.9458V26.3904C80.6361 25.6238 80.0139 25.0016 79.2473 25.0016H70.9142C70.1476 25.0016 69.5254 25.6238 69.5254 26.3904V31.9458C69.5254 32.7124 70.1476 33.3346 70.9142 33.3346H79.2473C80.0139 33.3346 80.6361 32.7124 80.6361 31.9458Z" fill="url(#paint16_linear_14_10167)"/>
<path id="Vector_18" d="M61.1908 31.9458V26.3904C61.1908 25.6238 60.5686 25.0016 59.802 25.0016H51.4689C50.7023 25.0016 50.0801 25.6238 50.0801 26.3904V31.9458C50.0801 32.7124 50.7023 33.3346 51.4689 33.3346H59.802C60.5686 33.3346 61.1908 32.7124 61.1908 31.9458Z" fill="url(#paint17_linear_14_10167)"/>
<path id="Vector_19" d="M100.08 123.61V118.054C100.08 117.288 99.4583 116.665 98.6916 116.665H90.3586C89.5919 116.665 88.9697 117.288 88.9697 118.054V123.61C88.9697 124.376 89.5919 124.998 90.3586 124.998H98.6916C99.4583 124.998 100.08 124.376 100.08 123.61Z" fill="url(#paint18_linear_14_10167)"/>
<path id="Vector_20" d="M80.6361 123.61V118.054C80.6361 117.288 80.0139 116.665 79.2473 116.665H70.9142C70.1476 116.665 69.5254 117.288 69.5254 118.054V123.61C69.5254 124.376 70.1476 124.998 70.9142 124.998H79.2473C80.0139 124.998 80.6361 124.376 80.6361 123.61Z" fill="url(#paint19_linear_14_10167)"/>
<path id="Vector_21" d="M61.1908 123.61V118.054C61.1908 117.288 60.5686 116.665 59.802 116.665H51.4689C50.7023 116.665 50.0801 117.288 50.0801 118.054V123.61C50.0801 124.376 50.7023 124.998 51.4689 124.998H59.802C60.5686 124.998 61.1908 124.376 61.1908 123.61Z" fill="url(#paint20_linear_14_10167)"/>
</g>
<rect x="2.58203" y="2.5" width="145" height="145" rx="7.5" stroke="#D5EAF6" stroke-width="5"/>
</g>
<defs>
<linearGradient id="paint0_linear_14_10167" x1="75.082" y1="5" x2="75.082" y2="145" gradientUnits="userSpaceOnUse">
<stop stop-color="#199AE0"/>
<stop offset="0.472222" stop-color="#0D5176" stop-opacity="0.527778"/>
<stop offset="0.940972" stop-color="#12A6F7" stop-opacity="0.465278"/>
<stop offset="1" stop-opacity="0"/>
</linearGradient>
<linearGradient id="paint1_linear_14_10167" x1="120.917" y1="108.332" x2="120.917" y2="116.665" gradientUnits="userSpaceOnUse">
<stop offset="0.478" stop-color="#199AE0"/>
<stop offset="0.868" stop-color="#1186CC"/>
<stop offset="1" stop-color="#076CB3"/>
</linearGradient>
<linearGradient id="paint2_linear_14_10167" x1="120.917" y1="41.6676" x2="120.917" y2="33.3346" gradientUnits="userSpaceOnUse">
<stop offset="0.478" stop-color="#199AE0"/>
<stop offset="0.868" stop-color="#1186CC"/>
<stop offset="1" stop-color="#076CB3"/>
</linearGradient>
<linearGradient id="paint3_linear_14_10167" x1="113.678" y1="102.838" x2="117.323" y2="123.504" gradientUnits="userSpaceOnUse">
<stop stop-color="#32BDEF"/>
<stop offset="0.661" stop-color="#25ABE8"/>
<stop offset="1" stop-color="#1EA2E4"/>
</linearGradient>
<linearGradient id="paint4_linear_14_10167" x1="112.501" y1="8.66601" x2="116.9" y2="33.6124" gradientUnits="userSpaceOnUse">
<stop stop-color="#32BDEF"/>
<stop offset="0.661" stop-color="#25ABE8"/>
<stop offset="1" stop-color="#1EA2E4"/>
</linearGradient>
<linearGradient id="paint5_linear_14_10167" x1="29.2504" y1="108.332" x2="29.2504" y2="116.665" gradientUnits="userSpaceOnUse">
<stop offset="0.478" stop-color="#199AE0"/>
<stop offset="0.868" stop-color="#1186CC"/>
<stop offset="1" stop-color="#076CB3"/>
</linearGradient>
<linearGradient id="paint6_linear_14_10167" x1="29.2476" y1="41.6676" x2="29.2476" y2="33.3346" gradientUnits="userSpaceOnUse">
<stop offset="0.478" stop-color="#199AE0"/>
<stop offset="0.868" stop-color="#1186CC"/>
<stop offset="1" stop-color="#076CB3"/>
</linearGradient>
<linearGradient id="paint7_linear_14_10167" x1="36.4751" y1="102.838" x2="32.8308" y2="123.504" gradientUnits="userSpaceOnUse">
<stop stop-color="#32BDEF"/>
<stop offset="0.661" stop-color="#25ABE8"/>
<stop offset="1" stop-color="#1EA2E4"/>
</linearGradient>
<linearGradient id="paint8_linear_14_10167" x1="37.6529" y1="8.66601" x2="33.253" y2="33.6124" gradientUnits="userSpaceOnUse">
<stop stop-color="#32BDEF"/>
<stop offset="0.661" stop-color="#25ABE8"/>
<stop offset="1" stop-color="#1EA2E4"/>
</linearGradient>
<linearGradient id="paint9_linear_14_10167" x1="25.0811" y1="55.5561" x2="33.4141" y2="55.5561" gradientUnits="userSpaceOnUse">
<stop stop-color="#199AE0"/>
<stop offset="1" stop-color="#199AE0"/>
</linearGradient>
<linearGradient id="paint10_linear_14_10167" x1="25.0811" y1="75" x2="33.4141" y2="75" gradientUnits="userSpaceOnUse">
<stop stop-color="#199AE0"/>
<stop offset="1" stop-color="#199AE0"/>
</linearGradient>
<linearGradient id="paint11_linear_14_10167" x1="25.0811" y1="94.4438" x2="33.4141" y2="94.4438" gradientUnits="userSpaceOnUse">
<stop stop-color="#199AE0"/>
<stop offset="1" stop-color="#199AE0"/>
</linearGradient>
<linearGradient id="paint12_linear_14_10167" x1="116.75" y1="55.5561" x2="125.083" y2="55.5561" gradientUnits="userSpaceOnUse">
<stop stop-color="#199AE0"/>
<stop offset="1" stop-color="#199AE0"/>
</linearGradient>
<linearGradient id="paint13_linear_14_10167" x1="116.75" y1="75" x2="125.083" y2="75" gradientUnits="userSpaceOnUse">
<stop stop-color="#199AE0"/>
<stop offset="1" stop-color="#199AE0"/>
</linearGradient>
<linearGradient id="paint14_linear_14_10167" x1="116.75" y1="94.4438" x2="125.083" y2="94.4438" gradientUnits="userSpaceOnUse">
<stop stop-color="#199AE0"/>
<stop offset="1" stop-color="#199AE0"/>
</linearGradient>
<linearGradient id="paint15_linear_14_10167" x1="94.5251" y1="25.0016" x2="94.5251" y2="33.3346" gradientUnits="userSpaceOnUse">
<stop stop-color="#199AE0"/>
<stop offset="1" stop-color="#199AE0"/>
</linearGradient>
<linearGradient id="paint16_linear_14_10167" x1="75.0808" y1="25.0016" x2="75.0808" y2="33.3346" gradientUnits="userSpaceOnUse">
<stop stop-color="#199AE0"/>
<stop offset="1" stop-color="#199AE0"/>
</linearGradient>
<linearGradient id="paint17_linear_14_10167" x1="55.6355" y1="25.0016" x2="55.6355" y2="33.3346" gradientUnits="userSpaceOnUse">
<stop stop-color="#199AE0"/>
<stop offset="1" stop-color="#199AE0"/>
</linearGradient>
<linearGradient id="paint18_linear_14_10167" x1="94.5251" y1="116.665" x2="94.5251" y2="124.998" gradientUnits="userSpaceOnUse">
<stop stop-color="#199AE0"/>
<stop offset="1" stop-color="#199AE0"/>
</linearGradient>
<linearGradient id="paint19_linear_14_10167" x1="75.0808" y1="116.665" x2="75.0808" y2="124.998" gradientUnits="userSpaceOnUse">
<stop stop-color="#199AE0"/>
<stop offset="1" stop-color="#199AE0"/>
</linearGradient>
<linearGradient id="paint20_linear_14_10167" x1="55.6355" y1="116.665" x2="55.6355" y2="124.998" gradientUnits="userSpaceOnUse">
<stop stop-color="#199AE0"/>
<stop offset="1" stop-color="#199AE0"/>
</linearGradient>
</defs>
</svg>
