<svg width="151" height="150" viewBox="0 0 151 150" fill="none" xmlns="http://www.w3.org/2000/svg">
<g id="iphone-spinner">
<rect x="2.58203" y="2.5" width="145" height="145" rx="7.5" fill="white"/>
<rect x="2.58203" y="2.5" width="145" height="145" rx="7.5" fill="url(#paint0_linear_14_10190)" fill-opacity="0.2"/>
<g id="Group">
<path id="Vector" d="M77.582 50H72.582C71.202 50 70.082 48.88 70.082 47.5V27.5C70.082 26.12 71.202 25 72.582 25H77.582C78.962 25 80.082 26.12 80.082 27.5V47.5C80.082 48.88 78.962 50 77.582 50Z" fill="#2D5EAB"/>
<path id="Vector_2" d="M77.582 125H72.582C71.202 125 70.082 123.88 70.082 122.5V102.5C70.082 101.12 71.202 100 72.582 100H77.582C78.962 100 80.082 101.12 80.082 102.5V122.5C80.082 123.88 78.962 125 77.582 125Z" fill="#199BE2"/>
<path id="Vector_3" d="M100.082 77.5V72.5C100.082 71.12 101.202 70 102.582 70H122.582C123.962 70 125.082 71.12 125.082 72.5V77.5C125.082 78.88 123.962 80 122.582 80H102.582C101.202 80 100.082 78.88 100.082 77.5Z" fill="#0D62AB"/>
<path id="Vector_4" d="M25.082 77.5V72.5C25.082 71.12 26.202 70 27.582 70H47.582C48.962 70 50.082 71.12 50.082 72.5V77.5C50.082 78.88 48.962 80 47.582 80H27.582C26.202 80 25.082 78.88 25.082 77.5Z" fill="#50E6FF"/>
<path id="Vector_5" d="M94.5142 59.0899L90.9792 55.5549C90.0017 54.5774 90.0017 52.9949 90.9792 52.0199L105.122 37.8774C106.099 36.8999 107.682 36.8999 108.657 37.8774L112.192 41.4124C113.169 42.3899 113.169 43.9724 112.192 44.9474L98.0492 59.0899C97.0742 60.0674 95.4917 60.0674 94.5142 59.0899Z" fill="#2D5EAB"/>
<path id="Vector_6" d="M41.4908 112.123L37.9558 108.588C36.9783 107.61 36.9783 106.028 37.9558 105.053L52.0983 90.91C53.0758 89.9325 54.6583 89.9325 55.6333 90.91L59.1683 94.445C60.1458 95.4225 60.1458 97.005 59.1683 97.98L45.0258 112.123C44.0508 113.1 42.4658 113.1 41.4908 112.123Z" fill="#35C1F1"/>
<path id="Vector_7" d="M90.9792 94.445L94.5142 90.91C95.4917 89.9325 97.0742 89.9325 98.0492 90.91L112.192 105.053C113.169 106.03 113.169 107.613 112.192 108.588L108.657 112.123C107.679 113.1 106.097 113.1 105.122 112.123L90.9792 97.98C90.0017 97.005 90.0017 95.4225 90.9792 94.445Z" fill="#0078D4"/>
<path id="Vector_8" d="M37.9558 41.4124L41.4908 37.8774C42.4683 36.8999 44.0508 36.8999 45.0258 37.8774L59.1683 52.0199C60.1458 52.9974 60.1458 54.5799 59.1683 55.5549L55.6333 59.0899C54.6558 60.0674 53.0733 60.0674 52.0983 59.0899L37.9558 44.9474C36.9783 43.9724 36.9783 42.3874 37.9558 41.4124Z" fill="#2D5EAB"/>
</g>
<rect x="2.58203" y="2.5" width="145" height="145" rx="7.5" stroke="#D5EAF6" stroke-width="5"/>
</g>
<defs>
<linearGradient id="paint0_linear_14_10190" x1="75.082" y1="5" x2="75.082" y2="145" gradientUnits="userSpaceOnUse">
<stop stop-color="#199AE0"/>
<stop offset="0.472222" stop-color="#0D5176" stop-opacity="0.527778"/>
<stop offset="0.940972" stop-color="#12A6F7" stop-opacity="0.465278"/>
<stop offset="1" stop-opacity="0"/>
</linearGradient>
</defs>
</svg>
