<svg width="151" height="150" viewBox="0 0 151 150" fill="none" xmlns="http://www.w3.org/2000/svg">
<g id="libre-office-writer">
<rect x="2.58203" y="2.5" width="145" height="145" rx="7.5" fill="white"/>
<rect x="2.58203" y="2.5" width="145" height="145" rx="7.5" fill="url(#paint0_linear_14_10247)" fill-opacity="0.2"/>
<g id="Group">
<path id="Vector" d="M112.582 125H37.582C34.8195 125 32.582 122.763 32.582 120V30C32.582 27.2375 34.8195 25 37.582 25H112.582C115.345 25 117.582 27.2375 117.582 30V120C117.582 122.763 115.345 125 112.582 125Z" fill="url(#paint1_linear_14_10247)"/>
<path id="Vector_2" opacity="0.05" d="M88.012 29.9999C89.337 29.9999 90.6095 30.5274 91.547 31.4649L111.117 51.0349C112.055 51.9724 112.582 53.2449 112.582 54.5699V117.5C112.582 118.88 111.462 120 110.082 120H40.082C38.702 120 37.582 118.88 37.582 117.5V32.4999C37.582 31.1199 38.702 29.9999 40.082 29.9999H88.012ZM88.012 27.4999H40.082C37.3245 27.4999 35.082 29.7424 35.082 32.4999V117.5C35.082 120.257 37.3245 122.5 40.082 122.5H110.082C112.84 122.5 115.082 120.257 115.082 117.5V54.5699C115.082 52.5674 114.302 50.6824 112.885 49.2674L93.3145 29.6974C91.897 28.2799 90.0145 27.4999 88.012 27.4999Z" fill="black"/>
<path id="Vector_3" opacity="0.07" d="M88.012 30C89.337 30 90.6095 30.5275 91.547 31.465L111.117 51.035C112.055 51.9725 112.582 53.245 112.582 54.57V117.5C112.582 118.88 111.462 120 110.082 120H40.082C38.702 120 37.582 118.88 37.582 117.5V32.5C37.582 31.12 38.702 30 40.082 30H88.012ZM88.012 28.75H40.082C38.0145 28.75 36.332 30.4325 36.332 32.5V117.5C36.332 119.568 38.0145 121.25 40.082 121.25H110.082C112.15 121.25 113.832 119.568 113.832 117.5V54.57C113.832 52.9 113.182 51.33 112.002 50.15L92.432 30.58C91.2495 29.4 89.6795 28.75 88.012 28.75Z" fill="black"/>
<path id="Vector_4" d="M40.082 30C38.702 30 37.582 31.12 37.582 32.5V117.5C37.582 118.88 38.702 120 40.082 120H110.082C111.462 120 112.582 118.88 112.582 117.5V54.57C112.582 53.245 112.055 51.9725 111.117 51.035L91.547 31.465C90.6095 30.5275 89.337 30 88.012 30H40.082Z" fill="url(#paint2_linear_14_10247)"/>
<path id="Vector_5" d="M101.472 67.5H76.192C74.197 67.5 72.582 69.0975 72.582 71.0725V87.145C72.582 90.1025 75.007 92.5 77.9995 92.5H100.655C103.1 92.5 105.082 90.54 105.082 88.1225V71.0725C105.082 69.0975 103.467 67.5 101.472 67.5Z" fill="url(#paint3_radial_14_10247)"/>
<path id="Vector_6" d="M105.07 88.0148L95.7373 78.2898C94.6948 77.2573 93.0098 77.2373 91.9373 78.2398L83.4023 85.9948V92.4998H101.457C103.455 92.4998 105.07 90.9023 105.07 88.9273V88.0148Z" fill="#436DCD"/>
<path id="Vector_7" d="M101.472 92.5L84.892 75.9625C83.6195 74.7025 81.5645 74.6775 80.257 75.9L72.582 82.8975V88.93C72.582 90.9025 74.197 92.5 76.192 92.5H101.472Z" fill="url(#paint4_linear_14_10247)"/>
<path id="Vector_8" d="M97.582 74.945C98.9627 74.945 100.082 73.838 100.082 72.4725C100.082 71.107 98.9627 70 97.582 70C96.2013 70 95.082 71.107 95.082 72.4725C95.082 73.838 96.2013 74.945 97.582 74.945Z" fill="white"/>
<path id="Vector_9" d="M66.332 72.5H46.332C45.642 72.5 45.082 71.94 45.082 71.25V68.75C45.082 68.06 45.642 67.5 46.332 67.5H66.332C67.022 67.5 67.582 68.06 67.582 68.75V71.25C67.582 71.94 67.022 72.5 66.332 72.5Z" fill="#29AFEA"/>
<path id="Vector_10" d="M66.332 82.5H46.332C45.642 82.5 45.082 81.94 45.082 81.25V78.75C45.082 78.06 45.642 77.5 46.332 77.5H66.332C67.022 77.5 67.582 78.06 67.582 78.75V81.25C67.582 81.94 67.022 82.5 66.332 82.5Z" fill="#29AFEA"/>
<path id="Vector_11" d="M66.332 92.5H46.332C45.642 92.5 45.082 91.94 45.082 91.25V88.75C45.082 88.06 45.642 87.5 46.332 87.5H66.332C67.022 87.5 67.582 88.06 67.582 88.75V91.25C67.582 91.94 67.022 92.5 66.332 92.5Z" fill="#29AFEA"/>
<path id="Vector_12" d="M103.832 102.5H46.332C45.642 102.5 45.082 101.94 45.082 101.25V98.75C45.082 98.06 45.642 97.5 46.332 97.5H103.832C104.522 97.5 105.082 98.06 105.082 98.75V101.25C105.082 101.94 104.522 102.5 103.832 102.5Z" fill="#29AFEA"/>
<path id="Vector_13" d="M103.832 112.5H46.332C45.642 112.5 45.082 111.94 45.082 111.25V108.75C45.082 108.06 45.642 107.5 46.332 107.5H103.832C104.522 107.5 105.082 108.06 105.082 108.75V111.25C105.082 111.94 104.522 112.5 103.832 112.5Z" fill="#29AFEA"/>
</g>
<rect x="2.58203" y="2.5" width="145" height="145" rx="7.5" stroke="#D5EAF6" stroke-width="5"/>
</g>
<defs>
<linearGradient id="paint0_linear_14_10247" x1="75.082" y1="5" x2="75.082" y2="145" gradientUnits="userSpaceOnUse">
<stop stop-color="#199AE0"/>
<stop offset="0.472222" stop-color="#0D5176" stop-opacity="0.527778"/>
<stop offset="0.940972" stop-color="#12A6F7" stop-opacity="0.465278"/>
<stop offset="1" stop-opacity="0"/>
</linearGradient>
<linearGradient id="paint1_linear_14_10247" x1="75.082" y1="28.5425" x2="75.082" y2="129.803" gradientUnits="userSpaceOnUse">
<stop stop-color="#2AA4F4"/>
<stop offset="1" stop-color="#007AD9"/>
</linearGradient>
<linearGradient id="paint2_linear_14_10247" x1="75.082" y1="60.8325" x2="75.082" y2="167.507" gradientUnits="userSpaceOnUse">
<stop stop-color="#F9F9F9"/>
<stop offset="0.26" stop-color="#F0F1F2"/>
<stop offset="0.678" stop-color="#D9DCDF"/>
<stop offset="1" stop-color="#C2C8CC"/>
</linearGradient>
<radialGradient id="paint3_radial_14_10247" cx="0" cy="0" r="1" gradientUnits="userSpaceOnUse" gradientTransform="translate(110.931 88.665) scale(18.9101 18.7025)">
<stop stop-color="#BD8AF5"/>
<stop offset="0.137" stop-color="#B88BF5"/>
<stop offset="0.309" stop-color="#A88FF3"/>
<stop offset="0.499" stop-color="#8F96F2"/>
<stop offset="0.702" stop-color="#6B9EEF"/>
<stop offset="0.913" stop-color="#3EAAEC"/>
<stop offset="1" stop-color="#29AFEA"/>
</radialGradient>
<linearGradient id="paint4_linear_14_10247" x1="87.027" y1="74.96" x2="87.027" y2="92.805" gradientUnits="userSpaceOnUse">
<stop stop-color="#124787"/>
<stop offset="0.923" stop-color="#173B75"/>
<stop offset="1" stop-color="#173A73"/>
</linearGradient>
</defs>
</svg>
