<svg width="151" height="150" viewBox="0 0 151 150" fill="none" xmlns="http://www.w3.org/2000/svg">
<g id="member">
<rect x="2.58203" y="2.5" width="145" height="145" rx="7.5" fill="white"/>
<rect x="2.58203" y="2.5" width="145" height="145" rx="7.5" fill="url(#paint0_linear_14_10395)" fill-opacity="0.2"/>
<g id="Group">
<path id="Vector" d="M92.5859 65C100.87 65 107.586 58.2843 107.586 50C107.586 41.7157 100.87 35 92.5859 35C84.3017 35 77.5859 41.7157 77.5859 50C77.5859 58.2843 84.3017 65 92.5859 65Z" fill="url(#paint1_linear_14_10395)"/>
<path id="Vector_2" d="M92.5781 70C78.7706 70 67.5781 80.9125 67.5781 94.375V119.583C67.5781 122.575 70.0631 125 73.1331 125H112.023C115.093 125 117.578 122.575 117.578 119.583V94.375C117.578 80.9125 106.386 70 92.5781 70Z" fill="url(#paint2_linear_14_10395)"/>
<path id="Vector_3" d="M57.5781 55C65.8624 55 72.5781 48.2843 72.5781 40C72.5781 31.7157 65.8624 25 57.5781 25C49.2939 25 42.5781 31.7157 42.5781 40C42.5781 48.2843 49.2939 55 57.5781 55Z" fill="url(#paint3_linear_14_10395)"/>
<path id="Vector_4" d="M57.5859 60C43.7784 60 32.5859 70.9125 32.5859 84.375V119.583C32.5859 122.575 35.0709 125 38.1409 125H77.0309C80.1009 125 82.5859 122.575 82.5859 119.583V84.375C82.5859 70.9125 71.3934 60 57.5859 60Z" fill="url(#paint4_linear_14_10395)"/>
</g>
<rect x="2.58203" y="2.5" width="145" height="145" rx="7.5" stroke="#D5EAF6" stroke-width="5"/>
</g>
<defs>
<linearGradient id="paint0_linear_14_10395" x1="75.082" y1="5" x2="75.082" y2="145" gradientUnits="userSpaceOnUse">
<stop stop-color="#199AE0"/>
<stop offset="0.472222" stop-color="#0D5176" stop-opacity="0.527778"/>
<stop offset="0.940972" stop-color="#12A6F7" stop-opacity="0.465278"/>
<stop offset="1" stop-opacity="0"/>
</linearGradient>
<linearGradient id="paint1_linear_14_10395" x1="82.4109" y1="39.8225" x2="103.338" y2="60.7525" gradientUnits="userSpaceOnUse">
<stop stop-color="#0D61A9"/>
<stop offset="1" stop-color="#16528C"/>
</linearGradient>
<linearGradient id="paint2_linear_14_10395" x1="85.8456" y1="72.3975" x2="97.5106" y2="130.712" gradientUnits="userSpaceOnUse">
<stop stop-color="#0D61A9"/>
<stop offset="1" stop-color="#16528C"/>
</linearGradient>
<linearGradient id="paint3_linear_14_10395" x1="47.4031" y1="29.8225" x2="68.3306" y2="50.7525" gradientUnits="userSpaceOnUse">
<stop stop-color="#32BDEF"/>
<stop offset="1" stop-color="#1EA2E4"/>
</linearGradient>
<linearGradient id="paint4_linear_14_10395" x1="49.9434" y1="62.8425" x2="63.5659" y2="130.955" gradientUnits="userSpaceOnUse">
<stop stop-color="#32BDEF"/>
<stop offset="1" stop-color="#1EA2E4"/>
</linearGradient>
</defs>
</svg>
