<svg width="151" height="150" viewBox="0 0 151 150" fill="none" xmlns="http://www.w3.org/2000/svg">
<g id="menu-vertical">
<rect x="2.58203" y="2.5" width="145" height="145" rx="7.5" fill="white"/>
<rect x="2.58203" y="2.5" width="145" height="145" rx="7.5" fill="url(#paint0_linear_14_10406)" fill-opacity="0.2"/>
<g id="Group">
<path id="Vector" d="M75.0818 86.1111C81.2183 86.1111 86.1929 81.1365 86.1929 75C86.1929 68.8635 81.2183 63.8889 75.0818 63.8889C68.9453 63.8889 63.9707 68.8635 63.9707 75C63.9707 81.1365 68.9453 86.1111 75.0818 86.1111Z" fill="url(#paint1_linear_14_10406)"/>
<path id="Vector_2" d="M75.0818 47.2222C81.2183 47.2222 86.1929 42.2476 86.1929 36.1111C86.1929 29.9746 81.2183 25 75.0818 25C68.9453 25 63.9707 29.9746 63.9707 36.1111C63.9707 42.2476 68.9453 47.2222 75.0818 47.2222Z" fill="url(#paint2_linear_14_10406)"/>
<path id="Vector_3" d="M75.0818 125C81.2183 125 86.1929 120.025 86.1929 113.889C86.1929 107.752 81.2183 102.778 75.0818 102.778C68.9453 102.778 63.9707 107.752 63.9707 113.889C63.9707 120.025 68.9453 125 75.0818 125Z" fill="url(#paint3_linear_14_10406)"/>
</g>
<rect x="2.58203" y="2.5" width="145" height="145" rx="7.5" stroke="#D5EAF6" stroke-width="5"/>
</g>
<defs>
<linearGradient id="paint0_linear_14_10406" x1="75.082" y1="5" x2="75.082" y2="145" gradientUnits="userSpaceOnUse">
<stop stop-color="#199AE0"/>
<stop offset="0.472222" stop-color="#0D5176" stop-opacity="0.527778"/>
<stop offset="0.940972" stop-color="#12A6F7" stop-opacity="0.465278"/>
<stop offset="1" stop-opacity="0"/>
</linearGradient>
<linearGradient id="paint1_linear_14_10406" x1="67.5874" y1="67.5056" x2="84.1207" y2="84.0389" gradientUnits="userSpaceOnUse">
<stop stop-color="#32BDEF"/>
<stop offset="1" stop-color="#1EA2E4"/>
</linearGradient>
<linearGradient id="paint2_linear_14_10406" x1="67.5874" y1="28.6167" x2="84.1207" y2="45.15" gradientUnits="userSpaceOnUse">
<stop stop-color="#32BDEF"/>
<stop offset="1" stop-color="#1EA2E4"/>
</linearGradient>
<linearGradient id="paint3_linear_14_10406" x1="67.5874" y1="106.394" x2="84.1207" y2="122.928" gradientUnits="userSpaceOnUse">
<stop stop-color="#32BDEF"/>
<stop offset="1" stop-color="#1EA2E4"/>
</linearGradient>
</defs>
</svg>
