<svg width="151" height="150" viewBox="0 0 151 150" fill="none" xmlns="http://www.w3.org/2000/svg">
<g id="menu">
<rect x="2.58203" y="2.5" width="145" height="145" rx="7.5" fill="white"/>
<rect x="2.58203" y="2.5" width="145" height="145" rx="7.5" fill="url(#paint0_linear_14_10401)" fill-opacity="0.2"/>
<g id="Group">
<path id="Vector" d="M120.32 53.5714H29.8439C27.2249 53.5714 25.082 51.4286 25.082 48.8095V44.0476C25.082 41.4286 27.2249 39.2857 29.8439 39.2857H120.32C122.939 39.2857 125.082 41.4286 125.082 44.0476V48.8095C125.082 51.4286 122.939 53.5714 120.32 53.5714Z" fill="url(#paint1_linear_14_10401)"/>
<path id="Vector_2" d="M120.32 82.143H29.8439C27.2249 82.143 25.082 80.0001 25.082 77.381V72.6191C25.082 70.0001 27.2249 67.8572 29.8439 67.8572H120.32C122.939 67.8572 125.082 70.0001 125.082 72.6191V77.381C125.082 80.0001 122.939 82.143 120.32 82.143Z" fill="url(#paint2_linear_14_10401)"/>
<path id="Vector_3" d="M120.32 110.714H29.8439C27.2249 110.714 25.082 108.571 25.082 105.952V101.19C25.082 98.5714 27.2249 96.4285 29.8439 96.4285H120.32C122.939 96.4285 125.082 98.5714 125.082 101.19V105.952C125.082 108.571 122.939 110.714 120.32 110.714Z" fill="url(#paint3_linear_14_10401)"/>
</g>
<rect x="2.58203" y="2.5" width="145" height="145" rx="7.5" stroke="#D5EAF6" stroke-width="5"/>
</g>
<defs>
<linearGradient id="paint0_linear_14_10401" x1="75.082" y1="5" x2="75.082" y2="145" gradientUnits="userSpaceOnUse">
<stop stop-color="#199AE0"/>
<stop offset="0.472222" stop-color="#0D5176" stop-opacity="0.527778"/>
<stop offset="0.940972" stop-color="#12A6F7" stop-opacity="0.465278"/>
<stop offset="1" stop-opacity="0"/>
</linearGradient>
<linearGradient id="paint1_linear_14_10401" x1="46.6677" y1="18.0143" x2="101.013" y2="72.3595" gradientUnits="userSpaceOnUse">
<stop offset="0.237" stop-color="#3BC9F3"/>
<stop offset="0.85" stop-color="#1591D8"/>
</linearGradient>
<linearGradient id="paint2_linear_14_10401" x1="46.6677" y1="46.5858" x2="101.013" y2="100.931" gradientUnits="userSpaceOnUse">
<stop offset="0.237" stop-color="#3BC9F3"/>
<stop offset="0.85" stop-color="#1591D8"/>
</linearGradient>
<linearGradient id="paint3_linear_14_10401" x1="46.6677" y1="75.1571" x2="101.013" y2="129.502" gradientUnits="userSpaceOnUse">
<stop offset="0.237" stop-color="#3BC9F3"/>
<stop offset="0.85" stop-color="#1591D8"/>
</linearGradient>
</defs>
</svg>
