<svg width="151" height="150" viewBox="0 0 151 150" fill="none" xmlns="http://www.w3.org/2000/svg">
<g id="numbers-input-form">
<rect x="2.58203" y="2.5" width="145" height="145" rx="7.5" fill="white"/>
<rect x="2.58203" y="2.5" width="145" height="145" rx="7.5" fill="url(#paint0_linear_14_10577)" fill-opacity="0.2"/>
<g id="Group">
<path id="Vector" d="M25.082 55.8696V94.1305C25.082 96.7718 27.319 98.9131 30.082 98.9131H120.082C122.845 98.9131 125.082 96.7718 125.082 94.1305V55.8696C125.082 53.2283 122.845 51.087 120.082 51.087H30.082C27.319 51.087 25.082 53.2283 25.082 55.8696Z" fill="#50E6FF"/>
<path id="Vector_2" d="M42.6183 69.2303V87.9042H38.6074V73.7651C38.3857 73.9607 38.1248 74.1455 37.8248 74.3194C37.5248 74.4933 37.2031 74.6498 36.864 74.7912C36.5248 74.9325 36.1705 75.0499 35.8053 75.1477C35.44 75.2455 35.0792 75.3151 34.7227 75.3585V71.9694C35.7661 71.6629 36.7531 71.2738 37.677 70.7977C38.6009 70.3216 39.44 69.7999 40.1857 69.2303H42.6183Z" fill="#184F85"/>
<path id="Vector_3" d="M52.257 88.0434C54.0579 88.0434 55.5178 86.5835 55.5178 84.7825C55.5178 82.9816 54.0579 81.5217 52.257 81.5217C50.456 81.5217 48.9961 82.9816 48.9961 84.7825C48.9961 86.5835 50.456 88.0434 52.257 88.0434Z" fill="#184F85"/>
<path id="Vector_4" d="M63.1163 88.0434C64.9173 88.0434 66.3772 86.5835 66.3772 84.7825C66.3772 82.9816 64.9173 81.5217 63.1163 81.5217C61.3154 81.5217 59.8555 82.9816 59.8555 84.7825C59.8555 86.5835 61.3154 88.0434 63.1163 88.0434Z" fill="#184F85"/>
</g>
<rect x="2.58203" y="2.5" width="145" height="145" rx="7.5" stroke="#D5EAF6" stroke-width="5"/>
</g>
<defs>
<linearGradient id="paint0_linear_14_10577" x1="75.082" y1="5" x2="75.082" y2="145" gradientUnits="userSpaceOnUse">
<stop stop-color="#199AE0"/>
<stop offset="0.472222" stop-color="#0D5176" stop-opacity="0.527778"/>
<stop offset="0.940972" stop-color="#12A6F7" stop-opacity="0.465278"/>
<stop offset="1" stop-opacity="0"/>
</linearGradient>
</defs>
</svg>
