<svg width="151" height="150" viewBox="0 0 151 150" fill="none" xmlns="http://www.w3.org/2000/svg">
<g id="one-time-password">
<rect x="2.58203" y="2.5" width="145" height="145" rx="7.5" fill="white"/>
<rect x="2.58203" y="2.5" width="145" height="145" rx="7.5" fill="url(#paint0_linear_14_10600)" fill-opacity="0.2"/>
<g id="Group">
<path id="Vector" d="M117.765 37.1951H59.2285V120.122C59.2285 122.817 61.4114 125 64.1066 125H112.887C115.582 125 117.765 122.817 117.765 120.122V37.1951Z" fill="url(#paint1_linear_14_10600)"/>
<path id="Vector_2" d="M117.765 37.1952H59.2285V29.8781C59.2285 27.183 61.4114 25 64.1066 25H112.887C115.582 25 117.765 27.183 117.765 29.8781V37.1952Z" fill="#50E6FF"/>
<path id="Vector_3" d="M78.7375 32.9268C79.7477 32.9268 80.5667 32.1078 80.5667 31.0975C80.5667 30.0872 79.7477 29.2682 78.7375 29.2682C77.7272 29.2682 76.9082 30.0872 76.9082 31.0975C76.9082 32.1078 77.7272 32.9268 78.7375 32.9268Z" fill="#0C63AD"/>
<path id="Vector_4" d="M97.0263 29.2682C96.5532 29.2682 85.3044 29.2682 84.8312 29.2682C83.8215 29.2682 83.002 30.0877 83.002 31.0975C83.002 32.1072 83.8215 32.9268 84.8312 32.9268C85.3044 32.9268 96.5532 32.9268 97.0263 32.9268C98.0361 32.9268 98.8556 32.1072 98.8556 31.0975C98.8556 30.0877 98.0361 29.2682 97.0263 29.2682Z" fill="#0C63AD"/>
<path id="Vector_5" opacity="0.05" d="M95.8139 64.0244V81.0976C95.8139 85.1219 92.5212 88.4146 88.4968 88.4146H59.2285V56.7073H88.4968C92.5212 56.7073 95.8139 60 95.8139 64.0244Z" fill="black"/>
<path id="Vector_6" opacity="0.07" d="M94.5944 64.0243V81.0975C94.5944 84.4634 91.8627 87.1951 88.4968 87.1951H59.2285V57.9268H88.4968C91.8627 57.9268 94.5944 60.6585 94.5944 64.0243Z" fill="black"/>
<path id="Vector_7" d="M88.4979 85.9755H37.2784C34.5882 85.9755 32.4004 83.7877 32.4004 81.0975V64.0243C32.4004 61.3341 34.5882 59.1463 37.2784 59.1463H88.4979C91.1882 59.1463 93.376 61.3341 93.376 64.0243V81.0975C93.376 83.7877 91.1882 85.9755 88.4979 85.9755Z" fill="url(#paint2_linear_14_10600)"/>
<path id="Vector_8" d="M88.4949 64.0243H37.2754V81.0975H88.4949V64.0243Z" fill="url(#paint3_linear_14_10600)"/>
<path id="Vector_9" d="M48.2542 76.2195C50.2748 76.2195 51.9128 74.5815 51.9128 72.5609C51.9128 70.5404 50.2748 68.9024 48.2542 68.9024C46.2337 68.9024 44.5957 70.5404 44.5957 72.5609C44.5957 74.5815 46.2337 76.2195 48.2542 76.2195Z" fill="#0B5AA4"/>
<path id="Vector_10" d="M62.8871 76.2195C64.9076 76.2195 66.5456 74.5815 66.5456 72.5609C66.5456 70.5404 64.9076 68.9024 62.8871 68.9024C60.8665 68.9024 59.2285 70.5404 59.2285 72.5609C59.2285 74.5815 60.8665 76.2195 62.8871 76.2195Z" fill="#0B5AA4"/>
<path id="Vector_11" d="M77.5199 76.2195C79.5404 76.2195 81.1784 74.5815 81.1784 72.5609C81.1784 70.5404 79.5404 68.9024 77.5199 68.9024C75.4993 68.9024 73.8613 70.5404 73.8613 72.5609C73.8613 74.5815 75.4993 76.2195 77.5199 76.2195Z" fill="#0B5AA4"/>
</g>
<rect x="2.58203" y="2.5" width="145" height="145" rx="7.5" stroke="#D5EAF6" stroke-width="5"/>
</g>
<defs>
<linearGradient id="paint0_linear_14_10600" x1="75.082" y1="5" x2="75.082" y2="145" gradientUnits="userSpaceOnUse">
<stop stop-color="#199AE0"/>
<stop offset="0.472222" stop-color="#0D5176" stop-opacity="0.527778"/>
<stop offset="0.940972" stop-color="#12A6F7" stop-opacity="0.465278"/>
<stop offset="1" stop-opacity="0"/>
</linearGradient>
<linearGradient id="paint1_linear_14_10600" x1="65.6578" y1="36.3146" x2="126.265" y2="150.3" gradientUnits="userSpaceOnUse">
<stop stop-color="#32BDEF"/>
<stop offset="1" stop-color="#1EA2E4"/>
</linearGradient>
<linearGradient id="paint2_linear_14_10600" x1="54.5394" y1="56.8585" x2="75.0882" y2="95.5048" gradientUnits="userSpaceOnUse">
<stop stop-color="#0077D2"/>
<stop offset="1" stop-color="#0B59A2"/>
</linearGradient>
<linearGradient id="paint3_linear_14_10600" x1="58.4681" y1="63.5048" x2="75.0388" y2="97.478" gradientUnits="userSpaceOnUse">
<stop stop-color="#FCFCFC"/>
<stop offset="0.495" stop-color="#F4F4F4"/>
<stop offset="0.869" stop-color="#E8E8E8"/>
<stop offset="1" stop-color="#E8E8E8"/>
</linearGradient>
</defs>
</svg>
