<svg width="151" height="150" viewBox="0 0 151 150" fill="none" xmlns="http://www.w3.org/2000/svg">
<g id="pdf">
<rect x="2.58203" y="2.5" width="145" height="145" rx="7.5" fill="white"/>
<rect x="2.58203" y="2.5" width="145" height="145" rx="7.5" fill="url(#paint0_linear_14_10661)" fill-opacity="0.2"/>
<g id="Group">
<path id="Vector" d="M114.555 53.9474V119.737C114.555 122.645 112.2 125 109.292 125H40.8706C37.9627 125 35.6074 122.645 35.6074 119.737V30.2632C35.6074 27.3553 37.9627 25 40.8706 25H85.6074L114.555 53.9474Z" fill="#FFADC8"/>
<path id="Vector_2" d="M85.6074 25V48.6842C85.6074 51.5921 87.9627 53.9474 90.8706 53.9474H114.555L85.6074 25Z" fill="#E72636"/>
<path id="Vector_3" d="M55.9705 82.8685V89.529H51.6152V70.1921H58.4363C63.31 70.1921 65.7442 72.2474 65.7442 76.3553C65.7442 78.2974 65.0468 79.8685 63.6468 81.0685C62.2494 82.2685 60.381 82.8685 58.0442 82.8685H55.9705ZM55.9705 73.5395V79.5658H57.6837C60.0047 79.5658 61.1626 78.55 61.1626 76.5158C61.1626 74.5316 60.0047 73.5369 57.6837 73.5369H55.9705V73.5395Z" fill="#E72636"/>
<path id="Vector_4" d="M68.5762 89.529V70.1921H75.4262C82.2946 70.1921 85.7262 73.3342 85.7262 79.6158C85.7262 82.629 84.7893 85.0316 82.9156 86.829C81.042 88.629 78.5446 89.5263 75.4262 89.5263H68.5762V89.529ZM72.9314 73.7395V85.9948H75.0893C76.9762 85.9948 78.4551 85.429 79.5314 84.2974C80.6051 83.1658 81.142 81.6237 81.142 79.6711C81.142 77.829 80.6104 76.379 79.5472 75.3237C78.4814 74.2658 76.9867 73.7395 75.063 73.7395H72.9314Z" fill="#E72636"/>
<path id="Vector_5" d="M100.114 73.7395H93.2908V78.4842H99.5619V82.0185H93.2908V89.529H88.9355V70.1921H100.114V73.7395Z" fill="#E72636"/>
</g>
<rect x="2.58203" y="2.5" width="145" height="145" rx="7.5" stroke="#D5EAF6" stroke-width="5"/>
</g>
<defs>
<linearGradient id="paint0_linear_14_10661" x1="75.082" y1="5" x2="75.082" y2="145" gradientUnits="userSpaceOnUse">
<stop stop-color="#199AE0"/>
<stop offset="0.472222" stop-color="#0D5176" stop-opacity="0.527778"/>
<stop offset="0.940972" stop-color="#12A6F7" stop-opacity="0.465278"/>
<stop offset="1" stop-opacity="0"/>
</linearGradient>
</defs>
</svg>
