<svg width="151" height="150" viewBox="0 0 151 150" fill="none" xmlns="http://www.w3.org/2000/svg">
<g id="person">
<rect x="2.58203" y="2.5" width="145" height="145" rx="7.5" fill="white"/>
<rect x="2.58203" y="2.5" width="145" height="145" rx="7.5" fill="url(#paint0_linear_14_10689)" fill-opacity="0.2"/>
<g id="Group">
<path id="Vector" d="M75.0823 90.5667C52.4233 90.5667 34.0566 103.185 34.0566 116.941V119.872C34.0566 122.705 36.3515 125 39.1848 125H110.98C113.813 125 116.108 122.705 116.108 119.872V116.941C116.108 103.185 97.7412 90.5667 75.0823 90.5667Z" fill="url(#paint1_linear_14_10689)"/>
<path id="Vector_2" d="M87.9086 94.2308C87.9086 99.0949 82.7804 104.487 75.0881 104.487C67.3958 104.487 62.2676 99.0949 62.2676 94.2308C62.2676 87.4693 62.2676 76.1924 62.2676 76.1924H87.9086C87.9086 76.1924 87.9086 87.4693 87.9086 94.2308Z" fill="#D6A121"/>
<path id="Vector_3" d="M97.9392 58.3333H96.5879V68.5897H98.3905C99.711 68.5897 100.837 67.7897 101.06 66.6922L101.942 62.3256C102.365 60.2384 100.455 58.3333 97.9392 58.3333Z" fill="url(#paint2_linear_14_10689)"/>
<path id="Vector_4" d="M52.2197 58.3333H53.5709V68.5897H51.7684C50.4479 68.5897 49.3222 67.7897 49.0991 66.6922L48.2171 62.3256C47.794 60.2384 49.7043 58.3333 52.2197 58.3333Z" fill="url(#paint3_linear_14_10689)"/>
<path id="Vector_5" d="M75.0789 28.59C63.6917 28.59 52.002 30.3207 52.002 54.9361C52.002 56.9053 52.002 70.0053 52.002 72.1105C52.002 80.8976 65.8481 91.6669 75.0789 91.6669C84.3096 91.6669 98.1558 80.8976 98.1558 72.1105C98.1558 70.0053 98.1558 56.9079 98.1558 54.9361C98.1558 30.3207 86.4661 28.59 75.0789 28.59Z" fill="url(#paint4_radial_14_10689)"/>
<path id="Vector_6" d="M75.0883 26.3975C63.9242 26.3975 62.2678 30.5923 62.2678 30.5923C57.7293 31.2616 49.4473 37.9103 49.4473 45.5103C49.4473 49.7513 50.1268 52.8846 52.0114 63.459C53.4088 46.6769 57.778 40.3821 62.2678 40.3821C65.5165 40.3821 68.096 42.9462 75.0883 42.9462C80.9934 42.9462 82.4601 40.3821 87.9088 40.3821C95.6011 40.3821 98.1652 60.8128 98.1652 63.459C99.7062 55.741 100.729 49.2154 100.729 45.5103C100.729 36.718 91.0088 26.3975 75.0883 26.3975Z" fill="url(#paint5_radial_14_10689)"/>
<path id="Vector_7" d="M75.6477 25C64.9707 25 62.2733 30.5949 62.2733 30.5949C62.1656 33.5667 63.6118 36.1897 63.6118 36.1897C63.6118 36.1897 65.5605 40.3846 76.6887 40.3846C83.4066 40.3846 93.0348 36.1923 93.0348 25C93.0348 25 90.8733 25 75.6477 25Z" fill="url(#paint6_radial_14_10689)"/>
</g>
<rect x="2.58203" y="2.5" width="145" height="145" rx="7.5" stroke="#D5EAF6" stroke-width="5"/>
</g>
<defs>
<linearGradient id="paint0_linear_14_10689" x1="75.082" y1="5" x2="75.082" y2="145" gradientUnits="userSpaceOnUse">
<stop stop-color="#199AE0"/>
<stop offset="0.472222" stop-color="#0D5176" stop-opacity="0.527778"/>
<stop offset="0.940972" stop-color="#12A6F7" stop-opacity="0.465278"/>
<stop offset="1" stop-opacity="0"/>
</linearGradient>
<linearGradient id="paint1_linear_14_10689" x1="66.79" y1="89.1231" x2="77.7746" y2="126.913" gradientUnits="userSpaceOnUse">
<stop stop-color="#0176D0"/>
<stop offset="1" stop-color="#0A85D9"/>
</linearGradient>
<linearGradient id="paint2_linear_14_10689" x1="97.9417" y1="63.4615" x2="101.362" y2="63.4615" gradientUnits="userSpaceOnUse">
<stop stop-color="#C48F0C"/>
<stop offset="0.251" stop-color="#D19B16"/>
<stop offset="0.619" stop-color="#DCA51F"/>
<stop offset="1" stop-color="#E0A922"/>
</linearGradient>
<linearGradient id="paint3_linear_14_10689" x1="52.2171" y1="63.4615" x2="48.7966" y2="63.4615" gradientUnits="userSpaceOnUse">
<stop stop-color="#C48F0C"/>
<stop offset="0.251" stop-color="#D19B16"/>
<stop offset="0.619" stop-color="#DCA51F"/>
<stop offset="1" stop-color="#E0A922"/>
</linearGradient>
<radialGradient id="paint4_radial_14_10689" cx="0" cy="0" r="1" gradientUnits="userSpaceOnUse" gradientTransform="translate(75.0748 60.1279) scale(27.6325 27.6325)">
<stop stop-color="#FFCF54"/>
<stop offset="0.261" stop-color="#FDCB4D"/>
<stop offset="0.639" stop-color="#F7C13A"/>
<stop offset="1" stop-color="#F0B421"/>
</radialGradient>
<radialGradient id="paint5_radial_14_10689" cx="0" cy="0" r="1" gradientUnits="userSpaceOnUse" gradientTransform="translate(53.1504 29.265) scale(65.3627 65.3627)">
<stop stop-color="#C26715"/>
<stop offset="0.508" stop-color="#B85515"/>
<stop offset="1" stop-color="#AD3F16"/>
</radialGradient>
<radialGradient id="paint6_radial_14_10689" cx="0" cy="0" r="1" gradientUnits="userSpaceOnUse" gradientTransform="translate(71.4069 33.6413) scale(72.1996 75.4966)">
<stop stop-color="#C26715"/>
<stop offset="0.508" stop-color="#B85515"/>
<stop offset="1" stop-color="#AD3F16"/>
</radialGradient>
</defs>
</svg>
