<svg width="151" height="150" viewBox="0 0 151 150" fill="none" xmlns="http://www.w3.org/2000/svg">
<g id="plus-math">
<rect x="2.58203" y="2.5" width="145" height="145" rx="7.5" fill="white"/>
<rect x="2.58203" y="2.5" width="145" height="145" rx="7.5" fill="url(#paint0_linear_14_10726)" fill-opacity="0.2"/>
<g id="Group">
<path id="Vector" d="M119.819 64.4737H85.6083V30.2632C85.6083 27.3553 83.253 25 80.3452 25H69.8188C66.911 25 64.5557 27.3553 64.5557 30.2632V64.4737H30.3452C27.4373 64.4737 25.082 66.8289 25.082 69.7368V80.2631C25.082 83.171 27.4373 85.5263 30.3452 85.5263H119.819C122.727 85.5263 125.082 83.171 125.082 80.2631V69.7368C125.082 66.8289 122.727 64.4737 119.819 64.4737Z" fill="url(#paint1_linear_14_10726)"/>
<path id="Vector_2" d="M85.6034 85.5264H64.5508V119.737C64.5508 122.645 66.906 125 69.8139 125H80.3402C83.2481 125 85.6034 122.645 85.6034 119.737V85.5264Z" fill="url(#paint2_linear_14_10726)"/>
</g>
<rect x="2.58203" y="2.5" width="145" height="145" rx="7.5" stroke="#D5EAF6" stroke-width="5"/>
</g>
<defs>
<linearGradient id="paint0_linear_14_10726" x1="75.082" y1="5" x2="75.082" y2="145" gradientUnits="userSpaceOnUse">
<stop stop-color="#199AE0"/>
<stop offset="0.472222" stop-color="#0D5176" stop-opacity="0.527778"/>
<stop offset="0.940972" stop-color="#12A6F7" stop-opacity="0.465278"/>
<stop offset="1" stop-opacity="0"/>
</linearGradient>
<linearGradient id="paint1_linear_14_10726" x1="54.861" y1="30.9605" x2="86.8662" y2="100.663" gradientUnits="userSpaceOnUse">
<stop stop-color="#BD4FF4"/>
<stop offset="0.587" stop-color="#A235EC"/>
<stop offset="1" stop-color="#8C20E5"/>
</linearGradient>
<linearGradient id="paint2_linear_14_10726" x1="75.1007" y1="80.88" x2="75.1" y2="122.123" gradientUnits="userSpaceOnUse">
<stop stop-color="#480B7A"/>
<stop offset="0.005" stop-color="#4B0C7D"/>
<stop offset="0.053" stop-color="#64159D"/>
<stop offset="0.103" stop-color="#781DB5"/>
<stop offset="0.156" stop-color="#8622C6"/>
<stop offset="0.213" stop-color="#8E25D1"/>
<stop offset="0.282" stop-color="#9126D4"/>
</linearGradient>
</defs>
</svg>
