<svg width="151" height="150" viewBox="0 0 151 150" fill="none" xmlns="http://www.w3.org/2000/svg">
<g id="processor">
<rect x="2.58203" y="2.5" width="145" height="145" rx="7.5" fill="white"/>
<rect x="2.58203" y="2.5" width="145" height="145" rx="7.5" fill="url(#paint0_linear_14_10785)" fill-opacity="0.2"/>
<g id="Group">
<path id="Vector" d="M46.1465 35.5266V27.6319C46.1465 26.1793 47.3254 25.0004 48.778 25.0004C50.2307 25.0004 51.4096 26.1793 51.4096 27.6319V35.5266H46.1465Z" fill="#E3A600"/>
<path id="Vector_2" d="M56.6543 35.5266V27.6319C56.6543 26.1793 57.8332 25.0004 59.2859 25.0004C60.7385 25.0004 61.9174 26.1793 61.9174 27.6319V35.5266H56.6543Z" fill="#E3A600"/>
<path id="Vector_3" d="M67.1934 35.5266V27.6319C67.1934 26.1793 68.3723 25.0004 69.8249 25.0004C71.2775 25.0004 72.4565 26.1793 72.4565 27.6319V35.5266H67.1934Z" fill="#E3A600"/>
<path id="Vector_4" d="M77.7246 35.5266V27.6319C77.7246 26.1793 78.9035 25.0004 80.3562 25.0004C81.8088 25.0004 82.9877 26.1793 82.9877 27.6319V35.5266H77.7246Z" fill="#E3A600"/>
<path id="Vector_5" d="M88.248 35.5266V27.6319C88.248 26.1793 89.427 25.0004 90.8796 25.0004C92.3322 25.0004 93.5112 26.1793 93.5112 27.6319V35.5266H88.248Z" fill="#E3A600"/>
<path id="Vector_6" d="M98.7715 35.5266V27.6319C98.7715 26.1793 99.9504 25.0004 101.403 25.0004C102.856 25.0004 104.035 26.1793 104.035 27.6319V35.5266H98.7715Z" fill="#E3A600"/>
<path id="Vector_7" d="M109.299 114.473H40.8783C37.9705 114.473 35.6152 112.118 35.6152 109.21V40.7897C35.6152 37.8819 37.9705 35.5266 40.8783 35.5266H109.299C112.207 35.5266 114.562 37.8819 114.562 40.7897V109.21C114.562 112.118 112.207 114.473 109.299 114.473Z" fill="url(#paint1_linear_14_10785)"/>
<path id="Vector_8" opacity="0.05" d="M97.0922 106.579H53.0846C47.7978 106.579 43.5137 102.294 43.5137 97.0077V53.0001C43.5137 47.7107 47.8031 43.4213 53.0925 43.4213H97.0922C102.382 43.4213 106.671 47.7107 106.671 53.0001V96.9998C106.671 102.289 102.382 106.579 97.0922 106.579Z" fill="black"/>
<path id="Vector_9" opacity="0.07" d="M96.5724 103.947H53.6148C49.4912 103.947 46.1465 100.602 46.1465 96.4788V53.5212C46.1465 49.3976 49.4912 46.0529 53.6148 46.0529H96.5724C100.696 46.0529 104.041 49.3976 104.041 53.5212V96.4788C104.041 100.602 100.696 103.947 96.5724 103.947Z" fill="black"/>
<path id="Vector_10" d="M96.1395 101.315H54.0346C51.1267 101.315 48.7715 98.9602 48.7715 96.0523V53.9474C48.7715 51.0395 51.1267 48.6843 54.0346 48.6843H96.1395C99.0474 48.6843 101.403 51.0395 101.403 53.9474V96.0523C101.403 98.9602 99.0474 101.315 96.1395 101.315Z" fill="url(#paint2_linear_14_10785)"/>
<path id="Vector_11" d="M46.1465 114.473V122.368C46.1465 123.821 47.3254 125 48.778 125C50.2307 125 51.4096 123.821 51.4096 122.368V114.473H46.1465Z" fill="#E3A600"/>
<path id="Vector_12" d="M56.6543 114.473V122.368C56.6543 123.821 57.8332 125 59.2859 125C60.7385 125 61.9174 123.821 61.9174 122.368V114.473H56.6543Z" fill="#E3A600"/>
<path id="Vector_13" d="M67.1934 114.473V122.368C67.1934 123.821 68.3723 125 69.8249 125C71.2775 125 72.4565 123.821 72.4565 122.368V114.473H67.1934Z" fill="#E3A600"/>
<path id="Vector_14" d="M77.7246 114.473V122.368C77.7246 123.821 78.9035 125 80.3562 125C81.8088 125 82.9877 123.821 82.9877 122.368V114.473H77.7246Z" fill="#E3A600"/>
<path id="Vector_15" d="M88.248 114.473V122.368C88.248 123.821 89.427 125 90.8796 125C92.3322 125 93.5112 123.821 93.5112 122.368V114.473H88.248Z" fill="#E3A600"/>
<path id="Vector_16" d="M98.7715 114.473V122.368C98.7715 123.821 99.9504 125 101.403 125C102.856 125 104.035 123.821 104.035 122.368V114.473H98.7715Z" fill="#E3A600"/>
<path id="Vector_17" d="M114.555 103.947H122.449C123.902 103.947 125.081 102.768 125.081 101.316C125.081 99.863 123.902 98.684 122.449 98.684H114.555V103.947Z" fill="#E3A600"/>
<path id="Vector_18" d="M114.555 93.4209H122.449C123.902 93.4209 125.081 92.242 125.081 90.7893C125.081 89.3367 123.902 88.1578 122.449 88.1578H114.555V93.4209Z" fill="#E3A600"/>
<path id="Vector_19" d="M114.555 82.8948H122.449C123.902 82.8948 125.081 81.7158 125.081 80.2632C125.081 78.8106 123.902 77.6317 122.449 77.6317H114.555V82.8948Z" fill="#E3A600"/>
<path id="Vector_20" d="M114.555 72.3685H122.449C123.902 72.3685 125.081 71.1896 125.081 69.7369C125.081 68.2843 123.902 67.1054 122.449 67.1054H114.555V72.3685Z" fill="#E3A600"/>
<path id="Vector_21" d="M114.555 61.8421H122.449C123.902 61.8421 125.081 60.6632 125.081 59.2106C125.081 57.7579 123.902 56.579 122.449 56.579H114.555V61.8421Z" fill="#E3A600"/>
<path id="Vector_22" d="M114.555 51.316H122.449C123.902 51.316 125.081 50.1371 125.081 48.6844C125.081 47.2318 123.902 46.0529 122.449 46.0529H114.555V51.316Z" fill="#E3A600"/>
<path id="Vector_23" d="M35.6102 103.947H27.7155C26.2629 103.947 25.084 102.768 25.084 101.316C25.084 99.863 26.2629 98.684 27.7155 98.684H35.6102V103.947Z" fill="#E3A600"/>
<path id="Vector_24" d="M35.6102 93.4209H27.7155C26.2629 93.4209 25.084 92.242 25.084 90.7893C25.084 89.3367 26.2629 88.1578 27.7155 88.1578H35.6102V93.4209Z" fill="#E3A600"/>
<path id="Vector_25" d="M35.6102 82.8948H27.7155C26.2629 82.8948 25.084 81.7158 25.084 80.2632C25.084 78.8106 26.2629 77.6317 27.7155 77.6317H35.6102V82.8948Z" fill="#E3A600"/>
<path id="Vector_26" d="M35.6102 72.3685H27.7155C26.2629 72.3685 25.084 71.1896 25.084 69.7369C25.084 68.2843 26.2629 67.1054 27.7155 67.1054H35.6102V72.3685Z" fill="#E3A600"/>
<path id="Vector_27" d="M35.6102 61.8421H27.7155C26.2629 61.8421 25.084 60.6632 25.084 59.2106C25.084 57.7579 26.2629 56.579 27.7155 56.579H35.6102V61.8421Z" fill="#E3A600"/>
<path id="Vector_28" d="M35.6102 51.316H27.7155C26.2629 51.316 25.084 50.1371 25.084 48.6844C25.084 47.2318 26.2629 46.0529 27.7155 46.0529H35.6102V51.316Z" fill="#E3A600"/>
<path id="Vector_29" d="M106.663 46.0528C108.116 46.0528 109.294 44.8747 109.294 43.4213C109.294 41.9679 108.116 40.7897 106.663 40.7897C105.209 40.7897 104.031 41.9679 104.031 43.4213C104.031 44.8747 105.209 46.0528 106.663 46.0528Z" fill="url(#paint3_linear_14_10785)"/>
<path id="Vector_30" d="M43.5046 109.21C44.958 109.21 46.1362 108.032 46.1362 106.579C46.1362 105.125 44.958 103.947 43.5046 103.947C42.0512 103.947 40.873 105.125 40.873 106.579C40.873 108.032 42.0512 109.21 43.5046 109.21Z" fill="url(#paint4_linear_14_10785)"/>
<path id="Vector_31" d="M106.663 109.21C108.116 109.21 109.294 108.032 109.294 106.579C109.294 105.125 108.116 103.947 106.663 103.947C105.209 103.947 104.031 105.125 104.031 106.579C104.031 108.032 105.209 109.21 106.663 109.21Z" fill="url(#paint5_linear_14_10785)"/>
<path id="Vector_32" d="M43.5046 46.0528C44.958 46.0528 46.1362 44.8747 46.1362 43.4213C46.1362 41.9679 44.958 40.7897 43.5046 40.7897C42.0512 40.7897 40.873 41.9679 40.873 43.4213C40.873 44.8747 42.0512 46.0528 43.5046 46.0528Z" fill="url(#paint6_linear_14_10785)"/>
</g>
<rect x="2.58203" y="2.5" width="145" height="145" rx="7.5" stroke="#D5EAF6" stroke-width="5"/>
</g>
<defs>
<linearGradient id="paint0_linear_14_10785" x1="75.082" y1="5" x2="75.082" y2="145" gradientUnits="userSpaceOnUse">
<stop stop-color="#199AE0"/>
<stop offset="0.472222" stop-color="#0D5176" stop-opacity="0.527778"/>
<stop offset="0.940972" stop-color="#12A6F7" stop-opacity="0.465278"/>
<stop offset="1" stop-opacity="0"/>
</linearGradient>
<linearGradient id="paint1_linear_14_10785" x1="75.236" y1="33.6082" x2="74.9754" y2="106.742" gradientUnits="userSpaceOnUse">
<stop stop-color="#899198"/>
<stop offset="1" stop-color="#787E85"/>
</linearGradient>
<linearGradient id="paint2_linear_14_10785" x1="74.8292" y1="49.0079" x2="75.5239" y2="119.281" gradientUnits="userSpaceOnUse">
<stop stop-color="#CCCCCC"/>
<stop offset="0.396" stop-color="#BBBBBB"/>
<stop offset="1" stop-color="#999999"/>
</linearGradient>
<linearGradient id="paint3_linear_14_10785" x1="106.663" y1="40.7608" x2="106.663" y2="44.9239" gradientUnits="userSpaceOnUse">
<stop stop-color="#4C4C4C"/>
<stop offset="1" stop-color="#343434"/>
</linearGradient>
<linearGradient id="paint4_linear_14_10785" x1="43.5046" y1="103.918" x2="43.5046" y2="108.081" gradientUnits="userSpaceOnUse">
<stop stop-color="#4C4C4C"/>
<stop offset="1" stop-color="#343434"/>
</linearGradient>
<linearGradient id="paint5_linear_14_10785" x1="106.663" y1="103.918" x2="106.663" y2="108.081" gradientUnits="userSpaceOnUse">
<stop stop-color="#4C4C4C"/>
<stop offset="1" stop-color="#343434"/>
</linearGradient>
<linearGradient id="paint6_linear_14_10785" x1="43.5046" y1="40.7608" x2="43.5046" y2="44.9239" gradientUnits="userSpaceOnUse">
<stop stop-color="#4C4C4C"/>
<stop offset="1" stop-color="#343434"/>
</linearGradient>
</defs>
</svg>
