<svg width="151" height="150" viewBox="0 0 151 150" fill="none" xmlns="http://www.w3.org/2000/svg">
<g id="renew">
<rect x="2.58203" y="2.5" width="145" height="145" rx="7.5" fill="white"/>
<rect x="2.58203" y="2.5" width="145" height="145" rx="7.5" fill="url(#paint0_linear_14_10963)" fill-opacity="0.2"/>
<g id="Group">
<path id="Vector" d="M113.975 38.334H107.309V104.999H113.975C116.431 104.999 118.42 103.011 118.42 100.555V42.7783C118.42 40.3228 116.431 38.334 113.975 38.334Z" fill="url(#paint1_linear_14_10963)"/>
<path id="Vector_2" d="M109.525 100.555V33.8896C109.525 31.4341 107.536 29.4453 105.081 29.4453H29.5264C27.0709 29.4453 25.082 31.4341 25.082 33.8896V100.555C25.082 103.011 27.0709 105 29.5264 105H113.969C111.514 105 109.525 103.011 109.525 100.555Z" fill="#5286FF"/>
<path id="Vector_3" d="M100.626 51.6671H33.9605C32.7338 51.6671 31.7383 50.6716 31.7383 49.445V45.0006C31.7383 43.774 32.7338 42.7784 33.9605 42.7784H100.626C101.853 42.7784 102.848 43.774 102.848 45.0006V49.445C102.848 50.6716 101.853 51.6671 100.626 51.6671Z" fill="white"/>
<path id="Vector_4" d="M60.6267 93.8885H33.9605C32.7338 93.8885 31.7383 92.893 31.7383 91.6663V62.7779C31.7383 61.5513 32.7338 60.5558 33.9605 60.5558H60.6267C61.8533 60.5558 62.8489 61.5513 62.8489 62.7779V91.6663C62.8489 92.893 61.8533 93.8885 60.6267 93.8885Z" fill="white"/>
<path id="Vector_5" d="M102.864 67.2223H71.7539V62.7779C71.7539 61.5513 72.7494 60.5558 73.9761 60.5558H100.642C101.869 60.5558 102.864 61.5513 102.864 62.7779V67.2223Z" fill="white"/>
<path id="Vector_6" d="M102.864 67.2224H71.7539V73.8889H102.864V67.2224Z" fill="#E6EEFF"/>
<path id="Vector_7" d="M102.864 73.889H71.7539V80.5556H102.864V73.889Z" fill="#CCDCFF"/>
<path id="Vector_8" d="M102.864 80.5555H71.7539V87.2221H102.864V80.5555Z" fill="#B3CBFF"/>
<path id="Vector_9" d="M100.642 93.8886H73.9761C72.7494 93.8886 71.7539 92.893 71.7539 91.6664V87.222H102.864V91.6664C102.864 92.893 101.869 93.8886 100.642 93.8886Z" fill="#9ABAFF"/>
<path id="Vector_10" d="M102.85 71.6666C88.1456 71.6666 76.1836 83.6286 76.1836 98.3328C76.1836 100.637 76.508 102.864 77.0614 104.999H113.961C116.416 104.999 118.405 103.01 118.405 100.555V76.7176C114.021 73.5532 108.659 71.6666 102.85 71.6666Z" fill="url(#paint2_radial_14_10963)"/>
<path id="Vector_11" d="M125.08 98.3329C125.08 110.604 115.129 120.555 102.859 120.555C90.5877 120.555 80.6367 110.604 80.6367 98.3329C80.6367 86.062 90.5877 76.1111 102.859 76.1111C115.129 76.1111 125.08 86.062 125.08 98.3329Z" fill="url(#paint3_linear_14_10963)"/>
<path id="Vector_12" opacity="0.05" d="M102.882 112.859C99.0442 112.859 95.4154 111.453 92.6532 108.902C87.2844 103.931 86.3644 95.6086 90.3732 89.5487L89.7532 88.9288C88.8977 88.0732 88.6466 86.7999 89.1088 85.6844C89.5688 84.5688 90.6466 83.8488 91.8554 83.8488H98.5975C100.411 83.8488 101.889 85.3266 101.889 87.1399V93.882C101.889 95.5242 100.551 96.8597 98.9064 96.8597C98.1375 96.8597 97.4087 96.5642 96.8509 96.0286C96.5776 96.9197 96.502 97.8664 96.6331 98.7953C96.8865 100.573 97.8687 102.12 99.3975 103.146C100.413 103.831 101.615 104.191 102.873 104.191C104.131 104.191 105.333 103.831 106.349 103.146C107.895 102.106 108.888 100.542 109.142 98.7419C109.395 96.9575 108.882 95.1464 107.733 93.7776C106.711 92.5554 106.777 90.7932 107.891 89.6799L109.795 87.7754C110.36 87.211 111.14 86.8888 111.942 86.8888C112.802 86.8888 113.619 87.2555 114.184 87.8977C119.533 93.9753 119.046 103.402 113.097 108.908C110.342 111.455 106.713 112.859 102.882 112.859Z" fill="black"/>
<path id="Vector_13" opacity="0.07" d="M102.871 111.748C99.315 111.748 95.9529 110.446 93.3996 108.086C88.1486 103.224 87.5241 95.0619 91.8107 89.4286L90.5285 88.1442C89.993 87.6087 89.833 86.8109 90.1241 86.1109C90.413 85.4131 91.0885 84.9598 91.8441 84.9598H98.5862C99.7884 84.9598 100.766 85.9376 100.766 87.1398V93.8819C100.766 94.9107 99.9262 95.7485 98.8951 95.7485C98.4017 95.7485 97.9351 95.553 97.5817 95.1996L96.4818 94.0997C95.6284 95.5507 95.2818 97.2663 95.5218 98.9529C95.8218 101.046 96.9706 102.864 98.7662 104.071C99.9639 104.875 101.382 105.304 102.864 105.304C104.346 105.304 105.764 104.877 106.962 104.071C108.77 102.853 109.935 101.017 110.235 98.8996C110.533 96.804 109.928 94.6774 108.579 93.0641C107.928 92.2864 107.968 91.1686 108.67 90.4664L110.575 88.562C110.933 88.2042 111.428 87.9998 111.935 87.9998C112.475 87.9998 112.99 88.2309 113.344 88.6309C118.297 94.2619 117.844 102.991 112.335 108.093C109.786 110.448 106.424 111.748 102.871 111.748Z" fill="black"/>
<path id="Vector_14" d="M112.527 89.3643C112.229 89.0243 111.694 89.0243 111.374 89.3443L109.469 91.2487C109.167 91.5509 109.171 92.022 109.445 92.3487C112.611 96.1331 111.996 102.031 107.594 104.991C104.776 106.886 100.976 106.886 98.1583 104.991C93.7606 102.033 93.1873 96.1664 96.3472 92.3843L98.3783 94.4153C98.8539 94.8909 99.665 94.5531 99.665 93.882V87.1399C99.665 86.5488 99.185 86.0688 98.5939 86.0688H91.8518C91.1807 86.0688 90.8451 86.8799 91.3184 87.3555L93.314 89.351C88.734 94.5109 88.9829 102.477 94.1584 107.268C99.0072 111.757 106.736 111.759 111.587 107.271C116.756 102.495 117.067 94.5265 112.527 89.3643Z" fill="white"/>
</g>
<rect x="2.58203" y="2.5" width="145" height="145" rx="7.5" stroke="#D5EAF6" stroke-width="5"/>
</g>
<defs>
<linearGradient id="paint0_linear_14_10963" x1="75.082" y1="5" x2="75.082" y2="145" gradientUnits="userSpaceOnUse">
<stop stop-color="#199AE0"/>
<stop offset="0.472222" stop-color="#0D5176" stop-opacity="0.527778"/>
<stop offset="0.940972" stop-color="#12A6F7" stop-opacity="0.465278"/>
<stop offset="1" stop-opacity="0"/>
</linearGradient>
<linearGradient id="paint1_linear_14_10963" x1="109.571" y1="71.6667" x2="118.811" y2="71.6667" gradientUnits="userSpaceOnUse">
<stop stop-color="#3537B0"/>
<stop offset="1" stop-color="#4646CF"/>
</linearGradient>
<radialGradient id="paint2_radial_14_10963" cx="0" cy="0" r="1" gradientUnits="userSpaceOnUse" gradientTransform="translate(102.683 98.4506) scale(26.564 26.564)">
<stop/>
<stop offset="1" stop-opacity="0"/>
</radialGradient>
<linearGradient id="paint3_linear_14_10963" x1="80.1167" y1="75.5911" x2="114.245" y2="109.719" gradientUnits="userSpaceOnUse">
<stop stop-color="#05ACB3"/>
<stop offset="1" stop-color="#038387"/>
</linearGradient>
</defs>
</svg>
