<svg width="151" height="150" viewBox="0 0 151 150" fill="none" xmlns="http://www.w3.org/2000/svg">
<g id="restaurant-menu">
<rect x="2.58203" y="2.5" width="145" height="145" rx="7.5" fill="white"/>
<rect x="2.58203" y="2.5" width="145" height="145" rx="7.5" fill="url(#paint0_linear_14_10996)" fill-opacity="0.2"/>
<g id="Group">
<path id="Vector" d="M75.0843 115.476C79.0292 115.476 82.2271 112.278 82.2271 108.333C82.2271 104.389 79.0292 101.191 75.0843 101.191C71.1394 101.191 67.9414 104.389 67.9414 108.333C67.9414 112.278 71.1394 115.476 75.0843 115.476Z" fill="url(#paint1_linear_14_10996)"/>
<path id="Vector_2" d="M120.32 34.5238H75.082V110.714H120.32C120.946 110.714 121.565 110.591 122.143 110.352C122.72 110.113 123.245 109.762 123.688 109.32C124.13 108.878 124.481 108.353 124.72 107.775C124.959 107.197 125.082 106.578 125.082 105.952V39.2857C125.082 38.6603 124.959 38.041 124.72 37.4632C124.481 36.8854 124.13 36.3604 123.688 35.9182C123.245 35.4759 122.72 35.1252 122.143 34.8859C121.565 34.6467 120.946 34.5236 120.32 34.5238Z" fill="url(#paint2_linear_14_10996)"/>
<path id="Vector_3" d="M75.082 34.5238H29.8439C29.2185 34.5236 28.5992 34.6467 28.0214 34.8859C27.4436 35.1252 26.9186 35.4759 26.4764 35.9182C26.0342 36.3604 25.6834 36.8854 25.4442 37.4632C25.2049 38.041 25.0819 38.6603 25.082 39.2857V105.952C25.0819 106.578 25.2049 107.197 25.4442 107.775C25.6834 108.353 26.0342 108.878 26.4764 109.32C26.9186 109.762 27.4436 110.113 28.0214 110.352C28.5992 110.591 29.2185 110.714 29.8439 110.714H75.082V34.5238Z" fill="url(#paint3_linear_14_10996)"/>
<path id="Vector_4" d="M116.754 55.9525H92.9444C92.6287 55.9523 92.3259 55.8269 92.1027 55.6036C91.8795 55.3804 91.754 55.0777 91.7539 54.762V52.381C91.754 52.0653 91.8795 51.7626 92.1027 51.5394C92.3259 51.3161 92.6287 51.1907 92.9444 51.1906H116.754C117.07 51.1907 117.372 51.3161 117.596 51.5394C117.819 51.7626 117.944 52.0653 117.944 52.381V54.762C117.944 55.0777 117.819 55.3804 117.596 55.6036C117.372 55.8269 117.07 55.9523 116.754 55.9525Z" fill="url(#paint4_linear_14_10996)"/>
<path id="Vector_5" d="M111.992 65.4763H92.9444C92.6287 65.4761 92.3259 65.3507 92.1027 65.1275C91.8795 64.9042 91.754 64.6015 91.7539 64.2858V61.9048C91.754 61.5891 91.8795 61.2864 92.1027 61.0632C92.3259 60.8399 92.6287 60.7145 92.9444 60.7144H111.992C112.308 60.7145 112.61 60.8399 112.834 61.0632C113.057 61.2864 113.182 61.5891 113.182 61.9048V64.2858C113.182 64.6015 113.057 64.9042 112.834 65.1275C112.61 65.3507 112.308 65.4761 111.992 65.4763V65.4763Z" fill="url(#paint5_linear_14_10996)"/>
<path id="Vector_6" d="M116.754 74.9999H92.9444C92.6287 74.9998 92.3259 74.8744 92.1027 74.6511C91.8795 74.4279 91.754 74.1252 91.7539 73.8095V71.4285C91.754 71.1128 91.8795 70.8101 92.1027 70.5868C92.3259 70.3636 92.6287 70.2382 92.9444 70.238H116.754C117.07 70.2382 117.372 70.3636 117.596 70.5868C117.819 70.8101 117.944 71.1128 117.944 71.4285V73.8095C117.944 74.1252 117.819 74.4279 117.596 74.6511C117.372 74.8744 117.07 74.9998 116.754 74.9999V74.9999Z" fill="url(#paint6_linear_14_10996)"/>
<path id="Vector_7" d="M116.754 84.5237H92.9444C92.6287 84.5236 92.3259 84.3982 92.1027 84.1749C91.8795 83.9517 91.754 83.649 91.7539 83.3333V80.9523C91.754 80.6366 91.8795 80.3339 92.1027 80.1106C92.3259 79.8874 92.6287 79.762 92.9444 79.7618H116.754C117.07 79.762 117.372 79.8874 117.596 80.1106C117.819 80.3339 117.944 80.6366 117.944 80.9523V83.3333C117.944 83.649 117.819 83.9517 117.596 84.1749C117.372 84.3982 117.07 84.5236 116.754 84.5237V84.5237Z" fill="url(#paint7_linear_14_10996)"/>
<path id="Vector_8" d="M111.992 94.0477H92.9444C92.6287 94.0476 92.3259 93.9221 92.1027 93.6989C91.8795 93.4756 91.754 93.1729 91.7539 92.8572V90.4762C91.754 90.1605 91.8795 89.8578 92.1027 89.6346C92.3259 89.4113 92.6287 89.2859 92.9444 89.2858H111.992C112.308 89.2859 112.61 89.4113 112.834 89.6346C113.057 89.8578 113.182 90.1605 113.182 90.4762V92.8572C113.182 93.1729 113.057 93.4756 112.834 93.6989C112.61 93.9221 112.308 94.0476 111.992 94.0477V94.0477Z" fill="url(#paint8_linear_14_10996)"/>
<path id="Vector_9" d="M85.7941 51.1906H83.4131C82.7557 51.1906 82.2227 51.7235 82.2227 52.381V54.762C82.2227 55.4195 82.7557 55.9525 83.4131 55.9525H85.7941C86.4516 55.9525 86.9846 55.4195 86.9846 54.762V52.381C86.9846 51.7235 86.4516 51.1906 85.7941 51.1906Z" fill="url(#paint9_linear_14_10996)"/>
<path id="Vector_10" d="M85.7941 60.7144H83.4131C82.7557 60.7144 82.2227 61.2473 82.2227 61.9048V64.2858C82.2227 64.9433 82.7557 65.4763 83.4131 65.4763H85.7941C86.4516 65.4763 86.9846 64.9433 86.9846 64.2858V61.9048C86.9846 61.2473 86.4516 60.7144 85.7941 60.7144Z" fill="url(#paint10_linear_14_10996)"/>
<path id="Vector_11" d="M85.7941 70.238H83.4131C82.7557 70.238 82.2227 70.771 82.2227 71.4285V73.8095C82.2227 74.4669 82.7557 74.9999 83.4131 74.9999H85.7941C86.4516 74.9999 86.9846 74.4669 86.9846 73.8095V71.4285C86.9846 70.771 86.4516 70.238 85.7941 70.238Z" fill="url(#paint11_linear_14_10996)"/>
<path id="Vector_12" d="M85.7941 79.7618H83.4131C82.7557 79.7618 82.2227 80.2948 82.2227 80.9523V83.3333C82.2227 83.9908 82.7557 84.5237 83.4131 84.5237H85.7941C86.4516 84.5237 86.9846 83.9908 86.9846 83.3333V80.9523C86.9846 80.2948 86.4516 79.7618 85.7941 79.7618Z" fill="url(#paint12_linear_14_10996)"/>
<path id="Vector_13" d="M85.7941 89.2858H83.4131C82.7557 89.2858 82.2227 89.8188 82.2227 90.4762V92.8572C82.2227 93.5147 82.7557 94.0477 83.4131 94.0477H85.7941C86.4516 94.0477 86.9846 93.5147 86.9846 92.8572V90.4762C86.9846 89.8188 86.4516 89.2858 85.7941 89.2858Z" fill="url(#paint13_linear_14_10996)"/>
<g id="Group_2">
<path id="Vector_14" d="M61.3493 86.9047C61.147 86.9048 60.9466 86.865 60.7596 86.7874C60.5727 86.7098 60.403 86.596 60.2602 86.4526L44.8535 71.0458C44.7104 70.9028 44.597 70.733 44.5196 70.5461C44.4422 70.3592 44.4023 70.159 44.4023 69.9567C44.4023 69.7544 44.4422 69.5542 44.5196 69.3673C44.597 69.1804 44.7104 69.0106 44.8535 68.8676C44.9965 68.7246 45.1663 68.6111 45.3531 68.5337C45.54 68.4563 45.7403 68.4165 45.9425 68.4165C46.1448 68.4165 46.3451 68.4563 46.5319 68.5337C46.7188 68.6111 46.8886 68.7246 47.0316 68.8676L62.4384 84.2744C62.6537 84.4899 62.8002 84.7644 62.8596 85.0632C62.9189 85.362 62.8884 85.6716 62.7719 85.9531C62.6553 86.2345 62.458 86.4751 62.2048 86.6445C61.9516 86.8138 61.654 86.9044 61.3493 86.9047V86.9047Z" fill="#0176D0"/>
<path id="Vector_15" d="M36.5912 58.3383L48.5509 70.4274L44.1038 74.8744L35.9021 66.6727C35.3994 66.1701 35.0006 65.5734 34.7285 64.9166C34.4564 64.2598 34.3164 63.5559 34.3164 62.845C34.3164 62.1341 34.4564 61.4302 34.7285 60.7734C35.0006 60.1166 35.3994 59.5199 35.9021 59.0173L36.5912 58.3383Z" fill="#0176D0"/>
<path id="Vector_16" d="M40.9152 86.9048C40.6084 86.9051 40.3084 86.8144 40.0532 86.6441C39.798 86.4738 39.599 86.2316 39.4815 85.9482C39.364 85.6648 39.3332 85.3529 39.3931 85.052C39.4529 84.7511 39.6007 84.4747 39.8177 84.2578L56.8833 67.1922C57.1742 66.9013 57.5687 66.7379 57.98 66.7379C58.3913 66.7379 58.7858 66.9013 59.0766 67.1922C59.3675 67.483 59.5309 67.8775 59.5309 68.2888C59.5309 68.7001 59.3675 69.0946 59.0766 69.3854L42.0127 86.4494C41.7217 86.7407 41.3269 86.9045 40.9152 86.9048V86.9048Z" fill="#50E6FF"/>
<path id="Vector_17" d="M65.2022 70.6453C68.41 67.4373 68.8682 62.6946 66.2256 60.0521C63.583 57.4096 58.8403 57.868 55.6325 61.0759C52.4247 64.2839 51.9665 69.0266 54.6091 71.6691C57.2517 74.3116 61.9944 73.8532 65.2022 70.6453Z" fill="#50E6FF"/>
</g>
</g>
<rect x="2.58203" y="2.5" width="145" height="145" rx="7.5" stroke="#D5EAF6" stroke-width="5"/>
</g>
<defs>
<linearGradient id="paint0_linear_14_10996" x1="75.082" y1="5" x2="75.082" y2="145" gradientUnits="userSpaceOnUse">
<stop stop-color="#199AE0"/>
<stop offset="0.472222" stop-color="#0D5176" stop-opacity="0.527778"/>
<stop offset="0.940972" stop-color="#12A6F7" stop-opacity="0.465278"/>
<stop offset="1" stop-opacity="0"/>
</linearGradient>
<linearGradient id="paint1_linear_14_10996" x1="51.4771" y1="43.4715" x2="96.2462" y2="166.472" gradientUnits="userSpaceOnUse">
<stop offset="0.002" stop-color="#427FDB"/>
<stop offset="0.397" stop-color="#2668CB"/>
<stop offset="0.763" stop-color="#1358BF"/>
<stop offset="1" stop-color="#0C52BB"/>
</linearGradient>
<linearGradient id="paint2_linear_14_10996" x1="85.1844" y1="33.6452" x2="131.156" y2="159.955" gradientUnits="userSpaceOnUse">
<stop offset="0.002" stop-color="#427FDB"/>
<stop offset="0.397" stop-color="#2668CB"/>
<stop offset="0.763" stop-color="#1358BF"/>
<stop offset="1" stop-color="#0C52BB"/>
</linearGradient>
<linearGradient id="paint3_linear_14_10996" x1="42.0177" y1="48.5048" x2="79.1963" y2="150.652" gradientUnits="userSpaceOnUse">
<stop stop-color="#0176D0"/>
<stop offset="1" stop-color="#22A5E2"/>
</linearGradient>
<linearGradient id="paint4_linear_14_10996" x1="96.7825" y1="31.4096" x2="135.566" y2="137.964" gradientUnits="userSpaceOnUse">
<stop stop-color="#0176D0"/>
<stop offset="1" stop-color="#22A5E2"/>
</linearGradient>
<linearGradient id="paint5_linear_14_10996" x1="90.6753" y1="30.6977" x2="128.275" y2="133.998" gradientUnits="userSpaceOnUse">
<stop stop-color="#0176D0"/>
<stop offset="1" stop-color="#22A5E2"/>
</linearGradient>
<linearGradient id="paint6_linear_14_10996" x1="88.1515" y1="26.7428" x2="126.935" y2="133.3" gradientUnits="userSpaceOnUse">
<stop stop-color="#0176D0"/>
<stop offset="1" stop-color="#22A5E2"/>
</linearGradient>
<linearGradient id="paint7_linear_14_10996" x1="83.8372" y1="24.4118" x2="122.621" y2="130.967" gradientUnits="userSpaceOnUse">
<stop stop-color="#0176D0"/>
<stop offset="1" stop-color="#22A5E2"/>
</linearGradient>
<linearGradient id="paint8_linear_14_10996" x1="78.1253" y1="24.7881" x2="115.725" y2="128.088" gradientUnits="userSpaceOnUse">
<stop stop-color="#0176D0"/>
<stop offset="1" stop-color="#22A5E2"/>
</linearGradient>
<linearGradient id="paint9_linear_14_10996" x1="79.7917" y1="40.3525" x2="109.844" y2="122.917" gradientUnits="userSpaceOnUse">
<stop stop-color="#0176D0"/>
<stop offset="1" stop-color="#22A5E2"/>
</linearGradient>
<linearGradient id="paint10_linear_14_10996" x1="76.4488" y1="40.6905" x2="106.499" y2="123.255" gradientUnits="userSpaceOnUse">
<stop stop-color="#0176D0"/>
<stop offset="1" stop-color="#22A5E2"/>
</linearGradient>
<linearGradient id="paint11_linear_14_10996" x1="73.106" y1="41.0261" x2="103.156" y2="123.59" gradientUnits="userSpaceOnUse">
<stop stop-color="#0176D0"/>
<stop offset="1" stop-color="#22A5E2"/>
</linearGradient>
<linearGradient id="paint12_linear_14_10996" x1="69.7608" y1="41.3642" x2="99.8131" y2="123.929" gradientUnits="userSpaceOnUse">
<stop stop-color="#0176D0"/>
<stop offset="1" stop-color="#22A5E2"/>
</linearGradient>
<linearGradient id="paint13_linear_14_10996" x1="66.4179" y1="41.7024" x2="96.4679" y2="124.264" gradientUnits="userSpaceOnUse">
<stop stop-color="#0176D0"/>
<stop offset="1" stop-color="#22A5E2"/>
</linearGradient>
</defs>
</svg>
