<svg width="151" height="150" viewBox="0 0 151 150" fill="none" xmlns="http://www.w3.org/2000/svg">
<g id="select-all">
<rect x="2.58203" y="2.5" width="145" height="145" rx="7.5" fill="white"/>
<rect x="2.58203" y="2.5" width="145" height="145" rx="7.5" fill="url(#paint0_linear_14_11203)" fill-opacity="0.2"/>
<g id="Group">
<path id="Vector" d="M113.967 30.5573H119.522V36.1126C119.522 37.6459 120.767 38.8903 122.3 38.8903C123.833 38.8903 125.078 37.6459 125.078 36.1126V30.5573C125.078 27.5019 122.578 25.002 119.522 25.002H113.967C112.434 25.002 111.189 26.2463 111.189 27.7796C111.189 29.3129 112.434 30.5573 113.967 30.5573Z" fill="#64717C"/>
<path id="Vector_2" d="M30.6374 36.1126V30.5573H36.1927C37.726 30.5573 38.9704 29.3129 38.9704 27.7796C38.9704 26.2463 37.726 25.002 36.1927 25.002H30.6374C27.5819 25.002 25.082 27.5019 25.082 30.5573V36.1126C25.082 37.6459 26.3264 38.8903 27.8597 38.8903C29.393 38.8903 30.6374 37.6459 30.6374 36.1126Z" fill="#64717C"/>
<path id="Vector_3" d="M119.522 113.887V119.443H113.967C112.434 119.443 111.189 120.687 111.189 122.22C111.189 123.754 112.434 124.998 113.967 124.998H119.522C122.578 124.998 125.078 122.498 125.078 119.443V113.887C125.078 112.354 123.833 111.11 122.3 111.11C120.767 111.11 119.522 112.354 119.522 113.887Z" fill="#64717C"/>
<path id="Vector_4" d="M36.1927 119.443H30.6374V113.887C30.6374 112.354 29.393 111.11 27.8597 111.11C26.3264 111.11 25.082 112.354 25.082 113.887V119.443C25.082 122.498 27.5819 124.998 30.6374 124.998H36.1927C37.726 124.998 38.9704 123.754 38.9704 122.22C38.9704 120.687 37.726 119.443 36.1927 119.443Z" fill="#64717C"/>
<path id="Vector_5" d="M47.305 30.5573C48.8391 30.5573 50.0827 29.3137 50.0827 27.7796C50.0827 26.2456 48.8391 25.002 47.305 25.002C45.7709 25.002 44.5273 26.2456 44.5273 27.7796C44.5273 29.3137 45.7709 30.5573 47.305 30.5573Z" fill="#64717C"/>
<path id="Vector_6" d="M58.4144 30.5573C59.9484 30.5573 61.192 29.3137 61.192 27.7796C61.192 26.2456 59.9484 25.002 58.4144 25.002C56.8803 25.002 55.6367 26.2456 55.6367 27.7796C55.6367 29.3137 56.8803 30.5573 58.4144 30.5573Z" fill="#64717C"/>
<path id="Vector_7" d="M69.5316 30.5573C71.0656 30.5573 72.3092 29.3137 72.3092 27.7796C72.3092 26.2456 71.0656 25.002 69.5316 25.002C67.9975 25.002 66.7539 26.2456 66.7539 27.7796C66.7539 29.3137 67.9975 30.5573 69.5316 30.5573Z" fill="#64717C"/>
<path id="Vector_8" d="M91.7484 30.5573C93.2824 30.5573 94.526 29.3137 94.526 27.7796C94.526 26.2456 93.2824 25.002 91.7484 25.002C90.2143 25.002 88.9707 26.2456 88.9707 27.7796C88.9707 29.3137 90.2143 30.5573 91.7484 30.5573Z" fill="#64717C"/>
<path id="Vector_9" d="M102.858 30.5573C104.392 30.5573 105.635 29.3137 105.635 27.7796C105.635 26.2456 104.392 25.002 102.858 25.002C101.324 25.002 100.08 26.2456 100.08 27.7796C100.08 29.3137 101.324 30.5573 102.858 30.5573Z" fill="#64717C"/>
<path id="Vector_10" d="M80.6312 30.5573C82.1652 30.5573 83.4088 29.3137 83.4088 27.7796C83.4088 26.2456 82.1652 25.002 80.6312 25.002C79.0971 25.002 77.8535 26.2456 77.8535 27.7796C77.8535 29.3137 79.0971 30.5573 80.6312 30.5573Z" fill="#64717C"/>
<path id="Vector_11" d="M47.305 124.998C48.8391 124.998 50.0827 123.754 50.0827 122.22C50.0827 120.686 48.8391 119.443 47.305 119.443C45.7709 119.443 44.5273 120.686 44.5273 122.22C44.5273 123.754 45.7709 124.998 47.305 124.998Z" fill="#64717C"/>
<path id="Vector_12" d="M58.4144 124.998C59.9484 124.998 61.192 123.754 61.192 122.22C61.192 120.686 59.9484 119.443 58.4144 119.443C56.8803 119.443 55.6367 120.686 55.6367 122.22C55.6367 123.754 56.8803 124.998 58.4144 124.998Z" fill="#64717C"/>
<path id="Vector_13" d="M69.5316 124.998C71.0656 124.998 72.3092 123.754 72.3092 122.22C72.3092 120.686 71.0656 119.443 69.5316 119.443C67.9975 119.443 66.7539 120.686 66.7539 122.22C66.7539 123.754 67.9975 124.998 69.5316 124.998Z" fill="#64717C"/>
<path id="Vector_14" d="M91.7484 124.998C93.2824 124.998 94.526 123.754 94.526 122.22C94.526 120.686 93.2824 119.443 91.7484 119.443C90.2143 119.443 88.9707 120.686 88.9707 122.22C88.9707 123.754 90.2143 124.998 91.7484 124.998Z" fill="#64717C"/>
<path id="Vector_15" d="M102.858 124.998C104.392 124.998 105.635 123.754 105.635 122.22C105.635 120.686 104.392 119.443 102.858 119.443C101.324 119.443 100.08 120.686 100.08 122.22C100.08 123.754 101.324 124.998 102.858 124.998Z" fill="#64717C"/>
<path id="Vector_16" d="M80.6312 124.998C82.1652 124.998 83.4088 123.754 83.4088 122.22C83.4088 120.686 82.1652 119.443 80.6312 119.443C79.0971 119.443 77.8535 120.686 77.8535 122.22C77.8535 123.754 79.0971 124.998 80.6312 124.998Z" fill="#64717C"/>
<path id="Vector_17" d="M122.303 50.001C123.837 50.001 125.081 48.7574 125.081 47.2233C125.081 45.6893 123.837 44.4457 122.303 44.4457C120.769 44.4457 119.525 45.6893 119.525 47.2233C119.525 48.7574 120.769 50.001 122.303 50.001Z" fill="#64717C"/>
<path id="Vector_18" d="M122.303 61.1115C123.837 61.1115 125.081 59.8679 125.081 58.3338C125.081 56.7998 123.837 55.5562 122.303 55.5562C120.769 55.5562 119.525 56.7998 119.525 58.3338C119.525 59.8679 120.769 61.1115 122.303 61.1115Z" fill="#64717C"/>
<path id="Vector_19" d="M122.303 72.2223C123.837 72.2223 125.081 70.9787 125.081 69.4446C125.081 67.9105 123.837 66.6669 122.303 66.6669C120.769 66.6669 119.525 67.9105 119.525 69.4446C119.525 70.9787 120.769 72.2223 122.303 72.2223Z" fill="#64717C"/>
<path id="Vector_20" d="M122.303 94.4435C123.837 94.4435 125.081 93.1999 125.081 91.6659C125.081 90.1318 123.837 88.8882 122.303 88.8882C120.769 88.8882 119.525 90.1318 119.525 91.6659C119.525 93.1999 120.769 94.4435 122.303 94.4435Z" fill="#64717C"/>
<path id="Vector_21" d="M122.303 105.554C123.837 105.554 125.081 104.311 125.081 102.777C125.081 101.242 123.837 99.9988 122.303 99.9988C120.769 99.9988 119.525 101.242 119.525 102.777C119.525 104.311 120.769 105.554 122.303 105.554Z" fill="#64717C"/>
<path id="Vector_22" d="M122.303 83.3329C123.837 83.3329 125.081 82.0893 125.081 80.5553C125.081 79.0212 123.837 77.7776 122.303 77.7776C120.769 77.7776 119.525 79.0212 119.525 80.5553C119.525 82.0893 120.769 83.3329 122.303 83.3329Z" fill="#64717C"/>
<path id="Vector_23" d="M27.8597 50.001C29.3938 50.001 30.6374 48.7574 30.6374 47.2233C30.6374 45.6893 29.3938 44.4457 27.8597 44.4457C26.3256 44.4457 25.082 45.6893 25.082 47.2233C25.082 48.7574 26.3256 50.001 27.8597 50.001Z" fill="#64717C"/>
<path id="Vector_24" d="M27.8597 61.1115C29.3938 61.1115 30.6374 59.8679 30.6374 58.3338C30.6374 56.7998 29.3938 55.5562 27.8597 55.5562C26.3256 55.5562 25.082 56.7998 25.082 58.3338C25.082 59.8679 26.3256 61.1115 27.8597 61.1115Z" fill="#64717C"/>
<path id="Vector_25" d="M27.8597 72.2223C29.3938 72.2223 30.6374 70.9787 30.6374 69.4446C30.6374 67.9105 29.3938 66.6669 27.8597 66.6669C26.3256 66.6669 25.082 67.9105 25.082 69.4446C25.082 70.9787 26.3256 72.2223 27.8597 72.2223Z" fill="#64717C"/>
<path id="Vector_26" d="M27.8597 94.4435C29.3938 94.4435 30.6374 93.1999 30.6374 91.6659C30.6374 90.1318 29.3938 88.8882 27.8597 88.8882C26.3256 88.8882 25.082 90.1318 25.082 91.6659C25.082 93.1999 26.3256 94.4435 27.8597 94.4435Z" fill="#64717C"/>
<path id="Vector_27" d="M27.8597 105.554C29.3938 105.554 30.6374 104.311 30.6374 102.777C30.6374 101.242 29.3938 99.9988 27.8597 99.9988C26.3256 99.9988 25.082 101.242 25.082 102.777C25.082 104.311 26.3256 105.554 27.8597 105.554Z" fill="#64717C"/>
<path id="Vector_28" d="M27.8597 83.3329C29.3938 83.3329 30.6374 82.0893 30.6374 80.5553C30.6374 79.0212 29.3938 77.7776 27.8597 77.7776C26.3256 77.7776 25.082 79.0212 25.082 80.5553C25.082 82.0893 26.3256 83.3329 27.8597 83.3329Z" fill="#64717C"/>
<path id="Vector_29" d="M109.803 86.1106H40.3615C39.5976 86.1106 38.9727 85.4856 38.9727 84.7217V81.9441C38.9727 81.1802 39.5976 80.5552 40.3615 80.5552H109.803C110.567 80.5552 111.192 81.1802 111.192 81.9441V84.7217C111.192 85.4856 110.567 86.1106 109.803 86.1106Z" fill="#007AD9"/>
<path id="Vector_30" d="M98.6925 69.4446H40.3615C39.5976 69.4446 38.9727 68.8196 38.9727 68.0558V65.2781C38.9727 64.5143 39.5976 63.8893 40.3615 63.8893H98.6925C99.4563 63.8893 100.081 64.5143 100.081 65.2781V68.0558C100.081 68.8196 99.4563 69.4446 98.6925 69.4446Z" fill="#007AD9"/>
<path id="Vector_31" d="M109.803 52.7785H40.3615C39.5976 52.7785 38.9727 52.1536 38.9727 51.3897V48.612C38.9727 47.8482 39.5976 47.2232 40.3615 47.2232H109.803C110.567 47.2232 111.192 47.8482 111.192 48.612V51.3897C111.192 52.1536 110.567 52.7785 109.803 52.7785Z" fill="#007AD9"/>
<path id="Vector_32" d="M98.6925 102.777H40.3615C39.5976 102.777 38.9727 102.152 38.9727 101.388V98.6103C38.9727 97.8464 39.5976 97.2214 40.3615 97.2214H98.6925C99.4563 97.2214 100.081 97.8464 100.081 98.6103V101.388C100.081 102.152 99.4563 102.777 98.6925 102.777Z" fill="#007AD9"/>
</g>
<rect x="2.58203" y="2.5" width="145" height="145" rx="7.5" stroke="#D5EAF6" stroke-width="5"/>
</g>
<defs>
<linearGradient id="paint0_linear_14_11203" x1="75.082" y1="5" x2="75.082" y2="145" gradientUnits="userSpaceOnUse">
<stop stop-color="#199AE0"/>
<stop offset="0.472222" stop-color="#0D5176" stop-opacity="0.527778"/>
<stop offset="0.940972" stop-color="#12A6F7" stop-opacity="0.465278"/>
<stop offset="1" stop-opacity="0"/>
</linearGradient>
</defs>
</svg>
