<svg width="151" height="150" viewBox="0 0 151 150" fill="none" xmlns="http://www.w3.org/2000/svg">
<g id="set-as-resume">
<rect x="2.58203" y="2.5" width="145" height="145" rx="7.5" fill="white"/>
<rect x="2.58203" y="2.5" width="145" height="145" rx="7.5" fill="url(#paint0_linear_14_11281)" fill-opacity="0.2"/>
<g id="Group">
<path id="Vector" d="M119.82 30.2632V119.737C119.82 122.645 117.465 125 114.557 125H46.1362C43.2283 125 40.873 122.645 40.873 119.737V30.2632C40.873 27.3553 43.2283 25 46.1362 25H114.557C117.465 25 119.82 27.3553 119.82 30.2632Z" fill="#50E6FF"/>
<path id="Vector_2" d="M61.9175 51.3159C64.8242 51.3159 67.1806 48.9595 67.1806 46.0527C67.1806 43.1459 64.8242 40.7896 61.9175 40.7896C59.0107 40.7896 56.6543 43.1459 56.6543 46.0527C56.6543 48.9595 59.0107 51.3159 61.9175 51.3159Z" fill="#057093"/>
<path id="Vector_3" d="M61.924 53.9475C57.5635 53.9475 54.0293 57.4817 54.0293 61.8422V65.5265C54.0293 66.3975 54.7372 67.1054 55.6082 67.1054H68.2398C69.1109 67.1054 69.8188 66.3975 69.8188 65.5265V61.8422C69.8188 57.4817 66.2846 53.9475 61.924 53.9475Z" fill="#057093"/>
<path id="Vector_4" d="M104.021 85.5264H72.4421C70.9895 85.5264 69.8105 86.7053 69.8105 88.1579C69.8105 89.6106 70.9895 90.7895 72.4421 90.7895H104.021C105.474 90.7895 106.653 89.6106 106.653 88.1579C106.653 86.7053 105.474 85.5264 104.021 85.5264Z" fill="#057093"/>
<path id="Vector_5" d="M104.024 75H61.9187C60.4661 75 59.2871 76.1789 59.2871 77.6316C59.2871 79.0842 60.4661 80.2632 61.9187 80.2632H104.024C105.477 80.2632 106.656 79.0842 106.656 77.6316C106.656 76.1789 105.477 75 104.024 75Z" fill="#057093"/>
<path id="Vector_6" d="M104.024 106.579H61.9187C60.4661 106.579 59.2871 107.758 59.2871 109.211C59.2871 110.663 60.4661 111.842 61.9187 111.842H104.024C105.477 111.842 106.656 110.663 106.656 109.211C106.656 107.758 105.477 106.579 104.024 106.579Z" fill="#057093"/>
<path id="Vector_7" d="M104.021 96.0525H72.4421C70.9895 96.0525 69.8105 97.2314 69.8105 98.6841C69.8105 100.137 70.9895 101.316 72.4421 101.316H104.021C105.474 101.316 106.653 100.137 106.653 98.6841C106.653 97.2314 105.474 96.0525 104.021 96.0525Z" fill="#057093"/>
<path id="Vector_8" d="M104.026 53.9475H82.9734C81.5207 53.9475 80.3418 55.1265 80.3418 56.5791C80.3418 58.0317 81.5207 59.2107 82.9734 59.2107H104.026C105.479 59.2107 106.658 58.0317 106.658 56.5791C106.658 55.1265 105.479 53.9475 104.026 53.9475Z" fill="#057093"/>
<path id="Vector_9" d="M104.026 43.421H82.9734C81.5207 43.421 80.3418 44.6 80.3418 46.0526C80.3418 47.5052 81.5207 48.6842 82.9734 48.6842H104.026C105.479 48.6842 106.658 47.5052 106.658 46.0526C106.658 44.6 105.479 43.421 104.026 43.421Z" fill="#057093"/>
<path id="Vector_10" d="M48.7628 79.2291V88.1581H32.9734C31.5207 88.1581 30.3418 89.337 30.3418 90.7896V96.0528C30.3418 97.5054 31.5207 98.6844 32.9734 98.6844H48.7628V107.613C48.7628 109.034 50.4813 109.745 51.4839 108.74L64.5471 95.6765C65.7918 94.4317 65.7918 92.4107 64.5471 91.1659L51.4839 78.1028C50.4813 77.0975 48.7628 77.8081 48.7628 79.2291Z" fill="url(#paint1_linear_14_11281)"/>
</g>
<rect x="2.58203" y="2.5" width="145" height="145" rx="7.5" stroke="#D5EAF6" stroke-width="5"/>
</g>
<defs>
<linearGradient id="paint0_linear_14_11281" x1="75.082" y1="5" x2="75.082" y2="145" gradientUnits="userSpaceOnUse">
<stop stop-color="#199AE0"/>
<stop offset="0.472222" stop-color="#0D5176" stop-opacity="0.527778"/>
<stop offset="0.940972" stop-color="#12A6F7" stop-opacity="0.465278"/>
<stop offset="1" stop-opacity="0"/>
</linearGradient>
<linearGradient id="paint1_linear_14_11281" x1="65.4128" y1="93.4212" x2="30.0971" y2="93.4212" gradientUnits="userSpaceOnUse">
<stop stop-color="#C965EB"/>
<stop offset="1" stop-color="#C767E5"/>
</linearGradient>
</defs>
</svg>
