<svg width="151" height="150" viewBox="0 0 151 150" fill="none" xmlns="http://www.w3.org/2000/svg">
<g id="shopping-cart-promotion">
<rect x="2.58203" y="2.5" width="145" height="145" rx="7.5" fill="white"/>
<rect x="2.58203" y="2.5" width="145" height="145" rx="7.5" fill="url(#paint0_linear_14_11328)" fill-opacity="0.2"/>
<g id="Group">
<path id="Vector" d="M46.1982 76.9559C45.161 76.9559 44.2331 76.2287 44.0145 75.1759L37.8248 45.1038C37.3987 43.0383 35.563 41.5416 33.4551 41.5416H29.545C28.3137 41.5416 27.3145 40.5423 27.3145 39.3111C27.3145 38.0798 28.3137 37.0805 29.545 37.0805H33.4551C37.6686 37.0805 41.3445 40.0761 42.1944 44.2026L48.3841 74.2748C48.6317 75.4815 47.8555 76.6614 46.6488 76.909C46.4993 76.9425 46.3476 76.9559 46.1982 76.9559Z" fill="url(#paint1_linear_14_11328)"/>
<path id="Vector_2" d="M107.615 119.61C111.311 119.61 114.307 116.615 114.307 112.919C114.307 109.223 111.311 106.227 107.615 106.227C103.92 106.227 100.924 109.223 100.924 112.919C100.924 116.615 103.92 119.61 107.615 119.61Z" fill="#5C5F61"/>
<path id="Vector_3" opacity="0.15" d="M107.607 115.15C108.839 115.15 109.838 114.151 109.838 112.919C109.838 111.687 108.839 110.688 107.607 110.688C106.376 110.688 105.377 111.687 105.377 112.919C105.377 114.151 106.376 115.15 107.607 115.15Z" fill="black"/>
<path id="Vector_4" d="M58.5373 119.61C62.233 119.61 65.2289 116.615 65.2289 112.919C65.2289 109.223 62.233 106.227 58.5373 106.227C54.8416 106.227 51.8457 109.223 51.8457 112.919C51.8457 116.615 54.8416 119.61 58.5373 119.61Z" fill="#5C5F61"/>
<path id="Vector_5" d="M116.535 108.458H54.0804C49.1598 108.458 45.1582 104.456 45.1582 99.5357C45.1582 94.6151 49.1598 90.6135 54.0804 90.6135H109.844C111.075 90.6135 112.074 91.6128 112.074 92.844C112.074 94.0753 111.075 95.0746 109.844 95.0746H54.0804C51.6201 95.0746 49.6193 97.0754 49.6193 99.5357C49.6193 101.996 51.6201 103.997 54.0804 103.997H116.535C117.767 103.997 118.766 104.996 118.766 106.227C118.766 107.459 117.767 108.458 116.535 108.458Z" fill="url(#paint2_linear_14_11328)"/>
<path id="Vector_6" d="M34.0022 39.311C34.0022 41.7735 32.0037 43.7721 29.5412 43.7721C27.0786 43.7721 25.0801 41.7735 25.0801 39.311C25.0801 36.8485 27.0786 34.8499 29.5412 34.8499C32.0037 34.8499 34.0022 36.8485 34.0022 39.311Z" fill="url(#paint3_linear_14_11328)"/>
<path id="Vector_7" d="M46.6959 91.4476C47.0974 93.5533 48.9376 95.0745 51.0789 95.0745H114.986C117.168 95.0745 119.028 93.4975 119.387 91.3473L123.989 63.7354L40.1895 57.2892L46.6959 91.4476Z" fill="url(#paint4_linear_14_11328)"/>
<path id="Vector_8" d="M123.025 54.7376L38.4629 48.2334L40.1871 57.2894L123.984 63.7356L125.052 57.3295C125.269 56.038 124.33 54.838 123.025 54.7376Z" fill="url(#paint5_linear_14_11328)"/>
<path id="Vector_9" opacity="0.05" d="M59.1673 49.8258C58.2996 51.9582 58.3755 54.4006 59.5153 56.4282L60.7711 58.6676L60.8023 61.2372C60.8335 63.8782 62.2633 66.3585 64.5384 67.7102L66.7467 69.0196L68.056 71.23C69.4055 73.5029 71.8858 74.9349 74.5268 74.9639L77.0964 74.9952L79.3358 76.251C80.4779 76.8934 81.7694 77.2302 83.0742 77.2302C84.3791 77.2302 85.6706 76.8934 86.8081 76.2532L89.0476 74.9974L91.6172 74.9662C94.2581 74.935 96.7385 73.5052 98.0902 71.23L99.3995 69.0218L101.61 67.7125C103.883 66.363 105.315 63.8826 105.344 61.2417L105.375 58.6721L106.631 56.4326C107.135 55.536 107.383 54.5478 107.494 53.5463L59.1673 49.8258Z" fill="black"/>
<path id="Vector_10" opacity="0.07" d="M60.3236 49.9151C59.4292 51.8066 59.4559 54.0461 60.4887 55.8841L61.8827 58.3733L61.9184 61.2262C61.9452 63.4813 63.1675 65.598 65.1081 66.7535L67.5617 68.2078L69.0182 70.6636C70.1714 72.6042 72.2882 73.8265 74.5433 73.8533L77.3961 73.889L79.8854 75.283C80.8579 75.8273 81.9598 76.115 83.0751 76.115C84.1904 76.115 85.2922 75.8273 86.2648 75.2808L88.754 73.8867L91.6069 73.851C93.862 73.8243 95.9788 72.6019 97.1342 70.6614L98.5885 68.2078L101.044 66.7512C102.985 65.598 104.207 63.4813 104.234 61.2262L104.27 58.3733L105.664 55.8841C106.088 55.1301 106.297 54.3004 106.395 53.4595L60.3236 49.9151Z" fill="black"/>
<path id="Vector_11" d="M85.7156 31.0804L88.4525 32.615L91.5908 32.6529C93.4734 32.6752 95.2088 33.6768 96.1701 35.2961L97.7717 37.9951L100.471 39.5966C102.09 40.558 103.091 42.2933 103.114 44.1759L103.152 47.3143L104.686 50.0511C105.608 51.6928 105.608 53.6958 104.686 55.3375L103.152 58.0744L103.114 61.2128C103.091 63.0953 102.09 64.8307 100.471 65.792L97.7717 67.3936L96.1701 70.0925C95.2088 71.7119 93.4734 72.7134 91.5908 72.7357L88.4525 72.7736L85.7156 74.3082C84.0739 75.2295 82.0709 75.2295 80.4292 74.3082L77.6923 72.7736L74.554 72.7357C72.6714 72.7134 70.936 71.7119 69.9747 70.0925L68.3732 67.3936L65.6742 65.792C64.0548 64.8307 63.0533 63.0953 63.031 61.2128L62.9931 58.0744L61.4585 55.3375C60.5373 53.6958 60.5373 51.6928 61.4585 50.0511L62.9931 47.3143L63.031 44.1759C63.0533 42.2933 64.0548 40.558 65.6742 39.5966L68.3732 37.9951L69.9747 35.2961C70.936 33.6768 72.6714 32.6752 74.554 32.6529L77.6923 32.615L80.4292 31.0804C82.0709 30.1592 84.0739 30.1592 85.7156 31.0804Z" fill="url(#paint6_linear_14_11328)"/>
<path id="Vector_12" opacity="0.05" d="M90.0257 50.3123C89.7068 50.3123 89.3989 50.3279 89.0934 50.3591L93.4028 43.7456C93.9359 42.9225 93.9782 41.8741 93.5098 41.0109C93.0414 40.1477 92.1425 39.6124 91.1611 39.6124H88.9417C87.755 39.6124 86.6621 40.2079 86.013 41.2027L83.6375 44.8631C82.8746 41.4303 80.247 39.3112 76.5153 39.3112C71.8781 39.3112 68.7598 42.5723 68.7598 47.4282C68.7598 53.1317 73.3368 55.38 77.0217 55.0343L72.7257 61.6412C72.1926 62.4642 72.1502 63.5104 72.6186 64.3736C73.087 65.2368 73.9881 65.7721 74.9696 65.7721H77.1577C78.3444 65.7721 79.4374 65.1788 80.0842 64.1862L82.4954 60.4835C83.2806 63.8606 86.0018 66.0777 89.6465 66.0777C94.1946 66.0777 97.3709 62.752 97.3709 57.992C97.3709 53.2543 94.5559 50.3123 90.0257 50.3123ZM89.8897 55.2061L89.8941 57.4098C89.8919 57.4098 89.8919 57.4098 89.8897 57.4098V55.2061Z" fill="black"/>
<path id="Vector_13" opacity="0.07" d="M90.0377 51.4275C88.6793 51.4275 87.4726 51.7576 86.4711 52.3576L92.4757 43.1388C92.7902 42.6593 92.8125 42.0481 92.5381 41.544C92.266 41.0421 91.7418 40.7298 91.1708 40.7298H88.9514C88.144 40.7298 87.399 41.1336 86.9573 41.8116L82.6412 48.452C82.7126 47.9947 82.7527 47.5174 82.7527 47.02C82.7527 42.9537 80.3661 40.4265 76.5251 40.4265C72.49 40.4265 69.8848 43.1745 69.8848 47.4281C69.8848 51.9405 73.0276 53.9614 76.1437 53.9614C77.4731 53.9614 78.6552 53.6447 79.6389 53.0692L73.6722 62.2501C73.3599 62.7296 73.3376 63.3408 73.6098 63.8427C73.8841 64.3468 74.4083 64.6591 74.9793 64.6591H77.1675C77.9749 64.6591 78.7199 64.2553 79.1616 63.5795L83.5267 56.8767C83.4398 57.3697 83.3951 57.8894 83.3951 58.4292C83.3951 62.9415 86.538 64.9624 89.654 64.9624C93.6065 64.9624 96.2631 62.1609 96.2631 57.992C96.2676 53.8811 93.9389 51.4275 90.0377 51.4275ZM77.3638 47.156C77.3638 49.0676 76.7169 49.0676 76.3288 49.0676C75.9608 49.0676 75.3429 49.0676 75.3429 47.2787C75.3429 45.3225 76.0277 45.3225 76.4359 45.3225C76.7593 45.3203 77.3638 45.3203 77.3638 47.156ZM90.8741 58.1548C90.8741 60.0664 90.2273 60.0664 89.8414 60.0664C89.4354 60.0664 88.822 60.0664 88.822 58.2775C88.822 56.3213 89.4979 56.3213 89.8994 56.3213C90.7782 56.3213 90.8741 57.6039 90.8741 58.1548Z" fill="black"/>
<path id="Vector_14" d="M76.1456 52.846C74.1827 52.846 71.002 51.7642 71.002 47.428C71.002 43.6762 73.2347 41.5416 76.5248 41.5416C79.7144 41.5416 81.6394 43.5669 81.6394 47.0198C81.6394 50.4727 79.6074 52.846 76.1456 52.846ZM91.5408 42.532L78.2289 62.9704C77.9969 63.3273 77.5977 63.5436 77.1716 63.5436H74.9835C74.631 63.5436 74.4191 63.1533 74.611 62.8589L87.8938 42.4204C88.1258 42.0635 88.5251 41.8472 88.9511 41.8472H91.1683C91.5207 41.8449 91.7326 42.2353 91.5408 42.532ZM76.4333 44.2049C74.9612 44.2049 74.2251 45.2287 74.2251 47.2763C74.2251 49.2124 74.9255 50.1805 76.3285 50.1805C77.7605 50.1805 78.4765 49.1723 78.4765 47.1536C78.4743 45.1885 77.7939 44.2049 76.4333 44.2049ZM89.656 63.847C86.9347 63.847 84.5123 62.0871 84.5123 58.429C84.5123 54.7731 86.7362 52.5426 90.0351 52.5426C93.3341 52.5426 95.1498 54.5501 95.1498 57.9896C95.1498 61.4291 93.1222 63.847 89.656 63.847ZM89.8991 55.2059C88.4358 55.2059 87.7065 56.2297 87.7065 58.2773C87.7065 60.2134 88.418 61.1815 89.8389 61.1815C91.2709 61.1815 91.9869 60.1733 91.9869 58.1546C91.9869 56.6468 91.4114 55.2059 89.8991 55.2059Z" fill="white"/>
</g>
<rect x="2.58203" y="2.5" width="145" height="145" rx="7.5" stroke="#D5EAF6" stroke-width="5"/>
</g>
<defs>
<linearGradient id="paint0_linear_14_11328" x1="75.082" y1="5" x2="75.082" y2="145" gradientUnits="userSpaceOnUse">
<stop stop-color="#199AE0"/>
<stop offset="0.472222" stop-color="#0D5176" stop-opacity="0.527778"/>
<stop offset="0.940972" stop-color="#12A6F7" stop-opacity="0.465278"/>
<stop offset="1" stop-opacity="0"/>
</linearGradient>
<linearGradient id="paint1_linear_14_11328" x1="37.8716" y1="76.9559" x2="37.8716" y2="37.0805" gradientUnits="userSpaceOnUse">
<stop stop-color="#92A3B0"/>
<stop offset="0.015" stop-color="#A3B5C4"/>
<stop offset="0.032" stop-color="#AEC2D1"/>
<stop offset="0.046" stop-color="#B2C6D6"/>
</linearGradient>
<linearGradient id="paint2_linear_14_11328" x1="81.9621" y1="108.458" x2="81.9621" y2="90.6135" gradientUnits="userSpaceOnUse">
<stop stop-color="#92A3B0"/>
<stop offset="0.015" stop-color="#A3B5C4"/>
<stop offset="0.032" stop-color="#AEC2D1"/>
<stop offset="0.046" stop-color="#B2C6D6"/>
</linearGradient>
<linearGradient id="paint3_linear_14_11328" x1="26.7664" y1="36.5362" x2="32.6282" y2="42.3981" gradientUnits="userSpaceOnUse">
<stop stop-color="#199AE0"/>
<stop offset="1" stop-color="#0782D8"/>
</linearGradient>
<linearGradient id="paint4_linear_14_11328" x1="40.1895" y1="76.1818" x2="123.989" y2="76.1818" gradientUnits="userSpaceOnUse">
<stop stop-color="#3079D6"/>
<stop offset="1" stop-color="#297CD2"/>
</linearGradient>
<linearGradient id="paint5_linear_14_11328" x1="38.4629" y1="55.9845" x2="125.084" y2="55.9845" gradientUnits="userSpaceOnUse">
<stop stop-color="#42A3F2"/>
<stop offset="1" stop-color="#42A4EB"/>
</linearGradient>
<linearGradient id="paint6_linear_14_11328" x1="78.3236" y1="29.8335" x2="87.8547" y2="75.7202" gradientUnits="userSpaceOnUse">
<stop stop-color="#F44F5A"/>
<stop offset="0.443" stop-color="#EE3D4A"/>
<stop offset="1" stop-color="#E52030"/>
</linearGradient>
</defs>
</svg>
