<svg width="151" height="150" viewBox="0 0 151 150" fill="none" xmlns="http://www.w3.org/2000/svg">
<g id="signature">
<rect x="2.58203" y="2.5" width="145" height="145" rx="7.5" fill="white"/>
<rect x="2.58203" y="2.5" width="145" height="145" rx="7.5" fill="url(#paint0_linear_14_11365)" fill-opacity="0.2"/>
<g id="Group">
<path id="Vector" d="M122.582 121.25H27.582C26.1995 121.25 25.082 120.132 25.082 118.75C25.082 117.367 26.1995 116.25 27.582 116.25H122.582C123.965 116.25 125.082 117.367 125.082 118.75C125.082 120.132 123.965 121.25 122.582 121.25Z" fill="#64717C"/>
<path id="Vector_2" d="M27.5845 103.75C26.862 103.75 26.147 103.44 25.6545 102.84C24.7745 101.772 24.9295 100.197 25.9945 99.3225C26.097 99.2375 30.062 95.925 34.8995 90.4075C33.982 89.115 33.1045 87.7125 32.272 86.205C27.767 78.06 25.082 67.795 25.082 58.75C25.082 40.525 31.952 28.75 42.582 28.75C53.5095 28.75 57.582 42.5525 57.582 51.25C57.582 67.015 49.087 81.0675 41.3795 90.57C44.582 94.05 48.3595 96.25 52.582 96.25C59.457 96.25 64.9695 94.0175 69.1995 90.4275C64.942 85.0575 62.582 76.7025 62.582 68.515C62.582 54.99 67.4895 46.25 75.082 46.25C81.252 46.25 85.082 52.9575 85.082 63.75C85.082 73.375 82.107 83.06 76.287 90.1725C77.462 90.8675 78.732 91.25 80.082 91.25C93.082 91.25 95.072 68.7725 95.0895 68.545C95.197 67.2475 96.2795 66.25 97.582 66.25C102.53 66.25 104.002 71.6325 105.3 76.385C106.245 79.8375 107.315 83.75 109.15 83.75C110.347 83.75 111.37 79.65 112.045 76.9375C113.432 71.3725 115.332 63.75 122.582 63.75C123.965 63.75 125.082 64.8675 125.082 66.25C125.082 67.6325 123.965 68.75 122.582 68.75C119.47 68.75 118.31 72.47 116.897 78.1475C115.657 83.1175 114.255 88.75 109.15 88.75C103.495 88.75 101.822 82.625 100.477 77.7025C100.175 76.6025 99.782 75.1575 99.3345 73.9175C97.7695 81.8075 93.122 96.25 80.082 96.25C77.3545 96.25 74.9045 95.375 72.7545 93.855C67.5995 98.4125 60.857 101.25 52.582 101.25C47.402 101.25 42.457 98.8575 38.147 94.3625C33.4245 99.6375 29.5895 102.835 29.172 103.18C28.7045 103.565 28.1445 103.75 27.5845 103.75ZM75.082 51.25C70.737 51.25 67.582 58.51 67.582 68.515C67.582 75.2925 69.497 82.3625 72.7195 86.785C77.7095 80.52 80.082 71.97 80.082 63.75C80.082 56.39 78.027 51.25 75.082 51.25ZM42.582 33.75C33.947 33.75 30.082 46.305 30.082 58.75C30.082 67.3675 33.072 78.5325 38.202 86.43C45.192 77.5625 52.582 64.9475 52.582 51.25C52.582 45.7675 50.0645 33.75 42.582 33.75Z" fill="#0D62AB"/>
</g>
<rect x="2.58203" y="2.5" width="145" height="145" rx="7.5" stroke="#D5EAF6" stroke-width="5"/>
</g>
<defs>
<linearGradient id="paint0_linear_14_11365" x1="75.082" y1="5" x2="75.082" y2="145" gradientUnits="userSpaceOnUse">
<stop stop-color="#199AE0"/>
<stop offset="0.472222" stop-color="#0D5176" stop-opacity="0.527778"/>
<stop offset="0.940972" stop-color="#12A6F7" stop-opacity="0.465278"/>
<stop offset="1" stop-opacity="0"/>
</linearGradient>
</defs>
</svg>
