<svg width="151" height="150" viewBox="0 0 151 150" fill="none" xmlns="http://www.w3.org/2000/svg">
<g id="slider">
<rect x="2.58203" y="2.5" width="145" height="145" rx="7.5" fill="white"/>
<rect x="2.58203" y="2.5" width="145" height="145" rx="7.5" fill="url(#paint0_linear_14_11383)" fill-opacity="0.2"/>
<g id="Group">
<path id="Vector" d="M27.7136 69.7368H122.45C123.903 69.7368 125.082 70.9158 125.082 72.3684V77.6316C125.082 79.0842 123.903 80.2631 122.45 80.2631H27.7136C26.261 80.2631 25.082 79.0842 25.082 77.6316V72.3684C25.082 70.9158 26.261 69.7368 27.7136 69.7368Z" fill="#0078D4"/>
<path id="Vector_2" d="M27.7136 32.8947H122.45C123.903 32.8947 125.082 34.0736 125.082 35.5262V40.7894C125.082 42.242 123.903 43.421 122.45 43.421H27.7136C26.261 43.421 25.082 42.242 25.082 40.7894V35.5262C25.082 34.0736 26.261 32.8947 27.7136 32.8947Z" fill="#0078D4"/>
<path id="Vector_3" d="M27.7136 106.579H122.45C123.903 106.579 125.082 107.758 125.082 109.211V114.474C125.082 115.926 123.903 117.105 122.45 117.105H27.7136C26.261 117.105 25.082 115.926 25.082 114.474V109.211C25.082 107.758 26.261 106.579 27.7136 106.579Z" fill="#0078D4"/>
<path id="Vector_4" d="M85.6182 38.1579C85.6182 43.9711 80.9051 48.6842 75.0919 48.6842C69.2787 48.6842 64.5656 43.9711 64.5656 38.1579C64.5656 32.3447 69.2787 27.6316 75.0919 27.6316C80.9051 27.6316 85.6182 32.3447 85.6182 38.1579ZM109.302 75C109.302 80.8132 104.589 85.5263 98.7761 85.5263C92.9629 85.5263 88.2498 80.8132 88.2498 75C88.2498 69.1869 92.9629 64.4737 98.7761 64.4737C104.589 64.4737 109.302 69.1869 109.302 75ZM67.1972 111.842C67.1972 117.655 62.484 122.368 56.6708 122.368C50.8577 122.368 46.1445 117.655 46.1445 111.842C46.1445 106.029 50.8577 101.316 56.6708 101.316C62.484 101.316 67.1972 106.029 67.1972 111.842Z" fill="#35C1F1"/>
</g>
<rect x="2.58203" y="2.5" width="145" height="145" rx="7.5" stroke="#D5EAF6" stroke-width="5"/>
</g>
<defs>
<linearGradient id="paint0_linear_14_11383" x1="75.082" y1="5" x2="75.082" y2="145" gradientUnits="userSpaceOnUse">
<stop stop-color="#199AE0"/>
<stop offset="0.472222" stop-color="#0D5176" stop-opacity="0.527778"/>
<stop offset="0.940972" stop-color="#12A6F7" stop-opacity="0.465278"/>
<stop offset="1" stop-opacity="0"/>
</linearGradient>
</defs>
</svg>
