<svg width="151" height="150" viewBox="0 0 151 150" fill="none" xmlns="http://www.w3.org/2000/svg">
<g id="sms">
<rect x="2.58203" y="2.5" width="145" height="145" rx="7.5" fill="white"/>
<rect x="2.58203" y="2.5" width="145" height="145" rx="7.5" fill="url(#paint0_linear_14_11428)" fill-opacity="0.2"/>
<g id="Group">
<path id="Vector" d="M120.082 26.2501H30.082C27.3195 26.2501 25.082 28.4876 25.082 31.2501V96.2501C25.082 99.0126 27.3195 101.25 30.082 101.25H50.082V121.245C50.082 123.473 52.7745 124.588 54.3495 123.013L76.112 101.25H120.082C122.845 101.25 125.082 99.0126 125.082 96.2501V31.2501C125.082 28.4876 122.845 26.2501 120.082 26.2501Z" fill="url(#paint1_linear_14_11428)"/>
<path id="Vector_2" opacity="0.3" d="M75.082 73.7501C79.2242 73.7501 82.582 70.3922 82.582 66.2501C82.582 62.1079 79.2242 58.7501 75.082 58.7501C70.9399 58.7501 67.582 62.1079 67.582 66.2501C67.582 70.3922 70.9399 73.7501 75.082 73.7501Z" fill="url(#paint2_radial_14_11428)"/>
<path id="Vector_3" d="M75.082 71.2502C77.8435 71.2502 80.082 69.0116 80.082 66.2502C80.082 63.4888 77.8435 61.2502 75.082 61.2502C72.3206 61.2502 70.082 63.4888 70.082 66.2502C70.082 69.0116 72.3206 71.2502 75.082 71.2502Z" fill="white"/>
<path id="Vector_4" opacity="0.3" d="M55.082 73.7501C59.2242 73.7501 62.582 70.3922 62.582 66.2501C62.582 62.1079 59.2242 58.7501 55.082 58.7501C50.9399 58.7501 47.582 62.1079 47.582 66.2501C47.582 70.3922 50.9399 73.7501 55.082 73.7501Z" fill="url(#paint3_radial_14_11428)"/>
<path id="Vector_5" d="M55.082 71.2502C57.8435 71.2502 60.082 69.0116 60.082 66.2502C60.082 63.4888 57.8435 61.2502 55.082 61.2502C52.3206 61.2502 50.082 63.4888 50.082 66.2502C50.082 69.0116 52.3206 71.2502 55.082 71.2502Z" fill="white"/>
<path id="Vector_6" opacity="0.3" d="M95.082 73.7501C99.2242 73.7501 102.582 70.3922 102.582 66.2501C102.582 62.1079 99.2242 58.7501 95.082 58.7501C90.9399 58.7501 87.582 62.1079 87.582 66.2501C87.582 70.3922 90.9399 73.7501 95.082 73.7501Z" fill="url(#paint4_radial_14_11428)"/>
<path id="Vector_7" d="M95.082 71.2502C97.8435 71.2502 100.082 69.0116 100.082 66.2502C100.082 63.4888 97.8435 61.2502 95.082 61.2502C92.3206 61.2502 90.082 63.4888 90.082 66.2502C90.082 69.0116 92.3206 71.2502 95.082 71.2502Z" fill="white"/>
</g>
<rect x="2.58203" y="2.5" width="145" height="145" rx="7.5" stroke="#D5EAF6" stroke-width="5"/>
</g>
<defs>
<linearGradient id="paint0_linear_14_11428" x1="75.082" y1="5" x2="75.082" y2="145" gradientUnits="userSpaceOnUse">
<stop stop-color="#199AE0"/>
<stop offset="0.472222" stop-color="#0D5176" stop-opacity="0.527778"/>
<stop offset="0.940972" stop-color="#12A6F7" stop-opacity="0.465278"/>
<stop offset="1" stop-opacity="0"/>
</linearGradient>
<linearGradient id="paint1_linear_14_11428" x1="46.797" y1="17.7301" x2="104.032" y2="110.853" gradientUnits="userSpaceOnUse">
<stop stop-color="#0176D0"/>
<stop offset="1" stop-color="#0A85D9"/>
</linearGradient>
<radialGradient id="paint2_radial_14_11428" cx="0" cy="0" r="1" gradientUnits="userSpaceOnUse" gradientTransform="translate(75.082 66.2501) scale(7.5)">
<stop/>
<stop offset="1" stop-opacity="0"/>
</radialGradient>
<radialGradient id="paint3_radial_14_11428" cx="0" cy="0" r="1" gradientUnits="userSpaceOnUse" gradientTransform="translate(55.082 66.2501) scale(7.5)">
<stop/>
<stop offset="1" stop-opacity="0"/>
</radialGradient>
<radialGradient id="paint4_radial_14_11428" cx="0" cy="0" r="1" gradientUnits="userSpaceOnUse" gradientTransform="translate(95.082 66.2501) scale(7.5)">
<stop/>
<stop offset="1" stop-opacity="0"/>
</radialGradient>
</defs>
</svg>
