<svg width="151" height="150" viewBox="0 0 151 150" fill="none" xmlns="http://www.w3.org/2000/svg">
<g id="star">
<rect x="2.58203" y="2.5" width="145" height="145" rx="7.5" fill="white"/>
<rect x="2.58203" y="2.5" width="145" height="145" rx="7.5" fill="url(#paint0_linear_14_11437)" fill-opacity="0.2"/>
<path id="Vector" d="M77.2908 28.7611L90.5451 58.4926L122.914 61.9115C124.997 62.1316 125.834 64.7133 124.279 66.1142L100.1 87.9023L106.853 119.746C107.288 121.795 105.091 123.39 103.277 122.345L75.0817 106.078L46.8867 122.342C45.072 123.387 42.8775 121.793 43.3106 119.744L50.0635 87.8999L25.8849 66.1118C24.3292 64.7109 25.1688 62.1292 27.2496 61.909L59.6184 58.4902L72.8727 28.7587C73.7244 26.8473 76.4391 26.8473 77.2908 28.7611Z" fill="url(#paint1_linear_14_11437)"/>
<rect x="2.58203" y="2.5" width="145" height="145" rx="7.5" stroke="#D5EAF6" stroke-width="5"/>
</g>
<defs>
<linearGradient id="paint0_linear_14_11437" x1="75.082" y1="5" x2="75.082" y2="145" gradientUnits="userSpaceOnUse">
<stop stop-color="#199AE0"/>
<stop offset="0.472222" stop-color="#0D5176" stop-opacity="0.527778"/>
<stop offset="0.940972" stop-color="#12A6F7" stop-opacity="0.465278"/>
<stop offset="1" stop-opacity="0"/>
</linearGradient>
<linearGradient id="paint1_linear_14_11437" x1="38.8102" y1="31.6017" x2="109.178" y2="125.737" gradientUnits="userSpaceOnUse">
<stop stop-color="#FFDA1C"/>
<stop offset="1" stop-color="#FEB705"/>
</linearGradient>
</defs>
</svg>
