<svg width="151" height="150" viewBox="0 0 151 150" fill="none" xmlns="http://www.w3.org/2000/svg">
<g id="sweepstakes">
<rect x="2.58203" y="2.5" width="145" height="145" rx="7.5" fill="white"/>
<rect x="2.58203" y="2.5" width="145" height="145" rx="7.5" fill="url(#paint0_linear_14_11492)" fill-opacity="0.2"/>
<g id="Group">
<path id="Vector" d="M108.802 28.4887H29.7332C27.1634 28.4887 25.082 30.5701 25.082 33.1398V98.2556C25.082 100.825 27.1634 102.907 29.7332 102.907H108.802C111.372 102.907 113.454 100.825 113.454 98.2556V33.1398C113.454 30.5701 111.372 28.4887 108.802 28.4887Z" fill="#50E6FF"/>
<path id="Vector_2" d="M44.8543 63.3723H37.8776C37.2358 63.3723 36.7148 62.8513 36.7148 62.2095V55.2328C36.7148 54.5909 37.2358 54.07 37.8776 54.07H44.8543C45.4962 54.07 46.0171 54.5909 46.0171 55.2328V62.2095C46.0171 62.8513 45.4962 63.3723 44.8543 63.3723Z" fill="#057093"/>
<path id="Vector_3" d="M58.8074 63.3723H51.8308C51.1889 63.3723 50.668 62.8513 50.668 62.2095V55.2328C50.668 54.5909 51.1889 54.07 51.8308 54.07H58.8074C59.4493 54.07 59.9702 54.5909 59.9702 55.2328V62.2095C59.9702 62.8513 59.4493 63.3723 58.8074 63.3723Z" fill="#057093"/>
<path id="Vector_4" d="M72.7606 63.3723H65.7839C65.142 63.3723 64.6211 62.8513 64.6211 62.2095V55.2328C64.6211 54.5909 65.142 54.07 65.7839 54.07H72.7606C73.4024 54.07 73.9234 54.5909 73.9234 55.2328V62.2095C73.9234 62.8513 73.4024 63.3723 72.7606 63.3723Z" fill="#057093"/>
<path id="Vector_5" d="M86.7137 63.3723H79.737C79.0951 63.3723 78.5742 62.8513 78.5742 62.2095V55.2328C78.5742 54.5909 79.0951 54.07 79.737 54.07H86.7137C87.3556 54.07 87.8765 54.5909 87.8765 55.2328V62.2095C87.8765 62.8513 87.3556 63.3723 86.7137 63.3723Z" fill="#057093"/>
<path id="Vector_6" d="M100.675 63.3723H93.6979C93.0561 63.3723 92.5352 62.8513 92.5352 62.2095V55.2328C92.5352 54.5909 93.0561 54.07 93.6979 54.07H100.675C101.316 54.07 101.837 54.5909 101.837 55.2328V62.2095C101.837 62.8513 101.316 63.3723 100.675 63.3723Z" fill="#057093"/>
<path id="Vector_7" d="M44.8543 77.3258H37.8776C37.2358 77.3258 36.7148 76.8049 36.7148 76.163V69.1863C36.7148 68.5445 37.2358 68.0235 37.8776 68.0235H44.8543C45.4962 68.0235 46.0171 68.5445 46.0171 69.1863V76.163C46.0171 76.8049 45.4962 77.3258 44.8543 77.3258Z" fill="#057093"/>
<path id="Vector_8" d="M58.8074 77.3258H51.8308C51.1889 77.3258 50.668 76.8049 50.668 76.163V69.1863C50.668 68.5445 51.1889 68.0235 51.8308 68.0235H58.8074C59.4493 68.0235 59.9702 68.5445 59.9702 69.1863V76.163C59.9702 76.8049 59.4493 77.3258 58.8074 77.3258Z" fill="#057093"/>
<path id="Vector_9" d="M72.7606 77.3258H65.7839C65.142 77.3258 64.6211 76.8049 64.6211 76.163V69.1863C64.6211 68.5445 65.142 68.0235 65.7839 68.0235H72.7606C73.4024 68.0235 73.9234 68.5445 73.9234 69.1863V76.163C73.9234 76.8049 73.4024 77.3258 72.7606 77.3258Z" fill="#057093"/>
<path id="Vector_10" d="M86.7137 77.3258H79.737C79.0951 77.3258 78.5742 76.8049 78.5742 76.163V69.1863C78.5742 68.5445 79.0951 68.0235 79.737 68.0235H86.7137C87.3556 68.0235 87.8765 68.5445 87.8765 69.1863V76.163C87.8765 76.8049 87.3556 77.3258 86.7137 77.3258Z" fill="#057093"/>
<path id="Vector_11" d="M100.675 77.3258H93.6979C93.0561 77.3258 92.5352 76.8049 92.5352 76.163V69.1863C92.5352 68.5445 93.0561 68.0235 93.6979 68.0235H100.675C101.316 68.0235 101.837 68.5445 101.837 69.1863V76.163C101.837 76.8049 101.316 77.3258 100.675 77.3258Z" fill="#057093"/>
<path id="Vector_12" d="M99.4941 65.6979C82.8244 65.6979 69.2617 79.2606 69.2617 95.9303C69.2617 98.3303 69.5431 100.667 70.0757 102.907H108.796C111.366 102.907 113.447 100.826 113.447 98.2559V69.1165C109.271 66.9328 104.524 65.6979 99.4941 65.6979Z" fill="url(#paint1_radial_14_11492)"/>
<path id="Vector_13" d="M99.4992 121.511C113.627 121.511 125.08 110.058 125.08 95.9301C125.08 81.802 113.627 70.3489 99.4992 70.3489C85.3711 70.3489 73.918 81.802 73.918 95.9301C73.918 110.058 85.3711 121.511 99.4992 121.511Z" fill="url(#paint2_linear_14_11492)"/>
<path id="Vector_14" d="M99.5079 116.395C110.81 116.395 119.973 107.233 119.973 95.9301C119.973 84.6276 110.81 75.4651 99.5079 75.4651C88.2054 75.4651 79.043 84.6276 79.043 95.9301C79.043 107.233 88.2054 116.395 99.5079 116.395Z" fill="#F5BE00"/>
<path id="Vector_15" d="M93.793 105.358V101.544C95.1767 102.393 96.6511 102.816 98.2139 102.816C99.3906 102.816 100.312 102.537 100.974 101.977C101.637 101.416 101.97 100.656 101.97 99.6952C101.97 97.6882 100.553 96.6859 97.7185 96.6859C96.7953 96.6859 95.679 96.7696 94.372 96.9394V85.6278H105.586V89.272H98.186V93.3255C98.779 93.2696 99.3394 93.2417 99.8673 93.2417C101.949 93.2417 103.577 93.7882 104.753 94.8789C105.93 95.972 106.518 97.4417 106.518 99.2859C106.518 101.328 105.816 102.997 104.414 104.291C103.012 105.586 101.109 106.232 98.7069 106.232C96.7581 106.232 95.1209 105.942 93.793 105.358Z" fill="#FEE119"/>
<path id="Vector_16" d="M92.926 44.7677H45.6193C44.5542 44.7677 43.6914 43.9049 43.6914 42.8398V39.7189C43.6914 38.6538 44.5542 37.791 45.6193 37.791H92.926C93.9911 37.791 94.8538 38.6538 94.8538 39.7189V42.8398C94.8538 43.9049 93.9911 44.7677 92.926 44.7677Z" fill="#057093"/>
</g>
<rect x="2.58203" y="2.5" width="145" height="145" rx="7.5" stroke="#D5EAF6" stroke-width="5"/>
</g>
<defs>
<linearGradient id="paint0_linear_14_11492" x1="75.082" y1="5" x2="75.082" y2="145" gradientUnits="userSpaceOnUse">
<stop stop-color="#199AE0"/>
<stop offset="0.472222" stop-color="#0D5176" stop-opacity="0.527778"/>
<stop offset="0.940972" stop-color="#12A6F7" stop-opacity="0.465278"/>
<stop offset="1" stop-opacity="0"/>
</linearGradient>
<radialGradient id="paint1_radial_14_11492" cx="0" cy="0" r="1" gradientUnits="userSpaceOnUse" gradientTransform="translate(99.5197 96.9187) scale(30.4928 30.4928)">
<stop/>
<stop offset="1" stop-opacity="0"/>
</radialGradient>
<linearGradient id="paint2_linear_14_11492" x1="81.9412" y1="78.3721" x2="117.55" y2="113.981" gradientUnits="userSpaceOnUse">
<stop stop-color="#FEDE00"/>
<stop offset="1" stop-color="#FFD000"/>
</linearGradient>
</defs>
</svg>
