<svg width="151" height="150" viewBox="0 0 151 150" fill="none" xmlns="http://www.w3.org/2000/svg">
<g id="table">
<rect x="2.58203" y="2.5" width="145" height="145" rx="7.5" fill="white"/>
<rect x="2.58203" y="2.5" width="145" height="145" rx="7.5" fill="url(#paint0_linear_14_11520)" fill-opacity="0.2"/>
<g id="Group">
<path id="Vector" d="M119.529 119.364L30.715 119.45L30.6289 30.636L119.44 30.5499L119.529 119.364Z" fill="url(#paint1_linear_14_11520)"/>
<path id="Vector_2" d="M124.996 30.5444C124.993 27.4944 122.496 25 119.446 25C119.443 25 119.443 25 119.44 25L30.6265 25.0861C27.5737 25.0889 25.0793 27.5889 25.082 30.6417L25.1681 119.456C25.1709 122.506 27.6681 125 30.7181 125C30.7209 125 30.7209 125 30.7237 125L119.538 124.914C122.59 124.911 125.085 122.411 125.082 119.358L124.996 30.5444ZM63.9709 86.1111V63.8889H86.1931V86.1111H63.9709ZM86.1931 94.4444V116.667H63.9709V94.4444H86.1931ZM55.6376 86.1111H33.4154V63.8889H55.6376V86.1111ZM94.5265 63.8889H116.749V86.1111H94.5265V63.8889ZM116.749 55.5556H94.5265V33.3333H116.749V55.5556ZM86.1931 33.3333V55.5556H63.9709V33.3333H86.1931ZM55.6376 33.3333V55.5556H33.4154V33.3333H55.6376ZM33.4154 94.4444H55.6376V116.667H33.4154V94.4444ZM94.5265 116.667V94.4444H116.749V116.667H94.5265Z" fill="url(#paint2_linear_14_11520)"/>
</g>
<rect x="2.58203" y="2.5" width="145" height="145" rx="7.5" stroke="#D5EAF6" stroke-width="5"/>
</g>
<defs>
<linearGradient id="paint0_linear_14_11520" x1="75.082" y1="5" x2="75.082" y2="145" gradientUnits="userSpaceOnUse">
<stop stop-color="#199AE0"/>
<stop offset="0.472222" stop-color="#0D5176" stop-opacity="0.527778"/>
<stop offset="0.940972" stop-color="#12A6F7" stop-opacity="0.465278"/>
<stop offset="1" stop-opacity="0"/>
</linearGradient>
<linearGradient id="paint1_linear_14_11520" x1="66.1511" y1="24.3721" x2="84.0067" y2="125.628" gradientUnits="userSpaceOnUse">
<stop stop-color="#FAFAFB"/>
<stop offset="0.293" stop-color="#F6F7F8"/>
<stop offset="0.566" stop-color="#EBECEE"/>
<stop offset="0.832" stop-color="#D8DCDF"/>
<stop offset="1" stop-color="#C8CDD1"/>
</linearGradient>
<linearGradient id="paint2_linear_14_11520" x1="65.1904" y1="18.9056" x2="84.9737" y2="131.094" gradientUnits="userSpaceOnUse">
<stop stop-color="#0176D0"/>
<stop offset="1" stop-color="#22A5E2"/>
</linearGradient>
</defs>
</svg>
