<svg width="151" height="150" viewBox="0 0 151 150" fill="none" xmlns="http://www.w3.org/2000/svg">
<g id="text">
<rect x="2.58203" y="2.5" width="145" height="145" rx="7.5" fill="white"/>
<rect x="2.58203" y="2.5" width="145" height="145" rx="7.5" fill="url(#paint0_linear_14_11570)" fill-opacity="0.2"/>
<path id="Vector" d="M112.582 25H37.582C36.202 25 35.082 26.12 35.082 27.5V50C35.082 51.38 36.202 52.5 37.582 52.5H40.8895C41.912 52.5 42.832 51.8775 43.2095 50.9275L47.582 40H65.082V112.5L54.1545 116.873C53.2045 117.25 52.582 118.17 52.582 119.192V122.5C52.582 123.88 53.702 125 55.082 125H95.082C96.462 125 97.582 123.88 97.582 122.5V119.192C97.582 118.17 96.9595 117.25 96.0095 116.873L85.082 112.5V40H102.582L106.952 50.9275C107.332 51.8775 108.252 52.5 109.275 52.5H112.582C113.962 52.5 115.082 51.38 115.082 50V27.5C115.082 26.12 113.962 25 112.582 25Z" fill="url(#paint1_linear_14_11570)"/>
<rect x="2.58203" y="2.5" width="145" height="145" rx="7.5" stroke="#D5EAF6" stroke-width="5"/>
</g>
<defs>
<linearGradient id="paint0_linear_14_11570" x1="75.082" y1="5" x2="75.082" y2="145" gradientUnits="userSpaceOnUse">
<stop stop-color="#199AE0"/>
<stop offset="0.472222" stop-color="#0D5176" stop-opacity="0.527778"/>
<stop offset="0.940972" stop-color="#12A6F7" stop-opacity="0.465278"/>
<stop offset="1" stop-opacity="0"/>
</linearGradient>
<linearGradient id="paint1_linear_14_11570" x1="71.5945" y1="18.965" x2="90.442" y2="125.858" gradientUnits="userSpaceOnUse">
<stop stop-color="#A235D4"/>
<stop offset="0.441" stop-color="#A033D1"/>
<stop offset="0.702" stop-color="#982CC9"/>
<stop offset="0.915" stop-color="#8B21BB"/>
<stop offset="1" stop-color="#831BB3"/>
</linearGradient>
</defs>
</svg>
