<svg width="151" height="150" viewBox="0 0 151 150" fill="none" xmlns="http://www.w3.org/2000/svg">
<g id="thumbs-up">
<rect x="2.58203" y="2.5" width="145" height="145" rx="7.5" fill="white"/>
<rect x="2.58203" y="2.5" width="145" height="145" rx="7.5" fill="url(#paint0_linear_14_11600)" fill-opacity="0.2"/>
<g id="Group">
<path id="Vector" d="M48.3385 58.7204H29.7333C27.1635 58.7204 25.082 60.8019 25.082 63.3717V119.187C25.082 121.757 27.1635 123.839 29.7333 123.839H48.3385V58.7204Z" fill="url(#paint1_linear_14_11600)"/>
<path id="Vector_2" d="M115.771 58.7204H80.8912L83.2168 49.4178C83.2168 49.4178 90.1938 44.7665 90.1938 35.4639C90.1938 30.3266 86.0285 26.1613 80.8912 26.1613L48.332 58.7204V123.839H105.806C110.192 123.839 113.983 120.773 114.901 116.485L124.869 69.9719C126.109 64.1811 121.695 58.7204 115.771 58.7204Z" fill="url(#paint2_linear_14_11600)"/>
</g>
<rect x="2.58203" y="2.5" width="145" height="145" rx="7.5" stroke="#D5EAF6" stroke-width="5"/>
</g>
<defs>
<linearGradient id="paint0_linear_14_11600" x1="75.082" y1="5" x2="75.082" y2="145" gradientUnits="userSpaceOnUse">
<stop stop-color="#199AE0"/>
<stop offset="0.472222" stop-color="#0D5176" stop-opacity="0.527778"/>
<stop offset="0.940972" stop-color="#12A6F7" stop-opacity="0.465278"/>
<stop offset="1" stop-opacity="0"/>
</linearGradient>
<linearGradient id="paint1_linear_14_11600" x1="28.8589" y1="58.4646" x2="44.3966" y2="119.385" gradientUnits="userSpaceOnUse">
<stop stop-color="#0077D2"/>
<stop offset="1" stop-color="#0B59A2"/>
</linearGradient>
<linearGradient id="paint2_linear_14_11600" x1="60.0626" y1="29.7358" x2="99.3359" y2="125.967" gradientUnits="userSpaceOnUse">
<stop stop-color="#FFCF54"/>
<stop offset="0.261" stop-color="#FDCB4D"/>
<stop offset="0.639" stop-color="#F7C13A"/>
<stop offset="1" stop-color="#F0B421"/>
</linearGradient>
</defs>
</svg>
