<svg width="151" height="150" viewBox="0 0 151 150" fill="none" xmlns="http://www.w3.org/2000/svg">
<g id="timeline-week">
<rect x="2.58203" y="2.5" width="145" height="145" rx="7.5" fill="white"/>
<rect x="2.58203" y="2.5" width="145" height="145" rx="7.5" fill="url(#paint0_linear_14_11661)" fill-opacity="0.2"/>
<g id="Group">
<path id="Vector" d="M27.7148 119.737V46.0525H122.452V119.737C122.452 122.631 120.083 125 117.189 125H32.978C30.0833 125 27.7148 122.631 27.7148 119.737Z" fill="url(#paint1_linear_14_11661)"/>
<path id="Vector_2" d="M122.452 35.5262V51.3157H27.7148V35.5262C27.7148 32.6315 30.0833 30.2631 32.978 30.2631H117.189C120.083 30.2631 122.452 32.6315 122.452 35.5262Z" fill="url(#paint2_linear_14_11661)"/>
<path id="Vector_3" opacity="0.05" d="M105.344 47.3683C100.983 47.3683 97.4492 43.8341 97.4492 39.4736V30.2631H113.239V39.4736C113.239 43.8341 109.704 47.3683 105.344 47.3683Z" fill="black"/>
<path id="Vector_4" opacity="0.07" d="M105.347 45.3946C102.076 45.3946 99.4258 42.7446 99.4258 39.4736V30.2631H111.268V39.4736C111.268 42.7446 108.618 45.3946 105.347 45.3946Z" fill="black"/>
<path id="Vector_5" opacity="0.05" d="M44.8205 47.3683C40.46 47.3683 36.9258 43.8341 36.9258 39.4736V30.2631H52.7153V39.4736C52.7153 43.8341 49.181 47.3683 44.8205 47.3683Z" fill="black"/>
<path id="Vector_6" opacity="0.07" d="M44.8312 45.3946C41.5602 45.3946 38.9102 42.7446 38.9102 39.4736V30.2631H50.7523V39.4736C50.7523 42.7446 48.1023 45.3946 44.8312 45.3946Z" fill="black"/>
<path id="Vector_7" d="M44.8185 43.4211C42.6395 43.4211 40.8711 41.6526 40.8711 39.4737V28.9474C40.8711 26.7684 42.6395 25 44.8185 25C46.9974 25 48.7658 26.7684 48.7658 28.9474V39.4737C48.7658 41.6526 46.9974 43.4211 44.8185 43.4211Z" fill="#3CCBF4"/>
<path id="Vector_8" d="M69.8172 65.7894V73.6842C69.8172 74.4105 69.2278 75 68.5014 75H39.5541C38.8278 75 38.2383 74.4105 38.2383 73.6842V65.7894C38.2383 65.0631 38.8278 64.4736 39.5541 64.4736H68.5014C69.2278 64.4736 69.8172 65.0631 69.8172 65.7894Z" fill="#33C481"/>
<path id="Vector_9" d="M90.8699 102.632V110.526C90.8699 111.253 90.2804 111.842 89.5541 111.842H39.5541C38.8278 111.842 38.2383 111.253 38.2383 110.526V102.632C38.2383 101.905 38.8278 101.316 39.5541 101.316H89.5541C90.2804 101.316 90.8699 101.905 90.8699 102.632Z" fill="#107C42"/>
<path id="Vector_10" d="M111.917 84.2106V92.1053C111.917 92.8316 111.327 93.4211 110.601 93.4211H60.6009C59.8746 93.4211 59.2852 92.8316 59.2852 92.1053V84.2106C59.2852 83.4842 59.8746 82.8948 60.6009 82.8948H110.601C111.327 82.8948 111.917 83.4842 111.917 84.2106Z" fill="#21A366"/>
<path id="Vector_11" d="M105.358 43.4211C103.179 43.4211 101.41 41.6526 101.41 39.4737V28.9474C101.41 26.7684 103.179 25 105.358 25C107.536 25 109.305 26.7684 109.305 28.9474V39.4737C109.305 41.6526 107.536 43.4211 105.358 43.4211Z" fill="#3CCBF4"/>
</g>
<rect x="2.58203" y="2.5" width="145" height="145" rx="7.5" stroke="#D5EAF6" stroke-width="5"/>
</g>
<defs>
<linearGradient id="paint0_linear_14_11661" x1="75.082" y1="5" x2="75.082" y2="145" gradientUnits="userSpaceOnUse">
<stop stop-color="#199AE0"/>
<stop offset="0.472222" stop-color="#0D5176" stop-opacity="0.527778"/>
<stop offset="0.940972" stop-color="#12A6F7" stop-opacity="0.465278"/>
<stop offset="1" stop-opacity="0"/>
</linearGradient>
<linearGradient id="paint1_linear_14_11661" x1="75.0833" y1="46.2183" x2="75.0833" y2="125.166" gradientUnits="userSpaceOnUse">
<stop stop-color="#F0F0F0"/>
<stop offset="1" stop-color="#BBC1C4"/>
</linearGradient>
<linearGradient id="paint2_linear_14_11661" x1="28.8201" y1="31.8631" x2="120.341" y2="50.4736" gradientUnits="userSpaceOnUse">
<stop stop-color="#0077D2"/>
<stop offset="1" stop-color="#0B59A2"/>
</linearGradient>
</defs>
</svg>
