<svg width="151" height="150" viewBox="0 0 151 150" fill="none" xmlns="http://www.w3.org/2000/svg">
<g id="timeline">
<rect x="2.58203" y="2.5" width="145" height="145" rx="7.5" fill="white"/>
<rect x="2.58203" y="2.5" width="145" height="145" rx="7.5" fill="url(#paint0_linear_14_11650)" fill-opacity="0.2"/>
<g id="Group">
<path id="Vector" d="M37.582 27.4999H32.582V122.5H37.582V27.4999Z" fill="#64717C"/>
<path id="Vector_2" d="M35.082 30C36.4627 30 37.582 28.8807 37.582 27.5C37.582 26.1193 36.4627 25 35.082 25C33.7013 25 32.582 26.1193 32.582 27.5C32.582 28.8807 33.7013 30 35.082 30Z" fill="#64717C"/>
<path id="Vector_3" d="M35.082 125C36.4627 125 37.582 123.881 37.582 122.5C37.582 121.119 36.4627 120 35.082 120C33.7013 120 32.582 121.119 32.582 122.5C32.582 123.881 33.7013 125 35.082 125Z" fill="#64717C"/>
<path id="Vector_4" d="M35.082 47.5C39.2242 47.5 42.582 44.1421 42.582 40C42.582 35.8579 39.2242 32.5 35.082 32.5C30.9399 32.5 27.582 35.8579 27.582 40C27.582 44.1421 30.9399 47.5 35.082 47.5Z" fill="#ABB4BE"/>
<path id="Vector_5" d="M35.082 82.5C39.2242 82.5 42.582 79.1421 42.582 75C42.582 70.8579 39.2242 67.5 35.082 67.5C30.9399 67.5 27.582 70.8579 27.582 75C27.582 79.1421 30.9399 82.5 35.082 82.5Z" fill="#ABB4BE"/>
<path id="Vector_6" d="M35.082 117.5C39.2242 117.5 42.582 114.142 42.582 110C42.582 105.858 39.2242 102.5 35.082 102.5C30.9399 102.5 27.582 105.858 27.582 110C27.582 114.142 30.9399 117.5 35.082 117.5Z" fill="#ABB4BE"/>
<path id="Vector_7" d="M102.583 27.4999H62.5827C61.9177 27.4999 61.2827 27.7624 60.8152 28.2324L50.8152 38.2324C49.8377 39.2099 49.8377 40.7899 50.8152 41.7674L60.8152 51.7674C61.2827 52.2374 61.9177 52.4999 62.5827 52.4999H102.583C103.965 52.4999 105.083 51.3799 105.083 49.9999V29.9999C105.083 28.6199 103.965 27.4999 102.583 27.4999Z" fill="#50E6FF"/>
<path id="Vector_8" d="M100.083 97.5H62.5827C61.9177 97.5 61.2827 97.7625 60.8152 98.2325L50.8152 108.233C49.8377 109.21 49.8377 110.79 50.8152 111.768L60.8152 121.768C61.2827 122.238 61.9177 122.5 62.5827 122.5H100.083C101.465 122.5 102.583 121.38 102.583 120V100C102.583 98.62 101.465 97.5 100.083 97.5Z" fill="#199BE2"/>
<path id="Vector_9" d="M120.083 62.5H62.5827C61.9177 62.5 61.2827 62.7625 60.8152 63.2325L50.8152 73.2325C49.8377 74.21 49.8377 75.79 50.8152 76.7675L60.8152 86.7675C61.2827 87.2375 61.9177 87.5 62.5827 87.5H120.083C121.465 87.5 122.583 86.38 122.583 85V65C122.583 63.62 121.465 62.5 120.083 62.5Z" fill="#0078D4"/>
</g>
<rect x="2.58203" y="2.5" width="145" height="145" rx="7.5" stroke="#D5EAF6" stroke-width="5"/>
</g>
<defs>
<linearGradient id="paint0_linear_14_11650" x1="75.082" y1="5" x2="75.082" y2="145" gradientUnits="userSpaceOnUse">
<stop stop-color="#199AE0"/>
<stop offset="0.472222" stop-color="#0D5176" stop-opacity="0.527778"/>
<stop offset="0.940972" stop-color="#12A6F7" stop-opacity="0.465278"/>
<stop offset="1" stop-opacity="0"/>
</linearGradient>
</defs>
</svg>
