<svg width="151" height="150" viewBox="0 0 151 150" fill="none" xmlns="http://www.w3.org/2000/svg">
<g id="toggle-on">
<rect x="2.58203" y="2.5" width="145" height="145" rx="7.5" fill="white"/>
<rect x="2.58203" y="2.5" width="145" height="145" rx="7.5" fill="url(#paint0_linear_14_11737)" fill-opacity="0.2"/>
<g id="Group">
<path id="Vector" d="M93.832 43.75C87.6549 43.75 62.5091 43.75 56.332 43.75C39.0737 43.75 25.082 57.7417 25.082 75C25.082 92.2583 39.0737 106.25 56.332 106.25C62.5091 106.25 87.6549 106.25 93.832 106.25C111.09 106.25 125.082 92.2583 125.082 75C125.082 57.7417 111.09 43.75 93.832 43.75Z" fill="#0078D4"/>
<path id="Vector_2" d="M93.8268 104.167C109.935 104.167 122.993 91.1082 122.993 74.9999C122.993 58.8916 109.935 45.8333 93.8268 45.8333C77.7185 45.8333 64.6602 58.8916 64.6602 74.9999C64.6602 91.1082 77.7185 104.167 93.8268 104.167Z" fill="url(#paint1_radial_14_11737)"/>
<path id="Vector_3" d="M93.832 100C107.639 100 118.832 88.8071 118.832 75C118.832 61.1929 107.639 50 93.832 50C80.0249 50 68.832 61.1929 68.832 75C68.832 88.8071 80.0249 100 93.832 100Z" fill="#F9F9F9"/>
</g>
<rect x="2.58203" y="2.5" width="145" height="145" rx="7.5" stroke="#D5EAF6" stroke-width="5"/>
</g>
<defs>
<linearGradient id="paint0_linear_14_11737" x1="75.082" y1="5" x2="75.082" y2="145" gradientUnits="userSpaceOnUse">
<stop stop-color="#199AE0"/>
<stop offset="0.472222" stop-color="#0D5176" stop-opacity="0.527778"/>
<stop offset="0.940972" stop-color="#12A6F7" stop-opacity="0.465278"/>
<stop offset="1" stop-opacity="0"/>
</linearGradient>
<radialGradient id="paint1_radial_14_11737" cx="0" cy="0" r="1" gradientUnits="userSpaceOnUse" gradientTransform="translate(93.8268 74.9999) scale(29.1667)">
<stop/>
<stop offset="1" stop-opacity="0"/>
</radialGradient>
</defs>
</svg>
