<svg width="151" height="150" viewBox="0 0 151 150" fill="none" xmlns="http://www.w3.org/2000/svg">
<g id="topic">
<rect x="2.58203" y="2.5" width="145" height="145" rx="7.5" fill="white"/>
<rect x="2.58203" y="2.5" width="145" height="145" rx="7.5" fill="url(#paint0_linear_14_11742)" fill-opacity="0.2"/>
<path id="Vector" d="M120.082 26.2501H30.082C27.3195 26.2501 25.082 28.4876 25.082 31.2501V96.2501C25.082 99.0126 27.3195 101.25 30.082 101.25H50.082V121.245C50.082 123.473 52.7745 124.588 54.3495 123.013L76.112 101.25H120.082C122.845 101.25 125.082 99.0126 125.082 96.2501V31.2501C125.082 28.4876 122.845 26.2501 120.082 26.2501Z" fill="url(#paint1_linear_14_11742)"/>
<rect x="2.58203" y="2.5" width="145" height="145" rx="7.5" stroke="#D5EAF6" stroke-width="5"/>
</g>
<defs>
<linearGradient id="paint0_linear_14_11742" x1="75.082" y1="5" x2="75.082" y2="145" gradientUnits="userSpaceOnUse">
<stop stop-color="#199AE0"/>
<stop offset="0.472222" stop-color="#0D5176" stop-opacity="0.527778"/>
<stop offset="0.940972" stop-color="#12A6F7" stop-opacity="0.465278"/>
<stop offset="1" stop-opacity="0"/>
</linearGradient>
<linearGradient id="paint1_linear_14_11742" x1="46.797" y1="17.7301" x2="104.032" y2="110.853" gradientUnits="userSpaceOnUse">
<stop stop-color="#0176D0"/>
<stop offset="1" stop-color="#0A85D9"/>
</linearGradient>
</defs>
</svg>
