<svg width="151" height="150" viewBox="0 0 151 150" fill="none" xmlns="http://www.w3.org/2000/svg">
<g id="twitter-squared">
<rect x="2.58203" y="2.5" width="145" height="145" rx="7.5" fill="white"/>
<rect x="2.58203" y="2.5" width="145" height="145" rx="7.5" fill="url(#paint0_linear_14_11766)" fill-opacity="0.2"/>
<g id="Group">
<path id="Vector" d="M125.082 119.444C125.082 122.514 122.596 125 119.526 125H30.6376C27.5681 125 25.082 122.514 25.082 119.444V30.5556C25.082 27.4861 27.5681 25 30.6376 25H119.526C122.596 25 125.082 27.4861 125.082 30.5556V119.444Z" fill="url(#paint1_linear_14_11766)"/>
<path id="Vector_2" opacity="0.05" d="M63.9765 105.555C54.9765 105.555 46.3348 103.35 40.2681 99.5055L39.332 98.9138L40.9765 94.2722L42.0765 94.3999C42.4904 94.4499 42.8154 94.4583 43.1459 94.4583L44.5181 94.4444C47.2876 94.4444 51.3293 93.9999 55.2015 92.8416C51.3237 91.5194 46.407 88.9499 44.8681 84.1888L43.6904 80.5555H46.5431C43.4904 77.7694 41.7543 73.8944 41.7543 69.6027V65.1027L43.4459 65.8833C42.3487 63.7583 41.7681 61.6138 41.7681 59.5999C41.7681 56.686 42.5404 53.836 44.007 51.361L46.032 47.9499L48.5487 51.011C54.0959 57.7638 63.1154 65.1666 72.3098 66.4638V63.8888C72.3098 54.5444 79.1654 47.2222 87.9126 47.2222C92.2043 47.2222 95.9209 48.4499 98.7126 50.7805C101.599 50.0555 105.124 48.7166 107.015 47.6027L113.304 43.9027L111.063 50.8472C110.957 51.1805 110.824 51.5138 110.663 51.8527L116.049 49.4666L110.054 58.4472C108.807 60.3444 107.624 62.1472 105.624 63.8333C105.638 64.5527 105.643 65.3083 105.643 65.6388C105.643 84.9888 91.0404 105.555 63.9765 105.555Z" fill="black"/>
<path id="Vector_3" opacity="0.07" d="M63.9784 104.167C55.2367 104.167 46.8645 102.039 41.0117 98.3307L41.9145 95.7779C42.3923 95.8334 42.7645 95.8473 43.1423 95.8473L44.5339 95.8334C49.0145 95.8334 55.0867 94.8084 59.7423 92.6029C54.1145 91.5557 47.7812 88.6723 46.1923 83.7584L45.6034 81.9445H47.5145C48.8367 81.9445 49.8895 81.8751 50.7506 81.764C46.0201 79.389 43.1478 74.9473 43.1478 69.6029V67.2751L45.1951 68.2223C45.7923 68.5445 46.5867 68.914 47.4534 69.2723C45.0089 66.4668 43.1617 63.0084 43.1617 59.6029C43.1617 56.939 43.8701 54.3334 45.2062 52.0723L46.2173 50.3668L47.4756 51.8973C53.6117 59.3668 63.5978 67.3251 73.6978 68.0084V63.889C73.6978 55.3223 79.9423 48.6112 87.9117 48.6112C92.1589 48.6112 95.7423 49.8834 98.3312 52.3001C101.453 51.6001 105.512 50.1001 107.717 48.8029L110.862 46.9529L109.742 50.4251C109.212 52.0751 107.926 53.7362 106.417 55.2195C106.901 55.0307 107.384 54.8307 107.862 54.6195L112.242 52.6779L108.903 57.6807C107.562 59.7251 106.387 61.514 104.228 63.1834C104.245 64.0251 104.256 65.2029 104.256 65.6362C104.256 84.3168 90.1395 104.167 63.9784 104.167Z" fill="black"/>
<path id="Vector_4" d="M108.421 50C105.779 51.5528 101.001 53.2111 97.8845 53.8111C95.3956 51.1722 91.8456 50 87.9122 50C80.3567 50 75.0872 56.4028 75.0872 63.8889V69.4444C63.9761 69.4444 53.1428 60.9806 46.4011 52.7778C45.215 54.7806 44.5483 57.125 44.5483 59.6028C44.5483 64.6556 49.19 69.7833 52.865 72.2222C50.6234 72.1528 46.3789 70.4417 44.5317 69.4444V69.6028C44.5317 76.1778 49.1456 80.6417 55.3984 81.8861C54.2567 82.2 52.865 83.3333 47.5095 83.3333C49.2483 88.7083 57.99 91.55 63.9761 91.6667C59.2928 95.2972 50.9428 97.2222 44.5317 97.2222C43.4234 97.2222 42.8234 97.2833 41.7539 97.1583C47.8039 100.992 56.2539 102.778 63.9761 102.778C89.1345 102.778 102.865 83.5611 102.865 65.6389C102.865 65.05 102.846 63.0778 102.815 62.5C105.504 60.6056 106.593 58.6222 108.421 55.8889C105.971 56.975 102.868 57.9944 100.087 58.3333C102.915 56.6556 107.401 53.1611 108.421 50Z" fill="white"/>
</g>
<rect x="2.58203" y="2.5" width="145" height="145" rx="7.5" stroke="#D5EAF6" stroke-width="5"/>
</g>
<defs>
<linearGradient id="paint0_linear_14_11766" x1="75.082" y1="5" x2="75.082" y2="145" gradientUnits="userSpaceOnUse">
<stop stop-color="#199AE0"/>
<stop offset="0.472222" stop-color="#0D5176" stop-opacity="0.527778"/>
<stop offset="0.940972" stop-color="#12A6F7" stop-opacity="0.465278"/>
<stop offset="1" stop-opacity="0"/>
</linearGradient>
<linearGradient id="paint1_linear_14_11766" x1="27.407" y1="28.225" x2="121.379" y2="120.422" gradientUnits="userSpaceOnUse">
<stop stop-color="#2AA4F4"/>
<stop offset="1" stop-color="#007AD9"/>
</linearGradient>
</defs>
</svg>
