<svg width="151" height="150" viewBox="0 0 151 150" fill="none" xmlns="http://www.w3.org/2000/svg">
<g id="ungroup-objects">
<rect x="2.58203" y="2.5" width="145" height="145" rx="7.5" fill="white"/>
<rect x="2.58203" y="2.5" width="145" height="145" rx="7.5" fill="url(#paint0_linear_14_11781)" fill-opacity="0.2"/>
<g id="Group">
<path id="Vector" d="M96.1359 96.0522H30.3477V30.264H96.1359V96.0522ZM35.6107 90.7891H90.8728V35.527H35.6107V90.7891Z" fill="#64717C"/>
<path id="Vector_2" d="M119.816 122.368H54.0273V93.4208H59.2904V117.105H114.553V61.8424H93.5003V56.5794H119.816V122.368Z" fill="#64717C"/>
<path id="Vector_3" d="M32.9766 40.7901C37.3367 40.7901 40.8712 37.2556 40.8712 32.8955C40.8712 28.5354 37.3367 25.0009 32.9766 25.0009C28.6166 25.0009 25.082 28.5354 25.082 32.8955C25.082 37.2556 28.6166 40.7901 32.9766 40.7901Z" fill="url(#paint1_linear_14_11781)"/>
<path id="Vector_4" d="M93.5079 40.7901C97.8679 40.7901 101.402 37.2556 101.402 32.8955C101.402 28.5354 97.8679 25.0009 93.5079 25.0009C89.1478 25.0009 85.6133 28.5354 85.6133 32.8955C85.6133 37.2556 89.1478 40.7901 93.5079 40.7901Z" fill="url(#paint2_linear_14_11781)"/>
<path id="Vector_5" d="M32.9766 101.315C37.3367 101.315 40.8712 97.7807 40.8712 93.4206C40.8712 89.0606 37.3367 85.526 32.9766 85.526C28.6166 85.526 25.082 89.0606 25.082 93.4206C25.082 97.7807 28.6166 101.315 32.9766 101.315Z" fill="url(#paint3_linear_14_11781)"/>
<path id="Vector_6" d="M93.5079 101.315C97.8679 101.315 101.402 97.7807 101.402 93.4206C101.402 89.0606 97.8679 85.526 93.5079 85.526C89.1478 85.526 85.6133 89.0606 85.6133 93.4206C85.6133 97.7807 89.1478 101.315 93.5079 101.315Z" fill="url(#paint4_linear_14_11781)"/>
<path id="Vector_7" d="M56.6641 124.999C61.0242 124.999 64.5587 121.465 64.5587 117.104C64.5587 112.744 61.0242 109.21 56.6641 109.21C52.3041 109.21 48.7695 112.744 48.7695 117.104C48.7695 121.465 52.3041 124.999 56.6641 124.999Z" fill="url(#paint5_linear_14_11781)"/>
<path id="Vector_8" d="M117.188 124.999C121.548 124.999 125.082 121.465 125.082 117.104C125.082 112.744 121.548 109.21 117.188 109.21C112.827 109.21 109.293 112.744 109.293 117.104C109.293 121.465 112.827 124.999 117.188 124.999Z" fill="url(#paint6_linear_14_11781)"/>
<path id="Vector_9" d="M117.188 64.4737C121.548 64.4737 125.082 60.9392 125.082 56.5791C125.082 52.2191 121.548 48.6845 117.188 48.6845C112.827 48.6845 109.293 52.2191 109.293 56.5791C109.293 60.9392 112.827 64.4737 117.188 64.4737Z" fill="url(#paint7_linear_14_11781)"/>
</g>
<rect x="2.58203" y="2.5" width="145" height="145" rx="7.5" stroke="#D5EAF6" stroke-width="5"/>
</g>
<defs>
<linearGradient id="paint0_linear_14_11781" x1="75.082" y1="5" x2="75.082" y2="145" gradientUnits="userSpaceOnUse">
<stop stop-color="#199AE0"/>
<stop offset="0.472222" stop-color="#0D5176" stop-opacity="0.527778"/>
<stop offset="0.940972" stop-color="#12A6F7" stop-opacity="0.465278"/>
<stop offset="1" stop-opacity="0"/>
</linearGradient>
<linearGradient id="paint1_linear_14_11781" x1="27.7425" y1="27.6614" x2="38.8002" y2="38.7191" gradientUnits="userSpaceOnUse">
<stop stop-color="#0176D0"/>
<stop offset="1" stop-color="#0A85D9"/>
</linearGradient>
<linearGradient id="paint2_linear_14_11781" x1="88.2738" y1="27.6614" x2="99.3288" y2="38.7191" gradientUnits="userSpaceOnUse">
<stop stop-color="#0176D0"/>
<stop offset="1" stop-color="#0A85D9"/>
</linearGradient>
<linearGradient id="paint3_linear_14_11781" x1="27.7425" y1="88.1865" x2="38.8002" y2="99.2416" gradientUnits="userSpaceOnUse">
<stop stop-color="#0176D0"/>
<stop offset="1" stop-color="#0A85D9"/>
</linearGradient>
<linearGradient id="paint4_linear_14_11781" x1="88.2738" y1="88.1865" x2="99.3288" y2="99.2416" gradientUnits="userSpaceOnUse">
<stop stop-color="#0176D0"/>
<stop offset="1" stop-color="#0A85D9"/>
</linearGradient>
<linearGradient id="paint5_linear_14_11781" x1="51.43" y1="111.87" x2="62.4851" y2="122.925" gradientUnits="userSpaceOnUse">
<stop stop-color="#0176D0"/>
<stop offset="1" stop-color="#0A85D9"/>
</linearGradient>
<linearGradient id="paint6_linear_14_11781" x1="111.953" y1="111.87" x2="123.008" y2="122.925" gradientUnits="userSpaceOnUse">
<stop stop-color="#0176D0"/>
<stop offset="1" stop-color="#0A85D9"/>
</linearGradient>
<linearGradient id="paint7_linear_14_11781" x1="111.953" y1="51.345" x2="123.008" y2="62.4001" gradientUnits="userSpaceOnUse">
<stop stop-color="#0176D0"/>
<stop offset="1" stop-color="#0A85D9"/>
</linearGradient>
</defs>
</svg>
