<svg width="151" height="150" viewBox="0 0 151 150" fill="none" xmlns="http://www.w3.org/2000/svg">
<g id="variable">
<rect x="2.58203" y="2.5" width="145" height="145" rx="7.5" fill="white"/>
<rect x="2.58203" y="2.5" width="145" height="145" rx="7.5" fill="url(#paint0_linear_14_11882)" fill-opacity="0.2"/>
<g id="Group">
<path id="Vector" d="M25.082 110V47.5H125.082V110C125.082 112.75 122.832 115 120.082 115H30.082C27.332 115 25.082 112.75 25.082 110Z" fill="url(#paint1_linear_14_11882)"/>
<path id="Vector_2" d="M125.082 40V47.5H25.082V40C25.082 37.25 27.332 35 30.082 35H120.082C122.832 35 125.082 37.25 125.082 40Z" fill="url(#paint2_linear_14_11882)"/>
<path id="Vector_3" opacity="0.05" d="M90.3242 63.5L89.5742 62.75H79.5742L82.8242 66.75C83.8242 67.75 84.5742 69 85.0742 70.25H77.8242L75.3242 75L72.8242 70.25H65.0742C65.8242 69 66.5742 68 67.3242 66.75L70.5742 62.75H60.5742L59.8242 63.5C55.5742 68.5 53.3242 74.5 53.3242 81.5C53.3242 88.5 55.5742 94.5 59.8242 99.25L60.5742 100H70.5742L67.0742 96C66.5742 95.5 66.0742 94.75 65.5742 94H72.0742L74.8242 89.25L77.5742 94H84.3242C83.8242 94.75 83.3242 95.25 82.8242 95.75L79.3242 99.75H89.3242L90.0742 99C94.3242 94.25 96.5742 88.25 96.5742 81.25C96.8242 74.5 94.5742 68.5 90.3242 63.5ZM63.8242 90C62.8242 87.25 62.0742 84.5 62.0742 81.25C62.0742 78.25 62.5742 75.5 63.5742 73L69.3242 82L63.8242 90ZM80.8242 82L86.5742 73.25C87.5742 75.75 87.8242 78.5 87.8242 81.25C87.8242 84.5 87.3242 87.5 86.0742 90.25L80.8242 82Z" fill="black"/>
<path id="Vector_4" opacity="0.07" d="M61.0898 98.5001L60.8398 98.0001C56.8398 93.5001 54.8398 87.7501 54.8398 81.2501C54.8398 74.5001 56.8398 68.7501 60.8398 64.2501L61.0898 63.7501H67.8398L66.0898 65.7501C62.5898 70.2501 60.5898 75.2501 60.5898 81.2501C60.5898 87.0001 62.3398 92.2501 65.8398 96.5001L67.5898 98.5001H61.0898V98.5001Z" fill="black"/>
<path id="Vector_5" d="M65.332 97.25H61.832C58.082 93 56.082 87.5 56.082 81.25C56.082 75 58.082 69.5 61.832 65H65.332C61.582 69.75 59.582 75 59.582 81.25C59.582 87.5 61.582 92.75 65.332 97.25Z" fill="white"/>
<path id="Vector_6" opacity="0.07" d="M78.332 92.7501L75.082 86.7501L71.582 92.7501H63.582L70.832 82.2501L64.082 71.5001H72.082L75.332 77.5001L78.832 71.5001H86.332L79.332 82.2501L86.332 92.7501H78.332Z" fill="black"/>
<path id="Vector_7" d="M84.082 72.7501L77.832 82.2501L84.082 91.5001H79.082L75.832 85.7501C75.582 85.5001 75.332 85.0001 75.082 84.5001C75.082 84.5001 74.832 85.0001 74.332 85.7501L71.082 91.5001H66.082L72.332 82.2501L66.332 72.7501H71.332L74.582 78.7501C74.832 79.2501 75.082 79.7501 75.332 80.2501L79.582 72.7501H84.082Z" fill="white"/>
<path id="Vector_8" opacity="0.07" d="M82.082 98.5001L83.832 96.5001C87.332 92.2501 89.332 87.0001 89.332 81.2501C89.332 75.5001 87.582 70.2501 83.832 65.7501L82.082 63.7501H88.832L89.082 64.2501C93.082 69.0001 95.082 74.7501 95.082 81.2501C95.082 87.7501 93.082 93.5001 88.832 98.0001L88.582 98.5001H82.082V98.5001Z" fill="black"/>
<path id="Vector_9" d="M88.332 97.25H84.832C88.582 92.75 90.582 87.25 90.582 81.25C90.582 75 88.582 69.75 84.832 65H88.582C92.332 69.5 94.332 75 94.332 81.25C94.332 87.75 92.332 93 88.332 97.25Z" fill="white"/>
</g>
<rect x="2.58203" y="2.5" width="145" height="145" rx="7.5" stroke="#D5EAF6" stroke-width="5"/>
</g>
<defs>
<linearGradient id="paint0_linear_14_11882" x1="75.082" y1="5" x2="75.082" y2="145" gradientUnits="userSpaceOnUse">
<stop stop-color="#199AE0"/>
<stop offset="0.472222" stop-color="#0D5176" stop-opacity="0.527778"/>
<stop offset="0.940972" stop-color="#12A6F7" stop-opacity="0.465278"/>
<stop offset="1" stop-opacity="0"/>
</linearGradient>
<linearGradient id="paint1_linear_14_11882" x1="47.7545" y1="39.9975" x2="94.897" y2="108.187" gradientUnits="userSpaceOnUse">
<stop stop-color="#7DD8F3"/>
<stop offset="1" stop-color="#45B0D0"/>
</linearGradient>
<linearGradient id="paint2_linear_14_11882" x1="27.102" y1="31.95" x2="121.957" y2="51.2375" gradientUnits="userSpaceOnUse">
<stop stop-color="#0077D2"/>
<stop offset="1" stop-color="#0B59A2"/>
</linearGradient>
</defs>
</svg>
