<svg width="151" height="150" viewBox="0 0 151 150" fill="none" xmlns="http://www.w3.org/2000/svg">
<g id="view-module">
<rect x="2.58203" y="2.5" width="145" height="145" rx="7.5" fill="white"/>
<rect x="2.58203" y="2.5" width="145" height="145" rx="7.5" fill="url(#paint0_linear_14_11909)" fill-opacity="0.2"/>
<g id="Group">
<path id="Vector" d="M58.4139 34.5256L25.082 75V110.713C25.082 113.094 27.4629 115.474 29.8437 115.474H98.8882H102.459H120.316C122.947 115.474 125.078 113.094 125.078 110.713V75L91.7457 34.5256H58.4139Z" fill="url(#paint1_linear_14_11909)"/>
<path id="Vector_2" opacity="0.05" d="M25.082 72.6192H56.033V34.5256H60.7947V72.6192H89.3648V34.5256H94.1265V72.6192H125.078V77.3808H94.1265V115.474H89.3648V77.3808H60.7947V115.474H56.033V77.3808H25.082V72.6192Z" fill="black"/>
<path id="Vector_3" opacity="0.05" d="M59.6043 34.5256V73.8096H90.5553V34.5256H92.9361V73.8096H125.078V76.1904H92.9361V115.474H90.5553V76.1904H59.6043V115.474H57.2234V76.1904H25.082V73.8096H57.2234V34.5256H59.6043Z" fill="black"/>
<path id="Vector_4" d="M58.4139 75V34.5256H29.8437C27.2129 34.5256 25.082 36.6565 25.082 39.2873V75H58.4139Z" fill="url(#paint2_linear_14_11909)"/>
<path id="Vector_5" d="M91.742 75H58.4102V115.474H91.742V75Z" fill="url(#paint3_linear_14_11909)"/>
<path id="Vector_6" d="M125.086 75V39.2873C125.086 36.6565 122.955 34.5256 120.324 34.5256H91.7539V75H125.086Z" fill="url(#paint4_linear_14_11909)"/>
</g>
<rect x="2.58203" y="2.5" width="145" height="145" rx="7.5" stroke="#D5EAF6" stroke-width="5"/>
</g>
<defs>
<linearGradient id="paint0_linear_14_11909" x1="75.082" y1="5" x2="75.082" y2="145" gradientUnits="userSpaceOnUse">
<stop stop-color="#199AE0"/>
<stop offset="0.472222" stop-color="#0D5176" stop-opacity="0.527778"/>
<stop offset="0.940972" stop-color="#12A6F7" stop-opacity="0.465278"/>
<stop offset="1" stop-opacity="0"/>
</linearGradient>
<linearGradient id="paint1_linear_14_11909" x1="69.8681" y1="122.588" x2="85.5888" y2="33.44" gradientUnits="userSpaceOnUse">
<stop stop-color="#007AD9"/>
<stop offset="1" stop-color="#2AA4F4"/>
</linearGradient>
<linearGradient id="paint2_linear_14_11909" x1="37.9148" y1="33.0281" x2="45.7121" y2="77.2404" gradientUnits="userSpaceOnUse">
<stop stop-color="#A3FFFF"/>
<stop offset="0.223" stop-color="#9DFBFF"/>
<stop offset="0.53" stop-color="#8BF1FF"/>
<stop offset="0.885" stop-color="#6EE0FF"/>
<stop offset="1" stop-color="#63DAFF"/>
</linearGradient>
<linearGradient id="paint3_linear_14_11909" x1="71.112" y1="72.7597" x2="79.0402" y2="117.715" gradientUnits="userSpaceOnUse">
<stop stop-color="#A3FFFF"/>
<stop offset="0.223" stop-color="#9DFBFF"/>
<stop offset="0.53" stop-color="#8BF1FF"/>
<stop offset="0.885" stop-color="#6EE0FF"/>
<stop offset="1" stop-color="#63DAFF"/>
</linearGradient>
<linearGradient id="paint4_linear_14_11909" x1="104.084" y1="32.3519" x2="112.013" y2="77.3047" gradientUnits="userSpaceOnUse">
<stop stop-color="#A3FFFF"/>
<stop offset="0.223" stop-color="#9DFBFF"/>
<stop offset="0.53" stop-color="#8BF1FF"/>
<stop offset="0.885" stop-color="#6EE0FF"/>
<stop offset="1" stop-color="#63DAFF"/>
</linearGradient>
</defs>
</svg>
