<svg width="151" height="150" viewBox="0 0 151 150" fill="none" xmlns="http://www.w3.org/2000/svg">
<g id="window-settings">
<rect x="2.58203" y="2.5" width="145" height="145" rx="7.5" fill="white"/>
<rect x="2.58203" y="2.5" width="145" height="145" rx="7.5" fill="url(#paint0_linear_14_11980)" fill-opacity="0.2"/>
<g id="Group">
<path id="Vector" d="M25.082 98.7392V45.2492H118.108V98.7392C118.108 101.297 116.015 103.39 113.457 103.39H29.7333C27.1751 103.39 25.082 101.297 25.082 98.7392Z" fill="#50E6FF"/>
<path id="Vector_2" d="M118.108 33.6208V45.2491H25.082V33.6208C25.082 31.0626 27.1751 28.9695 29.7333 28.9695H113.457C116.015 28.9695 118.108 31.0626 118.108 33.6208Z" fill="url(#paint1_linear_14_11980)"/>
<path id="Vector_3" d="M33.2189 40.5978C35.1456 40.5978 36.7074 39.036 36.7074 37.1094C36.7074 35.1827 35.1456 33.6209 33.2189 33.6209C31.2923 33.6209 29.7305 35.1827 29.7305 37.1094C29.7305 39.036 31.2923 40.5978 33.2189 40.5978Z" fill="url(#paint2_linear_14_11980)"/>
<path id="Vector_4" d="M44.8518 40.5978C46.7784 40.5978 48.3402 39.036 48.3402 37.1094C48.3402 35.1827 46.7784 33.6209 44.8518 33.6209C42.9251 33.6209 41.3633 35.1827 41.3633 37.1094C41.3633 39.036 42.9251 40.5978 44.8518 40.5978Z" fill="url(#paint3_linear_14_11980)"/>
<path id="Vector_5" d="M56.4846 40.5978C58.4112 40.5978 59.973 39.036 59.973 37.1094C59.973 35.1827 58.4112 33.6209 56.4846 33.6209C54.5579 33.6209 52.9961 35.1827 52.9961 37.1094C52.9961 39.036 54.5579 40.5978 56.4846 40.5978Z" fill="url(#paint4_linear_14_11980)"/>
<path id="Vector_6" opacity="0.05" d="M118.108 98.7392V79.0921C115.445 76.885 112.375 75.1896 109.087 74.2175L107.087 73.6268L106.282 75.5524C105.528 77.3571 103.779 78.5223 101.826 78.5223C99.8724 78.5223 98.1235 77.3571 97.37 75.5501L96.563 73.6245L94.5629 74.2175C90.7279 75.3547 87.1557 77.4222 84.2324 80.1991L82.723 81.634L83.9835 83.2899C85.165 84.8457 85.2975 86.9411 84.3208 88.6319C83.4626 90.1203 81.8556 91.0459 80.1299 91.0459C79.9299 91.0459 79.7276 91.0343 79.5253 91.0064L77.4554 90.7459L76.9717 92.7762C76.488 94.7879 76.2461 96.7926 76.2461 98.7392C76.2461 100.265 76.4391 101.825 76.7345 103.39H113.457C116.015 103.39 118.108 101.297 118.108 98.7392Z" fill="black"/>
<path id="Vector_7" opacity="0.07" d="M118.109 98.7391V88.6574C117.395 87.0736 117.397 85.3061 118.109 83.7479V80.6083C115.409 78.1826 112.204 76.35 108.758 75.3314L107.758 75.036L107.355 75.9989C106.42 78.2385 104.251 79.685 101.827 79.685C99.4038 79.685 97.234 78.2385 96.2991 75.9989L95.8968 75.036L94.8967 75.3314C91.2385 76.4152 87.8267 78.3896 85.036 81.0409L84.2801 81.7595L84.9104 82.5874C86.3755 84.5177 86.5407 87.1178 85.329 89.2132C84.2639 91.0598 82.2731 92.2087 80.1312 92.2087C79.8823 92.2087 79.6312 92.1924 79.38 92.1598L78.3451 92.0296L78.1032 93.0459C77.6427 94.9715 77.4102 96.8879 77.4102 98.7391C77.4102 100.262 77.6055 101.823 77.9148 103.39H113.458C116.016 103.39 118.109 101.297 118.109 98.7391Z" fill="black"/>
<path id="Vector_8" d="M124.424 93.3157C121.652 93.6692 118.808 92.3692 117.322 89.7947C115.838 87.2225 116.131 84.1108 117.822 81.8851C115.196 79.392 111.996 77.5013 108.431 76.4478C107.352 79.0316 104.803 80.8479 101.828 80.8479C98.8539 80.8479 96.305 79.0292 95.2259 76.4478C91.6607 77.5036 88.4629 79.3897 85.8349 81.8851C87.5257 84.1108 87.821 87.2225 86.3349 89.7947C84.8512 92.3668 82.0069 93.6669 79.2324 93.3157C78.8184 95.0576 78.5742 96.867 78.5742 98.7391C78.5742 100.611 78.8184 102.421 79.237 104.163C82.0092 103.809 84.8535 105.111 86.3396 107.684C87.8233 110.256 87.5303 113.367 85.8396 115.593C88.4652 118.086 91.6653 119.977 95.2305 121.03C96.3096 118.447 98.8586 116.63 101.833 116.63C104.808 116.63 107.356 118.449 108.436 121.03C112.001 119.975 115.199 118.089 117.827 115.593C116.136 113.367 115.838 110.256 117.327 107.684C118.81 105.111 121.655 103.811 124.429 104.163C124.843 102.421 125.087 100.611 125.087 98.7391C125.087 96.867 124.843 95.0576 124.424 93.3157Z" fill="url(#paint5_linear_14_11980)"/>
<path id="Vector_9" d="M101.824 110.367C108.246 110.367 113.452 105.161 113.452 98.7391C113.452 92.317 108.246 87.1108 101.824 87.1108C95.4015 87.1108 90.1953 92.317 90.1953 98.7391C90.1953 105.161 95.4015 110.367 101.824 110.367Z" fill="url(#paint6_linear_14_11980)"/>
<path id="Vector_10" d="M101.821 105.716C105.674 105.716 108.798 102.592 108.798 98.739C108.798 94.8857 105.674 91.7621 101.821 91.7621C97.9674 91.7621 94.8438 94.8857 94.8438 98.739C94.8438 102.592 97.9674 105.716 101.821 105.716Z" fill="url(#paint7_linear_14_11980)"/>
</g>
<rect x="2.58203" y="2.5" width="145" height="145" rx="7.5" stroke="#D5EAF6" stroke-width="5"/>
</g>
<defs>
<linearGradient id="paint0_linear_14_11980" x1="75.082" y1="5" x2="75.082" y2="145" gradientUnits="userSpaceOnUse">
<stop stop-color="#199AE0"/>
<stop offset="0.472222" stop-color="#0D5176" stop-opacity="0.527778"/>
<stop offset="0.940972" stop-color="#12A6F7" stop-opacity="0.465278"/>
<stop offset="1" stop-opacity="0"/>
</linearGradient>
<linearGradient id="paint1_linear_14_11980" x1="26.51" y1="28.3672" x2="115.634" y2="46.4887" gradientUnits="userSpaceOnUse">
<stop stop-color="#0077D2"/>
<stop offset="1" stop-color="#0B59A2"/>
</linearGradient>
<linearGradient id="paint2_linear_14_11980" x1="31.477" y1="34.5884" x2="34.4562" y2="38.8978" gradientUnits="userSpaceOnUse">
<stop stop-color="#75DAFF"/>
<stop offset="1" stop-color="#49BEF1"/>
</linearGradient>
<linearGradient id="paint3_linear_14_11980" x1="43.1098" y1="34.5884" x2="46.089" y2="38.8978" gradientUnits="userSpaceOnUse">
<stop stop-color="#75DAFF"/>
<stop offset="1" stop-color="#49BEF1"/>
</linearGradient>
<linearGradient id="paint4_linear_14_11980" x1="54.7427" y1="34.5884" x2="57.7218" y2="38.8978" gradientUnits="userSpaceOnUse">
<stop stop-color="#75DAFF"/>
<stop offset="1" stop-color="#49BEF1"/>
</linearGradient>
<linearGradient id="paint5_linear_14_11980" x1="85.9907" y1="82.8991" x2="119.101" y2="116.009" gradientUnits="userSpaceOnUse">
<stop stop-color="#889097"/>
<stop offset="0.331" stop-color="#848C94"/>
<stop offset="0.669" stop-color="#78828B"/>
<stop offset="1" stop-color="#64717C"/>
</linearGradient>
<linearGradient id="paint6_linear_14_11980" x1="109.926" y1="106.842" x2="93.614" y2="90.5295" gradientUnits="userSpaceOnUse">
<stop stop-color="white"/>
<stop offset="0.242" stop-color="#F2F2F2"/>
<stop offset="1" stop-color="#CCCCCC"/>
</linearGradient>
<linearGradient id="paint7_linear_14_11980" x1="95.2926" y1="92.2109" x2="106.744" y2="103.662" gradientUnits="userSpaceOnUse">
<stop stop-color="#0D61A9"/>
<stop offset="0.363" stop-color="#0E5FA4"/>
<stop offset="0.78" stop-color="#135796"/>
<stop offset="1" stop-color="#16528C"/>
</linearGradient>
</defs>
</svg>
