<svg width="151" height="150" viewBox="0 0 151 150" fill="none" xmlns="http://www.w3.org/2000/svg">
<g id="zoom-out">
<rect x="2.58203" y="2.5" width="145" height="145" rx="7.5" fill="white"/>
<rect x="2.58203" y="2.5" width="145" height="145" rx="7.5" fill="url(#paint0_linear_14_12024)" fill-opacity="0.2"/>
<g id="Group">
<path id="Vector" d="M105.043 96.1195L96.2031 104.959L115.878 124.634C116.366 125.122 117.158 125.122 117.645 124.634L124.715 117.564C125.203 117.077 125.203 116.284 124.715 115.797L105.043 96.1195Z" fill="#199BE2"/>
<path id="Vector_2" d="M94.0821 85.1623L85.2422 94.0022L96.1996 104.957L105.037 96.1197L94.0821 85.1623Z" fill="url(#paint1_radial_14_12024)"/>
<path id="Vector_3" d="M65.0857 105C87.177 105 105.085 87.0911 105.085 64.9998C105.085 42.9085 87.177 25 65.0857 25C42.9944 25 25.0859 42.9085 25.0859 64.9998C25.0859 87.0911 42.9944 105 65.0857 105Z" fill="url(#paint2_linear_14_12024)"/>
<path id="Vector_4" d="M87.5779 62.4998V67.4997C87.5779 68.8797 86.4579 69.9997 85.0779 69.9997H45.0781C43.6981 69.9997 42.5781 68.8797 42.5781 67.4997V62.4998C42.5781 61.1198 43.6981 59.9998 45.0781 59.9998H85.0779C86.4579 59.9998 87.5779 61.1198 87.5779 62.4998Z" fill="url(#paint3_linear_14_12024)"/>
</g>
<rect x="2.58203" y="2.5" width="145" height="145" rx="7.5" stroke="#D5EAF6" stroke-width="5"/>
</g>
<defs>
<linearGradient id="paint0_linear_14_12024" x1="75.082" y1="5" x2="75.082" y2="145" gradientUnits="userSpaceOnUse">
<stop stop-color="#199AE0"/>
<stop offset="0.472222" stop-color="#0D5176" stop-opacity="0.527778"/>
<stop offset="0.940972" stop-color="#12A6F7" stop-opacity="0.465278"/>
<stop offset="1" stop-opacity="0"/>
</linearGradient>
<radialGradient id="paint1_radial_14_12024" cx="0" cy="0" r="1" gradientUnits="userSpaceOnUse" gradientTransform="translate(65.1398 65.2399) scale(49.0097 49.0097)">
<stop offset="0.693" stop-color="#006185"/>
<stop offset="0.921" stop-color="#35C1F1"/>
</radialGradient>
<linearGradient id="paint2_linear_14_12024" x1="37.3634" y1="37.2775" x2="93.433" y2="93.3471" gradientUnits="userSpaceOnUse">
<stop stop-color="#A3FFFF"/>
<stop offset="0.223" stop-color="#9DFBFF"/>
<stop offset="0.53" stop-color="#8BF1FF"/>
<stop offset="0.885" stop-color="#6EE0FF"/>
<stop offset="1" stop-color="#63DAFF"/>
</linearGradient>
<linearGradient id="paint3_linear_14_12024" x1="42.5781" y1="64.9998" x2="87.5779" y2="64.9998" gradientUnits="userSpaceOnUse">
<stop stop-color="#3079D6"/>
<stop offset="1" stop-color="#297CD2"/>
</linearGradient>
</defs>
</svg>
