<svg width="170" height="170" viewBox="0 0 170 170" fill="none" xmlns="http://www.w3.org/2000/svg">
<g clip-path="url(#clip0_46_5681)">
<path d="M150 7.5H20C13.0964 7.5 7.5 13.0964 7.5 20V150C7.5 156.904 13.0964 162.5 20 162.5H150C156.904 162.5 162.5 156.904 162.5 150V20C162.5 13.0964 156.904 7.5 150 7.5Z" fill="white"/>
<path d="M150 7.5H20C13.0964 7.5 7.5 13.0964 7.5 20V150C7.5 156.904 13.0964 162.5 20 162.5H150C156.904 162.5 162.5 156.904 162.5 150V20C162.5 13.0964 156.904 7.5 150 7.5Z" fill="url(#paint0_linear_46_5681)" fill-opacity="0.2"/>
<path d="M150 7.5H20C13.0964 7.5 7.5 13.0964 7.5 20V150C7.5 156.904 13.0964 162.5 20 162.5H150C156.904 162.5 162.5 156.904 162.5 150V20C162.5 13.0964 156.904 7.5 150 7.5Z" stroke="#D5EAF6" stroke-width="15"/>
<path d="M130 110C130 121.045 121.045 130 110 130H60C48.955 130 40 121.045 40 110V60C40 48.955 48.955 40 60 40H110C121.045 40 130 48.955 130 60V110Z" fill="url(#paint1_linear_46_5681)"/>
<path opacity="0.05" d="M124.413 79.9825C123.19 77.93 119.758 77.5 117.093 77.5C113.653 77.5 110.323 78.4775 107.905 80.2175C106.693 81.135 106.183 82.55 106.61 83.82C106.763 84.2725 107.045 84.64 107.383 84.955C104.093 85.945 100.678 86.685 97.3075 87.3825C94.0525 88.06 90.2075 88.39 85.5575 88.39C83.875 88.39 82.2125 88.3475 80.595 88.285C74.8125 88.0675 70.0025 87.335 65.045 85.925C63.9725 85.595 62.9 85.2825 61.83 84.9675C57.4975 83.7 53.405 82.5 49.53 80.4C48.265 79.705 46.58 80.0475 45.685 81.1575C45.1675 81.7925 44.93 82.595 45.015 83.41C45.1 84.2225 45.495 84.955 46.1325 85.4725C50.9375 89.3625 56.195 91.4725 61.76 93.705L62.275 93.9125C68.175 96.1975 74.3775 97.4025 80.71 97.5C82.1275 97.52 83.5475 97.5425 84.9675 97.5425C89.2675 97.5425 94.3375 97.37 99.33 96.095C104.353 94.795 109.975 93.32 115.073 90.1625C114.88 90.705 114.685 91.255 114.455 91.8725C114.043 92.9075 114.128 93.975 114.688 94.8C115.213 95.575 116.1 96.035 117.063 96.035C117.81 96.035 118.558 95.77 119.35 95.165C123.863 91.29 126.133 82.89 124.413 79.9825Z" fill="black"/>
<path opacity="0.07" d="M123.338 80.6225C122.368 78.995 119.01 78.75 117.093 78.75C113.908 78.75 110.843 79.64 108.66 81.2125C107.87 81.81 107.538 82.6575 107.795 83.4225C107.98 83.975 108.588 84.5375 109.725 84.555L110.07 84.51C110.925 84.4025 112.045 84.265 113.193 84.17C108.29 86.3775 102.855 87.5125 97.56 88.6025C94.22 89.2975 90.2925 89.6375 85.555 89.6375C83.8575 89.6375 82.1775 89.595 80.5475 89.5325C74.6625 89.31 69.76 88.5625 64.6775 87.1175C63.61 86.79 62.5425 86.4775 61.4775 86.165C57.08 84.8775 52.9275 83.66 48.9275 81.495C48.18 81.085 47.1825 81.2875 46.65 81.945C46.345 82.32 46.2025 82.795 46.255 83.2775C46.305 83.76 46.54 84.1925 46.9175 84.5C51.575 88.2725 56.75 90.3475 62.225 92.545L62.725 92.745C68.49 94.975 74.545 96.155 80.7275 96.2475C82.1375 96.2675 83.5525 96.29 84.965 96.29C89.1875 96.29 94.16 96.1225 99.015 94.8825C104.453 93.475 110.618 91.88 115.923 88.12C116.858 87.4625 117.188 86.2275 116.708 85.1825C116.478 84.6875 116.1 84.315 115.65 84.07C117.308 84.1 117.758 84.365 117.773 84.3225C117.955 84.85 117.733 86.645 115.613 92.3325C115.263 93.215 115.528 93.815 115.718 94.0975C116.015 94.535 116.503 94.785 117.058 94.785C117.53 94.785 118.018 94.605 118.528 94.2175C123.018 90.365 124.63 82.155 123.338 80.6225Z" fill="black"/>
<path opacity="0.05" d="M67.455 40V60C67.455 62.7575 69.6975 65 72.455 65H86.0425L102.545 48.5375V40H67.455Z" fill="black"/>
<path opacity="0.07" d="M68.705 40V60C68.705 62.0675 70.3875 63.75 72.455 63.75H85.525L101.295 48.02V40H68.705Z" fill="black"/>
<mask id="mask0_46_5681" style="mask-type:alpha" maskUnits="userSpaceOnUse" x="108" y="80" width="15" height="14">
<path d="M117.093 80C114.585 80 111.608 80.6325 109.415 82.21C108.788 82.685 108.788 83.315 109.57 83.315C112.078 83 117.72 82.21 118.818 83.63C119.758 84.8925 117.72 90.265 116.78 92.7925C116.468 93.5825 117.093 93.74 117.72 93.2675C121.95 89.6325 123.05 82.2075 122.265 81.26C121.795 80.475 119.6 80 117.093 80Z" fill="white"/>
</mask>
<g mask="url(#mask0_46_5681)">
<path d="M110.05 93.7425L108.788 92.2525V80H123.05V93.7425H110.05Z" fill="#343434"/>
</g>
<path d="M48.3675 82.6175C53.4425 85.3625 58.865 86.6475 64.3125 88.3175C69.8025 89.88 74.88 90.5725 80.5 90.785C86.1075 90.9975 92.2825 90.9825 97.815 89.83C103.325 88.6925 108.882 87.55 113.992 85.195L114.08 85.155C114.647 84.895 115.315 85.1425 115.575 85.7075C115.805 86.2075 115.637 86.79 115.202 87.0975C110.207 90.64 104.562 92.155 98.7025 93.6725C92.8525 95.17 86.77 95.09 80.75 95C74.6725 94.9075 68.7625 93.7425 63.18 91.5825C57.615 89.3475 52.3575 87.295 47.7075 83.5325C47.465 83.335 47.4275 82.98 47.625 82.7375C47.7975 82.5225 48.1 82.47 48.33 82.595L48.3675 82.6175Z" fill="url(#paint2_linear_46_5681)"/>
<path d="M85.01 62.5H72.4575C71.0775 62.5 69.9575 61.38 69.9575 60V40H100.045V47.5L85.01 62.5Z" fill="url(#paint3_linear_46_5681)"/>
<path d="M85.045 62.5V52.5C85.045 49.7375 87.2825 47.5 90.045 47.5H100.045L85.045 62.5Z" fill="url(#paint4_linear_46_5681)"/>
</g>
<defs>
<linearGradient id="paint0_linear_46_5681" x1="85" y1="15" x2="85" y2="155" gradientUnits="userSpaceOnUse">
<stop stop-color="#C7CED2"/>
<stop offset="0.472222" stop-color="#0D5176" stop-opacity="0.527778"/>
<stop offset="0.940972" stop-color="#12A6F7" stop-opacity="0.465278"/>
<stop offset="1" stop-opacity="0"/>
</linearGradient>
<linearGradient id="paint1_linear_46_5681" x1="54.6575" y1="37.0925" x2="111.588" y2="126.98" gradientUnits="userSpaceOnUse">
<stop stop-color="#E2BF85"/>
<stop offset="1" stop-color="#CAA36F"/>
</linearGradient>
<linearGradient id="paint2_linear_46_5681" x1="53.9175" y1="51.83" x2="81.4175" y2="84.33" gradientUnits="userSpaceOnUse">
<stop stop-color="#4C4C4C"/>
<stop offset="1" stop-color="#343434"/>
</linearGradient>
<linearGradient id="paint3_linear_46_5681" x1="72.855" y1="36.9025" x2="99.4175" y2="66.59" gradientUnits="userSpaceOnUse">
<stop stop-color="#00B3EE"/>
<stop offset="1" stop-color="#0082D8"/>
</linearGradient>
<linearGradient id="paint4_linear_46_5681" x1="88.71" y1="50.94" x2="99.335" y2="62.19" gradientUnits="userSpaceOnUse">
<stop stop-color="#00B3EE"/>
<stop offset="1" stop-color="#0082D8"/>
</linearGradient>
<clipPath id="clip0_46_5681">
<rect width="170" height="170" fill="white"/>
</clipPath>
</defs>
</svg>
