<svg width="179" height="179" viewBox="0 0 179 179" fill="none" xmlns="http://www.w3.org/2000/svg">
<g filter="url(#filter0_d_254_1319)">
<path d="M154.5 8H24.5C17.5964 8 12 13.5964 12 20.5V150.5C12 157.404 17.5964 163 24.5 163H154.5C161.404 163 167 157.404 167 150.5V20.5C167 13.5964 161.404 8 154.5 8Z" fill="white"/>
<path d="M154.5 8H24.5C17.5964 8 12 13.5964 12 20.5V150.5C12 157.404 17.5964 163 24.5 163H154.5C161.404 163 167 157.404 167 150.5V20.5C167 13.5964 161.404 8 154.5 8Z" fill="url(#paint0_linear_254_1319)" fill-opacity="0.2"/>
<path d="M154.5 8H24.5C17.5964 8 12 13.5964 12 20.5V150.5C12 157.404 17.5964 163 24.5 163H154.5C161.404 163 167 157.404 167 150.5V20.5C167 13.5964 161.404 8 154.5 8Z" stroke="#D5EAF6" stroke-width="15"/>
</g>
<path d="M46.2857 43.2858C45 44.5715 45 45.4072 45 85.7786C45 126.986 45.0643 128.85 47.1857 130.2C47.5714 130.457 66.7929 130.714 89.8714 130.714H131.85L133.393 129.107L135 127.564V86.8715C135 64.5001 134.807 45.5358 134.614 44.7644C134.357 43.9929 133.393 43.0929 132.3 42.7072C130.95 42.2572 116.486 42.0001 88.9714 42.0001C48.4071 42.0001 47.5714 42.0001 46.2857 43.2858ZM119.571 64.2429C119.571 65.0144 114.429 73.3715 111.471 77.3572C97.4571 96.5144 75.0214 109.436 66.15 103.521C61.0071 100.114 60.3643 93.4286 64.0929 83.2715C65.1214 80.5715 65.6357 80.1215 69.1714 79.0286L70.5857 78.5786L69.3 82.8215C66.4071 92.2715 70.7786 96.7072 79.7786 93.5572C88.3929 90.5358 99.9643 79.7358 104.85 70.1572C106.007 67.9715 106.521 67.5858 112.05 65.8501C118.221 63.9215 119.571 63.6001 119.571 64.2429ZM90 73.5001C90 74.3358 84.4071 81.1501 82.0929 83.1429C76.05 88.2858 70.65 88.1572 70.7786 82.9501C70.8429 78.9001 71.2929 78.5786 80.1 75.6858C89.1643 72.7286 90 72.5358 90 73.5001ZM105.429 99.8572C105.429 100.179 105.171 100.5 104.786 100.5C104.464 100.5 104.143 101.529 104.143 102.75C104.143 104.293 103.821 105 103.179 105C102.536 105 102.214 104.293 102.214 102.75C102.214 101.529 101.957 100.5 101.571 100.5C101.25 100.5 100.929 100.179 100.929 99.8572C100.929 99.4715 101.957 99.2144 103.179 99.2144C104.4 99.2144 105.429 99.4715 105.429 99.8572ZM108.514 100.95L109.157 102.75L109.607 100.95C110.379 98.1215 112.114 98.9572 112.371 102.3C112.5 104.421 112.371 105 111.6 105C111.021 105 110.507 104.486 110.507 103.843C110.443 102.814 110.379 102.814 110.121 103.843C109.736 105.45 108.707 105.257 108 103.521L107.421 102.107V103.521C107.293 106.35 106.071 105 106.071 102.107C106.071 98.7644 107.486 98.1215 108.514 100.95Z" fill="url(#paint1_linear_254_1319)"/>
<defs>
<filter id="filter0_d_254_1319" x="0.5" y="0.5" width="178" height="178" filterUnits="userSpaceOnUse" color-interpolation-filters="sRGB">
<feFlood flood-opacity="0" result="BackgroundImageFix"/>
<feColorMatrix in="SourceAlpha" type="matrix" values="0 0 0 0 0 0 0 0 0 0 0 0 0 0 0 0 0 0 127 0" result="hardAlpha"/>
<feOffset dy="4"/>
<feGaussianBlur stdDeviation="2"/>
<feComposite in2="hardAlpha" operator="out"/>
<feColorMatrix type="matrix" values="0 0 0 0 0.8375 0 0 0 0 0.732812 0 0 0 0 0.732812 0 0 0 0.25 0"/>
<feBlend mode="normal" in2="BackgroundImageFix" result="effect1_dropShadow_254_1319"/>
<feBlend mode="normal" in="SourceGraphic" in2="effect1_dropShadow_254_1319" result="shape"/>
</filter>
<linearGradient id="paint0_linear_254_1319" x1="89.5" y1="15.5" x2="89.5" y2="155.5" gradientUnits="userSpaceOnUse">
<stop stop-color="white"/>
<stop offset="0.472222" stop-color="#0D5176" stop-opacity="0.527778"/>
<stop offset="0.940972" stop-color="#12A6F7" stop-opacity="0.465278"/>
<stop offset="1" stop-opacity="0"/>
</linearGradient>
<linearGradient id="paint1_linear_254_1319" x1="90" y1="130.714" x2="90" y2="42.0001" gradientUnits="userSpaceOnUse">
<stop stop-color="#12A6F7" stop-opacity="0.465278"/>
<stop offset="0.529514" stop-color="#2682D7" stop-opacity="0.923876"/>
<stop offset="1" stop-color="#297CD2"/>
</linearGradient>
</defs>
</svg>
