<svg width="199" height="199" viewBox="0 0 199 199" fill="none" xmlns="http://www.w3.org/2000/svg">
<g filter="url(#filter0_d_54_4249)">
<path d="M172.887 8H26.1129C18.3186 8 12 14.3186 12 22.1129V168.887C12 176.681 18.3186 183 26.1129 183H172.887C180.681 183 187 176.681 187 168.887V22.1129C187 14.3186 180.681 8 172.887 8Z" fill="white"/>
<path d="M172.887 8H26.1129C18.3186 8 12 14.3186 12 22.1129V168.887C12 176.681 18.3186 183 26.1129 183H172.887C180.681 183 187 176.681 187 168.887V22.1129C187 14.3186 180.681 8 172.887 8Z" fill="url(#paint0_linear_54_4249)" fill-opacity="0.2"/>
<path d="M172.887 8H26.1129C18.3186 8 12 14.3186 12 22.1129V168.887C12 176.681 18.3186 183 26.1129 183H172.887C180.681 183 187 176.681 187 168.887V22.1129C187 14.3186 180.681 8 172.887 8Z" stroke="#D5EAF6" stroke-width="15"/>
</g>
<g filter="url(#filter1_bdd_54_4249)">
<path d="M145 72.5H77.5V45H142.5C143.88 45 145 46.12 145 47.5V72.5Z" fill="url(#paint1_linear_54_4249)"/>
<path d="M120 72.5H57.5C56.12 72.5 55 71.38 55 70V47.5C55 46.12 56.12 45 57.5 45H120C121.38 45 122.5 46.12 122.5 47.5V70C122.5 71.38 121.38 72.5 120 72.5Z" fill="url(#paint2_linear_54_4249)"/>
<path opacity="0.05" d="M145 65H55V70C55 71.38 56.12 72.5 57.5 72.5H77.5H120H145V65Z" fill="black"/>
<path opacity="0.07" d="M145 66.25H55V70C55 71.38 56.12 72.5 57.5 72.5H77.5H120H145V66.25Z" fill="black"/>
<path d="M145 135H117.5V67.5H147.5C148.88 67.5 150 68.62 150 70V130C150 132.762 147.763 135 145 135Z" fill="url(#paint3_linear_54_4249)"/>
<path d="M117.5 135H55C52.2375 135 50 132.762 50 130V70C50 68.62 51.12 67.5 52.5 67.5H122.5V130C122.5 132.762 120.262 135 117.5 135Z" fill="url(#paint4_linear_54_4249)"/>
<path d="M122.5 67.5H51.545C50.5975 67.5 49.7325 68.035 49.31 68.8825L43.405 80.6925C42.99 81.5225 43.5925 82.5 44.5225 82.5H113.455C114.402 82.5 115.267 81.965 115.69 81.1175L122.5 67.5Z" fill="url(#paint5_linear_54_4249)"/>
<path d="M122.5 67.5H148.455C149.403 67.5 150.268 68.035 150.69 68.8825L156.595 80.6925C157.01 81.5225 156.408 82.5 155.478 82.5H131.545C130.597 82.5 129.732 81.965 129.31 81.1175L122.5 67.5Z" fill="url(#paint6_linear_54_4249)"/>
</g>
<g filter="url(#filter2_bdd_54_4249)">
<path d="M145 72.5H77.5V45H142.5C143.88 45 145 46.12 145 47.5V72.5Z" fill="url(#paint7_linear_54_4249)"/>
<path d="M120 72.5H57.5C56.12 72.5 55 71.38 55 70V47.5C55 46.12 56.12 45 57.5 45H120C121.38 45 122.5 46.12 122.5 47.5V70C122.5 71.38 121.38 72.5 120 72.5Z" fill="url(#paint8_linear_54_4249)"/>
<path opacity="0.05" d="M145 65H55V70C55 71.38 56.12 72.5 57.5 72.5H77.5H120H145V65Z" fill="black"/>
<path opacity="0.07" d="M145 66.25H55V70C55 71.38 56.12 72.5 57.5 72.5H77.5H120H145V66.25Z" fill="black"/>
<path d="M145 135H117.5V67.5H147.5C148.88 67.5 150 68.62 150 70V130C150 132.762 147.763 135 145 135Z" fill="url(#paint9_linear_54_4249)"/>
<path d="M117.5 135H55C52.2375 135 50 132.762 50 130V70C50 68.62 51.12 67.5 52.5 67.5H122.5V130C122.5 132.762 120.262 135 117.5 135Z" fill="url(#paint10_linear_54_4249)"/>
<path d="M122.5 67.5H51.545C50.5975 67.5 49.7325 68.035 49.31 68.8825L43.405 80.6925C42.99 81.5225 43.5925 82.5 44.5225 82.5H113.455C114.402 82.5 115.267 81.965 115.69 81.1175L122.5 67.5Z" fill="url(#paint11_linear_54_4249)"/>
<path d="M122.5 67.5H148.455C149.403 67.5 150.268 68.035 150.69 68.8825L156.595 80.6925C157.01 81.5225 156.408 82.5 155.478 82.5H131.545C130.597 82.5 129.732 81.965 129.31 81.1175L122.5 67.5Z" fill="url(#paint12_linear_54_4249)"/>
</g>
<defs>
<filter id="filter0_d_54_4249" x="0.5" y="0.5" width="198" height="198" filterUnits="userSpaceOnUse" color-interpolation-filters="sRGB">
<feFlood flood-opacity="0" result="BackgroundImageFix"/>
<feColorMatrix in="SourceAlpha" type="matrix" values="0 0 0 0 0 0 0 0 0 0 0 0 0 0 0 0 0 0 127 0" result="hardAlpha"/>
<feOffset dy="4"/>
<feGaussianBlur stdDeviation="2"/>
<feComposite in2="hardAlpha" operator="out"/>
<feColorMatrix type="matrix" values="0 0 0 0 0.8375 0 0 0 0 0.732812 0 0 0 0 0.732812 0 0 0 0.25 0"/>
<feBlend mode="normal" in2="BackgroundImageFix" result="effect1_dropShadow_54_4249"/>
<feBlend mode="normal" in="SourceGraphic" in2="effect1_dropShadow_54_4249" result="shape"/>
</filter>
<filter id="filter1_bdd_54_4249" x="36" y="26" width="128" height="132" filterUnits="userSpaceOnUse" color-interpolation-filters="sRGB">
<feFlood flood-opacity="0" result="BackgroundImageFix"/>
<feGaussianBlur in="BackgroundImageFix" stdDeviation="2"/>
<feComposite in2="SourceAlpha" operator="in" result="effect1_backgroundBlur_54_4249"/>
<feColorMatrix in="SourceAlpha" type="matrix" values="0 0 0 0 0 0 0 0 0 0 0 0 0 0 0 0 0 0 127 0" result="hardAlpha"/>
<feOffset dy="4"/>
<feGaussianBlur stdDeviation="2"/>
<feComposite in2="hardAlpha" operator="out"/>
<feColorMatrix type="matrix" values="0 0 0 0 0.991667 0 0 0 0 0.991667 0 0 0 0 0.991667 0 0 0 0.25 0"/>
<feBlend mode="normal" in2="effect1_backgroundBlur_54_4249" result="effect2_dropShadow_54_4249"/>
<feColorMatrix in="SourceAlpha" type="matrix" values="0 0 0 0 0 0 0 0 0 0 0 0 0 0 0 0 0 0 127 0" result="hardAlpha"/>
<feOffset dy="4"/>
<feGaussianBlur stdDeviation="2"/>
<feComposite in2="hardAlpha" operator="out"/>
<feColorMatrix type="matrix" values="0 0 0 0 0 0 0 0 0 0 0 0 0 0 0 0 0 0 0.25 0"/>
<feBlend mode="normal" in2="effect2_dropShadow_54_4249" result="effect3_dropShadow_54_4249"/>
<feBlend mode="normal" in="SourceGraphic" in2="effect3_dropShadow_54_4249" result="shape"/>
</filter>
<filter id="filter2_bdd_54_4249" x="36" y="26" width="128" height="132" filterUnits="userSpaceOnUse" color-interpolation-filters="sRGB">
<feFlood flood-opacity="0" result="BackgroundImageFix"/>
<feGaussianBlur in="BackgroundImageFix" stdDeviation="2"/>
<feComposite in2="SourceAlpha" operator="in" result="effect1_backgroundBlur_54_4249"/>
<feColorMatrix in="SourceAlpha" type="matrix" values="0 0 0 0 0 0 0 0 0 0 0 0 0 0 0 0 0 0 127 0" result="hardAlpha"/>
<feOffset dy="4"/>
<feGaussianBlur stdDeviation="2"/>
<feComposite in2="hardAlpha" operator="out"/>
<feColorMatrix type="matrix" values="0 0 0 0 0.991667 0 0 0 0 0.991667 0 0 0 0 0.991667 0 0 0 0.25 0"/>
<feBlend mode="normal" in2="effect1_backgroundBlur_54_4249" result="effect2_dropShadow_54_4249"/>
<feColorMatrix in="SourceAlpha" type="matrix" values="0 0 0 0 0 0 0 0 0 0 0 0 0 0 0 0 0 0 127 0" result="hardAlpha"/>
<feOffset dy="4"/>
<feGaussianBlur stdDeviation="2"/>
<feComposite in2="hardAlpha" operator="out"/>
<feColorMatrix type="matrix" values="0 0 0 0 0 0 0 0 0 0 0 0 0 0 0 0 0 0 0.25 0"/>
<feBlend mode="normal" in2="effect2_dropShadow_54_4249" result="effect3_dropShadow_54_4249"/>
<feBlend mode="normal" in="SourceGraphic" in2="effect3_dropShadow_54_4249" result="shape"/>
</filter>
<linearGradient id="paint0_linear_54_4249" x1="99.5" y1="16.4677" x2="99.5" y2="174.532" gradientUnits="userSpaceOnUse">
<stop stop-color="white"/>
<stop offset="0.472222" stop-color="#0D5176" stop-opacity="0.527778"/>
<stop offset="0.940972" stop-color="#12A6F7" stop-opacity="0.465278"/>
<stop offset="1" stop-opacity="0"/>
</linearGradient>
<linearGradient id="paint1_linear_54_4249" x1="101.307" y1="49.5675" x2="139.18" y2="87.3325" gradientUnits="userSpaceOnUse">
<stop stop-color="#C26715"/>
<stop offset="0.508" stop-color="#B85515"/>
<stop offset="1" stop-color="#AD3F16"/>
</linearGradient>
<linearGradient id="paint2_linear_54_4249" x1="58.23" y1="34.95" x2="109.933" y2="75.2675" gradientUnits="userSpaceOnUse">
<stop stop-color="#EBA84B"/>
<stop offset="1" stop-color="#D97218"/>
</linearGradient>
<linearGradient id="paint3_linear_54_4249" x1="108.835" y1="76.34" x2="156.125" y2="125.032" gradientUnits="userSpaceOnUse">
<stop stop-color="#EBA600"/>
<stop offset="1" stop-color="#C28200"/>
</linearGradient>
<linearGradient id="paint4_linear_54_4249" x1="53.545" y1="66.0875" x2="119.225" y2="133.717" gradientUnits="userSpaceOnUse">
<stop stop-color="#FFD869"/>
<stop offset="1" stop-color="#FEC52B"/>
</linearGradient>
<linearGradient id="paint5_linear_54_4249" x1="82.885" y1="81.85" x2="82.885" y2="2.5725" gradientUnits="userSpaceOnUse">
<stop stop-color="#EBA600"/>
<stop offset="1" stop-color="#C28200"/>
</linearGradient>
<linearGradient id="paint6_linear_54_4249" x1="139.615" y1="81.8225" x2="139.615" y2="71.43" gradientUnits="userSpaceOnUse">
<stop stop-color="#FFD869"/>
<stop offset="1" stop-color="#FEC52B"/>
</linearGradient>
<linearGradient id="paint7_linear_54_4249" x1="101.307" y1="49.5675" x2="139.18" y2="87.3325" gradientUnits="userSpaceOnUse">
<stop stop-color="#C26715"/>
<stop offset="0.508" stop-color="#B85515"/>
<stop offset="1" stop-color="#AD3F16"/>
</linearGradient>
<linearGradient id="paint8_linear_54_4249" x1="58.23" y1="34.95" x2="109.933" y2="75.2675" gradientUnits="userSpaceOnUse">
<stop stop-color="#EBA84B"/>
<stop offset="1" stop-color="#D97218"/>
</linearGradient>
<linearGradient id="paint9_linear_54_4249" x1="108.835" y1="76.34" x2="156.125" y2="125.032" gradientUnits="userSpaceOnUse">
<stop stop-color="#EBA600"/>
<stop offset="1" stop-color="#C28200"/>
</linearGradient>
<linearGradient id="paint10_linear_54_4249" x1="53.545" y1="66.0875" x2="119.225" y2="133.717" gradientUnits="userSpaceOnUse">
<stop stop-color="#FFD869"/>
<stop offset="1" stop-color="#FEC52B"/>
</linearGradient>
<linearGradient id="paint11_linear_54_4249" x1="82.885" y1="81.85" x2="82.885" y2="2.5725" gradientUnits="userSpaceOnUse">
<stop stop-color="#EBA600"/>
<stop offset="1" stop-color="#C28200"/>
</linearGradient>
<linearGradient id="paint12_linear_54_4249" x1="139.615" y1="81.8225" x2="139.615" y2="71.43" gradientUnits="userSpaceOnUse">
<stop stop-color="#FFD869"/>
<stop offset="1" stop-color="#FEC52B"/>
</linearGradient>
</defs>
</svg>
