<svg width="199" height="199" viewBox="0 0 199 199" fill="none" xmlns="http://www.w3.org/2000/svg">
<g filter="url(#filter0_d_139_916)">
<path d="M172.887 8H26.1129C18.3186 8 12 14.3186 12 22.1129V168.887C12 176.681 18.3186 183 26.1129 183H172.887C180.681 183 187 176.681 187 168.887V22.1129C187 14.3186 180.681 8 172.887 8Z" fill="white"/>
<path d="M172.887 8H26.1129C18.3186 8 12 14.3186 12 22.1129V168.887C12 176.681 18.3186 183 26.1129 183H172.887C180.681 183 187 176.681 187 168.887V22.1129C187 14.3186 180.681 8 172.887 8Z" fill="url(#paint0_linear_139_916)" fill-opacity="0.2"/>
<path d="M172.887 8H26.1129C18.3186 8 12 14.3186 12 22.1129V168.887C12 176.681 18.3186 183 26.1129 183H172.887C180.681 183 187 176.681 187 168.887V22.1129C187 14.3186 180.681 8 172.887 8Z" stroke="#D5EAF6" stroke-width="15" stroke-linecap="round"/>
</g>
<path d="M71.381 81.0372L65.3891 75.0453C61.0745 81.5585 58.5483 89.3595 58.5483 97.758C58.5483 105.316 60.5944 112.394 64.1508 118.482C64.7545 119.517 66.1989 119.663 67.0458 118.814L70.425 115.435C70.9916 114.868 71.0967 114.007 70.7176 113.302C68.2264 108.668 66.7903 103.387 66.7903 97.758C66.7903 91.6466 68.4819 85.9453 71.381 81.0372Z" fill="#50E6FF" fill-opacity="0.5"/>
<path d="M132.726 97.758C132.726 103.869 131.034 109.571 128.135 114.479L134.127 120.471C138.442 113.958 140.968 106.154 140.968 97.758C140.968 90.2002 138.922 83.1224 135.365 77.0337C134.762 75.9993 133.317 75.8551 132.47 76.7019L129.091 80.0811C128.524 80.6478 128.419 81.509 128.798 82.2137C131.29 86.8478 132.726 92.1288 132.726 97.758Z" fill="#199BE2" fill-opacity="0.5"/>
<path d="M82.0811 68.425C82.6478 68.9916 83.509 69.0967 84.2137 68.7176C88.8478 66.2264 94.1288 64.7903 99.758 64.7903C105.869 64.7903 111.571 66.4819 116.479 69.381L122.473 63.3871C115.958 59.0745 108.157 56.5483 99.758 56.5483C92.2373 56.5483 85.1945 58.5738 79.1264 62.0972C78.0529 62.7215 77.8262 64.1701 78.704 65.0478L82.0811 68.425Z" fill="#35C1F1" fill-opacity="0.5"/>
<path d="M117.435 127.091C116.868 126.524 116.007 126.419 115.302 126.798C110.668 129.29 105.387 130.726 99.758 130.726C93.6466 130.726 87.9453 129.034 83.0372 126.135L77.0453 132.127C83.5585 136.442 91.3615 138.968 99.758 138.968C107.316 138.968 114.394 136.922 120.482 133.365C121.517 132.762 121.663 131.317 120.814 130.47L117.435 127.091Z" fill="#0078D4" fill-opacity="0.5"/>
<path d="M124.348 73.1867L114.387 72.8447C113.683 72.82 113.332 71.9772 113.817 71.4621L123.412 61.2112C123.911 60.6775 124.805 61.0113 124.834 61.7408L125.248 72.2843C125.267 72.7891 124.853 73.2032 124.348 73.1867Z" fill="#35C1F1" fill-opacity="0.5"/>
<path d="M75.1682 122.329L85.1286 122.671C85.8333 122.696 86.1836 123.539 85.6993 124.054L76.1037 134.305C75.605 134.838 74.7108 134.505 74.6819 133.775L74.2678 123.232C74.2492 122.727 74.6634 122.313 75.1682 122.329Z" fill="#0078D4" fill-opacity="0.5"/>
<path d="M124.329 122.348L124.671 112.387C124.696 111.683 125.539 111.332 126.054 111.817L136.305 121.412C136.838 121.911 136.505 122.805 135.775 122.834L125.232 123.248C124.727 123.267 124.313 122.853 124.329 122.348Z" fill="#199BE2" fill-opacity="0.5"/>
<path d="M75.1867 73.1682L74.8447 83.1286C74.82 83.8333 73.9772 84.1836 73.4621 83.6993L63.2092 74.1037C62.6755 73.605 63.0093 72.7108 63.7387 72.6819L74.2822 72.2678C74.7891 72.2492 75.2032 72.6634 75.1867 73.1682Z" fill="#50E6FF" fill-opacity="0.5"/>
<g filter="url(#filter1_bd_139_916)">
<g filter="url(#filter2_dd_139_916)">
<path d="M38.5 83.5V49H98.5V83.5C98.5 85.15 97.15 86.5 95.5 86.5H41.5C39.85 86.5 38.5 85.15 38.5 83.5Z" fill="url(#paint1_linear_139_916)"/>
<path d="M98.5 41.5V49H38.5V41.5C38.5 39.85 39.85 38.5 41.5 38.5H95.5C97.15 38.5 98.5 39.85 98.5 41.5Z" fill="url(#paint2_linear_139_916)"/>
<path d="M57.25 46H94.75C95.164 46 95.5 45.664 95.5 45.25V42.25C95.5 41.836 95.164 41.5 94.75 41.5H57.25C56.836 41.5 56.5 41.836 56.5 42.25V45.25C56.5 45.664 56.836 46 57.25 46Z" fill="url(#paint3_linear_139_916)"/>
<path d="M43.75 46C44.9927 46 46 44.9927 46 43.75C46 42.5074 44.9927 41.5 43.75 41.5C42.5074 41.5 41.5 42.5074 41.5 43.75C41.5 44.9927 42.5074 46 43.75 46Z" fill="url(#paint4_linear_139_916)"/>
<path d="M51.2453 46C52.488 46 53.4953 44.9927 53.4953 43.75C53.4953 42.5074 52.488 41.5 51.2453 41.5C50.0027 41.5 48.9953 42.5074 48.9953 43.75C48.9953 44.9927 50.0027 46 51.2453 46Z" fill="url(#paint5_linear_139_916)"/>
<path d="M54.5 67.5333C54.5 59.8939 60.6939 53.7 68.3333 53.7C75.9728 53.7 82.1667 59.8939 82.1667 67.5333C82.1667 75.1728 75.9728 81.3667 68.3333 81.3667C60.6939 81.3667 54.5 75.1728 54.5 67.5333Z" fill="#3079D6" fill-opacity="0.51"/>
<path d="M80.0917 67.5333C80.0917 65.293 79.6262 63.1821 78.8197 61.3083H80.6747C80.434 60.8318 80.1733 60.3677 79.8807 59.925H78.1432C76.0371 56.1789 72.4287 53.7 68.3333 53.7C64.238 53.7 60.6296 56.1789 58.5234 59.925H56.786C56.4934 60.3677 56.2326 60.8318 55.9919 61.3083H57.847C57.0405 63.1821 56.575 65.293 56.575 67.5333C56.575 69.7736 57.0405 71.8846 57.847 73.7583H55.9919C56.2326 74.2349 56.4934 74.699 56.786 75.1417H58.5234C60.6296 78.8877 64.238 81.3667 68.3333 81.3667C72.4287 81.3667 76.0371 78.8877 78.1432 75.1417H79.8807C80.1733 74.699 80.434 74.2349 80.6747 73.7583H78.8197C79.6262 71.8846 80.0917 69.7736 80.0917 67.5333ZM78.7083 67.5333C78.7083 69.802 78.1917 71.9247 77.305 73.7583H73.2981C73.6737 71.7988 73.8667 69.645 73.8667 67.5333C73.8667 65.4217 73.6737 63.2678 73.2981 61.3083H77.305C78.1917 63.1419 78.7083 65.2647 78.7083 67.5333ZM68.3333 79.9833C67.1644 79.9833 65.9187 78.1594 65.1005 75.1417H71.5669C70.7479 78.1594 69.5023 79.9833 68.3333 79.9833ZM64.7699 73.7583C64.4054 71.969 64.1833 69.8649 64.1833 67.5333C64.1833 65.2017 64.4054 63.0977 64.7699 61.3083H71.8968C72.2613 63.0977 72.4833 65.2017 72.4833 67.5333C72.4833 69.8649 72.2613 71.969 71.8968 73.7583H64.7699ZM68.3333 55.0833C69.5023 55.0833 70.7479 56.9073 71.5662 59.925H65.0998C65.9187 56.9073 67.1644 55.0833 68.3333 55.0833ZM76.5275 59.925H72.9924C72.5594 58.1965 71.9694 56.6852 71.2273 55.5862C73.3569 56.3304 75.2009 57.8721 76.5275 59.925ZM65.4394 55.5862C64.6972 56.6859 64.1073 58.1965 63.6743 59.925H60.1392C61.4658 57.8721 63.3098 56.3304 65.4394 55.5862ZM57.9583 67.5333C57.9583 65.2647 58.475 63.1419 59.3617 61.3083H63.3686C62.993 63.2678 62.8 65.4217 62.8 67.5333C62.8 69.645 62.993 71.7988 63.3686 73.7583H59.3617C58.475 71.9247 57.9583 69.802 57.9583 67.5333ZM60.1392 75.1417H63.6743C64.1073 76.8701 64.6972 78.3814 65.4394 79.4805C63.3098 78.7363 61.4658 77.1945 60.1392 75.1417ZM71.2273 79.4805C71.9694 78.3807 72.5594 76.8701 72.9924 75.1417H76.5275C75.2009 77.1945 73.3569 78.7363 71.2273 79.4805Z" fill="#D9D9D9" fill-opacity="0.3"/>
<path d="M81.0144 64.075H79.1884C78.9463 64.075 78.7374 64.2445 78.6876 64.481L78.3618 66.0317L77.96 64.4596C77.9025 64.2334 77.6985 64.075 77.4647 64.075H75.802C75.5682 64.075 75.3641 64.2334 75.306 64.4603L74.9042 66.0324L74.5784 64.4817C74.5293 64.2445 74.3204 64.075 74.0783 64.075H70.8884C70.6463 64.075 70.4374 64.2445 70.3876 64.481L70.0618 66.0317L69.66 64.4596C69.6025 64.2334 69.3985 64.075 69.1647 64.075H67.502C67.2682 64.075 67.0641 64.2334 67.006 64.4603L66.6042 66.0324L66.2784 64.4817C66.2293 64.2445 66.0204 64.075 65.7783 64.075H62.5884C62.3463 64.075 62.1374 64.2445 62.0876 64.481L61.7618 66.0317L61.36 64.4596C61.3025 64.2334 61.0985 64.075 60.8647 64.075H59.202C58.9682 64.075 58.7641 64.2334 58.706 64.4603L58.3049 66.0324L57.9791 64.481C57.9293 64.2445 57.7204 64.075 57.4783 64.075H55.6523C55.3196 64.075 55.0755 64.3876 55.1564 64.7106L56.6296 70.6043C56.6864 70.8319 56.8911 70.9917 57.1256 70.9917H59.0996C59.3313 70.9917 59.5333 70.8388 59.5927 70.6154C59.7255 70.1209 59.951 69.2784 60.0326 68.9692C60.1143 69.2784 60.3397 70.1209 60.4725 70.6154C60.5334 70.8388 60.7354 70.9917 60.9671 70.9917H62.9411C63.1756 70.9917 63.3803 70.8319 63.437 70.6043L64.1833 67.6198L64.9296 70.6043C64.9864 70.8319 65.1911 70.9917 65.4256 70.9917H67.3996C67.6313 70.9917 67.8333 70.8388 67.8927 70.6154C68.0255 70.1209 68.251 69.2784 68.3326 68.9692C68.4143 69.2784 68.6397 70.1209 68.7725 70.6154C68.8334 70.8388 69.0354 70.9917 69.2671 70.9917H71.2411C71.4756 70.9917 71.6803 70.8319 71.737 70.6043L72.4833 67.6198L73.2296 70.6043C73.2864 70.8319 73.4911 70.9917 73.7256 70.9917H75.6996C75.9313 70.9917 76.1333 70.8388 76.1927 70.6154C76.3255 70.1209 76.551 69.2784 76.6326 68.9692C76.7143 69.2784 76.9397 70.1209 77.0725 70.6154C77.1334 70.8388 77.3354 70.9917 77.5671 70.9917H79.5411C79.7756 70.9917 79.9803 70.8319 80.037 70.6043L81.5103 64.7106C81.5912 64.3876 81.347 64.075 81.0144 64.075Z" fill="white"/>
<path d="M80.7508 64.4208H79.3557C79.1801 64.4208 79.0279 64.5439 78.9919 64.7162L78.395 67.5582L77.6653 64.7003C77.6231 64.5357 77.4751 64.4208 77.305 64.4208H75.9617C75.7923 64.4208 75.6436 64.5357 75.6014 64.7003L74.8717 67.5582L74.2741 64.7162C74.2381 64.5439 74.0859 64.4208 73.9103 64.4208H71.0544C70.8787 64.4208 70.7265 64.5439 70.6905 64.7162L70.0936 67.5582L69.3639 64.7003C69.3217 64.5357 69.1737 64.4208 69.0036 64.4208H67.6604C67.4909 64.4208 67.3422 64.5357 67.3 64.7003L66.5703 67.5582L65.9727 64.7162C65.9367 64.5439 65.7846 64.4208 65.6089 64.4208H62.753C62.5773 64.4208 62.4251 64.5439 62.3892 64.7162L61.7923 67.5582L61.0625 64.7003C61.0204 64.5357 60.8723 64.4208 60.7022 64.4208H59.359C59.1895 64.4208 59.0408 64.5357 58.9986 64.7003L58.2689 67.5582L57.6748 64.7162C57.6388 64.5439 57.4873 64.4208 57.3116 64.4208H55.9159C55.6745 64.4208 55.4967 64.6477 55.5555 64.8829L56.9257 70.3643C56.9672 70.5296 57.1159 70.6458 57.286 70.6458H58.9412C59.1093 70.6458 59.2559 70.5345 59.2995 70.3719C59.4669 69.7467 59.9808 67.8245 60.032 67.5596C60.0838 67.8245 60.5971 69.7474 60.7644 70.3719C60.808 70.5345 60.9546 70.6458 61.1227 70.6458H62.7779C62.9487 70.6458 63.0967 70.5296 63.1382 70.3643L64.1833 66.1936L65.2264 70.3643C65.2679 70.5296 65.4166 70.6458 65.5867 70.6458H67.2419C67.41 70.6458 67.5566 70.5345 67.6002 70.3719C67.7676 69.7467 68.2815 67.8245 68.3327 67.5596C68.3845 67.8245 68.8977 69.7474 69.0651 70.3719C69.1087 70.5345 69.2553 70.6458 69.4234 70.6458H71.0786C71.2494 70.6458 71.3974 70.5296 71.4389 70.3643L72.4833 66.1936L73.5264 70.3643C73.5679 70.5296 73.7166 70.6458 73.8867 70.6458H75.5419C75.71 70.6458 75.8566 70.5345 75.9002 70.3719C76.0676 69.7467 76.5815 67.8245 76.6327 67.5596C76.6845 67.8245 77.1977 69.7474 77.3651 70.3719C77.4087 70.5345 77.5553 70.6458 77.7234 70.6458H79.3786C79.5494 70.6458 79.6974 70.5296 79.7389 70.3643L81.1091 64.8829C81.17 64.6477 80.9922 64.4208 80.7508 64.4208Z" fill="white"/>
<path d="M71.0343 64.7667L70.1268 69.0847L69.025 64.7667H67.6417L66.5398 69.0847L65.6324 64.7667H64.1833L65.5667 70.3H67.2619C67.2619 70.3 68.3084 66.4018 68.3333 66.15C68.3582 66.4018 69.4047 70.3 69.4047 70.3H71.1L72.4833 64.7667H71.0343Z" fill="white"/>
<path d="M62.7343 64.7667L61.8268 69.0847L60.725 64.7667H59.3417L58.2398 69.0847L57.3324 64.7667H55.8833L57.2667 70.3H58.9619C58.9619 70.3 60.0084 66.4018 60.0333 66.15C60.0582 66.4018 61.1047 70.3 61.1047 70.3H62.8L64.1833 64.7667H62.7343Z" fill="white"/>
<path d="M79.3343 64.7667L78.4268 69.0847L77.325 64.7667H75.9417L74.8398 69.0847L73.9324 64.7667H72.4833L73.8667 70.3H75.5619C75.5619 70.3 76.6084 66.4018 76.6333 66.15C76.6582 66.4018 77.7047 70.3 77.7047 70.3H79.4L80.7833 64.7667H79.3343Z" fill="white"/>
</g>
</g>
<g filter="url(#filter3_bd_139_916)">
<path d="M152.527 156H110.473C106.898 156 104 153.102 104 149.527V107.473C104 103.898 106.898 101 110.473 101H152.527C156.102 101 159 103.898 159 107.473V149.531C159 153.102 156.102 156 152.527 156Z" fill="url(#paint6_linear_139_916)"/>
<ellipse cx="134.673" cy="117.346" rx="1.05769" ry="1.08974" fill="white"/>
<ellipse cx="138.199" cy="117.346" rx="1.05769" ry="1.08974" fill="white"/>
<ellipse cx="141.724" cy="117.346" rx="1.05769" ry="1.08974" fill="white"/>
</g>
<path d="M137.479 139.654L139.7 140.081C142.177 140.594 144.483 138.8 144.654 136.323L145.167 130.771L147.644 129.746C148.498 129.404 148.84 128.379 148.327 127.525L145.167 122.229C144.654 115.737 140.981 109.417 131.5 109.417C122.104 109.417 116.979 115.737 116.979 123.083C116.979 126.244 118.09 129.831 119.798 132.137C121.335 134.273 122.104 136.835 122.104 139.398V141.79C122.104 142.733 122.869 143.498 123.812 143.498H135.771C136.715 143.498 137.479 142.733 137.479 141.79V139.654Z" fill="url(#paint7_radial_139_916)"/>
<path d="M131.5 108.562H129.792C129.32 108.562 128.938 108.945 128.938 109.417V124.792H132.354V109.417C132.354 108.945 131.972 108.562 131.5 108.562Z" fill="url(#paint8_linear_139_916)"/>
<path d="M145.167 135.896H136.702C134.748 135.896 132.991 134.81 132.118 133.063L129.881 128.591L131.409 127.827L133.646 132.299C134.228 133.464 135.399 134.188 136.702 134.188H145.167V135.896Z" fill="url(#paint9_linear_139_916)"/>
<path d="M130.646 131.625C133.476 131.625 135.771 129.33 135.771 126.5C135.771 123.67 133.476 121.375 130.646 121.375C127.815 121.375 125.521 123.67 125.521 126.5C125.521 129.33 127.815 131.625 130.646 131.625Z" fill="#0B5CA8"/>
<path d="M130.646 129.062C132.061 129.062 133.208 127.915 133.208 126.5C133.208 125.085 132.061 123.938 130.646 123.938C129.231 123.938 128.083 125.085 128.083 126.5C128.083 127.915 129.231 129.062 130.646 129.062Z" fill="#45D7F9"/>
<path d="M145.167 136.75C146.11 136.75 146.875 135.985 146.875 135.042C146.875 134.098 146.11 133.333 145.167 133.333C144.223 133.333 143.458 134.098 143.458 135.042C143.458 135.985 144.223 136.75 145.167 136.75Z" fill="url(#paint10_linear_139_916)"/>
<path d="M147 155C151.971 155 156 150.971 156 146C156 141.029 151.971 137 147 137C142.029 137 138 141.029 138 146C138 150.971 142.029 155 147 155Z" fill="url(#paint11_linear_139_916)"/>
<path d="M147.45 150.5H146.55C146.302 150.5 146.1 150.298 146.1 150.049V141.949C146.1 141.701 146.302 141.5 146.55 141.5H147.45C147.699 141.5 147.9 141.701 147.9 141.949V150.049C147.9 150.298 147.699 150.5 147.45 150.5Z" fill="white"/>
<path d="M142.5 146.45V145.55C142.5 145.301 142.702 145.1 142.95 145.1H151.05C151.298 145.1 151.5 145.301 151.5 145.55V146.45C151.5 146.698 151.298 146.9 151.05 146.9H142.95C142.702 146.9 142.5 146.698 142.5 146.45Z" fill="white"/>
<defs>
<filter id="filter0_d_139_916" x="0.5" y="0.5" width="198" height="198" filterUnits="userSpaceOnUse" color-interpolation-filters="sRGB">
<feFlood flood-opacity="0" result="BackgroundImageFix"/>
<feColorMatrix in="SourceAlpha" type="matrix" values="0 0 0 0 0 0 0 0 0 0 0 0 0 0 0 0 0 0 127 0" result="hardAlpha"/>
<feOffset dy="4"/>
<feGaussianBlur stdDeviation="2"/>
<feComposite in2="hardAlpha" operator="out"/>
<feColorMatrix type="matrix" values="0 0 0 0 0.8375 0 0 0 0 0.732812 0 0 0 0 0.732812 0 0 0 0.25 0"/>
<feBlend mode="normal" in2="BackgroundImageFix" result="effect1_dropShadow_139_916"/>
<feBlend mode="normal" in="SourceGraphic" in2="effect1_dropShadow_139_916" result="shape"/>
</filter>
<filter id="filter1_bd_139_916" x="34.5" y="34.5" width="68" height="60" filterUnits="userSpaceOnUse" color-interpolation-filters="sRGB">
<feFlood flood-opacity="0" result="BackgroundImageFix"/>
<feGaussianBlur in="BackgroundImageFix" stdDeviation="2"/>
<feComposite in2="SourceAlpha" operator="in" result="effect1_backgroundBlur_139_916"/>
<feColorMatrix in="SourceAlpha" type="matrix" values="0 0 0 0 0 0 0 0 0 0 0 0 0 0 0 0 0 0 127 0" result="hardAlpha"/>
<feOffset dy="4"/>
<feGaussianBlur stdDeviation="2"/>
<feComposite in2="hardAlpha" operator="out"/>
<feColorMatrix type="matrix" values="0 0 0 0 0.857346 0 0 0 0 0.887393 0 0 0 0 0.897222 0 0 0 1 0"/>
<feBlend mode="normal" in2="effect1_backgroundBlur_139_916" result="effect2_dropShadow_139_916"/>
<feBlend mode="normal" in="SourceGraphic" in2="effect2_dropShadow_139_916" result="shape"/>
</filter>
<filter id="filter2_dd_139_916" x="34.5" y="38.5" width="68" height="56" filterUnits="userSpaceOnUse" color-interpolation-filters="sRGB">
<feFlood flood-opacity="0" result="BackgroundImageFix"/>
<feColorMatrix in="SourceAlpha" type="matrix" values="0 0 0 0 0 0 0 0 0 0 0 0 0 0 0 0 0 0 127 0" result="hardAlpha"/>
<feOffset dy="4"/>
<feGaussianBlur stdDeviation="2"/>
<feComposite in2="hardAlpha" operator="out"/>
<feColorMatrix type="matrix" values="0 0 0 0 1 0 0 0 0 1 0 0 0 0 1 0 0 0 0.25 0"/>
<feBlend mode="normal" in2="BackgroundImageFix" result="effect1_dropShadow_139_916"/>
<feColorMatrix in="SourceAlpha" type="matrix" values="0 0 0 0 0 0 0 0 0 0 0 0 0 0 0 0 0 0 127 0" result="hardAlpha"/>
<feOffset dy="4"/>
<feGaussianBlur stdDeviation="2"/>
<feComposite in2="hardAlpha" operator="out"/>
<feColorMatrix type="matrix" values="0 0 0 0 1 0 0 0 0 1 0 0 0 0 1 0 0 0 1 0"/>
<feBlend mode="normal" in2="effect1_dropShadow_139_916" result="effect2_dropShadow_139_916"/>
<feBlend mode="normal" in="SourceGraphic" in2="effect2_dropShadow_139_916" result="shape"/>
</filter>
<filter id="filter3_bd_139_916" x="100" y="97" width="63" height="67" filterUnits="userSpaceOnUse" color-interpolation-filters="sRGB">
<feFlood flood-opacity="0" result="BackgroundImageFix"/>
<feGaussianBlur in="BackgroundImageFix" stdDeviation="2"/>
<feComposite in2="SourceAlpha" operator="in" result="effect1_backgroundBlur_139_916"/>
<feColorMatrix in="SourceAlpha" type="matrix" values="0 0 0 0 0 0 0 0 0 0 0 0 0 0 0 0 0 0 127 0" result="hardAlpha"/>
<feOffset dy="4"/>
<feGaussianBlur stdDeviation="2"/>
<feComposite in2="hardAlpha" operator="out"/>
<feColorMatrix type="matrix" values="0 0 0 0 1 0 0 0 0 1 0 0 0 0 1 0 0 0 0.25 0"/>
<feBlend mode="normal" in2="effect1_backgroundBlur_139_916" result="effect2_dropShadow_139_916"/>
<feBlend mode="normal" in="SourceGraphic" in2="effect2_dropShadow_139_916" result="shape"/>
</filter>
<linearGradient id="paint0_linear_139_916" x1="99.5" y1="16.4677" x2="99.5" y2="174.532" gradientUnits="userSpaceOnUse">
<stop stop-color="white"/>
<stop offset="0.472222" stop-color="#0D5176" stop-opacity="0.527778"/>
<stop offset="0.940972" stop-color="#12A6F7" stop-opacity="0.465278"/>
<stop offset="1" stop-opacity="0"/>
</linearGradient>
<linearGradient id="paint1_linear_139_916" x1="52.72" y1="31.9586" x2="89.7009" y2="73.7506" gradientUnits="userSpaceOnUse">
<stop stop-color="#7DD8F3"/>
<stop offset="1" stop-color="#45B0D0"/>
</linearGradient>
<linearGradient id="paint2_linear_139_916" x1="39.421" y1="36.724" x2="99.1623" y2="39.3812" gradientUnits="userSpaceOnUse">
<stop stop-color="#0077D2"/>
<stop offset="1" stop-color="#0B59A2"/>
</linearGradient>
<linearGradient id="paint3_linear_139_916" x1="38.5" y1="62.5" x2="98.5" y2="62.5" gradientUnits="userSpaceOnUse">
<stop stop-color="#7DD8F3"/>
<stop offset="1" stop-color="#45B0D0"/>
</linearGradient>
<linearGradient id="paint4_linear_139_916" x1="53.52" y1="45.156" x2="72.0771" y2="78.7101" gradientUnits="userSpaceOnUse">
<stop stop-color="#75DAFF"/>
<stop offset="1" stop-color="#49BEF1"/>
</linearGradient>
<linearGradient id="paint5_linear_139_916" x1="53.52" y1="45.156" x2="72.0771" y2="78.7101" gradientUnits="userSpaceOnUse">
<stop stop-color="#75DAFF"/>
<stop offset="1" stop-color="#49BEF1"/>
</linearGradient>
<linearGradient id="paint6_linear_139_916" x1="134.886" y1="109.297" x2="121.736" y2="183.897" gradientUnits="userSpaceOnUse">
<stop stop-color="#FCFCFC"/>
<stop offset="1" stop-color="#C3C9CD"/>
</linearGradient>
<radialGradient id="paint7_radial_139_916" cx="0" cy="0" r="1" gradientUnits="userSpaceOnUse" gradientTransform="translate(123.779 108.554) scale(48.0605 48.0605)">
<stop stop-color="#FFCF54"/>
<stop offset="0.261" stop-color="#FDCB4D"/>
<stop offset="0.639" stop-color="#F7C13A"/>
<stop offset="1" stop-color="#F0B421"/>
</radialGradient>
<linearGradient id="paint8_linear_139_916" x1="129.282" y1="108.972" x2="132.075" y2="125.55" gradientUnits="userSpaceOnUse">
<stop stop-color="#26ABE7"/>
<stop offset="1" stop-color="#086DBF"/>
</linearGradient>
<linearGradient id="paint9_linear_139_916" x1="136.772" y1="126.923" x2="138.473" y2="137.023" gradientUnits="userSpaceOnUse">
<stop stop-color="#26ABE7"/>
<stop offset="1" stop-color="#086DBF"/>
</linearGradient>
<linearGradient id="paint10_linear_139_916" x1="144.354" y1="133.587" x2="145.964" y2="136.469" gradientUnits="userSpaceOnUse">
<stop stop-color="#3079D6"/>
<stop offset="1" stop-color="#297CD2"/>
</linearGradient>
<linearGradient id="paint11_linear_139_916" x1="143.481" y1="139.852" x2="152.424" y2="155.477" gradientUnits="userSpaceOnUse">
<stop stop-color="#21AD64"/>
<stop offset="1" stop-color="#088242"/>
</linearGradient>
</defs>
</svg>
