<svg width="45" height="48" viewBox="0 0 45 48" fill="none" xmlns="http://www.w3.org/2000/svg">
<path d="M0 45V10H45V45C45 46.375 43.875 47.5 42.5 47.5H2.5C1.125 47.5 0 46.375 0 45Z" fill="url(#paint0_linear_43_102)"/>
<path d="M45 5V12.5H0V5C0 3.625 1.125 2.5 2.5 2.5H42.5C43.875 2.5 45 3.625 45 5Z" fill="url(#paint1_linear_43_102)"/>
<path d="M36.875 10.625C34.8037 10.625 33.125 8.94625 33.125 6.875V2.5H40.625V6.875C40.625 8.94625 38.9463 10.625 36.875 10.625Z" fill="#FFF7F7"/>
<path d="M36.875 9.6875C35.3213 9.6875 34.0625 8.42875 34.0625 6.875V2.5H39.6875V6.875C39.6875 8.42875 38.4287 9.6875 36.875 9.6875Z" fill="#FFF7F7"/>
<path d="M8.125 10.625C6.05375 10.625 4.375 8.94625 4.375 6.875V2.5H11.875V6.875C11.875 8.94625 10.1962 10.625 8.125 10.625Z" fill="#FFF7F7"/>
<path d="M8.125 9.6875C6.57125 9.6875 5.3125 8.42875 5.3125 6.875V2.5H10.9375V6.875C10.9375 8.42875 9.67875 9.6875 8.125 9.6875Z" fill="#FFF7F7"/>
<path d="M8.125 8.75C7.09 8.75 6.25 7.91 6.25 6.875V1.875C6.25 0.84 7.09 0 8.125 0C9.16 0 10 0.84 10 1.875V6.875C10 7.91 9.16 8.75 8.125 8.75Z" fill="#3CCBF4"/>
<path d="M40 19.375V23.125C40 23.47 39.72 23.75 39.375 23.75H35.625C35.28 23.75 35 23.47 35 23.125V19.375C35 19.03 35.28 18.75 35.625 18.75H39.375C39.72 18.75 40 19.03 40 19.375ZM30 19.375V23.125C30 23.47 29.72 23.75 29.375 23.75H25.625C25.28 23.75 25 23.47 25 23.125V19.375C25 19.03 25.28 18.75 25.625 18.75H29.375C29.72 18.75 30 19.03 30 19.375ZM20 19.375V23.125C20 23.47 19.72 23.75 19.375 23.75H15.625C15.28 23.75 15 23.47 15 23.125V19.375C15 19.03 15.28 18.75 15.625 18.75H19.375C19.72 18.75 20 19.03 20 19.375Z" fill="white"/>
<path d="M40 28.125V31.875C40 32.22 39.72 32.5 39.375 32.5H35.625C35.28 32.5 35 32.22 35 31.875V28.125C35 27.78 35.28 27.5 35.625 27.5H39.375C39.72 27.5 40 27.78 40 28.125ZM30 28.125V31.875C30 32.22 29.72 32.5 29.375 32.5H25.625C25.28 32.5 25 32.22 25 31.875V28.125C25 27.78 25.28 27.5 25.625 27.5H29.375C29.72 27.5 30 27.78 30 28.125ZM20 28.125V31.875C20 32.22 19.72 32.5 19.375 32.5H15.625C15.28 32.5 15 32.22 15 31.875V28.125C15 27.78 15.28 27.5 15.625 27.5H19.375C19.72 27.5 20 27.78 20 28.125ZM10 28.125V31.875C10 32.22 9.72 32.5 9.375 32.5H5.625C5.28 32.5 5 32.22 5 31.875V28.125C5 27.78 5.28 27.5 5.625 27.5H9.375C9.72 27.5 10 27.78 10 28.125Z" fill="white"/>
<path d="M30 36.875V40.625C30 40.97 29.72 41.25 29.375 41.25H25.625C25.28 41.25 25 40.97 25 40.625V36.875C25 36.53 25.28 36.25 25.625 36.25H29.375C29.72 36.25 30 36.53 30 36.875ZM20 36.875V40.625C20 40.97 19.72 41.25 19.375 41.25H15.625C15.28 41.25 15 40.97 15 40.625V36.875C15 36.53 15.28 36.25 15.625 36.25H19.375C19.72 36.25 20 36.53 20 36.875ZM10 36.875V40.625C10 40.97 9.72 41.25 9.375 41.25H5.625C5.28 41.25 5 40.97 5 40.625V36.875C5 36.53 5.28 36.25 5.625 36.25H9.375C9.72 36.25 10 36.53 10 36.875Z" fill="white"/>
<path d="M36.875 8.75C35.84 8.75 35 7.91 35 6.875V1.875C35 0.84 35.84 0 36.875 0C37.91 0 38.75 0.84 38.75 1.875V6.875C38.75 7.91 37.91 8.75 36.875 8.75Z" fill="#3CCBF4"/>
<defs>
<linearGradient id="paint0_linear_43_102" x1="0.5175" y1="2.6315" x2="51.3838" y2="31.9615" gradientUnits="userSpaceOnUse">
<stop stop-color="#28AFEA"/>
<stop offset="1" stop-color="#047ED6"/>
</linearGradient>
<linearGradient id="paint1_linear_43_102" x1="0.525" y1="3.61" x2="45.7123" y2="5.54446" gradientUnits="userSpaceOnUse">
<stop stop-color="#0077D2"/>
<stop offset="1" stop-color="#0B59A2"/>
</linearGradient>
</defs>
</svg>
