<svg width="45" height="45" viewBox="0 0 45 45" fill="none" xmlns="http://www.w3.org/2000/svg">
<path d="M40.5045 42.7151L4.53488 42.75C3.2985 42.7511 2.286 41.7409 2.28488 40.5045L2.25 4.53488C2.24887 3.2985 3.25912 2.286 4.4955 2.28488L40.4651 2.25C41.7015 2.24887 42.714 3.25912 42.7151 4.4955L42.75 40.4651C42.7511 41.7015 41.7409 42.714 40.5045 42.7151Z" fill="url(#paint0_linear_43_108)"/>
<path d="M39.3424 5.625L39.375 39.3424L5.65762 39.375L5.625 5.65762L39.3424 5.625Z" fill="url(#paint1_linear_43_108)"/>
<path d="M29.25 16.875H24.75V31.5C24.75 32.121 24.246 32.625 23.625 32.625H21.375C20.754 32.625 20.25 32.121 20.25 31.5V16.875H15.75C15.129 16.875 14.625 16.371 14.625 15.75V13.5C14.625 12.879 15.129 12.375 15.75 12.375H29.25C29.871 12.375 30.375 12.879 30.375 13.5V15.75C30.375 16.371 29.871 16.875 29.25 16.875Z" fill="#2AA4F4"/>
<path d="M1.125 37.125H6.75C7.371 37.125 7.875 37.629 7.875 38.25V43.875C7.875 44.496 7.371 45 6.75 45H1.125C0.504 45 0 44.496 0 43.875V38.25C0 37.629 0.504 37.125 1.125 37.125Z" fill="url(#paint2_linear_43_108)"/>
<path d="M38.4379 37.125H43.6882C44.4127 37.125 45 37.7122 45 38.4379V43.6882C45 44.4127 44.4128 45 43.6871 45H38.4367C37.7122 45 37.125 44.4128 37.125 43.6871V38.4367C37.125 37.7122 37.7122 37.125 38.4379 37.125Z" fill="url(#paint3_linear_43_108)"/>
<path d="M1.125 0H6.75C7.371 0 7.875 0.504 7.875 1.125V6.75C7.875 7.371 7.371 7.875 6.75 7.875H1.125C0.504 7.875 0 7.371 0 6.75V1.125C0 0.504 0.504 0 1.125 0Z" fill="url(#paint4_linear_43_108)"/>
<path d="M38.25 0H43.875C44.496 0 45 0.504 45 1.125V6.75C45 7.371 44.496 7.875 43.875 7.875H38.25C37.629 7.875 37.125 7.371 37.125 6.75V1.125C37.125 0.504 37.629 0 38.25 0Z" fill="url(#paint5_linear_43_108)"/>
<defs>
<linearGradient id="paint0_linear_43_108" x1="18.0488" y1="-2.7425" x2="26.9513" y2="47.7425" gradientUnits="userSpaceOnUse">
<stop stop-color="#33BEF0"/>
<stop offset="1" stop-color="#22A5E2"/>
</linearGradient>
<linearGradient id="paint1_linear_43_108" x1="17.982" y1="-3.1275" x2="27.018" y2="48.1275" gradientUnits="userSpaceOnUse">
<stop stop-color="#FAFAFB"/>
<stop offset="0.293" stop-color="#F6F7F8"/>
<stop offset="0.566" stop-color="#EBECEE"/>
<stop offset="0.832" stop-color="#D8DCDF"/>
<stop offset="1" stop-color="#C8CDD1"/>
</linearGradient>
<linearGradient id="paint2_linear_43_108" x1="40.3009" y1="-0.379125" x2="41.8241" y2="8.25412" gradientUnits="userSpaceOnUse">
<stop stop-color="#3079D6"/>
<stop offset="1" stop-color="#297CD2"/>
</linearGradient>
<linearGradient id="paint3_linear_43_108" x1="18.18" y1="-1.99929" x2="26.82" y2="46.9993" gradientUnits="userSpaceOnUse">
<stop stop-color="#3079D6"/>
<stop offset="1" stop-color="#297CD2"/>
</linearGradient>
<linearGradient id="paint4_linear_43_108" x1="40.3009" y1="-0.379125" x2="41.8241" y2="8.25412" gradientUnits="userSpaceOnUse">
<stop stop-color="#3079D6"/>
<stop offset="1" stop-color="#297CD2"/>
</linearGradient>
<linearGradient id="paint5_linear_43_108" x1="40.3009" y1="-0.379125" x2="41.8241" y2="8.25412" gradientUnits="userSpaceOnUse">
<stop stop-color="#3079D6"/>
<stop offset="1" stop-color="#297CD2"/>
</linearGradient>
</defs>
</svg>
