<svg width="170" height="170" viewBox="0 0 170 170" fill="none" xmlns="http://www.w3.org/2000/svg">
<g clip-path="url(#clip0_3_39)">
<path d="M150 8H20C13.0964 8 7.5 13.5964 7.5 20.5V150.5C7.5 157.404 13.0964 163 20 163H150C156.904 163 162.5 157.404 162.5 150.5V20.5C162.5 13.5964 156.904 8 150 8Z" fill="white"/>
<path d="M149.5 8.5H19.5C12.5964 8.5 7 14.0964 7 21V151C7 157.904 12.5964 163.5 19.5 163.5H149.5C156.404 163.5 162 157.904 162 151V21C162 14.0964 156.404 8.5 149.5 8.5Z" fill="url(#paint0_linear_3_39)" fill-opacity="0.2"/>
<path d="M150 8H20C13.0964 8 7.5 13.5964 7.5 20.5V150.5C7.5 157.404 13.0964 163 20 163H150C156.904 163 162.5 157.404 162.5 150.5V20.5C162.5 13.5964 156.904 8 150 8Z" stroke="#D5EAF6" stroke-width="15"/>
<g filter="url(#filter0_i_3_39)">
<mask id="mask0_3_39" style="mask-type:alpha" maskUnits="userSpaceOnUse" x="39" y="46" width="92" height="78">
<path d="M130.405 46.7634H39.5945V123.236H130.405V46.7634Z" fill="white"/>
</mask>
<g mask="url(#mask0_3_39)">
<g filter="url(#filter1_i_3_39)">
<path d="M104.987 104.835H94.9048C94.8763 99.0577 92.5613 93.5261 88.4663 89.4512C84.3708 85.3758 78.8285 83.0877 73.0509 83.0877C67.2734 83.0877 61.7311 85.3758 57.6358 89.4512C53.5405 93.5261 51.2257 99.0577 51.1977 104.835H41.115C41.1132 101.802 41.5537 98.784 42.4228 95.8781C44.3899 89.2826 48.4332 83.4984 53.9516 79.3856C59.47 75.2729 66.1686 73.0513 73.0509 73.0513C79.9333 73.0513 86.632 75.2729 92.1507 79.3856C97.6687 83.4984 101.712 89.2826 103.679 95.8781C104.548 98.784 104.989 101.802 104.987 104.835Z" fill="#50E6FF"/>
<path d="M106.508 98.9038V109.549C106.505 110.355 106.184 111.128 105.614 111.697C105.044 112.267 104.272 112.588 103.466 112.591H98.1434V95.8623H103.466C103.538 95.8597 103.609 95.8642 103.679 95.8778C104.446 95.931 105.164 96.2729 105.689 96.8346C106.214 97.3957 106.506 98.1351 106.508 98.9038Z" fill="#42A4ED"/>
<path d="M47.9587 95.8623V112.591H42.636C41.83 112.588 41.0578 112.267 40.4879 111.697C39.918 111.128 39.5969 110.355 39.5945 109.549V98.9038C39.596 98.1351 39.8886 97.3957 40.4134 96.8346C40.9382 96.2729 41.656 95.931 42.4227 95.8778C42.4929 95.8642 42.5646 95.8597 42.636 95.8623H47.9587Z" fill="#42A4ED"/>
<path d="M101.946 104.835V104.987C101.949 107.556 101.607 110.114 100.927 112.591H98.1435L98.1441 104.835H94.9048C94.8762 99.0574 92.5612 93.5257 88.4663 89.4509C84.3707 85.3755 78.8284 83.0874 73.0509 83.0874C67.2734 83.0874 61.731 85.3755 57.6357 89.4509C53.5404 93.5257 51.2257 99.0574 51.1976 104.835H47.9587V112.591H45.1757C44.4959 110.114 44.1532 107.556 44.1568 104.987V104.835C44.1669 101.783 44.6702 98.7532 45.6472 95.8622C47.5602 90.1067 51.2369 85.0991 56.1557 81.5508C61.0747 78.0023 66.986 76.0925 73.0513 76.0925C79.1165 76.0925 85.0278 78.0023 89.9471 81.5508C94.8652 85.0991 98.5424 90.1067 100.455 95.8622C101.433 98.7532 101.935 101.783 101.946 104.835Z" fill="url(#paint1_radial_3_39)"/>
<path d="M73.0509 77.6133C65.791 77.6133 58.8285 80.4974 53.6949 85.631C48.5613 90.7644 45.6773 97.727 45.6772 104.987H100.425C100.425 97.727 97.5409 90.7644 92.4069 85.631C87.2735 80.4974 80.3109 77.6133 73.0509 77.6133Z" fill="url(#paint2_linear_3_39)"/>
<path d="M83.848 121.563H62.2533C60.2761 121.564 58.3183 121.175 56.4917 120.418C54.665 119.661 53.0052 118.552 51.6072 117.154C50.2092 115.756 49.1001 114.096 48.3436 112.269C47.587 110.443 47.1976 108.485 47.1978 106.508C47.1976 104.531 47.587 102.573 48.3436 100.746C49.1001 98.9194 50.2092 97.2595 51.6072 95.8617C53.0052 94.4638 54.665 93.3546 56.4917 92.5983C58.3183 91.8413 60.2761 91.4521 62.2533 91.4521H83.848C85.8251 91.4521 87.7827 91.8413 89.61 92.5983C91.4366 93.3546 93.0958 94.4638 94.4943 95.8617C95.8921 97.2595 97.0013 98.9194 97.7576 100.746C98.5146 102.573 98.9038 104.531 98.9038 106.508C98.9038 108.485 98.5146 110.443 97.7576 112.269C97.0013 114.096 95.8921 115.756 94.4943 117.154C93.0958 118.552 91.4366 119.661 89.61 120.418C87.7827 121.175 85.8251 121.564 83.848 121.563Z" fill="#617B91"/>
<path d="M83.7721 123.237H62.3295C57.9146 123.232 53.6819 121.475 50.56 118.354C47.4382 115.232 45.6822 110.999 45.6772 106.584V106.432C45.6822 102.017 47.4382 97.7845 50.56 94.6626C53.6819 91.5406 57.9146 89.7847 62.3295 89.7795H83.7721C88.1874 89.7847 92.4198 91.5406 95.5418 94.6626C98.6637 97.7845 100.42 102.017 100.425 106.432V106.585C100.42 111 98.6631 115.233 95.5411 118.354C92.4198 121.476 88.1868 123.232 83.7721 123.237ZM62.3295 92.8211C58.7211 92.8256 55.2614 94.2604 52.7098 96.8122C50.1582 99.364 48.7228 102.823 48.7188 106.432V106.585C48.7232 110.194 50.1586 113.653 52.7103 116.204C55.2619 118.756 58.7212 120.191 62.3295 120.195H83.7721C87.3811 120.191 90.841 118.756 93.3922 116.204C95.944 113.652 97.3794 110.193 97.3833 106.584V106.432C97.3794 102.823 95.944 99.364 93.3922 96.8122C90.8404 94.2604 87.3811 92.8256 83.7721 92.8211H62.3295Z" fill="url(#paint3_linear_3_39)"/>
<path d="M68.4867 108.029C68.1409 108.028 67.8056 107.91 67.5359 107.693C67.2663 107.477 67.0783 107.175 67.003 106.838C66.7492 105.828 66.151 104.939 65.3115 104.323C64.4721 103.708 63.4442 103.405 62.4051 103.467C61.3661 103.405 60.3382 103.708 59.4987 104.323C58.6593 104.939 58.0611 105.828 57.8072 106.838C57.7189 107.231 57.4782 107.573 57.1382 107.788C56.7982 108.004 56.3865 108.076 55.9933 107.989C55.6002 107.901 55.2578 107.662 55.041 107.323C54.8242 106.983 54.7508 106.572 54.837 106.179C55.2387 104.492 56.2124 102.998 57.5923 101.948C58.9722 100.899 60.673 100.361 62.4051 100.425C64.1373 100.361 65.8381 100.899 67.218 101.948C68.5979 102.998 69.5716 104.492 69.9733 106.179C70.0604 106.572 69.9876 106.984 69.7709 107.325C69.5544 107.665 69.2115 107.905 68.8179 107.993C68.7091 108.017 68.598 108.029 68.4867 108.029Z" fill="#50E6FF"/>
<path d="M89.778 108.029C89.4323 108.028 89.0969 107.91 88.8271 107.693C88.5573 107.477 88.3698 107.175 88.2939 106.838C88.0403 105.828 87.4422 104.939 86.6029 104.323C85.7635 103.708 84.7354 103.405 83.6963 103.467C82.6571 103.405 81.6293 103.708 80.7899 104.323C79.9504 104.939 79.3522 105.828 79.0983 106.838C79.0099 107.231 78.7693 107.573 78.4293 107.788C78.0894 108.004 77.6776 108.076 77.2845 107.989C76.8914 107.901 76.5489 107.662 76.3321 107.323C76.1153 106.983 76.042 106.572 76.1281 106.179C76.5299 104.492 77.5035 102.998 78.8834 101.948C80.2633 100.899 81.9641 100.361 83.6963 100.425C85.4282 100.361 87.1296 100.899 88.5093 101.948C89.8896 102.998 90.8625 104.492 91.2641 106.179C91.351 106.572 91.279 106.984 91.0617 107.325C90.8457 107.665 90.5032 107.905 90.1088 107.993C90.0005 108.017 89.8896 108.029 89.778 108.029Z" fill="#50E6FF"/>
<path d="M127.799 46.7634H80.8722C79.4318 46.7634 78.2651 47.9301 78.2651 49.3705V83.2617C78.2651 84.7021 79.4318 85.869 80.8722 85.869H91.3004V96.2941C91.3004 97.4558 92.7041 98.037 93.5253 97.2158L104.872 85.869H127.799C129.239 85.869 130.406 84.7021 130.406 83.2617V49.3705C130.406 47.9301 129.239 46.7634 127.799 46.7634Z" fill="url(#paint4_linear_3_39)"/>
<path d="M104.335 71.5306C106.495 71.5306 108.246 69.7798 108.246 67.62C108.246 65.4603 106.495 63.7095 104.335 63.7095C102.176 63.7095 100.425 65.4603 100.425 67.62C100.425 69.7798 102.176 71.5306 104.335 71.5306Z" fill="url(#paint5_radial_3_39)"/>
<path d="M104.335 70.2267C105.775 70.2267 106.943 69.0595 106.943 67.6197C106.943 66.1799 105.775 65.0127 104.335 65.0127C102.896 65.0127 101.728 66.1799 101.728 67.6197C101.728 69.0595 102.896 70.2267 104.335 70.2267Z" fill="white"/>
<path d="M93.9073 71.5306C96.0666 71.5306 97.818 69.7798 97.818 67.62C97.818 65.4603 96.0666 63.7095 93.9073 63.7095C91.7473 63.7095 89.9966 65.4603 89.9966 67.62C89.9966 69.7798 91.7473 71.5306 93.9073 71.5306Z" fill="url(#paint6_radial_3_39)"/>
<path d="M93.9072 70.2267C95.3472 70.2267 96.5141 69.0595 96.5141 67.6197C96.5141 66.1799 95.3472 65.0127 93.9072 65.0127C92.4672 65.0127 91.3003 66.1799 91.3003 67.6197C91.3003 69.0595 92.4672 70.2267 93.9072 70.2267Z" fill="white"/>
<path d="M114.763 71.5306C116.923 71.5306 118.674 69.7798 118.674 67.62C118.674 65.4603 116.923 63.7095 114.763 63.7095C112.603 63.7095 110.852 65.4603 110.852 67.62C110.852 69.7798 112.603 71.5306 114.763 71.5306Z" fill="url(#paint7_radial_3_39)"/>
<path d="M114.763 70.2267C116.203 70.2267 117.37 69.0595 117.37 67.6197C117.37 66.1799 116.203 65.0127 114.763 65.0127C113.323 65.0127 112.156 66.1799 112.156 67.6197C112.156 69.0595 113.323 70.2267 114.763 70.2267Z" fill="white"/>
</g>
</g>
</g>
</g>
<defs>
<filter id="filter0_i_3_39" x="39.5945" y="46.7634" width="90.8108" height="80.4724" filterUnits="userSpaceOnUse" color-interpolation-filters="sRGB">
<feFlood flood-opacity="0" result="BackgroundImageFix"/>
<feBlend mode="normal" in="SourceGraphic" in2="BackgroundImageFix" result="shape"/>
<feColorMatrix in="SourceAlpha" type="matrix" values="0 0 0 0 0 0 0 0 0 0 0 0 0 0 0 0 0 0 127 0" result="hardAlpha"/>
<feOffset dy="4"/>
<feGaussianBlur stdDeviation="2"/>
<feComposite in2="hardAlpha" operator="arithmetic" k2="-1" k3="1"/>
<feColorMatrix type="matrix" values="0 0 0 0 1 0 0 0 0 1 0 0 0 0 1 0 0 0 0.2 0"/>
<feBlend mode="normal" in2="shape" result="effect1_innerShadow_3_39"/>
</filter>
<filter id="filter1_i_3_39" x="39.5945" y="46.7634" width="90.811" height="80.4734" filterUnits="userSpaceOnUse" color-interpolation-filters="sRGB">
<feFlood flood-opacity="0" result="BackgroundImageFix"/>
<feBlend mode="normal" in="SourceGraphic" in2="BackgroundImageFix" result="shape"/>
<feColorMatrix in="SourceAlpha" type="matrix" values="0 0 0 0 0 0 0 0 0 0 0 0 0 0 0 0 0 0 127 0" result="hardAlpha"/>
<feOffset dy="4"/>
<feGaussianBlur stdDeviation="2"/>
<feComposite in2="hardAlpha" operator="arithmetic" k2="-1" k3="1"/>
<feColorMatrix type="matrix" values="0 0 0 0 1 0 0 0 0 1 0 0 0 0 1 0 0 0 0.25 0"/>
<feBlend mode="normal" in2="shape" result="effect1_innerShadow_3_39"/>
</filter>
<linearGradient id="paint0_linear_3_39" x1="84.5" y1="16" x2="84.5" y2="156" gradientUnits="userSpaceOnUse">
<stop stop-color="#EFF7FC"/>
<stop offset="0.472222" stop-color="#0D5176" stop-opacity="0.527778"/>
<stop offset="0.940972" stop-color="#12A6F7" stop-opacity="0.465278"/>
<stop offset="1" stop-opacity="0"/>
</linearGradient>
<radialGradient id="paint1_radial_3_39" cx="0" cy="0" r="1" gradientUnits="userSpaceOnUse" gradientTransform="translate(84.649 107.132) scale(45.1712 60.7828)">
<stop offset="0.934" stop-opacity="0.2"/>
<stop offset="1" stop-opacity="0"/>
</radialGradient>
<linearGradient id="paint2_linear_3_39" x1="66.7849" y1="32.1743" x2="126.333" y2="129.314" gradientUnits="userSpaceOnUse">
<stop stop-color="#FFD869"/>
<stop offset="1" stop-color="#FEC52B"/>
</linearGradient>
<linearGradient id="paint3_linear_3_39" x1="71" y1="31.9944" x2="130.613" y2="150.86" gradientUnits="userSpaceOnUse">
<stop stop-color="#EBC500"/>
<stop offset="1" stop-color="#FFD869"/>
</linearGradient>
<linearGradient id="paint4_linear_3_39" x1="59.3143" y1="40.0809" x2="100.99" y2="118.588" gradientUnits="userSpaceOnUse">
<stop stop-color="#33BEF0"/>
<stop offset="1" stop-color="#0A85D9"/>
</linearGradient>
<radialGradient id="paint5_radial_3_39" cx="0" cy="0" r="1" gradientUnits="userSpaceOnUse" gradientTransform="translate(85.0001 85.0003) scale(45.4054 38.2364)">
<stop stop-color="#0077D2"/>
<stop offset="1" stop-color="#33BEF0"/>
</radialGradient>
<radialGradient id="paint6_radial_3_39" cx="0" cy="0" r="1" gradientUnits="userSpaceOnUse" gradientTransform="translate(85 85.0003) scale(45.4054 38.2364)">
<stop stop-color="#0077D2"/>
<stop offset="1" stop-color="#33BEF0"/>
</radialGradient>
<radialGradient id="paint7_radial_3_39" cx="0" cy="0" r="1" gradientUnits="userSpaceOnUse" gradientTransform="translate(84.9999 85.0003) scale(45.4054 38.2364)">
<stop stop-color="#0077D2"/>
<stop offset="1" stop-color="#33BEF0"/>
</radialGradient>
<clipPath id="clip0_3_39">
<rect width="170" height="170" fill="white"/>
</clipPath>
</defs>
</svg>
