<svg version="1.2" xmlns="http://www.w3.org/2000/svg" viewBox="0 0 437 45" width="437" height="45"><style>.a{fill:#dddddd}</style><path class="a" d="m433.2 22c0 1.3-1.1 2.4-2.4 2.4h-7.1v11c0 0.6-0.2 1.2-0.7 1.7-0.4 0.4-1 0.7-1.6 0.7-1.4 0-2.4-1.1-2.4-2.4v-11h-14.4v11c0 0.6-0.3 1.2-0.7 1.7-0.5 0.4-1.1 0.7-1.7 0.7-1.3 0-2.4-1.1-2.4-2.4v-11h-14.4v11c0 0.6-0.3 1.2-0.7 1.7-0.4 0.4-1 0.7-1.7 0.7-1.3 0-2.3-1.1-2.3-2.4v-11h-14.5v11c0 0.6-0.2 1.2-0.7 1.7-0.4 0.4-1 0.7-1.6 0.7-1.4 0-2.4-1.1-2.4-2.4v-11h-14.4v11c0 0.6-0.3 1.2-0.7 1.7-0.5 0.4-1.1 0.7-1.7 0.7-1.3 0-2.4-1.1-2.4-2.4v-11h-14.4v11c0 0.6-0.3 1.2-0.7 1.7-0.4 0.4-1 0.7-1.7 0.7-1.3 0-2.3-1.1-2.3-2.4v-11h-14.5v11c0 0.6-0.2 1.2-0.7 1.7-0.4 0.4-1 0.7-1.6 0.7-1.3 0-2.4-1.1-2.4-2.4v-11h-14.4v11c0 0.6-0.3 1.2-0.7 1.7-0.5 0.4-1.1 0.7-1.7 0.7-1.3 0-2.4-1.1-2.4-2.4v-11h-14.4v11c0 0.6-0.3 1.2-0.7 1.7-0.4 0.4-1 0.7-1.7 0.7-1.3 0-2.3-1.1-2.3-2.4v-11h-14.5v11c0 0.6-0.2 1.2-0.7 1.7-0.4 0.4-1 0.7-1.6 0.7-1.3 0-2.4-1.1-2.4-2.4v-11h-14.4v11c0 0.6-0.3 1.2-0.7 1.7-0.5 0.4-1.1 0.7-1.7 0.7-1.3 0-2.4-1.1-2.4-2.4v-11h-14.4v11c0 0.6-0.3 1.2-0.7 1.7-0.4 0.4-1 0.7-1.7 0.7-1.3 0-2.3-1.1-2.3-2.4v-11h-14.5v11c0 0.6-0.2 1.2-0.7 1.7-0.4 0.4-1 0.7-1.6 0.7-1.3 0-2.4-1.1-2.4-2.4v-11h-14.4v11c0 0.6-0.3 1.2-0.7 1.7-0.5 0.4-1 0.7-1.7 0.7-1.3 0-2.4-1.1-2.4-2.4v-11h-14.4v11c0 0.6-0.3 1.2-0.7 1.7-0.4 0.4-1 0.7-1.7 0.7-1.3 0-2.3-1.1-2.3-2.4v-11h-14.5v11c0 0.6-0.2 1.2-0.7 1.7-0.4 0.4-1 0.7-1.6 0.7-1.3 0-2.4-1.1-2.4-2.4v-11h-14.4v11c0 0.6-0.3 1.2-0.7 1.7-0.5 0.4-1 0.7-1.7 0.7-1.3 0-2.4-1.1-2.4-2.4v-11h-14.4v11c0 0.6-0.3 1.2-0.7 1.7-0.4 0.4-1 0.7-1.7 0.7-1.3 0-2.3-1.1-2.3-2.4v-11h-14.5v11c0 0.6-0.2 1.2-0.7 1.7-0.4 0.4-1 0.7-1.6 0.7-1.3 0-2.4-1.1-2.4-2.4v-11h-14.4v11c0 0.6-0.3 1.2-0.7 1.7-0.5 0.4-1 0.7-1.7 0.7-1.3 0-2.4-1.1-2.4-2.4v-11h-14.4v11c0 0.6-0.3 1.2-0.7 1.7-0.4 0.4-1 0.7-1.7 0.7-1.3 0-2.3-1.1-2.3-2.4v-11h-14.5v11c0 0.6-0.2 1.2-0.7 1.7-0.4 0.4-1 0.7-1.6 0.7-1.3 0-2.4-1.1-2.4-2.4v-11h-7.1c-0.7 0-1.3-0.3-1.7-0.7-0.4-0.5-0.7-1.1-0.7-1.7 0-1.3 1.1-2.4 2.4-2.4h7.1v-11c0-1.3 1.1-2.4 2.4-2.4 1.3 0 2.3 1.1 2.3 2.4v11h14.5v-11c0-1.3 1-2.4 2.3-2.4 1.3 0 2.4 1.1 2.4 2.4v11h14.4v-11c0-1.3 1.1-2.4 2.4-2.4 1.3 0 2.4 1.1 2.4 2.4v11h14.4v-11c0-1.3 1.1-2.4 2.4-2.4 1.3 0 2.3 1.1 2.3 2.4v11h14.5v-11c0-1.3 1-2.4 2.3-2.4 1.3 0 2.4 1.1 2.4 2.4v11h14.4v-11c0-1.3 1.1-2.4 2.4-2.4 1.3 0 2.4 1.1 2.4 2.4v11h14.4v-11c0-1.3 1.1-2.4 2.4-2.4 1.3 0 2.3 1.1 2.3 2.4v11h14.5v-11c0-1.3 1-2.4 2.3-2.4 1.3 0 2.4 1.1 2.4 2.4v11h14.4v-11c0-1.3 1.1-2.4 2.4-2.4 1.3 0 2.4 1.1 2.4 2.4v11h14.4v-11c0-1.3 1.1-2.4 2.4-2.4 1.3 0 2.3 1.1 2.3 2.4v11h14.5v-11c0-1.3 1-2.4 2.3-2.4 1.3 0 2.4 1.1 2.4 2.4v11h14.4v-11c0-1.3 1.1-2.4 2.4-2.4 1.3 0 2.4 1.1 2.4 2.4v11h14.4v-11c0-1.3 1-2.4 2.4-2.4 1.3 0 2.3 1.1 2.3 2.4v11h14.5v-11c0-1.3 1-2.4 2.3-2.4 1.3 0 2.4 1.1 2.4 2.4v11h14.4v-11c0-1.3 1.1-2.4 2.4-2.4 1.3 0 2.4 1.1 2.4 2.4v11h14.4v-11c0-1.3 1-2.4 2.4-2.4 1.3 0 2.3 1.1 2.3 2.4v11h14.5v-11c0-1.3 1-2.4 2.3-2.4 1.3 0 2.4 1.1 2.4 2.4v11h14.4v-11c0-1.3 1.1-2.4 2.4-2.4 1.3 0 2.4 1.1 2.4 2.4v11h14.4v-11c0-1.3 1-2.4 2.4-2.4 1.3 0 2.3 1.1 2.3 2.4v11h14.4l0.1-11c0-1.3 1-2.4 2.3-2.4 1.3 0 2.4 1.1 2.4 2.4v11h14.4v-11c0-1.3 1.1-2.4 2.4-2.4 1.3 0 2.4 1.1 2.4 2.4v11h14.4v-11c0-1.3 1-2.4 2.3-2.4 1.4 0 2.4 1.1 2.4 2.4v11h7.1c1.3 0 2.4 1.1 2.4 2.4z"/></svg>