<svg version="1.2" xmlns="http://www.w3.org/2000/svg" viewBox="0 0 466 35" width="466" height="35"><style>.a{fill:#dddddd}</style><path class="a" d="m464.1 17.8c-2.8 1.8-27.3 1.3-30.8 1.5-3.8 0.4-69.4 2.4-73.2 2.8-15.3 1.6-52.6 4-68 4.8-7 0.4-19.1-0.4-20.1-8.6q-0.1-0.5-0.1-1 0-0.5 0.1-1c1-8.3 13.1-9 20.1-8.7 15.4 0.9 52.7 3.3 68 4.8 3.8 0.4 69.4 2.5 73.2 2.8 3.5 0.3 28-0.3 30.8 1.5 0.3 0.2 0.3 1 0 1.1z"/><path class="a" d="m267.2 17.5c0 3-2.7 5.5-6.1 5.5-3.4 0-6.2-2.5-6.2-5.5 0-3 2.8-5.5 6.2-5.5 3.3 0 6.1 2.5 6.1 5.5z"/><path fill-rule="evenodd" class="a" d="m250.2 18c0 8.4-7.7 15.2-17.1 15.2-9.5 0-17.1-6.8-17.1-15.2 0-8.3 7.6-15.1 17.1-15.1 9.4 0 17.1 6.8 17.1 15.1zm-3.1 0c0-6.9-6.2-12.5-14-12.5-7.8 0-14.1 5.6-14.1 12.5 0 6.9 6.3 12.5 14.1 12.5 7.8 0 14-5.6 14-12.5z"/><path class="a" d="m244 18c0 5.3-4.9 9.7-10.9 9.7-6.1 0-11-4.4-11-9.7 0-5.3 4.9-9.7 11-9.7 6 0 10.9 4.4 10.9 9.7z"/><path class="a" d="m194 17.7q0.1 0.5 0.1 1 0 0.5-0.1 1c-1 8.3-13.1 9.1-20.1 8.7-15.4-0.9-52.7-3.3-68-4.8-3.8-0.4-69.4-2.5-73.2-2.8-3.5-0.3-28 0.3-30.8-1.5-0.3-0.2-0.3-0.9 0-1.1 2.8-1.8 27.3-1.3 30.8-1.5 3.8-0.4 69.4-2.4 73.2-2.8 15.3-1.6 52.6-4 68-4.8 7-0.4 19.1 0.3 20.1 8.6z"/><path class="a" d="m211.1 18.5c0 3-2.8 5.5-6.2 5.5-3.4 0-6.1-2.5-6.1-5.5 0-3 2.7-5.4 6.1-5.4 3.4 0 6.2 2.4 6.2 5.4z"/></svg>