<svg version="1.2" xmlns="http://www.w3.org/2000/svg" viewBox="0 0 413 119" width="413" height="119"><style>.a{fill:#ddd}</style><path fill-rule="evenodd" class="a" d="m373 115.1h-332c-6.5 0-11.8-5.2-11.8-11.8v-35.4h-27.4c-4.4 0-7.9-3.6-7.9-7.9 0-4.3 3.5-7.9 7.9-7.9h27.4v-35.4c0-6.6 5.3-11.8 11.8-11.8h332c6.5 0 11.8 5.2 11.8 11.8v35.4h27.4c4.4 0 7.9 3.6 7.9 7.9 0 4.3-3.5 7.9-7.9 7.9h-27.4v35.4c0 6.6-5.3 11.8-11.8 11.8zm-11.8-23.6v-63h-308.4v63c0 0 308.4 0 308.4 0z"/><path class="a" d="m286.8 60c0-2.1 0.8-4.1 2.3-5.6 1.5-1.5 3.5-2.3 5.6-2.3 2.1 0 4.1 0.9 5.5 2.3 3 3 3 8.2 0 11.2-1.4 1.5-3.4 2.3-5.5 2.3-2.1 0-4.1-0.8-5.6-2.3-1.5-1.5-2.3-3.5-2.3-5.6z"/><path class="a" d="m240.5 60c0-2.1 0.9-4.1 2.3-5.6 1.5-1.5 3.5-2.3 5.6-2.3 2.1 0 4.1 0.9 5.6 2.3 2.9 3 2.9 8.2 0 11.2-1.5 1.5-3.5 2.3-5.6 2.3-2.1 0-4.1-0.8-5.5-2.3-1.5-1.5-2.4-3.5-2.4-5.6z"/><path class="a" d="m194.3 60c0-2.1 0.8-4.1 2.3-5.6 1.4-1.5 3.4-2.3 5.5-2.3 2.1 0 4.1 0.9 5.6 2.3 3 3 3 8.2 0 11.2-1.5 1.5-3.5 2.3-5.6 2.3-2.1 0-4.1-0.8-5.5-2.3-1.5-1.5-2.3-3.5-2.3-5.6z"/><path class="a" d="m148 60c0-2.1 0.8-4.1 2.3-5.6 1.5-1.5 3.5-2.3 5.6-2.3 2 0 4.1 0.9 5.5 2.3 3 3 3 8.2 0 11.2-1.4 1.5-3.5 2.3-5.5 2.3-2.1 0-4.1-0.8-5.6-2.3-1.5-1.5-2.3-3.5-2.3-5.6z"/><path class="a" d="m101.7 60c0-2.1 0.8-4.1 2.3-5.6 1.5-1.5 3.5-2.3 5.6-2.3 2 0 4.1 0.9 5.5 2.3 3 3 3 8.2 0 11.2-1.4 1.5-3.5 2.3-5.5 2.3-2.1 0-4.1-0.8-5.6-2.3-1.5-1.5-2.3-3.5-2.3-5.6z"/></svg>