<svg width="199" height="199" viewBox="0 0 199 199" fill="none" xmlns="http://www.w3.org/2000/svg">
<g filter="url(#filter0_d_161_1202)">
<path d="M172.887 8H26.1129C18.3186 8 12 14.3186 12 22.1129V168.887C12 176.681 18.3186 183 26.1129 183H172.887C180.681 183 187 176.681 187 168.887V22.1129C187 14.3186 180.681 8 172.887 8Z" fill="white"/>
<path d="M172.887 8H26.1129C18.3186 8 12 14.3186 12 22.1129V168.887C12 176.681 18.3186 183 26.1129 183H172.887C180.681 183 187 176.681 187 168.887V22.1129C187 14.3186 180.681 8 172.887 8Z" fill="url(#paint0_linear_161_1202)" fill-opacity="0.2"/>
<path d="M172.887 8H26.1129C18.3186 8 12 14.3186 12 22.1129V168.887C12 176.681 18.3186 183 26.1129 183H172.887C180.681 183 187 176.681 187 168.887V22.1129C187 14.3186 180.681 8 172.887 8Z" stroke="#D5EAF6" stroke-width="15" stroke-linecap="round"/>
</g>
<g filter="url(#filter1_b_161_1202)">
<path d="M146.812 58H51.1875C47.2175 58 44 61.2175 44 65.1875V125.812C44 129.783 47.2175 133 51.1875 133H146.812C150.783 133 154 129.783 154 125.812V65.1875C154 61.2175 150.783 58 146.812 58Z" fill="url(#paint1_linear_161_1202)"/>
</g>
<g clip-path="url(#clip0_161_1202)">
<path d="M123.062 69.75C120.646 69.75 118.688 67.7911 118.688 65.375C118.688 62.9589 120.646 61 123.062 61C125.479 61 127.438 62.9589 127.438 65.375C127.438 67.7911 125.479 69.75 123.062 69.75Z" fill="url(#paint2_radial_161_1202)"/>
<path d="M121.969 103.656L123.062 104.75C123.062 106.861 119.858 109.125 121.969 109.125H125.25C126.453 109.125 127.547 109.617 128.345 110.405C129.087 111.156 129.566 112.17 129.62 113.29C129.74 115.809 127.525 117.875 125.004 117.875H120.328C119.573 117.875 118.884 118.181 118.392 118.673C117.9 119.166 117.594 119.855 117.594 120.609C117.594 121.364 117.9 122.053 118.392 122.545C118.884 123.038 119.573 123.344 120.328 123.344C121.378 123.344 122.341 123.77 123.03 124.47C123.698 125.128 124.117 126.034 124.154 127.029C124.235 129.212 122.298 131 120.114 131H72.2031C71.1531 131 70.1906 130.573 69.5016 129.873C68.8333 129.216 68.4144 128.309 68.3772 127.315C68.2963 125.132 70.2333 123.344 72.4175 123.344H84.7813C85.3828 123.344 85.9297 123.103 86.3234 122.698C86.7708 122.263 87.018 121.64 86.9611 120.963C86.8627 119.811 85.8148 118.969 84.6588 118.969H78.4922C77.2781 118.969 76.1844 118.477 75.3969 117.689C74.4234 116.703 73.9017 115.265 74.2014 113.728C74.6072 111.65 76.5409 110.219 78.6573 110.219H78.7656C79.5203 110.219 80.2094 109.913 80.7016 109.42C81.1577 108.964 81.4541 108.34 81.4945 107.651C81.5908 106.058 80.1864 104.75 78.5906 104.75H72.75C70.3328 104.75 68.375 102.792 68.375 100.375C68.375 100.375 64.8641 92.7188 67.2813 92.7188L71.6563 90.5312H75.4844C76.9948 90.5312 78.2188 89.3073 78.2188 87.7969C78.2188 86.2864 76.9948 85.0625 75.4844 85.0625H72.75C70.9377 85.0625 69.4688 83.5936 69.4688 81.7812C69.4688 79.9689 70.9377 78.5 72.75 78.5H86.9688C88.1719 78.5 89.2656 78.0078 90.0641 77.2203C90.8056 76.4689 91.2847 75.455 91.3383 74.335C91.4586 71.8161 89.2438 69.75 86.7227 69.75H78.2188C77.0156 69.75 75.9219 69.2578 75.1234 68.4703C74.3819 67.7189 73.9017 66.705 73.8492 65.585C73.7289 63.0661 75.9438 61 78.4648 61H112.125C113.328 61 114.422 61.4922 115.22 62.2797C115.962 63.0311 116.441 64.045 116.495 65.165C116.615 67.6839 114.4 69.75 111.879 69.75H109.938C109.03 69.75 108.209 70.1219 107.619 70.7125C106.977 71.3545 106.593 72.2689 106.665 73.2708C106.791 75.0197 108.37 76.3125 110.122 76.3125H112.672C113.722 76.3125 114.684 76.7391 115.373 77.4391C116.042 78.0964 116.461 79.0031 116.498 79.9973C116.579 82.1805 114.642 83.9688 112.458 83.9688H111.031C110.123 83.9688 109.303 84.3406 108.713 84.9312C108.07 85.5733 107.687 86.4877 107.759 87.4895C107.885 89.2384 109.464 90.5312 111.216 90.5312H128.531C130.041 90.5312 131.408 91.1437 132.403 92.1281C133.344 93.0797 133.945 94.3703 133.997 95.8009C134.108 98.9159 131.385 101.469 128.268 101.469H125.797C123.686 101.469 121.969 101.545 121.969 103.656Z" fill="url(#paint3_radial_161_1202)" fill-opacity="0.2"/>
<path d="M73.147 87.8352C68.2175 87.8352 64.1094 89.9265 64.1094 96.2363C64.1094 101.235 66.8711 104.383 73.2739 104.383C77.9289 104.383 79.8933 102.488 80.7147 101.04C81.1259 100.315 80.5856 99.418 79.7533 99.418H77.1523C76.8144 99.418 76.4688 99.535 76.2533 99.7965C74.4891 101.924 69.3386 101.474 68.7972 97.7096C68.7491 97.3716 68.9952 97.061 69.3364 97.061C71.3423 97.061 77.9606 97.061 80.5867 97.061C81.1905 97.061 81.675 96.571 81.675 95.9672V95.218C81.675 92.3141 79.8309 87.8352 73.147 87.8352ZM75.8628 93.6157H70.0364C69.5617 93.6157 69.3178 93.0568 69.6273 92.6958C71.2198 90.8354 74.9309 90.7665 76.3342 92.7855C76.5759 93.1344 76.2872 93.6157 75.8628 93.6157Z" fill="url(#paint4_linear_161_1202)"/>
<path d="M82.7666 81.8906C82.1628 81.8906 81.6728 82.3806 81.6728 82.9844V101.379C81.6728 101.858 81.6575 102.422 81.6411 102.907C81.6313 103.203 81.7417 103.492 81.9474 103.705C82.1541 103.919 82.4374 104.039 82.7349 104.039H85.1695C85.7481 104.039 86.2272 103.588 86.2611 103.011C86.2622 102.999 86.2622 102.988 86.2633 102.976C87.2389 103.726 88.9419 104.596 91.6008 104.596C96.5281 104.596 99.875 101.176 99.875 96.2745C99.875 91.7158 96.8005 88.0484 91.6095 88.0484C88.9124 88.0484 87.2466 88.8567 86.2983 89.5764V82.9844C86.2983 82.3806 85.8083 81.8906 85.2045 81.8906H82.7666ZM90.7094 91.5528C96.7228 91.5681 96.3739 101.091 90.7345 101.091C84.8764 101.091 84.8535 91.5692 90.7094 91.5528Z" fill="url(#paint5_linear_161_1202)"/>
<path d="M108.53 88.0002C103.651 88.0002 101.776 89.7579 101.064 91.1448C100.696 91.8612 101.249 92.7099 102.053 92.7099H104.527C104.887 92.7099 105.2 92.5109 105.41 92.2188C105.748 91.7507 106.523 91.1776 108.268 91.1776C111.11 91.1776 111.584 92.6902 111.619 92.7788C111.748 93.1102 111.77 93.4635 111.768 93.8179C111.768 94.1198 111.523 94.3648 111.222 94.3648L108.274 94.3659C102.528 94.3659 99.4911 96.047 99.4911 99.4573C99.4911 102.814 102.298 104.641 106.09 104.641C109.034 104.641 110.841 103.714 111.852 102.916C111.853 102.941 111.854 102.966 111.855 102.991C111.879 103.577 112.36 104.04 112.947 104.04H115.113C115.415 104.04 115.703 103.915 115.909 103.697C116.116 103.477 116.224 103.183 116.206 102.881C116.183 102.506 116.165 102.1 116.165 101.765V94.0924C116.167 89.059 112.11 88.0002 108.53 88.0002ZM110.886 97.7598C111.242 97.7652 111.494 98.1076 111.407 98.4543C110.519 102.016 104.278 101.955 104.278 99.4923C104.278 97.739 108.453 97.7226 110.886 97.7598Z" fill="url(#paint6_linear_161_1202)"/>
<path d="M115.037 90.2458C114.648 89.5173 115.177 88.6379 116.002 88.6379H118.802C119.217 88.6379 119.595 88.872 119.781 89.2428L123.802 97.2993C124.003 97.7029 124.58 97.7029 124.781 97.2993L128.792 89.245C128.976 88.8731 129.356 88.639 129.771 88.639H132.215C133.032 88.639 133.56 89.502 133.19 90.2293L123.474 109.299C123.287 109.665 122.911 109.896 122.499 109.896H119.794C118.971 109.896 118.443 109.02 118.826 108.292L121.589 103.055C121.673 102.894 121.673 102.702 121.588 102.543L115.037 90.2458Z" fill="url(#paint7_linear_161_1202)"/>
</g>
<defs>
<filter id="filter0_d_161_1202" x="0.5" y="0.5" width="198" height="198" filterUnits="userSpaceOnUse" color-interpolation-filters="sRGB">
<feFlood flood-opacity="0" result="BackgroundImageFix"/>
<feColorMatrix in="SourceAlpha" type="matrix" values="0 0 0 0 0 0 0 0 0 0 0 0 0 0 0 0 0 0 127 0" result="hardAlpha"/>
<feOffset dy="4"/>
<feGaussianBlur stdDeviation="2"/>
<feComposite in2="hardAlpha" operator="out"/>
<feColorMatrix type="matrix" values="0 0 0 0 0.8375 0 0 0 0 0.732812 0 0 0 0 0.732812 0 0 0 0.25 0"/>
<feBlend mode="normal" in2="BackgroundImageFix" result="effect1_dropShadow_161_1202"/>
<feBlend mode="normal" in="SourceGraphic" in2="effect1_dropShadow_161_1202" result="shape"/>
</filter>
<filter id="filter1_b_161_1202" x="40" y="54" width="118" height="83" filterUnits="userSpaceOnUse" color-interpolation-filters="sRGB">
<feFlood flood-opacity="0" result="BackgroundImageFix"/>
<feGaussianBlur in="BackgroundImageFix" stdDeviation="2"/>
<feComposite in2="SourceAlpha" operator="in" result="effect1_backgroundBlur_161_1202"/>
<feBlend mode="normal" in="SourceGraphic" in2="effect1_backgroundBlur_161_1202" result="shape"/>
</filter>
<linearGradient id="paint0_linear_161_1202" x1="99.5" y1="16.4677" x2="99.5" y2="174.532" gradientUnits="userSpaceOnUse">
<stop stop-color="white"/>
<stop offset="0.472222" stop-color="#0D5176" stop-opacity="0.527778"/>
<stop offset="0.940972" stop-color="#12A6F7" stop-opacity="0.465278"/>
<stop offset="1" stop-opacity="0"/>
</linearGradient>
<linearGradient id="paint1_linear_161_1202" x1="89.9375" y1="63.1525" x2="110.87" y2="137.867" gradientUnits="userSpaceOnUse">
<stop stop-color="#1D59B3"/>
<stop offset="1" stop-color="#195BBC"/>
</linearGradient>
<radialGradient id="paint2_radial_161_1202" cx="0" cy="0" r="1" gradientUnits="userSpaceOnUse" gradientTransform="translate(101.871 95.8633) scale(25.3816)">
<stop stop-color="#F4E9C3"/>
<stop offset="0.219" stop-color="#F8EECD"/>
<stop offset="0.644" stop-color="#FDF4DC"/>
<stop offset="1" stop-color="#FFF6E1"/>
</radialGradient>
<radialGradient id="paint3_radial_161_1202" cx="0" cy="0" r="1" gradientUnits="userSpaceOnUse" gradientTransform="translate(100.216 96) scale(34.3973 30.9576)">
<stop stop-color="#E7F5F5"/>
<stop offset="0.219" stop-color="#F8EECD"/>
<stop offset="0.644" stop-color="#FDF4DC"/>
<stop offset="1" stop-color="#FFF6E1"/>
</radialGradient>
<linearGradient id="paint4_linear_161_1202" x1="72.8922" y1="104.383" x2="72.8922" y2="87.8352" gradientUnits="userSpaceOnUse">
<stop stop-color="#FF634D"/>
<stop offset="0.204" stop-color="#FE6464"/>
<stop offset="0.521" stop-color="#FC6581"/>
<stop offset="0.794" stop-color="#FA6694"/>
<stop offset="0.989" stop-color="#FA669A"/>
<stop offset="1" stop-color="#FA669A"/>
</linearGradient>
<linearGradient id="paint5_linear_161_1202" x1="90.7575" y1="109.303" x2="90.7575" y2="83.8955" gradientUnits="userSpaceOnUse">
<stop stop-color="#155CDE"/>
<stop offset="0.278" stop-color="#1F7FE5"/>
<stop offset="0.569" stop-color="#279CEB"/>
<stop offset="0.82" stop-color="#2CAFEF"/>
<stop offset="1" stop-color="#2EB5F0"/>
</linearGradient>
<linearGradient id="paint6_linear_161_1202" x1="107.852" y1="115.339" x2="107.852" y2="82.9898" gradientUnits="userSpaceOnUse">
<stop stop-color="#FEAA53"/>
<stop offset="0.612" stop-color="#FFCD49"/>
<stop offset="1" stop-color="#FFDE44"/>
</linearGradient>
<linearGradient id="paint7_linear_161_1202" x1="124.108" y1="84.5714" x2="124.108" y2="126.691" gradientUnits="userSpaceOnUse">
<stop stop-color="#42D778"/>
<stop offset="0.996" stop-color="#34B171"/>
<stop offset="1" stop-color="#34B171"/>
</linearGradient>
<clipPath id="clip0_161_1202">
<rect width="70" height="70" fill="white" transform="translate(64 61)"/>
</clipPath>
</defs>
</svg>
