<svg width="191" height="191" viewBox="0 0 191 191" fill="none" xmlns="http://www.w3.org/2000/svg">
<path d="M168.887 8H22.1129C14.3186 8 8 14.3186 8 22.1129V168.887C8 176.681 14.3186 183 22.1129 183H168.887C176.681 183 183 176.681 183 168.887V22.1129C183 14.3186 176.681 8 168.887 8Z" fill="white"/>
<path d="M168.887 8H22.1129C14.3186 8 8 14.3186 8 22.1129V168.887C8 176.681 14.3186 183 22.1129 183H168.887C176.681 183 183 176.681 183 168.887V22.1129C183 14.3186 176.681 8 168.887 8Z" stroke="#D5EAF6" stroke-width="15" stroke-linecap="round"/>
<path d="M168.887 8H22.1129C14.3186 8 8 14.3186 8 22.1129V168.887C8 176.681 14.3186 183 22.1129 183H168.887C176.681 183 183 176.681 183 168.887V22.1129C183 14.3186 176.681 8 168.887 8Z" stroke="#D5EAF6" stroke-width="15" stroke-linecap="round"/>
<path d="M168.887 8H22.1129C14.3186 8 8 14.3186 8 22.1129V168.887C8 176.681 14.3186 183 22.1129 183H168.887C176.681 183 183 176.681 183 168.887V22.1129C183 14.3186 176.681 8 168.887 8Z" fill="url(#paint0_linear_139_915)" fill-opacity="0.2"/>
<g filter="url(#filter0_dd_139_915)">
<path d="M131.201 72.8506C131.764 73.4133 132.08 74.1763 132.08 74.972V141.296C132.08 144.282 129.661 146.701 126.675 146.701H56.4053C53.4189 146.701 51 144.282 51 141.296V49.4053C51 46.4189 53.4189 44 56.4053 44H101.108C101.904 44 102.667 44.3161 103.229 44.8787L131.201 72.8506Z" fill="#50E6FF"/>
<path d="M114.512 87.2426H68.5672C67.8212 87.2426 67.2158 86.6372 67.2158 85.8913V83.1886C67.2158 82.4427 67.8212 81.8373 68.5672 81.8373H114.512C115.258 81.8373 115.864 82.4427 115.864 83.1886V85.8913C115.864 86.6372 115.258 87.2426 114.512 87.2426Z" fill="#057093"/>
<path d="M109.107 98.0533H68.5672C67.8212 98.0533 67.2158 97.4479 67.2158 96.702V93.9993C67.2158 93.2534 67.8212 92.648 68.5672 92.648H109.107C109.853 92.648 110.458 93.2534 110.458 93.9993V96.702C110.458 97.4479 109.853 98.0533 109.107 98.0533Z" fill="#057093"/>
<path d="M111.81 108.864H68.5672C67.8212 108.864 67.2158 108.259 67.2158 107.513V104.81C67.2158 104.064 67.8212 103.459 68.5672 103.459H111.81C112.556 103.459 113.161 104.064 113.161 104.81V107.513C113.161 108.259 112.556 108.864 111.81 108.864Z" fill="#057093"/>
<path d="M68.5672 119.675C67.8212 119.675 67.2158 119.069 67.2158 118.323V115.621C67.2158 114.875 67.8212 114.269 68.5672 114.269H98.2965C99.0424 114.269 99.6478 114.875 99.6478 115.621V118.323C99.6478 119.069 99.0424 119.675 98.2965 119.675" fill="#057093"/>
<path d="M101.013 139.958L105.926 135.045" stroke="#1C8EE6" stroke-width="2.08333" stroke-miterlimit="10" stroke-linecap="round" stroke-linejoin="round"/>
<path d="M139.939 99.3449C141.111 98.1734 141.111 96.2739 139.939 95.1023L138.074 93.2372C137.291 92.4534 136.02 92.4534 135.239 93.2372L121.858 106.618C121.075 107.402 121.075 108.672 121.858 109.453L123.723 111.318C124.895 112.49 126.795 112.49 127.966 111.318L139.939 99.3449Z" fill="#B31523"/>
<path d="M142.31 97.7206C141.138 96.5491 141.138 94.6491 142.309 93.4774L145.333 90.4534C146.009 89.7777 147.104 89.7777 147.779 90.4534L150.493 93.1641C151.168 93.8398 151.168 94.9344 150.493 95.61L147.468 98.6352C146.296 99.8065 144.397 99.8068 143.226 98.6357L142.31 97.7206Z" fill="url(#paint1_linear_139_915)"/>
<path d="M104.952 129.657C103.742 129.826 102.756 130.711 102.458 131.896L101.346 136.32C100.846 138.301 102.643 140.099 104.627 139.601L109.012 138.497C110.216 138.193 111.109 137.18 111.258 135.948L111.672 132.522C111.909 130.567 110.228 128.918 108.278 129.191L104.952 129.657Z" fill="url(#paint2_linear_139_915)"/>
<path d="M147.504 101.496L113.017 135.985C111.846 137.157 109.946 137.157 108.775 135.985L104.961 132.171C103.789 131 103.789 129.1 104.961 127.929L139.447 93.4398C140.504 92.3831 142.214 92.3831 143.269 93.4398L147.504 97.6749C148.56 98.7289 148.56 100.442 147.504 101.496Z" fill="url(#paint3_linear_139_915)"/>
<path d="M122.391 113.895C121.449 112.954 121.448 111.427 122.389 110.486V110.486C123.331 109.544 124.857 109.543 125.799 110.484L130.45 115.133C131.392 116.074 131.393 117.6 130.452 118.542V118.542C129.511 119.484 127.984 119.485 127.042 118.543L122.391 113.895Z" fill="url(#paint4_linear_139_915)"/>
<path d="M76.6224 137.404C75.9336 137.404 75.3294 137.089 74.9631 136.541C74.7165 136.17 74.591 135.709 74.591 135.171C74.591 134.236 75.1003 132.607 75.9102 130.977C75.6869 129.54 75.2652 128.003 74.5953 126.891C74.1663 126.176 73.8248 125.988 73.7037 125.988C72.1816 125.988 71.0433 129.116 70.7573 130.543C70.6026 131.317 69.8452 131.819 69.044 131.669C68.253 131.518 67.7364 130.767 67.8926 129.994C68.0341 129.293 69.3913 123.134 73.7037 123.134C75.8956 123.134 77.2893 125.24 78.0992 127.663C79.0069 126.663 80.008 125.988 81.0004 125.988C83.9089 125.988 84.8647 129.287 85.5638 131.698C85.5886 131.78 85.6134 131.867 85.6396 131.956C85.7024 131.835 85.7622 131.718 85.8162 131.61C86.7473 129.777 87.8024 127.7 89.7564 127.7C90.5635 127.7 91.2158 128.34 91.2158 129.127C91.2158 129.875 90.6277 130.49 89.8776 130.55C89.4689 130.836 88.7962 132.158 88.4299 132.881C87.5864 134.543 86.8567 135.977 85.3784 135.977C83.7702 135.977 83.3003 134.355 82.756 132.477C82.4685 131.482 81.7023 128.842 81.0004 128.842C80.5276 129.02 79.6724 130.193 78.9237 131.508C78.9982 132.164 79.0317 132.768 79.0317 133.274C79.0317 134.233 78.931 135.031 78.7297 135.646C78.213 137.233 77.0835 137.404 76.6224 137.404Z" fill="#199BE2"/>
<path d="M73.6247 66.2866C75.7742 66.2866 77.5166 64.6112 77.5166 62.5444C77.5166 60.4777 75.7742 58.8023 73.6247 58.8023C71.4753 58.8023 69.7329 60.4777 69.7329 62.5444C69.7329 64.6112 71.4753 66.2866 73.6247 66.2866Z" fill="#057093"/>
<path d="M73.7025 68.1577C70.4781 68.1577 67.8647 70.6705 67.8647 73.7709V76.3904C67.8647 77.0097 68.3882 77.513 69.0323 77.513H78.3727C79.0168 77.513 79.5403 77.0097 79.5403 76.3904V73.7709C79.5403 70.6705 76.9269 68.1577 73.7025 68.1577Z" fill="#057093"/>
<path d="M102.891 73.847C102.891 70.8467 98.2026 71.4325 98.2026 69.6596C98.2026 68.7341 99.3034 68.6853 99.6483 68.6853C100.476 68.6853 101.275 68.8949 101.884 69.165C102.076 69.2499 102.296 69.1242 102.296 68.9241V68.0512C102.296 67.7582 102.179 67.5847 101.993 67.5163C101.575 67.3629 100.976 67.2509 100.089 67.2233V66.2623C100.089 66.1472 99.9903 66.0538 99.8684 66.0538H99.427C99.3051 66.0538 99.2063 66.1472 99.2063 66.2623V67.2387C97.8314 67.3656 96.4048 68.0989 96.4048 69.8055C96.4048 72.9157 101.093 72.2991 101.093 73.9372C101.093 74.452 100.745 74.8961 99.6471 74.8961C98.5441 74.8961 97.5303 74.5321 96.9692 74.2609C96.7805 74.1696 96.5581 74.3018 96.5581 74.5024V75.4963C96.5581 75.6868 96.6794 75.8566 96.8653 75.9309C97.5303 76.1978 98.4216 76.3995 99.2057 76.4589V77.5207C99.2057 77.6359 99.3045 77.7293 99.4264 77.7293H99.8679C99.9897 77.7293 100.089 77.6359 100.089 77.5207V76.4594C102.148 76.2976 102.891 74.9959 102.891 73.847Z" fill="#0078D4"/>
<circle cx="108.081" cy="76.432" r="1.29728" transform="rotate(-33.8873 108.081 76.432)" fill="white"/>
<circle cx="113.269" cy="76.432" r="1.29728" transform="rotate(-24.1437 113.269 76.432)" fill="white"/>
</g>
<defs>
<filter id="filter0_dd_139_915" x="47" y="44" width="108" height="110.701" filterUnits="userSpaceOnUse" color-interpolation-filters="sRGB">
<feFlood flood-opacity="0" result="BackgroundImageFix"/>
<feColorMatrix in="SourceAlpha" type="matrix" values="0 0 0 0 0 0 0 0 0 0 0 0 0 0 0 0 0 0 127 0" result="hardAlpha"/>
<feOffset dy="4"/>
<feGaussianBlur stdDeviation="2"/>
<feComposite in2="hardAlpha" operator="out"/>
<feColorMatrix type="matrix" values="0 0 0 0 0 0 0 0 0 0 0 0 0 0 0 0 0 0 0.25 0"/>
<feBlend mode="normal" in2="BackgroundImageFix" result="effect1_dropShadow_139_915"/>
<feColorMatrix in="SourceAlpha" type="matrix" values="0 0 0 0 0 0 0 0 0 0 0 0 0 0 0 0 0 0 127 0" result="hardAlpha"/>
<feOffset dy="4"/>
<feGaussianBlur stdDeviation="2"/>
<feComposite in2="hardAlpha" operator="out"/>
<feColorMatrix type="matrix" values="0 0 0 0 0.891667 0 0 0 0 0.891667 0 0 0 0 0.891667 0 0 0 0.25 0"/>
<feBlend mode="normal" in2="effect1_dropShadow_139_915" result="effect2_dropShadow_139_915"/>
<feBlend mode="normal" in="SourceGraphic" in2="effect2_dropShadow_139_915" result="shape"/>
</filter>
<linearGradient id="paint0_linear_139_915" x1="95.5" y1="16.4677" x2="95.5" y2="174.532" gradientUnits="userSpaceOnUse">
<stop stop-color="white"/>
<stop offset="0.472222" stop-color="#0D5176" stop-opacity="0.527778"/>
<stop offset="0.940972" stop-color="#12A6F7" stop-opacity="0.465278"/>
<stop offset="1" stop-opacity="0"/>
</linearGradient>
<linearGradient id="paint1_linear_139_915" x1="145.593" y1="90.3155" x2="145.593" y2="101.053" gradientUnits="userSpaceOnUse">
<stop stop-color="#FFDA1C"/>
<stop offset="1" stop-color="#FEB705"/>
</linearGradient>
<linearGradient id="paint2_linear_139_915" x1="101.259" y1="134.166" x2="112.14" y2="134.166" gradientUnits="userSpaceOnUse">
<stop stop-color="#FFDA1C"/>
<stop offset="1" stop-color="#FEB705"/>
</linearGradient>
<linearGradient id="paint3_linear_139_915" x1="102.837" y1="115.377" x2="148.296" y2="115.377" gradientUnits="userSpaceOnUse">
<stop stop-color="#F44F5A"/>
<stop offset="0.443" stop-color="#EE3D4A"/>
<stop offset="1" stop-color="#E52030"/>
</linearGradient>
<linearGradient id="paint4_linear_139_915" x1="126.421" y1="109.172" x2="126.421" y2="120.564" gradientUnits="userSpaceOnUse">
<stop stop-color="#FFDA1C"/>
<stop offset="1" stop-color="#FEB705"/>
</linearGradient>
</defs>
</svg>
