<svg width="199" height="199" viewBox="0 0 199 199" fill="none" xmlns="http://www.w3.org/2000/svg">
<g filter="url(#filter0_d_138_869)">
<path d="M172.887 8H26.1129C18.3186 8 12 14.3186 12 22.1129V168.887C12 176.681 18.3186 183 26.1129 183H172.887C180.681 183 187 176.681 187 168.887V22.1129C187 14.3186 180.681 8 172.887 8Z" fill="white"/>
<path d="M172.887 8H26.1129C18.3186 8 12 14.3186 12 22.1129V168.887C12 176.681 18.3186 183 26.1129 183H172.887C180.681 183 187 176.681 187 168.887V22.1129C187 14.3186 180.681 8 172.887 8Z" fill="url(#paint0_linear_138_869)" fill-opacity="0.2"/>
<path d="M172.887 8H26.1129C18.3186 8 12 14.3186 12 22.1129V168.887C12 176.681 18.3186 183 26.1129 183H172.887C180.681 183 187 176.681 187 168.887V22.1129C187 14.3186 180.681 8 172.887 8Z" stroke="#D5EAF6" stroke-width="15" stroke-linecap="round"/>
</g>
<g filter="url(#filter1_bd_138_869)">
<g filter="url(#filter2_bd_138_869)">
<path d="M35 141.5V66.75H165V141.5C165 145.075 162.075 148 158.5 148H41.5C37.925 148 35 145.075 35 141.5Z" fill="url(#paint1_linear_138_869)"/>
<path d="M165 50.5V66.75H35V50.5C35 46.925 37.925 44 41.5 44H158.5C162.075 44 165 46.925 165 50.5Z" fill="url(#paint2_linear_138_869)"/>
<path d="M75.625 60.25H156.875C157.772 60.25 158.5 59.522 158.5 58.625V52.125C158.5 51.228 157.772 50.5 156.875 50.5H75.625C74.728 50.5 74 51.228 74 52.125V58.625C74 59.522 74.728 60.25 75.625 60.25Z" fill="url(#paint3_linear_138_869)"/>
<path d="M46.375 60.25C49.0674 60.25 51.25 58.0674 51.25 55.375C51.25 52.6827 49.0674 50.5 46.375 50.5C43.6827 50.5 41.5 52.6827 41.5 55.375C41.5 58.0674 43.6827 60.25 46.375 60.25Z" fill="url(#paint4_linear_138_869)"/>
<path d="M62.6149 60.25C65.3073 60.25 67.4899 58.0674 67.4899 55.375C67.4899 52.6827 65.3073 50.5 62.6149 50.5C59.9226 50.5 57.7399 52.6827 57.7399 55.375C57.7399 58.0674 59.9226 60.25 62.6149 60.25Z" fill="url(#paint5_linear_138_869)"/>
</g>
<g filter="url(#filter3_d_138_869)">
<rect x="51.4667" y="123.8" width="41.6" height="2.6" fill="#F2F2F2"/>
</g>
<g clip-path="url(#clip0_138_869)">
<rect x="100.867" y="103" width="49" height="33" rx="3" fill="#D5D5D5" fill-opacity="0.2"/>
<path d="M114.867 118H112.867C112.315 118 111.867 117.552 111.867 117V115C111.867 114.448 112.315 114 112.867 114H114.867C115.419 114 115.867 114.448 115.867 115V117C115.867 117.552 115.419 118 114.867 118Z" fill="white" fill-opacity="0.88"/>
<path d="M114.867 125H112.867C112.315 125 111.867 124.552 111.867 124V122C111.867 121.448 112.315 121 112.867 121H114.867C115.419 121 115.867 121.448 115.867 122V124C115.867 124.552 115.419 125 114.867 125Z" fill="white" fill-opacity="0.88"/>
<path d="M114.867 132H112.867C112.315 132 111.867 131.552 111.867 131V129C111.867 128.448 112.315 128 112.867 128H114.867C115.419 128 115.867 128.448 115.867 129V131C115.867 131.552 115.419 132 114.867 132Z" fill="white" fill-opacity="0.88"/>
<path d="M114.867 111H112.867C112.315 111 111.867 110.552 111.867 110V108C111.867 107.448 112.315 107 112.867 107H114.867C115.419 107 115.867 107.448 115.867 108V110C115.867 110.552 115.419 111 114.867 111Z" fill="white" fill-opacity="0.88"/>
<path d="M105.867 107.8C105.867 107.358 106.225 107 106.667 107H109.067C109.509 107 109.867 107.358 109.867 107.8V110.2C109.867 110.642 109.509 111 109.067 111H106.667C106.225 111 105.867 110.642 105.867 110.2V107.8Z" fill="white" fill-opacity="0.5"/>
<path d="M108.533 108.753C108.71 108.858 108.712 109.125 108.536 109.233L107.673 109.762C107.497 109.869 107.275 109.738 107.273 109.524L107.267 108.479C107.265 108.266 107.486 108.131 107.663 108.237L108.533 108.753Z" fill="url(#paint6_radial_138_869)"/>
<path d="M108.533 108.753C108.71 108.858 108.712 109.125 108.536 109.233L107.673 109.762C107.497 109.869 107.275 109.738 107.273 109.524L107.267 108.479C107.265 108.266 107.486 108.131 107.663 108.237L108.533 108.753Z" fill="black" fill-opacity="0.2"/>
<path d="M105.867 114.8C105.867 114.358 106.225 114 106.667 114H109.067C109.509 114 109.867 114.358 109.867 114.8V117.2C109.867 117.642 109.509 118 109.067 118H106.667C106.225 118 105.867 117.642 105.867 117.2V114.8Z" fill="white" fill-opacity="0.5"/>
<path d="M108.533 115.753C108.71 115.858 108.712 116.125 108.536 116.233L107.673 116.762C107.497 116.869 107.275 116.738 107.273 116.524L107.267 115.479C107.265 115.266 107.486 115.131 107.663 115.237L108.533 115.753Z" fill="url(#paint7_radial_138_869)"/>
<path d="M108.533 115.753C108.71 115.858 108.712 116.125 108.536 116.233L107.673 116.762C107.497 116.869 107.275 116.738 107.273 116.524L107.267 115.479C107.265 115.266 107.486 115.131 107.663 115.237L108.533 115.753Z" fill="black" fill-opacity="0.2"/>
<path d="M105.867 121.8C105.867 121.358 106.225 121 106.667 121H109.067C109.509 121 109.867 121.358 109.867 121.8V124.2C109.867 124.642 109.509 125 109.067 125H106.667C106.225 125 105.867 124.642 105.867 124.2V121.8Z" fill="white" fill-opacity="0.5"/>
<path d="M108.533 122.753C108.71 122.858 108.712 123.125 108.536 123.233L107.673 123.762C107.497 123.869 107.275 123.738 107.273 123.524L107.267 122.479C107.265 122.266 107.486 122.131 107.663 122.237L108.533 122.753Z" fill="url(#paint8_radial_138_869)"/>
<path d="M108.533 122.753C108.71 122.858 108.712 123.125 108.536 123.233L107.673 123.762C107.497 123.869 107.275 123.738 107.273 123.524L107.267 122.479C107.265 122.266 107.486 122.131 107.663 122.237L108.533 122.753Z" fill="black" fill-opacity="0.2"/>
<path d="M105.867 128.8C105.867 128.358 106.225 128 106.667 128H109.067C109.509 128 109.867 128.358 109.867 128.8V131.2C109.867 131.642 109.509 132 109.067 132H106.667C106.225 132 105.867 131.642 105.867 131.2V128.8Z" fill="white" fill-opacity="0.5"/>
<path d="M108.533 129.753C108.71 129.858 108.712 130.125 108.536 130.233L107.673 130.762C107.497 130.869 107.275 130.738 107.273 130.524L107.267 129.479C107.265 129.266 107.486 129.131 107.663 129.237L108.533 129.753Z" fill="url(#paint9_radial_138_869)"/>
<path d="M108.533 129.753C108.71 129.858 108.712 130.125 108.536 130.233L107.673 130.762C107.497 130.869 107.275 130.738 107.273 130.524L107.267 129.479C107.265 129.266 107.486 129.131 107.663 129.237L108.533 129.753Z" fill="black" fill-opacity="0.2"/>
<path d="M116.867 108H144.867C145.419 108 145.867 108.448 145.867 109V109C145.867 109.552 145.419 110 144.867 110H116.867V108Z" fill="#D9D9D9" fill-opacity="0.5"/>
<path d="M116.867 115H144.867C145.419 115 145.867 115.448 145.867 116V116C145.867 116.552 145.419 117 144.867 117H116.867V115Z" fill="#D9D9D9" fill-opacity="0.5"/>
<path d="M116.867 122H144.867C145.419 122 145.867 122.448 145.867 123V123C145.867 123.552 145.419 124 144.867 124H116.867V122Z" fill="#D9D9D9" fill-opacity="0.5"/>
<path d="M116.867 129H144.867C145.419 129 145.867 129.448 145.867 130V130C145.867 130.552 145.419 131 144.867 131H116.867V129Z" fill="#D9D9D9" fill-opacity="0.5"/>
</g>
<path d="M55.8347 119.467C53.4223 119.467 51.4667 117.511 51.4667 115.099V82.2347C51.4667 79.8223 53.4223 77.8667 55.8347 77.8667H88.6987C91.1111 77.8667 93.0667 79.8223 93.0667 82.2347V115.099C93.0667 117.511 91.1111 119.467 88.6987 119.467H55.8347Z" fill="#ECF0F1"/>
<path d="M85.8666 88.7467H58.6666V107.787H85.8666V88.7467Z" fill="url(#paint10_radial_138_869)"/>
<path d="M71.5867 107.787H72.9467V111.867H71.5867V107.787Z" fill="#64717C"/>
<path d="M85.8666 89.4267H58.6666C58.2913 89.4267 57.9866 89.122 57.9866 88.7467V87.3867C57.9866 87.0113 58.2913 86.7067 58.6666 86.7067H85.8666C86.242 86.7067 86.5466 87.0113 86.5466 87.3867V88.7467C86.5466 89.122 86.242 89.4267 85.8666 89.4267Z" fill="#35C1F1"/>
<path d="M85.8666 107.107H58.6666V108.467H85.8666V107.107Z" fill="#35C1F1"/>
<path d="M70.9067 111.867C70.9067 112.617 71.516 113.227 72.2667 113.227C73.0174 113.227 73.6267 112.617 73.6267 111.867C73.6267 111.116 73.0174 110.507 72.2667 110.507C71.516 110.507 70.9067 111.116 70.9067 111.867Z" fill="#ABB4BE"/>
<path d="M66.1467 93.5067C63.5178 93.5067 61.3867 95.6378 61.3867 98.2667C61.3867 100.896 63.5178 103.027 66.1467 103.027C68.7755 103.027 70.9067 100.896 70.9067 98.2667H66.1467V93.5067Z" fill="white"/>
<path d="M67.5067 92.1467V96.9067H72.2667C72.2667 94.2778 70.1355 92.1467 67.5067 92.1467Z" fill="white"/>
<path d="M82.8067 94.1867H75.3267C75.139 94.1867 74.9867 94.0343 74.9867 93.8467V93.1667C74.9867 92.979 75.139 92.8267 75.3267 92.8267H82.8067C82.9944 92.8267 83.1467 92.979 83.1467 93.1667V93.8467C83.1467 94.0343 82.9944 94.1867 82.8067 94.1867Z" fill="white"/>
<path d="M81.4466 95.5466H75.3266C75.139 95.5466 74.9866 95.6989 74.9866 95.8866V96.5666C74.9866 96.7543 75.139 96.9066 75.3266 96.9066H81.4466C81.6343 96.9066 81.7866 96.7543 81.7866 96.5666V95.8866C81.7866 95.699 81.6343 95.5466 81.4466 95.5466Z" fill="white"/>
<path d="M82.8067 98.2666H75.3267C75.139 98.2666 74.9867 98.4189 74.9867 98.6066V99.2866C74.9867 99.4743 75.139 99.6266 75.3267 99.6266H82.8067C82.9944 99.6266 83.1467 99.4743 83.1467 99.2866V98.6066C83.1467 98.4189 82.9944 98.2666 82.8067 98.2666Z" fill="white"/>
<path d="M81.4466 100.987H75.3266C75.139 100.987 74.9866 101.139 74.9866 101.327V102.007C74.9866 102.194 75.139 102.347 75.3266 102.347H81.4466C81.6343 102.347 81.7866 102.194 81.7866 102.007V101.327C81.7866 101.139 81.6343 100.987 81.4466 100.987Z" fill="white"/>
<path d="M85.8667 108.467C86.2423 108.467 86.5467 108.162 86.5467 107.787C86.5467 107.411 86.2423 107.107 85.8667 107.107C85.4912 107.107 85.1867 107.411 85.1867 107.787C85.1867 108.162 85.4912 108.467 85.8667 108.467Z" fill="#35C1F1"/>
<path d="M58.6666 108.467C59.0422 108.467 59.3466 108.162 59.3466 107.787C59.3466 107.411 59.0422 107.107 58.6666 107.107C58.2911 107.107 57.9866 107.411 57.9866 107.787C57.9866 108.162 58.2911 108.467 58.6666 108.467Z" fill="#35C1F1"/>
<rect x="102" y="97" width="6" height="4" fill="#D9D9D9" fill-opacity="0.5"/>
<rect x="101.733" y="92.6" width="37.2667" height="1.73333" fill="#D9D9D9" fill-opacity="0.5"/>
<rect width="40.7333" height="1.73333" transform="matrix(1 0 0 -1 101.733 90)" fill="#D9D9D9" fill-opacity="0.5"/>
<path d="M103.472 85.0853C103.023 85.0853 102.636 84.9944 102.313 84.8126C101.991 84.6288 101.742 84.3694 101.568 84.0341C101.394 83.697 101.307 83.2984 101.307 82.8381C101.307 82.3893 101.394 81.9953 101.568 81.6563C101.742 81.3173 101.988 81.0531 102.304 80.8637C102.622 80.6743 102.995 80.5796 103.423 80.5796C103.711 80.5796 103.979 80.626 104.227 80.7188C104.477 80.8097 104.695 80.947 104.881 81.1307C105.068 81.3144 105.214 81.5455 105.318 81.8239C105.422 82.1004 105.474 82.4243 105.474 82.7955V83.1279H101.79V82.3779H104.335C104.335 82.2037 104.297 82.0493 104.222 81.9148C104.146 81.7804 104.041 81.6752 103.906 81.5995C103.774 81.5218 103.619 81.483 103.443 81.483C103.259 81.483 103.097 81.5256 102.955 81.6109C102.814 81.6942 102.705 81.8069 102.625 81.9489C102.545 82.0891 102.505 82.2453 102.503 82.4177V83.1307C102.503 83.3466 102.543 83.5332 102.622 83.6904C102.704 83.8476 102.818 83.9688 102.966 84.054C103.114 84.1393 103.289 84.1819 103.491 84.1819C103.626 84.1819 103.749 84.1629 103.861 84.1251C103.973 84.0872 104.068 84.0304 104.148 83.9546C104.227 83.8788 104.288 83.786 104.33 83.6762L105.449 83.7501C105.392 84.019 105.276 84.2538 105.099 84.4546C104.925 84.6535 104.7 84.8088 104.423 84.9205C104.149 85.0304 103.831 85.0853 103.472 85.0853Z" fill="#0D5176" fill-opacity="0.29"/>
<path d="M106.287 85.0001V79.1819H107.517V83.9859H110.011V85.0001H106.287Z" fill="#0D5176" fill-opacity="0.29"/>
<path d="M112.792 85.0853C112.343 85.0853 111.957 84.9944 111.633 84.8126C111.311 84.6288 111.063 84.3694 110.889 84.0341C110.714 83.697 110.627 83.2984 110.627 82.8381C110.627 82.3893 110.714 81.9953 110.889 81.6563C111.063 81.3173 111.308 81.0531 111.624 80.8637C111.942 80.6743 112.316 80.5796 112.744 80.5796C113.031 80.5796 113.299 80.626 113.548 80.7188C113.798 80.8097 114.015 80.947 114.201 81.1307C114.389 81.3144 114.534 81.5455 114.639 81.8239C114.743 82.1004 114.795 82.4243 114.795 82.7955V83.1279H111.11V82.3779H113.656C113.656 82.2037 113.618 82.0493 113.542 81.9148C113.466 81.7804 113.361 81.6752 113.227 81.5995C113.094 81.5218 112.94 81.483 112.764 81.483C112.58 81.483 112.417 81.5256 112.275 81.6109C112.135 81.6942 112.025 81.8069 111.945 81.9489C111.866 82.0891 111.825 82.2453 111.823 82.4177V83.1307C111.823 83.3466 111.863 83.5332 111.942 83.6904C112.024 83.8476 112.138 83.9688 112.286 84.054C112.434 84.1393 112.609 84.1819 112.812 84.1819C112.946 84.1819 113.069 84.1629 113.181 84.1251C113.293 84.0872 113.388 84.0304 113.468 83.9546C113.548 83.8788 113.608 83.786 113.65 83.6762L114.769 83.7501C114.712 84.019 114.596 84.2538 114.42 84.4546C114.246 84.6535 114.02 84.8088 113.744 84.9205C113.469 85.0304 113.152 85.0853 112.792 85.0853Z" fill="#0D5176" fill-opacity="0.29"/>
<path d="M116.829 85.0824C116.55 85.0824 116.302 85.0341 116.085 84.9376C115.867 84.8391 115.694 84.6942 115.567 84.5029C115.442 84.3097 115.38 84.0692 115.38 83.7813C115.38 83.5389 115.424 83.3353 115.514 83.1705C115.603 83.0057 115.724 82.8732 115.877 82.7728C116.031 82.6724 116.205 82.5966 116.4 82.5455C116.597 82.4944 116.803 82.4584 117.019 82.4376C117.273 82.411 117.478 82.3864 117.633 82.3637C117.788 82.3391 117.901 82.3031 117.971 82.2557C118.041 82.2084 118.076 82.1383 118.076 82.0455V82.0285C118.076 81.8485 118.019 81.7093 117.906 81.6109C117.794 81.5124 117.635 81.4631 117.428 81.4631C117.21 81.4631 117.037 81.5114 116.908 81.608C116.78 81.7027 116.694 81.822 116.653 81.966L115.533 81.8751C115.59 81.6099 115.702 81.3807 115.869 81.1876C116.035 80.9925 116.25 80.8429 116.514 80.7387C116.779 80.6326 117.085 80.5796 117.434 80.5796C117.676 80.5796 117.908 80.608 118.13 80.6648C118.353 80.7216 118.551 80.8097 118.724 80.929C118.898 81.0484 119.035 81.2018 119.136 81.3893C119.236 81.5749 119.286 81.7974 119.286 82.0569V85.0001H118.139V84.3949H118.104C118.034 84.5313 117.941 84.6516 117.823 84.7557C117.706 84.858 117.565 84.9385 117.4 84.9972C117.235 85.054 117.045 85.0824 116.829 85.0824ZM117.175 84.2472C117.353 84.2472 117.511 84.2122 117.647 84.1421C117.783 84.0701 117.89 83.9735 117.968 83.8523C118.046 83.7311 118.085 83.5938 118.085 83.4404V82.9773C118.047 83.0019 117.995 83.0247 117.928 83.0455C117.864 83.0644 117.791 83.0824 117.71 83.0995C117.628 83.1146 117.547 83.1288 117.465 83.1421C117.384 83.1535 117.31 83.1639 117.244 83.1734C117.102 83.1942 116.978 83.2273 116.871 83.2728C116.765 83.3182 116.683 83.3798 116.624 83.4574C116.566 83.5332 116.536 83.6279 116.536 83.7415C116.536 83.9063 116.596 84.0323 116.715 84.1194C116.836 84.2046 116.99 84.2472 117.175 84.2472Z" fill="#0D5176" fill-opacity="0.29"/>
<path d="M120.225 85.0001V80.6364H121.398V81.3978H121.444C121.523 81.1269 121.657 80.9224 121.844 80.7841C122.032 80.644 122.248 80.5739 122.492 80.5739C122.553 80.5739 122.618 80.5777 122.688 80.5853C122.758 80.5929 122.82 80.6033 122.873 80.6165V81.6904C122.816 81.6734 122.737 81.6582 122.637 81.6449C122.537 81.6317 122.445 81.6251 122.362 81.6251C122.183 81.6251 122.024 81.6639 121.884 81.7415C121.746 81.8173 121.636 81.9234 121.555 82.0597C121.475 82.1961 121.435 82.3533 121.435 82.5313V85.0001H120.225Z" fill="#0D5176" fill-opacity="0.29"/>
<path d="M124.709 82.4773V85.0001H123.499V80.6364H124.652V81.4063H124.703C124.8 81.1525 124.962 80.9518 125.189 80.804C125.416 80.6544 125.692 80.5796 126.016 80.5796C126.319 80.5796 126.583 80.6459 126.808 80.7785C127.034 80.911 127.209 81.1004 127.334 81.3466C127.459 81.591 127.521 81.8826 127.521 82.2216V85.0001H126.311V82.4376C126.313 82.1705 126.245 81.9622 126.107 81.8126C125.968 81.661 125.778 81.5853 125.536 81.5853C125.373 81.5853 125.229 81.6203 125.104 81.6904C124.981 81.7605 124.884 81.8627 124.814 81.9972C124.746 82.1298 124.711 82.2898 124.709 82.4773Z" fill="#0D5176" fill-opacity="0.29"/>
<path d="M128.475 85.0001V80.6364H129.685V85.0001H128.475ZM129.083 80.0739C128.903 80.0739 128.749 80.0143 128.62 79.8949C128.493 79.7737 128.43 79.6288 128.43 79.4603C128.43 79.2936 128.493 79.1506 128.62 79.0313C128.749 78.9101 128.903 78.8495 129.083 78.8495C129.263 78.8495 129.416 78.9101 129.543 79.0313C129.672 79.1506 129.737 79.2936 129.737 79.4603C129.737 79.6288 129.672 79.7737 129.543 79.8949C129.416 80.0143 129.263 80.0739 129.083 80.0739Z" fill="#0D5176" fill-opacity="0.29"/>
<path d="M131.865 82.4773V85.0001H130.655V80.6364H131.808V81.4063H131.859C131.956 81.1525 132.118 80.9518 132.345 80.804C132.572 80.6544 132.848 80.5796 133.172 80.5796C133.475 80.5796 133.739 80.6459 133.964 80.7785C134.19 80.911 134.365 81.1004 134.49 81.3466C134.615 81.591 134.678 81.8826 134.678 82.2216V85.0001H133.467V82.4376C133.469 82.1705 133.401 81.9622 133.263 81.8126C133.125 81.661 132.934 81.5853 132.692 81.5853C132.529 81.5853 132.385 81.6203 132.26 81.6904C132.137 81.7605 132.04 81.8627 131.97 81.9972C131.902 82.1298 131.867 82.2898 131.865 82.4773Z" fill="#0D5176" fill-opacity="0.29"/>
<path d="M137.597 86.7273C137.205 86.7273 136.869 86.6734 136.589 86.5654C136.31 86.4593 136.089 86.3144 135.924 86.1307C135.759 85.947 135.652 85.7406 135.603 85.5114L136.722 85.3609C136.756 85.448 136.81 85.5294 136.884 85.6052C136.958 85.6809 137.056 85.7415 137.177 85.787C137.3 85.8343 137.45 85.858 137.626 85.858C137.889 85.858 138.106 85.7936 138.276 85.6648C138.449 85.5379 138.535 85.3249 138.535 85.0256V84.2273H138.484C138.431 84.3485 138.351 84.4631 138.245 84.5711C138.139 84.679 138.003 84.7671 137.836 84.8353C137.669 84.9035 137.47 84.9376 137.239 84.9376C136.912 84.9376 136.613 84.8618 136.344 84.7103C136.077 84.5569 135.864 84.323 135.705 84.0086C135.548 83.6923 135.469 83.2927 135.469 82.8097C135.469 82.3154 135.55 81.9025 135.711 81.5711C135.872 81.2396 136.086 80.9915 136.353 80.8268C136.622 80.662 136.916 80.5796 137.237 80.5796C137.481 80.5796 137.685 80.6213 137.85 80.7046C138.015 80.786 138.147 80.8883 138.248 81.0114C138.35 81.1326 138.429 81.2519 138.484 81.3694H138.529V80.6364H139.731V85.0427C139.731 85.4139 139.64 85.7245 139.458 85.9745C139.276 86.2245 139.024 86.412 138.702 86.537C138.382 86.6639 138.014 86.7273 137.597 86.7273ZM137.623 84.0285C137.818 84.0285 137.983 83.9802 138.117 83.8836C138.254 83.7851 138.358 83.6449 138.43 83.4631C138.504 83.2794 138.54 83.0597 138.54 82.804C138.54 82.5484 138.505 82.3268 138.433 82.1393C138.361 81.9499 138.256 81.8031 138.12 81.6989C137.984 81.5948 137.818 81.5427 137.623 81.5427C137.424 81.5427 137.256 81.5966 137.12 81.7046C136.984 81.8107 136.88 81.9584 136.81 82.1478C136.74 82.3372 136.705 82.5559 136.705 82.804C136.705 83.0559 136.74 83.2737 136.81 83.4574C136.882 83.6393 136.986 83.7804 137.12 83.8807C137.256 83.9792 137.424 84.0285 137.623 84.0285Z" fill="#0D5176" fill-opacity="0.29"/>
</g>
<defs>
<filter id="filter0_d_138_869" x="0.5" y="0.5" width="198" height="198" filterUnits="userSpaceOnUse" color-interpolation-filters="sRGB">
<feFlood flood-opacity="0" result="BackgroundImageFix"/>
<feColorMatrix in="SourceAlpha" type="matrix" values="0 0 0 0 0 0 0 0 0 0 0 0 0 0 0 0 0 0 127 0" result="hardAlpha"/>
<feOffset dy="4"/>
<feGaussianBlur stdDeviation="2"/>
<feComposite in2="hardAlpha" operator="out"/>
<feColorMatrix type="matrix" values="0 0 0 0 0.8375 0 0 0 0 0.732812 0 0 0 0 0.732812 0 0 0 0.25 0"/>
<feBlend mode="normal" in2="BackgroundImageFix" result="effect1_dropShadow_138_869"/>
<feBlend mode="normal" in="SourceGraphic" in2="effect1_dropShadow_138_869" result="shape"/>
</filter>
<filter id="filter1_bd_138_869" x="26" y="15" width="148" height="152" filterUnits="userSpaceOnUse" color-interpolation-filters="sRGB">
<feFlood flood-opacity="0" result="BackgroundImageFix"/>
<feGaussianBlur in="BackgroundImageFix" stdDeviation="2"/>
<feComposite in2="SourceAlpha" operator="in" result="effect1_backgroundBlur_138_869"/>
<feColorMatrix in="SourceAlpha" type="matrix" values="0 0 0 0 0 0 0 0 0 0 0 0 0 0 0 0 0 0 127 0" result="hardAlpha"/>
<feOffset dy="4"/>
<feGaussianBlur stdDeviation="2"/>
<feComposite in2="hardAlpha" operator="out"/>
<feColorMatrix type="matrix" values="0 0 0 0 0 0 0 0 0 0 0 0 0 0 0 0 0 0 0.25 0"/>
<feBlend mode="normal" in2="effect1_backgroundBlur_138_869" result="effect2_dropShadow_138_869"/>
<feBlend mode="normal" in="SourceGraphic" in2="effect2_dropShadow_138_869" result="shape"/>
</filter>
<filter id="filter2_bd_138_869" x="31" y="40" width="138" height="116" filterUnits="userSpaceOnUse" color-interpolation-filters="sRGB">
<feFlood flood-opacity="0" result="BackgroundImageFix"/>
<feGaussianBlur in="BackgroundImageFix" stdDeviation="2"/>
<feComposite in2="SourceAlpha" operator="in" result="effect1_backgroundBlur_138_869"/>
<feColorMatrix in="SourceAlpha" type="matrix" values="0 0 0 0 0 0 0 0 0 0 0 0 0 0 0 0 0 0 127 0" result="hardAlpha"/>
<feOffset dy="4"/>
<feGaussianBlur stdDeviation="2"/>
<feComposite in2="hardAlpha" operator="out"/>
<feColorMatrix type="matrix" values="0 0 0 0 1 0 0 0 0 1 0 0 0 0 1 0 0 0 0.25 0"/>
<feBlend mode="normal" in2="effect1_backgroundBlur_138_869" result="effect2_dropShadow_138_869"/>
<feBlend mode="normal" in="SourceGraphic" in2="effect2_dropShadow_138_869" result="shape"/>
</filter>
<filter id="filter3_d_138_869" x="47.4667" y="123.8" width="49.6" height="10.6" filterUnits="userSpaceOnUse" color-interpolation-filters="sRGB">
<feFlood flood-opacity="0" result="BackgroundImageFix"/>
<feColorMatrix in="SourceAlpha" type="matrix" values="0 0 0 0 0 0 0 0 0 0 0 0 0 0 0 0 0 0 127 0" result="hardAlpha"/>
<feOffset dy="4"/>
<feGaussianBlur stdDeviation="2"/>
<feComposite in2="hardAlpha" operator="out"/>
<feColorMatrix type="matrix" values="0 0 0 0 0 0 0 0 0 0 0 0 0 0 0 0 0 0 0.25 0"/>
<feBlend mode="normal" in2="BackgroundImageFix" result="effect1_dropShadow_138_869"/>
<feBlend mode="normal" in="SourceGraphic" in2="effect1_dropShadow_138_869" result="shape"/>
</filter>
<linearGradient id="paint0_linear_138_869" x1="99.5" y1="16.4677" x2="99.5" y2="174.532" gradientUnits="userSpaceOnUse">
<stop stop-color="white"/>
<stop offset="0.472222" stop-color="#0D5176" stop-opacity="0.527778"/>
<stop offset="0.940972" stop-color="#12A6F7" stop-opacity="0.465278"/>
<stop offset="1" stop-opacity="0"/>
</linearGradient>
<linearGradient id="paint1_linear_138_869" x1="65.81" y1="55.6773" x2="124.811" y2="141.023" gradientUnits="userSpaceOnUse">
<stop stop-color="#7DD8F3"/>
<stop offset="1" stop-color="#45B0D0"/>
</linearGradient>
<linearGradient id="paint2_linear_138_869" x1="36.9955" y1="43.1582" x2="161.542" y2="68.4822" gradientUnits="userSpaceOnUse">
<stop stop-color="#0077D2"/>
<stop offset="1" stop-color="#0B59A2"/>
</linearGradient>
<linearGradient id="paint3_linear_138_869" x1="74" y1="55.375" x2="158.5" y2="55.375" gradientUnits="userSpaceOnUse">
<stop stop-color="#7DD8F3"/>
<stop offset="1" stop-color="#45B0D0"/>
</linearGradient>
<linearGradient id="paint4_linear_138_869" x1="43.9408" y1="51.852" x2="48.104" y2="57.8742" gradientUnits="userSpaceOnUse">
<stop stop-color="#75DAFF"/>
<stop offset="1" stop-color="#49BEF1"/>
</linearGradient>
<linearGradient id="paint5_linear_138_869" x1="60.1806" y1="51.852" x2="64.3439" y2="57.8743" gradientUnits="userSpaceOnUse">
<stop stop-color="#75DAFF"/>
<stop offset="1" stop-color="#49BEF1"/>
</linearGradient>
<radialGradient id="paint6_radial_138_869" cx="0" cy="0" r="1" gradientUnits="userSpaceOnUse" gradientTransform="translate(108.452 108.998) rotate(179.744) scale(1.73578 1.81351)">
<stop stop-color="#64717C" stop-opacity="0.19"/>
<stop offset="1" stop-color="white" stop-opacity="0.465278"/>
</radialGradient>
<radialGradient id="paint7_radial_138_869" cx="0" cy="0" r="1" gradientUnits="userSpaceOnUse" gradientTransform="translate(108.452 115.998) rotate(179.744) scale(1.73578 1.81351)">
<stop stop-color="#64717C" stop-opacity="0.19"/>
<stop offset="1" stop-color="white" stop-opacity="0.465278"/>
</radialGradient>
<radialGradient id="paint8_radial_138_869" cx="0" cy="0" r="1" gradientUnits="userSpaceOnUse" gradientTransform="translate(108.452 122.998) rotate(179.744) scale(1.73578 1.81351)">
<stop stop-color="#64717C" stop-opacity="0.19"/>
<stop offset="1" stop-color="white" stop-opacity="0.465278"/>
</radialGradient>
<radialGradient id="paint9_radial_138_869" cx="0" cy="0" r="1" gradientUnits="userSpaceOnUse" gradientTransform="translate(108.452 129.998) rotate(179.744) scale(1.73578 1.81351)">
<stop stop-color="#64717C" stop-opacity="0.19"/>
<stop offset="1" stop-color="white" stop-opacity="0.465278"/>
</radialGradient>
<radialGradient id="paint10_radial_138_869" cx="0" cy="0" r="1" gradientUnits="userSpaceOnUse" gradientTransform="translate(167.895 181.419) scale(146.205 146.205)">
<stop offset="0.131" stop-color="#23D9D6"/>
<stop offset="0.214" stop-color="#21BDDD"/>
<stop offset="0.364" stop-color="#1E90E7"/>
<stop offset="0.508" stop-color="#3498DB"/>
<stop offset="0.642" stop-color="#3498DB"/>
<stop offset="0.764" stop-color="#3498DB"/>
<stop offset="0.862" stop-color="#3498DB"/>
</radialGradient>
<clipPath id="clip0_138_869">
<rect x="100.867" y="103" width="49" height="33" rx="3" fill="white"/>
</clipPath>
</defs>
</svg>
