<svg width="170" height="170" viewBox="0 0 170 170" fill="none" xmlns="http://www.w3.org/2000/svg">
<g id="movie-ticket">
<rect x="7.5" y="7.5" width="155" height="155" rx="12.5" fill="white"/>
<rect x="7.5" y="7.5" width="155" height="155" rx="12.5" fill="url(#paint0_linear_1_1134)" fill-opacity="0.2"/>
<path id="Vector" d="M143.333 73.4004V47.0833C143.333 43.8604 140.723 41.25 137.5 41.25H32.5C29.2771 41.25 26.6667 43.8604 26.6667 47.0833V73.4004C30.19 76.0604 32.5 80.2458 32.5 85C32.5 89.7542 30.19 93.9396 26.6667 96.5996V122.917C26.6667 126.14 29.2771 128.75 32.5 128.75H137.5C140.723 128.75 143.333 126.14 143.333 122.917V96.5996C139.81 93.9367 137.5 89.7542 137.5 85C137.5 80.2458 139.81 76.0604 143.333 73.4004ZM117.083 122.917C115.473 122.917 114.167 121.61 114.167 120C114.167 118.39 115.473 117.083 117.083 117.083C118.693 117.083 120 118.39 120 120C120 121.61 118.693 122.917 117.083 122.917ZM117.083 111.25C115.473 111.25 114.167 109.943 114.167 108.333C114.167 106.723 115.473 105.417 117.083 105.417C118.693 105.417 120 106.723 120 108.333C120 109.943 118.693 111.25 117.083 111.25ZM117.083 99.5833C115.473 99.5833 114.167 98.2767 114.167 96.6667C114.167 95.0567 115.473 93.75 117.083 93.75C118.693 93.75 120 95.0567 120 96.6667C120 98.2767 118.693 99.5833 117.083 99.5833ZM117.083 87.9167C115.473 87.9167 114.167 86.61 114.167 85C114.167 83.39 115.473 82.0833 117.083 82.0833C118.693 82.0833 120 83.39 120 85C120 86.61 118.693 87.9167 117.083 87.9167ZM117.083 76.25C115.473 76.25 114.167 74.9433 114.167 73.3333C114.167 71.7233 115.473 70.4167 117.083 70.4167C118.693 70.4167 120 71.7233 120 73.3333C120 74.9433 118.693 76.25 117.083 76.25ZM117.083 64.5833C115.473 64.5833 114.167 63.2767 114.167 61.6667C114.167 60.0567 115.473 58.75 117.083 58.75C118.693 58.75 120 60.0567 120 61.6667C120 63.2767 118.693 64.5833 117.083 64.5833ZM117.083 52.9167C115.473 52.9167 114.167 51.61 114.167 50C114.167 48.39 115.473 47.0833 117.083 47.0833C118.693 47.0833 120 48.39 120 50C120 51.61 118.693 52.9167 117.083 52.9167Z" fill="url(#paint1_linear_1_1134)"/>
<path id="Vector_2" d="M75.1708 61.1833L68.6871 75.7345L52.8467 77.4087C51.8258 77.5195 51.4175 78.7795 52.1758 79.4678L64.0058 90.1283L60.7042 105.709C60.4912 106.712 61.5675 107.491 62.4542 106.978L76.2471 99.0183L90.0429 106.978C90.9296 107.488 92.0058 106.707 91.7929 105.709L88.4912 90.1253L100.321 79.4649C101.082 78.7824 100.671 77.5166 99.6504 77.4058L83.81 75.7316L77.3262 61.1803C76.9179 60.2441 75.5908 60.2441 75.1708 61.1833Z" fill="url(#paint2_linear_1_1134)"/>
<rect x="7.5" y="7.5" width="155" height="155" rx="12.5" stroke="#D5EAF6" stroke-width="15"/>
</g>
<defs>
<linearGradient id="paint0_linear_1_1134" x1="85" y1="15" x2="85" y2="155" gradientUnits="userSpaceOnUse">
<stop stop-color="#199AE0"/>
<stop offset="0.472222" stop-color="#0D5176" stop-opacity="0.527778"/>
<stop offset="0.940972" stop-color="#12A6F7" stop-opacity="0.465278"/>
<stop offset="1" stop-opacity="0"/>
</linearGradient>
<linearGradient id="paint1_linear_1_1134" x1="52.0008" y1="31.31" x2="118.775" y2="139.953" gradientUnits="userSpaceOnUse">
<stop stop-color="#FFD869"/>
<stop offset="1" stop-color="#FEC52B"/>
</linearGradient>
<linearGradient id="paint2_linear_1_1134" x1="74.08" y1="59.0541" x2="80.5258" y2="117.081" gradientUnits="userSpaceOnUse">
<stop stop-color="#F44F5A"/>
<stop offset="0.443" stop-color="#EE3D4A"/>
<stop offset="1" stop-color="#E52030"/>
</linearGradient>
</defs>
</svg>
