<svg width="170" height="170" viewBox="0 0 170 170" fill="none" xmlns="http://www.w3.org/2000/svg">
<g id="prize">
<rect x="7.5" y="7.5" width="155" height="155" rx="12.5" fill="white"/>
<rect x="7.5" y="7.5" width="155" height="155" rx="12.5" fill="url(#paint0_linear_1_1391)" fill-opacity="0.2"/>
<path id="Vector" d="M114.167 95.9805H55.8333V149.163C55.8333 151.429 58.3067 152.829 60.2492 151.663L85 136.814L109.751 151.663C111.696 152.829 114.167 151.429 114.167 149.163V95.9805V95.9805Z" fill="url(#paint1_radial_1_1391)"/>
<path id="Vector_2" d="M134.685 65.4409L131.016 63.2359C129.453 62.2968 128.397 60.7539 127.919 58.9951C127.907 58.963 127.904 58.9309 127.893 58.8959C127.405 57.1226 127.551 55.2326 128.444 53.6255L130.523 49.8834C132.65 46.0568 129.931 41.3405 125.55 41.2676L121.231 41.1918C119.399 41.1597 117.702 40.3459 116.413 39.0539C116.398 39.0393 116.386 39.0276 116.372 39.013C115.071 37.7209 114.263 36.0205 114.231 34.1918L114.158 29.8722C114.085 25.4943 109.369 22.773 105.542 24.8993L101.8 26.9789C100.187 27.8714 98.3029 28.0172 96.5296 27.5301C96.4975 27.5184 96.4654 27.5155 96.4304 27.5039C94.6717 27.0255 93.1288 25.9697 92.1896 24.4064L89.9846 20.7372C87.7329 16.9834 82.2875 16.9834 80.0358 20.7372L77.8425 24.3918C76.8975 25.9668 75.3371 27.0314 73.5696 27.5155C73.5492 27.5214 73.5317 27.5272 73.5113 27.5301C71.7204 28.023 69.8217 27.8772 68.1971 26.973L64.4696 24.9051C60.6429 22.7789 55.9267 25.4972 55.8537 29.878L55.775 34.1918C55.7429 36.0176 54.9292 37.7209 53.6371 39.0101C53.6225 39.0218 53.605 39.0364 53.5962 39.0509C52.3042 40.3489 50.6037 41.1568 48.7779 41.1889L44.4583 41.2618C40.0804 41.3347 37.3592 46.0451 39.4854 49.8776L41.565 53.6197C42.4575 55.2326 42.6033 57.1168 42.1162 58.8901C42.1017 58.9222 42.0958 58.9572 42.0842 58.9893C41.6058 60.748 40.5471 62.2909 38.9867 63.2301L35.3175 65.4351C31.5637 67.6868 31.5637 73.1322 35.3175 75.3839L38.9867 77.5889C40.55 78.528 41.6058 80.0709 42.0842 81.8297C42.0958 81.8618 42.0987 81.8939 42.1104 81.9289C42.5975 83.7022 42.4517 85.5922 41.5592 87.1993L39.4796 90.9414C37.3533 94.768 40.0717 99.4843 44.4525 99.5572L48.7721 99.6301C50.6038 99.6622 52.3012 100.476 53.5904 101.768C53.605 101.783 53.6167 101.794 53.6312 101.809C54.9292 103.101 55.7371 104.801 55.7692 106.627L55.8421 110.947C55.915 115.325 60.6312 118.046 64.4579 115.92L68.2 113.84C69.8129 112.948 71.6971 112.802 73.4704 113.289C73.5025 113.301 73.5375 113.303 73.5696 113.315C75.3283 113.793 76.8712 114.849 77.8104 116.413L80.0154 120.082C82.2671 123.836 87.7125 123.836 89.9642 120.082L92.1692 116.413C93.1083 114.849 94.6513 113.793 96.41 113.315C96.4421 113.303 96.4771 113.301 96.5092 113.289C98.2825 112.802 100.173 112.948 101.78 113.84L105.522 115.92C109.348 118.046 114.065 115.328 114.138 110.947L114.21 106.627C114.242 104.796 115.056 103.098 116.348 101.809C116.363 101.794 116.375 101.783 116.389 101.768C117.681 100.47 119.382 99.6622 121.208 99.6301L125.527 99.5572C129.905 99.4843 132.626 94.768 130.5 90.9414L128.42 87.1993C127.528 85.5864 127.382 83.7022 127.869 81.9289C127.881 81.8968 127.884 81.8647 127.895 81.8297C128.374 80.0709 129.43 78.528 130.993 77.5889L134.662 75.3839C138.439 73.1351 138.439 67.6955 134.685 65.4409Z" fill="url(#paint2_linear_1_1391)"/>
<path id="Vector_3" d="M85 99.5833C101.108 99.5833 114.167 86.525 114.167 70.4167C114.167 54.3084 101.108 41.25 85 41.25C68.8917 41.25 55.8333 54.3084 55.8333 70.4167C55.8333 86.525 68.8917 99.5833 85 99.5833Z" stroke="#FFDF26" stroke-width="1.33333" stroke-miterlimit="10"/>
<rect x="7.5" y="7.5" width="155" height="155" rx="12.5" stroke="#D5EAF6" stroke-width="15"/>
</g>
<defs>
<linearGradient id="paint0_linear_1_1391" x1="85" y1="15" x2="85" y2="155" gradientUnits="userSpaceOnUse">
<stop stop-color="#199AE0"/>
<stop offset="0.472222" stop-color="#0D5176" stop-opacity="0.527778"/>
<stop offset="0.940972" stop-color="#12A6F7" stop-opacity="0.465278"/>
<stop offset="1" stop-opacity="0"/>
</linearGradient>
<radialGradient id="paint1_radial_1_1391" cx="0" cy="0" r="1" gradientUnits="userSpaceOnUse" gradientTransform="translate(84.8337 70.1855) scale(66.3979 66.3979)">
<stop offset="0.655" stop-color="#871233"/>
<stop offset="0.718" stop-color="#8E1336"/>
<stop offset="0.812" stop-color="#A3163E"/>
<stop offset="0.9" stop-color="#BC1948"/>
</radialGradient>
<linearGradient id="paint2_linear_1_1391" x1="58.3096" y1="24.0243" x2="111.478" y2="116.436" gradientUnits="userSpaceOnUse">
<stop stop-color="#FFDA1C"/>
<stop offset="1" stop-color="#FEB705"/>
</linearGradient>
</defs>
</svg>
