<svg width="191" height="191" viewBox="0 0 191 191" fill="none" xmlns="http://www.w3.org/2000/svg">
<path d="M169.887 13H23.1129C15.3186 13 9 19.3186 9 27.1129V173.887C9 181.681 15.3186 188 23.1129 188H169.887C177.681 188 184 181.681 184 173.887V27.1129C184 19.3186 177.681 13 169.887 13Z" fill="url(#paint0_linear_5_120)" fill-opacity="0.2"/>
<path d="M168.887 8H22.1129C14.3186 8 8 14.3186 8 22.1129V168.887C8 176.681 14.3186 183 22.1129 183H168.887C176.681 183 183 176.681 183 168.887V22.1129C183 14.3186 176.681 8 168.887 8Z" fill="url(#paint1_linear_5_120)" stroke="#D5EAF6" stroke-width="15" stroke-linecap="round"/>
<g filter="url(#filter0_ddd_5_120)">
<path d="M117 142L148.714 142C151.635 142 154 139.58 154 136.593L154 69L117 69L117 142Z" fill="#3586CB" fill-opacity="0.5"/>
<path d="M146.157 136.697H127.822C126.263 136.697 125 135.448 125 133.908V115.789C125 114.249 126.263 113 127.822 113H146.157C147.716 113 148.979 114.249 148.979 115.789V133.91C148.979 135.448 147.716 136.697 146.157 136.697Z" fill="black" fill-opacity="0.1"/>
<path d="M146.176 137H127.824C126.264 137 125 135.735 125 134.175V115.824C125 114.265 126.264 113 127.824 113H146.176C147.735 113 149 114.265 149 115.824V134.177C149 135.735 147.735 137 146.176 137Z" fill="url(#paint2_linear_5_120)"/>
<path d="M144.84 130.914L132.067 117.754C131.733 117.41 131.191 117.41 130.857 117.754L129.07 119.594C128.736 119.939 128.736 120.497 129.07 120.842L141.842 134.001C142.177 134.346 142.719 134.346 143.054 134.001L144.84 132.161C145.175 131.817 145.175 131.258 144.84 130.914Z" fill="#0370C8"/>
<path d="M144.912 119.29L143.349 117.68C143.111 117.434 142.724 117.434 142.486 117.68L141.75 118.439L144.176 120.937L144.912 120.179C145.15 119.933 145.15 119.536 144.912 119.29Z" fill="#C94F60"/>
<path d="M129.635 130.921L128.819 134.261L132.061 133.42L132.401 130.522L129.635 130.921Z" fill="#F0F0F0"/>
<path d="M142.107 123.069L132.062 133.419L129.636 130.92L139.681 120.569L142.107 123.069Z" fill="#EDBE00"/>
<path d="M139.68 120.57L141.749 118.437L144.176 120.936L142.107 123.069L139.68 120.57Z" fill="url(#paint3_linear_5_120)"/>
<path d="M129.232 132.572L128.819 134.26L130.458 133.835L129.232 132.572Z" fill="black"/>
<path d="M142.647 128.655L141.791 129.536L142.396 130.161L143.253 129.278L142.647 128.655Z" fill="#0E8DF2"/>
<path d="M143.932 129.978L142.647 131.302L143.253 131.925L144.538 130.601L143.932 129.978Z" fill="#0E8DF2"/>
<path d="M140.078 126.007L139.221 126.889L139.827 127.513L140.683 126.631L140.078 126.007Z" fill="#0E8DF2"/>
<path d="M141.363 127.331L140.078 128.655L140.684 129.278L141.968 127.954L141.363 127.331Z" fill="#0E8DF2"/>
<path d="M134.94 120.713L133.655 122.037L134.26 122.66L135.545 121.336L134.94 120.713Z" fill="#0E8DF2"/>
<path d="M136.224 122.037L135.368 122.919L135.973 123.543L136.83 122.661L136.224 122.037Z" fill="#0E8DF2"/>
<path d="M132.37 118.066L131.086 119.39L131.691 120.013L132.976 118.69L132.37 118.066Z" fill="#0E8DF2"/>
<path d="M133.655 119.39L132.798 120.272L133.404 120.896L134.26 120.014L133.655 119.39Z" fill="#0E8DF2"/>
<path d="M154 54.7143V69H38V54.7143C38 51.5715 40.61 49 43.8 49H148.201C151.391 49 154 51.5715 154 54.7143Z" fill="url(#paint4_linear_5_120)"/>
<path d="M74.1607 63.4643H146.482C147.281 63.4643 147.929 62.8163 147.929 62.0179V56.2321C147.929 55.4337 147.281 54.7857 146.482 54.7857H74.1607C73.3623 54.7857 72.7143 55.4337 72.7143 56.2321V62.0179C72.7143 62.8163 73.3623 63.4643 74.1607 63.4643Z" fill="url(#paint5_linear_5_120)"/>
<path d="M48.125 63.4643C50.5216 63.4643 52.4643 61.5216 52.4643 59.125C52.4643 56.7286 50.5216 54.7857 48.125 54.7857C45.7286 54.7857 43.7857 56.7286 43.7857 59.125C43.7857 61.5216 45.7286 63.4643 48.125 63.4643Z" fill="url(#paint6_linear_5_120)"/>
<path d="M62.5802 63.4643C64.9768 63.4643 66.9195 61.5216 66.9195 59.125C66.9195 56.7286 64.9768 54.7857 62.5802 54.7857C60.1838 54.7857 58.241 56.7286 58.241 59.125C58.241 61.5216 60.1838 63.4643 62.5802 63.4643Z" fill="url(#paint7_linear_5_120)"/>
<path d="M125 75.2439C125 74.5569 126.075 74 127.4 74H146.6C147.925 74 149 74.5569 149 75.2439V89.7562C149 90.4432 147.925 91 146.6 91H127.4C126.075 91 125 90.4432 125 89.7562V75.2439Z" fill="white" fill-opacity="0.2"/>
<path d="M59 142L41 142C39.3425 142 38 139.58 38 136.593L38 69L59 69L59 142Z" fill="#F2F2F2"/>
<rect x="125" y="95" width="24" height="3" rx="1" fill="white"/>
<rect x="125" y="101" width="24" height="3" rx="1" fill="white"/>
<rect x="125" y="106" width="14" height="3" rx="1" fill="white"/>
<path d="M41 75.6368C41 74.7332 41.1524 74 41.3404 74H48.6596C48.8476 74 49 74.7332 49 75.6368V81.3639C49 82.2675 48.8476 83 48.6596 83H41.3404C41.1524 83 41 82.2675 41 81.3639V75.6368Z" fill="#0E2739" fill-opacity="0.2"/>
<path d="M41 87.6368C41 86.7332 41.1524 86 41.3404 86H48.6596C48.8476 86 49 86.7332 49 87.6368V93.3639C49 94.2675 48.8476 95 48.6596 95H41.3404C41.1524 95 41 94.2675 41 93.3639V87.6368Z" fill="#0E2739" fill-opacity="0.2"/>
<path d="M41 98.6368C41 97.7332 41.1524 97 41.3404 97H48.6596C48.8476 97 49 97.7332 49 98.6368V104.364C49 105.267 48.8476 106 48.6596 106H41.3404C41.1524 106 41 105.267 41 104.364V98.6368Z" fill="#0E2739" fill-opacity="0.2"/>
<path d="M41 110.637C41 109.733 41.1524 109 41.3404 109H48.6596C48.8476 109 49 109.733 49 110.637V116.364C49 117.267 48.8476 118 48.6596 118H41.3404C41.1524 118 41 117.267 41 116.364V110.637Z" fill="#0E2739" fill-opacity="0.2"/>
<path d="M55 136.161V69H120V136.161C120 139.373 118.538 142 116.75 142H58.25C56.4625 142 55 139.373 55 136.161Z" fill="url(#paint8_linear_5_120)"/>
<path d="M59.9243 108.727C59.9243 108.326 60.975 108 62.2711 108H112.729C114.025 108 115.076 108.326 115.076 108.727V111.273C115.076 111.674 114.025 112 112.729 112H62.2711C60.975 112 59.9243 111.674 59.9243 111.273V108.727Z" fill="url(#paint9_linear_5_120)" fill-opacity="0.2"/>
<path d="M83.4895 73H61.9651C60.294 73 58.9394 74.4277 58.9394 76.1888V100.811C58.9394 102.572 60.294 104 61.9651 104H83.4895C85.1605 104 86.5151 102.572 86.5151 100.811V76.1888C86.5151 74.4277 85.1605 73 83.4895 73Z" fill="white" fill-opacity="0.3"/>
<path d="M79.8762 83.5355H69.5639V78.8125H79.4942C79.7051 78.8125 79.8762 79.0048 79.8762 79.2419V83.5355Z" fill="url(#paint10_linear_5_120)" fill-opacity="0.8"/>
<path d="M76.0568 83.5355H66.5084C66.2975 83.5355 66.1264 83.3431 66.1264 83.1061V79.2419C66.1264 79.0048 66.2975 78.8125 66.5084 78.8125H76.0568C76.2676 78.8125 76.4387 79.0048 76.4387 79.2419V83.1061C76.4387 83.3431 76.2676 83.5355 76.0568 83.5355Z" fill="url(#paint11_linear_5_120)"/>
<path opacity="0.05" d="M79.8762 82.2474H66.1264V83.1061C66.1264 83.3431 66.2975 83.5355 66.5084 83.5355H69.5639H76.0568H79.8762V82.2474Z" fill="black"/>
<path opacity="0.07" d="M79.8762 82.4622H66.1264V83.1062C66.1264 83.3432 66.2975 83.5356 66.5084 83.5356H69.5639H76.0568H79.8762V82.4622Z" fill="black"/>
<path d="M79.8762 94.2698H75.6749V82.6767H80.2581C80.4689 82.6767 80.6401 82.8691 80.6401 83.1061V93.4107C80.6401 93.8852 80.2982 94.2698 79.8762 94.2698Z" fill="url(#paint12_linear_5_120)"/>
<path d="M75.6749 94.2698H66.1265C65.7044 94.2698 65.3626 93.8852 65.3626 93.4107V83.1061C65.3626 82.8691 65.5337 82.6767 65.7446 82.6767H76.4388V93.4107C76.4388 93.8852 76.0969 94.2698 75.6749 94.2698Z" fill="url(#paint13_linear_5_120)"/>
<path d="M76.4388 82.6767H65.5987C65.4539 82.6767 65.3218 82.7686 65.2572 82.9142L64.3551 84.9425C64.2916 85.085 64.3837 85.2529 64.5258 85.2529H75.0569C75.2017 85.2529 75.3338 85.1611 75.3983 85.0155L76.4388 82.6767Z" fill="url(#paint14_linear_5_120)" fill-opacity="0.8"/>
<path d="M76.4387 82.6767H80.404C80.5487 82.6767 80.6809 82.7686 80.7455 82.9142L81.6476 84.9425C81.711 85.085 81.6189 85.2529 81.4769 85.2529H77.8206C77.6759 85.2529 77.5437 85.1611 77.4791 85.0155L76.4387 82.6767Z" fill="url(#paint15_linear_5_120)"/>
<path d="M78.6886 98.8336H82.0852C82.3976 98.8336 82.6512 99.12 82.6512 99.4727V100.751C82.6512 101.103 82.3976 101.39 82.0852 101.39H78.6886C78.3761 101.39 78.1225 101.103 78.1225 100.751V99.4727C78.1225 99.12 78.3761 98.8336 78.6886 98.8336Z" fill="white"/>
<path d="M71.4949 98.8336H74.8914C75.2039 98.8336 75.4575 99.12 75.4575 99.4727V100.751C75.4575 101.103 75.2039 101.39 74.8914 101.39H71.4949C71.1824 101.39 70.9288 101.103 70.9288 100.751V99.4727C70.9288 99.12 71.1824 98.8336 71.4949 98.8336Z" fill="white"/>
<path d="M64.3012 98.8336H67.6978C68.0103 98.8336 68.2639 99.12 68.2639 99.4727V100.751C68.2639 101.103 68.0103 101.39 67.6978 101.39H64.3012C63.9887 101.39 63.7352 101.103 63.7352 100.751V99.4727C63.7352 99.12 63.9887 98.8336 64.3012 98.8336Z" fill="white"/>
<path d="M97.5731 74H113.327C113.556 74 113.742 74.2096 113.742 74.4677V75.4032C113.742 75.6615 113.556 75.871 113.327 75.871H97.5731C97.3444 75.871 97.1582 75.6615 97.1582 75.4032V74.4677C97.1582 74.2096 97.3444 74 97.5731 74Z" fill="#F9FDFF"/>
<path d="M97.5731 78.871H113.327C113.556 78.871 113.742 79.0805 113.742 79.3387V80.2742C113.742 80.5324 113.556 80.7419 113.327 80.7419H97.5731C97.3444 80.7419 97.1582 80.5324 97.1582 80.2742V79.3387C97.1582 79.0805 97.3444 78.871 97.5731 78.871Z" fill="#DADFE1" fill-opacity="0.5"/>
<path d="M90.7426 78.871H92.47C92.6289 78.871 92.7581 79.0805 92.7581 79.3387V80.2742C92.7581 80.5324 92.6289 80.7419 92.47 80.7419H90.7426C90.5837 80.7419 90.4545 80.5324 90.4545 80.2742V79.3387C90.4545 79.0805 90.5837 78.871 90.7426 78.871Z" fill="#0782D8" fill-opacity="0.5"/>
<path d="M90.7426 83.7419H92.47C92.6289 83.7419 92.7581 83.9515 92.7581 84.2097V85.1452C92.7581 85.4033 92.6289 85.6129 92.47 85.6129H90.7426C90.5837 85.6129 90.4545 85.4033 90.4545 85.1452V84.2097C90.4545 83.9515 90.5837 83.7419 90.7426 83.7419Z" fill="#0782D8" fill-opacity="0.3"/>
<path d="M90.7426 88.6129H92.47C92.6289 88.6129 92.7581 88.8223 92.7581 89.0803V90.0158C92.7581 90.2739 92.6289 90.4839 92.47 90.4839H90.7426C90.5837 90.4839 90.4545 90.2739 90.4545 90.0158V89.0803C90.4545 88.8223 90.5837 88.6129 90.7426 88.6129Z" fill="url(#paint16_linear_5_120)" fill-opacity="0.5"/>
<path d="M90.7426 93.4839H92.47C92.6289 93.4839 92.7581 93.6939 92.7581 93.9519V94.8874C92.7581 95.1455 92.6289 95.3548 92.47 95.3548H90.7426C90.5837 95.3548 90.4545 95.1455 90.4545 94.8874V93.9519C90.4545 93.6939 90.5837 93.4839 90.7426 93.4839Z" fill="url(#paint17_linear_5_120)" fill-opacity="0.5"/>
<path d="M97.5731 101.242H113.327C113.556 101.242 113.742 101.451 113.742 101.71V102.645C113.742 102.903 113.556 103.113 113.327 103.113H97.5731C97.3444 103.113 97.1582 102.903 97.1582 102.645V101.71C97.1582 101.451 97.3444 101.242 97.5731 101.242Z" fill="#DADFE1" fill-opacity="0.5"/>
<path d="M91.2842 75.8023L90.4914 75.0637C90.4423 75.0179 90.4423 74.9435 90.4914 74.8978L90.6698 74.7319C90.7189 74.6861 90.7983 74.6861 90.8475 74.7319L91.4625 75.3045L92.8253 74.0343C92.8745 73.9886 92.9545 73.9886 93.0037 74.0343L93.182 74.2003C93.2311 74.246 93.2311 74.3204 93.182 74.3662L91.6402 75.8023C91.5419 75.8939 91.3824 75.8939 91.2842 75.8023Z" fill="white" fill-opacity="0.99"/>
<path d="M112.843 83.7419H98.9778C97.9729 83.7419 97.1582 84.5691 97.1582 85.5895V96.3942C97.1582 97.4146 97.9729 98.2418 98.9778 98.2418H112.843C113.848 98.2418 114.663 97.4146 114.663 96.3942V85.5895C114.663 84.5691 113.848 83.7419 112.843 83.7419Z" fill="#D9D9D9" fill-opacity="0.3"/>
<rect x="58.9394" y="115" width="56.1364" height="22" rx="2" fill="white" fill-opacity="0.5"/>
</g>
<defs>
<filter id="filter0_ddd_5_120" x="34" y="49" width="124" height="101" filterUnits="userSpaceOnUse" color-interpolation-filters="sRGB">
<feFlood flood-opacity="0" result="BackgroundImageFix"/>
<feColorMatrix in="SourceAlpha" type="matrix" values="0 0 0 0 0 0 0 0 0 0 0 0 0 0 0 0 0 0 127 0" result="hardAlpha"/>
<feOffset dy="4"/>
<feGaussianBlur stdDeviation="2"/>
<feComposite in2="hardAlpha" operator="out"/>
<feColorMatrix type="matrix" values="0 0 0 0 1 0 0 0 0 1 0 0 0 0 1 0 0 0 0.25 0"/>
<feBlend mode="normal" in2="BackgroundImageFix" result="effect1_dropShadow_5_120"/>
<feColorMatrix in="SourceAlpha" type="matrix" values="0 0 0 0 0 0 0 0 0 0 0 0 0 0 0 0 0 0 127 0" result="hardAlpha"/>
<feOffset dy="4"/>
<feGaussianBlur stdDeviation="2"/>
<feComposite in2="hardAlpha" operator="out"/>
<feColorMatrix type="matrix" values="0 0 0 0 1 0 0 0 0 1 0 0 0 0 1 0 0 0 0.25 0"/>
<feBlend mode="normal" in2="effect1_dropShadow_5_120" result="effect2_dropShadow_5_120"/>
<feColorMatrix in="SourceAlpha" type="matrix" values="0 0 0 0 0 0 0 0 0 0 0 0 0 0 0 0 0 0 127 0" result="hardAlpha"/>
<feOffset dy="4"/>
<feGaussianBlur stdDeviation="2"/>
<feComposite in2="hardAlpha" operator="out"/>
<feColorMatrix type="matrix" values="0 0 0 0 0 0 0 0 0 0 0 0 0 0 0 0 0 0 0.25 0"/>
<feBlend mode="normal" in2="effect2_dropShadow_5_120" result="effect3_dropShadow_5_120"/>
<feBlend mode="normal" in="SourceGraphic" in2="effect3_dropShadow_5_120" result="shape"/>
</filter>
<linearGradient id="paint0_linear_5_120" x1="96.5" y1="21.4677" x2="96.5" y2="179.532" gradientUnits="userSpaceOnUse">
<stop stop-color="white"/>
<stop offset="0.472222" stop-color="#0D5176" stop-opacity="0.527778"/>
<stop offset="0.940972" stop-color="#12A6F7" stop-opacity="0.465278"/>
<stop offset="1" stop-opacity="0"/>
</linearGradient>
<linearGradient id="paint1_linear_5_120" x1="95.5" y1="8" x2="95.5" y2="183" gradientUnits="userSpaceOnUse">
<stop stop-color="white"/>
<stop offset="1" stop-color="white" stop-opacity="0"/>
</linearGradient>
<linearGradient id="paint2_linear_5_120" x1="138.478" y1="116.62" x2="132.739" y2="149.173" gradientUnits="userSpaceOnUse">
<stop stop-color="#FCFCFC"/>
<stop offset="1" stop-color="#C3C9CD"/>
</linearGradient>
<linearGradient id="paint3_linear_5_120" x1="141.927" y1="118.596" x2="141.927" y2="123.196" gradientUnits="userSpaceOnUse">
<stop stop-color="#DEDEDE"/>
<stop offset="1" stop-color="#D6D6D6"/>
</linearGradient>
<linearGradient id="paint4_linear_5_120" x1="39.7806" y1="45.6172" x2="155.274" y2="50.8311" gradientUnits="userSpaceOnUse">
<stop stop-color="#0077D2"/>
<stop offset="1" stop-color="#0B59A2"/>
</linearGradient>
<linearGradient id="paint5_linear_5_120" x1="38" y1="95.2857" x2="153.714" y2="95.2857" gradientUnits="userSpaceOnUse">
<stop stop-color="#7DD8F3"/>
<stop offset="1" stop-color="#45B0D0"/>
</linearGradient>
<linearGradient id="paint6_linear_5_120" x1="66.9671" y1="61.8366" x2="102.756" y2="126.548" gradientUnits="userSpaceOnUse">
<stop stop-color="#75DAFF"/>
<stop offset="1" stop-color="#49BEF1"/>
</linearGradient>
<linearGradient id="paint7_linear_5_120" x1="66.9671" y1="61.8366" x2="102.756" y2="126.548" gradientUnits="userSpaceOnUse">
<stop stop-color="#75DAFF"/>
<stop offset="1" stop-color="#49BEF1"/>
</linearGradient>
<linearGradient id="paint8_linear_5_120" x1="70.405" y1="35.8258" x2="135.777" y2="76.9381" gradientUnits="userSpaceOnUse">
<stop stop-color="#7DD8F3"/>
<stop offset="1" stop-color="#45B0D0"/>
</linearGradient>
<linearGradient id="paint9_linear_5_120" x1="111.002" y1="124.606" x2="104.213" y2="102.791" gradientUnits="userSpaceOnUse">
<stop stop-color="#C3CDD4"/>
<stop offset="1" stop-color="white" stop-opacity="0.78"/>
</linearGradient>
<linearGradient id="paint10_linear_5_120" x1="73.2011" y1="79.5969" x2="79.6591" y2="85.3253" gradientUnits="userSpaceOnUse">
<stop stop-color="#C26715"/>
<stop offset="0.508" stop-color="#B85515"/>
<stop offset="1" stop-color="#AD3F16"/>
</linearGradient>
<linearGradient id="paint11_linear_5_120" x1="66.6199" y1="77.0864" x2="75.1956" y2="83.0351" gradientUnits="userSpaceOnUse">
<stop stop-color="#EBA84B"/>
<stop offset="1" stop-color="#D97218"/>
</linearGradient>
<linearGradient id="paint12_linear_5_120" x1="74.3511" y1="84.195" x2="82.4451" y2="91.6082" gradientUnits="userSpaceOnUse">
<stop stop-color="#EBA600"/>
<stop offset="1" stop-color="#C28200"/>
</linearGradient>
<linearGradient id="paint13_linear_5_120" x1="65.9042" y1="82.4341" x2="77.1459" y2="92.7312" gradientUnits="userSpaceOnUse">
<stop stop-color="#FFD869"/>
<stop offset="1" stop-color="#FEC52B"/>
</linearGradient>
<linearGradient id="paint14_linear_5_120" x1="70.3866" y1="85.1413" x2="70.3866" y2="71.5257" gradientUnits="userSpaceOnUse">
<stop stop-color="#EBA600"/>
<stop offset="1" stop-color="#C28200"/>
</linearGradient>
<linearGradient id="paint15_linear_5_120" x1="79.0534" y1="85.1366" x2="79.0534" y2="83.3517" gradientUnits="userSpaceOnUse">
<stop stop-color="#FFD869"/>
<stop offset="1" stop-color="#FEC52B"/>
</linearGradient>
<linearGradient id="paint16_linear_5_120" x1="91.6063" y1="88.6129" x2="91.6063" y2="90.4839" gradientUnits="userSpaceOnUse">
<stop stop-color="#0782D8" stop-opacity="0.42"/>
<stop offset="1" stop-color="#0782D8" stop-opacity="0"/>
</linearGradient>
<linearGradient id="paint17_linear_5_120" x1="91.6063" y1="93.4839" x2="91.6063" y2="95.3548" gradientUnits="userSpaceOnUse">
<stop stop-color="#0782D8" stop-opacity="0.56"/>
<stop offset="1" stop-color="#0782D8" stop-opacity="0"/>
</linearGradient>
</defs>
</svg>
