<svg width="199" height="199" viewBox="0 0 199 199" fill="none" xmlns="http://www.w3.org/2000/svg">
<g filter="url(#filter0_d_54_343)">
<path d="M172.887 8H26.1129C18.3186 8 12 14.3186 12 22.1129V168.887C12 176.681 18.3186 183 26.1129 183H172.887C180.681 183 187 176.681 187 168.887V22.1129C187 14.3186 180.681 8 172.887 8Z" fill="white"/>
<path d="M172.887 8H26.1129C18.3186 8 12 14.3186 12 22.1129V168.887C12 176.681 18.3186 183 26.1129 183H172.887C180.681 183 187 176.681 187 168.887V22.1129C187 14.3186 180.681 8 172.887 8Z" fill="url(#paint0_linear_54_343)" fill-opacity="0.2"/>
<path d="M172.887 8H26.1129C18.3186 8 12 14.3186 12 22.1129V168.887C12 176.681 18.3186 183 26.1129 183H172.887C180.681 183 187 176.681 187 168.887V22.1129C187 14.3186 180.681 8 172.887 8Z" stroke="#D5EAF6" stroke-width="15"/>
</g>
<path d="M150.538 72.0257H49V55.1027C49 51.986 51.5244 49.4617 54.641 49.4617H144.897C148.014 49.4617 150.538 51.986 150.538 55.1027V72.0257Z" fill="url(#paint1_linear_54_343)"/>
<path d="M49 72.0256V145.359C49 148.476 51.5244 151 54.641 151H144.897C148.014 151 150.538 148.476 150.538 145.359V72.0256H49Z" fill="url(#paint2_linear_54_343)"/>
<path d="M91.3077 97.41H85.6666C84.1097 97.41 82.8461 96.1464 82.8461 94.5895V88.9484C82.8461 87.3915 84.1097 86.1279 85.6666 86.1279H91.3077C92.8646 86.1279 94.1282 87.3915 94.1282 88.9484V94.5895C94.1282 96.1464 92.8646 97.41 91.3077 97.41Z" fill="white"/>
<path d="M113.872 97.41H108.231C106.674 97.41 105.41 96.1464 105.41 94.5895V88.9484C105.41 87.3915 106.674 86.1279 108.231 86.1279H113.872C115.429 86.1279 116.692 87.3915 116.692 88.9484V94.5895C116.692 96.1464 115.429 97.41 113.872 97.41Z" fill="white"/>
<path d="M136.436 97.41H130.795C129.238 97.41 127.974 96.1464 127.974 94.5895V88.9484C127.974 87.3915 129.238 86.1279 130.795 86.1279H136.436C137.993 86.1279 139.256 87.3915 139.256 88.9484V94.5895C139.256 96.1464 137.993 97.41 136.436 97.41Z" fill="white"/>
<path d="M91.3077 117.154H85.6666C84.1097 117.154 82.8461 115.89 82.8461 114.333V108.692C82.8461 107.135 84.1097 105.872 85.6666 105.872H91.3077C92.8646 105.872 94.1282 107.135 94.1282 108.692V114.333C94.1282 115.89 92.8646 117.154 91.3077 117.154Z" fill="white"/>
<path d="M68.7436 117.154H63.1026C61.5457 117.154 60.2821 115.89 60.2821 114.333V108.692C60.2821 107.135 61.5457 105.872 63.1026 105.872H68.7436C70.3006 105.872 71.5641 107.135 71.5641 108.692V114.333C71.5641 115.89 70.3006 117.154 68.7436 117.154Z" fill="white"/>
<path d="M113.872 117.154H108.231C106.674 117.154 105.41 115.89 105.41 114.333V108.692C105.41 107.135 106.674 105.872 108.231 105.872H113.872C115.429 105.872 116.692 107.135 116.692 108.692V114.333C116.692 115.89 115.429 117.154 113.872 117.154Z" fill="white"/>
<path d="M91.3077 136.897H85.6666C84.1097 136.897 82.8461 135.634 82.8461 134.077V128.436C82.8461 126.879 84.1097 125.615 85.6666 125.615H91.3077C92.8646 125.615 94.1282 126.879 94.1282 128.436V134.077C94.1282 135.634 92.8646 136.897 91.3077 136.897Z" fill="white"/>
<path d="M68.7436 136.897H63.1026C61.5457 136.897 60.2821 135.634 60.2821 134.077V128.436C60.2821 126.879 61.5457 125.615 63.1026 125.615H68.7436C70.3006 125.615 71.5641 126.879 71.5641 128.436V134.077C71.5641 135.634 70.3006 136.897 68.7436 136.897Z" fill="white"/>
<path d="M113.872 136.897H108.231C106.674 136.897 105.41 135.634 105.41 134.077V128.436C105.41 126.879 106.674 125.615 108.231 125.615H113.872C115.429 125.615 116.692 126.879 116.692 128.436V134.077C116.692 135.634 115.429 136.897 113.872 136.897Z" fill="white"/>
<path d="M136.436 117.154H130.795C129.238 117.154 127.974 115.89 127.974 114.333V108.692C127.974 107.135 129.238 105.872 130.795 105.872H136.436C137.993 105.872 139.256 107.135 139.256 108.692V114.333C139.256 115.89 137.993 117.154 136.436 117.154Z" fill="white"/>
<path opacity="0.05" d="M71.564 49.4617V59.3335C71.564 60.1119 70.9294 60.7437 70.1538 60.7437C69.3781 60.7437 68.7435 60.1119 68.7435 59.3335V49.4617H63.1025V59.3335C63.1025 63.2201 66.2643 66.3847 70.1538 66.3847C74.0432 66.3847 77.205 63.2201 77.205 59.3335V49.4617H71.564Z" fill="black"/>
<path opacity="0.07" d="M72.9743 49.4617V59.3335C72.9743 60.8876 71.7108 62.154 70.1538 62.154C68.5969 62.154 67.3333 60.8876 67.3333 59.3335V49.4617H64.5128V59.3335C64.5128 62.4445 67.0428 64.9745 70.1538 64.9745C73.2649 64.9745 75.7949 62.4445 75.7949 59.3335V49.4617H72.9743Z" fill="black"/>
<path opacity="0.05" d="M130.795 49.4617V59.3335C130.795 60.1119 130.16 60.7437 129.385 60.7437C128.609 60.7437 127.974 60.1119 127.974 59.3335V49.4617H122.333V59.3335C122.333 63.2201 125.495 66.3847 129.385 66.3847C133.274 66.3847 136.436 63.2201 136.436 59.3335V49.4617H130.795Z" fill="black"/>
<path opacity="0.07" d="M132.205 49.4617V59.3335C132.205 60.8876 130.941 62.154 129.385 62.154C127.828 62.154 126.564 60.8876 126.564 59.3335V49.4617H123.744V59.3335C123.744 62.4445 126.274 64.9745 129.385 64.9745C132.496 64.9745 135.026 62.4445 135.026 59.3335V49.4617H132.205Z" fill="black"/>
<path d="M129.385 63.5641C127.049 63.5641 125.154 61.6687 125.154 59.3333V45.2308C125.154 42.8954 127.049 41 129.385 41C131.72 41 133.615 42.8954 133.615 45.2308V59.3333C133.615 61.6687 131.72 63.5641 129.385 63.5641Z" fill="#54DAFF"/>
<path d="M70.1539 63.5641C67.8185 63.5641 65.9231 61.6687 65.9231 59.3333V45.2308C65.9231 42.8954 67.8185 41 70.1539 41C72.4892 41 74.3846 42.8954 74.3846 45.2308V59.3333C74.3846 61.6687 72.4892 63.5641 70.1539 63.5641Z" fill="#54DAFF"/>
<defs>
<filter id="filter0_d_54_343" x="0.5" y="0.5" width="198" height="198" filterUnits="userSpaceOnUse" color-interpolation-filters="sRGB">
<feFlood flood-opacity="0" result="BackgroundImageFix"/>
<feColorMatrix in="SourceAlpha" type="matrix" values="0 0 0 0 0 0 0 0 0 0 0 0 0 0 0 0 0 0 127 0" result="hardAlpha"/>
<feOffset dy="4"/>
<feGaussianBlur stdDeviation="2"/>
<feComposite in2="hardAlpha" operator="out"/>
<feColorMatrix type="matrix" values="0 0 0 0 0.8375 0 0 0 0 0.732812 0 0 0 0 0.732812 0 0 0 0.25 0"/>
<feBlend mode="normal" in2="BackgroundImageFix" result="effect1_dropShadow_54_343"/>
<feBlend mode="normal" in="SourceGraphic" in2="effect1_dropShadow_54_343" result="shape"/>
</filter>
<linearGradient id="paint0_linear_54_343" x1="99.5" y1="16.4677" x2="99.5" y2="174.532" gradientUnits="userSpaceOnUse">
<stop stop-color="white"/>
<stop offset="0.472222" stop-color="#0D5176" stop-opacity="0.527778"/>
<stop offset="0.940972" stop-color="#12A6F7" stop-opacity="0.465278"/>
<stop offset="1" stop-opacity="0"/>
</linearGradient>
<linearGradient id="paint1_linear_54_343" x1="97.0051" y1="44.8417" x2="102.767" y2="83.4319" gradientUnits="userSpaceOnUse">
<stop offset="0.042" stop-color="#076DB4"/>
<stop offset="0.85" stop-color="#0461AF"/>
</linearGradient>
<linearGradient id="paint2_linear_54_343" x1="93.0987" y1="50.6377" x2="109.83" y2="196.672" gradientUnits="userSpaceOnUse">
<stop stop-color="#0176D0"/>
<stop offset="1" stop-color="#0A85D9"/>
</linearGradient>
</defs>
</svg>
