<svg width="191" height="191" viewBox="0 0 191 191" fill="none" xmlns="http://www.w3.org/2000/svg">
<g filter="url(#filter0_i_64_61)">
<path d="M168.887 8H22.1129C14.3186 8 8 14.3186 8 22.1129V168.887C8 176.681 14.3186 183 22.1129 183H168.887C176.681 183 183 176.681 183 168.887V22.1129C183 14.3186 176.681 8 168.887 8Z" fill="white"/>
<path d="M168.887 8H22.1129C14.3186 8 8 14.3186 8 22.1129V168.887C8 176.681 14.3186 183 22.1129 183H168.887C176.681 183 183 176.681 183 168.887V22.1129C183 14.3186 176.681 8 168.887 8Z" fill="url(#paint0_linear_64_61)" fill-opacity="0.2"/>
<path d="M168.887 8H22.1129C14.3186 8 8 14.3186 8 22.1129V168.887C8 176.681 14.3186 183 22.1129 183H168.887C176.681 183 183 176.681 183 168.887V22.1129C183 14.3186 176.681 8 168.887 8Z" stroke="#D5EAF6" stroke-width="15"/>
</g>
<g filter="url(#filter1_dd_64_61)">
<path d="M62.3668 151.729H42.6363C42.1587 151.729 41.6855 151.633 41.2442 151.448C40.8029 151.264 40.4023 150.993 40.064 150.65C39.7258 150.307 39.4587 149.902 39.2758 149.455C39.0929 149.008 39 148.529 39 148.044V55.4119H58.7348V148.044C58.7334 148.528 58.8277 149.007 59.0092 149.454C59.1921 149.901 59.4592 150.307 59.7974 150.649C60.1342 150.991 60.5348 151.263 60.9761 151.447C61.4174 151.633 61.8892 151.729 62.3668 151.729Z" fill="white"/>
<path d="M52.6321 65.3383H45.4118C44.5016 65.3383 43.7642 66.1283 43.7642 67.1029V74.8363C43.7642 75.8108 44.5016 76.6007 45.4118 76.6007H52.6321C53.5423 76.6007 54.2812 75.8108 54.2812 74.8363V67.1029C54.2812 66.1283 53.5423 65.3383 52.6321 65.3383Z" fill="#151515" fill-opacity="0.18"/>
<path d="M52.6321 80.6438H45.4118C44.5016 80.6438 43.7642 81.4338 43.7642 82.4085V90.1419C43.7642 91.1162 44.5016 91.9065 45.4118 91.9065H52.6321C53.5423 91.9065 54.2812 91.1162 54.2812 90.1419V82.4085C54.2812 81.4338 53.5423 80.6438 52.6321 80.6438Z" fill="#FFD600" fill-opacity="0.18"/>
<path d="M52.6321 95.9463H45.4118C44.5016 95.9463 43.7642 96.7363 43.7642 97.7107V105.444C43.7642 106.419 44.5016 107.209 45.4118 107.209H52.6321C53.5423 107.209 54.2812 106.419 54.2812 105.444V97.7107C54.2812 96.7363 53.5423 95.9463 52.6321 95.9463Z" fill="#FFD600" fill-opacity="0.18"/>
<path d="M52.6321 111.248H45.4118C44.5016 111.248 43.7642 112.038 43.7642 113.013V120.746C43.7642 121.721 44.5016 122.511 45.4118 122.511H52.6321C53.5423 122.511 54.2812 121.721 54.2812 120.746V113.013C54.2812 112.038 53.5423 111.248 52.6321 111.248Z" fill="#FFD600" fill-opacity="0.18"/>
<path d="M42.4852 39.1332H148.599C149.393 39.1332 150.187 39.7155 150.786 40.8197C151.385 41.9204 151.726 43.4222 151.726 44.9953V55.3251H39.3584V44.9953C39.3584 43.4222 39.6995 41.9204 40.2976 40.8196C40.8971 39.7155 41.6912 39.1332 42.4852 39.1332Z" fill="#3586CB" stroke="#3586CB" stroke-width="0.183594"/>
<path d="M42.4269 39.028H148.597C149.446 39.028 150.268 39.6474 150.878 40.7644C151.487 41.8805 151.83 43.3962 151.83 44.9784V55.3835H39.1941V44.9784C39.1941 43.3962 39.5367 41.8805 40.1449 40.7644C40.7546 39.6474 41.5762 39.028 42.4269 39.028Z" stroke="white" stroke-opacity="0.4" stroke-width="0.0458984"/>
<path d="M42.4269 39.028H148.597C149.446 39.028 150.268 39.6474 150.878 40.7644C151.487 41.8805 151.83 43.3962 151.83 44.9784V55.3835H39.1941V44.9784C39.1941 43.3962 39.5367 41.8805 40.1449 40.7644C40.7546 39.6474 41.5762 39.028 42.4269 39.028Z" stroke="black" stroke-opacity="0.2" stroke-width="0.0458984"/>
<path d="M62.3276 39C61.3651 39.0015 60.4419 39.6287 59.7626 40.7441C59.0817 41.8596 58.7 43.3719 58.7 44.9486V55.3297H39V44.9486C39 43.3708 39.3832 41.858 40.064 40.7424C40.7448 39.6268 41.6681 39 42.6305 39H62.3276Z" fill="#366FCA"/>
<path d="M103.748 51.7752H104.766V45.7153H103.748V51.7752ZM100.98 43.8074V44.7051H107.534V43.8074H100.98Z" fill="white"/>
<path d="M103.748 51.7752H104.766V45.7153H103.748V51.7752ZM100.98 43.8074V44.7051H107.534V43.8074H100.98Z" fill="url(#paint1_radial_64_61)" fill-opacity="0.2"/>
<path d="M108.463 51.876C108.73 51.876 108.989 51.8458 109.235 51.7752C109.484 51.7148 109.7 51.6243 109.906 51.5035C110.112 51.3826 110.288 51.2418 110.443 51.0806C110.597 50.9195 110.72 50.7483 110.813 50.547L110.029 50.3357C109.968 50.4766 109.886 50.5974 109.783 50.6981C109.68 50.8087 109.556 50.8995 109.421 50.9699C109.277 51.0504 109.132 51.1108 108.978 51.151C108.813 51.1914 108.659 51.2114 108.494 51.2114C108.257 51.2114 108.029 51.1712 107.823 51.0806C107.617 51.0001 107.431 50.8793 107.267 50.7182C107.101 50.5672 106.968 50.386 106.865 50.1645C106.762 49.9531 106.699 49.7115 106.679 49.4497H111.144C111.144 49.4195 111.154 49.3692 111.154 49.3088C111.154 49.2484 111.165 49.188 111.165 49.1074C111.165 48.7651 111.092 48.4228 110.969 48.1007C110.845 47.7786 110.659 47.4867 110.431 47.245C110.195 47.0035 109.906 46.8021 109.576 46.6511C109.247 46.5102 108.875 46.4296 108.473 46.4296C108.061 46.4296 107.689 46.5102 107.36 46.6511C107.019 46.7921 106.73 46.9933 106.483 47.235C106.235 47.4867 106.049 47.7786 105.915 48.1007C105.782 48.433 105.719 48.7853 105.719 49.1478C105.719 49.5203 105.782 49.8726 105.915 50.2047C106.049 50.537 106.235 50.8289 106.483 51.0706C106.72 51.3222 107.009 51.5235 107.348 51.6645C107.679 51.8054 108.051 51.876 108.463 51.876ZM110.308 48.7953H106.659C106.679 48.5538 106.73 48.3223 106.833 48.1109C106.936 47.9094 107.061 47.7282 107.225 47.5773C107.39 47.4263 107.576 47.3054 107.792 47.225C107.999 47.1444 108.225 47.094 108.473 47.094C108.71 47.094 108.938 47.1444 109.154 47.225C109.36 47.3054 109.546 47.4263 109.71 47.5673C109.875 47.7182 110.009 47.8994 110.112 48.1109C110.215 48.3223 110.288 48.5538 110.308 48.7953Z" fill="white"/>
<path d="M108.463 51.876C108.73 51.876 108.989 51.8458 109.235 51.7752C109.484 51.7148 109.7 51.6243 109.906 51.5035C110.112 51.3826 110.288 51.2418 110.443 51.0806C110.597 50.9195 110.72 50.7483 110.813 50.547L110.029 50.3357C109.968 50.4766 109.886 50.5974 109.783 50.6981C109.68 50.8087 109.556 50.8995 109.421 50.9699C109.277 51.0504 109.132 51.1108 108.978 51.151C108.813 51.1914 108.659 51.2114 108.494 51.2114C108.257 51.2114 108.029 51.1712 107.823 51.0806C107.617 51.0001 107.431 50.8793 107.267 50.7182C107.101 50.5672 106.968 50.386 106.865 50.1645C106.762 49.9531 106.699 49.7115 106.679 49.4497H111.144C111.144 49.4195 111.154 49.3692 111.154 49.3088C111.154 49.2484 111.165 49.188 111.165 49.1074C111.165 48.7651 111.092 48.4228 110.969 48.1007C110.845 47.7786 110.659 47.4867 110.431 47.245C110.195 47.0035 109.906 46.8021 109.576 46.6511C109.247 46.5102 108.875 46.4296 108.473 46.4296C108.061 46.4296 107.689 46.5102 107.36 46.6511C107.019 46.7921 106.73 46.9933 106.483 47.235C106.235 47.4867 106.049 47.7786 105.915 48.1007C105.782 48.433 105.719 48.7853 105.719 49.1478C105.719 49.5203 105.782 49.8726 105.915 50.2047C106.049 50.537 106.235 50.8289 106.483 51.0706C106.72 51.3222 107.009 51.5235 107.348 51.6645C107.679 51.8054 108.051 51.876 108.463 51.876ZM110.308 48.7953H106.659C106.679 48.5538 106.73 48.3223 106.833 48.1109C106.936 47.9094 107.061 47.7282 107.225 47.5773C107.39 47.4263 107.576 47.3054 107.792 47.225C107.999 47.1444 108.225 47.094 108.473 47.094C108.71 47.094 108.938 47.1444 109.154 47.225C109.36 47.3054 109.546 47.4263 109.71 47.5673C109.875 47.7182 110.009 47.8994 110.112 48.1109C110.215 48.3223 110.288 48.5538 110.308 48.7953Z" fill="url(#paint2_radial_64_61)" fill-opacity="0.2"/>
<path d="M111.566 43.8074V50.5859C111.566 50.9644 111.672 51.2563 111.906 51.4617C112.141 51.6778 112.457 51.7752 112.857 51.7752C113.032 51.7752 113.243 51.7536 113.478 51.7104C113.712 51.6671 113.912 51.613 114.088 51.5482L113.924 50.7806C113.818 50.8239 113.712 50.8562 113.596 50.8779C113.478 50.8995 113.372 50.9102 113.291 50.9102C113.067 50.9102 112.891 50.8562 112.774 50.7373C112.658 50.6184 112.598 50.4563 112.598 50.24V43.8074H111.566Z" fill="white"/>
<path d="M111.566 43.8074V50.5859C111.566 50.9644 111.672 51.2563 111.906 51.4617C112.141 51.6778 112.457 51.7752 112.857 51.7752C113.032 51.7752 113.243 51.7536 113.478 51.7104C113.712 51.6671 113.912 51.613 114.088 51.5482L113.924 50.7806C113.818 50.8239 113.712 50.8562 113.596 50.8779C113.478 50.8995 113.372 50.9102 113.291 50.9102C113.067 50.9102 112.891 50.8562 112.774 50.7373C112.658 50.6184 112.598 50.4563 112.598 50.24V43.8074H111.566Z" fill="url(#paint3_radial_64_61)" fill-opacity="0.2"/>
<path d="M116.428 51.876C116.697 51.876 116.954 51.8458 117.202 51.7752C117.449 51.7148 117.665 51.6243 117.871 51.5035C118.077 51.3826 118.253 51.2418 118.408 51.0806C118.562 50.9195 118.687 50.7483 118.778 50.547L117.996 50.3357C117.933 50.4766 117.851 50.5974 117.748 50.6981C117.645 50.8087 117.521 50.8995 117.388 50.9699C117.243 51.0504 117.099 51.1108 116.943 51.151C116.778 51.1914 116.624 51.2114 116.459 51.2114C116.222 51.2114 115.994 51.1712 115.788 51.0806C115.582 51.0001 115.397 50.8793 115.232 50.7182C115.067 50.5672 114.933 50.386 114.83 50.1645C114.727 49.9531 114.664 49.7115 114.644 49.4497H119.109C119.109 49.4195 119.119 49.3692 119.119 49.3088C119.119 49.2484 119.13 49.188 119.13 49.1074C119.13 48.7651 119.057 48.4228 118.934 48.1007C118.81 47.7786 118.624 47.4867 118.398 47.245C118.16 47.0035 117.871 46.8021 117.542 46.6511C117.212 46.5102 116.84 46.4296 116.438 46.4296C116.026 46.4296 115.654 46.5102 115.325 46.6511C114.984 46.7921 114.695 46.9933 114.448 47.235C114.2 47.4867 114.016 47.7786 113.881 48.1007C113.747 48.433 113.685 48.7853 113.685 49.1478C113.685 49.5203 113.747 49.8726 113.881 50.2047C114.016 50.537 114.2 50.8289 114.448 51.0706C114.685 51.3222 114.974 51.5235 115.315 51.6645C115.644 51.8054 116.016 51.876 116.428 51.876ZM118.273 48.7953H114.624C114.644 48.5538 114.695 48.3223 114.798 48.1109C114.903 47.9094 115.026 47.7282 115.19 47.5773C115.355 47.4263 115.541 47.3054 115.758 47.225C115.964 47.1444 116.19 47.094 116.438 47.094C116.675 47.094 116.903 47.1444 117.119 47.225C117.325 47.3054 117.511 47.4263 117.675 47.5673C117.841 47.7182 117.974 47.8994 118.077 48.1109C118.182 48.3223 118.253 48.5538 118.273 48.7953Z" fill="white"/>
<path d="M116.428 51.876C116.697 51.876 116.954 51.8458 117.202 51.7752C117.449 51.7148 117.665 51.6243 117.871 51.5035C118.077 51.3826 118.253 51.2418 118.408 51.0806C118.562 50.9195 118.687 50.7483 118.778 50.547L117.996 50.3357C117.933 50.4766 117.851 50.5974 117.748 50.6981C117.645 50.8087 117.521 50.8995 117.388 50.9699C117.243 51.0504 117.099 51.1108 116.943 51.151C116.778 51.1914 116.624 51.2114 116.459 51.2114C116.222 51.2114 115.994 51.1712 115.788 51.0806C115.582 51.0001 115.397 50.8793 115.232 50.7182C115.067 50.5672 114.933 50.386 114.83 50.1645C114.727 49.9531 114.664 49.7115 114.644 49.4497H119.109C119.109 49.4195 119.119 49.3692 119.119 49.3088C119.119 49.2484 119.13 49.188 119.13 49.1074C119.13 48.7651 119.057 48.4228 118.934 48.1007C118.81 47.7786 118.624 47.4867 118.398 47.245C118.16 47.0035 117.871 46.8021 117.542 46.6511C117.212 46.5102 116.84 46.4296 116.438 46.4296C116.026 46.4296 115.654 46.5102 115.325 46.6511C114.984 46.7921 114.695 46.9933 114.448 47.235C114.2 47.4867 114.016 47.7786 113.881 48.1007C113.747 48.433 113.685 48.7853 113.685 49.1478C113.685 49.5203 113.747 49.8726 113.881 50.2047C114.016 50.537 114.2 50.8289 114.448 51.0706C114.685 51.3222 114.974 51.5235 115.315 51.6645C115.644 51.8054 116.016 51.876 116.428 51.876ZM118.273 48.7953H114.624C114.644 48.5538 114.695 48.3223 114.798 48.1109C114.903 47.9094 115.026 47.7282 115.19 47.5773C115.355 47.4263 115.541 47.3054 115.758 47.225C115.964 47.1444 116.19 47.094 116.438 47.094C116.675 47.094 116.903 47.1444 117.119 47.225C117.325 47.3054 117.511 47.4263 117.675 47.5673C117.841 47.7182 117.974 47.8994 118.077 48.1109C118.182 48.3223 118.253 48.5538 118.273 48.7953Z" fill="url(#paint4_radial_64_61)" fill-opacity="0.2"/>
<path d="M119.738 48.2193L121.889 48.2004L121.883 47.53L119.732 47.5489L119.738 48.2193Z" fill="white"/>
<path d="M119.738 48.2193L121.889 48.2004L121.883 47.53L119.732 47.5489L119.738 48.2193Z" fill="url(#paint5_radial_64_61)" fill-opacity="0.2"/>
<path d="M126.753 50.3278C125.431 50.3278 124.287 49.1977 124.275 47.8305C124.091 48.2712 123.792 49.0848 124.068 49.9549C124.148 50.2262 124.378 50.8025 125.046 51.3448C125.287 51.537 125.509 51.6357 125.785 51.7375C126.096 51.8053 126.473 51.876 126.817 51.876C128.405 51.876 129.741 51.1641 130.5 50.0567L128.844 49.3333C128.372 49.9436 127.623 50.3278 126.84 50.3278H126.753ZM126.84 45.3669C127.634 45.3669 128.382 45.7512 128.854 46.3613L130.523 45.6268C129.764 44.5193 128.417 43.8074 126.817 43.8074C124.332 43.8074 122.457 45.5365 122.457 47.8191C122.457 48.3841 122.571 48.9153 122.779 49.4013C123.332 45.2538 126.84 45.3669 126.84 45.3669Z" fill="white"/>
<path d="M126.753 50.3278C125.431 50.3278 124.287 49.1977 124.275 47.8305C124.091 48.2712 123.792 49.0848 124.068 49.9549C124.148 50.2262 124.378 50.8025 125.046 51.3448C125.287 51.537 125.509 51.6357 125.785 51.7375C126.096 51.8053 126.473 51.876 126.817 51.876C128.405 51.876 129.741 51.1641 130.5 50.0567L128.844 49.3333C128.372 49.9436 127.623 50.3278 126.84 50.3278H126.753ZM126.84 45.3669C127.634 45.3669 128.382 45.7512 128.854 46.3613L130.523 45.6268C129.764 44.5193 128.417 43.8074 126.817 43.8074C124.332 43.8074 122.457 45.5365 122.457 47.8191C122.457 48.3841 122.571 48.9153 122.779 49.4013C123.332 45.2538 126.84 45.3669 126.84 45.3669Z" fill="url(#paint6_radial_64_61)" fill-opacity="0.2"/>
<path d="M137.339 43.8074L135.151 48.8084L132.962 43.8074H130.925V51.8295H132.532V46.1763L134.557 51.0169H135.745L137.77 46.1877L137.781 51.841H139.364V43.8189L137.339 43.8074Z" fill="white"/>
<path d="M137.339 43.8074L135.151 48.8084L132.962 43.8074H130.925V51.8295H132.532V46.1763L134.557 51.0169H135.745L137.77 46.1877L137.781 51.841H139.364V43.8189L137.339 43.8074Z" fill="url(#paint7_radial_64_61)" fill-opacity="0.2"/>
<path d="M143.739 47.0653C142.881 46.8172 142.13 46.6031 142.13 45.9718C142.13 45.5548 142.488 45.3067 143.096 45.3067C143.75 45.3067 144.777 45.6336 145.623 46.1071L146.326 44.6529C145.491 44.123 144.359 43.8074 143.274 43.8074C141.378 43.8074 140.162 44.7318 140.162 46.1521C140.162 47.7641 141.545 48.1475 142.762 48.4856C143.644 48.7337 144.407 48.9478 144.407 49.6016C144.407 50.0976 143.99 50.3907 143.286 50.3907C142.416 50.3907 141.223 49.906 140.413 49.2297L139.698 50.6499C140.663 51.4166 141.987 51.8787 143.263 51.8787C145.159 51.8787 146.387 50.943 146.387 49.5001C146.387 47.8431 144.992 47.4372 143.75 47.0878L143.739 47.0653Z" fill="white"/>
<path d="M143.739 47.0653C142.881 46.8172 142.13 46.6031 142.13 45.9718C142.13 45.5548 142.488 45.3067 143.096 45.3067C143.75 45.3067 144.777 45.6336 145.623 46.1071L146.326 44.6529C145.491 44.123 144.359 43.8074 143.274 43.8074C141.378 43.8074 140.162 44.7318 140.162 46.1521C140.162 47.7641 141.545 48.1475 142.762 48.4856C143.644 48.7337 144.407 48.9478 144.407 49.6016C144.407 50.0976 143.99 50.3907 143.286 50.3907C142.416 50.3907 141.223 49.906 140.413 49.2297L139.698 50.6499C140.663 51.4166 141.987 51.8787 143.263 51.8787C145.159 51.8787 146.387 50.943 146.387 49.5001C146.387 47.8431 144.992 47.4372 143.75 47.0878L143.739 47.0653Z" fill="url(#paint8_radial_64_61)" fill-opacity="0.2"/>
<path d="M142.361 144.269C142.548 144.267 142.699 144.115 142.698 143.928C142.698 143.74 142.545 143.589 142.358 143.589C142.171 143.591 142.02 143.743 142.02 143.93C142.021 144.118 142.174 144.269 142.361 144.269Z" fill="white"/>
<path d="M142.354 142.234C141.916 142.235 141.495 142.406 141.18 142.713C141.116 142.775 141.078 142.861 141.076 142.951C141.075 143.041 141.11 143.128 141.172 143.192C141.236 143.257 141.322 143.293 141.412 143.295C141.502 143.296 141.587 143.261 141.653 143.199C141.844 143.022 142.096 142.923 142.357 142.923C142.618 142.922 142.869 143.019 143.062 143.195C143.128 143.255 143.215 143.29 143.305 143.287C143.395 143.286 143.48 143.248 143.543 143.184C143.605 143.119 143.639 143.032 143.637 142.942C143.634 142.852 143.597 142.766 143.533 142.704C143.215 142.4 142.792 142.232 142.354 142.234ZM142.348 140.538C141.939 140.539 141.534 140.624 141.158 140.785C140.782 140.947 140.442 141.183 140.158 141.479C140.127 141.511 140.104 141.55 140.088 141.592C140.072 141.634 140.065 141.679 140.065 141.724C140.066 141.769 140.078 141.814 140.095 141.855C140.114 141.895 140.14 141.933 140.174 141.964C140.24 142.026 140.327 142.059 140.419 142.056C140.464 142.055 140.509 142.045 140.55 142.026C140.59 142.007 140.628 141.981 140.658 141.948C140.879 141.717 141.143 141.534 141.436 141.408C141.73 141.281 142.045 141.216 142.364 141.216C142.683 141.214 142.998 141.277 143.293 141.4C143.586 141.525 143.853 141.707 144.076 141.936C144.106 141.968 144.144 141.993 144.186 142.01C144.227 142.027 144.272 142.036 144.317 142.036C144.382 142.036 144.447 142.016 144.502 141.979C144.557 141.942 144.6 141.89 144.626 141.829C144.652 141.768 144.659 141.701 144.647 141.635C144.634 141.57 144.604 141.511 144.559 141.463C144.272 141.167 143.927 140.933 143.547 140.775C143.168 140.615 142.76 140.535 142.348 140.538Z" fill="white"/>
<path d="M145.64 140.163C144.753 139.313 143.57 138.84 142.341 138.844C141.111 138.848 139.933 139.33 139.05 140.187C138.993 140.251 138.963 140.333 138.964 140.419C138.966 140.505 139.001 140.586 139.06 140.648C139.118 140.709 139.2 140.747 139.285 140.751C139.371 140.756 139.455 140.728 139.52 140.673C140.277 139.937 141.288 139.523 142.344 139.519C143.398 139.516 144.414 139.923 145.174 140.653C145.238 140.714 145.321 140.747 145.408 140.747C145.455 140.747 145.5 140.737 145.542 140.719C145.584 140.701 145.622 140.674 145.652 140.641C145.714 140.576 145.748 140.489 145.745 140.4C145.743 140.31 145.706 140.224 145.64 140.163Z" fill="white"/>
<path d="M130.97 84.7873L77.8206 115.437L79.5248 118.387L132.674 87.7366L130.97 84.7873Z" fill="#64717C"/>
<path d="M77.8206 87.7372L130.97 118.387L132.674 115.438L79.5262 84.788L77.8206 87.7372Z" fill="#64717C"/>
<path d="M106.952 132.238V70.9379H103.543V132.238H106.952Z" fill="#64717C"/>
<path d="M105.247 76.0458C108.072 76.0458 110.361 73.7588 110.361 70.9376C110.361 68.1162 108.072 65.8292 105.247 65.8292C102.423 65.8292 100.133 68.1162 100.133 70.9376C100.133 73.7588 102.423 76.0458 105.247 76.0458Z" fill="url(#paint9_linear_64_61)"/>
<path d="M77.9717 91.3712C80.7966 91.3712 83.0858 89.0841 83.0858 86.2627C83.0858 83.4415 80.7966 81.1545 77.9717 81.1545C75.1469 81.1545 72.8577 83.4415 72.8577 86.2627C72.8577 89.0841 75.1469 91.3712 77.9717 91.3712Z" fill="url(#paint10_linear_64_61)"/>
<path d="M77.9717 122.021C80.7966 122.021 83.0858 119.734 83.0858 116.913C83.0858 114.092 80.7966 111.804 77.9717 111.804C75.1469 111.804 72.8577 114.092 72.8577 116.913C72.8577 119.734 75.1469 122.021 77.9717 122.021Z" fill="url(#paint11_linear_64_61)"/>
<path d="M132.524 91.3712C135.348 91.3712 137.638 89.0841 137.638 86.2627C137.638 83.4415 135.348 81.1545 132.524 81.1545C129.699 81.1545 127.409 83.4415 127.409 86.2627C127.409 89.0841 129.699 91.3712 132.524 91.3712Z" fill="url(#paint12_linear_64_61)"/>
<path d="M132.524 122.021C135.348 122.021 137.638 119.734 137.638 116.913C137.638 114.092 135.348 111.804 132.524 111.804C129.699 111.804 127.409 114.092 127.409 116.913C127.409 119.734 129.699 122.021 132.524 122.021Z" fill="url(#paint13_linear_64_61)"/>
<path d="M105.247 137.346C108.072 137.346 110.361 135.059 110.361 132.238C110.361 129.416 108.072 127.129 105.247 127.129C102.423 127.129 100.133 129.416 100.133 132.238C100.133 135.059 102.423 137.346 105.247 137.346Z" fill="url(#paint14_linear_64_61)"/>
<path d="M123.999 101.588C123.999 111.932 115.603 120.318 105.247 120.318C94.8915 120.318 86.4954 111.932 86.4954 101.588C86.4954 91.2434 94.8915 82.8571 105.247 82.8571C115.603 82.8571 123.999 91.2434 123.999 101.588Z" fill="url(#paint15_radial_64_61)"/>
<path d="M105.247 120.318C110.681 120.318 115.56 117.996 118.984 114.307C116.664 109.027 111.392 105.334 105.247 105.334C99.1042 105.334 93.8304 109.027 91.5107 114.307C94.9351 117.996 99.814 120.318 105.247 120.318Z" fill="url(#paint16_radial_64_61)"/>
<path d="M105.248 104.993C109.955 104.993 113.772 101.181 113.772 96.4792C113.772 91.7771 109.955 87.9653 105.248 87.9653C100.54 87.9653 96.7236 91.7771 96.7236 96.4792C96.7236 101.181 100.54 104.993 105.248 104.993Z" fill="url(#paint17_radial_64_61)"/>
<path d="M105.248 103.29C109.015 103.29 112.067 100.241 112.067 96.4794C112.067 92.7176 109.015 89.6682 105.248 89.6682C101.482 89.6682 98.4294 92.7176 98.4294 96.4794C98.4294 100.241 101.482 103.29 105.248 103.29Z" fill="url(#paint18_linear_64_61)"/>
<path d="M105.247 120.318C109.949 120.318 114.237 118.576 117.528 115.721C115.661 110.75 110.875 107.207 105.247 107.207C99.6208 107.207 94.8333 110.75 92.9666 115.721C96.2588 118.576 100.545 120.318 105.247 120.318Z" fill="url(#paint19_linear_64_61)"/>
<path d="M151.887 55.571V145.8C151.887 149.162 149.159 151.887 145.793 151.887H63.9417C61.0748 151.887 58.7507 149.566 58.7507 146.701V55.571H151.887Z" fill="url(#paint20_linear_64_61)" fill-opacity="0.5"/>
<path d="M152 55.5712V55.4584H151.887H58.7504H58.6372V55.5712V146.702C58.6372 149.628 61.0121 152 63.9414 152H145.793C149.22 152 152 149.225 152 145.8V55.5712Z" stroke="url(#paint21_radial_64_61)" stroke-width="0.183594"/>
<path d="M152 55.5712V55.4584H151.887H58.7504H58.6372V55.5712V146.702C58.6372 149.628 61.0121 152 63.9414 152H145.793C149.22 152 152 149.225 152 145.8V55.5712Z" stroke="url(#paint22_radial_64_61)" stroke-width="0.183594"/>
<path d="M152 55.5712V55.4584H151.887H58.7504H58.6372V55.5712V146.702C58.6372 149.628 61.0121 152 63.9414 152H145.793C149.22 152 152 149.225 152 145.8V55.5712Z" stroke="url(#paint23_radial_64_61)" stroke-width="0.183594"/>
</g>
<defs>
<filter id="filter0_i_64_61" x="0.5" y="0.5" width="190" height="194" filterUnits="userSpaceOnUse" color-interpolation-filters="sRGB">
<feFlood flood-opacity="0" result="BackgroundImageFix"/>
<feBlend mode="normal" in="SourceGraphic" in2="BackgroundImageFix" result="shape"/>
<feColorMatrix in="SourceAlpha" type="matrix" values="0 0 0 0 0 0 0 0 0 0 0 0 0 0 0 0 0 0 127 0" result="hardAlpha"/>
<feOffset dy="4"/>
<feGaussianBlur stdDeviation="2"/>
<feComposite in2="hardAlpha" operator="arithmetic" k2="-1" k3="1"/>
<feColorMatrix type="matrix" values="0 0 0 0 0.8375 0 0 0 0 0.732812 0 0 0 0 0.732812 0 0 0 0.25 0"/>
<feBlend mode="normal" in2="shape" result="effect1_innerShadow_64_61"/>
</filter>
<filter id="filter1_dd_64_61" x="35" y="39" width="121.092" height="121.092" filterUnits="userSpaceOnUse" color-interpolation-filters="sRGB">
<feFlood flood-opacity="0" result="BackgroundImageFix"/>
<feColorMatrix in="SourceAlpha" type="matrix" values="0 0 0 0 0 0 0 0 0 0 0 0 0 0 0 0 0 0 127 0" result="hardAlpha"/>
<feOffset dy="4"/>
<feGaussianBlur stdDeviation="2"/>
<feComposite in2="hardAlpha" operator="out"/>
<feColorMatrix type="matrix" values="0 0 0 0 0 0 0 0 0 0 0 0 0 0 0 0 0 0 0.25 0"/>
<feBlend mode="normal" in2="BackgroundImageFix" result="effect1_dropShadow_64_61"/>
<feColorMatrix in="SourceAlpha" type="matrix" values="0 0 0 0 0 0 0 0 0 0 0 0 0 0 0 0 0 0 127 0" result="hardAlpha"/>
<feOffset dy="4"/>
<feGaussianBlur stdDeviation="2"/>
<feComposite in2="hardAlpha" operator="out"/>
<feColorMatrix type="matrix" values="0 0 0 0 1 0 0 0 0 1 0 0 0 0 1 0 0 0 0.25 0"/>
<feBlend mode="normal" in2="effect1_dropShadow_64_61" result="effect2_dropShadow_64_61"/>
<feBlend mode="normal" in="SourceGraphic" in2="effect2_dropShadow_64_61" result="shape"/>
</filter>
<linearGradient id="paint0_linear_64_61" x1="95.5" y1="16.4677" x2="95.5" y2="174.532" gradientUnits="userSpaceOnUse">
<stop stop-color="white"/>
<stop offset="0.472222" stop-color="#0D5176" stop-opacity="0.527778"/>
<stop offset="0.940972" stop-color="#12A6F7" stop-opacity="0.465278"/>
<stop offset="1" stop-opacity="0"/>
</linearGradient>
<radialGradient id="paint1_radial_64_61" cx="0" cy="0" r="1" gradientUnits="userSpaceOnUse" gradientTransform="translate(104.258 47.7913) rotate(90.2483) scale(2.23888 1.84313)">
<stop stop-opacity="0.541667"/>
<stop offset="0.0001" stop-opacity="0.29"/>
<stop offset="0.53125" stop-opacity="0.09"/>
<stop offset="1" stop-opacity="0"/>
</radialGradient>
<radialGradient id="paint2_radial_64_61" cx="0" cy="0" r="1" gradientUnits="userSpaceOnUse" gradientTransform="translate(108.443 49.1527) rotate(90.3018) scale(1.53037 1.5312)">
<stop stop-opacity="0.541667"/>
<stop offset="0.0001" stop-opacity="0.29"/>
<stop offset="0.53125" stop-opacity="0.09"/>
<stop offset="1" stop-opacity="0"/>
</radialGradient>
<radialGradient id="paint3_radial_64_61" cx="0" cy="0" r="1" gradientUnits="userSpaceOnUse" gradientTransform="translate(112.828 47.7913) rotate(90.0955) scale(2.23887 0.708897)">
<stop stop-opacity="0.541667"/>
<stop offset="0.0001" stop-opacity="0.29"/>
<stop offset="0.53125" stop-opacity="0.09"/>
<stop offset="1" stop-opacity="0"/>
</radialGradient>
<radialGradient id="paint4_radial_64_61" cx="0" cy="0" r="1" gradientUnits="userSpaceOnUse" gradientTransform="translate(116.408 49.1527) rotate(90.3018) scale(1.53037 1.5312)">
<stop stop-opacity="0.541667"/>
<stop offset="0.0001" stop-opacity="0.29"/>
<stop offset="0.53125" stop-opacity="0.09"/>
<stop offset="1" stop-opacity="0"/>
</radialGradient>
<radialGradient id="paint5_radial_64_61" cx="0" cy="0" r="1" gradientUnits="userSpaceOnUse" gradientTransform="translate(120.81 47.8746) rotate(90.4692) scale(0.188396 0.605153)">
<stop stop-opacity="0.541667"/>
<stop offset="0.0001" stop-opacity="0.29"/>
<stop offset="0.53125" stop-opacity="0.09"/>
<stop offset="1" stop-opacity="0"/>
</radialGradient>
<radialGradient id="paint6_radial_64_61" cx="0" cy="0" r="1" gradientUnits="userSpaceOnUse" gradientTransform="translate(126.491 47.8418) rotate(90.3018) scale(2.26723 2.26845)">
<stop stop-opacity="0.541667"/>
<stop offset="0.0001" stop-opacity="0.29"/>
<stop offset="0.53125" stop-opacity="0.09"/>
<stop offset="1" stop-opacity="0"/>
</radialGradient>
<radialGradient id="paint7_radial_64_61" cx="0" cy="0" r="1" gradientUnits="userSpaceOnUse" gradientTransform="translate(135.145 47.8242) rotate(90.3171) scale(2.25738 2.37307)">
<stop stop-opacity="0.541667"/>
<stop offset="0.0001" stop-opacity="0.29"/>
<stop offset="0.53125" stop-opacity="0.09"/>
<stop offset="1" stop-opacity="0"/>
</radialGradient>
<radialGradient id="paint8_radial_64_61" cx="0" cy="0" r="1" gradientUnits="userSpaceOnUse" gradientTransform="translate(143.042 47.8431) rotate(90.2502) scale(2.26797 1.88094)">
<stop stop-opacity="0.541667"/>
<stop offset="0.0001" stop-opacity="0.29"/>
<stop offset="0.53125" stop-opacity="0.09"/>
<stop offset="1" stop-opacity="0"/>
</radialGradient>
<linearGradient id="paint9_linear_64_61" x1="101.856" y1="67.5506" x2="109.01" y2="74.7141" gradientUnits="userSpaceOnUse">
<stop stop-color="#0176D0"/>
<stop offset="1" stop-color="#0A85D9"/>
</linearGradient>
<linearGradient id="paint10_linear_64_61" x1="74.5807" y1="82.876" x2="81.7358" y2="90.0377" gradientUnits="userSpaceOnUse">
<stop stop-color="#0176D0"/>
<stop offset="1" stop-color="#0A85D9"/>
</linearGradient>
<linearGradient id="paint11_linear_64_61" x1="74.5807" y1="113.526" x2="81.7358" y2="120.688" gradientUnits="userSpaceOnUse">
<stop stop-color="#0176D0"/>
<stop offset="1" stop-color="#0A85D9"/>
</linearGradient>
<linearGradient id="paint12_linear_64_61" x1="129.133" y1="82.876" x2="136.286" y2="90.0377" gradientUnits="userSpaceOnUse">
<stop stop-color="#0176D0"/>
<stop offset="1" stop-color="#0A85D9"/>
</linearGradient>
<linearGradient id="paint13_linear_64_61" x1="129.133" y1="113.526" x2="136.286" y2="120.688" gradientUnits="userSpaceOnUse">
<stop stop-color="#0176D0"/>
<stop offset="1" stop-color="#0A85D9"/>
</linearGradient>
<linearGradient id="paint14_linear_64_61" x1="101.856" y1="128.851" x2="109.01" y2="136.013" gradientUnits="userSpaceOnUse">
<stop stop-color="#0176D0"/>
<stop offset="1" stop-color="#0A85D9"/>
</linearGradient>
<radialGradient id="paint15_radial_64_61" cx="0" cy="0" r="1" gradientUnits="userSpaceOnUse" gradientTransform="translate(93.2236 86.9711) scale(37.7978 37.7543)">
<stop stop-color="#0370C8"/>
<stop offset="0.484" stop-color="#036FC5"/>
<stop offset="0.775" stop-color="#036ABD"/>
<stop offset="1" stop-color="#0362B0"/>
</radialGradient>
<radialGradient id="paint16_radial_64_61" cx="0" cy="0" r="1" gradientUnits="userSpaceOnUse" gradientTransform="translate(105.247 120.419) scale(15.133 15.1156)">
<stop/>
<stop offset="1" stop-opacity="0"/>
</radialGradient>
<radialGradient id="paint17_radial_64_61" cx="0" cy="0" r="1" gradientUnits="userSpaceOnUse" gradientTransform="translate(105.248 96.4778) scale(8.52343 8.5136)">
<stop/>
<stop offset="1" stop-opacity="0"/>
</radialGradient>
<linearGradient id="paint18_linear_64_61" x1="100.621" y1="91.858" x2="110.125" y2="101.372" gradientUnits="userSpaceOnUse">
<stop stop-color="#75DAFF"/>
<stop offset="1" stop-color="#1EA2E4"/>
</linearGradient>
<linearGradient id="paint19_linear_64_61" x1="98.6903" y1="108.339" x2="111.69" y2="121.355" gradientUnits="userSpaceOnUse">
<stop stop-color="#75DAFF"/>
<stop offset="1" stop-color="#1EA2E4"/>
</linearGradient>
<linearGradient id="paint20_linear_64_61" x1="151.887" y1="55.571" x2="38.7662" y2="111.381" gradientUnits="userSpaceOnUse">
<stop stop-color="white" stop-opacity="0.4"/>
<stop offset="1" stop-color="white" stop-opacity="0"/>
</linearGradient>
<radialGradient id="paint21_radial_64_61" cx="0" cy="0" r="1" gradientUnits="userSpaceOnUse" gradientTransform="translate(105.319 103.729) rotate(-43.5402) scale(89.2043 69.3583)">
<stop stop-color="white"/>
<stop offset="1" stop-color="white" stop-opacity="0"/>
</radialGradient>
<radialGradient id="paint22_radial_64_61" cx="0" cy="0" r="1" gradientUnits="userSpaceOnUse" gradientTransform="translate(105.319 103.729) rotate(129.731) scale(75.1446 53.6762)">
<stop stop-color="#0938DF"/>
<stop offset="1" stop-color="#0938DF" stop-opacity="0"/>
</radialGradient>
<radialGradient id="paint23_radial_64_61" cx="0" cy="0" r="1" gradientUnits="userSpaceOnUse" gradientTransform="translate(105.319 103.729) rotate(-133.083) scale(72.2669 53.8872)">
<stop stop-color="#151515"/>
<stop offset="1" stop-color="#151515" stop-opacity="0"/>
</radialGradient>
</defs>
</svg>
