<svg width="199" height="199" viewBox="0 0 199 199" fill="none" xmlns="http://www.w3.org/2000/svg">
<g filter="url(#filter0_d_146_2425)">
<path d="M172.887 8H26.1129C18.3186 8 12 14.3186 12 22.1129V168.887C12 176.681 18.3186 183 26.1129 183H172.887C180.681 183 187 176.681 187 168.887V22.1129C187 14.3186 180.681 8 172.887 8Z" fill="white"/>
<path d="M172.887 8H26.1129C18.3186 8 12 14.3186 12 22.1129V168.887C12 176.681 18.3186 183 26.1129 183H172.887C180.681 183 187 176.681 187 168.887V22.1129C187 14.3186 180.681 8 172.887 8Z" fill="url(#paint0_linear_146_2425)" fill-opacity="0.2"/>
<path d="M172.887 8H26.1129C18.3186 8 12 14.3186 12 22.1129V168.887C12 176.681 18.3186 183 26.1129 183H172.887C180.681 183 187 176.681 187 168.887V22.1129C187 14.3186 180.681 8 172.887 8Z" stroke="#D5EAF6" stroke-width="15" stroke-linecap="round"/>
</g>
<g filter="url(#filter1_bdd_146_2425)">
<path d="M40 138V69H160V138C160 141.3 157.3 144 154 144H46C42.7 144 40 141.3 40 138Z" fill="url(#paint1_linear_146_2425)"/>
<path d="M160 54V69H40V54C40 50.7 42.7 48 46 48H154C157.3 48 160 50.7 160 54Z" fill="url(#paint2_linear_146_2425)"/>
<path d="M77.5 63H152.5C153.328 63 154 62.328 154 61.5V55.5C154 54.672 153.328 54 152.5 54H77.5C76.672 54 76 54.672 76 55.5V61.5C76 62.328 76.672 63 77.5 63Z" fill="url(#paint3_linear_146_2425)"/>
<path d="M50.5 63C52.9853 63 55 60.9853 55 58.5C55 56.0148 52.9853 54 50.5 54C48.0148 54 46 56.0148 46 58.5C46 60.9853 48.0148 63 50.5 63Z" fill="url(#paint4_linear_146_2425)"/>
<path d="M65.4907 63C67.976 63 69.9907 60.9853 69.9907 58.5C69.9907 56.0148 67.976 54 65.4907 54C63.0055 54 60.9907 56.0148 60.9907 58.5C60.9907 60.9853 63.0055 63 65.4907 63Z" fill="url(#paint5_linear_146_2425)"/>
<g filter="url(#filter2_bd_146_2425)">
<path d="M102.8 130.4C117.601 130.4 129.6 118.401 129.6 103.6C129.6 88.7988 117.601 76.8 102.8 76.8C87.9988 76.8 76 88.7988 76 103.6C76 118.401 87.9988 130.4 102.8 130.4Z" fill="white"/>
<path d="M102.8 128.103C116.333 128.103 127.303 117.133 127.303 103.6C127.303 90.0674 116.333 79.0971 102.8 79.0971C89.2674 79.0971 78.2971 90.0674 78.2971 103.6C78.2971 117.133 89.2674 128.103 102.8 128.103Z" fill="#FFD869"/>
<path d="M102.8 119.935C111.822 119.935 119.135 112.622 119.135 103.6C119.135 94.5783 111.822 87.2648 102.8 87.2648C93.7781 87.2648 86.4646 94.5783 86.4646 103.6C86.4646 112.622 93.7781 119.935 102.8 119.935Z" fill="url(#paint6_linear_146_2425)"/>
<path d="M102.8 109.045C105.807 109.045 108.245 106.607 108.245 103.6C108.245 100.593 105.807 98.1549 102.8 98.1549C99.7928 98.1549 97.355 100.593 97.355 103.6C97.355 106.607 99.7928 109.045 102.8 109.045Z" fill="url(#paint7_linear_146_2425)"/>
<path d="M102.8 136.27C100.475 136.27 98.5216 134.523 98.2657 132.211L96.7451 118.532C96.3449 114.923 99.1695 111.768 102.8 111.768C106.431 111.768 109.255 114.923 108.855 118.532L107.334 132.211C107.079 134.523 105.125 136.27 102.8 136.27Z" fill="url(#paint8_linear_146_2425)"/>
</g>
</g>
<defs>
<filter id="filter0_d_146_2425" x="0.5" y="0.5" width="198" height="198" filterUnits="userSpaceOnUse" color-interpolation-filters="sRGB">
<feFlood flood-opacity="0" result="BackgroundImageFix"/>
<feColorMatrix in="SourceAlpha" type="matrix" values="0 0 0 0 0 0 0 0 0 0 0 0 0 0 0 0 0 0 127 0" result="hardAlpha"/>
<feOffset dy="4"/>
<feGaussianBlur stdDeviation="2"/>
<feComposite in2="hardAlpha" operator="out"/>
<feColorMatrix type="matrix" values="0 0 0 0 0.8375 0 0 0 0 0.732812 0 0 0 0 0.732812 0 0 0 0.25 0"/>
<feBlend mode="normal" in2="BackgroundImageFix" result="effect1_dropShadow_146_2425"/>
<feBlend mode="normal" in="SourceGraphic" in2="effect1_dropShadow_146_2425" result="shape"/>
</filter>
<filter id="filter1_bdd_146_2425" x="36" y="44" width="128" height="108" filterUnits="userSpaceOnUse" color-interpolation-filters="sRGB">
<feFlood flood-opacity="0" result="BackgroundImageFix"/>
<feGaussianBlur in="BackgroundImageFix" stdDeviation="2"/>
<feComposite in2="SourceAlpha" operator="in" result="effect1_backgroundBlur_146_2425"/>
<feColorMatrix in="SourceAlpha" type="matrix" values="0 0 0 0 0 0 0 0 0 0 0 0 0 0 0 0 0 0 127 0" result="hardAlpha"/>
<feOffset dy="4"/>
<feGaussianBlur stdDeviation="2"/>
<feComposite in2="hardAlpha" operator="out"/>
<feColorMatrix type="matrix" values="0 0 0 0 0 0 0 0 0 0 0 0 0 0 0 0 0 0 0.25 0"/>
<feBlend mode="normal" in2="effect1_backgroundBlur_146_2425" result="effect2_dropShadow_146_2425"/>
<feColorMatrix in="SourceAlpha" type="matrix" values="0 0 0 0 0 0 0 0 0 0 0 0 0 0 0 0 0 0 127 0" result="hardAlpha"/>
<feOffset dy="4"/>
<feGaussianBlur stdDeviation="2"/>
<feComposite in2="hardAlpha" operator="out"/>
<feColorMatrix type="matrix" values="0 0 0 0 1 0 0 0 0 1 0 0 0 0 1 0 0 0 0.25 0"/>
<feBlend mode="normal" in2="effect2_dropShadow_146_2425" result="effect3_dropShadow_146_2425"/>
<feBlend mode="normal" in="SourceGraphic" in2="effect3_dropShadow_146_2425" result="shape"/>
</filter>
<filter id="filter2_bd_146_2425" x="72" y="72.8" width="61.6001" height="71.4705" filterUnits="userSpaceOnUse" color-interpolation-filters="sRGB">
<feFlood flood-opacity="0" result="BackgroundImageFix"/>
<feGaussianBlur in="BackgroundImageFix" stdDeviation="2"/>
<feComposite in2="SourceAlpha" operator="in" result="effect1_backgroundBlur_146_2425"/>
<feColorMatrix in="SourceAlpha" type="matrix" values="0 0 0 0 0 0 0 0 0 0 0 0 0 0 0 0 0 0 127 0" result="hardAlpha"/>
<feOffset dy="4"/>
<feGaussianBlur stdDeviation="2"/>
<feComposite in2="hardAlpha" operator="out"/>
<feColorMatrix type="matrix" values="0 0 0 0 1 0 0 0 0 1 0 0 0 0 1 0 0 0 0.25 0"/>
<feBlend mode="normal" in2="effect1_backgroundBlur_146_2425" result="effect2_dropShadow_146_2425"/>
<feBlend mode="normal" in="SourceGraphic" in2="effect2_dropShadow_146_2425" result="shape"/>
</filter>
<linearGradient id="paint0_linear_146_2425" x1="99.5" y1="16.4677" x2="99.5" y2="174.532" gradientUnits="userSpaceOnUse">
<stop stop-color="white"/>
<stop offset="0.472222" stop-color="#0D5176" stop-opacity="0.527778"/>
<stop offset="0.940972" stop-color="#12A6F7" stop-opacity="0.465278"/>
<stop offset="1" stop-opacity="0"/>
</linearGradient>
<linearGradient id="paint1_linear_146_2425" x1="68.44" y1="58.779" x2="122.902" y2="137.56" gradientUnits="userSpaceOnUse">
<stop stop-color="#7DD8F3"/>
<stop offset="1" stop-color="#45B0D0"/>
</linearGradient>
<linearGradient id="paint2_linear_146_2425" x1="41.842" y1="47.223" x2="156.808" y2="70.599" gradientUnits="userSpaceOnUse">
<stop stop-color="#0077D2"/>
<stop offset="1" stop-color="#0B59A2"/>
</linearGradient>
<linearGradient id="paint3_linear_146_2425" x1="76" y1="58.5" x2="154" y2="58.5" gradientUnits="userSpaceOnUse">
<stop stop-color="#7DD8F3"/>
<stop offset="1" stop-color="#45B0D0"/>
</linearGradient>
<linearGradient id="paint4_linear_146_2425" x1="48.253" y1="55.248" x2="52.096" y2="60.807" gradientUnits="userSpaceOnUse">
<stop stop-color="#75DAFF"/>
<stop offset="1" stop-color="#49BEF1"/>
</linearGradient>
<linearGradient id="paint5_linear_146_2425" x1="63.2437" y1="55.248" x2="67.0867" y2="60.807" gradientUnits="userSpaceOnUse">
<stop stop-color="#75DAFF"/>
<stop offset="1" stop-color="#49BEF1"/>
</linearGradient>
<linearGradient id="paint6_linear_146_2425" x1="102.8" y1="89.9247" x2="102.8" y2="118.607" gradientUnits="userSpaceOnUse">
<stop offset="0.011" stop-color="white"/>
<stop offset="1" stop-color="white"/>
</linearGradient>
<linearGradient id="paint7_linear_146_2425" x1="102.8" y1="98.1862" x2="102.8" y2="146.078" gradientUnits="userSpaceOnUse">
<stop stop-color="#35C1F1"/>
<stop offset="1" stop-color="#16528C"/>
</linearGradient>
<linearGradient id="paint8_linear_146_2425" x1="102.8" y1="98.1862" x2="102.8" y2="146.078" gradientUnits="userSpaceOnUse">
<stop stop-color="#35C1F1"/>
<stop offset="1" stop-color="#1C8AAF"/>
</linearGradient>
</defs>
</svg>
