<svg width="199" height="199" viewBox="0 0 199 199" fill="none" xmlns="http://www.w3.org/2000/svg">
<g filter="url(#filter0_d_63_10183)">
<path d="M172.887 8H26.1129C18.3186 8 12 14.3186 12 22.1129V168.887C12 176.681 18.3186 183 26.1129 183H172.887C180.681 183 187 176.681 187 168.887V22.1129C187 14.3186 180.681 8 172.887 8Z" fill="white"/>
<path d="M172.887 8H26.1129C18.3186 8 12 14.3186 12 22.1129V168.887C12 176.681 18.3186 183 26.1129 183H172.887C180.681 183 187 176.681 187 168.887V22.1129C187 14.3186 180.681 8 172.887 8Z" fill="url(#paint0_linear_63_10183)" fill-opacity="0.2"/>
<path d="M172.887 8H26.1129C18.3186 8 12 14.3186 12 22.1129V168.887C12 176.681 18.3186 183 26.1129 183H172.887C180.681 183 187 176.681 187 168.887V22.1129C187 14.3186 180.681 8 172.887 8Z" stroke="#D5EAF6" stroke-width="15"/>
</g>
<g filter="url(#filter1_bd_63_10183)">
<path d="M145 48.5773V143.391C145 146.472 142.315 148.968 139 148.968H61C57.685 148.968 55 146.472 55 143.391V48.5773C55 45.4958 57.685 43 61 43H139C142.315 43 145 45.4958 145 48.5773Z" fill="#50E6FF"/>
<path d="M100 104.089H69.7581C68.0887 104.089 66.7339 105.444 66.7339 107.113C66.7339 108.782 68.0887 110.137 69.7581 110.137H100C101.669 110.137 103.024 108.782 103.024 107.113C103.024 105.444 101.669 104.089 100 104.089Z" fill="#057093"/>
<path d="M100 91.9919H69.7581C68.0887 91.9919 66.7339 93.3468 66.7339 95.0161C66.7339 96.6855 68.0887 98.0403 69.7581 98.0403H100C101.669 98.0403 103.024 96.6855 103.024 95.0161C103.024 93.3468 101.669 91.9919 100 91.9919Z" fill="#057093"/>
<path d="M130.242 98.0403C131.912 98.0403 133.266 96.6864 133.266 95.0161C133.266 93.3459 131.912 91.9919 130.242 91.9919C128.572 91.9919 127.218 93.3459 127.218 95.0161C127.218 96.6864 128.572 98.0403 130.242 98.0403Z" fill="#057093"/>
<path d="M100 79.8951H69.7581C68.0887 79.8951 66.7339 81.25 66.7339 82.9193C66.7339 84.5887 68.0887 85.9435 69.7581 85.9435H100C101.669 85.9435 103.024 84.5887 103.024 82.9193C103.024 81.25 101.669 79.8951 100 79.8951Z" fill="#057093"/>
<path d="M130.242 85.9435C131.912 85.9435 133.266 84.5896 133.266 82.9193C133.266 81.2491 131.912 79.8951 130.242 79.8951C128.572 79.8951 127.218 81.2491 127.218 82.9193C127.218 84.5896 128.572 85.9435 130.242 85.9435Z" fill="#057093"/>
<path d="M130.242 73.8467C131.912 73.8467 133.266 72.4927 133.266 70.8225C133.266 69.1523 131.912 67.7983 130.242 67.7983C128.572 67.7983 127.218 69.1523 127.218 70.8225C127.218 72.4927 128.572 73.8467 130.242 73.8467Z" fill="#057093"/>
<path d="M130.605 62.1128C132.275 62.1128 133.629 60.7589 133.629 59.0886C133.629 57.4184 132.275 56.0645 130.605 56.0645C128.935 56.0645 127.581 57.4184 127.581 59.0886C127.581 60.7589 128.935 62.1128 130.605 62.1128Z" fill="#057093"/>
<path d="M130.242 110.137C131.912 110.137 133.266 108.783 133.266 107.113C133.266 105.443 131.912 104.089 130.242 104.089C128.572 104.089 127.218 105.443 127.218 107.113C127.218 108.783 128.572 110.137 130.242 110.137Z" fill="#057093"/>
<path d="M100 116.185H69.7581C68.0887 116.185 66.7339 117.54 66.7339 119.21C66.7339 120.879 68.0887 122.234 69.7581 122.234H100C101.669 122.234 103.024 120.879 103.024 119.21C103.024 117.54 101.669 116.185 100 116.185Z" fill="#057093"/>
<path d="M130.242 122.234C131.912 122.234 133.266 120.88 133.266 119.21C133.266 117.539 131.912 116.185 130.242 116.185C128.572 116.185 127.218 117.539 127.218 119.21C127.218 120.88 128.572 122.234 130.242 122.234Z" fill="#057093"/>
<path d="M100 128.282H69.7581C68.0887 128.282 66.7339 129.637 66.7339 131.306C66.7339 132.976 68.0887 134.331 69.7581 134.331H100C101.669 134.331 103.024 132.976 103.024 131.306C103.024 129.637 101.669 128.282 100 128.282Z" fill="#057093"/>
<path d="M130.242 134.331C131.912 134.331 133.266 132.977 133.266 131.306C133.266 129.636 131.912 128.282 130.242 128.282C128.572 128.282 127.218 129.636 127.218 131.306C127.218 132.977 128.572 134.331 130.242 134.331Z" fill="#057093"/>
<path d="M115.242 137.355C113.239 137.355 111.613 135.783 111.613 133.847V56.6693C111.613 54.7329 113.239 53.1613 115.242 53.1613C117.245 53.1613 118.871 54.7329 118.871 56.6693V133.847C118.871 135.783 117.245 137.355 115.242 137.355Z" fill="#35C1F1"/>
<path d="M90.1109 59.6028C87.3051 59.6028 85.0303 61.8776 85.0303 64.6834V74.2096C85.0303 74.9114 85.5987 75.4798 86.3004 75.4798H93.9214C94.6232 75.4798 95.1916 74.9114 95.1916 74.2096V64.6834C95.1916 61.8776 92.9167 59.6028 90.1109 59.6028Z" fill="url(#paint1_linear_63_10183)"/>
<path d="M81.8548 57.6975C79.049 57.6975 76.7742 59.9724 76.7742 62.7782V74.2096C76.7742 74.9114 77.3426 75.4798 78.0443 75.4798H85.6653C86.3671 75.4798 86.9355 74.9114 86.9355 74.2096V62.7782C86.9355 59.9724 84.6606 57.6975 81.8548 57.6975Z" fill="url(#paint2_linear_63_10183)"/>
<path d="M73.5987 59.6028C70.7929 59.6028 68.5181 61.8776 68.5181 64.6834V74.2096C68.5181 74.9114 69.0865 75.4798 69.7882 75.4798H77.4092C78.111 75.4798 78.6794 74.9114 78.6794 74.2096V64.6834C78.6794 61.8776 76.4045 59.6028 73.5987 59.6028Z" fill="url(#paint3_linear_63_10183)"/>
<path d="M90.1109 58.3326C91.5139 58.3326 92.6512 57.1953 92.6512 55.7923C92.6512 54.3893 91.5139 53.252 90.1109 53.252C88.7079 53.252 87.5706 54.3893 87.5706 55.7923C87.5706 57.1953 88.7079 58.3326 90.1109 58.3326Z" fill="url(#paint4_linear_63_10183)"/>
<path d="M73.5989 58.3326C75.0019 58.3326 76.1392 57.1953 76.1392 55.7923C76.1392 54.3893 75.0019 53.252 73.5989 53.252C72.1959 53.252 71.0586 54.3893 71.0586 55.7923C71.0586 57.1953 72.1959 58.3326 73.5989 58.3326Z" fill="url(#paint5_linear_63_10183)"/>
<path d="M81.8548 56.4274C83.2578 56.4274 84.3951 55.2901 84.3951 53.8871C84.3951 52.4841 83.2578 51.3468 81.8548 51.3468C80.4518 51.3468 79.3145 52.4841 79.3145 53.8871C79.3145 55.2901 80.4518 56.4274 81.8548 56.4274Z" fill="url(#paint6_linear_63_10183)"/>
<path d="M81.8548 66.5887C83.2578 66.5887 84.3951 65.4514 84.3951 64.0484C84.3951 62.6454 83.2578 61.5081 81.8548 61.5081C80.4518 61.5081 79.3145 62.6454 79.3145 64.0484C79.3145 65.4514 80.4518 66.5887 81.8548 66.5887Z" fill="url(#paint7_linear_63_10183)"/>
<path d="M81.5163 67.8697C78.816 68.045 76.7742 70.4075 76.7742 73.1135V74.8448C76.7742 75.1953 77.0587 75.4799 77.4093 75.4799H86.3004C86.6509 75.4799 86.9355 75.1953 86.9355 74.8448V72.9395C86.9355 70.0213 84.4758 67.6785 81.5163 67.8697Z" fill="url(#paint8_linear_63_10183)"/>
</g>
<defs>
<filter id="filter0_d_63_10183" x="0.5" y="0.5" width="198" height="198" filterUnits="userSpaceOnUse" color-interpolation-filters="sRGB">
<feFlood flood-opacity="0" result="BackgroundImageFix"/>
<feColorMatrix in="SourceAlpha" type="matrix" values="0 0 0 0 0 0 0 0 0 0 0 0 0 0 0 0 0 0 127 0" result="hardAlpha"/>
<feOffset dy="4"/>
<feGaussianBlur stdDeviation="2"/>
<feComposite in2="hardAlpha" operator="out"/>
<feColorMatrix type="matrix" values="0 0 0 0 0.8375 0 0 0 0 0.732812 0 0 0 0 0.732812 0 0 0 0.25 0"/>
<feBlend mode="normal" in2="BackgroundImageFix" result="effect1_dropShadow_63_10183"/>
<feBlend mode="normal" in="SourceGraphic" in2="effect1_dropShadow_63_10183" result="shape"/>
</filter>
<filter id="filter1_bd_63_10183" x="51" y="39" width="98" height="117.968" filterUnits="userSpaceOnUse" color-interpolation-filters="sRGB">
<feFlood flood-opacity="0" result="BackgroundImageFix"/>
<feGaussianBlur in="BackgroundImageFix" stdDeviation="2"/>
<feComposite in2="SourceAlpha" operator="in" result="effect1_backgroundBlur_63_10183"/>
<feColorMatrix in="SourceAlpha" type="matrix" values="0 0 0 0 0 0 0 0 0 0 0 0 0 0 0 0 0 0 127 0" result="hardAlpha"/>
<feOffset dy="4"/>
<feGaussianBlur stdDeviation="2"/>
<feComposite in2="hardAlpha" operator="out"/>
<feColorMatrix type="matrix" values="0 0 0 0 1 0 0 0 0 1 0 0 0 0 1 0 0 0 0.37 0"/>
<feBlend mode="normal" in2="effect1_backgroundBlur_63_10183" result="effect2_dropShadow_63_10183"/>
<feBlend mode="normal" in="SourceGraphic" in2="effect2_dropShadow_63_10183" result="shape"/>
</filter>
<linearGradient id="paint0_linear_63_10183" x1="99.5" y1="16.4677" x2="99.5" y2="174.532" gradientUnits="userSpaceOnUse">
<stop stop-color="white"/>
<stop offset="0.472222" stop-color="#0D5176" stop-opacity="0.527778"/>
<stop offset="0.940972" stop-color="#12A6F7" stop-opacity="0.465278"/>
<stop offset="1" stop-opacity="0"/>
</linearGradient>
<linearGradient id="paint1_linear_63_10183" x1="87.0238" y1="55.9238" x2="91.1321" y2="73.6266" gradientUnits="userSpaceOnUse">
<stop stop-color="#0D61A9"/>
<stop offset="1" stop-color="#16528C"/>
</linearGradient>
<linearGradient id="paint2_linear_63_10183" x1="79.4675" y1="57.9877" x2="83.5429" y2="75.5465" gradientUnits="userSpaceOnUse">
<stop stop-color="#0D61A9"/>
<stop offset="1" stop-color="#16528C"/>
</linearGradient>
<linearGradient id="paint3_linear_63_10183" x1="71.4236" y1="59.8543" x2="75.5319" y2="77.5571" gradientUnits="userSpaceOnUse">
<stop stop-color="#0D61A9"/>
<stop offset="1" stop-color="#16528C"/>
</linearGradient>
<linearGradient id="paint4_linear_63_10183" x1="88.3873" y1="54.0687" x2="91.9317" y2="57.6131" gradientUnits="userSpaceOnUse">
<stop stop-color="#0D61A9"/>
<stop offset="1" stop-color="#16528C"/>
</linearGradient>
<linearGradient id="paint5_linear_63_10183" x1="71.8753" y1="54.0687" x2="75.4197" y2="57.6131" gradientUnits="userSpaceOnUse">
<stop stop-color="#0D61A9"/>
<stop offset="1" stop-color="#16528C"/>
</linearGradient>
<linearGradient id="paint6_linear_63_10183" x1="80.1312" y1="52.1635" x2="83.6756" y2="55.7079" gradientUnits="userSpaceOnUse">
<stop stop-color="#0D61A9"/>
<stop offset="1" stop-color="#16528C"/>
</linearGradient>
<linearGradient id="paint7_linear_63_10183" x1="80.1312" y1="62.3248" x2="83.6756" y2="65.8692" gradientUnits="userSpaceOnUse">
<stop stop-color="#32BDEF"/>
<stop offset="1" stop-color="#1EA2E4"/>
</linearGradient>
<linearGradient id="paint8_linear_63_10183" x1="79.7044" y1="68.2406" x2="82.7763" y2="75.6824" gradientUnits="userSpaceOnUse">
<stop stop-color="#32BDEF"/>
<stop offset="1" stop-color="#1EA2E4"/>
</linearGradient>
</defs>
</svg>
