<svg width="199" height="199" viewBox="0 0 199 199" fill="none" xmlns="http://www.w3.org/2000/svg">
<g filter="url(#filter0_d_60_8923)">
<path d="M172.887 8H26.1129C18.3186 8 12 14.3186 12 22.1129V168.887C12 176.681 18.3186 183 26.1129 183H172.887C180.681 183 187 176.681 187 168.887V22.1129C187 14.3186 180.681 8 172.887 8Z" fill="white"/>
<path d="M172.887 8H26.1129C18.3186 8 12 14.3186 12 22.1129V168.887C12 176.681 18.3186 183 26.1129 183H172.887C180.681 183 187 176.681 187 168.887V22.1129C187 14.3186 180.681 8 172.887 8Z" fill="url(#paint0_linear_60_8923)" fill-opacity="0.2"/>
<path d="M172.887 8H26.1129C18.3186 8 12 14.3186 12 22.1129V168.887C12 176.681 18.3186 183 26.1129 183H172.887C180.681 183 187 176.681 187 168.887V22.1129C187 14.3186 180.681 8 172.887 8Z" stroke="#D5EAF6" stroke-width="15"/>
</g>
<g filter="url(#filter1_bdd_60_8923)">
<path d="M86.25 43.5C67.61 43.5 52.5 58.61 52.5 77.25C52.5 82.3975 53.685 87.255 55.7475 91.62C55.715 91.695 55.675 91.755 55.6475 91.84L47.73 109.855C46.75 112.085 49.1075 114.312 51.2775 113.207L67.2 105.1C72.6225 108.817 79.1775 111 86.25 111C104.89 111 120 95.89 120 77.25C120 58.61 104.89 43.5 86.25 43.5Z" fill="url(#paint1_linear_60_8923)"/>
<path d="M152.272 145.322L143.13 124.522C145.917 119.387 147.5 113.502 147.5 107.25C147.5 87.23 131.27 71 111.25 71C91.23 71 75 87.23 75 107.25C75 127.27 91.23 143.5 111.25 143.5C117.783 143.5 123.895 141.747 129.188 138.725L148.725 148.672C150.895 149.777 153.253 147.55 152.272 145.322Z" fill="url(#paint2_linear_60_8923)"/>
<path d="M107.915 115.372C107.75 114.942 107.395 113.667 107.395 112.405C107.395 105.22 114.793 104.945 114.793 99.6149C114.793 96.2599 111.478 96.0524 110.885 96.0524C107.12 96.0524 104.18 98.2049 102.945 99.2924V91.8449C104.215 91.0874 107.12 89.5699 111.753 89.5699C122.478 89.5699 122.613 96.9424 122.613 98.5249C122.613 107.035 113.83 107.667 113.83 113.12C113.83 114.257 114.243 115.09 114.423 115.37H107.915V115.372ZM111.525 127.07C109.483 127.07 107.325 125.795 107.325 123.322C107.325 120.847 109.568 119.62 111.525 119.62C113.483 119.62 115.658 120.717 115.658 123.322C115.658 125.927 113.568 127.07 111.525 127.07Z" fill="white"/>
</g>
<defs>
<filter id="filter0_d_60_8923" x="0.5" y="0.5" width="198" height="198" filterUnits="userSpaceOnUse" color-interpolation-filters="sRGB">
<feFlood flood-opacity="0" result="BackgroundImageFix"/>
<feColorMatrix in="SourceAlpha" type="matrix" values="0 0 0 0 0 0 0 0 0 0 0 0 0 0 0 0 0 0 127 0" result="hardAlpha"/>
<feOffset dy="4"/>
<feGaussianBlur stdDeviation="2"/>
<feComposite in2="hardAlpha" operator="out"/>
<feColorMatrix type="matrix" values="0 0 0 0 0.8375 0 0 0 0 0.732812 0 0 0 0 0.732812 0 0 0 0.25 0"/>
<feBlend mode="normal" in2="BackgroundImageFix" result="effect1_dropShadow_60_8923"/>
<feBlend mode="normal" in="SourceGraphic" in2="effect1_dropShadow_60_8923" result="shape"/>
</filter>
<filter id="filter1_bdd_60_8923" x="36" y="32" width="128" height="132" filterUnits="userSpaceOnUse" color-interpolation-filters="sRGB">
<feFlood flood-opacity="0" result="BackgroundImageFix"/>
<feGaussianBlur in="BackgroundImageFix" stdDeviation="2"/>
<feComposite in2="SourceAlpha" operator="in" result="effect1_backgroundBlur_60_8923"/>
<feColorMatrix in="SourceAlpha" type="matrix" values="0 0 0 0 0 0 0 0 0 0 0 0 0 0 0 0 0 0 127 0" result="hardAlpha"/>
<feOffset dy="4"/>
<feGaussianBlur stdDeviation="2"/>
<feComposite in2="hardAlpha" operator="out"/>
<feColorMatrix type="matrix" values="0 0 0 0 1 0 0 0 0 1 0 0 0 0 1 0 0 0 0.25 0"/>
<feBlend mode="normal" in2="effect1_backgroundBlur_60_8923" result="effect2_dropShadow_60_8923"/>
<feColorMatrix in="SourceAlpha" type="matrix" values="0 0 0 0 0 0 0 0 0 0 0 0 0 0 0 0 0 0 127 0" result="hardAlpha"/>
<feOffset dy="4"/>
<feGaussianBlur stdDeviation="2"/>
<feComposite in2="hardAlpha" operator="out"/>
<feColorMatrix type="matrix" values="0 0 0 0 0 0 0 0 0 0 0 0 0 0 0 0 0 0 0.25 0"/>
<feBlend mode="normal" in2="effect2_dropShadow_60_8923" result="effect3_dropShadow_60_8923"/>
<feBlend mode="normal" in="SourceGraphic" in2="effect3_dropShadow_60_8923" result="shape"/>
</filter>
<linearGradient id="paint0_linear_60_8923" x1="99.5" y1="16.4677" x2="99.5" y2="174.532" gradientUnits="userSpaceOnUse">
<stop stop-color="white"/>
<stop offset="0.472222" stop-color="#0D5176" stop-opacity="0.527778"/>
<stop offset="0.940972" stop-color="#12A6F7" stop-opacity="0.465278"/>
<stop offset="1" stop-opacity="0"/>
</linearGradient>
<linearGradient id="paint1_linear_60_8923" x1="64.9925" y1="50.835" x2="94.45" y2="113.235" gradientUnits="userSpaceOnUse">
<stop stop-color="#0176D0"/>
<stop offset="1" stop-color="#22A5E2"/>
</linearGradient>
<linearGradient id="paint2_linear_60_8923" x1="92.76" y1="76.065" x2="137.617" y2="151.72" gradientUnits="userSpaceOnUse">
<stop stop-color="#0176D0"/>
<stop offset="1" stop-color="#16538C"/>
</linearGradient>
</defs>
</svg>
