<svg width="191" height="191" viewBox="0 0 191 191" fill="none" xmlns="http://www.w3.org/2000/svg">
<path d="M168.887 8H22.1129C14.3186 8 8 14.3186 8 22.1129V168.887C8 176.681 14.3186 183 22.1129 183H168.887C176.681 183 183 176.681 183 168.887V22.1129C183 14.3186 176.681 8 168.887 8Z" fill="white"/>
<path d="M168.887 8H22.1129C14.3186 8 8 14.3186 8 22.1129V168.887C8 176.681 14.3186 183 22.1129 183H168.887C176.681 183 183 176.681 183 168.887V22.1129C183 14.3186 176.681 8 168.887 8Z" fill="url(#paint0_linear_68_10984)" fill-opacity="0.2"/>
<path d="M168.887 8H22.1129C14.3186 8 8 14.3186 8 22.1129V168.887C8 176.681 14.3186 183 22.1129 183H168.887C176.681 183 183 176.681 183 168.887V22.1129C183 14.3186 176.681 8 168.887 8Z" stroke="#D5EAF6" stroke-width="15"/>
<path d="M157 134.316H113.098V146.105C113.098 149.362 115.717 152 118.951 152H151.146C154.38 152 157 149.362 157 146.105V134.316Z" fill="#184F85"/>
<path d="M157 116.631H113.098V137.263H157V116.631Z" fill="#0078D4"/>
<path d="M157 96.0001H113.098V119.579H157V96.0001Z" fill="#1B9DE2"/>
<path d="M157 84.2106H113.098V101.895H157V84.2106Z" fill="#35C1F1"/>
<path d="M157 84.2105H113.098V81.2631C113.098 78.0063 115.717 75.3684 118.951 75.3684H151.146C154.38 75.3684 157 78.0063 157 81.2631V84.2105Z" fill="#50E6FF"/>
<path d="M126.268 81.263C127.077 81.263 127.732 80.6033 127.732 79.7894C127.732 78.9755 127.077 78.3157 126.268 78.3157C125.46 78.3157 124.805 78.9755 124.805 79.7894C124.805 80.6033 125.46 81.263 126.268 81.263Z" fill="#0C63AD"/>
<path d="M140.902 78.3157C140.525 78.3157 132.5 78.3157 132.122 78.3157C131.314 78.3157 130.659 78.9759 130.659 79.7894C130.659 80.6028 131.314 81.263 132.122 81.263C132.5 81.263 140.525 81.263 140.902 81.263C141.71 81.263 142.366 80.6028 142.366 79.7894C142.366 78.9759 141.71 78.3157 140.902 78.3157Z" fill="#0C63AD"/>
<path d="M92.6098 125.474C94.2263 125.474 95.5366 124.154 95.5366 122.526C95.5366 120.899 94.2263 119.579 92.6098 119.579C90.9934 119.579 89.683 120.899 89.683 122.526C89.683 124.154 90.9934 125.474 92.6098 125.474Z" fill="#ABB4BE"/>
<path d="M104.317 125.474C105.933 125.474 107.244 124.154 107.244 122.526C107.244 120.899 105.933 119.579 104.317 119.579C102.701 119.579 101.39 120.899 101.39 122.526C101.39 124.154 102.701 125.474 104.317 125.474Z" fill="#ABB4BE"/>
<path d="M69.1951 113.684C70.8115 113.684 72.1219 112.365 72.1219 110.737C72.1219 109.109 70.8115 107.79 69.1951 107.79C67.5786 107.79 66.2682 109.109 66.2682 110.737C66.2682 112.365 67.5786 113.684 69.1951 113.684Z" fill="#ABB4BE"/>
<path d="M69.1951 101.895C70.8115 101.895 72.1219 100.575 72.1219 98.9475C72.1219 97.3197 70.8115 96.0001 69.1951 96.0001C67.5786 96.0001 66.2682 97.3197 66.2682 98.9475C66.2682 100.575 67.5786 101.895 69.1951 101.895Z" fill="#ABB4BE"/>
<path d="M80.9024 125.474C82.5189 125.474 83.8292 124.154 83.8292 122.526C83.8292 120.899 82.5189 119.579 80.9024 119.579C79.286 119.579 77.9756 120.899 77.9756 122.526C77.9756 124.154 79.286 125.474 80.9024 125.474Z" fill="#ABB4BE"/>
<path d="M69.1951 125.474C70.8115 125.474 72.1219 124.154 72.1219 122.526C72.1219 120.899 70.8115 119.579 69.1951 119.579C67.5786 119.579 66.2682 120.899 66.2682 122.526C66.2682 124.154 67.5786 125.474 69.1951 125.474Z" fill="#ABB4BE"/>
<path d="M97.2725 40H41.1178C38.8528 40 37 41.8658 37 44.1467V49.7263V87.727C37 90.0079 38.8528 91.8737 41.1178 91.8737H97.2725C99.5374 91.8737 101.39 90.0079 101.39 87.727V49.7263V44.1467C101.39 41.8658 99.5374 40 97.2725 40Z" fill="url(#paint1_linear_68_10984)"/>
<path d="M79.7069 88.6325H95.7095C97.0697 88.6325 98.1724 87.5221 98.1724 86.1523V70.039C98.1724 68.6693 97.0697 67.5588 95.7095 67.5588H79.7069C78.3466 67.5588 77.244 68.6693 77.244 70.039V86.1539C77.244 87.5221 78.3466 88.6325 79.7069 88.6325Z" fill="url(#paint2_linear_68_10984)"/>
<path d="M79.7069 64.3168H95.7095C97.0697 64.3168 98.1724 63.2064 98.1724 61.8366V45.7234C98.1724 44.3536 97.0697 43.2432 95.7095 43.2432H79.7069C78.3466 43.2432 77.244 44.3536 77.244 45.7234V61.8383C77.244 63.2064 78.3466 64.3168 79.7069 64.3168Z" fill="url(#paint3_linear_68_10984)"/>
<path d="M68.3898 57.8313H44.2434C43.7992 57.8313 43.4386 57.4682 43.4386 57.0208V55.3998C43.4386 54.9523 43.7992 54.5892 44.2434 54.5892H68.3898C68.8341 54.5892 69.1947 54.9523 69.1947 55.3998V57.0208C69.1947 57.4682 68.8341 57.8313 68.3898 57.8313Z" fill="#0D86AD"/>
<path d="M68.3898 57.8313H44.2434C43.7992 57.8313 43.4386 57.4682 43.4386 57.0208V55.3998C43.4386 54.9523 43.7992 54.5892 44.2434 54.5892H68.3898C68.8341 54.5892 69.1947 54.9523 69.1947 55.3998V57.0208C69.1947 57.4682 68.8341 57.8313 68.3898 57.8313Z" fill="#0D86AD"/>
<path d="M68.3898 64.3149H44.2434C43.7992 64.3149 43.4386 63.9517 43.4386 63.5043V61.8833C43.4386 61.4359 43.7992 61.0728 44.2434 61.0728H68.3898C68.8341 61.0728 69.1947 61.4359 69.1947 61.8833V63.5043C69.1947 63.9517 68.8341 64.3149 68.3898 64.3149Z" fill="#0D86AD"/>
<path d="M68.3898 70.8009H44.2434C43.7992 70.8009 43.4386 70.4378 43.4386 69.9904V68.3694C43.4386 67.922 43.7992 67.5588 44.2434 67.5588H68.3898C68.8341 67.5588 69.1947 67.922 69.1947 68.3694V69.9904C69.1947 70.4378 68.8341 70.8009 68.3898 70.8009Z" fill="#0D86AD"/>
<path d="M63.5605 77.2845H44.2434C43.7992 77.2845 43.4386 76.9213 43.4386 76.4739V74.8529C43.4386 74.4055 43.7992 74.0424 44.2434 74.0424H63.5605C64.0048 74.0424 64.3654 74.4055 64.3654 74.8529V76.4739C64.3654 76.9213 64.0048 77.2845 63.5605 77.2845Z" fill="#0D86AD"/>
<path d="M94.9512 71.6105V85.3894H90.1219V71.6105C90.1219 71.163 90.4825 70.7999 90.9268 70.7999H94.1463C94.5906 70.7999 94.9512 71.163 94.9512 71.6105Z" fill="#35C1F1"/>
<path d="M90.1219 74.0424V85.3897H85.2927V74.8529C85.2927 74.4055 85.6532 74.0424 86.0975 74.0424H90.1219Z" fill="#199BE2"/>
<path d="M85.2926 77.2832V85.3885H80.4634V78.0937C80.4634 77.6463 80.824 77.2832 81.2683 77.2832H85.2926Z" fill="#0078D4"/>
<path d="M80.4634 53.7792C80.4634 57.8075 83.707 61.0739 87.7073 61.0739C91.7075 61.0739 94.9512 57.8075 94.9512 53.7792H87.7073H80.4634Z" fill="#D35230"/>
<path d="M87.7068 46.484V53.7787H94.9508C94.9508 49.7504 91.7071 46.484 87.7068 46.484Z" fill="#FF8F6B"/>
<path d="M87.7073 46.484C83.707 46.484 80.4634 49.7504 80.4634 53.7787H87.7073V46.484Z" fill="#ED6C47"/>
<defs>
<linearGradient id="paint0_linear_68_10984" x1="95.5" y1="16.4677" x2="95.5" y2="174.532" gradientUnits="userSpaceOnUse">
<stop stop-color="white"/>
<stop offset="0.472222" stop-color="#0D5176" stop-opacity="0.527778"/>
<stop offset="0.940972" stop-color="#12A6F7" stop-opacity="0.465278"/>
<stop offset="1" stop-opacity="0"/>
</linearGradient>
<linearGradient id="paint1_linear_68_10984" x1="22.0599" y1="39.5185" x2="128.927" y2="98.5835" gradientUnits="userSpaceOnUse">
<stop stop-color="#33D7F0"/>
<stop offset="0.187" stop-color="#2FD1ED"/>
<stop offset="0.445" stop-color="#24BFE3"/>
<stop offset="0.744" stop-color="#13A2D4"/>
<stop offset="1" stop-color="#0083C4"/>
</linearGradient>
<linearGradient id="paint2_linear_68_10984" x1="86.4196" y1="70.7377" x2="91.491" y2="99.3096" gradientUnits="userSpaceOnUse">
<stop stop-color="#FCFCFC"/>
<stop offset="1" stop-color="#C3C9CD"/>
</linearGradient>
<linearGradient id="paint3_linear_68_10984" x1="86.4196" y1="46.422" x2="91.491" y2="74.9939" gradientUnits="userSpaceOnUse">
<stop stop-color="#FCFCFC"/>
<stop offset="1" stop-color="#C3C9CD"/>
</linearGradient>
</defs>
</svg>
