<svg width="14" height="14" viewBox="0 0 14 14" fill="none" xmlns="http://www.w3.org/2000/svg">
<circle cx="7" cy="7" r="7" fill="url(#paint0_radial_184_1107)"/>
<circle cx="7" cy="7" r="7" fill="#FEC52B"/>
<path d="M6.94222 11.28C6.68523 11.28 6.42823 11.1952 6.257 11.0257C6.08547 10.8559 6 10.6864 6 10.432C6 10.1776 6.08547 10.0081 6.257 9.83827C6.42823 9.66877 6.68523 9.58388 6.94222 9.58388C7.19922 9.58388 7.45622 9.66877 7.62745 9.83827C7.79897 10.0081 7.88444 10.1776 7.88444 10.432C7.88444 10.6864 7.79897 10.8559 7.62745 11.0257C7.45622 11.1952 7.19922 11.28 6.94222 11.28ZM7.88444 3.13934L7.71321 8.48168C7.71321 8.65118 7.54198 8.73608 7.45622 8.73608H6.51399C6.34247 8.73608 6.257 8.56629 6.257 8.48168L6.08547 3.13934C6.08547 2.96955 6.257 2.80005 6.34247 2.80005H7.71321C7.79897 2.80005 7.88444 2.96955 7.88444 3.13934Z" fill="url(#paint1_radial_184_1107)"/>
<defs>
<radialGradient id="paint0_radial_184_1107" cx="0" cy="0" r="1" gradientUnits="userSpaceOnUse" gradientTransform="translate(7 7) rotate(90) scale(7)">
<stop stop-color="#FFDA1C"/>
<stop offset="0.899305" stop-color="#DDD9C6" stop-opacity="0.100695"/>
<stop offset="1" stop-color="#D9D9D9" stop-opacity="0"/>
</radialGradient>
<radialGradient id="paint1_radial_184_1107" cx="0" cy="0" r="1" gradientUnits="userSpaceOnUse" gradientTransform="translate(4.70562 2.70847) scale(8.58453 8.77219)">
<stop stop-color="#4B4B4B"/>
<stop offset="0.531" stop-color="#393939"/>
<stop offset="1" stop-color="#252525"/>
</radialGradient>
</defs>
</svg>
