<svg width="208" height="208" viewBox="0 0 208 208" fill="none" xmlns="http://www.w3.org/2000/svg">
<g filter="url(#filter0_i_3_2)">
<mask id="mask0_3_2" style="mask-type:alpha" maskUnits="userSpaceOnUse" x="34" y="41" width="140" height="118">
<path d="M174 41.0522H34V158.947H174V41.0522Z" fill="white"/>
</mask>
<g mask="url(#mask0_3_2)">
<g filter="url(#filter1_i_3_2)">
<path d="M134.813 130.579H119.27C119.226 121.672 115.657 113.144 109.344 106.862C103.03 100.579 94.4856 97.0516 85.5786 97.0516C76.6716 97.0516 68.1271 100.579 61.8135 106.862C55.5 113.144 51.9314 121.672 51.8881 130.579H36.344C36.3412 125.902 37.0204 121.25 38.3602 116.77C41.3928 106.602 47.6263 97.6847 56.1338 91.3442C64.6413 85.0037 74.9683 81.5787 85.5786 81.5787C96.1889 81.5787 106.516 85.0037 115.024 91.3442C123.531 97.6847 129.764 106.602 132.797 116.77C134.136 121.25 134.816 125.902 134.813 130.579Z" fill="#50E6FF"/>
<path d="M137.158 121.435V137.847C137.154 139.089 136.659 140.28 135.78 141.158C134.902 142.037 133.711 142.532 132.468 142.536H124.263V116.746H132.468C132.579 116.742 132.689 116.749 132.797 116.77C133.979 116.852 135.086 117.379 135.895 118.245C136.705 119.11 137.156 120.25 137.158 121.435Z" fill="#42A4ED"/>
<path d="M46.8948 116.746V142.536H38.689C37.4465 142.532 36.256 142.037 35.3774 141.158C34.4988 140.28 34.0037 139.089 34 137.847V121.435C34.0023 120.25 34.4534 119.11 35.2625 118.245C36.0716 117.379 37.1781 116.852 38.3602 116.77C38.4684 116.749 38.579 116.742 38.689 116.746H46.8948Z" fill="#42A4ED"/>
<path d="M130.125 130.579V130.813C130.13 134.774 129.602 138.717 128.554 142.536H124.263L124.264 130.579H119.27C119.226 121.672 115.657 113.144 109.344 106.862C103.03 100.579 94.4856 97.0516 85.5786 97.0516C76.6716 97.0516 68.1271 100.579 61.8135 106.862C55.5 113.144 51.9314 121.672 51.8881 130.579H46.8948V142.536H42.6044C41.5563 138.717 41.028 134.774 41.0335 130.813V130.579C41.0492 125.874 41.8251 121.203 43.3312 116.746C46.2805 107.873 51.9487 100.153 59.5319 94.6827C67.1153 89.212 76.2285 86.2678 85.5792 86.2678C94.9298 86.2678 104.043 89.212 111.627 94.6827C119.209 100.153 124.878 107.873 127.827 116.746C129.334 121.203 130.109 125.874 130.125 130.579Z" fill="url(#paint0_radial_3_2)"/>
<path d="M85.5786 88.6123C74.3862 88.6123 63.6523 93.0586 55.738 100.973C47.8238 108.887 43.3776 119.621 43.3775 130.813H127.78C127.78 119.621 123.334 108.887 115.419 100.973C107.505 93.0586 96.771 88.6123 85.5786 88.6123Z" fill="url(#paint1_linear_3_2)"/>
<path d="M102.224 156.368H68.9321C65.884 156.369 62.8657 155.769 60.0496 154.602C57.2335 153.436 54.6747 151.726 52.5194 149.57C50.3641 147.415 48.6543 144.856 47.488 142.04C46.3216 139.224 45.7213 136.206 45.7215 133.158C45.7213 130.11 46.3216 127.091 47.488 124.275C48.6543 121.459 50.3641 118.9 52.5194 116.745C54.6747 114.59 57.2335 112.88 60.0496 111.714C62.8657 110.547 65.884 109.947 68.9321 109.947H102.224C105.272 109.947 108.29 110.547 111.107 111.714C113.923 112.88 116.481 114.59 118.637 116.745C120.792 118.9 122.502 121.459 123.668 124.275C124.835 127.091 125.435 130.11 125.435 133.158C125.435 136.206 124.835 139.224 123.668 142.04C122.502 144.856 120.792 147.415 118.637 149.57C116.481 151.726 113.923 153.436 111.107 154.602C108.29 155.769 105.272 156.369 102.224 156.368Z" fill="#617B91"/>
<path d="M102.107 158.948H69.0498C62.2434 158.94 55.718 156.232 50.9051 151.42C46.0923 146.607 43.3851 140.081 43.3775 133.275V133.041C43.3851 126.234 46.0923 119.709 50.9051 114.896C55.718 110.083 62.2434 107.376 69.0498 107.368H102.107C108.914 107.376 115.439 110.083 120.252 114.896C125.065 119.709 127.773 126.234 127.78 133.041V133.277C127.772 140.083 125.064 146.608 120.251 151.421C115.439 156.233 108.913 158.94 102.107 158.948ZM69.0498 112.057C63.4867 112.064 58.1531 114.276 54.2194 118.21C50.2856 122.144 48.0728 127.477 48.0665 133.041V133.277C48.0733 138.84 50.2863 144.173 54.2201 148.106C58.1538 152.04 63.487 154.253 69.0498 154.258H102.107C107.671 154.253 113.005 152.04 116.938 148.106C120.872 144.172 123.085 138.838 123.091 133.275V133.041C123.085 127.477 120.872 122.144 116.938 118.21C113.004 114.276 107.671 112.064 102.107 112.057H69.0498Z" fill="url(#paint2_linear_3_2)"/>
<path d="M78.5421 135.502C78.009 135.501 77.4921 135.319 77.0763 134.985C76.6607 134.652 76.3709 134.186 76.2548 133.666C75.8635 132.11 74.9412 130.739 73.6471 129.79C72.353 128.841 70.7683 128.374 69.1664 128.469C67.5645 128.374 65.9798 128.841 64.6857 129.79C63.3915 130.739 62.4693 132.11 62.0779 133.666C61.9417 134.272 61.5707 134.799 61.0465 135.131C60.5223 135.464 59.8876 135.575 59.2815 135.441C58.6755 135.306 58.1475 134.937 57.8133 134.414C57.4791 133.89 57.366 133.256 57.4988 132.65C58.1182 130.05 59.6193 127.746 61.7466 126.128C63.8739 124.511 66.496 123.681 69.1664 123.78C71.8368 123.681 74.4589 124.511 76.5862 126.128C78.7135 127.746 80.2147 130.05 80.834 132.65C80.9682 133.257 80.856 133.892 80.522 134.417C80.1881 134.941 79.6596 135.312 79.0527 135.447C78.885 135.484 78.7137 135.502 78.5421 135.502Z" fill="#50E6FF"/>
<path d="M111.366 135.502C110.833 135.501 110.316 135.319 109.9 134.985C109.484 134.652 109.195 134.186 109.078 133.666C108.687 132.11 107.765 130.739 106.471 129.79C105.177 128.841 103.592 128.374 101.99 128.469C100.388 128.374 98.8034 128.841 97.5093 129.79C96.2151 130.739 95.2929 132.11 94.9015 133.666C94.7652 134.272 94.3943 134.799 93.8701 135.131C93.346 135.464 92.7112 135.575 92.1052 135.441C91.4991 135.306 90.9711 134.937 90.6369 134.414C90.3027 133.89 90.1896 133.256 90.3224 132.65C90.9418 130.05 92.4428 127.746 94.5702 126.128C96.6975 124.511 99.3196 123.681 101.99 123.78C104.66 123.681 107.283 124.511 109.41 126.128C111.538 127.746 113.038 130.05 113.657 132.65C113.791 133.257 113.68 133.892 113.345 134.417C113.012 134.941 112.484 135.312 111.876 135.447C111.709 135.484 111.538 135.502 111.366 135.502Z" fill="#50E6FF"/>
<path d="M169.981 41.0522H97.6361C95.4155 41.0522 93.6169 42.8508 93.6169 45.0714V97.3204C93.6169 99.541 95.4155 101.34 97.6361 101.34H113.713V117.412C113.713 119.203 115.877 120.099 117.143 118.833L134.636 101.34H169.981C172.201 101.34 174 99.541 174 97.3204V45.0714C174 42.8508 172.201 41.0522 169.981 41.0522Z" fill="url(#paint3_linear_3_2)"/>
<path d="M133.808 79.2342C137.138 79.2342 139.837 76.5351 139.837 73.2055C139.837 69.8759 137.138 67.1767 133.808 67.1767C130.479 67.1767 127.78 69.8759 127.78 73.2055C127.78 76.5351 130.479 79.2342 133.808 79.2342Z" fill="url(#paint4_radial_3_2)"/>
<path d="M133.808 77.2246C136.028 77.2246 137.828 75.4252 137.828 73.2055C137.828 70.9858 136.028 69.1863 133.808 69.1863C131.589 69.1863 129.789 70.9858 129.789 73.2055C129.789 75.4252 131.589 77.2246 133.808 77.2246Z" fill="white"/>
<path d="M117.732 79.2342C121.061 79.2342 123.761 76.5351 123.761 73.2055C123.761 69.8759 121.061 67.1767 117.732 67.1767C114.402 67.1767 111.703 69.8759 111.703 73.2055C111.703 76.5351 114.402 79.2342 117.732 79.2342Z" fill="url(#paint5_radial_3_2)"/>
<path d="M117.732 77.2246C119.952 77.2246 121.751 75.4252 121.751 73.2055C121.751 70.9858 119.952 69.1863 117.732 69.1863C115.512 69.1863 113.713 70.9858 113.713 73.2055C113.713 75.4252 115.512 77.2246 117.732 77.2246Z" fill="white"/>
<path d="M149.885 79.2342C153.215 79.2342 155.914 76.5351 155.914 73.2055C155.914 69.8759 153.215 67.1767 149.885 67.1767C146.555 67.1767 143.856 69.8759 143.856 73.2055C143.856 76.5351 146.555 79.2342 149.885 79.2342Z" fill="url(#paint6_radial_3_2)"/>
<path d="M149.885 77.2246C152.105 77.2246 153.904 75.4252 153.904 73.2055C153.904 70.9858 152.105 69.1863 149.885 69.1863C147.665 69.1863 145.866 70.9858 145.866 73.2055C145.866 75.4252 147.665 77.2246 149.885 77.2246Z" fill="white"/>
</g>
</g>
</g>
<defs>
<filter id="filter0_i_3_2" x="34" y="41.0522" width="140" height="121.895" filterUnits="userSpaceOnUse" color-interpolation-filters="sRGB">
<feFlood flood-opacity="0" result="BackgroundImageFix"/>
<feBlend mode="normal" in="SourceGraphic" in2="BackgroundImageFix" result="shape"/>
<feColorMatrix in="SourceAlpha" type="matrix" values="0 0 0 0 0 0 0 0 0 0 0 0 0 0 0 0 0 0 127 0" result="hardAlpha"/>
<feOffset dy="4"/>
<feGaussianBlur stdDeviation="2"/>
<feComposite in2="hardAlpha" operator="arithmetic" k2="-1" k3="1"/>
<feColorMatrix type="matrix" values="0 0 0 0 1 0 0 0 0 1 0 0 0 0 1 0 0 0 0.2 0"/>
<feBlend mode="normal" in2="shape" result="effect1_innerShadow_3_2"/>
</filter>
<filter id="filter1_i_3_2" x="34" y="41.0522" width="140" height="121.896" filterUnits="userSpaceOnUse" color-interpolation-filters="sRGB">
<feFlood flood-opacity="0" result="BackgroundImageFix"/>
<feBlend mode="normal" in="SourceGraphic" in2="BackgroundImageFix" result="shape"/>
<feColorMatrix in="SourceAlpha" type="matrix" values="0 0 0 0 0 0 0 0 0 0 0 0 0 0 0 0 0 0 127 0" result="hardAlpha"/>
<feOffset dy="4"/>
<feGaussianBlur stdDeviation="2"/>
<feComposite in2="hardAlpha" operator="arithmetic" k2="-1" k3="1"/>
<feColorMatrix type="matrix" values="0 0 0 0 1 0 0 0 0 1 0 0 0 0 1 0 0 0 0.25 0"/>
<feBlend mode="normal" in2="shape" result="effect1_innerShadow_3_2"/>
</filter>
<radialGradient id="paint0_radial_3_2" cx="0" cy="0" r="1" gradientUnits="userSpaceOnUse" gradientTransform="translate(103.459 134.121) scale(69.639 93.7068)">
<stop offset="0.934" stop-opacity="0.2"/>
<stop offset="1" stop-opacity="0"/>
</radialGradient>
<linearGradient id="paint1_linear_3_2" x1="75.9184" y1="18.5605" x2="167.721" y2="168.318" gradientUnits="userSpaceOnUse">
<stop stop-color="#FFD869"/>
<stop offset="1" stop-color="#FEC52B"/>
</linearGradient>
<linearGradient id="paint2_linear_3_2" x1="82.4167" y1="18.2825" x2="174.32" y2="201.533" gradientUnits="userSpaceOnUse">
<stop stop-color="#EBC500"/>
<stop offset="1" stop-color="#FFD869"/>
</linearGradient>
<linearGradient id="paint3_linear_3_2" x1="64.401" y1="30.75" x2="128.651" y2="151.782" gradientUnits="userSpaceOnUse">
<stop stop-color="#0176D0"/>
<stop offset="1" stop-color="#0A85D9"/>
</linearGradient>
<radialGradient id="paint4_radial_3_2" cx="0" cy="0" r="1" gradientUnits="userSpaceOnUse" gradientTransform="translate(104 100) scale(70 58.9477)">
<stop stop-color="#0077D2"/>
<stop offset="1" stop-color="#0176D0"/>
</radialGradient>
<radialGradient id="paint5_radial_3_2" cx="0" cy="0" r="1" gradientUnits="userSpaceOnUse" gradientTransform="translate(104 100) scale(70 58.9477)">
<stop stop-color="#0077D2"/>
<stop offset="1" stop-color="#0176D0"/>
</radialGradient>
<radialGradient id="paint6_radial_3_2" cx="0" cy="0" r="1" gradientUnits="userSpaceOnUse" gradientTransform="translate(104 100) scale(70 58.9477)">
<stop stop-color="#0077D2"/>
<stop offset="1" stop-color="#0176D0"/>
</radialGradient>
</defs>
</svg>
