<svg id="ezMy6Sw8kRO1" xmlns="http://www.w3.org/2000/svg" xmlns:xlink="http://www.w3.org/1999/xlink" viewBox="0 0 287 239" shape-rendering="geometricPrecision" text-rendering="geometricPrecision">
<style><![CDATA[
#ezMy6Sw8kRO2_to {animation: ezMy6Sw8kRO2_to__to 3000ms linear 0.7s normal forwards}@keyframes ezMy6Sw8kRO2_to__to { 0% {transform: translate(143.677796px,162.553132px);animation-timing-function: cubic-bezier(0.42,0,0.58,1)} 20% {transform: translate(143.677796px,119.553132px)} 100% {transform: translate(143.677796px,119.553132px)}} #ezMy6Sw8kRO2 {animation: ezMy6Sw8kRO2_c_o 3000ms linear 0.7s normal forwards}@keyframes ezMy6Sw8kRO2_c_o { 0% {opacity: 0;animation-timing-function: cubic-bezier(0.42,0,0.58,1)} 20% {opacity: 1} 100% {opacity: 1}} #ezMy6Sw8kRO13_to {animation: ezMy6Sw8kRO13_to__to 3000ms linear 0.5s normal forwards}@keyframes ezMy6Sw8kRO13_to__to { 0% {transform: translate(205.988006px,157.8993px)} 16.666667% {transform: translate(205.988006px,157.8993px);animation-timing-function: cubic-bezier(0.42,0,0.58,1)} 33.333333% {transform: translate(205.992506px,108.485665px)} 100% {transform: translate(205.992506px,108.485665px)}} #ezMy6Sw8kRO13_tr {animation: ezMy6Sw8kRO13_tr__tr 3000ms linear infinite normal forwards}@keyframes ezMy6Sw8kRO13_tr__tr { 0% {transform: rotate(0deg)} 43.333333% {transform: rotate(0deg)} 53.333333% {transform: rotate(-13.464533deg)} 63.333333% {transform: rotate(21.172399deg)} 70% {transform: rotate(-7.68462deg)} 76.666667% {transform: rotate(13.762996deg)} 83.333333% {transform: rotate(0.195538deg)} 100% {transform: rotate(0.195538deg)}} #ezMy6Sw8kRO13 {animation: ezMy6Sw8kRO13_c_o 3000ms linear 0.7s normal forwards}@keyframes ezMy6Sw8kRO13_c_o { 0% {opacity: 0} 16.666667% {opacity: 0;animation-timing-function: cubic-bezier(0.42,0,0.58,1)} 33.333333% {opacity: 1} 100% {opacity: 1}}
]]></style>
<defs><radialGradient id="ezMy6Sw8kRO6-fill" cx="0" cy="0" r="1" spreadMethod="pad" gradientUnits="userSpaceOnUse" gradientTransform="matrix(105.223 0 0 126.103 105.552 205.375)"><stop id="ezMy6Sw8kRO6-fill-0" offset="93.4%" stop-color="rgba(0,0,0,0.2)"/><stop id="ezMy6Sw8kRO6-fill-1" offset="100%" stop-color="rgba(0,0,0,0)"/></radialGradient><linearGradient id="ezMy6Sw8kRO7-fill" x1="63.9386" y1="49.862" x2="180.553" y2="263.459" spreadMethod="pad" gradientUnits="userSpaceOnUse" gradientTransform="translate(0 0)"><stop id="ezMy6Sw8kRO7-fill-0" offset="0%" stop-color="#ffd869"/><stop id="ezMy6Sw8kRO7-fill-1" offset="100%" stop-color="#fec52b"/></linearGradient><linearGradient id="ezMy6Sw8kRO9-fill" x1="73.7574" y1="49.4882" x2="188.683" y2="306.785" spreadMethod="pad" gradientUnits="userSpaceOnUse" gradientTransform="translate(0 0)"><stop id="ezMy6Sw8kRO9-fill-0" offset="0%" stop-color="#eba600"/><stop id="ezMy6Sw8kRO9-fill-1" offset="100%" stop-color="#c28200"/></linearGradient><linearGradient id="ezMy6Sw8kRO12-fill" x1="160.295" y1="-13.4408" x2="252.751" y2="136.988" spreadMethod="pad" gradientUnits="userSpaceOnUse" gradientTransform="translate(0 0)"><stop id="ezMy6Sw8kRO12-fill-0" offset="0%" stop-color="#33bef0"/><stop id="ezMy6Sw8kRO12-fill-1" offset="100%" stop-color="#0a85d9"/></linearGradient></defs><g id="ezMy6Sw8kRO2_to" transform="translate(143.677796,162.553132)"><g id="ezMy6Sw8kRO2" transform="translate(-143.677795,-119.553131)" opacity="0"><path d="M207.331,180.61h-31.875c-.088-18.264-7.407-35.751-20.353-48.635-12.947-12.883-30.468-20.116-48.733-20.116s-35.7868,7.233-48.7334,20.116C44.69,144.859,37.3721,162.346,37.2832,180.61h-31.87498c-.00572-9.589,1.38711-19.129,4.1346-28.317c6.21848-20.85,19.00118-39.136,36.44688-52.138C63.4353,87.1531,84.6121,80.1299,106.37,80.1299s42.934,7.0232,60.38,20.0251c17.445,13.002,30.228,31.288,36.447,52.138c2.747,9.188,4.14,18.728,4.134,28.317Z" fill="#50e6ff"/><path d="M212.139,161.86v33.654c-.007,2.548-1.023,4.989-2.824,6.791-1.802,1.802-4.243,2.817-6.791,2.824h-16.827v-52.884h16.827c.225-.01.451.006.673.048c2.424.168,4.694,1.249,6.354,3.024c1.659,1.775,2.584,4.114,2.588,6.543Z" fill="#42a4ed"/><path d="M27.0429,152.245v52.884h-16.8269c-2.54788-.007-4.98923-1.022-6.79085-2.824s-2.817068-4.243-2.824564-6.791v-33.654c.00464-2.429.929694-4.768,2.588914-6.543s3.92935-2.856,6.35335-3.024c.22181-.042.44764-.058.67315-.048h16.8269Z" fill="#42a4ed"/><path d="M197.716,180.611v.481c.011,8.121-1.072,16.207-3.221,24.038h-8.798v-24.519h-10.241c-.088-18.265-7.407-35.751-20.353-48.635-12.947-12.884-30.468-20.117-48.733-20.117s-35.7869,7.233-48.7335,20.117-20.2645,30.37-20.3533,48.635h-10.2404v24.519h-8.7981c-2.1491-7.831-3.2326-15.917-3.2212-24.038v-.481c.032-9.648,1.623-19.226,4.7116-28.365c6.0478-18.196,17.6712-34.026,33.2214-45.244C68.5071,95.7835,87.1948,89.7461,106.37,89.7461c19.174,0,37.862,6.0374,53.413,17.2559c15.55,11.218,27.173,27.048,33.221,45.244c3.089,9.139,4.68,18.717,4.712,28.365Z" fill="url(#ezMy6Sw8kRO6-fill)"/><path d="M106.37,94.5527C83.4183,94.5532,61.4071,103.67,45.1778,119.9c-16.2291,16.229-25.3466,38.24-25.3467,61.191h173.0769c0-22.951-9.118-44.962-25.347-61.191-16.229-16.23-38.24-25.3468-61.191-25.3473Z" fill="url(#ezMy6Sw8kRO7-fill)"/><path d="M140.504,233.496h-68.2692c-6.2506,0-12.4399-1.231-18.2146-3.623-5.7748-2.391-11.0219-5.897-15.4416-10.317-4.4198-4.42-7.9257-9.667-10.3175-15.442-2.3918-5.774-3.6227-11.964-3.6224-18.214-.0003-6.251,1.2306-12.44,3.6224-18.215s5.8977-11.022,10.3175-15.441c4.4197-4.42,9.6668-7.926,15.4416-10.318c5.7747-2.392,11.964-3.623,18.2146-3.622h68.2692c6.251-.001,12.44,1.23,18.215,3.622s11.022,5.898,15.441,10.318c4.42,4.419,7.926,9.666,10.318,15.441s3.622,11.964,3.622,18.215c0,6.25-1.23,12.44-3.622,18.214-2.392,5.775-5.898,11.022-10.318,15.442-4.419,4.42-9.666,7.926-15.441,10.317-5.775,2.392-11.964,3.623-18.215,3.623Z" fill="#64717c"/><path d="M140.264,238.784h-67.7888c-13.9573-.016-27.3385-5.567-37.2079-15.437-9.8693-9.869-15.4207-23.25-15.4362-37.207v-.481c.0155-13.957,5.5669-27.339,15.4362-37.208s23.2506-15.421,37.2079-15.436h67.7888c13.957.015,27.338,5.567,37.208,15.436c9.869,9.869,15.42,23.251,15.436,37.208v.486c-.016,13.956-5.568,27.336-15.438,37.205-9.869,9.868-23.25,15.419-37.206,15.434ZM72.4752,142.63c-11.4078.013-22.3449,4.551-30.4116,12.617-8.0666,8.067-12.6042,19.004-12.6172,30.412v.486c.014,11.407,4.552,22.343,12.6186,30.408c8.0667,8.066,19.0029,12.603,30.4102,12.615h67.7888c11.408-.012,22.346-4.549,30.412-12.616c8.067-8.067,12.604-19.004,12.616-30.412v-.481c-.012-11.408-4.55-22.345-12.617-30.412-8.066-8.066-19.003-12.604-30.411-12.617h-67.7888Z" fill="url(#ezMy6Sw8kRO9-fill)"/><path d="M91.9416,190.707c-1.0929-.002-2.1531-.375-3.0055-1.06-.8525-.684-1.4465-1.638-1.6846-2.705-.8027-3.192-2.694-6.003-5.3474-7.949-2.6539-1.945-5.9036-2.904-9.1883-2.709-3.2848-.195-6.5345.764-9.1883,2.709-2.6539,1.946-4.5453,4.757-5.3474,7.949-.2797,1.242-1.0403,2.322-2.1153,3.004-1.0749.682-2.3764.911-3.6189.635-1.2429-.276-2.3257-1.034-3.0111-2.107s-.917-2.373-.6447-3.617c1.2701-5.331,4.3481-10.056,8.7106-13.372c4.362-3.317,9.7389-5.019,15.2151-4.817c5.4761-.202,10.853,1.5,15.215,4.817c4.3625,3.316,7.4405,8.041,8.7107,13.372.275,1.245.0452,2.548-.6397,3.624-.685,1.076-1.7687,1.836-3.013,2.113-.3443.074-.695.112-1.0472.113Z" fill="#50e6ff"/><path d="M159.249,190.707c-1.093-.002-2.153-.375-3.005-1.06-.853-.684-1.447-1.638-1.685-2.705-.803-3.192-2.693-6.003-5.347-7.949-2.654-1.945-5.904-2.904-9.189-2.709-3.284-.195-6.534.764-9.188,2.709-2.654,1.946-4.545,4.757-5.347,7.949-.28,1.242-1.041,2.322-2.116,3.004-1.074.682-2.376.911-3.618.635-1.243-.276-2.326-1.034-3.012-2.107-.685-1.073-.917-2.373-.644-3.617c1.27-5.331,4.348-10.056,8.71-13.372c4.363-3.317,9.739-5.019,15.215-4.817c5.477-.202,10.853,1.5,15.215,4.817c4.363,3.316,7.441,8.041,8.711,13.372.275,1.245.045,2.548-.64,3.624s-1.768,1.836-3.013,2.113c-.343.074-.695.112-1.047.113Z" fill="#50e6ff"/><path d="M278.678,0.322266h-145.384c-4.463,0-8.077,3.614424-8.077,8.076924v104.99981c0,4.463,3.614,8.077,8.077,8.077h32.307v32.3c0,3.598,4.35,5.399,6.894,2.855l35.155-35.155h71.028c4.463,0,8.077-3.614,8.077-8.077v-104.99981c0-4.4625-3.614-8.076924-8.077-8.076924Z" fill="url(#ezMy6Sw8kRO12-fill)"/><g id="ezMy6Sw8kRO13_to" transform="translate(205.988006,157.8993)"><g id="ezMy6Sw8kRO13_tr" transform="rotate(0)"><g id="ezMy6Sw8kRO13" transform="translate(-205.9835,-105.322)" opacity="0"><path d="M203.773,16.4766c-7.463,0-16.748,3.7759-20.867,5.6336-1.317.5937-2.14,1.8941-2.14,3.3358v18.379c0,2.3181,2.71,3.558,4.458,2.0395c3.865-3.356,9.895-7.3541,16.683-7.3541c1.999,0,4.382.63,4.382,3.6306c0,7.9194-15.932,10.7422-15.932,27.5463c0,2.2131,1.046,6.0817,1.753,8.4365.355,1.1829,1.437,1.9989,2.677,1.9948l17.382-.0444c1.999-.0041,3.384-2.1323,2.415-3.881-1.103-1.9869-1.523-4.1109-1.523-4.9025c0-3.1984,1.567-5.3912,5.698-8.8929c5.255-4.4543,12.451-10.5522,12.451-22.6032-.004-14.599-10.257-23.318-27.437-23.318Z" opacity="0.05"/><path d="M184.363,23.4705c3.623-1.789,11.231-4.9754,19.409-4.9754c20.14,0,25.415,12.3012,25.415,21.3069c0,11.041-6.434,16.566-11.627,20.9677-3.425,2.9036-5.751,5.0765-6.624,7.9597-.318,1.0542-.242,2.8879.441,4.62.824,2.0839,3.009,4.7373-2.137,4.7373l-13.258.0203c-1.341,0-2.116-.7551-2.33-1.4945-.416-1.4252-.933-3.5658-1.123-5.5731-.089-.9489-.121-1.8415-.076-2.6169.892-14.9178,15.855-16.9089,15.855-26.2782c0-2.7946-1.668-3.9173-3.268-4.5392-2.402-.9409-5.185-.7673-6.736-.3998-3.767.8965-7.16,2.4191-9.785,4.1475-1.821,1.1995-3.986,1.0945-4.64.4079-.46.3352-1.099-2.0556-1.099-2.625v-12.6283c0-.2423.065-.9894.134-1.2115.238-.7633.698-1.4539,1.449-1.8254Z" opacity="0.07"/><path d="M203.289,81.1963c-6.34,0-13.085,4.2124-13.085,12.0148c0,7.8669,6.745,12.1109,13.085,12.1109c7.62,0,12.939-4.979,12.939-12.1109c0-7.8873-6.51-12.0148-12.939-12.0148Z" opacity="0.05"/><path d="M203.288,103.303c-5.371,0-11.065-3.493-11.065-10.0916c0-6.5668,5.787-9.9956,11.065-9.9956c5.323,0,10.92,3.2432,10.92,9.9956c0,6.3724-4.911,10.0916-10.92,10.0916Z" opacity="0.07"/><path d="M195.514,76.088c-.356-.9249-1.119-3.6752-1.119-6.3932c0-15.4754,15.932-16.0689,15.932-27.5461c0-7.2248-7.14-7.6731-8.42-7.6731-8.109,0-14.442,4.6361-17.103,6.9784v-16.0367c2.738-1.6356,8.994-4.9027,18.968-4.9027c23.1,0,23.391,15.8793,23.391,19.2877c0,18.3305-18.916,19.6874-18.916,31.4354c0,2.4513.889,4.2443,1.28,4.8503h-14.013Zm7.774,25.196c-4.398,0-9.046-2.7421-9.046-8.0729s4.83-7.9763,9.046-7.9763s8.901,2.3626,8.901,7.9763c0,5.6132-4.503,8.0729-8.901,8.0729Z" fill="#fff"/></g></g></g></g></g></svg>
