<svg id="etisYqKOr6o1" xmlns="http://www.w3.org/2000/svg" xmlns:xlink="http://www.w3.org/1999/xlink" viewBox="0 0 248 257" shape-rendering="geometricPrecision" text-rendering="geometricPrecision">
<style><![CDATA[
#etisYqKOr6o2_to {animation: etisYqKOr6o2_to__to 3500ms linear 0.7s normal forwards}@keyframes etisYqKOr6o2_to__to { 0% {transform: translate(123.82074px,178.369004px)} 17.142857% {transform: translate(123.82074px,129.369004px)} 100% {transform: translate(123.82074px,129.369004px)}} #etisYqKOr6o2 {animation: etisYqKOr6o2_c_o 3500ms linear 0.7s normal forwards}@keyframes etisYqKOr6o2_c_o { 0% {opacity: 0;animation-timing-function: cubic-bezier(0.42,0,0.58,1)} 17.142857% {opacity: 1} 100% {opacity: 1}} #etisYqKOr6o12_to {animation: etisYqKOr6o12_to__to 3500ms linear 0.4s normal forwards}@keyframes etisYqKOr6o12_to__to { 0% {transform: translate(208.881447px,129.281997px)} 14.285714% {transform: translate(208.881447px,129.281997px);animation-timing-function: cubic-bezier(0.42,0,0.58,1)} 25.714286% {transform: translate(208.881447px,78.281997px)} 100% {transform: translate(208.881447px,78.281997px)}} #etisYqKOr6o12_ts {animation: etisYqKOr6o12_ts__ts 3500ms linear infinite normal forwards}@keyframes etisYqKOr6o12_ts__ts { 0% {transform: scale(1,1)} 34.285714% {transform: scale(1,1)} 40% {transform: scale(0.714659,0.714659);animation-timing-function: cubic-bezier(0.42,0,1,1)} 45.714286% {transform: scale(0.920788,0.920788);animation-timing-function: cubic-bezier(0,0,0.58,1)} 48.571429% {transform: scale(0.787927,0.787927)} 51.428571% {transform: scale(0.920788,0.920788)} 74.285714% {transform: scale(0.920788,0.920788)} 77.142857% {transform: scale(0.798749,0.798749)} 80% {transform: scale(0.920788,0.920788);animation-timing-function: cubic-bezier(0.42,0,1,1)} 85.714286% {transform: scale(0.716609,0.716609);animation-timing-function: cubic-bezier(0,0,0.58,1)} 91.428571% {transform: scale(1,1)} 100% {transform: scale(1,1)}} #etisYqKOr6o12 {animation: etisYqKOr6o12_c_o 3500ms linear 0.4s normal forwards}@keyframes etisYqKOr6o12_c_o { 0% {opacity: 0} 14.285714% {opacity: 0;animation-timing-function: cubic-bezier(0.42,0,0.58,1)} 25.714286% {opacity: 1} 100% {opacity: 1}}
]]></style>
<defs><radialGradient id="etisYqKOr6o6-fill" cx="0" cy="0" r="1" spreadMethod="pad" gradientUnits="userSpaceOnUse" gradientTransform="matrix(111.078 0 0 132.433 118.791 213.651)"><stop id="etisYqKOr6o6-fill-0" offset="93.4%" stop-color="rgba(0,0,0,0.2)"/><stop id="etisYqKOr6o6-fill-1" offset="100%" stop-color="rgba(0,0,0,0)"/></radialGradient><linearGradient id="etisYqKOr6o7-fill" x1="74.8626" y1="50.3318" x2="196.987" y2="275.182" spreadMethod="pad" gradientUnits="userSpaceOnUse" gradientTransform="translate(0 0)"><stop id="etisYqKOr6o7-fill-0" offset="0%" stop-color="#ffd869"/><stop id="etisYqKOr6o7-fill-1" offset="100%" stop-color="#fec52b"/></linearGradient><linearGradient id="etisYqKOr6o9-fill" x1="85.2277" y1="49.94" x2="205.505" y2="320.616" spreadMethod="pad" gradientUnits="userSpaceOnUse" gradientTransform="translate(0 0)"><stop id="etisYqKOr6o9-fill-0" offset="0%" stop-color="#eba600"/><stop id="etisYqKOr6o9-fill-1" offset="100%" stop-color="#c28200"/></linearGradient><linearGradient id="etisYqKOr6o13-fill" x1="174.673" y1="-558.689" x2="502.083" y2="-72.3425" spreadMethod="pad" gradientUnits="userSpaceOnUse" gradientTransform="translate(0 0)"><stop id="etisYqKOr6o13-fill-0" offset="0%" stop-color="#33bef0"/><stop id="etisYqKOr6o13-fill-1" offset="100%" stop-color="#0a85d9"/></linearGradient><linearGradient id="etisYqKOr6o14-fill" x1="188.391" y1="7.80321" x2="210.301" y2="144.543" spreadMethod="pad" gradientUnits="userSpaceOnUse" gradientTransform="translate(0 0)"><stop id="etisYqKOr6o14-fill-0" offset="0%" stop-color="#33bef0"/><stop id="etisYqKOr6o14-fill-1" offset="100%" stop-color="#0a85d9"/></linearGradient><linearGradient id="etisYqKOr6o15-fill" x1="275.756" y1="-252.7" x2="388.487" y2="37.0771" spreadMethod="pad" gradientUnits="userSpaceOnUse" gradientTransform="translate(0 0)"><stop id="etisYqKOr6o15-fill-0" offset="0%" stop-color="#33bef0"/><stop id="etisYqKOr6o15-fill-1" offset="100%" stop-color="#0a85d9"/></linearGradient><linearGradient id="etisYqKOr6o16-fill" x1="226.955" y1="38.0623" x2="223.956" y2="110.146" spreadMethod="pad" gradientUnits="userSpaceOnUse" gradientTransform="translate(0 0)"><stop id="etisYqKOr6o16-fill-0" offset="0%" stop-color="#33bef0"/><stop id="etisYqKOr6o16-fill-1" offset="100%" stop-color="#0a85d9"/></linearGradient></defs><g id="etisYqKOr6o2_to" transform="translate(123.82074,178.369004)"><g id="etisYqKOr6o2" transform="translate(-123.820739,-128.369004)" opacity="0"><path d="M226.234,187.643h-33.649c-.093-19.181-7.819-37.545-21.486-51.076s-32.163-21.126-51.444-21.126-37.7783,7.595-51.4453,21.126-21.3921,31.895-21.4859,51.076h-33.6486c-.006-10.071,1.4643-20.089,4.3647-29.738c6.5645-21.897,20.0585-41.101,38.4748-54.755C74.3311,89.4949,96.6862,82.1191,119.655,82.1191c22.968,0,45.323,7.3758,63.739,21.0309c18.417,13.654,31.911,32.858,38.475,54.755c2.901,9.649,4.371,19.667,4.365,29.738Z" fill="#50e6ff"/><path d="M231.309,167.952v35.344c-.008,2.675-1.08,5.239-2.982,7.131s-4.479,2.959-7.168,2.966h-17.763v-55.539h17.763c.237-.01.476.007.71.051c2.559.177,4.955,1.312,6.707,3.176s2.728,4.32,2.733,6.871Z" fill="#42a4ed"/><path d="M35.9137,157.854v55.539h-17.7633c-2.6896-.007-5.2668-1.074-7.1687-2.966s-2.97379-4.456-2.9817-7.131v-35.344c.0049-2.551.98143-5.007,2.733-6.871s4.148-2.999,6.7068-3.176c.2342-.044.4726-.061.7106-.051h17.7633Z" fill="#42a4ed"/><path d="M216.083,187.643v.506c.013,8.529-1.131,17.02-3.4,25.245h-9.287v-25.751h-10.811c-.093-19.181-7.819-37.545-21.486-51.076-13.667-13.53-32.163-21.126-51.444-21.126s-37.7782,7.596-51.4452,21.126c-13.667,13.531-21.3921,31.895-21.4859,51.076h-10.8102l.0001,25.751h-9.2877c-2.2687-8.225-3.4125-16.716-3.4004-25.245v-.506c.0337-10.131,1.7133-20.19,4.9737-29.788c6.3843-19.109,18.6545-35.734,35.07-47.516C79.6853,98.5582,99.4128,92.2178,119.655,92.2178c20.241,0,39.969,6.3404,56.385,18.1212c16.415,11.782,28.685,28.407,35.07,47.516c3.26,9.598,4.94,19.657,4.973,29.788Z" fill="url(#etisYqKOr6o6-fill)"/><path d="M119.655,97.2656c-24.2288.0005-47.4648,9.5754-64.5971,26.6194-17.1321,17.043-26.7569,40.159-26.7571,64.263h182.7072c0-24.104-9.625-47.22-26.757-64.263-17.132-17.044-40.368-26.6189-64.596-26.6194Z" fill="url(#etisYqKOr6o7-fill)"/><path d="M155.689,243.183h-72.0685c-6.5984,0-13.1321-1.292-19.2282-3.804s-11.6351-6.194-16.3008-10.835c-4.6656-4.642-8.3666-10.152-10.8915-16.217-2.525-6.065-3.8243-12.565-3.824-19.129-.0003-6.564,1.299-13.064,3.824-19.129c2.5249-6.064,6.2259-11.575,10.8915-16.217c4.6657-4.641,10.2047-8.323,16.3008-10.835s12.6298-3.805,19.2282-3.804h72.0685c6.598-.001,13.132,1.292,19.228,3.804s11.635,6.194,16.301,10.835c4.665,4.642,8.366,10.153,10.891,16.217c2.525,6.065,3.824,12.565,3.824,19.129s-1.299,13.064-3.824,19.129-6.226,11.575-10.891,16.217c-4.666,4.641-10.205,8.323-16.301,10.835s-12.63,3.804-19.228,3.804Z" fill="#64717c"/><path d="M155.435,248.738h-71.5608c-14.734-.017-28.8597-5.847-39.2782-16.212-10.4185-10.364-16.2788-24.417-16.2952-39.075v-.505c.0164-14.658,5.8767-28.711,16.2952-39.076c10.4185-10.364,24.5442-16.194,39.2782-16.211h71.5608c14.734.017,28.86,5.847,39.278,16.211c10.419,10.365,16.279,24.418,16.295,39.076v.51c-.017,14.657-5.878,28.709-16.297,39.073-10.418,10.363-24.543,16.193-39.276,16.209ZM83.8742,147.757c-12.0426.014-23.5882,4.779-32.1037,13.251-8.5156,8.471-13.3056,19.957-13.3193,31.938v.51c.0147,11.98,4.8053,23.465,13.3207,31.935c8.5155,8.471,20.0602,13.235,32.1023,13.248h71.5608c12.043-.012,23.589-4.777,32.105-13.249c8.515-8.472,13.305-19.958,13.318-31.939v-.505c-.014-11.981-4.804-23.467-13.319-31.938-8.516-8.472-20.062-13.237-32.104-13.251h-71.5608Z" fill="url(#etisYqKOr6o9-fill)"/><path d="M104.424,198.246c-1.154-.001-2.273-.394-3.173-1.113-.9-.718-1.5266-1.72-1.778-2.841-.8473-3.351-2.8439-6.304-5.645-8.347-2.8015-2.043-6.232-3.05-9.6996-2.846-3.4675-.204-6.898.803-9.6995,2.846s-4.7982,4.996-5.645,8.347c-.2952,1.304-1.0981,2.439-2.2329,3.155-1.1347.717-2.5087.957-3.8203.667-1.3121-.29-2.4551-1.085-3.1786-2.212s-.9681-2.493-.6806-3.799c1.3408-5.598,4.5901-10.561,9.1953-14.044c4.6047-3.483,10.2808-5.27,16.0616-5.058c5.7809-.212,11.457,1.575,16.0616,5.058c4.605,3.483,7.855,8.446,9.195,14.044.291,1.307.048,2.676-.675,3.806-.723,1.129-1.867,1.928-3.18,2.219-.364.078-.734.118-1.106.118Z" fill="#50e6ff"/><path d="M175.477,198.246c-1.154-.001-2.273-.394-3.173-1.113-.9-.718-1.527-1.72-1.778-2.841-.848-3.351-2.844-6.304-5.645-8.347-2.802-2.043-6.232-3.05-9.7-2.846-3.467-.204-6.898.803-9.699,2.846-2.802,2.043-4.798,4.996-5.645,8.347-.296,1.304-1.099,2.439-2.233,3.155-1.135.717-2.509.957-3.821.667s-2.455-1.085-3.178-2.212c-.724-1.127-.968-2.493-.681-3.799c1.341-5.598,4.59-10.561,9.195-14.044c4.606-3.483,10.281-5.27,16.062-5.058c5.781-.212,11.457,1.575,16.062,5.058s7.855,8.446,9.195,14.044c.291,1.307.048,2.676-.675,3.806-.723,1.129-1.867,1.928-3.181,2.219-.363.078-.733.118-1.105.118Z" fill="#50e6ff"/><g id="etisYqKOr6o12_to" transform="translate(208.881447,129.281997)"><g id="etisYqKOr6o12_ts" transform="scale(1,1)"><g id="etisYqKOr6o12" transform="translate(-208.881446,-78.281997)" opacity="0"><path d="M195.223,148.564c-4.73,0-8.626-1.377-11.697-4.133-3.07-2.755-4.609-6.089-4.609-10.008c0-4.09,1.553-7.439,4.65-10.053c3.107-2.612,6.992-3.919,11.656-3.919c4.73,0,8.593,1.318,11.613,3.964c3.004,2.639,4.514,5.977,4.514,10.008c0,4.091-1.495,7.472-4.474,10.138-2.983,2.668-6.868,4.003-11.653,4.003Z" fill="url(#etisYqKOr6o13-fill)"/><path d="M212.223,11.6512l-3.754,91.3668c-.076,1.887-1.689,3.377-3.651,3.377h-19.486c-1.967,0-3.579-1.494-3.652-3.384l-3.556-91.3669C178.047,9.65514,179.706,8,181.779,8h26.796c2.073,0,3.733,1.65866,3.648,3.6512Z" fill="url(#etisYqKOr6o14-fill)"/><path d="M216.699,110.671c-2.585-.497-4.577-1.611-5.981-3.341-1.404-1.731-1.913-3.596-1.524-5.597.407-2.0886,1.588-3.6358,3.54-4.645c1.957-1.0067,4.21-1.2655,6.758-.7745c2.584.4973,4.565,1.5772,5.952,3.246c1.379,1.6645,1.872,3.5285,1.472,5.5865-.407,2.089-1.56,3.658-3.452,4.707-1.895,1.049-4.151,1.322-6.765.818Z" fill="url(#etisYqKOr6o15-fill)"/><path d="M239.595,42.5353L228.464,88.8035c-.23.9558-1.259,1.5472-2.331,1.3402l-10.647-2.0503c-1.075-.207-1.807-1.1391-1.659-2.1123l7.136-47.0376c.156-1.0239,1.227-1.6946,2.36-1.4765l14.641,2.8197c1.133.2181,1.875,1.2399,1.631,2.2486Z" fill="url(#etisYqKOr6o16-fill)" fill-opacity="0.8"/></g></g></g></g></g></svg>
