
<svg id="eHs9YFrDlty1" xmlns="http://www.w3.org/2000/svg" xmlns:xlink="http://www.w3.org/1999/xlink" viewBox="0 0 301 260" shape-rendering="geometricPrecision" text-rendering="geometricPrecision">
<style><![CDATA[
#eHs9YFrDlty2_to {animation: eHs9YFrDlty2_to__to 3700ms linear 0.7s normal forwards}@keyframes eHs9YFrDlty2_to__to { 0% {transform: translate(149.591509px,169.655503px);animation-timing-function: cubic-bezier(0.38,0,0.415,1)} 16.216216% {transform: translate(149.591509px,130.655503px)} 100% {transform: translate(149.591509px,130.655503px)}} #eHs9YFrDlty2 {animation: eHs9YFrDlty2_c_o 3700ms linear 0.7s normal forwards}@keyframes eHs9YFrDlty2_c_o { 0% {opacity: 0;animation-timing-function: cubic-bezier(0.42,0,0.39,1)} 16.216216% {opacity: 1} 100% {opacity: 1}} #eHs9YFrDlty14_to {animation: eHs9YFrDlty14_to__to 3700ms linear infinite normal forwards}@keyframes eHs9YFrDlty14_to__to { 0% {transform: translate(170.186501px,103.252699px)} 10.810811% {transform: translate(170.186501px,103.252699px);animation-timing-function: cubic-bezier(0.42,0,0.485,1)} 21.621622% {transform: translate(170.186501px,73.252699px)} 100% {transform: translate(170.186501px,73.252699px)}} #eHs9YFrDlty14 {animation: eHs9YFrDlty14_c_o 3700ms linear infinite normal forwards}@keyframes eHs9YFrDlty14_c_o { 0% {opacity: 0} 10.810811% {opacity: 0;animation-timing-function: cubic-bezier(0.42,0,0.485,1)} 21.621622% {opacity: 1} 100% {opacity: 1}} #eHs9YFrDlty18_to {animation: eHs9YFrDlty18_to__to 3700ms linear infinite normal forwards}@keyframes eHs9YFrDlty18_to__to { 0% {transform: translate(205.253998px,103.252699px)} 27.027027% {transform: translate(205.253998px,103.252699px);animation-timing-function: cubic-bezier(0.42,0,0.495,1)} 37.837838% {transform: translate(205.253998px,73.252699px)} 100% {transform: translate(205.253998px,73.252699px)}} #eHs9YFrDlty18 {animation: eHs9YFrDlty18_c_o 3700ms linear infinite normal forwards}@keyframes eHs9YFrDlty18_c_o { 0% {opacity: 0} 27.027027% {opacity: 0;animation-timing-function: cubic-bezier(0.42,0,0.505,0.995)} 37.837838% {opacity: 1} 100% {opacity: 1}} #eHs9YFrDlty22_to {animation: eHs9YFrDlty22_to__to 3700ms linear infinite normal forwards}@keyframes eHs9YFrDlty22_to__to { 0% {transform: translate(240.322502px,103.252699px)} 18.918919% {transform: translate(240.322502px,103.252699px);animation-timing-function: cubic-bezier(0.42,0,0.485,1)} 29.72973% {transform: translate(240.322502px,73.252699px)} 100% {transform: translate(240.322502px,73.252699px)}} #eHs9YFrDlty22 {animation: eHs9YFrDlty22_c_o 3700ms linear infinite normal forwards}@keyframes eHs9YFrDlty22_c_o { 0% {opacity: 0} 18.918919% {opacity: 0;animation-timing-function: cubic-bezier(0.42,0,0.5,0.995)} 29.72973% {opacity: 1} 100% {opacity: 1}}
]]></style>
<defs><radialGradient id="eHs9YFrDlty7-fill" cx="0" cy="0" r="1" spreadMethod="pad" gradientUnits="userSpaceOnUse" gradientTransform="matrix(101.523 0 0 121.263 117.26 212.183)"><stop id="eHs9YFrDlty7-fill-0" offset="93.4%" stop-color="rgba(0,0,0,0.2)"/><stop id="eHs9YFrDlty7-fill-1" offset="100%" stop-color="rgba(0,0,0,0)"/></radialGradient><linearGradient id="eHs9YFrDlty8-fill" x1="77.1109" y1="62.6396" x2="189.048" y2="268.353" spreadMethod="pad" gradientUnits="userSpaceOnUse" gradientTransform="translate(0 0)"><stop id="eHs9YFrDlty8-fill-0" offset="0%" stop-color="#ffd869"/><stop id="eHs9YFrDlty8-fill-1" offset="100%" stop-color="#fec52b"/></linearGradient><linearGradient id="eHs9YFrDlty10-fill" x1="86.5843" y1="62.2796" x2="196.854" y2="309.976" spreadMethod="pad" gradientUnits="userSpaceOnUse" gradientTransform="translate(0 0)"><stop id="eHs9YFrDlty10-fill-0" offset="0%" stop-color="#eba600"/><stop id="eHs9YFrDlty10-fill-1" offset="100%" stop-color="#c28200"/></linearGradient><linearGradient id="eHs9YFrDlty13-fill" x1="161.17" y1="1.76511" x2="249.945" y2="146.684" spreadMethod="pad" gradientUnits="userSpaceOnUse" gradientTransform="translate(0 0)"><stop id="eHs9YFrDlty13-fill-0" offset="0%" stop-color="#33bef0"/><stop id="eHs9YFrDlty13-fill-1" offset="100%" stop-color="#0a85d9"/></linearGradient></defs><g id="eHs9YFrDlty2_to" transform="translate(149.591509,169.655503)"><g id="eHs9YFrDlty2" transform="translate(-149.591509,-129.655503)" opacity="0"><g transform="translate(.000001 0.000001)"><path d="M215.46,188.369h-30.754c-.086-17.563-7.146-34.379-19.638-46.768-12.491-12.389-29.396-19.345-47.019-19.345-17.622,0-34.5277,6.956-47.0189,19.345-12.4913,12.389-19.5518,29.205-19.6375,46.768h-30.7539c-.0055-9.221,1.3383-18.395,3.9892-27.23c5.9997-20.05,18.3329-37.634,35.1649-50.137c16.8321-12.5032,37.264-19.2569,58.2562-19.2569c20.993,0,41.424,6.7537,58.257,19.2569c16.832,12.503,29.165,30.087,35.164,50.137c2.651,8.835,3.995,18.009,3.99,27.23Z" fill="#50e6ff"/><path d="M220.098,170.34v32.362c-.007,2.45-.987,4.798-2.725,6.531-1.738,1.732-4.094,2.708-6.552,2.715h-16.235v-50.855h16.235c.217-.009.435.007.649.047c2.339.162,4.529,1.201,6.13,2.908s2.493,3.955,2.498,6.292Z" fill="#42a4ed"/><path d="M41.5123,161.093v50.855h-16.2351c-2.4582-.007-4.8137-.983-6.552-2.715-1.7382-1.733-2.718-4.081-2.7252-6.531v-32.362c.0045-2.337.897-4.585,2.4979-6.292c1.6008-1.707,3.7911-2.746,6.1298-2.908.2141-.04.4319-.056.6495-.047h16.2351Z" fill="#42a4ed"/><path d="M206.183,188.369v.462c.011,7.81-1.035,15.585-3.108,23.116h-8.488v-23.578h-9.881c-.085-17.564-7.146-34.379-19.637-46.769-12.492-12.389-29.397-19.344-47.019-19.344-17.623,0-34.5284,6.955-47.0197,19.344-12.4912,12.39-19.5518,29.205-19.6375,46.769h-9.8802l.0001,23.578h-8.4887c-2.0735-7.531-3.1189-15.306-3.1079-23.116v-.462c.0309-9.277,1.5659-18.488,4.5458-27.277c5.8351-17.497,17.0497-32.719,32.053-43.507c15.0037-10.788,33.0341-16.594,51.5351-16.594c18.5,0,36.53,5.806,51.534,16.594c15.003,10.788,26.218,26.01,32.053,43.507c2.98,8.789,4.515,18,4.546,27.277Z" fill="url(#eHs9YFrDlty7-fill)"/><path d="M118.05,105.615c-22.1445.001-43.3816,8.768-59.0401,24.374-15.6582,15.607-24.455,36.773-24.4552,58.844h166.9893c0-22.071-8.797-43.237-24.455-58.844-15.658-15.606-36.895-24.373-59.039-24.374Z" fill="url(#eHs9YFrDlty8-fill)"/><path d="M150.983,239.226h-65.8685c-6.0308,0-12.0024-1.184-17.574-3.484s-10.6342-5.671-14.8985-9.921c-4.2643-4.251-7.6469-9.296-9.9546-14.849s-3.4953-11.506-3.495-17.516c-.0003-6.011,1.1873-11.962,3.495-17.516c2.3077-5.553,5.6903-10.599,9.9546-14.849s9.3268-7.621,14.8985-9.921s11.5432-3.484,17.574-3.483h65.8685c6.03-.001,12.002,1.183,17.574,3.483c5.571,2.3,10.634,5.671,14.898,9.921s7.647,9.296,9.955,14.849c2.308,5.554,3.495,11.505,3.495,17.516c0,6.01-1.187,11.963-3.495,17.516s-5.691,10.598-9.955,14.849c-4.264,4.25-9.327,7.621-14.898,9.921-5.572,2.3-11.544,3.484-17.574,3.484Z" fill="#64717c"/><path d="M150.752,244.311h-65.4047c-13.4665-.015-26.377-5.354-35.8992-14.844-9.5223-9.491-14.8785-22.359-14.8934-35.78v-.463c.0149-13.421,5.3711-26.289,14.8934-35.78c9.5222-9.49,22.4327-14.828,35.8992-14.843h65.4047c13.466.015,26.377,5.353,35.899,14.843c9.522,9.491,14.878,22.359,14.893,35.78v.468c-.016,13.42-5.372,26.287-14.895,35.777-9.522,9.489-22.432,14.827-35.897,14.842ZM85.3473,151.847c-11.0066.012-21.559,4.376-29.342,12.133-7.7829,7.757-12.1609,18.274-12.1734,29.244v.468c.0135,10.969,4.3919,21.485,12.1748,29.241s18.3344,12.119,29.3406,12.131h65.4047c11.007-.011,21.559-4.375,29.342-12.132c7.784-7.757,12.161-18.275,12.173-29.245v-.463c-.013-10.97-4.39-21.487-12.173-29.244s-18.336-12.121-29.342-12.133h-65.4047Z" fill="url(#eHs9YFrDlty10-fill)"/><path d="M104.128,198.08c-1.054-.002-2.077-.361-2.899-1.019-.823-.659-1.3959-1.576-1.6257-2.602-.7744-3.069-2.5993-5.772-5.1593-7.643-2.5605-1.871-5.6959-2.793-8.8652-2.606-3.1692-.187-6.3046.735-8.8651,2.606s-4.3854,4.574-5.1593,7.643c-.2699,1.194-1.0037,2.233-2.0409,2.889-1.0371.656-2.2928.876-3.4916.61-1.1992-.265-2.2439-.993-2.9052-2.025s-.8848-2.283-.6221-3.479c1.2255-5.126,4.1953-9.67,8.4043-12.859c4.2086-3.189,9.3964-4.826,14.6799-4.631c5.2836-.195,10.4714,1.442,14.6802,4.631c4.209,3.189,7.179,7.733,8.404,12.859.265,1.197.044,2.451-.617,3.485-.661,1.035-1.707,1.766-2.907,2.032-.332.072-.671.108-1.011.109Z" fill="#50e6ff"/><path d="M169.069,198.08c-1.055-.002-2.077-.361-2.9-1.019-.822-.659-1.396-1.576-1.625-2.602-.775-3.069-2.599-5.772-5.16-7.643-2.56-1.871-5.696-2.793-8.865-2.606-3.169-.187-6.304.735-8.865,2.606-2.56,1.871-4.385,4.574-5.159,7.643-.27,1.194-1.004,2.233-2.041,2.889s-2.293.876-3.492.61c-1.199-.265-2.244-.993-2.905-2.025s-.885-2.283-.622-3.479c1.226-5.126,4.195-9.67,8.404-12.859s9.397-4.826,14.68-4.631c5.284-.195,10.472,1.442,14.68,4.631c4.209,3.189,7.179,7.733,8.404,12.859.266,1.197.044,2.451-.617,3.485-.661,1.035-1.706,1.766-2.907,2.032-.331.072-.67.108-1.01.109Z" fill="#50e6ff"/></g><path d="M275.39,15h-140.271c-4.306,0-7.793,3.4757-7.793,7.767v100.97c0,4.292,3.487,7.767,7.793,7.767h31.171v31.061c0,3.46,4.197,5.191,6.651,2.745l33.919-33.806h68.53c4.306,0,7.793-3.475,7.793-7.767v-100.97c0-4.2913-3.487-7.767-7.793-7.767Z" fill="url(#eHs9YFrDlty13-fill)"/><g id="eHs9YFrDlty14_to" transform="translate(170.186501,103.252699)"><g id="eHs9YFrDlty14" transform="translate(-170.186501,-73.252699)" opacity="0"><path d="M170.187,88.7866c8.608,0,15.585-6.9548,15.585-15.5339c0-8.5792-6.977-15.5339-15.585-15.5339s-15.586,6.9547-15.586,15.5339c0,8.5791,6.978,15.5339,15.586,15.5339Z" opacity="0.05"/><path d="M170.187,86.8435c7.532,0,13.637-6.0853,13.637-13.5922c0-7.5068-6.105-13.5921-13.637-13.5921s-13.638,6.0853-13.638,13.5921c0,7.5069,6.106,13.5922,13.638,13.5922Z" opacity="0.07"/><path d="M170.187,84.9024c6.455,0,11.689-5.2163,11.689-11.6504s-5.234-11.6504-11.689-11.6504c-6.456,0-11.689,5.2162-11.689,11.6504s5.233,11.6504,11.689,11.6504Z" fill="#fff"/></g></g><g id="eHs9YFrDlty18_to" transform="translate(205.253998,103.252699)"><g id="eHs9YFrDlty18" transform="translate(-205.253998,-73.252699)" opacity="0"><path d="M205.254,88.7866c8.608,0,15.586-6.9548,15.586-15.5339c0-8.5792-6.978-15.5339-15.586-15.5339s-15.586,6.9547-15.586,15.5339c0,8.5791,6.978,15.5339,15.586,15.5339Z" opacity="0.05"/><path d="M205.255,86.8435c7.532,0,13.637-6.0853,13.637-13.5922c0-7.5068-6.105-13.5921-13.637-13.5921s-13.638,6.0853-13.638,13.5921c0,7.5069,6.106,13.5922,13.638,13.5922Z" opacity="0.07"/><path d="M205.254,84.9024c6.456,0,11.689-5.2163,11.689-11.6504s-5.233-11.6504-11.689-11.6504c-6.455,0-11.689,5.2162-11.689,11.6504s5.234,11.6504,11.689,11.6504Z" fill="#fff"/></g></g><g id="eHs9YFrDlty22_to" transform="translate(240.322502,103.252699)"><g id="eHs9YFrDlty22" transform="translate(-240.322502,-73.252699)" opacity="0"><path d="M240.323,88.7866c8.607,0,15.585-6.9548,15.585-15.5339c0-8.5792-6.978-15.5339-15.585-15.5339-8.608,0-15.586,6.9547-15.586,15.5339c0,8.5791,6.978,15.5339,15.586,15.5339Z" opacity="0.05"/><path d="M240.323,86.8435c7.532,0,13.637-6.0853,13.637-13.5922c0-7.5068-6.105-13.5921-13.637-13.5921s-13.637,6.0853-13.637,13.5921c0,7.5069,6.105,13.5922,13.637,13.5922Z" opacity="0.07"/><path d="M240.323,84.9024c6.455,0,11.689-5.2163,11.689-11.6504s-5.234-11.6504-11.689-11.6504c-6.456,0-11.69,5.2162-11.69,11.6504s5.234,11.6504,11.69,11.6504Z" fill="#fff"/></g></g></g></g></svg>
