<svg width="140" height="140" viewBox="0 0 140 140" fill="none" xmlns="http://www.w3.org/2000/svg">
<path d="M131.25 81.3747H111.913C111.859 70.2941 107.419 59.6858 99.5648 51.8696C91.7105 44.0535 81.0807 39.6656 70 39.6656C58.9193 39.6656 48.2895 44.0535 40.4352 51.8696C32.5809 59.6858 28.1414 70.2941 28.0875 81.3747H8.75001C8.74653 75.5569 9.59153 69.7697 11.2583 64.1958C15.0309 51.5467 22.7857 40.4532 33.3694 32.5653C43.9531 24.6775 56.8003 20.4167 70 20.4167C83.1997 20.4167 96.0469 24.6775 106.631 32.5653C117.214 40.4532 124.969 51.5467 128.742 64.1958C130.408 69.7697 131.254 75.5569 131.25 81.3747Z" fill="#50E6FF"/>
<path d="M134.167 70V90.4166C134.162 91.9623 133.546 93.4434 132.453 94.5364C131.36 95.6294 129.879 96.2454 128.333 96.25H118.125V64.1666H128.333C128.47 64.1607 128.607 64.1705 128.742 64.1958C130.212 64.2981 131.589 64.9536 132.596 66.0306C133.603 67.1075 134.164 68.5259 134.167 70Z" fill="#42A4ED"/>
<path d="M21.8757 64.1666V96.25H11.6673C10.1216 96.2454 8.64053 95.6294 7.54755 94.5364C6.45457 93.4434 5.83853 91.9623 5.83398 90.4166V70C5.8368 68.5259 6.398 67.1075 7.40459 66.0306C8.41118 64.9536 9.78841 64.2981 11.259 64.1958C11.3935 64.1705 11.5305 64.1607 11.6673 64.1666H21.8757Z" fill="#42A4ED"/>
<path d="M125.417 81.3747V81.6666C125.424 86.5935 124.767 91.4988 123.463 96.25H118.126V81.3747H111.913C111.859 70.2941 107.42 59.6857 99.5655 51.8696C91.7112 44.0534 81.0814 39.6656 70.0007 39.6656C58.92 39.6656 48.2902 44.0534 40.4359 51.8696C32.5816 59.6857 28.1421 70.2941 28.0882 81.3747H21.8757V96.25H16.5382C15.2344 91.4988 14.5771 86.5935 14.584 81.6666V81.3747C14.6035 75.5221 15.5687 69.7112 17.4424 64.1666C21.1114 53.1278 28.1629 43.5244 37.5968 36.7186C47.0308 29.9128 58.3681 26.2501 70.0007 26.2501C81.6333 26.2501 92.9706 29.9128 102.405 36.7186C111.838 43.5244 118.89 53.1278 122.559 64.1666C124.433 69.7112 125.398 75.5221 125.417 81.3747Z" fill="url(#paint0_radial_33_14)"/>
<path d="M70 29.1667C56.0762 29.1668 42.7227 34.6981 32.877 44.5437C23.0314 54.3894 17.5001 67.7429 17.5 81.6667H122.5C122.5 67.7429 116.969 54.3894 107.123 44.5437C97.2773 34.6981 83.9238 29.1668 70 29.1667Z" fill="url(#paint1_linear_33_14)"/>
<path d="M90.7077 113.458H49.291C45.499 113.459 41.7442 112.712 38.2408 111.261C34.7374 109.81 31.5542 107.683 28.8729 105.001C26.1916 102.32 24.0646 99.1369 22.6136 95.6335C21.1626 92.1302 20.4158 88.3753 20.416 84.5833C20.4158 80.7913 21.1626 77.0365 22.6136 73.5331C24.0646 70.0297 26.1916 66.8465 28.8729 64.1652C31.5542 61.4839 34.7374 59.3569 38.2408 57.9059C41.7442 56.4549 45.499 55.7081 49.291 55.7083H90.7077C94.4996 55.7081 98.2545 56.4549 101.758 57.9059C105.261 59.3569 108.444 61.4839 111.126 64.1652C113.807 66.8465 115.934 70.0297 117.385 73.5331C118.836 77.0365 119.583 80.7913 119.583 84.5833C119.583 88.3753 118.836 92.1302 117.385 95.6335C115.934 99.1369 113.807 102.32 111.126 105.001C108.444 107.683 105.261 109.81 101.758 111.261C98.2545 112.712 94.4996 113.459 90.7077 113.458Z" fill="#64717C"/>
<path d="M90.5625 116.667H49.4375C40.97 116.657 32.8521 113.289 26.8647 107.302C20.8773 101.315 17.5094 93.1966 17.5 84.7292V84.4375C17.5094 75.97 20.8773 67.8521 26.8647 61.8647C32.8521 55.8773 40.97 52.5094 49.4375 52.5H90.5625C99.03 52.5094 107.148 55.8773 113.135 61.8647C119.123 67.8521 122.491 75.97 122.5 84.4375V84.7321C122.49 93.1991 119.122 101.316 113.134 107.303C107.147 113.29 99.0295 116.657 90.5625 116.667ZM49.4375 58.3333C42.5167 58.3412 35.8815 61.094 30.9878 65.9878C26.094 70.8815 23.3412 77.5167 23.3333 84.4375V84.7321C23.3418 91.6525 26.0949 98.2869 30.9886 103.18C35.8823 108.073 42.5171 110.826 49.4375 110.833H90.5625C97.4835 110.826 104.119 108.073 109.013 103.179C113.907 98.2856 116.659 91.6502 116.667 84.7292V84.4375C116.659 77.5167 113.906 70.8815 109.012 65.9878C104.118 61.094 97.4833 58.3412 90.5625 58.3333H49.4375Z" fill="url(#paint2_linear_33_14)"/>
<path d="M61.2463 87.5C60.5831 87.4989 59.94 87.2721 59.4228 86.857C58.9057 86.4418 58.5452 85.8629 58.4008 85.2157C57.914 83.2796 56.7666 81.5743 55.1567 80.3939C53.5468 79.2135 51.5753 78.6321 49.5825 78.75C47.5897 78.632 45.6182 79.2134 44.0083 80.3939C42.3983 81.5743 41.251 83.2796 40.7641 85.2157C40.5946 85.9692 40.1331 86.6247 39.481 87.0385C38.8289 87.4524 38.0393 87.5907 37.2853 87.4234C36.5313 87.256 35.8745 86.7965 35.4588 86.1456C35.043 85.4946 34.9023 84.7055 35.0675 83.951C35.838 80.7171 37.7055 77.8502 40.3519 75.8384C42.9984 73.8265 46.2604 72.794 49.5825 72.9167C52.9046 72.794 56.1666 73.8265 58.8131 75.8384C61.4595 77.8502 63.327 80.7171 64.0975 83.951C64.2644 84.7063 64.1248 85.4971 63.7093 86.1496C63.2939 86.8022 62.6365 87.2632 61.8815 87.4316C61.6728 87.4767 61.4598 87.4996 61.2463 87.5Z" fill="#50E6FF"/>
<path d="M102.08 87.5C101.417 87.4989 100.774 87.2721 100.257 86.857C99.7397 86.4418 99.3792 85.8629 99.2348 85.2157C98.748 83.2796 97.6006 81.5743 95.9907 80.3939C94.3808 79.2135 92.4093 78.6321 90.4165 78.75C88.4237 78.632 86.4522 79.2134 84.8423 80.3939C83.2323 81.5743 82.085 83.2796 81.5981 85.2157C81.4285 85.9692 80.9671 86.6247 80.315 87.0385C79.6629 87.4524 78.8733 87.5907 78.1193 87.4234C77.3653 87.256 76.7085 86.7965 76.2927 86.1456C75.877 85.4946 75.7363 84.7055 75.9015 83.951C76.672 80.7171 78.5394 77.8502 81.1859 75.8384C83.8324 73.8265 87.0944 72.794 90.4165 72.9167C93.7386 72.794 97.0006 73.8265 99.647 75.8384C102.294 77.8502 104.161 80.7171 104.931 83.951C105.098 84.7063 104.959 85.4971 104.543 86.1496C104.128 86.8022 103.471 87.2632 102.715 87.4316C102.507 87.4767 102.294 87.4996 102.08 87.5Z" fill="#50E6FF"/>
<defs>
<radialGradient id="paint0_radial_33_14" cx="0" cy="0" r="1" gradientUnits="userSpaceOnUse" gradientTransform="translate(69.572 81.5094) scale(55.1308 55.638)">
<stop offset="0.934" stop-opacity="0.2"/>
<stop offset="1" stop-opacity="0"/>
</radialGradient>
<linearGradient id="paint1_linear_33_14" x1="48.9388" y1="19.1509" x2="78.4263" y2="100.167" gradientUnits="userSpaceOnUse">
<stop stop-color="#FFD869"/>
<stop offset="1" stop-color="#FEC52B"/>
</linearGradient>
<linearGradient id="paint2_linear_33_14" x1="53.8125" y1="40.1071" x2="93.9283" y2="150.331" gradientUnits="userSpaceOnUse">
<stop stop-color="#EBC500"/>
<stop offset="1" stop-color="#FFD869"/>
</linearGradient>
</defs>
</svg>
