<svg width="96" height="97" viewBox="0 0 96 97" fill="none" xmlns="http://www.w3.org/2000/svg">
<g id="website_logo">
<g id="Group">
<path id="Vector" d="M87.3939 1.60605H8.60606C4.42206 1.60605 1.0303 4.99783 1.0303 9.18181V87.9697C1.0303 92.1539 4.42206 95.5454 8.60606 95.5454H87.3939C91.5782 95.5454 94.9697 92.1539 94.9697 87.9697V9.18181C94.9697 4.99783 91.5782 1.60605 87.3939 1.60605Z" fill="white" fill-opacity="0.2"/>
<path id="Vector_2" d="M87.3939 1.60605H8.60606C4.42206 1.60605 1.0303 4.99783 1.0303 9.18181V87.9697C1.0303 92.1539 4.42206 95.5454 8.60606 95.5454H87.3939C91.5782 95.5454 94.9697 92.1539 94.9697 87.9697V9.18181C94.9697 4.99783 91.5782 1.60605 87.3939 1.60605Z" stroke="#D5EAF6" stroke-opacity="0.5" stroke-width="2" stroke-dasharray="10 10"/>
<path id="Vector_3" d="M73.623 21.606H22.9831C21.2345 21.606 19.8182 22.9965 19.8182 24.7133V71.3224C19.8182 73.0388 21.2345 74.4297 22.9831 74.4297H73.623C75.3715 74.4297 76.7879 73.0388 76.7879 71.3224V24.7133C76.7879 22.9965 75.3715 21.606 73.623 21.606Z" fill="#AEBBC2" fill-opacity="0.527778"/>
<path id="Vector_4" d="M61.066 48.1188C59.2473 46.3336 56.3105 46.2948 54.4431 48.0302L38.8081 62.5721V77.537H73.623C75.3715 77.537 76.7879 76.1461 76.7879 74.4297V63.5539L61.066 48.1188Z" fill="url(#paint0_linear_23_75)"/>
<path id="Vector_5" d="M58.5893 40.2496C61.6485 40.2496 64.1279 37.8151 64.1279 34.8119C64.1279 31.8088 61.6485 29.3742 58.5893 29.3742C55.5303 29.3742 53.0505 31.8088 53.0505 34.8119C53.0505 37.8151 55.5303 40.2496 58.5893 40.2496Z" fill="#FFF8DE"/>
<path id="Vector_6" d="M22.9831 77.537H73.623C74.9061 77.537 76.0079 76.783 76.503 75.7036L42.0759 41.9043C40.2576 40.1191 37.3205 40.0803 35.4532 41.8158L19.8182 56.3577V74.4297C19.8182 76.1461 21.2345 77.537 22.9831 77.537Z" fill="url(#paint1_linear_23_75)"/>
<g id="Vector_7" filter="url(#filter0_f_23_75)">
<path id="Vector_8" d="M83.3212 71.303C83.3212 79.6703 76.703 86.4545 68.5394 86.4545C60.3764 86.4545 53.7576 79.6703 53.7576 71.303C53.7576 62.9357 60.3764 56.1515 68.5394 56.1515C76.703 56.1515 83.3212 62.9357 83.3212 71.303Z" fill="url(#paint2_radial_23_75)" fill-opacity="0.2"/>
<path id="Vector_9" d="M83.3212 71.303C83.3212 79.6703 76.703 86.4545 68.5394 86.4545C60.3764 86.4545 53.7576 79.6703 53.7576 71.303C53.7576 62.9357 60.3764 56.1515 68.5394 56.1515C76.703 56.1515 83.3212 62.9357 83.3212 71.303Z" fill="white" fill-opacity="0.5"/>
</g>
<path id="Vector_8_2" opacity="0.05" d="M75.1915 68.2727H70.0176V62.9697C70.0176 62.1327 69.3564 61.4545 68.5394 61.4545H67.0612C66.2448 61.4545 65.583 62.1327 65.583 62.9697V68.2727H60.4097C59.5927 68.2727 58.9309 68.9509 58.9309 69.7879V71.303C58.9309 72.14 59.5927 72.8182 60.4097 72.8182H65.583V78.1212C65.583 78.9582 66.2448 79.6363 67.0612 79.6363H68.5394C69.3564 79.6363 70.0176 78.9582 70.0176 78.1212V72.8182H75.1915C76.0079 72.8182 76.6697 72.14 76.6697 71.303V69.7879C76.6697 68.9509 76.0079 68.2727 75.1915 68.2727Z" fill="black"/>
<g id="Group 16">
<path id="Vector_9_2" d="M84.0606 71.303C84.0606 79.6703 77.4418 86.4545 69.2788 86.4545C61.1152 86.4545 54.4967 79.6703 54.4967 71.303C54.4967 62.9357 61.1152 56.1515 69.2788 56.1515C77.4418 56.1515 84.0606 62.9357 84.0606 71.303Z" fill="url(#paint3_linear_23_75)"/>
<path id="Vector_10" opacity="0.07" d="M77.0394 69.7878H71.4958V64.106C71.4958 63.4788 70.9994 62.9697 70.3873 62.9697H68.9091C68.297 62.9697 67.8006 63.4788 67.8006 64.106V69.7878H62.257C61.6455 69.7878 61.1485 70.2969 61.1485 70.9242V72.4394C61.1485 73.0666 61.6455 73.5757 62.257 73.5757H67.8006V79.2575C67.8006 79.8848 68.297 80.3939 68.9091 80.3939H70.3873C70.9994 80.3939 71.4958 79.8848 71.4958 79.2575V73.5757H77.0394C77.6509 73.5757 78.1479 73.0666 78.1479 72.4394V70.9242C78.1479 70.2969 77.6509 69.7878 77.0394 69.7878Z" fill="black"/>
<path id="Vector_11" d="M68.7242 62.9697H70.5721C71.0818 62.9697 71.4957 63.3242 71.4957 63.7618V79.6018C71.4957 80.0394 71.0818 80.3939 70.5721 80.3939H68.7242C68.2145 80.3939 67.8006 80.0394 67.8006 79.6018V63.7618C67.8006 63.3242 68.2145 62.9697 68.7242 62.9697Z" fill="white"/>
<path id="Vector_12" d="M78.1479 70.7345V72.6291C78.1479 73.1515 77.8018 73.5757 77.3752 73.5757H61.9212C61.4946 73.5757 61.1485 73.1515 61.1485 72.6291V70.7345C61.1485 70.2121 61.4946 69.7878 61.9212 69.7878H77.3752C77.8018 69.7878 78.1479 70.2121 78.1479 70.7345Z" fill="white"/>
</g>
</g>
</g>
<defs>
<filter id="filter0_f_23_75" x="49.7576" y="52.1515" width="37.5637" height="38.303" filterUnits="userSpaceOnUse" color-interpolation-filters="sRGB">
<feFlood flood-opacity="0" result="BackgroundImageFix"/>
<feBlend mode="normal" in="SourceGraphic" in2="BackgroundImageFix" result="shape"/>
<feGaussianBlur stdDeviation="2" result="effect1_foregroundBlur_23_75"/>
</filter>
<linearGradient id="paint0_linear_23_75" x1="38.8081" y1="62.1448" x2="76.7879" y2="62.1448" gradientUnits="userSpaceOnUse">
<stop stop-color="white"/>
<stop offset="0.5" stop-color="#1FA0E5"/>
</linearGradient>
<linearGradient id="paint1_linear_23_75" x1="48.1606" y1="40.5387" x2="48.1606" y2="77.537" gradientUnits="userSpaceOnUse">
<stop stop-color="#28AFEA"/>
<stop offset="1" stop-color="#0B88DA"/>
</linearGradient>
<radialGradient id="paint2_radial_23_75" cx="0" cy="0" r="1" gradientUnits="userSpaceOnUse" gradientTransform="translate(68.5394 71.303) rotate(45.7073) scale(14.9678 14.9632)">
<stop stop-color="#64717C" stop-opacity="0.19"/>
<stop offset="1" stop-color="#64717C"/>
</radialGradient>
<linearGradient id="paint3_linear_23_75" x1="58.8261" y1="60.5894" x2="80.2473" y2="81.4879" gradientUnits="userSpaceOnUse">
<stop stop-color="#21AD64"/>
<stop offset="1" stop-color="#088242"/>
</linearGradient>
</defs>
</svg>
