<svg version="1.2" xmlns="http://www.w3.org/2000/svg" viewBox="0 0 439 18" width="439" height="18"><style>.a{fill:#ddd}</style><path class="a" d="m16.2 4.6c2.1 1.9 2.6 5.2 1 7.6-1.6 2.3-4.8 3.3-7.4 2.3-2.7-1.1-4.5-4.2-3.7-7.1 0.5-2.2 2.7-4.6 5.1-4 1.7-0.5 3.6-0.2 5 1.2z"/><path class="a" d="m32.7 7.2c1.1 1.2 0.6 3.1-0.4 4.2-0.9 1-2.4 1.5-3.7 1.2-0.8-0.2-1.4-0.8-1.9-1.5-0.7-0.6-1.2-1.6-1.1-2.8 0.1-1.6 1.2-3.1 2.9-3 1.5 0.1 3.1 0.9 4.2 1.9z"/><path class="a" d="m53 4.6c2.1 1.9 2.7 5.2 1 7.6-1.5 2.3-4.7 3.3-7.3 2.3-2.8-1.1-4.5-4.2-3.8-7.1 0.5-2.2 2.8-4.6 5.1-4 1.7-0.5 3.6-0.2 5 1.2z"/><path class="a" d="m69.5 7.2c1.2 1.2 0.7 3.1-0.3 4.2-0.9 1-2.4 1.5-3.7 1.2-0.9-0.2-1.5-0.8-1.9-1.5-0.8-0.6-1.3-1.6-1.2-2.8 0.1-1.6 1.3-3.1 2.9-3 1.5 0.1 3.1 0.9 4.2 1.9z"/><path class="a" d="m88.3 4.6c2.1 1.9 2.6 5.2 1 7.6-1.6 2.3-4.8 3.3-7.4 2.3-2.7-1.1-4.5-4.2-3.7-7.1 0.5-2.2 2.7-4.6 5.1-4 1.7-0.5 3.6-0.2 5 1.2z"/><path class="a" d="m104.8 7.2c1.1 1.2 0.6 3.1-0.4 4.2-0.9 1-2.4 1.5-3.7 1.2-0.8-0.2-1.4-0.8-1.9-1.5-0.7-0.6-1.2-1.6-1.1-2.8 0.1-1.6 1.2-3.1 2.9-3 1.5 0.1 3.1 0.9 4.2 1.9z"/><path class="a" d="m125.1 4.6c2.1 1.9 2.7 5.2 1 7.6-1.5 2.3-4.8 3.3-7.3 2.3-2.8-1.1-4.5-4.2-3.8-7.1 0.5-2.2 2.8-4.6 5.1-4 1.7-0.5 3.6-0.2 5 1.2z"/><path class="a" d="m141.6 7.2c1.2 1.2 0.7 3.1-0.3 4.2-0.9 1-2.4 1.5-3.7 1.2-0.9-0.2-1.5-0.8-1.9-1.5-0.8-0.6-1.3-1.6-1.2-2.8 0.1-1.6 1.3-3.1 2.9-3 1.6 0.1 3.1 0.9 4.2 1.9z"/><path class="a" d="m160.1 4.6c2.1 1.9 2.7 5.2 1 7.6-1.5 2.3-4.7 3.3-7.3 2.3-2.8-1.1-4.5-4.2-3.8-7.1 0.5-2.2 2.8-4.6 5.1-4 1.7-0.5 3.6-0.2 5 1.2z"/><path class="a" d="m176.6 7.2c1.2 1.2 0.7 3.1-0.3 4.2-0.9 1-2.4 1.5-3.7 1.2-0.8-0.2-1.5-0.8-1.9-1.5-0.8-0.6-1.3-1.6-1.2-2.8 0.1-1.6 1.3-3.1 2.9-3 1.6 0.1 3.1 0.9 4.2 1.9z"/><path class="a" d="m197 4.6c2.1 1.9 2.6 5.2 1 7.6-1.6 2.3-4.8 3.3-7.4 2.3-2.8-1.1-4.5-4.2-3.8-7.1 0.6-2.2 2.8-4.6 5.2-4 1.7-0.5 3.6-0.2 5 1.2z"/><path class="a" d="m213.5 7.2c1.1 1.2 0.6 3.1-0.4 4.2-0.9 1-2.4 1.5-3.7 1.2-0.8-0.2-1.4-0.8-1.9-1.5-0.8-0.6-1.2-1.6-1.1-2.8 0.1-1.6 1.2-3.1 2.9-3 1.5 0.1 3.1 0.9 4.2 1.9z"/><path class="a" d="m232.2 4.6c2.1 1.9 2.7 5.2 1 7.6-1.5 2.3-4.8 3.3-7.3 2.3-2.8-1.1-4.5-4.2-3.8-7.1 0.5-2.2 2.8-4.6 5.1-4 1.7-0.5 3.6-0.2 5 1.2z"/><path class="a" d="m248.7 7.2c1.2 1.2 0.7 3.1-0.3 4.2-0.9 1-2.4 1.5-3.7 1.2-0.9-0.2-1.5-0.8-1.9-1.5-0.8-0.6-1.3-1.6-1.2-2.8 0.1-1.6 1.3-3.1 2.9-3 1.5 0.1 3.1 0.9 4.2 1.9z"/><path class="a" d="m269.1 4.6c2 1.9 2.6 5.2 1 7.6-1.6 2.3-4.8 3.3-7.4 2.3-2.8-1.1-4.5-4.2-3.8-7.1 0.6-2.2 2.8-4.6 5.2-4 1.7-0.5 3.5-0.2 5 1.2z"/><path class="a" d="m285.5 7.2c1.2 1.2 0.7 3.1-0.3 4.2-0.9 1-2.4 1.5-3.7 1.2-0.8-0.2-1.5-0.8-1.9-1.5-0.8-0.6-1.3-1.6-1.2-2.8 0.2-1.6 1.3-3.1 3-3 1.5 0.1 3.1 0.9 4.1 1.9z"/><path class="a" d="m306 4.6c2.1 1.9 2.7 5.2 1 7.6-1.5 2.3-4.8 3.3-7.3 2.3-2.8-1.1-4.5-4.2-3.8-7.1 0.5-2.2 2.8-4.6 5.1-4 1.7-0.5 3.6-0.2 5 1.2z"/><path class="a" d="m322.5 7.2c1.2 1.2 0.7 3.1-0.3 4.2-0.9 1-2.4 1.5-3.7 1.2-0.9-0.2-1.5-0.8-1.9-1.5-0.8-0.6-1.3-1.6-1.2-2.8 0.1-1.6 1.3-3.1 2.9-3 1.6 0.1 3.1 0.9 4.2 1.9z"/><path class="a" d="m342.9 4.6c2 1.9 2.6 5.2 1 7.6-1.6 2.3-4.8 3.3-7.4 2.3-2.8-1.1-4.5-4.2-3.8-7.1 0.6-2.2 2.8-4.6 5.2-4 1.7-0.5 3.5-0.2 5 1.2z"/><path class="a" d="m359.3 7.2c1.2 1.2 0.7 3.1-0.3 4.2-0.9 1-2.4 1.5-3.7 1.2-0.8-0.2-1.5-0.8-1.9-1.5-0.8-0.6-1.3-1.6-1.2-2.8 0.2-1.6 1.3-3.1 3-3 1.5 0.1 3.1 0.9 4.1 1.9z"/><path class="a" d="m378.1 4.6c2.1 1.9 2.7 5.2 1 7.6-1.5 2.3-4.8 3.3-7.4 2.3-2.7-1.1-4.4-4.2-3.7-7.1 0.5-2.2 2.8-4.6 5.1-4 1.7-0.5 3.6-0.2 5 1.2z"/><path class="a" d="m394.6 7.2c1.2 1.2 0.6 3.1-0.3 4.2-0.9 1-2.4 1.5-3.8 1.2-0.8-0.2-1.4-0.8-1.9-1.5-0.7-0.6-1.2-1.6-1.1-2.8 0.1-1.6 1.3-3.1 2.9-3 1.5 0.1 3.1 0.9 4.2 1.9z"/><path class="a" d="m414.9 4.6c2.1 1.9 2.7 5.2 1.1 7.6-1.6 2.3-4.8 3.3-7.4 2.3-2.8-1.1-4.5-4.2-3.8-7.1 0.6-2.2 2.8-4.6 5.2-4 1.7-0.5 3.5-0.2 4.9 1.2z"/><path class="a" d="m431.1 11.4c-0.9 1-2.4 1.5-3.7 1.2-0.8-0.2-1.5-0.8-1.9-1.4-0.8-0.7-1.3-1.7-1.2-2.9 0.2-1.6 1.3-3.1 3-3 1.5 0.1 3.1 0.9 4.1 1.9 1.2 1.2 0.7 3.1-0.3 4.2z"/></svg>