<svg width="199" height="199" viewBox="0 0 199 199" fill="none" xmlns="http://www.w3.org/2000/svg">
<g filter="url(#filter0_d_52_2215)">
<path d="M172.887 8H26.1129C18.3186 8 12 14.3186 12 22.1129V168.887C12 176.681 18.3186 183 26.1129 183H172.887C180.681 183 187 176.681 187 168.887V22.1129C187 14.3186 180.681 8 172.887 8Z" fill="white"/>
<path d="M172.887 8H26.1129C18.3186 8 12 14.3186 12 22.1129V168.887C12 176.681 18.3186 183 26.1129 183H172.887C180.681 183 187 176.681 187 168.887V22.1129C187 14.3186 180.681 8 172.887 8Z" fill="url(#paint0_linear_52_2215)" fill-opacity="0.2"/>
<path d="M172.887 8H26.1129C18.3186 8 12 14.3186 12 22.1129V168.887C12 176.681 18.3186 183 26.1129 183H172.887C180.681 183 187 176.681 187 168.887V22.1129C187 14.3186 180.681 8 172.887 8Z" stroke="#D5EAF6" stroke-width="15" stroke-linecap="round"/>
</g>
<g filter="url(#filter1_bd_52_2215)">
<path d="M134.706 143.294H65.8824C62.9574 143.294 60.5882 140.925 60.5882 138V53.2941C60.5882 50.3691 62.9574 48 65.8824 48H134.706C137.631 48 140 50.3691 140 53.2941V138C140 140.925 137.631 143.294 134.706 143.294Z" fill="url(#paint1_linear_52_2215)"/>
<path d="M129.412 138V130.059H50V138C50 140.925 52.3691 143.294 55.2941 143.294H134.706C131.781 143.294 129.412 140.925 129.412 138Z" fill="url(#paint2_linear_52_2215)"/>
<path d="M125.441 82.4118H91.0294C90.2988 82.4118 89.7059 81.8188 89.7059 81.0882V75.7941C89.7059 75.0635 90.2988 74.4706 91.0294 74.4706H125.441C126.172 74.4706 126.765 75.0635 126.765 75.7941V81.0882C126.765 81.8188 126.172 82.4118 125.441 82.4118Z" fill="#057093"/>
<path d="M125.441 98.2941H91.0294C90.2988 98.2941 89.7059 97.7012 89.7059 96.9706V91.6765C89.7059 90.9459 90.2988 90.3529 91.0294 90.3529H125.441C126.172 90.3529 126.765 90.9459 126.765 91.6765V96.9706C126.765 97.7012 126.172 98.2941 125.441 98.2941Z" fill="#057093"/>
<path d="M125.441 114.176H91.0294C90.2988 114.176 89.7059 113.584 89.7059 112.853V107.559C89.7059 106.828 90.2988 106.235 91.0294 106.235H125.441C126.172 106.235 126.765 106.828 126.765 107.559V112.853C126.765 113.584 126.172 114.176 125.441 114.176Z" fill="#057093"/>
<path d="M80.4412 82.4118H75.1471C74.4165 82.4118 73.8235 81.8188 73.8235 81.0882V75.7941C73.8235 75.0635 74.4165 74.4706 75.1471 74.4706H80.4412C81.1718 74.4706 81.7647 75.0635 81.7647 75.7941V81.0882C81.7647 81.8188 81.1718 82.4118 80.4412 82.4118Z" fill="#057093"/>
<path d="M80.4412 98.2941H75.1471C74.4165 98.2941 73.8235 97.7012 73.8235 96.9706V91.6765C73.8235 90.9459 74.4165 90.3529 75.1471 90.3529H80.4412C81.1718 90.3529 81.7647 90.9459 81.7647 91.6765V96.9706C81.7647 97.7012 81.1718 98.2941 80.4412 98.2941Z" fill="#057093"/>
<path d="M80.4412 114.176H75.1471C74.4165 114.176 73.8235 113.584 73.8235 112.853V107.559C73.8235 106.828 74.4165 106.235 75.1471 106.235H80.4412C81.1718 106.235 81.7647 106.828 81.7647 107.559V112.853C81.7647 113.584 81.1718 114.176 80.4412 114.176Z" fill="#057093"/>
</g>
<defs>
<filter id="filter0_d_52_2215" x="0.5" y="0.5" width="198" height="198" filterUnits="userSpaceOnUse" color-interpolation-filters="sRGB">
<feFlood flood-opacity="0" result="BackgroundImageFix"/>
<feColorMatrix in="SourceAlpha" type="matrix" values="0 0 0 0 0 0 0 0 0 0 0 0 0 0 0 0 0 0 127 0" result="hardAlpha"/>
<feOffset dy="4"/>
<feGaussianBlur stdDeviation="2"/>
<feComposite in2="hardAlpha" operator="out"/>
<feColorMatrix type="matrix" values="0 0 0 0 0.8375 0 0 0 0 0.732812 0 0 0 0 0.732812 0 0 0 0.25 0"/>
<feBlend mode="normal" in2="BackgroundImageFix" result="effect1_dropShadow_52_2215"/>
<feBlend mode="normal" in="SourceGraphic" in2="effect1_dropShadow_52_2215" result="shape"/>
</filter>
<filter id="filter1_bd_52_2215" x="46" y="44" width="98" height="107.294" filterUnits="userSpaceOnUse" color-interpolation-filters="sRGB">
<feFlood flood-opacity="0" result="BackgroundImageFix"/>
<feGaussianBlur in="BackgroundImageFix" stdDeviation="2"/>
<feComposite in2="SourceAlpha" operator="in" result="effect1_backgroundBlur_52_2215"/>
<feColorMatrix in="SourceAlpha" type="matrix" values="0 0 0 0 0 0 0 0 0 0 0 0 0 0 0 0 0 0 127 0" result="hardAlpha"/>
<feOffset dy="4"/>
<feGaussianBlur stdDeviation="2"/>
<feComposite in2="hardAlpha" operator="out"/>
<feColorMatrix type="matrix" values="0 0 0 0 1 0 0 0 0 1 0 0 0 0 1 0 0 0 0.25 0"/>
<feBlend mode="normal" in2="effect1_backgroundBlur_52_2215" result="effect2_dropShadow_52_2215"/>
<feBlend mode="normal" in="SourceGraphic" in2="effect2_dropShadow_52_2215" result="shape"/>
</filter>
<linearGradient id="paint0_linear_52_2215" x1="99.5" y1="16.4677" x2="99.5" y2="174.532" gradientUnits="userSpaceOnUse">
<stop stop-color="white"/>
<stop offset="0.472222" stop-color="#0D5176" stop-opacity="0.527778"/>
<stop offset="0.940972" stop-color="#12A6F7" stop-opacity="0.465278"/>
<stop offset="1" stop-opacity="0"/>
</linearGradient>
<linearGradient id="paint1_linear_52_2215" x1="64.856" y1="51.7853" x2="118.087" y2="151.274" gradientUnits="userSpaceOnUse">
<stop stop-color="#7DD8F3"/>
<stop offset="1" stop-color="#45B0D0"/>
</linearGradient>
<linearGradient id="paint2_linear_52_2215" x1="95" y1="53.4127" x2="95" y2="143.485" gradientUnits="userSpaceOnUse">
<stop stop-color="#0176D0"/>
<stop offset="1" stop-color="#16538C"/>
</linearGradient>
</defs>
</svg>
