<svg width="199" height="199" viewBox="0 0 199 199" fill="none" xmlns="http://www.w3.org/2000/svg">
<g filter="url(#filter0_d_54_3976)">
<path d="M172.887 8H26.1129C18.3186 8 12 14.3186 12 22.1129V168.887C12 176.681 18.3186 183 26.1129 183H172.887C180.681 183 187 176.681 187 168.887V22.1129C187 14.3186 180.681 8 172.887 8Z" fill="white"/>
<path d="M172.887 8H26.1129C18.3186 8 12 14.3186 12 22.1129V168.887C12 176.681 18.3186 183 26.1129 183H172.887C180.681 183 187 176.681 187 168.887V22.1129C187 14.3186 180.681 8 172.887 8Z" fill="url(#paint0_linear_54_3976)" fill-opacity="0.2"/>
<path d="M172.887 8H26.1129C18.3186 8 12 14.3186 12 22.1129V168.887C12 176.681 18.3186 183 26.1129 183H172.887C180.681 183 187 176.681 187 168.887V22.1129C187 14.3186 180.681 8 172.887 8Z" stroke="#D5EAF6" stroke-width="15" stroke-linecap="round"/>
</g>
<g filter="url(#filter1_bdd_54_3976)">
<path d="M50 61H145C147.762 61 150 63.2375 150 66V131C150 133.762 147.762 136 145 136H67.5C57.835 136 50 128.165 50 118.5V61Z" fill="url(#paint1_linear_54_3976)"/>
<path d="M67.5 101H72.5C75.2625 101 77.5 98.7625 77.5 96V51C77.5 48.2375 75.2625 46 72.5 46H67.5C57.835 46 50 53.835 50 63.5V118.5C50 108.835 57.835 101 67.5 101Z" fill="url(#paint2_linear_54_3976)"/>
<path d="M86.25 113.5H133.75C134.44 113.5 135 114.06 135 114.75V117.25C135 117.94 134.44 118.5 133.75 118.5H86.25C85.56 118.5 85 117.94 85 117.25V114.75C85 114.06 85.56 113.5 86.25 113.5Z" fill="#35C1F1"/>
<path d="M88.3825 104.382L86.615 102.615C86.1275 102.127 86.1275 101.335 86.615 100.847L102.865 84.5975C103.353 84.11 104.145 84.11 104.633 84.5975L113.748 93.7125L126.98 80.48L130.515 84.015L114.633 99.8975C114.145 100.385 113.353 100.385 112.865 99.8975L103.75 90.785L90.1525 104.382C89.6625 104.872 88.8725 104.872 88.3825 104.382Z" fill="#35C1F1"/>
<path d="M122.135 78.135L132.867 88.8675C133.652 89.6525 135 89.095 135 87.9825V77.25C135 76.56 134.44 76 133.75 76H123.017C121.905 76 121.347 77.3475 122.135 78.135Z" fill="#35C1F1"/>
</g>
<defs>
<filter id="filter0_d_54_3976" x="0.5" y="0.5" width="198" height="198" filterUnits="userSpaceOnUse" color-interpolation-filters="sRGB">
<feFlood flood-opacity="0" result="BackgroundImageFix"/>
<feColorMatrix in="SourceAlpha" type="matrix" values="0 0 0 0 0 0 0 0 0 0 0 0 0 0 0 0 0 0 127 0" result="hardAlpha"/>
<feOffset dy="4"/>
<feGaussianBlur stdDeviation="2"/>
<feComposite in2="hardAlpha" operator="out"/>
<feColorMatrix type="matrix" values="0 0 0 0 0.8375 0 0 0 0 0.732812 0 0 0 0 0.732812 0 0 0 0.25 0"/>
<feBlend mode="normal" in2="BackgroundImageFix" result="effect1_dropShadow_54_3976"/>
<feBlend mode="normal" in="SourceGraphic" in2="effect1_dropShadow_54_3976" result="shape"/>
</filter>
<filter id="filter1_bdd_54_3976" x="36" y="32" width="128" height="132" filterUnits="userSpaceOnUse" color-interpolation-filters="sRGB">
<feFlood flood-opacity="0" result="BackgroundImageFix"/>
<feGaussianBlur in="BackgroundImageFix" stdDeviation="2"/>
<feComposite in2="SourceAlpha" operator="in" result="effect1_backgroundBlur_54_3976"/>
<feColorMatrix in="SourceAlpha" type="matrix" values="0 0 0 0 0 0 0 0 0 0 0 0 0 0 0 0 0 0 127 0" result="hardAlpha"/>
<feOffset dy="4"/>
<feGaussianBlur stdDeviation="2"/>
<feComposite in2="hardAlpha" operator="out"/>
<feColorMatrix type="matrix" values="0 0 0 0 1 0 0 0 0 1 0 0 0 0 1 0 0 0 0.25 0"/>
<feBlend mode="normal" in2="effect1_backgroundBlur_54_3976" result="effect2_dropShadow_54_3976"/>
<feColorMatrix in="SourceAlpha" type="matrix" values="0 0 0 0 0 0 0 0 0 0 0 0 0 0 0 0 0 0 127 0" result="hardAlpha"/>
<feOffset dy="4"/>
<feGaussianBlur stdDeviation="2"/>
<feComposite in2="hardAlpha" operator="out"/>
<feColorMatrix type="matrix" values="0 0 0 0 0 0 0 0 0 0 0 0 0 0 0 0 0 0 0.25 0"/>
<feBlend mode="normal" in2="effect2_dropShadow_54_3976" result="effect3_dropShadow_54_3976"/>
<feBlend mode="normal" in="SourceGraphic" in2="effect3_dropShadow_54_3976" result="shape"/>
</filter>
<linearGradient id="paint0_linear_54_3976" x1="99.5" y1="16.4677" x2="99.5" y2="174.532" gradientUnits="userSpaceOnUse">
<stop stop-color="white"/>
<stop offset="0.472222" stop-color="#0D5176" stop-opacity="0.527778"/>
<stop offset="0.940972" stop-color="#12A6F7" stop-opacity="0.465278"/>
<stop offset="1" stop-opacity="0"/>
</linearGradient>
<linearGradient id="paint1_linear_54_3976" x1="149.655" y1="98.5" x2="48.5175" y2="98.5" gradientUnits="userSpaceOnUse">
<stop stop-color="#0068B8"/>
<stop offset="1" stop-color="#004D94"/>
</linearGradient>
<linearGradient id="paint2_linear_54_3976" x1="50.3975" y1="82.25" x2="78.17" y2="82.25" gradientUnits="userSpaceOnUse">
<stop stop-color="#28AFEA"/>
<stop offset="1" stop-color="#0B88DA"/>
</linearGradient>
</defs>
</svg>
