<svg width="170" height="171" viewBox="0 0 170 171" fill="none" xmlns="http://www.w3.org/2000/svg">
<path d="M150 8H20C13.0964 8 7.5 13.5964 7.5 20.5V150.5C7.5 157.404 13.0964 163 20 163H150C156.904 163 162.5 157.404 162.5 150.5V20.5C162.5 13.5964 156.904 8 150 8Z" fill="white"/>
<path d="M149.5 8.5H19.5C12.5964 8.5 7 14.0964 7 21V151C7 157.904 12.5964 163.5 19.5 163.5H149.5C156.404 163.5 162 157.904 162 151V21C162 14.0964 156.404 8.5 149.5 8.5Z" fill="url(#paint0_linear_5_277)" fill-opacity="0.2"/>
<path d="M150 8H20C13.0964 8 7.5 13.5964 7.5 20.5V150.5C7.5 157.404 13.0964 163 20 163H150C156.904 163 162.5 157.404 162.5 150.5V20.5C162.5 13.5964 156.904 8 150 8Z" stroke="#D5EAF6" stroke-width="15"/>
<g filter="url(#filter0_d_5_277)">
<path d="M87.5 108.75H82.5V116.5H87.5V108.75Z" fill="url(#paint1_linear_5_277)"/>
<path d="M97.5 124H90V119C90 117.5 89 116.5 87.5 116.5H82.5C81 116.5 80 117.5 80 119V124H72.5C71 124 70 125 70 126.5V131.5C70 133 71 134 72.5 134H97.5C99 134 100 133 100 131.5V126.5C100 125 99 124 97.5 124Z" fill="#21A366"/>
<path d="M52.7499 78.2498L130 46.9998V104.5C130 107 128 108.75 125.75 108.75H52.7499V78.2498Z" fill="url(#paint2_linear_5_277)"/>
<path opacity="0.05" d="M87.5 106.5H82.5V111.25H87.5V106.5Z" fill="black"/>
<path opacity="0.07" d="M87.5 106.5H82.5V110H87.5V106.5Z" fill="black"/>
<path d="M40 44.5V104.5C40 107 42 108.75 44.25 108.75H125.75C126.75 108.75 127.75 108.25 128.5 107.75L40 44.5Z" fill="url(#paint3_linear_5_277)"/>
<path opacity="0.05" d="M40 45.5002H130V49.2502L93 78.0002C88.25 81.5002 81.75 81.5002 77.25 78.0002L40 49.2502V45.5002Z" fill="black"/>
<path opacity="0.07" d="M40 44.5H130V48.25L91.25 76.25C87.5 79 82.5 79 78.75 76.25L40 48V44.5Z" fill="black"/>
<path d="M44.25 39H125.75C128 39 130 41 130 43.5V47.25L89.75 74.25C86.75 76.25 83 76.25 80 74.25L40 47V43.5C40 41 42 39 44.25 39Z" fill="#50E6FF"/>
<path d="M127.5 126.5H100V131.5H127.5C129 131.5 130 130.5 130 129C130 127.5 129 126.5 127.5 126.5Z" fill="url(#paint4_linear_5_277)"/>
<path d="M42.5 126.5H70V131.5H42.5C41 131.5 40 130.5 40 129C40 127.5 41 126.5 42.5 126.5Z" fill="url(#paint5_linear_5_277)"/>
</g>
<defs>
<filter id="filter0_d_5_277" x="36" y="39" width="98" height="103" filterUnits="userSpaceOnUse" color-interpolation-filters="sRGB">
<feFlood flood-opacity="0" result="BackgroundImageFix"/>
<feColorMatrix in="SourceAlpha" type="matrix" values="0 0 0 0 0 0 0 0 0 0 0 0 0 0 0 0 0 0 127 0" result="hardAlpha"/>
<feOffset dy="4"/>
<feGaussianBlur stdDeviation="2"/>
<feComposite in2="hardAlpha" operator="out"/>
<feColorMatrix type="matrix" values="0 0 0 0 0 0 0 0 0 0 0 0 0 0 0 0 0 0 0.25 0"/>
<feBlend mode="normal" in2="BackgroundImageFix" result="effect1_dropShadow_5_277"/>
<feBlend mode="normal" in="SourceGraphic" in2="effect1_dropShadow_5_277" result="shape"/>
</filter>
<linearGradient id="paint0_linear_5_277" x1="84.5" y1="16" x2="84.5" y2="156" gradientUnits="userSpaceOnUse">
<stop stop-color="#199AE0"/>
<stop offset="0.472222" stop-color="#0D5176" stop-opacity="0.527778"/>
<stop offset="0.940972" stop-color="#12A6F7" stop-opacity="0.465278"/>
<stop offset="1" stop-opacity="0"/>
</linearGradient>
<linearGradient id="paint1_linear_5_277" x1="85.0275" y1="117.192" x2="85.0275" y2="108.085" gradientUnits="userSpaceOnUse">
<stop stop-color="#484B4F"/>
<stop offset="0.23" stop-color="#656D75"/>
<stop offset="0.367" stop-color="#727D86"/>
</linearGradient>
<linearGradient id="paint2_linear_5_277" x1="79.6799" y1="60.3373" x2="131.642" y2="138.11" gradientUnits="userSpaceOnUse">
<stop stop-color="#28AFEA"/>
<stop offset="1" stop-color="#0B88DA"/>
</linearGradient>
<linearGradient id="paint3_linear_5_277" x1="35.9425" y1="73.185" x2="112.138" y2="120.648" gradientUnits="userSpaceOnUse">
<stop stop-color="#28AFEA"/>
<stop offset="1" stop-color="#0B88DA"/>
</linearGradient>
<linearGradient id="paint4_linear_5_277" x1="100" y1="129" x2="130" y2="129" gradientUnits="userSpaceOnUse">
<stop stop-color="#484B4F"/>
<stop offset="0.23" stop-color="#656D75"/>
<stop offset="0.367" stop-color="#727D86"/>
</linearGradient>
<linearGradient id="paint5_linear_5_277" x1="70" y1="129" x2="40" y2="129" gradientUnits="userSpaceOnUse">
<stop stop-color="#484B4F"/>
<stop offset="0.23" stop-color="#656D75"/>
<stop offset="0.367" stop-color="#727D86"/>
</linearGradient>
</defs>
</svg>
