<svg width="170" height="170" viewBox="0 0 170 170" fill="none" xmlns="http://www.w3.org/2000/svg">
<g id="account">
<rect x="7.5" y="7.5" width="155" height="155" rx="12.5" fill="white"/>
<rect x="7.5" y="7.5" width="155" height="155" rx="12.5" fill="url(#paint0_linear_1_2525)" fill-opacity="0.2"/>
<path id="Vector" d="M143.333 52.9167V137.5H120V52.9167C120 51.3067 121.307 50 122.917 50H140.417C142.027 50 143.333 51.3067 143.333 52.9167Z" fill="#50E6FF"/>
<path id="Vector_2" d="M36.2712 70.5644L66.9137 39.9219L74.6633 47.6715L44.0208 78.314C42.8804 79.4544 41.0342 79.4544 39.8967 78.314L36.2712 74.6885C35.1308 73.551 35.1308 71.7048 36.2712 70.5644Z" fill="#50E6FF"/>
<path id="Vector_3" d="M120 67.5V137.5H96.6667V70.4167C96.6667 68.8067 97.9733 67.5 99.5833 67.5H120Z" fill="#35C1F1"/>
<path id="Vector_4" d="M96.6667 85V137.5H73.3333V87.9167C73.3333 86.3067 74.64 85 76.25 85H96.6667Z" fill="#199BE2"/>
<path id="Vector_5" d="M73.3333 102.5V137.5H50V105.417C50 103.807 51.3067 102.5 52.9167 102.5H73.3333Z" fill="#0078D4"/>
<path id="Vector_6" d="M50 120V137.5H26.6667V122.917C26.6667 121.307 27.9733 120 29.5833 120H50Z" fill="#0D62AB"/>
<path id="Vector_7" d="M79.1667 58.1476V38.3346C79.1667 36.7246 77.86 35.418 76.25 35.418H56.4371C55.1392 35.418 54.4858 36.9901 55.4046 37.9088L76.6758 59.1801C77.5946 60.0959 79.1667 59.4455 79.1667 58.1476Z" fill="#50E6FF"/>
<rect x="7.5" y="7.5" width="155" height="155" rx="12.5" stroke="#D5EAF6" stroke-width="15"/>
</g>
<defs>
<linearGradient id="paint0_linear_1_2525" x1="85" y1="15" x2="85" y2="155" gradientUnits="userSpaceOnUse">
<stop stop-color="#199AE0"/>
<stop offset="0.472222" stop-color="#0D5176" stop-opacity="0.527778"/>
<stop offset="0.940972" stop-color="#12A6F7" stop-opacity="0.465278"/>
<stop offset="1" stop-opacity="0"/>
</linearGradient>
</defs>
</svg>
