<svg width="170" height="170" viewBox="0 0 170 170" fill="none" xmlns="http://www.w3.org/2000/svg">
<g id="accounting">
<rect x="7.5" y="7.5" width="155" height="155" rx="12.5" fill="white"/>
<rect x="7.5" y="7.5" width="155" height="155" rx="12.5" fill="url(#paint0_linear_1_2533)" fill-opacity="0.2"/>
<path id="Vector" d="M125.833 26.668H90.8333C90.8333 29.8909 88.2229 32.5013 85 32.5013C81.7771 32.5013 79.1667 29.8909 79.1667 26.668H44.1667C40.9437 26.668 38.3333 29.2784 38.3333 32.5013V137.501C38.3333 140.724 40.9437 143.335 44.1667 143.335H125.833C129.056 143.335 131.667 140.724 131.667 137.501V32.5013C131.667 29.2784 129.056 26.668 125.833 26.668Z" fill="url(#paint1_linear_1_2533)"/>
<path id="Vector_2" d="M122.917 137.499H47.0833C45.4733 137.499 44.1667 136.192 44.1667 134.582V108.332H125.833V134.582C125.833 136.192 124.527 137.499 122.917 137.499Z" fill="url(#paint2_linear_1_2533)"/>
<path id="Vector_3" d="M122.917 131.667H47.0833C45.4733 131.667 44.1667 130.36 44.1667 128.75V35.4167C44.1667 33.8067 45.4733 32.5 47.0833 32.5H122.917C124.527 32.5 125.833 33.8067 125.833 35.4167V128.75C125.833 130.36 124.527 131.667 122.917 131.667Z" fill="#F3F3F3"/>
<path id="Vector_4" d="M105.417 38.332V26.6654H93.2133C92.0087 23.2733 88.8033 20.832 85 20.832C81.1967 20.832 77.9912 23.2733 76.7867 26.6654H64.5833V38.332C64.5833 39.942 65.89 41.2487 67.5 41.2487H102.5C104.11 41.2487 105.417 39.942 105.417 38.332ZM85 26.6654C86.61 26.6654 87.9167 27.972 87.9167 29.582C87.9167 31.192 86.61 32.4987 85 32.4987C83.39 32.4987 82.0833 31.192 82.0833 29.582C82.0833 27.972 83.39 26.6654 85 26.6654Z" fill="url(#paint3_linear_1_2533)"/>
<path id="Vector_5" d="M90.8333 51.4583V76.25H82.0833V51.4583C82.0833 50.6533 82.7367 50 83.5417 50H89.375C90.18 50 90.8333 50.6533 90.8333 51.4583Z" fill="#35C1F1"/>
<path id="Vector_6" d="M82.0833 55.832V76.2487H73.3333V57.2904C73.3333 56.4854 73.9867 55.832 74.7917 55.832H82.0833Z" fill="#199BE2"/>
<path id="Vector_7" d="M73.3333 61.668V76.2513H64.5833V63.1263C64.5833 62.3213 65.2367 61.668 66.0417 61.668H73.3333Z" fill="#0078D4"/>
<path id="Vector_8" d="M64.5833 67.5V76.25H55.8333V68.9583C55.8333 68.1533 56.4867 67.5 57.2917 67.5H64.5833Z" fill="#0D62AB"/>
<path id="Vector_9" d="M58.75 105.418C58.75 113.471 65.2804 120.001 73.3333 120.001C81.3863 120.001 87.9167 113.471 87.9167 105.418H73.3333H58.75Z" fill="#D35230"/>
<path id="Vector_10" d="M73.3333 90.832V105.415H87.9167C87.9167 97.3624 81.3862 90.832 73.3333 90.832Z" fill="#FF8F6B"/>
<path id="Vector_11" d="M73.3333 90.832C65.2804 90.832 58.75 97.3624 58.75 105.415H73.3333V90.832Z" fill="#ED6C47"/>
<path id="Vector_12" opacity="0.05" d="M131.667 79.168H99.5833C96.3604 79.168 93.75 81.7784 93.75 85.0013V137.501C93.75 140.724 96.3604 143.335 99.5833 143.335H131.667V79.168Z" fill="black"/>
<path id="Vector_13" opacity="0.07" d="M131.667 82.082H101.042C98.6267 82.082 96.6667 84.042 96.6667 86.457V138.957C96.6667 141.372 98.6267 143.332 101.042 143.332H131.667V82.082Z" fill="black"/>
<path id="Vector_14" d="M140.417 85H102.5C100.89 85 99.5833 86.3067 99.5833 87.9167V140.417C99.5833 142.027 100.89 143.333 102.5 143.333H140.417C142.027 143.333 143.333 142.027 143.333 140.417V87.9167C143.333 86.3067 142.027 85 140.417 85Z" fill="url(#paint4_linear_1_2533)"/>
<path id="Vector_15" d="M136.042 99.582H106.875C106.07 99.582 105.417 98.9287 105.417 98.1237V92.2904C105.417 91.4854 106.07 90.832 106.875 90.832H136.042C136.847 90.832 137.5 91.4854 137.5 92.2904V98.1237C137.5 98.9287 136.847 99.582 136.042 99.582Z" fill="url(#paint5_linear_1_2533)"/>
<path id="Vector_16" d="M124.375 114.168H118.542C117.737 114.168 117.083 113.515 117.083 112.71V106.876C117.083 106.071 117.737 105.418 118.542 105.418H124.375C125.18 105.418 125.833 106.071 125.833 106.876V112.71C125.833 113.515 125.18 114.168 124.375 114.168Z" fill="#CAD2D9"/>
<path id="Vector_17" d="M112.708 114.168H106.875C106.07 114.168 105.417 113.515 105.417 112.71V106.876C105.417 106.071 106.07 105.418 106.875 105.418H112.708C113.513 105.418 114.167 106.071 114.167 106.876V112.71C114.167 113.515 113.513 114.168 112.708 114.168Z" fill="#CAD2D9"/>
<path id="Vector_18" d="M124.375 125.832H118.542C117.737 125.832 117.083 125.179 117.083 124.374V118.54C117.083 117.735 117.737 117.082 118.542 117.082H124.375C125.18 117.082 125.833 117.735 125.833 118.54V124.374C125.833 125.179 125.18 125.832 124.375 125.832Z" fill="#CAD2D9"/>
<path id="Vector_19" d="M112.708 125.832H106.875C106.07 125.832 105.417 125.179 105.417 124.374V118.54C105.417 117.735 106.07 117.082 106.875 117.082H112.708C113.513 117.082 114.167 117.735 114.167 118.54V124.374C114.167 125.179 113.513 125.832 112.708 125.832Z" fill="#CAD2D9"/>
<path id="Vector_20" d="M124.375 137.5H118.542C117.737 137.5 117.083 136.847 117.083 136.042V130.208C117.083 129.403 117.737 128.75 118.542 128.75H124.375C125.18 128.75 125.833 129.403 125.833 130.208V136.042C125.833 136.847 125.18 137.5 124.375 137.5Z" fill="#CAD2D9"/>
<path id="Vector_21" d="M112.708 137.5H106.875C106.07 137.5 105.417 136.847 105.417 136.042V130.208C105.417 129.403 106.07 128.75 106.875 128.75H112.708C113.513 128.75 114.167 129.403 114.167 130.208V136.042C114.167 136.847 113.513 137.5 112.708 137.5Z" fill="#CAD2D9"/>
<path id="Vector_22" d="M136.042 114.168H130.208C129.403 114.168 128.75 113.515 128.75 112.71V106.876C128.75 106.071 129.403 105.418 130.208 105.418H136.042C136.847 105.418 137.5 106.071 137.5 106.876V112.71C137.5 113.515 136.847 114.168 136.042 114.168Z" fill="#CAD2D9"/>
<path id="Vector_23" d="M136.042 137.499H130.208C129.403 137.499 128.75 136.845 128.75 136.04V118.54C128.75 117.735 129.403 117.082 130.208 117.082H136.042C136.847 117.082 137.5 117.735 137.5 118.54V136.04C137.5 136.845 136.847 137.499 136.042 137.499Z" fill="url(#paint6_linear_1_2533)"/>
<path id="Vector_24" d="M112.708 64.5833H98.125C97.32 64.5833 96.6667 63.93 96.6667 63.125V60.2083C96.6667 59.4033 97.32 58.75 98.125 58.75H112.708C113.513 58.75 114.167 59.4033 114.167 60.2083V63.125C114.167 63.93 113.513 64.5833 112.708 64.5833Z" fill="#E0E0E0"/>
<path id="Vector_25" d="M112.708 76.2513H98.125C97.32 76.2513 96.6667 75.598 96.6667 74.793V71.8763C96.6667 71.0713 97.32 70.418 98.125 70.418H112.708C113.513 70.418 114.167 71.0713 114.167 71.8763V74.793C114.167 75.598 113.513 76.2513 112.708 76.2513Z" fill="#E0E0E0"/>
<rect x="7.5" y="7.5" width="155" height="155" rx="12.5" stroke="#D5EAF6" stroke-width="15"/>
</g>
<defs>
<linearGradient id="paint0_linear_1_2533" x1="85" y1="15" x2="85" y2="155" gradientUnits="userSpaceOnUse">
<stop stop-color="#199AE0"/>
<stop offset="0.472222" stop-color="#0D5176" stop-opacity="0.527778"/>
<stop offset="0.940972" stop-color="#12A6F7" stop-opacity="0.465278"/>
<stop offset="1" stop-opacity="0"/>
</linearGradient>
<linearGradient id="paint1_linear_1_2533" x1="64.175" y1="19.4726" x2="101.263" y2="136.177" gradientUnits="userSpaceOnUse">
<stop stop-color="#C77740"/>
<stop offset="1" stop-color="#B0622B"/>
</linearGradient>
<linearGradient id="paint2_linear_1_2533" x1="85" y1="122.816" x2="85" y2="134.27" gradientUnits="userSpaceOnUse">
<stop offset="0.442" stop-color="#878786"/>
<stop offset="0.594" stop-color="#9F9F9E"/>
<stop offset="0.859" stop-color="#C3C3C3"/>
<stop offset="1" stop-color="#D1D1D1"/>
</linearGradient>
<linearGradient id="paint3_linear_1_2533" x1="87.7125" y1="43.9554" x2="82.2175" y2="21.0974" gradientUnits="userSpaceOnUse">
<stop stop-color="#C3CDD9"/>
<stop offset="1" stop-color="#9FA7B0"/>
</linearGradient>
<linearGradient id="paint4_linear_1_2533" x1="101.307" y1="86.2804" x2="140.207" y2="140.113" gradientUnits="userSpaceOnUse">
<stop stop-color="#899198"/>
<stop offset="1" stop-color="#787E85"/>
</linearGradient>
<linearGradient id="paint5_linear_1_2533" x1="109.057" y1="89.4612" x2="136.535" y2="102.19" gradientUnits="userSpaceOnUse">
<stop stop-color="#4FE5FF"/>
<stop offset="1" stop-color="#2EB7ED"/>
</linearGradient>
<linearGradient id="paint6_linear_1_2533" x1="133.125" y1="117.884" x2="133.125" y2="136.977" gradientUnits="userSpaceOnUse">
<stop stop-color="#11498A"/>
<stop offset="1" stop-color="#0F417A"/>
</linearGradient>
</defs>
</svg>
