<svg width="170" height="170" viewBox="0 0 170 170" fill="none" xmlns="http://www.w3.org/2000/svg">
<g id="add-shopping-cart">
<g clip-path="url(#clip0_1_2590)">
<rect x="15" y="15" width="140" height="140" rx="5" fill="white"/>
<rect x="15" y="15" width="140" height="140" rx="5" fill="url(#paint0_linear_1_2590)" fill-opacity="0.2"/>
<path id="Vector" d="M42.6092 87.5592C41.2529 87.5592 40.0396 86.6113 39.7537 85.2288L31.66 45.9092C31.1029 43.2113 28.6996 41.2513 25.9462 41.2513H20.8333C19.2204 41.2513 17.9167 39.9476 17.9167 38.3346C17.9167 36.7217 19.2204 35.418 20.8333 35.418H25.9462C31.4587 35.418 36.2625 39.3351 37.3737 44.7338L45.4675 84.0534C45.7912 85.6284 44.7762 87.1713 43.1983 87.498C43.0029 87.5388 42.8017 87.5592 42.6092 87.5592Z" fill="url(#paint1_linear_1_2590)"/>
<path id="Vector_2" d="M122.917 143.332C127.749 143.332 131.667 139.415 131.667 134.582C131.667 129.75 127.749 125.832 122.917 125.832C118.084 125.832 114.167 129.75 114.167 134.582C114.167 139.415 118.084 143.332 122.917 143.332Z" fill="#5C5F61"/>
<path id="Vector_3" opacity="0.15" d="M122.917 137.501C124.527 137.501 125.833 136.195 125.833 134.585C125.833 132.974 124.527 131.668 122.917 131.668C121.306 131.668 120 132.974 120 134.585C120 136.195 121.306 137.501 122.917 137.501Z" fill="black"/>
<path id="Vector_4" d="M58.75 143.332C63.5825 143.332 67.5 139.415 67.5 134.582C67.5 129.75 63.5825 125.832 58.75 125.832C53.9175 125.832 50 129.75 50 134.582C50 139.415 53.9175 143.332 58.75 143.332Z" fill="#5C5F61"/>
<path id="Vector_5" opacity="0.15" d="M58.75 137.501C60.3608 137.501 61.6667 136.195 61.6667 134.585C61.6667 132.974 60.3608 131.668 58.75 131.668C57.1392 131.668 55.8333 132.974 55.8333 134.585C55.8333 136.195 57.1392 137.501 58.75 137.501Z" fill="black"/>
<path id="Vector_6" d="M134.583 128.751H52.9167C46.4825 128.751 41.25 123.519 41.25 117.085C41.25 110.65 46.4825 105.418 52.9167 105.418H125.833C127.446 105.418 128.75 106.722 128.75 108.335C128.75 109.948 127.446 111.251 125.833 111.251H52.9167C49.6996 111.251 47.0833 113.868 47.0833 117.085C47.0833 120.302 49.6996 122.918 52.9167 122.918H134.583C136.196 122.918 137.5 124.222 137.5 125.835C137.5 127.448 136.196 128.751 134.583 128.751Z" fill="url(#paint2_linear_1_2590)"/>
<path id="Vector_7" d="M26.6667 38.3333C26.6667 41.5533 24.0533 44.1667 20.8333 44.1667C17.6133 44.1667 15 41.5533 15 38.3333C15 35.1133 17.6133 32.5 20.8333 32.5C24.0533 32.5 26.6667 35.1133 26.6667 38.3333Z" fill="url(#paint3_linear_1_2590)"/>
<path id="Vector_8" d="M43.2625 106.506C43.7875 109.259 46.1937 111.248 48.9937 111.248H132.559C135.412 111.248 137.844 109.186 138.314 106.374L144.331 70.269L34.7546 61.8398L43.2625 106.506Z" fill="url(#paint4_linear_1_2590)"/>
<path id="Vector_9" d="M143.074 58.505L32.5 50L34.7546 61.8417L144.328 70.2708L145.725 61.8942C146.008 60.2054 144.78 58.6363 143.074 58.505Z" fill="url(#paint5_linear_1_2590)"/>
<path id="Vector_10" opacity="0.05" d="M103.958 82.0846H96.6667V74.793C96.6667 72.378 94.7067 70.418 92.2917 70.418H89.375C86.96 70.418 85 72.378 85 74.793V82.0846H77.7083C75.2933 82.0846 73.3333 84.0446 73.3333 86.4596V89.3763C73.3333 91.7913 75.2933 93.7513 77.7083 93.7513H85V101.043C85 103.458 86.96 105.418 89.375 105.418H92.2917C94.7067 105.418 96.6667 103.458 96.6667 101.043V93.7513H103.958C106.373 93.7513 108.333 91.7913 108.333 89.3763V86.4596C108.333 84.0446 106.373 82.0846 103.958 82.0846Z" fill="black"/>
<path id="Vector_11" opacity="0.07" d="M103.958 83.5417H95.2083V74.7917C95.2083 73.1817 93.9017 71.875 92.2917 71.875H89.375C87.765 71.875 86.4583 73.1817 86.4583 74.7917V83.5417H77.7083C76.0983 83.5417 74.7917 84.8483 74.7917 86.4583V89.375C74.7917 90.985 76.0983 92.2917 77.7083 92.2917H86.4583V101.042C86.4583 102.652 87.765 103.958 89.375 103.958H92.2917C93.9017 103.958 95.2083 102.652 95.2083 101.042V92.2917H103.958C105.568 92.2917 106.875 90.985 106.875 89.375V86.4583C106.875 84.8483 105.568 83.5417 103.958 83.5417Z" fill="black"/>
<path id="Vector_12" d="M92.2917 102.499H89.375C88.57 102.499 87.9167 101.845 87.9167 101.04V74.7904C87.9167 73.9854 88.57 73.332 89.375 73.332H92.2917C93.0967 73.332 93.75 73.9854 93.75 74.7904V101.04C93.75 101.845 93.0967 102.499 92.2917 102.499Z" fill="white"/>
<path id="Vector_13" d="M76.25 89.375V86.4583C76.25 85.6533 76.9033 85 77.7083 85H103.958C104.763 85 105.417 85.6533 105.417 86.4583V89.375C105.417 90.18 104.763 90.8333 103.958 90.8333H77.7083C76.9033 90.8333 76.25 90.18 76.25 89.375Z" fill="white"/>
</g>
<rect x="7.5" y="7.5" width="155" height="155" rx="12.5" stroke="#D5EAF6" stroke-width="15"/>
</g>
<defs>
<linearGradient id="paint0_linear_1_2590" x1="85" y1="15" x2="85" y2="155" gradientUnits="userSpaceOnUse">
<stop stop-color="#199AE0"/>
<stop offset="0.472222" stop-color="#0D5176" stop-opacity="0.527778"/>
<stop offset="0.940972" stop-color="#12A6F7" stop-opacity="0.465278"/>
<stop offset="1" stop-opacity="0"/>
</linearGradient>
<linearGradient id="paint1_linear_1_2590" x1="31.7242" y1="87.5592" x2="31.7242" y2="35.418" gradientUnits="userSpaceOnUse">
<stop stop-color="#92A3B0"/>
<stop offset="0.015" stop-color="#A3B5C4"/>
<stop offset="0.032" stop-color="#AEC2D1"/>
<stop offset="0.046" stop-color="#B2C6D6"/>
</linearGradient>
<linearGradient id="paint2_linear_1_2590" x1="89.375" y1="128.751" x2="89.375" y2="105.418" gradientUnits="userSpaceOnUse">
<stop stop-color="#92A3B0"/>
<stop offset="0.015" stop-color="#A3B5C4"/>
<stop offset="0.032" stop-color="#AEC2D1"/>
<stop offset="0.046" stop-color="#B2C6D6"/>
</linearGradient>
<linearGradient id="paint3_linear_1_2590" x1="17.205" y1="34.705" x2="24.87" y2="42.37" gradientUnits="userSpaceOnUse">
<stop stop-color="#199AE0"/>
<stop offset="1" stop-color="#0782D8"/>
</linearGradient>
<linearGradient id="paint4_linear_1_2590" x1="34.7546" y1="86.544" x2="144.331" y2="86.544" gradientUnits="userSpaceOnUse">
<stop stop-color="#3079D6"/>
<stop offset="1" stop-color="#297CD2"/>
</linearGradient>
<linearGradient id="paint5_linear_1_2590" x1="32.5" y1="60.1354" x2="145.766" y2="60.1354" gradientUnits="userSpaceOnUse">
<stop stop-color="#42A3F2"/>
<stop offset="1" stop-color="#42A4EB"/>
</linearGradient>
<clipPath id="clip0_1_2590">
<rect x="15" y="15" width="140" height="140" rx="5" fill="white"/>
</clipPath>
</defs>
</svg>
