<svg width="170" height="170" viewBox="0 0 170 170" fill="none" xmlns="http://www.w3.org/2000/svg">
<g id="add-image">
<rect x="7.5" y="7.5" width="155" height="155" rx="12.5" fill="white"/>
<rect x="7.5" y="7.5" width="155" height="155" rx="12.5" fill="url(#paint0_linear_1_2565)" fill-opacity="0.2"/>
<path id="Vector" d="M131.667 32.5H38.3333C35.1104 32.5 32.5 35.1104 32.5 38.3333V125.833C32.5 129.056 35.1104 131.667 38.3333 131.667H131.667C134.89 131.667 137.5 129.056 137.5 125.833V38.3333C137.5 35.1104 134.89 32.5 131.667 32.5Z" fill="#50E6FF"/>
<path id="Vector_2" d="M108.523 82.2733C105.172 78.9221 99.7583 78.8491 96.3167 82.1071L67.5 109.407V137.5H131.667C134.89 137.5 137.5 134.89 137.5 131.667V111.25L108.523 82.2733Z" fill="url(#paint1_linear_1_2565)"/>
<path id="Vector_3" d="M103.958 67.4987C109.596 67.4987 114.167 62.9283 114.167 57.2904C114.167 51.6525 109.596 47.082 103.958 47.082C98.3204 47.082 93.75 51.6525 93.75 57.2904C93.75 62.9283 98.3204 67.4987 103.958 67.4987Z" fill="#FFF8DE"/>
<path id="Vector_4" d="M38.3333 137.499H131.667C134.032 137.499 136.062 136.085 136.975 134.057L73.5229 70.6053C70.1717 67.2541 64.7583 67.1812 61.3167 70.4391L32.5 97.7391V131.666C32.5 134.889 35.1104 137.499 38.3333 137.499Z" fill="url(#paint2_linear_1_2565)"/>
<path id="Vector_5" opacity="0.3" d="M137.5 137.499V92.8649C133.845 91.5729 129.931 90.832 125.833 90.832C106.505 90.832 90.8333 106.503 90.8333 125.832C90.8333 129.93 91.5742 133.844 92.8663 137.499H137.5Z" fill="url(#paint3_radial_1_2565)"/>
<path id="Vector_6" d="M125.833 155.001C141.942 155.001 155 141.943 155 125.835C155 109.726 141.942 96.668 125.833 96.668C109.725 96.668 96.6667 109.726 96.6667 125.835C96.6667 141.943 109.725 155.001 125.833 155.001Z" fill="url(#paint4_linear_1_2565)"/>
<path id="Vector_7" d="M127.292 140.417H124.375C123.57 140.417 122.917 139.763 122.917 138.958V112.708C122.917 111.903 123.57 111.25 124.375 111.25H127.292C128.097 111.25 128.75 111.903 128.75 112.708V138.958C128.75 139.763 128.097 140.417 127.292 140.417Z" fill="white"/>
<path id="Vector_8" d="M111.25 127.293V124.376C111.25 123.571 111.903 122.918 112.708 122.918H138.958C139.763 122.918 140.417 123.571 140.417 124.376V127.293C140.417 128.098 139.763 128.751 138.958 128.751H112.708C111.903 128.751 111.25 128.098 111.25 127.293Z" fill="white"/>
<rect x="7.5" y="7.5" width="155" height="155" rx="12.5" stroke="#D5EAF6" stroke-width="15"/>
</g>
<defs>
<linearGradient id="paint0_linear_1_2565" x1="85" y1="15" x2="85" y2="155" gradientUnits="userSpaceOnUse">
<stop stop-color="#199AE0"/>
<stop offset="0.472222" stop-color="#0D5176" stop-opacity="0.527778"/>
<stop offset="0.940972" stop-color="#12A6F7" stop-opacity="0.465278"/>
<stop offset="1" stop-opacity="0"/>
</linearGradient>
<linearGradient id="paint1_linear_1_2565" x1="67.5" y1="108.605" x2="137.5" y2="108.605" gradientUnits="userSpaceOnUse">
<stop stop-color="#3CCBF4"/>
<stop offset="1" stop-color="#1FA0E5"/>
</linearGradient>
<linearGradient id="paint2_linear_1_2565" x1="84.7375" y1="68.0416" x2="84.7375" y2="137.499" gradientUnits="userSpaceOnUse">
<stop stop-color="#28AFEA"/>
<stop offset="1" stop-color="#0B88DA"/>
</linearGradient>
<radialGradient id="paint3_radial_1_2565" cx="0" cy="0" r="1" gradientUnits="userSpaceOnUse" gradientTransform="translate(125.828 125.925) scale(35.5425)">
<stop offset="0.348"/>
<stop offset="0.936" stop-opacity="0.098"/>
<stop offset="1" stop-opacity="0"/>
</radialGradient>
<linearGradient id="paint4_linear_1_2565" x1="96.6667" y1="125.835" x2="155" y2="125.835" gradientUnits="userSpaceOnUse">
<stop stop-color="#21AD64"/>
<stop offset="1" stop-color="#088242"/>
</linearGradient>
</defs>
</svg>
