<svg width="170" height="170" viewBox="0 0 170 170" fill="none" xmlns="http://www.w3.org/2000/svg">
<g id="address-book-2">
<rect x="7.5" y="7.5" width="155" height="155" rx="12.5" fill="white"/>
<rect x="7.5" y="7.5" width="155" height="155" rx="12.5" fill="url(#paint0_linear_1_2580)" fill-opacity="0.2"/>
<path id="Vector" d="M134.583 32.5013V137.501C134.583 140.724 131.973 143.335 128.75 143.335H114.167V26.668H128.75C131.973 26.668 134.583 29.2784 134.583 32.5013Z" fill="#1783BD"/>
<path id="Vector_2" d="M128.75 32.5013V137.501C128.75 140.724 126.14 143.335 122.917 143.335H105.417V26.668H122.917C126.14 26.668 128.75 29.2784 128.75 32.5013Z" fill="url(#paint1_linear_1_2580)"/>
<path id="Vector_3" d="M35.4167 32.5013V137.501C35.4167 140.724 38.0271 143.335 41.25 143.335H47.0833V26.668H41.25C38.0271 26.668 35.4167 29.2784 35.4167 32.5013Z" fill="url(#paint2_linear_1_2580)"/>
<path id="Vector_4" d="M117.083 26.668H47.0833V143.335H117.083C120.306 143.335 122.917 140.724 122.917 137.501V32.5013C122.917 29.2784 120.306 26.668 117.083 26.668Z" fill="url(#paint3_linear_1_2580)"/>
<path id="Vector_5" opacity="0.15" d="M85 82.0846C93.0542 82.0846 99.5833 75.5555 99.5833 67.5013C99.5833 59.4471 93.0542 52.918 85 52.918C76.9459 52.918 70.4167 59.4471 70.4167 67.5013C70.4167 75.5555 76.9459 82.0846 85 82.0846Z" fill="url(#paint4_radial_1_2580)"/>
<path id="Vector_6" opacity="0.05" d="M64.5833 105.415V111.581C64.5833 114.617 67.0479 117.082 70.0842 117.082H99.9129C102.952 117.082 105.417 114.617 105.417 111.581V105.415C105.417 90.832 96.2758 82.082 85 82.082C73.7242 82.082 64.5833 90.832 64.5833 105.415Z" fill="black"/>
<path id="Vector_7" opacity="0.07" d="M66.0417 104.326V111.417C66.0417 113.741 67.9258 115.625 70.2504 115.625H99.7496C102.074 115.625 103.958 113.741 103.958 111.417V103.959C103.958 91.7437 95.325 83.3962 84.7317 83.5449C74.3046 83.6908 66.0417 92.2424 66.0417 104.326Z" fill="black"/>
<path id="Vector_8" d="M85 79.1654C91.4433 79.1654 96.6667 73.942 96.6667 67.4987C96.6667 61.0554 91.4433 55.832 85 55.832C78.5567 55.832 73.3333 61.0554 73.3333 67.4987C73.3333 73.942 78.5567 79.1654 85 79.1654Z" fill="white"/>
<path id="Vector_9" d="M102.5 102.499C102.5 92.6556 94.3713 84.7106 84.4604 85.0081C74.885 85.2939 67.5 93.6502 67.5 103.234V111.249C67.5 112.859 68.8067 114.166 70.4167 114.166H99.5833C101.193 114.166 102.5 112.859 102.5 111.249V102.499Z" fill="white"/>
<rect x="7.5" y="7.5" width="155" height="155" rx="12.5" stroke="#D5EAF6" stroke-width="15"/>
</g>
<defs>
<linearGradient id="paint0_linear_1_2580" x1="85" y1="15" x2="85" y2="155" gradientUnits="userSpaceOnUse">
<stop stop-color="#199AE0"/>
<stop offset="0.472222" stop-color="#0D5176" stop-opacity="0.527778"/>
<stop offset="0.940972" stop-color="#12A6F7" stop-opacity="0.465278"/>
<stop offset="1" stop-opacity="0"/>
</linearGradient>
<linearGradient id="paint1_linear_1_2580" x1="117.002" y1="85.0013" x2="126.166" y2="85.0013" gradientUnits="userSpaceOnUse">
<stop offset="0.441" stop-color="#999998"/>
<stop offset="0.653" stop-color="#C1C1C0"/>
<stop offset="0.88" stop-color="#E5E5E5"/>
<stop offset="1" stop-color="#F3F3F3"/>
</linearGradient>
<linearGradient id="paint2_linear_1_2580" x1="25.6108" y1="40.003" x2="60.7654" y2="135.766" gradientUnits="userSpaceOnUse">
<stop stop-color="#0176D0"/>
<stop offset="1" stop-color="#16538C"/>
</linearGradient>
<linearGradient id="paint3_linear_1_2580" x1="63.9417" y1="30.0338" x2="106.044" y2="144.72" gradientUnits="userSpaceOnUse">
<stop stop-color="#0176D0"/>
<stop offset="1" stop-color="#22A5E2"/>
</linearGradient>
<radialGradient id="paint4_radial_1_2580" cx="0" cy="0" r="1" gradientUnits="userSpaceOnUse" gradientTransform="translate(85 67.5013) scale(14.5833)">
<stop offset="0.486"/>
<stop offset="1" stop-opacity="0"/>
</radialGradient>
</defs>
</svg>
