<svg width="170" height="170" viewBox="0 0 170 170" fill="none" xmlns="http://www.w3.org/2000/svg">
<g id="administrator-male">
<rect x="7.5" y="7.5" width="155" height="155" rx="12.5" fill="white"/>
<rect x="7.5" y="7.5" width="155" height="155" rx="12.5" fill="url(#paint0_linear_1_2632)" fill-opacity="0.2"/>
<path id="Vector" d="M85 104.164C59.2254 104.164 38.3333 118.517 38.3333 134.165V137.499C38.3333 140.722 40.9437 143.332 44.1667 143.332H125.833C129.056 143.332 131.667 140.722 131.667 137.499V134.165C131.667 118.517 110.775 104.164 85 104.164Z" fill="url(#paint1_linear_1_2632)"/>
<path id="Vector_2" d="M99.5833 102.729C99.5833 125.806 85 137.499 85 137.499C85 137.499 70.4167 125.806 70.4167 102.729C70.4167 95.0379 70.4167 90.832 70.4167 90.832H99.5833C99.5833 90.832 99.5833 95.0379 99.5833 102.729Z" fill="white"/>
<path id="Vector_3" d="M99.5833 102.729C99.5833 125.806 85 137.499 85 137.499C85 137.499 70.4167 125.806 70.4167 102.729C70.4167 95.0379 70.4167 90.832 70.4167 90.832H99.5833C99.5833 90.832 99.5833 95.0379 99.5833 102.729Z" fill="white"/>
<path id="Vector_4" d="M99.5833 102.499C99.5833 108.032 85 114.166 85 114.166C85 114.166 70.4167 108.032 70.4167 102.499C70.4167 94.808 70.4167 81.9805 70.4167 81.9805H99.5833C99.5833 81.9805 99.5833 94.808 99.5833 102.499Z" fill="#D6A121"/>
<path id="Vector_5" d="M79.1667 117.085L82.0833 120.001L79.8054 131.805C82.6288 135.573 85 137.501 85 137.501C85 137.501 87.3713 135.573 90.1946 131.805L87.9167 120.001L90.8333 117.085L85 114.168L79.1667 117.085Z" fill="#D32F2F"/>
<path id="Vector_6" d="M111.005 67.5H109.468V79.1667H111.518C113.02 79.1667 114.301 78.2567 114.555 77.0083L115.558 72.0412C116.039 69.6671 113.866 67.5 111.005 67.5Z" fill="url(#paint2_linear_1_2632)"/>
<path id="Vector_7" d="M58.995 67.5H60.5321V79.1667H58.4817C56.9796 79.1667 55.6992 78.2567 55.4454 77.0083L54.4421 72.0412C53.9608 69.6671 56.1337 67.5 58.995 67.5Z" fill="url(#paint3_linear_1_2632)"/>
<path id="Vector_8" d="M85 33.668C72.0471 33.668 58.75 35.6367 58.75 63.6367C58.75 65.8767 58.75 80.778 58.75 83.1726C58.75 93.168 74.5 105.418 85 105.418C95.5 105.418 111.25 93.168 111.25 83.1726C111.25 80.778 111.25 65.8796 111.25 63.6367C111.25 35.6367 97.9529 33.668 85 33.668Z" fill="url(#paint4_radial_1_2632)"/>
<path id="Vector_9" d="M85 31.1719C72.3008 31.1719 70.4167 35.9435 70.4167 35.9435C65.2542 36.7048 55.8333 44.2677 55.8333 52.9127C55.8333 57.7369 56.6062 61.301 58.75 73.3294C60.3396 54.2398 65.3096 47.0794 70.4167 47.0794C74.1121 47.0794 77.0462 49.996 85 49.996C91.7171 49.996 93.3854 47.0794 99.5833 47.0794C108.333 47.0794 111.25 70.3194 111.25 73.3294C113.003 64.5502 114.167 57.1273 114.167 52.9127C114.167 42.9115 103.11 31.1719 85 31.1719Z" fill="url(#paint5_radial_1_2632)"/>
<path id="Vector_10" d="M85.6387 29.582C73.4937 29.582 70.4254 35.9462 70.4254 35.9462C70.3029 39.3266 71.9479 42.3104 71.9479 42.3104C71.9479 42.3104 74.1646 47.082 86.8229 47.082C94.4646 47.082 105.417 42.3133 105.417 29.582C105.417 29.582 102.958 29.582 85.6387 29.582Z" fill="url(#paint6_radial_1_2632)"/>
<rect x="7.5" y="7.5" width="155" height="155" rx="12.5" stroke="#D5EAF6" stroke-width="15"/>
</g>
<defs>
<linearGradient id="paint0_linear_1_2632" x1="85" y1="15" x2="85" y2="155" gradientUnits="userSpaceOnUse">
<stop stop-color="#199AE0"/>
<stop offset="0.472222" stop-color="#0D5176" stop-opacity="0.527778"/>
<stop offset="0.940972" stop-color="#12A6F7" stop-opacity="0.465278"/>
<stop offset="1" stop-opacity="0"/>
</linearGradient>
<linearGradient id="paint1_linear_1_2632" x1="58.1258" y1="105.961" x2="111.472" y2="159.307" gradientUnits="userSpaceOnUse">
<stop stop-color="#0D61A9"/>
<stop offset="1" stop-color="#16528C"/>
</linearGradient>
<linearGradient id="paint2_linear_1_2632" x1="111.008" y1="73.3333" x2="114.899" y2="73.3333" gradientUnits="userSpaceOnUse">
<stop stop-color="#C48F0C"/>
<stop offset="0.251" stop-color="#D19B16"/>
<stop offset="0.619" stop-color="#DCA51F"/>
<stop offset="1" stop-color="#E0A922"/>
</linearGradient>
<linearGradient id="paint3_linear_1_2632" x1="58.9921" y1="73.3333" x2="55.1012" y2="73.3333" gradientUnits="userSpaceOnUse">
<stop stop-color="#C48F0C"/>
<stop offset="0.251" stop-color="#D19B16"/>
<stop offset="0.619" stop-color="#DCA51F"/>
<stop offset="1" stop-color="#E0A922"/>
</linearGradient>
<radialGradient id="paint4_radial_1_2632" cx="0" cy="0" r="1" gradientUnits="userSpaceOnUse" gradientTransform="translate(84.9957 69.5403) scale(31.432 31.432)">
<stop stop-color="#FFCF54"/>
<stop offset="0.261" stop-color="#FDCB4D"/>
<stop offset="0.639" stop-color="#F7C13A"/>
<stop offset="1" stop-color="#F0B421"/>
</radialGradient>
<radialGradient id="paint5_radial_1_2632" cx="0" cy="0" r="1" gradientUnits="userSpaceOnUse" gradientTransform="translate(60.0486 34.4341) scale(74.3501)">
<stop stop-color="#C26715"/>
<stop offset="0.508" stop-color="#B85515"/>
<stop offset="1" stop-color="#AD3F16"/>
</radialGradient>
<radialGradient id="paint6_radial_1_2632" cx="0" cy="0" r="1" gradientUnits="userSpaceOnUse" gradientTransform="translate(80.8127 39.4119) scale(82.1271 85.8774)">
<stop stop-color="#C26715"/>
<stop offset="0.508" stop-color="#B85515"/>
<stop offset="1" stop-color="#AD3F16"/>
</radialGradient>
</defs>
</svg>
