<svg width="170" height="170" viewBox="0 0 170 170" fill="none" xmlns="http://www.w3.org/2000/svg">
<g id="analytics">
<rect x="7.5" y="7.5" width="155" height="155" rx="12.5" fill="white"/>
<rect x="7.5" y="7.5" width="155" height="155" rx="12.5" fill="url(#paint0_linear_1_2651)" fill-opacity="0.2"/>
<path id="Vector" d="M121.96 78.8884V136.551H98.6267V78.8884C98.6267 77.2872 99.9333 75.9922 101.543 75.9922H119.043C120.653 75.9922 121.96 77.2901 121.96 78.8884Z" fill="#35C1F1"/>
<path id="Vector_2" d="M98.6267 38.3259V136.553H75.2933V38.3259C75.2933 36.7276 76.6 35.4297 78.21 35.4297H95.71C97.32 35.4297 98.6267 36.7276 98.6267 38.3259Z" fill="#199BE2"/>
<path id="Vector_3" d="M75.2933 58.6072V136.552H51.96V58.6072C51.96 57.0059 53.2667 55.7109 54.8767 55.7109H72.3767C73.9867 55.7109 75.2933 57.0089 75.2933 58.6072Z" fill="#0078D4"/>
<path id="Vector_4" d="M138.229 140.417H33.2292C31.6192 140.417 30.3125 139.119 30.3125 137.52V33.2088C30.3125 31.6104 31.6192 30.3125 33.2292 30.3125C34.8392 30.3125 36.1458 31.6104 36.1458 33.2088V134.621H138.229C139.839 134.621 141.146 135.919 141.146 137.518C141.146 139.116 139.839 140.417 138.229 140.417Z" fill="#ABB4BE"/>
<rect x="7.5" y="7.5" width="155" height="155" rx="12.5" stroke="#D5EAF6" stroke-width="15"/>
</g>
<defs>
<linearGradient id="paint0_linear_1_2651" x1="85" y1="15" x2="85" y2="155" gradientUnits="userSpaceOnUse">
<stop stop-color="#199AE0"/>
<stop offset="0.472222" stop-color="#0D5176" stop-opacity="0.527778"/>
<stop offset="0.940972" stop-color="#12A6F7" stop-opacity="0.465278"/>
<stop offset="1" stop-opacity="0"/>
</linearGradient>
</defs>
</svg>
