<svg width="170" height="170" viewBox="0 0 170 170" fill="none" xmlns="http://www.w3.org/2000/svg">
<g id="analyze">
<rect x="7.5" y="7.5" width="155" height="155" rx="12.5" fill="white"/>
<rect x="7.5" y="7.5" width="155" height="155" rx="12.5" fill="url(#paint0_linear_1_2656)" fill-opacity="0.2"/>
<path id="Vector" d="M128.75 61.6654V134.582C128.745 136.128 128.129 137.609 127.036 138.702C125.943 139.795 124.462 140.411 122.917 140.415H47.0833C45.5376 140.411 44.0565 139.795 42.9636 138.702C41.8706 137.609 41.2545 136.128 41.25 134.582V35.4154C41.2498 34.6493 41.4005 33.8906 41.6936 33.1828C41.9867 32.475 42.4164 31.8318 42.9581 31.2901C43.4998 30.7484 44.1429 30.3187 44.8508 30.0256C45.5586 29.7326 46.3172 29.5818 47.0833 29.582H96.6667L128.75 61.6654Z" fill="#50E6FF"/>
<path id="Vector_2" d="M96.6667 29.582V55.832C96.6665 56.5981 96.8172 57.3568 97.1103 58.0646C97.4033 58.7724 97.833 59.4156 98.3747 59.9573C98.9165 60.499 99.5596 60.9287 100.267 61.2218C100.975 61.5148 101.734 61.6656 102.5 61.6654H128.75L96.6667 29.582Z" fill="url(#paint1_linear_1_2656)"/>
<path id="Vector_3" d="M134.985 121.059L129.807 126.236L146.69 143.12C146.758 143.188 146.839 143.242 146.928 143.279C147.017 143.316 147.112 143.335 147.209 143.335C147.305 143.335 147.4 143.316 147.489 143.279C147.578 143.242 147.659 143.188 147.727 143.12L151.868 138.979C151.936 138.911 151.99 138.83 152.027 138.741C152.064 138.652 152.083 138.557 152.083 138.46C152.083 138.364 152.064 138.269 152.027 138.18C151.99 138.091 151.936 138.01 151.868 137.942L134.985 121.059Z" fill="#199BE2"/>
<path id="Vector_4" d="M54.375 76.25H111.25V82.0833H54.375C53.9882 82.0833 53.6173 81.9297 53.3438 81.6562C53.0703 81.3827 52.9167 81.0118 52.9167 80.625V77.7083C52.9167 77.3216 53.0703 76.9506 53.3438 76.6771C53.6173 76.4036 53.9882 76.25 54.375 76.25Z" fill="#057093"/>
<path id="Vector_5" d="M115.625 90.832H54.375C53.5696 90.832 52.9167 91.4849 52.9167 92.2904V95.207C52.9167 96.0124 53.5696 96.6654 54.375 96.6654H115.625C116.43 96.6654 117.083 96.0124 117.083 95.207V92.2904C117.083 91.4849 116.43 90.832 115.625 90.832Z" fill="#057093"/>
<path id="Vector_6" d="M115.625 105.418H54.375C53.5696 105.418 52.9167 106.071 52.9167 106.876V109.793C52.9167 110.598 53.5696 111.251 54.375 111.251H115.625C116.43 111.251 117.083 110.598 117.083 109.793V106.876C117.083 106.071 116.43 105.418 115.625 105.418Z" fill="#057093"/>
<path id="Vector_7" d="M131.008 117.082L125.833 122.256L132.25 128.676L137.427 123.499L131.008 117.082Z" fill="url(#paint2_radial_1_2656)"/>
<path id="Vector_8" d="M111.249 76.2539C115.926 76.2551 120.518 77.5061 124.55 79.8776C128.582 82.2491 131.907 85.6549 134.18 89.7425C136.454 93.8302 137.594 98.4512 137.483 103.127C137.372 107.804 136.013 112.365 133.547 116.34C131.081 120.315 127.598 123.558 123.458 125.735C119.318 127.912 114.671 128.943 109.999 128.722C105.327 128.5 100.799 127.034 96.883 124.475C92.9675 121.916 89.8068 118.358 87.728 114.168C87.2603 113.226 89.1741 111.761 88.8202 110.76C88.4848 109.811 85.8759 109.33 85.6502 108.334C84.7831 104.494 84.7833 100.508 85.6508 96.6677C85.8767 95.6726 88.5325 95.1118 88.8678 94.1631C89.2251 93.1525 87.2694 91.7574 87.7427 90.8078C89.9188 86.4353 93.2716 82.7565 97.4242 80.1854C101.577 77.6143 106.364 76.2527 111.249 76.2539V76.2539Z" fill="url(#paint3_linear_1_2656)"/>
<path id="Vector_9" d="M83.5417 61.668H54.3283C53.5229 61.668 52.87 62.3209 52.87 63.1263V66.043C52.87 66.8484 53.5229 67.5013 54.3283 67.5013H83.5417C84.3471 67.5013 85 66.8484 85 66.043V63.1263C85 62.3209 84.3471 61.668 83.5417 61.668Z" fill="#057093"/>
<path id="Vector_10" d="M83.5417 47.082H54.3283C53.5229 47.082 52.87 47.7349 52.87 48.5404V51.457C52.87 52.2624 53.5229 52.9154 54.3283 52.9154H83.5417C84.3471 52.9154 85 52.2624 85 51.457V48.5404C85 47.7349 84.3471 47.082 83.5417 47.082Z" fill="#057093"/>
<path id="Vector_11" opacity="0.05" d="M111.25 73.332C103.515 73.332 96.0959 76.405 90.626 81.8748C85.1562 87.3446 82.0833 94.7632 82.0833 102.499C82.0833 110.234 85.1562 117.653 90.626 123.123C96.0959 128.592 103.515 131.665 111.25 131.665C116.709 131.681 122.061 130.143 126.679 127.232L128.75 129.303V125.161L127.029 123.44C123.058 126.436 118.317 128.241 113.359 128.645C108.402 129.05 103.431 128.036 99.027 125.724C94.6229 123.411 90.9668 119.895 88.4849 115.584C86.0029 111.273 84.7973 106.346 85.0085 101.376C85.2198 96.4062 86.8392 91.5988 89.678 87.5142C92.5169 83.4295 96.4582 80.2359 101.043 78.3055C105.627 76.375 110.666 75.7874 115.571 76.6109C120.477 77.4345 125.047 79.6354 128.75 82.957V79.1945C123.712 75.3852 117.566 73.3265 111.25 73.332V73.332Z" fill="black"/>
<path id="Vector_12" opacity="0.07" d="M111.25 76.2516C117.712 76.2458 123.947 78.6359 128.75 82.9599V81.0349C124.767 77.7773 119.955 75.6928 114.854 75.015C109.753 74.3371 104.564 75.0927 99.8679 77.197C95.1719 79.3013 91.1545 82.6712 88.2654 86.9295C85.3763 91.1878 83.7296 96.1663 83.5097 101.307C83.2899 106.449 84.5055 111.55 87.0206 116.039C89.5356 120.528 93.2507 124.229 97.7498 126.726C102.249 129.224 107.355 130.42 112.495 130.18C117.635 129.94 122.607 128.274 126.854 125.368L128.75 127.264V125.164L127.029 123.443C123.707 125.947 119.836 127.625 115.737 128.339C111.638 129.052 107.429 128.781 103.455 127.546C99.482 126.312 95.8592 124.151 92.8858 121.241C89.9124 118.331 87.6736 114.755 86.3543 110.81C85.035 106.864 84.6729 102.661 85.2979 98.5476C85.923 94.4343 87.5173 90.5286 89.9491 87.1529C92.381 83.7771 95.5809 81.0281 99.2845 79.1326C102.988 77.2372 107.089 76.2497 111.25 76.2516V76.2516Z" fill="black"/>
<path id="Vector_13" d="M120 92.2904V98.1237C120 98.5105 119.846 98.8814 119.573 99.1549C119.299 99.4284 118.928 99.582 118.542 99.582H85.175C85.4943 96.5341 86.364 93.5695 87.7417 90.832H118.542C118.928 90.832 119.299 90.9857 119.573 91.2592C119.846 91.5327 120 91.9036 120 92.2904Z" fill="url(#paint4_linear_1_2656)"/>
<path id="Vector_14" d="M120 109.79V115.624C120 116.01 119.846 116.381 119.573 116.655C119.299 116.928 118.928 117.082 118.542 117.082H89.4333C87.649 114.42 86.3642 111.455 85.6417 108.332H118.542C118.928 108.332 119.299 108.486 119.573 108.759C119.846 109.033 120 109.404 120 109.79Z" fill="url(#paint5_linear_1_2656)"/>
<rect x="7.5" y="7.5" width="155" height="155" rx="12.5" stroke="#D5EAF6" stroke-width="15"/>
</g>
<defs>
<linearGradient id="paint0_linear_1_2656" x1="85" y1="15" x2="85" y2="155" gradientUnits="userSpaceOnUse">
<stop stop-color="#199AE0"/>
<stop offset="0.472222" stop-color="#0D5176" stop-opacity="0.527778"/>
<stop offset="0.940972" stop-color="#12A6F7" stop-opacity="0.465278"/>
<stop offset="1" stop-opacity="0"/>
</linearGradient>
<linearGradient id="paint1_linear_1_2656" x1="98.2096" y1="60.1254" x2="113" y2="45.332" gradientUnits="userSpaceOnUse">
<stop stop-color="#3079D6"/>
<stop offset="1" stop-color="#297CD2"/>
</linearGradient>
<radialGradient id="paint2_radial_1_2656" cx="0" cy="0" r="1" gradientUnits="userSpaceOnUse" gradientTransform="translate(112.773 104.698) scale(28.7058)">
<stop offset="0.693" stop-color="#006185"/>
<stop offset="0.921" stop-color="#35C1F1"/>
</radialGradient>
<linearGradient id="paint3_linear_1_2656" x1="91.0404" y1="82.2943" x2="148.134" y2="139.388" gradientUnits="userSpaceOnUse">
<stop stop-color="#A3FFFF"/>
<stop offset="0.223" stop-color="#9DFBFF"/>
<stop offset="0.53" stop-color="#8BF1FF"/>
<stop offset="0.885" stop-color="#6EE0FF"/>
<stop offset="1" stop-color="#63DAFF"/>
</linearGradient>
<linearGradient id="paint4_linear_1_2656" x1="74.1267" y1="95.207" x2="117.518" y2="95.207" gradientUnits="userSpaceOnUse">
<stop stop-color="#3B8FBF"/>
<stop offset="1" stop-color="#057093"/>
</linearGradient>
<linearGradient id="paint5_linear_1_2656" x1="74.1267" y1="112.707" x2="117.518" y2="112.707" gradientUnits="userSpaceOnUse">
<stop stop-color="#3B8FBF"/>
<stop offset="1" stop-color="#057093"/>
</linearGradient>
</defs>
</svg>
