<svg width="170" height="170" viewBox="0 0 170 170" fill="none" xmlns="http://www.w3.org/2000/svg">
<g id="approved-unlock">
<g clip-path="url(#clip0_1_2671)">
<rect x="15" y="15" width="140" height="140" rx="5" fill="white"/>
<rect x="15" y="15" width="140" height="140" rx="5" fill="url(#paint0_linear_1_2671)" fill-opacity="0.2"/>
<path id="Vector" d="M143.333 122.918H26.6667V137.501C26.6667 140.724 29.2771 143.335 32.5 143.335H137.5C140.723 143.335 143.333 140.724 143.333 137.501V122.918Z" fill="#C48C00"/>
<path id="Vector_2" d="M143.333 82.0846H26.6667V67.5013C26.6667 64.2784 29.2771 61.668 32.5 61.668H137.5C140.723 61.668 143.333 64.2784 143.333 67.5013V82.0846Z" fill="#FAD500"/>
<path id="Vector_3" d="M143.333 82.082H26.6667V102.499H143.333V82.082Z" fill="#EDBE00"/>
<path id="Vector_4" d="M143.333 102.5H26.6667V122.917H143.333V102.5Z" fill="#E3A600"/>
<path id="Vector_5" d="M93.75 99.582C93.75 94.7491 89.8329 90.832 85 90.832C80.1671 90.832 76.25 94.7491 76.25 99.582C76.25 103.385 78.6913 106.591 82.0833 107.795V117.082C82.0833 118.692 83.39 119.999 85 119.999C86.61 119.999 87.9167 118.692 87.9167 117.082V107.795C91.3088 106.591 93.75 103.385 93.75 99.582Z" fill="url(#paint1_linear_1_2671)"/>
<path id="Vector_6" d="M109.71 44.1667H121.835C117.883 27.4542 102.923 15 85 15C64.0583 15 47.0833 31.975 47.0833 52.9167V61.6667H58.75V52.9167C58.75 38.4179 70.5012 26.6667 85 26.6667C96.4217 26.6667 106.105 33.9788 109.71 44.1667Z" fill="url(#paint2_linear_1_2671)"/>
<path id="Vector_7" opacity="0.05" d="M143.333 98.9417V137.5C143.333 140.708 140.708 143.333 137.5 143.333H98.9417C95.6458 138.288 93.75 132.308 93.75 125.833C93.75 108.129 108.129 93.75 125.833 93.75C132.308 93.75 138.288 95.6458 143.333 98.9417Z" fill="black"/>
<path id="Vector_8" opacity="0.07" d="M143.333 100.72V137.499C143.333 140.707 140.708 143.332 137.5 143.332H100.721C97.25 138.374 95.2083 132.336 95.2083 125.832C95.2083 108.945 108.946 95.207 125.833 95.207C132.338 95.207 138.375 97.2487 143.333 100.72Z" fill="black"/>
<path id="Vector_9" d="M155 125.835C155 141.94 141.939 155.001 125.833 155.001C109.727 155.001 96.6667 141.94 96.6667 125.835C96.6667 109.729 109.727 96.668 125.833 96.668C141.939 96.668 155 109.729 155 125.835Z" fill="url(#paint3_linear_1_2671)"/>
<path id="Vector_10" d="M121.884 138.533L110.217 126.866C109.649 126.297 109.649 125.373 110.217 124.804L112.28 122.742C112.848 122.173 113.773 122.173 114.342 122.742L122.917 131.314L138.78 115.45C139.349 114.881 140.274 114.881 140.842 115.45L142.905 117.512C143.473 118.081 143.473 119.005 142.905 119.574L123.946 138.533C123.377 139.101 122.456 139.101 121.884 138.533Z" fill="white"/>
</g>
<rect x="7.5" y="7.5" width="155" height="155" rx="12.5" stroke="#D5EAF6" stroke-width="15"/>
</g>
<defs>
<linearGradient id="paint0_linear_1_2671" x1="85" y1="15" x2="85" y2="155" gradientUnits="userSpaceOnUse">
<stop stop-color="#199AE0"/>
<stop offset="0.472222" stop-color="#0D5176" stop-opacity="0.527778"/>
<stop offset="0.940972" stop-color="#12A6F7" stop-opacity="0.465278"/>
<stop offset="1" stop-opacity="0"/>
</linearGradient>
<linearGradient id="paint1_linear_1_2671" x1="85" y1="118.17" x2="85" y2="94.2008" gradientUnits="userSpaceOnUse">
<stop stop-color="#4B4B4B"/>
<stop offset="1" stop-color="#3B3B3B"/>
</linearGradient>
<linearGradient id="paint2_linear_1_2671" x1="84.4575" y1="60.6371" x2="84.4575" y2="14.1367" gradientUnits="userSpaceOnUse">
<stop stop-color="#92A3B0"/>
<stop offset="0.015" stop-color="#A3B5C4"/>
<stop offset="0.032" stop-color="#AEC2D1"/>
<stop offset="0.046" stop-color="#B2C6D6"/>
</linearGradient>
<linearGradient id="paint3_linear_1_2671" x1="105.21" y1="105.211" x2="146.457" y2="146.458" gradientUnits="userSpaceOnUse">
<stop stop-color="#21AD64"/>
<stop offset="1" stop-color="#088242"/>
</linearGradient>
<clipPath id="clip0_1_2671">
<rect x="15" y="15" width="140" height="140" rx="5" fill="white"/>
</clipPath>
</defs>
</svg>
