<svg width="170" height="170" viewBox="0 0 170 170" fill="none" xmlns="http://www.w3.org/2000/svg">
<g id="aspect-ratio">
<rect x="7.5" y="7.5" width="155" height="155" rx="12.5" fill="white"/>
<rect x="7.5" y="7.5" width="155" height="155" rx="12.5" fill="url(#paint0_linear_1_2692)" fill-opacity="0.2"/>
<path id="Vector" d="M140.417 134.582H29.5833C26.3604 134.582 23.75 131.972 23.75 128.749V44.1654C23.75 40.9424 26.3604 38.332 29.5833 38.332H140.417C143.64 38.332 146.25 40.9424 146.25 44.1654V128.749C146.25 131.972 143.64 134.582 140.417 134.582Z" fill="#50E6FF"/>
<path id="Vector_2" d="M128.738 117.082L102.497 117.102C100.887 117.105 99.5804 118.412 99.5833 120.022L99.5921 128.749L128.75 128.725L128.738 117.082Z" fill="url(#paint1_linear_1_2692)"/>
<path id="Vector_3" d="M128.75 90.8463L128.782 128.763L138.713 118.8C139.804 117.703 140.417 116.218 140.417 114.673L140.396 87.918L131.664 87.9267C130.054 87.9296 128.747 89.2363 128.75 90.8463Z" fill="url(#paint2_linear_1_2692)"/>
<path id="Vector_4" d="M41.2617 55.8346L67.5029 55.8142C69.1129 55.8113 70.4196 54.5046 70.4167 52.8946L70.4079 44.168L41.25 44.1913L41.2617 55.8346Z" fill="url(#paint3_linear_1_2692)"/>
<path id="Vector_5" d="M41.25 82.073L41.2179 44.168L31.2837 54.1342C30.1929 55.228 29.5804 56.7096 29.5833 58.2526L29.6037 85.0013L38.3362 84.9926C39.9462 84.9896 41.2529 83.683 41.25 82.073Z" fill="url(#paint4_linear_1_2692)"/>
<rect x="7.5" y="7.5" width="155" height="155" rx="12.5" stroke="#D5EAF6" stroke-width="15"/>
</g>
<defs>
<linearGradient id="paint0_linear_1_2692" x1="85" y1="15" x2="85" y2="155" gradientUnits="userSpaceOnUse">
<stop stop-color="#199AE0"/>
<stop offset="0.472222" stop-color="#0D5176" stop-opacity="0.527778"/>
<stop offset="0.940972" stop-color="#12A6F7" stop-opacity="0.465278"/>
<stop offset="1" stop-opacity="0"/>
</linearGradient>
<linearGradient id="paint1_linear_1_2692" x1="100.391" y1="122.915" x2="129.558" y2="122.915" gradientUnits="userSpaceOnUse">
<stop offset="0.273" stop-color="#912FBD"/>
<stop offset="0.588" stop-color="#8F2EBB"/>
<stop offset="0.758" stop-color="#892BB3"/>
<stop offset="0.894" stop-color="#7E26A5"/>
<stop offset="1" stop-color="#701F94"/>
</linearGradient>
<linearGradient id="paint2_linear_1_2692" x1="127.3" y1="87.6876" x2="141.653" y2="128.355" gradientUnits="userSpaceOnUse">
<stop stop-color="#AE4CD5"/>
<stop offset="1" stop-color="#AC4AD5"/>
</linearGradient>
<linearGradient id="paint3_linear_1_2692" x1="71.9479" y1="50.0013" x2="42.7813" y2="50.0013" gradientUnits="userSpaceOnUse">
<stop offset="0.273" stop-color="#912FBD"/>
<stop offset="0.588" stop-color="#8F2EBB"/>
<stop offset="0.758" stop-color="#892BB3"/>
<stop offset="0.894" stop-color="#7E26A5"/>
<stop offset="1" stop-color="#701F94"/>
</linearGradient>
<linearGradient id="paint4_linear_1_2692" x1="42.9737" y1="86.0134" x2="28.6267" y2="45.358" gradientUnits="userSpaceOnUse">
<stop stop-color="#AE4CD5"/>
<stop offset="1" stop-color="#AC4AD5"/>
</linearGradient>
</defs>
</svg>
