<svg width="170" height="170" viewBox="0 0 170 170" fill="none" xmlns="http://www.w3.org/2000/svg">
<g id="attach">
<rect x="7.5" y="7.5" width="155" height="155" rx="12.5" fill="white"/>
<rect x="7.5" y="7.5" width="155" height="155" rx="12.5" fill="url(#paint0_linear_1_2698)" fill-opacity="0.2"/>
<path id="Vector" d="M64.8925 140.401C55.8421 140.401 46.7887 136.953 39.9025 130.055C26.1883 116.318 26.9554 93.1098 40.6812 79.384L81.8821 38.1832C86.7354 33.3298 93.0996 30.0661 99.9508 29.6403C107.823 29.1503 115.307 31.9911 120.823 37.5123C126.344 43.0307 129.185 50.5148 128.695 58.384C128.269 65.2323 125.002 71.5994 120.152 76.4528L79.6917 116.913C76.4308 120.174 72.1988 122.44 67.6079 122.842C61.9496 123.338 56.5479 121.361 52.5958 117.406C48.6408 113.454 46.6633 108.052 47.1592 102.394C47.5617 97.8028 49.8279 93.5678 53.0887 90.3098L81.29 62.1115C81.8587 61.5428 82.7833 61.5428 83.3521 62.1115L87.4762 66.2357C88.045 66.8044 88.045 67.729 87.4762 68.2978L59.0446 96.7294C57.5367 98.2373 56.3817 100.127 56.0054 102.227C55.3987 105.599 56.4458 108.883 58.785 111.222C62.5854 115.023 69.2063 115.029 73.0154 111.222L114.639 69.5986C118.095 66.1336 120 61.5369 120 56.6457C120 51.7544 118.095 47.1548 114.636 43.6986C111.177 40.2423 106.577 38.3348 101.689 38.3348C96.8008 38.3348 92.2013 40.2394 88.7421 43.6986L46.1121 86.3257C35.7579 96.6828 35.7579 113.532 46.1121 123.889C56.4721 134.244 73.3217 134.241 83.6758 123.889L125.023 82.5428C125.591 81.974 126.516 81.974 127.085 82.5428L131.209 86.6669C131.777 87.2357 131.777 88.1603 131.209 88.729L89.8621 130.076C82.9817 136.959 73.9371 140.401 64.8925 140.401Z" fill="#199BE2"/>
<rect x="7.5" y="7.5" width="155" height="155" rx="12.5" stroke="#D5EAF6" stroke-width="15"/>
</g>
<defs>
<linearGradient id="paint0_linear_1_2698" x1="85" y1="15" x2="85" y2="155" gradientUnits="userSpaceOnUse">
<stop stop-color="#199AE0"/>
<stop offset="0.472222" stop-color="#0D5176" stop-opacity="0.527778"/>
<stop offset="0.940972" stop-color="#12A6F7" stop-opacity="0.465278"/>
<stop offset="1" stop-opacity="0"/>
</linearGradient>
</defs>
</svg>
