<svg width="170" height="170" viewBox="0 0 170 170" fill="none" xmlns="http://www.w3.org/2000/svg">
<g id="auto-deskew">
<rect x="7.5" y="7.5" width="155" height="155" rx="12.5" fill="white"/>
<rect x="7.5" y="7.5" width="155" height="155" rx="12.5" fill="url(#paint0_linear_1_2709)" fill-opacity="0.2"/>
<path id="Vector" d="M121.487 128.634C121.108 128.639 120.731 128.57 120.379 128.429C120.024 128.271 119.699 128.054 119.416 127.788C118.879 127.232 118.576 126.491 118.57 125.717C118.57 124.944 118.878 124.202 119.425 123.655C119.972 123.108 120.713 122.801 121.487 122.801C122.26 122.801 123.002 123.108 123.549 123.655C124.096 124.202 124.404 124.944 124.404 125.717C124.407 126.102 124.334 126.482 124.189 126.838C124.044 127.194 123.829 127.517 123.558 127.788C123.286 128.06 122.963 128.274 122.607 128.42C122.252 128.565 121.871 128.638 121.487 128.634L121.487 128.634Z" fill="#057093"/>
<path id="Vector_2" d="M54.8706 138.87C54.795 138.494 54.7948 138.108 54.87 137.732C54.9453 137.356 55.0944 136.999 55.3088 136.682C55.5232 136.364 55.7986 136.093 56.1189 135.882C56.4392 135.672 56.7981 135.528 57.1748 135.458V135.458C57.5503 135.382 57.9372 135.382 58.3129 135.457C58.6886 135.532 59.0456 135.681 59.3631 135.896C59.6806 136.11 59.9524 136.386 60.1625 136.706C60.3726 137.026 60.5169 137.385 60.587 137.762V137.762C60.7335 138.52 60.5732 139.305 60.1411 139.945C59.7091 140.585 59.0407 141.027 58.2829 141.174V141.174C58.1 141.208 57.9148 141.228 57.7289 141.234C57.0514 141.236 56.3947 141 55.8727 140.568C55.3506 140.137 54.9961 139.536 54.8706 138.87V138.87ZM65.4877 136.771C65.4148 136.396 65.4165 136.01 65.4928 135.635C65.5691 135.26 65.7184 134.905 65.9323 134.588C66.1461 134.271 66.4203 133.999 66.7391 133.788C67.058 133.577 67.4152 133.431 67.7905 133.359V133.359C68.1664 133.281 68.554 133.279 68.9306 133.353C69.3072 133.427 69.6651 133.576 69.9833 133.791C70.3014 134.006 70.5734 134.282 70.7831 134.603C70.9927 134.925 71.136 135.285 71.2042 135.663C71.2797 136.036 71.2807 136.421 71.2071 136.795C71.1335 137.169 70.9867 137.525 70.7753 137.842C70.5638 138.159 70.2918 138.431 69.9749 138.643C69.6579 138.854 69.3023 139.001 68.9284 139.075V139.075C68.7378 139.121 68.5418 139.14 68.3459 139.132V139.132C67.6701 139.129 67.0159 138.893 66.4949 138.462C65.9738 138.032 65.6179 137.434 65.4877 136.771ZM76.1033 134.672C75.9627 133.914 76.1254 133.131 76.5564 132.492C76.9874 131.854 77.6522 131.41 78.4075 131.257V131.257C78.7849 131.181 79.1735 131.18 79.551 131.255C79.9286 131.33 80.2876 131.479 80.6074 131.693C80.9273 131.907 81.2017 132.183 81.4149 132.503C81.628 132.824 81.7758 133.183 81.8496 133.561V133.561C81.9907 134.318 81.828 135.101 81.3969 135.739C80.9657 136.378 80.3007 136.821 79.5455 136.973V136.973C79.3649 137.021 79.1781 137.041 78.9915 137.033V137.033C78.3121 137.031 77.6542 136.795 77.1282 136.365C76.6023 135.935 76.2403 135.337 76.1033 134.672V134.672ZM86.7489 132.57C86.6734 132.194 86.6733 131.807 86.7486 131.432C86.8239 131.056 86.973 130.699 87.1874 130.382C87.4018 130.064 87.6771 129.792 87.9974 129.582C88.3176 129.372 88.6765 129.228 89.053 129.157C89.4287 129.082 89.8155 129.082 90.1912 129.157C90.5668 129.233 90.9238 129.382 91.2413 129.596C91.5589 129.811 91.8307 130.086 92.041 130.406C92.2514 130.726 92.3961 131.085 92.4667 131.461V131.461C92.5424 131.837 92.5426 132.224 92.4674 132.6C92.3922 132.975 92.243 133.332 92.0286 133.65C91.8142 133.967 91.5388 134.239 91.2185 134.449C90.8981 134.659 90.5392 134.804 90.1626 134.874V134.874C89.9794 134.909 89.7936 134.929 89.6071 134.934V134.934C88.9298 134.935 88.2733 134.699 87.7513 134.267C87.2294 133.836 86.8748 133.235 86.7489 132.57V132.57ZM97.3659 130.499C97.2208 129.738 97.3812 128.95 97.8124 128.306C98.2436 127.662 98.911 127.214 99.6701 127.058V127.058C100.048 126.982 100.436 126.982 100.814 127.056C101.191 127.131 101.55 127.28 101.87 127.494C102.19 127.708 102.465 127.984 102.678 128.304C102.891 128.625 103.039 128.984 103.112 129.362C103.257 130.12 103.096 130.904 102.664 131.544C102.233 132.183 101.565 132.626 100.808 132.774C100.615 132.808 100.42 132.827 100.224 132.831V132.831C99.5526 132.829 98.9022 132.596 98.3818 132.172C97.8615 131.747 97.5028 131.156 97.3659 130.499V130.499ZM108.011 128.4C107.934 128.024 107.931 127.637 108.003 127.26C108.076 126.884 108.222 126.525 108.433 126.205C108.645 125.886 108.917 125.611 109.236 125.397C109.554 125.183 109.911 125.034 110.287 124.959V124.959C110.665 124.881 111.054 124.878 111.432 124.952C111.811 125.026 112.171 125.175 112.491 125.389C112.811 125.604 113.086 125.88 113.298 126.202C113.51 126.523 113.657 126.884 113.728 127.263V127.263C113.875 128.021 113.715 128.806 113.283 129.446C112.851 130.086 112.183 130.528 111.425 130.675V130.675C111.242 130.708 111.056 130.727 110.87 130.732V130.732C110.197 130.734 109.544 130.503 109.023 130.078C108.502 129.652 108.144 129.059 108.011 128.4V128.4Z" fill="#057093"/>
<path id="Vector_3" d="M47.0833 143.335C46.7018 143.33 46.3249 143.251 45.9739 143.101C45.6261 142.96 45.3092 142.751 45.0411 142.488C44.7656 142.213 44.5474 141.886 44.3988 141.526C44.2457 141.176 44.1667 140.799 44.1667 140.418C44.1667 140.036 44.2457 139.659 44.3988 139.31C44.5397 138.946 44.7589 138.617 45.0411 138.347C45.3092 138.084 45.6261 137.876 45.9739 137.735C46.5061 137.502 47.0971 137.441 47.6658 137.558C47.8578 137.591 48.0443 137.65 48.2198 137.735C48.3996 137.792 48.5679 137.881 48.7168 137.997C48.8747 138.097 49.0213 138.215 49.1542 138.347C49.4267 138.625 49.6442 138.951 49.795 139.31C49.9362 139.662 50.0058 140.039 50 140.418C50.0037 140.802 49.9308 141.183 49.7856 141.538C49.6403 141.894 49.4256 142.217 49.154 142.489C48.8825 142.76 48.5594 142.975 48.2039 143.12C47.8483 143.265 47.4674 143.338 47.0833 143.335V143.335Z" fill="#057093"/>
<path id="Vector_4" d="M41.8625 128.982C41.7151 128.22 41.8745 127.431 42.306 126.786C42.7375 126.141 43.4062 125.693 44.1667 125.539V125.539C44.9245 125.394 45.7086 125.555 46.348 125.987C46.9873 126.419 47.4298 127.086 47.5789 127.843V127.843C47.6566 128.216 47.6591 128.602 47.5864 128.977C47.5137 129.351 47.3672 129.708 47.1554 130.025C46.9436 130.343 46.6708 130.615 46.3528 130.826C46.0348 131.037 45.678 131.183 45.3031 131.255C45.1129 131.303 44.9167 131.323 44.7207 131.315C44.0478 131.317 43.3949 131.086 42.8736 130.661C42.3523 130.235 41.9949 129.642 41.8625 128.982V128.982ZM39.4997 116.965C39.4219 116.592 39.4192 116.206 39.4917 115.832C39.5643 115.457 39.7106 115.1 39.9223 114.783C40.134 114.465 40.4067 114.193 40.7246 113.982C41.0425 113.771 41.3993 113.625 41.7741 113.553C42.1494 113.475 42.5365 113.472 42.9131 113.544C43.2896 113.616 43.6481 113.762 43.9681 113.973C44.288 114.184 44.563 114.457 44.7772 114.775C44.9914 115.093 45.1406 115.45 45.2163 115.826V115.826C45.3634 116.588 45.2038 117.377 44.7724 118.021C44.3409 118.666 43.6724 119.115 42.9121 119.269V119.269C42.7291 119.302 42.5439 119.321 42.3581 119.326V119.326C41.681 119.328 41.0247 119.093 40.5027 118.662C39.9807 118.231 39.6259 117.631 39.4997 116.965ZM37.1071 104.977C36.9623 104.216 37.1228 103.428 37.554 102.784C37.9851 102.14 38.6523 101.692 39.4113 101.536V101.536C39.7887 101.46 40.1774 101.459 40.5551 101.534C40.9327 101.609 41.2918 101.758 41.6118 101.972C41.9317 102.186 42.2061 102.461 42.4192 102.782C42.6323 103.103 42.7799 103.462 42.8535 103.84V103.84C42.9941 104.598 42.8313 105.38 42.4002 106.018C41.9691 106.657 41.3043 107.1 40.5493 107.252V107.252C40.3568 107.286 40.1621 107.305 39.9668 107.309C39.2961 107.303 38.6476 107.069 38.1278 106.645C37.6081 106.221 37.2481 105.632 37.1071 104.977V104.977ZM34.7458 92.9597C34.5985 92.1982 34.758 91.4094 35.1895 90.7649C35.6211 90.1205 36.2898 89.6726 37.05 89.5189V89.5189C37.8078 89.3746 38.5918 89.5359 39.2311 89.9676C39.8704 90.3993 40.313 91.0663 40.4623 91.8231C40.5382 92.2004 40.5387 92.589 40.4639 92.9665C40.389 93.3441 40.2402 93.7031 40.0261 94.0229C39.8119 94.3427 39.5366 94.6169 39.216 94.8299C38.8955 95.0429 38.5359 95.1904 38.1581 95.2638C37.9746 95.2899 37.7893 95.3003 37.6041 95.2952V95.2952C36.932 95.2932 36.2809 95.06 35.7604 94.6347C35.2399 94.2094 34.8817 93.618 34.7458 92.9597ZM32.3833 80.9427C32.3056 80.5669 32.3039 80.1795 32.3782 79.803C32.4526 79.4266 32.6015 79.0689 32.8162 78.7509C33.0309 78.4329 33.3071 78.1611 33.6285 77.9515C33.9499 77.7419 34.3099 77.5987 34.6875 77.5304V77.5304C35.061 77.4549 35.4458 77.454 35.8197 77.5276C36.1936 77.6013 36.5493 77.748 36.8664 77.9595C37.1834 78.1709 37.4556 78.4429 37.6672 78.7598C37.8789 79.0767 38.0259 79.4323 38.0998 79.8062C38.1747 80.1834 38.1746 80.5718 38.0993 80.9489C38.024 81.3261 37.8751 81.6848 37.6611 82.0043C37.4471 82.3239 37.1722 82.5982 36.8521 82.8114C36.532 83.0246 36.173 83.1726 35.7956 83.2469C35.6129 83.2823 35.4276 83.3023 35.2416 83.3068V83.3068C34.5641 83.3084 33.9074 83.0729 33.3854 82.6411C32.8633 82.2093 32.5088 81.6084 32.3833 80.9427V80.9427ZM29.9908 68.9285C29.8504 68.1708 30.0132 67.3883 30.4442 66.7496C30.8752 66.1108 31.5398 65.6669 32.2949 65.5134C32.6723 65.4377 33.0609 65.4373 33.4385 65.5123C33.816 65.5872 34.175 65.736 34.4949 65.9501C34.8147 66.1642 35.0891 66.4394 35.3023 66.7599C35.5155 67.0804 35.6632 67.4398 35.7371 67.8176V67.8176C35.8817 68.5757 35.7206 69.3603 35.289 70.0001C34.8573 70.6399 34.1901 71.083 33.4329 71.2327V71.2327C33.252 71.2783 33.0654 71.2975 32.8789 71.2896C32.1996 71.2876 31.5416 71.0518 31.0156 70.6218C30.4896 70.1919 30.1277 69.5939 29.9906 68.9285H29.9908ZM27.6281 56.94C27.4806 56.1785 27.64 55.3896 28.0716 54.7451C28.5032 54.1006 29.172 53.6528 29.9323 53.4992V53.4992C30.6933 53.3576 31.4795 53.5194 32.1228 53.95C32.7661 54.3806 33.2153 55.0458 33.3744 55.8034V55.8034C33.5155 56.5642 33.3535 57.35 32.923 57.993C32.4924 58.6359 31.8275 59.085 31.0702 59.2442V59.2442C30.8777 59.2772 30.683 59.2963 30.4878 59.3011V59.3011C29.8132 59.293 29.1617 59.0543 28.6415 58.6248C28.1213 58.1953 27.7637 57.6008 27.628 56.94H27.6281Z" fill="#057093"/>
<path id="Vector_5" d="M28.125 47.2871C27.7423 47.2975 27.3624 47.2185 27.0156 47.0564C26.6631 46.9074 26.3382 46.7004 26.0543 46.4439C25.6464 46.0352 25.37 45.5139 25.2606 44.947C25.1512 44.3801 25.2139 43.7934 25.4405 43.2623C25.5823 42.9055 25.7906 42.5789 26.0542 42.2997C26.6187 41.7804 27.3578 41.4922 28.1249 41.4922C28.892 41.4922 29.631 41.7804 30.1956 42.2997C30.4584 42.5793 30.6662 42.9059 30.8081 43.2624C30.9978 43.7038 31.0744 44.1857 31.0307 44.6642C30.987 45.1426 30.8246 45.6026 30.558 46.0024C30.2915 46.4022 29.9294 46.7291 29.5045 46.9534C29.0796 47.1778 28.6054 47.2925 28.125 47.2871V47.2871Z" fill="#057093"/>
<path id="Vector_6" d="M35.8824 42.8265C35.7416 42.0691 35.9044 41.2868 36.3355 40.6484C36.7666 40.0099 37.4314 39.5667 38.1865 39.4142V39.4142C38.5623 39.3362 38.9499 39.3342 39.3264 39.4084C39.703 39.4826 40.0608 39.6315 40.3789 39.8463C40.6969 40.061 40.9688 40.3374 41.1783 40.6589C41.3878 40.9804 41.5308 41.3407 41.5988 41.7184C41.6746 42.0919 41.6758 42.4766 41.6024 42.8506C41.529 43.2245 41.3824 43.5803 41.171 43.8974C40.9597 44.2145 40.6877 44.4867 40.3708 44.6983C40.0539 44.91 39.6983 45.0569 39.3244 45.1307C39.1336 45.1778 38.9369 45.197 38.7405 45.1876V45.1876C38.066 45.1802 37.4143 44.9418 36.8942 44.5121C36.3741 44.0825 36.017 43.4875 35.8824 42.8265ZM46.5293 40.7245C46.4538 40.351 46.4527 39.9663 46.5262 39.5924C46.5997 39.2185 46.7463 38.8629 46.9576 38.5458C47.1689 38.2287 47.4408 37.9566 47.7576 37.7448C48.0744 37.5331 48.4299 37.3861 48.8037 37.3122V37.3122C49.1812 37.2346 49.5704 37.2329 49.9486 37.307C50.3268 37.3812 50.6865 37.5298 51.0068 37.7442C51.3271 37.9586 51.6015 38.2345 51.8142 38.5559C52.027 38.8773 52.1737 39.2377 52.2459 39.6163V39.6163C52.3928 40.3744 52.2326 41.1597 51.8005 41.7996C51.3684 42.4396 50.6998 42.8816 49.9417 43.0286V43.0286C49.759 43.0639 49.5737 43.0839 49.3877 43.0884V43.0884C48.7103 43.0901 48.0536 42.8546 47.5315 42.4229C47.0094 41.9911 46.6549 41.3903 46.5293 40.7246V40.7245ZM57.145 38.6252C56.9985 37.8672 57.1588 37.0821 57.5909 36.4423C58.0229 35.8024 58.6913 35.3603 59.4492 35.213V35.213C59.8249 35.1352 60.2124 35.1335 60.5888 35.2078C60.9653 35.2821 61.323 35.431 61.641 35.6458C61.959 35.8605 62.2308 36.1367 62.4404 36.4581C62.65 36.7795 62.7931 37.1396 62.8614 37.5171C62.9374 37.8927 62.9378 38.2797 62.8627 38.6555C62.7876 39.0313 62.6385 39.3883 62.4241 39.7059C62.2096 40.0235 61.9341 40.2952 61.6136 40.5053C61.2931 40.7153 60.934 40.8595 60.5573 40.9294C60.3744 40.9635 60.1892 40.9835 60.0033 40.9892V40.9892C59.3259 40.9904 58.6695 40.7548 58.1475 40.3231C57.6255 39.8915 57.2709 39.2909 57.145 38.6254V38.6252ZM67.762 36.526C67.621 35.7686 67.7837 34.9862 68.2148 34.3477C68.6459 33.7092 69.311 33.266 70.0662 33.1138C70.4436 33.0379 70.8323 33.0373 71.21 33.1122C71.5876 33.1871 71.9467 33.3359 72.2666 33.55C72.5865 33.7642 72.861 34.0395 73.0741 34.3601C73.2872 34.6807 73.4349 35.0403 73.5085 35.4182V35.4182C73.6488 36.1755 73.4859 36.9576 73.0549 37.5959C72.6238 38.2342 71.9592 38.6776 71.2043 38.8304C71.0113 38.8634 70.8162 38.8825 70.6204 38.8874C69.9458 38.88 69.2941 38.6416 68.7739 38.2119C68.2538 37.7822 67.8967 37.1872 67.762 36.5261V36.526ZM78.4076 34.4268C78.3319 34.0513 78.3317 33.6644 78.4069 33.2887C78.4821 32.913 78.6313 32.5561 78.8457 32.2386C79.0601 31.921 79.3355 31.6493 79.6558 31.4392C79.9762 31.2291 80.3351 31.0847 80.7118 31.0146V31.0146C81.0874 30.9386 81.4744 30.9381 81.8501 31.0132C82.2259 31.0882 82.583 31.2373 82.9006 31.4518C83.2182 31.6662 83.4899 31.9417 83.7 32.2623C83.91 32.5828 84.0542 32.9419 84.124 33.3187V33.3187C84.1996 33.6943 84.1997 34.0811 84.1245 34.4568C84.0493 34.8324 83.9001 35.1893 83.6857 35.5068C83.4713 35.8243 83.196 36.096 82.8757 36.3062C82.5554 36.5164 82.1965 36.6608 81.8199 36.731C81.6369 36.7641 81.4517 36.7831 81.2659 36.788V36.788C80.5889 36.7895 79.9327 36.5543 79.4107 36.1232C78.8888 35.6921 78.534 35.0921 78.4076 34.427V34.4268ZM89.0247 32.3248C88.884 31.5674 89.0468 30.7851 89.4779 30.1468C89.909 29.5084 90.5738 29.0651 91.3288 28.9125V28.9125C91.7061 28.8368 92.0947 28.8365 92.4721 28.9114C92.8495 28.9864 93.2084 29.1352 93.5282 29.3493C93.8479 29.5634 94.1222 29.8386 94.3352 30.1591C94.5483 30.4796 94.6959 30.839 94.7696 31.2167V31.2167C94.9106 31.9739 94.7481 32.7562 94.3173 33.3946C93.8864 34.0331 93.2217 34.4764 92.4667 34.6289V34.6289C92.274 34.6643 92.0787 34.6843 91.8828 34.6888V34.6888C91.2066 34.6858 90.5523 34.4486 90.0312 34.0177C89.5101 33.5867 89.1544 32.9885 89.0247 32.3249V32.3248Z" fill="#057093"/>
<path id="Vector_7" d="M102.528 32.5879C102.051 32.5825 101.582 32.4613 101.161 32.2345C100.741 32.0078 100.382 31.6823 100.115 31.2862C99.8481 30.89 99.6815 30.435 99.6293 29.9602C99.5771 29.4854 99.641 29.0051 99.8155 28.5604C99.9788 28.2178 100.196 27.9035 100.458 27.629C100.869 27.2261 101.388 26.9508 101.952 26.8366C102.516 26.7224 103.101 26.774 103.636 26.9853C103.997 27.1341 104.324 27.3529 104.599 27.629C105.129 28.1786 105.431 28.9081 105.445 29.6713C105.439 30.4445 105.136 31.1858 104.599 31.7421C104.047 32.2857 103.303 32.5897 102.528 32.5879V32.5879Z" fill="#057093"/>
<path id="Vector_8" d="M116.266 114.282C116.113 113.523 116.266 112.735 116.693 112.09C117.119 111.445 117.784 110.995 118.542 110.838C119.303 110.693 120.091 110.853 120.734 111.285C121.378 111.716 121.827 112.383 121.982 113.142C122.13 113.904 121.97 114.693 121.539 115.338C121.107 115.983 120.439 116.431 119.678 116.586V116.586C119.495 116.619 119.31 116.638 119.124 116.643V116.643C118.447 116.644 117.791 116.409 117.269 115.978C116.747 115.547 116.392 114.947 116.266 114.282ZM113.875 102.264C113.73 101.507 113.891 100.722 114.323 100.083C114.754 99.4433 115.422 99.0009 116.179 98.8522V98.8522C116.937 98.6987 117.725 98.8521 118.37 99.2787C119.015 99.7054 119.464 100.37 119.62 101.128V101.128C119.765 101.889 119.604 102.677 119.173 103.321C118.742 103.965 118.075 104.413 117.315 104.569V104.569C117.123 104.602 116.928 104.621 116.733 104.626V104.626C116.058 104.618 115.407 104.38 114.887 103.95C114.366 103.521 114.009 102.926 113.875 102.265V102.264ZM111.512 90.276C111.365 89.5145 111.525 88.7258 111.956 88.0815C112.388 87.4371 113.056 86.9892 113.816 86.8352C114.192 86.7605 114.578 86.7609 114.954 86.8365C115.329 86.9121 115.686 87.0613 116.003 87.2756C116.32 87.4898 116.592 87.7649 116.802 88.0848C117.013 88.4047 117.157 88.7631 117.228 89.1394V89.1394C117.306 89.513 117.309 89.8984 117.236 90.2731C117.164 90.6478 117.018 91.0043 116.806 91.3219C116.594 91.6394 116.322 91.9117 116.004 92.1229C115.686 92.3341 115.329 92.4799 114.954 92.5519V92.5519C114.763 92.5976 114.567 92.6168 114.37 92.6089V92.6089C113.697 92.6119 113.044 92.3808 112.523 91.9552C112.001 91.5297 111.644 90.9361 111.512 90.2761V90.276ZM109.149 78.2589C109.072 77.8832 109.07 77.4958 109.145 77.1195C109.219 76.7432 109.368 76.3856 109.583 76.0677C109.798 75.7498 110.074 75.478 110.395 75.2683C110.716 75.0586 111.076 74.9153 111.454 74.8467V74.8467C111.827 74.7712 112.212 74.7703 112.586 74.8439C112.96 74.9176 113.315 75.0643 113.632 75.2758C113.949 75.4872 114.222 75.7592 114.433 76.0761C114.645 76.393 114.792 76.7486 114.866 77.1225V77.1225C114.942 77.4998 114.943 77.8884 114.868 78.266C114.793 78.6436 114.644 79.0027 114.43 79.3225C114.216 79.6423 113.94 79.9166 113.62 80.1296C113.299 80.3425 112.94 80.4899 112.562 80.5632V80.5632C112.379 80.5986 112.194 80.6186 112.008 80.623V80.623C111.33 80.6245 110.674 80.3889 110.152 79.9572C109.63 79.5254 109.275 78.9247 109.149 78.2591V78.2589ZM106.758 66.2421C106.618 65.4848 106.781 64.7027 107.212 64.0644C107.643 63.4261 108.308 62.9827 109.063 62.8298V62.8298C109.824 62.6828 110.613 62.8425 111.257 63.274C111.901 63.7055 112.349 64.3739 112.503 65.1339V65.1339C112.648 65.8918 112.487 66.6762 112.055 67.3157C111.624 67.9551 110.956 68.3976 110.199 68.5462V68.5462C110.007 68.5816 109.812 68.6016 109.617 68.606V68.606C108.942 68.5985 108.29 68.3597 107.769 67.9295C107.249 67.4993 106.892 66.9037 106.758 66.2421V66.2421ZM104.396 54.2565C104.254 53.4956 104.416 52.7096 104.846 52.0666C105.277 51.4236 105.942 50.9746 106.7 50.8157V50.8157C107.46 50.6741 108.246 50.8356 108.889 51.2657C109.532 51.6957 109.981 52.3603 110.14 53.1172C110.285 53.8753 110.124 54.6599 109.692 55.2997C109.261 55.9395 108.593 56.3826 107.836 56.5323V56.5323C107.646 56.5781 107.45 56.5973 107.254 56.5893V56.5893C106.582 56.5872 105.932 56.3543 105.411 55.9296C104.891 55.5048 104.532 54.9142 104.396 54.2565ZM102.033 42.2395C101.955 41.8637 101.953 41.4762 102.028 41.0998C102.102 40.7234 102.251 40.3656 102.466 40.0476C102.68 39.7296 102.957 39.4578 103.278 39.2482C103.599 39.0386 103.959 38.8955 104.337 38.8272V38.8272C104.711 38.7515 105.095 38.7503 105.469 38.8238C105.843 38.8973 106.199 39.0441 106.516 39.2556C106.834 39.4671 107.106 39.7392 107.317 40.0562C107.529 40.3733 107.676 40.729 107.749 41.103C107.827 41.4805 107.829 41.8697 107.755 42.2479C107.681 42.6261 107.532 42.9858 107.318 43.306C107.103 43.6262 106.827 43.9006 106.506 44.1131C106.184 44.3256 105.824 44.472 105.445 44.5438V44.5438C105.262 44.5768 105.077 44.5959 104.891 44.6007C104.214 44.6024 103.558 44.3673 103.036 43.9361C102.514 43.5048 102.159 42.9046 102.033 42.2394V42.2395Z" fill="#057093"/>
<path id="Vector_9" d="M146.25 49.3888V138.114C146.271 139.475 145.751 140.788 144.806 141.767C143.86 142.745 142.565 143.309 141.204 143.335H75.4625C74.1018 143.309 72.8068 142.745 71.8611 141.767C70.9153 140.788 70.3959 139.475 70.4167 138.114V49.3888C70.3959 48.0281 70.9153 46.7146 71.861 45.736C72.8068 44.7574 74.1018 44.1936 75.4625 44.168H141.204C142.565 44.1936 143.86 44.7574 144.806 45.736C145.751 46.7146 146.271 48.0281 146.25 49.3888Z" fill="#50E6FF"/>
<g id="Group">
<path id="Vector_10" d="M133.125 67.5013H83.5417C83.1549 67.5012 82.7841 67.3475 82.5106 67.074C82.2372 66.8006 82.0835 66.4297 82.0833 66.043V63.1263C82.0835 62.7396 82.2372 62.3687 82.5106 62.0953C82.7841 61.8218 83.1549 61.6681 83.5417 61.668H133.125C133.512 61.6681 133.883 61.8218 134.156 62.0953C134.429 62.3687 134.583 62.7396 134.583 63.1263V66.043C134.583 66.4297 134.429 66.8006 134.156 67.074C133.883 67.3475 133.512 67.5012 133.125 67.5013Z" fill="#35C1F1"/>
<path id="Vector_11" d="M127.292 79.1693H83.5417C83.1549 79.1691 82.7841 79.0154 82.5106 78.742C82.2372 78.4685 82.0835 78.0977 82.0833 77.7109V74.7943C82.0835 74.4075 82.2372 74.0367 82.5106 73.7632C82.7841 73.4898 83.1549 73.3361 83.5417 73.3359H127.292C127.678 73.3361 128.049 73.4898 128.323 73.7632C128.596 74.0367 128.75 74.4075 128.75 74.7943V77.7109C128.75 78.0977 128.596 78.4685 128.323 78.742C128.049 79.0154 127.678 79.1691 127.292 79.1693Z" fill="#35C1F1"/>
<path id="Vector_12" d="M133.125 90.8333H83.5417C83.1549 90.8332 82.7841 90.6795 82.5106 90.406C82.2372 90.1326 82.0835 89.7617 82.0833 89.375V86.4583C82.0835 86.0716 82.2372 85.7008 82.5106 85.4273C82.7841 85.1538 83.1549 85.0001 83.5417 85H133.125C133.512 85.0001 133.883 85.1538 134.156 85.4273C134.429 85.7008 134.583 86.0716 134.583 86.4583V89.375C134.583 89.7617 134.429 90.1326 134.156 90.406C133.883 90.6795 133.512 90.8332 133.125 90.8333V90.8333Z" fill="#35C1F1"/>
<path id="Vector_13" d="M133.125 114.169H83.5417C83.1549 114.169 82.7841 114.015 82.5106 113.742C82.2372 113.469 82.0835 113.098 82.0833 112.711V109.794C82.0835 109.408 82.2372 109.037 82.5106 108.763C82.7841 108.49 83.1549 108.336 83.5417 108.336H133.125C133.512 108.336 133.883 108.49 134.156 108.763C134.429 109.037 134.583 109.408 134.583 109.794V112.711C134.583 113.098 134.429 113.469 134.156 113.742C133.883 114.015 133.512 114.169 133.125 114.169V114.169Z" fill="#35C1F1"/>
<path id="Vector_14" d="M127.292 102.501H83.5417C83.1549 102.501 82.7841 102.347 82.5106 102.074C82.2372 101.801 82.0835 101.43 82.0833 101.043V98.1263C82.0835 97.7396 82.2372 97.3687 82.5106 97.0953C82.7841 96.8218 83.1549 96.6681 83.5417 96.668H127.292C127.678 96.6681 128.049 96.8218 128.323 97.0953C128.596 97.3687 128.75 97.7396 128.75 98.1263V101.043C128.75 101.43 128.596 101.801 128.323 102.074C128.049 102.347 127.678 102.501 127.292 102.501V102.501Z" fill="#35C1F1"/>
<path id="Vector_15" d="M127.292 125.833H83.5417C83.1549 125.833 82.7841 125.68 82.5106 125.406C82.2372 125.133 82.0835 124.762 82.0833 124.375V121.458C82.0835 121.072 82.2372 120.701 82.5106 120.427C82.7841 120.154 83.1549 120 83.5417 120H127.292C127.678 120 128.049 120.154 128.323 120.427C128.596 120.701 128.75 121.072 128.75 121.458V124.375C128.75 124.762 128.596 125.133 128.323 125.406C128.049 125.68 127.678 125.833 127.292 125.833Z" fill="#35C1F1"/>
</g>
<path id="Vector_16" d="M76.25 80.2898V107.211C76.2603 107.444 76.3392 107.668 76.4769 107.856C76.6146 108.044 76.8048 108.186 77.0235 108.266C77.2422 108.346 77.4797 108.359 77.7058 108.304C77.9319 108.248 78.1367 108.127 78.2941 107.956L90.3526 94.9618C90.6614 94.6341 90.8333 94.2008 90.8333 93.7506C90.8333 93.3003 90.6614 92.8671 90.3526 92.5394L78.2941 79.5454C78.1367 79.3739 77.9319 79.2529 77.7058 79.1977C77.4797 79.1425 77.2422 79.1555 77.0235 79.2352C76.8048 79.3148 76.6146 79.4575 76.4769 79.6452C76.3392 79.8329 76.2603 80.0572 76.25 80.2898V80.2898Z" fill="url(#paint1_linear_1_2709)"/>
<path id="Vector_17" d="M82.0833 87.918V99.5846H55.8333C55.0598 99.5846 54.3179 99.2773 53.7709 98.7304C53.2239 98.1834 52.9167 97.4415 52.9167 96.668V90.8346C52.9167 90.0611 53.2239 89.3192 53.7709 88.7722C54.3179 88.2253 55.0598 87.918 55.8333 87.918H82.0833Z" fill="url(#paint2_linear_1_2709)"/>
<g id="Group_2">
<path id="Vector_18" opacity="0.05" d="M92.4958 90.5417L80.4208 77.5626C79.8664 76.9629 79.1451 76.543 78.3498 76.3572C77.5545 76.1714 76.7218 76.2281 75.959 76.52C75.1963 76.8119 74.5385 77.3257 74.0705 77.995C73.6025 78.6643 73.3457 79.4584 73.3333 80.275V85.0001H70.4167V87.9167H76.25V80.275C76.2578 79.9734 76.3851 79.6872 76.6039 79.4793C76.8227 79.2715 77.115 79.1591 77.4167 79.1667C77.5811 79.1637 77.7444 79.196 77.8953 79.2614C78.0462 79.3268 78.1814 79.4238 78.2917 79.5459L90.3667 92.5251C90.6628 92.8645 90.8259 93.2996 90.8259 93.7501C90.8259 94.2005 90.6628 94.6356 90.3667 94.9751L78.2917 107.954C78.1814 108.076 78.0462 108.173 77.8953 108.239C77.7443 108.304 77.5811 108.336 77.4167 108.333C77.115 108.341 76.8227 108.229 76.6039 108.021C76.3851 107.813 76.2578 107.527 76.25 107.225V99.5834H70.4167V102.5H73.3333V107.225C73.3457 108.042 73.6025 108.836 74.0705 109.505C74.5385 110.174 75.1963 110.688 75.959 110.98C76.7218 111.272 77.5545 111.329 78.3498 111.143C79.1451 110.957 79.8664 110.537 80.4208 109.938L92.4958 96.9584C93.311 96.0889 93.7646 94.9418 93.7646 93.7501C93.7646 92.5583 93.311 91.4112 92.4958 90.5417Z" fill="black"/>
<path id="Vector_19" opacity="0.07" d="M91.4167 91.5321L79.3708 78.5529C79.0141 78.1681 78.5509 77.8983 78.0403 77.7777C77.5296 77.6572 76.9947 77.6914 76.5035 77.8759C76.0124 78.0605 75.5873 78.3871 75.2824 78.8141C74.9776 79.2411 74.8067 79.7493 74.7917 80.2737V86.4571H70.4167V87.9154H76.25V80.2737C76.2578 79.9721 76.3851 79.6859 76.6039 79.478C76.8227 79.2702 77.115 79.1577 77.4167 79.1654C77.5811 79.1624 77.7444 79.1947 77.8953 79.2601C78.0462 79.3255 78.1814 79.4225 78.2917 79.5446L90.3667 92.5237C90.6628 92.8631 90.8259 93.2983 90.8259 93.7487C90.8259 94.1991 90.6628 94.6343 90.3667 94.9737L78.2917 107.953C78.1814 108.075 78.0462 108.172 77.8953 108.237C77.7443 108.303 77.5811 108.335 77.4167 108.332C77.115 108.34 76.8227 108.227 76.6039 108.019C76.3851 107.812 76.2578 107.525 76.25 107.224V99.5821H70.4167V101.04H74.7917V107.224C74.8067 107.748 74.9776 108.256 75.2824 108.683C75.5873 109.11 76.0124 109.437 76.5035 109.622C76.9947 109.806 77.5296 109.84 78.0403 109.72C78.5509 109.599 79.0141 109.329 79.3708 108.945L91.4167 95.9654C91.9788 95.3642 92.2916 94.5718 92.2916 93.7487C92.2916 92.9256 91.9788 92.1333 91.4167 91.5321V91.5321Z" fill="black"/>
</g>
<rect x="7.5" y="7.5" width="155" height="155" rx="12.5" stroke="#D5EAF6" stroke-width="15"/>
</g>
<defs>
<linearGradient id="paint0_linear_1_2709" x1="85" y1="15" x2="85" y2="155" gradientUnits="userSpaceOnUse">
<stop stop-color="#199AE0"/>
<stop offset="0.472222" stop-color="#0D5176" stop-opacity="0.527778"/>
<stop offset="0.940972" stop-color="#12A6F7" stop-opacity="0.465278"/>
<stop offset="1" stop-opacity="0"/>
</linearGradient>
<linearGradient id="paint1_linear_1_2709" x1="77.8017" y1="74.1886" x2="86.5021" y2="113.992" gradientUnits="userSpaceOnUse">
<stop stop-color="#AE4CD5"/>
<stop offset="1" stop-color="#AC4AD5"/>
</linearGradient>
<linearGradient id="paint2_linear_1_2709" x1="64.1604" y1="77.1701" x2="72.8608" y2="116.974" gradientUnits="userSpaceOnUse">
<stop stop-color="#AE4CD5"/>
<stop offset="1" stop-color="#AC4AD5"/>
</linearGradient>
</defs>
</svg>
