<svg width="170" height="170" viewBox="0 0 170 170" fill="none" xmlns="http://www.w3.org/2000/svg">
<g id="backend-development">
<rect x="7.5" y="7.5" width="155" height="155" rx="12.5" fill="white"/>
<rect x="7.5" y="7.5" width="155" height="155" rx="12.5" fill="url(#paint0_linear_1_2734)" fill-opacity="0.2"/>
<path id="Vector" d="M141.604 71.1273C134.636 71.0427 127.89 67.4115 124.153 60.9394C120.557 54.7094 120.63 47.3798 123.681 41.4181C117.483 35.9144 110.142 31.6794 102.01 29.2031C98.3496 34.7069 92.1021 38.3352 85 38.3352C77.8979 38.3352 71.6504 34.7069 67.9929 29.2031C59.8612 31.6794 52.52 35.9144 46.3221 41.4181C49.3729 47.3798 49.4458 54.7094 45.8496 60.9394C42.1133 67.4115 35.3671 71.0427 28.3992 71.1273C27.3083 75.581 26.6667 80.2127 26.6667 85.0019C26.6667 88.7469 27.0546 92.3956 27.7283 95.9452C34.9296 95.7965 41.9937 99.4685 45.8496 106.148C49.8396 113.06 49.3117 121.326 45.2079 127.571C51.2804 133.249 58.5458 137.651 66.6163 140.331C69.9121 133.489 76.8946 128.752 85 128.752C93.1054 128.752 100.088 133.489 103.384 140.334C111.454 137.654 118.72 133.252 124.792 127.574C120.688 121.329 120.16 113.063 124.15 106.151C128.006 99.4715 135.068 95.7994 142.272 95.9481C142.945 92.3956 143.333 88.7469 143.333 85.0019C143.333 80.2127 142.692 75.581 141.604 71.1273Z" fill="url(#paint1_linear_1_2734)"/>
<g id="Group" opacity="0.05">
<path id="Vector_2" d="M68.1504 70.4569V76.684L50.7233 84.1419V84.2994L68.1504 91.311V97.541L43.7117 86.3935V82.1556L68.1504 70.4569ZM71.0671 65.8281L66.8904 67.826L42.4517 79.5219L40.795 80.3152V82.1527V86.3906V88.266L42.5012 89.0448L66.94 100.192L71.0671 102.074V97.541V91.314V89.3423L69.2383 88.6073L58.1404 84.1419L69.2967 79.3673L71.0671 78.609V76.684V70.4569V65.8281Z" fill="black"/>
<path id="Vector_3" d="M97.4804 61.6667L79.19 105.417H71.8108L90.0225 61.6667H97.4804ZM101.861 58.75H97.4804H90.0225H88.0771L87.3304 60.5467L69.1188 104.297L67.4388 108.333H71.8108H79.19H81.1325L81.8821 106.543L100.173 62.7925L101.861 58.75Z" fill="black"/>
<path id="Vector_4" d="M101.85 70.1991L126.288 81.8162V86.0541L101.85 97.2016V91.0008L119.329 84.0154V83.9104L101.85 76.4262V70.1991ZM98.9329 65.582V70.1991V76.4262V78.3512L100.7 79.1095L111.828 83.8725L100.768 88.2941L98.9329 89.0262V91.0008V97.2016V101.737L103.06 99.8558L127.499 88.7083L129.205 87.9295V86.0541V81.8162V79.9729L127.54 79.1824L103.101 67.5654L98.9329 65.582Z" fill="black"/>
</g>
<g id="Group_2" opacity="0.07">
<path id="Vector_5" d="M68.1504 70.4574V76.6845L50.7233 84.1424V84.2999L68.1504 91.3116V97.5416L43.7117 86.3941V82.1562L68.1504 70.4574ZM69.6087 68.1445L67.5204 69.1449L43.0817 80.8408L42.2533 81.2374V82.1562V86.3941V87.3333L43.1079 87.7212L67.5467 98.8687L69.6087 99.8108V97.5416V91.3145V90.3287L68.6958 89.9612L54.34 84.1833L68.725 78.0262L69.6087 77.647V76.6845V70.4574V68.1445V68.1445Z" fill="black"/>
<path id="Vector_6" d="M97.4804 61.6654L79.19 105.415H71.8108L90.0225 61.6654H97.4804ZM99.6708 60.207H97.4804H90.0225H89.0513L88.6779 61.1054L70.4663 104.855L69.6263 106.874H71.8138H79.1929H80.1642L80.5375 105.978L98.8279 62.2283L99.6708 60.207Z" fill="black"/>
<path id="Vector_7" d="M101.85 70.1967L126.288 81.8138V86.0517L101.85 97.1992V90.9984L119.329 84.013V83.908L101.85 76.4238V70.1967ZM100.391 67.8867V70.1938V76.4209V77.3834L101.275 77.7626L115.643 83.9138L101.31 89.6421L100.394 90.0096V90.9984V97.1992V99.4684L102.456 98.5263L126.895 87.3788L127.75 86.9909V86.0517V81.8138V80.8921L126.918 80.4955L102.48 68.8784L100.391 67.8867Z" fill="black"/>
</g>
<path id="Vector_8" d="M68.1504 97.5422L43.7117 86.3947V82.1568L68.1504 70.4609V76.688L50.7233 84.1459V84.3034L68.1504 91.3151V97.5422Z" fill="url(#paint2_linear_1_2734)"/>
<path id="Vector_9" d="M97.4804 61.668L79.19 105.418H71.8108L90.0225 61.668H97.4804Z" fill="url(#paint3_linear_1_2734)"/>
<path id="Vector_10" d="M126.288 86.0542L101.85 97.2017V91.0009L119.329 84.0155V83.9105L101.85 76.4263V70.1992L126.288 81.8163V86.0542Z" fill="url(#paint4_linear_1_2734)"/>
<rect x="7.5" y="7.5" width="155" height="155" rx="12.5" stroke="#D5EAF6" stroke-width="15"/>
</g>
<defs>
<linearGradient id="paint0_linear_1_2734" x1="85" y1="15" x2="85" y2="155" gradientUnits="userSpaceOnUse">
<stop stop-color="#199AE0"/>
<stop offset="0.472222" stop-color="#0D5176" stop-opacity="0.527778"/>
<stop offset="0.940972" stop-color="#12A6F7" stop-opacity="0.465278"/>
<stop offset="1" stop-opacity="0"/>
</linearGradient>
<linearGradient id="paint1_linear_1_2734" x1="30.5371" y1="30.5885" x2="126.075" y2="126.124" gradientUnits="userSpaceOnUse">
<stop stop-color="#889097"/>
<stop offset="0.331" stop-color="#848C94"/>
<stop offset="0.669" stop-color="#78828B"/>
<stop offset="1" stop-color="#64717C"/>
</linearGradient>
<linearGradient id="paint2_linear_1_2734" x1="55.9325" y1="66.4855" x2="55.9325" y2="167.808" gradientUnits="userSpaceOnUse">
<stop stop-color="white"/>
<stop offset="0.242" stop-color="#fcfcfc"/>
<stop offset="1" stop-color="#CCCCCC"/>
</linearGradient>
<linearGradient id="paint3_linear_1_2734" x1="84.6471" y1="66.4863" x2="84.6471" y2="167.808" gradientUnits="userSpaceOnUse">
<stop stop-color="white"/>
<stop offset="0.242" stop-color="#fcfcfc"/>
<stop offset="1" stop-color="#CCCCCC"/>
</linearGradient>
<linearGradient id="paint4_linear_1_2734" x1="114.067" y1="66.4863" x2="114.067" y2="167.808" gradientUnits="userSpaceOnUse">
<stop stop-color="white"/>
<stop offset="0.242" stop-color="#fcfcfc"/>
<stop offset="1" stop-color="#CCCCCC"/>
</linearGradient>
</defs>
</svg>
