<svg width="170" height="170" viewBox="0 0 170 170" fill="none" xmlns="http://www.w3.org/2000/svg">
<g id="bill">
<rect x="7.5" y="7.5" width="155" height="155" rx="12.5" fill="white"/>
<rect x="7.5" y="7.5" width="155" height="155" rx="12.5" fill="url(#paint0_linear_1_2769)" fill-opacity="0.2"/>
<path id="Vector" d="M122.917 29.582C122.917 31.192 121.61 32.4987 120 32.4987C118.39 32.4987 117.083 31.192 117.083 29.582H111.25C111.25 31.192 109.943 32.4987 108.333 32.4987C106.723 32.4987 105.417 31.192 105.417 29.582H99.5833C99.5833 31.192 98.2767 32.4987 96.6667 32.4987C95.0567 32.4987 93.75 31.192 93.75 29.582H87.9167C87.9167 31.192 86.61 32.4987 85 32.4987C83.39 32.4987 82.0833 31.192 82.0833 29.582H76.25C76.25 31.192 74.9433 32.4987 73.3333 32.4987C71.7233 32.4987 70.4167 31.192 70.4167 29.582H64.5833C64.5833 31.192 63.2767 32.4987 61.6667 32.4987C60.0567 32.4987 58.75 31.192 58.75 29.582H52.9167C52.9167 31.192 51.61 32.4987 50 32.4987C48.39 32.4987 47.0833 31.192 47.0833 29.582H44.1667C42.5567 29.582 41.25 30.8887 41.25 32.4987V134.582C41.25 137.805 43.8604 140.415 47.0833 140.415H122.917C126.14 140.415 128.75 137.805 128.75 134.582V32.4987C128.75 30.8887 127.443 29.582 125.833 29.582H122.917Z" fill="#50E6FF"/>
<path id="Vector_2" d="M115.625 52.918H54.375C53.57 52.918 52.9167 52.2646 52.9167 51.4596V45.6263C52.9167 44.8213 53.57 44.168 54.375 44.168H115.625C116.43 44.168 117.083 44.8213 117.083 45.6263V51.4596C117.083 52.2646 116.43 52.918 115.625 52.918Z" fill="#057093"/>
<path id="Vector_3" d="M115.625 73.3333H109.792C108.987 73.3333 108.333 72.68 108.333 71.875V68.9583C108.333 68.1533 108.987 67.5 109.792 67.5H115.625C116.43 67.5 117.083 68.1533 117.083 68.9583V71.875C117.083 72.68 116.43 73.3333 115.625 73.3333Z" fill="#057093"/>
<path id="Vector_4" d="M92.2917 73.3333H54.375C53.57 73.3333 52.9167 72.68 52.9167 71.875V68.9583C52.9167 68.1533 53.57 67.5 54.375 67.5H92.2917C93.0967 67.5 93.75 68.1533 93.75 68.9583V71.875C93.75 72.68 93.0967 73.3333 92.2917 73.3333Z" fill="#057093"/>
<path id="Vector_5" d="M115.625 85.0013H109.792C108.987 85.0013 108.333 84.348 108.333 83.543V80.6263C108.333 79.8213 108.987 79.168 109.792 79.168H115.625C116.43 79.168 117.083 79.8213 117.083 80.6263V83.543C117.083 84.348 116.43 85.0013 115.625 85.0013Z" fill="#057093"/>
<path id="Vector_6" d="M83.5417 85.0013H54.375C53.57 85.0013 52.9167 84.348 52.9167 83.543V80.6263C52.9167 79.8213 53.57 79.168 54.375 79.168H83.5417C84.3467 79.168 85 79.8213 85 80.6263V83.543C85 84.348 84.3467 85.0013 83.5417 85.0013Z" fill="#057093"/>
<path id="Vector_7" d="M115.625 96.6654H109.792C108.987 96.6654 108.333 96.012 108.333 95.207V92.2904C108.333 91.4854 108.987 90.832 109.792 90.832H115.625C116.43 90.832 117.083 91.4854 117.083 92.2904V95.207C117.083 96.012 116.43 96.6654 115.625 96.6654Z" fill="#057093"/>
<path id="Vector_8" d="M92.2917 96.6654H54.375C53.57 96.6654 52.9167 96.012 52.9167 95.207V92.2904C52.9167 91.4854 53.57 90.832 54.375 90.832H92.2917C93.0967 90.832 93.75 91.4854 93.75 92.2904V95.207C93.75 96.012 93.0967 96.6654 92.2917 96.6654Z" fill="#057093"/>
<path id="Vector_9" d="M115.625 108.333H109.792C108.987 108.333 108.333 107.68 108.333 106.875V103.958C108.333 103.153 108.987 102.5 109.792 102.5H115.625C116.43 102.5 117.083 103.153 117.083 103.958V106.875C117.083 107.68 116.43 108.333 115.625 108.333Z" fill="#057093"/>
<path id="Vector_10" d="M83.5417 108.333H54.375C53.57 108.333 52.9167 107.68 52.9167 106.875V103.958C52.9167 103.153 53.57 102.5 54.375 102.5H83.5417C84.3467 102.5 85 103.153 85 103.958V106.875C85 107.68 84.3467 108.333 83.5417 108.333Z" fill="#057093"/>
<path id="Vector_11" d="M115.625 125.833H103.958C103.153 125.833 102.5 125.18 102.5 124.375V121.458C102.5 120.653 103.153 120 103.958 120H115.625C116.43 120 117.083 120.653 117.083 121.458V124.375C117.083 125.18 116.43 125.833 115.625 125.833Z" fill="#057093"/>
<path id="Vector_12" d="M92.2917 125.833H66.0417C65.2367 125.833 64.5833 125.18 64.5833 124.375V121.458C64.5833 120.653 65.2367 120 66.0417 120H92.2917C93.0967 120 93.75 120.653 93.75 121.458V124.375C93.75 125.18 93.0967 125.833 92.2917 125.833Z" fill="#057093"/>
<rect x="7.5" y="7.5" width="155" height="155" rx="12.5" stroke="#D5EAF6" stroke-width="15"/>
</g>
<defs>
<linearGradient id="paint0_linear_1_2769" x1="85" y1="15" x2="85" y2="155" gradientUnits="userSpaceOnUse">
<stop stop-color="#199AE0"/>
<stop offset="0.472222" stop-color="#0D5176" stop-opacity="0.527778"/>
<stop offset="0.940972" stop-color="#12A6F7" stop-opacity="0.465278"/>
<stop offset="1" stop-opacity="0"/>
</linearGradient>
</defs>
</svg>
