<svg width="50" height="50" viewBox="0 0 50 50" fill="none" xmlns="http://www.w3.org/2000/svg">
<path d="M25.4312 10.8478L22.7896 8.20609C22.2042 7.62067 21.4094 7.2915 20.5802 7.2915H5.20833C4.05729 7.2915 3.125 8.2238 3.125 9.37484V40.6248C3.125 41.7759 4.05729 42.7082 5.20833 42.7082H44.7917C45.9427 42.7082 46.875 41.7759 46.875 40.6248V13.5415C46.875 12.3905 45.9427 11.4582 44.7917 11.4582H26.9042C26.3521 11.4582 25.8219 11.2384 25.4312 10.8478Z" fill="url(#paint0_linear_46_5619)"/>
<path d="M22.4854 15.0147L25.8896 11.6106C25.9865 11.5137 26.1187 11.4585 26.2573 11.4585H44.7917C45.9427 11.4585 46.875 12.3908 46.875 13.5418V40.6252C46.875 41.7762 45.9427 42.7085 44.7917 42.7085H5.20833C4.05729 42.7085 3.125 41.7762 3.125 40.6252V16.146C3.125 15.8585 3.35833 15.6252 3.64583 15.6252H21.0125C21.5646 15.6252 22.0948 15.4054 22.4854 15.0147Z" fill="url(#paint1_linear_46_5619)"/>
<path d="M22.9167 21.6665H27.0834V28.8519H22.9167V21.6665Z" fill="#35C1F1"/>
<path d="M27.0833 21.8748H22.9167C22.3417 21.8748 21.875 21.4082 21.875 20.8332C21.875 20.2582 22.3417 19.7915 22.9167 19.7915H27.0833C27.6583 19.7915 28.125 20.2582 28.125 20.8332C28.125 21.4082 27.6583 21.8748 27.0833 21.8748Z" fill="#50E6FF"/>
<path d="M33.8865 35.3042L31.0812 32.1094L27.0833 28.125H22.9167L18.9188 32.1094L16.1135 35.3042C15.8135 35.6469 15.625 36.0812 15.625 36.5625C15.625 37.6552 16.5573 38.5417 17.7083 38.5417H32.2917C33.4427 38.5417 34.375 37.6552 34.375 36.5625C34.375 36.0812 34.1865 35.6469 33.8865 35.3042Z" fill="#35C1F1"/>
<path d="M18.9188 32.1092L16.1135 35.304C15.8135 35.6467 15.625 36.0811 15.625 36.5623C15.625 37.655 16.5573 38.5415 17.7083 38.5415H32.2917C33.4427 38.5415 34.375 37.655 34.375 36.5623C34.375 36.0811 34.1865 35.6467 33.8865 35.304L31.0812 32.1092L30.9667 31.979H19.0333L18.9188 32.1092Z" fill="url(#paint2_linear_46_5619)"/>
<defs>
<linearGradient id="paint0_linear_46_5619" x1="25" y1="6.98734" x2="25" y2="15.6009" gradientUnits="userSpaceOnUse">
<stop stop-color="#EBA600"/>
<stop offset="1" stop-color="#C28200"/>
</linearGradient>
<linearGradient id="paint1_linear_46_5619" x1="25" y1="11.3064" x2="25" y2="42.6908" gradientUnits="userSpaceOnUse">
<stop stop-color="#FFD869"/>
<stop offset="1" stop-color="#FEC52B"/>
</linearGradient>
<linearGradient id="paint2_linear_46_5619" x1="24.5469" y1="32.0332" x2="25.1635" y2="38.1957" gradientUnits="userSpaceOnUse">
<stop stop-color="#F44F5A"/>
<stop offset="0.443" stop-color="#EE3D4A"/>
<stop offset="1" stop-color="#E52030"/>
</linearGradient>
</defs>
</svg>
