<svg width="170" height="170" viewBox="0 0 170 170" fill="none" xmlns="http://www.w3.org/2000/svg">
<g id="bold">
<rect x="7.5" y="7.5" width="155" height="155" rx="12.5" fill="white"/>
<rect x="7.5" y="7.5" width="155" height="155" rx="12.5" fill="url(#paint0_linear_1_2782)" fill-opacity="0.2"/>
<path id="Vector" d="M44.1667 140.418V29.5846C44.1667 27.9746 45.4733 26.668 47.0833 26.668H86.5779C99.5775 26.668 109.57 29.0538 116.558 33.8284C123.544 38.6001 127.038 45.3259 127.038 54.0059C127.038 60.2971 124.912 65.8038 120.662 70.5201C116.41 75.2421 110.979 78.5205 104.37 80.3667V80.6934C112.659 81.723 119.28 84.7884 124.235 89.8896C129.19 94.9821 131.667 101.192 131.667 108.513C131.667 119.196 127.849 127.672 120.213 133.937C112.574 140.202 102.147 143.335 88.9346 143.335H47.0833C45.4733 143.335 44.1667 142.028 44.1667 140.418ZM70.4108 46.0317V73.6934H81.9462C87.3625 73.6934 91.6267 72.3809 94.7446 69.7471C97.8625 67.1134 99.4171 63.4967 99.4171 58.8855C99.4171 50.3163 93.0267 46.0317 80.2429 46.0317H70.4108V46.0317ZM70.4108 93.2176V123.971H84.6267C90.6933 123.971 95.4446 122.562 98.8862 119.742C102.325 116.921 104.043 113.071 104.043 108.189C104.043 103.525 102.348 99.8646 98.965 97.2046C95.5817 94.5505 90.8537 93.2205 84.7871 93.2205H70.4108V93.2176Z" fill="url(#paint1_linear_1_2782)"/>
<rect x="7.5" y="7.5" width="155" height="155" rx="12.5" stroke="#D5EAF6" stroke-width="15"/>
</g>
<defs>
<linearGradient id="paint0_linear_1_2782" x1="85" y1="15" x2="85" y2="155" gradientUnits="userSpaceOnUse">
<stop stop-color="#199AE0"/>
<stop offset="0.472222" stop-color="#0D5176" stop-opacity="0.527778"/>
<stop offset="0.940972" stop-color="#12A6F7" stop-opacity="0.465278"/>
<stop offset="1" stop-opacity="0"/>
</linearGradient>
<linearGradient id="paint1_linear_1_2782" x1="72.5692" y1="22.1296" x2="93.9804" y2="143.568" gradientUnits="userSpaceOnUse">
<stop stop-color="#A235D4"/>
<stop offset="0.441" stop-color="#A033D1"/>
<stop offset="0.702" stop-color="#982CC9"/>
<stop offset="0.915" stop-color="#8B21BB"/>
<stop offset="1" stop-color="#831BB3"/>
</linearGradient>
</defs>
</svg>
