<svg width="170" height="170" viewBox="0 0 170 170" fill="none" xmlns="http://www.w3.org/2000/svg">
<g id="browse-folder">
<rect x="7.5" y="7.5" width="155" height="155" rx="12.5" fill="white"/>
<rect x="7.5" y="7.5" width="155" height="155" rx="12.5" fill="url(#paint0_linear_1_2796)" fill-opacity="0.2"/>
<path id="Vector" d="M86.2075 45.3755L78.8108 37.9788C77.1717 36.3396 74.9463 35.418 72.6246 35.418H29.5833C26.3604 35.418 23.75 38.0284 23.75 41.2513V128.751C23.75 131.974 26.3604 134.585 29.5833 134.585H140.417C143.64 134.585 146.25 131.974 146.25 128.751V52.918C146.25 49.6951 143.64 47.0846 140.417 47.0846H90.3317C88.7858 47.0846 87.3013 46.4692 86.2075 45.3755Z" fill="url(#paint1_linear_1_2796)"/>
<path id="Vector_2" d="M77.9592 57.0395L87.4908 47.5079C87.7621 47.2366 88.1325 47.082 88.5204 47.082H140.417C143.64 47.082 146.25 49.6924 146.25 52.9154V128.749C146.25 131.972 143.64 134.582 140.417 134.582H29.5833C26.3604 134.582 23.75 131.972 23.75 128.749V60.207C23.75 59.402 24.4033 58.7487 25.2083 58.7487H73.835C75.3808 58.7487 76.8654 58.1333 77.9592 57.0395Z" fill="url(#paint2_linear_1_2796)"/>
<path id="Vector_3" d="M98.37 107.797L93.2133 112.954L105.88 125.621C106.166 125.906 106.627 125.906 106.913 125.621L111.037 121.496C111.323 121.211 111.323 120.75 111.037 120.464L98.37 107.797Z" fill="#199BE2"/>
<path id="Vector_4" d="M90.25 99.6797L85.0963 104.833L93.2133 112.953L98.37 107.797L90.25 99.6797Z" fill="url(#paint3_radial_1_2796)"/>
<path id="Vector_5" d="M77.7083 114.168C89.7896 114.168 99.5833 104.374 99.5833 92.293C99.5833 80.2117 89.7896 70.418 77.7083 70.418C65.6271 70.418 55.8333 80.2117 55.8333 92.293C55.8333 104.374 65.6271 114.168 77.7083 114.168Z" fill="url(#paint4_linear_1_2796)"/>
<rect x="7.5" y="7.5" width="155" height="155" rx="12.5" stroke="#D5EAF6" stroke-width="15"/>
</g>
<defs>
<linearGradient id="paint0_linear_1_2796" x1="85" y1="15" x2="85" y2="155" gradientUnits="userSpaceOnUse">
<stop stop-color="#199AE0"/>
<stop offset="0.472222" stop-color="#0D5176" stop-opacity="0.527778"/>
<stop offset="0.940972" stop-color="#12A6F7" stop-opacity="0.465278"/>
<stop offset="1" stop-opacity="0"/>
</linearGradient>
<linearGradient id="paint1_linear_1_2796" x1="85" y1="34.5663" x2="85" y2="58.6842" gradientUnits="userSpaceOnUse">
<stop stop-color="#EBA600"/>
<stop offset="1" stop-color="#C28200"/>
</linearGradient>
<linearGradient id="paint2_linear_1_2796" x1="85" y1="46.6562" x2="85" y2="134.532" gradientUnits="userSpaceOnUse">
<stop stop-color="#FFD869"/>
<stop offset="1" stop-color="#FEC52B"/>
</linearGradient>
<radialGradient id="paint3_radial_1_2796" cx="0" cy="0" r="1" gradientUnits="userSpaceOnUse" gradientTransform="translate(71.6154 86.3184) scale(32.865)">
<stop offset="0.693" stop-color="#006185"/>
<stop offset="0.921" stop-color="#35C1F1"/>
</radialGradient>
<linearGradient id="paint4_linear_1_2796" x1="62.5475" y1="77.1321" x2="93.2104" y2="107.795" gradientUnits="userSpaceOnUse">
<stop stop-color="#80DAFA"/>
<stop offset="1" stop-color="#0A85D9"/>
</linearGradient>
</defs>
</svg>
