<svg width="170" height="170" viewBox="0 0 170 170" fill="none" xmlns="http://www.w3.org/2000/svg">
<g id="businesswoman">
<rect x="7.5" y="7.5" width="155" height="155" rx="12.5" fill="white"/>
<rect x="7.5" y="7.5" width="155" height="155" rx="12.5" fill="url(#paint0_linear_1_2802)" fill-opacity="0.2"/>
<path id="Vector" d="M85 41.25C54.97 41.25 47.5208 89.7396 47.5208 89.7396C47.5208 98.3729 51.5312 105.936 59.9254 107.94C67.1179 109.658 76.1683 111.25 85 111.25C93.8317 111.25 102.882 109.657 110.072 107.942C118.469 105.939 122.476 98.3729 122.476 89.7425C122.479 89.7396 115.03 41.25 85 41.25Z" fill="url(#paint1_radial_1_2802)"/>
<path id="Vector_2" d="M85 104.164C59.2254 104.164 38.3333 118.517 38.3333 134.165V137.499C38.3333 140.722 40.9437 143.332 44.1667 143.332H125.833C129.056 143.332 131.667 140.722 131.667 137.499V134.165C131.667 118.517 110.775 104.164 85 104.164Z" fill="url(#paint2_linear_1_2802)"/>
<path id="Vector_3" d="M98.125 120.001C102.152 120.001 105.417 116.737 105.417 112.71C105.417 108.683 102.152 105.418 98.125 105.418C94.0979 105.418 90.8333 108.683 90.8333 112.71C90.8333 116.737 94.0979 120.001 98.125 120.001Z" fill="#9AAAB8"/>
<path id="Vector_4" d="M105.417 125.832C105.417 138.333 85 143.332 85 143.332C85 143.332 85 128.982 85 125.832C85 120.999 91.8338 117.082 96.6667 117.082C101.5 117.082 105.417 120.999 105.417 125.832Z" fill="#9AAAB8"/>
<path id="Vector_5" d="M71.875 120.001C75.9021 120.001 79.1667 116.737 79.1667 112.71C79.1667 108.683 75.9021 105.418 71.875 105.418C67.8479 105.418 64.5833 108.683 64.5833 112.71C64.5833 116.737 67.8479 120.001 71.875 120.001Z" fill="#9AAAB8"/>
<path id="Vector_6" d="M64.5833 125.832C64.5833 138.333 85 143.332 85 143.332C85 143.332 85 128.982 85 125.832C85 120.999 78.1662 117.082 73.3333 117.082C68.5004 117.082 64.5833 120.999 64.5833 125.832Z" fill="#9AAAB8"/>
<path id="Vector_7" d="M99.5833 102.729C99.5833 125.806 85 137.499 85 137.499C85 137.499 70.4167 125.806 70.4167 102.729C70.4167 95.0379 70.4167 90.832 70.4167 90.832H99.5833C99.5833 90.832 99.5833 95.0379 99.5833 102.729Z" fill="white"/>
<path id="Vector_8" d="M99.5833 102.729C99.5833 125.806 85 137.499 85 137.499C85 137.499 70.4167 125.806 70.4167 102.729C70.4167 95.0379 70.4167 90.832 70.4167 90.832H99.5833C99.5833 90.832 99.5833 95.0379 99.5833 102.729Z" fill="white"/>
<path id="Vector_9" d="M99.5833 105.417C99.5833 110.95 85 122.917 85 122.917C85 122.917 70.4167 110.95 70.4167 105.417C70.4167 97.7259 70.4167 84.8984 70.4167 84.8984H99.5833C99.5833 84.8984 99.5833 97.7259 99.5833 105.417Z" fill="#D6A121"/>
<path id="Vector_10" d="M85 38.5391C96.515 38.5391 108.333 40.5603 108.333 66.8949C108.333 69.0036 108.333 83.6249 108.333 85.8766C108.333 95.2828 94.0446 108.332 85 108.332C75.9554 108.332 61.6667 95.2828 61.6667 85.8795C61.6667 83.6278 61.6667 69.0066 61.6667 66.8978C61.6667 41.2486 73.485 38.5391 85 38.5391Z" fill="url(#paint3_radial_1_2802)"/>
<path id="Vector_11" d="M85 29.582C69.8683 29.582 67.5 38.332 67.5 38.332C61.3487 39.2391 47.0833 41.2487 47.0833 89.3095C47.0833 100.396 52.6337 104.467 54.6667 105.652C47.0833 63.7566 75.0133 70.5204 70.4167 44.1654C82.2175 78.6199 117.938 44.3229 116.707 104.64C120.225 101.965 122.917 96.5983 122.917 89.3095C122.917 49.042 106.58 29.582 85 29.582Z" fill="url(#paint4_radial_1_2802)"/>
<rect x="7.5" y="7.5" width="155" height="155" rx="12.5" stroke="#D5EAF6" stroke-width="15"/>
</g>
<defs>
<linearGradient id="paint0_linear_1_2802" x1="85" y1="15" x2="85" y2="155" gradientUnits="userSpaceOnUse">
<stop stop-color="#199AE0"/>
<stop offset="0.472222" stop-color="#0D5176" stop-opacity="0.527778"/>
<stop offset="0.940972" stop-color="#12A6F7" stop-opacity="0.465278"/>
<stop offset="1" stop-opacity="0"/>
</linearGradient>
<radialGradient id="paint1_radial_1_2802" cx="0" cy="0" r="1" gradientUnits="userSpaceOnUse" gradientTransform="translate(84.2825 77.4312) scale(39.9875 39.9875)">
<stop offset="0.376" stop-color="#261103"/>
<stop offset="0.68" stop-color="#431D06"/>
<stop offset="1" stop-color="#662C09"/>
</radialGradient>
<linearGradient id="paint2_linear_1_2802" x1="75.5675" y1="102.522" x2="88.0625" y2="145.508" gradientUnits="userSpaceOnUse">
<stop stop-color="#8795A1"/>
<stop offset="1" stop-color="#6D7882"/>
</linearGradient>
<radialGradient id="paint3_radial_1_2802" cx="0" cy="0" r="1" gradientUnits="userSpaceOnUse" gradientTransform="translate(84.996 73.4359) rotate(180) scale(28.5679 30.2283)">
<stop stop-color="#FFCF54"/>
<stop offset="0.261" stop-color="#FDCB4D"/>
<stop offset="0.639" stop-color="#F7C13A"/>
<stop offset="1" stop-color="#F0B421"/>
</radialGradient>
<radialGradient id="paint4_radial_1_2802" cx="0" cy="0" r="1" gradientUnits="userSpaceOnUse" gradientTransform="translate(64.245 30.9645) scale(94.3308 94.3308)">
<stop stop-color="#C26715"/>
<stop offset="0.508" stop-color="#B85515"/>
<stop offset="1" stop-color="#AD3F16"/>
</radialGradient>
</defs>
</svg>
