<svg width="50" height="50" viewBox="0 0 50 50" fill="none" xmlns="http://www.w3.org/2000/svg">
<path d="M25.4313 10.8478L22.7896 8.20609C22.2042 7.62067 21.4094 7.2915 20.5802 7.2915H6.25002C5.09898 7.2915 4.16669 8.2238 4.16669 9.37484V16.1457L6.25002 38.5415C6.25002 39.6925 7.18231 40.6248 8.33335 40.6248H41.6667C42.8177 40.6248 43.75 39.6925 43.75 38.5415V14.5832C43.75 13.4321 42.8177 12.4998 41.6667 12.4998L26.9042 11.4582C26.3521 11.4582 25.8219 11.2384 25.4313 10.8478Z" fill="url(#paint0_linear_46_5557)"/>
<path d="M22.4854 15.0147L25.8896 11.6106C25.9865 11.5137 26.1188 11.4585 26.2573 11.4585H43.75C44.9011 11.4585 45.8334 12.3908 45.8334 13.5418V40.6252C45.8334 41.7762 44.9011 42.7085 43.75 42.7085H6.25002C5.09898 42.7085 4.16669 41.7762 4.16669 40.6252V16.146C4.16669 15.8585 4.40002 15.6252 4.68752 15.6252H21.0125C21.5646 15.6252 22.0948 15.4054 22.4854 15.0147Z" fill="url(#paint1_linear_46_5557)"/>
<path d="M33.1 23H16.9C16.4028 23 16 23.387 16 23.8648V36.8375C16 37.3153 16.4028 37.7023 16.9 37.7023H33.1C33.5973 37.7023 34 37.3153 34 36.8375V23.8648C34 23.387 33.5973 23 33.1 23Z" fill="url(#paint2_linear_46_5557)"/>
<path d="M30.85 23.8648H19.15C19.15 25.0588 18.1425 26.0269 16.9 26.0269V34.6754C18.1425 34.6754 19.15 35.6436 19.15 36.8375H30.85C30.85 35.6436 31.8576 34.6754 33.1 34.6754V26.0269C31.8576 26.0269 30.85 25.0588 30.85 23.8648ZM28.6 29.9187H21.4C21.1516 29.9187 20.95 29.725 20.95 29.4863C20.95 29.2476 21.1516 29.0539 21.4 29.0539H28.6C28.8484 29.0539 29.05 29.2476 29.05 29.4863C29.05 29.725 28.8484 29.9187 28.6 29.9187ZM29.05 28.1891H20.95C20.4528 28.1891 20.05 27.802 20.05 27.3242C20.05 26.8464 20.4528 26.4594 20.95 26.4594H29.05C29.5472 26.4594 29.95 26.8464 29.95 27.3242C29.95 27.802 29.5472 28.1891 29.05 28.1891Z" fill="#F0F0F0"/>
<path d="M26.0004 38.9633L25 38.322L23.9997 38.9628C23.8503 39.0593 23.65 38.9559 23.65 38.7834V34.863H26.35V38.7834C26.35 38.9559 26.1498 39.0593 26.0004 38.9633Z" fill="white"/>
<path d="M27.1299 34.0384L26.9723 33.9476C26.9053 33.9087 26.8599 33.8451 26.8396 33.7729C26.8392 33.7716 26.8387 33.7703 26.8383 33.769C26.8171 33.6959 26.8234 33.6181 26.8621 33.5519L26.9512 33.3976C27.0426 33.2397 26.9256 33.0456 26.7379 33.0425L26.5525 33.0395C26.4738 33.0382 26.4013 33.0045 26.3459 32.9513C26.3455 32.9504 26.3451 32.95 26.3442 32.9496C26.2883 32.8964 26.2537 32.8263 26.2524 32.7511L26.2492 32.5729C26.246 32.3926 26.044 32.2806 25.8797 32.368L25.7205 32.4545C25.6512 32.4912 25.5706 32.4973 25.4946 32.4774C25.4932 32.4769 25.4919 32.4765 25.4901 32.4761C25.4145 32.4562 25.3483 32.4129 25.3082 32.3485L25.2138 32.1972C25.117 32.0424 24.8839 32.0424 24.7872 32.1972L24.6931 32.3476C24.6526 32.4125 24.5855 32.4566 24.5099 32.4765C24.509 32.4769 24.5086 32.4769 24.5077 32.4774C24.4308 32.4977 24.3493 32.4916 24.28 32.4545L24.1203 32.3693C23.956 32.2815 23.754 32.3939 23.7508 32.5742L23.7472 32.752C23.7459 32.8272 23.7108 32.8973 23.6554 32.9504C23.6545 32.9509 23.654 32.9517 23.6536 32.9522C23.5982 33.0058 23.5253 33.0391 23.447 33.0404L23.2617 33.0434C23.074 33.0464 22.9575 33.2406 23.0484 33.3984L23.1375 33.5528C23.1757 33.6194 23.182 33.6968 23.1613 33.7699C23.1609 33.7712 23.1604 33.7729 23.1599 33.7738C23.1392 33.8464 23.0938 33.91 23.0272 33.9485L22.8697 34.0393C22.7086 34.1322 22.7086 34.3562 22.8697 34.4492L23.0272 34.54C23.0942 34.5789 23.1397 34.6425 23.1599 34.7147C23.1604 34.716 23.1609 34.7173 23.1613 34.7186C23.1825 34.7917 23.1762 34.8695 23.1375 34.9357L23.0484 35.0901C22.957 35.2479 23.074 35.4421 23.2617 35.4451L23.447 35.4481C23.5258 35.4494 23.5982 35.4831 23.6536 35.5363C23.654 35.5368 23.6545 35.5372 23.6554 35.538C23.7112 35.5912 23.7459 35.6613 23.7472 35.7365L23.7504 35.9147C23.7535 36.095 23.9556 36.207 24.1198 36.1197L24.2805 36.034C24.3498 35.9973 24.4303 35.9912 24.5064 36.0111C24.5077 36.0116 24.5095 36.0116 24.5109 36.012C24.5865 36.0319 24.6526 36.0751 24.6926 36.1395L24.7872 36.2909C24.8839 36.4457 25.117 36.4457 25.2138 36.2909L25.3082 36.1395C25.3488 36.0751 25.4149 36.0314 25.4901 36.012C25.4914 36.0116 25.4932 36.0116 25.4946 36.0111C25.5706 35.9908 25.6516 35.9968 25.7205 36.034L25.8811 36.1197C26.0454 36.2074 26.2474 36.095 26.2506 35.9147L26.2537 35.7365C26.255 35.6609 26.2902 35.5912 26.3455 35.538C26.3464 35.5376 26.3469 35.5372 26.3473 35.5363C26.4027 35.4827 26.4756 35.4494 26.5539 35.4481L26.7393 35.4451C26.9269 35.4421 27.0435 35.2479 26.9526 35.0901L26.8635 34.9357C26.8252 34.8691 26.8189 34.7917 26.8396 34.7186C26.8401 34.7173 26.8401 34.716 26.8405 34.7147C26.8612 34.6421 26.9062 34.5785 26.9733 34.54L27.1308 34.4492C27.291 34.3549 27.291 34.1314 27.1299 34.0384Z" fill="url(#paint3_linear_46_5557)"/>
<defs>
<linearGradient id="paint0_linear_46_5557" x1="23.9584" y1="7.00505" x2="23.9584" y2="15.1123" gradientUnits="userSpaceOnUse">
<stop stop-color="#EBA600"/>
<stop offset="1" stop-color="#C28200"/>
</linearGradient>
<linearGradient id="paint1_linear_46_5557" x1="25" y1="11.3064" x2="25" y2="42.6908" gradientUnits="userSpaceOnUse">
<stop stop-color="#FFD869"/>
<stop offset="1" stop-color="#FEC52B"/>
</linearGradient>
<linearGradient id="paint2_linear_46_5557" x1="16" y1="31" x2="34" y2="31" gradientUnits="userSpaceOnUse">
<stop stop-color="#32BDEF"/>
<stop offset="1" stop-color="#1EA2E4"/>
</linearGradient>
<linearGradient id="paint3_linear_46_5557" x1="23.8561" y1="32.3329" x2="26.0012" y2="36.2126" gradientUnits="userSpaceOnUse">
<stop stop-color="#FFDA1C"/>
<stop offset="1" stop-color="#FEB705"/>
</linearGradient>
</defs>
</svg>
