<svg width="170" height="170" viewBox="0 0 170 170" fill="none" xmlns="http://www.w3.org/2000/svg">
<g id="chain">
<rect x="7.5" y="7.5" width="155" height="155" rx="12.5" fill="white"/>
<rect x="7.5" y="7.5" width="155" height="155" rx="12.5" fill="url(#paint0_linear_1_2842)" fill-opacity="0.2"/>
<path id="Vector" d="M83.4542 98.911C83.2769 98.4284 83.0623 97.9603 82.8125 97.511C82.6265 97.0221 82.392 96.5531 82.1125 96.111C81.1428 94.4018 79.9457 92.8319 78.5542 91.4443C77.1742 90.0441 75.6031 88.8461 73.8875 87.886C73.4463 87.6144 72.9885 87.3708 72.5167 87.1568C72.05 86.9233 71.5835 86.7193 71.1167 86.5152C67.0513 84.8788 62.5946 84.4736 58.3008 85.35C54.007 86.2263 50.0656 88.3457 46.9667 91.4443L33.1125 105.298C28.9442 109.492 26.6084 115.166 26.6172 121.079C26.6259 126.991 28.9785 132.659 33.1592 136.839C37.3399 141.02 43.0076 143.373 48.9199 143.381C54.8323 143.39 60.507 141.054 64.7 136.886L78.5542 123.032C81.6437 119.933 83.7551 115.995 84.6262 111.707C85.4973 107.419 85.0898 102.97 83.4542 98.911ZM70.3 114.778L56.4458 128.632C54.4462 130.631 51.7341 131.755 48.9062 131.755C46.0784 131.755 43.3663 130.631 41.3667 128.632C39.367 126.632 38.2437 123.92 38.2437 121.092C38.2437 118.264 39.367 115.552 41.3667 113.553L55.2208 99.6985C56.7722 98.1439 58.7712 97.1138 60.9375 96.7527C61.5431 96.6365 62.1583 96.5779 62.775 96.5775C62.8731 96.5727 62.9714 96.5825 63.0667 96.6067C63.7043 96.6024 64.3404 96.671 64.9625 96.811C66.9852 97.2324 68.8405 98.2361 70.3 99.6985C71.7831 101.142 72.7905 103.005 73.1875 105.036C73.3274 105.658 73.3959 106.294 73.3917 106.932C73.4459 107.655 73.3968 108.381 73.2458 109.09C72.8964 111.252 71.8641 113.245 70.3 114.778ZM78.5542 91.4443C77.1742 90.0441 75.6031 88.8461 73.8875 87.886L64.9625 96.8112C66.9852 97.2325 68.8405 98.2362 70.3 99.6987C71.7831 101.143 72.7905 103.005 73.1875 105.036L82.1125 96.1113C81.1428 94.402 79.9458 92.832 78.5542 91.4443V91.4443Z" fill="#0078D4"/>
<path id="Vector_2" d="M136.888 33.111C132.698 28.923 127.017 26.5703 121.094 26.5703C115.17 26.5703 109.489 28.923 105.3 33.111L91.4458 46.9651C88.3563 50.0638 86.2449 54.0016 85.3738 58.2898C84.5026 62.5779 84.9102 67.0274 86.5458 71.086C86.7231 71.5686 86.9377 72.0366 87.1875 72.486C87.3735 72.9748 87.608 73.4438 87.8875 73.886C88.8572 75.5952 90.0542 77.1651 91.4458 78.5526C92.8258 79.9529 94.3969 81.1508 96.1125 82.111C96.5537 82.3825 97.0116 82.626 97.4833 82.8401C97.95 83.0735 98.4165 83.2773 98.8833 83.4818C102.95 85.1089 107.405 85.5091 111.696 84.6331C115.988 83.7572 119.929 81.6433 123.033 78.5526L136.888 64.6985C141.062 60.5024 143.406 54.824 143.406 48.9047C143.406 42.9855 141.062 37.307 136.888 33.111V33.111ZM128.633 56.4443L114.779 70.2985C113.236 71.8636 111.233 72.8955 109.062 73.2443C108.364 73.3954 107.646 73.4445 106.933 73.3901C106.296 73.3944 105.66 73.3258 105.038 73.1858C103.016 72.7624 101.161 71.759 99.7 70.2983C98.2392 68.8375 97.2358 66.9828 96.8125 64.9608C96.6726 64.3386 96.6041 63.7026 96.6083 63.0649C96.5541 62.3422 96.6032 61.6155 96.7542 60.9066C97.1035 58.7449 98.1359 56.7518 99.7 55.2193L113.554 41.3651C115.554 39.3655 118.266 38.2421 121.094 38.2421C122.494 38.2421 123.88 38.5179 125.174 39.0538C126.468 39.5896 127.643 40.375 128.633 41.3651C129.623 42.3553 130.409 43.5307 130.945 44.8243C131.481 46.118 131.756 47.5045 131.756 48.9047C131.756 50.305 131.481 51.6915 130.945 52.9851C130.409 54.2788 129.623 55.4542 128.633 56.4443Z" fill="#0078D4"/>
<path id="Vector_3" d="M67.5 108.334C66.3464 108.334 65.2188 107.992 64.2596 107.351C63.3005 106.71 62.553 105.799 62.1115 104.733C61.6701 103.667 61.5546 102.494 61.7796 101.363C62.0046 100.231 62.56 99.1921 63.3757 98.3763L98.3757 63.3763C99.4695 62.2825 100.953 61.668 102.5 61.668C104.047 61.668 105.53 62.2825 106.624 63.3763C107.718 64.4702 108.333 65.9537 108.333 67.5007C108.333 69.0476 107.718 70.5312 106.624 71.625L71.6243 106.625C71.0834 107.168 70.4405 107.598 69.7327 107.891C69.0249 108.184 68.2662 108.335 67.5 108.334V108.334Z" fill="#1B9DE2"/>
<path id="Vector_4" opacity="0.05" d="M72.5167 87.1602C72.05 86.9266 71.5835 86.7227 71.1167 86.5185L61.3167 96.3185C61.182 96.4569 61.0554 96.603 60.9375 96.756C61.5431 96.6399 62.1583 96.5812 62.775 96.5808C62.8731 96.576 62.9714 96.5859 63.0667 96.61C63.7043 96.6057 64.3404 96.6743 64.9625 96.8144L73.8875 87.8893C73.4463 87.6177 72.9885 87.3742 72.5167 87.1602V87.1602ZM82.8125 97.5143C82.6265 97.0255 82.392 96.5565 82.1125 96.1143L73.1875 105.039C73.3274 105.661 73.3959 106.298 73.3917 106.935C73.4459 107.658 73.3968 108.385 73.2458 109.093C73.3988 108.965 73.5448 108.829 73.6833 108.685L83.4542 98.9143C83.2769 98.4317 83.0623 97.9637 82.8125 97.5143V97.5143ZM106.933 73.3935C106.296 73.3977 105.66 73.3292 105.038 73.1891L96.1125 82.1143C96.5537 82.3858 97.0116 82.6293 97.4833 82.8435C97.95 83.0768 98.4165 83.2807 98.8833 83.4852L108.683 73.6852C108.818 73.5467 108.945 73.4007 109.063 73.2477C108.364 73.3987 107.646 73.4478 106.933 73.3935V73.3935ZM96.6083 63.0685C96.5541 62.3458 96.6032 61.619 96.7542 60.9102C96.6011 61.0383 96.4551 61.1746 96.3167 61.3185L86.5458 71.0893C86.7231 71.5719 86.9377 72.04 87.1875 72.4893C87.3735 72.9782 87.608 73.4472 87.8875 73.8893L96.8125 64.9643C96.6726 64.3422 96.6041 63.7061 96.6083 63.0685V63.0685Z" fill="black"/>
<path id="Vector_5" opacity="0.07" d="M72.5167 87.1581L63.0667 96.6081C63.7043 96.6038 64.3404 96.6724 64.9625 96.8124L73.8875 87.8872C73.4463 87.6156 72.9885 87.3721 72.5167 87.1581V87.1581ZM82.1125 96.1124L73.1875 105.037C73.3274 105.659 73.3959 106.295 73.3917 106.933L82.8125 97.5122C82.6265 97.0235 82.392 96.5545 82.1125 96.1124V96.1124ZM105.038 73.1872L96.1125 82.1122C96.5537 82.3837 97.0116 82.6273 97.4833 82.8414L106.933 73.3914C106.296 73.3957 105.66 73.3272 105.038 73.1872V73.1872ZM96.6083 63.0664L87.1875 72.4872C87.3735 72.9761 87.608 73.4451 87.8875 73.8872L96.8125 64.9622C96.6726 64.3401 96.6041 63.7041 96.6083 63.0664V63.0664Z" fill="black"/>
<rect x="7.5" y="7.5" width="155" height="155" rx="12.5" stroke="#D5EAF6" stroke-width="15"/>
</g>
<defs>
<linearGradient id="paint0_linear_1_2842" x1="85" y1="15" x2="85" y2="155" gradientUnits="userSpaceOnUse">
<stop stop-color="#199AE0"/>
<stop offset="0.472222" stop-color="#0D5176" stop-opacity="0.527778"/>
<stop offset="0.940972" stop-color="#12A6F7" stop-opacity="0.465278"/>
<stop offset="1" stop-opacity="0"/>
</linearGradient>
</defs>
</svg>
