<svg width="170" height="170" viewBox="0 0 170 170" fill="none" xmlns="http://www.w3.org/2000/svg">
<g id="change-theme">
<rect x="7.5" y="7.5" width="155" height="155" rx="12.5" fill="white"/>
<rect x="7.5" y="7.5" width="155" height="155" rx="12.5" fill="url(#paint0_linear_1_2848)" fill-opacity="0.2"/>
<path id="Vector" d="M29.5833 44.168H105.417V96.668H35.4167C32.1937 96.668 29.5833 94.0576 29.5833 90.8346V44.168Z" fill="url(#paint1_linear_1_2848)"/>
<path id="Vector_2" d="M105.417 44.1667V38.3333C105.417 35.1104 102.806 32.5 99.5833 32.5H35.4167C32.1937 32.5 29.5833 35.1104 29.5833 38.3333V44.1667H105.417Z" fill="url(#paint2_linear_1_2848)"/>
<path id="Vector_3" d="M58.75 82.0833H44.1667C42.5567 82.0833 41.25 80.7767 41.25 79.1667V61.6667C41.25 60.0567 42.5567 58.75 44.1667 58.75H58.75C60.36 58.75 61.6667 60.0567 61.6667 61.6667V79.1667C61.6667 80.7767 60.36 82.0833 58.75 82.0833Z" fill="url(#paint3_linear_1_2848)"/>
<path id="Vector_4" d="M90.8333 82.0833H76.25C74.64 82.0833 73.3333 80.7767 73.3333 79.1667V61.6667C73.3333 60.0567 74.64 58.75 76.25 58.75H90.8333C92.4433 58.75 93.75 60.0567 93.75 61.6667V79.1667C93.75 80.7767 92.4433 82.0833 90.8333 82.0833Z" fill="url(#paint4_linear_1_2848)"/>
<path id="Vector_5" opacity="0.05" d="M105.417 96.668V70.418H70.4167C65.5925 70.418 61.6667 74.3438 61.6667 79.168V96.668H105.417Z" fill="black"/>
<path id="Vector_6" opacity="0.07" d="M105.417 96.6667V71.875H70.4167C66.3975 71.875 63.125 75.1475 63.125 79.1667V96.6667H105.417Z" fill="black"/>
<path id="Vector_7" d="M64.5833 85H140.417V131.667C140.417 134.89 137.806 137.5 134.583 137.5H70.4167C67.1937 137.5 64.5833 134.89 64.5833 131.667V85Z" fill="url(#paint5_linear_1_2848)"/>
<path id="Vector_8" d="M140.417 84.9987V79.1654C140.417 75.9424 137.806 73.332 134.583 73.332H70.4167C67.1937 73.332 64.5833 75.9424 64.5833 79.1654V84.9987H140.417Z" fill="url(#paint6_linear_1_2848)"/>
<g id="Group">
<path id="Vector_9" d="M93.75 122.915H79.1667C77.5567 122.915 76.25 121.609 76.25 119.999V102.499C76.25 100.889 77.5567 99.582 79.1667 99.582H93.75C95.36 99.582 96.6667 100.889 96.6667 102.499V119.999C96.6667 121.609 95.36 122.915 93.75 122.915Z" fill="url(#paint7_linear_1_2848)"/>
<path id="Vector_10" d="M125.833 122.915H111.25C109.64 122.915 108.333 121.609 108.333 119.999V102.499C108.333 100.889 109.64 99.582 111.25 99.582H125.833C127.443 99.582 128.75 100.889 128.75 102.499V119.999C128.75 121.609 127.443 122.915 125.833 122.915Z" fill="url(#paint8_linear_1_2848)"/>
</g>
<rect x="7.5" y="7.5" width="155" height="155" rx="12.5" stroke="#D5EAF6" stroke-width="15"/>
</g>
<defs>
<linearGradient id="paint0_linear_1_2848" x1="85" y1="15" x2="85" y2="155" gradientUnits="userSpaceOnUse">
<stop stop-color="#199AE0"/>
<stop offset="0.472222" stop-color="#0D5176" stop-opacity="0.527778"/>
<stop offset="0.940972" stop-color="#12A6F7" stop-opacity="0.465278"/>
<stop offset="1" stop-opacity="0"/>
</linearGradient>
<linearGradient id="paint1_linear_1_2848" x1="37.7296" y1="38.9384" x2="83.7342" y2="84.943" gradientUnits="userSpaceOnUse">
<stop stop-color="#7DD8F3"/>
<stop offset="1" stop-color="#45B0D0"/>
</linearGradient>
<linearGradient id="paint2_linear_1_2848" x1="29.5833" y1="38.3333" x2="105.417" y2="38.3333" gradientUnits="userSpaceOnUse">
<stop stop-color="#0077D2"/>
<stop offset="1" stop-color="#0B59A2"/>
</linearGradient>
<linearGradient id="paint3_linear_1_2848" x1="51.4583" y1="58.75" x2="51.4583" y2="86.2775" gradientUnits="userSpaceOnUse">
<stop stop-color="#199AE0"/>
<stop offset="1" stop-color="#0782D8"/>
</linearGradient>
<linearGradient id="paint4_linear_1_2848" x1="83.5417" y1="58.75" x2="83.5417" y2="86.2775" gradientUnits="userSpaceOnUse">
<stop stop-color="#199AE0"/>
<stop offset="1" stop-color="#0782D8"/>
</linearGradient>
<linearGradient id="paint5_linear_1_2848" x1="64.5833" y1="111.25" x2="140.417" y2="111.25" gradientUnits="userSpaceOnUse">
<stop stop-color="#9DFFCE"/>
<stop offset="1" stop-color="#50D18D"/>
</linearGradient>
<linearGradient id="paint6_linear_1_2848" x1="64.5833" y1="79.1654" x2="140.417" y2="79.1654" gradientUnits="userSpaceOnUse">
<stop stop-color="#21AD64"/>
<stop offset="1" stop-color="#088242"/>
</linearGradient>
<linearGradient id="paint7_linear_1_2848" x1="76.25" y1="111.249" x2="96.6667" y2="111.249" gradientUnits="userSpaceOnUse">
<stop offset="0.824" stop-color="#135D36"/>
<stop offset="0.931" stop-color="#125933"/>
<stop offset="1" stop-color="#11522F"/>
</linearGradient>
<linearGradient id="paint8_linear_1_2848" x1="108.333" y1="111.249" x2="128.75" y2="111.249" gradientUnits="userSpaceOnUse">
<stop offset="0.824" stop-color="#135D36"/>
<stop offset="0.931" stop-color="#125933"/>
<stop offset="1" stop-color="#11522F"/>
</linearGradient>
</defs>
</svg>
