<svg width="170" height="170" viewBox="0 0 170 170" fill="none" xmlns="http://www.w3.org/2000/svg">
<g id="chart">
<rect x="7.5" y="7.5" width="155" height="155" rx="12.5" fill="white"/>
<rect x="7.5" y="7.5" width="155" height="155" rx="12.5" fill="url(#paint0_linear_1_2860)" fill-opacity="0.2"/>
<path id="Vector" d="M85 26.668C52.7825 26.668 26.6667 52.7838 26.6667 85.0013C26.6667 117.219 52.7825 143.335 85 143.335C100.68 143.335 114.884 137.116 125.367 127.051L85 85.0013V26.668Z" fill="#50E6FF"/>
<path id="Vector_2" d="M143.333 85.0013C143.333 52.7838 117.217 26.668 85 26.668V85.0013H143.333Z" fill="#0078D4"/>
<path id="Vector_3" d="M143.333 85H85L125.367 127.05C136.421 116.433 143.333 101.538 143.333 85Z" fill="#199BE2"/>
<path id="Vector_4" d="M113.157 25.2734L90.8333 79.1676L145.13 57.9664C139.553 43.6893 128.435 31.6026 113.157 25.2734Z" fill="url(#paint1_linear_1_2860)"/>
<rect x="7.5" y="7.5" width="155" height="155" rx="12.5" stroke="#D5EAF6" stroke-width="15"/>
</g>
<defs>
<linearGradient id="paint0_linear_1_2860" x1="85" y1="15" x2="85" y2="155" gradientUnits="userSpaceOnUse">
<stop stop-color="#199AE0"/>
<stop offset="0.472222" stop-color="#0D5176" stop-opacity="0.527778"/>
<stop offset="0.940972" stop-color="#12A6F7" stop-opacity="0.465278"/>
<stop offset="1" stop-opacity="0"/>
</linearGradient>
<linearGradient id="paint1_linear_1_2860" x1="90.8333" y1="52.2205" x2="145.13" y2="52.2205" gradientUnits="userSpaceOnUse">
<stop stop-color="#C965EB"/>
<stop offset="1" stop-color="#C767E5"/>
</linearGradient>
</defs>
</svg>
