<svg width="170" height="170" viewBox="0 0 170 170" fill="none" xmlns="http://www.w3.org/2000/svg">
<g id="chatbot">
<rect x="7.5" y="7.5" width="155" height="155" rx="12.5" fill="white"/>
<rect x="7.5" y="7.5" width="155" height="155" rx="12.5" fill="url(#paint0_linear_1_2)" fill-opacity="0.2"/>
<path id="Vector" d="M114.167 134.583H90.9004C89.2875 134.583 87.9838 133.277 87.9838 131.667C87.9838 130.057 89.2875 128.75 90.9004 128.75H114.167C123.818 128.75 131.667 120.901 131.667 111.25V105.417C131.667 103.807 132.97 102.5 134.583 102.5C136.196 102.5 137.5 103.807 137.5 105.417V111.25C137.5 124.115 127.032 134.583 114.167 134.583Z" fill="url(#paint1_linear_1_2)"/>
<path id="Vector_2" d="M136.042 76.25H128.75V105.417H136.042C144.903 105.417 152.083 98.8863 152.083 90.8333C152.083 82.7804 144.903 76.25 136.042 76.25Z" fill="url(#paint2_linear_1_2)"/>
<path id="Vector_3" d="M33.9583 76.25H41.25V105.417H33.9583C25.0975 105.417 17.9167 98.8863 17.9167 90.8333C17.9167 82.7804 25.0975 76.25 33.9583 76.25Z" fill="url(#paint3_linear_1_2)"/>
<path id="Vector_4" d="M85 61.6667C83.3871 61.6667 82.0833 60.36 82.0833 58.75V38.3333C82.0833 36.7233 83.3871 35.4167 85 35.4167C86.6129 35.4167 87.9167 36.7233 87.9167 38.3333V58.75C87.9167 60.36 86.6129 61.6667 85 61.6667Z" fill="url(#paint4_linear_1_2)"/>
<path id="Vector_5" d="M114.167 128.75H55.8333C46.1675 128.75 38.3333 120.916 38.3333 111.25V70.4167C38.3333 60.7508 46.1675 52.9167 55.8333 52.9167H114.167C123.833 52.9167 131.667 60.7508 131.667 70.4167V111.25C131.667 120.916 123.833 128.75 114.167 128.75Z" fill="#199BE2"/>
<path id="Vector_6" d="M50 102.112V79.5575C50 74.5088 54.0921 70.4167 59.1379 70.4167H110.859C115.908 70.4167 120 74.5088 120 79.5546V102.109C120 107.158 115.908 111.25 110.862 111.25H59.1379C54.0921 111.25 50 107.158 50 102.112Z" fill="url(#paint5_linear_1_2)"/>
<path id="Vector_7" d="M85 29.5833C88.2229 29.5833 90.8333 32.1937 90.8333 35.4167C90.8333 38.6396 88.2229 41.25 85 41.25C81.7771 41.25 79.1667 38.6396 79.1667 35.4167C79.1667 32.1937 81.7771 29.5833 85 29.5833Z" fill="url(#paint6_linear_1_2)"/>
<path id="Vector_8" opacity="0.05" d="M67.5 105.417C62.6758 105.417 58.75 101.491 58.75 96.6667V85C58.75 80.1758 62.6758 76.25 67.5 76.25C72.3242 76.25 76.25 80.1758 76.25 85V96.6667C76.25 101.491 72.3242 105.417 67.5 105.417Z" fill="black"/>
<path id="Vector_9" opacity="0.07" d="M67.5 103.958C63.4779 103.958 60.2083 100.686 60.2083 96.6667V85C60.2083 80.9808 63.4779 77.7083 67.5 77.7083C71.5221 77.7083 74.7917 80.9808 74.7917 85V96.6667C74.7917 100.686 71.5221 103.958 67.5 103.958Z" fill="black"/>
<path id="Vector_10" d="M67.5 79.1667C70.7229 79.1667 73.3333 81.7771 73.3333 85V96.6667C73.3333 99.8896 70.7229 102.5 67.5 102.5C64.2771 102.5 61.6667 99.8896 61.6667 96.6667V85C61.6667 81.7771 64.2771 79.1667 67.5 79.1667Z" fill="#50E6FF"/>
<path id="Vector_11" opacity="0.05" d="M102.5 105.417C97.6758 105.417 93.75 101.491 93.75 96.6667V85C93.75 80.1758 97.6758 76.25 102.5 76.25C107.324 76.25 111.25 80.1758 111.25 85V96.6667C111.25 101.491 107.324 105.417 102.5 105.417Z" fill="black"/>
<path id="Vector_12" opacity="0.07" d="M102.5 103.958C98.4779 103.958 95.2083 100.686 95.2083 96.6667V85C95.2083 80.9808 98.4779 77.7083 102.5 77.7083C106.522 77.7083 109.792 80.9808 109.792 85V96.6667C109.792 100.686 106.522 103.958 102.5 103.958Z" fill="black"/>
<path id="Vector_13" d="M102.5 79.1667C105.723 79.1667 108.333 81.7771 108.333 85V96.6667C108.333 99.8896 105.723 102.5 102.5 102.5C99.2771 102.5 96.6667 99.8896 96.6667 96.6667V85C96.6667 81.7771 99.2771 79.1667 102.5 79.1667Z" fill="#50E6FF"/>
<path id="Vector_14" opacity="0.05" d="M96.6667 128.75H73.3333C73.3333 125.542 75.9583 122.917 79.1667 122.917H90.8333C94.0417 122.917 96.6667 125.542 96.6667 128.75Z" fill="black"/>
<path id="Vector_15" opacity="0.07" d="M95.2083 128.75H74.7917C74.7917 126.329 76.7458 124.375 79.1667 124.375H90.8333C93.2542 124.375 95.2083 126.329 95.2083 128.75Z" fill="black"/>
<path id="Vector_16" d="M90.8333 137.5H79.1667C77.5567 137.5 76.25 136.193 76.25 134.583V128.75C76.25 127.14 77.5567 125.833 79.1667 125.833H90.8333C92.4433 125.833 93.75 127.14 93.75 128.75V134.583C93.75 136.193 92.4433 137.5 90.8333 137.5Z" fill="url(#paint7_linear_1_2)"/>
<rect x="7.5" y="7.5" width="155" height="155" rx="12.5" stroke="#D5EAF6" stroke-width="15"/>
</g>
<defs>
<linearGradient id="paint0_linear_1_2" x1="85" y1="15" x2="85" y2="155" gradientUnits="userSpaceOnUse">
<stop stop-color="#199AE0"/>
<stop offset="0.472222" stop-color="#0D5176" stop-opacity="0.527778"/>
<stop offset="0.940972" stop-color="#12A6F7" stop-opacity="0.465278"/>
<stop offset="1" stop-opacity="0"/>
</linearGradient>
<linearGradient id="paint1_linear_1_2" x1="112.74" y1="122.558" x2="112.74" y2="107.505" gradientUnits="userSpaceOnUse">
<stop stop-color="#0077D2"/>
<stop offset="1" stop-color="#0B59A2"/>
</linearGradient>
<linearGradient id="paint2_linear_1_2" x1="140.417" y1="78.2712" x2="140.417" y2="137.328" gradientUnits="userSpaceOnUse">
<stop stop-color="#0077D2"/>
<stop offset="1" stop-color="#0B59A2"/>
</linearGradient>
<linearGradient id="paint3_linear_1_2" x1="29.5833" y1="78.2712" x2="29.5833" y2="137.328" gradientUnits="userSpaceOnUse">
<stop stop-color="#0077D2"/>
<stop offset="1" stop-color="#0B59A2"/>
</linearGradient>
<linearGradient id="paint4_linear_1_2" x1="85.3937" y1="37.6975" x2="84.4137" y2="64.6942" gradientUnits="userSpaceOnUse">
<stop stop-color="#0077D2"/>
<stop offset="1" stop-color="#0B59A2"/>
</linearGradient>
<linearGradient id="paint5_linear_1_2" x1="85" y1="72.7558" x2="85" y2="131.576" gradientUnits="userSpaceOnUse">
<stop stop-color="#0077D2"/>
<stop offset="1" stop-color="#0B59A2"/>
</linearGradient>
<linearGradient id="paint6_linear_1_2" x1="85" y1="29.8079" x2="85" y2="40.8212" gradientUnits="userSpaceOnUse">
<stop stop-color="#0077D2"/>
<stop offset="1" stop-color="#0B59A2"/>
</linearGradient>
<linearGradient id="paint7_linear_1_2" x1="85" y1="126.478" x2="85" y2="138.643" gradientUnits="userSpaceOnUse">
<stop stop-color="#4C4C4C"/>
<stop offset="1" stop-color="#343434"/>
</linearGradient>
</defs>
</svg>
