<svg width="170" height="170" viewBox="0 0 170 170" fill="none" xmlns="http://www.w3.org/2000/svg">
<g id="chat-room">
<rect x="7.5" y="7.5" width="155" height="155" rx="12.5" fill="white"/>
<rect x="7.5" y="7.5" width="155" height="155" rx="12.5" fill="url(#paint0_linear_1_30)" fill-opacity="0.2"/>
<path id="Vector" d="M143.625 32.5H43.875C40.8125 32.5 38.3333 34.9354 38.3333 37.9454V108.724C38.3333 111.731 40.8125 114.167 43.875 114.167H143.625C146.687 114.167 149.167 111.731 149.167 108.721V37.9454C149.167 34.9354 146.687 32.5 143.625 32.5Z" fill="url(#paint1_linear_1_30)"/>
<path id="Vector_2" opacity="0.05" d="M143.333 114.167V46.9317C143.333 42.1892 139.475 38.3333 134.732 38.3333H38.3333V114.167H143.333Z" fill="black"/>
<path id="Vector_3" opacity="0.07" d="M141.875 114.167V46.9317C141.875 42.9942 138.67 39.7917 134.732 39.7917H38.3333V114.167H141.875Z" fill="black"/>
<path id="Vector_4" d="M134.732 41.25H32.3512C29.21 41.25 26.6667 43.7933 26.6667 46.9346V120.152C26.6667 123.29 29.21 125.833 32.3512 125.833H55.8333V148.33C55.8333 150.861 58.8929 152.13 60.6837 150.339L85.1896 125.833H134.732C137.873 125.833 140.417 123.29 140.417 120.149V46.9346C140.417 43.7933 137.873 41.25 134.732 41.25Z" fill="url(#paint2_linear_1_30)"/>
<rect x="7.5" y="7.5" width="155" height="155" rx="12.5" stroke="#D5EAF6" stroke-width="15"/>
</g>
<defs>
<linearGradient id="paint0_linear_1_30" x1="85" y1="15" x2="85" y2="155" gradientUnits="userSpaceOnUse">
<stop stop-color="#199AE0"/>
<stop offset="0.472222" stop-color="#0D5176" stop-opacity="0.527778"/>
<stop offset="0.940972" stop-color="#12A6F7" stop-opacity="0.465278"/>
<stop offset="1" stop-opacity="0"/>
</linearGradient>
<linearGradient id="paint1_linear_1_30" x1="62.7079" y1="22.8254" x2="125.524" y2="125.028" gradientUnits="userSpaceOnUse">
<stop stop-color="#0176D0"/>
<stop offset="1" stop-color="#16538C"/>
</linearGradient>
<linearGradient id="paint2_linear_1_30" x1="51.5225" y1="31.4471" x2="116.313" y2="136.861" gradientUnits="userSpaceOnUse">
<stop stop-color="#0176D0"/>
<stop offset="1" stop-color="#0A85D9"/>
</linearGradient>
</defs>
</svg>
