<svg width="170" height="170" viewBox="0 0 170 170" fill="none" xmlns="http://www.w3.org/2000/svg">
<g id="checked-checkbox">
<rect x="7.5" y="7.5" width="155" height="155" rx="12.5" fill="white"/>
<rect x="7.5" y="7.5" width="155" height="155" rx="12.5" fill="url(#paint0_linear_1_35)" fill-opacity="0.2"/>
<path id="Vector" d="M131.667 32.5H38.3333C35.1104 32.5 32.5 35.1104 32.5 38.3333V131.667C32.5 134.89 35.1104 137.5 38.3333 137.5H131.667C134.89 137.5 137.5 134.89 137.5 131.667V38.3333C137.5 35.1104 134.89 32.5 131.667 32.5Z" fill="url(#paint1_linear_1_35)"/>
<path id="Vector_2" opacity="0.018" d="M122.917 128.485H47.0833C44.0092 128.485 41.5154 125.991 41.5154 122.917V47.0833C41.5154 44.0092 44.0092 41.5154 47.0833 41.5154H122.917C125.991 41.5154 128.485 44.0092 128.485 47.0833V122.917C128.485 125.991 125.991 128.485 122.917 128.485Z" fill="black"/>
<path id="Vector_3" opacity="0.036" d="M122.917 128.219H47.0833C44.155 128.219 41.7808 125.845 41.7808 122.917V47.0833C41.7808 44.155 44.155 41.7808 47.0833 41.7808H122.917C125.845 41.7808 128.219 44.155 128.219 47.0833V122.917C128.219 125.845 125.845 128.219 122.917 128.219Z" fill="black"/>
<path id="Vector_4" opacity="0.054" d="M122.917 127.954H47.0833C44.3008 127.954 42.0462 125.699 42.0462 122.917V47.0833C42.0462 44.3008 44.3008 42.0463 47.0833 42.0463H122.917C125.699 42.0463 127.954 44.3008 127.954 47.0833V122.917C127.954 125.699 125.699 127.954 122.917 127.954Z" fill="black"/>
<path id="Vector_5" opacity="0.073" d="M122.917 127.688H47.0833C44.4467 127.688 42.3117 125.55 42.3117 122.917V47.0833C42.3117 44.4467 44.4496 42.3117 47.0833 42.3117H122.917C125.553 42.3117 127.688 44.4496 127.688 47.0833V122.917C127.688 125.553 125.553 127.688 122.917 127.688Z" fill="black"/>
<path id="Vector_6" opacity="0.091" d="M122.917 127.423H47.0833C44.5925 127.423 42.5771 125.405 42.5771 122.917V47.0833C42.5771 44.5925 44.5954 42.5771 47.0833 42.5771H122.917C125.407 42.5771 127.423 44.5954 127.423 47.0833V122.917C127.423 125.408 125.407 127.423 122.917 127.423Z" fill="black"/>
<path id="Vector_7" opacity="0.109" d="M122.917 127.16H47.0833C44.7413 127.16 42.8396 125.262 42.8396 122.917V47.0833C42.8396 44.7412 44.7383 42.8396 47.0833 42.8396H122.917C125.259 42.8396 127.16 44.7383 127.16 47.0833V122.917C127.16 125.259 125.259 127.16 122.917 127.16Z" fill="black"/>
<path id="Vector_8" opacity="0.127" d="M122.917 126.895H47.0833C44.8871 126.895 43.105 125.113 43.105 122.917V47.0833C43.105 44.8871 44.8871 43.105 47.0833 43.105H122.917C125.113 43.105 126.895 44.8871 126.895 47.0833V122.917C126.895 125.113 125.113 126.895 122.917 126.895Z" fill="black"/>
<path id="Vector_9" opacity="0.145" d="M122.917 126.63H47.0833C45.0329 126.63 43.3704 124.967 43.3704 122.917V47.0833C43.3704 45.0329 45.0329 43.3704 47.0833 43.3704H122.917C124.967 43.3704 126.63 45.0329 126.63 47.0833V122.917C126.63 124.967 124.967 126.63 122.917 126.63Z" fill="black"/>
<path id="Vector_10" opacity="0.164" d="M122.917 126.364H47.0833C45.1788 126.364 43.6358 124.821 43.6358 122.917V47.0833C43.6358 45.1788 45.1788 43.6358 47.0833 43.6358H122.917C124.821 43.6358 126.364 45.1788 126.364 47.0833V122.917C126.364 124.821 124.821 126.364 122.917 126.364Z" fill="black"/>
<path id="Vector_11" opacity="0.182" d="M122.917 126.099H47.0833C45.3275 126.099 43.9012 124.675 43.9012 122.917V47.0833C43.9012 45.3275 45.3246 43.9012 47.0833 43.9012H122.917C124.672 43.9012 126.099 45.3246 126.099 47.0833V122.917C126.099 124.672 124.672 126.099 122.917 126.099Z" fill="black"/>
<path id="Vector_12" opacity="0.2" d="M122.917 125.833H47.0833C45.4733 125.833 44.1667 124.527 44.1667 122.917V47.0833C44.1667 45.4733 45.4733 44.1667 47.0833 44.1667H122.917C124.527 44.1667 125.833 45.4733 125.833 47.0833V122.917C125.833 124.527 124.527 125.833 122.917 125.833Z" fill="black"/>
<path id="Vector_13" d="M122.917 125.833H47.0833C45.4733 125.833 44.1667 124.527 44.1667 122.917V47.0833C44.1667 45.4733 45.4733 44.1667 47.0833 44.1667H122.917C124.527 44.1667 125.833 45.4733 125.833 47.0833V122.917C125.833 124.527 124.527 125.833 122.917 125.833Z" fill="url(#paint2_radial_1_35)"/>
<path id="Vector_14" d="M77.1046 110.395L53.7713 87.0621C52.6308 85.9217 52.6308 84.0754 53.7713 82.9379L57.8954 78.8138C59.0358 77.6734 60.8821 77.6734 62.0196 78.8138L79.1667 95.9609L110.897 64.2304C112.038 63.09 113.884 63.09 115.021 64.2304L119.145 68.3546C120.286 69.495 120.286 71.3413 119.145 72.4788L81.2288 110.395C80.0913 111.536 78.2421 111.536 77.1046 110.395Z" fill="#16528C"/>
<rect x="7.5" y="7.5" width="155" height="155" rx="12.5" stroke="#D5EAF6" stroke-width="15"/>
</g>
<defs>
<linearGradient id="paint0_linear_1_35" x1="85" y1="15" x2="85" y2="155" gradientUnits="userSpaceOnUse">
<stop stop-color="#199AE0"/>
<stop offset="0.472222" stop-color="#0D5176" stop-opacity="0.527778"/>
<stop offset="0.940972" stop-color="#12A6F7" stop-opacity="0.465278"/>
<stop offset="1" stop-opacity="0"/>
</linearGradient>
<linearGradient id="paint1_linear_1_35" x1="35.7112" y1="35.7112" x2="139.052" y2="139.052" gradientUnits="userSpaceOnUse">
<stop stop-color="#0176D0"/>
<stop offset="1" stop-color="#22A5E2"/>
</linearGradient>
<radialGradient id="paint2_radial_1_35" cx="0" cy="0" r="1" gradientUnits="userSpaceOnUse" gradientTransform="translate(62.3619 54.2206) scale(80.3426)">
<stop stop-color="#FAFAFB"/>
<stop offset="0.293" stop-color="#F6F7F8"/>
<stop offset="0.566" stop-color="#EBECEE"/>
<stop offset="0.832" stop-color="#D8DCDF"/>
<stop offset="1" stop-color="#C8CDD1"/>
</radialGradient>
</defs>
</svg>
