<svg width="170" height="170" viewBox="0 0 170 170" fill="none" xmlns="http://www.w3.org/2000/svg">
<g id="checkout">
<g clip-path="url(#clip0_1_63)">
<rect x="15" y="15" width="140" height="140" rx="5" fill="white"/>
<rect x="15" y="15" width="140" height="140" rx="5" fill="url(#paint0_linear_1_63)" fill-opacity="0.2"/>
<path id="Vector" d="M42.6092 87.5579C41.2529 87.5579 40.0396 86.6071 39.7537 85.2304L31.66 45.9079C31.1029 43.2071 28.7025 41.25 25.9462 41.25H20.8333C19.2233 41.25 17.9167 39.9434 17.9167 38.3334C17.9167 36.7234 19.2233 35.4167 20.8333 35.4167H25.9462C31.4558 35.4167 36.2625 39.3338 37.3737 44.7296L45.4675 84.0521C45.7912 85.63 44.7762 87.1729 43.1983 87.4967C43.0029 87.5404 42.8046 87.5579 42.6092 87.5579Z" fill="url(#paint1_linear_1_63)"/>
<path id="Vector_2" d="M122.917 143.333C127.749 143.333 131.667 139.416 131.667 134.583C131.667 129.751 127.749 125.833 122.917 125.833C118.084 125.833 114.167 129.751 114.167 134.583C114.167 139.416 118.084 143.333 122.917 143.333Z" fill="#5C5F61"/>
<path id="Vector_3" opacity="0.15" d="M122.917 137.5C124.527 137.5 125.833 136.194 125.833 134.583C125.833 132.973 124.527 131.667 122.917 131.667C121.306 131.667 120 132.973 120 134.583C120 136.194 121.306 137.5 122.917 137.5Z" fill="black"/>
<path id="Vector_4" d="M58.75 143.333C63.5825 143.333 67.5 139.416 67.5 134.583C67.5 129.751 63.5825 125.833 58.75 125.833C53.9175 125.833 50 129.751 50 134.583C50 139.416 53.9175 143.333 58.75 143.333Z" fill="#5C5F61"/>
<path id="Vector_5" opacity="0.15" d="M58.75 137.5C60.3608 137.5 61.6667 136.194 61.6667 134.583C61.6667 132.973 60.3608 131.667 58.75 131.667C57.1392 131.667 55.8333 132.973 55.8333 134.583C55.8333 136.194 57.1392 137.5 58.75 137.5Z" fill="black"/>
<path id="Vector_6" d="M134.583 128.75H52.9167C46.4825 128.75 41.25 123.518 41.25 117.083C41.25 110.649 46.4825 105.417 52.9167 105.417H125.833C127.443 105.417 128.75 106.723 128.75 108.333C128.75 109.943 127.443 111.25 125.833 111.25H52.9167C49.6996 111.25 47.0833 113.866 47.0833 117.083C47.0833 120.3 49.6996 122.917 52.9167 122.917H134.583C136.193 122.917 137.5 124.223 137.5 125.833C137.5 127.443 136.193 128.75 134.583 128.75Z" fill="url(#paint2_linear_1_63)"/>
<path id="Vector_7" d="M26.6667 38.3333C26.6667 41.5533 24.0533 44.1667 20.8333 44.1667C17.6133 44.1667 15 41.5533 15 38.3333C15 35.1133 17.6133 32.5 20.8333 32.5C24.0533 32.5 26.6667 35.1133 26.6667 38.3333Z" fill="url(#paint3_linear_1_63)"/>
<path id="Vector_8" d="M43.2625 106.508C43.7875 109.261 46.1937 111.25 48.9937 111.25H132.559C135.412 111.25 137.844 109.188 138.314 106.376L144.331 70.2708L34.7546 61.8417L43.2625 106.508Z" fill="url(#paint4_linear_1_63)"/>
<path id="Vector_9" d="M143.074 58.505L32.5 50L34.7546 61.8417L144.328 70.2708L145.725 61.8942C146.008 60.2054 144.78 58.6363 143.074 58.505Z" fill="url(#paint5_linear_1_63)"/>
<path id="Vector_10" opacity="0.05" d="M98.2388 99.7088C95.7625 99.7088 93.75 97.6992 93.75 95.2288V93.75H72.2017C69.6087 93.75 67.5 91.6384 67.5 89.0484V83.8713C67.5 81.2784 69.6087 79.1667 72.2017 79.1667H93.75V77.6879C93.75 75.2175 95.7625 73.2079 98.2388 73.2079C99.4404 73.2079 100.566 73.6834 101.415 74.5467L110.057 83.3171C111.76 85.0496 111.763 87.8671 110.063 89.5996L101.412 98.37C100.566 99.2334 99.4404 99.7088 98.2388 99.7088Z" fill="black"/>
<path id="Vector_11" opacity="0.07" d="M98.2387 98.2504C96.5675 98.2504 95.2083 96.8942 95.2083 95.2288V92.2917H72.2017C70.4137 92.2917 68.9583 90.8363 68.9583 89.0484V83.8713C68.9583 82.0834 70.4137 80.6279 72.2017 80.6279H95.2083V77.6909C95.2083 76.0254 96.5675 74.6692 98.2387 74.6692C99.0437 74.6692 99.8021 74.9871 100.377 75.5734L109.022 84.3438C110.171 85.5104 110.171 87.415 109.025 88.5817L100.377 97.3521C99.8021 97.9325 99.0437 98.2504 98.2387 98.2504Z" fill="black"/>
<path id="Vector_12" d="M107.983 85.3617L99.3383 76.5912C98.3583 75.5967 96.6667 76.2908 96.6667 77.6879V82.0833H72.2017C71.2158 82.0833 70.4167 82.8825 70.4167 83.8683V89.0454C70.4167 90.0342 71.2158 90.8333 72.2017 90.8333H96.6667V95.2287C96.6667 96.6258 98.3583 97.32 99.3383 96.3254L107.983 87.555C108.581 86.9454 108.581 85.9712 107.983 85.3617Z" fill="white"/>
</g>
<rect x="7.5" y="7.5" width="155" height="155" rx="12.5" stroke="#D5EAF6" stroke-width="15"/>
</g>
<defs>
<linearGradient id="paint0_linear_1_63" x1="85" y1="15" x2="85" y2="155" gradientUnits="userSpaceOnUse">
<stop stop-color="#199AE0"/>
<stop offset="0.472222" stop-color="#0D5176" stop-opacity="0.527778"/>
<stop offset="0.940972" stop-color="#12A6F7" stop-opacity="0.465278"/>
<stop offset="1" stop-opacity="0"/>
</linearGradient>
<linearGradient id="paint1_linear_1_63" x1="31.7212" y1="87.5579" x2="31.7212" y2="35.4167" gradientUnits="userSpaceOnUse">
<stop stop-color="#92A3B0"/>
<stop offset="0.015" stop-color="#A3B5C4"/>
<stop offset="0.032" stop-color="#AEC2D1"/>
<stop offset="0.046" stop-color="#B2C6D6"/>
</linearGradient>
<linearGradient id="paint2_linear_1_63" x1="89.375" y1="128.75" x2="89.375" y2="105.417" gradientUnits="userSpaceOnUse">
<stop stop-color="#92A3B0"/>
<stop offset="0.015" stop-color="#A3B5C4"/>
<stop offset="0.032" stop-color="#AEC2D1"/>
<stop offset="0.046" stop-color="#B2C6D6"/>
</linearGradient>
<linearGradient id="paint3_linear_1_63" x1="17.205" y1="34.705" x2="24.87" y2="42.37" gradientUnits="userSpaceOnUse">
<stop stop-color="#199AE0"/>
<stop offset="1" stop-color="#0782D8"/>
</linearGradient>
<linearGradient id="paint4_linear_1_63" x1="34.7546" y1="86.5458" x2="144.331" y2="86.5458" gradientUnits="userSpaceOnUse">
<stop stop-color="#3079D6"/>
<stop offset="1" stop-color="#297CD2"/>
</linearGradient>
<linearGradient id="paint5_linear_1_63" x1="32.5" y1="60.1354" x2="145.766" y2="60.1354" gradientUnits="userSpaceOnUse">
<stop stop-color="#42A3F2"/>
<stop offset="1" stop-color="#42A4EB"/>
</linearGradient>
<clipPath id="clip0_1_63">
<rect x="15" y="15" width="140" height="140" rx="5" fill="white"/>
</clipPath>
</defs>
</svg>
