<svg width="170" height="170" viewBox="0 0 170 170" fill="none" xmlns="http://www.w3.org/2000/svg">
<g id="circled-menu">
<rect x="7.5" y="7.5" width="155" height="155" rx="12.5" fill="white"/>
<rect x="7.5" y="7.5" width="155" height="155" rx="12.5" fill="url(#paint0_linear_1_76)" fill-opacity="0.2"/>
<path id="Vector" d="M47.0833 61.6667C39.0625 61.6667 32.5 55.1042 32.5 47.0833C32.5 39.0625 39.0625 32.5 47.0833 32.5C55.1042 32.5 61.6667 39.0625 61.6667 47.0833C61.6667 55.1042 55.1042 61.6667 47.0833 61.6667Z" fill="url(#paint1_linear_1_76)"/>
<path id="Vector_2" d="M85 61.6667C76.9792 61.6667 70.4167 55.1042 70.4167 47.0833C70.4167 39.0625 76.9792 32.5 85 32.5C93.0208 32.5 99.5833 39.0625 99.5833 47.0833C99.5833 55.1042 93.0208 61.6667 85 61.6667Z" fill="url(#paint2_linear_1_76)"/>
<path id="Vector_3" d="M122.917 61.6667C114.896 61.6667 108.333 55.1042 108.333 47.0833C108.333 39.0625 114.896 32.5 122.917 32.5C130.938 32.5 137.5 39.0625 137.5 47.0833C137.5 55.1042 130.938 61.6667 122.917 61.6667Z" fill="url(#paint3_linear_1_76)"/>
<path id="Vector_4" d="M47.0833 99.5833C39.0625 99.5833 32.5 93.0208 32.5 85C32.5 76.9791 39.0625 70.4166 47.0833 70.4166C55.1042 70.4166 61.6667 76.9791 61.6667 85C61.6667 93.0208 55.1042 99.5833 47.0833 99.5833Z" fill="url(#paint4_linear_1_76)"/>
<path id="Vector_5" d="M85 99.5833C76.9792 99.5833 70.4167 93.0208 70.4167 85C70.4167 76.9791 76.9792 70.4166 85 70.4166C93.0208 70.4166 99.5833 76.9791 99.5833 85C99.5833 93.0208 93.0208 99.5833 85 99.5833Z" fill="url(#paint5_linear_1_76)"/>
<path id="Vector_6" d="M122.917 99.5833C114.896 99.5833 108.333 93.0208 108.333 85C108.333 76.9791 114.896 70.4166 122.917 70.4166C130.938 70.4166 137.5 76.9791 137.5 85C137.5 93.0208 130.938 99.5833 122.917 99.5833Z" fill="url(#paint6_linear_1_76)"/>
<path id="Vector_7" d="M47.0833 137.5C39.0625 137.5 32.5 130.938 32.5 122.917C32.5 114.896 39.0625 108.333 47.0833 108.333C55.1042 108.333 61.6667 114.896 61.6667 122.917C61.6667 130.938 55.1042 137.5 47.0833 137.5Z" fill="url(#paint7_linear_1_76)"/>
<path id="Vector_8" d="M85 137.5C76.9792 137.5 70.4167 130.938 70.4167 122.917C70.4167 114.896 76.9792 108.333 85 108.333C93.0208 108.333 99.5833 114.896 99.5833 122.917C99.5833 130.938 93.0208 137.5 85 137.5Z" fill="url(#paint8_linear_1_76)"/>
<path id="Vector_9" d="M122.917 137.5C114.896 137.5 108.333 130.938 108.333 122.917C108.333 114.896 114.896 108.333 122.917 108.333C130.938 108.333 137.5 114.896 137.5 122.917C137.5 130.938 130.938 137.5 122.917 137.5Z" fill="url(#paint9_linear_1_76)"/>
<rect x="7.5" y="7.5" width="155" height="155" rx="12.5" stroke="#D5EAF6" stroke-width="15"/>
</g>
<defs>
<linearGradient id="paint0_linear_1_76" x1="85" y1="15" x2="85" y2="155" gradientUnits="userSpaceOnUse">
<stop stop-color="#199AE0"/>
<stop offset="0.472222" stop-color="#0D5176" stop-opacity="0.527778"/>
<stop offset="0.940972" stop-color="#12A6F7" stop-opacity="0.465278"/>
<stop offset="1" stop-opacity="0"/>
</linearGradient>
<linearGradient id="paint1_linear_1_76" x1="47.0833" y1="31.6921" x2="47.0833" y2="60.1733" gradientUnits="userSpaceOnUse">
<stop stop-color="#32BDEF"/>
<stop offset="1" stop-color="#1EA2E4"/>
</linearGradient>
<linearGradient id="paint2_linear_1_76" x1="85" y1="31.6921" x2="85" y2="60.1733" gradientUnits="userSpaceOnUse">
<stop stop-color="#32BDEF"/>
<stop offset="1" stop-color="#1EA2E4"/>
</linearGradient>
<linearGradient id="paint3_linear_1_76" x1="122.917" y1="31.6921" x2="122.917" y2="60.1733" gradientUnits="userSpaceOnUse">
<stop stop-color="#32BDEF"/>
<stop offset="1" stop-color="#1EA2E4"/>
</linearGradient>
<linearGradient id="paint4_linear_1_76" x1="47.0833" y1="69.6729" x2="47.0833" y2="96.9816" gradientUnits="userSpaceOnUse">
<stop stop-color="#32BDEF"/>
<stop offset="1" stop-color="#1EA2E4"/>
</linearGradient>
<linearGradient id="paint5_linear_1_76" x1="85" y1="69.6729" x2="85" y2="96.9816" gradientUnits="userSpaceOnUse">
<stop stop-color="#32BDEF"/>
<stop offset="1" stop-color="#1EA2E4"/>
</linearGradient>
<linearGradient id="paint6_linear_1_76" x1="122.917" y1="69.6729" x2="122.917" y2="96.9816" gradientUnits="userSpaceOnUse">
<stop stop-color="#32BDEF"/>
<stop offset="1" stop-color="#1EA2E4"/>
</linearGradient>
<linearGradient id="paint7_linear_1_76" x1="47.0833" y1="109.389" x2="47.0833" y2="135.706" gradientUnits="userSpaceOnUse">
<stop stop-color="#32BDEF"/>
<stop offset="1" stop-color="#1EA2E4"/>
</linearGradient>
<linearGradient id="paint8_linear_1_76" x1="85" y1="109.389" x2="85" y2="135.706" gradientUnits="userSpaceOnUse">
<stop stop-color="#32BDEF"/>
<stop offset="1" stop-color="#1EA2E4"/>
</linearGradient>
<linearGradient id="paint9_linear_1_76" x1="122.917" y1="109.389" x2="122.917" y2="135.706" gradientUnits="userSpaceOnUse">
<stop stop-color="#32BDEF"/>
<stop offset="1" stop-color="#1EA2E4"/>
</linearGradient>
</defs>
</svg>
