<svg width="170" height="170" viewBox="0 0 170 170" fill="none" xmlns="http://www.w3.org/2000/svg">
<g id="cloud-sync">
<g clip-path="url(#clip0_1_105)">
<rect x="15" y="15" width="140" height="140" rx="5" fill="white"/>
<rect x="15" y="15" width="140" height="140" rx="5" fill="url(#paint0_linear_1_105)" fill-opacity="0.2"/>
<path id="Vector" d="M155 90.8333C155 110.171 139.337 125.833 120 125.833C114.75 125.833 48.075 125.833 42.7083 125.833C27.3958 125.833 15 113.437 15 98.125C15 84.8833 24.275 73.8 36.7292 71.0583C41.6875 50.6125 60.0917 35.4166 82.0833 35.4166C98.1542 35.4166 112.3 43.525 120.7 55.8625C139.717 56.2125 155 71.7291 155 90.8333Z" fill="url(#paint1_linear_1_105)"/>
<path id="Vector_2" opacity="0.05" d="M76.25 97.2704V106.875C76.25 109.287 74.2871 111.25 71.875 111.25H62.2704C60.4971 111.25 58.9104 110.191 58.2279 108.549C57.5512 106.91 57.9217 105.037 59.1758 103.78L60.0246 102.932C57.2771 98.3962 55.8333 93.2541 55.8333 87.9166C55.8333 72.4729 67.9054 59.6833 83.3112 58.7995C84.51 58.7295 85.6737 59.167 86.5342 59.9837C87.4121 60.8149 87.9167 61.9787 87.9167 63.1862V66.1087C87.9167 68.3866 86.1112 70.2999 83.8071 70.4604C74.6604 71.0816 67.5 78.7466 67.5 87.9166C67.5 90.0662 67.92 92.2041 68.7308 94.2283L68.7833 94.1758C70.0375 92.9216 71.91 92.5454 73.5521 93.2279C75.1942 93.9104 76.25 95.497 76.25 97.2704ZM109.967 72.9074L110.824 72.0499C112.081 70.7929 112.452 68.9233 111.772 67.2812C111.09 65.642 109.503 64.5833 107.73 64.5833H98.125C95.7129 64.5833 93.75 66.5462 93.75 68.9583V78.5629C93.75 80.3362 94.8087 81.9229 96.4508 82.6054C98.09 83.282 99.9654 82.9087 101.22 81.6574L101.295 81.5816C102.089 83.5941 102.5 85.7379 102.5 87.9166C102.5 97.0866 95.3396 104.752 86.1929 105.373C83.8887 105.536 82.0833 107.447 82.0833 109.727V112.65C82.0833 113.855 82.5879 115.018 83.4658 115.852C84.2708 116.617 85.35 117.045 86.4525 117.045C86.5312 117.045 86.61 117.042 86.6887 117.037C102.095 116.15 114.167 103.36 114.167 87.9166C114.167 82.5879 112.723 77.4458 109.967 72.9074Z" fill="black"/>
<path id="Vector_3" opacity="0.07" d="M74.7917 97.2703V106.875C74.7917 108.485 73.485 109.792 71.875 109.792H62.2704C61.0892 109.792 60.0275 109.086 59.5754 107.992C59.1233 106.898 59.3712 105.65 60.2083 104.813L61.8825 103.139C58.8754 98.6003 57.2917 93.3649 57.2917 87.9166C57.2917 73.2457 68.76 61.0949 83.3958 60.2549C84.1717 60.2053 84.9592 60.4999 85.5308 61.0453C86.12 61.5995 86.4554 62.3812 86.4554 63.1862V66.1087C86.4554 67.6487 85.2742 68.8941 83.705 69.0049C73.8 69.6757 66.0417 77.9853 66.0417 87.9166C66.0417 90.9645 66.8175 93.9774 68.2904 96.7278L69.81 95.2082C70.6442 94.3741 71.8896 94.1203 72.9892 94.5753C74.0858 95.0274 74.7917 96.0891 74.7917 97.2703ZM108.109 72.7032L109.792 71.0203C110.629 70.1832 110.877 68.9349 110.425 67.8412C109.972 66.7474 108.911 66.0416 107.73 66.0416H98.125C96.515 66.0416 95.2083 67.3482 95.2083 68.9582V78.5628C95.2083 79.7441 95.9142 80.8057 97.0079 81.2578C98.1046 81.7099 99.3529 81.4591 100.187 80.6249L101.739 79.0732C103.194 81.8003 103.958 84.822 103.958 87.9166C103.958 97.8478 96.2 106.157 86.2921 106.828C84.7229 106.939 83.5417 108.184 83.5417 109.724V112.647C83.5417 113.452 83.8771 114.234 84.4662 114.788C85.0029 115.298 85.7175 115.581 86.4496 115.581C86.5021 115.581 86.5517 115.578 86.6042 115.575C101.24 114.738 112.708 102.587 112.708 87.9166C112.708 82.477 111.122 77.2445 108.109 72.7032Z" fill="black"/>
<path id="Vector_4" d="M85 66.1059C85 66.8846 84.3817 67.4942 83.6029 67.5467C72.995 68.2671 64.5833 77.1309 64.5833 87.9167C64.5833 92.0526 65.8783 95.8646 68.0017 99.0817L70.8454 96.238C71.7612 95.3221 73.3333 95.9726 73.3333 97.2705V106.875C73.3333 107.68 72.68 108.333 71.875 108.333H62.2704C60.9725 108.333 60.3192 106.761 61.2379 105.843L63.7754 103.305C60.6254 98.9796 58.75 93.6684 58.75 87.9167C58.75 73.9517 69.7079 62.5009 83.4775 61.7105C84.3058 61.6638 85 62.358 85 63.1863V66.1059ZM106.216 72.5342L108.762 69.988C109.678 69.0721 109.027 67.5001 107.73 67.5001H98.125C97.32 67.5001 96.6667 68.1534 96.6667 68.9584V78.563C96.6667 79.8609 98.2388 80.5142 99.1575 79.5955L102.033 76.7196C104.16 79.9367 105.417 83.778 105.417 87.9167C105.417 98.7026 97.005 107.566 86.3971 108.287C85.6183 108.339 85 108.949 85 109.728V112.647C85 113.475 85.6942 114.17 86.5225 114.123C100.292 113.333 111.25 101.882 111.25 87.9167C111.25 82.1651 109.369 76.8596 106.216 72.5342Z" fill="white"/>
</g>
<rect x="7.5" y="7.5" width="155" height="155" rx="12.5" stroke="#D5EAF6" stroke-width="15"/>
</g>
<defs>
<linearGradient id="paint0_linear_1_105" x1="85" y1="15" x2="85" y2="155" gradientUnits="userSpaceOnUse">
<stop stop-color="#199AE0"/>
<stop offset="0.472222" stop-color="#0D5176" stop-opacity="0.527778"/>
<stop offset="0.940972" stop-color="#12A6F7" stop-opacity="0.465278"/>
<stop offset="1" stop-opacity="0"/>
</linearGradient>
<linearGradient id="paint1_linear_1_105" x1="56.5392" y1="39.3775" x2="103.002" y2="127.86" gradientUnits="userSpaceOnUse">
<stop stop-color="#2AA4F4"/>
<stop offset="1" stop-color="#007AD9"/>
</linearGradient>
<clipPath id="clip0_1_105">
<rect x="15" y="15" width="140" height="140" rx="5" fill="white"/>
</clipPath>
</defs>
</svg>
