<svg width="170" height="170" viewBox="0 0 170 170" fill="none" xmlns="http://www.w3.org/2000/svg">
<g id="code">
<rect x="7.5" y="7.5" width="155" height="155" rx="12.5" fill="white"/>
<rect x="7.5" y="7.5" width="155" height="155" rx="12.5" fill="url(#paint0_linear_1_110)" fill-opacity="0.2"/>
<path id="Vector" d="M140.417 38.3333C143.64 38.3333 146.25 40.9437 146.25 44.1666V58.7499H23.75V44.1666C23.75 40.9437 26.3604 38.3333 29.5833 38.3333H140.417Z" fill="#CCCCCC"/>
<path id="Vector_2" d="M146.25 52.9167H23.75V125.833C23.75 129.056 26.3604 131.667 29.5833 131.667H140.417C143.64 131.667 146.25 129.056 146.25 125.833V52.9167Z" fill="url(#paint1_linear_1_110)"/>
<path id="Vector_3" d="M137.5 50.0001C139.111 50.0001 140.417 48.6942 140.417 47.0834C140.417 45.4726 139.111 44.1667 137.5 44.1667C135.889 44.1667 134.583 45.4726 134.583 47.0834C134.583 48.6942 135.889 50.0001 137.5 50.0001Z" fill="#999999"/>
<path id="Vector_4" d="M128.75 50.0001C130.361 50.0001 131.667 48.6942 131.667 47.0834C131.667 45.4726 130.361 44.1667 128.75 44.1667C127.139 44.1667 125.833 45.4726 125.833 47.0834C125.833 48.6942 127.139 50.0001 128.75 50.0001Z" fill="#999999"/>
<path id="Vector_5" opacity="0.05" d="M122.202 90.9558L115.43 78.5367C114.662 77.1279 113.187 76.25 111.58 76.25H107.467C106.076 76.25 104.822 76.9646 104.113 78.1575C103.401 79.3533 103.375 80.7942 104.043 82.0192L110.439 93.75L104.04 105.478C103.372 106.703 103.401 108.144 104.11 109.337C104.822 110.533 106.073 111.247 107.464 111.247H111.577C113.184 111.247 114.66 110.369 115.427 108.96L122.202 96.5413C123.159 94.7942 123.159 92.7058 122.202 90.9558Z" fill="black"/>
<path id="Vector_6" opacity="0.07" d="M120.925 91.6558L114.149 79.2337C113.636 78.2916 112.65 77.7083 111.58 77.7083H107.467C106.595 77.7083 105.81 78.1545 105.367 78.9041C104.921 79.6537 104.906 80.5549 105.323 81.322L112.102 93.7499L105.323 106.178C104.906 106.945 104.921 107.846 105.367 108.596C105.81 109.345 106.595 109.792 107.467 109.792H111.58C112.65 109.792 113.636 109.208 114.149 108.266L120.925 95.8441C121.639 94.5345 121.639 92.9653 120.925 91.6558Z" fill="black"/>
<path id="Vector_7" opacity="0.05" d="M47.7979 90.9558L54.5704 78.5367C55.3375 77.1279 56.8133 76.25 58.4204 76.25H62.5329C63.9242 76.25 65.1783 76.9646 65.8871 78.1575C66.5987 79.3533 66.625 80.7942 65.9571 82.0192L59.5608 93.75L65.96 105.478C66.6279 106.703 66.5987 108.144 65.89 109.337C65.1783 110.535 63.9242 111.25 62.5329 111.25H58.4204C56.8133 111.25 55.3375 110.372 54.5704 108.963L47.795 96.5442C46.8412 94.7942 46.8412 92.7058 47.7979 90.9558Z" fill="black"/>
<path id="Vector_8" opacity="0.07" d="M49.0754 91.6558L55.8508 79.2337C56.3642 78.2916 57.35 77.7083 58.4204 77.7083H62.5329C63.405 77.7083 64.1896 78.1545 64.6329 78.9041C65.0792 79.6537 65.0937 80.5549 64.6767 81.322L57.8983 93.7499L64.6767 106.178C65.0937 106.945 65.0792 107.846 64.6329 108.596C64.1896 109.345 63.405 109.792 62.5329 109.792H58.4204C57.35 109.792 56.3642 109.208 55.8508 108.266L49.0754 95.8441C48.3608 94.5345 48.3608 92.9653 49.0754 91.6558Z" fill="black"/>
<path id="Vector_9" d="M113.761 93.7501L106.601 106.875C106.242 107.531 106.717 108.333 107.467 108.333H111.58C112.116 108.333 112.612 108.039 112.869 107.569L119.644 95.1472C120.12 94.278 120.12 93.2251 119.644 92.353L112.869 79.9309C112.612 79.4613 112.116 79.1667 111.58 79.1667H107.467C106.72 79.1667 106.245 79.9659 106.601 80.6251L113.761 93.7501Z" fill="white"/>
<path id="Vector_10" d="M56.2387 93.7501L63.3992 106.875C63.7579 107.531 63.2825 108.333 62.5329 108.333H58.4204C57.8837 108.333 57.3879 108.039 57.1312 107.569L50.3558 95.1472C49.8804 94.278 49.8804 93.2251 50.3558 92.353L57.1312 79.9309C57.3879 79.4613 57.8837 79.1667 58.4204 79.1667H62.5329C63.2796 79.1667 63.755 79.9659 63.3992 80.6251L56.2387 93.7501Z" fill="white"/>
<path id="Vector_11" opacity="0.05" d="M98.8367 66.3041C98.0725 65.2249 96.83 64.5833 95.5117 64.5833H92.3704C90.5446 64.5833 88.9113 65.7383 88.3075 67.4562L70.65 117.495C70.2125 118.737 70.4079 120.119 71.1692 121.202C71.9304 122.275 73.17 122.917 74.4883 122.917H77.6296C79.4554 122.917 81.0917 121.762 81.6925 120.041L99.3529 70.0083C99.7875 68.7658 99.595 67.3803 98.8367 66.3041Z" fill="black"/>
<path id="Vector_12" opacity="0.07" d="M97.6437 67.1442C97.1567 66.4559 96.3575 66.0417 95.5117 66.0417H92.3704C91.1629 66.0417 90.0838 66.8059 89.6842 67.9405L72.0238 117.976C71.7438 118.772 71.8663 119.662 72.3563 120.353C72.8433 121.041 73.6425 121.455 74.4883 121.455H77.6296C78.84 121.455 79.9192 120.688 80.3158 119.554L97.9762 69.5213C98.2562 68.7251 98.1308 67.8355 97.6437 67.1442Z" fill="black"/>
<path id="Vector_13" d="M95.5117 67.5H92.3704C91.7813 67.5 91.2563 67.8704 91.0608 68.4275L73.4004 118.463C73.135 119.213 73.6921 120 74.4883 120H77.6296C78.2188 120 78.7438 119.63 78.9392 119.072L96.5996 69.0371C96.865 68.2875 96.3079 67.5 95.5117 67.5Z" fill="white"/>
<rect x="7.5" y="7.5" width="155" height="155" rx="12.5" stroke="#D5EAF6" stroke-width="15"/>
</g>
<defs>
<linearGradient id="paint0_linear_1_110" x1="85" y1="15" x2="85" y2="155" gradientUnits="userSpaceOnUse">
<stop stop-color="#199AE0"/>
<stop offset="0.472222" stop-color="#0D5176" stop-opacity="0.527778"/>
<stop offset="0.940972" stop-color="#12A6F7" stop-opacity="0.465278"/>
<stop offset="1" stop-opacity="0"/>
</linearGradient>
<linearGradient id="paint1_linear_1_110" x1="73.0125" y1="49.6384" x2="97.3492" y2="131.186" gradientUnits="userSpaceOnUse">
<stop stop-color="#6E6E6E"/>
<stop offset="0.999" stop-color="#4D4D4D"/>
</linearGradient>
</defs>
</svg>
