<svg width="170" height="170" viewBox="0 0 170 170" fill="none" xmlns="http://www.w3.org/2000/svg">
<g id="code-file">
<rect x="7.5" y="7.5" width="155" height="155" rx="12.5" fill="white"/>
<rect x="7.5" y="7.5" width="155" height="155" rx="12.5" fill="url(#paint0_linear_1_131)" fill-opacity="0.2"/>
<path id="Vector" d="M128.75 61.6666V134.583C128.75 137.806 126.14 140.417 122.917 140.417H47.0833C43.8604 140.417 41.25 137.806 41.25 134.583V35.4166C41.25 32.1937 43.8604 29.5833 47.0833 29.5833H96.6667L128.75 61.6666Z" fill="#50E6FF"/>
<path id="Vector_2" d="M96.6667 29.5833V55.8333C96.6667 59.0562 99.2771 61.6666 102.5 61.6666H128.75L96.6667 29.5833Z" fill="url(#paint1_linear_1_131)"/>
<path id="Vector_3" d="M56.1862 100.435L67.7421 111.991C68.2117 112.46 68.9758 112.46 69.4454 111.991L71.8867 109.55C72.3562 109.08 72.3562 108.316 71.8867 107.846L60.3308 96.2904C59.8612 95.8208 59.0971 95.8208 58.6275 96.2904L56.1862 98.7317C55.7167 99.2013 55.7167 99.9654 56.1862 100.435Z" fill="#0078D4"/>
<path id="Vector_4" d="M60.3308 102.876L71.8867 91.3205C72.3562 90.8509 72.3562 90.0868 71.8867 89.6172L69.4454 87.1759C68.9758 86.7063 68.2117 86.7063 67.7421 87.1759L56.1862 98.7318C55.7167 99.2013 55.7167 99.9655 56.1862 100.435L58.6275 102.876C59.0971 103.346 59.8612 103.346 60.3308 102.876Z" fill="#0078D4"/>
<path id="Vector_5" d="M113.814 100.435L102.258 111.991C101.788 112.46 101.024 112.46 100.555 111.991L98.1133 109.55C97.6438 109.08 97.6438 108.316 98.1133 107.846L109.669 96.2904C110.139 95.8208 110.903 95.8208 111.373 96.2904L113.814 98.7317C114.283 99.2013 114.283 99.9654 113.814 100.435Z" fill="#0078D4"/>
<path id="Vector_6" d="M109.669 102.876L98.1133 91.3205C97.6438 90.8509 97.6438 90.0868 98.1133 89.6172L100.555 87.1759C101.024 86.7063 101.788 86.7063 102.258 87.1759L113.814 98.7318C114.283 99.2013 114.283 99.9655 113.814 100.435L111.373 102.876C110.903 103.346 110.139 103.346 109.669 102.876Z" fill="#0078D4"/>
<path id="Vector_7" d="M92.595 73.4558H88.2083C87.6338 73.4558 87.1379 73.8583 87.0183 74.4212L76.5125 124.614C76.3929 125.18 76.8275 125.714 77.405 125.714H81.7917C82.3663 125.714 82.8621 125.311 82.9817 124.748L93.4875 74.5554C93.6071 73.9866 93.1725 73.4558 92.595 73.4558Z" fill="#0078D4"/>
<rect x="7.5" y="7.5" width="155" height="155" rx="12.5" stroke="#D5EAF6" stroke-width="15"/>
</g>
<defs>
<linearGradient id="paint0_linear_1_131" x1="85" y1="15" x2="85" y2="155" gradientUnits="userSpaceOnUse">
<stop stop-color="#199AE0"/>
<stop offset="0.472222" stop-color="#0D5176" stop-opacity="0.527778"/>
<stop offset="0.940972" stop-color="#12A6F7" stop-opacity="0.465278"/>
<stop offset="1" stop-opacity="0"/>
</linearGradient>
<linearGradient id="paint1_linear_1_131" x1="98.2096" y1="60.1266" x2="113" y2="45.3333" gradientUnits="userSpaceOnUse">
<stop stop-color="#3079D6"/>
<stop offset="1" stop-color="#297CD2"/>
</linearGradient>
</defs>
</svg>
