<svg width="170" height="170" viewBox="0 0 170 170" fill="none" xmlns="http://www.w3.org/2000/svg">
<g id="communication">
<rect x="7.5" y="7.5" width="155" height="155" rx="12.5" fill="white"/>
<rect x="7.5" y="7.5" width="155" height="155" rx="12.5" fill="url(#paint0_linear_1_152)" fill-opacity="0.2"/>
<path id="Vector" d="M145.985 142.543L135.318 118.276C138.57 112.285 140.417 105.42 140.417 98.1249C140.417 74.7683 121.482 55.8333 98.125 55.8333C74.7683 55.8333 55.8333 74.7683 55.8333 98.1249C55.8333 121.482 74.7683 140.417 98.125 140.417C105.746 140.417 112.877 138.372 119.052 134.846L141.846 146.451C144.377 147.74 147.128 145.142 145.985 142.543Z" fill="url(#paint1_linear_1_152)"/>
<path id="Vector_2" d="M77.7083 99.5833H124.375C125.18 99.5833 125.833 98.93 125.833 98.125V95.2083C125.833 94.4033 125.18 93.75 124.375 93.75H77.7083C76.9033 93.75 76.25 94.4033 76.25 95.2083V98.125C76.25 98.93 76.9033 99.5833 77.7083 99.5833Z" fill="url(#paint2_linear_1_152)"/>
<path id="Vector_3" d="M77.7083 111.25H115.625C116.43 111.25 117.083 110.597 117.083 109.792V106.875C117.083 106.07 116.43 105.417 115.625 105.417H77.7083C76.9033 105.417 76.25 106.07 76.25 106.875V109.792C76.25 110.597 76.9033 111.25 77.7083 111.25Z" fill="url(#paint3_linear_1_152)"/>
<path id="Vector_4" opacity="0.15" d="M55.8333 98.1249C55.8333 102.159 56.4342 106.044 57.4871 109.739C61.2408 110.69 65.1462 111.25 69.1917 111.25C95.6108 111.25 117.031 89.7045 117.031 63.1249C117.031 62.1595 116.943 61.2174 116.888 60.2666C111.227 57.4549 104.874 55.8333 98.125 55.8333C74.7683 55.8333 55.8333 74.7683 55.8333 98.1249Z" fill="url(#paint4_radial_1_152)"/>
<path id="Vector_5" d="M68.9583 23.75C47.2117 23.75 29.5833 41.3783 29.5833 63.125C29.5833 69.1304 30.9658 74.7975 33.3721 79.89C33.3342 79.9775 33.2875 80.0475 33.2554 80.1467L24.0183 101.164C22.875 103.766 25.6254 106.365 28.1571 105.075L46.7333 95.6167C53.0596 99.9538 60.7071 102.5 68.9583 102.5C90.705 102.5 108.333 84.8717 108.333 63.125C108.333 41.3783 90.705 23.75 68.9583 23.75Z" fill="url(#paint5_linear_1_152)"/>
<path id="Vector_6" d="M45.625 58.7501H92.2917C93.0967 58.7501 93.75 58.0967 93.75 57.2917V54.3751C93.75 53.5701 93.0967 52.9167 92.2917 52.9167H45.625C44.82 52.9167 44.1667 53.5701 44.1667 54.3751V57.2917C44.1667 58.0967 44.82 58.7501 45.625 58.7501Z" fill="url(#paint6_linear_1_152)"/>
<path id="Vector_7" d="M45.625 70.4166H83.5417C84.3467 70.4166 85 69.7633 85 68.9583V66.0416C85 65.2366 84.3467 64.5833 83.5417 64.5833H45.625C44.82 64.5833 44.1667 65.2366 44.1667 66.0416V68.9583C44.1667 69.7633 44.82 70.4166 45.625 70.4166Z" fill="url(#paint7_linear_1_152)"/>
<rect x="7.5" y="7.5" width="155" height="155" rx="12.5" stroke="#D5EAF6" stroke-width="15"/>
</g>
<defs>
<linearGradient id="paint0_linear_1_152" x1="85" y1="15" x2="85" y2="155" gradientUnits="userSpaceOnUse">
<stop stop-color="#199AE0"/>
<stop offset="0.472222" stop-color="#0D5176" stop-opacity="0.527778"/>
<stop offset="0.940972" stop-color="#12A6F7" stop-opacity="0.465278"/>
<stop offset="1" stop-opacity="0"/>
</linearGradient>
<linearGradient id="paint1_linear_1_152" x1="76.5533" y1="61.7424" x2="128.887" y2="150.007" gradientUnits="userSpaceOnUse">
<stop stop-color="#0176D0"/>
<stop offset="1" stop-color="#16538C"/>
</linearGradient>
<linearGradient id="paint2_linear_1_152" x1="95.7304" y1="85.42" x2="106.849" y2="108.966" gradientUnits="userSpaceOnUse">
<stop stop-color="#199AE0"/>
<stop offset="1" stop-color="#0782D8"/>
</linearGradient>
<linearGradient id="paint3_linear_1_152" x1="92.1342" y1="98.7347" x2="101.622" y2="118.83" gradientUnits="userSpaceOnUse">
<stop stop-color="#199AE0"/>
<stop offset="1" stop-color="#0782D8"/>
</linearGradient>
<radialGradient id="paint4_radial_1_152" cx="0" cy="0" r="1" gradientUnits="userSpaceOnUse" gradientTransform="translate(69.5125 63.8278) scale(46.9962 46.9963)">
<stop offset="0.627"/>
<stop offset="1" stop-opacity="0"/>
</radialGradient>
<linearGradient id="paint5_linear_1_152" x1="44.1579" y1="32.3075" x2="78.525" y2="105.108" gradientUnits="userSpaceOnUse">
<stop stop-color="#0176D0"/>
<stop offset="1" stop-color="#22A5E2"/>
</linearGradient>
<linearGradient id="paint6_linear_1_152" x1="63.6471" y1="44.5867" x2="74.7654" y2="68.133" gradientUnits="userSpaceOnUse">
<stop stop-color="#199AE0"/>
<stop offset="1" stop-color="#0782D8"/>
</linearGradient>
<linearGradient id="paint7_linear_1_152" x1="60.0508" y1="57.9012" x2="69.5387" y2="77.997" gradientUnits="userSpaceOnUse">
<stop stop-color="#199AE0"/>
<stop offset="1" stop-color="#0782D8"/>
</linearGradient>
</defs>
</svg>
