<svg width="170" height="170" viewBox="0 0 170 170" fill="none" xmlns="http://www.w3.org/2000/svg">
<g id="company">
<rect x="7.5" y="7.5" width="155" height="155" rx="12.5" fill="white"/>
<rect x="7.5" y="7.5" width="155" height="155" rx="12.5" fill="url(#paint0_linear_1_160)" fill-opacity="0.2"/>
<path id="Vector" d="M114.167 58.75H131.667C134.89 58.75 137.5 61.3604 137.5 64.5833V140.417H114.167V58.75Z" fill="url(#paint1_linear_1_160)"/>
<path id="Vector_2" d="M114.167 128.75H125.833V117.083H114.167V128.75ZM114.167 82.0834H125.833V70.4167H114.167V82.0834ZM114.167 105.417H125.833V93.7501H114.167V105.417Z" fill="url(#paint2_linear_1_160)"/>
<path id="Vector_3" d="M114.167 105.417H32.5V140.417H114.167V105.417Z" fill="#0078D4"/>
<path id="Vector_4" d="M44.1667 41.2499H102.5V35.4166C102.5 32.1966 99.8867 29.5833 96.6667 29.5833H50C46.78 29.5833 44.1667 32.1966 44.1667 35.4166V41.2499Z" fill="#199BE2"/>
<path id="Vector_5" d="M32.5 47.0833V105.417H114.167V47.0833H32.5Z" fill="#199BE2"/>
<path id="Vector_6" d="M55.8333 117.083H44.1667V128.75H55.8333V117.083Z" fill="#005094"/>
<path id="Vector_7" d="M102.5 117.083H90.8333V128.75H102.5V117.083Z" fill="#005094"/>
<path id="Vector_8" d="M82.0833 117.083H64.5833V140.417H82.0833V117.083Z" fill="#005094"/>
<path id="Vector_9" d="M55.8333 82.0833H44.1667V93.7499H55.8333V82.0833Z" fill="#0D62AB"/>
<path id="Vector_10" d="M79.1667 82.0833H67.5V93.7499H79.1667V82.0833Z" fill="#0D62AB"/>
<path id="Vector_11" d="M102.5 82.0833H90.8333V93.7499H102.5V82.0833Z" fill="#0D62AB"/>
<path id="Vector_12" d="M55.8333 58.75H44.1667V70.4167H55.8333V58.75Z" fill="#0D62AB"/>
<path id="Vector_13" d="M79.1667 58.75H67.5V70.4167H79.1667V58.75Z" fill="#0D62AB"/>
<path id="Vector_14" d="M102.5 58.75H90.8333V70.4167H102.5V58.75Z" fill="#0D62AB"/>
<path id="Vector_15" d="M114.167 47.0833H32.5C30.8871 47.0833 29.5833 45.7796 29.5833 44.1667C29.5833 42.5538 30.8871 41.25 32.5 41.25H114.167C115.78 41.25 117.083 42.5538 117.083 44.1667C117.083 45.7796 115.78 47.0833 114.167 47.0833Z" fill="#35C1F1"/>
<rect x="7.5" y="7.5" width="155" height="155" rx="12.5" stroke="#D5EAF6" stroke-width="15"/>
</g>
<defs>
<linearGradient id="paint0_linear_1_160" x1="85" y1="15" x2="85" y2="155" gradientUnits="userSpaceOnUse">
<stop stop-color="#199AE0"/>
<stop offset="0.472222" stop-color="#0D5176" stop-opacity="0.527778"/>
<stop offset="0.940972" stop-color="#12A6F7" stop-opacity="0.465278"/>
<stop offset="1" stop-opacity="0"/>
</linearGradient>
<linearGradient id="paint1_linear_1_160" x1="137.237" y1="99.5833" x2="114.088" y2="99.5833" gradientUnits="userSpaceOnUse">
<stop stop-color="#0D61A9"/>
<stop offset="0.482" stop-color="#0D60A7"/>
<stop offset="0.711" stop-color="#0F5C9F"/>
<stop offset="0.886" stop-color="#125592"/>
<stop offset="1" stop-color="#154E85"/>
</linearGradient>
<linearGradient id="paint2_linear_1_160" x1="125.337" y1="99.5834" x2="114.053" y2="99.5834" gradientUnits="userSpaceOnUse">
<stop offset="0.365" stop-color="#32BDEF"/>
<stop offset="0.49" stop-color="#2FB7E9"/>
<stop offset="0.66" stop-color="#26A5D7"/>
<stop offset="0.854" stop-color="#1789BB"/>
<stop offset="1" stop-color="#096FA1"/>
</linearGradient>
</defs>
</svg>
