<svg width="170" height="170" viewBox="0 0 170 170" fill="none" xmlns="http://www.w3.org/2000/svg">
<g id="connect">
<rect x="7.5" y="7.5" width="155" height="155" rx="12.5" fill="white"/>
<rect x="7.5" y="7.5" width="155" height="155" rx="12.5" fill="url(#paint0_linear_1_181)" fill-opacity="0.2"/>
<path id="Vector" d="M127.367 50.8516L118.466 43.3149L88.1296 79.1666H47.0833V90.8333H88.1267L118.466 126.685L127.367 119.148L98.475 84.9999L127.367 50.8516Z" fill="#64717C"/>
<path id="Vector_2" d="M44.1667 102.5C53.8316 102.5 61.6667 94.665 61.6667 85C61.6667 75.335 53.8316 67.5 44.1667 67.5C34.5017 67.5 26.6667 75.335 26.6667 85C26.6667 94.665 34.5017 102.5 44.1667 102.5Z" fill="url(#paint1_linear_1_181)"/>
<path id="Vector_3" d="M122.917 64.5833C132.582 64.5833 140.417 56.7482 140.417 47.0833C140.417 37.4183 132.582 29.5833 122.917 29.5833C113.252 29.5833 105.417 37.4183 105.417 47.0833C105.417 56.7482 113.252 64.5833 122.917 64.5833Z" fill="url(#paint2_linear_1_181)"/>
<path id="Vector_4" d="M122.917 140.417C132.582 140.417 140.417 132.582 140.417 122.917C140.417 113.252 132.582 105.417 122.917 105.417C113.252 105.417 105.417 113.252 105.417 122.917C105.417 132.582 113.252 140.417 122.917 140.417Z" fill="url(#paint3_linear_1_181)"/>
<rect x="7.5" y="7.5" width="155" height="155" rx="12.5" stroke="#D5EAF6" stroke-width="15"/>
</g>
<defs>
<linearGradient id="paint0_linear_1_181" x1="85" y1="15" x2="85" y2="155" gradientUnits="userSpaceOnUse">
<stop stop-color="#199AE0"/>
<stop offset="0.472222" stop-color="#0D5176" stop-opacity="0.527778"/>
<stop offset="0.940972" stop-color="#12A6F7" stop-opacity="0.465278"/>
<stop offset="1" stop-opacity="0"/>
</linearGradient>
<linearGradient id="paint1_linear_1_181" x1="28.0987" y1="70.3467" x2="59.1292" y2="98.6442" gradientUnits="userSpaceOnUse">
<stop stop-color="#0176D0"/>
<stop offset="1" stop-color="#0A85D9"/>
</linearGradient>
<linearGradient id="paint2_linear_1_181" x1="108.284" y1="33.0308" x2="133.355" y2="57.1078" gradientUnits="userSpaceOnUse">
<stop stop-color="#0176D0"/>
<stop offset="1" stop-color="#0A85D9"/>
</linearGradient>
<linearGradient id="paint3_linear_1_181" x1="109.657" y1="109.092" x2="138.699" y2="139.373" gradientUnits="userSpaceOnUse">
<stop stop-color="#0176D0"/>
<stop offset="1" stop-color="#0A85D9"/>
</linearGradient>
</defs>
</svg>
