<svg width="170" height="170" viewBox="0 0 170 170" fill="none" xmlns="http://www.w3.org/2000/svg">
<g id="control-panel">
<rect x="7.5" y="7.5" width="155" height="155" rx="12.5" fill="white"/>
<rect x="7.5" y="7.5" width="155" height="155" rx="12.5" fill="url(#paint0_linear_1_206)" fill-opacity="0.2"/>
<path id="Vector" d="M140.417 38.3333H29.5833C26.3604 38.3333 23.75 40.9437 23.75 44.1666V125.833C23.75 129.056 26.3604 131.667 29.5833 131.667H140.417C143.64 131.667 146.25 129.056 146.25 125.833V44.1666C146.25 40.9437 143.64 38.3333 140.417 38.3333Z" fill="url(#paint1_linear_1_206)"/>
<path id="Vector_2" d="M61.6667 99.5834C74.5533 99.5834 85 89.1367 85 76.2501C85 63.3634 74.5533 52.9167 61.6667 52.9167C48.78 52.9167 38.3333 63.3634 38.3333 76.2501C38.3333 89.1367 48.78 99.5834 61.6667 99.5834Z" fill="#0370C8"/>
<path id="Vector_3" d="M61.6667 73.3333V53.1208C61.6667 51.3737 63.1979 49.9883 64.9333 50.2041C70.6908 50.9274 76.0837 53.5437 80.2283 57.6883C84.3729 61.8328 86.9892 67.2258 87.7125 72.9833C87.9312 74.7187 86.5458 76.2499 84.7958 76.2499H64.5833C62.9733 76.2499 61.6667 74.9433 61.6667 73.3333Z" fill="url(#paint2_linear_1_206)"/>
<path id="Vector_4" d="M127.292 120H85L82.0833 117.083L85 114.167H127.292C128.097 114.167 128.75 114.82 128.75 115.625V118.542C128.75 119.347 128.097 120 127.292 120Z" fill="#0370C8"/>
<path id="Vector_5" d="M85 114.167V120H42.7083C41.9033 120 41.25 119.347 41.25 118.542V115.625C41.25 114.82 41.9033 114.167 42.7083 114.167H85Z" fill="url(#paint3_linear_1_206)"/>
<path id="Vector_6" d="M124.375 61.6667H106.875C104.46 61.6667 102.5 59.7067 102.5 57.2917C102.5 54.8767 104.46 52.9167 106.875 52.9167H124.375C126.79 52.9167 128.75 54.8767 128.75 57.2917C128.75 59.7067 126.79 61.6667 124.375 61.6667Z" fill="url(#paint4_linear_1_206)"/>
<path id="Vector_7" d="M124.375 79.1667H106.875C104.46 79.1667 102.5 77.2067 102.5 74.7917C102.5 72.3767 104.46 70.4167 106.875 70.4167H124.375C126.79 70.4167 128.75 72.3767 128.75 74.7917C128.75 77.2067 126.79 79.1667 124.375 79.1667Z" fill="#0370C8"/>
<path id="Vector_8" d="M124.375 96.6667H106.875C104.46 96.6667 102.5 94.7067 102.5 92.2917C102.5 89.8767 104.46 87.9167 106.875 87.9167H124.375C126.79 87.9167 128.75 89.8767 128.75 92.2917C128.75 94.7067 126.79 96.6667 124.375 96.6667Z" fill="#0370C8"/>
<rect x="7.5" y="7.5" width="155" height="155" rx="12.5" stroke="#D5EAF6" stroke-width="15"/>
</g>
<defs>
<linearGradient id="paint0_linear_1_206" x1="85" y1="15" x2="85" y2="155" gradientUnits="userSpaceOnUse">
<stop stop-color="#199AE0"/>
<stop offset="0.472222" stop-color="#0D5176" stop-opacity="0.527778"/>
<stop offset="0.940972" stop-color="#12A6F7" stop-opacity="0.465278"/>
<stop offset="1" stop-opacity="0"/>
</linearGradient>
<linearGradient id="paint1_linear_1_206" x1="-0.706249" y1="45.4616" x2="210.163" y2="142.744" gradientUnits="userSpaceOnUse">
<stop stop-color="#33D7F0"/>
<stop offset="0.187" stop-color="#2FD1ED"/>
<stop offset="0.445" stop-color="#24BFE3"/>
<stop offset="0.744" stop-color="#13A2D4"/>
<stop offset="1" stop-color="#0083C4"/>
</linearGradient>
<linearGradient id="paint2_linear_1_206" x1="68.3371" y1="51.7499" x2="78.8371" y2="86.4262" gradientUnits="userSpaceOnUse">
<stop stop-color="#FED100"/>
<stop offset="1" stop-color="#E36001"/>
</linearGradient>
<linearGradient id="paint3_linear_1_206" x1="55.0575" y1="107.006" x2="79.05" y2="135.598" gradientUnits="userSpaceOnUse">
<stop stop-color="#FED100"/>
<stop offset="1" stop-color="#E36001"/>
</linearGradient>
<linearGradient id="paint4_linear_1_206" x1="109.197" y1="49.6326" x2="122.053" y2="64.9509" gradientUnits="userSpaceOnUse">
<stop stop-color="#FED100"/>
<stop offset="1" stop-color="#E36001"/>
</linearGradient>
</defs>
</svg>
