<svg width="170" height="170" viewBox="0 0 170 170" fill="none" xmlns="http://www.w3.org/2000/svg">
<g id="contact-us">
<rect x="7.5" y="7.5" width="155" height="155" rx="12.5" fill="white"/>
<rect x="7.5" y="7.5" width="155" height="155" rx="12.5" fill="url(#paint0_linear_1_186)" fill-opacity="0.2"/>
<path id="Vector" d="M125.833 105.417H44.1667V140.417H125.833V105.417Z" fill="#0078D4"/>
<path id="Vector_2" d="M55.8333 41.2499H114.167V35.4166C114.167 32.1966 111.553 29.5833 108.333 29.5833H61.6667C58.4467 29.5833 55.8333 32.1966 55.8333 35.4166V41.2499Z" fill="#199BE2"/>
<path id="Vector_3" d="M44.1667 47.0833V105.417H125.833V47.0833H44.1667Z" fill="#199BE2"/>
<path id="Vector_4" d="M114.167 117.083H102.5V128.75H114.167V117.083Z" fill="#005094"/>
<path id="Vector_5" d="M96.6667 117.083H76.25V140.417H96.6667V117.083Z" fill="#005094"/>
<path id="Vector_6" d="M114.167 82.0833H102.5V93.7499H114.167V82.0833Z" fill="#0D62AB"/>
<path id="Vector_7" d="M90.8333 82.0833H79.1667V93.7499H90.8333V82.0833Z" fill="#0D62AB"/>
<path id="Vector_8" d="M67.5 58.75H55.8333V70.4167H67.5V58.75Z" fill="#0D62AB"/>
<path id="Vector_9" d="M67.5 82.0833H55.8333V93.7499H67.5V82.0833Z" fill="#0D62AB"/>
<path id="Vector_10" d="M67.5 117.083H55.8333V128.75H67.5V117.083Z" fill="#005094"/>
<path id="Vector_11" d="M90.8333 58.75H79.1667V70.4167H90.8333V58.75Z" fill="#0D62AB"/>
<path id="Vector_12" d="M114.167 58.75H102.5V70.4167H114.167V58.75Z" fill="#0D62AB"/>
<path id="Vector_13" d="M125.833 47.0833H44.1667C42.5538 47.0833 41.25 45.7767 41.25 44.1667C41.25 42.5567 42.5538 41.25 44.1667 41.25H125.833C127.446 41.25 128.75 42.5567 128.75 44.1667C128.75 45.7767 127.446 47.0833 125.833 47.0833Z" fill="#35C1F1"/>
<path id="Vector_14" d="M143.333 143.333V102.5C143.333 99.2772 140.723 96.6667 137.5 96.6667H108.333C105.11 96.6667 102.5 99.2772 102.5 102.5V143.333C102.5 146.556 105.11 149.167 108.333 149.167H137.5C140.723 149.167 143.333 146.556 143.333 143.333Z" fill="#37C6D0"/>
<path id="Vector_15" opacity="0.05" d="M122.917 120C116.482 120 111.25 125.232 111.25 131.667V134.583C111.25 137.8 113.866 140.417 117.083 140.417H128.75C131.967 140.417 134.583 137.8 134.583 134.583V131.667C134.583 125.232 129.351 120 122.917 120Z" fill="black"/>
<path id="Vector_16" opacity="0.07" d="M122.917 121.458C117.288 121.458 112.708 126.037 112.708 131.667V134.583C112.708 136.995 114.671 138.958 117.083 138.958H128.75C131.162 138.958 133.125 136.995 133.125 134.583V131.667C133.125 126.037 128.546 121.458 122.917 121.458Z" fill="black"/>
<path id="Vector_17" d="M122.917 122.917C127.749 122.917 131.667 118.999 131.667 114.167C131.667 109.334 127.749 105.417 122.917 105.417C118.084 105.417 114.167 109.334 114.167 114.167C114.167 118.999 118.084 122.917 122.917 122.917Z" fill="url(#paint1_radial_1_186)"/>
<path id="Vector_18" d="M122.917 122.917C118.084 122.917 114.167 126.834 114.167 131.667V134.583C114.167 136.193 115.473 137.5 117.083 137.5H128.75C130.36 137.5 131.667 136.193 131.667 134.583V131.667C131.667 126.834 127.75 122.917 122.917 122.917Z" fill="white"/>
<path id="Vector_19" d="M122.917 120C126.138 120 128.75 117.388 128.75 114.167C128.75 110.945 126.138 108.333 122.917 108.333C119.695 108.333 117.083 110.945 117.083 114.167C117.083 117.388 119.695 120 122.917 120Z" fill="white"/>
<rect x="7.5" y="7.5" width="155" height="155" rx="12.5" stroke="#D5EAF6" stroke-width="15"/>
</g>
<defs>
<linearGradient id="paint0_linear_1_186" x1="85" y1="15" x2="85" y2="155" gradientUnits="userSpaceOnUse">
<stop stop-color="#199AE0"/>
<stop offset="0.472222" stop-color="#0D5176" stop-opacity="0.527778"/>
<stop offset="0.940972" stop-color="#12A6F7" stop-opacity="0.465278"/>
<stop offset="1" stop-opacity="0"/>
</linearGradient>
<radialGradient id="paint1_radial_1_186" cx="0" cy="0" r="1" gradientUnits="userSpaceOnUse" gradientTransform="translate(122.912 114.163) scale(8.74965)">
<stop/>
<stop offset="1" stop-opacity="0"/>
</radialGradient>
</defs>
</svg>
