<svg width="170" height="170" viewBox="0 0 170 170" fill="none" xmlns="http://www.w3.org/2000/svg">
<g id="copy-to-folder">
<g clip-path="url(#clip0_1_230)">
<rect x="15" y="15" width="140" height="140" rx="5" fill="white"/>
<rect x="15" y="15" width="140" height="140" rx="5" fill="url(#paint0_linear_1_230)" fill-opacity="0.2"/>
<path id="Vector" d="M86.2075 45.3742L78.8108 37.9776C77.1717 36.3384 74.9462 35.4167 72.6246 35.4167H32.5C29.2771 35.4167 26.6667 38.0272 26.6667 41.2501V60.2084L32.5 122.917C32.5 126.14 35.1104 128.75 38.3333 128.75H131.667C134.89 128.75 137.5 126.14 137.5 122.917V55.8334C137.5 52.6105 134.89 50.0001 131.667 50.0001L90.3317 47.0834C88.7858 47.0834 87.3012 46.468 86.2075 45.3742Z" fill="url(#paint1_linear_1_230)"/>
<path id="Vector_2" d="M77.9592 57.0408L87.4908 47.5091C87.7621 47.2378 88.1325 47.0833 88.5204 47.0833H137.5C140.723 47.0833 143.333 49.6937 143.333 52.9166V128.75C143.333 131.973 140.723 134.583 137.5 134.583H32.5C29.2771 134.583 26.6667 131.973 26.6667 128.75V60.2083C26.6667 59.4033 27.32 58.7499 28.125 58.7499H73.835C75.3808 58.7499 76.8654 58.1345 77.9592 57.0408Z" fill="url(#paint2_linear_1_230)"/>
<path id="Vector_3" opacity="0.05" d="M146.25 95.4709V134.583H99.5833V105.417C99.5833 100.604 103.521 96.6667 108.333 96.6667C108.333 91.8542 112.271 87.9167 117.083 87.9167H138.696L146.25 95.4709Z" fill="black"/>
<path id="Vector_4" opacity="0.07" d="M146.25 97.5125V134.583H101.042V105.417C101.042 101.392 104.308 98.125 108.333 98.125H109.792V96.6667C109.792 92.6417 113.058 89.375 117.083 89.375H138.112L146.25 97.5125Z" fill="black"/>
<path id="Vector_5" d="M140.417 155H108.333C105.11 155 102.5 152.39 102.5 149.167V105.417C102.5 102.194 105.11 99.5833 108.333 99.5833H128.75C131.667 105.417 140.417 114.167 146.25 117.083V149.167C146.25 152.39 143.64 155 140.417 155Z" fill="#199BE2"/>
<path id="Vector_6" d="M149.167 146.25H117.083C113.86 146.25 111.25 143.64 111.25 140.417V96.6666C111.25 93.4437 113.86 90.8333 117.083 90.8333H137.5C140.417 96.6666 149.167 105.417 155 108.333V140.417C155 143.64 152.39 146.25 149.167 146.25Z" fill="#50E6FF"/>
<path id="Vector_7" d="M137.5 90.8333V102.5C137.5 105.723 140.11 108.333 143.333 108.333H155L137.5 90.8333Z" fill="url(#paint3_linear_1_230)"/>
</g>
<rect x="7.5" y="7.5" width="155" height="155" rx="12.5" stroke="#D5EAF6" stroke-width="15"/>
</g>
<defs>
<linearGradient id="paint0_linear_1_230" x1="85" y1="15" x2="85" y2="155" gradientUnits="userSpaceOnUse">
<stop stop-color="#199AE0"/>
<stop offset="0.472222" stop-color="#0D5176" stop-opacity="0.527778"/>
<stop offset="0.940972" stop-color="#12A6F7" stop-opacity="0.465278"/>
<stop offset="1" stop-opacity="0"/>
</linearGradient>
<linearGradient id="paint1_linear_1_230" x1="82.0833" y1="34.6147" x2="82.0833" y2="57.3151" gradientUnits="userSpaceOnUse">
<stop stop-color="#EBA600"/>
<stop offset="1" stop-color="#C28200"/>
</linearGradient>
<linearGradient id="paint2_linear_1_230" x1="85" y1="46.6574" x2="85" y2="134.534" gradientUnits="userSpaceOnUse">
<stop stop-color="#FFD869"/>
<stop offset="1" stop-color="#FEC52B"/>
</linearGradient>
<linearGradient id="paint3_linear_1_230" x1="139.125" y1="106.706" x2="146.393" y2="99.4403" gradientUnits="userSpaceOnUse">
<stop stop-color="#3079D6"/>
<stop offset="1" stop-color="#297CD2"/>
</linearGradient>
<clipPath id="clip0_1_230">
<rect x="15" y="15" width="140" height="140" rx="5" fill="white"/>
</clipPath>
</defs>
</svg>
