<svg width="170" height="170" viewBox="0 0 170 170" fill="none" xmlns="http://www.w3.org/2000/svg">
<g id="create">
<g clip-path="url(#clip0_1_238)">
<rect x="15" y="15" width="140" height="140" rx="5" fill="white"/>
<rect x="15" y="15" width="140" height="140" rx="5" fill="url(#paint0_linear_1_238)" fill-opacity="0.2"/>
<path id="Vector" d="M131.667 32.5H38.3333C35.1104 32.5 32.5 35.1104 32.5 38.3333V131.667C32.5 134.89 35.1104 137.5 38.3333 137.5H131.667C134.89 137.5 137.5 134.89 137.5 131.667V38.3333C137.5 35.1104 134.89 32.5 131.667 32.5Z" fill="url(#paint1_linear_1_238)"/>
<path id="Vector_2" opacity="0.05" d="M137.5 38.3333C137.5 35.1104 134.89 32.5 131.667 32.5H120.321L69.8683 82.9642C69.4717 83.3608 69.1888 83.8596 69.0517 84.405L64.1225 103.967C63.8308 105.119 64.8779 106.166 66.03 105.875L85.595 100.951C86.1404 100.814 86.6392 100.531 87.0388 100.132L137.5 49.6617V38.3333Z" fill="black"/>
<path id="Vector_3" opacity="0.07" d="M137.5 38.3333C137.5 35.1104 134.89 32.5 131.667 32.5H122.383L71.0758 83.8187C70.7492 84.1454 70.5158 84.5537 70.405 85.0029L66.0183 102.415C65.7792 103.363 66.6396 104.221 67.5846 103.982L84.9971 99.5979C85.4463 99.4842 85.8546 99.2538 86.1813 98.9271L137.5 47.5996V38.3333Z" fill="black"/>
<path id="Vector_4" d="M154.04 24.3654L145.635 15.9596C144.357 14.6792 142.275 14.6792 140.994 15.9596L137.039 19.9204L150.083 32.9637L154.043 29.0087C155.321 27.7254 155.321 25.6487 154.04 24.3654Z" fill="#C94F60"/>
<path id="Vector_5" d="M71.8867 85.0698L67.5 102.5L84.9329 98.1102L86.7617 82.9873L71.8867 85.0698Z" fill="#F0F0F0"/>
<path id="Vector_6" d="M138.955 44.0851L84.9358 98.1076L71.8925 85.0642L125.912 31.0417L138.955 44.0851Z" fill="#EDBE00"/>
<path id="Vector_7" d="M125.9 31.0446L137.025 19.9146L150.077 32.9579L138.953 44.0879L125.9 31.0446Z" fill="url(#paint2_linear_1_238)"/>
<path id="Vector_8" d="M69.7225 93.686L67.5 102.5L76.3112 100.278L69.7225 93.686Z" fill="#575757"/>
</g>
<rect x="7.5" y="7.5" width="155" height="155" rx="12.5" stroke="#D5EAF6" stroke-width="15"/>
</g>
<defs>
<linearGradient id="paint0_linear_1_238" x1="85" y1="15" x2="85" y2="155" gradientUnits="userSpaceOnUse">
<stop stop-color="#199AE0"/>
<stop offset="0.472222" stop-color="#0D5176" stop-opacity="0.527778"/>
<stop offset="0.940972" stop-color="#12A6F7" stop-opacity="0.465278"/>
<stop offset="1" stop-opacity="0"/>
</linearGradient>
<linearGradient id="paint1_linear_1_238" x1="32.5" y1="85" x2="137.5" y2="85" gradientUnits="userSpaceOnUse">
<stop stop-color="#0176D0"/>
<stop offset="1" stop-color="#0A85D9"/>
</linearGradient>
<linearGradient id="paint2_linear_1_238" x1="137.99" y1="20.74" x2="137.99" y2="44.7529" gradientUnits="userSpaceOnUse">
<stop stop-color="#DEDEDE"/>
<stop offset="1" stop-color="#D6D6D6"/>
</linearGradient>
<clipPath id="clip0_1_238">
<rect x="15" y="15" width="140" height="140" rx="5" fill="white"/>
</clipPath>
</defs>
</svg>
