<svg width="170" height="170" viewBox="0 0 170 170" fill="none" xmlns="http://www.w3.org/2000/svg">
<g id="credit-card-cash-withdrawal">
<g clip-path="url(#clip0_1_267)">
<rect x="15" y="15" width="140" height="140" rx="5" fill="white"/>
<rect x="15" y="15" width="140" height="140" rx="5" fill="url(#paint0_linear_1_267)" fill-opacity="0.2"/>
<path id="Vector" d="M140.781 41.25H29.2187C24.5871 41.25 20.8333 45.0037 20.8333 49.6354V120.365C20.8333 124.996 24.5871 128.75 29.2187 128.75H140.781C145.413 128.75 149.167 124.996 149.167 120.365V49.6354C149.167 45.0037 145.413 41.25 140.781 41.25Z" fill="url(#paint1_linear_1_267)"/>
<path id="Vector_2" d="M47.0833 85.0002C47.0833 86.6102 45.7767 87.9168 44.1667 87.9168H32.5C30.89 87.9168 29.5833 86.6102 29.5833 85.0002C29.5833 83.3902 30.89 82.0835 32.5 82.0835H44.1667C45.7767 82.0835 47.0833 83.3902 47.0833 85.0002Z" fill="url(#paint2_linear_1_267)"/>
<path id="Vector_3" d="M70.4167 85.0002C70.4167 86.6102 69.11 87.9168 67.5 87.9168H55.8333C54.2233 87.9168 52.9167 86.6102 52.9167 85.0002C52.9167 83.3902 54.2233 82.0835 55.8333 82.0835H67.5C69.11 82.0835 70.4167 83.3902 70.4167 85.0002Z" fill="url(#paint3_linear_1_267)"/>
<path id="Vector_4" d="M93.75 85.0002C93.75 86.6102 92.4433 87.9168 90.8333 87.9168H79.1667C77.5567 87.9168 76.25 86.6102 76.25 85.0002C76.25 83.3902 77.5567 82.0835 79.1667 82.0835H90.8333C92.4433 82.0835 93.75 83.3902 93.75 85.0002Z" fill="url(#paint4_linear_1_267)"/>
<path id="Vector_5" d="M117.083 85.0002C117.083 86.6102 115.777 87.9168 114.167 87.9168H102.5C100.89 87.9168 99.5833 86.6102 99.5833 85.0002C99.5833 83.3902 100.89 82.0835 102.5 82.0835H114.167C115.777 82.0835 117.083 83.3902 117.083 85.0002Z" fill="url(#paint5_linear_1_267)"/>
<path id="Vector_6" d="M140.417 85.0002C140.417 86.6102 139.11 87.9168 137.5 87.9168H125.833C124.223 87.9168 122.917 86.6102 122.917 85.0002C122.917 83.3902 124.223 82.0835 125.833 82.0835H137.5C139.11 82.0835 140.417 83.3902 140.417 85.0002Z" fill="url(#paint6_linear_1_267)"/>
<path id="Vector_7" d="M120.038 73.3332H137.462C139.093 73.3332 140.417 72.009 140.417 70.3786V55.8711C140.417 54.2407 139.093 52.9165 137.462 52.9165H120.038C118.408 52.9165 117.083 54.2407 117.083 55.8711V70.3786C117.083 72.009 118.408 73.3332 120.038 73.3332Z" fill="#BBD2DE"/>
<path id="Vector_8" d="M54.375 105.417H31.0417C30.2367 105.417 29.5833 104.763 29.5833 103.958V101.042C29.5833 100.237 30.2367 99.5835 31.0417 99.5835H54.375C55.18 99.5835 55.8333 100.237 55.8333 101.042V103.958C55.8333 104.763 55.18 105.417 54.375 105.417Z" fill="#0078D4"/>
<path id="Vector_9" d="M86.4583 105.417H63.125C62.32 105.417 61.6667 104.763 61.6667 103.958V101.042C61.6667 100.237 62.32 99.5835 63.125 99.5835H86.4583C87.2633 99.5835 87.9167 100.237 87.9167 101.042V103.958C87.9167 104.763 87.2633 105.417 86.4583 105.417Z" fill="#0078D4"/>
<path id="Vector_10" d="M71.875 117.083H31.0417C30.2367 117.083 29.5833 116.43 29.5833 115.625V112.708C29.5833 111.903 30.2367 111.25 31.0417 111.25H71.875C72.68 111.25 73.3333 111.903 73.3333 112.708V115.625C73.3333 116.43 72.68 117.083 71.875 117.083Z" fill="#0078D4"/>
<path id="Vector_11" opacity="0.05" d="M90.8333 105.417C87.6163 105.417 85 108.033 85 111.25V128.75H140.781C145.413 128.75 149.167 124.996 149.167 120.364V105.417H90.8333Z" fill="black"/>
<path id="Vector_12" opacity="0.07" d="M90.8333 106.875C88.4213 106.875 86.4583 108.838 86.4583 111.25V128.75H140.781C145.413 128.75 149.167 124.996 149.167 120.365V106.875H90.8333Z" fill="black"/>
<path id="Vector_13" d="M93.75 155H90.8333C89.2233 155 87.9167 153.693 87.9167 152.083V146.066H93.75V155Z" fill="#52BF8D"/>
<path id="Vector_14" d="M149.167 108.333H93.75V143.333H149.167V108.333Z" fill="#33C481"/>
<path id="Vector_15" d="M93.75 149.167H90.8333C89.2233 149.167 87.9167 147.86 87.9167 146.25V139.813H93.75V149.167Z" fill="#59D19A"/>
<path id="Vector_16" d="M93.75 143.333H90.8333C89.2233 143.333 87.9167 142.027 87.9167 140.417V111.25C87.9167 109.64 89.2233 108.333 90.8333 108.333H93.75V143.333Z" fill="#61E3A7"/>
<path id="Vector_17" d="M149.167 143.333H93.75V149.167H149.167V143.333Z" fill="#21A366"/>
<path id="Vector_18" d="M149.167 149.167H93.75V155H149.167V149.167Z" fill="#107C42"/>
<path id="Vector_19" d="M111.25 137.5C117.693 137.5 122.917 132.276 122.917 125.833C122.917 119.39 117.693 114.167 111.25 114.167C104.807 114.167 99.5833 119.39 99.5833 125.833C99.5833 132.276 104.807 137.5 111.25 137.5Z" fill="#61E3A7"/>
<path id="Vector_20" d="M128.75 137.5C130.361 137.5 131.667 136.194 131.667 134.583C131.667 132.972 130.361 131.667 128.75 131.667C127.139 131.667 125.833 132.972 125.833 134.583C125.833 136.194 127.139 137.5 128.75 137.5Z" fill="#61E3A7"/>
<path id="Vector_21" d="M140.417 137.5C142.027 137.5 143.333 136.194 143.333 134.583C143.333 132.972 142.027 131.667 140.417 131.667C138.806 131.667 137.5 132.972 137.5 134.583C137.5 136.194 138.806 137.5 140.417 137.5Z" fill="#61E3A7"/>
<path id="Vector_22" d="M152.083 155H149.167V146.066H155V152.083C155 153.693 153.693 155 152.083 155Z" fill="#52BF8D"/>
<path id="Vector_23" d="M152.083 149.167H149.167V139.813H155V146.25C155 147.86 153.693 149.167 152.083 149.167Z" fill="#59D19A"/>
<path id="Vector_24" d="M152.083 143.333H149.167V108.333H152.083C153.693 108.333 155 109.64 155 111.25V140.417C155 142.027 153.693 143.333 152.083 143.333Z" fill="#61E3A7"/>
</g>
<rect x="7.5" y="7.5" width="155" height="155" rx="12.5" stroke="#D5EAF6" stroke-width="15"/>
</g>
<defs>
<linearGradient id="paint0_linear_1_267" x1="85" y1="15" x2="85" y2="155" gradientUnits="userSpaceOnUse">
<stop stop-color="#199AE0"/>
<stop offset="0.472222" stop-color="#0D5176" stop-opacity="0.527778"/>
<stop offset="0.940972" stop-color="#12A6F7" stop-opacity="0.465278"/>
<stop offset="1" stop-opacity="0"/>
</linearGradient>
<linearGradient id="paint1_linear_1_267" x1="74.4271" y1="47.2613" x2="98.8483" y2="134.426" gradientUnits="userSpaceOnUse">
<stop stop-color="#32BDEF"/>
<stop offset="1" stop-color="#1EA2E4"/>
</linearGradient>
<linearGradient id="paint2_linear_1_267" x1="30.4992" y1="88.2347" x2="43.9946" y2="82.6639" gradientUnits="userSpaceOnUse">
<stop stop-color="#5BC8EF"/>
<stop offset="1" stop-color="#42BEFC"/>
</linearGradient>
<linearGradient id="paint3_linear_1_267" x1="53.8325" y1="88.2347" x2="67.3279" y2="82.6639" gradientUnits="userSpaceOnUse">
<stop stop-color="#5BC8EF"/>
<stop offset="1" stop-color="#42BEFC"/>
</linearGradient>
<linearGradient id="paint4_linear_1_267" x1="77.1658" y1="88.2347" x2="90.6612" y2="82.6639" gradientUnits="userSpaceOnUse">
<stop stop-color="#5BC8EF"/>
<stop offset="1" stop-color="#42BEFC"/>
</linearGradient>
<linearGradient id="paint5_linear_1_267" x1="100.499" y1="88.2347" x2="113.995" y2="82.6639" gradientUnits="userSpaceOnUse">
<stop stop-color="#5BC8EF"/>
<stop offset="1" stop-color="#42BEFC"/>
</linearGradient>
<linearGradient id="paint6_linear_1_267" x1="123.832" y1="88.2347" x2="137.328" y2="82.6639" gradientUnits="userSpaceOnUse">
<stop stop-color="#5BC8EF"/>
<stop offset="1" stop-color="#42BEFC"/>
</linearGradient>
<clipPath id="clip0_1_267">
<rect x="15" y="15" width="140" height="140" rx="5" fill="white"/>
</clipPath>
</defs>
</svg>
