<svg width="170" height="170" viewBox="0 0 170 170" fill="none" xmlns="http://www.w3.org/2000/svg">
<g id="customer">
<rect x="7.5" y="7.5" width="155" height="155" rx="12.5" fill="white"/>
<rect x="7.5" y="7.5" width="155" height="155" rx="12.5" fill="url(#paint0_linear_1_264)" fill-opacity="0.2"/>
<path id="Vector" d="M85 76.2502C97.8866 76.2502 108.333 65.8035 108.333 52.9168C108.333 40.0302 97.8866 29.5835 85 29.5835C72.1134 29.5835 61.6667 40.0302 61.6667 52.9168C61.6667 65.8035 72.1134 76.2502 85 76.2502Z" fill="url(#paint1_linear_1_264)"/>
<path id="Vector_2" d="M85 85C62.4483 85 44.1667 103.282 44.1667 125.833V134.583C44.1667 137.806 46.7771 140.417 50 140.417H120C123.223 140.417 125.833 137.806 125.833 134.583V125.833C125.833 103.282 107.552 85 85 85Z" fill="url(#paint2_linear_1_264)"/>
<rect x="7.5" y="7.5" width="155" height="155" rx="12.5" stroke="#D5EAF6" stroke-width="15"/>
</g>
<defs>
<linearGradient id="paint0_linear_1_264" x1="85" y1="15" x2="85" y2="155" gradientUnits="userSpaceOnUse">
<stop stop-color="#199AE0"/>
<stop offset="0.472222" stop-color="#0D5176" stop-opacity="0.527778"/>
<stop offset="0.940972" stop-color="#12A6F7" stop-opacity="0.465278"/>
<stop offset="1" stop-opacity="0"/>
</linearGradient>
<linearGradient id="paint1_linear_1_264" x1="69.1712" y1="37.0881" x2="101.727" y2="69.6439" gradientUnits="userSpaceOnUse">
<stop stop-color="#32BDEF"/>
<stop offset="1" stop-color="#1EA2E4"/>
</linearGradient>
<linearGradient id="paint2_linear_1_264" x1="57.5629" y1="95.5233" x2="112.026" y2="149.986" gradientUnits="userSpaceOnUse">
<stop stop-color="#32BDEF"/>
<stop offset="1" stop-color="#1EA2E4"/>
</linearGradient>
</defs>
</svg>
