<svg width="170" height="170" viewBox="0 0 170 170" fill="none" xmlns="http://www.w3.org/2000/svg">
<g id="database-server">
<g clip-path="url(#clip0_1_297)">
<rect x="15" y="15" width="140" height="140" rx="5" fill="white"/>
<rect x="15" y="15" width="140" height="140" rx="5" fill="url(#paint0_linear_1_297)" fill-opacity="0.2"/>
<path id="Vector" d="M120.318 26.6665H50.3179C47.095 26.6665 44.4846 29.2769 44.4846 32.4998V137.5C44.4846 140.723 47.095 143.333 50.3179 143.333H120.318C123.541 143.333 126.151 140.723 126.151 137.5V32.4998C126.151 29.2769 123.541 26.6665 120.318 26.6665Z" fill="url(#paint1_linear_1_297)"/>
<path id="Vector_2" d="M85 131.667C89.8325 131.667 93.75 127.749 93.75 122.917C93.75 118.084 89.8325 114.167 85 114.167C80.1675 114.167 76.25 118.084 76.25 122.917C76.25 127.749 80.1675 131.667 85 131.667Z" fill="url(#paint2_radial_1_297)"/>
<path id="Vector_3" d="M85 128.75C88.2217 128.75 90.8333 126.138 90.8333 122.917C90.8333 119.695 88.2217 117.083 85 117.083C81.7783 117.083 79.1667 119.695 79.1667 122.917C79.1667 126.138 81.7783 128.75 85 128.75Z" fill="white"/>
<path id="Vector_4" d="M112.708 55.8335H57.2917C56.4867 55.8335 55.8333 55.1802 55.8333 54.3752V39.7918C55.8333 38.9868 56.4867 38.3335 57.2917 38.3335H112.708C113.513 38.3335 114.167 38.9868 114.167 39.7918V54.3752C114.167 55.1802 113.513 55.8335 112.708 55.8335Z" fill="url(#paint3_linear_1_297)"/>
<path id="Vector_5" d="M105.417 49.9998C107.027 49.9998 108.333 48.694 108.333 47.0832C108.333 45.4723 107.027 44.1665 105.417 44.1665C103.806 44.1665 102.5 45.4723 102.5 47.0832C102.5 48.694 103.806 49.9998 105.417 49.9998Z" fill="#50E6FF"/>
<path id="Vector_6" d="M112.708 79.1665H57.2917C56.4867 79.1665 55.8333 78.5132 55.8333 77.7082V63.1248C55.8333 62.3198 56.4867 61.6665 57.2917 61.6665H112.708C113.513 61.6665 114.167 62.3198 114.167 63.1248V77.7082C114.167 78.5132 113.513 79.1665 112.708 79.1665Z" fill="url(#paint4_linear_1_297)"/>
<path id="Vector_7" d="M105.417 73.3333C107.027 73.3333 108.333 72.0275 108.333 70.4167C108.333 68.8058 107.027 67.5 105.417 67.5C103.806 67.5 102.5 68.8058 102.5 70.4167C102.5 72.0275 103.806 73.3333 105.417 73.3333Z" fill="#50E6FF"/>
<path id="Vector_8" d="M112.708 102.5H57.2917C56.4867 102.5 55.8333 101.847 55.8333 101.042V86.4583C55.8333 85.6533 56.4867 85 57.2917 85H112.708C113.513 85 114.167 85.6533 114.167 86.4583V101.042C114.167 101.847 113.513 102.5 112.708 102.5Z" fill="url(#paint5_linear_1_297)"/>
<path id="Vector_9" d="M105.417 96.6668C107.027 96.6668 108.333 95.361 108.333 93.7502C108.333 92.1393 107.027 90.8335 105.417 90.8335C103.806 90.8335 102.5 92.1393 102.5 93.7502C102.5 95.361 103.806 96.6668 105.417 96.6668Z" fill="#50E6FF"/>
<path id="Vector_10" opacity="0.07" d="M107.193 104.863V143.333H108.651L126.151 143.771V98.5918C118.801 99.0001 107.193 100.342 107.193 104.863Z" fill="black"/>
<path id="Vector_11" opacity="0.05" d="M105.735 104.862V143.333H126.151V97.104C117.46 97.5123 105.735 99.1457 105.735 104.862Z" fill="black"/>
<path id="Vector_12" d="M155 132.034H108.651C108.651 132.034 108.651 147.761 108.651 148.878C108.651 152.261 119.026 155.003 131.827 155.003C144.628 155.003 155 152.261 155 148.878C155 147.758 155 132.034 155 132.034Z" fill="url(#paint6_linear_1_297)"/>
<path id="Vector_13" d="M155 117.55H108.651C108.651 117.55 108.651 134.125 108.651 135.301C108.651 138.865 119.026 141.755 131.827 141.755C144.628 141.755 155 138.868 155 135.301C155 134.125 155 117.55 155 117.55Z" fill="url(#paint7_linear_1_297)"/>
<path id="Vector_14" d="M155 104.851H108.651C108.651 104.851 108.651 118.492 108.651 119.667C108.651 122.724 119.026 125.203 131.827 125.203C144.628 125.203 155 122.724 155 119.667C155 118.492 155 104.851 155 104.851Z" fill="url(#paint8_linear_1_297)"/>
<path id="Vector_15" d="M131.824 109.818C144.624 109.818 155 107.594 155 104.851C155 102.108 144.624 99.8838 131.824 99.8838C119.025 99.8838 108.648 102.108 108.648 104.851C108.648 107.594 119.025 109.818 131.824 109.818Z" fill="url(#paint9_linear_1_297)"/>
</g>
<rect x="7.5" y="7.5" width="155" height="155" rx="12.5" stroke="#D5EAF6" stroke-width="15"/>
</g>
<defs>
<linearGradient id="paint0_linear_1_297" x1="85" y1="15" x2="85" y2="155" gradientUnits="userSpaceOnUse">
<stop stop-color="#199AE0"/>
<stop offset="0.472222" stop-color="#0D5176" stop-opacity="0.527778"/>
<stop offset="0.940972" stop-color="#12A6F7" stop-opacity="0.465278"/>
<stop offset="1" stop-opacity="0"/>
</linearGradient>
<linearGradient id="paint1_linear_1_297" x1="45.9925" y1="30.5807" x2="121.91" y2="135.636" gradientUnits="userSpaceOnUse">
<stop stop-color="#2AA4F4"/>
<stop offset="1" stop-color="#007AD9"/>
</linearGradient>
<radialGradient id="paint2_radial_1_297" cx="0" cy="0" r="1" gradientUnits="userSpaceOnUse" gradientTransform="translate(85 122.917) scale(8.75)">
<stop offset="0.582" stop-opacity="0.2"/>
<stop offset="1" stop-opacity="0"/>
</radialGradient>
<linearGradient id="paint3_linear_1_297" x1="55.8333" y1="47.0835" x2="114.167" y2="47.0835" gradientUnits="userSpaceOnUse">
<stop stop-color="#1D59B3"/>
<stop offset="1" stop-color="#195BBC"/>
</linearGradient>
<linearGradient id="paint4_linear_1_297" x1="55.8333" y1="70.4165" x2="114.167" y2="70.4165" gradientUnits="userSpaceOnUse">
<stop stop-color="#1D59B3"/>
<stop offset="1" stop-color="#195BBC"/>
</linearGradient>
<linearGradient id="paint5_linear_1_297" x1="55.8333" y1="93.75" x2="114.167" y2="93.75" gradientUnits="userSpaceOnUse">
<stop stop-color="#1D59B3"/>
<stop offset="1" stop-color="#195BBC"/>
</linearGradient>
<linearGradient id="paint6_linear_1_297" x1="108.651" y1="143.517" x2="155" y2="143.517" gradientUnits="userSpaceOnUse">
<stop stop-color="#7819A2"/>
<stop offset="1" stop-color="#771AA9"/>
</linearGradient>
<linearGradient id="paint7_linear_1_297" x1="108.651" y1="129.654" x2="155" y2="129.654" gradientUnits="userSpaceOnUse">
<stop stop-color="#912FBD"/>
<stop offset="1" stop-color="#9332BF"/>
</linearGradient>
<linearGradient id="paint8_linear_1_297" x1="108.651" y1="115.027" x2="155" y2="115.027" gradientUnits="userSpaceOnUse">
<stop stop-color="#AE4CD5"/>
<stop offset="1" stop-color="#AC4AD5"/>
</linearGradient>
<linearGradient id="paint9_linear_1_297" x1="108.651" y1="104.851" x2="155" y2="104.851" gradientUnits="userSpaceOnUse">
<stop stop-color="#C965EB"/>
<stop offset="1" stop-color="#C767E5"/>
</linearGradient>
<clipPath id="clip0_1_297">
<rect x="15" y="15" width="140" height="140" rx="5" fill="white"/>
</clipPath>
</defs>
</svg>
