<svg width="170" height="170" viewBox="0 0 170 170" fill="none" xmlns="http://www.w3.org/2000/svg">
<g id="database">
<rect x="7.5" y="7.5" width="155" height="155" rx="12.5" fill="white"/>
<rect x="7.5" y="7.5" width="155" height="155" rx="12.5" fill="url(#paint0_linear_1_313)" fill-opacity="0.2"/>
<path id="Vector" d="M131.667 96.6665H38.3333C38.3333 96.6665 38.3333 126.624 38.3333 128.75C38.3333 135.193 59.2254 140.417 85 140.417C110.775 140.417 131.667 135.193 131.667 128.75C131.667 126.624 131.667 96.6665 131.667 96.6665Z" fill="url(#paint1_linear_1_313)"/>
<path id="Vector_2" d="M131.667 67.5H38.3333C38.3333 67.5 38.3333 97.4571 38.3333 99.5833C38.3333 106.026 59.2254 111.25 85 111.25C110.775 111.25 131.667 106.026 131.667 99.5833C131.667 97.4571 131.667 67.5 131.667 67.5Z" fill="url(#paint2_linear_1_313)"/>
<path id="Vector_3" d="M131.667 38.3335H38.3333C38.3333 38.3335 38.3333 66.7885 38.3333 68.9585C38.3333 74.5964 59.2254 79.1668 85 79.1668C110.775 79.1668 131.667 74.5964 131.667 68.9585C131.667 66.7885 131.667 38.3335 131.667 38.3335Z" fill="url(#paint3_linear_1_313)"/>
<path id="Vector_4" d="M85 47.0835C110.773 47.0835 131.667 43.166 131.667 38.3335C131.667 33.501 110.773 29.5835 85 29.5835C59.2267 29.5835 38.3333 33.501 38.3333 38.3335C38.3333 43.166 59.2267 47.0835 85 47.0835Z" fill="url(#paint4_linear_1_313)"/>
<rect x="7.5" y="7.5" width="155" height="155" rx="12.5" stroke="#D5EAF6" stroke-width="15"/>
</g>
<defs>
<linearGradient id="paint0_linear_1_313" x1="85" y1="15" x2="85" y2="155" gradientUnits="userSpaceOnUse">
<stop stop-color="#199AE0"/>
<stop offset="0.472222" stop-color="#0D5176" stop-opacity="0.527778"/>
<stop offset="0.940972" stop-color="#12A6F7" stop-opacity="0.465278"/>
<stop offset="1" stop-opacity="0"/>
</linearGradient>
<linearGradient id="paint1_linear_1_313" x1="38.3333" y1="118.542" x2="131.667" y2="118.542" gradientUnits="userSpaceOnUse">
<stop stop-color="#11408A"/>
<stop offset="1" stop-color="#103F8F"/>
</linearGradient>
<linearGradient id="paint2_linear_1_313" x1="38.3333" y1="89.375" x2="131.667" y2="89.375" gradientUnits="userSpaceOnUse">
<stop stop-color="#1D59B3"/>
<stop offset="1" stop-color="#195BBC"/>
</linearGradient>
<linearGradient id="paint3_linear_1_313" x1="38.3333" y1="58.7502" x2="131.667" y2="58.7502" gradientUnits="userSpaceOnUse">
<stop stop-color="#3079D6"/>
<stop offset="1" stop-color="#297CD2"/>
</linearGradient>
<linearGradient id="paint4_linear_1_313" x1="38.3333" y1="38.3335" x2="131.667" y2="38.3335" gradientUnits="userSpaceOnUse">
<stop stop-color="#42A3F2"/>
<stop offset="1" stop-color="#42A4EB"/>
</linearGradient>
</defs>
</svg>
