<svg width="170" height="170" viewBox="0 0 170 170" fill="none" xmlns="http://www.w3.org/2000/svg">
<g id="date-to">
<rect x="7.5" y="7.5" width="155" height="155" rx="12.5" fill="white"/>
<rect x="7.5" y="7.5" width="155" height="155" rx="12.5" fill="url(#paint0_linear_1_318)" fill-opacity="0.2"/>
<path id="Vector" d="M32.5 131.667V50H137.5V131.667C137.5 134.875 134.875 137.5 131.667 137.5H38.3333C35.125 137.5 32.5 134.875 32.5 131.667Z" fill="url(#paint1_linear_1_318)"/>
<path id="Vector_2" opacity="0.05" d="M89.8008 92.2653L82.0833 84.2591L72.1112 73.9166C70.8687 72.6245 68.9933 72.2278 67.3221 72.8899C65.6596 73.5608 64.5833 75.1562 64.5833 76.9499V82.0833H35.4167H42.7083C40.2962 82.0833 38.3333 84.0462 38.3333 86.4583V103.958C38.3333 106.37 40.2962 108.333 42.7083 108.333H35.4167H64.5833V113.47C64.5833 115.263 65.6596 116.859 67.325 117.53C67.8529 117.74 68.4042 117.847 68.9642 117.847C70.1367 117.847 71.2858 117.357 72.1112 116.503L82.0833 106.16L89.8008 98.1541C91.3875 96.5003 91.3875 93.9191 89.8008 92.2653Z" fill="black"/>
<path id="Vector_3" opacity="0.07" d="M88.7508 93.2773L71.0613 74.9286C70.23 74.0652 68.9671 73.8057 67.8675 74.2461C66.7562 74.6923 66.0417 75.754 66.0417 76.9498V83.5415H35.4167H42.7083C41.0983 83.5415 39.7917 84.8482 39.7917 86.4582V103.958C39.7917 105.568 41.0983 106.875 42.7083 106.875H35.4167H66.0417V113.469C66.0417 114.665 66.7562 115.727 67.8675 116.176C68.2233 116.319 68.5938 116.389 68.9642 116.389C69.74 116.389 70.4954 116.077 71.0613 115.491L88.7508 97.1419C89.795 96.0569 89.795 94.3623 88.7508 93.2773Z" fill="black"/>
<path id="Vector_4" d="M67.5 76.9498V84.9998H42.7083C41.9033 84.9998 41.25 85.6532 41.25 86.4582V103.958C41.25 104.763 41.9033 105.416 42.7083 105.416H67.5V113.469C67.5 114.782 69.0983 115.427 70.0083 114.482L87.7008 96.1327C88.1967 95.6194 88.1967 94.8057 87.7008 94.2894L70.0083 75.9407C69.0983 74.9927 67.5 75.6373 67.5 76.9498Z" fill="#50E6FF"/>
<path id="Vector_5" d="M137.5 38.3333V55.8333H32.5V38.3333C32.5 35.125 35.125 32.5 38.3333 32.5H131.667C134.875 32.5 137.5 35.125 137.5 38.3333Z" fill="url(#paint2_linear_1_318)"/>
<path id="Vector_6" opacity="0.05" d="M118.542 51.4583C113.709 51.4583 109.792 47.5413 109.792 42.7083V32.5H127.292V42.7083C127.292 47.5413 123.375 51.4583 118.542 51.4583Z" fill="black"/>
<path id="Vector_7" opacity="0.07" d="M118.542 49.2708C114.916 49.2708 111.979 46.3338 111.979 42.7083V32.5H125.104V42.7083C125.104 46.3338 122.167 49.2708 118.542 49.2708Z" fill="black"/>
<path id="Vector_8" opacity="0.05" d="M51.4583 51.4583C46.6254 51.4583 42.7083 47.5413 42.7083 42.7083V32.5H60.2083V42.7083C60.2083 47.5413 56.2912 51.4583 51.4583 51.4583Z" fill="black"/>
<path id="Vector_9" opacity="0.07" d="M51.4583 49.2708C47.8329 49.2708 44.8958 46.3338 44.8958 42.7083V32.5H58.0208V42.7083C58.0208 46.3338 55.0837 49.2708 51.4583 49.2708Z" fill="black"/>
<path id="Vector_10" d="M51.4583 47.0832C49.0433 47.0832 47.0833 45.1232 47.0833 42.7082V31.0415C47.0833 28.6265 49.0433 26.6665 51.4583 26.6665C53.8733 26.6665 55.8333 28.6265 55.8333 31.0415V42.7082C55.8333 45.1232 53.8733 47.0832 51.4583 47.0832Z" fill="#3CCBF4"/>
<path id="Vector_11" d="M118.542 47.0832C116.127 47.0832 114.167 45.1232 114.167 42.7082V31.0415C114.167 28.6265 116.127 26.6665 118.542 26.6665C120.957 26.6665 122.917 28.6265 122.917 31.0415V42.7082C122.917 45.1232 120.957 47.0832 118.542 47.0832Z" fill="#3CCBF4"/>
<rect x="7.5" y="7.5" width="155" height="155" rx="12.5" stroke="#D5EAF6" stroke-width="15"/>
</g>
<defs>
<linearGradient id="paint0_linear_1_318" x1="85" y1="15" x2="85" y2="155" gradientUnits="userSpaceOnUse">
<stop stop-color="#199AE0"/>
<stop offset="0.472222" stop-color="#0D5176" stop-opacity="0.527778"/>
<stop offset="0.940972" stop-color="#12A6F7" stop-opacity="0.465278"/>
<stop offset="1" stop-opacity="0"/>
</linearGradient>
<linearGradient id="paint1_linear_1_318" x1="40.7483" y1="47.8037" x2="131.075" y2="138.089" gradientUnits="userSpaceOnUse">
<stop stop-color="#28AFEA"/>
<stop offset="1" stop-color="#047ED6"/>
</linearGradient>
<linearGradient id="paint2_linear_1_318" x1="33.725" y1="34.2733" x2="135.161" y2="54.9" gradientUnits="userSpaceOnUse">
<stop stop-color="#0077D2"/>
<stop offset="1" stop-color="#0B59A2"/>
</linearGradient>
</defs>
</svg>
