<svg width="170" height="170" viewBox="0 0 170 170" fill="none" xmlns="http://www.w3.org/2000/svg">
<g id="decision">
<rect x="7.5" y="7.5" width="155" height="155" rx="12.5" fill="white"/>
<rect x="7.5" y="7.5" width="155" height="155" rx="12.5" fill="url(#paint0_linear_1_330)" fill-opacity="0.2"/>
<path id="Vector" d="M128.747 82.0835H125.833V108.333H129.721C132.565 108.333 134.995 106.283 135.473 103.48L137.378 92.3035C138.285 86.9602 134.166 82.0835 128.747 82.0835Z" fill="url(#paint1_linear_1_330)"/>
<path id="Vector_2" d="M41.2529 82.0835H44.1667V108.333H40.2787C37.435 108.333 35.0054 106.283 34.5271 103.48L32.6225 92.3035C31.7154 86.9602 35.8338 82.0835 41.2529 82.0835Z" fill="url(#paint2_linear_1_330)"/>
<path id="Vector_3" d="M85 26.6665C63.4108 26.6665 41.25 35.4165 41.25 76.2498C41.25 79.9861 41.25 102.267 41.25 106.257C41.25 122.917 67.5 143.333 85 143.333C102.5 143.333 128.75 122.917 128.75 106.257C128.75 102.267 128.75 79.9861 128.75 76.2498C128.75 35.4165 106.589 26.6665 85 26.6665Z" fill="url(#paint3_radial_1_330)"/>
<path id="Vector_4" opacity="0.05" d="M95.7187 112.451C95.7187 118.06 91.5246 121.98 85.5133 121.98C80.5083 121.98 75.1883 118.641 75.1883 112.451C75.1883 106.315 80.5083 103.001 85.5133 103.001C90.5854 103.001 95.7187 106.248 95.7187 112.451Z" fill="black"/>
<path id="Vector_5" opacity="0.05" d="M85.91 50C78.4142 50 72.3825 52.5783 69.4308 54.13C68.2029 54.7746 67.4592 56.055 67.4592 57.4404V72.3504C67.4592 73.7971 69.1712 74.5379 70.2358 73.555C73.1642 70.8483 78.21 67.2638 84.3846 67.2638C85.8692 67.2638 88.36 67.7013 88.36 70.6296C88.36 73.5142 86.6246 75.1708 83.5621 77.8483C79.8871 81.0596 75.3138 85.0583 75.3138 93.19C75.3138 95.7158 75.7892 97.7896 76.2558 99.2129C76.6788 100.499 77.9067 101.342 79.2629 101.342C79.2629 101.342 89.2817 101.325 90.7167 101.325C94.0942 101.325 93.7879 98.8454 93.3388 97.6175C93.05 96.8242 92.49 95.5992 92.49 94.4558C92.49 91.6646 94.4529 89.865 97.9238 86.9221C102.404 83.1246 107.98 78.3967 107.98 68.7075C107.986 56.9942 99.735 50 85.91 50Z" fill="black"/>
<path id="Vector_6" opacity="0.07" d="M85.5133 104.46C89.7746 104.46 94.2604 107.05 94.2604 112.452C94.2604 117.556 90.32 120.522 85.5133 120.522C81.2113 120.522 76.6467 117.728 76.6467 112.452C76.6467 107.202 81.2842 104.46 85.5133 104.46Z" fill="black"/>
<path id="Vector_7" opacity="0.07" d="M70.3787 55.2589C73.1496 53.7772 78.5775 51.4585 85.9129 51.4585C102.281 51.4585 106.528 61.4568 106.528 68.7135C106.528 77.5977 101.497 81.9872 97.1829 85.6477C94.3129 88.0802 92.4375 89.9206 91.615 92.3502C90.7079 95.0306 92.0379 97.0518 92.07 97.151C92.4433 98.2302 92.1254 99.881 89.69 99.881C87.66 99.8839 80.5987 99.8868 80.5987 99.8868C79.9221 99.8868 77.9154 99.4668 77.7025 98.8223C77.3467 97.8043 76.8187 95.7714 76.7808 93.5606C76.775 93.3156 76.7779 93.0677 76.7808 92.8227C76.9383 84.9506 81.8208 81.436 85.525 78.0439C88.1237 75.6843 89.8183 73.7477 89.8183 70.6297C89.8183 67.8997 88.0333 66.9372 86.6421 66.4706C84.8892 65.8814 82.9904 65.9835 81.9112 66.1818C78 66.9081 74.6604 68.6406 72.3183 70.3672C71.2012 71.1897 69.8508 71.1752 69.4512 70.761C69.2296 70.9331 68.9146 69.7722 68.9146 69.4893V58.2077C68.9146 57.9714 68.9758 57.2452 69.04 57.0293C69.2587 56.3002 69.6787 55.6322 70.3787 55.2589Z" fill="black"/>
<path id="Vector_8" d="M79.1492 98.4311C78.8575 97.6757 78.2333 95.4211 78.2333 93.1957C78.2333 80.5228 91.2796 80.0357 91.2796 70.6353C91.2796 64.7173 85.4317 64.3528 84.3846 64.3528C77.7433 64.3528 72.5575 68.1503 70.3758 70.0694V56.9357C72.6158 55.594 77.7433 52.9165 85.9129 52.9165C104.83 52.9165 105.07 65.919 105.07 68.7132C105.07 83.7223 89.5792 84.8365 89.5792 94.4586C89.5792 96.4653 90.3054 97.9353 90.6263 98.4282H79.1492V98.4311ZM85.5133 119.064C81.9113 119.064 78.105 116.818 78.105 112.452C78.105 108.088 82.06 105.918 85.5133 105.918C88.9667 105.918 92.8021 107.855 92.8021 112.452C92.8021 117.048 89.1154 119.064 85.5133 119.064Z" fill="white"/>
<rect x="7.5" y="7.5" width="155" height="155" rx="12.5" stroke="#D5EAF6" stroke-width="15"/>
</g>
<defs>
<linearGradient id="paint0_linear_1_330" x1="85" y1="15" x2="85" y2="155" gradientUnits="userSpaceOnUse">
<stop stop-color="#199AE0"/>
<stop offset="0.472222" stop-color="#0D5176" stop-opacity="0.527778"/>
<stop offset="0.940972" stop-color="#12A6F7" stop-opacity="0.465278"/>
<stop offset="1" stop-opacity="0"/>
</linearGradient>
<linearGradient id="paint1_linear_1_330" x1="138.174" y1="95.2085" x2="127.691" y2="95.2085" gradientUnits="userSpaceOnUse">
<stop stop-color="#0F5695"/>
<stop offset="0.963" stop-color="#134575"/>
</linearGradient>
<linearGradient id="paint2_linear_1_330" x1="32.36" y1="95.2085" x2="41.4396" y2="95.2085" gradientUnits="userSpaceOnUse">
<stop stop-color="#0F5695"/>
<stop offset="1" stop-color="#134575"/>
</linearGradient>
<radialGradient id="paint3_radial_1_330" cx="0" cy="0" r="1" gradientUnits="userSpaceOnUse" gradientTransform="translate(87.0037 82.8998) scale(57.5896 57.5896)">
<stop stop-color="#0370C8"/>
<stop offset="0.484" stop-color="#036FC5"/>
<stop offset="0.775" stop-color="#036ABD"/>
<stop offset="1" stop-color="#0362B0"/>
</radialGradient>
</defs>
</svg>
