<svg width="170" height="170" viewBox="0 0 170 170" fill="none" xmlns="http://www.w3.org/2000/svg">
<g id="delete-folder">
<rect x="7.5" y="7.5" width="155" height="155" rx="12.5" fill="white"/>
<rect x="7.5" y="7.5" width="155" height="155" rx="12.5" fill="url(#paint0_linear_1_355)" fill-opacity="0.2"/>
<path id="Vector" d="M86.2075 45.374L78.8108 37.9773C77.1717 36.3382 74.9463 35.4165 72.6246 35.4165H29.5833C26.3604 35.4165 23.75 38.0269 23.75 41.2498V128.75C23.75 131.973 26.3604 134.583 29.5833 134.583H140.417C143.64 134.583 146.25 131.973 146.25 128.75V52.9165C146.25 49.6936 143.64 47.0832 140.417 47.0832H90.3317C88.7858 47.0832 87.3013 46.4678 86.2075 45.374Z" fill="url(#paint1_linear_1_355)"/>
<path id="Vector_2" d="M77.9592 57.041L87.4908 47.5093C87.7621 47.2381 88.1325 47.0835 88.5204 47.0835H140.417C143.64 47.0835 146.25 49.6939 146.25 52.9168V128.75C146.25 131.973 143.64 134.583 140.417 134.583H29.5833C26.3604 134.583 23.75 131.973 23.75 128.75V60.2085C23.75 59.4035 24.4033 58.7502 25.2083 58.7502H73.835C75.3808 58.7502 76.8654 58.1347 77.9592 57.041Z" fill="url(#paint2_linear_1_355)"/>
<path id="Vector_3" d="M155 125.833C155 141.939 141.939 155 125.833 155C109.727 155 96.6667 141.939 96.6667 125.833C96.6667 109.727 109.727 96.6665 125.833 96.6665C141.939 96.6665 155 109.727 155 125.833Z" fill="url(#paint3_linear_1_355)"/>
<path id="Vector_4" d="M136.147 113.458L138.209 115.52C138.778 116.089 138.778 117.013 138.209 117.582L117.585 138.206C117.016 138.774 116.092 138.774 115.523 138.206L113.461 136.144C112.892 135.575 112.892 134.65 113.461 134.082L134.085 113.458C134.653 112.889 135.575 112.889 136.147 113.458Z" fill="white"/>
<path id="Vector_5" d="M138.209 136.147L136.147 138.209C135.578 138.777 134.653 138.777 134.085 138.209L113.461 117.585C112.892 117.016 112.892 116.092 113.461 115.523L115.523 113.461C116.092 112.892 117.016 112.892 117.585 113.461L138.209 134.084C138.778 134.653 138.778 135.575 138.209 136.147Z" fill="white"/>
<rect x="7.5" y="7.5" width="155" height="155" rx="12.5" stroke="#D5EAF6" stroke-width="15"/>
</g>
<defs>
<linearGradient id="paint0_linear_1_355" x1="85" y1="15" x2="85" y2="155" gradientUnits="userSpaceOnUse">
<stop stop-color="#199AE0"/>
<stop offset="0.472222" stop-color="#0D5176" stop-opacity="0.527778"/>
<stop offset="0.940972" stop-color="#12A6F7" stop-opacity="0.465278"/>
<stop offset="1" stop-opacity="0"/>
</linearGradient>
<linearGradient id="paint1_linear_1_355" x1="85" y1="34.5648" x2="85" y2="58.6828" gradientUnits="userSpaceOnUse">
<stop stop-color="#EBA600"/>
<stop offset="1" stop-color="#C28200"/>
</linearGradient>
<linearGradient id="paint2_linear_1_355" x1="85" y1="46.6577" x2="85" y2="134.534" gradientUnits="userSpaceOnUse">
<stop stop-color="#FFD869"/>
<stop offset="1" stop-color="#FEC52B"/>
</linearGradient>
<linearGradient id="paint3_linear_1_355" x1="105.21" y1="105.209" x2="146.457" y2="146.454" gradientUnits="userSpaceOnUse">
<stop stop-color="#F44F5A"/>
<stop offset="0.443" stop-color="#EE3D4A"/>
<stop offset="1" stop-color="#E52030"/>
</linearGradient>
</defs>
</svg>
