<svg width="170" height="170" viewBox="0 0 170 170" fill="none" xmlns="http://www.w3.org/2000/svg">
<g id="desktop">
<rect x="7.5" y="7.5" width="155" height="155" rx="12.5" fill="white"/>
<rect x="7.5" y="7.5" width="155" height="155" rx="12.5" fill="url(#paint0_linear_1_384)" fill-opacity="0.2"/>
<path id="Vector" d="M38.3333 32.5H131.667C134.89 32.5 137.5 35.1104 137.5 38.3333V131.667C137.5 134.89 134.89 137.5 131.667 137.5H38.3333C35.1104 137.5 32.5 134.89 32.5 131.667V38.3333C32.5 35.1104 35.1104 32.5 38.3333 32.5Z" fill="url(#paint1_radial_1_384)"/>
<path id="Vector_2" d="M137.5 131.667V120H32.5V131.667C32.5 134.89 35.1104 137.5 38.3333 137.5H131.667C134.89 137.5 137.5 134.89 137.5 131.667Z" fill="#184F85"/>
<path id="Vector_3" opacity="0.05" d="M39.7917 134.583C37.3796 134.583 35.4167 132.62 35.4167 130.208V127.292C35.4167 124.879 37.3796 122.917 39.7917 122.917H42.7083C45.1204 122.917 47.0833 124.879 47.0833 127.292V130.208C47.0833 132.62 45.1204 134.583 42.7083 134.583H39.7917Z" fill="black"/>
<path id="Vector_4" opacity="0.07" d="M39.7917 133.125C38.1846 133.125 36.875 131.815 36.875 130.208V127.292C36.875 125.685 38.1846 124.375 39.7917 124.375H42.7083C44.3154 124.375 45.625 125.685 45.625 127.292V130.208C45.625 131.815 44.3154 133.125 42.7083 133.125H39.7917Z" fill="black"/>
<path id="Vector_5" d="M42.7083 131.667H39.7917C38.9867 131.667 38.3333 131.013 38.3333 130.208V127.292C38.3333 126.487 38.9867 125.833 39.7917 125.833H42.7083C43.5133 125.833 44.1667 126.487 44.1667 127.292V130.208C44.1667 131.013 43.5133 131.667 42.7083 131.667Z" fill="white"/>
<path id="Vector_6" opacity="0.05" d="M45.625 58.75C43.2129 58.75 41.25 56.7871 41.25 54.375V45.625C41.25 43.2129 43.2129 41.25 45.625 41.25H54.375C56.7871 41.25 58.75 43.2129 58.75 45.625V54.375C58.75 56.7871 56.7871 58.75 54.375 58.75H45.625Z" fill="black"/>
<path id="Vector_7" opacity="0.07" d="M45.625 57.2918C44.0179 57.2918 42.7083 55.9822 42.7083 54.3752V45.6252C42.7083 44.0181 44.0179 42.7085 45.625 42.7085H54.375C55.9821 42.7085 57.2917 44.0181 57.2917 45.6252V54.3752C57.2917 55.9822 55.9821 57.2918 54.375 57.2918H45.625Z" fill="black"/>
<path id="Vector_8" d="M54.375 55.8332H45.625C44.82 55.8332 44.1667 55.1798 44.1667 54.3748V45.6248C44.1667 44.8198 44.82 44.1665 45.625 44.1665H54.375C55.18 44.1665 55.8333 44.8198 55.8333 45.6248V54.3748C55.8333 55.1798 55.18 55.8332 54.375 55.8332Z" fill="white"/>
<path id="Vector_9" opacity="0.05" d="M45.625 82.0835C43.2129 82.0835 41.25 80.1206 41.25 77.7085V68.9585C41.25 66.5464 43.2129 64.5835 45.625 64.5835H54.375C56.7871 64.5835 58.75 66.5464 58.75 68.9585V77.7085C58.75 80.1206 56.7871 82.0835 54.375 82.0835H45.625Z" fill="black"/>
<path id="Vector_10" opacity="0.07" d="M45.625 80.6248C44.0179 80.6248 42.7083 79.3153 42.7083 77.7082V68.9582C42.7083 67.3511 44.0179 66.0415 45.625 66.0415H54.375C55.9821 66.0415 57.2917 67.3511 57.2917 68.9582V77.7082C57.2917 79.3153 55.9821 80.6248 54.375 80.6248H45.625Z" fill="black"/>
<path id="Vector_11" d="M54.375 79.1667H45.625C44.82 79.1667 44.1667 78.5133 44.1667 77.7083V68.9583C44.1667 68.1533 44.82 67.5 45.625 67.5H54.375C55.18 67.5 55.8333 68.1533 55.8333 68.9583V77.7083C55.8333 78.5133 55.18 79.1667 54.375 79.1667Z" fill="white"/>
<rect x="7.5" y="7.5" width="155" height="155" rx="12.5" stroke="#D5EAF6" stroke-width="15"/>
</g>
<defs>
<linearGradient id="paint0_linear_1_384" x1="85" y1="15" x2="85" y2="155" gradientUnits="userSpaceOnUse">
<stop stop-color="#199AE0"/>
<stop offset="0.472222" stop-color="#0D5176" stop-opacity="0.527778"/>
<stop offset="0.940972" stop-color="#12A6F7" stop-opacity="0.465278"/>
<stop offset="1" stop-opacity="0"/>
</linearGradient>
<radialGradient id="paint1_radial_1_384" cx="0" cy="0" r="1" gradientUnits="userSpaceOnUse" gradientTransform="translate(156.269 250.971) scale(215.602 271.219)">
<stop offset="0.323" stop-color="#23D9D6"/>
<stop offset="0.427" stop-color="#23D4D7"/>
<stop offset="0.542" stop-color="#21C7DC"/>
<stop offset="0.664" stop-color="#1FB0E2"/>
<stop offset="0.789" stop-color="#1C91EC"/>
<stop offset="0.917" stop-color="#1969F8"/>
<stop offset="0.944" stop-color="#1860FB"/>
</radialGradient>
</defs>
</svg>
