<svg width="170" height="170" viewBox="0 0 170 170" fill="none" xmlns="http://www.w3.org/2000/svg">
<g id="details-side-pane">
<rect x="7.5" y="7.5" width="155" height="155" rx="12.5" fill="white"/>
<rect x="7.5" y="7.5" width="155" height="155" rx="12.5" fill="url(#paint0_linear_1_396)" fill-opacity="0.2"/>
<path id="Vector" d="M26.6667 125.833V52.9168L85 47.0835L143.333 52.9168L102.5 131.667H32.5C29.2917 131.667 26.6667 129.042 26.6667 125.833Z" fill="#50E6FF"/>
<path id="Vector_2" d="M102.5 131.667H137.5C140.723 131.667 143.333 129.056 143.333 125.833V52.9165H102.5V131.667Z" fill="#199BE2"/>
<path id="Vector_3" d="M67.5 52.9165H61.6667V131.667H67.5V52.9165Z" fill="#35C1F1"/>
<path id="Vector_4" d="M143.333 44.1668V52.9168H26.6667V44.1668C26.6667 40.9585 29.2917 38.3335 32.5 38.3335H137.5C140.708 38.3335 143.333 40.9585 143.333 44.1668ZM134.583 71.8752V68.9585C134.583 68.1535 133.93 67.5002 133.125 67.5002H112.708C111.903 67.5002 111.25 68.1535 111.25 68.9585V71.8752C111.25 72.6802 111.903 73.3335 112.708 73.3335H133.125C133.93 73.3335 134.583 72.6802 134.583 71.8752ZM134.583 92.2918V89.3752C134.583 88.5702 133.93 87.9168 133.125 87.9168H112.708C111.903 87.9168 111.25 88.5702 111.25 89.3752V92.2918C111.25 93.0968 111.903 93.7502 112.708 93.7502H133.125C133.93 93.7502 134.583 93.0968 134.583 92.2918ZM134.583 112.708V109.792C134.583 108.987 133.93 108.333 133.125 108.333H112.708C111.903 108.333 111.25 108.987 111.25 109.792V112.708C111.25 113.513 111.903 114.167 112.708 114.167H133.125C133.93 114.167 134.583 113.513 134.583 112.708Z" fill="url(#paint1_linear_1_396)"/>
<rect x="7.5" y="7.5" width="155" height="155" rx="12.5" stroke="#D5EAF6" stroke-width="15"/>
</g>
<defs>
<linearGradient id="paint0_linear_1_396" x1="85" y1="15" x2="85" y2="155" gradientUnits="userSpaceOnUse">
<stop stop-color="#199AE0"/>
<stop offset="0.472222" stop-color="#0D5176" stop-opacity="0.527778"/>
<stop offset="0.940972" stop-color="#12A6F7" stop-opacity="0.465278"/>
<stop offset="1" stop-opacity="0"/>
</linearGradient>
<linearGradient id="paint1_linear_1_396" x1="24.7621" y1="55.8043" x2="138.638" y2="78.9568" gradientUnits="userSpaceOnUse">
<stop stop-color="#0077D2"/>
<stop offset="1" stop-color="#0B59A2"/>
</linearGradient>
</defs>
</svg>
