<svg width="170" height="170" viewBox="0 0 170 170" fill="none" xmlns="http://www.w3.org/2000/svg">
<g id="detective">
<rect x="7.5" y="7.5" width="155" height="155" rx="12.5" fill="white"/>
<rect x="7.5" y="7.5" width="155" height="155" rx="12.5" fill="url(#paint0_linear_1_401)" fill-opacity="0.2"/>
<path id="Vector" d="M119.95 109.64L109.637 119.953L132.591 142.908C133.16 143.476 134.085 143.476 134.653 142.908L142.902 134.659C143.47 134.091 143.47 133.166 142.902 132.597L119.95 109.64Z" fill="#199BE2"/>
<path id="Vector_2" d="M107.17 96.8564L96.8563 107.17L109.64 119.951L119.95 109.64L107.17 96.8564Z" fill="url(#paint1_radial_1_401)"/>
<path id="Vector_3" d="M73.3333 120C99.1066 120 120 99.1065 120 73.3332C120 47.5599 99.1066 26.6665 73.3333 26.6665C47.56 26.6665 26.6667 47.5599 26.6667 73.3332C26.6667 99.1065 47.56 120 73.3333 120Z" fill="url(#paint2_linear_1_401)"/>
<path id="Vector_4" d="M73.3333 99.5835C87.8308 99.5835 99.5833 87.831 99.5833 73.3335C99.5833 58.836 87.8308 47.0835 73.3333 47.0835C58.8359 47.0835 47.0833 58.836 47.0833 73.3335C47.0833 87.831 58.8359 99.5835 73.3333 99.5835Z" fill="url(#paint3_linear_1_401)"/>
<path id="Vector_5" d="M73.3333 84.9998C79.7767 84.9998 85 79.7765 85 73.3332C85 66.8898 79.7767 61.6665 73.3333 61.6665C66.89 61.6665 61.6667 66.8898 61.6667 73.3332C61.6667 79.7765 66.89 84.9998 73.3333 84.9998Z" fill="url(#paint4_radial_1_401)"/>
<path id="Vector_6" d="M66.0417 70.4165C68.4579 70.4165 70.4167 68.4577 70.4167 66.0415C70.4167 63.6253 68.4579 61.6665 66.0417 61.6665C63.6254 61.6665 61.6667 63.6253 61.6667 66.0415C61.6667 68.4577 63.6254 70.4165 66.0417 70.4165Z" fill="white"/>
<rect x="7.5" y="7.5" width="155" height="155" rx="12.5" stroke="#D5EAF6" stroke-width="15"/>
</g>
<defs>
<linearGradient id="paint0_linear_1_401" x1="85" y1="15" x2="85" y2="155" gradientUnits="userSpaceOnUse">
<stop stop-color="#199AE0"/>
<stop offset="0.472222" stop-color="#0D5176" stop-opacity="0.527778"/>
<stop offset="0.940972" stop-color="#12A6F7" stop-opacity="0.465278"/>
<stop offset="1" stop-opacity="0"/>
</linearGradient>
<radialGradient id="paint1_radial_1_401" cx="0" cy="0" r="1" gradientUnits="userSpaceOnUse" gradientTransform="translate(73.4033 73.6135) scale(57.1783)">
<stop offset="0.693" stop-color="#006185"/>
<stop offset="0.921" stop-color="#35C1F1"/>
</radialGradient>
<linearGradient id="paint2_linear_1_401" x1="40.9904" y1="40.9903" x2="106.405" y2="106.405" gradientUnits="userSpaceOnUse">
<stop stop-color="#A3FFFF"/>
<stop offset="0.223" stop-color="#9DFBFF"/>
<stop offset="0.53" stop-color="#8BF1FF"/>
<stop offset="0.885" stop-color="#6EE0FF"/>
<stop offset="1" stop-color="#63DAFF"/>
</linearGradient>
<linearGradient id="paint3_linear_1_401" x1="56.6237" y1="56.6239" x2="90.5154" y2="90.5156" gradientUnits="userSpaceOnUse">
<stop stop-color="#32BDEF"/>
<stop offset="1" stop-color="#32BDEF"/>
</linearGradient>
<radialGradient id="paint4_radial_1_401" cx="0" cy="0" r="1" gradientUnits="userSpaceOnUse" gradientTransform="translate(66.4587 56.2648) scale(30.2808)">
<stop stop-color="#4B4B4B"/>
<stop offset="0.531" stop-color="#393939"/>
<stop offset="1" stop-color="#252525"/>
</radialGradient>
</defs>
</svg>
