<svg width="170" height="170" viewBox="0 0 170 170" fill="none" xmlns="http://www.w3.org/2000/svg">
<g id="docker-container">
<g clip-path="url(#clip0_1_408)">
<rect x="15" y="15" width="140" height="140" rx="5" fill="white"/>
<rect x="15" y="15" width="140" height="140" rx="5" fill="url(#paint0_linear_1_408)" fill-opacity="0.2"/>
<path id="Vector" d="M143.625 128.75H26.375C19.9583 128.75 15 123.792 15 117.667V52.3333C15 46.2083 19.9583 41.25 26.375 41.25H143.917C150.042 41.25 155.292 46.2083 155.292 52.3333V117.667C155 123.792 150.042 128.75 143.625 128.75Z" fill="url(#paint1_linear_1_408)"/>
<path id="Vector_2" d="M80.3333 111.25C78.875 110.667 71.875 109.5 70.4167 99.5835C63.4167 102.792 57 101.917 54.0833 101.333C57.875 106.875 64.5833 111.542 77.125 111.542C78.2917 111.25 79.1667 111.25 80.3333 111.25Z" fill="#0F94BF"/>
<path id="Vector_3" d="M69.8333 99.5835C65.75 101.042 58.75 101.333 54.375 101.333C55.25 102.5 56.125 103.667 57.2917 104.542C60.7917 104.542 65.75 104.25 71.2917 102.792C72.1667 102.5 72.4583 101.333 72.1667 100.458C71.5833 99.5835 70.7083 99.2918 69.8333 99.5835ZM77.125 94.3335C75.375 94.3335 73.625 95.7918 73.625 97.8335C73.625 99.5835 75.0833 101.333 77.125 101.333C79.1667 101.333 80.625 99.8752 80.625 97.8335C80.625 95.7918 79.1667 94.3335 77.125 94.3335Z" fill="#0F94BF"/>
<path id="Vector_4" d="M77.125 96.0835C76.25 96.0835 75.375 96.9585 75.375 97.8335C75.375 98.7085 76.25 99.5835 77.125 99.5835C78 99.5835 78.875 98.7085 78.875 97.8335C78.875 96.6668 78 96.0835 77.125 96.0835ZM80.3333 111.25C78.875 110.667 71.875 109.5 70.4167 99.5835C63.4167 102.792 57 101.917 54.0833 101.333C57.875 106.875 64.5833 111.542 77.125 111.542C78.2917 111.25 79.1667 111.25 80.3333 111.25Z" fill="#0F94BF"/>
<path id="Vector_5" d="M69.8333 99.5835C65.75 101.042 58.75 101.333 54.375 101.333C55.25 102.5 56.125 103.667 57.2917 104.542C60.7917 104.542 65.75 104.25 71.2917 102.792C72.1667 102.5 72.4583 101.333 72.1667 100.458C71.5833 99.5835 70.7083 99.2918 69.8333 99.5835ZM77.125 94.3335C75.375 94.3335 73.625 95.7918 73.625 97.8335C73.625 99.5835 75.0833 101.333 77.125 101.333C79.1667 101.333 80.625 99.8752 80.625 97.8335C80.625 95.7918 79.1667 94.3335 77.125 94.3335Z" fill="#0F94BF"/>
<path id="Vector_6" d="M77.125 96.0835C76.25 96.0835 75.375 96.9585 75.375 97.8335C75.375 98.7085 76.25 99.5835 77.125 99.5835C78 99.5835 78.875 98.7085 78.875 97.8335C78.875 96.6668 78 96.0835 77.125 96.0835Z" fill="#0F94BF"/>
<path id="Vector_7" d="M50.875 93.75C52.9167 101.333 58.75 111.25 77.4167 111.25C95.2083 111.25 104.542 101.625 109.208 93.75H50.875Z" fill="#0F94BF"/>
<path id="Vector_8" d="M120 76.25C117.375 76.25 115.333 77.125 114.167 78C114.167 74.7917 113.583 71.2917 109.5 67.5C106.292 70.4167 105.417 73.0417 105.417 75.6667C105.417 78.2917 106.875 80.9167 108.333 82.375C108.333 82.375 106.292 85 99.5833 85V76.25H90.8333V58.75H82.0833V67.5H64.5833V76.25H55.8333V85C52.3333 85 50 85 50 85C50 85 49.7083 87.3333 50.2917 90.5417C52.0417 90.25 53.2083 89.375 54.375 87.9167C55.8333 89.6667 57.2917 90.8333 60.2083 90.8333C63.125 90.8333 64.5833 89.6667 66.0417 87.9167C67.5 89.6667 68.9583 90.8333 71.875 90.8333C74.7917 90.8333 76.25 89.6667 77.7083 87.9167C79.1667 89.6667 80.625 90.8333 83.5417 90.8333C86.4583 90.8333 87.9167 89.6667 89.375 87.9167C90.8333 89.6667 92.2917 90.8333 95.2083 90.8333C98.125 90.8333 99.5833 89.6667 101.042 87.9167C102.5 89.6667 103.958 90.8333 106.875 90.8333C108.625 90.8333 110.083 90.25 110.958 89.6667C111.833 87.625 112.417 85.875 112.708 85C113.292 85 113.875 85 114.75 85C118.25 85 124.083 84.7083 125.833 77.4167C123.792 76.5417 121.75 76.25 120 76.25Z" fill="#0F94BF"/>
<path id="Vector_9" d="M112.708 93.7498H120V90.5415C119.417 90.5415 119.125 90.8332 118.542 90.8332C115.625 90.8332 114.167 89.6665 112.708 87.9165C112.125 88.4998 111.542 89.0832 110.958 89.6665C110.375 90.8332 109.792 92.2915 108.917 93.7498H112.708Z" fill="#0F94BF"/>
</g>
<rect x="7.5" y="7.5" width="155" height="155" rx="12.5" stroke="#D5EAF6" stroke-width="15"/>
</g>
<defs>
<linearGradient id="paint0_linear_1_408" x1="85" y1="15" x2="85" y2="155" gradientUnits="userSpaceOnUse">
<stop stop-color="#199AE0"/>
<stop offset="0.472222" stop-color="#0D5176" stop-opacity="0.527778"/>
<stop offset="0.940972" stop-color="#12A6F7" stop-opacity="0.465278"/>
<stop offset="1" stop-opacity="0"/>
</linearGradient>
<linearGradient id="paint1_linear_1_408" x1="18.7858" y1="40.0104" x2="141.904" y2="123.663" gradientUnits="userSpaceOnUse">
<stop stop-color="#7DD8F3"/>
<stop offset="1" stop-color="#45B0D0"/>
</linearGradient>
<clipPath id="clip0_1_408">
<rect x="15" y="15" width="140" height="140" rx="5" fill="white"/>
</clipPath>
</defs>
</svg>
