<svg width="50" height="50" viewBox="0 0 50 50" fill="none" xmlns="http://www.w3.org/2000/svg">
<path d="M25.4312 10.8478L22.7896 8.20609C22.2042 7.62067 21.4094 7.2915 20.5802 7.2915H5.20833C4.05729 7.2915 3.125 8.2238 3.125 9.37484V40.6248C3.125 41.7759 4.05729 42.7082 5.20833 42.7082H44.7917C45.9427 42.7082 46.875 41.7759 46.875 40.6248V13.5415C46.875 12.3905 45.9427 11.4582 44.7917 11.4582H26.9042C26.3521 11.4582 25.8219 11.2384 25.4312 10.8478Z" fill="url(#paint0_linear_46_5472)"/>
<path d="M22.4854 15.0147L25.8896 11.6106C25.9865 11.5137 26.1187 11.4585 26.2573 11.4585H44.7917C45.9427 11.4585 46.875 12.3908 46.875 13.5418V40.6252C46.875 41.7762 45.9427 42.7085 44.7917 42.7085H5.20833C4.05729 42.7085 3.125 41.7762 3.125 40.6252V16.146C3.125 15.8585 3.35833 15.6252 3.64583 15.6252H21.0125C21.5646 15.6252 22.0948 15.4054 22.4854 15.0147Z" fill="url(#paint1_linear_46_5472)"/>
<path opacity="0.05" d="M27.2542 19.271H19.5313C17.9511 19.271 16.6667 20.5554 16.6667 22.1356V36.7189C16.6667 38.2991 17.9511 39.5835 19.5313 39.5835H30.4688C32.049 39.5835 33.3334 38.2991 33.3334 36.7189V25.3502L27.2542 19.271Z" fill="black"/>
<path opacity="0.07" d="M27.0385 19.7915H19.5312C18.2396 19.7915 17.1875 20.8425 17.1875 22.1353V36.7186C17.1875 38.0113 18.2396 39.0623 19.5312 39.0623H30.4687C31.7604 39.0623 32.8125 38.0113 32.8125 36.7186V25.5655L27.0385 19.7915Z" fill="black"/>
<path d="M31.1753 25.5813V38.2378C31.1753 38.7972 30.7224 39.2505 30.1626 39.2505H18.0125C17.4531 39.2505 17 38.7972 17 38.2378V22.0375C17 21.4781 17.4531 21.025 18.0125 21.025H26.6191L31.1753 25.5813Z" fill="#199BE2"/>
<path d="M18.0125 21.025H26.6187L31.1753 25.5813V38.2378H19.876C18.8468 38.2378 18.0125 37.4037 18.0125 36.3742L18.0125 21.025Z" fill="white"/>
<path d="M18.5188 21.025H26.6191L31.1753 25.5813V37.7315H19.9561C19.1623 37.7315 18.5188 37.0882 18.5188 36.2942V21.025Z" fill="white"/>
<path d="M33.2001 24.0626V36.2129C33.2001 36.7723 32.7473 37.2252 32.1879 37.2252H20.0376C19.4781 37.2252 19.025 36.7723 19.025 36.2129V20.0125C19.025 19.4531 19.4781 19 20.0376 19H28.1377L33.2001 24.0626Z" fill="#50E6FF"/>
<path d="M28.1377 19V23.05C28.1377 23.6095 28.591 24.0626 29.1504 24.0626H33.2001L28.1377 19Z" fill="url(#paint2_linear_46_5472)"/>
<path d="M29.8171 27.573H22.223C22.0833 27.573 21.9699 27.4595 21.9699 27.3199V26.8135C21.9699 26.6739 22.0833 26.5604 22.223 26.5604H29.8171C29.9567 26.5604 30.0702 26.6739 30.0702 26.8135V27.3199C30.0702 27.4595 29.9567 27.573 29.8171 27.573Z" fill="#057093"/>
<path d="M29.8171 29.5979H22.223C22.0833 29.5979 21.9699 29.4848 21.9699 29.3448V28.8384C21.9699 28.6988 22.0833 28.5857 22.223 28.5857H29.8171C29.9567 28.5857 30.0702 28.6988 30.0702 28.8384V29.3448C30.0702 29.4848 29.9567 29.5979 29.8171 29.5979Z" fill="#057093"/>
<path d="M29.8171 31.6228H22.223C22.0833 31.6228 21.9699 31.5097 21.9699 31.3701V30.8637C21.9699 30.7237 22.0833 30.6106 22.223 30.6106H29.8171C29.9567 30.6106 30.0702 30.7237 30.0702 30.8637V31.3701C30.0702 31.5097 29.9567 31.6228 29.8171 31.6228Z" fill="#057093"/>
<path d="M27.7917 33.6481H22.223C22.0833 33.6481 21.9699 33.5346 21.9699 33.395V32.8886C21.9699 32.749 22.0833 32.6355 22.223 32.6355H27.7917C27.9318 32.6355 28.0449 32.749 28.0449 32.8886V33.395C28.0449 33.5346 27.9318 33.6481 27.7917 33.6481Z" fill="#057093"/>
<defs>
<linearGradient id="paint0_linear_46_5472" x1="25" y1="6.98734" x2="25" y2="15.6009" gradientUnits="userSpaceOnUse">
<stop stop-color="#EBA600"/>
<stop offset="1" stop-color="#C28200"/>
</linearGradient>
<linearGradient id="paint1_linear_46_5472" x1="25" y1="11.3064" x2="25" y2="42.6908" gradientUnits="userSpaceOnUse">
<stop stop-color="#FFD869"/>
<stop offset="1" stop-color="#FEC52B"/>
</linearGradient>
<linearGradient id="paint2_linear_46_5472" x1="17.8653" y1="38.1691" x2="26.8659" y2="30.968" gradientUnits="userSpaceOnUse">
<stop stop-color="#3079D6"/>
<stop offset="1" stop-color="#297CD2"/>
</linearGradient>
</defs>
</svg>
