<svg width="170" height="170" viewBox="0 0 170 170" fill="none" xmlns="http://www.w3.org/2000/svg">
<g id="download">
<rect x="7.5" y="7.5" width="155" height="155" rx="12.5" fill="white"/>
<rect x="7.5" y="7.5" width="155" height="155" rx="12.5" fill="url(#paint0_linear_1_418)" fill-opacity="0.2"/>
<path id="Vector" d="M105.971 79.1668H93.75V32.5002C93.75 30.8902 92.4433 29.5835 90.8333 29.5835H79.1667C77.5567 29.5835 76.25 30.8902 76.25 32.5002V79.1668H64.0292C61.9292 79.1668 60.8792 81.7043 62.3638 83.1889L81.9083 102.733C83.6175 104.443 86.3883 104.443 88.0946 102.733L107.639 83.1889C109.124 81.7043 108.071 79.1668 105.971 79.1668Z" fill="url(#paint1_linear_1_418)"/>
<path id="Vector_2" d="M128.75 111.25V140.417L142.832 126.335C145.019 124.148 146.25 121.179 146.25 118.087V111.25C146.25 109.64 144.943 108.333 143.333 108.333H131.667C130.057 108.333 128.75 109.64 128.75 111.25Z" fill="url(#paint2_linear_1_418)"/>
<path id="Vector_3" d="M128.75 122.917H41.25V140.417H128.75V122.917Z" fill="url(#paint3_linear_1_418)"/>
<path id="Vector_4" d="M41.25 111.25V140.417L27.1683 126.335C24.9779 124.145 23.75 121.178 23.75 118.084V111.25C23.75 109.64 25.0567 108.333 26.6667 108.333H38.3333C39.9433 108.333 41.25 109.64 41.25 111.25Z" fill="url(#paint4_linear_1_418)"/>
<rect x="7.5" y="7.5" width="155" height="155" rx="12.5" stroke="#D5EAF6" stroke-width="15"/>
</g>
<defs>
<linearGradient id="paint0_linear_1_418" x1="85" y1="15" x2="85" y2="155" gradientUnits="userSpaceOnUse">
<stop stop-color="#199AE0"/>
<stop offset="0.472222" stop-color="#0D5176" stop-opacity="0.527778"/>
<stop offset="0.940972" stop-color="#12A6F7" stop-opacity="0.465278"/>
<stop offset="1" stop-opacity="0"/>
</linearGradient>
<linearGradient id="paint1_linear_1_418" x1="65.5575" y1="28.7231" x2="101.018" y2="111.113" gradientUnits="userSpaceOnUse">
<stop stop-color="#32BDEF"/>
<stop offset="1" stop-color="#1EA2E4"/>
</linearGradient>
<linearGradient id="paint2_linear_1_418" x1="130.97" y1="107.079" x2="142.181" y2="138.848" gradientUnits="userSpaceOnUse">
<stop stop-color="#32BDEF"/>
<stop offset="1" stop-color="#1EA2E4"/>
</linearGradient>
<linearGradient id="paint3_linear_1_418" x1="41.25" y1="131.667" x2="128.75" y2="131.667" gradientUnits="userSpaceOnUse">
<stop stop-color="#0362B0"/>
<stop offset="0.112" stop-color="#036ABD"/>
<stop offset="0.258" stop-color="#036FC5"/>
<stop offset="0.5" stop-color="#0370C8"/>
<stop offset="0.742" stop-color="#036FC5"/>
<stop offset="0.888" stop-color="#036ABD"/>
<stop offset="1" stop-color="#0362B0"/>
</linearGradient>
<linearGradient id="paint4_linear_1_418" x1="39.0304" y1="107.079" x2="27.8187" y2="138.848" gradientUnits="userSpaceOnUse">
<stop stop-color="#32BDEF"/>
<stop offset="1" stop-color="#1EA2E4"/>
</linearGradient>
</defs>
</svg>
