<svg width="170" height="170" viewBox="0 0 170 170" fill="none" xmlns="http://www.w3.org/2000/svg">
<g id="download-from-the-cloud">
<g clip-path="url(#clip0_1_431)">
<rect x="15" y="15" width="140" height="140" rx="5" fill="white"/>
<rect x="15" y="15" width="140" height="140" rx="5" fill="url(#paint0_linear_1_431)" fill-opacity="0.2"/>
<path id="Vector" d="M155 90.8332C155 110.171 139.337 125.833 120 125.833C114.75 125.833 48.075 125.833 42.7083 125.833C27.3958 125.833 15 113.437 15 98.1248C15 84.8832 24.275 73.7998 36.7292 71.0582C41.6875 50.6123 60.0917 35.4165 82.0833 35.4165C98.1542 35.4165 112.3 43.5248 120.7 55.8623C139.717 56.2123 155 71.729 155 90.8332Z" fill="url(#paint1_linear_1_431)"/>
<path id="Vector_2" opacity="0.05" d="M93.75 87.9165V67.4998C93.75 64.2769 91.1396 61.6665 87.9167 61.6665H82.0833C78.8604 61.6665 76.25 64.2769 76.25 67.4998V87.9165H68.5267C64.63 87.9165 62.6758 92.6298 65.4321 95.3861L80.8758 110.83C83.1538 113.108 86.8462 113.108 89.1242 110.83L104.568 95.3861C107.324 92.6298 105.373 87.9165 101.473 87.9165H93.75Z" fill="black"/>
<path id="Vector_3" opacity="0.07" d="M92.2917 89.375V67.5C92.2917 65.085 90.3317 63.125 87.9167 63.125H82.0833C79.6683 63.125 77.7083 65.085 77.7083 67.5V89.375H68.8971C66.1612 89.375 64.7904 92.6825 66.7242 94.6192L81.6838 109.582C83.5125 111.41 86.4788 111.41 88.3075 109.582L103.267 94.6192C105.201 92.6854 103.833 89.375 101.094 89.375H92.2917V89.375Z" fill="black"/>
<path id="Vector_4" d="M100.73 90.8335H90.8333V67.5002C90.8333 65.8902 89.5267 64.5835 87.9167 64.5835H82.0833C80.4733 64.5835 79.1667 65.8902 79.1667 67.5002V90.8335H69.2704C67.6954 90.8335 66.9079 92.7381 68.0221 93.8493L82.5004 108.328C83.88 109.707 86.12 109.707 87.4996 108.328L101.978 93.8493C103.092 92.7381 102.305 90.8335 100.73 90.8335Z" fill="white"/>
</g>
<rect x="7.5" y="7.5" width="155" height="155" rx="12.5" stroke="#D5EAF6" stroke-width="15"/>
</g>
<defs>
<linearGradient id="paint0_linear_1_431" x1="85" y1="15" x2="85" y2="155" gradientUnits="userSpaceOnUse">
<stop stop-color="#199AE0"/>
<stop offset="0.472222" stop-color="#0D5176" stop-opacity="0.527778"/>
<stop offset="0.940972" stop-color="#12A6F7" stop-opacity="0.465278"/>
<stop offset="1" stop-opacity="0"/>
</linearGradient>
<linearGradient id="paint1_linear_1_431" x1="56.5392" y1="39.3773" x2="103.002" y2="127.86" gradientUnits="userSpaceOnUse">
<stop stop-color="#2AA4F4"/>
<stop offset="1" stop-color="#007AD9"/>
</linearGradient>
<clipPath id="clip0_1_431">
<rect x="15" y="15" width="140" height="140" rx="5" fill="white"/>
</clipPath>
</defs>
</svg>
