<svg width="170" height="170" viewBox="0 0 170 170" fill="none" xmlns="http://www.w3.org/2000/svg">
<g id="drag-and-drop">
<rect x="7.5" y="7.5" width="155" height="155" rx="12.5" fill="white"/>
<rect x="7.5" y="7.5" width="155" height="155" rx="12.5" fill="url(#paint0_linear_1_521)" fill-opacity="0.2"/>
<path id="Vector" d="M102.5 102.5H32.5C27.6671 102.5 23.75 98.5829 23.75 93.75V41.25C23.75 36.4171 27.6671 32.5 32.5 32.5H102.5C107.333 32.5 111.25 36.4171 111.25 41.25V93.75C111.25 98.5829 107.333 102.5 102.5 102.5Z" fill="url(#paint1_linear_1_521)"/>
<path id="Vector_2" d="M137.792 137.5H70.125C65.4525 137.5 61.6667 133.746 61.6667 129.114V78.8019C61.6667 74.1703 65.4525 70.4165 70.125 70.4165H137.792C142.464 70.4165 146.25 74.1703 146.25 78.8019V129.114C146.25 133.746 142.464 137.5 137.792 137.5Z" fill="#50E6FF"/>
<path id="Vector_3" d="M79.1667 33.9583V36.875C79.1667 37.68 79.82 38.3333 80.625 38.3333H89.375C90.18 38.3333 90.8333 37.68 90.8333 36.875V33.9583C90.8333 33.1533 90.18 32.5 89.375 32.5H80.625C79.82 32.5 79.1667 33.1533 79.1667 33.9583Z" fill="#199BE2"/>
<path id="Vector_4" d="M63.125 38.3333H71.875C72.68 38.3333 73.3333 37.68 73.3333 36.875V33.9583C73.3333 33.1533 72.68 32.5 71.875 32.5H63.125C62.32 32.5 61.6667 33.1533 61.6667 33.9583V36.875C61.6667 37.68 62.32 38.3333 63.125 38.3333Z" fill="#199BE2"/>
<path id="Vector_5" d="M45.625 38.3333H54.375C55.18 38.3333 55.8333 37.68 55.8333 36.875V33.9583C55.8333 33.1533 55.18 32.5 54.375 32.5H45.625C44.82 32.5 44.1667 33.1533 44.1667 33.9583V36.875C44.1667 37.68 44.82 38.3333 45.625 38.3333Z" fill="#199BE2"/>
<path id="Vector_6" d="M25.2083 64.5832H28.125C28.93 64.5832 29.5833 63.9298 29.5833 63.1248V54.3748C29.5833 53.5698 28.93 52.9165 28.125 52.9165H25.2083C24.4033 52.9165 23.75 53.5698 23.75 54.3748V63.1248C23.75 63.9298 24.4033 64.5832 25.2083 64.5832Z" fill="#199BE2"/>
<path id="Vector_7" d="M98.125 38.3333H105.417V45.625C105.417 46.43 106.07 47.0833 106.875 47.0833H109.792C110.597 47.0833 111.25 46.43 111.25 45.625V38.3333C111.25 35.1104 108.64 32.5 105.417 32.5H98.125C97.32 32.5 96.6667 33.1533 96.6667 33.9583V36.875C96.6667 37.68 97.32 38.3333 98.125 38.3333Z" fill="#199BE2"/>
<path id="Vector_8" d="M29.5833 80.6248V71.8748C29.5833 71.0698 28.93 70.4165 28.125 70.4165H25.2083C24.4033 70.4165 23.75 71.0698 23.75 71.8748V80.6248C23.75 81.4298 24.4033 82.0832 25.2083 82.0832H28.125C28.93 82.0832 29.5833 81.4298 29.5833 80.6248Z" fill="#199BE2"/>
<path id="Vector_9" d="M29.5833 45.625V38.3333H36.875C37.68 38.3333 38.3333 37.68 38.3333 36.875V33.9583C38.3333 33.1533 37.68 32.5 36.875 32.5H29.5833C26.3604 32.5 23.75 35.1104 23.75 38.3333V45.625C23.75 46.43 24.4033 47.0833 25.2083 47.0833H28.125C28.93 47.0833 29.5833 46.43 29.5833 45.625Z" fill="#199BE2"/>
<path id="Vector_10" d="M105.417 54.3748V63.1248C105.417 63.9298 106.07 64.5832 106.875 64.5832H109.792C110.597 64.5832 111.25 63.9298 111.25 63.1248V54.3748C111.25 53.5698 110.597 52.9165 109.792 52.9165H106.875C106.07 52.9165 105.417 53.5698 105.417 54.3748Z" fill="#199BE2"/>
<path id="Vector_11" d="M44.1667 98.1248V101.042C44.1667 101.847 44.82 102.5 45.625 102.5H54.375C55.18 102.5 55.8333 101.847 55.8333 101.042V98.1248C55.8333 97.3198 55.18 96.6665 54.375 96.6665H45.625C44.82 96.6665 44.1667 97.3198 44.1667 98.1248Z" fill="#199BE2"/>
<path id="Vector_12" d="M28.125 87.9165H25.2083C24.4033 87.9165 23.75 88.5698 23.75 89.3748V96.6665C23.75 99.8894 26.3604 102.5 29.5833 102.5H36.875C37.68 102.5 38.3333 101.847 38.3333 101.042V98.1248C38.3333 97.3198 37.68 96.6665 36.875 96.6665H29.5833V89.3748C29.5833 88.5698 28.93 87.9165 28.125 87.9165Z" fill="#199BE2"/>
<path id="Vector_13" opacity="0.05" d="M109.299 128.75C107.68 128.75 106.222 127.793 105.583 126.309L102.127 118.358L97.5125 122.205C96.7717 122.818 95.8529 123.15 94.9108 123.15C92.6621 123.15 90.8333 121.324 90.8333 119.078V86.1318C90.8333 84.5131 91.7929 83.0547 93.2804 82.4189C93.7763 82.1972 94.3217 82.0835 94.8904 82.0835C95.9638 82.0835 96.9758 82.5064 97.7429 83.2706L120.77 106.298C121.902 107.423 122.266 109.057 121.718 110.565C121.175 112.07 119.845 113.091 118.25 113.228L113.58 113.648L116.943 121.383C117.369 122.38 117.387 123.477 116.993 124.483C116.599 125.486 115.835 126.277 114.84 126.711L110.915 128.418C110.41 128.636 109.862 128.75 109.299 128.75Z" fill="black"/>
<path id="Vector_14" opacity="0.07" d="M109.299 127.292C108.266 127.292 107.33 126.679 106.922 125.731L102.69 115.992L96.5792 121.088C96.1038 121.482 95.5146 121.694 94.9138 121.694C93.47 121.694 92.2946 120.522 92.2946 119.081V86.1315C92.2946 85.099 92.9071 84.1657 93.8579 83.7603C94.1788 83.6174 94.5288 83.5444 94.8904 83.5444C95.5729 83.5444 96.2204 83.8157 96.7104 84.3057L119.738 107.333C120.464 108.056 120.697 109.103 120.347 110.069C120 111.034 119.145 111.69 118.122 111.778L111.434 112.379L115.605 121.966C115.879 122.602 115.89 123.304 115.637 123.949C115.383 124.594 114.893 125.098 114.257 125.372L110.331 127.079C110.002 127.222 109.655 127.292 109.299 127.292Z" fill="black"/>
<path id="Vector_15" d="M118.705 108.36L95.6779 85.3326C95.3162 84.9709 94.8262 84.9242 94.4296 85.0963C94.0475 85.2626 93.75 85.6359 93.75 86.1317V119.081C93.75 120.058 94.8904 120.592 95.6429 119.968L103.25 113.624L108.26 125.154C108.508 125.725 109.176 125.988 109.748 125.74L113.677 124.031C114.248 123.783 114.511 123.115 114.263 122.543L109.29 111.101L117.993 110.323C118.968 110.235 119.399 109.051 118.705 108.36Z" fill="white"/>
<rect x="7.5" y="7.5" width="155" height="155" rx="12.5" stroke="#D5EAF6" stroke-width="15"/>
</g>
<defs>
<linearGradient id="paint0_linear_1_521" x1="85" y1="15" x2="85" y2="155" gradientUnits="userSpaceOnUse">
<stop stop-color="#199AE0"/>
<stop offset="0.472222" stop-color="#0D5176" stop-opacity="0.527778"/>
<stop offset="0.940972" stop-color="#12A6F7" stop-opacity="0.465278"/>
<stop offset="1" stop-opacity="0"/>
</linearGradient>
<linearGradient id="paint1_linear_1_521" x1="46.9579" y1="39.9988" x2="89.4567" y2="96.8942" gradientUnits="userSpaceOnUse">
<stop stop-color="#0D61A9"/>
<stop offset="1" stop-color="#16528C"/>
</linearGradient>
</defs>
</svg>
