<svg width="170" height="170" viewBox="0 0 170 170" fill="none" xmlns="http://www.w3.org/2000/svg">
<g id="dropdown-field">
<rect x="7.5" y="7.5" width="155" height="155" rx="12.5" fill="white"/>
<rect x="7.5" y="7.5" width="155" height="155" rx="12.5" fill="url(#paint0_linear_1_423)" fill-opacity="0.2"/>
<path id="Vector" d="M26.6667 61.6668V108.333C26.6667 111.556 29.2771 114.167 32.5 114.167H137.5C140.723 114.167 143.333 111.556 143.333 108.333V61.6668C143.333 58.4439 140.723 55.8335 137.5 55.8335H32.5C29.2771 55.8335 26.6667 58.4439 26.6667 61.6668Z" fill="#50E6FF"/>
<path id="Vector_2" opacity="0.05" d="M109.5 105.417C104.031 105.417 99.5833 100.969 99.5833 95.5002V74.5002C99.5833 69.0314 104.031 64.5835 109.5 64.5835H130.5C135.969 64.5835 140.417 69.0314 140.417 74.5002V95.5002C140.417 100.969 135.969 105.417 130.5 105.417H109.5Z" fill="black"/>
<path id="Vector_3" opacity="0.07" d="M109.5 103.958C104.833 103.958 101.042 100.164 101.042 95.4998V74.4998C101.042 69.8361 104.836 66.0415 109.5 66.0415H130.5C135.167 66.0415 138.958 69.8361 138.958 74.4998V95.4998C138.958 100.164 135.164 103.958 130.5 103.958H109.5Z" fill="black"/>
<path id="Vector_4" d="M109.5 102.5H130.5C134.365 102.5 137.5 99.3646 137.5 95.5V74.5C137.5 70.6354 134.365 67.5 130.5 67.5H109.5C105.635 67.5 102.5 70.6354 102.5 74.5V95.5C102.5 99.3646 105.635 102.5 109.5 102.5Z" fill="url(#paint1_linear_1_423)"/>
<path id="Vector_5" opacity="0.05" d="M120 93.75C118.676 93.75 117.439 93.2017 116.52 92.21L109.71 84.8746C108.307 83.3579 107.94 81.1354 108.78 79.2104C109.579 77.3846 111.268 76.25 113.19 76.25H126.81C128.733 76.25 130.421 77.3846 131.223 79.2075C132.063 81.1383 131.696 83.3579 130.293 84.8717L123.48 92.2129C122.558 93.2046 121.324 93.75 120 93.75Z" fill="black"/>
<path id="Vector_6" opacity="0.07" d="M120 92.2918C119.087 92.2918 118.232 91.9126 117.591 91.2185L110.778 83.8801C109.765 82.7893 109.506 81.1852 110.113 79.791C110.675 78.5047 111.854 77.7056 113.19 77.7056H126.81C128.146 77.7056 129.322 78.5047 129.887 79.791C130.494 81.1852 130.235 82.7893 129.222 83.8772L122.409 91.2185C121.768 91.9126 120.913 92.2918 120 92.2918Z" fill="black"/>
<path id="Vector_7" d="M126.81 79.1665H113.187C111.445 79.1665 110.591 81.5378 111.845 82.8882L118.655 90.2265C119.405 91.0344 120.589 91.0344 121.339 90.2265L128.149 82.8882C129.406 81.5378 128.552 79.1665 126.81 79.1665Z" fill="url(#paint2_linear_1_423)"/>
<rect x="7.5" y="7.5" width="155" height="155" rx="12.5" stroke="#D5EAF6" stroke-width="15"/>
</g>
<defs>
<linearGradient id="paint0_linear_1_423" x1="85" y1="15" x2="85" y2="155" gradientUnits="userSpaceOnUse">
<stop stop-color="#199AE0"/>
<stop offset="0.472222" stop-color="#0D5176" stop-opacity="0.527778"/>
<stop offset="0.940972" stop-color="#12A6F7" stop-opacity="0.465278"/>
<stop offset="1" stop-opacity="0"/>
</linearGradient>
<linearGradient id="paint1_linear_1_423" x1="103.468" y1="68.4683" x2="137.867" y2="102.865" gradientUnits="userSpaceOnUse">
<stop stop-color="#0077D2"/>
<stop offset="1" stop-color="#0B59A2"/>
</linearGradient>
<linearGradient id="paint2_linear_1_423" x1="111.25" y1="84.9998" x2="128.75" y2="84.9998" gradientUnits="userSpaceOnUse">
<stop stop-color="#7DD8F3"/>
<stop offset="1" stop-color="#45B0D0"/>
</linearGradient>
</defs>
</svg>
