<svg width="170" height="170" viewBox="0 0 170 170" fill="none" xmlns="http://www.w3.org/2000/svg">
<g id="e-magazine">
<rect x="7.5" y="7.5" width="155" height="155" rx="12.5" fill="white"/>
<rect x="7.5" y="7.5" width="155" height="155" rx="12.5" fill="url(#paint0_linear_1_500)" fill-opacity="0.2"/>
<path id="Vector" d="M47.0833 26.667H122.917C124.464 26.667 125.948 27.2816 127.041 28.3755C128.135 29.4695 128.75 30.9532 128.75 32.5003V131.667H41.25V32.5003C41.25 30.9532 41.8646 29.4695 42.9585 28.3755C44.0525 27.2816 45.5362 26.667 47.0833 26.667Z" fill="url(#paint1_linear_1_500)"/>
<path id="Vector_2" d="M128.75 125.833H41.25V137.5C41.2498 138.266 41.4005 139.024 41.6936 139.732C41.9867 140.44 42.4164 141.083 42.9581 141.625C43.4998 142.167 44.1429 142.596 44.8508 142.889C45.5586 143.182 46.3172 143.333 47.0833 143.333H122.917C123.683 143.333 124.441 143.182 125.149 142.889C125.857 142.596 126.5 142.167 127.042 141.625C127.584 141.083 128.013 140.44 128.306 139.732C128.599 139.024 128.75 138.266 128.75 137.5V125.833Z" fill="url(#paint2_linear_1_500)"/>
<path id="Vector_3" d="M115.625 96.6663H54.375C53.9883 96.6662 53.6174 96.5125 53.344 96.2391C53.0705 95.9656 52.9168 95.5947 52.9167 95.208V92.2913C52.9168 91.9046 53.0705 91.5338 53.344 91.2603C53.6174 90.9868 53.9883 90.8331 54.375 90.833H115.625C116.012 90.8331 116.383 90.9868 116.656 91.2603C116.93 91.5338 117.083 91.9046 117.083 92.2913V95.208C117.083 95.5947 116.93 95.9656 116.656 96.2391C116.383 96.5125 116.012 96.6662 115.625 96.6663V96.6663Z" fill="#0D86AD"/>
<path id="Vector_4" d="M80.625 111.25H54.375C53.9883 111.25 53.6174 111.096 53.344 110.823C53.0705 110.55 52.9168 110.179 52.9167 109.792V106.875C52.9168 106.489 53.0705 106.118 53.344 105.844C53.6174 105.571 53.9883 105.417 54.375 105.417H80.625C81.0117 105.417 81.3826 105.571 81.656 105.844C81.9295 106.118 82.0832 106.489 82.0833 106.875V109.792C82.0832 110.179 81.9295 110.55 81.656 110.823C81.3826 111.096 81.0117 111.25 80.625 111.25V111.25Z" fill="#0D86AD"/>
<path id="Vector_5" d="M115.625 111.25H89.375C88.9883 111.25 88.6174 111.096 88.344 110.823C88.0705 110.55 87.9168 110.179 87.9167 109.792V106.875C87.9168 106.489 88.0705 106.118 88.344 105.844C88.6174 105.571 88.9883 105.417 89.375 105.417H115.625C116.012 105.417 116.383 105.571 116.656 105.844C116.93 106.118 117.083 106.489 117.083 106.875V109.792C117.083 110.179 116.93 110.55 116.656 110.823C116.383 111.096 116.012 111.25 115.625 111.25V111.25Z" fill="#0D86AD"/>
<path id="Vector_6" d="M114.167 41.25H55.8333C55.0598 41.25 54.3179 41.5573 53.7709 42.1043C53.224 42.6513 52.9167 43.3931 52.9167 44.1667V79.1667C52.9167 79.9402 53.224 80.6821 53.7709 81.2291C54.3179 81.776 55.0598 82.0833 55.8333 82.0833H114.167C114.94 82.0833 115.682 81.776 116.229 81.2291C116.776 80.6821 117.083 79.9402 117.083 79.1667V44.1667C117.083 43.3931 116.776 42.6513 116.229 42.1043C115.682 41.5573 114.94 41.25 114.167 41.25Z" fill="url(#paint3_radial_1_500)"/>
<path id="Vector_7" d="M115.362 81.8212C114.989 81.9973 114.58 82.087 114.167 82.0837H78.2042V71.1462L89.4042 60.5296C90.0529 59.924 90.9117 59.5946 91.799 59.6109C92.6862 59.6273 93.5323 59.9881 94.1583 60.6171L115.362 81.8212Z" fill="#436DCD"/>
<path id="Vector_8" d="M96.6667 52.9163C98.2775 52.9163 99.5833 51.6105 99.5833 49.9997C99.5833 48.3888 98.2775 47.083 96.6667 47.083C95.0558 47.083 93.75 48.3888 93.75 49.9997C93.75 51.6105 95.0558 52.9163 96.6667 52.9163Z" fill="white"/>
<path id="Vector_9" d="M106.875 82.0835L80.5375 56.0697C79.9104 55.4426 79.0633 55.0852 78.1766 55.0735C77.2898 55.0619 76.4336 55.3969 75.7902 56.0073L52.9167 77.7085V79.1668C52.9167 79.9403 53.224 80.6822 53.7709 81.2292C54.3179 81.7762 55.0598 82.0835 55.8333 82.0835H106.875Z" fill="url(#paint4_linear_1_500)"/>
<path id="Vector_10" opacity="0.05" d="M85 131.667C85.5769 131.667 86.1408 131.838 86.6204 132.158C87.1001 132.479 87.4739 132.934 87.6946 133.467C87.9154 134 87.9732 134.587 87.8606 135.152C87.7481 135.718 87.4703 136.238 87.0624 136.646C86.6545 137.054 86.1348 137.331 85.569 137.444C85.0032 137.556 84.4168 137.499 83.8838 137.278C83.3509 137.057 82.8954 136.683 82.5749 136.204C82.2544 135.724 82.0833 135.16 82.0833 134.583C82.0833 133.81 82.3906 133.068 82.9376 132.521C83.4846 131.974 84.2264 131.667 85 131.667ZM85 128.75C83.8463 128.75 82.7185 129.092 81.7592 129.733C80.7999 130.374 80.0522 131.285 79.6107 132.351C79.1692 133.417 79.0537 134.59 79.2787 135.721C79.5038 136.853 80.0594 137.892 80.8752 138.708C81.691 139.524 82.7304 140.08 83.862 140.305C84.9935 140.53 86.1664 140.414 87.2323 139.973C88.2982 139.531 89.2093 138.783 89.8502 137.824C90.4912 136.865 90.8333 135.737 90.8333 134.583C90.8316 133.037 90.2164 131.554 89.1229 130.46C88.0293 129.367 86.5466 128.752 85 128.75V128.75Z" fill="black"/>
<path id="Vector_11" opacity="0.07" d="M85 131.666C85.5769 131.666 86.1408 131.837 86.6204 132.158C87.1001 132.478 87.4739 132.934 87.6947 133.467C87.9154 134 87.9732 134.586 87.8606 135.152C87.7481 135.718 87.4703 136.238 87.0624 136.645C86.6545 137.053 86.1348 137.331 85.569 137.444C85.0032 137.556 84.4168 137.498 83.8838 137.278C83.3509 137.057 82.8954 136.683 82.5749 136.203C82.2544 135.724 82.0833 135.16 82.0833 134.583C82.0833 133.809 82.3906 133.068 82.9376 132.521C83.4846 131.974 84.2265 131.666 85 131.666ZM85 130.208C84.1347 130.208 83.2888 130.465 82.5694 130.945C81.8499 131.426 81.2892 132.109 80.958 132.909C80.6269 133.708 80.5403 134.588 80.7091 135.437C80.8779 136.285 81.2946 137.065 81.9064 137.677C82.5183 138.288 83.2978 138.705 84.1465 138.874C84.9952 139.043 85.8748 138.956 86.6742 138.625C87.4737 138.294 88.1569 137.733 88.6377 137.014C89.1184 136.294 89.375 135.448 89.375 134.583C89.3737 133.423 88.9123 132.311 88.0921 131.491C87.2719 130.671 86.1599 130.209 85 130.208Z" fill="black"/>
<path id="Vector_12" d="M85 137.5C86.6108 137.5 87.9167 136.194 87.9167 134.584C87.9167 132.973 86.6108 131.667 85 131.667C83.3892 131.667 82.0833 132.973 82.0833 134.584C82.0833 136.194 83.3892 137.5 85 137.5Z" fill="url(#paint5_linear_1_500)"/>
<rect x="7.5" y="7.5" width="155" height="155" rx="12.5" stroke="#D5EAF6" stroke-width="15"/>
</g>
<defs>
<linearGradient id="paint0_linear_1_500" x1="85" y1="15" x2="85" y2="155" gradientUnits="userSpaceOnUse">
<stop stop-color="#199AE0"/>
<stop offset="0.472222" stop-color="#0D5176" stop-opacity="0.527778"/>
<stop offset="0.940972" stop-color="#12A6F7" stop-opacity="0.465278"/>
<stop offset="1" stop-opacity="0"/>
</linearGradient>
<linearGradient id="paint1_linear_1_500" x1="62.3579" y1="19.3607" x2="117.716" y2="171.453" gradientUnits="userSpaceOnUse">
<stop stop-color="#7DD8F3"/>
<stop offset="1" stop-color="#45B0D0"/>
</linearGradient>
<linearGradient id="paint2_linear_1_500" x1="69.1508" y1="88.6397" x2="105.58" y2="188.731" gradientUnits="userSpaceOnUse">
<stop stop-color="#0176D0"/>
<stop offset="1" stop-color="#16538C"/>
</linearGradient>
<radialGradient id="paint3_radial_1_500" cx="0" cy="0" r="1" gradientUnits="userSpaceOnUse" gradientTransform="translate(130.34 84.3787) scale(40.5942)">
<stop stop-color="#BA84F5"/>
<stop offset="0.129" stop-color="#B584F3"/>
<stop offset="0.291" stop-color="#A585EE"/>
<stop offset="0.47" stop-color="#8C87E6"/>
<stop offset="0.662" stop-color="#6889DB"/>
<stop offset="0.862" stop-color="#3B8BCD"/>
<stop offset="1" stop-color="#178DC2"/>
</radialGradient>
<linearGradient id="paint4_linear_1_500" x1="79.8958" y1="55.011" x2="79.8958" y2="82.553" gradientUnits="userSpaceOnUse">
<stop stop-color="#124787"/>
<stop offset="0.923" stop-color="#173B75"/>
<stop offset="1" stop-color="#173A73"/>
</linearGradient>
<linearGradient id="paint5_linear_1_500" x1="84.8308" y1="134.414" x2="89.0862" y2="138.67" gradientUnits="userSpaceOnUse">
<stop stop-color="#DFE9F2"/>
<stop offset="0.391" stop-color="#D6E0E9"/>
<stop offset="1" stop-color="#BFC8D1"/>
</linearGradient>
</defs>
</svg>
