<svg width="170" height="170" viewBox="0 0 170 170" fill="none" xmlns="http://www.w3.org/2000/svg">
<g id="ecg">
<rect x="7.5" y="7.5" width="155" height="155" rx="12.5" fill="white"/>
<rect x="7.5" y="7.5" width="155" height="155" rx="12.5" fill="url(#paint0_linear_1_517)" fill-opacity="0.2"/>
<path id="Vector" d="M32.2229 41.25H137.777C140.845 41.25 143.333 43.7817 143.333 46.9054V128.925C143.333 132.052 140.845 134.583 137.777 134.583H32.2229C29.1546 134.583 26.6667 132.052 26.6667 128.928V46.9054C26.6667 43.7817 29.1546 41.25 32.2229 41.25Z" fill="#50E6FF"/>
<path id="Vector_2" d="M131.667 52.9167C131.667 51.3067 130.36 50 128.75 50H41.25C39.64 50 38.3333 51.3067 38.3333 52.9167V122.917C38.3333 124.527 39.64 125.833 41.25 125.833H128.75C130.36 125.833 131.667 124.527 131.667 122.917C131.667 122.917 131.667 53.1208 131.667 52.9167ZM73.3333 79.1667H96.6667V96.6667H73.3333V79.1667ZM67.5 96.6667H44.1667V79.1667H67.5V96.6667ZM96.6667 73.3333H73.3333V55.8333H96.6667V73.3333ZM102.5 55.8333H125.833V73.3333H102.5V55.8333ZM102.5 79.1667H125.833V96.6667H102.5V79.1667ZM67.5 55.8333V73.3333H44.1667V55.8333H67.5ZM44.1667 120V102.5H67.5V120H44.1667ZM73.3333 102.5H96.6667V120H73.3333V102.5ZM102.5 120V102.5H125.833V120H102.5Z" fill="#8AF2FF"/>
<path id="Vector_3" d="M143.333 114.167H132.862L123.529 55.3753C123.305 53.9578 122.083 52.9165 120.648 52.9165C119.213 52.9165 117.99 53.9578 117.766 55.3753L108.435 114.167H103.591L97.5796 84.4223C97.3054 83.0632 96.1125 82.0832 94.7212 82.0832C93.33 82.0832 92.1371 83.0632 91.8629 84.4223L85.8546 114.167H80.9896L71.6737 58.2715C71.4404 56.8657 70.2212 55.8332 68.795 55.8332C67.3687 55.8332 66.1525 56.8657 65.9192 58.2715L56.6033 114.167H51.8112L45.7446 78.6736C45.5054 77.2765 44.2921 76.2498 42.8717 76.2498C41.4512 76.2498 40.235 77.2765 39.9958 78.6736L33.9292 114.167H26.6667V120H36.3879C37.8083 120 39.0246 118.973 39.2637 117.576L42.8687 96.4769L46.4737 117.576C46.7158 118.973 47.9321 120 49.3525 120H59.0737C60.5 120 61.7162 118.967 61.9496 117.562L68.795 76.4919L75.6404 117.562C75.8767 118.967 77.0929 120 78.5192 120H88.2404C89.6287 120 90.8246 119.02 91.0987 117.661L94.7212 99.729L98.3438 117.661C98.6208 119.02 99.8167 120 101.205 120H110.926C112.361 120 113.583 118.959 113.808 117.541L120.65 74.4386L127.493 117.541C127.715 118.959 128.937 120 130.372 120H143.333V114.167Z" fill="#0D62AB"/>
<rect x="7.5" y="7.5" width="155" height="155" rx="12.5" stroke="#D5EAF6" stroke-width="15"/>
</g>
<defs>
<linearGradient id="paint0_linear_1_517" x1="85" y1="15" x2="85" y2="155" gradientUnits="userSpaceOnUse">
<stop stop-color="#199AE0"/>
<stop offset="0.472222" stop-color="#0D5176" stop-opacity="0.527778"/>
<stop offset="0.940972" stop-color="#12A6F7" stop-opacity="0.465278"/>
<stop offset="1" stop-opacity="0"/>
</linearGradient>
</defs>
</svg>
