<svg width="170" height="170" viewBox="0 0 170 170" fill="none" xmlns="http://www.w3.org/2000/svg">
<g id="edit-property">
<rect x="7.5" y="7.5" width="155" height="155" rx="12.5" fill="white"/>
<rect x="7.5" y="7.5" width="155" height="155" rx="12.5" fill="url(#paint0_linear_1_481)" fill-opacity="0.2"/>
<path id="Vector" d="M26.6667 125.833V52.9165H143.333V125.833C143.333 129.042 140.708 131.667 137.5 131.667H32.5C29.2917 131.667 26.6667 129.042 26.6667 125.833Z" fill="url(#paint1_linear_1_481)"/>
<path id="Vector_2" d="M127.292 76.2498H60.2083C59.4033 76.2498 58.75 75.5965 58.75 74.7915V71.8748C58.75 71.0698 59.4033 70.4165 60.2083 70.4165H127.292C128.097 70.4165 128.75 71.0698 128.75 71.8748V74.7915C128.75 75.5965 128.097 76.2498 127.292 76.2498Z" fill="#0F94BF"/>
<path id="Vector_3" d="M127.292 87.9168H60.2083C59.4033 87.9168 58.75 87.2635 58.75 86.4585V83.5418C58.75 82.7368 59.4033 82.0835 60.2083 82.0835H127.292C128.097 82.0835 128.75 82.7368 128.75 83.5418V86.4585C128.75 87.2635 128.097 87.9168 127.292 87.9168Z" fill="#0F94BF"/>
<path id="Vector_4" d="M127.292 99.5833H60.2083C59.4033 99.5833 58.75 98.93 58.75 98.125V95.2083C58.75 94.4033 59.4033 93.75 60.2083 93.75H127.292C128.097 93.75 128.75 94.4033 128.75 95.2083V98.125C128.75 98.93 128.097 99.5833 127.292 99.5833Z" fill="#0F94BF"/>
<path id="Vector_5" d="M117.083 111.25H60.2083C59.4033 111.25 58.75 110.597 58.75 109.792V106.875C58.75 106.07 59.4033 105.417 60.2083 105.417H117.083V111.25Z" fill="#0F94BF"/>
<path id="Vector_6" opacity="0.05" d="M143.333 66.3394L96.9612 112.72L93.365 127C93.0412 128.289 94.2108 129.459 95.5 129.135L109.783 125.539L143.333 91.9827V66.3394Z" fill="black"/>
<path id="Vector_7" opacity="0.07" d="M143.333 68.4014L99.4113 112.332L97.8158 115.298H97.8129L95.2929 125.314C95.0042 126.458 96.0396 127.49 97.1829 127.204L107.234 124.673L110.168 123.089L143.333 89.8505V68.4014Z" fill="black"/>
<path id="Vector_8" opacity="0.2" d="M143.333 70.4604L121.464 92.3354L99.595 114.21L99.5979 114.213H99.5921L97.2208 123.637C96.97 124.632 97.8712 125.533 98.8658 125.282L108.29 122.911V122.908L125.81 105.385L143.333 87.8584V70.4604Z" fill="black"/>
<path id="Vector_9" d="M143.333 44.1668V52.9168H26.6667V44.1668C26.6667 40.9585 29.2917 38.3335 32.5 38.3335H137.5C140.708 38.3335 143.333 40.9585 143.333 44.1668Z" fill="url(#paint2_linear_1_481)"/>
<path id="Vector_10" d="M42.7083 76.2498H45.625C46.43 76.2498 47.0833 75.5965 47.0833 74.7915V71.8748C47.0833 71.0698 46.43 70.4165 45.625 70.4165H42.7083C41.9033 70.4165 41.25 71.0698 41.25 71.8748V74.7915C41.25 75.5965 41.9033 76.2498 42.7083 76.2498Z" fill="#0F94BF"/>
<path id="Vector_11" d="M42.7083 87.9168H45.625C46.43 87.9168 47.0833 87.2635 47.0833 86.4585V83.5418C47.0833 82.7368 46.43 82.0835 45.625 82.0835H42.7083C41.9033 82.0835 41.25 82.7368 41.25 83.5418V86.4585C41.25 87.2635 41.9033 87.9168 42.7083 87.9168Z" fill="#0F94BF"/>
<path id="Vector_12" d="M42.7083 99.5833H45.625C46.43 99.5833 47.0833 98.93 47.0833 98.125V95.2083C47.0833 94.4033 46.43 93.75 45.625 93.75H42.7083C41.9033 93.75 41.25 94.4033 41.25 95.2083V98.125C41.25 98.93 41.9033 99.5833 42.7083 99.5833Z" fill="#0F94BF"/>
<path id="Vector_13" d="M42.7083 111.25H45.625C46.43 111.25 47.0833 110.597 47.0833 109.792V106.875C47.0833 106.07 46.43 105.417 45.625 105.417H42.7083C41.9033 105.417 41.25 106.07 41.25 106.875V109.792C41.25 110.597 41.9033 111.25 42.7083 111.25Z" fill="#0F94BF"/>
<path id="Vector_14" d="M154.361 73.7443L148.755 68.1414C147.904 67.2868 146.515 67.2868 145.661 68.1414L143.024 70.781L151.719 79.4756L154.358 76.8389C155.213 75.9814 155.213 74.5989 154.361 73.7443Z" fill="#C94F60"/>
<path id="Vector_15" d="M99.5921 114.214L96.6667 125.834L108.29 122.908L109.509 112.828L99.5921 114.214Z" fill="#F0F0F0"/>
<path id="Vector_16" d="M144.305 86.8899L108.29 122.905L99.595 114.21L135.61 78.1953L144.305 86.8899Z" fill="#EDBE00"/>
<path id="Vector_17" d="M135.601 78.1954L143.018 70.7754L151.719 79.47L144.302 86.89L135.601 78.1954Z" fill="url(#paint3_linear_1_481)"/>
<path id="Vector_18" d="M98.1483 119.956L96.6667 125.833L102.541 124.351L98.1483 119.956Z" fill="#787878"/>
<rect x="7.5" y="7.5" width="155" height="155" rx="12.5" stroke="#D5EAF6" stroke-width="15"/>
</g>
<defs>
<linearGradient id="paint0_linear_1_481" x1="85" y1="15" x2="85" y2="155" gradientUnits="userSpaceOnUse">
<stop stop-color="#199AE0"/>
<stop offset="0.472222" stop-color="#0D5176" stop-opacity="0.527778"/>
<stop offset="0.940972" stop-color="#12A6F7" stop-opacity="0.465278"/>
<stop offset="1" stop-opacity="0"/>
</linearGradient>
<linearGradient id="paint1_linear_1_481" x1="53.1179" y1="44.1607" x2="108.117" y2="123.719" gradientUnits="userSpaceOnUse">
<stop stop-color="#7DD8F3"/>
<stop offset="1" stop-color="#45B0D0"/>
</linearGradient>
<linearGradient id="paint2_linear_1_481" x1="29.0233" y1="34.7752" x2="139.688" y2="57.2772" gradientUnits="userSpaceOnUse">
<stop stop-color="#0077D2"/>
<stop offset="1" stop-color="#0B59A2"/>
</linearGradient>
<linearGradient id="paint3_linear_1_481" x1="143.66" y1="71.3266" x2="143.66" y2="87.3362" gradientUnits="userSpaceOnUse">
<stop stop-color="#DEDEDE"/>
<stop offset="1" stop-color="#D6D6D6"/>
</linearGradient>
</defs>
</svg>
