<svg width="170" height="170" viewBox="0 0 170 170" fill="none" xmlns="http://www.w3.org/2000/svg">
<g id="enlarge">
<rect x="7.5" y="7.5" width="155" height="155" rx="12.5" fill="white"/>
<rect x="7.5" y="7.5" width="155" height="155" rx="12.5" fill="url(#paint0_linear_1_513)" fill-opacity="0.2"/>
<path id="Vector" d="M137.5 36.624L124.979 49.1453L135.009 59.1757C135.928 60.0944 137.5 59.444 137.5 58.1461V36.624Z" fill="url(#paint1_linear_1_513)"/>
<path id="Vector_2" d="M36.6242 137.488L49.1454 124.967L59.1758 134.997C60.0946 135.916 59.4442 137.488 58.1433 137.488H36.6242Z" fill="url(#paint2_linear_1_513)"/>
<path id="Vector_3" d="M134.583 32.5H111.862C110.55 32.5 109.908 34.075 110.812 34.9792L118.804 42.9708L42.9708 118.792L34.9792 110.801C34.075 109.897 32.5 110.538 32.5 111.851V134.572C32.5 136.176 33.8125 137.488 35.4167 137.488H39.5292C40.3167 137.488 41.0458 137.168 41.6 136.643L136.654 41.6C137.179 41.0458 137.5 40.3167 137.5 39.5292V35.4167C137.5 33.8125 136.188 32.5 134.583 32.5Z" fill="url(#paint3_linear_1_513)"/>
<rect x="7.5" y="7.5" width="155" height="155" rx="12.5" stroke="#D5EAF6" stroke-width="15"/>
</g>
<defs>
<linearGradient id="paint0_linear_1_513" x1="85" y1="15" x2="85" y2="155" gradientUnits="userSpaceOnUse">
<stop stop-color="#199AE0"/>
<stop offset="0.472222" stop-color="#0D5176" stop-opacity="0.527778"/>
<stop offset="0.940972" stop-color="#12A6F7" stop-opacity="0.465278"/>
<stop offset="1" stop-opacity="0"/>
</linearGradient>
<linearGradient id="paint1_linear_1_513" x1="142.06" y1="53.7092" x2="132.971" y2="44.6202" gradientUnits="userSpaceOnUse">
<stop offset="0.365" stop-color="#199AE0"/>
<stop offset="0.699" stop-color="#1898DE"/>
<stop offset="0.819" stop-color="#1691D8"/>
<stop offset="0.905" stop-color="#1186CC"/>
<stop offset="0.974" stop-color="#0A75BC"/>
<stop offset="1" stop-color="#076CB3"/>
</linearGradient>
<linearGradient id="paint2_linear_1_513" x1="53.7074" y1="142.05" x2="44.6184" y2="132.961" gradientUnits="userSpaceOnUse">
<stop offset="0.365" stop-color="#199AE0"/>
<stop offset="0.699" stop-color="#1898DE"/>
<stop offset="0.819" stop-color="#1691D8"/>
<stop offset="0.905" stop-color="#1186CC"/>
<stop offset="0.974" stop-color="#0A75BC"/>
<stop offset="1" stop-color="#076CB3"/>
</linearGradient>
<linearGradient id="paint3_linear_1_513" x1="48.3783" y1="327.497" x2="136.243" y2="-276.547" gradientUnits="userSpaceOnUse">
<stop stop-color="#32BDEF"/>
<stop offset="1" stop-color="#1EA2E4"/>
</linearGradient>
</defs>
</svg>
