<svg width="170" height="170" viewBox="0 0 170 170" fill="none" xmlns="http://www.w3.org/2000/svg">
<g id="erp-system">
<rect x="7.5" y="7.5" width="155" height="155" rx="12.5" fill="white"/>
<rect x="7.5" y="7.5" width="155" height="155" rx="12.5" fill="url(#paint0_linear_1_436)" fill-opacity="0.2"/>
<path id="Vector" d="M26.6667 125.833V58.75H143.333V125.833C143.333 129.042 140.708 131.667 137.5 131.667H32.5C29.2917 131.667 26.6667 129.042 26.6667 125.833Z" fill="#50E6FF"/>
<path id="Vector_2" opacity="0.05" d="M58.75 122.917C55.5329 122.917 52.9167 120.3 52.9167 117.083V96.6667C52.9167 93.4496 55.5329 90.8334 58.75 90.8334H62.1129L64.42 76.988C64.77 74.8705 66.5871 73.3334 68.7367 73.3334H72.0967C74.2433 73.3334 76.0604 74.8705 76.4104 76.9909L78.7204 90.8334H82.0833V90.4892C81.5467 90.1859 81.0596 89.7951 80.6454 89.3313C78.5046 86.928 78.7204 83.2355 81.1208 81.0946L93.96 69.6526C95.5117 68.2701 97.5096 67.5117 99.5833 67.5117C101.66 67.5117 103.655 68.273 105.204 69.6526L118.046 81.0946C120.446 83.2355 120.662 86.928 118.524 89.3284C118.104 89.798 117.617 90.1917 117.083 90.498V116.535C117.083 120.055 114.321 122.917 110.926 122.917H58.75Z" fill="black"/>
<path id="Vector_3" opacity="0.07" d="M58.75 121.458C56.3379 121.458 54.375 119.495 54.375 117.083V96.6664C54.375 94.2543 56.3379 92.2914 58.75 92.2914H63.3467L65.8579 77.2297C66.0913 75.818 67.3017 74.7914 68.7338 74.7914H72.0938C73.5258 74.7914 74.7363 75.818 74.9696 77.2297L77.4808 92.2914H83.5417V89.5585C82.8504 89.3222 82.2321 88.9139 81.7333 88.3568C80.1292 86.5543 80.2896 83.7864 82.0892 82.1793L94.9283 70.7372C96.2146 69.5939 97.8683 68.9668 99.5833 68.9668C101.301 68.9668 102.952 69.5968 104.235 70.7372L117.078 82.1764C118.877 83.7835 119.037 86.5514 117.433 88.3539C116.937 88.911 116.31 89.3251 115.625 89.5701V116.535C115.625 119.25 113.516 121.458 110.926 121.458H58.75Z" fill="black"/>
<path id="Vector_4" d="M143.333 44.1663V58.7497H26.6667V44.1663C26.6667 40.958 29.2917 38.333 32.5 38.333H137.5C140.708 38.333 143.333 40.958 143.333 44.1663Z" fill="url(#paint1_linear_1_436)"/>
<path id="Vector_5" d="M63.125 52.917H136.042C136.847 52.917 137.5 52.2637 137.5 51.4587V45.6253C137.5 44.8203 136.847 44.167 136.042 44.167H63.125C62.32 44.167 61.6667 44.8203 61.6667 45.6253V51.4587C61.6667 52.2637 62.32 52.917 63.125 52.917Z" fill="url(#paint2_linear_1_436)"/>
<path id="Vector_6" d="M36.875 52.917C39.2912 52.917 41.25 50.9582 41.25 48.542C41.25 46.1257 39.2912 44.167 36.875 44.167C34.4588 44.167 32.5 46.1257 32.5 48.542C32.5 50.9582 34.4588 52.917 36.875 52.917Z" fill="url(#paint3_linear_1_436)"/>
<path id="Vector_7" d="M51.4583 52.917C53.8746 52.917 55.8333 50.9582 55.8333 48.542C55.8333 46.1257 53.8746 44.167 51.4583 44.167C49.0421 44.167 47.0833 46.1257 47.0833 48.542C47.0833 50.9582 49.0421 52.917 51.4583 52.917Z" fill="url(#paint4_linear_1_436)"/>
<path id="Vector_8" d="M76.25 93.75L70.4167 96.6667L64.5833 93.75L65.5546 87.9196L68.9583 85L66.5287 82.0804L67.2987 77.4662C67.4154 76.7662 68.0221 76.25 68.7367 76.25H72.0996C72.8112 76.25 73.4208 76.7662 73.5375 77.4692L74.3075 82.0833L71.875 85L75.2787 87.9196L76.25 93.75Z" fill="url(#paint5_linear_1_436)"/>
<path id="Vector_9" d="M93.75 93.75H58.75C57.14 93.75 55.8333 95.0567 55.8333 96.6667V117.083C55.8333 118.693 57.14 120 58.75 120H93.75V93.75Z" fill="url(#paint6_linear_1_436)"/>
<path id="Vector_10" d="M88.2404 120H110.926C112.708 120 114.167 118.442 114.167 116.535V85.4489L101.325 74.0097C100.315 73.1114 98.8512 73.1114 97.8421 74.0097L85 85.4489V116.538C85 118.448 86.4496 120 88.2404 120Z" fill="url(#paint7_linear_1_436)"/>
<path id="Vector_11" d="M75.2875 87.9163H65.5458L66.5375 82.083H74.2958L75.2875 87.9163Z" fill="#A8A8A8"/>
<path id="Vector_12" d="M67.5 99.583H61.6667V111.25H67.5V99.583Z" fill="#FF8800"/>
<path id="Vector_13" d="M79.1667 99.583H73.3333V111.25H79.1667V99.583Z" fill="#FF8800"/>
<path id="Vector_14" d="M96.6667 90.833H90.8333V96.6663H96.6667V90.833Z" fill="#FF8800"/>
<path id="Vector_15" d="M108.333 90.833H102.5V96.6663H108.333V90.833Z" fill="#FF8800"/>
<path id="Vector_16" d="M96.6667 102.5H90.8333V108.333H96.6667V102.5Z" fill="#FF8800"/>
<path id="Vector_17" d="M108.333 102.5H102.5V108.333H108.333V102.5Z" fill="#FF8800"/>
<path id="Vector_18" d="M114.167 88.3655C113.475 88.3655 112.781 88.1234 112.227 87.6275L99.5833 76.3605L86.9396 87.6246C85.7379 88.695 83.8975 88.593 82.8212 87.3855C81.7508 86.1838 81.8587 84.3405 83.0604 83.2671L95.8996 71.825C98.0025 69.9555 101.167 69.9555 103.261 71.825L116.103 83.2671C117.305 84.3375 117.413 86.1838 116.342 87.3855C115.768 88.0359 114.969 88.3655 114.167 88.3655Z" fill="url(#paint8_linear_1_436)"/>
<rect x="7.5" y="7.5" width="155" height="155" rx="12.5" stroke="#D5EAF6" stroke-width="15"/>
</g>
<defs>
<linearGradient id="paint0_linear_1_436" x1="85" y1="15" x2="85" y2="155" gradientUnits="userSpaceOnUse">
<stop stop-color="#199AE0"/>
<stop offset="0.472222" stop-color="#0D5176" stop-opacity="0.527778"/>
<stop offset="0.940972" stop-color="#12A6F7" stop-opacity="0.465278"/>
<stop offset="1" stop-opacity="0"/>
</linearGradient>
<linearGradient id="paint1_linear_1_436" x1="28.4575" y1="37.5776" x2="140.23" y2="60.3043" gradientUnits="userSpaceOnUse">
<stop stop-color="#0077D2"/>
<stop offset="1" stop-color="#0B59A2"/>
</linearGradient>
<linearGradient id="paint2_linear_1_436" x1="61.6667" y1="48.542" x2="137.5" y2="48.542" gradientUnits="userSpaceOnUse">
<stop stop-color="#7DD8F3"/>
<stop offset="1" stop-color="#45B0D0"/>
</linearGradient>
<linearGradient id="paint3_linear_1_436" x1="34.6904" y1="45.3803" x2="38.4267" y2="50.7849" gradientUnits="userSpaceOnUse">
<stop stop-color="#75DAFF"/>
<stop offset="1" stop-color="#49BEF1"/>
</linearGradient>
<linearGradient id="paint4_linear_1_436" x1="49.2737" y1="45.3803" x2="53.01" y2="50.7849" gradientUnits="userSpaceOnUse">
<stop stop-color="#75DAFF"/>
<stop offset="1" stop-color="#49BEF1"/>
</linearGradient>
<linearGradient id="paint5_linear_1_436" x1="70.4167" y1="76.2733" x2="70.4167" y2="101.87" gradientUnits="userSpaceOnUse">
<stop stop-color="#C93702"/>
<stop offset="0.325" stop-color="#C63602"/>
<stop offset="0.528" stop-color="#BE3402"/>
<stop offset="0.698" stop-color="#AF2F03"/>
<stop offset="0.849" stop-color="#9B2903"/>
<stop offset="0.98" stop-color="#822204"/>
</linearGradient>
<linearGradient id="paint6_linear_1_436" x1="55.7662" y1="106.875" x2="93.9308" y2="106.875" gradientUnits="userSpaceOnUse">
<stop stop-color="#C93702"/>
<stop offset="0.325" stop-color="#C63602"/>
<stop offset="0.528" stop-color="#BE3402"/>
<stop offset="0.698" stop-color="#AF2F03"/>
<stop offset="0.849" stop-color="#9B2903"/>
<stop offset="0.98" stop-color="#822204"/>
</linearGradient>
<linearGradient id="paint7_linear_1_436" x1="99.5833" y1="72.8809" x2="99.5833" y2="119.965" gradientUnits="userSpaceOnUse">
<stop stop-color="#C93702"/>
<stop offset="0.499" stop-color="#BA3302"/>
<stop offset="1" stop-color="#A62D03"/>
</linearGradient>
<linearGradient id="paint8_linear_1_436" x1="99.5833" y1="68.8121" x2="99.5833" y2="95.7359" gradientUnits="userSpaceOnUse">
<stop stop-color="#C93702"/>
<stop offset="0.499" stop-color="#A60F0F"/>
<stop offset="1" stop-color="#A62D03"/>
</linearGradient>
</defs>
</svg>
