<svg width="170" height="170" viewBox="0 0 170 170" fill="none" xmlns="http://www.w3.org/2000/svg">
<g id="estimates">
<rect x="7.5" y="7.5" width="155" height="155" rx="12.5" fill="white"/>
<rect x="7.5" y="7.5" width="155" height="155" rx="12.5" fill="url(#paint0_linear_1_537)" fill-opacity="0.2"/>
<path id="Vector" d="M128.75 61.6663V134.583C128.75 137.806 126.14 140.416 122.917 140.416H47.0833C43.8604 140.416 41.25 137.806 41.25 134.583V35.4163C41.25 32.1934 43.8604 29.583 47.0833 29.583H96.6667L128.75 61.6663Z" fill="#50E6FF"/>
<path id="Vector_2" d="M96.6667 29.583V55.833C96.6667 59.0559 99.2771 61.6663 102.5 61.6663H128.75L96.6667 29.583Z" fill="url(#paint1_linear_1_537)"/>
<path id="Vector_3" opacity="0.05" d="M128.75 76.25H96.6667C93.4438 76.25 90.8333 78.8604 90.8333 82.0833V134.583C90.8333 137.806 93.4438 140.417 96.6667 140.417H128.75V76.25Z" fill="black"/>
<path id="Vector_4" opacity="0.07" d="M128.75 79.167H98.125C95.71 79.167 93.75 81.127 93.75 83.542V136.042C93.75 138.457 95.71 140.417 98.125 140.417H128.75V79.167Z" fill="black"/>
<path id="Vector_5" d="M137.5 82.083H99.5833C97.9733 82.083 96.6667 83.3897 96.6667 84.9997V137.5C96.6667 139.11 97.9733 140.416 99.5833 140.416H137.5C139.11 140.416 140.417 139.11 140.417 137.5V84.9997C140.417 83.3897 139.11 82.083 137.5 82.083Z" fill="url(#paint2_linear_1_537)"/>
<path id="Vector_6" d="M133.125 96.667H103.958C103.153 96.667 102.5 96.0137 102.5 95.2087V89.3753C102.5 88.5703 103.153 87.917 103.958 87.917H133.125C133.93 87.917 134.583 88.5703 134.583 89.3753V95.2087C134.583 96.0137 133.93 96.667 133.125 96.667Z" fill="url(#paint3_linear_1_537)"/>
<path id="Vector_7" d="M121.458 111.25H115.625C114.82 111.25 114.167 110.597 114.167 109.792V103.958C114.167 103.153 114.82 102.5 115.625 102.5H121.458C122.263 102.5 122.917 103.153 122.917 103.958V109.792C122.917 110.597 122.263 111.25 121.458 111.25Z" fill="#CAD2D9"/>
<path id="Vector_8" d="M109.792 111.25H103.958C103.153 111.25 102.5 110.597 102.5 109.792V103.958C102.5 103.153 103.153 102.5 103.958 102.5H109.792C110.597 102.5 111.25 103.153 111.25 103.958V109.792C111.25 110.597 110.597 111.25 109.792 111.25Z" fill="#CAD2D9"/>
<path id="Vector_9" d="M121.458 122.917H115.625C114.82 122.917 114.167 122.264 114.167 121.459V115.625C114.167 114.82 114.82 114.167 115.625 114.167H121.458C122.263 114.167 122.917 114.82 122.917 115.625V121.459C122.917 122.264 122.263 122.917 121.458 122.917Z" fill="#CAD2D9"/>
<path id="Vector_10" d="M109.792 122.917H103.958C103.153 122.917 102.5 122.264 102.5 121.459V115.625C102.5 114.82 103.153 114.167 103.958 114.167H109.792C110.597 114.167 111.25 114.82 111.25 115.625V121.459C111.25 122.264 110.597 122.917 109.792 122.917Z" fill="#CAD2D9"/>
<path id="Vector_11" d="M121.458 134.583H115.625C114.82 134.583 114.167 133.93 114.167 133.125V127.291C114.167 126.486 114.82 125.833 115.625 125.833H121.458C122.263 125.833 122.917 126.486 122.917 127.291V133.125C122.917 133.93 122.263 134.583 121.458 134.583Z" fill="#CAD2D9"/>
<path id="Vector_12" d="M109.792 134.583H103.958C103.153 134.583 102.5 133.93 102.5 133.125V127.291C102.5 126.486 103.153 125.833 103.958 125.833H109.792C110.597 125.833 111.25 126.486 111.25 127.291V133.125C111.25 133.93 110.597 134.583 109.792 134.583Z" fill="#CAD2D9"/>
<path id="Vector_13" d="M133.125 111.25H127.292C126.487 111.25 125.833 110.597 125.833 109.792V103.958C125.833 103.153 126.487 102.5 127.292 102.5H133.125C133.93 102.5 134.583 103.153 134.583 103.958V109.792C134.583 110.597 133.93 111.25 133.125 111.25Z" fill="#CAD2D9"/>
<path id="Vector_14" d="M133.125 134.584H127.292C126.487 134.584 125.833 133.93 125.833 133.125V115.625C125.833 114.82 126.487 114.167 127.292 114.167H133.125C133.93 114.167 134.583 114.82 134.583 115.625V133.125C134.583 133.93 133.93 134.584 133.125 134.584Z" fill="url(#paint4_linear_1_537)"/>
<rect x="7.5" y="7.5" width="155" height="155" rx="12.5" stroke="#D5EAF6" stroke-width="15"/>
</g>
<defs>
<linearGradient id="paint0_linear_1_537" x1="85" y1="15" x2="85" y2="155" gradientUnits="userSpaceOnUse">
<stop stop-color="#199AE0"/>
<stop offset="0.472222" stop-color="#0D5176" stop-opacity="0.527778"/>
<stop offset="0.940972" stop-color="#12A6F7" stop-opacity="0.465278"/>
<stop offset="1" stop-opacity="0"/>
</linearGradient>
<linearGradient id="paint1_linear_1_537" x1="98.2096" y1="60.1234" x2="113" y2="45.333" gradientUnits="userSpaceOnUse">
<stop stop-color="#3079D6"/>
<stop offset="1" stop-color="#297CD2"/>
</linearGradient>
<linearGradient id="paint2_linear_1_537" x1="98.3904" y1="83.3634" x2="137.29" y2="137.196" gradientUnits="userSpaceOnUse">
<stop stop-color="#899198"/>
<stop offset="1" stop-color="#787E85"/>
</linearGradient>
<linearGradient id="paint3_linear_1_537" x1="106.14" y1="86.5462" x2="133.618" y2="99.2745" gradientUnits="userSpaceOnUse">
<stop stop-color="#4FE5FF"/>
<stop offset="1" stop-color="#2EB7ED"/>
</linearGradient>
<linearGradient id="paint4_linear_1_537" x1="130.208" y1="114.969" x2="130.208" y2="134.062" gradientUnits="userSpaceOnUse">
<stop stop-color="#11498A"/>
<stop offset="1" stop-color="#0F417A"/>
</linearGradient>
</defs>
</svg>
