<svg width="170" height="170" viewBox="0 0 170 170" fill="none" xmlns="http://www.w3.org/2000/svg">
<g id="event-accepted-tentatively">
<rect x="7.5" y="7.5" width="155" height="155" rx="12.5" fill="white"/>
<rect x="7.5" y="7.5" width="155" height="155" rx="12.5" fill="url(#paint0_linear_1_563)" fill-opacity="0.2"/>
<path id="Vector" d="M32.5 131.667V50H137.5V131.667C137.5 134.875 134.875 137.5 131.667 137.5H38.3333C35.125 137.5 32.5 134.875 32.5 131.667Z" fill="url(#paint1_linear_1_563)"/>
<path id="Vector_2" d="M83.9704 69.2586L77.7842 83.1303L62.6817 84.7257C61.7104 84.8278 61.3196 86.0324 62.0429 86.6886L73.3246 96.8561L70.1746 111.717C69.9733 112.673 70.9971 113.417 71.8429 112.927L85 105.335L98.1571 112.924C99.0029 113.411 100.027 112.667 99.8254 111.714L96.6754 96.8532L107.957 86.6857C108.683 86.0324 108.293 84.8278 107.318 84.7228L92.2158 83.1274L86.0296 69.2557C85.6329 68.3661 84.3671 68.3661 83.9704 69.2586Z" fill="white"/>
<path id="Vector_3" d="M137.5 38.3333V55.8333H32.5V38.3333C32.5 35.125 35.125 32.5 38.3333 32.5H131.667C134.875 32.5 137.5 35.125 137.5 38.3333Z" fill="url(#paint2_linear_1_563)"/>
<path id="Vector_4" opacity="0.05" d="M118.542 51.4583C113.709 51.4583 109.792 47.5413 109.792 42.7083V32.5H127.292V42.7083C127.292 47.5413 123.375 51.4583 118.542 51.4583Z" fill="black"/>
<path id="Vector_5" opacity="0.07" d="M118.542 49.2708C114.916 49.2708 111.979 46.3338 111.979 42.7083V32.5H125.104V42.7083C125.104 46.3338 122.167 49.2708 118.542 49.2708Z" fill="black"/>
<path id="Vector_6" opacity="0.05" d="M51.4583 51.4583C46.6254 51.4583 42.7083 47.5413 42.7083 42.7083V32.5H60.2083V42.7083C60.2083 47.5413 56.2912 51.4583 51.4583 51.4583Z" fill="black"/>
<path id="Vector_7" opacity="0.07" d="M51.4583 49.2708C47.8329 49.2708 44.8958 46.3338 44.8958 42.7083V32.5H58.0208V42.7083C58.0208 46.3338 55.0837 49.2708 51.4583 49.2708Z" fill="black"/>
<path id="Vector_8" d="M51.4583 47.0837C49.0433 47.0837 47.0833 45.1237 47.0833 42.7087V31.042C47.0833 28.627 49.0433 26.667 51.4583 26.667C53.8733 26.667 55.8333 28.627 55.8333 31.042V42.7087C55.8333 45.1237 53.8733 47.0837 51.4583 47.0837Z" fill="#3CCBF4"/>
<path id="Vector_9" d="M118.542 47.0837C116.127 47.0837 114.167 45.1237 114.167 42.7087V31.042C114.167 28.627 116.127 26.667 118.542 26.667C120.957 26.667 122.917 28.627 122.917 31.042V42.7087C122.917 45.1237 120.957 47.0837 118.542 47.0837Z" fill="#3CCBF4"/>
<path id="Vector_10" opacity="0.2" d="M132.314 137.5C135.175 137.491 137.491 135.175 137.5 132.314V93.1255C133.705 91.6788 129.616 90.833 125.314 90.833C106.271 90.833 90.8333 106.271 90.8333 125.314C90.8333 129.616 91.6792 133.705 93.1258 137.5H132.314Z" fill="url(#paint3_radial_1_563)"/>
<path id="Vector_11" d="M125.833 155C141.942 155 155 141.942 155 125.834C155 109.725 141.942 96.667 125.833 96.667C109.725 96.667 96.6667 109.725 96.6667 125.834C96.6667 141.942 109.725 155 125.833 155Z" fill="url(#paint4_linear_1_563)"/>
<path id="Vector_12" d="M125.833 149.167C138.72 149.167 149.167 138.72 149.167 125.833C149.167 112.947 138.72 102.5 125.833 102.5C112.947 102.5 102.5 112.947 102.5 125.833C102.5 138.72 112.947 149.167 125.833 149.167Z" fill="url(#paint5_radial_1_563)"/>
<path id="Vector_13" d="M134.292 142.458C133.708 142.75 133.125 142.458 132.833 141.875L124.958 126.417C124.667 125.833 124.958 125.25 125.542 124.958C126.125 124.667 126.708 124.958 127 125.542L134.875 141C135.167 141.292 134.875 142.167 134.292 142.458Z" fill="#D83B01"/>
<path id="Vector_14" d="M125.833 127C125.542 127 125.25 127 124.958 126.708C124.667 126.417 124.667 125.542 124.958 125.25L137.208 113C137.5 112.708 138.375 112.708 138.667 113C138.958 113.292 138.958 114.167 138.667 114.458L126.417 126.708C126.417 126.708 126.125 127 125.833 127Z" fill="#45494D"/>
<path id="Vector_15" d="M125.833 127.584C125.542 127.584 125.25 127.584 124.958 127.292L113.583 121.75C112.708 121.459 112.417 120.292 112.708 119.417C113 118.542 114.167 118.25 115.042 118.542L126.417 124.084C127.292 124.375 127.583 125.542 127.292 126.417C127.292 127.292 126.417 127.584 125.833 127.584Z" fill="#45494D"/>
<path id="Vector_16" d="M125.833 128.75C127.444 128.75 128.75 127.444 128.75 125.834C128.75 124.223 127.444 122.917 125.833 122.917C124.222 122.917 122.917 124.223 122.917 125.834C122.917 127.444 124.222 128.75 125.833 128.75Z" fill="#1E2021"/>
<rect x="7.5" y="7.5" width="155" height="155" rx="12.5" stroke="#D5EAF6" stroke-width="15"/>
</g>
<defs>
<linearGradient id="paint0_linear_1_563" x1="85" y1="15" x2="85" y2="155" gradientUnits="userSpaceOnUse">
<stop stop-color="#199AE0"/>
<stop offset="0.472222" stop-color="#0D5176" stop-opacity="0.527778"/>
<stop offset="0.940972" stop-color="#12A6F7" stop-opacity="0.465278"/>
<stop offset="1" stop-opacity="0"/>
</linearGradient>
<linearGradient id="paint1_linear_1_563" x1="33.7075" y1="54.8475" x2="118.002" y2="116.415" gradientUnits="userSpaceOnUse">
<stop stop-color="#28AFEA"/>
<stop offset="1" stop-color="#047ED6"/>
</linearGradient>
<linearGradient id="paint2_linear_1_563" x1="33.725" y1="34.2733" x2="135.161" y2="54.9" gradientUnits="userSpaceOnUse">
<stop stop-color="#0077D2"/>
<stop offset="1" stop-color="#0B59A2"/>
</linearGradient>
<radialGradient id="paint3_radial_1_563" cx="0" cy="0" r="1" gradientUnits="userSpaceOnUse" gradientTransform="translate(124.643 124.923) scale(32.7658)">
<stop offset="0.847"/>
<stop offset="1" stop-opacity="0"/>
</radialGradient>
<linearGradient id="paint4_linear_1_563" x1="105.21" y1="105.21" x2="146.457" y2="146.457" gradientUnits="userSpaceOnUse">
<stop stop-color="#889097"/>
<stop offset="1" stop-color="#64717C"/>
</linearGradient>
<radialGradient id="paint5_radial_1_563" cx="0" cy="0" r="1" gradientUnits="userSpaceOnUse" gradientTransform="translate(125.682 103.042) scale(51.9983)">
<stop stop-color="#FAFAFB"/>
<stop offset="1" stop-color="#C8CDD1"/>
</radialGradient>
</defs>
</svg>
