<svg width="170" height="170" viewBox="0 0 170 170" fill="none" xmlns="http://www.w3.org/2000/svg">
<g id="exchange">
<rect x="7.5" y="7.5" width="155" height="155" rx="12.5" fill="white"/>
<rect x="7.5" y="7.5" width="155" height="155" rx="12.5" fill="url(#paint0_linear_1_552)" fill-opacity="0.2"/>
<path id="Vector" d="M128.75 144.92C128.75 146.105 130.182 146.697 131.016 145.857L141.951 134.864C142.905 133.901 142.905 132.35 141.951 131.39L131.016 120.397C130.182 119.554 128.75 120.146 128.75 121.33V144.92Z" fill="url(#paint1_linear_1_552)"/>
<path id="Vector_2" d="M40.5821 121.33C40.5821 120.146 39.15 119.554 38.3158 120.394L27.3812 131.387C26.4275 132.349 26.4275 133.901 27.3812 134.861L38.3158 145.854C39.15 146.697 40.5821 146.104 40.5821 144.92V121.33Z" fill="url(#paint2_linear_1_552)"/>
<path id="Vector_3" d="M52.9167 64.5837C60.9708 64.5837 67.5 58.0545 67.5 50.0003C67.5 41.9462 60.9708 35.417 52.9167 35.417C44.8625 35.417 38.3333 41.9462 38.3333 50.0003C38.3333 58.0545 44.8625 64.5837 52.9167 64.5837Z" fill="url(#paint3_linear_1_552)"/>
<path id="Vector_4" d="M52.9167 70.417C38.4179 70.417 26.6667 82.1682 26.6667 96.667V105.417C26.6667 108.64 29.2771 111.25 32.5 111.25H73.3333C76.5562 111.25 79.1667 108.64 79.1667 105.417V96.667C79.1667 82.1682 67.4154 70.417 52.9167 70.417Z" fill="url(#paint4_linear_1_552)"/>
<path id="Vector_5" d="M117.083 64.5837C125.137 64.5837 131.667 58.0545 131.667 50.0003C131.667 41.9462 125.137 35.417 117.083 35.417C109.029 35.417 102.5 41.9462 102.5 50.0003C102.5 58.0545 109.029 64.5837 117.083 64.5837Z" fill="url(#paint5_linear_1_552)"/>
<path id="Vector_6" d="M117.083 70.417C102.585 70.417 90.8333 82.1682 90.8333 96.667V105.417C90.8333 108.64 93.4438 111.25 96.6667 111.25H137.5C140.723 111.25 143.333 108.64 143.333 105.417V96.667C143.333 82.1682 131.582 70.417 117.083 70.417Z" fill="url(#paint6_linear_1_552)"/>
<path id="Vector_7" d="M60.2083 137.5H36.875C36.07 137.5 35.4167 136.847 35.4167 136.042V130.208C35.4167 129.403 36.07 128.75 36.875 128.75H60.2083C61.0133 128.75 61.6667 129.403 61.6667 130.208V136.042C61.6667 136.847 61.0133 137.5 60.2083 137.5Z" fill="url(#paint7_linear_1_552)"/>
<path id="Vector_8" d="M130.208 137.5H106.875C106.07 137.5 105.417 136.847 105.417 136.042V130.208C105.417 129.403 106.07 128.75 106.875 128.75H130.208C131.013 128.75 131.667 129.403 131.667 130.208V136.042C131.667 136.847 131.013 137.5 130.208 137.5Z" fill="url(#paint8_linear_1_552)"/>
<path id="Vector_9" d="M77.7083 137.5H71.875C71.07 137.5 70.4167 136.847 70.4167 136.042V130.208C70.4167 129.403 71.07 128.75 71.875 128.75H77.7083C78.5133 128.75 79.1667 129.403 79.1667 130.208V136.042C79.1667 136.847 78.5133 137.5 77.7083 137.5Z" fill="url(#paint9_linear_1_552)"/>
<path id="Vector_10" d="M95.2083 137.5H89.375C88.57 137.5 87.9167 136.847 87.9167 136.042V130.208C87.9167 129.403 88.57 128.75 89.375 128.75H95.2083C96.0133 128.75 96.6667 129.403 96.6667 130.208V136.042C96.6667 136.847 96.0133 137.5 95.2083 137.5Z" fill="url(#paint10_linear_1_552)"/>
<rect x="7.5" y="7.5" width="155" height="155" rx="12.5" stroke="#D5EAF6" stroke-width="15"/>
</g>
<defs>
<linearGradient id="paint0_linear_1_552" x1="85" y1="15" x2="85" y2="155" gradientUnits="userSpaceOnUse">
<stop stop-color="#199AE0"/>
<stop offset="0.472222" stop-color="#0D5176" stop-opacity="0.527778"/>
<stop offset="0.940972" stop-color="#12A6F7" stop-opacity="0.465278"/>
<stop offset="1" stop-opacity="0"/>
</linearGradient>
<linearGradient id="paint1_linear_1_552" x1="128.75" y1="133.125" x2="142.665" y2="133.125" gradientUnits="userSpaceOnUse">
<stop stop-color="#C965EB"/>
<stop offset="1" stop-color="#C767E5"/>
</linearGradient>
<linearGradient id="paint2_linear_1_552" x1="40.585" y1="133.125" x2="26.6696" y2="133.125" gradientUnits="userSpaceOnUse">
<stop stop-color="#C965EB"/>
<stop offset="1" stop-color="#C767E5"/>
</linearGradient>
<linearGradient id="paint3_linear_1_552" x1="43.0233" y1="40.107" x2="63.37" y2="60.4537" gradientUnits="userSpaceOnUse">
<stop stop-color="#0D61A9"/>
<stop offset="1" stop-color="#16528C"/>
</linearGradient>
<linearGradient id="paint4_linear_1_552" x1="35.0375" y1="78.9366" x2="71.8079" y2="115.704" gradientUnits="userSpaceOnUse">
<stop stop-color="#0D61A9"/>
<stop offset="1" stop-color="#16528C"/>
</linearGradient>
<linearGradient id="paint5_linear_1_552" x1="107.19" y1="40.107" x2="127.537" y2="60.4537" gradientUnits="userSpaceOnUse">
<stop stop-color="#32BDEF"/>
<stop offset="1" stop-color="#1EA2E4"/>
</linearGradient>
<linearGradient id="paint6_linear_1_552" x1="99.2042" y1="78.9366" x2="135.975" y2="115.704" gradientUnits="userSpaceOnUse">
<stop stop-color="#32BDEF"/>
<stop offset="1" stop-color="#1EA2E4"/>
</linearGradient>
<linearGradient id="paint7_linear_1_552" x1="35.4167" y1="133.125" x2="61.6667" y2="133.125" gradientUnits="userSpaceOnUse">
<stop stop-color="#C965EB"/>
<stop offset="1" stop-color="#C767E5"/>
</linearGradient>
<linearGradient id="paint8_linear_1_552" x1="105.417" y1="133.125" x2="131.667" y2="133.125" gradientUnits="userSpaceOnUse">
<stop stop-color="#C965EB"/>
<stop offset="1" stop-color="#C767E5"/>
</linearGradient>
<linearGradient id="paint9_linear_1_552" x1="70.4167" y1="133.125" x2="79.1667" y2="133.125" gradientUnits="userSpaceOnUse">
<stop stop-color="#C965EB"/>
<stop offset="1" stop-color="#C767E5"/>
</linearGradient>
<linearGradient id="paint10_linear_1_552" x1="87.9167" y1="133.125" x2="96.6667" y2="133.125" gradientUnits="userSpaceOnUse">
<stop stop-color="#C965EB"/>
<stop offset="1" stop-color="#C767E5"/>
</linearGradient>
</defs>
</svg>
