<svg width="170" height="170" viewBox="0 0 170 170" fill="none" xmlns="http://www.w3.org/2000/svg">
<g id="file-submodule">
<rect x="7.5" y="7.5" width="155" height="155" rx="12.5" fill="white"/>
<rect x="7.5" y="7.5" width="155" height="155" rx="12.5" fill="url(#paint0_linear_1_590)" fill-opacity="0.2"/>
<path id="Vector" d="M86.2075 45.3745L78.8108 37.9778C77.1717 36.3387 74.9463 35.417 72.6246 35.417H29.5833C26.3604 35.417 23.75 38.0274 23.75 41.2503V128.75C23.75 131.973 26.3604 134.584 29.5833 134.584H140.417C143.64 134.584 146.25 131.973 146.25 128.75V52.917C146.25 49.6941 143.64 47.0837 140.417 47.0837H90.3317C88.7858 47.0837 87.3013 46.4682 86.2075 45.3745Z" fill="url(#paint1_linear_1_590)"/>
<path id="Vector_2" d="M77.9592 57.0405L87.4908 47.5088C87.7621 47.2376 88.1325 47.083 88.5204 47.083H140.417C143.64 47.083 146.25 49.6934 146.25 52.9163V128.75C146.25 131.973 143.64 134.583 140.417 134.583H29.5833C26.3604 134.583 23.75 131.973 23.75 128.75V60.208C23.75 59.403 24.4033 58.7497 25.2083 58.7497H73.835C75.3808 58.7497 76.8654 58.1343 77.9592 57.0405Z" fill="url(#paint2_linear_1_590)"/>
<path id="Vector_3" d="M51.4583 99.5833H82.585C84.1308 99.5833 85.6154 98.9679 86.7062 97.8771L96.2408 88.3425C96.5121 88.0713 96.8825 87.9167 97.2704 87.9167H99.0817C97.5358 87.9167 96.0512 87.3012 94.9575 86.2075L87.5608 78.8108C85.9217 77.1717 83.6962 76.25 81.3775 76.25H55.8333C52.6104 76.25 50 78.8604 50 82.0833V101.042C50 100.237 50.6533 99.5833 51.4583 99.5833Z" fill="url(#paint3_linear_1_590)"/>
<path id="Vector_4" d="M97.2704 87.917C96.8825 87.917 96.5121 88.0716 96.2408 88.3428L86.7092 97.8745C85.6154 98.9682 84.1308 99.5837 82.585 99.5837H51.4583C50.6533 99.5837 50 100.237 50 101.042V134.584H140.417C143.64 134.584 146.25 131.973 146.25 128.75V87.917H97.2704Z" fill="url(#paint4_linear_1_590)"/>
<rect x="7.5" y="7.5" width="155" height="155" rx="12.5" stroke="#D5EAF6" stroke-width="15"/>
</g>
<defs>
<linearGradient id="paint0_linear_1_590" x1="85" y1="15" x2="85" y2="155" gradientUnits="userSpaceOnUse">
<stop stop-color="#199AE0"/>
<stop offset="0.472222" stop-color="#0D5176" stop-opacity="0.527778"/>
<stop offset="0.940972" stop-color="#12A6F7" stop-opacity="0.465278"/>
<stop offset="1" stop-opacity="0"/>
</linearGradient>
<linearGradient id="paint1_linear_1_590" x1="85" y1="34.5653" x2="85" y2="58.6832" gradientUnits="userSpaceOnUse">
<stop stop-color="#EBA600"/>
<stop offset="1" stop-color="#C28200"/>
</linearGradient>
<linearGradient id="paint2_linear_1_590" x1="85" y1="46.6572" x2="85" y2="134.533" gradientUnits="userSpaceOnUse">
<stop stop-color="#FFD869"/>
<stop offset="1" stop-color="#D99800"/>
</linearGradient>
<linearGradient id="paint3_linear_1_590" x1="74.5408" y1="97.9121" x2="74.5408" y2="78.1925" gradientUnits="userSpaceOnUse">
<stop stop-color="#C28200"/>
<stop offset="1" stop-color="#EBA600"/>
</linearGradient>
<linearGradient id="paint4_linear_1_590" x1="98.125" y1="134.811" x2="98.125" y2="91.6328" gradientUnits="userSpaceOnUse">
<stop stop-color="#FEC52B"/>
<stop offset="1" stop-color="#FFD869"/>
</linearGradient>
</defs>
</svg>
