<svg width="170" height="170" viewBox="0 0 170 170" fill="none" xmlns="http://www.w3.org/2000/svg">
<g id="filter">
<rect x="7.5" y="7.5" width="155" height="155" rx="12.5" fill="white"/>
<rect x="7.5" y="7.5" width="155" height="155" rx="12.5" fill="url(#paint0_linear_1_586)" fill-opacity="0.2"/>
<path id="Vector" d="M137.5 44.1667H32.5C29.2771 44.1667 26.6667 41.5563 26.6667 38.3333C26.6667 35.1104 29.2771 32.5 32.5 32.5H137.5C140.723 32.5 143.333 35.1104 143.333 38.3333C143.333 41.5563 140.723 44.1667 137.5 44.1667Z" fill="url(#paint1_linear_1_586)"/>
<path id="Vector_2" d="M96.6667 93.7503H73.3333L35.4167 44.167H134.583L96.6667 93.7503Z" fill="url(#paint2_linear_1_586)"/>
<path id="Vector_3" d="M96.6667 93.75H73.3333V140.414C73.3333 142.581 75.6142 143.993 77.5537 143.021L93.4408 135.076C95.4183 134.09 96.6667 132.069 96.6667 129.861V93.75Z" fill="url(#paint3_linear_1_586)"/>
<rect x="7.5" y="7.5" width="155" height="155" rx="12.5" stroke="#D5EAF6" stroke-width="15"/>
</g>
<defs>
<linearGradient id="paint0_linear_1_586" x1="85" y1="15" x2="85" y2="155" gradientUnits="userSpaceOnUse">
<stop stop-color="#199AE0"/>
<stop offset="0.472222" stop-color="#0D5176" stop-opacity="0.527778"/>
<stop offset="0.940972" stop-color="#12A6F7" stop-opacity="0.465278"/>
<stop offset="1" stop-opacity="0"/>
</linearGradient>
<linearGradient id="paint1_linear_1_586" x1="26.6667" y1="38.3333" x2="143.333" y2="38.3333" gradientUnits="userSpaceOnUse">
<stop stop-color="#42A3F2"/>
<stop offset="1" stop-color="#42A4EB"/>
</linearGradient>
<linearGradient id="paint2_linear_1_586" x1="37.1462" y1="68.9587" x2="136.978" y2="68.9587" gradientUnits="userSpaceOnUse">
<stop stop-color="#3079D6"/>
<stop offset="1" stop-color="#297CD2"/>
</linearGradient>
<linearGradient id="paint3_linear_1_586" x1="73.3333" y1="118.542" x2="96.6667" y2="118.542" gradientUnits="userSpaceOnUse">
<stop stop-color="#1D59B3"/>
<stop offset="1" stop-color="#195BBC"/>
</linearGradient>
</defs>
</svg>
