<svg width="170" height="170" viewBox="0 0 170 170" fill="none" xmlns="http://www.w3.org/2000/svg">
<g id="fit-columns">
<rect x="7.5" y="7.5" width="155" height="155" rx="12.5" fill="white"/>
<rect x="7.5" y="7.5" width="155" height="155" rx="12.5" fill="url(#paint0_linear_1_630)" fill-opacity="0.2"/>
<path id="Vector" d="M26.6667 85.0003V132.032C26.6667 135.053 29.4025 137.5 32.7771 137.5H137.223C140.597 137.5 143.333 135.053 143.333 132.032V85.0003L85 79.167L26.6667 85.0003Z" fill="#50E6FF"/>
<path id="Vector_2" d="M58.75 64.583H52.9167V137.5H58.75V64.583Z" fill="#35C1F1"/>
<path id="Vector_3" d="M87.9167 64.583H82.0833V137.5H87.9167V64.583Z" fill="#35C1F1"/>
<path id="Vector_4" d="M117.083 64.583H111.25V137.5H117.083V64.583Z" fill="#35C1F1"/>
<path id="Vector_5" d="M26.6667 84.9997V70.4163C26.6667 67.1934 29.2771 64.583 32.5 64.583H137.5C140.723 64.583 143.333 67.1934 143.333 70.4163V84.9997H26.6667Z" fill="#199BE2"/>
<path id="Vector_6" d="M58.75 64.583H52.9167V84.9997H58.75V64.583Z" fill="#0077D1"/>
<path id="Vector_7" d="M87.9167 64.583H82.0833V84.9997H87.9167V64.583Z" fill="#0077D1"/>
<path id="Vector_8" d="M117.083 64.583H111.25V84.9997H117.083V64.583Z" fill="#0077D1"/>
<path id="Vector_9" d="M141.875 58.7503H138.958C138.153 58.7503 137.5 58.097 137.5 57.292V28.1253C137.5 27.3203 138.153 26.667 138.958 26.667H141.875C142.68 26.667 143.333 27.3203 143.333 28.1253V57.292C143.333 58.097 142.68 58.7503 141.875 58.7503Z" fill="#AD4BD5"/>
<path id="Vector_10" d="M31.0417 58.7503H28.125C27.32 58.7503 26.6667 58.097 26.6667 57.292V28.1253C26.6667 27.3203 27.32 26.667 28.125 26.667H31.0417C31.8467 26.667 32.5 27.3203 32.5 28.1253V57.292C32.5 58.097 31.8467 58.7503 31.0417 58.7503Z" fill="#AD4BD5"/>
<path id="Vector_11" d="M130.725 40.6257L120.058 30.1694C118.95 29.0844 117.083 29.869 117.083 31.4207V38.3332H52.9167V31.4207C52.9167 29.869 51.05 29.0844 49.9417 30.1694L39.2754 40.6257C38.1087 41.769 38.1087 43.6473 39.2754 44.7907L49.9417 55.2469C51.05 56.3319 52.9167 55.5473 52.9167 53.9957V47.0832H117.083V53.9957C117.083 55.5473 118.95 56.3319 120.058 55.2469L130.725 44.7907C131.891 43.6473 131.891 41.769 130.725 40.6257Z" fill="url(#paint1_linear_1_630)"/>
<rect x="7.5" y="7.5" width="155" height="155" rx="12.5" stroke="#D5EAF6" stroke-width="15"/>
</g>
<defs>
<linearGradient id="paint0_linear_1_630" x1="85" y1="15" x2="85" y2="155" gradientUnits="userSpaceOnUse">
<stop stop-color="#199AE0"/>
<stop offset="0.472222" stop-color="#0D5176" stop-opacity="0.527778"/>
<stop offset="0.940972" stop-color="#12A6F7" stop-opacity="0.465278"/>
<stop offset="1" stop-opacity="0"/>
</linearGradient>
<linearGradient id="paint1_linear_1_630" x1="38.4004" y1="42.7082" x2="131.6" y2="42.7082" gradientUnits="userSpaceOnUse">
<stop stop-color="#C965EB"/>
<stop offset="1" stop-color="#C767E5"/>
</linearGradient>
</defs>
</svg>
