<svg width="170" height="170" viewBox="0 0 170 170" fill="none" xmlns="http://www.w3.org/2000/svg">
<g id="folder-tree">
<rect x="7.5" y="7.5" width="155" height="155" rx="12.5" fill="white"/>
<rect x="7.5" y="7.5" width="155" height="155" rx="12.5" fill="url(#paint0_linear_1_598)" fill-opacity="0.2"/>
<path id="Vector" d="M99.5833 85.0003V79.167H52.9167V52.917H47.0833V128.75C47.0833 130.36 48.39 131.667 50 131.667H99.5833V125.834H52.9167V85.0003H99.5833Z" fill="url(#paint1_linear_1_598)"/>
<path id="Vector_2" d="M68.9583 35.4167H50L47.9379 33.3546C47.3896 32.8063 46.6488 32.5 45.8758 32.5H32.5C30.89 32.5 29.5833 33.8067 29.5833 35.4167V60.2083C29.5833 62.6146 31.5521 64.5833 33.9583 64.5833H68.9583C71.3646 64.5833 73.3333 62.6146 73.3333 60.2083V39.7917C73.3333 37.3854 71.3646 35.4167 68.9583 35.4167Z" fill="url(#paint2_linear_1_598)"/>
<path id="Vector_3" d="M68.9583 35.4167L50 35.3525L47.6638 37.5459C47.1213 38.0505 46.4096 38.3334 45.6658 38.3334H32.5C30.89 38.3334 29.5833 39.64 29.5833 41.25V60.2084C29.5833 62.6146 31.5521 64.5834 33.9583 64.5834H68.9583C71.3646 64.5834 73.3333 62.6146 73.3333 60.2084V39.7917C73.3333 37.4584 71.2917 35.4167 68.9583 35.4167Z" fill="url(#paint3_linear_1_598)"/>
<path id="Vector_4" d="M138.958 67.4997H120L117.938 65.4376C117.39 64.8893 116.649 64.583 115.876 64.583H102.5C100.89 64.583 99.5833 65.8897 99.5833 67.4997V92.2913C99.5833 94.6976 101.552 96.6663 103.958 96.6663H138.958C141.365 96.6663 143.333 94.6976 143.333 92.2913V71.8747C143.333 69.4684 141.365 67.4997 138.958 67.4997Z" fill="url(#paint4_linear_1_598)"/>
<path id="Vector_5" d="M138.958 67.4997L120 67.4355L117.664 69.6289C117.121 70.1335 116.41 70.4164 115.666 70.4164H102.5C100.89 70.4164 99.5833 71.723 99.5833 73.333V92.2914C99.5833 94.6976 101.552 96.6664 103.958 96.6664H138.958C141.365 96.6664 143.333 94.6976 143.333 92.2914V71.8747C143.333 69.5414 141.292 67.4997 138.958 67.4997Z" fill="url(#paint5_linear_1_598)"/>
<path id="Vector_6" d="M138.958 114.167H120L117.938 112.105C117.39 111.556 116.649 111.25 115.876 111.25H102.5C100.89 111.25 99.5833 112.557 99.5833 114.167V138.958C99.5833 141.365 101.552 143.333 103.958 143.333H138.958C141.365 143.333 143.333 141.365 143.333 138.958V118.542C143.333 116.135 141.365 114.167 138.958 114.167Z" fill="url(#paint6_linear_1_598)"/>
<path id="Vector_7" d="M138.958 114.167L120 114.103L117.664 116.296C117.121 116.8 116.41 117.083 115.666 117.083H102.5C100.89 117.083 99.5833 118.39 99.5833 120V138.958C99.5833 141.365 101.552 143.333 103.958 143.333H138.958C141.365 143.333 143.333 141.365 143.333 138.958V118.542C143.333 116.208 141.292 114.167 138.958 114.167Z" fill="url(#paint7_linear_1_598)"/>
<rect x="7.5" y="7.5" width="155" height="155" rx="12.5" stroke="#D5EAF6" stroke-width="15"/>
</g>
<defs>
<linearGradient id="paint0_linear_1_598" x1="85" y1="15" x2="85" y2="155" gradientUnits="userSpaceOnUse">
<stop stop-color="#199AE0"/>
<stop offset="0.472222" stop-color="#0D5176" stop-opacity="0.527778"/>
<stop offset="0.940972" stop-color="#12A6F7" stop-opacity="0.465278"/>
<stop offset="1" stop-opacity="0"/>
</linearGradient>
<linearGradient id="paint1_linear_1_598" x1="25.4533" y1="92.292" x2="100.42" y2="92.292" gradientUnits="userSpaceOnUse">
<stop stop-color="#A1AAB3"/>
<stop offset="1" stop-color="#8F979E"/>
</linearGradient>
<linearGradient id="paint2_linear_1_598" x1="29.5833" y1="48.5417" x2="73.3333" y2="48.5417" gradientUnits="userSpaceOnUse">
<stop stop-color="#EBA600"/>
<stop offset="1" stop-color="#C28200"/>
</linearGradient>
<linearGradient id="paint3_linear_1_598" x1="48.5563" y1="34.8742" x2="53.9638" y2="63.093" gradientUnits="userSpaceOnUse">
<stop stop-color="#FFD869"/>
<stop offset="1" stop-color="#FEC52B"/>
</linearGradient>
<linearGradient id="paint4_linear_1_598" x1="99.5833" y1="80.6247" x2="143.333" y2="80.6247" gradientUnits="userSpaceOnUse">
<stop stop-color="#EBA600"/>
<stop offset="1" stop-color="#C28200"/>
</linearGradient>
<linearGradient id="paint5_linear_1_598" x1="118.556" y1="66.9572" x2="123.964" y2="95.176" gradientUnits="userSpaceOnUse">
<stop stop-color="#FFD869"/>
<stop offset="1" stop-color="#FEC52B"/>
</linearGradient>
<linearGradient id="paint6_linear_1_598" x1="99.5833" y1="127.292" x2="143.333" y2="127.292" gradientUnits="userSpaceOnUse">
<stop stop-color="#EBA600"/>
<stop offset="1" stop-color="#C28200"/>
</linearGradient>
<linearGradient id="paint7_linear_1_598" x1="118.556" y1="113.624" x2="123.964" y2="141.843" gradientUnits="userSpaceOnUse">
<stop stop-color="#FFD869"/>
<stop offset="1" stop-color="#FEC52B"/>
</linearGradient>
</defs>
</svg>
