<svg width="170" height="170" viewBox="0 0 170 170" fill="none" xmlns="http://www.w3.org/2000/svg">
<g id="full-page-view">
<rect x="7.5" y="7.5" width="155" height="155" rx="12.5" fill="white"/>
<rect x="7.5" y="7.5" width="155" height="155" rx="12.5" fill="url(#paint0_linear_1_613)" fill-opacity="0.2"/>
<path id="Vector" d="M125.833 38.333H44.1667C34.5417 38.333 26.6667 46.208 26.6667 55.833V114.166C26.6667 123.791 34.5417 131.666 44.1667 131.666H125.833C135.458 131.666 143.333 123.791 143.333 114.166V55.833C143.333 46.208 135.458 38.333 125.833 38.333Z" fill="#50E6FF"/>
<path id="Vector_2" d="M33.9583 105.417H39.7917C40.5967 105.417 41.25 106.07 41.25 106.875V117.084H32.5V106.875C32.5 106.07 33.1533 105.417 33.9583 105.417Z" fill="url(#paint1_linear_1_613)"/>
<path id="Vector_3" d="M136.042 105.417H130.208C129.403 105.417 128.75 106.07 128.75 106.875V117.084H137.5V106.875C137.5 106.07 136.847 105.417 136.042 105.417Z" fill="url(#paint2_linear_1_613)"/>
<path id="Vector_4" d="M33.9583 64.5837H39.7917C40.5967 64.5837 41.25 63.9303 41.25 63.1253V52.917H32.5V63.1253C32.5 63.9303 33.1533 64.5837 33.9583 64.5837Z" fill="url(#paint3_linear_1_613)"/>
<path id="Vector_5" d="M136.042 64.5837H130.208C129.403 64.5837 128.75 63.9303 128.75 63.1253V52.917H137.5V63.1253C137.5 63.9303 136.847 64.5837 136.042 64.5837Z" fill="url(#paint4_linear_1_613)"/>
<path id="Vector_6" d="M51.4583 117.083H32.5C36.875 122.552 40.1563 125.833 44.5313 125.833H51.4583C52.2633 125.833 52.9167 125.18 52.9167 124.375V118.541C52.9167 117.736 52.2633 117.083 51.4583 117.083Z" fill="url(#paint5_linear_1_613)"/>
<path id="Vector_7" d="M117.083 118.541V124.375C117.083 125.18 117.737 125.833 118.542 125.833H125.469C129.844 125.833 133.125 122.552 137.5 117.083H118.542C117.737 117.083 117.083 117.736 117.083 118.541Z" fill="url(#paint6_linear_1_613)"/>
<path id="Vector_8" d="M52.9167 51.4587V45.6253C52.9167 44.8203 52.2633 44.167 51.4583 44.167H44.5313C40.1563 44.167 36.875 47.4482 32.5 52.917H51.4583C52.2633 52.917 52.9167 52.2637 52.9167 51.4587Z" fill="url(#paint7_linear_1_613)"/>
<path id="Vector_9" d="M118.542 52.917H137.5C133.125 47.4482 129.844 44.167 125.469 44.167H118.542C117.737 44.167 117.083 44.8203 117.083 45.6253V51.4587C117.083 52.2637 117.737 52.917 118.542 52.917Z" fill="url(#paint8_linear_1_613)"/>
<path id="Vector_10" d="M52.9167 51.4587V45.6253C52.9167 44.8203 52.2633 44.167 51.4583 44.167H44.5313C40.1563 44.167 36.875 47.4482 32.5 52.917H51.4583C52.2633 52.917 52.9167 52.2637 52.9167 51.4587Z" fill="url(#paint9_linear_1_613)"/>
<rect x="7.5" y="7.5" width="155" height="155" rx="12.5" stroke="#D5EAF6" stroke-width="15"/>
</g>
<defs>
<linearGradient id="paint0_linear_1_613" x1="85" y1="15" x2="85" y2="155" gradientUnits="userSpaceOnUse">
<stop stop-color="#199AE0"/>
<stop offset="0.472222" stop-color="#0D5176" stop-opacity="0.527778"/>
<stop offset="0.940972" stop-color="#12A6F7" stop-opacity="0.465278"/>
<stop offset="1" stop-opacity="0"/>
</linearGradient>
<linearGradient id="paint1_linear_1_613" x1="36.875" y1="105.417" x2="36.875" y2="117.084" gradientUnits="userSpaceOnUse">
<stop offset="0.478" stop-color="#199AE0"/>
<stop offset="0.868" stop-color="#1186CC"/>
<stop offset="1" stop-color="#076CB3"/>
</linearGradient>
<linearGradient id="paint2_linear_1_613" x1="133.125" y1="105.417" x2="133.125" y2="117.084" gradientUnits="userSpaceOnUse">
<stop offset="0.478" stop-color="#199AE0"/>
<stop offset="0.868" stop-color="#1186CC"/>
<stop offset="1" stop-color="#076CB3"/>
</linearGradient>
<linearGradient id="paint3_linear_1_613" x1="36.875" y1="64.5837" x2="36.875" y2="52.917" gradientUnits="userSpaceOnUse">
<stop offset="0.478" stop-color="#199AE0"/>
<stop offset="0.868" stop-color="#1186CC"/>
<stop offset="1" stop-color="#076CB3"/>
</linearGradient>
<linearGradient id="paint4_linear_1_613" x1="133.125" y1="64.5837" x2="133.125" y2="52.917" gradientUnits="userSpaceOnUse">
<stop offset="0.478" stop-color="#199AE0"/>
<stop offset="0.868" stop-color="#1186CC"/>
<stop offset="1" stop-color="#076CB3"/>
</linearGradient>
<linearGradient id="paint5_linear_1_613" x1="39.3163" y1="98.5126" x2="44.1404" y2="125.871" gradientUnits="userSpaceOnUse">
<stop stop-color="#32BDEF"/>
<stop offset="0.661" stop-color="#25ABE8"/>
<stop offset="1" stop-color="#1EA2E4"/>
</linearGradient>
<linearGradient id="paint6_linear_1_613" x1="123.908" y1="101.601" x2="127.939" y2="124.462" gradientUnits="userSpaceOnUse">
<stop stop-color="#32BDEF"/>
<stop offset="0.661" stop-color="#25ABE8"/>
<stop offset="1" stop-color="#1EA2E4"/>
</linearGradient>
<linearGradient id="paint7_linear_1_613" x1="39.3979" y1="30.4295" x2="43.4288" y2="53.2903" gradientUnits="userSpaceOnUse">
<stop stop-color="#32BDEF"/>
<stop offset="0.661" stop-color="#25ABE8"/>
<stop offset="1" stop-color="#1EA2E4"/>
</linearGradient>
<linearGradient id="paint8_linear_1_613" x1="122.672" y1="26.0487" x2="127.496" y2="53.407" gradientUnits="userSpaceOnUse">
<stop stop-color="#32BDEF"/>
<stop offset="0.661" stop-color="#25ABE8"/>
<stop offset="1" stop-color="#1EA2E4"/>
</linearGradient>
<linearGradient id="paint9_linear_1_613" x1="39.3979" y1="30.4295" x2="43.4288" y2="53.2903" gradientUnits="userSpaceOnUse">
<stop stop-color="#32BDEF"/>
<stop offset="0.661" stop-color="#25ABE8"/>
<stop offset="1" stop-color="#1EA2E4"/>
</linearGradient>
</defs>
</svg>
