<svg width="170" height="170" viewBox="0 0 170 170" fill="none" xmlns="http://www.w3.org/2000/svg">
<g id="gas">
<rect x="7.5" y="7.5" width="155" height="155" rx="12.5" fill="white"/>
<rect x="7.5" y="7.5" width="155" height="155" rx="12.5" fill="url(#paint0_linear_1_610)" fill-opacity="0.2"/>
<path id="Vector" d="M76.3229 30.2545C76.2762 30.0882 76.25 29.7995 76.25 29.5837C76.25 27.9737 77.5567 26.667 79.1667 26.667C79.8521 26.667 80.3333 26.9237 80.52 26.9966C84.0871 28.3907 108.581 39.9407 102.917 73.3337C111.142 68.3782 108.202 58.7503 110.891 58.7503C111.903 58.7503 112.315 59.1266 112.933 60.0103C121.937 72.8553 128.75 88.1707 128.75 102.5C128.75 126.662 109.162 146.25 85 146.25C58.4321 146.25 41.25 123.871 41.25 102.5C41.25 66.9549 83.1421 60.3924 76.3229 30.2545Z" fill="url(#paint1_linear_1_610)"/>
<path id="Vector_2" d="M83.8887 76.8742C83.8887 76.8742 83.1537 76.25 82.0833 76.25C80.4733 76.25 79.1667 77.5567 79.1667 79.1667C82.0833 96.6667 61.6667 102.5 61.6667 122.917C61.6667 135.803 72.1142 146.25 85 146.25C97.8858 146.25 108.333 135.803 108.333 122.917C108.333 106.292 93.6887 84.0988 83.8887 76.8742Z" fill="url(#paint2_linear_1_610)"/>
<rect x="7.5" y="7.5" width="155" height="155" rx="12.5" stroke="#D5EAF6" stroke-width="15"/>
</g>
<defs>
<linearGradient id="paint0_linear_1_610" x1="85" y1="15" x2="85" y2="155" gradientUnits="userSpaceOnUse">
<stop stop-color="#199AE0"/>
<stop offset="0.472222" stop-color="#0D5176" stop-opacity="0.527778"/>
<stop offset="0.940972" stop-color="#12A6F7" stop-opacity="0.465278"/>
<stop offset="1" stop-opacity="0"/>
</linearGradient>
<linearGradient id="paint1_linear_1_610" x1="85" y1="26.4162" x2="85" y2="145.819" gradientUnits="userSpaceOnUse">
<stop stop-color="#2AA4F4"/>
<stop offset="1" stop-color="#007AD9"/>
</linearGradient>
<linearGradient id="paint2_linear_1_610" x1="85" y1="77.7725" x2="85" y2="145.317" gradientUnits="userSpaceOnUse">
<stop stop-color="#A3FFFF"/>
<stop offset="0.223" stop-color="#9DFBFF"/>
<stop offset="0.53" stop-color="#8BF1FF"/>
<stop offset="0.885" stop-color="#6EE0FF"/>
<stop offset="1" stop-color="#63DAFF"/>
</linearGradient>
</defs>
</svg>
