<svg width="170" height="170" viewBox="0 0 170 170" fill="none" xmlns="http://www.w3.org/2000/svg">
<g id="get-help">
<rect x="7.5" y="7.5" width="155" height="155" rx="12.5" fill="white"/>
<rect x="7.5" y="7.5" width="155" height="155" rx="12.5" fill="url(#paint0_linear_1_606)" fill-opacity="0.2"/>
<path id="Vector" d="M68.9583 23.75C47.2117 23.75 29.5833 41.3783 29.5833 63.125C29.5833 69.1304 30.9658 74.7975 33.3721 79.89C33.3342 79.9775 33.2875 80.0475 33.2554 80.1467L24.0183 101.164C22.875 103.766 25.6254 106.365 28.1571 105.075L46.7333 95.6167C53.0596 99.9538 60.7071 102.5 68.9583 102.5C90.705 102.5 108.333 84.8717 108.333 63.125C108.333 41.3783 90.705 23.75 68.9583 23.75Z" fill="url(#paint1_linear_1_606)"/>
<path id="Vector_2" d="M145.985 142.543L135.318 118.276C138.57 112.285 140.417 105.419 140.417 98.1247C140.417 74.768 121.482 55.833 98.125 55.833C74.7683 55.833 55.8333 74.768 55.8333 98.1247C55.8333 121.481 74.7683 140.416 98.125 140.416C105.746 140.416 112.877 138.372 119.052 134.846L141.846 146.451C144.377 147.74 147.128 145.141 145.985 142.543Z" fill="url(#paint2_linear_1_606)"/>
<path id="Vector_3" d="M94.2342 107.601C94.0417 107.099 93.6275 105.612 93.6275 104.139C93.6275 95.7564 102.258 95.4355 102.258 89.2172C102.258 85.303 98.3904 85.061 97.6992 85.061C93.3067 85.061 89.8767 87.5722 88.4358 88.841V80.1522C89.9175 79.2685 93.3067 77.498 98.7113 77.498C111.224 77.498 111.381 86.0993 111.381 87.9455C111.381 97.8739 101.135 98.6118 101.135 104.973C101.135 106.3 101.616 107.271 101.826 107.598H94.2342V107.601ZM98.4458 121.248C96.0629 121.248 93.5458 119.761 93.5458 116.876C93.5458 113.988 96.1621 112.556 98.4458 112.556C100.73 112.556 103.267 113.837 103.267 116.876C103.267 119.915 100.829 121.248 98.4458 121.248Z" fill="white"/>
<rect x="7.5" y="7.5" width="155" height="155" rx="12.5" stroke="#D5EAF6" stroke-width="15"/>
</g>
<defs>
<linearGradient id="paint0_linear_1_606" x1="85" y1="15" x2="85" y2="155" gradientUnits="userSpaceOnUse">
<stop stop-color="#199AE0"/>
<stop offset="0.472222" stop-color="#0D5176" stop-opacity="0.527778"/>
<stop offset="0.940972" stop-color="#12A6F7" stop-opacity="0.465278"/>
<stop offset="1" stop-opacity="0"/>
</linearGradient>
<linearGradient id="paint1_linear_1_606" x1="44.1579" y1="32.3075" x2="78.525" y2="105.108" gradientUnits="userSpaceOnUse">
<stop stop-color="#0176D0"/>
<stop offset="1" stop-color="#22A5E2"/>
</linearGradient>
<linearGradient id="paint2_linear_1_606" x1="76.5533" y1="61.7422" x2="128.887" y2="150.006" gradientUnits="userSpaceOnUse">
<stop stop-color="#0176D0"/>
<stop offset="1" stop-color="#16538C"/>
</linearGradient>
</defs>
</svg>
