<svg width="170" height="170" viewBox="0 0 170 170" fill="none" xmlns="http://www.w3.org/2000/svg">
<g id="google-calendar-2">
<rect x="7.5" y="7.5" width="155" height="155" rx="12.5" fill="white"/>
<rect x="7.5" y="7.5" width="155" height="155" rx="12.5" fill="url(#paint0_linear_1_642)" fill-opacity="0.2"/>
<path id="Vector" d="M117.083 52.917H52.9167V117.084H117.083V52.917Z" fill="white"/>
<path id="Vector_2" d="M89.9 76.0169L92.84 80.2169L97.46 76.8569V101.217H102.5V69.2969H98.3L89.9 76.0169Z" fill="#1E88E5"/>
<path id="Vector_3" d="M81.9171 84.2566C83.74 82.5825 84.8717 80.2608 84.8717 77.697C84.8717 72.6016 80.4004 68.457 74.9054 68.457C70.2329 68.457 66.2371 71.4 65.1929 75.6116L70.0258 76.8395C70.5071 74.9029 72.5575 73.497 74.9054 73.497C77.6529 73.497 79.89 75.3812 79.89 77.697C79.89 80.0129 77.6529 81.897 74.9054 81.897H71.9975V86.937H74.9054C78.0583 86.937 80.7183 89.1275 80.7183 91.7204C80.7183 94.357 78.1925 96.5037 75.0862 96.5037C72.2804 96.5037 69.8829 94.7245 69.5037 92.3679L64.5833 93.1729C65.3475 97.9445 69.8625 101.544 75.0833 101.544C80.9371 101.544 85.7 97.1366 85.7 91.7204C85.7 88.7366 84.23 86.0591 81.9171 84.2566Z" fill="#1E88E5"/>
<path id="Vector_4" d="M114.167 137.5H55.8333L52.9167 125.834L55.8333 114.167H114.167L117.083 125.834L114.167 137.5Z" fill="#FBC02D"/>
<path id="Vector_5" d="M125.833 117.084L137.5 114.167V55.8337L125.833 52.917L114.167 55.8337V114.167L125.833 117.084Z" fill="#4CAF50"/>
<path id="Vector_6" d="M114.167 55.8333L117.083 44.1667L114.167 32.5H41.25C36.4171 32.5 32.5 36.4171 32.5 41.25V114.167L44.1667 117.083L55.8333 114.167V55.8333H114.167Z" fill="#1E88E5"/>
<path id="Vector_7" d="M114.167 114.167V137.5L137.5 114.167H114.167Z" fill="#E53935"/>
<path id="Vector_8" d="M128.75 32.5H114.167V55.8333H137.5V41.25C137.5 36.4171 133.583 32.5 128.75 32.5Z" fill="#1565C0"/>
<path id="Vector_9" d="M41.25 137.5H55.8333V114.167H32.5V128.75C32.5 133.583 36.4171 137.5 41.25 137.5Z" fill="#1565C0"/>
<rect x="7.5" y="7.5" width="155" height="155" rx="12.5" stroke="#D5EAF6" stroke-width="15"/>
</g>
<defs>
<linearGradient id="paint0_linear_1_642" x1="85" y1="15" x2="85" y2="155" gradientUnits="userSpaceOnUse">
<stop stop-color="#199AE0"/>
<stop offset="0.472222" stop-color="#0D5176" stop-opacity="0.527778"/>
<stop offset="0.940972" stop-color="#12A6F7" stop-opacity="0.465278"/>
<stop offset="1" stop-opacity="0"/>
</linearGradient>
</defs>
</svg>
