<svg width="170" height="170" viewBox="0 0 170 170" fill="none" xmlns="http://www.w3.org/2000/svg">
<g id="group-folder">
<g clip-path="url(#clip0_1_665)">
<rect x="15" y="15" width="140" height="140" rx="5" fill="white"/>
<rect x="15" y="15" width="140" height="140" rx="5" fill="url(#paint0_linear_1_665)" fill-opacity="0.2"/>
<path id="Vector" d="M86.2075 45.3745L78.8108 37.9778C77.1717 36.3387 74.9462 35.417 72.6246 35.417H32.5C29.2771 35.417 26.6667 38.0274 26.6667 41.2503V60.2087L32.5 122.917C32.5 126.14 35.1104 128.75 38.3333 128.75H131.667C134.89 128.75 137.5 126.14 137.5 122.917V55.8337C137.5 52.6107 134.89 50.0003 131.667 50.0003L90.3317 47.0837C88.7858 47.0837 87.3012 46.4682 86.2075 45.3745Z" fill="url(#paint1_linear_1_665)"/>
<path id="Vector_2" d="M77.9592 57.0405L87.4908 47.5088C87.7621 47.2376 88.1325 47.083 88.5204 47.083H137.5C140.723 47.083 143.333 49.6934 143.333 52.9163V128.75C143.333 131.973 140.723 134.583 137.5 134.583H32.5C29.2771 134.583 26.6667 131.973 26.6667 128.75V60.208C26.6667 59.403 27.32 58.7497 28.125 58.7497H73.835C75.3808 58.7497 76.8654 58.1343 77.9592 57.0405Z" fill="url(#paint2_linear_1_665)"/>
<path id="Vector_3" opacity="0.05" d="M137.5 105.417C131.054 105.417 125.833 110.638 125.833 117.083C125.833 123.471 130.967 128.663 137.354 128.75H137.5C139.629 128.75 141.613 128.167 143.333 127.175V106.992C141.613 106 139.629 105.417 137.5 105.417ZM137.5 128.75H137.354C134.35 128.75 131.346 129.421 128.633 130.704C124.2 125.746 117.929 122.917 111.25 122.917C102.646 122.917 95.0917 127.613 91.0667 134.583H137.5C140.417 134.583 142.867 132.425 143.275 129.596C141.437 129.071 139.513 128.75 137.5 128.75ZM111.25 93.75C103.2 93.75 96.6667 100.283 96.6667 108.333C96.6667 116.383 103.2 122.917 111.25 122.917C119.3 122.917 125.833 116.383 125.833 108.333C125.833 100.283 119.3 93.75 111.25 93.75Z" fill="black"/>
<path id="Vector_4" opacity="0.07" d="M137.5 106.875C131.871 106.875 127.292 111.454 127.292 117.083C127.292 122.712 131.871 127.291 137.5 127.291C139.658 127.291 141.7 126.621 143.333 125.425V108.741C141.7 107.546 139.658 106.875 137.5 106.875ZM137.354 130.208C134.175 130.208 131.054 130.996 128.283 132.541C124.142 127.408 117.871 124.375 111.25 124.375C103.463 124.375 96.6375 128.429 92.7875 134.583H137.5C139.921 134.583 141.992 133.096 142.867 130.996C141.117 130.5 139.279 130.208 137.354 130.208ZM111.25 95.208C104.017 95.208 98.125 101.1 98.125 108.333C98.125 115.566 104.017 121.458 111.25 121.458C118.483 121.458 124.375 115.566 124.375 108.333C124.375 101.1 118.483 95.208 111.25 95.208Z" fill="black"/>
<path id="Vector_5" d="M111.25 120C117.693 120 122.917 114.777 122.917 108.334C122.917 101.89 117.693 96.667 111.25 96.667C104.807 96.667 99.5833 101.89 99.5833 108.334C99.5833 114.777 104.807 120 111.25 120Z" fill="url(#paint3_linear_1_665)"/>
<path id="Vector_6" d="M137.354 131.667C127.811 131.667 120 139.349 120 148.741V152.439C120 153.863 121.158 155 122.605 155H152.398C153.842 155 155 153.863 155 152.439V148.741C154.711 139.067 146.9 131.667 137.354 131.667Z" fill="#0078D4"/>
<path id="Vector_7" d="M111.25 125.833C99.9742 125.833 90.8333 134.974 90.8333 146.25V152.083C90.8333 153.693 92.14 155 93.75 155H128.75C130.36 155 131.667 153.693 131.667 152.083V146.25C131.667 134.974 122.526 125.833 111.25 125.833Z" fill="url(#paint4_linear_1_665)"/>
<path id="Vector_8" d="M137.5 125.833C142.332 125.833 146.25 121.915 146.25 117.083C146.25 112.251 142.332 108.333 137.5 108.333C132.668 108.333 128.75 112.251 128.75 117.083C128.75 121.915 132.668 125.833 137.5 125.833Z" fill="#0078D4"/>
</g>
<rect x="7.5" y="7.5" width="155" height="155" rx="12.5" stroke="#D5EAF6" stroke-width="15"/>
</g>
<defs>
<linearGradient id="paint0_linear_1_665" x1="85" y1="15" x2="85" y2="155" gradientUnits="userSpaceOnUse">
<stop stop-color="#199AE0"/>
<stop offset="0.472222" stop-color="#0D5176" stop-opacity="0.527778"/>
<stop offset="0.940972" stop-color="#12A6F7" stop-opacity="0.465278"/>
<stop offset="1" stop-opacity="0"/>
</linearGradient>
<linearGradient id="paint1_linear_1_665" x1="82.0833" y1="34.6149" x2="82.0833" y2="57.3153" gradientUnits="userSpaceOnUse">
<stop stop-color="#EBA600"/>
<stop offset="1" stop-color="#C28200"/>
</linearGradient>
<linearGradient id="paint2_linear_1_665" x1="85" y1="46.6572" x2="85" y2="134.533" gradientUnits="userSpaceOnUse">
<stop stop-color="#FFD869"/>
<stop offset="1" stop-color="#FEC52B"/>
</linearGradient>
<linearGradient id="paint3_linear_1_665" x1="99.5833" y1="108.334" x2="122.917" y2="108.334" gradientUnits="userSpaceOnUse">
<stop stop-color="#32BDEF"/>
<stop offset="1" stop-color="#1EA2E4"/>
</linearGradient>
<linearGradient id="paint4_linear_1_665" x1="90.8333" y1="140.416" x2="131.667" y2="140.416" gradientUnits="userSpaceOnUse">
<stop stop-color="#32BDEF"/>
<stop offset="1" stop-color="#1EA2E4"/>
</linearGradient>
<clipPath id="clip0_1_665">
<rect x="15" y="15" width="140" height="140" rx="5" fill="white"/>
</clipPath>
</defs>
</svg>
