<svg width="170" height="170" viewBox="0 0 170 170" fill="none" xmlns="http://www.w3.org/2000/svg">
<g id="header-2">
<g clip-path="url(#clip0_1_722)">
<rect x="15" y="15" width="140" height="140" rx="5" fill="white"/>
<rect x="15" y="15" width="140" height="140" rx="5" fill="url(#paint0_linear_1_722)" fill-opacity="0.2"/>
<path id="Vector" d="M82.0833 125.834H70.4137C68.8037 125.834 67.5 124.527 67.5 122.917V90.8337H32.5L32.4971 122.917C32.4971 124.527 31.1904 125.834 29.5804 125.834H17.9167C16.3067 125.834 15 124.527 15 122.917V47.0837C15 45.4737 16.3067 44.167 17.9167 44.167H29.5804C31.1904 44.167 32.4971 45.4737 32.4971 47.0837L32.5 76.2503H67.5V47.0837C67.5 45.4737 68.8037 44.167 70.4137 44.167H82.0833C83.6933 44.167 85 45.4737 85 47.0837V122.917C85 124.527 83.6933 125.834 82.0833 125.834Z" fill="url(#paint1_linear_1_722)"/>
<path id="Vector_2" d="M120 111.25H152.083C153.693 111.25 155 112.556 155 114.166V122.916C155 124.526 153.693 125.833 152.083 125.833H102.5C100.89 125.833 99.5833 124.526 99.5833 122.916V119.676C99.5833 115.496 100.298 111.743 101.727 108.418C103.156 105.093 104.953 102.109 107.12 99.4663C109.284 96.8238 111.65 94.4876 114.222 92.4547C116.789 90.4218 119.236 88.5872 121.555 86.9538C123.993 85.2418 126.125 83.6084 127.96 82.0509C129.797 80.4934 131.343 78.9447 132.597 77.4047C133.851 75.8647 134.79 74.3072 135.409 72.7293C136.027 71.1513 136.333 69.4713 136.333 67.6834C136.333 64.1863 135.33 61.5468 133.32 59.7588C131.311 57.9709 128.24 57.0784 124.104 57.0784C117.775 57.0784 110.836 59.578 104.795 64.0288C103.842 64.7288 102.5 64.023 102.5 62.8418V51.6593C102.5 50.6297 103.025 49.6555 103.915 49.1393C110.912 45.0676 119.545 42.708 128.044 42.708C132.256 42.708 136.036 43.2505 139.378 44.3326C142.721 45.4176 145.55 46.9663 147.872 48.9788C150.19 50.9943 151.955 53.4355 153.174 56.3026C154.388 59.1755 155 62.378 155 65.913C155 69.6755 154.408 73.0209 153.23 75.9463C152.051 78.8747 150.488 81.5347 148.537 83.9293C146.583 86.3238 144.334 88.5201 141.782 90.5151C139.232 92.5101 136.584 94.4409 133.84 96.3018C131.985 97.5938 130.197 98.8772 128.479 100.152C126.758 101.426 125.241 102.681 123.929 103.914C122.613 105.151 121.569 106.356 120.799 107.534C120.023 108.709 120 110.185 120 111.25Z" fill="url(#paint2_linear_1_722)"/>
</g>
<rect x="7.5" y="7.5" width="155" height="155" rx="12.5" stroke="#D5EAF6" stroke-width="15"/>
</g>
<defs>
<linearGradient id="paint0_linear_1_722" x1="85" y1="15" x2="85" y2="155" gradientUnits="userSpaceOnUse">
<stop stop-color="#199AE0"/>
<stop offset="0.472222" stop-color="#0D5176" stop-opacity="0.527778"/>
<stop offset="0.940972" stop-color="#12A6F7" stop-opacity="0.465278"/>
<stop offset="1" stop-opacity="0"/>
</linearGradient>
<linearGradient id="paint1_linear_1_722" x1="42.0404" y1="39.8678" x2="57.9596" y2="130.133" gradientUnits="userSpaceOnUse">
<stop stop-color="#A235D4"/>
<stop offset="0.441" stop-color="#A033D1"/>
<stop offset="0.702" stop-color="#982CC9"/>
<stop offset="0.915" stop-color="#8B21BB"/>
<stop offset="1" stop-color="#831BB3"/>
</linearGradient>
<linearGradient id="paint2_linear_1_722" x1="118.536" y1="43.653" x2="133.609" y2="129.135" gradientUnits="userSpaceOnUse">
<stop stop-color="#A235D4"/>
<stop offset="0.441" stop-color="#A033D1"/>
<stop offset="0.702" stop-color="#982CC9"/>
<stop offset="0.915" stop-color="#8B21BB"/>
<stop offset="1" stop-color="#831BB3"/>
</linearGradient>
<clipPath id="clip0_1_722">
<rect x="15" y="15" width="140" height="140" rx="5" fill="white"/>
</clipPath>
</defs>
</svg>
