<svg width="170" height="170" viewBox="0 0 170 170" fill="none" xmlns="http://www.w3.org/2000/svg">
<g id="heart-with-pulse">
<rect x="7.5" y="7.5" width="155" height="155" rx="12.5" fill="white"/>
<rect x="7.5" y="7.5" width="155" height="155" rx="12.5" fill="url(#paint0_linear_1_725)" fill-opacity="0.2"/>
<path id="Vector" d="M85 50.7295C85 50.7295 98.7113 35.417 115.625 35.417C132.539 35.417 146.25 49.3149 146.25 66.042C146.25 94.8266 101.141 127.694 88.3454 136.436C86.3183 137.821 83.6817 137.821 81.6546 136.436C68.8592 127.694 23.75 94.8266 23.75 66.042C23.75 49.3149 37.4613 35.417 54.375 35.417C71.2888 35.417 85 50.7295 85 50.7295Z" fill="url(#paint1_linear_1_725)"/>
<path id="Vector_2" d="M92.7875 97.3548C93.1113 98.4107 94.0096 99.1923 95.1004 99.3703C96.1767 99.5394 97.2908 99.0932 97.9383 98.2007L103.261 90.8332H115.625C117.238 90.8332 118.542 89.5265 118.542 87.9165C118.542 86.3065 117.238 84.9998 115.625 84.9998H101.771C100.835 84.9998 99.9567 85.449 99.4054 86.2103L96.6317 90.0486L91.4313 73.2282C91.0638 72.0323 89.9729 71.2069 88.7217 71.1748C87.4821 71.1253 86.3417 71.9069 85.9071 73.0823L76.5971 98.3378L71.1167 60.1586C70.9271 58.8286 69.8508 57.8048 68.5179 57.6707C67.1588 57.5278 65.9279 58.3328 65.4788 59.5957L56.1046 85.9769L48.4017 74.6136C47.8242 73.7648 46.8383 73.269 45.8292 73.3361C44.8054 73.3915 43.8896 73.9778 43.4113 74.879L38.0358 84.9998H29.3004C30.365 86.9569 31.5521 88.9023 32.8471 90.8332H39.7917C40.8708 90.8332 41.8625 90.2382 42.3671 89.2844L46.2958 81.8936L54.5121 94.0211C55.1275 94.9311 56.1775 95.424 57.2975 95.2782C58.3883 95.1411 59.3071 94.3973 59.6746 93.3619L67.0217 72.6828L72.4613 110.57C72.6508 111.891 73.7154 112.915 75.0425 113.058C75.1475 113.067 75.2496 113.073 75.3517 113.073C76.5592 113.073 77.6588 112.32 78.0875 111.165L88.4038 83.1798L92.7875 97.3548Z" fill="#FFEBEE"/>
<path id="Vector_3" d="M117.083 82.083C113.86 82.083 111.25 84.6934 111.25 87.9163C111.25 91.1393 113.86 93.7497 117.083 93.7497C120.306 93.7497 122.917 91.1393 122.917 87.9163C122.917 84.6934 120.306 82.083 117.083 82.083Z" fill="#FFEBEE"/>
<rect x="7.5" y="7.5" width="155" height="155" rx="12.5" stroke="#D5EAF6" stroke-width="15"/>
</g>
<defs>
<linearGradient id="paint0_linear_1_725" x1="85" y1="15" x2="85" y2="155" gradientUnits="userSpaceOnUse">
<stop stop-color="#199AE0"/>
<stop offset="0.472222" stop-color="#0D5176" stop-opacity="0.527778"/>
<stop offset="0.940972" stop-color="#12A6F7" stop-opacity="0.465278"/>
<stop offset="1" stop-opacity="0"/>
</linearGradient>
<linearGradient id="paint1_linear_1_725" x1="60.4854" y1="29.1957" x2="118.055" y2="117.854" gradientUnits="userSpaceOnUse">
<stop stop-color="#F44F5A"/>
<stop offset="0.443" stop-color="#EE3D4A"/>
<stop offset="1" stop-color="#E52030"/>
</linearGradient>
</defs>
</svg>
