<svg width="170" height="170" viewBox="0 0 170 170" fill="none" xmlns="http://www.w3.org/2000/svg">
<g id="help">
<rect x="7.5" y="7.5" width="155" height="155" rx="12.5" fill="white"/>
<rect x="7.5" y="7.5" width="155" height="155" rx="12.5" fill="url(#paint0_linear_1_742)" fill-opacity="0.2"/>
<path id="Vector" d="M143.333 85.0003C143.333 117.215 117.215 143.334 85 143.334C52.7854 143.334 26.6667 117.215 26.6667 85.0003C26.6667 52.7857 52.7854 26.667 85 26.667C117.215 26.667 143.333 52.7857 143.333 85.0003Z" fill="url(#paint1_linear_1_742)"/>
<path id="Vector_2" opacity="0.05" d="M95.7187 112.452C95.7187 118.061 91.5246 121.981 85.5133 121.981C80.5083 121.981 75.1883 118.641 75.1883 112.452C75.1883 106.315 80.5083 103.002 85.5133 103.002C90.5854 103.002 95.7187 106.248 95.7187 112.452Z" fill="black"/>
<path id="Vector_3" opacity="0.05" d="M85.91 50C78.4142 50 72.3825 52.5783 69.4308 54.13C68.2029 54.7746 67.4592 56.055 67.4592 57.4404V72.3504C67.4592 73.7971 69.1712 74.5379 70.2358 73.555C73.1642 70.8483 78.21 67.2638 84.3846 67.2638C85.8692 67.2638 88.36 67.7013 88.36 70.6296C88.36 73.5142 86.6246 75.1708 83.5621 77.8483C79.8871 81.0596 75.3138 85.0583 75.3138 93.19C75.3138 95.7158 75.7892 97.7896 76.2558 99.2129C76.6788 100.499 77.9067 101.342 79.2629 101.342C79.2629 101.342 89.2817 101.325 90.7167 101.325C94.0942 101.325 93.7879 98.8454 93.3388 97.6175C93.05 96.8242 92.49 95.5992 92.49 94.4558C92.49 91.6646 94.4529 89.865 97.9238 86.9221C102.404 83.1246 107.98 78.3967 107.98 68.7075C107.986 56.9942 99.735 50 85.91 50Z" fill="black"/>
<path id="Vector_4" opacity="0.07" d="M85.5133 104.46C89.7746 104.46 94.2604 107.05 94.2604 112.452C94.2604 117.556 90.32 120.522 85.5133 120.522C81.2113 120.522 76.6467 117.728 76.6467 112.452C76.6467 107.202 81.2842 104.46 85.5133 104.46Z" fill="black"/>
<path id="Vector_5" opacity="0.07" d="M70.3787 55.2584C73.1496 53.7768 78.5775 51.458 85.9129 51.458C102.281 51.458 106.528 61.4563 106.528 68.713C106.528 77.5972 101.497 81.9868 97.1829 85.6472C94.3129 88.0797 92.4375 89.9201 91.615 92.3497C90.7079 95.0301 92.0379 97.0513 92.07 97.1505C92.4433 98.2297 92.1254 99.8805 89.69 99.8805C87.66 99.8834 80.5987 99.8863 80.5987 99.8863C79.9221 99.8863 77.9154 99.4663 77.7025 98.8218C77.3467 97.8038 76.8187 95.7709 76.7808 93.5601C76.775 93.3151 76.7779 93.0672 76.7808 92.8222C76.9383 84.9501 81.8208 81.4355 85.525 78.0434C88.1237 75.6838 89.8183 73.7472 89.8183 70.6293C89.8183 67.8993 88.0333 66.9368 86.6421 66.4701C84.8892 65.8809 82.9904 65.983 81.9112 66.1813C78 66.9076 74.6604 68.6401 72.3183 70.3668C71.2012 71.1893 69.8508 71.1747 69.4512 70.7605C69.2296 70.9326 68.9146 69.7718 68.9146 69.4888V58.2072C68.9146 57.9709 68.9758 57.2447 69.04 57.0288C69.2587 56.2997 69.6787 55.6318 70.3787 55.2584Z" fill="black"/>
<path id="Vector_6" d="M79.1492 98.4316C78.8575 97.6762 78.2333 95.4216 78.2333 93.1962C78.2333 80.5232 91.2796 80.0362 91.2796 70.6357C91.2796 64.7178 85.4317 64.3532 84.3846 64.3532C77.7433 64.3532 72.5575 68.1507 70.3758 70.0699V56.9362C72.6158 55.5945 77.7433 52.917 85.9129 52.917C104.83 52.917 105.07 65.9195 105.07 68.7137C105.07 83.7228 89.5792 84.837 89.5792 94.4591C89.5792 96.4657 90.3054 97.9357 90.6263 98.4287H79.1492V98.4316ZM85.5133 119.064C81.9113 119.064 78.105 116.818 78.105 112.452C78.105 108.089 82.06 105.919 85.5133 105.919C88.9667 105.919 92.8021 107.855 92.8021 112.452C92.8021 117.049 89.1154 119.064 85.5133 119.064Z" fill="white"/>
<rect x="7.5" y="7.5" width="155" height="155" rx="12.5" stroke="#D5EAF6" stroke-width="15"/>
</g>
<defs>
<linearGradient id="paint0_linear_1_742" x1="85" y1="15" x2="85" y2="155" gradientUnits="userSpaceOnUse">
<stop stop-color="#199AE0"/>
<stop offset="0.472222" stop-color="#0D5176" stop-opacity="0.527778"/>
<stop offset="0.940972" stop-color="#12A6F7" stop-opacity="0.465278"/>
<stop offset="1" stop-opacity="0"/>
</linearGradient>
<linearGradient id="paint1_linear_1_742" x1="43.7525" y1="43.7528" x2="126.248" y2="126.248" gradientUnits="userSpaceOnUse">
<stop stop-color="#0176D0"/>
<stop offset="1" stop-color="#0A85D9"/>
</linearGradient>
</defs>
</svg>
