<svg width="170" height="170" viewBox="0 0 170 170" fill="none" xmlns="http://www.w3.org/2000/svg">
<g id="idea-window">
<rect x="7.5" y="7.5" width="155" height="155" rx="12.5" fill="white"/>
<rect x="7.5" y="7.5" width="155" height="155" rx="12.5" fill="url(#paint0_linear_1_870)" fill-opacity="0.2"/>
<path id="Vector" d="M26.6667 131.667V52.917H143.333V131.667C143.333 134.875 140.708 137.5 137.5 137.5H32.5C29.2917 137.5 26.6667 134.875 26.6667 131.667Z" fill="#50E6FF"/>
<path id="Vector_2" d="M143.333 38.3333V52.9167H26.6667V38.3333C26.6667 35.125 29.2917 32.5 32.5 32.5H137.5C140.708 32.5 143.333 35.125 143.333 38.3333Z" fill="url(#paint1_linear_1_870)"/>
<path id="Vector_3" d="M36.875 47.083C39.2912 47.083 41.25 45.1243 41.25 42.708C41.25 40.2918 39.2912 38.333 36.875 38.333C34.4588 38.333 32.5 40.2918 32.5 42.708C32.5 45.1243 34.4588 47.083 36.875 47.083Z" fill="url(#paint2_linear_1_870)"/>
<path id="Vector_4" d="M51.4583 47.083C53.8746 47.083 55.8333 45.1243 55.8333 42.708C55.8333 40.2918 53.8746 38.333 51.4583 38.333C49.0421 38.333 47.0833 40.2918 47.0833 42.708C47.0833 45.1243 49.0421 47.083 51.4583 47.083Z" fill="url(#paint3_linear_1_870)"/>
<path id="Vector_5" d="M66.0417 47.083C68.4579 47.083 70.4167 45.1243 70.4167 42.708C70.4167 40.2918 68.4579 38.333 66.0417 38.333C63.6254 38.333 61.6667 40.2918 61.6667 42.708C61.6667 45.1243 63.6254 47.083 66.0417 47.083Z" fill="url(#paint4_linear_1_870)"/>
<path id="Vector_6" d="M85.2858 122.916C101.394 122.916 114.452 109.858 114.452 93.7497C114.452 77.6414 101.394 64.583 85.2858 64.583C69.1775 64.583 56.1192 77.6414 56.1192 93.7497C56.1192 109.858 69.1775 122.916 85.2858 122.916Z" fill="url(#paint5_radial_1_870)"/>
<path id="Vector_7" d="M92.8254 117.795H77.1746C77.1746 118.892 77.1746 120.925 77.1746 120.925C77.1746 125.308 80.6192 128.75 85 128.75C89.3808 128.75 92.8254 125.308 92.8254 120.925C92.8254 120.925 92.8254 118.892 92.8254 117.795Z" fill="url(#paint6_radial_1_870)"/>
<path id="Vector_8" d="M100.453 94.6195C100.453 86.1203 93.4992 79.167 85 79.167C76.5008 79.167 69.5475 86.1203 69.5475 94.6195C69.5475 102.346 77.2738 108.526 77.2738 116.252V117.798H92.7263V116.252C92.7263 108.523 100.453 102.343 100.453 94.6195Z" fill="#FEFEFE"/>
<rect x="7.5" y="7.5" width="155" height="155" rx="12.5" stroke="#D5EAF6" stroke-width="15"/>
</g>
<defs>
<linearGradient id="paint0_linear_1_870" x1="85" y1="15" x2="85" y2="155" gradientUnits="userSpaceOnUse">
<stop stop-color="#199AE0"/>
<stop offset="0.472222" stop-color="#0D5176" stop-opacity="0.527778"/>
<stop offset="0.940972" stop-color="#12A6F7" stop-opacity="0.465278"/>
<stop offset="1" stop-opacity="0"/>
</linearGradient>
<linearGradient id="paint1_linear_1_870" x1="28.4575" y1="31.7446" x2="140.23" y2="54.4712" gradientUnits="userSpaceOnUse">
<stop stop-color="#0077D2"/>
<stop offset="1" stop-color="#0B59A2"/>
</linearGradient>
<linearGradient id="paint2_linear_1_870" x1="34.6904" y1="39.5463" x2="38.4267" y2="44.9509" gradientUnits="userSpaceOnUse">
<stop stop-color="#75DAFF"/>
<stop offset="1" stop-color="#49BEF1"/>
</linearGradient>
<linearGradient id="paint3_linear_1_870" x1="49.2737" y1="39.5463" x2="53.01" y2="44.9509" gradientUnits="userSpaceOnUse">
<stop stop-color="#75DAFF"/>
<stop offset="1" stop-color="#49BEF1"/>
</linearGradient>
<linearGradient id="paint4_linear_1_870" x1="63.8571" y1="39.5463" x2="67.5933" y2="44.9509" gradientUnits="userSpaceOnUse">
<stop stop-color="#75DAFF"/>
<stop offset="1" stop-color="#49BEF1"/>
</linearGradient>
<radialGradient id="paint5_radial_1_870" cx="0" cy="0" r="1" gradientUnits="userSpaceOnUse" gradientTransform="translate(85.2858 93.7497) scale(29.1667)">
<stop offset="0.078" stop-color="white"/>
<stop offset="0.202" stop-color="#FFF5A3"/>
<stop offset="0.216" stop-color="#FFF392"/>
<stop offset="0.263" stop-color="#FFEE5F"/>
<stop offset="0.307" stop-color="#FFEA37"/>
<stop offset="0.347" stop-color="#FFE71A"/>
<stop offset="0.382" stop-color="#FFE508"/>
<stop offset="0.408" stop-color="#FFE402"/>
<stop offset="0.545" stop-color="#FDDE02"/>
<stop offset="0.736" stop-color="#F9CC01"/>
<stop offset="0.956" stop-color="#F2AF00"/>
<stop offset="1" stop-color="#F0A800"/>
</radialGradient>
<radialGradient id="paint6_radial_1_870" cx="0" cy="0" r="1" gradientUnits="userSpaceOnUse" gradientTransform="translate(81.3629 116.955) scale(15.7529)">
<stop stop-color="#6E757B"/>
<stop offset="1" stop-color="#4A4E52"/>
</radialGradient>
</defs>
</svg>
