<svg width="170" height="170" viewBox="0 0 170 170" fill="none" xmlns="http://www.w3.org/2000/svg">
<g id="idea">
<rect x="7.5" y="7.5" width="155" height="155" rx="12.5" fill="white"/>
<rect x="7.5" y="7.5" width="155" height="155" rx="12.5" fill="url(#paint0_linear_1_756)" fill-opacity="0.2"/>
<path id="Vector" d="M85 137.5C115.606 137.5 140.417 112.689 140.417 82.0837C140.417 51.4779 115.606 26.667 85 26.667C54.3942 26.667 29.5833 51.4779 29.5833 82.0837C29.5833 112.689 54.3942 137.5 85 137.5Z" fill="url(#paint1_radial_1_756)"/>
<path id="Vector_2" d="M99.5833 125.833H70.4167C70.4167 127.875 70.4167 131.666 70.4167 131.666C70.4167 139.833 76.8333 146.25 85 146.25C93.1667 146.25 99.5833 139.833 99.5833 131.666C99.5833 131.666 99.5833 127.875 99.5833 125.833Z" fill="url(#paint2_radial_1_756)"/>
<path id="Vector_3" d="M114.167 82.0837C114.167 66.042 101.042 52.917 85 52.917C68.9583 52.917 55.8333 66.042 55.8333 82.0837C55.8333 96.667 70.4167 108.334 70.4167 122.917V125.834H99.5833V122.917C99.5833 108.334 114.167 96.667 114.167 82.0837Z" fill="#FEFEFE"/>
<rect x="7.5" y="7.5" width="155" height="155" rx="12.5" stroke="#D5EAF6" stroke-width="15"/>
</g>
<defs>
<linearGradient id="paint0_linear_1_756" x1="85" y1="15" x2="85" y2="155" gradientUnits="userSpaceOnUse">
<stop stop-color="#199AE0"/>
<stop offset="0.472222" stop-color="#0D5176" stop-opacity="0.527778"/>
<stop offset="0.940972" stop-color="#12A6F7" stop-opacity="0.465278"/>
<stop offset="1" stop-opacity="0"/>
</linearGradient>
<radialGradient id="paint1_radial_1_756" cx="0" cy="0" r="1" gradientUnits="userSpaceOnUse" gradientTransform="translate(85 82.0837) scale(55.4167)">
<stop offset="0.078" stop-color="white"/>
<stop offset="0.202" stop-color="#FFF5A3"/>
<stop offset="0.216" stop-color="#FFF392"/>
<stop offset="0.263" stop-color="#FFEE5F"/>
<stop offset="0.307" stop-color="#FFEA37"/>
<stop offset="0.347" stop-color="#FFE71A"/>
<stop offset="0.382" stop-color="#FFE508"/>
<stop offset="0.408" stop-color="#FFE402"/>
<stop offset="0.545" stop-color="#FDDE02"/>
<stop offset="0.736" stop-color="#F9CC01"/>
<stop offset="0.956" stop-color="#F2AF00"/>
<stop offset="1" stop-color="#F0A800"/>
</radialGradient>
<radialGradient id="paint2_radial_1_756" cx="0" cy="0" r="1" gradientUnits="userSpaceOnUse" gradientTransform="translate(78.2246 124.267) scale(29.3592)">
<stop stop-color="#6E757B"/>
<stop offset="1" stop-color="#4A4E52"/>
</radialGradient>
</defs>
</svg>
