<svg width="170" height="170" viewBox="0 0 170 170" fill="none" xmlns="http://www.w3.org/2000/svg">
<g id="image-file">
<rect x="7.5" y="7.5" width="155" height="155" rx="12.5" fill="white"/>
<rect x="7.5" y="7.5" width="155" height="155" rx="12.5" fill="url(#paint0_linear_1_782)" fill-opacity="0.2"/>
<path id="Vector" d="M128.75 61.6663V134.583C128.75 137.806 126.14 140.416 122.917 140.416H47.0833C43.8604 140.416 41.25 137.806 41.25 134.583V35.4163C41.25 32.1934 43.8604 29.583 47.0833 29.583H96.6667L128.75 61.6663Z" fill="#50E6FF"/>
<path id="Vector_2" d="M96.6667 29.583V55.833C96.6667 59.0559 99.2771 61.6663 102.5 61.6663H128.75L96.6667 29.583Z" fill="url(#paint1_linear_1_782)"/>
<path id="Vector_3" d="M114.167 114.166L98.2475 98.2471C96.2846 96.2841 93.12 96.2433 91.1046 98.1508L75.2787 113.145V120H111.25C112.86 120 114.167 118.693 114.167 117.083V114.166Z" fill="#436DCD"/>
<path id="Vector_4" d="M105.417 90.8337C108.638 90.8337 111.25 88.222 111.25 85.0003C111.25 81.7787 108.638 79.167 105.417 79.167C102.195 79.167 99.5833 81.7787 99.5833 85.0003C99.5833 88.222 102.195 90.8337 105.417 90.8337Z" fill="white"/>
<path id="Vector_5" d="M107.038 120L80.065 93.0263C77.4021 90.3634 73.1 90.3051 70.3671 92.8951L55.8333 106.662V114.166C55.8333 117.389 58.4437 120 61.6667 120H107.038Z" fill="url(#paint2_linear_1_782)"/>
<rect x="7.5" y="7.5" width="155" height="155" rx="12.5" stroke="#D5EAF6" stroke-width="15"/>
</g>
<defs>
<linearGradient id="paint0_linear_1_782" x1="85" y1="15" x2="85" y2="155" gradientUnits="userSpaceOnUse">
<stop stop-color="#199AE0"/>
<stop offset="0.472222" stop-color="#0D5176" stop-opacity="0.527778"/>
<stop offset="0.940972" stop-color="#12A6F7" stop-opacity="0.465278"/>
<stop offset="1" stop-opacity="0"/>
</linearGradient>
<linearGradient id="paint1_linear_1_782" x1="98.2096" y1="60.1263" x2="113" y2="45.333" gradientUnits="userSpaceOnUse">
<stop stop-color="#3079D6"/>
<stop offset="1" stop-color="#297CD2"/>
</linearGradient>
<linearGradient id="paint2_linear_1_782" x1="81.4358" y1="90.9263" x2="81.4358" y2="120.504" gradientUnits="userSpaceOnUse">
<stop stop-color="#124787"/>
<stop offset="0.923" stop-color="#173B75"/>
<stop offset="1" stop-color="#173A73"/>
</linearGradient>
</defs>
</svg>
