<svg width="170" height="170" viewBox="0 0 170 170" fill="none" xmlns="http://www.w3.org/2000/svg">
<g id="image">
<rect x="7.5" y="7.5" width="155" height="155" rx="12.5" fill="white"/>
<rect x="7.5" y="7.5" width="155" height="155" rx="12.5" fill="url(#paint0_linear_1_760)" fill-opacity="0.2"/>
<path id="Vector" d="M131.667 32.5H38.3333C35.1104 32.5 32.5 35.1104 32.5 38.3333V125.833C32.5 129.056 35.1104 131.667 38.3333 131.667H131.667C134.89 131.667 137.5 129.056 137.5 125.833V38.3333C137.5 35.1104 134.89 32.5 131.667 32.5Z" fill="#50E6FF"/>
<path id="Vector_2" d="M108.523 82.2733C105.172 78.9221 99.7583 78.8491 96.3167 82.1071L67.5 109.407V137.5H131.667C134.89 137.5 137.5 134.89 137.5 131.667V111.25L108.523 82.2733Z" fill="url(#paint1_linear_1_760)"/>
<path id="Vector_3" d="M103.958 67.4997C109.596 67.4997 114.167 62.9292 114.167 57.2913C114.167 51.6534 109.596 47.083 103.958 47.083C98.3204 47.083 93.75 51.6534 93.75 57.2913C93.75 62.9292 98.3204 67.4997 103.958 67.4997Z" fill="#FFF8DE"/>
<path id="Vector_4" d="M38.3333 137.5H131.667C134.032 137.5 136.062 136.085 136.975 134.058L73.5229 70.6063C70.1717 67.2551 64.7583 67.1822 61.3167 70.4401L32.5 97.7401V131.667C32.5 134.89 35.1104 137.5 38.3333 137.5Z" fill="url(#paint2_linear_1_760)"/>
<rect x="7.5" y="7.5" width="155" height="155" rx="12.5" stroke="#D5EAF6" stroke-width="15"/>
</g>
<defs>
<linearGradient id="paint0_linear_1_760" x1="85" y1="15" x2="85" y2="155" gradientUnits="userSpaceOnUse">
<stop stop-color="#199AE0"/>
<stop offset="0.472222" stop-color="#0D5176" stop-opacity="0.527778"/>
<stop offset="0.940972" stop-color="#12A6F7" stop-opacity="0.465278"/>
<stop offset="1" stop-opacity="0"/>
</linearGradient>
<linearGradient id="paint1_linear_1_760" x1="67.5" y1="108.605" x2="137.5" y2="108.605" gradientUnits="userSpaceOnUse">
<stop stop-color="#3CCBF4"/>
<stop offset="1" stop-color="#1FA0E5"/>
</linearGradient>
<linearGradient id="paint2_linear_1_760" x1="84.7375" y1="68.0426" x2="84.7375" y2="137.5" gradientUnits="userSpaceOnUse">
<stop stop-color="#28AFEA"/>
<stop offset="1" stop-color="#0B88DA"/>
</linearGradient>
</defs>
</svg>
