<svg width="170" height="170" viewBox="0 0 170 170" fill="none" xmlns="http://www.w3.org/2000/svg">
<g id="info">
<rect x="7.5" y="7.5" width="155" height="155" rx="12.5" fill="white"/>
<rect x="7.5" y="7.5" width="155" height="155" rx="12.5" fill="url(#paint0_linear_1_879)" fill-opacity="0.2"/>
<path id="Vector" d="M143.453 85.3558C143.453 117.57 117.334 143.689 85.1196 143.689C52.905 143.689 26.7862 117.57 26.7862 85.3558C26.7862 53.1412 52.905 27.0225 85.1196 27.0225C117.334 27.0225 143.453 53.1412 143.453 85.3558Z" fill="url(#paint1_linear_1_879)"/>
<path id="Vector_2" opacity="0.05" d="M79.1667 120H90.8333C92.4433 120 93.75 118.694 93.75 117.084V73.3337C93.75 71.7237 92.4433 70.417 90.8333 70.417H79.1667C77.5567 70.417 76.25 71.7237 76.25 73.3337V117.084C76.25 118.694 77.5567 120 79.1667 120Z" fill="black"/>
<path id="Vector_3" opacity="0.07" d="M79.8287 118.542H90.1742C91.3437 118.542 92.2946 117.594 92.2946 116.421V73.9954C92.2946 72.8258 91.3467 71.875 90.1742 71.875H79.8287C78.6592 71.875 77.7083 72.8229 77.7083 73.9954V116.424C77.7083 117.594 78.6562 118.542 79.8287 118.542Z" fill="black"/>
<path id="Vector_4" opacity="0.15" d="M85 70.449C91.424 70.449 96.6317 65.7362 96.6317 59.9227C96.6317 54.1092 91.424 49.3965 85 49.3965C78.576 49.3965 73.3683 54.1092 73.3683 59.9227C73.3683 65.7362 78.576 70.449 85 70.449Z" fill="url(#paint2_radial_1_879)"/>
<path id="Vector_5" d="M85 66.7187C89.9583 66.7187 92.7292 63.6037 92.7292 59.7537C92.7292 55.9037 89.8038 52.917 85 52.917C80.1963 52.917 77.2708 55.9037 77.2708 59.7537C77.2708 63.6037 80.0417 66.7187 85 66.7187Z" fill="white"/>
<path id="Vector_6" d="M90.8333 73.333H79.1667V117.083H90.8333V73.333Z" fill="white"/>
<rect x="7.5" y="7.5" width="155" height="155" rx="12.5" stroke="#D5EAF6" stroke-width="15"/>
</g>
<defs>
<linearGradient id="paint0_linear_1_879" x1="85" y1="15" x2="85" y2="155" gradientUnits="userSpaceOnUse">
<stop stop-color="#199AE0"/>
<stop offset="0.472222" stop-color="#0D5176" stop-opacity="0.527778"/>
<stop offset="0.940972" stop-color="#12A6F7" stop-opacity="0.465278"/>
<stop offset="1" stop-opacity="0"/>
</linearGradient>
<linearGradient id="paint1_linear_1_879" x1="43.8721" y1="44.1083" x2="126.367" y2="126.603" gradientUnits="userSpaceOnUse">
<stop stop-color="#0176D0"/>
<stop offset="1" stop-color="#0A85D9"/>
</linearGradient>
<radialGradient id="paint2_radial_1_879" cx="0" cy="0" r="1" gradientUnits="userSpaceOnUse" gradientTransform="translate(84.9977 59.9216) scale(11.6326 10.5272)">
<stop offset="0.516"/>
<stop offset="1" stop-opacity="0"/>
</radialGradient>
</defs>
</svg>
