<svg width="170" height="170" viewBox="0 0 170 170" fill="none" xmlns="http://www.w3.org/2000/svg">
<g id="insert-column">
<rect x="7.5" y="7.5" width="155" height="155" rx="12.5" fill="white"/>
<rect x="7.5" y="7.5" width="155" height="155" rx="12.5" fill="url(#paint0_linear_1_792)" fill-opacity="0.2"/>
<path id="Vector" d="M20.8333 58.3857V129.115C20.8333 132.137 23.5692 134.584 26.9437 134.584H143.056C146.431 134.584 149.167 132.137 149.167 129.115V58.3857C149.167 55.3641 146.431 52.917 143.056 52.917H26.9437C23.5692 52.917 20.8333 55.3641 20.8333 58.3857Z" fill="#50E6FF"/>
<path id="Vector_2" d="M117.083 52.917H85V134.584H117.083V52.917Z" fill="#199BE2"/>
<path id="Vector_3" d="M55.8333 52.917H50V134.584H55.8333V52.917Z" fill="#35C1F1"/>
<path id="Vector_4" d="M117.938 26.6904H84.1454C82.3108 26.6904 81.395 28.9071 82.69 30.2021L98.4954 46.0075C99.9013 47.4133 102.182 47.4133 103.588 46.0075L119.393 30.2021C120.688 28.9071 119.772 26.6904 117.938 26.6904Z" fill="url(#paint1_linear_1_792)"/>
<rect x="7.5" y="7.5" width="155" height="155" rx="12.5" stroke="#D5EAF6" stroke-width="15"/>
</g>
<defs>
<linearGradient id="paint0_linear_1_792" x1="85" y1="15" x2="85" y2="155" gradientUnits="userSpaceOnUse">
<stop stop-color="#199AE0"/>
<stop offset="0.472222" stop-color="#0D5176" stop-opacity="0.527778"/>
<stop offset="0.940972" stop-color="#12A6F7" stop-opacity="0.465278"/>
<stop offset="1" stop-opacity="0"/>
</linearGradient>
<linearGradient id="paint1_linear_1_792" x1="94.9079" y1="17.7158" x2="109.873" y2="44.6308" gradientUnits="userSpaceOnUse">
<stop stop-color="#C965EB"/>
<stop offset="1" stop-color="#C767E5"/>
</linearGradient>
</defs>
</svg>
