<svg width="170" height="170" viewBox="0 0 170 170" fill="none" xmlns="http://www.w3.org/2000/svg">
<g id="insect">
<rect x="7.5" y="7.5" width="155" height="155" rx="12.5" fill="white"/>
<rect x="7.5" y="7.5" width="155" height="155" rx="12.5" fill="url(#paint0_linear_1_770)" fill-opacity="0.2"/>
<path id="Vector" d="M26.6667 105.416H52.9167C54.5267 105.416 55.8333 104.11 55.8333 102.5C55.8333 100.89 54.5267 99.583 52.9167 99.583H26.6667C25.0567 99.583 23.75 100.89 23.75 102.5C23.75 104.11 25.0567 105.416 26.6667 105.416Z" fill="url(#paint1_linear_1_770)"/>
<path id="Vector_2" d="M28.3525 73.0595L52.1437 84.1545C53.605 84.834 55.3404 84.2041 56.02 82.7428C56.6996 81.2816 56.0696 79.5461 54.6083 78.8665L30.8171 67.7716C29.3558 67.092 27.6204 67.722 26.9408 69.1832C26.2612 70.6416 26.8912 72.377 28.3525 73.0595Z" fill="url(#paint2_linear_1_770)"/>
<path id="Vector_3" d="M36.6592 132.188L58.1608 117.133C59.4792 116.208 61.2992 116.529 62.2237 117.85C63.1483 119.171 62.8275 120.988 61.5062 121.913L40.0046 136.969C38.6862 137.893 36.8662 137.573 35.9417 136.251C35.02 134.933 35.3408 133.113 36.6592 132.188Z" fill="url(#paint3_linear_1_770)"/>
<path id="Vector_4" d="M146.25 102.5C146.25 100.89 144.943 99.583 143.333 99.583H117.083C115.473 99.583 114.167 100.89 114.167 102.5C114.167 104.11 115.473 105.416 117.083 105.416H143.333C144.943 105.416 146.25 104.11 146.25 102.5Z" fill="url(#paint4_linear_1_770)"/>
<path id="Vector_5" d="M143.059 69.1832C142.38 67.722 140.644 67.092 139.183 67.7716L115.392 78.8665C113.93 79.5461 113.3 81.2816 113.98 82.7428C114.66 84.2041 116.395 84.834 117.856 84.1545L141.648 73.0595C143.109 72.377 143.739 70.6416 143.059 69.1832Z" fill="url(#paint5_linear_1_770)"/>
<path id="Vector_6" d="M134.058 136.251C133.134 137.573 131.314 137.893 129.995 136.969L108.494 121.913C107.173 120.988 106.852 119.171 107.776 117.85C108.701 116.529 110.521 116.208 111.839 117.133L133.341 132.188C134.659 133.113 134.98 134.933 134.058 136.251Z" fill="url(#paint6_linear_1_770)"/>
<path id="Vector_7" d="M67.7508 51.4579L53.7712 37.4783C52.6337 36.3408 52.6337 34.4916 53.7712 33.3541C54.9087 32.2166 56.7579 32.2166 57.8954 33.3541L71.875 47.3337L67.7508 51.4579Z" fill="url(#paint7_linear_1_770)"/>
<path id="Vector_8" d="M102.249 51.4579L116.229 37.4783C117.366 36.3408 117.366 34.4916 116.229 33.3541C115.091 32.2166 113.242 32.2166 112.105 33.3541L98.125 47.3337L102.249 51.4579Z" fill="url(#paint8_linear_1_770)"/>
<path id="Vector_9" d="M85 81.3542C97.8866 81.3542 108.333 72.3765 108.333 61.3021C108.333 50.2276 97.8866 41.25 85 41.25C72.1134 41.25 61.6667 50.2276 61.6667 61.3021C61.6667 72.3765 72.1134 81.3542 85 81.3542Z" fill="url(#paint9_linear_1_770)"/>
<path id="Vector_10" d="M128.75 85.7288C128.75 126.883 97.7167 141.641 87.9167 145.258C86.0792 145.958 85 146.25 85 146.25C85 146.25 83.9208 145.958 82.0833 145.258C72.2833 141.641 41.25 126.883 41.25 85.7288C41.25 61.783 59.275 56.2705 82.0833 55.8622C83.0458 55.833 84.0083 55.833 85 55.833C85.9917 55.833 86.9542 55.833 87.9167 55.8622C110.725 56.2676 128.75 61.7801 128.75 85.7288Z" fill="url(#paint10_linear_1_770)"/>
<path id="Vector_11" d="M87.9167 55.8622V145.258C86.0792 145.958 85 146.25 85 146.25C85 146.25 83.9208 145.958 82.0833 145.258V55.8622C83.0458 55.833 84.0083 55.833 85 55.833C85.9917 55.833 86.9542 55.833 87.9167 55.8622Z" fill="url(#paint11_linear_1_770)"/>
<rect x="7.5" y="7.5" width="155" height="155" rx="12.5" stroke="#D5EAF6" stroke-width="15"/>
</g>
<defs>
<linearGradient id="paint0_linear_1_770" x1="85" y1="15" x2="85" y2="155" gradientUnits="userSpaceOnUse">
<stop stop-color="#199AE0"/>
<stop offset="0.472222" stop-color="#0D5176" stop-opacity="0.527778"/>
<stop offset="0.940972" stop-color="#12A6F7" stop-opacity="0.465278"/>
<stop offset="1" stop-opacity="0"/>
</linearGradient>
<linearGradient id="paint1_linear_1_770" x1="23.6712" y1="102.5" x2="42.9708" y2="102.5" gradientUnits="userSpaceOnUse">
<stop stop-color="#6D7479"/>
<stop offset="0.425" stop-color="#565C60"/>
<stop offset="1" stop-color="#323538"/>
</linearGradient>
<linearGradient id="paint2_linear_1_770" x1="26.8767" y1="69.8016" x2="42.2271" y2="76.2795" gradientUnits="userSpaceOnUse">
<stop stop-color="#6D7479"/>
<stop offset="0.425" stop-color="#565C60"/>
<stop offset="1" stop-color="#323538"/>
</linearGradient>
<linearGradient id="paint3_linear_1_770" x1="35.4108" y1="134.927" x2="48.3667" y2="127.463" gradientUnits="userSpaceOnUse">
<stop stop-color="#6D7479"/>
<stop offset="0.425" stop-color="#565C60"/>
<stop offset="1" stop-color="#323538"/>
</linearGradient>
<linearGradient id="paint4_linear_1_770" x1="146.329" y1="102.5" x2="127.029" y2="102.5" gradientUnits="userSpaceOnUse">
<stop stop-color="#6D7479"/>
<stop offset="0.425" stop-color="#565C60"/>
<stop offset="1" stop-color="#323538"/>
</linearGradient>
<linearGradient id="paint5_linear_1_770" x1="143.123" y1="69.8016" x2="127.773" y2="76.2795" gradientUnits="userSpaceOnUse">
<stop stop-color="#6D7479"/>
<stop offset="0.425" stop-color="#565C60"/>
<stop offset="1" stop-color="#323538"/>
</linearGradient>
<linearGradient id="paint6_linear_1_770" x1="134.586" y1="134.927" x2="121.63" y2="127.463" gradientUnits="userSpaceOnUse">
<stop stop-color="#6D7479"/>
<stop offset="0.425" stop-color="#565C60"/>
<stop offset="1" stop-color="#323538"/>
</linearGradient>
<linearGradient id="paint7_linear_1_770" x1="55.9996" y1="31.6566" x2="65.2133" y2="46.2633" gradientUnits="userSpaceOnUse">
<stop stop-color="#6D7479"/>
<stop offset="0.425" stop-color="#565C60"/>
<stop offset="1" stop-color="#323538"/>
</linearGradient>
<linearGradient id="paint8_linear_1_770" x1="115.129" y1="32.8641" x2="104.297" y2="45.8724" gradientUnits="userSpaceOnUse">
<stop stop-color="#6D7479"/>
<stop offset="0.425" stop-color="#565C60"/>
<stop offset="1" stop-color="#323538"/>
</linearGradient>
<linearGradient id="paint9_linear_1_770" x1="85" y1="63.0988" x2="85" y2="29.07" gradientUnits="userSpaceOnUse">
<stop offset="0.002" stop-color="#454545"/>
<stop offset="0.013" stop-color="#464646"/>
<stop offset="0.562" stop-color="#626262"/>
<stop offset="1" stop-color="#6D6D6D"/>
</linearGradient>
<linearGradient id="paint10_linear_1_770" x1="85" y1="52.0851" x2="85" y2="173.302" gradientUnits="userSpaceOnUse">
<stop stop-color="#199AE0"/>
<stop offset="1" stop-color="#0782D8"/>
</linearGradient>
<linearGradient id="paint11_linear_1_770" x1="85" y1="44.3297" x2="85" y2="145.459" gradientUnits="userSpaceOnUse">
<stop stop-color="#0D61A9"/>
<stop offset="1" stop-color="#16528C"/>
</linearGradient>
</defs>
</svg>
