<svg width="170" height="170" viewBox="0 0 170 170" fill="none" xmlns="http://www.w3.org/2000/svg">
<g id="inspect-code">
<rect x="7.5" y="7.5" width="155" height="155" rx="12.5" fill="white"/>
<rect x="7.5" y="7.5" width="155" height="155" rx="12.5" fill="url(#paint0_linear_1_808)" fill-opacity="0.2"/>
<path id="Vector" d="M120 109.5L109.5 120L132.542 143.042C133.125 143.625 134 143.625 134.583 143.042L142.75 134.875C143.333 134.292 143.333 133.417 142.75 132.833L120 109.5Z" fill="#199BE2"/>
<path id="Vector_2" d="M107.167 96.958L96.9583 107.166L109.5 120L120 109.5L107.167 96.958Z" fill="url(#paint1_radial_1_808)"/>
<path id="Vector_3" d="M73.3333 120C99.1066 120 120 99.1069 120 73.3337C120 47.5604 99.1066 26.667 73.3333 26.667C47.56 26.667 26.6667 47.5604 26.6667 73.3337C26.6667 99.1069 47.56 120 73.3333 120Z" fill="url(#paint2_linear_1_808)"/>
<path id="Vector_4" d="M44.4583 74.2083L56.125 85.875C56.7083 86.4583 57.2917 86.4583 57.875 85.875L60.2083 83.5417C60.7917 82.9583 60.7917 82.375 60.2083 81.7917L48.5417 70.125C47.9583 69.5417 47.375 69.5417 46.7917 70.125L44.4583 72.4583C44.1667 73.0417 44.1667 73.625 44.4583 74.2083Z" fill="url(#paint3_linear_1_808)"/>
<path id="Vector_5" d="M48.5417 76.542L60.2083 64.8753C60.7917 64.292 60.7917 63.7087 60.2083 63.1253L57.875 60.792C57.2917 60.2087 56.7083 60.2087 56.125 60.792L44.4583 72.4587C43.875 73.042 43.875 73.6253 44.4583 74.2087L46.7917 76.542C47.375 77.1253 48.25 77.1253 48.5417 76.542Z" fill="url(#paint4_linear_1_808)"/>
<path id="Vector_6" d="M102.208 74.2083L90.5417 85.875C89.9583 86.4583 89.375 86.4583 88.7917 85.875L86.4583 83.5417C85.875 82.9583 85.875 82.375 86.4583 81.7917L98.125 70.125C98.7083 69.5417 99.2917 69.5417 99.875 70.125L102.208 72.4583C102.5 73.0417 102.5 73.625 102.208 74.2083Z" fill="url(#paint5_linear_1_808)"/>
<path id="Vector_7" d="M98.125 76.542L86.4583 64.8753C85.875 64.292 85.875 63.7087 86.4583 63.1253L88.7917 60.792C89.375 60.2087 89.9583 60.2087 90.5417 60.792L102.208 72.4587C102.792 73.042 102.792 73.6253 102.208 74.2087L99.5833 76.542C99.2917 77.1253 98.4167 77.1253 98.125 76.542Z" fill="url(#paint6_linear_1_808)"/>
<path id="Vector_8" d="M80.0417 52.625H75.6667C75.0833 52.625 74.5 52.9167 74.5 53.5L66.0417 92.875C66.0417 93.4583 66.3333 94.0417 66.9167 94.0417H71.2917C71.875 94.0417 72.4583 93.75 72.4583 93.1667L80.9167 53.7917C80.9167 53.2083 80.625 52.625 80.0417 52.625Z" fill="url(#paint7_linear_1_808)"/>
<rect x="7.5" y="7.5" width="155" height="155" rx="12.5" stroke="#D5EAF6" stroke-width="15"/>
</g>
<defs>
<linearGradient id="paint0_linear_1_808" x1="85" y1="15" x2="85" y2="155" gradientUnits="userSpaceOnUse">
<stop stop-color="#199AE0"/>
<stop offset="0.472222" stop-color="#0D5176" stop-opacity="0.527778"/>
<stop offset="0.940972" stop-color="#12A6F7" stop-opacity="0.465278"/>
<stop offset="1" stop-opacity="0"/>
</linearGradient>
<radialGradient id="paint1_radial_1_808" cx="0" cy="0" r="1" gradientUnits="userSpaceOnUse" gradientTransform="translate(73.4033 73.613) scale(57.1783)">
<stop offset="0.693" stop-color="#006185"/>
<stop offset="0.921" stop-color="#35C1F1"/>
</radialGradient>
<linearGradient id="paint2_linear_1_808" x1="40.9904" y1="40.9907" x2="106.405" y2="106.406" gradientUnits="userSpaceOnUse">
<stop stop-color="#A3FFFF"/>
<stop offset="0.223" stop-color="#9DFBFF"/>
<stop offset="0.53" stop-color="#8BF1FF"/>
<stop offset="0.885" stop-color="#6EE0FF"/>
<stop offset="1" stop-color="#63DAFF"/>
</linearGradient>
<linearGradient id="paint3_linear_1_808" x1="44.1667" y1="77.8921" x2="60.5729" y2="77.8921" gradientUnits="userSpaceOnUse">
<stop stop-color="#3079D6"/>
<stop offset="1" stop-color="#297CD2"/>
</linearGradient>
<linearGradient id="paint4_linear_1_808" x1="44.1667" y1="68.7778" x2="60.5729" y2="68.7778" gradientUnits="userSpaceOnUse">
<stop stop-color="#3079D6"/>
<stop offset="1" stop-color="#297CD2"/>
</linearGradient>
<linearGradient id="paint5_linear_1_808" x1="86.0938" y1="77.8921" x2="102.5" y2="77.8921" gradientUnits="userSpaceOnUse">
<stop stop-color="#3079D6"/>
<stop offset="1" stop-color="#297CD2"/>
</linearGradient>
<linearGradient id="paint6_linear_1_808" x1="86.0938" y1="68.7778" x2="102.5" y2="68.7778" gradientUnits="userSpaceOnUse">
<stop stop-color="#3079D6"/>
<stop offset="1" stop-color="#297CD2"/>
</linearGradient>
<linearGradient id="paint7_linear_1_808" x1="65.8346" y1="73.3333" x2="80.8321" y2="73.3333" gradientUnits="userSpaceOnUse">
<stop stop-color="#3079D6"/>
<stop offset="1" stop-color="#297CD2"/>
</linearGradient>
</defs>
</svg>
