<svg width="170" height="170" viewBox="0 0 170 170" fill="none" xmlns="http://www.w3.org/2000/svg">
<g id="internet">
<rect x="7.5" y="7.5" width="155" height="155" rx="12.5" fill="white"/>
<rect x="7.5" y="7.5" width="155" height="155" rx="12.5" fill="url(#paint0_linear_1_817)" fill-opacity="0.2"/>
<path id="Vector" d="M143.333 85.0003C143.333 117.215 117.215 143.334 85 143.334C52.7854 143.334 26.6667 117.215 26.6667 85.0003C26.6667 52.7857 52.7854 26.667 85 26.667C117.215 26.667 143.333 52.7857 143.333 85.0003Z" fill="url(#paint1_radial_1_817)"/>
<path id="Vector_2" d="M134.583 85.0003C134.583 77.8107 133.42 70.9478 131.387 64.5837H139.585C138.839 62.5857 137.993 60.6374 137.039 58.7503H129.217C121.035 39.7482 104.311 26.667 85 26.667C65.6888 26.667 48.9646 39.7482 40.7804 58.7503H32.9579C32.0042 60.6374 31.1613 62.5857 30.4117 64.5837H38.6104C36.5804 70.9478 35.4167 77.8107 35.4167 85.0003C35.4167 92.1899 36.5804 99.0528 38.6133 105.417H30.4146C31.1613 107.415 32.0071 109.363 32.9608 111.25H40.7833C48.9675 130.252 65.6917 143.334 85.0029 143.334C104.314 143.334 121.038 130.252 129.223 111.25H137.045C137.999 109.363 138.842 107.415 139.591 105.417H131.393C133.42 99.0528 134.583 92.1899 134.583 85.0003ZM128.75 85.0003C128.75 92.2366 127.522 99.1374 125.305 105.417H106.904C107.846 98.8078 108.333 91.8545 108.333 85.0003C108.333 78.1462 107.849 71.1928 106.904 64.5837H125.305C127.522 70.8632 128.75 77.7641 128.75 85.0003ZM85 137.5C79.3533 137.5 73.2721 127.452 69.9733 111.25H100.027C96.7279 127.452 90.6467 137.5 85 137.5ZM68.9583 105.417C68.0396 99.2541 67.5 92.4057 67.5 85.0003C67.5 77.5949 68.0396 70.7466 68.9583 64.5837H101.042C101.96 70.7466 102.5 77.5949 102.5 85.0003C102.5 92.4057 101.96 99.2541 101.042 105.417H68.9583ZM85 32.5003C90.6467 32.5003 96.7279 42.5482 100.027 58.7503H69.9733C73.2721 42.5482 79.3533 32.5003 85 32.5003ZM122.829 58.7503H105.936C104.072 49.0378 101.144 40.457 97.2033 34.6207C108.106 38.4299 117.241 47.1945 122.829 58.7503ZM72.7967 34.6207C68.8592 40.4599 65.9279 49.0378 64.0642 58.7503H47.1708C52.7592 47.1945 61.8942 38.4299 72.7967 34.6207ZM41.25 85.0003C41.25 77.7641 42.4779 70.8632 44.6946 64.5837H63.0958C62.1508 71.1928 61.6667 78.1462 61.6667 85.0003C61.6667 91.8545 62.1508 98.8078 63.0958 105.417H44.6946C42.4779 99.1374 41.25 92.2366 41.25 85.0003ZM47.1708 111.25H64.0642C65.9279 120.963 68.8563 129.544 72.7967 135.38C61.8942 131.571 52.7592 122.806 47.1708 111.25ZM97.2033 135.38C101.141 129.541 104.072 120.963 105.936 111.25H122.829C117.241 122.806 108.106 131.571 97.2033 135.38Z" fill="url(#paint2_radial_1_817)"/>
<path id="Vector_3" opacity="0.05" d="M117.853 103.381L94.8262 80.3537C93.6392 79.1695 91.8804 78.8283 90.3637 79.4991C88.8762 80.1378 87.9167 81.5962 87.9167 83.2149V116.167C87.9167 119.971 91.9796 121.531 94.5929 119.291L99.21 115.444L102.672 123.407C103.337 124.923 105.609 126.385 107.998 125.498L111.921 123.792C113.983 122.917 115.094 120.773 114.024 118.466L110.664 110.731L115.336 110.311C119.058 110.311 120.437 105.942 117.853 103.381Z" fill="black"/>
<path id="Vector_4" opacity="0.07" d="M116.821 104.411L93.7937 81.3835C93.0179 80.6106 91.8979 80.421 90.9383 80.8381C90.005 81.2435 89.375 82.1564 89.375 83.2123V116.165C89.375 118.556 91.9767 119.604 93.6596 118.169L99.77 113.073L104.005 122.821C104.46 123.865 105.93 124.725 107.412 124.159L111.337 122.453C112.656 121.89 113.341 120.487 112.682 119.046L108.514 109.459L115.202 108.861C117.556 108.815 118.46 106.038 116.821 104.411Z" fill="black"/>
<path id="Vector_5" d="M115.788 105.443L92.7613 82.4156C92.3996 82.0539 91.9096 82.0072 91.5129 82.1793C91.1308 82.3456 90.8333 82.7189 90.8333 83.2147V116.164C90.8333 117.141 91.9738 117.675 92.7263 117.051L100.333 110.707L105.344 122.237C105.592 122.808 106.26 123.071 106.831 122.823L110.76 121.114C111.332 120.866 111.594 120.198 111.346 119.626L106.373 108.184L115.077 107.406C116.051 107.318 116.483 106.134 115.788 105.443Z" fill="white"/>
<rect x="7.5" y="7.5" width="155" height="155" rx="12.5" stroke="#D5EAF6" stroke-width="15"/>
</g>
<defs>
<linearGradient id="paint0_linear_1_817" x1="85" y1="15" x2="85" y2="155" gradientUnits="userSpaceOnUse">
<stop stop-color="#199AE0"/>
<stop offset="0.472222" stop-color="#0D5176" stop-opacity="0.527778"/>
<stop offset="0.940972" stop-color="#12A6F7" stop-opacity="0.465278"/>
<stop offset="1" stop-opacity="0"/>
</linearGradient>
<radialGradient id="paint1_radial_1_817" cx="0" cy="0" r="1" gradientUnits="userSpaceOnUse" gradientTransform="translate(44.3475 42.5278) scale(119.338)">
<stop stop-color="#6FCEFC"/>
<stop offset="1" stop-color="#167CF7"/>
</radialGradient>
<radialGradient id="paint2_radial_1_817" cx="0" cy="0" r="1" gradientUnits="userSpaceOnUse" gradientTransform="translate(46.1967 38.4795) scale(119.344 119.344)">
<stop offset="0.001" stop-color="#54C0F5"/>
<stop offset="0.998" stop-color="#0B69DB"/>
</radialGradient>
</defs>
</svg>
