<svg width="170" height="170" viewBox="0 0 170 170" fill="none" xmlns="http://www.w3.org/2000/svg">
<g id="invisible">
<rect x="7.5" y="7.5" width="155" height="155" rx="12.5" fill="white"/>
<rect x="7.5" y="7.5" width="155" height="155" rx="12.5" fill="url(#paint0_linear_1_802)" fill-opacity="0.2"/>
<path id="Vector" d="M85 134.584C118.827 134.584 146.25 112.384 146.25 85.0003C146.25 57.6162 118.827 35.417 85 35.417C51.1726 35.417 23.75 57.6162 23.75 85.0003C23.75 112.384 51.1726 134.584 85 134.584Z" fill="url(#paint1_radial_1_802)"/>
<path id="Vector_2" d="M85 117.084C107.552 117.084 125.833 98.802 125.833 76.2503C125.833 53.6987 107.552 35.417 85 35.417C62.4484 35.417 44.1667 53.6987 44.1667 76.2503C44.1667 98.802 62.4484 117.084 85 117.084Z" fill="url(#paint2_linear_1_802)"/>
<path id="Vector_3" d="M85 96.6663C96.2758 96.6663 105.417 87.5255 105.417 76.2497C105.417 64.9739 96.2758 55.833 85 55.833C73.7242 55.833 64.5833 64.9739 64.5833 76.2497C64.5833 87.5255 73.7242 96.6663 85 96.6663Z" fill="url(#paint3_radial_1_802)"/>
<path id="Vector_4" d="M70.4167 67.4997C73.6383 67.4997 76.25 64.888 76.25 61.6663C76.25 58.4447 73.6383 55.833 70.4167 55.833C67.195 55.833 64.5833 58.4447 64.5833 61.6663C64.5833 64.888 67.195 67.4997 70.4167 67.4997Z" fill="white"/>
<path id="Vector_5" d="M145.923 139.641L30.3592 24.0769C29.9246 23.6423 29.2217 23.6423 28.7871 24.0769L24.0767 28.7902C23.6421 29.2248 23.6421 29.9277 24.0767 30.3623L139.641 145.926C140.075 146.361 140.778 146.361 141.213 145.926L145.926 141.213C146.358 140.779 146.358 140.073 145.923 139.641Z" fill="#E52030"/>
<rect x="7.5" y="7.5" width="155" height="155" rx="12.5" stroke="#D5EAF6" stroke-width="15"/>
</g>
<defs>
<linearGradient id="paint0_linear_1_802" x1="85" y1="15" x2="85" y2="155" gradientUnits="userSpaceOnUse">
<stop stop-color="#199AE0"/>
<stop offset="0.472222" stop-color="#0D5176" stop-opacity="0.527778"/>
<stop offset="0.940972" stop-color="#12A6F7" stop-opacity="0.465278"/>
<stop offset="1" stop-opacity="0"/>
</linearGradient>
<radialGradient id="paint1_radial_1_802" cx="0" cy="0" r="1" gradientUnits="userSpaceOnUse" gradientTransform="translate(85.4092 69.4519) scale(64.9954 65.7692)">
<stop offset="0.55" stop-color="#E4E4E6"/>
<stop offset="0.73" stop-color="#E1E2E4"/>
<stop offset="0.854" stop-color="#D8DADC"/>
<stop offset="0.961" stop-color="#C9CDCF"/>
<stop offset="1" stop-color="#C1C6C9"/>
</radialGradient>
<linearGradient id="paint2_linear_1_802" x1="59.0096" y1="50.2599" x2="111.725" y2="102.976" gradientUnits="userSpaceOnUse">
<stop stop-color="#32BDEF"/>
<stop offset="1" stop-color="#1EA2E4"/>
</linearGradient>
<radialGradient id="paint3_radial_1_802" cx="0" cy="0" r="1" gradientUnits="userSpaceOnUse" gradientTransform="translate(72.9717 46.3772) scale(52.9929)">
<stop stop-color="#4B4B4B"/>
<stop offset="0.531" stop-color="#393939"/>
<stop offset="1" stop-color="#252525"/>
</radialGradient>
</defs>
</svg>
