<svg width="170" height="170" viewBox="0 0 170 170" fill="none" xmlns="http://www.w3.org/2000/svg">
<g id="ios-application-placeholder">
<rect x="7.5" y="7.5" width="155" height="155" rx="12.5" fill="white"/>
<rect x="7.5" y="7.5" width="155" height="155" rx="12.5" fill="url(#paint0_linear_1_837)" fill-opacity="0.2"/>
<path id="Vector" d="M122.917 137.5H47.0833L32.5 128.75V41.25L48.5417 32.5H121.458L137.5 41.25V128.75L122.917 137.5Z" fill="#50E6FF"/>
<path id="Vector_2" d="M136.042 120H130.208C129.403 120 128.75 120.653 128.75 121.458V128.75H137.5V121.458C137.5 120.653 136.847 120 136.042 120Z" fill="url(#paint1_linear_1_837)"/>
<path id="Vector_3" d="M136.042 50H130.208C129.403 50 128.75 49.3467 128.75 48.5417V41.25H137.5V48.5417C137.5 49.3467 136.847 50 136.042 50Z" fill="url(#paint2_linear_1_837)"/>
<path id="Vector_4" d="M120 130.208V136.042C120 136.847 120.653 137.5 121.458 137.5H125.469C129.844 137.5 133.125 134.219 137.5 128.75H121.458C120.653 128.75 120 129.403 120 130.208Z" fill="url(#paint3_linear_1_837)"/>
<path id="Vector_5" d="M121.458 41.25H137.5C133.125 35.7813 129.844 32.5 125.469 32.5H121.458C120.653 32.5 120 33.1533 120 33.9583V39.7917C120 40.5967 120.653 41.25 121.458 41.25Z" fill="url(#paint4_linear_1_837)"/>
<path id="Vector_6" d="M32.5 121.458V128.75H41.25V121.458C41.25 120.653 40.5967 120 39.7917 120H33.9583C33.1533 120 32.5 120.653 32.5 121.458Z" fill="url(#paint5_linear_1_837)"/>
<path id="Vector_7" d="M32.5 48.5417V41.25H41.25V48.5417C41.25 49.3467 40.5967 50 39.7917 50H33.9583C33.1533 50 32.5 49.3467 32.5 48.5417Z" fill="url(#paint6_linear_1_837)"/>
<path id="Vector_8" d="M48.5417 128.75H32.5C36.875 134.219 40.1563 137.5 44.5313 137.5H48.5417C49.3467 137.5 50 136.847 50 136.042V130.208C50 129.403 49.3467 128.75 48.5417 128.75Z" fill="url(#paint7_linear_1_837)"/>
<path id="Vector_9" d="M50 39.7917V33.9583C50 33.1533 49.3467 32.5 48.5417 32.5H44.5313C40.1563 32.5 36.875 35.7813 32.5 41.25H48.5417C49.3467 41.25 50 40.5967 50 39.7917Z" fill="url(#paint8_linear_1_837)"/>
<path id="Vector_10" d="M39.7917 58.75H33.9583C33.1533 58.75 32.5 59.4033 32.5 60.2083V68.9583C32.5 69.7633 33.1533 70.4167 33.9583 70.4167H39.7917C40.5967 70.4167 41.25 69.7633 41.25 68.9583V60.2083C41.25 59.4033 40.5967 58.75 39.7917 58.75Z" fill="url(#paint9_linear_1_837)"/>
<path id="Vector_11" d="M39.7917 79.167H33.9583C33.1533 79.167 32.5 79.8203 32.5 80.6253V89.3753C32.5 90.1803 33.1533 90.8337 33.9583 90.8337H39.7917C40.5967 90.8337 41.25 90.1803 41.25 89.3753V80.6253C41.25 79.8203 40.5967 79.167 39.7917 79.167Z" fill="url(#paint10_linear_1_837)"/>
<path id="Vector_12" d="M39.7917 99.583H33.9583C33.1533 99.583 32.5 100.236 32.5 101.041V109.791C32.5 110.596 33.1533 111.25 33.9583 111.25H39.7917C40.5967 111.25 41.25 110.596 41.25 109.791V101.041C41.25 100.236 40.5967 99.583 39.7917 99.583Z" fill="url(#paint11_linear_1_837)"/>
<path id="Vector_13" d="M136.042 58.75H130.208C129.403 58.75 128.75 59.4033 128.75 60.2083V68.9583C128.75 69.7633 129.403 70.4167 130.208 70.4167H136.042C136.847 70.4167 137.5 69.7633 137.5 68.9583V60.2083C137.5 59.4033 136.847 58.75 136.042 58.75Z" fill="url(#paint12_linear_1_837)"/>
<path id="Vector_14" d="M136.042 79.167H130.208C129.403 79.167 128.75 79.8203 128.75 80.6253V89.3753C128.75 90.1803 129.403 90.8337 130.208 90.8337H136.042C136.847 90.8337 137.5 90.1803 137.5 89.3753V80.6253C137.5 79.8203 136.847 79.167 136.042 79.167Z" fill="url(#paint13_linear_1_837)"/>
<path id="Vector_15" d="M136.042 99.583H130.208C129.403 99.583 128.75 100.236 128.75 101.041V109.791C128.75 110.596 129.403 111.25 130.208 111.25H136.042C136.847 111.25 137.5 110.596 137.5 109.791V101.041C137.5 100.236 136.847 99.583 136.042 99.583Z" fill="url(#paint14_linear_1_837)"/>
<path id="Vector_16" d="M111.25 39.7917V33.9583C111.25 33.1533 110.597 32.5 109.792 32.5H101.042C100.237 32.5 99.5833 33.1533 99.5833 33.9583V39.7917C99.5833 40.5967 100.237 41.25 101.042 41.25H109.792C110.597 41.25 111.25 40.5967 111.25 39.7917Z" fill="url(#paint15_linear_1_837)"/>
<path id="Vector_17" d="M90.8333 39.7917V33.9583C90.8333 33.1533 90.18 32.5 89.375 32.5H80.625C79.82 32.5 79.1667 33.1533 79.1667 33.9583V39.7917C79.1667 40.5967 79.82 41.25 80.625 41.25H89.375C90.18 41.25 90.8333 40.5967 90.8333 39.7917Z" fill="url(#paint16_linear_1_837)"/>
<path id="Vector_18" d="M70.4167 39.7917V33.9583C70.4167 33.1533 69.7633 32.5 68.9583 32.5H60.2083C59.4033 32.5 58.75 33.1533 58.75 33.9583V39.7917C58.75 40.5967 59.4033 41.25 60.2083 41.25H68.9583C69.7633 41.25 70.4167 40.5967 70.4167 39.7917Z" fill="url(#paint17_linear_1_837)"/>
<path id="Vector_19" d="M111.25 136.042V130.208C111.25 129.403 110.597 128.75 109.792 128.75H101.042C100.237 128.75 99.5833 129.403 99.5833 130.208V136.042C99.5833 136.847 100.237 137.5 101.042 137.5H109.792C110.597 137.5 111.25 136.847 111.25 136.042Z" fill="url(#paint18_linear_1_837)"/>
<path id="Vector_20" d="M90.8333 136.042V130.208C90.8333 129.403 90.18 128.75 89.375 128.75H80.625C79.82 128.75 79.1667 129.403 79.1667 130.208V136.042C79.1667 136.847 79.82 137.5 80.625 137.5H89.375C90.18 137.5 90.8333 136.847 90.8333 136.042Z" fill="url(#paint19_linear_1_837)"/>
<path id="Vector_21" d="M70.4167 136.042V130.208C70.4167 129.403 69.7633 128.75 68.9583 128.75H60.2083C59.4033 128.75 58.75 129.403 58.75 130.208V136.042C58.75 136.847 59.4033 137.5 60.2083 137.5H68.9583C69.7633 137.5 70.4167 136.847 70.4167 136.042Z" fill="url(#paint20_linear_1_837)"/>
<rect x="7.5" y="7.5" width="155" height="155" rx="12.5" stroke="#D5EAF6" stroke-width="15"/>
</g>
<defs>
<linearGradient id="paint0_linear_1_837" x1="85" y1="15" x2="85" y2="155" gradientUnits="userSpaceOnUse">
<stop stop-color="#199AE0"/>
<stop offset="0.472222" stop-color="#0D5176" stop-opacity="0.527778"/>
<stop offset="0.940972" stop-color="#12A6F7" stop-opacity="0.465278"/>
<stop offset="1" stop-opacity="0"/>
</linearGradient>
<linearGradient id="paint1_linear_1_837" x1="133.125" y1="120" x2="133.125" y2="128.75" gradientUnits="userSpaceOnUse">
<stop offset="0.478" stop-color="#199AE0"/>
<stop offset="0.868" stop-color="#1186CC"/>
<stop offset="1" stop-color="#076CB3"/>
</linearGradient>
<linearGradient id="paint2_linear_1_837" x1="133.125" y1="50" x2="133.125" y2="41.25" gradientUnits="userSpaceOnUse">
<stop offset="0.478" stop-color="#199AE0"/>
<stop offset="0.868" stop-color="#1186CC"/>
<stop offset="1" stop-color="#076CB3"/>
</linearGradient>
<linearGradient id="paint3_linear_1_837" x1="125.536" y1="114.231" x2="129.363" y2="135.931" gradientUnits="userSpaceOnUse">
<stop stop-color="#32BDEF"/>
<stop offset="0.661" stop-color="#25ABE8"/>
<stop offset="1" stop-color="#1EA2E4"/>
</linearGradient>
<linearGradient id="paint4_linear_1_837" x1="124.299" y1="15.3471" x2="128.919" y2="41.5417" gradientUnits="userSpaceOnUse">
<stop stop-color="#32BDEF"/>
<stop offset="0.661" stop-color="#25ABE8"/>
<stop offset="1" stop-color="#1EA2E4"/>
</linearGradient>
<linearGradient id="paint5_linear_1_837" x1="36.8779" y1="120" x2="36.8779" y2="128.75" gradientUnits="userSpaceOnUse">
<stop offset="0.478" stop-color="#199AE0"/>
<stop offset="0.868" stop-color="#1186CC"/>
<stop offset="1" stop-color="#076CB3"/>
</linearGradient>
<linearGradient id="paint6_linear_1_837" x1="36.875" y1="50" x2="36.875" y2="41.25" gradientUnits="userSpaceOnUse">
<stop offset="0.478" stop-color="#199AE0"/>
<stop offset="0.868" stop-color="#1186CC"/>
<stop offset="1" stop-color="#076CB3"/>
</linearGradient>
<linearGradient id="paint7_linear_1_837" x1="44.4642" y1="114.231" x2="40.6375" y2="135.931" gradientUnits="userSpaceOnUse">
<stop stop-color="#32BDEF"/>
<stop offset="0.661" stop-color="#25ABE8"/>
<stop offset="1" stop-color="#1EA2E4"/>
</linearGradient>
<linearGradient id="paint8_linear_1_837" x1="45.7008" y1="15.3471" x2="41.0808" y2="41.5417" gradientUnits="userSpaceOnUse">
<stop stop-color="#32BDEF"/>
<stop offset="0.661" stop-color="#25ABE8"/>
<stop offset="1" stop-color="#1EA2E4"/>
</linearGradient>
<linearGradient id="paint9_linear_1_837" x1="32.5" y1="64.5833" x2="41.25" y2="64.5833" gradientUnits="userSpaceOnUse">
<stop stop-color="#199AE0"/>
<stop offset="1" stop-color="#199AE0"/>
</linearGradient>
<linearGradient id="paint10_linear_1_837" x1="32.5" y1="85.0003" x2="41.25" y2="85.0003" gradientUnits="userSpaceOnUse">
<stop stop-color="#199AE0"/>
<stop offset="1" stop-color="#199AE0"/>
</linearGradient>
<linearGradient id="paint11_linear_1_837" x1="32.5" y1="105.416" x2="41.25" y2="105.416" gradientUnits="userSpaceOnUse">
<stop stop-color="#199AE0"/>
<stop offset="1" stop-color="#199AE0"/>
</linearGradient>
<linearGradient id="paint12_linear_1_837" x1="128.75" y1="64.5833" x2="137.5" y2="64.5833" gradientUnits="userSpaceOnUse">
<stop stop-color="#199AE0"/>
<stop offset="1" stop-color="#199AE0"/>
</linearGradient>
<linearGradient id="paint13_linear_1_837" x1="128.75" y1="85.0003" x2="137.5" y2="85.0003" gradientUnits="userSpaceOnUse">
<stop stop-color="#199AE0"/>
<stop offset="1" stop-color="#199AE0"/>
</linearGradient>
<linearGradient id="paint14_linear_1_837" x1="128.75" y1="105.416" x2="137.5" y2="105.416" gradientUnits="userSpaceOnUse">
<stop stop-color="#199AE0"/>
<stop offset="1" stop-color="#199AE0"/>
</linearGradient>
<linearGradient id="paint15_linear_1_837" x1="105.417" y1="32.5" x2="105.417" y2="41.25" gradientUnits="userSpaceOnUse">
<stop stop-color="#199AE0"/>
<stop offset="1" stop-color="#199AE0"/>
</linearGradient>
<linearGradient id="paint16_linear_1_837" x1="85" y1="32.5" x2="85" y2="41.25" gradientUnits="userSpaceOnUse">
<stop stop-color="#199AE0"/>
<stop offset="1" stop-color="#199AE0"/>
</linearGradient>
<linearGradient id="paint17_linear_1_837" x1="64.5833" y1="32.5" x2="64.5833" y2="41.25" gradientUnits="userSpaceOnUse">
<stop stop-color="#199AE0"/>
<stop offset="1" stop-color="#199AE0"/>
</linearGradient>
<linearGradient id="paint18_linear_1_837" x1="105.417" y1="128.75" x2="105.417" y2="137.5" gradientUnits="userSpaceOnUse">
<stop stop-color="#199AE0"/>
<stop offset="1" stop-color="#199AE0"/>
</linearGradient>
<linearGradient id="paint19_linear_1_837" x1="85" y1="128.75" x2="85" y2="137.5" gradientUnits="userSpaceOnUse">
<stop stop-color="#199AE0"/>
<stop offset="1" stop-color="#199AE0"/>
</linearGradient>
<linearGradient id="paint20_linear_1_837" x1="64.5833" y1="128.75" x2="64.5833" y2="137.5" gradientUnits="userSpaceOnUse">
<stop stop-color="#199AE0"/>
<stop offset="1" stop-color="#199AE0"/>
</linearGradient>
</defs>
</svg>
