<svg width="170" height="170" viewBox="0 0 170 170" fill="none" xmlns="http://www.w3.org/2000/svg">
<g id="iphone-x">
<rect x="7.5" y="7.5" width="155" height="155" rx="12.5" fill="white"/>
<rect x="7.5" y="7.5" width="155" height="155" rx="12.5" fill="url(#paint0_linear_1_832)" fill-opacity="0.2"/>
<path id="Vector" d="M114.167 26.667H55.8333C52.6104 26.667 50 29.2774 50 32.5003V140.417C50 143.64 52.6104 146.25 55.8333 146.25H114.167C117.39 146.25 120 143.64 120 140.417V32.5003C120 29.2774 117.39 26.667 114.167 26.667Z" fill="url(#paint1_linear_1_832)"/>
<path id="Vector_2" d="M64.5833 26.667H105.417L103.83 31.427C103.037 33.8099 100.805 35.417 98.2942 35.417H71.7029C69.1917 35.417 66.9633 33.8099 66.17 31.427L64.5833 26.667Z" fill="#007AD9"/>
<path id="Vector_3" d="M95.2083 32.4997C96.0137 32.4997 96.6667 31.8468 96.6667 31.0413C96.6667 30.2359 96.0137 29.583 95.2083 29.583C94.4029 29.583 93.75 30.2359 93.75 31.0413C93.75 31.8468 94.4029 32.4997 95.2083 32.4997Z" fill="#184F85"/>
<path id="Vector_4" d="M89.375 29.583C89.1038 29.583 77.9796 29.583 77.7083 29.583C76.9033 29.583 76.25 30.2363 76.25 31.0413C76.25 31.8463 76.9033 32.4997 77.7083 32.4997C77.9796 32.4997 89.1038 32.4997 89.375 32.4997C90.18 32.4997 90.8333 31.8463 90.8333 31.0413C90.8333 30.2363 90.18 29.583 89.375 29.583Z" fill="#184F85"/>
<rect x="7.5" y="7.5" width="155" height="155" rx="12.5" stroke="#D5EAF6" stroke-width="15"/>
</g>
<defs>
<linearGradient id="paint0_linear_1_832" x1="85" y1="15" x2="85" y2="155" gradientUnits="userSpaceOnUse">
<stop stop-color="#199AE0"/>
<stop offset="0.472222" stop-color="#0D5176" stop-opacity="0.527778"/>
<stop offset="0.940972" stop-color="#12A6F7" stop-opacity="0.465278"/>
<stop offset="1" stop-opacity="0"/>
</linearGradient>
<linearGradient id="paint1_linear_1_832" x1="63.3262" y1="25.3487" x2="105.939" y2="145.501" gradientUnits="userSpaceOnUse">
<stop stop-color="#32BDEF"/>
<stop offset="1" stop-color="#1EA2E4"/>
</linearGradient>
</defs>
</svg>
