<svg width="170" height="170" viewBox="0 0 170 170" fill="none" xmlns="http://www.w3.org/2000/svg">
<g id="iphone-spinner">
<rect x="7.5" y="7.5" width="155" height="155" rx="12.5" fill="white"/>
<rect x="7.5" y="7.5" width="155" height="155" rx="12.5" fill="url(#paint0_linear_1_823)" fill-opacity="0.2"/>
<path id="Vector" d="M87.9167 55.8337H82.0833C80.4733 55.8337 79.1667 54.527 79.1667 52.917V29.5837C79.1667 27.9737 80.4733 26.667 82.0833 26.667H87.9167C89.5267 26.667 90.8333 27.9737 90.8333 29.5837V52.917C90.8333 54.527 89.5267 55.8337 87.9167 55.8337Z" fill="#2D5EAB"/>
<path id="Vector_2" d="M87.9167 143.334H82.0833C80.4733 143.334 79.1667 142.027 79.1667 140.417V117.084C79.1667 115.474 80.4733 114.167 82.0833 114.167H87.9167C89.5267 114.167 90.8333 115.474 90.8333 117.084V140.417C90.8333 142.027 89.5267 143.334 87.9167 143.334Z" fill="#199BE2"/>
<path id="Vector_3" d="M114.167 87.917V82.0837C114.167 80.4737 115.473 79.167 117.083 79.167H140.417C142.027 79.167 143.333 80.4737 143.333 82.0837V87.917C143.333 89.527 142.027 90.8337 140.417 90.8337H117.083C115.473 90.8337 114.167 89.527 114.167 87.917Z" fill="#0D62AB"/>
<path id="Vector_4" d="M26.6667 87.917V82.0837C26.6667 80.4737 27.9733 79.167 29.5833 79.167H52.9167C54.5267 79.167 55.8333 80.4737 55.8333 82.0837V87.917C55.8333 89.527 54.5267 90.8337 52.9167 90.8337H29.5833C27.9733 90.8337 26.6667 89.527 26.6667 87.917Z" fill="#50E6FF"/>
<path id="Vector_5" d="M107.686 66.4382L103.562 62.314C102.421 61.1736 102.421 59.3274 103.562 58.1899L120.061 41.6903C121.202 40.5499 123.048 40.5499 124.185 41.6903L128.31 45.8144C129.45 46.9549 129.45 48.8011 128.31 49.9386L111.81 66.4382C110.673 67.5786 108.826 67.5786 107.686 66.4382Z" fill="#2D5EAB"/>
<path id="Vector_6" d="M45.8146 128.309L41.6904 124.185C40.55 123.045 40.55 121.198 41.6904 120.061L58.19 103.561C59.3304 102.421 61.1767 102.421 62.3142 103.561L66.4383 107.686C67.5787 108.826 67.5787 110.672 66.4383 111.81L49.9387 128.309C48.8012 129.45 46.9521 129.45 45.8146 128.309Z" fill="#35C1F1"/>
<path id="Vector_7" d="M103.562 107.686L107.686 103.561C108.826 102.421 110.673 102.421 111.81 103.561L128.31 120.061C129.45 121.201 129.45 123.048 128.31 124.185L124.185 128.309C123.045 129.45 121.199 129.45 120.061 128.309L103.562 111.81C102.421 110.672 102.421 108.826 103.562 107.686Z" fill="#0078D4"/>
<path id="Vector_8" d="M41.6904 45.8144L45.8146 41.6903C46.955 40.5499 48.8012 40.5499 49.9387 41.6903L66.4383 58.1899C67.5787 59.3303 67.5787 61.1765 66.4383 62.314L62.3142 66.4382C61.1737 67.5786 59.3275 67.5786 58.19 66.4382L41.6904 49.9386C40.55 48.8011 40.55 46.9519 41.6904 45.8144Z" fill="#2D5EAB"/>
<rect x="7.5" y="7.5" width="155" height="155" rx="12.5" stroke="#D5EAF6" stroke-width="15"/>
</g>
<defs>
<linearGradient id="paint0_linear_1_823" x1="85" y1="15" x2="85" y2="155" gradientUnits="userSpaceOnUse">
<stop stop-color="#199AE0"/>
<stop offset="0.472222" stop-color="#0D5176" stop-opacity="0.527778"/>
<stop offset="0.940972" stop-color="#12A6F7" stop-opacity="0.465278"/>
<stop offset="1" stop-opacity="0"/>
</linearGradient>
</defs>
</svg>
