<svg width="48" height="38" viewBox="0 0 48 38" fill="none" xmlns="http://www.w3.org/2000/svg">
<path d="M45.3542 37.7083H2.64582C1.20728 37.7083 0.0416565 36.5426 0.0416565 35.1041V2.81242C0.0416565 1.37388 1.20728 0.208252 2.64582 0.208252H14.726C16.3083 0.208252 17.8042 0.927002 18.7927 2.16346L21.3958 5.41658H45.3542C46.7927 5.41658 47.9583 6.58221 47.9583 8.02075V35.1041C47.9583 36.5426 46.7927 37.7083 45.3542 37.7083Z" fill="url(#paint0_linear_46_5732)"/>
<path d="M0.0416565 34.4531V35.1041C0.0416565 36.5426 1.20728 37.7083 2.64582 37.7083H45.3542C46.7927 37.7083 47.9583 36.5426 47.9583 35.1041V34.4531H0.0416565Z" fill="url(#paint1_linear_46_5732)"/>
<path d="M45.3542 6.45825H21.3958L20.1073 7.31659C18.9104 8.11554 17.5031 8.54158 16.0635 8.54158H2.64582C1.20728 8.54158 0.0416565 9.70721 0.0416565 11.1458V34.0624C0.0416565 35.501 1.20728 36.6666 2.64582 36.6666H45.3542C46.7927 36.6666 47.9583 35.501 47.9583 34.0624V9.06242C47.9583 7.62388 46.7927 6.45825 45.3542 6.45825Z" fill="url(#paint2_linear_46_5732)"/>
<path d="M45.3542 36.6666H2.64582C1.20728 36.6666 0.0416565 35.501 0.0416565 34.0624V12.1875C0.0416565 10.749 1.20728 9.58333 2.64582 9.58333H16.4542C17.8937 9.58333 19.301 9.15729 20.4989 8.35833L21.7864 7.5H45.3542C46.7927 7.5 47.9583 8.66563 47.9583 10.1042V34.0624C47.9583 35.501 46.7927 36.6666 45.3542 36.6666Z" fill="url(#paint3_radial_46_5732)"/>
<path d="M31.8948 20.4614V32.8737C31.8948 33.4223 31.4505 33.8668 30.9018 33.8668H17.993C17.4444 33.8668 17 33.4223 17 32.8737V15.993C17 15.4444 17.4444 15 17.993 15H26.4334L31.8948 20.4614Z" fill="url(#paint4_linear_46_5732)"/>
<path d="M26.4334 15L26.4334 19.4684C26.4334 20.0171 26.8777 20.4614 27.4263 20.4614H31.8948L26.4334 15Z" fill="url(#paint5_linear_46_5732)"/>
<path d="M29 25.5C29 27.9853 26.9853 30 24.5 30C22.0147 30 20 27.9853 20 25.5C20 23.0147 22.0147 21 24.5 21C26.9853 21 29 23.0147 29 25.5Z" fill="url(#paint6_linear_46_5732)"/>
<path d="M23.1321 23.8771H23.5624V26.4171C23.5624 26.6438 23.5208 26.8364 23.4375 26.9949C23.3542 27.1533 23.2368 27.2736 23.0853 27.3557C22.9338 27.4379 22.755 27.4789 22.5492 27.4789C22.3548 27.4789 22.1819 27.4436 22.0304 27.3731C21.8789 27.3014 21.7597 27.1996 21.673 27.0677C21.5862 26.9359 21.5429 26.7791 21.5429 26.5975H21.9662C21.9662 26.6982 21.9911 26.7861 22.0408 26.8613C22.0917 26.9353 22.1611 26.9931 22.249 27.0348C22.3369 27.0764 22.437 27.0972 22.5492 27.0972C22.6729 27.0972 22.7782 27.0712 22.8649 27.0191C22.9517 26.9671 23.0176 26.8908 23.0627 26.7901C23.109 26.6883 23.1321 26.564 23.1321 26.4171V23.8771Z" fill="#64717C"/>
<path d="M26.3679 24.7654C26.347 24.5896 26.2626 24.4531 26.1146 24.3559C25.9665 24.2588 25.7849 24.2102 25.5698 24.2102C25.4125 24.2102 25.2748 24.2357 25.1568 24.2865C25.04 24.3374 24.9486 24.4074 24.8827 24.4965C24.8179 24.5855 24.7856 24.6867 24.7856 24.8001C24.7856 24.8949 24.8081 24.9765 24.8532 25.0447C24.8995 25.1118 24.9585 25.1679 25.0302 25.213C25.1019 25.257 25.1771 25.2934 25.2557 25.3223C25.3344 25.3501 25.4067 25.3726 25.4726 25.39L25.8335 25.4872C25.926 25.5114 26.029 25.545 26.1423 25.5878C26.2568 25.6306 26.3661 25.689 26.4702 25.763C26.5755 25.8359 26.6622 25.9296 26.7305 26.0441C26.7987 26.1586 26.8328 26.2991 26.8328 26.4657C26.8328 26.6577 26.7825 26.8312 26.6819 26.9862C26.5824 27.1412 26.4367 27.2644 26.2447 27.3557C26.0538 27.4471 25.8219 27.4928 25.549 27.4928C25.2945 27.4928 25.0741 27.4517 24.8879 27.3696C24.7029 27.2875 24.5571 27.173 24.4507 27.0261C24.3455 26.8792 24.2859 26.7086 24.272 26.5143H24.7162C24.7277 26.6484 24.7728 26.7595 24.8515 26.8474C24.9313 26.9341 25.0319 26.9989 25.1534 27.0417C25.276 27.0833 25.4078 27.1042 25.549 27.1042C25.7132 27.1042 25.8607 27.0776 25.9914 27.0243C26.1221 26.97 26.2256 26.8948 26.3019 26.7988C26.3783 26.7016 26.4164 26.5883 26.4164 26.4587C26.4164 26.3408 26.3835 26.2448 26.3175 26.1707C26.2516 26.0967 26.1649 26.0366 26.0573 25.9903C25.9497 25.944 25.8335 25.9035 25.7086 25.8688L25.2714 25.7439C24.9938 25.6641 24.774 25.5502 24.6121 25.4021C24.4501 25.2541 24.3692 25.0603 24.3692 24.8209C24.3692 24.622 24.4229 24.4485 24.5305 24.3004C24.6392 24.1512 24.785 24.0356 24.9677 23.9534C25.1516 23.8701 25.3569 23.8285 25.5837 23.8285C25.8127 23.8285 26.0162 23.8696 26.1944 23.9517C26.3725 24.0327 26.5136 24.1437 26.6177 24.2848C26.723 24.4259 26.7785 24.5861 26.7843 24.7654H26.3679Z" fill="#64717C"/>
<defs>
<linearGradient id="paint0_linear_46_5732" x1="-8.31043" y1="4.69575" x2="40.0281" y2="29.9301" gradientUnits="userSpaceOnUse">
<stop stop-color="#FAC017"/>
<stop offset="0.909" stop-color="#E1AB2D"/>
</linearGradient>
<linearGradient id="paint1_linear_46_5732" x1="16.5677" y1="17.1523" x2="45.8479" y2="17.1979" gradientUnits="userSpaceOnUse">
<stop stop-color="#E3A917"/>
<stop offset="0.464" stop-color="#D79C1E"/>
</linearGradient>
<linearGradient id="paint2_linear_46_5732" x1="-6.0823" y1="2.48929" x2="39.0464" y2="18.5217" gradientUnits="userSpaceOnUse">
<stop offset="0.34" stop-color="#FFEFB2"/>
<stop offset="0.485" stop-color="#FFEDAD"/>
<stop offset="0.652" stop-color="#FFE99F"/>
<stop offset="0.828" stop-color="#FEE289"/>
<stop offset="1" stop-color="#FED86B"/>
</linearGradient>
<radialGradient id="paint3_radial_46_5732" cx="0" cy="0" r="1" gradientUnits="userSpaceOnUse" gradientTransform="translate(38.4125 50.1864) scale(56.1198 72.154)">
<stop offset="0.199" stop-color="#FEC832"/>
<stop offset="0.601" stop-color="#FCD667"/>
<stop offset="0.68" stop-color="#FDDA75"/>
<stop offset="0.886" stop-color="#FEE496"/>
<stop offset="1" stop-color="#FFE8A2"/>
</radialGradient>
<linearGradient id="paint4_linear_46_5732" x1="24" y1="0.208252" x2="24" y2="37.7083" gradientUnits="userSpaceOnUse">
<stop stop-color="#0077D2"/>
<stop offset="1" stop-color="#35C1F1"/>
</linearGradient>
<linearGradient id="paint5_linear_46_5732" x1="2.34599" y1="35.9083" x2="19.126" y2="14.4629" gradientUnits="userSpaceOnUse">
<stop stop-color="#297CD2"/>
<stop offset="1" stop-color="white"/>
</linearGradient>
<linearGradient id="paint6_linear_46_5732" x1="24" y1="0.208252" x2="24" y2="37.7083" gradientUnits="userSpaceOnUse">
<stop stop-color="white"/>
<stop offset="1" stop-color="white"/>
</linearGradient>
</defs>
</svg>
