<svg width="170" height="170" viewBox="0 0 170 170" fill="none" xmlns="http://www.w3.org/2000/svg">
<g id="job-seeker">
<g clip-path="url(#clip0_1_859)">
<rect x="15" y="15" width="140" height="140" rx="5" fill="white"/>
<rect x="15" y="15" width="140" height="140" rx="5" fill="url(#paint0_linear_1_859)" fill-opacity="0.2"/>
<path id="Vector" d="M98.125 32.5H71.875C69.46 32.5 67.5 34.46 67.5 36.875V41.25H102.5V36.875C102.5 34.46 100.54 32.5 98.125 32.5Z" fill="url(#paint1_linear_1_859)"/>
<path id="Vector_2" d="M137.5 134.583H32.5C29.2917 134.583 26.6667 131.958 26.6667 128.75V52.9167C26.6667 46.5 31.9167 41.25 38.3333 41.25H131.667C138.083 41.25 143.333 46.5 143.333 52.9167V128.75C143.333 131.958 140.708 134.583 137.5 134.583Z" fill="url(#paint2_radial_1_859)"/>
<path id="Vector_3" d="M138.366 88.6604L85 96.6667L31.6337 88.6604C28.7783 88.2346 26.6667 85.7817 26.6667 82.8942V52.9167C26.6667 46.5 31.9167 41.25 38.3333 41.25H131.667C138.083 41.25 143.333 46.5 143.333 52.9167V82.8942C143.333 85.7817 141.222 88.2346 138.366 88.6604Z" fill="url(#paint3_linear_1_859)"/>
<path id="Vector_4" d="M89.375 76.25H80.625C79.82 76.25 79.1667 76.9033 79.1667 77.7083V86.4583C79.1667 87.2633 79.82 87.9167 80.625 87.9167H89.375C90.18 87.9167 90.8333 87.2633 90.8333 86.4583V77.7083C90.8333 76.9033 90.18 76.25 89.375 76.25Z" fill="#F6ECA5"/>
<path id="Vector_5" opacity="0.15" d="M122.917 93.75C106.808 93.75 93.75 106.808 93.75 122.917C93.75 127.067 94.6308 131.008 96.1942 134.583H137.5C140.708 134.583 143.333 131.958 143.333 128.75V102.103C138.072 96.9408 130.87 93.75 122.917 93.75Z" fill="url(#paint4_radial_1_859)"/>
<path id="Vector_6" d="M146.227 141.07L141.07 146.227L149.63 154.787C149.916 155.073 150.377 155.073 150.663 154.787L154.787 150.663C155.073 150.377 155.073 149.917 154.787 149.631L146.227 141.07Z" fill="#199BE2"/>
<path id="Vector_7" d="M139.833 134.68L134.68 139.833L141.07 146.227L146.227 141.07L139.833 134.68Z" fill="url(#paint5_radial_1_859)"/>
<path id="Vector_8" d="M122.917 146.25C135.803 146.25 146.25 135.803 146.25 122.916C146.25 110.03 135.803 99.583 122.917 99.583C110.03 99.583 99.5833 110.03 99.5833 122.916C99.5833 135.803 110.03 146.25 122.917 146.25Z" fill="url(#paint6_linear_1_859)"/>
</g>
<rect x="7.5" y="7.5" width="155" height="155" rx="12.5" stroke="#D5EAF6" stroke-width="15"/>
</g>
<defs>
<linearGradient id="paint0_linear_1_859" x1="85" y1="15" x2="85" y2="155" gradientUnits="userSpaceOnUse">
<stop stop-color="#199AE0"/>
<stop offset="0.472222" stop-color="#0D5176" stop-opacity="0.527778"/>
<stop offset="0.940972" stop-color="#12A6F7" stop-opacity="0.465278"/>
<stop offset="1" stop-opacity="0"/>
</linearGradient>
<linearGradient id="paint1_linear_1_859" x1="85" y1="41.1888" x2="85" y2="33.3983" gradientUnits="userSpaceOnUse">
<stop stop-color="#B33F20"/>
<stop offset="0.129" stop-color="#C74724"/>
<stop offset="0.295" stop-color="#D94F29"/>
<stop offset="0.469" stop-color="#E4532B"/>
<stop offset="0.659" stop-color="#E8552C"/>
</linearGradient>
<radialGradient id="paint2_radial_1_859" cx="0" cy="0" r="1" gradientUnits="userSpaceOnUse" gradientTransform="translate(84.51 32.4766) scale(133.408 107.314)">
<stop stop-color="#40150B"/>
<stop offset="0.156" stop-color="#622110"/>
<stop offset="0.417" stop-color="#953218"/>
<stop offset="0.645" stop-color="#BA3F1E"/>
<stop offset="0.828" stop-color="#D14722"/>
<stop offset="0.944" stop-color="#D94A23"/>
</radialGradient>
<linearGradient id="paint3_linear_1_859" x1="85" y1="41.3317" x2="85" y2="93.5371" gradientUnits="userSpaceOnUse">
<stop stop-color="#FC7D5B"/>
<stop offset="0.06" stop-color="#F8734F"/>
<stop offset="0.18" stop-color="#F3653D"/>
<stop offset="0.326" stop-color="#F05B31"/>
<stop offset="0.523" stop-color="#EE552A"/>
<stop offset="1" stop-color="#ED5328"/>
</linearGradient>
<radialGradient id="paint4_radial_1_859" cx="0" cy="0" r="1" gradientUnits="userSpaceOnUse" gradientTransform="translate(122.745 122.672) scale(28.7496 28.7496)">
<stop offset="0.627"/>
<stop offset="1" stop-opacity="0"/>
</radialGradient>
<radialGradient id="paint5_radial_1_859" cx="0" cy="0" r="1" gradientUnits="userSpaceOnUse" gradientTransform="translate(122.952 123.057) scale(28.5892)">
<stop offset="0.693" stop-color="#006185"/>
<stop offset="0.921" stop-color="#35C1F1"/>
</radialGradient>
<linearGradient id="paint6_linear_1_859" x1="106.744" y1="106.743" x2="139.451" y2="139.451" gradientUnits="userSpaceOnUse">
<stop stop-color="#A3FFFF"/>
<stop offset="0.223" stop-color="#9DFBFF"/>
<stop offset="0.53" stop-color="#8BF1FF"/>
<stop offset="0.885" stop-color="#6EE0FF"/>
<stop offset="1" stop-color="#63DAFF"/>
</linearGradient>
<clipPath id="clip0_1_859">
<rect x="15" y="15" width="140" height="140" rx="5" fill="white"/>
</clipPath>
</defs>
</svg>
