<svg width="170" height="170" viewBox="0 0 170 170" fill="none" xmlns="http://www.w3.org/2000/svg">
<g id="knowledge-sharing">
<rect x="7.5" y="7.5" width="155" height="155" rx="12.5" fill="white"/>
<rect x="7.5" y="7.5" width="155" height="155" rx="12.5" fill="url(#paint0_linear_1_886)" fill-opacity="0.2"/>
<path id="Vector" d="M130.208 114.166C134.235 114.166 137.5 110.902 137.5 106.875C137.5 102.848 134.235 99.583 130.208 99.583C126.181 99.583 122.917 102.848 122.917 106.875C122.917 110.902 126.181 114.166 130.208 114.166Z" fill="#C98E00"/>
<path id="Vector_2" d="M91.4488 136.576L133.65 113.271L127.408 100.141L90.8333 117.084L91.4488 136.576Z" fill="#C98E00"/>
<path id="Vector_3" d="M146.25 109.791C146.25 105.763 142.986 102.5 138.958 102.5C137.967 102.5 137.022 102.701 136.161 103.06L136.158 103.057L136.126 103.071C136.12 103.074 136.115 103.077 136.109 103.08L99.5833 120L95.2083 117.083C99.2363 117.083 102.5 113.819 102.5 109.791C102.5 107.079 101.001 104.74 98.8046 103.483L98.8163 103.436L59.0008 83.4101H58.9279C57.0904 82.5759 55.0663 82.083 52.9167 82.083C50.8225 82.083 48.8421 82.5409 47.0396 83.3372H46.9754L23.75 93.7497V131.666L47.3458 120.822L93.7529 139.804H93.7558C94.6513 140.195 95.6313 140.416 96.6667 140.416C97.9354 140.416 99.1108 140.063 100.152 139.492L100.202 139.489L142.403 116.188L142.4 116.182C144.681 114.951 146.25 112.568 146.25 109.791Z" fill="url(#paint1_linear_1_886)"/>
<path id="Vector_4" d="M95.2083 114.167C97.6246 114.167 99.5833 112.208 99.5833 109.792C99.5833 107.376 97.6246 105.417 95.2083 105.417C92.7921 105.417 90.8333 107.376 90.8333 109.792C90.8333 112.208 92.7921 114.167 95.2083 114.167Z" fill="#FFDE87"/>
<path id="Vector_5" d="M99.5833 120L95.2404 117.089C91.58 116.914 88.7012 115.724 64.5833 106.843V117.083L98.2737 130.891C98.2737 130.891 95.8879 124.232 99.5833 120Z" fill="url(#paint2_linear_1_886)"/>
<path id="Vector_6" d="M114.167 35.417C107.724 35.417 102.5 40.6407 102.5 47.0837V67.5003C97.1217 67.5003 92.8779 72.3537 93.9046 77.9128C94.5375 81.3516 97.3346 84.172 100.767 84.8312C105.309 85.7032 109.331 83.0578 110.713 79.1641H131.667C134.89 79.1641 137.5 76.5537 137.5 73.3307V41.2503C137.5 38.0274 134.89 35.417 131.667 35.417H114.167Z" fill="#35C1F1"/>
<path id="Vector_7" d="M90.8333 79.167H73.3333C70.1104 79.167 67.5 76.5566 67.5 73.3337V41.2503C67.5 38.0274 70.1104 35.417 73.3333 35.417H90.8333C97.2763 35.417 102.5 40.6407 102.5 47.0837V79.167C102.5 79.167 97.2763 79.167 90.8333 79.167Z" fill="#50E6FF"/>
<rect x="7.5" y="7.5" width="155" height="155" rx="12.5" stroke="#D5EAF6" stroke-width="15"/>
</g>
<defs>
<linearGradient id="paint0_linear_1_886" x1="85" y1="15" x2="85" y2="155" gradientUnits="userSpaceOnUse">
<stop stop-color="#199AE0"/>
<stop offset="0.472222" stop-color="#0D5176" stop-opacity="0.527778"/>
<stop offset="0.940972" stop-color="#12A6F7" stop-opacity="0.465278"/>
<stop offset="1" stop-opacity="0"/>
</linearGradient>
<linearGradient id="paint1_linear_1_886" x1="23.75" y1="111.25" x2="146.25" y2="111.25" gradientUnits="userSpaceOnUse">
<stop stop-color="#FFCF54"/>
<stop offset="0.261" stop-color="#FDCB4D"/>
<stop offset="0.639" stop-color="#F7C13A"/>
<stop offset="1" stop-color="#F0B421"/>
</linearGradient>
<linearGradient id="paint2_linear_1_886" x1="80.1496" y1="121.073" x2="85.3587" y2="112.09" gradientUnits="userSpaceOnUse">
<stop stop-color="#F0B421" stop-opacity="0"/>
<stop offset="0.512" stop-color="#E9AB12" stop-opacity="0.512"/>
<stop offset="1" stop-color="#E09F00"/>
</linearGradient>
</defs>
</svg>
