<svg width="170" height="170" viewBox="0 0 170 170" fill="none" xmlns="http://www.w3.org/2000/svg">
<g id="letterbox">
<rect x="7.5" y="7.5" width="155" height="155" rx="12.5" fill="white"/>
<rect x="7.5" y="7.5" width="155" height="155" rx="12.5" fill="url(#paint0_linear_1_905)" fill-opacity="0.2"/>
<path id="Vector" d="M55.8333 41.25H114.167C130.275 41.25 143.333 54.3079 143.333 70.4167V131.667C143.333 134.89 140.723 137.5 137.5 137.5H55.8333V41.25Z" fill="#007AD9"/>
<path id="Vector_2" d="M55.8333 41.25C39.7246 41.25 26.6667 54.3079 26.6667 70.4167V131.667C26.6667 134.89 29.2771 137.5 32.5 137.5H79.1667C82.3896 137.5 85 134.89 85 131.667V70.4167C85 54.3079 71.9421 41.25 55.8333 41.25Z" fill="url(#paint1_linear_1_905)"/>
<path id="Vector_3" d="M64.5833 76.2503H44.1667C42.5567 76.2503 41.25 74.9437 41.25 73.3337C41.25 71.7237 42.5567 70.417 44.1667 70.417H64.5833C66.1933 70.417 67.5 71.7237 67.5 73.3337C67.5 74.9437 66.1933 76.2503 64.5833 76.2503Z" fill="#007AD9"/>
<path id="Vector_4" d="M102.5 23.75H96.6667V67.5H102.5V23.75Z" fill="#CF1928"/>
<path id="Vector_5" d="M111.25 32.4997H96.6667V23.7497C96.6667 22.1397 97.9733 20.833 99.5833 20.833H111.25C112.86 20.833 114.167 22.1397 114.167 23.7497V29.583C114.167 31.193 112.86 32.4997 111.25 32.4997Z" fill="#CF1928"/>
<path id="Vector_6" d="M102.5 73.3337C105.722 73.3337 108.333 70.722 108.333 67.5003C108.333 64.2787 105.722 61.667 102.5 61.667C99.2783 61.667 96.6667 64.2787 96.6667 67.5003C96.6667 70.722 99.2783 73.3337 102.5 73.3337Z" fill="#D9414F"/>
<rect x="7.5" y="7.5" width="155" height="155" rx="12.5" stroke="#D5EAF6" stroke-width="15"/>
</g>
<defs>
<linearGradient id="paint0_linear_1_905" x1="85" y1="15" x2="85" y2="155" gradientUnits="userSpaceOnUse">
<stop stop-color="#199AE0"/>
<stop offset="0.472222" stop-color="#0D5176" stop-opacity="0.527778"/>
<stop offset="0.940972" stop-color="#12A6F7" stop-opacity="0.465278"/>
<stop offset="1" stop-opacity="0"/>
</linearGradient>
<linearGradient id="paint1_linear_1_905" x1="36.0146" y1="46.9958" x2="73.8671" y2="146.09" gradientUnits="userSpaceOnUse">
<stop stop-color="#32BDEF"/>
<stop offset="1" stop-color="#1EA2E4"/>
</linearGradient>
</defs>
</svg>
