<svg width="170" height="170" viewBox="0 0 170 170" fill="none" xmlns="http://www.w3.org/2000/svg">
<g id="licence">
<rect x="7.5" y="7.5" width="155" height="155" rx="12.5" fill="white"/>
<rect x="7.5" y="7.5" width="155" height="155" rx="12.5" fill="url(#paint0_linear_1_926)" fill-opacity="0.2"/>
<path id="Vector" d="M128.75 35.4163V134.583C128.745 136.129 128.129 137.61 127.036 138.703C125.943 139.796 124.462 140.412 122.917 140.416H47.0833C45.5376 140.412 44.0565 139.796 42.9636 138.703C41.8706 137.61 41.2545 136.129 41.25 134.583V35.4163C41.2498 34.6502 41.4005 33.8916 41.6936 33.1838C41.9867 32.476 42.4164 31.8328 42.9581 31.2911C43.4998 30.7494 44.1429 30.3197 44.8508 30.0266C45.5586 29.7335 46.3172 29.5828 47.0833 29.583H122.917C123.683 29.5828 124.441 29.7335 125.149 30.0266C125.857 30.3197 126.5 30.7494 127.042 31.2911C127.584 31.8328 128.013 32.476 128.306 33.1838C128.599 33.8916 128.75 34.6502 128.75 35.4163V35.4163Z" fill="#50E6FF"/>
<path id="Vector_2" d="M111.222 123.646H93.784L93.7835 148.293C93.7835 148.448 93.8244 148.599 93.9021 148.732C93.9798 148.866 94.0914 148.976 94.2257 149.052C94.3599 149.128 94.5119 149.167 94.6661 149.165C94.8203 149.163 94.9712 149.12 95.1035 149.041L102.5 144.791L109.901 149.041C110.033 149.12 110.184 149.163 110.339 149.165C110.493 149.167 110.645 149.128 110.779 149.052C110.913 148.976 111.025 148.866 111.103 148.732C111.18 148.599 111.221 148.448 111.221 148.293L111.222 123.646Z" fill="url(#paint1_radial_1_926)"/>
<path id="Vector_3" opacity="0.05" d="M120 117.083C120.005 116.302 119.806 115.533 119.423 114.852C119.039 114.172 118.484 113.603 117.812 113.204L117.55 113.058L117.696 112.795C118.077 112.111 118.274 111.341 118.268 110.558C118.263 109.775 118.055 109.007 117.664 108.328C117.273 107.65 116.714 107.084 116.039 106.686C115.365 106.288 114.599 106.072 113.817 106.058H113.525V105.766C113.497 104.581 113.01 103.454 112.167 102.621C111.323 101.789 110.189 101.316 109.004 101.304C108.227 101.303 107.464 101.504 106.787 101.887L106.525 102.033L106.379 101.77C105.975 101.103 105.406 100.551 104.727 100.168C104.047 99.7843 103.28 99.583 102.5 99.583C101.72 99.583 100.953 99.7843 100.273 100.168C99.5937 100.551 99.0246 101.103 98.6208 101.77L98.475 102.033L98.2125 101.887C97.5455 101.508 96.7922 101.307 96.025 101.304C94.8369 101.315 93.6993 101.786 92.851 102.618C92.0027 103.45 91.5096 104.579 91.475 105.766V106.058H91.1833C90.4006 106.072 89.6348 106.288 88.9606 106.686C88.2864 107.084 87.7267 107.65 87.3361 108.328C86.9454 109.007 86.7372 109.775 86.7316 110.558C86.726 111.341 86.9233 112.111 87.3042 112.795L87.45 113.058L87.1875 113.204C86.5199 113.607 85.9678 114.177 85.5845 114.856C85.2013 115.536 85 116.303 85 117.083C85 117.863 85.2013 118.63 85.5845 119.31C85.9678 119.989 86.5199 120.558 87.1875 120.962L87.45 121.108L87.3042 121.37C86.9355 122.03 86.738 122.771 86.7297 123.526C86.7213 124.281 86.9023 125.027 87.2563 125.694C87.6102 126.361 88.1257 126.929 88.7557 127.345C89.3856 127.762 90.11 128.014 90.8625 128.079V140.416H93.7792V125.804C93.4272 125.435 92.9468 125.216 92.4375 125.191H91.2417C90.9633 125.186 90.6909 125.11 90.4507 124.97C90.2104 124.829 90.0103 124.629 89.8697 124.389C89.7291 124.149 89.6526 123.876 89.6477 123.598C89.6428 123.32 89.7096 123.045 89.8417 122.8L90.425 121.75C90.6715 121.305 90.7343 120.782 90.6 120.291L90.5708 120.262C90.5172 120.016 90.4147 119.784 90.2694 119.578C90.1241 119.373 89.939 119.199 89.725 119.066L88.7042 118.454C88.4645 118.314 88.2656 118.114 88.1274 117.873C87.9892 117.633 87.9165 117.36 87.9165 117.083C87.9165 116.806 87.9892 116.533 88.1274 116.292C88.2656 116.052 88.4645 115.852 88.7042 115.712L89.725 115.1C89.9389 114.967 90.1241 114.793 90.2694 114.588C90.4147 114.382 90.5172 114.15 90.5708 113.904L90.6 113.875C90.7343 113.384 90.6715 112.861 90.425 112.416L89.8708 111.366C89.7328 111.124 89.6604 110.851 89.6607 110.572C89.661 110.294 89.734 110.02 89.8724 109.778C90.0109 109.537 90.2101 109.336 90.4502 109.195C90.6904 109.054 90.9632 108.978 91.2417 108.975H92.4375C92.9439 108.939 93.4203 108.721 93.7793 108.362C94.1383 108.003 94.3557 107.527 94.3917 107.02V105.825C94.3891 105.541 94.4626 105.261 94.6045 105.016C94.7464 104.77 94.9514 104.566 95.1984 104.426C95.4454 104.286 95.7254 104.215 96.0092 104.22C96.293 104.225 96.5704 104.306 96.8125 104.454L97.8333 105.008C98.1066 105.17 98.4201 105.251 98.7375 105.241C98.9331 105.236 99.1281 105.217 99.3208 105.183V105.154C99.5667 105.1 99.7992 104.998 100.005 104.852C100.21 104.707 100.384 104.522 100.517 104.308L101.129 103.287C101.272 103.047 101.475 102.848 101.718 102.71C101.961 102.572 102.235 102.5 102.515 102.5C102.794 102.5 103.069 102.572 103.311 102.71C103.554 102.848 103.757 103.047 103.9 103.287L104.513 104.308C104.639 104.521 104.808 104.706 105.009 104.851C105.209 104.997 105.437 105.1 105.679 105.154C105.683 105.154 105.687 105.154 105.69 105.156C105.694 105.157 105.697 105.159 105.7 105.162C105.703 105.165 105.705 105.168 105.706 105.172C105.708 105.175 105.708 105.179 105.708 105.183C105.891 105.217 106.076 105.236 106.262 105.241C106.58 105.251 106.893 105.17 107.167 105.008L108.217 104.425C108.461 104.299 108.73 104.229 109.004 104.22C109.427 104.229 109.83 104.401 110.129 104.7C110.428 104.999 110.6 105.402 110.608 105.825L110.637 107.02C110.651 107.526 110.86 108.007 111.221 108.362C111.576 108.726 112.055 108.944 112.562 108.975H113.758C114.037 108.979 114.309 109.056 114.549 109.196C114.789 109.337 114.989 109.537 115.13 109.777C115.271 110.017 115.347 110.29 115.352 110.568C115.357 110.846 115.29 111.121 115.158 111.366L114.575 112.416C114.45 112.636 114.373 112.879 114.348 113.13C114.323 113.381 114.351 113.635 114.429 113.875V113.904C114.559 114.39 114.859 114.815 115.275 115.1L116.296 115.712C116.535 115.852 116.734 116.052 116.872 116.292C117.011 116.533 117.083 116.806 117.083 117.083C117.083 117.36 117.011 117.633 116.872 117.873C116.734 118.114 116.535 118.314 116.296 118.454L115.275 119.066C115.061 119.199 114.876 119.373 114.73 119.578C114.585 119.784 114.483 120.016 114.429 120.262L114.4 120.291C114.266 120.782 114.328 121.305 114.575 121.75L115.158 122.8C115.29 123.045 115.357 123.32 115.352 123.598C115.347 123.876 115.271 124.149 115.13 124.389C114.99 124.629 114.789 124.829 114.549 124.97C114.309 125.11 114.037 125.186 113.758 125.191H112.562C112.053 125.216 111.573 125.435 111.221 125.804V140.416H114.137V128.079C114.89 128.014 115.614 127.762 116.244 127.345C116.874 126.929 117.39 126.361 117.744 125.694C118.098 125.027 118.279 124.281 118.27 123.526C118.262 122.771 118.064 122.03 117.696 121.37L117.55 121.108L117.812 120.962C118.484 120.563 119.039 119.994 119.423 119.314C119.806 118.633 120.005 117.864 120 117.083V117.083Z" fill="black"/>
<path id="Vector_4" opacity="0.07" d="M117.054 114.458L116.033 113.845C115.935 113.761 115.864 113.649 115.829 113.525C115.793 113.389 115.803 113.245 115.858 113.116L116.412 112.095C116.678 111.634 116.817 111.111 116.817 110.579C116.817 110.046 116.678 109.524 116.412 109.062C116.144 108.601 115.761 108.217 115.302 107.947C114.842 107.676 114.321 107.528 113.787 107.516H112.592C112.466 107.501 112.351 107.439 112.271 107.341C112.22 107.297 112.178 107.244 112.148 107.184C112.118 107.124 112.1 107.058 112.096 106.991L112.067 105.795C112.063 105.261 111.919 104.737 111.65 104.276C111.381 103.815 110.995 103.432 110.532 103.166C110.068 102.901 109.543 102.761 109.009 102.762C108.475 102.763 107.95 102.904 107.487 103.17L106.467 103.754C106.402 103.78 106.332 103.79 106.262 103.783C106.203 103.787 106.143 103.777 106.087 103.754C105.951 103.727 105.828 103.655 105.737 103.55L105.125 102.529C104.858 102.071 104.474 101.692 104.013 101.431C103.552 101.17 103.03 101.035 102.5 101.041C101.971 101.039 101.45 101.175 100.99 101.436C100.529 101.697 100.145 102.073 99.875 102.529L99.2625 103.55C99.1892 103.647 99.0872 103.718 98.9708 103.754H98.9125C98.8574 103.777 98.7973 103.787 98.7375 103.783C98.6681 103.788 98.5986 103.778 98.5333 103.754L97.5125 103.17C97.0592 102.911 96.5475 102.77 96.0251 102.762C95.2174 102.769 94.4438 103.089 93.8672 103.655C93.2906 104.221 92.9558 104.988 92.9333 105.795V106.991C92.9216 107.103 92.8698 107.207 92.7875 107.283L92.6417 107.4V107.429C92.5715 107.475 92.4917 107.505 92.4083 107.516H91.2125C90.6825 107.53 90.165 107.68 89.7098 107.952C89.2545 108.224 88.8769 108.608 88.6132 109.068C88.3496 109.528 88.2087 110.048 88.2042 110.578C88.1997 111.109 88.3317 111.631 88.5875 112.095L89.1708 113.116C89.2083 113.229 89.2184 113.349 89.2 113.466L89.1708 113.525C89.1357 113.649 89.0647 113.761 88.9667 113.845L87.9458 114.458C87.4922 114.73 87.1167 115.114 86.856 115.574C86.5953 116.034 86.4583 116.554 86.4583 117.083C86.4583 117.612 86.5953 118.131 86.856 118.591C87.1167 119.052 87.4922 119.436 87.9458 119.708L88.9667 120.32C89.0647 120.405 89.1356 120.517 89.1708 120.641C89.2151 120.774 89.2151 120.917 89.1708 121.05L88.5875 122.07C88.3316 122.535 88.1996 123.057 88.2041 123.587C88.2086 124.118 88.3495 124.638 88.6132 125.098C88.8768 125.558 89.2545 125.942 89.7097 126.214C90.1649 126.486 90.6825 126.636 91.2125 126.65H92.3208V140.416H93.7792V125.804C93.4272 125.435 92.9468 125.215 92.4375 125.191H91.2417C90.9633 125.186 90.6909 125.11 90.4507 124.969C90.2104 124.829 90.0103 124.629 89.8697 124.389C89.7291 124.148 89.6526 123.876 89.6477 123.598C89.6428 123.319 89.7096 123.045 89.8417 122.8L90.425 121.75C90.6715 121.305 90.7343 120.782 90.6 120.291L90.5708 120.262C90.5172 120.016 90.4147 119.784 90.2694 119.578C90.1241 119.373 89.939 119.199 89.725 119.066L88.7042 118.454C88.4645 118.314 88.2656 118.114 88.1274 117.873C87.9892 117.633 87.9165 117.36 87.9165 117.083C87.9165 116.805 87.9892 116.533 88.1274 116.292C88.2656 116.052 88.4645 115.852 88.7042 115.712L89.725 115.1C89.9389 114.967 90.1241 114.793 90.2694 114.588C90.4147 114.382 90.5172 114.15 90.5708 113.904L90.6 113.875C90.7343 113.384 90.6715 112.861 90.425 112.416L89.8708 111.366C89.7328 111.124 89.6604 110.851 89.6607 110.572C89.661 110.294 89.734 110.02 89.8724 109.778C90.0109 109.537 90.2101 109.336 90.4502 109.195C90.6904 109.054 90.9632 108.978 91.2417 108.975H92.4375C92.9439 108.939 93.4203 108.721 93.7793 108.362C94.1382 108.003 94.3557 107.527 94.3917 107.02V105.825C94.3891 105.541 94.4626 105.261 94.6045 105.015C94.7464 104.77 94.9514 104.566 95.1984 104.426C95.4454 104.286 95.7254 104.215 96.0092 104.22C96.293 104.225 96.5704 104.306 96.8125 104.454L97.8333 105.008C98.1066 105.17 98.4201 105.251 98.7375 105.241C98.9331 105.236 99.1281 105.217 99.3208 105.183V105.154C99.5667 105.1 99.7992 104.998 100.005 104.852C100.21 104.707 100.384 104.522 100.517 104.308L101.129 103.287C101.272 103.047 101.475 102.848 101.718 102.71C101.961 102.572 102.235 102.499 102.515 102.499C102.794 102.499 103.069 102.572 103.311 102.71C103.554 102.848 103.757 103.047 103.9 103.287L104.512 104.308C104.639 104.521 104.808 104.706 105.009 104.851C105.209 104.997 105.437 105.1 105.679 105.154C105.683 105.154 105.687 105.154 105.69 105.156C105.694 105.157 105.697 105.159 105.7 105.162C105.703 105.165 105.705 105.168 105.706 105.172C105.708 105.175 105.708 105.179 105.708 105.183C105.891 105.217 106.076 105.236 106.262 105.241C106.58 105.251 106.893 105.17 107.167 105.008L108.217 104.425C108.461 104.299 108.73 104.229 109.004 104.22C109.427 104.229 109.83 104.4 110.129 104.7C110.428 104.999 110.6 105.402 110.608 105.825L110.637 107.02C110.651 107.526 110.86 108.007 111.221 108.362C111.576 108.726 112.055 108.944 112.562 108.975H113.758C114.037 108.979 114.309 109.056 114.549 109.196C114.789 109.337 114.989 109.537 115.13 109.777C115.271 110.017 115.347 110.29 115.352 110.568C115.357 110.846 115.29 111.121 115.158 111.366L114.575 112.416C114.45 112.636 114.373 112.879 114.348 113.13C114.323 113.381 114.351 113.635 114.429 113.875V113.904C114.559 114.39 114.859 114.814 115.275 115.1L116.296 115.712C116.535 115.852 116.734 116.052 116.872 116.292C117.011 116.533 117.083 116.805 117.083 117.083C117.083 117.36 117.011 117.633 116.872 117.873C116.734 118.114 116.535 118.314 116.296 118.454L115.275 119.066C115.061 119.199 114.876 119.373 114.73 119.578C114.585 119.784 114.483 120.016 114.429 120.262L114.4 120.291C114.266 120.782 114.328 121.305 114.575 121.75L115.158 122.8C115.29 123.045 115.357 123.319 115.352 123.598C115.347 123.876 115.271 124.148 115.13 124.389C114.99 124.629 114.789 124.829 114.549 124.969C114.309 125.11 114.037 125.186 113.758 125.191H112.562C112.053 125.215 111.573 125.435 111.221 125.804V140.416H112.679V126.65H113.787C114.317 126.636 114.835 126.486 115.29 126.214C115.745 125.942 116.123 125.558 116.387 125.098C116.65 124.638 116.791 124.118 116.796 123.587C116.8 123.057 116.668 122.535 116.412 122.07L115.829 121.05C115.785 120.927 115.785 120.793 115.829 120.67C115.856 120.534 115.928 120.411 116.033 120.32L117.054 119.708C117.512 119.441 117.891 119.057 118.152 118.596C118.413 118.135 118.548 117.613 118.542 117.083C118.544 116.554 118.408 116.033 118.147 115.572C117.886 115.112 117.509 114.728 117.054 114.458Z" fill="black"/>
<path id="Vector_5" d="M87.9167 50H58.75C57.1392 50 55.8333 51.3058 55.8333 52.9167C55.8333 54.5275 57.1392 55.8333 58.75 55.8333H87.9167C89.5275 55.8333 90.8333 54.5275 90.8333 52.9167C90.8333 51.3058 89.5275 50 87.9167 50Z" fill="#057093"/>
<path id="Vector_6" d="M99.5833 64.583H58.75C57.1392 64.583 55.8333 65.8888 55.8333 67.4997C55.8333 69.1105 57.1392 70.4163 58.75 70.4163H99.5833C101.194 70.4163 102.5 69.1105 102.5 67.4997C102.5 65.8888 101.194 64.583 99.5833 64.583Z" fill="#057093"/>
<path id="Vector_7" d="M111.25 79.167H58.75C57.1392 79.167 55.8333 80.4728 55.8333 82.0837C55.8333 83.6945 57.1392 85.0003 58.75 85.0003H111.25C112.861 85.0003 114.167 83.6945 114.167 82.0837C114.167 80.4728 112.861 79.167 111.25 79.167Z" fill="#057093"/>
<path id="Vector_8" d="M111.25 50H99.5833C97.9725 50 96.6667 51.3058 96.6667 52.9167C96.6667 54.5275 97.9725 55.8333 99.5833 55.8333H111.25C112.861 55.8333 114.167 54.5275 114.167 52.9167C114.167 51.3058 112.861 50 111.25 50Z" fill="#057093"/>
<path id="Vector_9" d="M76.25 93.75H58.75C57.1392 93.75 55.8333 95.0558 55.8333 96.6667C55.8333 98.2775 57.1392 99.5833 58.75 99.5833H76.25C77.8608 99.5833 79.1667 98.2775 79.1667 96.6667C79.1667 95.0558 77.8608 93.75 76.25 93.75Z" fill="#057093"/>
<path id="Vector_10" d="M116.308 115.703L115.288 115.09C114.859 114.824 114.551 114.401 114.427 113.912L114.42 113.884C114.277 113.395 114.332 112.869 114.573 112.42L115.151 111.38C115.286 111.137 115.356 110.863 115.354 110.585C115.352 110.306 115.277 110.033 115.138 109.792C114.999 109.551 114.8 109.35 114.56 109.209C114.32 109.068 114.048 108.991 113.769 108.986L112.569 108.965C112.063 108.949 111.582 108.736 111.23 108.371L111.219 108.36C110.854 108.008 110.64 107.528 110.624 107.02L110.604 105.82C110.599 105.542 110.523 105.27 110.381 105.03C110.24 104.79 110.039 104.591 109.798 104.452C109.557 104.313 109.284 104.238 109.006 104.236C108.728 104.234 108.454 104.304 108.21 104.439L107.17 105.016C106.721 105.257 106.195 105.312 105.706 105.17L105.679 105.162C105.189 105.039 104.767 104.73 104.5 104.302L103.888 103.282C103.744 103.044 103.542 102.846 103.3 102.709C103.057 102.572 102.784 102.5 102.505 102.5C102.227 102.5 101.954 102.572 101.711 102.709C101.469 102.846 101.267 103.044 101.123 103.282L100.514 104.298C100.245 104.729 99.8198 105.04 99.3269 105.166L99.3107 105.17C98.8174 105.314 98.2868 105.259 97.8342 105.015L96.7985 104.44C96.5552 104.305 96.2811 104.235 96.0027 104.237C95.7244 104.24 95.4514 104.314 95.2103 104.453C94.9693 104.592 94.7684 104.792 94.6272 105.031C94.486 105.271 94.4093 105.544 94.4047 105.822L94.3828 107.02C94.3662 107.527 94.1532 108.007 93.7888 108.359L93.7774 108.371C93.4256 108.735 92.9453 108.949 92.4387 108.965L91.2385 108.985C90.9602 108.989 90.6879 109.066 90.448 109.207C90.2081 109.348 90.0089 109.549 89.8697 109.79C89.7306 110.032 89.6563 110.305 89.654 110.583C89.6518 110.861 89.7216 111.135 89.8568 111.379L90.4346 112.418C90.6756 112.868 90.7306 113.393 90.5878 113.883L90.5789 113.91C90.455 114.399 90.1466 114.822 89.7183 115.089L88.6988 115.701C88.4602 115.845 88.2628 116.047 88.1257 116.289C87.9886 116.531 87.9166 116.805 87.9166 117.083C87.9166 117.362 87.9886 117.635 88.1257 117.877C88.2628 118.12 88.4602 118.322 88.6988 118.465L89.7183 119.078C90.1468 119.345 90.4553 119.767 90.5789 120.256L90.5862 120.284C90.7291 120.773 90.674 121.299 90.433 121.748L89.8552 122.788C89.72 123.031 89.6502 123.305 89.6524 123.584C89.6547 123.862 89.729 124.135 89.8682 124.376C90.0073 124.617 90.2065 124.818 90.4464 124.959C90.6862 125.101 90.9586 125.177 91.2369 125.182L92.4371 125.202C92.9436 125.218 93.4238 125.431 93.7758 125.796L93.7872 125.807C94.152 126.159 94.3651 126.64 94.3812 127.146L94.4014 128.346C94.4061 128.625 94.4828 128.897 94.624 129.137C94.7653 129.377 94.9662 129.576 95.2072 129.715C95.4482 129.854 95.7212 129.928 95.9995 129.931C96.2778 129.933 96.5519 129.863 96.7953 129.728L97.835 129.15C98.2842 128.909 98.81 128.854 99.2993 128.997L99.3269 129.004C99.8162 129.128 100.239 129.436 100.505 129.865L101.118 130.884C101.261 131.123 101.464 131.321 101.706 131.458C101.948 131.595 102.222 131.667 102.5 131.667C102.778 131.667 103.052 131.595 103.294 131.458C103.536 131.321 103.739 131.123 103.882 130.884L104.495 129.865C104.761 129.436 105.184 129.128 105.673 129.004L105.701 128.997C106.19 128.854 106.716 128.909 107.165 129.15L108.205 129.728C108.448 129.863 108.722 129.933 109 129.931C109.279 129.929 109.552 129.854 109.793 129.715C110.034 129.576 110.235 129.377 110.376 129.137C110.517 128.897 110.594 128.625 110.599 128.346L110.619 127.146C110.635 126.64 110.848 126.159 111.213 125.807L111.224 125.796C111.576 125.431 112.056 125.218 112.563 125.202L113.763 125.182C114.041 125.177 114.314 125.1 114.553 124.959C114.793 124.818 114.992 124.617 115.132 124.376C115.271 124.135 115.345 123.862 115.347 123.584C115.35 123.305 115.28 123.031 115.145 122.788L114.567 121.748C114.326 121.299 114.271 120.773 114.414 120.284L114.421 120.256C114.545 119.767 114.853 119.345 115.282 119.078L116.301 118.465C116.541 118.323 116.739 118.121 116.877 117.88C117.015 117.638 117.088 117.364 117.089 117.086C117.09 116.807 117.018 116.534 116.881 116.291C116.744 116.049 116.546 115.846 116.308 115.703Z" fill="url(#paint2_linear_1_926)"/>
<rect x="7.5" y="7.5" width="155" height="155" rx="12.5" stroke="#D5EAF6" stroke-width="15"/>
</g>
<defs>
<linearGradient id="paint0_linear_1_926" x1="85" y1="15" x2="85" y2="155" gradientUnits="userSpaceOnUse">
<stop stop-color="#199AE0"/>
<stop offset="0.472222" stop-color="#0D5176" stop-opacity="0.527778"/>
<stop offset="0.940972" stop-color="#12A6F7" stop-opacity="0.465278"/>
<stop offset="1" stop-opacity="0"/>
</linearGradient>
<radialGradient id="paint1_radial_1_926" cx="0" cy="0" r="1" gradientUnits="userSpaceOnUse" gradientTransform="translate(102.453 111.912) scale(24.8996 24.8996)">
<stop offset="0.655" stop-color="#871233"/>
<stop offset="0.718" stop-color="#8E1336"/>
<stop offset="0.812" stop-color="#A3163E"/>
<stop offset="0.9" stop-color="#BC1948"/>
</radialGradient>
<linearGradient id="paint2_linear_1_926" x1="95.0888" y1="104.194" x2="109.859" y2="129.87" gradientUnits="userSpaceOnUse">
<stop stop-color="#FFDA1C"/>
<stop offset="1" stop-color="#FEB705"/>
</linearGradient>
</defs>
</svg>
