<svg width="170" height="170" viewBox="0 0 170 170" fill="none" xmlns="http://www.w3.org/2000/svg">
<g id="link-folder">
<rect x="7.5" y="7.5" width="155" height="155" rx="12.5" fill="white"/>
<rect x="7.5" y="7.5" width="155" height="155" rx="12.5" fill="url(#paint0_linear_1_947)" fill-opacity="0.2"/>
<path id="Vector" d="M144.792 134.583H25.2083C21.1804 134.583 17.9167 131.319 17.9167 127.291V36.8747C17.9167 32.8468 21.1804 29.583 25.2083 29.583H59.0329C63.4633 29.583 67.6517 31.5955 70.4196 35.0576L77.7083 44.1663H144.792C148.82 44.1663 152.083 47.4301 152.083 51.458V127.291C152.083 131.319 148.82 134.583 144.792 134.583Z" fill="url(#paint1_linear_1_947)"/>
<path id="Vector_2" d="M17.9167 125.469V127.292C17.9167 131.32 21.1804 134.583 25.2083 134.583H144.792C148.82 134.583 152.083 131.32 152.083 127.292V125.469H17.9167Z" fill="url(#paint2_linear_1_947)"/>
<path id="Vector_3" d="M144.792 47.083H77.7083L74.1004 49.4863C70.7492 51.7234 66.8088 52.9163 62.7779 52.9163H25.2083C21.1804 52.9163 17.9167 56.1801 17.9167 60.208V124.375C17.9167 128.403 21.1804 131.666 25.2083 131.666H144.792C148.82 131.666 152.083 128.403 152.083 124.375V54.3747C152.083 50.3468 148.82 47.083 144.792 47.083Z" fill="url(#paint3_linear_1_947)"/>
<path id="Vector_4" d="M144.792 131.667H25.2083C21.1804 131.667 17.9167 128.403 17.9167 124.375V63.125C17.9167 59.0971 21.1804 55.8333 25.2083 55.8333H63.8717C67.9025 55.8333 71.8429 54.6404 75.1971 52.4033L78.8021 50H144.792C148.82 50 152.083 53.2637 152.083 57.2917V124.375C152.083 128.403 148.82 131.667 144.792 131.667Z" fill="url(#paint4_radial_1_947)"/>
<path id="Vector_5" d="M76.25 111.25H70.4167C59.1583 111.25 50 102.092 50 90.8337C50 79.5753 59.1583 70.417 70.4167 70.417H76.25C77.86 70.417 79.1667 71.7237 79.1667 73.3337C79.1667 74.9437 77.86 76.2503 76.25 76.2503H70.4167C62.3754 76.2503 55.8333 82.7924 55.8333 90.8337C55.8333 98.8749 62.3754 105.417 70.4167 105.417H76.25C77.86 105.417 79.1667 106.724 79.1667 108.334C79.1667 109.944 77.86 111.25 76.25 111.25ZM120 90.8337C120 79.5753 110.842 70.417 99.5833 70.417H93.75C92.14 70.417 90.8333 71.7237 90.8333 73.3337C90.8333 74.9437 92.14 76.2503 93.75 76.2503H99.5833C107.625 76.2503 114.167 82.7924 114.167 90.8337C114.167 98.8749 107.625 105.417 99.5833 105.417H93.75C92.14 105.417 90.8333 106.724 90.8333 108.334C90.8333 109.944 92.14 111.25 93.75 111.25H99.5833C110.842 111.25 120 102.092 120 90.8337ZM102.5 90.8337C102.5 89.2237 101.193 87.917 99.5833 87.917H70.4167C68.8067 87.917 67.5 89.2237 67.5 90.8337C67.5 92.4437 68.8067 93.7503 70.4167 93.7503H99.5833C101.193 93.7503 102.5 92.4437 102.5 90.8337Z" fill="url(#paint5_linear_1_947)"/>
<rect x="7.5" y="7.5" width="155" height="155" rx="12.5" stroke="#D5EAF6" stroke-width="15"/>
</g>
<defs>
<linearGradient id="paint0_linear_1_947" x1="85" y1="15" x2="85" y2="155" gradientUnits="userSpaceOnUse">
<stop stop-color="#199AE0"/>
<stop offset="0.472222" stop-color="#0D5176" stop-opacity="0.527778"/>
<stop offset="0.940972" stop-color="#12A6F7" stop-opacity="0.465278"/>
<stop offset="1" stop-opacity="0"/>
</linearGradient>
<linearGradient id="paint1_linear_1_947" x1="-5.46917" y1="42.148" x2="129.879" y2="112.804" gradientUnits="userSpaceOnUse">
<stop stop-color="#FAC017"/>
<stop offset="0.909" stop-color="#E1AB2D"/>
</linearGradient>
<linearGradient id="paint2_linear_1_947" x1="64.1896" y1="129.587" x2="146.148" y2="131.06" gradientUnits="userSpaceOnUse">
<stop stop-color="#E3A917"/>
<stop offset="0.464" stop-color="#D79C1E"/>
</linearGradient>
<linearGradient id="paint3_linear_1_947" x1="0.76958" y1="52.228" x2="119.907" y2="104.769" gradientUnits="userSpaceOnUse">
<stop offset="0.34" stop-color="#FFEFB2"/>
<stop offset="0.485" stop-color="#FFEDAD"/>
<stop offset="0.652" stop-color="#FFE99F"/>
<stop offset="0.828" stop-color="#FEE289"/>
<stop offset="1" stop-color="#FED86B"/>
</linearGradient>
<radialGradient id="paint4_radial_1_947" cx="0" cy="0" r="1" gradientUnits="userSpaceOnUse" gradientTransform="translate(125.355 158.841) scale(157.135 157.135)">
<stop offset="0.199" stop-color="#FEC832"/>
<stop offset="0.601" stop-color="#FCD667"/>
<stop offset="0.68" stop-color="#FDDA75"/>
<stop offset="0.886" stop-color="#FEE496"/>
<stop offset="1" stop-color="#FFE8A2"/>
</radialGradient>
<linearGradient id="paint5_linear_1_947" x1="71.1488" y1="66.8412" x2="98.8513" y2="114.826" gradientUnits="userSpaceOnUse">
<stop stop-color="#C78902"/>
<stop offset="1" stop-color="#986700"/>
</linearGradient>
</defs>
</svg>
