<svg width="170" height="170" viewBox="0 0 170 170" fill="none" xmlns="http://www.w3.org/2000/svg">
<g id="list-view">
<rect x="7.5" y="7.5" width="155" height="155" rx="12.5" fill="white"/>
<rect x="7.5" y="7.5" width="155" height="155" rx="12.5" fill="url(#paint0_linear_1_960)" fill-opacity="0.2"/>
<path id="Vector" d="M96.6667 140.417H47.0833C43.8604 140.417 41.25 137.807 41.25 134.584V35.4173C41.25 32.1944 43.8604 29.584 47.0833 29.584H122.917C126.14 29.584 128.75 32.1944 128.75 35.4173V108.334L96.6667 140.417Z" fill="#50E6FF"/>
<path id="Vector_2" d="M128.75 108.334H102.5C99.2771 108.334 96.6667 110.944 96.6667 114.167V140.417L128.75 108.334Z" fill="url(#paint1_linear_1_960)"/>
<path id="Vector_3" d="M111.25 47.084H82.0833C80.4733 47.084 79.1667 48.3907 79.1667 50.0007C79.1667 51.6107 80.4733 52.9173 82.0833 52.9173H111.25C112.86 52.9173 114.167 51.6107 114.167 50.0007C114.167 48.3907 112.86 47.084 111.25 47.084Z" fill="#057093"/>
<path id="Vector_4" d="M55.8333 52.9173H70.4167C72.0267 52.9173 73.3333 51.6107 73.3333 50.0007C73.3333 48.3907 72.0267 47.084 70.4167 47.084H55.8333C54.2233 47.084 52.9167 48.3907 52.9167 50.0007C52.9167 51.6107 54.2233 52.9173 55.8333 52.9173Z" fill="#057093"/>
<path id="Vector_5" d="M55.8333 64.5833H70.4167C72.0267 64.5833 73.3333 63.2767 73.3333 61.6667C73.3333 60.0567 72.0267 58.75 70.4167 58.75H55.8333C54.2233 58.75 52.9167 60.0567 52.9167 61.6667C52.9167 63.2767 54.2233 64.5833 55.8333 64.5833Z" fill="#057093"/>
<path id="Vector_6" d="M55.8333 76.2493H70.4167C72.0267 76.2493 73.3333 74.9427 73.3333 73.3327C73.3333 71.7227 72.0267 70.416 70.4167 70.416H55.8333C54.2233 70.416 52.9167 71.7227 52.9167 73.3327C52.9167 74.9427 54.2233 76.2493 55.8333 76.2493Z" fill="#057093"/>
<path id="Vector_7" d="M55.8333 87.9173H70.4167C72.0267 87.9173 73.3333 86.6107 73.3333 85.0007C73.3333 83.3907 72.0267 82.084 70.4167 82.084H55.8333C54.2233 82.084 52.9167 83.3907 52.9167 85.0007C52.9167 86.6107 54.2233 87.9173 55.8333 87.9173Z" fill="#057093"/>
<path id="Vector_8" d="M55.8333 99.5833H70.4167C72.0267 99.5833 73.3333 98.2767 73.3333 96.6667C73.3333 95.0567 72.0267 93.75 70.4167 93.75H55.8333C54.2233 93.75 52.9167 95.0567 52.9167 96.6667C52.9167 98.2767 54.2233 99.5833 55.8333 99.5833Z" fill="#057093"/>
<path id="Vector_9" d="M82.0833 99.5833H108.333C109.943 99.5833 111.25 98.2767 111.25 96.6667C111.25 95.0567 109.943 93.75 108.333 93.75H82.0833C80.4733 93.75 79.1667 95.0567 79.1667 96.6667C79.1667 98.2767 80.4733 99.5833 82.0833 99.5833Z" fill="#057093"/>
<path id="Vector_10" d="M82.0833 76.2493H114.167C115.777 76.2493 117.083 74.9427 117.083 73.3327C117.083 71.7227 115.777 70.416 114.167 70.416H82.0833C80.4733 70.416 79.1667 71.7227 79.1667 73.3327C79.1667 74.9427 80.4733 76.2493 82.0833 76.2493Z" fill="#057093"/>
<path id="Vector_11" d="M82.0833 64.5833H102.5C104.11 64.5833 105.417 63.2767 105.417 61.6667C105.417 60.0567 104.11 58.75 102.5 58.75H82.0833C80.4733 58.75 79.1667 60.0567 79.1667 61.6667C79.1667 63.2767 80.4733 64.5833 82.0833 64.5833Z" fill="#057093"/>
<path id="Vector_12" d="M82.0833 87.9173H102.5C104.11 87.9173 105.417 86.6107 105.417 85.0007C105.417 83.3907 104.11 82.084 102.5 82.084H82.0833C80.4733 82.084 79.1667 83.3907 79.1667 85.0007C79.1667 86.6107 80.4733 87.9173 82.0833 87.9173Z" fill="#057093"/>
<rect x="7.5" y="7.5" width="155" height="155" rx="12.5" stroke="#D5EAF6" stroke-width="15"/>
</g>
<defs>
<linearGradient id="paint0_linear_1_960" x1="85" y1="15" x2="85" y2="155" gradientUnits="userSpaceOnUse">
<stop stop-color="#199AE0"/>
<stop offset="0.472222" stop-color="#0D5176" stop-opacity="0.527778"/>
<stop offset="0.940972" stop-color="#12A6F7" stop-opacity="0.465278"/>
<stop offset="1" stop-opacity="0"/>
</linearGradient>
<linearGradient id="paint1_linear_1_960" x1="98.2096" y1="109.874" x2="113" y2="124.667" gradientUnits="userSpaceOnUse">
<stop stop-color="#3079D6"/>
<stop offset="1" stop-color="#297CD2"/>
</linearGradient>
</defs>
</svg>
