<svg width="170" height="170" viewBox="0 0 170 170" fill="none" xmlns="http://www.w3.org/2000/svg">
<g id="logout">
<rect x="7.5" y="7.5" width="155" height="155" rx="12.5" fill="white"/>
<rect x="7.5" y="7.5" width="155" height="155" rx="12.5" fill="url(#paint0_linear_1_973)" fill-opacity="0.2"/>
<path id="Vector" d="M122.917 26.666H47.0833C43.8604 26.666 41.25 29.2764 41.25 32.4993V137.499C41.25 140.722 43.8604 143.333 47.0833 143.333H122.917C126.14 143.333 128.75 140.722 128.75 137.499V32.4993C128.75 29.2764 126.14 26.666 122.917 26.666Z" fill="url(#paint1_linear_1_973)"/>
<path id="Vector_2" opacity="0.05" d="M128.75 64.1725L121.208 56.63C117.533 52.955 111.25 55.5596 111.25 60.7571V70.4171H76.25C73.0271 70.4171 70.4167 73.0275 70.4167 76.2505V93.7505C70.4167 96.9734 73.0271 99.5838 76.25 99.5838H111.25V109.244C111.25 114.441 117.533 117.043 121.208 113.368L128.75 105.828V64.1725Z" fill="black"/>
<path id="Vector_3" opacity="0.07" d="M128.75 67.0894L121.158 59.4973C118.577 56.9161 114.167 58.7448 114.167 62.3936V73.334H77.7083C75.2933 73.334 73.3333 75.294 73.3333 77.709V92.2923C73.3333 94.7073 75.2933 96.6673 77.7083 96.6673H114.167V107.608C114.167 111.256 118.577 113.082 121.158 110.504L128.75 102.912V67.0894Z" fill="black"/>
<path id="Vector_4" d="M117.083 64.0289V76.2498H79.1667C77.5567 76.2498 76.25 77.5564 76.25 79.1664V90.8331C76.25 92.4431 77.5567 93.7498 79.1667 93.7498H117.083V105.971C117.083 108.071 119.621 109.121 121.105 107.636L140.65 88.0914C142.359 86.3823 142.359 83.6114 140.65 81.9052L121.105 62.3606C119.621 60.876 117.083 61.9289 117.083 64.0289Z" fill="#50E6FF"/>
<rect x="7.5" y="7.5" width="155" height="155" rx="12.5" stroke="#D5EAF6" stroke-width="15"/>
</g>
<defs>
<linearGradient id="paint0_linear_1_973" x1="85" y1="15" x2="85" y2="155" gradientUnits="userSpaceOnUse">
<stop stop-color="#199AE0"/>
<stop offset="0.472222" stop-color="#0D5176" stop-opacity="0.527778"/>
<stop offset="0.940972" stop-color="#12A6F7" stop-opacity="0.465278"/>
<stop offset="1" stop-opacity="0"/>
</linearGradient>
<linearGradient id="paint1_linear_1_973" x1="44.7004" y1="29.2298" x2="122.5" y2="136.893" gradientUnits="userSpaceOnUse">
<stop stop-color="#2AA4F4"/>
<stop offset="1" stop-color="#007AD9"/>
</linearGradient>
</defs>
</svg>
