<svg width="170" height="170" viewBox="0 0 170 170" fill="none" xmlns="http://www.w3.org/2000/svg">
<g id="mail-error">
<rect x="7.5" y="7.5" width="155" height="155" rx="12.5" fill="white"/>
<rect x="7.5" y="7.5" width="155" height="155" rx="12.5" fill="url(#paint0_linear_1_983)" fill-opacity="0.2"/>
<path id="Vector" d="M41.25 90.8333L146.25 49.125V125.833C146.25 129.042 143.625 131.667 140.417 131.667H41.25V90.8333Z" fill="url(#paint1_linear_1_983)"/>
<path id="Vector_2" d="M23.75 49.125V125.833C23.75 129.042 26.375 131.667 29.5833 131.667H140.417C141.875 131.667 143.042 131.083 144.208 130.208L23.75 49.125Z" fill="url(#paint2_linear_1_983)"/>
<path id="Vector_3" opacity="0.05" d="M23.75 47.084H146.25V52.0423L95.7917 91.1257C89.375 96.084 80.625 96.084 74.2083 91.1257L23.75 52.0423V47.084Z" fill="black"/>
<path id="Vector_4" opacity="0.07" d="M23.75 45.625H146.25V50.5833L93.75 88.7917C88.5 92.5833 81.5 92.5833 76.5417 88.7917L23.75 50.5833V45.625Z" fill="black"/>
<path id="Vector_5" d="M29.5833 38.334H140.417C143.625 38.334 146.25 40.959 146.25 44.1673V49.1257L91.7083 86.459C87.625 89.084 82.6667 89.084 78.5833 86.459L23.75 49.1257V44.1673C23.75 40.959 26.375 38.334 29.5833 38.334Z" fill="#50E6FF"/>
<path id="Vector_6" opacity="0.05" d="M129.625 102.792C128.75 101.042 127 99.584 124.375 99.584C121.458 99.584 119.708 101.626 119.417 102.501L101.042 131.667H140.417C142.75 131.667 144.792 130.209 145.667 128.167L129.625 102.792Z" fill="black"/>
<path id="Vector_7" opacity="0.07" d="M128.167 103.374C127.875 102.499 126.417 101.041 124.375 101.041C122.333 101.041 120.875 102.499 120.583 103.374L102.5 131.666H140.417C142.167 131.666 143.917 130.791 144.792 129.624L128.167 103.374Z" fill="black"/>
<path id="Vector_8" d="M154.417 147.417L127 103.958C127 103.958 126.125 102.5 124.375 102.5C122.625 102.5 121.75 103.958 121.75 103.958L94.3333 147.417C94.3333 147.417 93.75 148 93.75 149.167C93.75 150.625 94.9167 152.083 96.6667 152.083H152.083C153.833 152.083 155 150.917 155 149.167C155 148.292 154.417 147.417 154.417 147.417Z" fill="url(#paint3_linear_1_983)"/>
<path id="Vector_9" d="M124.375 146.251C123.5 146.251 122.625 145.959 122.042 145.376C121.458 144.792 121.167 144.209 121.167 143.334C121.167 142.459 121.458 141.876 122.042 141.292C122.625 140.709 123.5 140.417 124.375 140.417C125.25 140.417 126.125 140.709 126.708 141.292C127.292 141.876 127.583 142.459 127.583 143.334C127.583 144.209 127.292 144.792 126.708 145.376C126.125 145.959 125.25 146.251 124.375 146.251ZM127.583 118.251L127 136.626C127 137.209 126.417 137.501 126.125 137.501H122.917C122.333 137.501 122.042 136.917 122.042 136.626L121.458 118.251C121.458 117.667 122.042 117.084 122.333 117.084H127C127.292 117.084 127.583 117.667 127.583 118.251Z" fill="url(#paint4_radial_1_983)"/>
<rect x="7.5" y="7.5" width="155" height="155" rx="12.5" stroke="#D5EAF6" stroke-width="15"/>
</g>
<defs>
<linearGradient id="paint0_linear_1_983" x1="85" y1="15" x2="85" y2="155" gradientUnits="userSpaceOnUse">
<stop stop-color="#199AE0"/>
<stop offset="0.472222" stop-color="#0D5176" stop-opacity="0.527778"/>
<stop offset="0.940972" stop-color="#12A6F7" stop-opacity="0.465278"/>
<stop offset="1" stop-opacity="0"/>
</linearGradient>
<linearGradient id="paint1_linear_1_983" x1="77.755" y1="66.4442" x2="147.977" y2="171.546" gradientUnits="userSpaceOnUse">
<stop stop-color="#28AFEA"/>
<stop offset="1" stop-color="#0B88DA"/>
</linearGradient>
<linearGradient id="paint2_linear_1_983" x1="19.1067" y1="86.1958" x2="120.965" y2="149.645" gradientUnits="userSpaceOnUse">
<stop stop-color="#28AFEA"/>
<stop offset="1" stop-color="#0B88DA"/>
</linearGradient>
<linearGradient id="paint3_linear_1_983" x1="-358.52" y1="-410.658" x2="143.094" y2="164.651" gradientUnits="userSpaceOnUse">
<stop stop-color="#FFDA1C"/>
<stop offset="1" stop-color="#FEB705"/>
</linearGradient>
<radialGradient id="paint4_radial_1_983" cx="0" cy="0" r="1" gradientUnits="userSpaceOnUse" gradientTransform="translate(116.76 116.769) scale(29.2279 30.172)">
<stop stop-color="#4B4B4B"/>
<stop offset="0.531" stop-color="#393939"/>
<stop offset="1" stop-color="#252525"/>
</radialGradient>
</defs>
</svg>
