<svg width="170" height="170" viewBox="0 0 170 170" fill="none" xmlns="http://www.w3.org/2000/svg">
<g id="male-user">
<rect x="7.5" y="7.5" width="155" height="155" rx="12.5" fill="white"/>
<rect x="7.5" y="7.5" width="155" height="155" rx="12.5" fill="url(#paint0_linear_1_1005)" fill-opacity="0.2"/>
<path id="Vector" d="M143.333 84.9994C143.333 117.214 117.215 143.333 85 143.333C52.7854 143.333 26.6667 117.214 26.6667 84.9994C26.6667 52.7848 52.7854 26.666 85 26.666C117.215 26.666 143.333 52.7848 143.333 84.9994Z" fill="url(#paint1_radial_1_1005)"/>
<path id="Vector_2" d="M85 143.333C101.902 143.333 117.078 136.099 127.732 124.614C120.516 108.166 104.11 96.666 85 96.666C65.89 96.666 49.4837 108.166 42.2679 124.614C52.9225 136.099 68.0979 143.333 85 143.333Z" fill="url(#paint2_radial_1_1005)"/>
<path id="Vector_3" d="M85 101.042C100.303 101.042 112.708 88.6362 112.708 73.3333C112.708 58.0304 100.303 45.625 85 45.625C69.6971 45.625 57.2917 58.0304 57.2917 73.3333C57.2917 88.6362 69.6971 101.042 85 101.042Z" fill="url(#paint3_radial_1_1005)"/>
<path id="Vector_4" d="M85 93.7507C97.8866 93.7507 108.333 83.304 108.333 70.4173C108.333 57.5307 97.8866 47.084 85 47.084C72.1134 47.084 61.6667 57.5307 61.6667 70.4173C61.6667 83.304 72.1134 93.7507 85 93.7507Z" fill="url(#paint4_linear_1_1005)"/>
<path id="Vector_5" d="M85 143.333C99.6271 143.333 112.962 137.911 123.203 129.015C117.395 113.537 102.506 102.5 85 102.5C67.4942 102.5 52.6046 113.537 46.7975 129.015C57.0379 137.911 70.3729 143.333 85 143.333Z" fill="url(#paint5_linear_1_1005)"/>
<rect x="7.5" y="7.5" width="155" height="155" rx="12.5" stroke="#D5EAF6" stroke-width="15"/>
</g>
<defs>
<linearGradient id="paint0_linear_1_1005" x1="85" y1="15" x2="85" y2="155" gradientUnits="userSpaceOnUse">
<stop stop-color="#199AE0"/>
<stop offset="0.472222" stop-color="#0D5176" stop-opacity="0.527778"/>
<stop offset="0.940972" stop-color="#12A6F7" stop-opacity="0.465278"/>
<stop offset="1" stop-opacity="0"/>
</linearGradient>
<radialGradient id="paint1_radial_1_1005" cx="0" cy="0" r="1" gradientUnits="userSpaceOnUse" gradientTransform="translate(47.5996 39.4789) scale(117.577)">
<stop stop-color="#0370C8"/>
<stop offset="0.484" stop-color="#036FC5"/>
<stop offset="0.775" stop-color="#036ABD"/>
<stop offset="1" stop-color="#0362B0"/>
</radialGradient>
<radialGradient id="paint2_radial_1_1005" cx="0" cy="0" r="1" gradientUnits="userSpaceOnUse" gradientTransform="translate(85 143.648) scale(47.075 47.075)">
<stop/>
<stop offset="1" stop-opacity="0"/>
</radialGradient>
<radialGradient id="paint3_radial_1_1005" cx="0" cy="0" r="1" gradientUnits="userSpaceOnUse" gradientTransform="translate(85 73.3333) scale(27.7083)">
<stop/>
<stop offset="1" stop-opacity="0"/>
</radialGradient>
<linearGradient id="paint4_linear_1_1005" x1="69.1712" y1="54.5886" x2="101.727" y2="87.1444" gradientUnits="userSpaceOnUse">
<stop stop-color="#75DAFF"/>
<stop offset="1" stop-color="#1EA2E4"/>
</linearGradient>
<linearGradient id="paint5_linear_1_1005" x1="64.6038" y1="106.029" x2="105.09" y2="146.515" gradientUnits="userSpaceOnUse">
<stop stop-color="#75DAFF"/>
<stop offset="1" stop-color="#1EA2E4"/>
</linearGradient>
</defs>
</svg>
