<svg width="170" height="170" viewBox="0 0 170 170" fill="none" xmlns="http://www.w3.org/2000/svg">
<g id="map-marker">
<g clip-path="url(#clip0_1_1020)">
<rect x="15" y="15" width="140" height="140" rx="5" fill="white"/>
<rect x="15" y="15" width="140" height="140" rx="5" fill="url(#paint0_linear_1_1020)" fill-opacity="0.2"/>
<path id="Vector" d="M131.667 140.416H79.1667V35.416H131.667C134.89 35.416 137.5 38.0264 137.5 41.2493V134.583C137.5 137.806 134.89 140.416 131.667 140.416Z" fill="#35C1F1"/>
<path id="Vector_2" d="M57.1371 24.4029C56.7258 24.1958 56.2796 24.0938 55.8333 24.0938V129.094C56.2796 129.094 56.7258 129.196 57.1371 129.403L79.1667 140.416V35.4163L57.1371 24.4029Z" fill="#199BE2"/>
<path id="Vector_3" d="M54.5296 24.4039L35.7258 33.8043C33.7483 34.793 32.5 36.8143 32.5 39.0222V135.698C32.5 137.865 34.7808 139.277 36.7204 138.306L54.5296 129.401C54.9408 129.197 55.3871 129.092 55.8333 129.092V24.0918C55.3871 24.0947 54.9408 24.1968 54.5296 24.4039Z" fill="#50E6FF"/>
<path id="Vector_4" opacity="0.05" d="M137.5 41.2493C137.5 38.0264 134.89 35.416 131.667 35.416H85C83.1275 39.9077 82.0833 44.831 82.0833 49.9993C82.0833 60.2718 86.1871 69.576 92.8225 76.4069C92.8604 76.4448 117.022 100.63 117.022 100.63C118.667 102.275 121.336 102.275 122.981 100.63C122.981 100.63 130.762 92.8423 137.503 86.096V41.2493H137.5Z" fill="black"/>
<path id="Vector_5" opacity="0.07" d="M137.5 41.2493C137.5 38.0264 134.89 35.416 131.667 35.416H86.6071C84.65 39.8843 83.5417 44.8077 83.5417 49.9993C83.5417 59.8781 87.52 68.7914 93.8667 75.3889C93.9017 75.4268 117.136 98.6785 117.136 98.6785C118.717 100.259 121.283 100.259 122.864 98.6785C122.864 98.6785 130.891 90.646 137.5 84.031V41.2493Z" fill="black"/>
<path id="Vector_6" d="M145.086 74.3746C151.214 68.0717 155 59.4821 155 50C155 30.6713 139.329 15 120 15C100.671 15 85 30.6713 85 50C85 59.4821 88.7858 68.0717 94.9138 74.3746C94.9488 74.4096 117.252 96.7338 117.252 96.7338C118.772 98.2533 121.234 98.2533 122.753 96.7338C122.75 96.7338 145.054 74.4096 145.086 74.3746Z" fill="url(#paint1_linear_1_1020)"/>
<path id="Vector_7" d="M120 66.3327C129.021 66.3327 136.333 59.02 136.333 49.9993C136.333 40.9787 129.021 33.666 120 33.666C110.979 33.666 103.667 40.9787 103.667 49.9993C103.667 59.02 110.979 66.3327 120 66.3327Z" fill="url(#paint2_radial_1_1020)"/>
<path id="Vector_8" d="M120 64C127.732 64 134 57.732 134 50C134 42.268 127.732 36 120 36C112.268 36 106 42.268 106 50C106 57.732 112.268 64 120 64Z" fill="#F9F9F9"/>
</g>
<rect x="7.5" y="7.5" width="155" height="155" rx="12.5" stroke="#D5EAF6" stroke-width="15"/>
</g>
<defs>
<linearGradient id="paint0_linear_1_1020" x1="85" y1="15" x2="85" y2="155" gradientUnits="userSpaceOnUse">
<stop stop-color="#199AE0"/>
<stop offset="0.472222" stop-color="#0D5176" stop-opacity="0.527778"/>
<stop offset="0.940972" stop-color="#12A6F7" stop-opacity="0.465278"/>
<stop offset="1" stop-opacity="0"/>
</linearGradient>
<linearGradient id="paint1_linear_1_1020" x1="95.255" y1="25.2492" x2="144.745" y2="74.7392" gradientUnits="userSpaceOnUse">
<stop stop-color="#D43A02"/>
<stop offset="1" stop-color="#B9360C"/>
</linearGradient>
<radialGradient id="paint2_radial_1_1020" cx="0" cy="0" r="1" gradientUnits="userSpaceOnUse" gradientTransform="translate(119.997 49.9977) scale(16.3327 16.3327)">
<stop offset="0.177"/>
<stop offset="1" stop-opacity="0"/>
</radialGradient>
<clipPath id="clip0_1_1020">
<rect x="15" y="15" width="140" height="140" rx="5" fill="white"/>
</clipPath>
</defs>
</svg>
