<svg width="170" height="170" viewBox="0 0 170 170" fill="none" xmlns="http://www.w3.org/2000/svg">
<g id="meeting-room">
<rect x="7.5" y="7.5" width="155" height="155" rx="12.5" fill="white"/>
<rect x="7.5" y="7.5" width="155" height="155" rx="12.5" fill="url(#paint0_linear_1_1037)" fill-opacity="0.2"/>
<path id="Vector" d="M85 52.9173C91.4433 52.9173 96.6667 47.694 96.6667 41.2507C96.6667 34.8073 91.4433 29.584 85 29.584C78.5567 29.584 73.3333 34.8073 73.3333 41.2507C73.3333 47.694 78.5567 52.9173 85 52.9173Z" fill="url(#paint1_linear_1_1037)"/>
<path id="Vector_2" d="M134.583 58.7493C141.027 58.7493 146.25 53.526 146.25 47.0827C146.25 40.6394 141.027 35.416 134.583 35.416C128.14 35.416 122.917 40.6394 122.917 47.0827C122.917 53.526 128.14 58.7493 134.583 58.7493Z" fill="url(#paint2_linear_1_1037)"/>
<path id="Vector_3" d="M105.417 92.291H64.5833V82.0827C64.5833 70.8068 73.7242 61.666 85 61.666C96.2758 61.666 105.417 70.8068 105.417 82.0827V92.291Z" fill="url(#paint3_linear_1_1037)"/>
<path id="Vector_4" d="M134.583 67.5C128.14 67.5 122.917 72.7238 122.917 79.1667V102.445L107.228 105.528C104.536 106.044 102.5 108.406 102.5 111.25V136.042C102.5 138.457 104.46 140.417 106.875 140.417C109.29 140.417 111.02 138.404 111.305 136.042C111.413 135.146 113.613 117.083 113.613 117.083H134.583C141.026 117.083 146.25 111.86 146.25 105.417V79.1667C146.25 72.7238 141.026 67.5 134.583 67.5Z" fill="url(#paint4_linear_1_1037)"/>
<path id="Vector_5" d="M35.4167 58.7493C41.86 58.7493 47.0833 53.526 47.0833 47.0827C47.0833 40.6394 41.86 35.416 35.4167 35.416C28.9733 35.416 23.75 40.6394 23.75 47.0827C23.75 53.526 28.9733 58.7493 35.4167 58.7493Z" fill="url(#paint5_linear_1_1037)"/>
<path id="Vector_6" d="M35.4167 67.5C41.8596 67.5 47.0833 72.7238 47.0833 79.1667V102.445L62.7721 105.528C65.4642 106.044 67.5 108.406 67.5 111.25V136.042C67.5 138.457 65.54 140.417 63.125 140.417C60.71 140.417 58.9804 138.404 58.6946 136.042C58.5867 135.146 56.3875 117.083 56.3875 117.083H35.4167C28.9737 117.083 23.75 111.86 23.75 105.417V79.1667C23.75 72.7238 28.9737 67.5 35.4167 67.5Z" fill="url(#paint6_linear_1_1037)"/>
<path id="Vector_7" d="M111.25 96.666H58.75C57.14 96.666 55.8333 95.3593 55.8333 93.7493V90.8327C55.8333 89.2227 57.14 87.916 58.75 87.916H111.25C112.86 87.916 114.167 89.2227 114.167 90.8327V93.7493C114.167 95.3593 112.86 96.666 111.25 96.666Z" fill="#33CCFF"/>
<rect x="7.5" y="7.5" width="155" height="155" rx="12.5" stroke="#D5EAF6" stroke-width="15"/>
</g>
<defs>
<linearGradient id="paint0_linear_1_1037" x1="85" y1="15" x2="85" y2="155" gradientUnits="userSpaceOnUse">
<stop stop-color="#199AE0"/>
<stop offset="0.472222" stop-color="#0D5176" stop-opacity="0.527778"/>
<stop offset="0.940972" stop-color="#12A6F7" stop-opacity="0.465278"/>
<stop offset="1" stop-opacity="0"/>
</linearGradient>
<linearGradient id="paint1_linear_1_1037" x1="76.3842" y1="32.6348" x2="93.0967" y2="49.3473" gradientUnits="userSpaceOnUse">
<stop stop-color="#0D61A9"/>
<stop offset="1" stop-color="#16528C"/>
</linearGradient>
<linearGradient id="paint2_linear_1_1037" x1="128.881" y1="35.8098" x2="139.962" y2="57.7168" gradientUnits="userSpaceOnUse">
<stop stop-color="#199AE0"/>
<stop offset="1" stop-color="#0782D8"/>
</linearGradient>
<linearGradient id="paint3_linear_1_1037" x1="75.2117" y1="64.1831" x2="88.9929" y2="93.341" gradientUnits="userSpaceOnUse">
<stop stop-color="#0D61A9"/>
<stop offset="1" stop-color="#16528C"/>
</linearGradient>
<linearGradient id="paint4_linear_1_1037" x1="98.0346" y1="5.43333" x2="139.67" y2="166.188" gradientUnits="userSpaceOnUse">
<stop stop-color="#199AE0"/>
<stop offset="1" stop-color="#0782D8"/>
</linearGradient>
<linearGradient id="paint5_linear_1_1037" x1="41.1188" y1="35.8098" x2="30.0383" y2="57.7168" gradientUnits="userSpaceOnUse">
<stop stop-color="#199AE0"/>
<stop offset="1" stop-color="#0782D8"/>
</linearGradient>
<linearGradient id="paint6_linear_1_1037" x1="71.9654" y1="5.43333" x2="30.33" y2="166.188" gradientUnits="userSpaceOnUse">
<stop stop-color="#199AE0"/>
<stop offset="1" stop-color="#0782D8"/>
</linearGradient>
</defs>
</svg>
