<svg width="170" height="170" viewBox="0 0 170 170" fill="none" xmlns="http://www.w3.org/2000/svg">
<g id="member">
<rect x="7.5" y="7.5" width="155" height="155" rx="12.5" fill="white"/>
<rect x="7.5" y="7.5" width="155" height="155" rx="12.5" fill="url(#paint0_linear_1_1045)" fill-opacity="0.2"/>
<path id="Vector" d="M105.417 73.334C115.082 73.334 122.917 65.499 122.917 55.834C122.917 46.169 115.082 38.334 105.417 38.334C95.7517 38.334 87.9167 46.169 87.9167 55.834C87.9167 65.499 95.7517 73.334 105.417 73.334Z" fill="url(#paint1_linear_1_1045)"/>
<path id="Vector_2" d="M105.417 79.166C89.3079 79.166 76.25 91.8973 76.25 107.604V137.012C76.25 140.504 79.1492 143.333 82.7308 143.333H128.103C131.684 143.333 134.583 140.504 134.583 137.012V107.604C134.583 91.8973 121.525 79.166 105.417 79.166Z" fill="url(#paint2_linear_1_1045)"/>
<path id="Vector_3" d="M64.5833 61.666C74.2483 61.666 82.0833 53.831 82.0833 44.166C82.0833 34.501 74.2483 26.666 64.5833 26.666C54.9183 26.666 47.0833 34.501 47.0833 44.166C47.0833 53.831 54.9183 61.666 64.5833 61.666Z" fill="url(#paint3_linear_1_1045)"/>
<path id="Vector_4" d="M64.5833 67.5C48.4746 67.5 35.4167 80.2312 35.4167 95.9375V137.013C35.4167 140.504 38.3158 143.333 41.8975 143.333H87.2692C90.8508 143.333 93.75 140.504 93.75 137.013V95.9375C93.75 80.2312 80.6921 67.5 64.5833 67.5Z" fill="url(#paint4_linear_1_1045)"/>
<rect x="7.5" y="7.5" width="155" height="155" rx="12.5" stroke="#D5EAF6" stroke-width="15"/>
</g>
<defs>
<linearGradient id="paint0_linear_1_1045" x1="85" y1="15" x2="85" y2="155" gradientUnits="userSpaceOnUse">
<stop stop-color="#199AE0"/>
<stop offset="0.472222" stop-color="#0D5176" stop-opacity="0.527778"/>
<stop offset="0.940972" stop-color="#12A6F7" stop-opacity="0.465278"/>
<stop offset="1" stop-opacity="0"/>
</linearGradient>
<linearGradient id="paint1_linear_1_1045" x1="93.5458" y1="43.9602" x2="117.961" y2="68.3786" gradientUnits="userSpaceOnUse">
<stop stop-color="#0D61A9"/>
<stop offset="1" stop-color="#16528C"/>
</linearGradient>
<linearGradient id="paint2_linear_1_1045" x1="97.5621" y1="81.9631" x2="111.171" y2="149.997" gradientUnits="userSpaceOnUse">
<stop stop-color="#0D61A9"/>
<stop offset="1" stop-color="#16528C"/>
</linearGradient>
<linearGradient id="paint3_linear_1_1045" x1="52.7125" y1="32.2923" x2="77.1279" y2="56.7106" gradientUnits="userSpaceOnUse">
<stop stop-color="#32BDEF"/>
<stop offset="1" stop-color="#1EA2E4"/>
</linearGradient>
<linearGradient id="paint4_linear_1_1045" x1="55.6671" y1="70.8163" x2="71.56" y2="150.281" gradientUnits="userSpaceOnUse">
<stop stop-color="#32BDEF"/>
<stop offset="1" stop-color="#1EA2E4"/>
</linearGradient>
</defs>
</svg>
