<svg width="170" height="170" viewBox="0 0 170 170" fill="none" xmlns="http://www.w3.org/2000/svg">
<g id="menu">
<rect x="7.5" y="7.5" width="155" height="155" rx="12.5" fill="white"/>
<rect x="7.5" y="7.5" width="155" height="155" rx="12.5" fill="url(#paint0_linear_1_1050)" fill-opacity="0.2"/>
<path id="Vector" d="M140.417 58.75H29.5833C26.375 58.75 23.75 56.125 23.75 52.9167V47.0833C23.75 43.875 26.375 41.25 29.5833 41.25H140.417C143.625 41.25 146.25 43.875 146.25 47.0833V52.9167C146.25 56.125 143.625 58.75 140.417 58.75Z" fill="url(#paint1_linear_1_1050)"/>
<path id="Vector_2" d="M140.417 93.75H29.5833C26.375 93.75 23.75 91.125 23.75 87.9167V82.0833C23.75 78.875 26.375 76.25 29.5833 76.25H140.417C143.625 76.25 146.25 78.875 146.25 82.0833V87.9167C146.25 91.125 143.625 93.75 140.417 93.75Z" fill="url(#paint2_linear_1_1050)"/>
<path id="Vector_3" d="M140.417 128.75H29.5833C26.375 128.75 23.75 126.125 23.75 122.917V117.083C23.75 113.875 26.375 111.25 29.5833 111.25H140.417C143.625 111.25 146.25 113.875 146.25 117.083V122.917C146.25 126.125 143.625 128.75 140.417 128.75Z" fill="url(#paint3_linear_1_1050)"/>
<rect x="7.5" y="7.5" width="155" height="155" rx="12.5" stroke="#D5EAF6" stroke-width="15"/>
</g>
<defs>
<linearGradient id="paint0_linear_1_1050" x1="85" y1="15" x2="85" y2="155" gradientUnits="userSpaceOnUse">
<stop stop-color="#199AE0"/>
<stop offset="0.472222" stop-color="#0D5176" stop-opacity="0.527778"/>
<stop offset="0.940972" stop-color="#12A6F7" stop-opacity="0.465278"/>
<stop offset="1" stop-opacity="0"/>
</linearGradient>
<linearGradient id="paint1_linear_1_1050" x1="50.1925" y1="15.1925" x2="116.765" y2="81.7654" gradientUnits="userSpaceOnUse">
<stop offset="0.237" stop-color="#3BC9F3"/>
<stop offset="0.85" stop-color="#1591D8"/>
</linearGradient>
<linearGradient id="paint2_linear_1_1050" x1="50.1925" y1="50.1925" x2="116.765" y2="116.765" gradientUnits="userSpaceOnUse">
<stop offset="0.237" stop-color="#3BC9F3"/>
<stop offset="0.85" stop-color="#1591D8"/>
</linearGradient>
<linearGradient id="paint3_linear_1_1050" x1="50.1925" y1="85.1925" x2="116.765" y2="151.765" gradientUnits="userSpaceOnUse">
<stop offset="0.237" stop-color="#3BC9F3"/>
<stop offset="0.85" stop-color="#1591D8"/>
</linearGradient>
</defs>
</svg>
