<svg width="170" height="170" viewBox="0 0 170 170" fill="none" xmlns="http://www.w3.org/2000/svg">
<g id="mobile-shop-credit">
<g clip-path="url(#clip0_1_1096)">
<rect x="15" y="15" width="140" height="140" rx="5" fill="white"/>
<rect x="15" y="15" width="140" height="140" rx="5" fill="url(#paint0_linear_1_1096)" fill-opacity="0.2"/>
<path id="Vector" d="M120 41.25H50V140.417C50 143.64 52.6104 146.25 55.8333 146.25H114.167C117.39 146.25 120 143.64 120 140.417V41.25Z" fill="#1B9DE2"/>
<path id="Vector_2" opacity="0.05" d="M120 140.416V105.416H90.8333C87.6162 105.416 85 108.032 85 111.249V146.249H96.6667H114.167C117.39 146.249 120 143.639 120 140.416Z" fill="black"/>
<path id="Vector_3" opacity="0.07" d="M95.2083 144.792H117.99C119.213 143.721 120 142.17 120 140.417V106.875H90.8333C88.4213 106.875 86.4583 108.838 86.4583 111.25V146.25H95.2083V144.792Z" fill="black"/>
<path id="Vector_4" d="M120 41.2493H50V32.4993C50 29.2764 52.6104 26.666 55.8333 26.666H114.167C117.39 26.666 120 29.2764 120 32.4993V41.2493Z" fill="url(#paint1_linear_1_1096)"/>
<path id="Vector_5" d="M73.3333 36.1465C74.5415 36.1465 75.5208 35.1671 75.5208 33.959C75.5208 32.7509 74.5415 31.7715 73.3333 31.7715C72.1252 31.7715 71.1458 32.7509 71.1458 33.959C71.1458 35.1671 72.1252 36.1465 73.3333 36.1465Z" fill="#6D75CF"/>
<path id="Vector_6" d="M95.2083 31.7715C94.6425 31.7715 81.1908 31.7715 80.625 31.7715C79.4175 31.7715 78.4375 32.7515 78.4375 33.959C78.4375 35.1665 79.4175 36.1465 80.625 36.1465C81.1908 36.1465 94.6425 36.1465 95.2083 36.1465C96.4158 36.1465 97.3958 35.1665 97.3958 33.959C97.3958 32.7515 96.4158 31.7715 95.2083 31.7715Z" fill="#6D75CF"/>
<path id="Vector_7" d="M117.083 55.834H52.9167L44.1667 64.584V67.5007C44.1667 70.7236 46.7771 73.334 50 73.334H120C123.223 73.334 125.833 70.7236 125.833 67.5007V64.584L117.083 55.834Z" fill="#353C9F"/>
<path id="Vector_8" d="M120 41.25H50L44.1667 64.5833H125.833L120 41.25Z" fill="#6D75CF"/>
<path id="Vector_9" d="M93.75 155H90.8333C89.2233 155 87.9167 153.693 87.9167 152.083V146.066H93.75V155Z" fill="#52BF8D"/>
<path id="Vector_10" d="M149.167 108.334H93.75V143.334H149.167V108.334Z" fill="#33C481"/>
<path id="Vector_11" d="M93.75 149.166H90.8333C89.2233 149.166 87.9167 147.86 87.9167 146.25V139.812H93.75V149.166Z" fill="#59D19A"/>
<path id="Vector_12" d="M93.75 143.334H90.8333C89.2233 143.334 87.9167 142.027 87.9167 140.417V111.251C87.9167 109.641 89.2233 108.334 90.8333 108.334H93.75V143.334Z" fill="#61E3A7"/>
<path id="Vector_13" d="M149.167 143.334H93.75V149.167H149.167V143.334Z" fill="#21A366"/>
<path id="Vector_14" d="M149.167 149.166H93.75V154.999H149.167V149.166Z" fill="#107C42"/>
<path id="Vector_15" d="M111.25 137.499C117.693 137.499 122.917 132.276 122.917 125.833C122.917 119.389 117.693 114.166 111.25 114.166C104.807 114.166 99.5833 119.389 99.5833 125.833C99.5833 132.276 104.807 137.499 111.25 137.499Z" fill="#61E3A7"/>
<path id="Vector_16" d="M128.75 137.499C130.361 137.499 131.667 136.194 131.667 134.583C131.667 132.972 130.361 131.666 128.75 131.666C127.139 131.666 125.833 132.972 125.833 134.583C125.833 136.194 127.139 137.499 128.75 137.499Z" fill="#61E3A7"/>
<path id="Vector_17" d="M140.417 137.499C142.027 137.499 143.333 136.194 143.333 134.583C143.333 132.972 142.027 131.666 140.417 131.666C138.806 131.666 137.5 132.972 137.5 134.583C137.5 136.194 138.806 137.499 140.417 137.499Z" fill="#61E3A7"/>
<path id="Vector_18" d="M152.083 155H149.167V146.066H155V152.083C155 153.693 153.693 155 152.083 155Z" fill="#52BF8D"/>
<path id="Vector_19" d="M152.083 149.166H149.167V139.812H155V146.25C155 147.86 153.693 149.166 152.083 149.166Z" fill="#59D19A"/>
<path id="Vector_20" d="M152.083 143.334H149.167V108.334H152.083C153.693 108.334 155 109.641 155 111.251V140.417C155 142.027 153.693 143.334 152.083 143.334Z" fill="#61E3A7"/>
</g>
<rect x="7.5" y="7.5" width="155" height="155" rx="12.5" stroke="#D5EAF6" stroke-width="15"/>
</g>
<defs>
<linearGradient id="paint0_linear_1_1096" x1="85" y1="15" x2="85" y2="155" gradientUnits="userSpaceOnUse">
<stop stop-color="#199AE0"/>
<stop offset="0.472222" stop-color="#0D5176" stop-opacity="0.527778"/>
<stop offset="0.940972" stop-color="#12A6F7" stop-opacity="0.465278"/>
<stop offset="1" stop-opacity="0"/>
</linearGradient>
<linearGradient id="paint1_linear_1_1096" x1="50" y1="33.9577" x2="120" y2="33.9577" gradientUnits="userSpaceOnUse">
<stop stop-color="#464EB0"/>
<stop offset="1" stop-color="#343B9E"/>
</linearGradient>
<clipPath id="clip0_1_1096">
<rect x="15" y="15" width="140" height="140" rx="5" fill="white"/>
</clipPath>
</defs>
</svg>
