<svg width="170" height="170" viewBox="0 0 170 170" fill="none" xmlns="http://www.w3.org/2000/svg">
<g id="mockup">
<rect x="7.5" y="7.5" width="155" height="155" rx="12.5" fill="white"/>
<rect x="7.5" y="7.5" width="155" height="155" rx="12.5" fill="url(#paint0_linear_1_1117)" fill-opacity="0.2"/>
<path id="Vector" d="M131.678 137.41L38.4237 137.5C35.2183 137.503 32.5933 134.884 32.5904 131.678L32.5 38.4238C32.4971 35.2183 35.1162 32.5933 38.3217 32.5904L131.576 32.5C134.782 32.4971 137.407 35.1163 137.41 38.3217L137.5 131.576C137.503 134.782 134.884 137.407 131.678 137.41Z" fill="url(#paint1_linear_1_1117)"/>
<path id="Vector_2" d="M127.292 122.917H42.7083C41.9033 122.917 41.25 122.264 41.25 121.459V48.5423C41.25 47.7373 41.9033 47.084 42.7083 47.084H127.292C128.097 47.084 128.75 47.7373 128.75 48.5423V121.459C128.75 122.264 128.097 122.917 127.292 122.917Z" fill="#50E6FF"/>
<path id="Vector_3" d="M120 85H50V114.167H120V85Z" fill="url(#paint2_linear_1_1117)"/>
<path id="Vector_4" d="M82.0833 55.834H50V79.1673H82.0833V55.834Z" fill="url(#paint3_linear_1_1117)"/>
<path id="Vector_5" d="M120 55.834H87.9167V79.1673H120V55.834Z" fill="url(#paint4_linear_1_1117)"/>
<rect x="7.5" y="7.5" width="155" height="155" rx="12.5" stroke="#D5EAF6" stroke-width="15"/>
</g>
<defs>
<linearGradient id="paint0_linear_1_1117" x1="85" y1="15" x2="85" y2="155" gradientUnits="userSpaceOnUse">
<stop stop-color="#199AE0"/>
<stop offset="0.472222" stop-color="#0D5176" stop-opacity="0.527778"/>
<stop offset="0.940972" stop-color="#12A6F7" stop-opacity="0.465278"/>
<stop offset="1" stop-opacity="0"/>
</linearGradient>
<linearGradient id="paint1_linear_1_1117" x1="84.93" y1="32.9608" x2="84.93" y2="137.631" gradientUnits="userSpaceOnUse">
<stop stop-color="#0568BA"/>
<stop offset="1" stop-color="#0B59A2"/>
</linearGradient>
<linearGradient id="paint2_linear_1_1117" x1="-833.703" y1="1153.26" x2="131.121" y2="46.6838" gradientUnits="userSpaceOnUse">
<stop stop-color="#42A3F2"/>
<stop offset="1" stop-color="#42A4EB"/>
</linearGradient>
<linearGradient id="paint3_linear_1_1117" x1="-456.529" y1="666.847" x2="92.2771" y2="37.4123" gradientUnits="userSpaceOnUse">
<stop stop-color="#42A3F2"/>
<stop offset="1" stop-color="#42A4EB"/>
</linearGradient>
<linearGradient id="paint4_linear_1_1117" x1="-418.612" y1="666.847" x2="130.194" y2="37.4123" gradientUnits="userSpaceOnUse">
<stop stop-color="#42A3F2"/>
<stop offset="1" stop-color="#42A4EB"/>
</linearGradient>
</defs>
</svg>
