<svg width="170" height="170" viewBox="0 0 170 170" fill="none" xmlns="http://www.w3.org/2000/svg">
<g id="more">
<rect x="7.5" y="7.5" width="155" height="155" rx="12.5" fill="white"/>
<rect x="7.5" y="7.5" width="155" height="155" rx="12.5" fill="url(#paint0_linear_1_1130)" fill-opacity="0.2"/>
<path id="Vector" d="M85 96.6673C91.4433 96.6673 96.6667 91.444 96.6667 85.0007C96.6667 78.5573 91.4433 73.334 85 73.334C78.5567 73.334 73.3333 78.5573 73.3333 85.0007C73.3333 91.444 78.5567 96.6673 85 96.6673Z" fill="url(#paint1_linear_1_1130)"/>
<path id="Vector_2" d="M44.1667 96.6673C50.61 96.6673 55.8333 91.444 55.8333 85.0007C55.8333 78.5573 50.61 73.334 44.1667 73.334C37.7233 73.334 32.5 78.5573 32.5 85.0007C32.5 91.444 37.7233 96.6673 44.1667 96.6673Z" fill="url(#paint2_linear_1_1130)"/>
<path id="Vector_3" d="M125.833 96.6673C132.277 96.6673 137.5 91.444 137.5 85.0007C137.5 78.5573 132.277 73.334 125.833 73.334C119.39 73.334 114.167 78.5573 114.167 85.0007C114.167 91.444 119.39 96.6673 125.833 96.6673Z" fill="url(#paint3_linear_1_1130)"/>
<rect x="7.5" y="7.5" width="155" height="155" rx="12.5" stroke="#D5EAF6" stroke-width="15"/>
</g>
<defs>
<linearGradient id="paint0_linear_1_1130" x1="85" y1="15" x2="85" y2="155" gradientUnits="userSpaceOnUse">
<stop stop-color="#199AE0"/>
<stop offset="0.472222" stop-color="#0D5176" stop-opacity="0.527778"/>
<stop offset="0.940972" stop-color="#12A6F7" stop-opacity="0.465278"/>
<stop offset="1" stop-opacity="0"/>
</linearGradient>
<linearGradient id="paint1_linear_1_1130" x1="77.1308" y1="77.1315" x2="94.4908" y2="94.4915" gradientUnits="userSpaceOnUse">
<stop stop-color="#32BDEF"/>
<stop offset="1" stop-color="#1EA2E4"/>
</linearGradient>
<linearGradient id="paint2_linear_1_1130" x1="36.2975" y1="77.1315" x2="53.6575" y2="94.4915" gradientUnits="userSpaceOnUse">
<stop stop-color="#32BDEF"/>
<stop offset="1" stop-color="#1EA2E4"/>
</linearGradient>
<linearGradient id="paint3_linear_1_1130" x1="117.964" y1="77.1315" x2="135.324" y2="94.4915" gradientUnits="userSpaceOnUse">
<stop stop-color="#32BDEF"/>
<stop offset="1" stop-color="#1EA2E4"/>
</linearGradient>
</defs>
</svg>
