<svg width="170" height="170" viewBox="0 0 170 170" fill="none" xmlns="http://www.w3.org/2000/svg">
<g id="multiple-pages-mode">
<rect x="7.5" y="7.5" width="155" height="155" rx="12.5" fill="white"/>
<rect x="7.5" y="7.5" width="155" height="155" rx="12.5" fill="url(#paint0_linear_1_1137)" fill-opacity="0.2"/>
<path id="Vector" d="M76.25 82.0833H38.3333C35.1104 82.0833 32.5 79.4729 32.5 76.25V38.3333C32.5 35.1104 35.1104 32.5 38.3333 32.5H76.25C79.4729 32.5 82.0833 35.1104 82.0833 38.3333V76.25C82.0833 79.4729 79.4729 82.0833 76.25 82.0833Z" fill="#50E6FF"/>
<path id="Vector_2" d="M32.5 38.334H66.0417C66.8467 38.334 67.5 38.9873 67.5 39.7923V42.709C67.5 43.514 66.8467 44.1673 66.0417 44.1673H32.5V38.334Z" fill="#057093"/>
<path id="Vector_3" d="M32.5 52.916H66.0417C66.8467 52.916 67.5 53.5693 67.5 54.3743V57.291C67.5 58.096 66.8467 58.7493 66.0417 58.7493H32.5V52.916Z" fill="#057093"/>
<path id="Vector_4" d="M87.9167 76.5738V38.0096C87.9167 34.9675 90.3842 32.5 93.4262 32.5H131.99C135.032 32.5 137.5 34.9675 137.5 38.0096V76.5738C137.5 79.6158 135.032 82.0833 131.99 82.0833H93.4262C90.3842 82.0833 87.9167 79.6158 87.9167 76.5738Z" fill="#50E6FF"/>
<path id="Vector_5" d="M137.5 44.1673H103.958C103.153 44.1673 102.5 43.514 102.5 42.709V39.7923C102.5 38.9873 103.153 38.334 103.958 38.334H137.5V44.1673Z" fill="#057093"/>
<path id="Vector_6" d="M137.5 58.7493H103.958C103.153 58.7493 102.5 58.096 102.5 57.291V54.3743C102.5 53.5693 103.153 52.916 103.958 52.916H137.5V58.7493Z" fill="#057093"/>
<path id="Vector_7" d="M82.0833 93.7493V131.666C82.0833 134.889 79.4729 137.499 76.25 137.499H38.3333C35.1104 137.499 32.5 134.889 32.5 131.666V93.7493C32.5 90.5264 35.1104 87.916 38.3333 87.916H76.25C79.4729 87.916 82.0833 90.5264 82.0833 93.7493Z" fill="#50E6FF"/>
<path id="Vector_8" d="M32.5 125.834H66.0417C66.8467 125.834 67.5 126.487 67.5 127.292V130.209C67.5 131.014 66.8467 131.667 66.0417 131.667H32.5V125.834Z" fill="#057093"/>
<path id="Vector_9" d="M32.5 111.25H66.0417C66.8467 111.25 67.5 111.903 67.5 112.708V115.625C67.5 116.43 66.8467 117.083 66.0417 117.083H32.5V111.25Z" fill="#057093"/>
<path id="Vector_10" d="M93.75 87.916H131.667C134.89 87.916 137.5 90.5264 137.5 93.7493V131.666C137.5 134.889 134.89 137.499 131.667 137.499H93.75C90.5271 137.499 87.9167 134.889 87.9167 131.666V93.7493C87.9167 90.5264 90.5271 87.916 93.75 87.916Z" fill="#50E6FF"/>
<path id="Vector_11" d="M137.5 131.667H103.958C103.153 131.667 102.5 131.014 102.5 130.209V127.292C102.5 126.487 103.153 125.834 103.958 125.834H137.5V131.667Z" fill="#057093"/>
<path id="Vector_12" d="M137.5 117.083H103.958C103.153 117.083 102.5 116.43 102.5 115.625V112.708C102.5 111.903 103.153 111.25 103.958 111.25H137.5V117.083Z" fill="#057093"/>
<rect x="7.5" y="7.5" width="155" height="155" rx="12.5" stroke="#D5EAF6" stroke-width="15"/>
</g>
<defs>
<linearGradient id="paint0_linear_1_1137" x1="85" y1="15" x2="85" y2="155" gradientUnits="userSpaceOnUse">
<stop stop-color="#199AE0"/>
<stop offset="0.472222" stop-color="#0D5176" stop-opacity="0.527778"/>
<stop offset="0.940972" stop-color="#12A6F7" stop-opacity="0.465278"/>
<stop offset="1" stop-opacity="0"/>
</linearGradient>
</defs>
</svg>
