<svg width="170" height="170" viewBox="0 0 170 170" fill="none" xmlns="http://www.w3.org/2000/svg">
<g id="music-library">
<rect x="7.5" y="7.5" width="155" height="155" rx="12.5" fill="white"/>
<rect x="7.5" y="7.5" width="155" height="155" rx="12.5" fill="url(#paint0_linear_1_1150)" fill-opacity="0.2"/>
<path id="Vector" d="M131.667 32.5H38.3333C35.1104 32.5 32.5 35.1104 32.5 38.3333V55.8333H137.5V38.3333C137.5 35.1104 134.89 32.5 131.667 32.5Z" fill="url(#paint1_linear_1_1150)"/>
<path id="Vector_2" d="M134.583 44.166H35.4167C32.1937 44.166 29.5833 46.7764 29.5833 49.9993V64.5827H140.417V49.9993C140.417 46.7764 137.806 44.166 134.583 44.166Z" fill="url(#paint2_linear_1_1150)"/>
<path id="Vector_3" d="M137.5 55.834H32.5C29.2771 55.834 26.6667 58.4444 26.6667 61.6673V131.667C26.6667 134.89 29.2771 137.501 32.5 137.501H137.5C140.723 137.501 143.333 134.89 143.333 131.667V61.6673C143.333 58.4444 140.723 55.834 137.5 55.834Z" fill="url(#paint3_linear_1_1150)"/>
<path id="Vector_4" opacity="0.05" d="M101.042 70.416H87.9167C84.6996 70.416 82.0833 73.0323 82.0833 76.2493V94.0527C81.1267 93.8514 80.1554 93.7493 79.1667 93.7493C71.1254 93.7493 64.5833 100.291 64.5833 108.333C64.5833 116.374 71.1254 122.916 79.1667 122.916C87.2079 122.916 93.75 116.374 93.75 108.333V84.9993H101.042C103.454 84.9993 105.417 83.0364 105.417 80.6243V74.791C105.417 72.3789 103.454 70.416 101.042 70.416Z" fill="black"/>
<path id="Vector_5" opacity="0.07" d="M101.042 71.875H87.9167C85.5046 71.875 83.5417 73.8379 83.5417 76.25V95.99C82.13 95.4708 80.6658 95.2083 79.1667 95.2083C71.9304 95.2083 66.0417 101.097 66.0417 108.333C66.0417 115.57 71.9304 121.458 79.1667 121.458C86.4029 121.458 92.2917 115.57 92.2917 108.333V83.5417H101.042C102.652 83.5417 103.958 82.235 103.958 80.625V74.7917C103.958 73.1817 102.652 71.875 101.042 71.875Z" fill="black"/>
<path id="Vector_6" d="M79.1667 96.666C72.7237 96.666 67.5 101.89 67.5 108.333C67.5 114.776 72.7237 119.999 79.1667 119.999C85.6096 119.999 90.8333 114.776 90.8333 108.333C90.8333 101.89 85.6096 96.666 79.1667 96.666Z" fill="white"/>
<path id="Vector_7" d="M101.042 73.334H87.9167C86.3067 73.334 85 74.6407 85 76.2507V108.334H90.8333V82.084H101.042C101.847 82.084 102.5 81.4307 102.5 80.6257V74.7923C102.5 73.9873 101.847 73.334 101.042 73.334Z" fill="white"/>
<rect x="7.5" y="7.5" width="155" height="155" rx="12.5" stroke="#D5EAF6" stroke-width="15"/>
</g>
<defs>
<linearGradient id="paint0_linear_1_1150" x1="85" y1="15" x2="85" y2="155" gradientUnits="userSpaceOnUse">
<stop stop-color="#199AE0"/>
<stop offset="0.472222" stop-color="#0D5176" stop-opacity="0.527778"/>
<stop offset="0.940972" stop-color="#12A6F7" stop-opacity="0.465278"/>
<stop offset="1" stop-opacity="0"/>
</linearGradient>
<linearGradient id="paint1_linear_1_1150" x1="85" y1="33.0396" x2="85" y2="55.1858" gradientUnits="userSpaceOnUse">
<stop stop-color="#0D61A9"/>
<stop offset="1" stop-color="#16528C"/>
</linearGradient>
<linearGradient id="paint2_linear_1_1150" x1="85" y1="44.3585" x2="85" y2="64.9764" gradientUnits="userSpaceOnUse">
<stop stop-color="#199AE0"/>
<stop offset="1" stop-color="#0782D8"/>
</linearGradient>
<linearGradient id="paint3_linear_1_1150" x1="74.7042" y1="54.4544" x2="94.4908" y2="135.576" gradientUnits="userSpaceOnUse">
<stop stop-color="#32BDEF"/>
<stop offset="1" stop-color="#1EA2E4"/>
</linearGradient>
</defs>
</svg>
