<svg width="170" height="170" viewBox="0 0 170 170" fill="none" xmlns="http://www.w3.org/2000/svg">
<g id="navigation-toolbar-left">
<rect x="7.5" y="7.5" width="155" height="155" rx="12.5" fill="white"/>
<rect x="7.5" y="7.5" width="155" height="155" rx="12.5" fill="url(#paint0_linear_1_1158)" fill-opacity="0.2"/>
<path id="Vector" d="M55.8333 134.583C55.8333 136.193 57.14 137.5 58.75 137.5H131.667C134.89 137.5 137.5 134.89 137.5 131.667V38.3333C137.5 35.1104 134.89 32.5 131.667 32.5H58.75C57.14 32.5 55.8333 33.8067 55.8333 35.4167V134.583Z" fill="#50E6FF"/>
<path id="Vector_2" d="M73.3333 32.5H38.3333C35.1104 32.5 32.5 35.1104 32.5 38.3333V131.667C32.5 134.89 35.1104 137.5 38.3333 137.5H73.3333V32.5Z" fill="url(#paint1_linear_1_1158)"/>
<path id="Vector_3" d="M44.1667 38.334C40.9437 38.334 38.3333 40.9444 38.3333 44.1673C38.3333 47.3902 40.9437 50.0007 44.1667 50.0007C47.3896 50.0007 50 47.3902 50 44.1673C50 40.9444 47.3896 38.334 44.1667 38.334Z" fill="url(#paint2_linear_1_1158)"/>
<path id="Vector_4" d="M61.6667 38.334C58.4437 38.334 55.8333 40.9444 55.8333 44.1673C55.8333 47.3902 58.4437 50.0007 61.6667 50.0007C64.8896 50.0007 67.5 47.3902 67.5 44.1673C67.5 40.9444 64.8896 38.334 61.6667 38.334Z" fill="url(#paint3_linear_1_1158)"/>
<path id="Vector_5" d="M66.0417 61.6673H39.7917C38.9867 61.6673 38.3333 61.014 38.3333 60.209V57.2923C38.3333 56.4873 38.9867 55.834 39.7917 55.834H66.0417C66.8467 55.834 67.5 56.4873 67.5 57.2923V60.209C67.5 61.014 66.8467 61.6673 66.0417 61.6673Z" fill="url(#paint4_linear_1_1158)"/>
<rect x="7.5" y="7.5" width="155" height="155" rx="12.5" stroke="#D5EAF6" stroke-width="15"/>
</g>
<defs>
<linearGradient id="paint0_linear_1_1158" x1="85" y1="15" x2="85" y2="155" gradientUnits="userSpaceOnUse">
<stop stop-color="#199AE0"/>
<stop offset="0.472222" stop-color="#0D5176" stop-opacity="0.527778"/>
<stop offset="0.940972" stop-color="#12A6F7" stop-opacity="0.465278"/>
<stop offset="1" stop-opacity="0"/>
</linearGradient>
<linearGradient id="paint1_linear_1_1158" x1="89.2729" y1="135.152" x2="26.7192" y2="45.4179" gradientUnits="userSpaceOnUse">
<stop stop-color="#1951A8"/>
<stop offset="0.175" stop-color="#1955B0"/>
<stop offset="0.505" stop-color="#195AB9"/>
<stop offset="1" stop-color="#195BBC"/>
</linearGradient>
<linearGradient id="paint2_linear_1_1158" x1="39.2025" y1="39.2032" x2="47.5325" y2="47.5332" gradientUnits="userSpaceOnUse">
<stop stop-color="#FFC430"/>
<stop offset="0.41" stop-color="#FEC130"/>
<stop offset="0.72" stop-color="#FCB730"/>
<stop offset="0.998" stop-color="#F7A72F"/>
<stop offset="1" stop-color="#F7A72F"/>
</linearGradient>
<linearGradient id="paint3_linear_1_1158" x1="56.6558" y1="39.1565" x2="64.9654" y2="47.4661" gradientUnits="userSpaceOnUse">
<stop stop-color="#9DFFCE"/>
<stop offset="1" stop-color="#50D18D"/>
</linearGradient>
<linearGradient id="paint4_linear_1_1158" x1="38.3333" y1="58.7507" x2="67.5" y2="58.7507" gradientUnits="userSpaceOnUse">
<stop stop-color="#7DD8F3"/>
<stop offset="1" stop-color="#45B0D0"/>
</linearGradient>
</defs>
</svg>
