<svg width="170" height="170" viewBox="0 0 170 170" fill="none" xmlns="http://www.w3.org/2000/svg">
<g id="new-item">
<rect x="7.5" y="7.5" width="155" height="155" rx="12.5" fill="white"/>
<rect x="7.5" y="7.5" width="155" height="155" rx="12.5" fill="url(#paint0_linear_1_1164)" fill-opacity="0.2"/>
<path id="Vector" d="M82.0833 70.4167H29.5833C26.3604 70.4167 23.75 67.8063 23.75 64.5833V29.5833C23.75 26.3604 26.3604 23.75 29.5833 23.75H82.0833C85.3063 23.75 87.9167 26.3604 87.9167 29.5833V64.5833C87.9167 67.8063 85.3063 70.4167 82.0833 70.4167Z" fill="url(#paint1_radial_1_1164)"/>
<path id="Vector_2" d="M78.3792 70.4164H29.5833C26.375 70.4164 23.75 67.7914 23.75 64.5831V52.8289L38.5375 38.0414C40.6083 35.9706 43.9333 35.9706 45.975 38.0414L78.3792 70.4164Z" fill="url(#paint2_linear_1_1164)"/>
<path id="Vector_3" d="M85.0875 70.4166C86.9425 70.4166 88.4475 68.9116 88.4475 67.0566V65.3766L67.8179 44.747C65.7646 42.6937 62.4337 42.6937 60.3804 44.747L34.7108 70.4166H85.0875Z" fill="#436DCD"/>
<path id="Vector_4" d="M105.417 117.083H64.5833C61.3604 117.083 58.75 114.472 58.75 111.249V58.7493C58.75 55.5264 61.3604 52.916 64.5833 52.916H90.8333C93.75 58.7493 105.417 70.416 111.25 73.3327V111.249C111.25 114.472 108.64 117.083 105.417 117.083Z" fill="#50E6FF"/>
<path id="Vector_5" d="M90.8333 52.916V67.4993C90.8333 70.7223 93.4438 73.3327 96.6667 73.3327H111.25L90.8333 52.916Z" fill="url(#paint3_linear_1_1164)"/>
<path id="Vector_6" d="M98.125 90.8333H68.9583C68.1533 90.8333 67.5 90.18 67.5 89.375V86.4583C67.5 85.6533 68.1533 85 68.9583 85H98.125C98.93 85 99.5833 85.6533 99.5833 86.4583V89.375C99.5833 90.18 98.93 90.8333 98.125 90.8333Z" fill="#35C1F1"/>
<path id="Vector_7" d="M98.125 102.499H68.9583C68.1533 102.499 67.5 101.846 67.5 101.041V98.1243C67.5 97.3193 68.1533 96.666 68.9583 96.666H98.125C98.93 96.666 99.5833 97.3193 99.5833 98.1243V101.041C99.5833 101.846 98.93 102.499 98.125 102.499Z" fill="#35C1F1"/>
<path id="Vector_8" d="M140.417 146.251H99.5833C96.3604 146.251 93.75 143.64 93.75 140.417V87.9173C93.75 84.6944 96.3604 82.084 99.5833 82.084H125.833C128.75 87.9173 140.417 99.584 146.25 102.501V140.417C146.25 143.64 143.64 146.251 140.417 146.251Z" fill="#21A366"/>
<path id="Vector_9" d="M146.25 137.499V131.666H93.75V137.499H146.25Z" fill="#33C481"/>
<path id="Vector_10" d="M146.25 119.999V114.166H93.75V119.999H146.25Z" fill="#33C481"/>
<path id="Vector_11" d="M93.75 102.499V96.666H137.5L146.25 102.499H93.75Z" fill="#33C481"/>
<path id="Vector_12" d="M125.833 82.084V96.6673C125.833 99.8902 128.444 102.501 131.667 102.501H146.25L125.833 82.084Z" fill="#185C37"/>
<path id="Vector_13" d="M111.25 82.084H105.417V146.251H111.25V82.084Z" fill="#107C42"/>
<path id="Vector_14" d="M111.25 96.666H105.417V102.499H111.25V96.666Z" fill="#139551"/>
<path id="Vector_15" d="M111.25 114.166H105.417V119.999H111.25V114.166Z" fill="#139551"/>
<path id="Vector_16" d="M111.25 131.666H105.417V137.499H111.25V131.666Z" fill="#139551"/>
<path id="Vector_17" d="M74.7917 38.334C77.2079 38.334 79.1667 36.3752 79.1667 33.959C79.1667 31.5427 77.2079 29.584 74.7917 29.584C72.3754 29.584 70.4167 31.5427 70.4167 33.959C70.4167 36.3752 72.3754 38.334 74.7917 38.334Z" fill="white"/>
<rect x="7.5" y="7.5" width="155" height="155" rx="12.5" stroke="#D5EAF6" stroke-width="15"/>
</g>
<defs>
<linearGradient id="paint0_linear_1_1164" x1="85" y1="15" x2="85" y2="155" gradientUnits="userSpaceOnUse">
<stop stop-color="#199AE0"/>
<stop offset="0.472222" stop-color="#0D5176" stop-opacity="0.527778"/>
<stop offset="0.940972" stop-color="#12A6F7" stop-opacity="0.465278"/>
<stop offset="1" stop-opacity="0"/>
</linearGradient>
<radialGradient id="paint1_radial_1_1164" cx="0" cy="0" r="1" gradientUnits="userSpaceOnUse" gradientTransform="translate(96.9078 61.2037) scale(34.2891 39.1638)">
<stop stop-color="#BD8AF5"/>
<stop offset="0.137" stop-color="#B88BF5"/>
<stop offset="0.309" stop-color="#A88FF3"/>
<stop offset="0.499" stop-color="#8F96F2"/>
<stop offset="0.702" stop-color="#6B9EEF"/>
<stop offset="0.913" stop-color="#3EAAEC"/>
<stop offset="1" stop-color="#29AFEA"/>
</radialGradient>
<linearGradient id="paint2_linear_1_1164" x1="51.0646" y1="36.4139" x2="51.0646" y2="71.0085" gradientUnits="userSpaceOnUse">
<stop stop-color="#124787"/>
<stop offset="0.923" stop-color="#173B75"/>
<stop offset="1" stop-color="#173A73"/>
</linearGradient>
<linearGradient id="paint3_linear_1_1164" x1="92.4433" y1="71.7227" x2="101.214" y2="62.9523" gradientUnits="userSpaceOnUse">
<stop stop-color="#3079D6"/>
<stop offset="1" stop-color="#297CD2"/>
</linearGradient>
</defs>
</svg>
