<svg width="170" height="170" viewBox="0 0 170 170" fill="none" xmlns="http://www.w3.org/2000/svg">
<g id="night">
<rect x="7.5" y="7.5" width="155" height="155" rx="12.5" fill="white"/>
<rect x="7.5" y="7.5" width="155" height="155" rx="12.5" fill="url(#paint0_linear_1_1188)" fill-opacity="0.2"/>
<path id="Vector" d="M61.6667 35.416C43.9479 35.416 29.5833 49.7806 29.5833 67.4994C29.5833 85.2181 43.9479 99.5827 61.6667 99.5827C79.3854 99.5827 93.75 85.2181 93.75 67.4994C93.75 49.7806 79.3854 35.416 61.6667 35.416Z" fill="url(#paint1_radial_1_1188)"/>
<path id="Vector_2" d="M58.75 44.166C55.5271 44.166 52.9167 46.7764 52.9167 49.9993C52.9167 53.2223 55.5271 55.8327 58.75 55.8327C61.9729 55.8327 64.5833 53.2223 64.5833 49.9993C64.5833 46.7764 61.9729 44.166 58.75 44.166Z" fill="url(#paint2_radial_1_1188)"/>
<path id="Vector_3" d="M44.1667 64.584C42.5567 64.584 41.25 65.8907 41.25 67.5007C41.25 69.1107 42.5567 70.4173 44.1667 70.4173C45.7767 70.4173 47.0833 69.1107 47.0833 67.5007C47.0833 65.8907 45.7767 64.584 44.1667 64.584Z" fill="url(#paint3_radial_1_1188)"/>
<path id="Vector_4" d="M117.083 76.2494C116.118 76.2494 115.167 76.3018 114.225 76.3923C107.578 67.4702 96.9817 61.666 85 61.666C68.3371 61.666 54.3167 72.8573 49.965 88.1231C38.4762 89.5756 29.5833 99.3639 29.5833 111.249C29.5833 124.135 40.0308 134.583 52.9167 134.583C58.2192 134.583 111.562 134.583 117.083 134.583C133.192 134.583 146.25 121.525 146.25 105.416C146.25 89.3073 133.192 76.2494 117.083 76.2494Z" fill="url(#paint4_linear_1_1188)"/>
<rect x="7.5" y="7.5" width="155" height="155" rx="12.5" stroke="#D5EAF6" stroke-width="15"/>
</g>
<defs>
<linearGradient id="paint0_linear_1_1188" x1="85" y1="15" x2="85" y2="155" gradientUnits="userSpaceOnUse">
<stop stop-color="#199AE0"/>
<stop offset="0.472222" stop-color="#0D5176" stop-opacity="0.527778"/>
<stop offset="0.940972" stop-color="#12A6F7" stop-opacity="0.465278"/>
<stop offset="1" stop-opacity="0"/>
</linearGradient>
<radialGradient id="paint1_radial_1_1188" cx="0" cy="0" r="1" gradientUnits="userSpaceOnUse" gradientTransform="translate(73.0592 87.5544) scale(55.4429)">
<stop offset="0.313" stop-color="#FCFCFC"/>
<stop offset="0.465" stop-color="#EFF0F1"/>
<stop offset="0.741" stop-color="#CED1D3"/>
<stop offset="1" stop-color="#AAAFB3"/>
</radialGradient>
<radialGradient id="paint2_radial_1_1188" cx="0" cy="0" r="1" gradientUnits="userSpaceOnUse" gradientTransform="translate(60.8208 53.6452) scale(10.08)">
<stop offset="0.313" stop-color="#9DA2A6" stop-opacity="0"/>
<stop offset="1" stop-color="#9DA2A6"/>
</radialGradient>
<radialGradient id="paint3_radial_1_1188" cx="0" cy="0" r="1" gradientUnits="userSpaceOnUse" gradientTransform="translate(45.2021 69.3236) scale(5.04)">
<stop offset="0.313" stop-color="#9DA2A6" stop-opacity="0"/>
<stop offset="1" stop-color="#9DA2A6"/>
</radialGradient>
<linearGradient id="paint4_linear_1_1188" x1="80.0796" y1="61.8964" x2="92.6358" y2="135.889" gradientUnits="userSpaceOnUse">
<stop stop-color="#BAC0FF"/>
<stop offset="0.398" stop-color="#8A91E7"/>
<stop offset="0.796" stop-color="#6069D1"/>
<stop offset="1" stop-color="#5059C9"/>
</linearGradient>
</defs>
</svg>
