<svg width="170" height="170" viewBox="0 0 170 170" fill="none" xmlns="http://www.w3.org/2000/svg">
<g id="number-pad">
<rect x="7.5" y="7.5" width="155" height="155" rx="12.5" fill="white"/>
<rect x="7.5" y="7.5" width="155" height="155" rx="12.5" fill="url(#paint0_linear_1_1200)" fill-opacity="0.2"/>
<path id="Vector" d="M147.507 57.1631C147.507 57.1631 141.079 49.5389 132.833 46.771C124.588 44.006 105.717 40.226 104.641 45.0998C107.899 45.5548 109.048 48.5852 109.013 50.656C108.99 52.0006 108.815 58.2394 108.692 62.4569C108.625 64.796 110.147 66.8873 112.393 67.5435L134.07 73.8698C136.421 74.5552 138.929 73.4906 140.067 71.3235L147.507 57.1631Z" fill="#1A9BA1"/>
<path id="Vector_2" d="M22.4929 57.1631C22.4929 57.1631 28.9213 49.5389 37.1667 46.771C45.4121 44.006 64.2829 40.226 65.3592 45.0998C62.1013 45.5548 60.9521 48.5852 60.9871 50.656C61.0104 52.0006 61.1854 58.2394 61.3079 62.4569C61.375 64.796 59.8525 66.8873 57.6067 67.5435L35.93 73.8698C33.5792 74.5552 31.0708 73.4906 29.9333 71.3235L22.4929 57.1631Z" fill="#1A9BA1"/>
<path id="Vector_3" d="M85 43.8429C62.7283 43.8429 41.6 48.6467 22.4929 57.1633L21.0287 51.6713C20.3112 48.9821 21.6325 46.1267 24.1875 45.0242C42.8425 36.9771 63.3933 32.5 85 32.5C106.607 32.5 127.158 36.9771 145.815 45.0213C148.37 46.1238 149.692 48.9792 148.974 51.6683L147.51 57.1604C128.4 48.6437 107.272 43.8429 85 43.8429Z" fill="#37C6D0"/>
<path id="Vector_4" d="M85 105.416C89.8325 105.416 93.75 101.499 93.75 96.666C93.75 91.8335 89.8325 87.916 85 87.916C80.1675 87.916 76.25 91.8335 76.25 96.666C76.25 101.499 80.1675 105.416 85 105.416Z" fill="#1B9DE2"/>
<path id="Vector_5" d="M85 134.584C89.8325 134.584 93.75 130.666 93.75 125.834C93.75 121.001 89.8325 117.084 85 117.084C80.1675 117.084 76.25 121.001 76.25 125.834C76.25 130.666 80.1675 134.584 85 134.584Z" fill="#1B9DE2"/>
<path id="Vector_6" d="M114.167 105.416C118.999 105.416 122.917 101.499 122.917 96.666C122.917 91.8335 118.999 87.916 114.167 87.916C109.334 87.916 105.417 91.8335 105.417 96.666C105.417 101.499 109.334 105.416 114.167 105.416Z" fill="#1B9DE2"/>
<path id="Vector_7" d="M114.167 134.584C118.999 134.584 122.917 130.666 122.917 125.834C122.917 121.001 118.999 117.084 114.167 117.084C109.334 117.084 105.417 121.001 105.417 125.834C105.417 130.666 109.334 134.584 114.167 134.584Z" fill="#1B9DE2"/>
<path id="Vector_8" d="M55.8333 105.416C60.6658 105.416 64.5833 101.499 64.5833 96.666C64.5833 91.8335 60.6658 87.916 55.8333 87.916C51.0008 87.916 47.0833 91.8335 47.0833 96.666C47.0833 101.499 51.0008 105.416 55.8333 105.416Z" fill="#1B9DE2"/>
<path id="Vector_9" d="M55.8333 134.584C60.6658 134.584 64.5833 130.666 64.5833 125.834C64.5833 121.001 60.6658 117.084 55.8333 117.084C51.0008 117.084 47.0833 121.001 47.0833 125.834C47.0833 130.666 51.0008 134.584 55.8333 134.584Z" fill="#1B9DE2"/>
<rect x="7.5" y="7.5" width="155" height="155" rx="12.5" stroke="#D5EAF6" stroke-width="15"/>
</g>
<defs>
<linearGradient id="paint0_linear_1_1200" x1="85" y1="15" x2="85" y2="155" gradientUnits="userSpaceOnUse">
<stop stop-color="#199AE0"/>
<stop offset="0.472222" stop-color="#0D5176" stop-opacity="0.527778"/>
<stop offset="0.940972" stop-color="#12A6F7" stop-opacity="0.465278"/>
<stop offset="1" stop-opacity="0"/>
</linearGradient>
</defs>
</svg>
