<svg width="170" height="170" viewBox="0 0 170 170" fill="none" xmlns="http://www.w3.org/2000/svg">
<g id="numbered-list">
<rect x="7.5" y="7.5" width="155" height="155" rx="12.5" fill="white"/>
<rect x="7.5" y="7.5" width="155" height="155" rx="12.5" fill="url(#paint0_linear_1_1193)" fill-opacity="0.2"/>
<path id="Vector" d="M140.417 58.75H58.75C55.5417 58.75 52.9167 56.125 52.9167 52.9167V47.0833C52.9167 43.875 55.5417 41.25 58.75 41.25H140.417C143.625 41.25 146.25 43.875 146.25 47.0833V52.9167C146.25 56.125 143.625 58.75 140.417 58.75Z" fill="#727D86"/>
<path id="Vector_2" d="M140.417 93.75H58.75C55.5417 93.75 52.9167 91.125 52.9167 87.9167V82.0833C52.9167 78.875 55.5417 76.25 58.75 76.25H140.417C143.625 76.25 146.25 78.875 146.25 82.0833V87.9167C146.25 91.125 143.625 93.75 140.417 93.75Z" fill="#727D86"/>
<path id="Vector_3" d="M140.417 128.75H58.75C55.5417 128.75 52.9167 126.125 52.9167 122.917V117.083C52.9167 113.875 55.5417 111.25 58.75 111.25H140.417C143.625 111.25 146.25 113.875 146.25 117.083V122.917C146.25 126.125 143.625 128.75 140.417 128.75Z" fill="#727D86"/>
<path id="Vector_4" d="M28.7113 61.6673V45.2407C27.9763 45.6752 27.215 46.0077 26.4275 46.2352C25.64 46.4657 24.7475 46.6319 23.75 46.7369V41.6444C25.1675 41.4023 26.4887 41.0144 27.7108 40.4923C28.9329 39.9644 30.1842 39.2469 31.4646 38.334H35.4167V61.6673H28.7113Z" fill="#C866E7"/>
<path id="Vector_5" d="M23.75 96.6673V94.8269C23.75 93.5261 23.9104 92.3944 24.2342 91.4348C24.5579 90.4752 25.0683 89.574 25.7625 88.7311C26.4596 87.8881 27.6671 86.8061 29.3937 85.4819C30.6217 84.5223 31.4383 83.8311 31.8408 83.4111C32.2463 82.9882 32.5467 82.5827 32.745 82.1861C32.9433 81.7923 33.0425 81.3636 33.0425 80.9057C33.0425 79.3802 32.1179 78.6161 30.26 78.6161C28.3729 78.6161 26.5908 79.2927 24.9079 80.649V75.0636C26.1913 74.4248 27.39 73.9757 28.5042 73.719C29.63 73.4623 30.7733 73.334 31.9487 73.334C34.4717 73.334 36.4258 73.9319 37.8054 75.1277C39.185 76.3236 39.8762 77.9977 39.8762 80.1531C39.8762 81.8069 39.5117 83.2098 38.7912 84.3619C38.0708 85.514 36.7262 86.7157 34.7662 87.964C33.2671 88.9236 32.2696 89.6265 31.7796 90.0698C31.2896 90.5132 31.0387 90.8894 31.0271 91.1986H40.0833V96.6673H23.75Z" fill="#C866E7"/>
<path id="Vector_6" d="M40.0833 124.822C40.0833 126.992 39.2317 128.678 37.5312 129.874C35.8308 131.069 33.3983 131.667 30.2308 131.667C29.0525 131.667 27.8858 131.574 26.7279 131.393C25.5729 131.209 24.5783 130.964 23.75 130.661V125.405C24.5083 125.825 25.3775 126.155 26.3517 126.397C27.3287 126.639 28.3146 126.759 29.315 126.759C30.4729 126.759 31.3596 126.566 31.9779 126.184C32.5962 125.802 32.9054 125.254 32.9054 124.539C32.9054 123.816 32.5262 123.25 31.7679 122.839C31.0067 122.43 29.945 122.226 28.5858 122.226H26.235V117.285H28.3117C29.6825 117.285 30.6975 117.087 31.3479 116.696C31.9983 116.302 32.3279 115.792 32.3279 115.162C32.3279 114.564 32.0829 114.091 31.5871 113.744C31.0942 113.397 30.3387 113.225 29.3179 113.225C27.74 113.225 26.165 113.645 24.5842 114.485V109.466C26.5558 108.71 28.6354 108.334 30.8112 108.334C33.5092 108.334 35.6237 108.841 37.155 109.859C38.6862 110.877 39.4533 112.286 39.4533 114.091C39.4533 115.497 39.0392 116.676 38.2167 117.632C37.3942 118.586 36.2392 119.21 34.7575 119.505V119.584C36.4025 119.794 37.7004 120.374 38.6512 121.322C39.6079 122.273 40.0833 123.439 40.0833 124.822Z" fill="#C866E7"/>
<rect x="7.5" y="7.5" width="155" height="155" rx="12.5" stroke="#D5EAF6" stroke-width="15"/>
</g>
<defs>
<linearGradient id="paint0_linear_1_1193" x1="85" y1="15" x2="85" y2="155" gradientUnits="userSpaceOnUse">
<stop stop-color="#199AE0"/>
<stop offset="0.472222" stop-color="#0D5176" stop-opacity="0.527778"/>
<stop offset="0.940972" stop-color="#12A6F7" stop-opacity="0.465278"/>
<stop offset="1" stop-opacity="0"/>
</linearGradient>
</defs>
</svg>
