<svg width="170" height="170" viewBox="0 0 170 170" fill="none" xmlns="http://www.w3.org/2000/svg">
<g id="numbers-input-form">
<rect x="7.5" y="7.5" width="155" height="155" rx="12.5" fill="white"/>
<rect x="7.5" y="7.5" width="155" height="155" rx="12.5" fill="url(#paint0_linear_1_1210)" fill-opacity="0.2"/>
<path id="Vector" d="M17.9167 59.3327V110.666C17.9167 114.21 20.9179 117.083 24.625 117.083H145.375C149.082 117.083 152.083 114.21 152.083 110.666V59.3327C152.083 55.7889 149.082 52.916 145.375 52.916H24.625C20.9179 52.916 17.9167 55.7889 17.9167 59.3327Z" fill="#50E6FF"/>
<path id="Vector_2" d="M41.4425 77.2598V102.314H36.0613V83.3439C35.7638 83.6064 35.4138 83.8543 35.0113 84.0877C34.6088 84.321 34.1771 84.531 33.7221 84.7206C33.2671 84.9102 32.7917 85.0677 32.3017 85.1989C31.8117 85.3302 31.3275 85.4235 30.8492 85.4818V80.9348C32.2492 80.5235 33.5733 80.0014 34.8129 79.3627C36.0525 78.7239 37.1783 78.0239 38.1788 77.2598H41.4425Z" fill="#184F85"/>
<path id="Vector_3" d="M54.375 102.5C56.7912 102.5 58.75 100.541 58.75 98.125C58.75 95.7088 56.7912 93.75 54.375 93.75C51.9588 93.75 50 95.7088 50 98.125C50 100.541 51.9588 102.5 54.375 102.5Z" fill="#184F85"/>
<path id="Vector_4" d="M68.9583 102.5C71.3746 102.5 73.3333 100.541 73.3333 98.125C73.3333 95.7088 71.3746 93.75 68.9583 93.75C66.5421 93.75 64.5833 95.7088 64.5833 98.125C64.5833 100.541 66.5421 102.5 68.9583 102.5Z" fill="#184F85"/>
<rect x="7.5" y="7.5" width="155" height="155" rx="12.5" stroke="#D5EAF6" stroke-width="15"/>
</g>
<defs>
<linearGradient id="paint0_linear_1_1210" x1="85" y1="15" x2="85" y2="155" gradientUnits="userSpaceOnUse">
<stop stop-color="#199AE0"/>
<stop offset="0.472222" stop-color="#0D5176" stop-opacity="0.527778"/>
<stop offset="0.940972" stop-color="#12A6F7" stop-opacity="0.465278"/>
<stop offset="1" stop-opacity="0"/>
</linearGradient>
</defs>
</svg>
