<svg width="170" height="170" viewBox="0 0 170 170" fill="none" xmlns="http://www.w3.org/2000/svg">
<g id="ok">
<rect x="7.5" y="7.5" width="155" height="155" rx="12.5" fill="white"/>
<rect x="7.5" y="7.5" width="155" height="155" rx="12.5" fill="url(#paint0_linear_1_1215)" fill-opacity="0.2"/>
<path id="Vector" d="M53.8529 117.083C44.9687 117.083 37.7267 114.189 32.1325 108.406C26.5383 102.622 23.7383 95.0881 23.7383 85.7985C23.7383 75.9927 26.5792 68.0593 32.2608 62.0014C37.9454 55.9435 45.4762 52.916 54.8504 52.916C63.7025 52.916 70.8629 55.8181 76.3287 61.6135C81.7946 67.4119 84.5275 75.0535 84.5275 84.5444C84.5275 94.2919 81.6954 102.152 76.0283 108.123C70.3583 114.096 62.9704 117.083 53.8529 117.083ZM54.4596 64.9444C49.5567 64.9444 45.6629 66.7848 42.7783 70.4598C39.8937 74.1406 38.4529 79.0085 38.4529 85.0664C38.4529 91.2089 39.8937 96.071 42.7783 99.6469C45.6629 103.226 49.44 105.011 54.1154 105.011C58.9308 105.011 62.7546 103.272 65.5837 99.7956C68.41 96.3219 69.8187 91.4948 69.8187 85.326C69.8187 78.8919 68.4479 73.8898 65.7092 70.311C62.9704 66.7352 59.2196 64.9444 54.4596 64.9444Z" fill="url(#paint1_linear_1_1215)"/>
<path id="Vector_2" d="M140.396 115.997H130.383C129.363 115.997 128.406 115.487 127.837 114.638L108.8 88.6887V112.929C108.8 114.624 107.426 115.994 105.735 115.994H97.8946C96.2 115.994 94.8292 114.621 94.8292 112.929V57.0166C94.8292 55.322 96.2029 53.9512 97.8946 53.9512H105.735C107.429 53.9512 108.8 55.3249 108.8 57.0166V80.2187L126.974 55.3249C127.543 54.4674 128.502 53.9512 129.532 53.9512H138.503C141.012 53.9512 142.461 56.8008 140.98 58.8278L122.911 83.5466L142.881 111.132C144.348 113.162 142.902 115.997 140.396 115.997Z" fill="url(#paint2_linear_1_1215)"/>
<rect x="7.5" y="7.5" width="155" height="155" rx="12.5" stroke="#D5EAF6" stroke-width="15"/>
</g>
<defs>
<linearGradient id="paint0_linear_1_1215" x1="85" y1="15" x2="85" y2="155" gradientUnits="userSpaceOnUse">
<stop stop-color="#199AE0"/>
<stop offset="0.472222" stop-color="#0D5176" stop-opacity="0.527778"/>
<stop offset="0.940972" stop-color="#12A6F7" stop-opacity="0.465278"/>
<stop offset="1" stop-opacity="0"/>
</linearGradient>
<linearGradient id="paint1_linear_1_1215" x1="2.91333" y1="38.2423" x2="95.3017" y2="122.409" gradientUnits="userSpaceOnUse">
<stop stop-color="#BD4FF4"/>
<stop offset="0.587" stop-color="#A235EC"/>
<stop offset="1" stop-color="#8C20E5"/>
</linearGradient>
<linearGradient id="paint2_linear_1_1215" x1="36.2858" y1="10.347" x2="123.237" y2="89.5637" gradientUnits="userSpaceOnUse">
<stop stop-color="#BD4FF4"/>
<stop offset="0.587" stop-color="#A235EC"/>
<stop offset="1" stop-color="#8C20E5"/>
</linearGradient>
</defs>
</svg>
