<svg width="170" height="170" viewBox="0 0 170 170" fill="none" xmlns="http://www.w3.org/2000/svg">
<g id="one-time-password">
<rect x="7.5" y="7.5" width="155" height="155" rx="12.5" fill="white"/>
<rect x="7.5" y="7.5" width="155" height="155" rx="12.5" fill="url(#paint0_linear_1_1230)" fill-opacity="0.2"/>
<path id="Vector" d="M120 41.25H50V140.417C50 143.64 52.6104 146.25 55.8333 146.25H114.167C117.39 146.25 120 143.64 120 140.417V41.25Z" fill="url(#paint1_linear_1_1230)"/>
<path id="Vector_2" d="M120 41.2493H50V32.4993C50 29.2764 52.6104 26.666 55.8333 26.666H114.167C117.39 26.666 120 29.2764 120 32.4993V41.2493Z" fill="#50E6FF"/>
<path id="Vector_3" d="M73.3333 36.1465C74.5415 36.1465 75.5208 35.1671 75.5208 33.959C75.5208 32.7509 74.5415 31.7715 73.3333 31.7715C72.1252 31.7715 71.1458 32.7509 71.1458 33.959C71.1458 35.1671 72.1252 36.1465 73.3333 36.1465Z" fill="#0C63AD"/>
<path id="Vector_4" d="M95.2083 31.7715C94.6425 31.7715 81.1908 31.7715 80.625 31.7715C79.4175 31.7715 78.4375 32.7515 78.4375 33.959C78.4375 35.1665 79.4175 36.1465 80.625 36.1465C81.1908 36.1465 94.6425 36.1465 95.2083 36.1465C96.4158 36.1465 97.3958 35.1665 97.3958 33.959C97.3958 32.7515 96.4158 31.7715 95.2083 31.7715Z" fill="#0C63AD"/>
<path id="Vector_5" opacity="0.05" d="M93.75 73.334V93.7507C93.75 98.5632 89.8125 102.501 85 102.501H50V64.584H85C89.8125 64.584 93.75 68.5215 93.75 73.334Z" fill="black"/>
<path id="Vector_6" opacity="0.07" d="M92.2917 73.3327V93.7493C92.2917 97.7743 89.025 101.041 85 101.041H50V66.041H85C89.025 66.041 92.2917 69.3077 92.2917 73.3327Z" fill="black"/>
<path id="Vector_7" d="M85 99.5833H23.75C20.5329 99.5833 17.9167 96.9671 17.9167 93.75V73.3333C17.9167 70.1163 20.5329 67.5 23.75 67.5H85C88.2171 67.5 90.8333 70.1163 90.8333 73.3333V93.75C90.8333 96.9671 88.2171 99.5833 85 99.5833Z" fill="url(#paint2_linear_1_1230)"/>
<path id="Vector_8" d="M85 73.334H23.75V93.7507H85V73.334Z" fill="url(#paint3_linear_1_1230)"/>
<path id="Vector_9" d="M36.875 87.916C39.2912 87.916 41.25 85.9573 41.25 83.541C41.25 81.1248 39.2912 79.166 36.875 79.166C34.4588 79.166 32.5 81.1248 32.5 83.541C32.5 85.9573 34.4588 87.916 36.875 87.916Z" fill="#0B5AA4"/>
<path id="Vector_10" d="M54.375 87.916C56.7912 87.916 58.75 85.9573 58.75 83.541C58.75 81.1248 56.7912 79.166 54.375 79.166C51.9588 79.166 50 81.1248 50 83.541C50 85.9573 51.9588 87.916 54.375 87.916Z" fill="#0B5AA4"/>
<path id="Vector_11" d="M71.875 87.916C74.2912 87.916 76.25 85.9573 76.25 83.541C76.25 81.1248 74.2912 79.166 71.875 79.166C69.4588 79.166 67.5 81.1248 67.5 83.541C67.5 85.9573 69.4588 87.916 71.875 87.916Z" fill="#0B5AA4"/>
<rect x="7.5" y="7.5" width="155" height="155" rx="12.5" stroke="#D5EAF6" stroke-width="15"/>
</g>
<defs>
<linearGradient id="paint0_linear_1_1230" x1="85" y1="15" x2="85" y2="155" gradientUnits="userSpaceOnUse">
<stop stop-color="#199AE0"/>
<stop offset="0.472222" stop-color="#0D5176" stop-opacity="0.527778"/>
<stop offset="0.940972" stop-color="#12A6F7" stop-opacity="0.465278"/>
<stop offset="1" stop-opacity="0"/>
</linearGradient>
<linearGradient id="paint1_linear_1_1230" x1="57.6883" y1="40.1971" x2="130.165" y2="176.505" gradientUnits="userSpaceOnUse">
<stop stop-color="#32BDEF"/>
<stop offset="1" stop-color="#1EA2E4"/>
</linearGradient>
<linearGradient id="paint2_linear_1_1230" x1="44.3912" y1="64.7642" x2="68.9642" y2="110.979" gradientUnits="userSpaceOnUse">
<stop stop-color="#0077D2"/>
<stop offset="1" stop-color="#0B59A2"/>
</linearGradient>
<linearGradient id="paint3_linear_1_1230" x1="49.0929" y1="72.7127" x2="68.9088" y2="113.339" gradientUnits="userSpaceOnUse">
<stop stop-color="#FCFCFC"/>
<stop offset="0.495" stop-color="#F4F4F4"/>
<stop offset="0.869" stop-color="#E8E8E8"/>
<stop offset="1" stop-color="#E8E8E8"/>
</linearGradient>
</defs>
</svg>
