<svg width="170" height="170" viewBox="0 0 170 170" fill="none" xmlns="http://www.w3.org/2000/svg">
<g id="online-payment-with-a-credit-card">
<rect x="7.5" y="7.5" width="155" height="155" rx="12.5" fill="white"/>
<rect x="7.5" y="7.5" width="155" height="155" rx="12.5" fill="url(#paint0_linear_1_1251)" fill-opacity="0.2"/>
<path id="Vector" d="M134.583 117.083H35.4167C32.1937 117.083 29.5833 114.472 29.5833 111.249V41.2493C29.5833 38.0264 32.1937 35.416 35.4167 35.416H134.583C137.806 35.416 140.417 38.0264 140.417 41.2493V111.249C140.417 114.472 137.806 117.083 134.583 117.083Z" fill="url(#paint1_linear_1_1251)"/>
<path id="Vector_2" d="M134.583 41.25H35.4167V111.25H134.583V41.25Z" fill="url(#paint2_linear_1_1251)"/>
<path id="Vector_3" d="M96.6667 117.084H73.3333V128.751H96.6667V117.084Z" fill="url(#paint3_linear_1_1251)"/>
<path id="Vector_4" d="M111.25 125.834H58.75C57.14 125.834 55.8333 127.141 55.8333 128.751V134.584C55.8333 136.194 57.14 137.501 58.75 137.501H111.25C112.86 137.501 114.167 136.194 114.167 134.584V128.751C114.167 127.141 112.86 125.834 111.25 125.834Z" fill="url(#paint4_linear_1_1251)"/>
<path id="Vector_5" d="M117.083 76.25H52.9167C51.3067 76.25 50 77.5567 50 79.1667C50 80.7767 51.3067 82.0833 52.9167 82.0833H117.083C118.693 82.0833 120 80.7767 120 79.1667C120 77.5567 118.693 76.25 117.083 76.25Z" fill="#121212"/>
<path id="Vector_6" d="M61.6667 27.9442V76.25H108.333V27.9442C108.333 25.6283 106.455 23.75 104.139 23.75H65.8608C63.545 23.75 61.6667 25.6283 61.6667 27.9442Z" fill="#35C1F1"/>
<path id="Vector_7" d="M108.333 76.25H61.6667V82.0833H108.333V76.25Z" fill="#199BE2"/>
<path id="Vector_8" d="M73.3333 76.25V23.75H67.5V76.25H73.3333Z" fill="url(#paint5_linear_1_1251)"/>
<path id="Vector_9" d="M85 31.0423V76.2507H79.1667V31.0423C79.1667 30.2373 79.82 29.584 80.625 29.584H83.5417C84.3467 29.584 85 30.2373 85 31.0423Z" fill="#A8E7FF"/>
<path id="Vector_10" d="M73.3333 76.25H67.5V82.0833H73.3333V76.25Z" fill="#2D3033"/>
<path id="Vector_11" d="M85 76.25H79.1667V82.0833H85V76.25Z" fill="#76CCED"/>
<rect x="7.5" y="7.5" width="155" height="155" rx="12.5" stroke="#D5EAF6" stroke-width="15"/>
</g>
<defs>
<linearGradient id="paint0_linear_1_1251" x1="85" y1="15" x2="85" y2="155" gradientUnits="userSpaceOnUse">
<stop stop-color="#199AE0"/>
<stop offset="0.472222" stop-color="#0D5176" stop-opacity="0.527778"/>
<stop offset="0.940972" stop-color="#12A6F7" stop-opacity="0.465278"/>
<stop offset="1" stop-opacity="0"/>
</linearGradient>
<linearGradient id="paint1_linear_1_1251" x1="40.2671" y1="38.5048" x2="126.189" y2="111.001" gradientUnits="userSpaceOnUse">
<stop stop-color="#A1AAB3"/>
<stop offset="1" stop-color="#8F979E"/>
</linearGradient>
<linearGradient id="paint2_linear_1_1251" x1="79.4438" y1="41.5475" x2="90.5533" y2="110.935" gradientUnits="userSpaceOnUse">
<stop stop-color="#0D61A9"/>
<stop offset="1" stop-color="#16528C"/>
</linearGradient>
<linearGradient id="paint3_linear_1_1251" x1="85" y1="117.061" x2="85" y2="128.774" gradientUnits="userSpaceOnUse">
<stop stop-color="#484B4F"/>
<stop offset="0.23" stop-color="#656D75"/>
<stop offset="0.367" stop-color="#727D86"/>
</linearGradient>
<linearGradient id="paint4_linear_1_1251" x1="85" y1="125.811" x2="85" y2="137.524" gradientUnits="userSpaceOnUse">
<stop stop-color="#A1AAB3"/>
<stop offset="1" stop-color="#8F979E"/>
</linearGradient>
<linearGradient id="paint5_linear_1_1251" x1="70.4167" y1="76.25" x2="70.4167" y2="23.75" gradientUnits="userSpaceOnUse">
<stop stop-color="#45494D"/>
<stop offset="1" stop-color="#6D7479"/>
</linearGradient>
</defs>
</svg>
