<svg width="170" height="170" viewBox="0 0 170 170" fill="none" xmlns="http://www.w3.org/2000/svg">
<g id="opened-folder">
<rect x="7.5" y="7.5" width="155" height="155" rx="12.5" fill="white"/>
<rect x="7.5" y="7.5" width="155" height="155" rx="12.5" fill="url(#paint0_linear_1_1274)" fill-opacity="0.2"/>
<path id="Vector" d="M86.2075 45.3735L78.8108 37.9768C77.1717 36.3377 74.9463 35.416 72.6246 35.416H29.5833C26.3604 35.416 23.75 38.0264 23.75 41.2493V128.749C23.75 131.972 26.3604 134.583 29.5833 134.583H140.417C143.64 134.583 146.25 131.972 146.25 128.749V52.916C146.25 49.6931 143.64 47.0827 140.417 47.0827H90.3317C88.7858 47.0827 87.3013 46.4673 86.2075 45.3735Z" fill="url(#paint1_linear_1_1274)"/>
<path id="Vector_2" d="M85 82.0827L96.2408 70.8418C96.5121 70.5706 96.8825 70.416 97.2704 70.416H145.696C149.126 70.416 151.815 73.3618 151.506 76.7773L146.734 129.277C146.46 132.281 143.94 134.583 140.924 134.583H28.9708C25.9987 134.583 23.5021 132.349 23.1725 129.394L18.0975 83.7014C18.0012 82.8381 18.6779 82.0827 19.5471 82.0827H85Z" fill="url(#paint2_linear_1_1274)"/>
<rect x="7.5" y="7.5" width="155" height="155" rx="12.5" stroke="#D5EAF6" stroke-width="15"/>
</g>
<defs>
<linearGradient id="paint0_linear_1_1274" x1="85" y1="15" x2="85" y2="155" gradientUnits="userSpaceOnUse">
<stop stop-color="#199AE0"/>
<stop offset="0.472222" stop-color="#0D5176" stop-opacity="0.527778"/>
<stop offset="0.940972" stop-color="#12A6F7" stop-opacity="0.465278"/>
<stop offset="1" stop-opacity="0"/>
</linearGradient>
<linearGradient id="paint1_linear_1_1274" x1="85" y1="35.2848" x2="85" y2="82.5698" gradientUnits="userSpaceOnUse">
<stop stop-color="#EBA600"/>
<stop offset="1" stop-color="#C28200"/>
</linearGradient>
<linearGradient id="paint2_linear_1_1274" x1="84.8075" y1="71.081" x2="84.8075" y2="113.644" gradientUnits="userSpaceOnUse">
<stop stop-color="#FFD869"/>
<stop offset="1" stop-color="#FEC52B"/>
</linearGradient>
</defs>
</svg>
