<svg width="170" height="170" viewBox="0 0 170 170" fill="none" xmlns="http://www.w3.org/2000/svg">
<g id="paypal">
<rect x="7.5" y="7.5" width="155" height="155" rx="12.5" fill="white"/>
<rect x="7.5" y="7.5" width="155" height="155" rx="12.5" fill="url(#paint0_linear_1_1280)" fill-opacity="0.2"/>
<path id="Vector" d="M69.5417 55.1538L69.5562 55.1596C69.8596 53.8675 70.9621 52.9167 72.3417 52.9167H111.635C111.685 52.9167 111.734 52.8963 111.784 52.8992C110.947 38.9604 99.2537 32.5 88.9375 32.5H49.6442C48.2617 32.5 47.1592 33.4771 46.8587 34.7662L46.8442 34.7604L29.6679 113.621L29.7058 113.624C29.665 113.811 29.5921 113.989 29.5921 114.19C29.5921 115.803 30.8958 117.08 32.5087 117.08H56.0492L69.5417 55.1538Z" fill="#0D62AB"/>
<path id="Vector_2" d="M111.784 52.8984C111.938 55.4534 111.769 58.233 111.116 61.3043C107.38 78.7897 93.8725 87.8897 77.1804 87.8897C77.1804 87.8897 67.0596 87.8897 64.6008 87.8897C63.0812 87.8897 62.3637 88.7822 62.0342 89.4647L56.9592 112.941L56.0696 117.109H56.0521L52.3683 134.014L52.4062 134.017C52.3654 134.203 52.2925 134.381 52.2925 134.583C52.2925 136.196 53.5962 137.499 55.2092 137.499H76.5971L76.635 137.47C78.0117 137.45 79.1054 136.467 79.3912 135.172L79.4437 135.128L84.7287 110.581C84.7287 110.581 85.0962 108.239 87.5579 108.239C90.0196 108.239 99.7437 108.239 99.7437 108.239C116.436 108.239 130.08 99.1801 133.819 81.6918C138.025 61.9751 123.961 52.9714 111.784 52.8984Z" fill="#199BE2"/>
<path id="Vector_3" d="M72.3417 52.916C70.9592 52.916 69.8567 53.8669 69.5562 55.1589L69.5417 55.1531L62.0312 89.4677C62.3608 88.7852 63.0783 87.8927 64.5979 87.8927C67.0596 87.8927 76.95 87.8927 76.95 87.8927C93.6421 87.8927 107.377 78.7927 111.113 61.3073C111.769 58.236 111.935 55.4564 111.781 52.9014C111.734 52.8956 111.682 52.916 111.635 52.916H72.3417Z" fill="#006FC4"/>
<rect x="7.5" y="7.5" width="155" height="155" rx="12.5" stroke="#D5EAF6" stroke-width="15"/>
</g>
<defs>
<linearGradient id="paint0_linear_1_1280" x1="85" y1="15" x2="85" y2="155" gradientUnits="userSpaceOnUse">
<stop stop-color="#199AE0"/>
<stop offset="0.472222" stop-color="#0D5176" stop-opacity="0.527778"/>
<stop offset="0.940972" stop-color="#12A6F7" stop-opacity="0.465278"/>
<stop offset="1" stop-opacity="0"/>
</linearGradient>
</defs>
</svg>
