<svg width="170" height="170" viewBox="0 0 170 170" fill="none" xmlns="http://www.w3.org/2000/svg">
<g id="pdf">
<rect x="7.5" y="7.5" width="155" height="155" rx="12.5" fill="white"/>
<rect x="7.5" y="7.5" width="155" height="155" rx="12.5" fill="url(#paint0_linear_1_1284)" fill-opacity="0.2"/>
<path id="Vector" d="M128.75 61.6673V134.584C128.75 137.807 126.14 140.417 122.917 140.417H47.0833C43.8604 140.417 41.25 137.807 41.25 134.584V35.4173C41.25 32.1944 43.8604 29.584 47.0833 29.584H96.6667L128.75 61.6673Z" fill="#FFADC8"/>
<path id="Vector_2" d="M96.6667 29.584V55.834C96.6667 59.0569 99.2771 61.6673 102.5 61.6673H128.75L96.6667 29.584Z" fill="#E72636"/>
<path id="Vector_3" d="M63.8192 93.7215V101.104H58.9921V79.6719H66.5521C71.9537 79.6719 74.6517 81.9498 74.6517 86.5027C74.6517 88.6552 73.8787 90.3965 72.3271 91.7265C70.7783 93.0565 68.7075 93.7215 66.1175 93.7215H63.8192ZM63.8192 83.3819V90.061H65.7179C68.2904 90.061 69.5737 88.9352 69.5737 86.6806C69.5737 84.4815 68.2904 83.379 65.7179 83.379H63.8192V83.3819Z" fill="#E72636"/>
<path id="Vector_4" d="M77.79 101.104V79.6719H85.3821C92.9946 79.6719 96.7979 83.1544 96.7979 90.1165C96.7979 93.456 95.7596 96.119 93.6829 98.111C91.6062 100.106 88.8383 101.101 85.3821 101.101H77.79V101.104ZM82.6171 83.6035V97.1865H85.0088C87.1 97.1865 88.7392 96.5594 89.9321 95.3052C91.1221 94.051 91.7171 92.3419 91.7171 90.1777C91.7171 88.136 91.1279 86.529 89.9496 85.3594C88.7683 84.1869 87.1117 83.6035 84.9796 83.6035H82.6171Z" fill="#E72636"/>
<path id="Vector_5" d="M112.749 83.6035H105.186V88.8623H112.137V92.7794H105.186V101.104H100.359V79.6719H112.749V83.6035Z" fill="#E72636"/>
<rect x="7.5" y="7.5" width="155" height="155" rx="12.5" stroke="#D5EAF6" stroke-width="15"/>
</g>
<defs>
<linearGradient id="paint0_linear_1_1284" x1="85" y1="15" x2="85" y2="155" gradientUnits="userSpaceOnUse">
<stop stop-color="#199AE0"/>
<stop offset="0.472222" stop-color="#0D5176" stop-opacity="0.527778"/>
<stop offset="0.940972" stop-color="#12A6F7" stop-opacity="0.465278"/>
<stop offset="1" stop-opacity="0"/>
</linearGradient>
</defs>
</svg>
