<svg width="170" height="170" viewBox="0 0 170 170" fill="none" xmlns="http://www.w3.org/2000/svg">
<g id="person">
<rect x="7.5" y="7.5" width="155" height="155" rx="12.5" fill="white"/>
<rect x="7.5" y="7.5" width="155" height="155" rx="12.5" fill="url(#paint0_linear_1_1309)" fill-opacity="0.2"/>
<path id="Vector" d="M85 104.166C59.2254 104.166 38.3333 118.519 38.3333 134.167V137.501C38.3333 140.724 40.9437 143.334 44.1667 143.334H125.833C129.056 143.334 131.667 140.724 131.667 137.501V134.167C131.667 118.519 110.775 104.166 85 104.166Z" fill="url(#paint1_linear_1_1309)"/>
<path id="Vector_2" d="M99.5833 108.333C99.5833 113.866 93.75 120 85 120C76.25 120 70.4167 113.866 70.4167 108.333C70.4167 100.642 70.4167 87.8145 70.4167 87.8145H99.5833C99.5833 87.8145 99.5833 100.642 99.5833 108.333Z" fill="#D6A121"/>
<path id="Vector_3" d="M111.005 67.5H109.468V79.1667H111.518C113.02 79.1667 114.301 78.2567 114.555 77.0083L115.558 72.0412C116.039 69.6671 113.866 67.5 111.005 67.5Z" fill="url(#paint2_linear_1_1309)"/>
<path id="Vector_4" d="M58.995 67.5H60.5321V79.1667H58.4817C56.9796 79.1667 55.6992 78.2567 55.4454 77.0083L54.4421 72.0412C53.9608 69.6671 56.1337 67.5 58.995 67.5Z" fill="url(#paint3_linear_1_1309)"/>
<path id="Vector_5" d="M85 33.666C72.0471 33.666 58.75 35.6348 58.75 63.6348C58.75 65.8748 58.75 80.776 58.75 83.1706C58.75 93.166 74.5 105.416 85 105.416C95.5 105.416 111.25 93.166 111.25 83.1706C111.25 80.776 111.25 65.8777 111.25 63.6348C111.25 35.6348 97.9529 33.666 85 33.666Z" fill="url(#paint4_radial_1_1309)"/>
<path id="Vector_6" d="M85 31.1738C72.3008 31.1738 70.4167 35.9455 70.4167 35.9455C65.2542 36.7067 55.8333 44.2697 55.8333 52.9147C55.8333 57.7388 56.6062 61.303 58.75 73.3313C60.3396 54.2417 65.3096 47.0813 70.4167 47.0813C74.1121 47.0813 77.0462 49.998 85 49.998C91.7171 49.998 93.3854 47.0813 99.5833 47.0813C108.333 47.0813 111.25 70.3213 111.25 73.3313C113.003 64.5522 114.167 57.1292 114.167 52.9147C114.167 42.9134 103.11 31.1738 85 31.1738Z" fill="url(#paint5_radial_1_1309)"/>
<path id="Vector_7" d="M85.6387 29.584C73.4937 29.584 70.4254 35.9482 70.4254 35.9482C70.3029 39.3286 71.9479 42.3123 71.9479 42.3123C71.9479 42.3123 74.1646 47.084 86.8229 47.084C94.4646 47.084 105.417 42.3152 105.417 29.584C105.417 29.584 102.958 29.584 85.6387 29.584Z" fill="url(#paint6_radial_1_1309)"/>
<rect x="7.5" y="7.5" width="155" height="155" rx="12.5" stroke="#D5EAF6" stroke-width="15"/>
</g>
<defs>
<linearGradient id="paint0_linear_1_1309" x1="85" y1="15" x2="85" y2="155" gradientUnits="userSpaceOnUse">
<stop stop-color="#199AE0"/>
<stop offset="0.472222" stop-color="#0D5176" stop-opacity="0.527778"/>
<stop offset="0.940972" stop-color="#12A6F7" stop-opacity="0.465278"/>
<stop offset="1" stop-opacity="0"/>
</linearGradient>
<linearGradient id="paint1_linear_1_1309" x1="75.5675" y1="102.524" x2="88.0625" y2="145.51" gradientUnits="userSpaceOnUse">
<stop stop-color="#0176D0"/>
<stop offset="1" stop-color="#0A85D9"/>
</linearGradient>
<linearGradient id="paint2_linear_1_1309" x1="111.008" y1="73.3333" x2="114.899" y2="73.3333" gradientUnits="userSpaceOnUse">
<stop stop-color="#C48F0C"/>
<stop offset="0.251" stop-color="#D19B16"/>
<stop offset="0.619" stop-color="#DCA51F"/>
<stop offset="1" stop-color="#E0A922"/>
</linearGradient>
<linearGradient id="paint3_linear_1_1309" x1="58.9921" y1="73.3333" x2="55.1012" y2="73.3333" gradientUnits="userSpaceOnUse">
<stop stop-color="#C48F0C"/>
<stop offset="0.251" stop-color="#D19B16"/>
<stop offset="0.619" stop-color="#DCA51F"/>
<stop offset="1" stop-color="#E0A922"/>
</linearGradient>
<radialGradient id="paint4_radial_1_1309" cx="0" cy="0" r="1" gradientUnits="userSpaceOnUse" gradientTransform="translate(84.9953 69.5405) scale(31.432 31.432)">
<stop stop-color="#FFCF54"/>
<stop offset="0.261" stop-color="#FDCB4D"/>
<stop offset="0.639" stop-color="#F7C13A"/>
<stop offset="1" stop-color="#F0B421"/>
</radialGradient>
<radialGradient id="paint5_radial_1_1309" cx="0" cy="0" r="1" gradientUnits="userSpaceOnUse" gradientTransform="translate(60.0457 34.4356) scale(74.3501)">
<stop stop-color="#C26715"/>
<stop offset="0.508" stop-color="#B85515"/>
<stop offset="1" stop-color="#AD3F16"/>
</radialGradient>
<radialGradient id="paint6_radial_1_1309" cx="0" cy="0" r="1" gradientUnits="userSpaceOnUse" gradientTransform="translate(80.8148 39.4134) scale(82.1271 85.8774)">
<stop stop-color="#C26715"/>
<stop offset="0.508" stop-color="#B85515"/>
<stop offset="1" stop-color="#AD3F16"/>
</radialGradient>
</defs>
</svg>
