<svg width="170" height="170" viewBox="0 0 170 170" fill="none" xmlns="http://www.w3.org/2000/svg">
<g id="pin">
<rect x="7.5" y="7.5" width="155" height="155" rx="12.5" fill="white"/>
<rect x="7.5" y="7.5" width="155" height="155" rx="12.5" fill="url(#paint0_linear_1_1329)" fill-opacity="0.2"/>
<path id="Vector" d="M41.5417 136.041L31.9167 138.083L33.9583 128.458C33.9583 127.874 34.25 127.291 34.8333 126.999L68.6667 93.166L76.8333 101.333L43 135.166C42.7083 135.458 42.125 135.749 41.5417 136.041Z" fill="#50E6FF"/>
<path id="Vector_2" d="M100.167 98.709L71.2917 69.834L115.042 35.709L134.292 54.959L100.167 98.709Z" fill="#C94F60"/>
<path id="Vector_3" d="M68.5992 93.0849L64.2682 97.416L72.5179 105.665L76.8489 101.334L68.5992 93.0849Z" fill="#35C1F1"/>
<path id="Vector_4" d="M97.5417 122.042L47.9583 72.459L54.0833 66.334C60.7917 59.6257 71.875 59.6257 78.875 66.334L103.667 91.1257C110.375 97.834 110.375 108.917 103.667 115.917L97.5417 122.042Z" fill="#BF2336"/>
<path id="Vector_5" d="M125.542 63.7077L106.292 44.4577C103.958 42.1244 103.958 38.041 106.292 35.7077L108.333 33.666C110.667 31.3327 114.75 31.3327 117.083 33.666L136.333 52.916C138.667 55.2494 138.667 59.3327 136.333 61.666L134.292 63.7077C131.958 66.041 127.875 66.041 125.542 63.7077Z" fill="#BF2336"/>
<rect x="7.5" y="7.5" width="155" height="155" rx="12.5" stroke="#D5EAF6" stroke-width="15"/>
</g>
<defs>
<linearGradient id="paint0_linear_1_1329" x1="85" y1="15" x2="85" y2="155" gradientUnits="userSpaceOnUse">
<stop stop-color="#199AE0"/>
<stop offset="0.472222" stop-color="#0D5176" stop-opacity="0.527778"/>
<stop offset="0.940972" stop-color="#12A6F7" stop-opacity="0.465278"/>
<stop offset="1" stop-opacity="0"/>
</linearGradient>
</defs>
</svg>
