<svg width="170" height="170" viewBox="0 0 170 170" fill="none" xmlns="http://www.w3.org/2000/svg">
<g id="plus-math">
<rect x="7.5" y="7.5" width="155" height="155" rx="12.5" fill="white"/>
<rect x="7.5" y="7.5" width="155" height="155" rx="12.5" fill="url(#paint0_linear_1_1342)" fill-opacity="0.2"/>
<path id="Vector" d="M134.583 73.334H96.6667V35.4173C96.6667 32.1944 94.0563 29.584 90.8333 29.584H79.1667C75.9437 29.584 73.3333 32.1944 73.3333 35.4173V73.334H35.4167C32.1937 73.334 29.5833 75.9444 29.5833 79.1673V90.834C29.5833 94.0569 32.1937 96.6673 35.4167 96.6673H134.583C137.806 96.6673 140.417 94.0569 140.417 90.834V79.1673C140.417 75.9444 137.806 73.334 134.583 73.334Z" fill="url(#paint1_linear_1_1342)"/>
<path id="Vector_2" d="M96.6667 96.666H73.3333V134.583C73.3333 137.806 75.9437 140.416 79.1667 140.416H90.8333C94.0562 140.416 96.6667 137.806 96.6667 134.583V96.666Z" fill="url(#paint2_linear_1_1342)"/>
<rect x="7.5" y="7.5" width="155" height="155" rx="12.5" stroke="#D5EAF6" stroke-width="15"/>
</g>
<defs>
<linearGradient id="paint0_linear_1_1342" x1="85" y1="15" x2="85" y2="155" gradientUnits="userSpaceOnUse">
<stop stop-color="#199AE0"/>
<stop offset="0.472222" stop-color="#0D5176" stop-opacity="0.527778"/>
<stop offset="0.940972" stop-color="#12A6F7" stop-opacity="0.465278"/>
<stop offset="1" stop-opacity="0"/>
</linearGradient>
<linearGradient id="paint1_linear_1_1342" x1="62.5883" y1="36.1902" x2="98.0608" y2="113.444" gradientUnits="userSpaceOnUse">
<stop stop-color="#BD4FF4"/>
<stop offset="0.587" stop-color="#A235EC"/>
<stop offset="1" stop-color="#8C20E5"/>
</linearGradient>
<linearGradient id="paint2_linear_1_1342" x1="85.0262" y1="91.5163" x2="85.0254" y2="137.227" gradientUnits="userSpaceOnUse">
<stop stop-color="#480B7A"/>
<stop offset="0.005" stop-color="#4B0C7D"/>
<stop offset="0.053" stop-color="#64159D"/>
<stop offset="0.103" stop-color="#781DB5"/>
<stop offset="0.156" stop-color="#8622C6"/>
<stop offset="0.213" stop-color="#8E25D1"/>
<stop offset="0.282" stop-color="#9126D4"/>
</linearGradient>
</defs>
</svg>
