<svg width="170" height="170" viewBox="0 0 170 170" fill="none" xmlns="http://www.w3.org/2000/svg">
<g id="portrait-mode-scanning">
<rect x="7.5" y="7.5" width="155" height="155" rx="12.5" fill="white"/>
<rect x="7.5" y="7.5" width="155" height="155" rx="12.5" fill="url(#paint0_linear_1_1345)" fill-opacity="0.2"/>
<path id="Vector" d="M108.333 47.084H61.6667C58.445 47.084 55.8333 49.6957 55.8333 52.9173V117.084C55.8333 120.306 58.445 122.917 61.6667 122.917H108.333C111.555 122.917 114.167 120.306 114.167 117.084V52.9173C114.167 49.6957 111.555 47.084 108.333 47.084Z" fill="#50E6FF"/>
<path id="Vector_2" d="M55.8333 39.7917C55.8333 40.1784 55.6797 40.5494 55.4062 40.8229C55.1327 41.0964 54.7618 41.25 54.375 41.25H41.25V54.375C41.25 54.7618 41.0964 55.1327 40.8229 55.4062C40.5494 55.6797 40.1784 55.8333 39.7917 55.8333H33.9583C33.5716 55.8333 33.2006 55.6797 32.9271 55.4062C32.6536 55.1327 32.5 54.7618 32.5 54.375V33.9583C32.5 33.5716 32.6536 33.2006 32.9271 32.9271C33.2006 32.6536 33.5716 32.5 33.9583 32.5H54.375C54.7618 32.5 55.1327 32.6536 55.4062 32.9271C55.6797 33.2006 55.8333 33.5716 55.8333 33.9583V39.7917ZM114.167 39.7917C114.167 40.1784 114.32 40.5494 114.594 40.8229C114.867 41.0964 115.238 41.25 115.625 41.25H128.75V54.375C128.75 54.7618 128.904 55.1327 129.177 55.4062C129.451 55.6797 129.822 55.8333 130.208 55.8333H136.042C136.428 55.8333 136.799 55.6797 137.073 55.4062C137.346 55.1327 137.5 54.7618 137.5 54.375V33.9583C137.5 33.5716 137.346 33.2006 137.073 32.9271C136.799 32.6536 136.428 32.5 136.042 32.5H115.625C115.238 32.5 114.867 32.6536 114.594 32.9271C114.32 33.2006 114.167 33.5716 114.167 33.9583V39.7917ZM55.8333 130.208C55.8333 129.822 55.6797 129.451 55.4062 129.177C55.1327 128.904 54.7618 128.75 54.375 128.75H41.25V115.625C41.25 115.238 41.0964 114.867 40.8229 114.594C40.5494 114.32 40.1784 114.167 39.7917 114.167H33.9583C33.5716 114.167 33.2006 114.32 32.9271 114.594C32.6536 114.867 32.5 115.238 32.5 115.625V136.042C32.5 136.428 32.6536 136.799 32.9271 137.073C33.2006 137.346 33.5716 137.5 33.9583 137.5H54.375C54.7618 137.5 55.1327 137.346 55.4062 137.073C55.6797 136.799 55.8333 136.428 55.8333 136.042V130.208ZM114.167 136.042C114.167 136.428 114.32 136.799 114.594 137.073C114.867 137.346 115.238 137.5 115.625 137.5H136.042C136.428 137.5 136.799 137.346 137.073 137.073C137.346 136.799 137.5 136.428 137.5 136.042V115.625C137.5 115.238 137.346 114.867 137.073 114.594C136.799 114.32 136.428 114.167 136.042 114.167H130.208C129.822 114.167 129.451 114.32 129.177 114.594C128.904 114.867 128.75 115.238 128.75 115.625V128.75H115.625C115.238 128.75 114.867 128.904 114.594 129.177C114.32 129.451 114.167 129.822 114.167 130.208V136.042Z" fill="url(#paint1_linear_1_1345)"/>
<path id="Vector_3" d="M125.833 93.75H44.1667C42.5558 93.75 41.25 95.0558 41.25 96.6667C41.25 98.2775 42.5558 99.5833 44.1667 99.5833H125.833C127.444 99.5833 128.75 98.2775 128.75 96.6667C128.75 95.0558 127.444 93.75 125.833 93.75Z" fill="url(#paint2_linear_1_1345)"/>
<path id="Vector_4" d="M103.958 70.416H65.995C65.1896 70.416 64.5367 71.0689 64.5367 71.8743V74.791C64.5367 75.5964 65.1896 76.2493 65.995 76.2493H103.958C104.764 76.2493 105.417 75.5964 105.417 74.791V71.8743C105.417 71.0689 104.764 70.416 103.958 70.416Z" fill="#057093"/>
<path id="Vector_5" d="M103.958 58.75H65.995C65.1896 58.75 64.5367 59.4029 64.5367 60.2083V63.125C64.5367 63.9304 65.1896 64.5833 65.995 64.5833H103.958C104.764 64.5833 105.417 63.9304 105.417 63.125V60.2083C105.417 59.4029 104.764 58.75 103.958 58.75Z" fill="#057093"/>
<path id="Vector_6" d="M103.958 105.416H65.995C65.1896 105.416 64.5367 106.069 64.5367 106.874V109.791C64.5367 110.596 65.1896 111.249 65.995 111.249H103.958C104.764 111.249 105.417 110.596 105.417 109.791V106.874C105.417 106.069 104.764 105.416 103.958 105.416Z" fill="#057093"/>
<path id="Vector_7" d="M103.958 82.084H65.995C65.1896 82.084 64.5367 82.7369 64.5367 83.5423V86.459C64.5367 87.2644 65.1896 87.9173 65.995 87.9173H103.958C104.764 87.9173 105.417 87.2644 105.417 86.459V83.5423C105.417 82.7369 104.764 82.084 103.958 82.084Z" fill="#057093"/>
<rect x="7.5" y="7.5" width="155" height="155" rx="12.5" stroke="#D5EAF6" stroke-width="15"/>
</g>
<defs>
<linearGradient id="paint0_linear_1_1345" x1="85" y1="15" x2="85" y2="155" gradientUnits="userSpaceOnUse">
<stop stop-color="#199AE0"/>
<stop offset="0.472222" stop-color="#0D5176" stop-opacity="0.527778"/>
<stop offset="0.940972" stop-color="#12A6F7" stop-opacity="0.465278"/>
<stop offset="1" stop-opacity="0"/>
</linearGradient>
<linearGradient id="paint1_linear_1_1345" x1="24.2575" y1="24.2575" x2="147.157" y2="147.157" gradientUnits="userSpaceOnUse">
<stop stop-color="#C3CDD9"/>
<stop offset="1" stop-color="#9FA7B0"/>
</linearGradient>
<linearGradient id="paint2_linear_1_1345" x1="41.25" y1="96.6667" x2="128.75" y2="96.6667" gradientUnits="userSpaceOnUse">
<stop stop-color="#3079D6"/>
<stop offset="1" stop-color="#297CD2"/>
</linearGradient>
</defs>
</svg>
