<svg width="170" height="170" viewBox="0 0 170 170" fill="none" xmlns="http://www.w3.org/2000/svg">
<g id="presentation">
<rect x="7.5" y="7.5" width="155" height="155" rx="12.5" fill="white"/>
<rect x="7.5" y="7.5" width="155" height="155" rx="12.5" fill="url(#paint0_linear_1_1364)" fill-opacity="0.2"/>
<path id="Vector" d="M143.333 41.25H26.6667V122.917H143.333V41.25Z" fill="url(#paint1_radial_1_1364)"/>
<path id="Vector_2" d="M82.0833 122.916H87.9167V140.416H82.0833V122.916Z" fill="#64717C"/>
<path id="Vector_3" d="M143.333 44.1667H26.6667C25.0567 44.1667 23.75 42.86 23.75 41.25V35.4167C23.75 33.8067 25.0567 32.5 26.6667 32.5H143.333C144.943 32.5 146.25 33.8067 146.25 35.4167V41.25C146.25 42.86 144.943 44.1667 143.333 44.1667Z" fill="#35C1F1"/>
<path id="Vector_4" d="M143.333 120H26.6667V125.833H143.333V120Z" fill="#35C1F1"/>
<path id="Vector_5" d="M79.1667 140.417C79.1667 143.637 81.78 146.251 85 146.251C88.22 146.251 90.8333 143.637 90.8333 140.417C90.8333 137.197 88.22 134.584 85 134.584C81.78 134.584 79.1667 137.197 79.1667 140.417Z" fill="#ABB4BE"/>
<path id="Vector_6" d="M58.75 61.666C47.4742 61.666 38.3333 70.8068 38.3333 82.0827C38.3333 93.3585 47.4742 102.499 58.75 102.499C70.0258 102.499 79.1667 93.3585 79.1667 82.0827H58.75V61.666Z" fill="white"/>
<path id="Vector_7" d="M64.5833 55.834V76.2507H85C85 64.9748 75.8592 55.834 64.5833 55.834Z" fill="white"/>
<path id="Vector_8" d="M130.208 64.5833H98.125C97.32 64.5833 96.6667 63.93 96.6667 63.125V60.2083C96.6667 59.4033 97.32 58.75 98.125 58.75H130.208C131.013 58.75 131.667 59.4033 131.667 60.2083V63.125C131.667 63.93 131.013 64.5833 130.208 64.5833Z" fill="white"/>
<path id="Vector_9" d="M124.375 70.416H98.125C97.32 70.416 96.6667 71.0693 96.6667 71.8743V74.791C96.6667 75.596 97.32 76.2493 98.125 76.2493H124.375C125.18 76.2493 125.833 75.596 125.833 74.791V71.8743C125.833 71.0693 125.18 70.416 124.375 70.416Z" fill="white"/>
<path id="Vector_10" d="M130.208 82.084H98.125C97.32 82.084 96.6667 82.7373 96.6667 83.5423V86.459C96.6667 87.264 97.32 87.9173 98.125 87.9173H130.208C131.013 87.9173 131.667 87.264 131.667 86.459V83.5423C131.667 82.7373 131.013 82.084 130.208 82.084Z" fill="white"/>
<path id="Vector_11" d="M124.375 93.75H98.125C97.32 93.75 96.6667 94.4033 96.6667 95.2083V98.125C96.6667 98.93 97.32 99.5833 98.125 99.5833H124.375C125.18 99.5833 125.833 98.93 125.833 98.125V95.2083C125.833 94.4033 125.18 93.75 124.375 93.75Z" fill="white"/>
<path id="Vector_12" d="M143.333 125.833C144.944 125.833 146.25 124.527 146.25 122.917C146.25 121.306 144.944 120 143.333 120C141.723 120 140.417 121.306 140.417 122.917C140.417 124.527 141.723 125.833 143.333 125.833Z" fill="#35C1F1"/>
<path id="Vector_13" d="M26.6667 125.833C28.2775 125.833 29.5833 124.527 29.5833 122.917C29.5833 121.306 28.2775 120 26.6667 120C25.0558 120 23.75 121.306 23.75 122.917C23.75 124.527 25.0558 125.833 26.6667 125.833Z" fill="#35C1F1"/>
<rect x="7.5" y="7.5" width="155" height="155" rx="12.5" stroke="#D5EAF6" stroke-width="15"/>
</g>
<defs>
<linearGradient id="paint0_linear_1_1364" x1="85" y1="15" x2="85" y2="155" gradientUnits="userSpaceOnUse">
<stop stop-color="#199AE0"/>
<stop offset="0.472222" stop-color="#0D5176" stop-opacity="0.527778"/>
<stop offset="0.940972" stop-color="#12A6F7" stop-opacity="0.465278"/>
<stop offset="1" stop-opacity="0"/>
</linearGradient>
<radialGradient id="paint1_radial_1_1364" cx="0" cy="0" r="1" gradientUnits="userSpaceOnUse" gradientTransform="translate(173.405 152.56) scale(223.046 169.135)">
<stop offset="0.131" stop-color="#23D9D6"/>
<stop offset="0.214" stop-color="#21BDDD"/>
<stop offset="0.364" stop-color="#1E90E7"/>
<stop offset="0.508" stop-color="#1B6CF0"/>
<stop offset="0.642" stop-color="#1953F6"/>
<stop offset="0.764" stop-color="#1843FA"/>
<stop offset="0.862" stop-color="#183EFB"/>
</radialGradient>
</defs>
</svg>
