<svg width="170" height="170" viewBox="0 0 170 170" fill="none" xmlns="http://www.w3.org/2000/svg">
<g id="processor">
<rect x="7.5" y="7.5" width="155" height="155" rx="12.5" fill="white"/>
<rect x="7.5" y="7.5" width="155" height="155" rx="12.5" fill="url(#paint0_linear_1_1395)" fill-opacity="0.2"/>
<path id="Vector" d="M52.9167 41.2507V32.5007C52.9167 30.8907 54.2233 29.584 55.8333 29.584C57.4433 29.584 58.75 30.8907 58.75 32.5007V41.2507H52.9167Z" fill="#E3A600"/>
<path id="Vector_2" d="M64.5833 41.2507V32.5007C64.5833 30.8907 65.89 29.584 67.5 29.584C69.11 29.584 70.4167 30.8907 70.4167 32.5007V41.2507H64.5833Z" fill="#E3A600"/>
<path id="Vector_3" d="M76.25 41.2507V32.5007C76.25 30.8907 77.5567 29.584 79.1667 29.584C80.7767 29.584 82.0833 30.8907 82.0833 32.5007V41.2507H76.25Z" fill="#E3A600"/>
<path id="Vector_4" d="M87.9167 41.2507V32.5007C87.9167 30.8907 89.2233 29.584 90.8333 29.584C92.4433 29.584 93.75 30.8907 93.75 32.5007V41.2507H87.9167Z" fill="#E3A600"/>
<path id="Vector_5" d="M99.5833 41.2507V32.5007C99.5833 30.8907 100.89 29.584 102.5 29.584C104.11 29.584 105.417 30.8907 105.417 32.5007V41.2507H99.5833Z" fill="#E3A600"/>
<path id="Vector_6" d="M111.25 41.2507V32.5007C111.25 30.8907 112.557 29.584 114.167 29.584C115.777 29.584 117.083 30.8907 117.083 32.5007V41.2507H111.25Z" fill="#E3A600"/>
<path id="Vector_7" d="M122.917 128.75H47.0833C43.8604 128.75 41.25 126.14 41.25 122.917V47.0833C41.25 43.8604 43.8604 41.25 47.0833 41.25H122.917C126.14 41.25 128.75 43.8604 128.75 47.0833V122.917C128.75 126.14 126.14 128.75 122.917 128.75Z" fill="url(#paint1_linear_1_1395)"/>
<path id="Vector_8" opacity="0.05" d="M109.383 120H60.6079C54.7483 120 50 115.252 50 109.392V60.6167C50 54.7542 54.7542 50 60.6167 50H109.383C115.246 50 120 54.7542 120 60.6167V109.383C120 115.246 115.246 120 109.383 120Z" fill="black"/>
<path id="Vector_9" opacity="0.07" d="M108.806 117.083H61.1942C56.6237 117.083 52.9167 113.376 52.9167 108.805V61.1935C52.9167 56.6231 56.6237 52.916 61.1942 52.916H108.806C113.376 52.916 117.083 56.6231 117.083 61.1935V108.805C117.083 113.376 113.376 117.083 108.806 117.083Z" fill="black"/>
<path id="Vector_10" d="M108.333 114.167H61.6667C58.4437 114.167 55.8333 111.557 55.8333 108.334V61.6673C55.8333 58.4444 58.4437 55.834 61.6667 55.834H108.333C111.556 55.834 114.167 58.4444 114.167 61.6673V108.334C114.167 111.557 111.556 114.167 108.333 114.167Z" fill="url(#paint2_linear_1_1395)"/>
<path id="Vector_11" d="M52.9167 128.75V137.5C52.9167 139.11 54.2233 140.417 55.8333 140.417C57.4433 140.417 58.75 139.11 58.75 137.5V128.75H52.9167Z" fill="#E3A600"/>
<path id="Vector_12" d="M64.5833 128.75V137.5C64.5833 139.11 65.89 140.417 67.5 140.417C69.11 140.417 70.4167 139.11 70.4167 137.5V128.75H64.5833Z" fill="#E3A600"/>
<path id="Vector_13" d="M76.25 128.75V137.5C76.25 139.11 77.5567 140.417 79.1667 140.417C80.7767 140.417 82.0833 139.11 82.0833 137.5V128.75H76.25Z" fill="#E3A600"/>
<path id="Vector_14" d="M87.9167 128.75V137.5C87.9167 139.11 89.2233 140.417 90.8333 140.417C92.4433 140.417 93.75 139.11 93.75 137.5V128.75H87.9167Z" fill="#E3A600"/>
<path id="Vector_15" d="M99.5833 128.75V137.5C99.5833 139.11 100.89 140.417 102.5 140.417C104.11 140.417 105.417 139.11 105.417 137.5V128.75H99.5833Z" fill="#E3A600"/>
<path id="Vector_16" d="M111.25 128.75V137.5C111.25 139.11 112.557 140.417 114.167 140.417C115.777 140.417 117.083 139.11 117.083 137.5V128.75H111.25Z" fill="#E3A600"/>
<path id="Vector_17" d="M128.75 117.083H137.5C139.11 117.083 140.417 115.777 140.417 114.167C140.417 112.557 139.11 111.25 137.5 111.25H128.75V117.083Z" fill="#E3A600"/>
<path id="Vector_18" d="M128.75 105.417H137.5C139.11 105.417 140.417 104.111 140.417 102.501C140.417 100.891 139.11 99.584 137.5 99.584H128.75V105.417Z" fill="#E3A600"/>
<path id="Vector_19" d="M128.75 93.7493H137.5C139.11 93.7493 140.417 92.4427 140.417 90.8327C140.417 89.2227 139.11 87.916 137.5 87.916H128.75V93.7493Z" fill="#E3A600"/>
<path id="Vector_20" d="M128.75 82.0833H137.5C139.11 82.0833 140.417 80.7767 140.417 79.1667C140.417 77.5567 139.11 76.25 137.5 76.25H128.75V82.0833Z" fill="#E3A600"/>
<path id="Vector_21" d="M128.75 70.4173H137.5C139.11 70.4173 140.417 69.1107 140.417 67.5007C140.417 65.8907 139.11 64.584 137.5 64.584H128.75V70.4173Z" fill="#E3A600"/>
<path id="Vector_22" d="M128.75 58.7493H137.5C139.11 58.7493 140.417 57.4427 140.417 55.8327C140.417 54.2227 139.11 52.916 137.5 52.916H128.75V58.7493Z" fill="#E3A600"/>
<path id="Vector_23" d="M41.25 117.083H32.5C30.89 117.083 29.5833 115.777 29.5833 114.167C29.5833 112.557 30.89 111.25 32.5 111.25H41.25V117.083Z" fill="#E3A600"/>
<path id="Vector_24" d="M41.25 105.417H32.5C30.89 105.417 29.5833 104.111 29.5833 102.501C29.5833 100.891 30.89 99.584 32.5 99.584H41.25V105.417Z" fill="#E3A600"/>
<path id="Vector_25" d="M41.25 93.7493H32.5C30.89 93.7493 29.5833 92.4427 29.5833 90.8327C29.5833 89.2227 30.89 87.916 32.5 87.916H41.25V93.7493Z" fill="#E3A600"/>
<path id="Vector_26" d="M41.25 82.0833H32.5C30.89 82.0833 29.5833 80.7767 29.5833 79.1667C29.5833 77.5567 30.89 76.25 32.5 76.25H41.25V82.0833Z" fill="#E3A600"/>
<path id="Vector_27" d="M41.25 70.4173H32.5C30.89 70.4173 29.5833 69.1107 29.5833 67.5007C29.5833 65.8907 30.89 64.584 32.5 64.584H41.25V70.4173Z" fill="#E3A600"/>
<path id="Vector_28" d="M41.25 58.7493H32.5C30.89 58.7493 29.5833 57.4427 29.5833 55.8327C29.5833 54.2227 30.89 52.916 32.5 52.916H41.25V58.7493Z" fill="#E3A600"/>
<path id="Vector_29" d="M120 52.9173C121.611 52.9173 122.917 51.6115 122.917 50.0007C122.917 48.3898 121.611 47.084 120 47.084C118.389 47.084 117.083 48.3898 117.083 50.0007C117.083 51.6115 118.389 52.9173 120 52.9173Z" fill="url(#paint3_linear_1_1395)"/>
<path id="Vector_30" d="M50 122.917C51.6108 122.917 52.9167 121.611 52.9167 120.001C52.9167 118.39 51.6108 117.084 50 117.084C48.3892 117.084 47.0833 118.39 47.0833 120.001C47.0833 121.611 48.3892 122.917 50 122.917Z" fill="url(#paint4_linear_1_1395)"/>
<path id="Vector_31" d="M120 122.917C121.611 122.917 122.917 121.611 122.917 120.001C122.917 118.39 121.611 117.084 120 117.084C118.389 117.084 117.083 118.39 117.083 120.001C117.083 121.611 118.389 122.917 120 122.917Z" fill="url(#paint5_linear_1_1395)"/>
<path id="Vector_32" d="M50 52.9173C51.6108 52.9173 52.9167 51.6115 52.9167 50.0007C52.9167 48.3898 51.6108 47.084 50 47.084C48.3892 47.084 47.0833 48.3898 47.0833 50.0007C47.0833 51.6115 48.3892 52.9173 50 52.9173Z" fill="url(#paint6_linear_1_1395)"/>
<rect x="7.5" y="7.5" width="155" height="155" rx="12.5" stroke="#D5EAF6" stroke-width="15"/>
</g>
<defs>
<linearGradient id="paint0_linear_1_1395" x1="85" y1="15" x2="85" y2="155" gradientUnits="userSpaceOnUse">
<stop stop-color="#199AE0"/>
<stop offset="0.472222" stop-color="#0D5176" stop-opacity="0.527778"/>
<stop offset="0.940972" stop-color="#12A6F7" stop-opacity="0.465278"/>
<stop offset="1" stop-opacity="0"/>
</linearGradient>
<linearGradient id="paint1_linear_1_1395" x1="85.1633" y1="39.1237" x2="84.8746" y2="120.181" gradientUnits="userSpaceOnUse">
<stop stop-color="#899198"/>
<stop offset="1" stop-color="#787E85"/>
</linearGradient>
<linearGradient id="paint2_linear_1_1395" x1="84.7142" y1="56.1927" x2="85.4842" y2="134.079" gradientUnits="userSpaceOnUse">
<stop stop-color="#CCCCCC"/>
<stop offset="0.396" stop-color="#BBBBBB"/>
<stop offset="1" stop-color="#999999"/>
</linearGradient>
<linearGradient id="paint3_linear_1_1395" x1="120" y1="47.0519" x2="120" y2="51.6661" gradientUnits="userSpaceOnUse">
<stop stop-color="#4C4C4C"/>
<stop offset="1" stop-color="#343434"/>
</linearGradient>
<linearGradient id="paint4_linear_1_1395" x1="50" y1="117.052" x2="50" y2="121.666" gradientUnits="userSpaceOnUse">
<stop stop-color="#4C4C4C"/>
<stop offset="1" stop-color="#343434"/>
</linearGradient>
<linearGradient id="paint5_linear_1_1395" x1="120" y1="117.052" x2="120" y2="121.666" gradientUnits="userSpaceOnUse">
<stop stop-color="#4C4C4C"/>
<stop offset="1" stop-color="#343434"/>
</linearGradient>
<linearGradient id="paint6_linear_1_1395" x1="50" y1="47.0519" x2="50" y2="51.6661" gradientUnits="userSpaceOnUse">
<stop stop-color="#4C4C4C"/>
<stop offset="1" stop-color="#343434"/>
</linearGradient>
</defs>
</svg>
