<svg width="170" height="170" viewBox="0 0 170 170" fill="none" xmlns="http://www.w3.org/2000/svg">
<g id="product-documents">
<rect x="7.5" y="7.5" width="155" height="155" rx="12.5" fill="white"/>
<rect x="7.5" y="7.5" width="155" height="155" rx="12.5" fill="url(#paint0_linear_1_1428)" fill-opacity="0.2"/>
<path id="Vector" d="M120 29.584H50C46.7771 29.584 44.1667 32.1944 44.1667 35.4173V52.9173H125.833V35.4173C125.833 32.1944 123.223 29.584 120 29.584Z" fill="url(#paint1_linear_1_1428)"/>
<path id="Vector_2" d="M122.917 41.25H47.0833C43.8604 41.25 41.25 43.8604 41.25 47.0833V61.6667H128.75V47.0833C128.75 43.8604 126.14 41.25 122.917 41.25Z" fill="url(#paint2_linear_1_1428)"/>
<path id="Vector_3" d="M125.833 52.916H44.1667C40.9437 52.916 38.3333 55.5264 38.3333 58.7493V131.666H131.667V58.7493C131.667 55.5264 129.056 52.916 125.833 52.916Z" fill="url(#paint3_linear_1_1428)"/>
<path id="Vector_4" d="M134.583 105.416H104.521C101.885 105.416 99.7117 107.236 98.9271 109.753C97.0808 115.689 91.545 119.999 85 119.999C78.455 119.999 72.9192 115.689 71.0729 109.753C70.2883 107.236 68.1154 105.416 65.4787 105.416H35.4167C33.8067 105.416 32.5 106.723 32.5 108.333V131.666C32.5 136.499 36.4171 140.416 41.25 140.416H128.75C133.583 140.416 137.5 136.499 137.5 131.666V108.333C137.5 106.723 136.193 105.416 134.583 105.416Z" fill="url(#paint4_linear_1_1428)"/>
<path id="Vector_5" d="M108.281 79.5482H64.5308C63.7258 79.5482 63.0725 78.8948 63.0725 78.0898V75.1732C63.0725 74.3682 63.7258 73.7148 64.5308 73.7148H108.281C109.086 73.7148 109.739 74.3682 109.739 75.1732V78.0898C109.739 78.8978 109.089 79.5482 108.281 79.5482Z" fill="#0D61A9"/>
<path id="Vector_6" d="M99.5308 91.2161H64.5308C63.7258 91.2161 63.0725 90.5628 63.0725 89.7578V86.8411C63.0725 86.0361 63.7258 85.3828 64.5308 85.3828H99.5308C100.336 85.3828 100.989 86.0361 100.989 86.8411V89.7578C100.989 90.5657 100.339 91.2161 99.5308 91.2161Z" fill="#0D61A9"/>
<rect x="7.5" y="7.5" width="155" height="155" rx="12.5" stroke="#D5EAF6" stroke-width="15"/>
</g>
<defs>
<linearGradient id="paint0_linear_1_1428" x1="85" y1="15" x2="85" y2="155" gradientUnits="userSpaceOnUse">
<stop stop-color="#199AE0"/>
<stop offset="0.472222" stop-color="#0D5176" stop-opacity="0.527778"/>
<stop offset="0.940972" stop-color="#12A6F7" stop-opacity="0.465278"/>
<stop offset="1" stop-opacity="0"/>
</linearGradient>
<linearGradient id="paint1_linear_1_1428" x1="85" y1="30.1236" x2="85" y2="52.2698" gradientUnits="userSpaceOnUse">
<stop stop-color="#0D61A9"/>
<stop offset="1" stop-color="#16528C"/>
</linearGradient>
<linearGradient id="paint2_linear_1_1428" x1="85" y1="41.4425" x2="85" y2="62.0604" gradientUnits="userSpaceOnUse">
<stop stop-color="#199AE0"/>
<stop offset="1" stop-color="#0782D8"/>
</linearGradient>
<linearGradient id="paint3_linear_1_1428" x1="74.9608" y1="53.6977" x2="93.3942" y2="129.271" gradientUnits="userSpaceOnUse">
<stop stop-color="#32BDEF"/>
<stop offset="1" stop-color="#1EA2E4"/>
</linearGradient>
<linearGradient id="paint4_linear_1_1428" x1="85" y1="105.623" x2="85" y2="139.521" gradientUnits="userSpaceOnUse">
<stop stop-color="#FFD869"/>
<stop offset="1" stop-color="#FEC52B"/>
</linearGradient>
</defs>
</svg>
