<svg width="170" height="170" viewBox="0 0 170 170" fill="none" xmlns="http://www.w3.org/2000/svg">
<g id="proforma-invoice">
<rect x="7.5" y="7.5" width="155" height="155" rx="12.5" fill="white"/>
<rect x="7.5" y="7.5" width="155" height="155" rx="12.5" fill="url(#paint0_linear_1_1440)" fill-opacity="0.2"/>
<path id="Vector" d="M123.582 137.5H46.4183C42.1425 137.5 38.6775 134.035 38.6775 129.759V40.2408C38.6775 35.965 42.1425 32.5 46.4183 32.5H123.585C127.86 32.5 131.325 35.965 131.325 40.2408V129.759C131.322 134.035 127.858 137.5 123.582 137.5Z" fill="#50E6FF"/>
<path id="Vector_2" d="M112.708 61.666H57.2917C56.4867 61.666 55.8333 61.0127 55.8333 60.2077V54.3743C55.8333 53.5693 56.4867 52.916 57.2917 52.916H112.708C113.513 52.916 114.167 53.5693 114.167 54.3743V60.2077C114.167 61.0127 113.513 61.666 112.708 61.666Z" fill="#057093"/>
<path id="Vector_3" d="M112.708 79.1673H106.875C106.07 79.1673 105.417 78.514 105.417 77.709V74.7923C105.417 73.9873 106.07 73.334 106.875 73.334H112.708C113.513 73.334 114.167 73.9873 114.167 74.7923V77.709C114.167 78.514 113.513 79.1673 112.708 79.1673Z" fill="#057093"/>
<path id="Vector_4" d="M89.375 79.1673H57.2917C56.4867 79.1673 55.8333 78.514 55.8333 77.709V74.7923C55.8333 73.9873 56.4867 73.334 57.2917 73.334H89.375C90.18 73.334 90.8333 73.9873 90.8333 74.7923V77.709C90.8333 78.514 90.18 79.1673 89.375 79.1673Z" fill="#057093"/>
<path id="Vector_5" d="M112.708 90.8333H106.875C106.07 90.8333 105.417 90.18 105.417 89.375V86.4583C105.417 85.6533 106.07 85 106.875 85H112.708C113.513 85 114.167 85.6533 114.167 86.4583V89.375C114.167 90.18 113.513 90.8333 112.708 90.8333Z" fill="#057093"/>
<path id="Vector_6" d="M80.625 90.8333H57.2917C56.4867 90.8333 55.8333 90.18 55.8333 89.375V86.4583C55.8333 85.6533 56.4867 85 57.2917 85H80.625C81.43 85 82.0833 85.6533 82.0833 86.4583V89.375C82.0833 90.18 81.43 90.8333 80.625 90.8333Z" fill="#057093"/>
<path id="Vector_7" d="M112.708 102.499H106.875C106.07 102.499 105.417 101.846 105.417 101.041V98.1243C105.417 97.3193 106.07 96.666 106.875 96.666H112.708C113.513 96.666 114.167 97.3193 114.167 98.1243V101.041C114.167 101.846 113.513 102.499 112.708 102.499Z" fill="#057093"/>
<path id="Vector_8" d="M89.375 102.499H57.2917C56.4867 102.499 55.8333 101.846 55.8333 101.041V98.1243C55.8333 97.3193 56.4867 96.666 57.2917 96.666H89.375C90.18 96.666 90.8333 97.3193 90.8333 98.1243V101.041C90.8333 101.846 90.18 102.499 89.375 102.499Z" fill="#057093"/>
<path id="Vector_9" d="M112.708 114.167H106.875C106.07 114.167 105.417 113.514 105.417 112.709V109.792C105.417 108.987 106.07 108.334 106.875 108.334H112.708C113.513 108.334 114.167 108.987 114.167 109.792V112.709C114.167 113.514 113.513 114.167 112.708 114.167Z" fill="#057093"/>
<path id="Vector_10" d="M80.625 114.167H57.2917C56.4867 114.167 55.8333 113.514 55.8333 112.709V109.792C55.8333 108.987 56.4867 108.334 57.2917 108.334H80.625C81.43 108.334 82.0833 108.987 82.0833 109.792V112.709C82.0833 113.514 81.43 114.167 80.625 114.167Z" fill="#057093"/>
<path id="Vector_11" d="M120 38.3333H125.833V44.1667C125.833 45.7767 127.14 47.0833 128.75 47.0833C130.36 47.0833 131.667 45.7767 131.667 44.1667V38.3333C131.667 35.125 129.042 32.5 125.833 32.5H120C118.39 32.5 117.083 33.8067 117.083 35.4167C117.083 37.0267 118.39 38.3333 120 38.3333Z" fill="#64717C"/>
<path id="Vector_12" d="M44.1667 44.1667V38.3333H50C51.61 38.3333 52.9167 37.0267 52.9167 35.4167C52.9167 33.8067 51.61 32.5 50 32.5H44.1667C40.9583 32.5 38.3333 35.125 38.3333 38.3333V44.1667C38.3333 45.7767 39.64 47.0833 41.25 47.0833C42.86 47.0833 44.1667 45.7767 44.1667 44.1667Z" fill="#64717C"/>
<path id="Vector_13" d="M125.833 125.833V131.666H120C118.39 131.666 117.083 132.973 117.083 134.583C117.083 136.193 118.39 137.499 120 137.499H125.833C129.042 137.499 131.667 134.874 131.667 131.666V125.833C131.667 124.223 130.36 122.916 128.75 122.916C127.14 122.916 125.833 124.223 125.833 125.833Z" fill="#64717C"/>
<path id="Vector_14" d="M50 131.666H44.1667V125.833C44.1667 124.223 42.86 122.916 41.25 122.916C39.64 122.916 38.3333 124.223 38.3333 125.833V131.666C38.3333 134.874 40.9583 137.499 44.1667 137.499H50C51.61 137.499 52.9167 136.193 52.9167 134.583C52.9167 132.973 51.61 131.666 50 131.666Z" fill="#64717C"/>
<path id="Vector_15" d="M61.6667 38.3333C63.2775 38.3333 64.5833 37.0275 64.5833 35.4167C64.5833 33.8058 63.2775 32.5 61.6667 32.5C60.0558 32.5 58.75 33.8058 58.75 35.4167C58.75 37.0275 60.0558 38.3333 61.6667 38.3333Z" fill="#64717C"/>
<path id="Vector_16" d="M73.3333 38.3333C74.9442 38.3333 76.25 37.0275 76.25 35.4167C76.25 33.8058 74.9442 32.5 73.3333 32.5C71.7225 32.5 70.4167 33.8058 70.4167 35.4167C70.4167 37.0275 71.7225 38.3333 73.3333 38.3333Z" fill="#64717C"/>
<path id="Vector_17" d="M85 38.3333C86.6108 38.3333 87.9167 37.0275 87.9167 35.4167C87.9167 33.8058 86.6108 32.5 85 32.5C83.3892 32.5 82.0833 33.8058 82.0833 35.4167C82.0833 37.0275 83.3892 38.3333 85 38.3333Z" fill="#64717C"/>
<path id="Vector_18" d="M108.333 38.3333C109.944 38.3333 111.25 37.0275 111.25 35.4167C111.25 33.8058 109.944 32.5 108.333 32.5C106.723 32.5 105.417 33.8058 105.417 35.4167C105.417 37.0275 106.723 38.3333 108.333 38.3333Z" fill="#64717C"/>
<path id="Vector_19" d="M125.833 38.3333C127.444 38.3333 128.75 37.0275 128.75 35.4167C128.75 33.8058 127.444 32.5 125.833 32.5C124.222 32.5 122.917 33.8058 122.917 35.4167C122.917 37.0275 124.222 38.3333 125.833 38.3333Z" fill="#64717C"/>
<path id="Vector_20" d="M96.6667 38.3333C98.2775 38.3333 99.5833 37.0275 99.5833 35.4167C99.5833 33.8058 98.2775 32.5 96.6667 32.5C95.0558 32.5 93.75 33.8058 93.75 35.4167C93.75 37.0275 95.0558 38.3333 96.6667 38.3333Z" fill="#64717C"/>
<path id="Vector_21" d="M61.6667 137.499C63.2775 137.499 64.5833 136.194 64.5833 134.583C64.5833 132.972 63.2775 131.666 61.6667 131.666C60.0558 131.666 58.75 132.972 58.75 134.583C58.75 136.194 60.0558 137.499 61.6667 137.499Z" fill="#64717C"/>
<path id="Vector_22" d="M73.3333 137.499C74.9442 137.499 76.25 136.194 76.25 134.583C76.25 132.972 74.9442 131.666 73.3333 131.666C71.7225 131.666 70.4167 132.972 70.4167 134.583C70.4167 136.194 71.7225 137.499 73.3333 137.499Z" fill="#64717C"/>
<path id="Vector_23" d="M85 137.499C86.6108 137.499 87.9167 136.194 87.9167 134.583C87.9167 132.972 86.6108 131.666 85 131.666C83.3892 131.666 82.0833 132.972 82.0833 134.583C82.0833 136.194 83.3892 137.499 85 137.499Z" fill="#64717C"/>
<path id="Vector_24" d="M108.333 137.499C109.944 137.499 111.25 136.194 111.25 134.583C111.25 132.972 109.944 131.666 108.333 131.666C106.723 131.666 105.417 132.972 105.417 134.583C105.417 136.194 106.723 137.499 108.333 137.499Z" fill="#64717C"/>
<path id="Vector_25" d="M125.833 137.499C127.444 137.499 128.75 136.194 128.75 134.583C128.75 132.972 127.444 131.666 125.833 131.666C124.222 131.666 122.917 132.972 122.917 134.583C122.917 136.194 124.222 137.499 125.833 137.499Z" fill="#64717C"/>
<path id="Vector_26" d="M96.6667 137.499C98.2775 137.499 99.5833 136.194 99.5833 134.583C99.5833 132.972 98.2775 131.666 96.6667 131.666C95.0558 131.666 93.75 132.972 93.75 134.583C93.75 136.194 95.0558 137.499 96.6667 137.499Z" fill="#64717C"/>
<path id="Vector_27" d="M128.75 58.7493C130.361 58.7493 131.667 57.4435 131.667 55.8327C131.667 54.2219 130.361 52.916 128.75 52.916C127.139 52.916 125.833 54.2219 125.833 55.8327C125.833 57.4435 127.139 58.7493 128.75 58.7493Z" fill="#64717C"/>
<path id="Vector_28" d="M128.75 70.4173C130.361 70.4173 131.667 69.1115 131.667 67.5007C131.667 65.8898 130.361 64.584 128.75 64.584C127.139 64.584 125.833 65.8898 125.833 67.5007C125.833 69.1115 127.139 70.4173 128.75 70.4173Z" fill="#64717C"/>
<path id="Vector_29" d="M128.75 82.0833C130.361 82.0833 131.667 80.7775 131.667 79.1667C131.667 77.5558 130.361 76.25 128.75 76.25C127.139 76.25 125.833 77.5558 125.833 79.1667C125.833 80.7775 127.139 82.0833 128.75 82.0833Z" fill="#64717C"/>
<path id="Vector_30" d="M128.75 105.417C130.361 105.417 131.667 104.111 131.667 102.501C131.667 100.89 130.361 99.584 128.75 99.584C127.139 99.584 125.833 100.89 125.833 102.501C125.833 104.111 127.139 105.417 128.75 105.417Z" fill="#64717C"/>
<path id="Vector_31" d="M128.75 117.083C130.361 117.083 131.667 115.777 131.667 114.167C131.667 112.556 130.361 111.25 128.75 111.25C127.139 111.25 125.833 112.556 125.833 114.167C125.833 115.777 127.139 117.083 128.75 117.083Z" fill="#64717C"/>
<path id="Vector_32" d="M128.75 93.7493C130.361 93.7493 131.667 92.4435 131.667 90.8327C131.667 89.2219 130.361 87.916 128.75 87.916C127.139 87.916 125.833 89.2219 125.833 90.8327C125.833 92.4435 127.139 93.7493 128.75 93.7493Z" fill="#64717C"/>
<path id="Vector_33" d="M41.25 58.7493C42.8608 58.7493 44.1667 57.4435 44.1667 55.8327C44.1667 54.2219 42.8608 52.916 41.25 52.916C39.6392 52.916 38.3333 54.2219 38.3333 55.8327C38.3333 57.4435 39.6392 58.7493 41.25 58.7493Z" fill="#64717C"/>
<path id="Vector_34" d="M41.25 70.4173C42.8608 70.4173 44.1667 69.1115 44.1667 67.5007C44.1667 65.8898 42.8608 64.584 41.25 64.584C39.6392 64.584 38.3333 65.8898 38.3333 67.5007C38.3333 69.1115 39.6392 70.4173 41.25 70.4173Z" fill="#64717C"/>
<path id="Vector_35" d="M41.25 82.0833C42.8608 82.0833 44.1667 80.7775 44.1667 79.1667C44.1667 77.5558 42.8608 76.25 41.25 76.25C39.6392 76.25 38.3333 77.5558 38.3333 79.1667C38.3333 80.7775 39.6392 82.0833 41.25 82.0833Z" fill="#64717C"/>
<path id="Vector_36" d="M41.25 105.417C42.8608 105.417 44.1667 104.111 44.1667 102.501C44.1667 100.89 42.8608 99.584 41.25 99.584C39.6392 99.584 38.3333 100.89 38.3333 102.501C38.3333 104.111 39.6392 105.417 41.25 105.417Z" fill="#64717C"/>
<path id="Vector_37" d="M41.25 117.083C42.8608 117.083 44.1667 115.777 44.1667 114.167C44.1667 112.556 42.8608 111.25 41.25 111.25C39.6392 111.25 38.3333 112.556 38.3333 114.167C38.3333 115.777 39.6392 117.083 41.25 117.083Z" fill="#64717C"/>
<path id="Vector_38" d="M41.25 93.7493C42.8608 93.7493 44.1667 92.4435 44.1667 90.8327C44.1667 89.2219 42.8608 87.916 41.25 87.916C39.6392 87.916 38.3333 89.2219 38.3333 90.8327C38.3333 92.4435 39.6392 93.7493 41.25 93.7493Z" fill="#64717C"/>
<rect x="7.5" y="7.5" width="155" height="155" rx="12.5" stroke="#D5EAF6" stroke-width="15"/>
</g>
<defs>
<linearGradient id="paint0_linear_1_1440" x1="85" y1="15" x2="85" y2="155" gradientUnits="userSpaceOnUse">
<stop stop-color="#199AE0"/>
<stop offset="0.472222" stop-color="#0D5176" stop-opacity="0.527778"/>
<stop offset="0.940972" stop-color="#12A6F7" stop-opacity="0.465278"/>
<stop offset="1" stop-opacity="0"/>
</linearGradient>
</defs>
</svg>
