<svg width="170" height="170" viewBox="0 0 170 170" fill="none" xmlns="http://www.w3.org/2000/svg">
<g id="profit-analysis">
<rect x="7.5" y="7.5" width="155" height="155" rx="12.5" fill="white"/>
<rect x="7.5" y="7.5" width="155" height="155" rx="12.5" fill="url(#paint0_linear_1_1435)" fill-opacity="0.2"/>
<path id="Vector" d="M119.95 109.641L109.637 119.954L132.591 142.908C133.16 143.477 134.085 143.477 134.653 142.908L142.902 134.66C143.47 134.091 143.47 133.166 142.902 132.598L119.95 109.641Z" fill="#199BE2"/>
<path id="Vector_2" d="M107.17 96.8555L96.8563 107.169L109.64 119.95L119.95 109.639L107.17 96.8555Z" fill="url(#paint1_radial_1_1435)"/>
<path id="Vector_3" d="M73.3333 119.999C99.1066 119.999 120 99.106 120 73.3327C120 47.5594 99.1066 26.666 73.3333 26.666C47.56 26.666 26.6667 47.5594 26.6667 73.3327C26.6667 99.106 47.56 119.999 73.3333 119.999Z" fill="url(#paint2_linear_1_1435)"/>
<path id="Vector_4" d="M91.7025 85.0648C91.7025 67.0748 65.1404 70.5865 65.1404 59.9582C65.1404 54.4077 71.3792 54.1161 73.3304 54.1161C78.0175 54.1161 82.5442 55.3732 85.9946 56.9919C87.0825 57.5023 88.3308 56.7469 88.3308 55.5482V50.3127C88.3308 48.5569 87.6688 47.5157 86.6158 47.1044C84.2504 46.1857 80.8525 45.5148 75.83 45.3486V39.5852C75.8329 38.894 75.2729 38.334 74.5817 38.334H72.0821C71.3908 38.334 70.8308 38.894 70.8308 39.5852V45.439C63.0404 46.2002 54.9613 50.5986 54.9613 60.8273C54.9613 79.4765 81.5204 75.7782 81.5204 85.6015C81.5204 88.6902 79.5488 91.3502 73.3304 91.3502C67.08 91.3502 61.34 89.1686 58.1608 87.5411C57.0933 86.9927 55.8333 87.7861 55.8333 88.9877V94.9465C55.8333 96.0898 56.5217 97.1048 57.5746 97.554C61.34 99.1552 66.3917 100.366 70.8338 100.719V107.086C70.8338 107.777 71.3938 108.337 72.085 108.337H74.5846C75.2758 108.337 75.8358 107.777 75.8358 107.086V100.733C87.4879 99.7561 91.7025 91.954 91.7025 85.0648Z" fill="#0D61A9"/>
<rect x="7.5" y="7.5" width="155" height="155" rx="12.5" stroke="#D5EAF6" stroke-width="15"/>
</g>
<defs>
<linearGradient id="paint0_linear_1_1435" x1="85" y1="15" x2="85" y2="155" gradientUnits="userSpaceOnUse">
<stop stop-color="#199AE0"/>
<stop offset="0.472222" stop-color="#0D5176" stop-opacity="0.527778"/>
<stop offset="0.940972" stop-color="#12A6F7" stop-opacity="0.465278"/>
<stop offset="1" stop-opacity="0"/>
</linearGradient>
<radialGradient id="paint1_radial_1_1435" cx="0" cy="0" r="1" gradientUnits="userSpaceOnUse" gradientTransform="translate(73.4033 73.6125) scale(57.1783)">
<stop offset="0.693" stop-color="#006185"/>
<stop offset="0.921" stop-color="#35C1F1"/>
</radialGradient>
<linearGradient id="paint2_linear_1_1435" x1="40.9904" y1="40.9898" x2="106.405" y2="106.405" gradientUnits="userSpaceOnUse">
<stop stop-color="#A3FFFF"/>
<stop offset="0.223" stop-color="#9DFBFF"/>
<stop offset="0.53" stop-color="#8BF1FF"/>
<stop offset="0.885" stop-color="#6EE0FF"/>
<stop offset="1" stop-color="#63DAFF"/>
</linearGradient>
</defs>
</svg>
