<svg width="170" height="170" viewBox="0 0 170 170" fill="none" xmlns="http://www.w3.org/2000/svg">
<g id="program">
<rect x="7.5" y="7.5" width="155" height="155" rx="12.5" fill="white"/>
<rect x="7.5" y="7.5" width="155" height="155" rx="12.5" fill="url(#paint0_linear_1_1479)" fill-opacity="0.2"/>
<path id="Vector" d="M86.2075 45.3735L78.8108 37.9768C77.1717 36.3377 74.9463 35.416 72.6246 35.416H29.5833C26.3604 35.416 23.75 38.0264 23.75 41.2493V128.749C23.75 131.972 26.3604 134.583 29.5833 134.583H140.417C143.64 134.583 146.25 131.972 146.25 128.749V52.916C146.25 49.6931 143.64 47.0827 140.417 47.0827H90.3317C88.7858 47.0827 87.3013 46.4673 86.2075 45.3735Z" fill="url(#paint1_linear_1_1479)"/>
<path id="Vector_2" d="M77.9592 57.0415L87.4908 47.5098C87.7621 47.2386 88.1325 47.084 88.5204 47.084H140.417C143.64 47.084 146.25 49.6944 146.25 52.9173V128.751C146.25 131.974 143.64 134.584 140.417 134.584H29.5833C26.3604 134.584 23.75 131.974 23.75 128.751V60.209C23.75 59.404 24.4033 58.7507 25.2083 58.7507H73.835C75.3808 58.7507 76.8654 58.1352 77.9592 57.0415Z" fill="url(#paint2_linear_1_1479)"/>
<path id="Vector_3" d="M50.1546 108.595L70.5217 88.2284C71.0787 87.6713 71.9829 87.6713 72.54 88.2284L78.5921 94.2804C79.1492 94.8375 79.1492 95.7417 78.5921 96.2988L58.225 116.666C57.6679 117.223 56.7637 117.223 56.2067 116.666L50.1546 110.614C49.5975 110.057 49.5975 109.153 50.1546 108.595Z" fill="url(#paint3_linear_1_1479)"/>
<path id="Vector_4" d="M58.3796 73.7498L78.7467 94.1169C79.3038 94.674 79.3038 95.5782 78.7467 96.1353L72.6946 102.187C72.1375 102.744 71.2333 102.744 70.6762 102.187L50.3092 81.8203C49.7521 81.2632 49.7521 80.359 50.3092 79.8019L56.3612 73.7498C56.9212 73.1928 57.8225 73.1928 58.3796 73.7498Z" fill="url(#paint4_linear_1_1479)"/>
<path id="Vector_5" d="M89.375 108.334H121.458C122.263 108.334 122.917 108.987 122.917 109.792V115.626C122.917 116.431 122.263 117.084 121.458 117.084H89.375C88.57 117.084 87.9167 116.431 87.9167 115.626V109.792C87.9167 108.987 88.57 108.334 89.375 108.334Z" fill="url(#paint5_linear_1_1479)"/>
<rect x="7.5" y="7.5" width="155" height="155" rx="12.5" stroke="#D5EAF6" stroke-width="15"/>
</g>
<defs>
<linearGradient id="paint0_linear_1_1479" x1="85" y1="15" x2="85" y2="155" gradientUnits="userSpaceOnUse">
<stop stop-color="#199AE0"/>
<stop offset="0.472222" stop-color="#0D5176" stop-opacity="0.527778"/>
<stop offset="0.940972" stop-color="#12A6F7" stop-opacity="0.465278"/>
<stop offset="1" stop-opacity="0"/>
</linearGradient>
<linearGradient id="paint1_linear_1_1479" x1="85" y1="34.5643" x2="85" y2="58.6823" gradientUnits="userSpaceOnUse">
<stop stop-color="#EBA600"/>
<stop offset="1" stop-color="#C28200"/>
</linearGradient>
<linearGradient id="paint2_linear_1_1479" x1="85" y1="46.6582" x2="85" y2="134.534" gradientUnits="userSpaceOnUse">
<stop stop-color="#FFD869"/>
<stop offset="1" stop-color="#FEC52B"/>
</linearGradient>
<linearGradient id="paint3_linear_1_1479" x1="53.5496" y1="113.268" x2="71.77" y2="95.0475" gradientUnits="userSpaceOnUse">
<stop stop-color="#1552B3"/>
<stop offset="0.275" stop-color="#144FAE"/>
<stop offset="0.623" stop-color="#12479E"/>
<stop offset="0.86" stop-color="#103F8F"/>
</linearGradient>
<linearGradient id="paint4_linear_1_1479" x1="53.9142" y1="77.3519" x2="75.7192" y2="99.1569" gradientUnits="userSpaceOnUse">
<stop stop-color="#1F60C2"/>
<stop offset="1" stop-color="#195BBC"/>
</linearGradient>
<linearGradient id="paint5_linear_1_1479" x1="87.9167" y1="112.709" x2="122.917" y2="112.709" gradientUnits="userSpaceOnUse">
<stop stop-color="#1F60C2"/>
<stop offset="1" stop-color="#195BBC"/>
</linearGradient>
</defs>
</svg>
