<svg width="170" height="170" viewBox="0 0 170 170" fill="none" xmlns="http://www.w3.org/2000/svg">
<g id="project">
<rect x="7.5" y="7.5" width="155" height="155" rx="12.5" fill="white"/>
<rect x="7.5" y="7.5" width="155" height="155" rx="12.5" fill="url(#paint0_linear_1_1485)" fill-opacity="0.2"/>
<path id="Vector" d="M26.6667 44.166H137.5C140.723 44.166 143.333 46.7764 143.333 49.9993V125.833C143.333 129.056 140.723 131.666 137.5 131.666H47.0833C35.8075 131.666 26.6667 122.525 26.6667 111.249V44.166Z" fill="url(#paint1_linear_1_1485)"/>
<path id="Vector_2" d="M47.0833 90.8327H52.9167C56.1396 90.8327 58.75 88.2223 58.75 84.9994V32.4993C58.75 29.2764 56.1396 26.666 52.9167 26.666H47.0833C35.8075 26.666 26.6667 35.8068 26.6667 47.0827V111.249C26.6667 99.9735 35.8075 90.8327 47.0833 90.8327Z" fill="url(#paint2_linear_1_1485)"/>
<path id="Vector_3" d="M68.9583 105.416H124.375C125.18 105.416 125.833 106.069 125.833 106.874V109.791C125.833 110.596 125.18 111.249 124.375 111.249H68.9583C68.1533 111.249 67.5 110.596 67.5 109.791V106.874C67.5 106.069 68.1533 105.416 68.9583 105.416Z" fill="#35C1F1"/>
<path id="Vector_4" d="M71.4463 94.7788L69.3842 92.7167C68.8154 92.148 68.8154 91.2234 69.3842 90.6547L88.3425 71.6963C88.9113 71.1276 89.8358 71.1276 90.4046 71.6963L101.039 82.3305L116.477 66.8926L120.601 71.0167L102.071 89.5463C101.503 90.1151 100.578 90.1151 100.009 89.5463L89.375 78.9151L73.5113 94.7788C72.9396 95.3505 72.0179 95.3505 71.4463 94.7788Z" fill="#35C1F1"/>
<path id="Vector_5" d="M110.824 64.1568L123.345 76.6781C124.261 77.5939 125.833 76.9435 125.833 75.6456V63.1243C125.833 62.3193 125.18 61.666 124.375 61.666H111.854C110.556 61.666 109.905 63.2381 110.824 64.1568Z" fill="#35C1F1"/>
<rect x="7.5" y="7.5" width="155" height="155" rx="12.5" stroke="#D5EAF6" stroke-width="15"/>
</g>
<defs>
<linearGradient id="paint0_linear_1_1485" x1="85" y1="15" x2="85" y2="155" gradientUnits="userSpaceOnUse">
<stop stop-color="#199AE0"/>
<stop offset="0.472222" stop-color="#0D5176" stop-opacity="0.527778"/>
<stop offset="0.940972" stop-color="#12A6F7" stop-opacity="0.465278"/>
<stop offset="1" stop-opacity="0"/>
</linearGradient>
<linearGradient id="paint1_linear_1_1485" x1="142.931" y1="87.916" x2="24.9371" y2="87.916" gradientUnits="userSpaceOnUse">
<stop stop-color="#0068B8"/>
<stop offset="1" stop-color="#004D94"/>
</linearGradient>
<linearGradient id="paint2_linear_1_1485" x1="27.1304" y1="68.9577" x2="59.5317" y2="68.9577" gradientUnits="userSpaceOnUse">
<stop stop-color="#28AFEA"/>
<stop offset="1" stop-color="#0B88DA"/>
</linearGradient>
</defs>
</svg>
