<svg width="170" height="170" viewBox="0 0 170 170" fill="none" xmlns="http://www.w3.org/2000/svg">
<g id="qr-code">
<rect x="7.5" y="7.5" width="155" height="155" rx="12.5" fill="white"/>
<rect x="7.5" y="7.5" width="155" height="155" rx="12.5" fill="url(#paint0_linear_1_1515)" fill-opacity="0.2"/>
<path id="Vector" d="M134.583 76.2507C137.806 76.2507 140.417 73.6402 140.417 70.4173V35.4173C140.417 32.1944 137.806 29.584 134.583 29.584H99.5833C96.3604 29.584 93.75 32.1944 93.75 35.4173V44.1673H85V55.834H93.75V70.4173C93.75 73.6402 96.3604 76.2507 99.5833 76.2507H117.083V87.9173H128.75V76.2507H134.583ZM105.417 64.584V41.2507H128.75V64.584H105.417Z" fill="url(#paint1_linear_1_1515)"/>
<path id="Vector_2" d="M128.75 117.084H117.083V128.751H128.75V117.084Z" fill="url(#paint2_linear_1_1515)"/>
<path id="Vector_3" d="M140.417 105.416H128.75V117.083H140.417V105.416Z" fill="url(#paint3_linear_1_1515)"/>
<path id="Vector_4" d="M134.583 140.417C137.806 140.417 140.417 137.806 140.417 134.583V128.75H128.75V140.417H134.583Z" fill="url(#paint4_linear_1_1515)"/>
<path id="Vector_5" d="M117.083 105.416H105.417V117.083H117.083V105.416Z" fill="url(#paint5_linear_1_1515)"/>
<path id="Vector_6" d="M117.083 128.75H105.417V140.417H117.083V128.75Z" fill="url(#paint6_linear_1_1515)"/>
<path id="Vector_7" d="M58.75 111.25H47.0833V122.917H58.75V111.25Z" fill="url(#paint7_linear_1_1515)"/>
<path id="Vector_8" d="M58.75 47.084H47.0833V58.7507H58.75V47.084Z" fill="url(#paint8_linear_1_1515)"/>
<path id="Vector_9" d="M122.917 47.084H111.25V58.7507H122.917V47.084Z" fill="url(#paint9_linear_1_1515)"/>
<path id="Vector_10" d="M140.417 87.916H128.75V99.5827H140.417V87.916Z" fill="url(#paint10_linear_1_1515)"/>
<path id="Vector_11" d="M93.75 87.9167V76.25H76.25V87.9167H64.5833V93.75H52.9167V87.9167H41.25V93.75H35.4167C32.1937 93.75 29.5833 96.3604 29.5833 99.5833V134.583C29.5833 137.806 32.1937 140.417 35.4167 140.417H70.4167C73.6396 140.417 76.25 137.806 76.25 134.583V122.917H87.9167V128.75H99.5833V99.5833H105.417H117.083V87.9167H105.417H93.75ZM64.5833 128.75H41.25V105.417H64.5833V128.75ZM87.9167 111.25H76.25V99.5833H82.0833H87.9167V111.25Z" fill="url(#paint11_linear_1_1515)"/>
<path id="Vector_12" d="M64.5833 76.2507H70.4167C73.6396 76.2507 76.25 73.6402 76.25 70.4173V67.5007H85V55.834H76.25V35.4173C76.25 32.1944 73.6396 29.584 70.4167 29.584H35.4167C32.1937 29.584 29.5833 32.1944 29.5833 35.4173V70.4173C29.5833 73.6402 32.1937 76.2507 35.4167 76.2507H52.9167V87.9173H64.5833V76.2507ZM41.25 64.584V41.2507H64.5833V64.584H41.25Z" fill="url(#paint12_linear_1_1515)"/>
<rect x="7.5" y="7.5" width="155" height="155" rx="12.5" stroke="#D5EAF6" stroke-width="15"/>
</g>
<defs>
<linearGradient id="paint0_linear_1_1515" x1="85" y1="15" x2="85" y2="155" gradientUnits="userSpaceOnUse">
<stop stop-color="#199AE0"/>
<stop offset="0.472222" stop-color="#0D5176" stop-opacity="0.527778"/>
<stop offset="0.940972" stop-color="#12A6F7" stop-opacity="0.465278"/>
<stop offset="1" stop-opacity="0"/>
</linearGradient>
<linearGradient id="paint1_linear_1_1515" x1="105.603" y1="31.0248" x2="163.811" y2="144.889" gradientUnits="userSpaceOnUse">
<stop stop-color="#2AA4F4"/>
<stop offset="1" stop-color="#007AD9"/>
</linearGradient>
<linearGradient id="paint2_linear_1_1515" x1="119.851" y1="116.918" x2="133.726" y2="144.06" gradientUnits="userSpaceOnUse">
<stop stop-color="#2AA4F4"/>
<stop offset="1" stop-color="#007AD9"/>
</linearGradient>
<linearGradient id="paint3_linear_1_1515" x1="131.518" y1="105.25" x2="145.393" y2="132.392" gradientUnits="userSpaceOnUse">
<stop stop-color="#2AA4F4"/>
<stop offset="1" stop-color="#007AD9"/>
</linearGradient>
<linearGradient id="paint4_linear_1_1515" x1="131.451" y1="128.458" x2="143.546" y2="152.115" gradientUnits="userSpaceOnUse">
<stop stop-color="#2AA4F4"/>
<stop offset="1" stop-color="#007AD9"/>
</linearGradient>
<linearGradient id="paint5_linear_1_1515" x1="108.185" y1="105.25" x2="122.059" y2="132.392" gradientUnits="userSpaceOnUse">
<stop stop-color="#2AA4F4"/>
<stop offset="1" stop-color="#007AD9"/>
</linearGradient>
<linearGradient id="paint6_linear_1_1515" x1="108.185" y1="128.584" x2="122.059" y2="155.726" gradientUnits="userSpaceOnUse">
<stop stop-color="#2AA4F4"/>
<stop offset="1" stop-color="#007AD9"/>
</linearGradient>
<linearGradient id="paint7_linear_1_1515" x1="49.8512" y1="111.084" x2="63.7258" y2="138.226" gradientUnits="userSpaceOnUse">
<stop stop-color="#2AA4F4"/>
<stop offset="1" stop-color="#007AD9"/>
</linearGradient>
<linearGradient id="paint8_linear_1_1515" x1="49.8512" y1="46.9177" x2="63.7258" y2="74.0602" gradientUnits="userSpaceOnUse">
<stop stop-color="#2AA4F4"/>
<stop offset="1" stop-color="#007AD9"/>
</linearGradient>
<linearGradient id="paint9_linear_1_1515" x1="114.018" y1="46.9177" x2="127.893" y2="74.0602" gradientUnits="userSpaceOnUse">
<stop stop-color="#2AA4F4"/>
<stop offset="1" stop-color="#007AD9"/>
</linearGradient>
<linearGradient id="paint10_linear_1_1515" x1="131.518" y1="87.7498" x2="145.393" y2="114.892" gradientUnits="userSpaceOnUse">
<stop stop-color="#2AA4F4"/>
<stop offset="1" stop-color="#007AD9"/>
</linearGradient>
<linearGradient id="paint11_linear_1_1515" x1="58.9717" y1="83.8596" x2="114.575" y2="192.631" gradientUnits="userSpaceOnUse">
<stop stop-color="#2AA4F4"/>
<stop offset="1" stop-color="#007AD9"/>
</linearGradient>
<linearGradient id="paint12_linear_1_1515" x1="41.6671" y1="30.9082" x2="99.8721" y2="144.772" gradientUnits="userSpaceOnUse">
<stop stop-color="#2AA4F4"/>
<stop offset="1" stop-color="#007AD9"/>
</linearGradient>
</defs>
</svg>
