<svg width="170" height="170" viewBox="0 0 170 170" fill="none" xmlns="http://www.w3.org/2000/svg">
<g id="receipt-terminal">
<rect x="7.5" y="7.5" width="155" height="155" rx="12.5" fill="white"/>
<rect x="7.5" y="7.5" width="155" height="155" rx="12.5" fill="url(#paint0_linear_1_1546)" fill-opacity="0.2"/>
<path id="Vector" d="M137.5 134.584V61.6673C137.5 58.4444 134.89 55.834 131.667 55.834H38.3333C35.1104 55.834 32.5 58.4444 32.5 61.6673V134.584C32.5 137.807 35.1104 140.417 38.3333 140.417H131.667C134.89 140.417 137.5 137.807 137.5 134.584Z" fill="url(#paint1_linear_1_1546)"/>
<path id="Vector_2" d="M50 70.416H120C123.223 70.416 125.833 73.0264 125.833 76.2493C125.833 79.4723 123.223 82.0827 120 82.0827H50C46.7771 82.0827 44.1667 79.4723 44.1667 76.2493C44.1667 73.0264 46.7771 70.416 50 70.416Z" fill="url(#paint2_linear_1_1546)"/>
<path id="Vector_3" d="M117.083 79.1673V32.5007C117.083 30.8907 115.777 29.584 114.167 29.584H111.25C111.25 31.194 109.943 32.5007 108.333 32.5007C106.723 32.5007 105.417 31.194 105.417 29.584H99.5833C99.5833 31.194 98.2767 32.5007 96.6667 32.5007C95.0567 32.5007 93.75 31.194 93.75 29.584H87.9167C87.9167 31.194 86.61 32.5007 85 32.5007C83.39 32.5007 82.0833 31.194 82.0833 29.584H76.25C76.25 31.194 74.9433 32.5007 73.3333 32.5007C71.7233 32.5007 70.4167 31.194 70.4167 29.584H64.5833C64.5833 31.194 63.2767 32.5007 61.6667 32.5007C60.0567 32.5007 58.75 31.194 58.75 29.584H55.8333C54.2233 29.584 52.9167 30.8907 52.9167 32.5007V79.1673H117.083Z" fill="#50E6FF"/>
<path id="Vector_4" d="M52.9167 90.834H117.083C120.306 90.834 122.917 93.4444 122.917 96.6673V102.501C122.917 105.724 120.306 108.334 117.083 108.334H52.9167C49.6937 108.334 47.0833 105.724 47.0833 102.501V96.6673C47.0833 93.4444 49.6937 90.834 52.9167 90.834Z" fill="url(#paint3_linear_1_1546)"/>
<path id="Vector_5" d="M120 131.667H111.25C109.64 131.667 108.333 130.361 108.333 128.751V120.001C108.333 118.391 109.64 117.084 111.25 117.084H120C121.61 117.084 122.917 118.391 122.917 120.001V128.751C122.917 130.361 121.61 131.667 120 131.667Z" fill="#107C42"/>
<path id="Vector_6" d="M58.75 131.667H50C48.39 131.667 47.0833 130.361 47.0833 128.751V120.001C47.0833 118.391 48.39 117.084 50 117.084H58.75C60.36 117.084 61.6667 118.391 61.6667 120.001V128.751C61.6667 130.361 60.36 131.667 58.75 131.667ZM79.1667 131.667H70.4167C68.8067 131.667 67.5 130.361 67.5 128.751V120.001C67.5 118.391 68.8067 117.084 70.4167 117.084H79.1667C80.7767 117.084 82.0833 118.391 82.0833 120.001V128.751C82.0833 130.361 80.7767 131.667 79.1667 131.667ZM99.5833 131.667H90.8333C89.2233 131.667 87.9167 130.361 87.9167 128.751V120.001C87.9167 118.391 89.2233 117.084 90.8333 117.084H99.5833C101.193 117.084 102.5 118.391 102.5 120.001V128.751C102.5 130.361 101.193 131.667 99.5833 131.667Z" fill="#CAD2D9"/>
<path id="Vector_7" d="M117.083 76.25H52.9167V82.0833H117.083V76.25Z" fill="#35C1F1"/>
<path id="Vector_8" opacity="0.05" d="M84.5246 70.7319C82.6725 70.7319 81.1587 69.2385 81.1267 67.3923C79.9396 67.1327 78.7933 66.7769 77.8075 66.3569C76.3229 65.724 75.3633 64.2773 75.3633 62.6702V60.3806C75.3633 58.4294 76.9471 56.8427 78.8983 56.8427H79.0762C76.9325 55.4485 75.0279 53.2581 75.0279 49.5685C75.0279 45.6456 77.335 42.5656 81.1237 41.3056C81.1792 39.4827 82.6812 38.0156 84.5187 38.0156H85.4783C87.2021 38.0156 88.6283 39.3048 88.8471 40.9702C89.7133 41.116 90.4775 41.3173 91.1571 41.5827C91.7521 41.816 93.6742 42.7873 93.6742 45.5319V47.5415C93.6742 49.4869 92.0875 51.0735 90.1392 51.0735H89.7658C92.3442 52.3948 94.9692 54.591 94.9692 58.8756C94.9692 61.9469 93.3475 65.8319 88.8792 67.2756V67.331C88.8792 69.2035 87.3567 70.729 85.4812 70.729H84.5246V70.7319Z" fill="black"/>
<path id="Vector_9" opacity="0.07" d="M84.5246 69.2742C83.4571 69.2742 82.585 68.405 82.585 67.3346V66.1825C81.1092 65.9492 79.6071 65.5379 78.3792 65.0159C77.4342 64.6134 76.8217 63.6917 76.8217 62.6709V60.3813C76.8217 59.235 77.7521 58.3017 78.8983 58.3017H79.2483L79.8375 58.5292C80.4354 58.8354 82.5675 59.8329 85 59.8329C86.6888 59.8329 86.6888 59.3079 86.6888 59.0834C86.6888 58.5117 85.0554 57.9079 83.7458 57.4238C80.8554 56.3534 76.4863 54.7375 76.4863 49.5721C76.4863 45.9467 78.8371 43.2459 82.5792 42.4175V41.4142C82.5792 40.3467 83.4483 39.4746 84.5188 39.4746H85.4783C86.5458 39.4746 87.4179 40.3438 87.4179 41.4142V42.2571C88.6954 42.3796 89.7571 42.6042 90.6292 42.9454C91.1104 43.135 92.2158 43.7621 92.2158 45.5354V47.545C92.2158 48.6884 91.2825 49.6188 90.1392 49.6188H89.8096L89.235 49.4146C88.4708 49.0559 86.89 48.4521 84.9971 48.4521C83.8771 48.4521 83.3083 48.7175 83.3083 49.2396C83.3083 49.9629 84.5654 50.5025 86.4817 51.2463C89.4479 52.3984 93.5079 53.9763 93.5079 58.8792C93.5079 61.7667 91.8833 65.2346 87.4179 66.1592V67.3375C87.4179 68.405 86.5488 69.2771 85.4783 69.2771H84.5246V69.2742Z" fill="black"/>
<path id="Vector_10" d="M92.0525 58.8808C92.0525 51.9712 81.8529 53.3216 81.8529 49.2383C81.8529 47.1062 84.2504 46.9925 84.9971 46.9925C86.7967 46.9925 88.535 47.4766 89.8592 48.0979C90.2792 48.2962 90.7575 48.0046 90.7575 47.5437V45.5341C90.7575 44.8604 90.5037 44.4608 90.0983 44.3004C89.1912 43.9475 87.8875 43.6879 85.9567 43.6237V41.4129C85.9567 41.1475 85.7408 40.9316 85.4754 40.9316H84.5158C84.2504 40.9316 84.0346 41.1475 84.0346 41.4129V43.6616C81.0421 43.9533 77.9417 45.6421 77.9417 49.5708C77.9417 56.7341 88.1412 55.3108 88.1412 59.085C88.1412 60.2721 87.3829 61.2929 84.9971 61.2929C82.5967 61.2929 80.3917 60.4558 79.1725 59.8287C78.7613 59.6187 78.2771 59.9221 78.2771 60.3829V62.6725C78.2771 63.11 78.5425 63.5008 78.9479 63.6758C80.3946 64.2912 82.3342 64.755 84.0404 64.8921V67.3362C84.0404 67.6016 84.2563 67.8175 84.5217 67.8175H85.4813C85.7467 67.8175 85.9625 67.6016 85.9625 67.3362V64.895C90.4367 64.5216 92.0525 61.5262 92.0525 58.8808Z" fill="white"/>
<rect x="7.5" y="7.5" width="155" height="155" rx="12.5" stroke="#D5EAF6" stroke-width="15"/>
</g>
<defs>
<linearGradient id="paint0_linear_1_1546" x1="85" y1="15" x2="85" y2="155" gradientUnits="userSpaceOnUse">
<stop stop-color="#199AE0"/>
<stop offset="0.472222" stop-color="#0D5176" stop-opacity="0.527778"/>
<stop offset="0.940972" stop-color="#12A6F7" stop-opacity="0.465278"/>
<stop offset="1" stop-opacity="0"/>
</linearGradient>
<linearGradient id="paint1_linear_1_1546" x1="85" y1="54.2823" x2="85" y2="140.735" gradientUnits="userSpaceOnUse">
<stop stop-color="#899198"/>
<stop offset="1" stop-color="#787E85"/>
</linearGradient>
<linearGradient id="paint2_linear_1_1546" x1="85" y1="82.1439" x2="85" y2="70.8506" gradientUnits="userSpaceOnUse">
<stop stop-color="#0D61A9"/>
<stop offset="1" stop-color="#16528C"/>
</linearGradient>
<linearGradient id="paint3_linear_1_1546" x1="48.8712" y1="90.1106" x2="119.863" y2="108.728" gradientUnits="userSpaceOnUse">
<stop stop-color="#4FE5FF"/>
<stop offset="1" stop-color="#2EB7ED"/>
</linearGradient>
</defs>
</svg>
