<svg width="170" height="170" viewBox="0 0 170 170" fill="none" xmlns="http://www.w3.org/2000/svg">
<g id="rename">
<rect x="7.5" y="7.5" width="155" height="155" rx="12.5" fill="white"/>
<rect x="7.5" y="7.5" width="155" height="155" rx="12.5" fill="url(#paint0_linear_1_1557)" fill-opacity="0.2"/>
<path id="Vector" d="M26.6667 61.6673V108.334C26.6667 111.557 29.2771 114.167 32.5 114.167H137.5C140.723 114.167 143.333 111.557 143.333 108.334V61.6673C143.333 58.4444 140.723 55.834 137.5 55.834H32.5C29.2771 55.834 26.6667 58.4444 26.6667 61.6673Z" fill="url(#paint1_linear_1_1557)"/>
<path id="Vector_2" d="M125.833 143.333H122.917C110.031 143.333 99.5833 132.885 99.5833 119.999V49.9993C99.5833 37.1135 110.031 26.666 122.917 26.666H125.833C127.443 26.666 128.75 27.9727 128.75 29.5827V35.416C128.75 37.026 127.443 38.3327 125.833 38.3327H122.917C116.474 38.3327 111.25 43.5564 111.25 49.9993V119.999C111.25 126.442 116.474 131.666 122.917 131.666H125.833C127.443 131.666 128.75 132.973 128.75 134.583V140.416C128.75 142.026 127.443 143.333 125.833 143.333Z" fill="#057093"/>
<path id="Vector_3" d="M85 143.333H87.9167C100.802 143.333 111.25 132.885 111.25 119.999V49.9993C111.25 37.1135 100.802 26.666 87.9167 26.666H85C83.39 26.666 82.0833 27.9727 82.0833 29.5827V35.416C82.0833 37.026 83.39 38.3327 85 38.3327H87.9167C94.3596 38.3327 99.5833 43.5564 99.5833 49.9993V119.999C99.5833 126.442 94.3596 131.666 87.9167 131.666H85C83.39 131.666 82.0833 132.973 82.0833 134.583V140.416C82.0833 142.026 83.39 143.333 85 143.333Z" fill="#057093"/>
<rect x="7.5" y="7.5" width="155" height="155" rx="12.5" stroke="#D5EAF6" stroke-width="15"/>
</g>
<defs>
<linearGradient id="paint0_linear_1_1557" x1="85" y1="15" x2="85" y2="155" gradientUnits="userSpaceOnUse">
<stop stop-color="#199AE0"/>
<stop offset="0.472222" stop-color="#0D5176" stop-opacity="0.527778"/>
<stop offset="0.940972" stop-color="#12A6F7" stop-opacity="0.465278"/>
<stop offset="1" stop-opacity="0"/>
</linearGradient>
<linearGradient id="paint1_linear_1_1557" x1="26.6667" y1="85.0007" x2="143.333" y2="85.0007" gradientUnits="userSpaceOnUse">
<stop stop-color="#50E6FF"/>
<stop offset="0.55" stop-color="#50E6FF"/>
<stop offset="0.58" stop-color="#4FE3FC"/>
<stop offset="0.601" stop-color="#4EDAF4"/>
<stop offset="0.62" stop-color="#4ACAE7"/>
<stop offset="0.637" stop-color="#46B4D3"/>
<stop offset="0.64" stop-color="#45B0D0"/>
<stop offset="0.71" stop-color="#45B0D0"/>
<stop offset="0.713" stop-color="#46B4D3"/>
<stop offset="0.73" stop-color="#4ACAE7"/>
<stop offset="0.749" stop-color="#4EDAF4"/>
<stop offset="0.77" stop-color="#4FE3FC"/>
<stop offset="0.8" stop-color="#50E6FF"/>
<stop offset="1" stop-color="#50E6FF"/>
</linearGradient>
</defs>
</svg>
