<svg width="170" height="170" viewBox="0 0 170 170" fill="none" xmlns="http://www.w3.org/2000/svg">
<g id="renew">
<rect x="7.5" y="7.5" width="155" height="155" rx="12.5" fill="white"/>
<rect x="7.5" y="7.5" width="155" height="155" rx="12.5" fill="url(#paint0_linear_1_1561)" fill-opacity="0.2"/>
<path id="Vector" d="M140.417 47.084H131.667V134.584H140.417C143.64 134.584 146.25 131.974 146.25 128.751V52.9173C146.25 49.6944 143.64 47.084 140.417 47.084Z" fill="url(#paint1_linear_1_1561)"/>
<path id="Vector_2" d="M134.583 128.749V41.2493C134.583 38.0264 131.973 35.416 128.75 35.416H29.5833C26.3604 35.416 23.75 38.0264 23.75 41.2493V128.749C23.75 131.972 26.3604 134.583 29.5833 134.583H140.417C137.194 134.583 134.583 131.972 134.583 128.749Z" fill="#5286FF"/>
<path id="Vector_3" d="M122.917 64.5827H35.4167C33.8067 64.5827 32.5 63.276 32.5 61.666V55.8327C32.5 54.2227 33.8067 52.916 35.4167 52.916H122.917C124.527 52.916 125.833 54.2227 125.833 55.8327V61.666C125.833 63.276 124.527 64.5827 122.917 64.5827Z" fill="white"/>
<path id="Vector_4" d="M70.4167 120H35.4167C33.8067 120 32.5 118.693 32.5 117.083V79.1667C32.5 77.5567 33.8067 76.25 35.4167 76.25H70.4167C72.0267 76.25 73.3333 77.5567 73.3333 79.1667V117.083C73.3333 118.693 72.0267 120 70.4167 120Z" fill="white"/>
<path id="Vector_5" d="M125.833 85H85V79.1667C85 77.5567 86.3067 76.25 87.9167 76.25H122.917C124.527 76.25 125.833 77.5567 125.833 79.1667V85Z" fill="white"/>
<path id="Vector_6" d="M125.833 85H85V93.75H125.833V85Z" fill="#E6EEFF"/>
<path id="Vector_7" d="M125.833 93.75H85V102.5H125.833V93.75Z" fill="#CCDCFF"/>
<path id="Vector_8" d="M125.833 102.5H85V111.25H125.833V102.5Z" fill="#B3CBFF"/>
<path id="Vector_9" d="M122.917 120H87.9167C86.3067 120 85 118.693 85 117.083V111.25H125.833V117.083C125.833 118.693 124.527 120 122.917 120Z" fill="#9ABAFF"/>
<path id="Vector_10" d="M125.833 90.834C106.534 90.834 90.8333 106.534 90.8333 125.834C90.8333 128.859 91.2592 131.781 91.9854 134.584H140.417C143.64 134.584 146.25 131.974 146.25 128.751V97.4636C140.495 93.3102 133.458 90.834 125.833 90.834Z" fill="url(#paint2_radial_1_1561)"/>
<path id="Vector_11" d="M155 125.833C155 141.939 141.939 154.999 125.833 154.999C109.727 154.999 96.6667 141.939 96.6667 125.833C96.6667 109.727 109.727 96.666 125.833 96.666C141.939 96.666 155 109.727 155 125.833Z" fill="url(#paint3_linear_1_1561)"/>
<path id="Vector_12" opacity="0.05" d="M125.862 144.899C120.825 144.899 116.063 143.053 112.437 139.705C105.39 133.18 104.183 122.257 109.445 114.304L108.631 113.49C107.508 112.367 107.178 110.696 107.785 109.231C108.389 107.767 109.803 106.822 111.39 106.822H120.239C122.619 106.822 124.559 108.762 124.559 111.142V119.991C124.559 122.146 122.803 123.899 120.645 123.899C119.635 123.899 118.679 123.511 117.947 122.809C117.588 123.978 117.489 125.221 117.661 126.44C117.993 128.773 119.283 130.803 121.289 132.151C122.622 133.049 124.2 133.521 125.851 133.521C127.502 133.521 129.08 133.049 130.412 132.151C132.442 130.786 133.746 128.732 134.079 126.37C134.411 124.028 133.737 121.651 132.23 119.854C130.888 118.25 130.975 115.937 132.437 114.476L134.936 111.976C135.677 111.235 136.701 110.812 137.754 110.812C138.883 110.812 139.956 111.294 140.697 112.136C147.717 120.114 147.078 132.486 139.27 139.714C135.654 143.056 130.891 144.899 125.862 144.899Z" fill="black"/>
<path id="Vector_13" opacity="0.07" d="M125.86 143.442C121.193 143.442 116.78 141.732 113.429 138.635C106.537 132.253 105.717 121.54 111.343 114.147L109.66 112.461C108.958 111.758 108.747 110.711 109.13 109.792C109.509 108.876 110.395 108.281 111.387 108.281H120.236C121.814 108.281 123.097 109.565 123.097 111.143V119.992C123.097 121.342 121.995 122.442 120.642 122.442C119.994 122.442 119.382 122.185 118.918 121.721L117.474 120.278C116.354 122.182 115.899 124.434 116.214 126.647C116.608 129.395 118.116 131.781 120.472 133.365C122.045 134.42 123.905 134.983 125.851 134.983C127.796 134.983 129.657 134.423 131.229 133.365C133.603 131.766 135.132 129.357 135.525 126.578C135.916 123.827 135.123 121.036 133.352 118.918C132.498 117.898 132.55 116.43 133.472 115.509L135.972 113.009C136.441 112.54 137.092 112.271 137.757 112.271C138.465 112.271 139.142 112.575 139.606 113.1C146.107 120.49 145.512 131.947 138.282 138.644C134.936 141.735 130.523 143.442 125.86 143.442Z" fill="black"/>
<path id="Vector_14" d="M138.521 114.062C138.13 113.615 137.427 113.616 137.007 114.036L134.508 116.535C134.111 116.932 134.117 117.55 134.475 117.979C138.632 122.946 137.824 130.687 132.046 134.572C128.348 137.06 123.36 137.06 119.662 134.572C113.89 130.69 113.137 122.99 117.285 118.026L119.95 120.691C120.575 121.315 121.639 120.872 121.639 119.991V111.142C121.639 110.366 121.009 109.736 120.233 109.736H111.384C110.503 109.736 110.063 110.801 110.684 111.425L113.303 114.044C107.292 120.817 107.619 131.273 114.412 137.561C120.776 143.453 130.92 143.456 137.287 137.564C144.071 131.296 144.48 120.837 138.521 114.062Z" fill="white"/>
<rect x="7.5" y="7.5" width="155" height="155" rx="12.5" stroke="#D5EAF6" stroke-width="15"/>
</g>
<defs>
<linearGradient id="paint0_linear_1_1561" x1="85" y1="15" x2="85" y2="155" gradientUnits="userSpaceOnUse">
<stop stop-color="#199AE0"/>
<stop offset="0.472222" stop-color="#0D5176" stop-opacity="0.527778"/>
<stop offset="0.940972" stop-color="#12A6F7" stop-opacity="0.465278"/>
<stop offset="1" stop-opacity="0"/>
</linearGradient>
<linearGradient id="paint1_linear_1_1561" x1="134.636" y1="90.834" x2="146.763" y2="90.834" gradientUnits="userSpaceOnUse">
<stop stop-color="#3537B0"/>
<stop offset="1" stop-color="#4646CF"/>
</linearGradient>
<radialGradient id="paint2_radial_1_1561" cx="0" cy="0" r="1" gradientUnits="userSpaceOnUse" gradientTransform="translate(125.615 125.989) scale(34.8658)">
<stop/>
<stop offset="1" stop-opacity="0"/>
</radialGradient>
<linearGradient id="paint3_linear_1_1561" x1="95.9842" y1="95.9835" x2="140.778" y2="140.778" gradientUnits="userSpaceOnUse">
<stop stop-color="#05ACB3"/>
<stop offset="1" stop-color="#038387"/>
</linearGradient>
</defs>
</svg>
