<svg width="170" height="170" viewBox="0 0 170 170" fill="none" xmlns="http://www.w3.org/2000/svg">
<g id="repeat">
<rect x="7.5" y="7.5" width="155" height="155" rx="12.5" fill="white"/>
<rect x="7.5" y="7.5" width="155" height="155" rx="12.5" fill="url(#paint0_linear_1_1576)" fill-opacity="0.2"/>
<path id="Vector" d="M52.9167 114.168V90.948C52.9167 89.5568 52.4179 88.2093 51.5137 87.1505L40.55 74.358C38.7854 72.3018 35.4167 73.5501 35.4167 76.2568V114.168H52.9167Z" fill="#0368BA"/>
<path id="Vector_2" d="M117.083 55.834V79.0536C117.083 80.4448 117.582 81.7923 118.486 82.8511L129.45 95.6436C131.215 97.6998 134.583 96.4515 134.583 93.7448V55.834H117.083Z" fill="#0368BA"/>
<path id="Vector_3" d="M108.333 101.945V114.166H35.4167L49.4983 128.247C51.6858 130.435 54.655 131.666 57.7467 131.666H108.333V143.887C108.333 145.987 110.871 147.037 112.355 145.552L131.9 126.007C133.609 124.298 133.609 121.527 131.9 119.821L112.355 100.277C110.871 98.792 108.333 99.8449 108.333 101.945Z" fill="#0884DB"/>
<path id="Vector_4" d="M61.6667 68.0543V55.8335H134.583L120.502 41.7518C118.311 39.5614 115.345 38.3335 112.25 38.3335H61.6667V26.1127C61.6667 24.0127 59.1292 22.9627 57.6446 24.4473L38.1 43.9889C36.3908 45.6981 36.3908 48.4689 38.1 50.1752L57.6446 69.7198C59.1292 71.2073 61.6667 70.1543 61.6667 68.0543Z" fill="#0884DB"/>
<rect x="7.5" y="7.5" width="155" height="155" rx="12.5" stroke="#D5EAF6" stroke-width="15"/>
</g>
<defs>
<linearGradient id="paint0_linear_1_1576" x1="85" y1="15" x2="85" y2="155" gradientUnits="userSpaceOnUse">
<stop stop-color="#199AE0"/>
<stop offset="0.472222" stop-color="#0D5176" stop-opacity="0.527778"/>
<stop offset="0.940972" stop-color="#12A6F7" stop-opacity="0.465278"/>
<stop offset="1" stop-opacity="0"/>
</linearGradient>
</defs>
</svg>
