<svg width="170" height="170" viewBox="0 0 170 170" fill="none" xmlns="http://www.w3.org/2000/svg">
<g id="resume-website">
<rect x="7.5" y="7.5" width="155" height="155" rx="12.5" fill="white"/>
<rect x="7.5" y="7.5" width="155" height="155" rx="12.5" fill="url(#paint0_linear_1_1620)" fill-opacity="0.2"/>
<path id="Vector" d="M26.6667 125.833V58.75H143.333V125.833C143.333 129.042 140.708 131.667 137.5 131.667H32.5C29.2917 131.667 26.6667 129.042 26.6667 125.833Z" fill="#50E6FF"/>
<path id="Vector_2" d="M143.333 44.1673V58.7507H26.6667V44.1673C26.6667 40.959 29.2917 38.334 32.5 38.334H137.5C140.708 38.334 143.333 40.959 143.333 44.1673Z" fill="url(#paint1_linear_1_1620)"/>
<path id="Vector_3" d="M63.125 52.916H136.042C136.847 52.916 137.5 52.2627 137.5 51.4577V45.6243C137.5 44.8193 136.847 44.166 136.042 44.166H63.125C62.32 44.166 61.6667 44.8193 61.6667 45.6243V51.4577C61.6667 52.2627 62.32 52.916 63.125 52.916Z" fill="url(#paint2_linear_1_1620)"/>
<path id="Vector_4" d="M36.875 52.916C39.2912 52.916 41.25 50.9573 41.25 48.541C41.25 46.1248 39.2912 44.166 36.875 44.166C34.4588 44.166 32.5 46.1248 32.5 48.541C32.5 50.9573 34.4588 52.916 36.875 52.916Z" fill="url(#paint3_linear_1_1620)"/>
<path id="Vector_5" d="M51.4583 52.916C53.8746 52.916 55.8333 50.9573 55.8333 48.541C55.8333 46.1248 53.8746 44.166 51.4583 44.166C49.0421 44.166 47.0833 46.1248 47.0833 48.541C47.0833 50.9573 49.0421 52.916 51.4583 52.916Z" fill="url(#paint4_linear_1_1620)"/>
<path id="Vector_6" d="M58.75 90.8327C61.9717 90.8327 64.5833 88.221 64.5833 84.9993C64.5833 81.7777 61.9717 79.166 58.75 79.166C55.5283 79.166 52.9167 81.7777 52.9167 84.9993C52.9167 88.221 55.5283 90.8327 58.75 90.8327Z" fill="#057093"/>
<path id="Vector_7" d="M58.75 93.75C53.9171 93.75 50 97.6671 50 102.5V109.5C50 110.465 50.7846 111.25 51.75 111.25H65.75C66.7154 111.25 67.5 110.465 67.5 109.5V102.5C67.5 97.6671 63.5829 93.75 58.75 93.75Z" fill="#057093"/>
<path id="Vector_8" d="M117.083 93.75H82.0833C80.4733 93.75 79.1667 95.0567 79.1667 96.6667C79.1667 98.2767 80.4733 99.5833 82.0833 99.5833H117.083C118.693 99.5833 120 98.2767 120 96.6667C120 95.0567 118.693 93.75 117.083 93.75Z" fill="#057093"/>
<path id="Vector_9" d="M105.417 105.416H82.0833C80.4733 105.416 79.1667 106.723 79.1667 108.333C79.1667 109.943 80.4733 111.249 82.0833 111.249H105.417C107.027 111.249 108.333 109.943 108.333 108.333C108.333 106.723 107.027 105.416 105.417 105.416Z" fill="#057093"/>
<path id="Vector_10" d="M117.083 82.084H82.0833C80.4733 82.084 79.1667 83.3907 79.1667 85.0007C79.1667 86.6107 80.4733 87.9173 82.0833 87.9173H117.083C118.693 87.9173 120 86.6107 120 85.0007C120 83.3907 118.693 82.084 117.083 82.084Z" fill="#057093"/>
<rect x="7.5" y="7.5" width="155" height="155" rx="12.5" stroke="#D5EAF6" stroke-width="15"/>
</g>
<defs>
<linearGradient id="paint0_linear_1_1620" x1="85" y1="15" x2="85" y2="155" gradientUnits="userSpaceOnUse">
<stop stop-color="#199AE0"/>
<stop offset="0.472222" stop-color="#0D5176" stop-opacity="0.527778"/>
<stop offset="0.940972" stop-color="#12A6F7" stop-opacity="0.465278"/>
<stop offset="1" stop-opacity="0"/>
</linearGradient>
<linearGradient id="paint1_linear_1_1620" x1="28.4575" y1="37.5786" x2="140.23" y2="60.3052" gradientUnits="userSpaceOnUse">
<stop stop-color="#0077D2"/>
<stop offset="1" stop-color="#0B59A2"/>
</linearGradient>
<linearGradient id="paint2_linear_1_1620" x1="61.6667" y1="48.541" x2="137.5" y2="48.541" gradientUnits="userSpaceOnUse">
<stop stop-color="#7DD8F3"/>
<stop offset="1" stop-color="#45B0D0"/>
</linearGradient>
<linearGradient id="paint3_linear_1_1620" x1="34.6904" y1="45.3793" x2="38.4267" y2="50.7839" gradientUnits="userSpaceOnUse">
<stop stop-color="#75DAFF"/>
<stop offset="1" stop-color="#49BEF1"/>
</linearGradient>
<linearGradient id="paint4_linear_1_1620" x1="49.2737" y1="45.3793" x2="53.01" y2="50.7839" gradientUnits="userSpaceOnUse">
<stop stop-color="#75DAFF"/>
<stop offset="1" stop-color="#49BEF1"/>
</linearGradient>
</defs>
</svg>
