<svg width="170" height="170" viewBox="0 0 170 170" fill="none" xmlns="http://www.w3.org/2000/svg">
<g id="rocket">
<rect x="7.5" y="7.5" width="155" height="155" rx="12.5" fill="white"/>
<rect x="7.5" y="7.5" width="155" height="155" rx="12.5" fill="url(#paint0_linear_1_1640)" fill-opacity="0.2"/>
<path id="Vector" d="M47.4362 134.935C44.0179 138.354 29.2275 140.769 29.2275 140.769C29.2275 140.769 31.6425 125.978 35.0608 122.56C38.4792 119.142 44.0179 119.142 47.4362 122.56C50.8546 125.978 50.8546 131.52 47.4362 134.935Z" fill="url(#paint1_linear_1_1640)"/>
<path id="Vector_2" d="M44.5196 131.667C42.8133 133.377 35.4167 134.584 35.4167 134.584C35.4167 134.584 36.6242 127.187 38.3333 125.481C40.0425 123.772 42.8133 123.772 44.5196 125.481C46.2287 127.187 46.2287 129.958 44.5196 131.667Z" fill="url(#paint2_linear_1_1640)"/>
<path id="Vector_3" d="M50.1925 127.896L42.1046 119.808C41.0779 118.781 40.9642 117.157 41.8333 115.996L49.0667 106.354L63.65 120.937L54.0075 128.17C52.8437 129.039 51.2192 128.923 50.1925 127.896Z" fill="#199BE2"/>
<path id="Vector_4" d="M136.762 29.7431C130.485 30.1893 117.699 31.8839 111.25 38.3326L108.835 40.7476L129.252 61.1643L131.667 58.7493C138.115 52.3006 139.81 39.5139 140.256 33.2372C140.399 31.2393 138.76 29.6001 136.762 29.7431Z" fill="#50E6FF"/>
<path id="Vector_5" d="M111.25 38.3316L47.0839 102.5L67.4999 122.915L131.666 58.7469L111.25 38.3316Z" fill="#35C1F1"/>
<path id="Vector_6" d="M47.0833 102.5L45.8758 103.707C43.5979 105.985 43.5979 109.678 45.8758 111.956L58.0442 124.124C60.3221 126.402 64.0146 126.402 66.2925 124.124L67.5 122.917L47.0833 102.5Z" fill="#50E6FF"/>
<path id="Vector_7" d="M103.958 76.2507C109.596 76.2507 114.167 71.6802 114.167 66.0423C114.167 60.4044 109.596 55.834 103.958 55.834C98.3204 55.834 93.75 60.4044 93.75 66.0423C93.75 71.6802 98.3204 76.2507 103.958 76.2507Z" fill="#50E6FF"/>
<path id="Vector_8" d="M103.958 73.3333C107.985 73.3333 111.25 70.0687 111.25 66.0417C111.25 62.0146 107.985 58.75 103.958 58.75C99.9313 58.75 96.6667 62.0146 96.6667 66.0417C96.6667 70.0687 99.9313 73.3333 103.958 73.3333Z" fill="#0078D4"/>
<path id="Vector_9" d="M83.5417 96.6667C89.1796 96.6667 93.75 92.0962 93.75 86.4583C93.75 80.8204 89.1796 76.25 83.5417 76.25C77.9038 76.25 73.3333 80.8204 73.3333 86.4583C73.3333 92.0962 77.9038 96.6667 83.5417 96.6667Z" fill="#50E6FF"/>
<path id="Vector_10" d="M83.5417 93.7493C87.5687 93.7493 90.8333 90.4848 90.8333 86.4577C90.8333 82.4306 87.5687 79.166 83.5417 79.166C79.5146 79.166 76.25 82.4306 76.25 86.4577C76.25 90.4848 79.5146 93.7493 83.5417 93.7493Z" fill="#0078D4"/>
<path id="Vector_11" d="M85 105.416V125.124C85 127.446 84.0783 129.671 82.4363 131.31L73.3333 140.416L67.5 122.916L85 105.416Z" fill="#199BE2"/>
<path id="Vector_12" d="M64.5833 85H44.8754C42.5537 85 40.3283 85.9217 38.6892 87.5637L29.5833 96.6667L47.0833 102.5L64.5833 85Z" fill="#199BE2"/>
<rect x="7.5" y="7.5" width="155" height="155" rx="12.5" stroke="#D5EAF6" stroke-width="15"/>
</g>
<defs>
<linearGradient id="paint0_linear_1_1640" x1="85" y1="15" x2="85" y2="155" gradientUnits="userSpaceOnUse">
<stop stop-color="#199AE0"/>
<stop offset="0.472222" stop-color="#0D5176" stop-opacity="0.527778"/>
<stop offset="0.940972" stop-color="#12A6F7" stop-opacity="0.465278"/>
<stop offset="1" stop-opacity="0"/>
</linearGradient>
<linearGradient id="paint1_linear_1_1640" x1="42.6443" y1="120.755" x2="37.9664" y2="142.757" gradientUnits="userSpaceOnUse">
<stop stop-color="#F44F5A"/>
<stop offset="0.443" stop-color="#EE3D4A"/>
<stop offset="1" stop-color="#E52030"/>
</linearGradient>
<linearGradient id="paint2_linear_1_1640" x1="35.5421" y1="134.459" x2="43.5833" y2="126.417" gradientUnits="userSpaceOnUse">
<stop stop-color="#FFCF7B"/>
<stop offset="0.195" stop-color="#FECD76"/>
<stop offset="0.439" stop-color="#FAC666"/>
<stop offset="0.71" stop-color="#F3BC4D"/>
<stop offset="0.997" stop-color="#EAAD29"/>
<stop offset="1" stop-color="#EAAD29"/>
</linearGradient>
</defs>
</svg>
