<svg width="170" height="170" viewBox="0 0 170 170" fill="none" xmlns="http://www.w3.org/2000/svg">
<g id="round">
<rect x="7.5" y="7.5" width="155" height="155" rx="12.5" fill="white"/>
<rect x="7.5" y="7.5" width="155" height="155" rx="12.5" fill="url(#paint0_linear_1_1657)" fill-opacity="0.2"/>
<path id="Vector" d="M143.333 84.9994C143.333 117.214 117.215 143.333 85 143.333C52.7854 143.333 26.6667 117.214 26.6667 84.9994C26.6667 52.7848 52.7854 26.666 85 26.666C117.215 26.666 143.333 52.7848 143.333 84.9994Z" fill="url(#paint1_linear_1_1657)"/>
<path id="Vector_2" opacity="0.15" d="M85 138.958C114.8 138.958 138.958 114.8 138.958 84.9994C138.958 55.199 114.8 31.041 85 31.041C55.1996 31.041 31.0417 55.199 31.0417 84.9994C31.0417 114.8 55.1996 138.958 85 138.958Z" fill="url(#paint2_radial_1_1657)"/>
<path id="Vector_3" d="M85 134.583C112.384 134.583 134.583 112.383 134.583 84.9994C134.583 57.6152 112.384 35.416 85 35.416C57.6159 35.416 35.4167 57.6152 35.4167 84.9994C35.4167 112.383 57.6159 134.583 85 134.583Z" fill="url(#paint3_radial_1_1657)"/>
<rect x="7.5" y="7.5" width="155" height="155" rx="12.5" stroke="#D5EAF6" stroke-width="15"/>
</g>
<defs>
<linearGradient id="paint0_linear_1_1657" x1="85" y1="15" x2="85" y2="155" gradientUnits="userSpaceOnUse">
<stop stop-color="#199AE0"/>
<stop offset="0.472222" stop-color="#0D5176" stop-opacity="0.527778"/>
<stop offset="0.940972" stop-color="#12A6F7" stop-opacity="0.465278"/>
<stop offset="1" stop-opacity="0"/>
</linearGradient>
<linearGradient id="paint1_linear_1_1657" x1="43.7525" y1="43.7518" x2="126.248" y2="126.247" gradientUnits="userSpaceOnUse">
<stop stop-color="#0176D0"/>
<stop offset="1" stop-color="#22A5E2"/>
</linearGradient>
<radialGradient id="paint2_radial_1_1657" cx="0" cy="0" r="1" gradientUnits="userSpaceOnUse" gradientTransform="translate(85 84.9994) scale(53.9583)">
<stop offset="0.847"/>
<stop offset="1" stop-opacity="0"/>
</radialGradient>
<radialGradient id="paint3_radial_1_1657" cx="0" cy="0" r="1" gradientUnits="userSpaceOnUse" gradientTransform="translate(57.5104 47.6252) scale(97.5625)">
<stop stop-color="#FAFAFB"/>
<stop offset="0.293" stop-color="#F6F7F8"/>
<stop offset="0.566" stop-color="#EBECEE"/>
<stop offset="0.832" stop-color="#D8DCDF"/>
<stop offset="1" stop-color="#C8CDD1"/>
</radialGradient>
</defs>
</svg>
