<svg width="170" height="170" viewBox="0 0 170 170" fill="none" xmlns="http://www.w3.org/2000/svg">
<g id="rss">
<rect x="7.5" y="7.5" width="155" height="155" rx="12.5" fill="white"/>
<rect x="7.5" y="7.5" width="155" height="155" rx="12.5" fill="url(#paint0_linear_1_1661)" fill-opacity="0.2"/>
<path id="Vector" d="M120 32.5H50C40.3342 32.5 32.5 40.3342 32.5 50V120C32.5 129.666 40.3342 137.5 50 137.5H120C129.666 137.5 137.5 129.666 137.5 120V50C137.5 40.3342 129.666 32.5 120 32.5Z" fill="url(#paint1_linear_1_1661)"/>
<path id="Vector_2" opacity="0.05" d="M57.2917 125.834C64.5404 125.834 70.4167 119.958 70.4167 112.709C70.4167 105.46 64.5404 99.584 57.2917 99.584C50.0429 99.584 44.1667 105.46 44.1667 112.709C44.1667 119.958 50.0429 125.834 57.2917 125.834Z" fill="black"/>
<path id="Vector_3" opacity="0.07" d="M57.2917 124.374C63.735 124.374 68.9583 119.151 68.9583 112.708C68.9583 106.264 63.735 101.041 57.2917 101.041C50.8483 101.041 45.625 106.264 45.625 112.708C45.625 119.151 50.8483 124.374 57.2917 124.374Z" fill="black"/>
<path id="Vector_4" d="M67.5 112.708C67.5 107.167 62.8333 102.5 57.2917 102.5C51.75 102.5 47.0833 107.167 47.0833 112.708C47.0833 118.25 51.75 122.917 57.2917 122.917C62.8333 122.917 67.5 118.25 67.5 112.708Z" fill="white"/>
<path id="Vector_5" opacity="0.05" d="M85 125.834C81.7829 125.834 79.1667 123.218 79.1667 120.001C79.1667 103.918 66.0825 90.834 50 90.834C46.7829 90.834 44.1667 88.2177 44.1667 85.0007V79.1673C44.1667 75.9502 46.7829 73.334 50 73.334C75.7308 73.334 96.6667 94.2698 96.6667 120.001C96.6667 123.218 94.0504 125.834 90.8333 125.834H85Z" fill="black"/>
<path id="Vector_6" opacity="0.07" d="M85 124.374C82.5879 124.374 80.625 122.411 80.625 119.999C80.625 103.112 66.8875 89.3743 50 89.3743C47.5879 89.3743 45.625 87.4114 45.625 84.9993V79.166C45.625 76.7539 47.5879 74.791 50 74.791C74.9288 74.791 95.2083 95.0706 95.2083 119.999C95.2083 122.411 93.2454 124.374 90.8333 124.374H85Z" fill="black"/>
<path id="Vector_7" d="M90.8333 122.917H85C83.39 122.917 82.0833 121.61 82.0833 120C82.0833 102.281 67.7187 87.9167 50 87.9167C48.39 87.9167 47.0833 86.61 47.0833 85V79.1667C47.0833 77.5567 48.39 76.25 50 76.25C74.1617 76.25 93.75 95.8383 93.75 120C93.75 121.61 92.4433 122.917 90.8333 122.917Z" fill="white"/>
<path id="Vector_8" opacity="0.05" d="M114.167 125.833C110.95 125.833 108.333 123.216 108.333 119.999C108.333 87.8344 82.165 61.666 50 61.666C46.7829 61.666 44.1667 59.0498 44.1667 55.8327V49.9993C44.1667 46.7823 46.7829 44.166 50 44.166C91.8162 44.166 125.833 78.186 125.833 119.999C125.833 123.216 123.217 125.833 120 125.833H114.167Z" fill="black"/>
<path id="Vector_9" opacity="0.07" d="M114.167 124.375C111.755 124.375 109.792 122.412 109.792 120C109.792 87.03 82.97 60.2083 50 60.2083C47.5879 60.2083 45.625 58.2454 45.625 55.8333V50C45.625 47.5879 47.5879 45.625 50 45.625C91.0113 45.625 124.375 78.9888 124.375 120C124.375 122.412 122.412 124.375 120 124.375H114.167Z" fill="black"/>
<path id="Vector_10" d="M120 122.917H114.167C112.557 122.917 111.25 121.611 111.25 120.001C111.25 86.1732 83.8275 58.7507 50 58.7507C48.39 58.7507 47.0833 57.444 47.0833 55.834V50.0007C47.0833 48.3907 48.39 47.084 50 47.084C90.2704 47.084 122.917 79.7302 122.917 120.001C122.917 121.611 121.61 122.917 120 122.917Z" fill="white"/>
<rect x="7.5" y="7.5" width="155" height="155" rx="12.5" stroke="#D5EAF6" stroke-width="15"/>
</g>
<defs>
<linearGradient id="paint0_linear_1_1661" x1="85" y1="15" x2="85" y2="155" gradientUnits="userSpaceOnUse">
<stop stop-color="#199AE0"/>
<stop offset="0.472222" stop-color="#0D5176" stop-opacity="0.527778"/>
<stop offset="0.940972" stop-color="#12A6F7" stop-opacity="0.465278"/>
<stop offset="1" stop-opacity="0"/>
</linearGradient>
<linearGradient id="paint1_linear_1_1661" x1="33.865" y1="33.865" x2="125.253" y2="125.253" gradientUnits="userSpaceOnUse">
<stop stop-color="#FFDA1C"/>
<stop offset="1" stop-color="#FEB705"/>
</linearGradient>
</defs>
</svg>
