<svg width="170" height="170" viewBox="0 0 170 170" fill="none" xmlns="http://www.w3.org/2000/svg">
<g id="rubik&#39;s-cube">
<rect x="7.5" y="7.5" width="155" height="155" rx="12.5" fill="white"/>
<rect x="7.5" y="7.5" width="155" height="155" rx="12.5" fill="url(#paint0_linear_1_1672)" fill-opacity="0.2"/>
<path id="Vector" d="M38.3333 137.5C35.125 137.5 32.5 134.875 32.5 131.667V108.333C32.5 105.125 35.125 102.5 38.3333 102.5H61.6667C64.875 102.5 67.5 105.125 67.5 108.333V131.667C67.5 134.875 64.875 137.5 61.6667 137.5H38.3333Z" fill="url(#paint1_linear_1_1672)"/>
<path id="Vector_2" d="M73.3333 137.5C70.125 137.5 67.5 134.875 67.5 131.667V108.333C67.5 105.125 70.125 102.5 73.3333 102.5H96.6667C99.875 102.5 102.5 105.125 102.5 108.333V131.667C102.5 134.875 99.875 137.5 96.6667 137.5H73.3333Z" fill="url(#paint2_linear_1_1672)"/>
<path id="Vector_3" d="M108.333 137.5C105.125 137.5 102.5 134.875 102.5 131.667V108.333C102.5 105.125 105.125 102.5 108.333 102.5H131.667C134.875 102.5 137.5 105.125 137.5 108.333V131.667C137.5 134.875 134.875 137.5 131.667 137.5H108.333Z" fill="url(#paint3_linear_1_1672)"/>
<path id="Vector_4" d="M38.3333 102.5C35.125 102.5 32.5 99.875 32.5 96.6667V73.3333C32.5 70.125 35.125 67.5 38.3333 67.5H61.6667C64.875 67.5 67.5 70.125 67.5 73.3333V96.6667C67.5 99.875 64.875 102.5 61.6667 102.5H38.3333Z" fill="url(#paint4_linear_1_1672)"/>
<path id="Vector_5" d="M73.3333 102.5C70.125 102.5 67.5 99.875 67.5 96.6667V73.3333C67.5 70.125 70.125 67.5 73.3333 67.5H96.6667C99.875 67.5 102.5 70.125 102.5 73.3333V96.6667C102.5 99.875 99.875 102.5 96.6667 102.5H73.3333Z" fill="url(#paint5_linear_1_1672)"/>
<path id="Vector_6" d="M108.333 102.5C105.125 102.5 102.5 99.875 102.5 96.6667V73.3333C102.5 70.125 105.125 67.5 108.333 67.5H131.667C134.875 67.5 137.5 70.125 137.5 73.3333V96.6667C137.5 99.875 134.875 102.5 131.667 102.5H108.333Z" fill="url(#paint6_linear_1_1672)"/>
<path id="Vector_7" d="M38.3333 67.5C35.125 67.5 32.5 64.875 32.5 61.6667V38.3333C32.5 35.125 35.125 32.5 38.3333 32.5H61.6667C64.875 32.5 67.5 35.125 67.5 38.3333V61.6667C67.5 64.875 64.875 67.5 61.6667 67.5H38.3333Z" fill="url(#paint7_linear_1_1672)"/>
<path id="Vector_8" d="M73.3333 67.5C70.125 67.5 67.5 64.875 67.5 61.6667V38.3333C67.5 35.125 70.125 32.5 73.3333 32.5H96.6667C99.875 32.5 102.5 35.125 102.5 38.3333V61.6667C102.5 64.875 99.875 67.5 96.6667 67.5H73.3333Z" fill="url(#paint8_linear_1_1672)"/>
<path id="Vector_9" d="M108.333 67.5C105.125 67.5 102.5 64.875 102.5 61.6667V38.3333C102.5 35.125 105.125 32.5 108.333 32.5H131.667C134.875 32.5 137.5 35.125 137.5 38.3333V61.6667C137.5 64.875 134.875 67.5 131.667 67.5H108.333Z" fill="url(#paint9_linear_1_1672)"/>
<path id="Vector_10" d="M140.417 38.334C140.417 33.3757 136.625 29.584 131.667 29.584H108.333C106.047 29.584 104.034 30.4152 102.5 31.7715C100.966 30.4152 98.9533 29.584 96.6667 29.584H73.3333C71.0467 29.584 69.0342 30.4152 67.5 31.7715C65.9658 30.4152 63.9533 29.584 61.6667 29.584H38.3333C33.375 29.584 29.5833 33.3757 29.5833 38.334V61.6673C29.5833 63.954 30.4146 65.9665 31.7708 67.5007C30.4146 69.0348 29.5833 71.0473 29.5833 73.334V96.6673C29.5833 98.954 30.4146 100.966 31.7708 102.501C30.4146 104.035 29.5833 106.047 29.5833 108.334V131.667C29.5833 136.626 33.375 140.417 38.3333 140.417H61.6667C63.9533 140.417 65.9658 139.586 67.5 138.23C69.0342 139.583 71.0467 140.417 73.3333 140.417H96.6667C98.9533 140.417 100.966 139.586 102.5 138.23C104.034 139.583 106.047 140.417 108.333 140.417H131.667C136.625 140.417 140.417 136.626 140.417 131.667V108.334C140.417 106.047 139.585 104.035 138.229 102.501C139.583 100.966 140.417 98.954 140.417 96.6673V73.334C140.417 71.0473 139.585 69.0348 138.229 67.5007C139.583 65.9665 140.417 63.954 140.417 61.6673V38.334ZM108.333 35.4173H131.667C133.417 35.4173 134.583 36.584 134.583 38.334V61.6673C134.583 63.4173 133.417 64.584 131.667 64.584H108.333C106.583 64.584 105.417 63.4173 105.417 61.6673V38.334C105.417 36.584 106.583 35.4173 108.333 35.4173ZM134.583 73.334V96.6673C134.583 98.4173 133.417 99.584 131.667 99.584H108.333C106.583 99.584 105.417 98.4173 105.417 96.6673V73.334C105.417 71.584 106.583 70.4173 108.333 70.4173H131.667C133.417 70.4173 134.583 71.584 134.583 73.334ZM35.4167 96.6673V73.334C35.4167 71.584 36.5833 70.4173 38.3333 70.4173H61.6667C63.4167 70.4173 64.5833 71.584 64.5833 73.334V96.6673C64.5833 98.4173 63.4167 99.584 61.6667 99.584H38.3333C36.5833 99.584 35.4167 98.4173 35.4167 96.6673ZM70.4167 96.6673V73.334C70.4167 71.584 71.5833 70.4173 73.3333 70.4173H96.6667C98.4167 70.4173 99.5833 71.584 99.5833 73.334V96.6673C99.5833 98.4173 98.4167 99.584 96.6667 99.584H73.3333C71.5833 99.584 70.4167 98.4173 70.4167 96.6673ZM73.3333 35.4173H96.6667C98.4167 35.4173 99.5833 36.584 99.5833 38.334V61.6673C99.5833 63.4173 98.4167 64.584 96.6667 64.584H73.3333C71.5833 64.584 70.4167 63.4173 70.4167 61.6673V38.334C70.4167 36.584 71.5833 35.4173 73.3333 35.4173ZM35.4167 38.334C35.4167 36.584 36.5833 35.4173 38.3333 35.4173H61.6667C63.4167 35.4173 64.5833 36.584 64.5833 38.334V61.6673C64.5833 63.4173 63.4167 64.584 61.6667 64.584H38.3333C36.5833 64.584 35.4167 63.4173 35.4167 61.6673V38.334ZM61.6667 134.584H38.3333C36.5833 134.584 35.4167 133.417 35.4167 131.667V108.334C35.4167 106.584 36.5833 105.417 38.3333 105.417H61.6667C63.4167 105.417 64.5833 106.584 64.5833 108.334V131.667C64.5833 133.417 63.4167 134.584 61.6667 134.584ZM96.6667 134.584H73.3333C71.5833 134.584 70.4167 133.417 70.4167 131.667V108.334C70.4167 106.584 71.5833 105.417 73.3333 105.417H96.6667C98.4167 105.417 99.5833 106.584 99.5833 108.334V131.667C99.5833 133.417 98.4167 134.584 96.6667 134.584ZM134.583 131.667C134.583 133.417 133.417 134.584 131.667 134.584H108.333C106.583 134.584 105.417 133.417 105.417 131.667V108.334C105.417 106.584 106.583 105.417 108.333 105.417H131.667C133.417 105.417 134.583 106.584 134.583 108.334V131.667Z" fill="url(#paint10_linear_1_1672)"/>
<rect x="7.5" y="7.5" width="155" height="155" rx="12.5" stroke="#D5EAF6" stroke-width="15"/>
</g>
<defs>
<linearGradient id="paint0_linear_1_1672" x1="85" y1="15" x2="85" y2="155" gradientUnits="userSpaceOnUse">
<stop stop-color="#199AE0"/>
<stop offset="0.472222" stop-color="#0D5176" stop-opacity="0.527778"/>
<stop offset="0.940972" stop-color="#12A6F7" stop-opacity="0.465278"/>
<stop offset="1" stop-opacity="0"/>
</linearGradient>
<linearGradient id="paint1_linear_1_1672" x1="45.9108" y1="100.759" x2="54.0892" y2="139.241" gradientUnits="userSpaceOnUse">
<stop stop-color="#FFDA1C"/>
<stop offset="1" stop-color="#FEB705"/>
</linearGradient>
<linearGradient id="paint2_linear_1_1672" x1="80.9108" y1="100.759" x2="89.0892" y2="139.241" gradientUnits="userSpaceOnUse">
<stop stop-color="#2AA4F4"/>
<stop offset="1" stop-color="#007AD9"/>
</linearGradient>
<linearGradient id="paint3_linear_1_1672" x1="115.911" y1="100.759" x2="124.089" y2="139.241" gradientUnits="userSpaceOnUse">
<stop stop-color="#21AD64"/>
<stop offset="1" stop-color="#088242"/>
</linearGradient>
<linearGradient id="paint4_linear_1_1672" x1="45.9108" y1="65.7588" x2="54.0892" y2="104.241" gradientUnits="userSpaceOnUse">
<stop stop-color="#21AD64"/>
<stop offset="1" stop-color="#088242"/>
</linearGradient>
<linearGradient id="paint5_linear_1_1672" x1="80.9108" y1="65.7588" x2="89.0892" y2="104.241" gradientUnits="userSpaceOnUse">
<stop stop-color="#F45560"/>
<stop offset="1" stop-color="#CF1928"/>
</linearGradient>
<linearGradient id="paint6_linear_1_1672" x1="115.911" y1="65.7588" x2="124.089" y2="104.241" gradientUnits="userSpaceOnUse">
<stop stop-color="#F9F9F9"/>
<stop offset="0.168" stop-color="#F1F2F3"/>
<stop offset="0.376" stop-color="#E5E7E9"/>
<stop offset="0.607" stop-color="#DDE0E2"/>
<stop offset="1" stop-color="#C2C8CC"/>
</linearGradient>
<linearGradient id="paint7_linear_1_1672" x1="45.9108" y1="30.7588" x2="54.0892" y2="69.2412" gradientUnits="userSpaceOnUse">
<stop stop-color="#2AA4F4"/>
<stop offset="1" stop-color="#007AD9"/>
</linearGradient>
<linearGradient id="paint8_linear_1_1672" x1="80.9108" y1="30.7588" x2="89.0892" y2="69.2412" gradientUnits="userSpaceOnUse">
<stop stop-color="#F9F9F9"/>
<stop offset="0.168" stop-color="#F1F2F3"/>
<stop offset="0.376" stop-color="#E5E7E9"/>
<stop offset="0.607" stop-color="#DDE0E2"/>
<stop offset="1" stop-color="#C2C8CC"/>
</linearGradient>
<linearGradient id="paint9_linear_1_1672" x1="115.911" y1="30.7588" x2="124.089" y2="69.2412" gradientUnits="userSpaceOnUse">
<stop stop-color="#FFDA1C"/>
<stop offset="1" stop-color="#FEB705"/>
</linearGradient>
<linearGradient id="paint10_linear_1_1672" x1="29.5833" y1="85.0007" x2="140.417" y2="85.0007" gradientUnits="userSpaceOnUse">
<stop stop-color="#41474A"/>
<stop offset="1" stop-color="#323538"/>
</linearGradient>
</defs>
</svg>
