<svg width="170" height="170" viewBox="0 0 170 170" fill="none" xmlns="http://www.w3.org/2000/svg">
<g id="save">
<rect x="7.5" y="7.5" width="155" height="155" rx="12.5" fill="white"/>
<rect x="7.5" y="7.5" width="155" height="155" rx="12.5" fill="url(#paint0_linear_1_1683)" fill-opacity="0.2"/>
<path id="Vector" d="M120.583 32.5H38.3333C35.125 32.5 32.5 35.125 32.5 38.3333V131.667C32.5 134.875 35.125 137.5 38.3333 137.5H131.667C134.875 137.5 137.5 134.875 137.5 131.667V49.4167C137.5 47.9583 136.917 46.5 135.75 45.3333L124.667 34.25C123.5 33.0833 122.042 32.5 120.583 32.5Z" fill="url(#paint1_linear_1_1683)"/>
<path id="Vector_2" opacity="0.05" d="M120 32.5H55.8333V61.6667C55.8333 66.625 59.625 70.4167 64.5833 70.4167H111.25C116.208 70.4167 120 66.625 120 61.6667V32.5Z" fill="black"/>
<path id="Vector_3" d="M111.25 70.4167H52.9167C49.7083 70.4167 47.0833 67.7917 47.0833 64.5833V32.5H117.083V64.5833C117.083 67.7917 114.458 70.4167 111.25 70.4167Z" fill="#1FA4E6"/>
<path id="Vector_4" opacity="0.07" d="M111.25 68.9583H64.5833C60.5 68.9583 57.2917 65.75 57.2917 61.6667V32.5H118.542V61.6667C118.542 65.75 115.333 68.9583 111.25 68.9583Z" fill="black"/>
<path id="Vector_5" d="M58.75 32.5V61.6667C58.75 64.875 61.375 67.5 64.5833 67.5H111.25C114.458 67.5 117.083 64.875 117.083 61.6667V32.5H58.75Z" fill="url(#paint2_radial_1_1683)"/>
<path id="Vector_6" d="M105.417 38.334H93.75V61.6673H105.417V38.334Z" fill="#177CAD"/>
<path id="Vector_7" d="M131.667 125.834H125.833V131.667H131.667V125.834Z" fill="url(#paint3_linear_1_1683)"/>
<path id="Vector_8" d="M44.1667 125.834H38.3333V131.667H44.1667V125.834Z" fill="url(#paint4_linear_1_1683)"/>
<path id="Vector_9" d="M114.167 137.501H55.8333C52.625 137.501 50 134.876 50 131.667V96.6673C50 93.459 52.625 90.834 55.8333 90.834H114.167C117.375 90.834 120 93.459 120 96.6673V131.667C120 134.876 117.375 137.501 114.167 137.501Z" fill="url(#paint5_linear_1_1683)"/>
<rect x="7.5" y="7.5" width="155" height="155" rx="12.5" stroke="#D5EAF6" stroke-width="15"/>
</g>
<defs>
<linearGradient id="paint0_linear_1_1683" x1="85" y1="15" x2="85" y2="155" gradientUnits="userSpaceOnUse">
<stop stop-color="#199AE0"/>
<stop offset="0.472222" stop-color="#0D5176" stop-opacity="0.527778"/>
<stop offset="0.940972" stop-color="#12A6F7" stop-opacity="0.465278"/>
<stop offset="1" stop-opacity="0"/>
</linearGradient>
<linearGradient id="paint1_linear_1_1683" x1="31.6688" y1="37.2542" x2="134.166" y2="139.749" gradientUnits="userSpaceOnUse">
<stop stop-color="#32BDEF"/>
<stop offset="1" stop-color="#1EA2E4"/>
</linearGradient>
<radialGradient id="paint2_radial_1_1683" cx="0" cy="0" r="1" gradientUnits="userSpaceOnUse" gradientTransform="translate(66.2546 22.6067) scale(69.6208 69.6208)">
<stop stop-color="#FAFAFB"/>
<stop offset="0.523" stop-color="#E2E4E7"/>
<stop offset="1" stop-color="#C8CDD1"/>
</radialGradient>
<linearGradient id="paint3_linear_1_1683" x1="125.842" y1="125.843" x2="131.745" y2="131.746" gradientUnits="userSpaceOnUse">
<stop stop-color="#0D61A9"/>
<stop offset="1" stop-color="#16528C"/>
</linearGradient>
<linearGradient id="paint4_linear_1_1683" x1="38.3421" y1="125.843" x2="44.2454" y2="131.746" gradientUnits="userSpaceOnUse">
<stop stop-color="#0D61A9"/>
<stop offset="1" stop-color="#16528C"/>
</linearGradient>
<linearGradient id="paint5_linear_1_1683" x1="55.3375" y1="84.5048" x2="116.981" y2="146.149" gradientUnits="userSpaceOnUse">
<stop stop-color="white"/>
<stop offset="0.242" stop-color="#fcfcfc"/>
<stop offset="1" stop-color="#CCCCCC"/>
</linearGradient>
</defs>
</svg>
