<svg width="170" height="170" viewBox="0 0 170 170" fill="none" xmlns="http://www.w3.org/2000/svg">
<g id="save-as">
<rect x="7.5" y="7.5" width="155" height="155" rx="12.5" fill="white"/>
<rect x="7.5" y="7.5" width="155" height="155" rx="12.5" fill="url(#paint0_linear_1_1693)" fill-opacity="0.2"/>
<path id="Vector" d="M120.583 32.5H38.3333C35.125 32.5 32.5 35.125 32.5 38.3333V131.667C32.5 134.875 35.125 137.5 38.3333 137.5H131.667C134.875 137.5 137.5 134.875 137.5 131.667V49.4167C137.5 47.9583 136.917 46.5 135.75 45.3333L124.667 34.25C123.5 33.0833 122.042 32.5 120.583 32.5Z" fill="url(#paint1_linear_1_1693)"/>
<path id="Vector_2" d="M131.667 125.834H125.833V131.667H131.667V125.834Z" fill="url(#paint2_linear_1_1693)"/>
<path id="Vector_3" d="M44.1667 125.834H38.3333V131.667H44.1667V125.834Z" fill="url(#paint3_linear_1_1693)"/>
<path id="Vector_4" d="M114.167 137.501H55.8333C52.625 137.501 50 134.876 50 131.667V96.6673C50 93.459 52.625 90.834 55.8333 90.834H114.167C117.375 90.834 120 93.459 120 96.6673V131.667C120 134.876 117.375 137.501 114.167 137.501Z" fill="url(#paint4_linear_1_1693)"/>
<path id="Vector_5" opacity="0.05" d="M137.5 60.5L91.125 106.875L87.625 121.167C87.3333 122.333 88.5 123.5 89.6667 123.208L103.958 119.708L137.5 86.1667V60.5Z" fill="black"/>
<path id="Vector_6" opacity="0.07" d="M137.5 62.541L93.4583 106.583L92 109.499L89.375 119.416C89.0833 120.583 90.25 121.458 91.125 121.166L101.042 118.541L103.958 117.083L137.5 84.1244V62.541Z" fill="black"/>
<path id="Vector_7" d="M148.583 67.7917L143.042 62.25C142.167 61.375 140.708 61.375 139.833 62.25L137.208 64.875L145.958 73.625L148.583 71C149.458 70.125 149.458 68.6667 148.583 67.7917Z" fill="#C94F60"/>
<path id="Vector_8" d="M93.75 108.333L90.8333 120L102.5 117.083L103.667 106.875L93.75 108.333Z" fill="#F0F0F0"/>
<path id="Vector_9" d="M138.375 80.9173L102.5 117.084L93.75 108.334L129.625 72.459L138.375 80.9173Z" fill="#EDBE00"/>
<path id="Vector_10" d="M129.625 72.4577L136.917 65.166L145.667 73.916L138.375 81.2077L129.625 72.4577Z" fill="url(#paint5_linear_1_1693)"/>
<path id="Vector_11" d="M92.2917 114.166L90.8333 119.999L96.6667 118.541L92.2917 114.166Z" fill="#787878"/>
<path id="Vector_12" d="M111.25 70.4167H52.9167C49.7083 70.4167 47.0833 67.7917 47.0833 64.5833V32.5H117.083V64.5833C117.083 67.7917 114.458 70.4167 111.25 70.4167Z" fill="#1FA4E6"/>
<path id="Vector_13" opacity="0.07" d="M111.25 68.9583H64.5833C60.5 68.9583 57.2917 65.75 57.2917 61.6667V32.5H118.542V61.6667C118.542 65.75 115.333 68.9583 111.25 68.9583Z" fill="black"/>
<path id="Vector_14" d="M58.75 32.5V61.6667C58.75 64.875 61.375 67.5 64.5833 67.5H111.25C114.458 67.5 117.083 64.875 117.083 61.6667V32.5H58.75Z" fill="url(#paint6_radial_1_1693)"/>
<path id="Vector_15" d="M105.417 38.334H93.75V61.6673H105.417V38.334Z" fill="#177CAD"/>
<rect x="7.5" y="7.5" width="155" height="155" rx="12.5" stroke="#D5EAF6" stroke-width="15"/>
</g>
<defs>
<linearGradient id="paint0_linear_1_1693" x1="85" y1="15" x2="85" y2="155" gradientUnits="userSpaceOnUse">
<stop stop-color="#199AE0"/>
<stop offset="0.472222" stop-color="#0D5176" stop-opacity="0.527778"/>
<stop offset="0.940972" stop-color="#12A6F7" stop-opacity="0.465278"/>
<stop offset="1" stop-opacity="0"/>
</linearGradient>
<linearGradient id="paint1_linear_1_1693" x1="31.6688" y1="37.2542" x2="134.166" y2="139.749" gradientUnits="userSpaceOnUse">
<stop stop-color="#32BDEF"/>
<stop offset="1" stop-color="#1EA2E4"/>
</linearGradient>
<linearGradient id="paint2_linear_1_1693" x1="125.842" y1="125.843" x2="131.745" y2="131.746" gradientUnits="userSpaceOnUse">
<stop stop-color="#0D61A9"/>
<stop offset="1" stop-color="#16528C"/>
</linearGradient>
<linearGradient id="paint3_linear_1_1693" x1="38.3421" y1="125.843" x2="44.2454" y2="131.746" gradientUnits="userSpaceOnUse">
<stop stop-color="#0D61A9"/>
<stop offset="1" stop-color="#16528C"/>
</linearGradient>
<linearGradient id="paint4_linear_1_1693" x1="55.3375" y1="84.5048" x2="116.981" y2="146.149" gradientUnits="userSpaceOnUse">
<stop stop-color="white"/>
<stop offset="0.242" stop-color="#fcfcfc"/>
<stop offset="1" stop-color="#CCCCCC"/>
</linearGradient>
<linearGradient id="paint5_linear_1_1693" x1="137.827" y1="65.4927" x2="137.827" y2="81.5023" gradientUnits="userSpaceOnUse">
<stop stop-color="#DEDEDE"/>
<stop offset="1" stop-color="#D6D6D6"/>
</linearGradient>
<radialGradient id="paint6_radial_1_1693" cx="0" cy="0" r="1" gradientUnits="userSpaceOnUse" gradientTransform="translate(66.2546 22.6067) scale(69.6208 69.6208)">
<stop stop-color="#FAFAFB"/>
<stop offset="0.523" stop-color="#E2E4E7"/>
<stop offset="1" stop-color="#C8CDD1"/>
</radialGradient>
</defs>
</svg>
