<svg width="170" height="170" viewBox="0 0 170 170" fill="none" xmlns="http://www.w3.org/2000/svg">
<g id="search-chat">
<rect x="7.5" y="7.5" width="155" height="155" rx="12.5" fill="white"/>
<rect x="7.5" y="7.5" width="155" height="155" rx="12.5" fill="url(#paint0_linear_1_1718)" fill-opacity="0.2"/>
<path id="Vector" d="M137.5 38.334H32.5C29.2917 38.334 26.6667 40.959 26.6667 44.1673V120.001C26.6667 123.209 29.2917 125.834 32.5 125.834H55.8333V149.167C55.8333 151.792 59.0417 152.959 60.7917 151.209L86.1667 125.834H137.5C140.708 125.834 143.333 123.209 143.333 120.001V44.1673C143.333 40.959 140.708 38.334 137.5 38.334Z" fill="url(#paint1_linear_1_1718)"/>
<path id="Vector_2" d="M143.333 138.084L138.083 143.334L149.458 154.709C149.75 155.001 150.333 155.001 150.625 154.709L154.708 150.626C155 150.334 155 149.751 154.708 149.459L143.333 138.084Z" fill="#199BE2"/>
<path id="Vector_3" d="M136.917 131.666L131.667 136.916L138.083 143.333L143.333 138.083L136.917 131.666Z" fill="url(#paint2_radial_1_1718)"/>
<path id="Vector_4" opacity="0.05" d="M143.333 120V108.042C138.958 99.5833 130.208 93.75 120 93.75C105.417 93.75 93.75 105.417 93.75 120C93.75 122.042 94.0417 124.083 94.3333 125.833H137.5C140.708 125.833 143.333 123.208 143.333 120Z" fill="black"/>
<path id="Vector_5" opacity="0.07" d="M143.333 120.001V111.834C139.833 102.209 130.792 95.209 120 95.209C106.292 95.209 95.2083 106.292 95.2083 120.001C95.2083 122.042 95.5 124.084 95.7917 125.834H137.5C140.708 125.834 143.333 123.209 143.333 120.001Z" fill="black"/>
<path id="Vector_6" d="M120 143.333C132.887 143.333 143.333 132.886 143.333 119.999C143.333 107.113 132.887 96.666 120 96.666C107.113 96.666 96.6667 107.113 96.6667 119.999C96.6667 132.886 107.113 143.333 120 143.333Z" fill="url(#paint3_linear_1_1718)"/>
<rect x="7.5" y="7.5" width="155" height="155" rx="12.5" stroke="#D5EAF6" stroke-width="15"/>
</g>
<defs>
<linearGradient id="paint0_linear_1_1718" x1="85" y1="15" x2="85" y2="155" gradientUnits="userSpaceOnUse">
<stop stop-color="#199AE0"/>
<stop offset="0.472222" stop-color="#0D5176" stop-opacity="0.527778"/>
<stop offset="0.940972" stop-color="#12A6F7" stop-opacity="0.465278"/>
<stop offset="1" stop-opacity="0"/>
</linearGradient>
<linearGradient id="paint1_linear_1_1718" x1="52.0008" y1="28.394" x2="118.775" y2="137.037" gradientUnits="userSpaceOnUse">
<stop stop-color="#0176D0"/>
<stop offset="1" stop-color="#0A85D9"/>
</linearGradient>
<radialGradient id="paint2_radial_1_1718" cx="0" cy="0" r="1" gradientUnits="userSpaceOnUse" gradientTransform="translate(120.035 120.139) scale(28.5892)">
<stop offset="0.693" stop-color="#006185"/>
<stop offset="0.921" stop-color="#35C1F1"/>
</radialGradient>
<linearGradient id="paint3_linear_1_1718" x1="103.827" y1="103.826" x2="136.535" y2="136.534" gradientUnits="userSpaceOnUse">
<stop stop-color="#A3FFFF"/>
<stop offset="0.223" stop-color="#9DFBFF"/>
<stop offset="0.53" stop-color="#8BF1FF"/>
<stop offset="0.885" stop-color="#6EE0FF"/>
<stop offset="1" stop-color="#63DAFF"/>
</linearGradient>
</defs>
</svg>
