<svg width="170" height="170" viewBox="0 0 170 170" fill="none" xmlns="http://www.w3.org/2000/svg">
<g id="search-in-mailbox">
<rect x="7.5" y="7.5" width="155" height="155" rx="12.5" fill="white"/>
<rect x="7.5" y="7.5" width="155" height="155" rx="12.5" fill="url(#paint0_linear_1_1749)" fill-opacity="0.2"/>
<path id="Vector" d="M55.8333 41.25H108.333C124.375 41.25 137.5 54.375 137.5 70.4167V131.667C137.5 134.875 134.875 137.5 131.667 137.5H55.8333V41.25Z" fill="#007AD9"/>
<path id="Vector_2" d="M55.8333 41.25C39.7917 41.25 26.6667 54.375 26.6667 70.4167V131.667C26.6667 134.875 29.2917 137.5 32.5 137.5H79.1667C82.375 137.5 85 134.875 85 131.667V70.4167C85 54.375 71.875 41.25 55.8333 41.25Z" fill="url(#paint1_linear_1_1749)"/>
<path id="Vector_3" d="M64.5833 76.2493H44.1667C42.4167 76.2493 41.25 75.0827 41.25 73.3327C41.25 71.5827 42.4167 70.416 44.1667 70.416H64.5833C66.3333 70.416 67.5 71.5827 67.5 73.3327C67.5 75.0827 66.3333 76.2493 64.5833 76.2493Z" fill="#007AD9"/>
<path id="Vector_4" d="M143.333 138.084L138.083 143.334L149.458 154.709C149.75 155.001 150.333 155.001 150.625 154.709L154.708 150.626C155 150.334 155 149.751 154.708 149.459L143.333 138.084Z" fill="#199BE2"/>
<path id="Vector_5" d="M136.917 131.666L131.667 136.916L138.083 143.333L143.333 138.083L136.917 131.666Z" fill="url(#paint2_radial_1_1749)"/>
<path id="Vector_6" opacity="0.05" d="M120 93.75C105.417 93.75 93.75 105.417 93.75 120C93.75 126.708 96.375 132.833 100.458 137.5H131.667C134.875 137.5 137.5 134.875 137.5 131.667V100.458C132.833 96.375 126.708 93.75 120 93.75Z" fill="black"/>
<path id="Vector_7" opacity="0.07" d="M120 95.209C106.292 95.209 95.2083 106.292 95.2083 120.001C95.2083 126.709 98.125 133.126 102.5 137.501H131.667C134.875 137.501 137.5 134.876 137.5 131.667V102.501C133.125 98.1257 126.708 95.209 120 95.209Z" fill="black"/>
<path id="Vector_8" d="M120 143.333C132.887 143.333 143.333 132.886 143.333 119.999C143.333 107.113 132.887 96.666 120 96.666C107.113 96.666 96.6667 107.113 96.6667 119.999C96.6667 132.886 107.113 143.333 120 143.333Z" fill="url(#paint3_linear_1_1749)"/>
<rect x="7.5" y="7.5" width="155" height="155" rx="12.5" stroke="#D5EAF6" stroke-width="15"/>
</g>
<defs>
<linearGradient id="paint0_linear_1_1749" x1="85" y1="15" x2="85" y2="155" gradientUnits="userSpaceOnUse">
<stop stop-color="#199AE0"/>
<stop offset="0.472222" stop-color="#0D5176" stop-opacity="0.527778"/>
<stop offset="0.940972" stop-color="#12A6F7" stop-opacity="0.465278"/>
<stop offset="1" stop-opacity="0"/>
</linearGradient>
<linearGradient id="paint1_linear_1_1749" x1="36.0146" y1="46.9958" x2="73.8671" y2="146.09" gradientUnits="userSpaceOnUse">
<stop stop-color="#32BDEF"/>
<stop offset="1" stop-color="#1EA2E4"/>
</linearGradient>
<radialGradient id="paint2_radial_1_1749" cx="0" cy="0" r="1" gradientUnits="userSpaceOnUse" gradientTransform="translate(120.035 120.139) scale(28.5892)">
<stop offset="0.693" stop-color="#006185"/>
<stop offset="0.921" stop-color="#35C1F1"/>
</radialGradient>
<linearGradient id="paint3_linear_1_1749" x1="103.827" y1="103.826" x2="136.535" y2="136.534" gradientUnits="userSpaceOnUse">
<stop stop-color="#A3FFFF"/>
<stop offset="0.223" stop-color="#9DFBFF"/>
<stop offset="0.53" stop-color="#8BF1FF"/>
<stop offset="0.885" stop-color="#6EE0FF"/>
<stop offset="1" stop-color="#63DAFF"/>
</linearGradient>
</defs>
</svg>
