<svg width="170" height="170" viewBox="0 0 170 170" fill="none" xmlns="http://www.w3.org/2000/svg">
<g id="search">
<rect x="7.5" y="7.5" width="155" height="155" rx="12.5" fill="white"/>
<rect x="7.5" y="7.5" width="155" height="155" rx="12.5" fill="url(#paint0_linear_1_1709)" fill-opacity="0.2"/>
<path id="Vector" d="M119.95 109.641L109.637 119.954L132.591 142.908C133.16 143.477 134.085 143.477 134.653 142.908L142.902 134.66C143.47 134.091 143.47 133.166 142.902 132.598L119.95 109.641Z" fill="#199BE2"/>
<path id="Vector_2" d="M107.17 96.8555L96.8563 107.169L109.64 119.95L119.95 109.639L107.17 96.8555Z" fill="url(#paint1_radial_1_1709)"/>
<path id="Vector_3" d="M73.3333 119.999C99.1066 119.999 120 99.106 120 73.3327C120 47.5594 99.1066 26.666 73.3333 26.666C47.56 26.666 26.6667 47.5594 26.6667 73.3327C26.6667 99.106 47.56 119.999 73.3333 119.999Z" fill="url(#paint2_linear_1_1709)"/>
<rect x="7.5" y="7.5" width="155" height="155" rx="12.5" stroke="#D5EAF6" stroke-width="15"/>
</g>
<defs>
<linearGradient id="paint0_linear_1_1709" x1="85" y1="15" x2="85" y2="155" gradientUnits="userSpaceOnUse">
<stop stop-color="#199AE0"/>
<stop offset="0.472222" stop-color="#0D5176" stop-opacity="0.527778"/>
<stop offset="0.940972" stop-color="#12A6F7" stop-opacity="0.465278"/>
<stop offset="1" stop-opacity="0"/>
</linearGradient>
<radialGradient id="paint1_radial_1_1709" cx="0" cy="0" r="1" gradientUnits="userSpaceOnUse" gradientTransform="translate(73.4033 73.6125) scale(57.1783)">
<stop offset="0.693" stop-color="#006185"/>
<stop offset="0.921" stop-color="#35C1F1"/>
</radialGradient>
<linearGradient id="paint2_linear_1_1709" x1="40.9904" y1="40.9898" x2="106.405" y2="106.405" gradientUnits="userSpaceOnUse">
<stop stop-color="#A3FFFF"/>
<stop offset="0.223" stop-color="#9DFBFF"/>
<stop offset="0.53" stop-color="#8BF1FF"/>
<stop offset="0.885" stop-color="#6EE0FF"/>
<stop offset="1" stop-color="#63DAFF"/>
</linearGradient>
</defs>
</svg>
