<svg width="170" height="170" viewBox="0 0 170 170" fill="none" xmlns="http://www.w3.org/2000/svg">
<g id="search-bar">
<rect x="7.5" y="7.5" width="155" height="155" rx="12.5" fill="white"/>
<rect x="7.5" y="7.5" width="155" height="155" rx="12.5" fill="url(#paint0_linear_1_1713)" fill-opacity="0.2"/>
<path id="Vector" d="M26.6667 61.6673V108.334C26.6667 111.557 29.2771 114.167 32.5 114.167H137.5C140.723 114.167 143.333 111.557 143.333 108.334V61.6673C143.333 58.4444 140.723 55.834 137.5 55.834H32.5C29.2771 55.834 26.6667 58.4444 26.6667 61.6673Z" fill="#50E6FF"/>
<path id="Vector_2" d="M124.62 87.3809L119.463 92.5375L132.13 105.205C132.416 105.49 132.877 105.49 133.163 105.205L137.287 101.08C137.573 100.795 137.573 100.334 137.287 100.048L124.62 87.3809Z" fill="url(#paint1_linear_1_1713)"/>
<path id="Vector_3" d="M122.333 85.0957L117.18 90.2494L125.297 98.3694L130.453 93.2128L122.333 85.0957Z" fill="url(#paint2_linear_1_1713)"/>
<path id="Vector_4" d="M112.708 96.6673C121.568 96.6673 128.75 89.4852 128.75 80.6257C128.75 71.7661 121.568 64.584 112.708 64.584C103.849 64.584 96.6667 71.7661 96.6667 80.6257C96.6667 89.4852 103.849 96.6673 112.708 96.6673Z" fill="url(#paint3_linear_1_1713)"/>
<rect x="7.5" y="7.5" width="155" height="155" rx="12.5" stroke="#D5EAF6" stroke-width="15"/>
</g>
<defs>
<linearGradient id="paint0_linear_1_1713" x1="85" y1="15" x2="85" y2="155" gradientUnits="userSpaceOnUse">
<stop stop-color="#199AE0"/>
<stop offset="0.472222" stop-color="#0D5176" stop-opacity="0.527778"/>
<stop offset="0.940972" stop-color="#12A6F7" stop-opacity="0.465278"/>
<stop offset="1" stop-opacity="0"/>
</linearGradient>
<linearGradient id="paint1_linear_1_1713" x1="119.463" y1="96.3992" x2="137.503" y2="96.3992" gradientUnits="userSpaceOnUse">
<stop stop-color="#0176D0"/>
<stop offset="1" stop-color="#0A85D9"/>
</linearGradient>
<linearGradient id="paint2_linear_1_1713" x1="127.394" y1="95.3099" x2="124.407" y2="92.3232" gradientUnits="userSpaceOnUse">
<stop stop-color="#0077D2"/>
<stop offset="1" stop-color="#0B59A2"/>
</linearGradient>
<linearGradient id="paint3_linear_1_1713" x1="101.59" y1="69.5073" x2="124.077" y2="91.9948" gradientUnits="userSpaceOnUse">
<stop stop-color="#0176D0"/>
<stop offset="1" stop-color="#0A85D9"/>
</linearGradient>
</defs>
</svg>
