<svg width="170" height="170" viewBox="0 0 170 170" fill="none" xmlns="http://www.w3.org/2000/svg">
<g id="security-portal">
<g clip-path="url(#clip0_1_1764)">
<rect x="15" y="15" width="140" height="140" rx="5" fill="white"/>
<rect x="15" y="15" width="140" height="140" rx="5" fill="url(#paint0_linear_1_1764)" fill-opacity="0.2"/>
<path id="Vector" d="M26.6667 125.833V58.75H143.333V125.833C143.333 129.042 140.708 131.667 137.5 131.667H32.5C29.2917 131.667 26.6667 129.042 26.6667 125.833Z" fill="#50E6FF"/>
<path id="Vector_2" d="M143.333 44.1673V58.7507H26.6667V44.1673C26.6667 40.959 29.2917 38.334 32.5 38.334H137.5C140.708 38.334 143.333 40.959 143.333 44.1673Z" fill="url(#paint1_linear_1_1764)"/>
<path id="Vector_3" d="M36.875 52.916C39.2912 52.916 41.25 50.9573 41.25 48.541C41.25 46.1248 39.2912 44.166 36.875 44.166C34.4588 44.166 32.5 46.1248 32.5 48.541C32.5 50.9573 34.4588 52.916 36.875 52.916Z" fill="url(#paint2_linear_1_1764)"/>
<path id="Vector_4" opacity="0.05" d="M138.442 97.8158C135.508 95.815 132.477 93.75 127.292 93.75C122.106 93.75 119.075 95.815 116.141 97.8158C112.764 100.12 109.27 102.5 101.042 102.5C98.6296 102.5 96.6667 104.463 96.6667 106.875V120C96.6667 122.147 96.9379 124.343 97.4687 126.527C97.9004 128.295 98.5071 130.01 99.2479 131.667H137.5C140.708 131.667 143.333 129.042 143.333 125.833V100.68C141.423 99.8458 139.921 98.8221 138.442 97.8158Z" fill="black"/>
<path id="Vector_5" opacity="0.07" d="M137.623 99.0211C134.747 97.0611 132.028 95.209 127.292 95.209C122.555 95.209 119.837 97.0611 116.961 99.0211C113.566 101.337 109.716 103.959 101.042 103.959C99.4317 103.959 98.125 105.266 98.125 106.876V120.001C98.125 122.034 98.3817 124.113 98.8862 126.181C99.35 128.08 100.018 129.911 100.838 131.667H137.5C140.708 131.667 143.333 129.042 143.333 125.834V102.253C141 101.322 139.259 100.135 137.623 99.0211Z" fill="black"/>
<path id="Vector_6" d="M51.4583 52.916C53.8746 52.916 55.8333 50.9573 55.8333 48.541C55.8333 46.1248 53.8746 44.166 51.4583 44.166C49.0421 44.166 47.0833 46.1248 47.0833 48.541C47.0833 50.9573 49.0421 52.916 51.4583 52.916Z" fill="url(#paint3_linear_1_1764)"/>
<path id="Vector_7" d="M127.292 155.001C126.487 155.001 125.833 154.347 125.833 153.542C125.833 152.737 126.487 152.084 127.292 152.084V155.001Z" fill="#107C42"/>
<path id="Vector_8" d="M128.75 153.542C128.75 154.347 128.097 155.001 127.292 155.001V152.084C128.097 152.084 128.75 152.737 128.75 153.542Z" fill="#185C37"/>
<path id="Vector_9" d="M153.542 108.333C154.347 108.333 155 107.68 155 106.874C155 106.069 154.347 105.416 153.542 105.416C152.736 105.416 152.083 106.069 152.083 106.874C152.083 107.68 152.736 108.333 153.542 108.333Z" fill="#21A366"/>
<path id="Vector_10" d="M101.042 108.333C101.847 108.333 102.5 107.68 102.5 106.874C102.5 106.069 101.847 105.416 101.042 105.416C100.236 105.416 99.5833 106.069 99.5833 106.874C99.5833 107.68 100.236 108.333 101.042 108.333Z" fill="#33C481"/>
<path id="Vector_11" d="M127.292 153.542L127.916 154.864C127.916 154.864 150.001 143.343 154.282 125.834H127.292V153.542Z" fill="#185C37"/>
<path id="Vector_12" d="M155 106.874L153.542 105.416C137.322 105.416 137.095 96.666 127.292 96.666V125.833H154.282C154.74 123.954 155 122.009 155 119.999C155 115.414 155 106.874 155 106.874Z" fill="#21A366"/>
<path id="Vector_13" d="M127.292 153.542L126.667 154.864C126.667 154.864 104.583 143.343 100.301 125.834H127.292V153.542Z" fill="#107C42"/>
<path id="Vector_14" d="M99.5833 106.874L101.042 105.416C117.261 105.416 117.489 96.666 127.292 96.666V125.833H100.304C99.8429 123.954 99.5833 122.009 99.5833 119.999C99.5833 115.414 99.5833 106.874 99.5833 106.874Z" fill="#33C481"/>
</g>
<rect x="7.5" y="7.5" width="155" height="155" rx="12.5" stroke="#D5EAF6" stroke-width="15"/>
</g>
<defs>
<linearGradient id="paint0_linear_1_1764" x1="85" y1="15" x2="85" y2="155" gradientUnits="userSpaceOnUse">
<stop stop-color="#199AE0"/>
<stop offset="0.472222" stop-color="#0D5176" stop-opacity="0.527778"/>
<stop offset="0.940972" stop-color="#12A6F7" stop-opacity="0.465278"/>
<stop offset="1" stop-opacity="0"/>
</linearGradient>
<linearGradient id="paint1_linear_1_1764" x1="28.4575" y1="37.5786" x2="140.23" y2="60.3052" gradientUnits="userSpaceOnUse">
<stop stop-color="#0077D2"/>
<stop offset="1" stop-color="#0B59A2"/>
</linearGradient>
<linearGradient id="paint2_linear_1_1764" x1="34.6904" y1="45.3793" x2="38.4267" y2="50.7839" gradientUnits="userSpaceOnUse">
<stop stop-color="#75DAFF"/>
<stop offset="1" stop-color="#49BEF1"/>
</linearGradient>
<linearGradient id="paint3_linear_1_1764" x1="49.2737" y1="45.3793" x2="53.01" y2="50.7839" gradientUnits="userSpaceOnUse">
<stop stop-color="#75DAFF"/>
<stop offset="1" stop-color="#49BEF1"/>
</linearGradient>
<clipPath id="clip0_1_1764">
<rect x="15" y="15" width="140" height="140" rx="5" fill="white"/>
</clipPath>
</defs>
</svg>
