<svg width="170" height="170" viewBox="0 0 170 170" fill="none" xmlns="http://www.w3.org/2000/svg">
<g id="secured-letter">
<rect x="7.5" y="7.5" width="155" height="155" rx="12.5" fill="white"/>
<rect x="7.5" y="7.5" width="155" height="155" rx="12.5" fill="url(#paint0_linear_1_1758)" fill-opacity="0.2"/>
<path id="Vector" d="M41.25 90.8332L146.25 49.1016V125.833C146.25 129.056 143.64 131.667 140.417 131.667H41.25V90.8332Z" fill="url(#paint1_linear_1_1758)"/>
<path id="Vector_2" d="M23.75 49.1016V125.833C23.75 129.056 26.3604 131.667 29.5833 131.667H140.417C141.849 131.667 143.144 131.13 144.159 130.272L23.75 49.1016Z" fill="url(#paint2_linear_1_1758)"/>
<path id="Vector_3" opacity="0.05" d="M23.75 47.084H146.25V52.019L95.7333 91.2482C89.4188 96.1511 80.5813 96.1511 74.2667 91.2482L23.75 52.019V47.084Z" fill="black"/>
<path id="Vector_4" opacity="0.07" d="M23.75 45.625H146.25V50.56L93.6508 88.8033C88.5117 92.6067 81.4883 92.6067 76.3492 88.8033L23.75 50.56V45.625Z" fill="black"/>
<path id="Vector_5" d="M29.5833 38.334H140.417C143.64 38.334 146.25 40.9444 146.25 44.1673V49.1023L91.5683 86.3598C87.6046 89.0607 82.3925 89.0607 78.4317 86.3598L23.75 49.1023V44.1673C23.75 40.9444 26.3604 38.334 29.5833 38.334Z" fill="#50E6FF"/>
<rect x="7.5" y="7.5" width="155" height="155" rx="12.5" stroke="#D5EAF6" stroke-width="15"/>
</g>
<defs>
<linearGradient id="paint0_linear_1_1758" x1="85" y1="15" x2="85" y2="155" gradientUnits="userSpaceOnUse">
<stop stop-color="#199AE0"/>
<stop offset="0.472222" stop-color="#0D5176" stop-opacity="0.527778"/>
<stop offset="0.940972" stop-color="#12A6F7" stop-opacity="0.465278"/>
<stop offset="1" stop-opacity="0"/>
</linearGradient>
<linearGradient id="paint1_linear_1_1758" x1="77.755" y1="66.4441" x2="147.977" y2="171.546" gradientUnits="userSpaceOnUse">
<stop stop-color="#28AFEA"/>
<stop offset="1" stop-color="#0B88DA"/>
</linearGradient>
<linearGradient id="paint2_linear_1_1758" x1="19.1067" y1="86.1957" x2="120.965" y2="149.645" gradientUnits="userSpaceOnUse">
<stop stop-color="#28AFEA"/>
<stop offset="1" stop-color="#0B88DA"/>
</linearGradient>
</defs>
</svg>
