<svg width="170" height="170" viewBox="0 0 170 170" fill="none" xmlns="http://www.w3.org/2000/svg">
<g id="select-all">
<rect x="7.5" y="7.5" width="155" height="155" rx="12.5" fill="white"/>
<rect x="7.5" y="7.5" width="155" height="155" rx="12.5" fill="url(#paint0_linear_1_1779)" fill-opacity="0.2"/>
<path id="Vector" d="M125.833 38.3333H131.667V44.1667C131.667 45.7767 132.973 47.0833 134.583 47.0833C136.193 47.0833 137.5 45.7767 137.5 44.1667V38.3333C137.5 35.125 134.875 32.5 131.667 32.5H125.833C124.223 32.5 122.917 33.8067 122.917 35.4167C122.917 37.0267 124.223 38.3333 125.833 38.3333Z" fill="#64717C"/>
<path id="Vector_2" d="M38.3333 44.1667V38.3333H44.1667C45.7767 38.3333 47.0833 37.0267 47.0833 35.4167C47.0833 33.8067 45.7767 32.5 44.1667 32.5H38.3333C35.125 32.5 32.5 35.125 32.5 38.3333V44.1667C32.5 45.7767 33.8067 47.0833 35.4167 47.0833C37.0267 47.0833 38.3333 45.7767 38.3333 44.1667Z" fill="#64717C"/>
<path id="Vector_3" d="M131.667 125.833V131.666H125.833C124.223 131.666 122.917 132.973 122.917 134.583C122.917 136.193 124.223 137.499 125.833 137.499H131.667C134.875 137.499 137.5 134.874 137.5 131.666V125.833C137.5 124.223 136.193 122.916 134.583 122.916C132.973 122.916 131.667 124.223 131.667 125.833Z" fill="#64717C"/>
<path id="Vector_4" d="M44.1667 131.666H38.3333V125.833C38.3333 124.223 37.0267 122.916 35.4167 122.916C33.8067 122.916 32.5 124.223 32.5 125.833V131.666C32.5 134.874 35.125 137.499 38.3333 137.499H44.1667C45.7767 137.499 47.0833 136.193 47.0833 134.583C47.0833 132.973 45.7767 131.666 44.1667 131.666Z" fill="#64717C"/>
<path id="Vector_5" d="M55.8333 38.3333C57.4442 38.3333 58.75 37.0275 58.75 35.4167C58.75 33.8058 57.4442 32.5 55.8333 32.5C54.2225 32.5 52.9167 33.8058 52.9167 35.4167C52.9167 37.0275 54.2225 38.3333 55.8333 38.3333Z" fill="#64717C"/>
<path id="Vector_6" d="M67.5 38.3333C69.1108 38.3333 70.4167 37.0275 70.4167 35.4167C70.4167 33.8058 69.1108 32.5 67.5 32.5C65.8892 32.5 64.5833 33.8058 64.5833 35.4167C64.5833 37.0275 65.8892 38.3333 67.5 38.3333Z" fill="#64717C"/>
<path id="Vector_7" d="M79.1667 38.3333C80.7775 38.3333 82.0833 37.0275 82.0833 35.4167C82.0833 33.8058 80.7775 32.5 79.1667 32.5C77.5558 32.5 76.25 33.8058 76.25 35.4167C76.25 37.0275 77.5558 38.3333 79.1667 38.3333Z" fill="#64717C"/>
<path id="Vector_8" d="M102.5 38.3333C104.111 38.3333 105.417 37.0275 105.417 35.4167C105.417 33.8058 104.111 32.5 102.5 32.5C100.889 32.5 99.5833 33.8058 99.5833 35.4167C99.5833 37.0275 100.889 38.3333 102.5 38.3333Z" fill="#64717C"/>
<path id="Vector_9" d="M114.167 38.3333C115.777 38.3333 117.083 37.0275 117.083 35.4167C117.083 33.8058 115.777 32.5 114.167 32.5C112.556 32.5 111.25 33.8058 111.25 35.4167C111.25 37.0275 112.556 38.3333 114.167 38.3333Z" fill="#64717C"/>
<path id="Vector_10" d="M90.8333 38.3333C92.4442 38.3333 93.75 37.0275 93.75 35.4167C93.75 33.8058 92.4442 32.5 90.8333 32.5C89.2225 32.5 87.9167 33.8058 87.9167 35.4167C87.9167 37.0275 89.2225 38.3333 90.8333 38.3333Z" fill="#64717C"/>
<path id="Vector_11" d="M55.8333 137.499C57.4442 137.499 58.75 136.194 58.75 134.583C58.75 132.972 57.4442 131.666 55.8333 131.666C54.2225 131.666 52.9167 132.972 52.9167 134.583C52.9167 136.194 54.2225 137.499 55.8333 137.499Z" fill="#64717C"/>
<path id="Vector_12" d="M67.5 137.499C69.1108 137.499 70.4167 136.194 70.4167 134.583C70.4167 132.972 69.1108 131.666 67.5 131.666C65.8892 131.666 64.5833 132.972 64.5833 134.583C64.5833 136.194 65.8892 137.499 67.5 137.499Z" fill="#64717C"/>
<path id="Vector_13" d="M79.1667 137.499C80.7775 137.499 82.0833 136.194 82.0833 134.583C82.0833 132.972 80.7775 131.666 79.1667 131.666C77.5558 131.666 76.25 132.972 76.25 134.583C76.25 136.194 77.5558 137.499 79.1667 137.499Z" fill="#64717C"/>
<path id="Vector_14" d="M102.5 137.499C104.111 137.499 105.417 136.194 105.417 134.583C105.417 132.972 104.111 131.666 102.5 131.666C100.889 131.666 99.5833 132.972 99.5833 134.583C99.5833 136.194 100.889 137.499 102.5 137.499Z" fill="#64717C"/>
<path id="Vector_15" d="M114.167 137.499C115.777 137.499 117.083 136.194 117.083 134.583C117.083 132.972 115.777 131.666 114.167 131.666C112.556 131.666 111.25 132.972 111.25 134.583C111.25 136.194 112.556 137.499 114.167 137.499Z" fill="#64717C"/>
<path id="Vector_16" d="M90.8333 137.499C92.4442 137.499 93.75 136.194 93.75 134.583C93.75 132.972 92.4442 131.666 90.8333 131.666C89.2225 131.666 87.9167 132.972 87.9167 134.583C87.9167 136.194 89.2225 137.499 90.8333 137.499Z" fill="#64717C"/>
<path id="Vector_17" d="M134.583 58.7493C136.194 58.7493 137.5 57.4435 137.5 55.8327C137.5 54.2219 136.194 52.916 134.583 52.916C132.973 52.916 131.667 54.2219 131.667 55.8327C131.667 57.4435 132.973 58.7493 134.583 58.7493Z" fill="#64717C"/>
<path id="Vector_18" d="M134.583 70.4173C136.194 70.4173 137.5 69.1115 137.5 67.5007C137.5 65.8898 136.194 64.584 134.583 64.584C132.973 64.584 131.667 65.8898 131.667 67.5007C131.667 69.1115 132.973 70.4173 134.583 70.4173Z" fill="#64717C"/>
<path id="Vector_19" d="M134.583 82.0833C136.194 82.0833 137.5 80.7775 137.5 79.1667C137.5 77.5558 136.194 76.25 134.583 76.25C132.973 76.25 131.667 77.5558 131.667 79.1667C131.667 80.7775 132.973 82.0833 134.583 82.0833Z" fill="#64717C"/>
<path id="Vector_20" d="M134.583 105.417C136.194 105.417 137.5 104.111 137.5 102.501C137.5 100.89 136.194 99.584 134.583 99.584C132.973 99.584 131.667 100.89 131.667 102.501C131.667 104.111 132.973 105.417 134.583 105.417Z" fill="#64717C"/>
<path id="Vector_21" d="M134.583 117.083C136.194 117.083 137.5 115.777 137.5 114.167C137.5 112.556 136.194 111.25 134.583 111.25C132.973 111.25 131.667 112.556 131.667 114.167C131.667 115.777 132.973 117.083 134.583 117.083Z" fill="#64717C"/>
<path id="Vector_22" d="M134.583 93.7493C136.194 93.7493 137.5 92.4435 137.5 90.8327C137.5 89.2219 136.194 87.916 134.583 87.916C132.973 87.916 131.667 89.2219 131.667 90.8327C131.667 92.4435 132.973 93.7493 134.583 93.7493Z" fill="#64717C"/>
<path id="Vector_23" d="M35.4167 58.7493C37.0275 58.7493 38.3333 57.4435 38.3333 55.8327C38.3333 54.2219 37.0275 52.916 35.4167 52.916C33.8058 52.916 32.5 54.2219 32.5 55.8327C32.5 57.4435 33.8058 58.7493 35.4167 58.7493Z" fill="#64717C"/>
<path id="Vector_24" d="M35.4167 70.4173C37.0275 70.4173 38.3333 69.1115 38.3333 67.5007C38.3333 65.8898 37.0275 64.584 35.4167 64.584C33.8058 64.584 32.5 65.8898 32.5 67.5007C32.5 69.1115 33.8058 70.4173 35.4167 70.4173Z" fill="#64717C"/>
<path id="Vector_25" d="M35.4167 82.0833C37.0275 82.0833 38.3333 80.7775 38.3333 79.1667C38.3333 77.5558 37.0275 76.25 35.4167 76.25C33.8058 76.25 32.5 77.5558 32.5 79.1667C32.5 80.7775 33.8058 82.0833 35.4167 82.0833Z" fill="#64717C"/>
<path id="Vector_26" d="M35.4167 105.417C37.0275 105.417 38.3333 104.111 38.3333 102.501C38.3333 100.89 37.0275 99.584 35.4167 99.584C33.8058 99.584 32.5 100.89 32.5 102.501C32.5 104.111 33.8058 105.417 35.4167 105.417Z" fill="#64717C"/>
<path id="Vector_27" d="M35.4167 117.083C37.0275 117.083 38.3333 115.777 38.3333 114.167C38.3333 112.556 37.0275 111.25 35.4167 111.25C33.8058 111.25 32.5 112.556 32.5 114.167C32.5 115.777 33.8058 117.083 35.4167 117.083Z" fill="#64717C"/>
<path id="Vector_28" d="M35.4167 93.7493C37.0275 93.7493 38.3333 92.4435 38.3333 90.8327C38.3333 89.2219 37.0275 87.916 35.4167 87.916C33.8058 87.916 32.5 89.2219 32.5 90.8327C32.5 92.4435 33.8058 93.7493 35.4167 93.7493Z" fill="#64717C"/>
<path id="Vector_29" d="M121.458 96.6673H48.5417C47.7396 96.6673 47.0833 96.0111 47.0833 95.209V92.2923C47.0833 91.4902 47.7396 90.834 48.5417 90.834H121.458C122.26 90.834 122.917 91.4902 122.917 92.2923V95.209C122.917 96.0111 122.26 96.6673 121.458 96.6673Z" fill="#007AD9"/>
<path id="Vector_30" d="M109.792 79.1673H48.5417C47.7396 79.1673 47.0833 78.5111 47.0833 77.709V74.7923C47.0833 73.9902 47.7396 73.334 48.5417 73.334H109.792C110.594 73.334 111.25 73.9902 111.25 74.7923V77.709C111.25 78.5111 110.594 79.1673 109.792 79.1673Z" fill="#007AD9"/>
<path id="Vector_31" d="M121.458 61.6673H48.5417C47.7396 61.6673 47.0833 61.0111 47.0833 60.209V57.2923C47.0833 56.4902 47.7396 55.834 48.5417 55.834H121.458C122.26 55.834 122.917 56.4902 122.917 57.2923V60.209C122.917 61.0111 122.26 61.6673 121.458 61.6673Z" fill="#007AD9"/>
<path id="Vector_32" d="M109.792 114.167H48.5417C47.7396 114.167 47.0833 113.511 47.0833 112.709V109.792C47.0833 108.99 47.7396 108.334 48.5417 108.334H109.792C110.594 108.334 111.25 108.99 111.25 109.792V112.709C111.25 113.511 110.594 114.167 109.792 114.167Z" fill="#007AD9"/>
<rect x="7.5" y="7.5" width="155" height="155" rx="12.5" stroke="#D5EAF6" stroke-width="15"/>
</g>
<defs>
<linearGradient id="paint0_linear_1_1779" x1="85" y1="15" x2="85" y2="155" gradientUnits="userSpaceOnUse">
<stop stop-color="#199AE0"/>
<stop offset="0.472222" stop-color="#0D5176" stop-opacity="0.527778"/>
<stop offset="0.940972" stop-color="#12A6F7" stop-opacity="0.465278"/>
<stop offset="1" stop-opacity="0"/>
</linearGradient>
</defs>
</svg>
