<svg width="170" height="170" viewBox="0 0 170 170" fill="none" xmlns="http://www.w3.org/2000/svg">
<g id="sell-stock">
<g clip-path="url(#clip0_1_1812)">
<rect x="15" y="15" width="140" height="140" rx="5" fill="white"/>
<rect x="15" y="15" width="140" height="140" rx="5" fill="url(#paint0_linear_1_1812)" fill-opacity="0.2"/>
<path id="Vector" d="M122.917 143.334C127.749 143.334 131.667 139.416 131.667 134.584C131.667 129.751 127.749 125.834 122.917 125.834C118.084 125.834 114.167 129.751 114.167 134.584C114.167 139.416 118.084 143.334 122.917 143.334Z" fill="#5C5F61"/>
<path id="Vector_2" opacity="0.15" d="M122.917 137.499C124.527 137.499 125.833 136.194 125.833 134.583C125.833 132.972 124.527 131.666 122.917 131.666C121.306 131.666 120 132.972 120 134.583C120 136.194 121.306 137.499 122.917 137.499Z" fill="black"/>
<path id="Vector_3" d="M58.75 143.334C63.5825 143.334 67.5 139.416 67.5 134.584C67.5 129.751 63.5825 125.834 58.75 125.834C53.9175 125.834 50 129.751 50 134.584C50 139.416 53.9175 143.334 58.75 143.334Z" fill="#5C5F61"/>
<path id="Vector_4" opacity="0.15" d="M58.75 137.499C60.3608 137.499 61.6667 136.194 61.6667 134.583C61.6667 132.972 60.3608 131.666 58.75 131.666C57.1392 131.666 55.8333 132.972 55.8333 134.583C55.8333 136.194 57.1392 137.499 58.75 137.499Z" fill="black"/>
<path id="Vector_5" d="M47.1679 99.584H143.246C144.905 99.584 146.25 100.891 146.25 102.501V108.334C146.25 109.944 144.905 111.251 143.249 111.251H47.1679C45.5112 111.251 44.1667 109.944 44.1667 108.334V102.501C44.1667 100.891 45.5112 99.584 47.1679 99.584Z" fill="url(#paint1_linear_1_1812)"/>
<path id="Vector_6" d="M134.583 128.749H52.0242C47.7279 128.749 44.0996 125.675 43.3937 121.437L30.8433 46.1231C30.3708 43.2998 27.95 41.2493 25.0858 41.2493H20.8333C19.2233 41.2493 17.9167 39.9427 17.9167 38.3327C17.9167 36.7227 19.2233 35.416 20.8333 35.416H25.0858C30.8112 35.416 35.6529 39.5168 36.595 45.1635L49.1483 120.478C49.3846 121.889 50.595 122.916 52.0242 122.916H134.583C136.193 122.916 137.5 124.223 137.5 125.833C137.5 127.443 136.193 128.749 134.583 128.749Z" fill="url(#paint2_linear_1_1812)"/>
<path id="Vector_7" d="M26.6667 38.3333C26.6667 41.5533 24.0533 44.1667 20.8333 44.1667C17.6133 44.1667 15 41.5533 15 38.3333C15 35.1133 17.6133 32.5 20.8333 32.5C24.0533 32.5 26.6667 35.1133 26.6667 38.3333Z" fill="url(#paint3_linear_1_1812)"/>
<path id="Vector_8" d="M136.042 99.5833H54.375V44.1667C54.375 42.5567 55.6817 41.25 57.2917 41.25H133.125C134.735 41.25 136.042 42.5567 136.042 44.1667V99.5833Z" fill="#E3A600"/>
</g>
<rect x="7.5" y="7.5" width="155" height="155" rx="12.5" stroke="#D5EAF6" stroke-width="15"/>
</g>
<defs>
<linearGradient id="paint0_linear_1_1812" x1="85" y1="15" x2="85" y2="155" gradientUnits="userSpaceOnUse">
<stop stop-color="#199AE0"/>
<stop offset="0.472222" stop-color="#0D5176" stop-opacity="0.527778"/>
<stop offset="0.940972" stop-color="#12A6F7" stop-opacity="0.465278"/>
<stop offset="1" stop-opacity="0"/>
</linearGradient>
<linearGradient id="paint1_linear_1_1812" x1="44.1667" y1="105.417" x2="146.25" y2="105.417" gradientUnits="userSpaceOnUse">
<stop stop-color="#3079D6"/>
<stop offset="1" stop-color="#297CD2"/>
</linearGradient>
<linearGradient id="paint2_linear_1_1812" x1="77.7083" y1="128.254" x2="77.7083" y2="97.3427" gradientUnits="userSpaceOnUse">
<stop stop-color="#92A3B0"/>
<stop offset="0.015" stop-color="#A3B5C4"/>
<stop offset="0.032" stop-color="#AEC2D1"/>
<stop offset="0.046" stop-color="#B2C6D6"/>
</linearGradient>
<linearGradient id="paint3_linear_1_1812" x1="17.205" y1="34.705" x2="24.87" y2="42.37" gradientUnits="userSpaceOnUse">
<stop stop-color="#199AE0"/>
<stop offset="1" stop-color="#0782D8"/>
</linearGradient>
<clipPath id="clip0_1_1812">
<rect x="15" y="15" width="140" height="140" rx="5" fill="white"/>
</clipPath>
</defs>
</svg>
