<svg width="170" height="170" viewBox="0 0 170 170" fill="none" xmlns="http://www.w3.org/2000/svg">
<g id="send-email">
<rect x="7.5" y="7.5" width="155" height="155" rx="12.5" fill="white"/>
<rect x="7.5" y="7.5" width="155" height="155" rx="12.5" fill="url(#paint0_linear_1_1830)" fill-opacity="0.2"/>
<path id="Vector" d="M40.8329 75.1392L125.833 41.3555V103.472C125.833 106.082 123.719 108.194 121.111 108.194H40.8329V75.1392Z" fill="url(#paint1_linear_1_1830)"/>
<path id="Vector_2" d="M26.6667 41.25V103.611C26.6667 106.219 28.7812 108.333 31.3887 108.333H121.111C122.269 108.333 123.319 107.899 124.142 107.205L26.6667 41.25Z" fill="url(#paint2_linear_1_1830)"/>
<path id="Vector_3" d="M31.3887 32.6406H121.111C123.719 32.6406 125.833 34.7523 125.833 37.3627V41.3585L81.5671 71.5169C78.3587 73.7044 74.1383 73.7044 70.9329 71.5169L26.6667 41.3556V37.3598C26.6667 34.7523 28.7812 32.6406 31.3887 32.6406Z" fill="#7B83EB"/>
<path id="Vector_4" opacity="0.05" d="M125.833 58.75H48.8888C44.6683 58.75 41.25 62.1683 41.25 66.3887V108.333H44.1667L125.833 61.6667V58.75Z" fill="black"/>
<path id="Vector_5" opacity="0.07" d="M125.833 60.3477H48.8887C45.4792 60.3477 42.7083 63.1185 42.7083 66.5281V108.333H47.0833L125.833 61.666V60.3477Z" fill="black"/>
<path id="Vector_6" d="M58.3329 104.305L143.333 70.5215V132.638C143.333 135.248 141.219 137.36 138.611 137.36H58.3329V104.305Z" fill="url(#paint3_linear_1_1830)"/>
<path id="Vector_7" d="M44.1667 70.5215V132.638C44.1667 135.248 46.2812 137.36 48.8887 137.36H138.611C139.769 137.36 140.819 136.925 141.642 136.231L44.1667 70.5215Z" fill="url(#paint4_linear_1_1830)"/>
<path id="Vector_8" opacity="0.05" d="M44.1667 68.8887H143.333V72.9574L102.439 105.303C97.3258 109.346 90.1742 109.346 85.0612 105.303L44.1667 72.9574V68.8887Z" fill="black"/>
<path id="Vector_9" opacity="0.07" d="M44.1667 67.707H143.333V71.7495L100.753 103.08C96.5937 106.195 90.9063 106.195 86.7471 103.08L44.1667 71.7525V67.707Z" fill="black"/>
<path id="Vector_10" d="M48.8887 61.8066H138.611C141.222 61.8066 143.333 63.9212 143.333 66.5287V70.5246L99.0671 100.683C95.8587 102.87 91.6383 102.87 88.4329 100.683L44.1667 70.5216V66.5258C44.1667 63.9183 46.2812 61.8066 48.8887 61.8066Z" fill="#50E6FF"/>
<path id="Vector_11" opacity="0.05" d="M135.808 106.971C134.808 105.967 133.49 105.416 132.093 105.416C129.176 105.416 126.805 107.784 126.805 110.692V120.971H106.388C102.634 120.971 99.5833 124.021 99.5833 127.775V135.554C99.5833 136.184 99.6971 136.782 99.8575 137.359H138.611C141.219 137.359 143.333 135.245 143.333 132.637V114.493L135.808 106.971Z" fill="black"/>
<path id="Vector_12" opacity="0.07" d="M134.776 108.001C134.053 107.275 133.102 106.875 132.095 106.875C129.984 106.875 128.266 108.587 128.266 110.693V122.43H106.391C103.442 122.43 101.045 124.827 101.045 127.776V135.555C101.045 136.19 101.176 136.794 101.38 137.36H138.614C141.222 137.36 143.336 135.245 143.336 132.638V116.558L134.776 108.001Z" fill="black"/>
<path id="Vector_13" d="M129.721 110.693V123.888H106.388C104.241 123.888 102.5 125.629 102.5 127.776V135.554C102.5 137.701 104.241 139.442 106.388 139.442H129.721V152.637C129.721 154.737 132.262 155.787 133.743 154.303L153.049 134.997C154.889 133.157 154.889 130.17 153.049 128.333L133.743 109.027C132.262 107.543 129.721 108.593 129.721 110.693Z" fill="url(#paint5_linear_1_1830)"/>
<rect x="7.5" y="7.5" width="155" height="155" rx="12.5" stroke="#D5EAF6" stroke-width="15"/>
</g>
<defs>
<linearGradient id="paint0_linear_1_1830" x1="85" y1="15" x2="85" y2="155" gradientUnits="userSpaceOnUse">
<stop stop-color="#199AE0"/>
<stop offset="0.472222" stop-color="#0D5176" stop-opacity="0.527778"/>
<stop offset="0.940972" stop-color="#12A6F7" stop-opacity="0.465278"/>
<stop offset="1" stop-opacity="0"/>
</linearGradient>
<linearGradient id="paint1_linear_1_1830" x1="70.3846" y1="55.3963" x2="127.23" y2="140.478" gradientUnits="userSpaceOnUse">
<stop stop-color="#5059C9"/>
<stop offset="0.999" stop-color="#4750B3"/>
</linearGradient>
<linearGradient id="paint2_linear_1_1830" x1="22.8662" y1="71.3733" x2="105.414" y2="122.794" gradientUnits="userSpaceOnUse">
<stop stop-color="#5961C3"/>
<stop offset="1" stop-color="#3A41AC"/>
</linearGradient>
<linearGradient id="paint3_linear_1_1830" x1="87.8846" y1="84.5623" x2="144.73" y2="169.644" gradientUnits="userSpaceOnUse">
<stop stop-color="#28AFEA"/>
<stop offset="1" stop-color="#0B88DA"/>
</linearGradient>
<linearGradient id="paint4_linear_1_1830" x1="40.4071" y1="100.551" x2="122.864" y2="151.914" gradientUnits="userSpaceOnUse">
<stop stop-color="#28AFEA"/>
<stop offset="1" stop-color="#0B88DA"/>
</linearGradient>
<linearGradient id="paint5_linear_1_1830" x1="154.326" y1="131.667" x2="102.138" y2="131.667" gradientUnits="userSpaceOnUse">
<stop stop-color="#C965EB"/>
<stop offset="1" stop-color="#C767E5"/>
</linearGradient>
</defs>
</svg>
