<svg width="170" height="170" viewBox="0 0 170 170" fill="none" xmlns="http://www.w3.org/2000/svg">
<g id="set-as-resume">
<rect x="7.5" y="7.5" width="155" height="155" rx="12.5" fill="white"/>
<rect x="7.5" y="7.5" width="155" height="155" rx="12.5" fill="url(#paint0_linear_1_1852)" fill-opacity="0.2"/>
<path id="Vector" d="M128.75 35.4173V134.584C128.75 137.807 126.14 140.417 122.917 140.417H47.0833C43.8604 140.417 41.25 137.807 41.25 134.584V35.4173C41.25 32.1944 43.8604 29.584 47.0833 29.584H122.917C126.14 29.584 128.75 32.1944 128.75 35.4173Z" fill="#50E6FF"/>
<path id="Vector_2" d="M64.5833 58.7507C67.805 58.7507 70.4167 56.139 70.4167 52.9173C70.4167 49.6957 67.805 47.084 64.5833 47.084C61.3617 47.084 58.75 49.6957 58.75 52.9173C58.75 56.139 61.3617 58.7507 64.5833 58.7507Z" fill="#057093"/>
<path id="Vector_3" d="M64.5833 61.666C59.7504 61.666 55.8333 65.5831 55.8333 70.416V74.4993C55.8333 75.4648 56.6179 76.2493 57.5833 76.2493H71.5833C72.5487 76.2493 73.3333 75.4648 73.3333 74.4993V70.416C73.3333 65.5831 69.4162 61.666 64.5833 61.666Z" fill="#057093"/>
<path id="Vector_4" d="M111.25 96.666H76.25C74.64 96.666 73.3333 97.9727 73.3333 99.5827C73.3333 101.193 74.64 102.499 76.25 102.499H111.25C112.86 102.499 114.167 101.193 114.167 99.5827C114.167 97.9727 112.86 96.666 111.25 96.666Z" fill="#057093"/>
<path id="Vector_5" d="M111.25 85H64.5833C62.9733 85 61.6667 86.3067 61.6667 87.9167C61.6667 89.5267 62.9733 90.8333 64.5833 90.8333H111.25C112.86 90.8333 114.167 89.5267 114.167 87.9167C114.167 86.3067 112.86 85 111.25 85Z" fill="#057093"/>
<path id="Vector_6" d="M111.25 120H64.5833C62.9733 120 61.6667 121.307 61.6667 122.917C61.6667 124.527 62.9733 125.833 64.5833 125.833H111.25C112.86 125.833 114.167 124.527 114.167 122.917C114.167 121.307 112.86 120 111.25 120Z" fill="#057093"/>
<path id="Vector_7" d="M111.25 108.334H76.25C74.64 108.334 73.3333 109.641 73.3333 111.251C73.3333 112.861 74.64 114.167 76.25 114.167H111.25C112.86 114.167 114.167 112.861 114.167 111.251C114.167 109.641 112.86 108.334 111.25 108.334Z" fill="#057093"/>
<path id="Vector_8" d="M111.25 61.666H87.9167C86.3067 61.666 85 62.9727 85 64.5827C85 66.1927 86.3067 67.4993 87.9167 67.4993H111.25C112.86 67.4993 114.167 66.1927 114.167 64.5827C114.167 62.9727 112.86 61.666 111.25 61.666Z" fill="#057093"/>
<path id="Vector_9" d="M111.25 50H87.9167C86.3067 50 85 51.3067 85 52.9167C85 54.5267 86.3067 55.8333 87.9167 55.8333H111.25C112.86 55.8333 114.167 54.5267 114.167 52.9167C114.167 51.3067 112.86 50 111.25 50Z" fill="#057093"/>
<path id="Vector_10" d="M50 89.6863V99.5826H32.5C30.89 99.5826 29.5833 100.889 29.5833 102.499V108.333C29.5833 109.943 30.89 111.249 32.5 111.249H50V121.145C50 122.72 51.9046 123.508 53.0158 122.394L67.4942 107.915C68.8737 106.536 68.8737 104.296 67.4942 102.916L53.0158 88.438C51.9046 87.3238 50 88.1113 50 89.6863Z" fill="url(#paint1_linear_1_1852)"/>
<rect x="7.5" y="7.5" width="155" height="155" rx="12.5" stroke="#D5EAF6" stroke-width="15"/>
</g>
<defs>
<linearGradient id="paint0_linear_1_1852" x1="85" y1="15" x2="85" y2="155" gradientUnits="userSpaceOnUse">
<stop stop-color="#199AE0"/>
<stop offset="0.472222" stop-color="#0D5176" stop-opacity="0.527778"/>
<stop offset="0.940972" stop-color="#12A6F7" stop-opacity="0.465278"/>
<stop offset="1" stop-opacity="0"/>
</linearGradient>
<linearGradient id="paint1_linear_1_1852" x1="68.4537" y1="105.416" x2="29.3121" y2="105.416" gradientUnits="userSpaceOnUse">
<stop stop-color="#C965EB"/>
<stop offset="1" stop-color="#C767E5"/>
</linearGradient>
</defs>
</svg>
