<svg width="170" height="170" viewBox="0 0 170 170" fill="none" xmlns="http://www.w3.org/2000/svg">
<g id="shared-folder">
<rect x="7.5" y="7.5" width="155" height="155" rx="12.5" fill="white"/>
<rect x="7.5" y="7.5" width="155" height="155" rx="12.5" fill="url(#paint0_linear_1_1867)" fill-opacity="0.2"/>
<path id="Vector" d="M87.9167 131.667V108.334H82.0833V131.667H35.4167C33.8067 131.667 32.5 132.974 32.5 134.584C32.5 136.194 33.8067 137.501 35.4167 137.501H134.583C136.193 137.501 137.5 136.194 137.5 134.584C137.5 132.974 136.193 131.667 134.583 131.667H87.9167Z" fill="#E9EBED"/>
<path id="Vector_2" d="M99.5833 128.75H90.8333V122.917C90.8333 121.307 89.5267 120 87.9167 120H82.0833C80.4733 120 79.1667 121.307 79.1667 122.917V128.75H70.4167C68.8067 128.75 67.5 130.057 67.5 131.667V137.5C67.5 139.11 68.8067 140.417 70.4167 140.417H99.5833C101.193 140.417 102.5 139.11 102.5 137.5V131.667C102.5 130.057 101.193 128.75 99.5833 128.75Z" fill="#21A366"/>
<path id="Vector_3" d="M85 41.25V58.75H38.3333L35.4167 55.8217V37.1375C35.4167 34.5708 37.5167 32.5 40.1417 32.5H70.3292C72.1667 32.5 73.9167 33.2292 75.2292 34.5125L80.0417 39.2375C81.3542 40.5208 83.1042 41.25 84.9417 41.25H85Z" fill="url(#paint1_linear_1_1867)"/>
<path id="Vector_4" d="M76.9471 49.2096L84.6558 41.5912C84.8775 41.3725 85.175 41.25 85.4842 41.25H128.75C131.973 41.25 134.583 43.8604 134.583 47.0833V105.417C134.583 108.64 131.973 111.25 128.75 111.25H41.25C38.0271 111.25 35.4167 108.64 35.4167 105.417V53.5C35.4167 51.89 36.7233 50.5833 38.3333 50.5833H73.6017C74.8529 50.5833 76.0546 50.0904 76.9471 49.2096Z" fill="url(#paint2_linear_1_1867)"/>
<rect x="7.5" y="7.5" width="155" height="155" rx="12.5" stroke="#D5EAF6" stroke-width="15"/>
</g>
<defs>
<linearGradient id="paint0_linear_1_1867" x1="85" y1="15" x2="85" y2="155" gradientUnits="userSpaceOnUse">
<stop stop-color="#199AE0"/>
<stop offset="0.472222" stop-color="#0D5176" stop-opacity="0.527778"/>
<stop offset="0.940972" stop-color="#12A6F7" stop-opacity="0.465278"/>
<stop offset="1" stop-opacity="0"/>
</linearGradient>
<linearGradient id="paint1_linear_1_1867" x1="60.2083" y1="58.9746" x2="60.2083" y2="52.59" gradientUnits="userSpaceOnUse">
<stop stop-color="#EBA600"/>
<stop offset="1" stop-color="#C28200"/>
</linearGradient>
<linearGradient id="paint2_linear_1_1867" x1="85" y1="40.9087" x2="85" y2="111.212" gradientUnits="userSpaceOnUse">
<stop stop-color="#FFD869"/>
<stop offset="1" stop-color="#FEC52B"/>
</linearGradient>
</defs>
</svg>
