<svg width="170" height="170" viewBox="0 0 170 170" fill="none" xmlns="http://www.w3.org/2000/svg">
<g id="shipping-centre-loading-belt">
<rect x="7.5" y="7.5" width="155" height="155" rx="12.5" fill="white"/>
<rect x="7.5" y="7.5" width="155" height="155" rx="12.5" fill="url(#paint0_linear_1_1872)" fill-opacity="0.2"/>
<path id="Vector" d="M134.583 134.583H35.4167C27.3637 134.583 20.8333 128.052 20.8333 119.999C20.8333 111.946 27.3637 105.416 35.4167 105.416H134.583C142.636 105.416 149.167 111.946 149.167 119.999C149.167 128.052 142.636 134.583 134.583 134.583Z" fill="url(#paint1_linear_1_1872)"/>
<path id="Vector_2" d="M38.3333 128.75C43.1658 128.75 47.0833 124.832 47.0833 120C47.0833 115.168 43.1658 111.25 38.3333 111.25C33.5008 111.25 29.5833 115.168 29.5833 120C29.5833 124.832 33.5008 128.75 38.3333 128.75Z" fill="url(#paint2_linear_1_1872)"/>
<path id="Vector_3" d="M61.6667 128.75C66.4992 128.75 70.4167 124.832 70.4167 120C70.4167 115.168 66.4992 111.25 61.6667 111.25C56.8342 111.25 52.9167 115.168 52.9167 120C52.9167 124.832 56.8342 128.75 61.6667 128.75Z" fill="url(#paint3_linear_1_1872)"/>
<path id="Vector_4" d="M85 128.75C89.8325 128.75 93.75 124.832 93.75 120C93.75 115.168 89.8325 111.25 85 111.25C80.1675 111.25 76.25 115.168 76.25 120C76.25 124.832 80.1675 128.75 85 128.75Z" fill="url(#paint4_linear_1_1872)"/>
<path id="Vector_5" d="M108.333 128.75C113.166 128.75 117.083 124.832 117.083 120C117.083 115.168 113.166 111.25 108.333 111.25C103.501 111.25 99.5833 115.168 99.5833 120C99.5833 124.832 103.501 128.75 108.333 128.75Z" fill="url(#paint5_linear_1_1872)"/>
<path id="Vector_6" d="M131.667 128.75C136.499 128.75 140.417 124.832 140.417 120C140.417 115.168 136.499 111.25 131.667 111.25C126.834 111.25 122.917 115.168 122.917 120C122.917 124.832 126.834 128.75 131.667 128.75Z" fill="url(#paint6_linear_1_1872)"/>
<path id="Vector_7" d="M50 101.528V39.3039C50 37.166 51.75 35.416 53.8879 35.416H116.109C118.25 35.416 120 37.166 120 39.3039V101.525C120 103.666 118.25 105.416 116.112 105.416H53.8879C51.75 105.416 50 103.666 50 101.528Z" fill="url(#paint7_linear_1_1872)"/>
<path id="Vector_8" d="M94.7212 45.1373H75.2758V35.416H94.7212V45.1373Z" fill="#FFF8E6"/>
<path id="Vector_9" opacity="0.05" d="M120 61.666H102.5C99.2829 61.666 96.6667 64.2823 96.6667 67.4993V73.3327C96.6667 76.5498 99.2829 79.166 102.5 79.166H120V61.666Z" fill="black"/>
<path id="Vector_10" opacity="0.07" d="M120 63.125H102.5C100.088 63.125 98.125 65.0879 98.125 67.5V73.3333C98.125 75.7454 100.088 77.7083 102.5 77.7083H120V63.125Z" fill="black"/>
<path id="Vector_11" d="M131.667 54.6863V64.5826H102.5C100.89 64.5826 99.5833 65.8892 99.5833 67.4992V73.3326C99.5833 74.9426 100.89 76.2492 102.5 76.2492H131.667V86.1455C131.667 87.7205 133.571 88.508 134.683 87.3938L149.161 72.9155C150.54 71.5359 150.54 69.2959 149.161 67.9163L134.683 53.438C133.571 52.3238 131.667 53.1113 131.667 54.6863Z" fill="#50E6FF"/>
<rect x="7.5" y="7.5" width="155" height="155" rx="12.5" stroke="#D5EAF6" stroke-width="15"/>
</g>
<defs>
<linearGradient id="paint0_linear_1_1872" x1="85" y1="15" x2="85" y2="155" gradientUnits="userSpaceOnUse">
<stop stop-color="#199AE0"/>
<stop offset="0.472222" stop-color="#0D5176" stop-opacity="0.527778"/>
<stop offset="0.940972" stop-color="#12A6F7" stop-opacity="0.465278"/>
<stop offset="1" stop-opacity="0"/>
</linearGradient>
<linearGradient id="paint1_linear_1_1872" x1="85" y1="140.168" x2="85" y2="111.121" gradientUnits="userSpaceOnUse">
<stop stop-color="#737B80"/>
<stop offset="1" stop-color="#575C61"/>
</linearGradient>
<linearGradient id="paint2_linear_1_1872" x1="44.4292" y1="126.096" x2="32.1558" y2="113.823" gradientUnits="userSpaceOnUse">
<stop stop-color="white"/>
<stop offset="0.242" stop-color="#fcfcfc"/>
<stop offset="1" stop-color="#CCCCCC"/>
</linearGradient>
<linearGradient id="paint3_linear_1_1872" x1="67.7625" y1="126.096" x2="55.4892" y2="113.823" gradientUnits="userSpaceOnUse">
<stop stop-color="white"/>
<stop offset="0.242" stop-color="#fcfcfc"/>
<stop offset="1" stop-color="#CCCCCC"/>
</linearGradient>
<linearGradient id="paint4_linear_1_1872" x1="91.0958" y1="126.096" x2="78.8225" y2="113.823" gradientUnits="userSpaceOnUse">
<stop stop-color="white"/>
<stop offset="0.242" stop-color="#fcfcfc"/>
<stop offset="1" stop-color="#CCCCCC"/>
</linearGradient>
<linearGradient id="paint5_linear_1_1872" x1="114.429" y1="126.096" x2="102.156" y2="113.823" gradientUnits="userSpaceOnUse">
<stop stop-color="white"/>
<stop offset="0.242" stop-color="#fcfcfc"/>
<stop offset="1" stop-color="#CCCCCC"/>
</linearGradient>
<linearGradient id="paint6_linear_1_1872" x1="137.762" y1="126.096" x2="125.489" y2="113.823" gradientUnits="userSpaceOnUse">
<stop stop-color="white"/>
<stop offset="0.242" stop-color="#fcfcfc"/>
<stop offset="1" stop-color="#CCCCCC"/>
</linearGradient>
<linearGradient id="paint7_linear_1_1872" x1="53.1617" y1="24.3181" x2="100.823" y2="93.3235" gradientUnits="userSpaceOnUse">
<stop stop-color="#FFD869"/>
<stop offset="1" stop-color="#FEC52B"/>
</linearGradient>
</defs>
</svg>
