<svg width="170" height="170" viewBox="0 0 170 170" fill="none" xmlns="http://www.w3.org/2000/svg">
<g id="shopping-cart-promotion">
<g clip-path="url(#clip0_1_1894)">
<rect x="15" y="15" width="140" height="140" rx="5" fill="white"/>
<rect x="15" y="15" width="140" height="140" rx="5" fill="url(#paint0_linear_1_1894)" fill-opacity="0.2"/>
<path id="Vector" d="M42.6092 87.5573C41.2529 87.5573 40.0396 86.6064 39.7537 85.2298L31.66 45.9073C31.1029 43.2064 28.7025 41.2493 25.9462 41.2493H20.8333C19.2233 41.2493 17.9167 39.9427 17.9167 38.3327C17.9167 36.7227 19.2233 35.416 20.8333 35.416H25.9462C31.4558 35.416 36.2625 39.3331 37.3737 44.7289L45.4675 84.0514C45.7912 85.6293 44.7762 87.1723 43.1983 87.496C43.0029 87.5398 42.8046 87.5573 42.6092 87.5573Z" fill="url(#paint1_linear_1_1894)"/>
<path id="Vector_2" d="M122.917 143.334C127.749 143.334 131.667 139.416 131.667 134.584C131.667 129.751 127.749 125.834 122.917 125.834C118.084 125.834 114.167 129.751 114.167 134.584C114.167 139.416 118.084 143.334 122.917 143.334Z" fill="#5C5F61"/>
<path id="Vector_3" opacity="0.15" d="M122.917 137.499C124.527 137.499 125.833 136.194 125.833 134.583C125.833 132.972 124.527 131.666 122.917 131.666C121.306 131.666 120 132.972 120 134.583C120 136.194 121.306 137.499 122.917 137.499Z" fill="black"/>
<path id="Vector_4" d="M58.75 143.334C63.5825 143.334 67.5 139.416 67.5 134.584C67.5 129.751 63.5825 125.834 58.75 125.834C53.9175 125.834 50 129.751 50 134.584C50 139.416 53.9175 143.334 58.75 143.334Z" fill="#5C5F61"/>
<path id="Vector_5" d="M134.583 128.749H52.9167C46.4825 128.749 41.25 123.517 41.25 117.083C41.25 110.649 46.4825 105.416 52.9167 105.416H125.833C127.443 105.416 128.75 106.723 128.75 108.333C128.75 109.943 127.443 111.249 125.833 111.249H52.9167C49.6996 111.249 47.0833 113.866 47.0833 117.083C47.0833 120.3 49.6996 122.916 52.9167 122.916H134.583C136.193 122.916 137.5 124.223 137.5 125.833C137.5 127.443 136.193 128.749 134.583 128.749Z" fill="url(#paint2_linear_1_1894)"/>
<path id="Vector_6" d="M26.6667 38.3333C26.6667 41.5533 24.0533 44.1667 20.8333 44.1667C17.6133 44.1667 15 41.5533 15 38.3333C15 35.1133 17.6133 32.5 20.8333 32.5C24.0533 32.5 26.6667 35.1133 26.6667 38.3333Z" fill="url(#paint3_linear_1_1894)"/>
<path id="Vector_7" d="M43.2625 106.508C43.7875 109.261 46.1937 111.25 48.9937 111.25H132.559C135.412 111.25 137.844 109.188 138.314 106.376L144.331 70.271L34.7546 61.8418L43.2625 106.508Z" fill="url(#paint4_linear_1_1894)"/>
<path id="Vector_8" d="M143.074 58.505L32.5 50L34.7546 61.8417L144.328 70.2708L145.725 61.8942C146.008 60.2054 144.78 58.6363 143.074 58.505Z" fill="url(#paint5_linear_1_1894)"/>
<path id="Vector_9" opacity="0.05" d="M59.5725 52.082C58.4379 54.8704 58.5371 58.0641 60.0275 60.7154L61.6696 63.6437L61.7104 67.0037C61.7512 70.457 63.6208 73.7004 66.5958 75.4679L69.4833 77.18L71.1954 80.0704C72.96 83.0424 76.2033 84.9149 79.6567 84.9529L83.0167 84.9937L85.945 86.6358C87.4383 87.4758 89.1271 87.9162 90.8333 87.9162C92.5396 87.9162 94.2283 87.4758 95.7158 86.6387L98.6442 84.9966L102.004 84.9558C105.458 84.915 108.701 83.0454 110.468 80.0704L112.18 77.1829L115.071 75.4708C118.043 73.7062 119.915 70.4629 119.953 67.0095L119.994 63.6495L121.636 60.7212C122.295 59.5487 122.619 58.2566 122.765 56.947L59.5725 52.082Z" fill="black"/>
<path id="Vector_10" opacity="0.07" d="M61.0833 52.1992C59.9137 54.6726 59.9487 57.6009 61.2992 60.0042L63.1221 63.2592L63.1687 66.9896C63.2037 69.9384 64.8021 72.7063 67.3396 74.2171L70.5479 76.1188L72.4525 79.3301C73.9604 81.8676 76.7283 83.4659 79.6771 83.5009L83.4075 83.5476L86.6625 85.3705C87.9342 86.0821 89.375 86.4584 90.8333 86.4584C92.2917 86.4584 93.7325 86.0821 95.0042 85.3675L98.2592 83.5446L101.99 83.498C104.938 83.463 107.706 81.8646 109.217 79.3271L111.119 76.1188L114.33 74.2142C116.867 72.7063 118.466 69.9384 118.501 66.9896L118.547 63.2592L120.37 60.0042C120.925 59.0184 121.199 57.9334 121.327 56.8338L61.0833 52.1992Z" fill="black"/>
<path id="Vector_11" d="M94.2896 27.5714L97.8683 29.5781L101.972 29.6277C104.434 29.6568 106.703 30.9664 107.96 33.0839L110.054 36.6131L113.583 38.7072C115.701 39.9643 117.01 42.2335 117.04 44.6952L117.089 48.7989L119.096 52.3777C120.3 54.5243 120.3 57.1435 119.096 59.2902L117.089 62.8689L117.04 66.9727C117.01 69.4343 115.701 71.7035 113.583 72.9606L110.054 75.0547L107.96 78.5839C106.703 80.7014 104.434 82.011 101.972 82.0402L97.8683 82.0897L94.2896 84.0964C92.1429 85.301 89.5237 85.301 87.3771 84.0964L83.7983 82.0897L79.6946 82.0402C77.2329 82.011 74.9637 80.7014 73.7067 78.5839L71.6125 75.0547L68.0833 72.9606C65.9658 71.7035 64.6562 69.4343 64.6271 66.9727L64.5775 62.8689L62.5708 59.2902C61.3662 57.1435 61.3662 54.5243 62.5708 52.3777L64.5775 48.7989L64.6271 44.6952C64.6562 42.2335 65.9658 39.9643 68.0833 38.7072L71.6125 36.6131L73.7067 33.0839C74.9637 30.9664 77.2329 29.6568 79.6946 29.6277L83.7983 29.5781L87.3771 27.5714C89.5237 26.3668 92.1429 26.3668 94.2896 27.5714Z" fill="url(#paint6_linear_1_1894)"/>
<path id="Vector_12" opacity="0.05" d="M99.9333 52.719C99.5163 52.719 99.1138 52.7394 98.7142 52.7802L104.349 44.1323C105.046 43.0561 105.102 41.6852 104.489 40.5565C103.877 39.4277 102.701 38.7277 101.418 38.7277H98.5158C96.9642 38.7277 95.535 39.5065 94.6863 40.8073L91.58 45.5936C90.5825 41.1048 87.1467 38.334 82.2671 38.334C76.2033 38.334 72.1258 42.5982 72.1258 48.9477C72.1258 56.4057 78.1108 59.3457 82.9292 58.8936L77.3117 67.5327C76.6146 68.609 76.5592 69.9769 77.1717 71.1057C77.7842 72.2344 78.9625 72.9344 80.2458 72.9344H83.1071C84.6588 72.9344 86.0879 72.1586 86.9338 70.8607L90.0867 66.019C91.1133 70.4348 94.6717 73.334 99.4375 73.334C105.385 73.334 109.538 68.9852 109.538 62.7611C109.538 56.5661 105.857 52.719 99.9333 52.719ZM99.7554 59.1182L99.7613 61.9998C99.7583 61.9998 99.7583 61.9998 99.7554 61.9998V59.1182Z" fill="black"/>
<path id="Vector_13" opacity="0.07" d="M99.9333 54.176C98.1571 54.176 96.5792 54.6077 95.2696 55.3923L103.121 43.3377C103.532 42.7106 103.562 41.9114 103.203 41.2523C102.847 40.596 102.162 40.1877 101.415 40.1877H98.5129C97.4571 40.1877 96.4829 40.7156 95.9054 41.6023L90.2617 50.2852C90.355 49.6873 90.4075 49.0631 90.4075 48.4127C90.4075 43.0956 87.2867 39.791 82.2642 39.791C76.9879 39.791 73.5812 43.3843 73.5812 48.9464C73.5812 54.8469 77.6908 57.4894 81.7654 57.4894C83.5037 57.4894 85.0496 57.0752 86.3358 56.3227L78.5338 68.3277C78.1254 68.9548 78.0962 69.7539 78.4521 70.4102C78.8108 71.0693 79.4962 71.4777 80.2429 71.4777H83.1042C84.16 71.4777 85.1342 70.9498 85.7117 70.066L91.4196 61.3014C91.3058 61.946 91.2475 62.6256 91.2475 63.3314C91.2475 69.2318 95.3571 71.8744 99.4317 71.8744C104.6 71.8744 108.074 68.211 108.074 62.7598C108.08 57.3844 105.035 54.176 99.9333 54.176ZM83.3608 48.5906C83.3608 51.0902 82.515 51.0902 82.0075 51.0902C81.5263 51.0902 80.7183 51.0902 80.7183 48.751C80.7183 46.1931 81.6137 46.1931 82.1475 46.1931C82.5704 46.1902 83.3608 46.1902 83.3608 48.5906ZM101.027 62.9727C101.027 65.4723 100.181 65.4723 99.6767 65.4723C99.1458 65.4723 98.3437 65.4723 98.3437 63.1331C98.3437 60.5752 99.2275 60.5752 99.7525 60.5752C100.902 60.5752 101.027 62.2523 101.027 62.9727Z" fill="black"/>
<path id="Vector_14" d="M81.7713 56.0317C79.2046 56.0317 75.0454 54.6171 75.0454 48.9471C75.0454 44.0412 77.965 41.25 82.2671 41.25C86.4379 41.25 88.955 43.8983 88.955 48.4133C88.955 52.9283 86.2979 56.0317 81.7713 56.0317ZM101.902 42.545L84.4954 69.2704C84.1921 69.7371 83.67 70.02 83.1129 70.02H80.2517C79.7908 70.02 79.5138 69.5096 79.7646 69.1246L97.1333 42.3992C97.4367 41.9325 97.9588 41.6496 98.5158 41.6496H101.415C101.876 41.6467 102.153 42.1571 101.902 42.545ZM82.1475 44.7325C80.2225 44.7325 79.26 46.0713 79.26 48.7488C79.26 51.2804 80.1758 52.5463 82.0104 52.5463C83.8829 52.5463 84.8192 51.2279 84.8192 48.5883C84.8163 46.0187 83.9267 44.7325 82.1475 44.7325ZM99.4375 70.4167C95.8792 70.4167 92.7117 68.1154 92.7117 63.3321C92.7117 58.5517 95.6196 55.635 99.9333 55.635C104.247 55.635 106.621 58.26 106.621 62.7575C106.621 67.255 103.97 70.4167 99.4375 70.4167ZM99.7554 59.1175C97.8421 59.1175 96.8883 60.4563 96.8883 63.1338C96.8883 65.6654 97.8188 66.9313 99.6767 66.9313C101.549 66.9313 102.485 65.6129 102.485 62.9733C102.485 61.0017 101.733 59.1175 99.7554 59.1175Z" fill="white"/>
</g>
<rect x="7.5" y="7.5" width="155" height="155" rx="12.5" stroke="#D5EAF6" stroke-width="15"/>
</g>
<defs>
<linearGradient id="paint0_linear_1_1894" x1="85" y1="15" x2="85" y2="155" gradientUnits="userSpaceOnUse">
<stop stop-color="#199AE0"/>
<stop offset="0.472222" stop-color="#0D5176" stop-opacity="0.527778"/>
<stop offset="0.940972" stop-color="#12A6F7" stop-opacity="0.465278"/>
<stop offset="1" stop-opacity="0"/>
</linearGradient>
<linearGradient id="paint1_linear_1_1894" x1="31.7212" y1="87.5573" x2="31.7212" y2="35.416" gradientUnits="userSpaceOnUse">
<stop stop-color="#92A3B0"/>
<stop offset="0.015" stop-color="#A3B5C4"/>
<stop offset="0.032" stop-color="#AEC2D1"/>
<stop offset="0.046" stop-color="#B2C6D6"/>
</linearGradient>
<linearGradient id="paint2_linear_1_1894" x1="89.375" y1="128.749" x2="89.375" y2="105.416" gradientUnits="userSpaceOnUse">
<stop stop-color="#92A3B0"/>
<stop offset="0.015" stop-color="#A3B5C4"/>
<stop offset="0.032" stop-color="#AEC2D1"/>
<stop offset="0.046" stop-color="#B2C6D6"/>
</linearGradient>
<linearGradient id="paint3_linear_1_1894" x1="17.205" y1="34.705" x2="24.87" y2="42.37" gradientUnits="userSpaceOnUse">
<stop stop-color="#199AE0"/>
<stop offset="1" stop-color="#0782D8"/>
</linearGradient>
<linearGradient id="paint4_linear_1_1894" x1="34.7546" y1="86.546" x2="144.331" y2="86.546" gradientUnits="userSpaceOnUse">
<stop stop-color="#3079D6"/>
<stop offset="1" stop-color="#297CD2"/>
</linearGradient>
<linearGradient id="paint5_linear_1_1894" x1="32.5" y1="60.1354" x2="145.766" y2="60.1354" gradientUnits="userSpaceOnUse">
<stop stop-color="#42A3F2"/>
<stop offset="1" stop-color="#42A4EB"/>
</linearGradient>
<linearGradient id="paint6_linear_1_1894" x1="84.6237" y1="25.941" x2="97.0867" y2="85.9427" gradientUnits="userSpaceOnUse">
<stop stop-color="#F44F5A"/>
<stop offset="0.443" stop-color="#EE3D4A"/>
<stop offset="1" stop-color="#E52030"/>
</linearGradient>
<clipPath id="clip0_1_1894">
<rect x="15" y="15" width="140" height="140" rx="5" fill="white"/>
</clipPath>
</defs>
</svg>
