<svg width="170" height="170" viewBox="0 0 170 170" fill="none" xmlns="http://www.w3.org/2000/svg">
<g id="show-property">
<rect x="7.5" y="7.5" width="155" height="155" rx="12.5" fill="white"/>
<rect x="7.5" y="7.5" width="155" height="155" rx="12.5" fill="url(#paint0_linear_1_1913)" fill-opacity="0.2"/>
<path id="Vector" d="M26.6667 125.833V52.916H143.333V125.833C143.333 129.041 140.708 131.666 137.5 131.666H32.5C29.2917 131.666 26.6667 129.041 26.6667 125.833Z" fill="url(#paint1_linear_1_1913)"/>
<path id="Vector_2" d="M127.292 79.1673H60.2083C59.3333 79.1673 58.75 78.584 58.75 77.709V74.7923C58.75 73.9173 59.3333 73.334 60.2083 73.334H127.292C128.167 73.334 128.75 73.9173 128.75 74.7923V77.709C128.75 78.584 128.167 79.1673 127.292 79.1673Z" fill="#0F94BF"/>
<path id="Vector_3" d="M127.292 93.7493H60.2083C59.3333 93.7493 58.75 93.166 58.75 92.291V89.3743C58.75 88.4993 59.3333 87.916 60.2083 87.916H127.292C128.167 87.916 128.75 88.4993 128.75 89.3743V92.291C128.75 93.166 128.167 93.7493 127.292 93.7493Z" fill="#0F94BF"/>
<path id="Vector_4" d="M127.292 108.333H60.2083C59.3333 108.333 58.75 107.75 58.75 106.875V103.958C58.75 103.083 59.3333 102.5 60.2083 102.5H127.292C128.167 102.5 128.75 103.083 128.75 103.958V106.875C128.75 107.75 128.167 108.333 127.292 108.333Z" fill="#0F94BF"/>
<path id="Vector_5" d="M143.333 44.1673V52.9173H26.6667V44.1673C26.6667 40.959 29.2917 38.334 32.5 38.334H137.5C140.708 38.334 143.333 40.959 143.333 44.1673Z" fill="url(#paint2_linear_1_1913)"/>
<path id="Vector_6" d="M42.7083 79.1673H45.625C46.5 79.1673 47.0833 78.584 47.0833 77.709V74.7923C47.0833 73.9173 46.5 73.334 45.625 73.334H42.7083C41.8333 73.334 41.25 73.9173 41.25 74.7923V77.709C41.25 78.584 41.8333 79.1673 42.7083 79.1673Z" fill="#0F94BF"/>
<path id="Vector_7" d="M42.7083 93.7493H45.625C46.5 93.7493 47.0833 93.166 47.0833 92.291V89.3743C47.0833 88.4993 46.5 87.916 45.625 87.916H42.7083C41.8333 87.916 41.25 88.4993 41.25 89.3743V92.291C41.25 93.166 41.8333 93.7493 42.7083 93.7493Z" fill="#0F94BF"/>
<path id="Vector_8" d="M42.7083 108.333H45.625C46.5 108.333 47.0833 107.75 47.0833 106.875V103.958C47.0833 103.083 46.5 102.5 45.625 102.5H42.7083C41.8333 102.5 41.25 103.083 41.25 103.958V106.875C41.25 107.75 41.8333 108.333 42.7083 108.333Z" fill="#0F94BF"/>
<path id="Vector_9" opacity="0.05" d="M124.375 102.5C106 102.5 90.8333 115.042 90.8333 130.208C90.8333 130.792 90.8333 131.083 90.8333 131.667H137.5C140.708 131.667 143.333 129.042 143.333 125.833V107.458C137.792 104.25 131.375 102.5 124.375 102.5Z" fill="black"/>
<path id="Vector_10" opacity="0.07" d="M124.375 103.959C106.583 103.959 92.2917 115.626 92.2917 130.209C92.2917 130.792 92.2917 131.084 92.2917 131.667H137.5C140.708 131.667 143.333 129.042 143.333 125.834V109.209C138.083 106.001 131.375 103.959 124.375 103.959Z" fill="black"/>
<path id="Vector_11" d="M124.375 154.999C141.289 154.999 155 143.9 155 130.208C155 116.516 141.289 105.416 124.375 105.416C107.461 105.416 93.75 116.516 93.75 130.208C93.75 143.9 107.461 154.999 124.375 154.999Z" fill="url(#paint3_radial_1_1913)"/>
<path id="Vector_12" d="M124.375 146.249C135.651 146.249 144.792 137.108 144.792 125.833C144.792 114.557 135.651 105.416 124.375 105.416C113.099 105.416 103.958 114.557 103.958 125.833C103.958 137.108 113.099 146.249 124.375 146.249Z" fill="url(#paint4_linear_1_1913)"/>
<path id="Vector_13" d="M124.375 137.499C130.818 137.499 136.042 132.276 136.042 125.833C136.042 119.389 130.818 114.166 124.375 114.166C117.932 114.166 112.708 119.389 112.708 125.833C112.708 132.276 117.932 137.499 124.375 137.499Z" fill="url(#paint5_radial_1_1913)"/>
<path id="Vector_14" d="M130.208 119.999C131.819 119.999 133.125 118.694 133.125 117.083C133.125 115.472 131.819 114.166 130.208 114.166C128.597 114.166 127.292 115.472 127.292 117.083C127.292 118.694 128.597 119.999 130.208 119.999Z" fill="white"/>
<rect x="7.5" y="7.5" width="155" height="155" rx="12.5" stroke="#D5EAF6" stroke-width="15"/>
</g>
<defs>
<linearGradient id="paint0_linear_1_1913" x1="85" y1="15" x2="85" y2="155" gradientUnits="userSpaceOnUse">
<stop stop-color="#199AE0"/>
<stop offset="0.472222" stop-color="#0D5176" stop-opacity="0.527778"/>
<stop offset="0.940972" stop-color="#12A6F7" stop-opacity="0.465278"/>
<stop offset="1" stop-opacity="0"/>
</linearGradient>
<linearGradient id="paint1_linear_1_1913" x1="53.1179" y1="44.1631" x2="108.117" y2="123.718" gradientUnits="userSpaceOnUse">
<stop stop-color="#7DD8F3"/>
<stop offset="1" stop-color="#45B0D0"/>
</linearGradient>
<linearGradient id="paint2_linear_1_1913" x1="29.0233" y1="34.7757" x2="139.688" y2="57.2777" gradientUnits="userSpaceOnUse">
<stop stop-color="#0077D2"/>
<stop offset="1" stop-color="#0B59A2"/>
</linearGradient>
<radialGradient id="paint3_radial_1_1913" cx="0" cy="0" r="1" gradientUnits="userSpaceOnUse" gradientTransform="translate(124.579 122.437) scale(32.4992 32.8861)">
<stop offset="0.55" stop-color="#E4E4E6"/>
<stop offset="0.73" stop-color="#E1E2E4"/>
<stop offset="0.854" stop-color="#D8DADC"/>
<stop offset="0.961" stop-color="#C9CDCF"/>
<stop offset="1" stop-color="#C1C6C9"/>
</radialGradient>
<linearGradient id="paint4_linear_1_1913" x1="111.378" y1="112.836" x2="137.739" y2="139.197" gradientUnits="userSpaceOnUse">
<stop stop-color="#32BDEF"/>
<stop offset="1" stop-color="#1EA2E4"/>
</linearGradient>
<radialGradient id="paint5_radial_1_1913" cx="0" cy="0" r="1" gradientUnits="userSpaceOnUse" gradientTransform="translate(117.5 108.764) scale(30.2808)">
<stop stop-color="#4B4B4B"/>
<stop offset="0.531" stop-color="#393939"/>
<stop offset="1" stop-color="#252525"/>
</radialGradient>
</defs>
</svg>
