<svg width="170" height="170" viewBox="0 0 170 170" fill="none" xmlns="http://www.w3.org/2000/svg">
<g id="signing-a-document">
<rect x="7.5" y="7.5" width="155" height="155" rx="12.5" fill="white"/>
<rect x="7.5" y="7.5" width="155" height="155" rx="12.5" fill="url(#paint0_linear_1_1931)" fill-opacity="0.2"/>
<path id="Vector" d="M128.75 61.6673V134.584C128.75 137.807 126.14 140.417 122.917 140.417H47.0833C43.8604 140.417 41.25 137.807 41.25 134.584V35.4173C41.25 32.1944 43.8604 29.584 47.0833 29.584H96.6667L128.75 61.6673Z" fill="#50E6FF"/>
<path id="Vector_2" d="M96.6667 29.584V55.834C96.6667 59.0569 99.2771 61.6673 102.5 61.6673H128.75L96.6667 29.584Z" fill="url(#paint1_linear_1_1931)"/>
<path id="Vector_3" d="M109.792 76.2493H60.2083C59.4033 76.2493 58.75 75.596 58.75 74.791V71.8743C58.75 71.0693 59.4033 70.416 60.2083 70.416H109.792C110.597 70.416 111.25 71.0693 111.25 71.8743V74.791C111.25 75.596 110.597 76.2493 109.792 76.2493Z" fill="#057093"/>
<path id="Vector_4" d="M103.958 87.9173H60.2083C59.4033 87.9173 58.75 87.264 58.75 86.459V83.5423C58.75 82.7373 59.4033 82.084 60.2083 82.084H103.958C104.763 82.084 105.417 82.7373 105.417 83.5423V86.459C105.417 87.264 104.763 87.9173 103.958 87.9173Z" fill="#057093"/>
<path id="Vector_5" d="M106.875 99.5833H60.2083C59.4033 99.5833 58.75 98.93 58.75 98.125V95.2083C58.75 94.4033 59.4033 93.75 60.2083 93.75H106.875C107.68 93.75 108.333 94.4033 108.333 95.2083V98.125C108.333 98.93 107.68 99.5833 106.875 99.5833Z" fill="#057093"/>
<path id="Vector_6" d="M60.2083 111.249C59.4033 111.249 58.75 110.596 58.75 109.791V106.874C58.75 106.069 59.4033 105.416 60.2083 105.416H92.2917C93.0967 105.416 93.75 106.069 93.75 106.874V109.791C93.75 110.596 93.0967 111.249 92.2917 111.249" fill="#057093"/>
<path id="Vector_7" d="M95.2229 133.14L100.525 127.838" stroke="#057093" stroke-width="0.666667" stroke-miterlimit="10" stroke-linecap="round" stroke-linejoin="round"/>
<path id="Vector_8" d="M139.521 87.0204L135.219 82.7184C134.373 81.8725 133.002 81.8725 132.16 82.7184L117.719 97.1588C116.873 98.0046 116.873 99.3754 117.719 100.218L122.021 104.52L139.521 87.0204Z" fill="#B31523"/>
<path id="Vector_9" d="M137.5 85.2682L143.053 79.7148C143.782 78.9857 144.964 78.9857 145.693 79.7148L148.621 82.6403C149.35 83.3694 149.35 84.5507 148.621 85.2798L143.068 90.8332L137.5 85.2682Z" fill="url(#paint2_linear_1_1931)"/>
<path id="Vector_10" d="M97.3142 122.324L95.5817 129.213C95.0421 131.351 96.9817 133.291 99.1225 132.754L106.012 131.018L107.231 120.936L97.3142 122.324Z" fill="url(#paint3_linear_1_1931)"/>
<path id="Vector_11" d="M145.395 91.6319L105.889 131.141L97.1946 122.447L136.701 82.9373C137.841 81.7969 139.687 81.7969 140.825 82.9373L145.395 87.5078C146.536 88.6453 146.536 90.4944 145.395 91.6319Z" fill="url(#paint4_linear_1_1931)"/>
<path id="Vector_12" d="M116.453 103.173L120.131 99.4922L128.832 108.187L125.154 111.868L116.453 103.173Z" fill="url(#paint5_linear_1_1931)"/>
<rect x="7.5" y="7.5" width="155" height="155" rx="12.5" stroke="#D5EAF6" stroke-width="15"/>
</g>
<defs>
<linearGradient id="paint0_linear_1_1931" x1="85" y1="15" x2="85" y2="155" gradientUnits="userSpaceOnUse">
<stop stop-color="#199AE0"/>
<stop offset="0.472222" stop-color="#0D5176" stop-opacity="0.527778"/>
<stop offset="0.940972" stop-color="#12A6F7" stop-opacity="0.465278"/>
<stop offset="1" stop-opacity="0"/>
</linearGradient>
<linearGradient id="paint1_linear_1_1931" x1="98.2096" y1="60.1244" x2="113" y2="45.334" gradientUnits="userSpaceOnUse">
<stop stop-color="#3079D6"/>
<stop offset="1" stop-color="#297CD2"/>
</linearGradient>
<linearGradient id="paint2_linear_1_1931" x1="143.333" y1="79.5661" x2="143.333" y2="91.154" gradientUnits="userSpaceOnUse">
<stop stop-color="#FFDA1C"/>
<stop offset="1" stop-color="#FEB705"/>
</linearGradient>
<linearGradient id="paint3_linear_1_1931" x1="95.4883" y1="126.888" x2="107.231" y2="126.888" gradientUnits="userSpaceOnUse">
<stop stop-color="#FFDA1C"/>
<stop offset="1" stop-color="#FEB705"/>
</linearGradient>
<linearGradient id="paint4_linear_1_1931" x1="97.1917" y1="106.612" x2="146.25" y2="106.612" gradientUnits="userSpaceOnUse">
<stop stop-color="#F44F5A"/>
<stop offset="0.443" stop-color="#EE3D4A"/>
<stop offset="1" stop-color="#E52030"/>
</linearGradient>
<linearGradient id="paint5_linear_1_1931" x1="122.643" y1="99.9151" x2="122.643" y2="112.209" gradientUnits="userSpaceOnUse">
<stop stop-color="#FFDA1C"/>
<stop offset="1" stop-color="#FEB705"/>
</linearGradient>
</defs>
</svg>
