<svg width="170" height="170" viewBox="0 0 170 170" fill="none" xmlns="http://www.w3.org/2000/svg">
<g id="signature">
<rect x="7.5" y="7.5" width="155" height="155" rx="12.5" fill="white"/>
<rect x="7.5" y="7.5" width="155" height="155" rx="12.5" fill="url(#paint0_linear_1_1928)" fill-opacity="0.2"/>
<path id="Vector" d="M140.417 137.499H29.5833C27.9704 137.499 26.6667 136.196 26.6667 134.583C26.6667 132.97 27.9704 131.666 29.5833 131.666H140.417C142.03 131.666 143.333 132.97 143.333 134.583C143.333 136.196 142.03 137.499 140.417 137.499Z" fill="#64717C"/>
<path id="Vector_2" d="M29.5862 117.084C28.7433 117.084 27.9092 116.722 27.3346 116.022C26.3079 114.777 26.4887 112.939 27.7312 111.919C27.8508 111.819 32.4767 107.955 38.1204 101.518C37.05 100.01 36.0262 98.3736 35.055 96.6148C29.7992 87.1123 26.6667 75.1365 26.6667 64.584C26.6667 43.3215 34.6817 29.584 47.0833 29.584C59.8321 29.584 64.5833 45.6869 64.5833 55.834C64.5833 74.2265 54.6725 90.6211 45.6804 101.707C49.4167 105.767 53.8237 108.334 58.75 108.334C66.7708 108.334 73.2021 105.729 78.1371 101.541C73.17 95.2761 70.4167 85.5286 70.4167 75.9765C70.4167 60.1973 76.1421 50.0007 85 50.0007C92.1983 50.0007 96.6667 57.8261 96.6667 70.4173C96.6667 81.6465 93.1958 92.9457 86.4058 101.244C87.7767 102.054 89.2583 102.501 90.8333 102.501C106 102.501 108.322 76.2769 108.342 76.0115C108.467 74.4977 109.73 73.334 111.25 73.334C117.022 73.334 118.74 79.6136 120.254 85.1582C121.356 89.1861 122.605 93.7507 124.745 93.7507C126.142 93.7507 127.335 88.9673 128.123 85.8027C129.742 79.3102 131.958 70.4173 140.417 70.4173C142.03 70.4173 143.333 71.7211 143.333 73.334C143.333 74.9469 142.03 76.2507 140.417 76.2507C136.785 76.2507 135.432 80.5907 133.784 87.2144C132.338 93.0127 130.701 99.584 124.745 99.584C118.148 99.584 116.197 92.4382 114.628 86.6952C114.275 85.4119 113.817 83.7261 113.295 82.2794C111.469 91.4844 106.047 108.334 90.8333 108.334C87.6512 108.334 84.7929 107.313 82.2846 105.54C76.2704 110.857 68.4042 114.167 58.75 114.167C52.7067 114.167 46.9375 111.376 41.9092 106.132C36.3996 112.286 31.9254 116.016 31.4383 116.419C30.8929 116.868 30.2396 117.084 29.5862 117.084ZM85 55.834C79.9308 55.834 76.25 64.304 76.25 75.9765C76.25 83.8836 78.4842 92.1319 82.2437 97.2915C88.0654 89.9823 90.8333 80.0073 90.8333 70.4173C90.8333 61.8307 88.4358 55.834 85 55.834ZM47.0833 35.4173C37.0092 35.4173 32.5 50.0648 32.5 64.584C32.5 74.6377 35.9883 87.6636 41.9733 96.8773C50.1283 86.5319 58.75 71.8144 58.75 55.834C58.75 49.4377 55.8129 35.4173 47.0833 35.4173Z" fill="#0D62AB"/>
<rect x="7.5" y="7.5" width="155" height="155" rx="12.5" stroke="#D5EAF6" stroke-width="15"/>
</g>
<defs>
<linearGradient id="paint0_linear_1_1928" x1="85" y1="15" x2="85" y2="155" gradientUnits="userSpaceOnUse">
<stop stop-color="#199AE0"/>
<stop offset="0.472222" stop-color="#0D5176" stop-opacity="0.527778"/>
<stop offset="0.940972" stop-color="#12A6F7" stop-opacity="0.465278"/>
<stop offset="1" stop-opacity="0"/>
</linearGradient>
</defs>
</svg>
