<svg width="170" height="170" viewBox="0 0 170 170" fill="none" xmlns="http://www.w3.org/2000/svg">
<g id="slider">
<rect x="7.5" y="7.5" width="155" height="155" rx="12.5" fill="white"/>
<rect x="7.5" y="7.5" width="155" height="155" rx="12.5" fill="url(#paint0_linear_1_1944)" fill-opacity="0.2"/>
<path id="Vector" d="M32.5 79.166H137.5C139.11 79.166 140.417 80.4727 140.417 82.0827V87.916C140.417 89.526 139.11 90.8327 137.5 90.8327H32.5C30.89 90.8327 29.5833 89.526 29.5833 87.916V82.0827C29.5833 80.4727 30.89 79.166 32.5 79.166Z" fill="#0078D4"/>
<path id="Vector_2" d="M32.5 38.334H137.5C139.11 38.334 140.417 39.6407 140.417 41.2507V47.084C140.417 48.694 139.11 50.0007 137.5 50.0007H32.5C30.89 50.0007 29.5833 48.694 29.5833 47.084V41.2507C29.5833 39.6407 30.89 38.334 32.5 38.334Z" fill="#0078D4"/>
<path id="Vector_3" d="M32.5 120H137.5C139.11 120 140.417 121.307 140.417 122.917V128.75C140.417 130.36 139.11 131.667 137.5 131.667H32.5C30.89 131.667 29.5833 130.36 29.5833 128.75V122.917C29.5833 121.307 30.89 120 32.5 120Z" fill="#0078D4"/>
<path id="Vector_4" d="M96.6667 44.1667C96.6667 50.6096 91.4429 55.8333 85 55.8333C78.5571 55.8333 73.3333 50.6096 73.3333 44.1667C73.3333 37.7237 78.5571 32.5 85 32.5C91.4429 32.5 96.6667 37.7237 96.6667 44.1667ZM122.917 85C122.917 91.4429 117.693 96.6667 111.25 96.6667C104.807 96.6667 99.5833 91.4429 99.5833 85C99.5833 78.5571 104.807 73.3333 111.25 73.3333C117.693 73.3333 122.917 78.5571 122.917 85ZM76.25 125.833C76.25 132.276 71.0262 137.5 64.5833 137.5C58.1404 137.5 52.9167 132.276 52.9167 125.833C52.9167 119.39 58.1404 114.167 64.5833 114.167C71.0262 114.167 76.25 119.39 76.25 125.833Z" fill="#35C1F1"/>
<rect x="7.5" y="7.5" width="155" height="155" rx="12.5" stroke="#D5EAF6" stroke-width="15"/>
</g>
<defs>
<linearGradient id="paint0_linear_1_1944" x1="85" y1="15" x2="85" y2="155" gradientUnits="userSpaceOnUse">
<stop stop-color="#199AE0"/>
<stop offset="0.472222" stop-color="#0D5176" stop-opacity="0.527778"/>
<stop offset="0.940972" stop-color="#12A6F7" stop-opacity="0.465278"/>
<stop offset="1" stop-opacity="0"/>
</linearGradient>
</defs>
</svg>
