<svg width="170" height="170" viewBox="0 0 170 170" fill="none" xmlns="http://www.w3.org/2000/svg">
<g id="sms">
<rect x="7.5" y="7.5" width="155" height="155" rx="12.5" fill="white"/>
<rect x="7.5" y="7.5" width="155" height="155" rx="12.5" fill="url(#paint0_linear_1_1985)" fill-opacity="0.2"/>
<path id="Vector" d="M137.5 38.334H32.5C29.2771 38.334 26.6667 40.9444 26.6667 44.1673V120.001C26.6667 123.224 29.2771 125.834 32.5 125.834H55.8333V149.161C55.8333 151.76 58.9746 153.061 60.8121 151.224L86.2017 125.834H137.5C140.723 125.834 143.333 123.224 143.333 120.001V44.1673C143.333 40.9444 140.723 38.334 137.5 38.334Z" fill="url(#paint1_linear_1_1985)"/>
<path id="Vector_2" opacity="0.3" d="M85 93.75C89.8325 93.75 93.75 89.8325 93.75 85C93.75 80.1675 89.8325 76.25 85 76.25C80.1675 76.25 76.25 80.1675 76.25 85C76.25 89.8325 80.1675 93.75 85 93.75Z" fill="url(#paint2_radial_1_1985)"/>
<path id="Vector_3" d="M85 90.8327C88.2217 90.8327 90.8333 88.221 90.8333 84.9993C90.8333 81.7777 88.2217 79.166 85 79.166C81.7783 79.166 79.1667 81.7777 79.1667 84.9993C79.1667 88.221 81.7783 90.8327 85 90.8327Z" fill="white"/>
<path id="Vector_4" opacity="0.3" d="M61.6667 93.75C66.4992 93.75 70.4167 89.8325 70.4167 85C70.4167 80.1675 66.4992 76.25 61.6667 76.25C56.8342 76.25 52.9167 80.1675 52.9167 85C52.9167 89.8325 56.8342 93.75 61.6667 93.75Z" fill="url(#paint3_radial_1_1985)"/>
<path id="Vector_5" d="M61.6667 90.8327C64.8883 90.8327 67.5 88.221 67.5 84.9993C67.5 81.7777 64.8883 79.166 61.6667 79.166C58.445 79.166 55.8333 81.7777 55.8333 84.9993C55.8333 88.221 58.445 90.8327 61.6667 90.8327Z" fill="white"/>
<path id="Vector_6" opacity="0.3" d="M108.333 93.75C113.166 93.75 117.083 89.8325 117.083 85C117.083 80.1675 113.166 76.25 108.333 76.25C103.501 76.25 99.5833 80.1675 99.5833 85C99.5833 89.8325 103.501 93.75 108.333 93.75Z" fill="url(#paint4_radial_1_1985)"/>
<path id="Vector_7" d="M108.333 90.8327C111.555 90.8327 114.167 88.221 114.167 84.9993C114.167 81.7777 111.555 79.166 108.333 79.166C105.112 79.166 102.5 81.7777 102.5 84.9993C102.5 88.221 105.112 90.8327 108.333 90.8327Z" fill="white"/>
<rect x="7.5" y="7.5" width="155" height="155" rx="12.5" stroke="#D5EAF6" stroke-width="15"/>
</g>
<defs>
<linearGradient id="paint0_linear_1_1985" x1="85" y1="15" x2="85" y2="155" gradientUnits="userSpaceOnUse">
<stop stop-color="#199AE0"/>
<stop offset="0.472222" stop-color="#0D5176" stop-opacity="0.527778"/>
<stop offset="0.940972" stop-color="#12A6F7" stop-opacity="0.465278"/>
<stop offset="1" stop-opacity="0"/>
</linearGradient>
<linearGradient id="paint1_linear_1_1985" x1="52.0008" y1="28.394" x2="118.775" y2="137.037" gradientUnits="userSpaceOnUse">
<stop stop-color="#0176D0"/>
<stop offset="1" stop-color="#0A85D9"/>
</linearGradient>
<radialGradient id="paint2_radial_1_1985" cx="0" cy="0" r="1" gradientUnits="userSpaceOnUse" gradientTransform="translate(85 85) scale(8.75)">
<stop/>
<stop offset="1" stop-opacity="0"/>
</radialGradient>
<radialGradient id="paint3_radial_1_1985" cx="0" cy="0" r="1" gradientUnits="userSpaceOnUse" gradientTransform="translate(61.6667 85) scale(8.75)">
<stop/>
<stop offset="1" stop-opacity="0"/>
</radialGradient>
<radialGradient id="paint4_radial_1_1985" cx="0" cy="0" r="1" gradientUnits="userSpaceOnUse" gradientTransform="translate(108.333 85) scale(8.75)">
<stop/>
<stop offset="1" stop-opacity="0"/>
</radialGradient>
</defs>
</svg>
