<svg width="170" height="170" viewBox="0 0 170 170" fill="none" xmlns="http://www.w3.org/2000/svg">
<g id="start-menu">
<rect x="7.5" y="7.5" width="155" height="155" rx="12.5" fill="white"/>
<rect x="7.5" y="7.5" width="155" height="155" rx="12.5" fill="url(#paint0_linear_1_1995)" fill-opacity="0.2"/>
<path id="Vector" d="M113.452 32.5H38.3333C35.1104 32.5 32.5 35.1104 32.5 38.3333V122.917H120V39.0479C120 35.4312 117.069 32.5 113.452 32.5Z" fill="url(#paint1_linear_1_1995)"/>
<path id="Vector_2" d="M85 32.5H114.167C117.39 32.5 120 35.1104 120 38.3333V120H85V32.5Z" fill="url(#paint2_linear_1_1995)"/>
<path id="Vector_3" d="M32.5 120H131.667C134.89 120 137.5 122.61 137.5 125.833V131.667C137.5 134.89 134.89 137.5 131.667 137.5H38.3333C35.1104 137.5 32.5 134.89 32.5 131.667V120Z" fill="#184F85"/>
<path id="Vector_4" opacity="0.05" d="M42.7083 49.9987C40.2962 49.9987 38.3333 48.0358 38.3333 45.6237V42.707C38.3333 40.2949 40.2962 38.332 42.7083 38.332H74.7917C77.2037 38.332 79.1667 40.2949 79.1667 42.707V45.6237C79.1667 48.0358 77.2037 49.9987 74.7917 49.9987H42.7083Z" fill="black"/>
<path id="Vector_5" opacity="0.07" d="M42.7083 48.543C41.1012 48.543 39.7917 47.2334 39.7917 45.6263V42.7096C39.7917 41.1026 41.1012 39.793 42.7083 39.793H74.7917C76.3987 39.793 77.7083 41.1026 77.7083 42.7096V45.6263C77.7083 47.2334 76.3987 48.543 74.7917 48.543H42.7083Z" fill="black"/>
<path id="Vector_6" d="M42.7083 41.25H74.7917C75.5967 41.25 76.25 41.9033 76.25 42.7083V45.625C76.25 46.43 75.5967 47.0833 74.7917 47.0833H42.7083C41.9033 47.0833 41.25 46.43 41.25 45.625V42.7083C41.25 41.9033 41.9033 41.25 42.7083 41.25Z" fill="white"/>
<path id="Vector_7" opacity="0.05" d="M42.7083 64.5846C40.2962 64.5846 38.3333 62.6217 38.3333 60.2096V57.293C38.3333 54.8809 40.2962 52.918 42.7083 52.918H74.7917C77.2037 52.918 79.1667 54.8809 79.1667 57.293V60.2096C79.1667 62.6217 77.2037 64.5846 74.7917 64.5846H42.7083Z" fill="black"/>
<path id="Vector_8" opacity="0.07" d="M42.7083 63.125C41.1012 63.125 39.7917 61.8154 39.7917 60.2083V57.2917C39.7917 55.6846 41.1012 54.375 42.7083 54.375H74.7917C76.3987 54.375 77.7083 55.6846 77.7083 57.2917V60.2083C77.7083 61.8154 76.3987 63.125 74.7917 63.125H42.7083Z" fill="black"/>
<path id="Vector_9" d="M42.7083 55.832H74.7917C75.5967 55.832 76.25 56.4854 76.25 57.2904V60.207C76.25 61.012 75.5967 61.6654 74.7917 61.6654H42.7083C41.9033 61.6654 41.25 61.012 41.25 60.207V57.2904C41.25 56.4854 41.9033 55.832 42.7083 55.832Z" fill="white"/>
<path id="Vector_10" opacity="0.05" d="M92.2917 114.167C89.8796 114.167 87.9167 112.204 87.9167 109.792V106.875C87.9167 104.463 89.8796 102.5 92.2917 102.5H112.708C115.12 102.5 117.083 104.463 117.083 106.875V109.792C117.083 112.204 115.12 114.167 112.708 114.167H92.2917Z" fill="black"/>
<path id="Vector_11" opacity="0.07" d="M92.2917 112.707C90.6846 112.707 89.375 111.397 89.375 109.79V106.874C89.375 105.267 90.6846 103.957 92.2917 103.957H112.708C114.315 103.957 115.625 105.267 115.625 106.874V109.79C115.625 111.397 114.315 112.707 112.708 112.707H92.2917Z" fill="black"/>
<path id="Vector_12" d="M92.2917 105.418H112.708C113.513 105.418 114.167 106.071 114.167 106.876V109.793C114.167 110.598 113.513 111.251 112.708 111.251H92.2917C91.4867 111.251 90.8333 110.598 90.8333 109.793V106.876C90.8333 106.071 91.4867 105.418 92.2917 105.418Z" fill="white"/>
<path id="Vector_13" opacity="0.05" d="M42.7083 134.585C40.2962 134.585 38.3333 132.622 38.3333 130.21V127.293C38.3333 124.881 40.2962 122.918 42.7083 122.918H45.625C48.0371 122.918 50 124.881 50 127.293V130.21C50 132.622 48.0371 134.585 45.625 134.585H42.7083Z" fill="black"/>
<path id="Vector_14" opacity="0.07" d="M42.7083 133.125C41.1012 133.125 39.7917 131.815 39.7917 130.208V127.292C39.7917 125.685 41.1012 124.375 42.7083 124.375H45.625C47.2321 124.375 48.5417 125.685 48.5417 127.292V130.208C48.5417 131.815 47.2321 133.125 45.625 133.125H42.7083Z" fill="black"/>
<path id="Vector_15" d="M45.625 131.665H42.7083C41.9033 131.665 41.25 131.012 41.25 130.207V127.29C41.25 126.485 41.9033 125.832 42.7083 125.832H45.625C46.43 125.832 47.0833 126.485 47.0833 127.29V130.207C47.0833 131.012 46.43 131.665 45.625 131.665Z" fill="white"/>
<rect x="7.5" y="7.5" width="155" height="155" rx="12.5" stroke="#D5EAF6" stroke-width="15"/>
</g>
<defs>
<linearGradient id="paint0_linear_1_1995" x1="85" y1="15" x2="85" y2="155" gradientUnits="userSpaceOnUse">
<stop stop-color="#199AE0"/>
<stop offset="0.472222" stop-color="#0D5176" stop-opacity="0.527778"/>
<stop offset="0.940972" stop-color="#12A6F7" stop-opacity="0.465278"/>
<stop offset="1" stop-opacity="0"/>
</linearGradient>
<linearGradient id="paint1_linear_1_1995" x1="32.5" y1="77.7083" x2="120" y2="77.7083" gradientUnits="userSpaceOnUse">
<stop stop-color="#42A3F2"/>
<stop offset="1" stop-color="#42A4EB"/>
</linearGradient>
<linearGradient id="paint2_linear_1_1995" x1="85" y1="76.25" x2="120" y2="76.25" gradientUnits="userSpaceOnUse">
<stop stop-color="#1951A8"/>
<stop offset="0.175" stop-color="#1955B0"/>
<stop offset="0.505" stop-color="#195AB9"/>
<stop offset="1" stop-color="#195BBC"/>
</linearGradient>
</defs>
</svg>
