<svg width="170" height="170" viewBox="0 0 170 170" fill="none" xmlns="http://www.w3.org/2000/svg">
<g id="stethoscope">
<rect x="7.5" y="7.5" width="155" height="155" rx="12.5" fill="white"/>
<rect x="7.5" y="7.5" width="155" height="155" rx="12.5" fill="url(#paint0_linear_1_2024)" fill-opacity="0.2"/>
<path id="Vector" d="M82.0833 35.418H85V26.668H82.0833C80.4733 26.668 79.1667 27.9746 79.1667 29.5846V32.5013C79.1667 34.1113 80.4733 35.418 82.0833 35.418Z" fill="#0669BC"/>
<path id="Vector_2" d="M44.1667 26.668H41.25V35.418H44.1667C45.7767 35.418 47.0833 34.1113 47.0833 32.5013V29.5846C47.0833 27.9746 45.7767 26.668 44.1667 26.668Z" fill="#0669BC"/>
<path id="Vector_3" d="M122.917 85.0013V106.876C122.917 122.18 110.512 134.585 95.2083 134.585C79.9046 134.585 67.5 122.18 67.5 106.876V85.0013C81.9988 85.0013 93.75 73.2501 93.75 58.7513V32.5013C93.75 29.2784 91.1396 26.668 87.9167 26.668H85V58.7513C85 68.4171 77.1658 76.2513 67.5 76.2513H58.75C49.0842 76.2513 41.25 68.4171 41.25 58.7513V26.668H38.3333C35.1104 26.668 32.5 29.2784 32.5 32.5013V58.7513C32.5 73.2501 44.2512 85.0013 58.75 85.0013V106.876C58.75 127.013 75.0717 143.335 95.2083 143.335C115.345 143.335 131.667 127.013 131.667 106.876V85.0013H122.917Z" fill="url(#paint1_linear_1_2024)"/>
<path id="Vector_4" d="M127.292 99.5833C136.151 99.5833 143.333 92.4012 143.333 83.5417C143.333 74.6821 136.151 67.5 127.292 67.5C118.432 67.5 111.25 74.6821 111.25 83.5417C111.25 92.4012 118.432 99.5833 127.292 99.5833Z" fill="#0B5CA8"/>
<path id="Vector_5" d="M127.292 90.8333C131.319 90.8333 134.583 87.5687 134.583 83.5417C134.583 79.5146 131.319 76.25 127.292 76.25C123.265 76.25 120 79.5146 120 83.5417C120 87.5687 123.265 90.8333 127.292 90.8333Z" fill="#45D7F9"/>
<rect x="7.5" y="7.5" width="155" height="155" rx="12.5" stroke="#D5EAF6" stroke-width="15"/>
</g>
<defs>
<linearGradient id="paint0_linear_1_2024" x1="85" y1="15" x2="85" y2="155" gradientUnits="userSpaceOnUse">
<stop stop-color="#199AE0"/>
<stop offset="0.472222" stop-color="#0D5176" stop-opacity="0.527778"/>
<stop offset="0.940972" stop-color="#12A6F7" stop-opacity="0.465278"/>
<stop offset="1" stop-opacity="0"/>
</linearGradient>
<linearGradient id="paint1_linear_1_2024" x1="73.6921" y1="23.1884" x2="94.9429" y2="149.314" gradientUnits="userSpaceOnUse">
<stop stop-color="#26ABE7"/>
<stop offset="1" stop-color="#086DBF"/>
</linearGradient>
</defs>
</svg>
