<svg width="170" height="170" viewBox="0 0 170 170" fill="none" xmlns="http://www.w3.org/2000/svg">
<g id="stocks-growth">
<rect x="7.5" y="7.5" width="155" height="155" rx="12.5" fill="white"/>
<rect x="7.5" y="7.5" width="155" height="155" rx="12.5" fill="url(#paint0_linear_1_2030)" fill-opacity="0.2"/>
<path id="Vector" d="M143.333 96.6667V137.5H120V93.75H140.417C142.027 93.75 143.333 95.0567 143.333 96.6667Z" fill="#61E3A7"/>
<path id="Vector_2" d="M120 93.75V137.5H96.6667V93.75H120Z" fill="#33C481"/>
<path id="Vector_3" d="M96.6667 70.4167V137.5H73.3333V70.4167C73.3333 68.8067 74.64 67.5 76.25 67.5H93.75C95.36 67.5 96.6667 68.8067 96.6667 70.4167Z" fill="#21A366"/>
<path id="Vector_4" d="M73.3333 85V137.5H50V87.9167C50 86.3067 51.3067 85 52.9167 85H73.3333Z" fill="#107C42"/>
<path id="Vector_5" d="M50 102.5V137.5H26.6667V105.417C26.6667 103.807 27.9733 102.5 29.5833 102.5H50Z" fill="#185C37"/>
<path id="Vector_6" d="M28.4371 67.3931L63.4954 41.9219L69.9383 50.7885L34.88 76.2598C33.5762 77.2077 31.7504 76.919 30.8054 75.6152L27.7925 71.4677C26.8417 70.1669 27.1304 68.341 28.4371 67.3931Z" fill="#33C481"/>
<path id="Vector_7" d="M72.7471 61.8408L75.8475 42.2729C76.0983 40.6833 75.0133 39.187 73.4237 38.9362L53.8558 35.8358C52.5725 35.6316 51.6829 37.0841 52.4471 38.1341L70.1279 62.4708C70.8892 63.5179 72.5429 63.1212 72.7471 61.8408Z" fill="#33C481"/>
<path id="Vector_8" d="M121.94 74.9738C124.547 74.5538 125.851 73.1859 125.851 70.8701C125.851 68.9946 124.547 67.4634 121.94 66.2763C120.814 65.7892 119.472 65.2263 117.947 64.6401C113.68 62.9746 110.766 61.1721 109.208 59.2296C107.893 57.5934 107.135 55.6538 106.928 53.4109C106.633 50.1967 107.642 46.8746 109.795 44.5676C111.83 42.3801 114.549 41.1113 117.95 40.7584V36.8501C117.944 36.0596 118.556 35.418 119.309 35.418H120.572C121.324 35.418 121.937 36.0596 121.937 36.8501V40.6417C125.3 40.808 127.919 41.3271 129.791 42.1963C130.273 42.4209 130.553 42.943 130.553 43.4971V47.9771C130.553 49.0067 129.54 49.7155 128.651 49.278C126.598 48.2746 124.36 47.633 121.937 47.3588C120.697 47.2159 119.207 47.1721 117.85 47.4317C115.543 47.8838 114.143 49.4151 114.14 51.6346C114.138 53.6063 115.389 55.2017 117.944 56.5726C119.35 57.3367 120.718 57.8646 121.937 58.238C125.938 59.6088 128.791 61.4784 130.523 63.4209C132.256 65.3634 133.122 67.7113 133.122 70.4676C133.122 73.6438 132.157 76.2046 130.223 78.1442C128.289 80.0867 125.527 81.268 121.937 81.688V86.483C121.937 87.2734 121.324 87.9151 120.572 87.9151H119.309C118.556 87.9151 117.944 87.2734 117.944 86.483V81.8601C114.543 81.8426 111.361 81.0988 108.392 79.6288C107.91 79.3896 107.607 78.8617 107.607 78.3017V73.9005C107.607 72.833 108.675 72.0863 109.582 72.5676C110.369 72.9846 111.288 73.3842 112.338 73.7663C114.435 74.5305 116.305 74.9709 117.944 75.0876C119.344 75.1751 120.68 75.143 121.94 74.9738Z" fill="#107C42"/>
<rect x="7.5" y="7.5" width="155" height="155" rx="12.5" stroke="#D5EAF6" stroke-width="15"/>
</g>
<defs>
<linearGradient id="paint0_linear_1_2030" x1="85" y1="15" x2="85" y2="155" gradientUnits="userSpaceOnUse">
<stop stop-color="#199AE0"/>
<stop offset="0.472222" stop-color="#0D5176" stop-opacity="0.527778"/>
<stop offset="0.940972" stop-color="#12A6F7" stop-opacity="0.465278"/>
<stop offset="1" stop-opacity="0"/>
</linearGradient>
</defs>
</svg>
