<svg width="170" height="170" viewBox="0 0 170 170" fill="none" xmlns="http://www.w3.org/2000/svg">
<g id="sun">
<rect x="7.5" y="7.5" width="155" height="155" rx="12.5" fill="white"/>
<rect x="7.5" y="7.5" width="155" height="155" rx="12.5" fill="url(#paint0_linear_1_2039)" fill-opacity="0.2"/>
<path id="Vector" d="M85 20.832L89.1446 25.1312C91.8571 27.9458 96.1096 28.6195 99.56 26.782L104.83 23.9733L107.444 29.3429C109.153 32.8574 112.991 34.8145 116.841 34.1291L122.721 33.0879L123.547 39.0029C124.086 42.8762 127.131 45.9183 131.005 46.4608L136.92 47.2862L135.878 53.1662C135.196 57.0162 137.15 60.8516 140.665 62.5637L146.034 65.177L143.225 70.4475C141.385 73.8979 142.059 78.1504 144.876 80.8629L149.167 84.9987L144.868 89.1433C142.053 91.8558 141.379 96.1083 143.217 99.5587L146.025 104.829L140.656 107.442C137.141 109.152 135.184 112.99 135.87 116.84L136.911 122.72L130.996 123.545C127.123 124.085 124.08 127.13 123.538 131.003L122.713 136.918L116.833 135.877C112.983 135.195 109.147 137.149 107.435 140.663L104.822 146.033L99.5513 143.224C96.1008 141.384 91.8483 142.057 89.1358 144.875L85 149.165L80.8554 144.866C78.1429 142.052 73.8904 141.378 70.44 143.215L65.1696 146.024L62.5563 140.655C60.8471 137.14 57.0088 135.183 53.1588 135.868L47.2788 136.91L46.4533 130.995C45.9138 127.121 42.8688 124.079 38.9954 123.537L33.0804 122.711L34.1217 116.831C34.8042 112.981 32.85 109.146 29.3354 107.434L23.9658 104.82L26.7746 99.55C28.615 96.0995 27.9412 91.847 25.1237 89.1345L20.8333 84.9987L25.1325 80.8541C27.9471 78.1416 28.6208 73.8891 26.7833 70.4387L23.9746 65.1683L29.3442 62.555C32.8588 60.8458 34.8158 57.0075 34.1304 53.1575L33.0892 47.2775L39.0042 46.452C42.8775 45.9125 45.9196 42.8675 46.4621 38.9941L47.2875 33.0791L53.1675 34.1204C57.0175 34.8029 60.8529 32.8487 62.565 29.3341L65.1783 23.9645L70.4488 26.7733C73.8992 28.6137 78.1517 27.9399 80.8642 25.1224L85 20.832Z" fill="url(#paint1_radial_1_2039)"/>
<path id="Vector_2" d="M85 35.418C57.6154 35.418 35.4167 57.6167 35.4167 85.0013C35.4167 112.386 57.6154 134.585 85 134.585C112.385 134.585 134.583 112.386 134.583 85.0013C134.583 57.6167 112.385 35.418 85 35.418Z" fill="url(#paint2_linear_1_2039)"/>
<rect x="7.5" y="7.5" width="155" height="155" rx="12.5" stroke="#D5EAF6" stroke-width="15"/>
</g>
<defs>
<linearGradient id="paint0_linear_1_2039" x1="85" y1="15" x2="85" y2="155" gradientUnits="userSpaceOnUse">
<stop stop-color="#199AE0"/>
<stop offset="0.472222" stop-color="#0D5176" stop-opacity="0.527778"/>
<stop offset="0.940972" stop-color="#12A6F7" stop-opacity="0.465278"/>
<stop offset="1" stop-opacity="0"/>
</linearGradient>
<radialGradient id="paint1_radial_1_2039" cx="0" cy="0" r="1" gradientUnits="userSpaceOnUse" gradientTransform="translate(85 84.9987) scale(64.1667)">
<stop offset="0.724" stop-color="#FFED54"/>
<stop offset="0.779" stop-color="#FFE649"/>
<stop offset="0.877" stop-color="#FFD22D"/>
<stop offset="1" stop-color="#FFB300"/>
</radialGradient>
<linearGradient id="paint2_linear_1_2039" x1="38.6017" y1="38.603" x2="119.988" y2="119.99" gradientUnits="userSpaceOnUse">
<stop stop-color="#FED100"/>
<stop offset="1" stop-color="#E36001"/>
</linearGradient>
</defs>
</svg>
