<svg width="170" height="170" viewBox="0 0 170 170" fill="none" xmlns="http://www.w3.org/2000/svg">
<g id="sweepstakes">
<g clip-path="url(#clip0_1_2042)">
<rect x="15" y="15" width="140" height="140" rx="5" fill="white"/>
<rect x="15" y="15" width="140" height="140" rx="5" fill="url(#paint0_linear_1_2042)" fill-opacity="0.2"/>
<path id="Vector" d="M134.583 38.332H35.4167C32.1937 38.332 29.5833 40.9424 29.5833 44.1654V125.832C29.5833 129.055 32.1937 131.665 35.4167 131.665H134.583C137.806 131.665 140.417 129.055 140.417 125.832V44.1654C140.417 40.9424 137.806 38.332 134.583 38.332Z" fill="#50E6FF"/>
<path id="Vector_2" d="M54.375 82.0846H45.625C44.82 82.0846 44.1667 81.4313 44.1667 80.6263V71.8763C44.1667 71.0713 44.82 70.418 45.625 70.418H54.375C55.18 70.418 55.8333 71.0713 55.8333 71.8763V80.6263C55.8333 81.4313 55.18 82.0846 54.375 82.0846Z" fill="#057093"/>
<path id="Vector_3" d="M71.875 82.0846H63.125C62.32 82.0846 61.6667 81.4313 61.6667 80.6263V71.8763C61.6667 71.0713 62.32 70.418 63.125 70.418H71.875C72.68 70.418 73.3333 71.0713 73.3333 71.8763V80.6263C73.3333 81.4313 72.68 82.0846 71.875 82.0846Z" fill="#057093"/>
<path id="Vector_4" d="M89.375 82.0846H80.625C79.82 82.0846 79.1667 81.4313 79.1667 80.6263V71.8763C79.1667 71.0713 79.82 70.418 80.625 70.418H89.375C90.18 70.418 90.8333 71.0713 90.8333 71.8763V80.6263C90.8333 81.4313 90.18 82.0846 89.375 82.0846Z" fill="#057093"/>
<path id="Vector_5" d="M106.875 82.0846H98.125C97.32 82.0846 96.6667 81.4313 96.6667 80.6263V71.8763C96.6667 71.0713 97.32 70.418 98.125 70.418H106.875C107.68 70.418 108.333 71.0713 108.333 71.8763V80.6263C108.333 81.4313 107.68 82.0846 106.875 82.0846Z" fill="#057093"/>
<path id="Vector_6" d="M124.375 82.0846H115.625C114.82 82.0846 114.167 81.4313 114.167 80.6263V71.8763C114.167 71.0713 114.82 70.418 115.625 70.418H124.375C125.18 70.418 125.833 71.0713 125.833 71.8763V80.6263C125.833 81.4313 125.18 82.0846 124.375 82.0846Z" fill="#057093"/>
<path id="Vector_7" d="M54.375 99.5846H45.625C44.82 99.5846 44.1667 98.9313 44.1667 98.1263V89.3763C44.1667 88.5713 44.82 87.918 45.625 87.918H54.375C55.18 87.918 55.8333 88.5713 55.8333 89.3763V98.1263C55.8333 98.9313 55.18 99.5846 54.375 99.5846Z" fill="#057093"/>
<path id="Vector_8" d="M71.875 99.5846H63.125C62.32 99.5846 61.6667 98.9313 61.6667 98.1263V89.3763C61.6667 88.5713 62.32 87.918 63.125 87.918H71.875C72.68 87.918 73.3333 88.5713 73.3333 89.3763V98.1263C73.3333 98.9313 72.68 99.5846 71.875 99.5846Z" fill="#057093"/>
<path id="Vector_9" d="M89.375 99.5846H80.625C79.82 99.5846 79.1667 98.9313 79.1667 98.1263V89.3763C79.1667 88.5713 79.82 87.918 80.625 87.918H89.375C90.18 87.918 90.8333 88.5713 90.8333 89.3763V98.1263C90.8333 98.9313 90.18 99.5846 89.375 99.5846Z" fill="#057093"/>
<path id="Vector_10" d="M106.875 99.5846H98.125C97.32 99.5846 96.6667 98.9313 96.6667 98.1263V89.3763C96.6667 88.5713 97.32 87.918 98.125 87.918H106.875C107.68 87.918 108.333 88.5713 108.333 89.3763V98.1263C108.333 98.9313 107.68 99.5846 106.875 99.5846Z" fill="#057093"/>
<path id="Vector_11" d="M124.375 99.5846H115.625C114.82 99.5846 114.167 98.9313 114.167 98.1263V89.3763C114.167 88.5713 114.82 87.918 115.625 87.918H124.375C125.18 87.918 125.833 88.5713 125.833 89.3763V98.1263C125.833 98.9313 125.18 99.5846 124.375 99.5846Z" fill="#057093"/>
<path id="Vector_12" d="M122.917 85C102.01 85 85 102.01 85 122.917C85 125.927 85.3529 128.858 86.0208 131.667H134.583C137.806 131.667 140.417 129.056 140.417 125.833V89.2875C135.178 86.5487 129.225 85 122.917 85Z" fill="url(#paint1_radial_1_2042)"/>
<path id="Vector_13" d="M122.917 154.999C140.636 154.999 155 140.635 155 122.915C155 105.196 140.636 90.832 122.917 90.832C105.198 90.832 90.8333 105.196 90.8333 122.915C90.8333 140.635 105.198 154.999 122.917 154.999Z" fill="url(#paint2_linear_1_2042)"/>
<path id="Vector_14" d="M122.917 148.583C137.092 148.583 148.583 137.092 148.583 122.917C148.583 108.741 137.092 97.25 122.917 97.25C108.741 97.25 97.25 108.741 97.25 122.917C97.25 137.092 108.741 148.583 122.917 148.583Z" fill="#F5BE00"/>
<path id="Vector_15" d="M115.753 134.741V129.958C117.489 131.022 119.338 131.553 121.298 131.553C122.774 131.553 123.929 131.203 124.76 130.5C125.591 129.797 126.008 128.844 126.008 127.639C126.008 125.122 124.232 123.865 120.677 123.865C119.519 123.865 118.119 123.97 116.48 124.183V109.996H130.544V114.567H121.263V119.65C122.007 119.58 122.71 119.545 123.372 119.545C125.982 119.545 128.024 120.231 129.5 121.599C130.975 122.969 131.713 124.813 131.713 127.126C131.713 129.687 130.832 131.781 129.074 133.402C127.315 135.027 124.929 135.838 121.916 135.838C119.472 135.838 117.419 135.473 115.753 134.741Z" fill="#FEE119"/>
<path id="Vector_16" d="M114.665 58.75H55.3346C53.9987 58.75 52.9167 57.6679 52.9167 56.3321V52.4179C52.9167 51.0821 53.9987 50 55.3346 50H114.665C116.001 50 117.083 51.0821 117.083 52.4179V56.3321C117.083 57.6679 116.001 58.75 114.665 58.75Z" fill="#057093"/>
</g>
<rect x="7.5" y="7.5" width="155" height="155" rx="12.5" stroke="#D5EAF6" stroke-width="15"/>
</g>
<defs>
<linearGradient id="paint0_linear_1_2042" x1="85" y1="15" x2="85" y2="155" gradientUnits="userSpaceOnUse">
<stop stop-color="#199AE0"/>
<stop offset="0.472222" stop-color="#0D5176" stop-opacity="0.527778"/>
<stop offset="0.940972" stop-color="#12A6F7" stop-opacity="0.465278"/>
<stop offset="1" stop-opacity="0"/>
</linearGradient>
<radialGradient id="paint1_radial_1_2042" cx="0" cy="0" r="1" gradientUnits="userSpaceOnUse" gradientTransform="translate(122.949 124.156) scale(38.2433 38.2433)">
<stop/>
<stop offset="1" stop-opacity="0"/>
</radialGradient>
<linearGradient id="paint2_linear_1_2042" x1="100.896" y1="100.895" x2="145.556" y2="145.555" gradientUnits="userSpaceOnUse">
<stop stop-color="#FEDE00"/>
<stop offset="1" stop-color="#FFD000"/>
</linearGradient>
<clipPath id="clip0_1_2042">
<rect x="15" y="15" width="140" height="140" rx="5" fill="white"/>
</clipPath>
</defs>
</svg>
