<svg width="170" height="170" viewBox="0 0 170 170" fill="none" xmlns="http://www.w3.org/2000/svg">
<g id="synchronize-folder">
<rect x="7.5" y="7.5" width="155" height="155" rx="12.5" fill="white"/>
<rect x="7.5" y="7.5" width="155" height="155" rx="12.5" fill="url(#paint0_linear_1_2059)" fill-opacity="0.2"/>
<path id="Vector" d="M86.2075 45.3755L78.8108 37.9788C77.1717 36.3396 74.9463 35.418 72.6246 35.418H29.5833C26.3604 35.418 23.75 38.0284 23.75 41.2513V128.751C23.75 131.974 26.3604 134.585 29.5833 134.585H140.417C143.64 134.585 146.25 131.974 146.25 128.751V52.918C146.25 49.6951 143.64 47.0846 140.417 47.0846H90.3317C88.7858 47.0846 87.3013 46.4692 86.2075 45.3755Z" fill="url(#paint1_linear_1_2059)"/>
<path id="Vector_2" d="M77.9592 57.0395L87.4908 47.5079C87.7621 47.2366 88.1325 47.082 88.5204 47.082H140.417C143.64 47.082 146.25 49.6924 146.25 52.9154V128.749C146.25 131.972 143.64 134.582 140.417 134.582H29.5833C26.3604 134.582 23.75 131.972 23.75 128.749V60.207C23.75 59.402 24.4033 58.7487 25.2083 58.7487H73.835C75.3808 58.7487 76.8654 58.1333 77.9592 57.0395Z" fill="url(#paint2_linear_1_2059)"/>
<path id="Vector_3" d="M85 74.8547C85 75.6334 84.3817 76.243 83.6029 76.2955C72.995 77.0159 64.5833 85.8797 64.5833 96.6655C64.5833 100.801 65.8783 104.613 68.0017 107.831L70.8454 104.987C71.7612 104.071 73.3333 104.721 73.3333 106.019V115.624C73.3333 116.429 72.68 117.082 71.875 117.082H62.2704C60.9725 117.082 60.3192 115.51 61.2379 114.591L63.7754 112.054C60.6254 107.728 58.75 102.417 58.75 96.6655C58.75 82.7005 69.7079 71.2497 83.4775 70.4593C84.3058 70.4126 85 71.1068 85 71.9351V74.8547ZM106.216 81.283L108.762 78.7368C109.678 77.8209 109.027 76.2488 107.73 76.2488H98.125C97.32 76.2488 96.6667 76.9022 96.6667 77.7072V87.3118C96.6667 88.6097 98.2388 89.263 99.1575 88.3443L102.033 85.4684C104.16 88.6855 105.417 92.5268 105.417 96.6655C105.417 107.451 97.005 116.315 86.3971 117.036C85.6183 117.088 85 117.698 85 118.476V121.396C85 122.224 85.6942 122.918 86.5225 122.872C100.292 122.081 111.25 110.631 111.25 96.6655C111.25 90.9138 109.369 85.6084 106.216 81.283Z" fill="url(#paint3_linear_1_2059)"/>
<rect x="7.5" y="7.5" width="155" height="155" rx="12.5" stroke="#D5EAF6" stroke-width="15"/>
</g>
<defs>
<linearGradient id="paint0_linear_1_2059" x1="85" y1="15" x2="85" y2="155" gradientUnits="userSpaceOnUse">
<stop stop-color="#199AE0"/>
<stop offset="0.472222" stop-color="#0D5176" stop-opacity="0.527778"/>
<stop offset="0.940972" stop-color="#12A6F7" stop-opacity="0.465278"/>
<stop offset="1" stop-opacity="0"/>
</linearGradient>
<linearGradient id="paint1_linear_1_2059" x1="85" y1="34.5663" x2="85" y2="58.6842" gradientUnits="userSpaceOnUse">
<stop stop-color="#EBA600"/>
<stop offset="1" stop-color="#C28200"/>
</linearGradient>
<linearGradient id="paint2_linear_1_2059" x1="85" y1="46.6562" x2="85" y2="134.532" gradientUnits="userSpaceOnUse">
<stop stop-color="#FFD869"/>
<stop offset="1" stop-color="#FEC52B"/>
</linearGradient>
<linearGradient id="paint3_linear_1_2059" x1="78.0438" y1="72.7605" x2="91.9825" y2="120.667" gradientUnits="userSpaceOnUse">
<stop stop-color="#0370C8"/>
<stop offset="0.484" stop-color="#036FC5"/>
<stop offset="0.775" stop-color="#036ABD"/>
<stop offset="1" stop-color="#0362B0"/>
</linearGradient>
</defs>
</svg>
