<svg width="170" height="170" viewBox="0 0 170 170" fill="none" xmlns="http://www.w3.org/2000/svg">
<g id="tab">
<rect x="7.5" y="7.5" width="155" height="155" rx="12.5" fill="white"/>
<rect x="7.5" y="7.5" width="155" height="155" rx="12.5" fill="url(#paint0_linear_1_2063)" fill-opacity="0.2"/>
<path id="Vector" d="M143.333 44.1654V67.4987H70.4167V38.332H137.5C140.708 38.332 143.333 40.957 143.333 44.1654Z" fill="url(#paint1_linear_1_2063)"/>
<path id="Vector_2" d="M126.303 58.7487C124.209 58.7487 122.278 57.6258 121.24 55.8087L112.933 41.2691C111.892 39.4549 109.958 38.332 107.864 38.332H73.3333V58.7487H126.303Z" fill="#35C1F1"/>
<path id="Vector_3" d="M86.2367 55.8087L77.93 41.2691C76.8917 39.4549 74.9579 38.332 72.8638 38.332H32.5C29.2771 38.332 26.6667 40.9424 26.6667 44.1654V125.832C26.6667 129.04 29.2917 131.665 32.5 131.665H137.5C140.708 131.665 143.333 129.04 143.333 125.832V64.582C143.333 61.3591 140.723 58.7487 137.5 58.7487H91.3029C89.2087 58.7487 87.275 57.6258 86.2367 55.8087Z" fill="#50E6FF"/>
<rect x="7.5" y="7.5" width="155" height="155" rx="12.5" stroke="#D5EAF6" stroke-width="15"/>
</g>
<defs>
<linearGradient id="paint0_linear_1_2063" x1="85" y1="15" x2="85" y2="155" gradientUnits="userSpaceOnUse">
<stop stop-color="#199AE0"/>
<stop offset="0.472222" stop-color="#0D5176" stop-opacity="0.527778"/>
<stop offset="0.940972" stop-color="#12A6F7" stop-opacity="0.465278"/>
<stop offset="1" stop-opacity="0"/>
</linearGradient>
<linearGradient id="paint1_linear_1_2063" x1="138.121" y1="66.2562" x2="62.0138" y2="36.0454" gradientUnits="userSpaceOnUse">
<stop stop-color="#3079D6"/>
<stop offset="1" stop-color="#297CD2"/>
</linearGradient>
</defs>
</svg>
