<svg width="170" height="170" viewBox="0 0 170 170" fill="none" xmlns="http://www.w3.org/2000/svg">
<g id="table">
<rect x="7.5" y="7.5" width="155" height="155" rx="12.5" fill="white"/>
<rect x="7.5" y="7.5" width="155" height="155" rx="12.5" fill="url(#paint0_linear_1_2067)" fill-opacity="0.2"/>
<path id="Vector" d="M131.672 131.583L38.4179 131.673L38.3275 38.4185L131.579 38.3281L131.672 131.583Z" fill="url(#paint1_linear_1_2067)"/>
<path id="Vector_2" d="M137.41 38.3217C137.407 35.1192 134.785 32.5 131.582 32.5C131.579 32.5 131.579 32.5 131.576 32.5L38.3217 32.5904C35.1162 32.5933 32.4971 35.2183 32.5 38.4238L32.5904 131.678C32.5933 134.881 35.2154 137.5 38.4179 137.5C38.4208 137.5 38.4208 137.5 38.4237 137.5L131.678 137.41C134.884 137.407 137.503 134.782 137.5 131.576L137.41 38.3217ZM73.3333 96.6667V73.3333H96.6667V96.6667H73.3333ZM96.6667 105.417V128.75H73.3333V105.417H96.6667ZM64.5833 96.6667H41.25V73.3333H64.5833V96.6667ZM105.417 73.3333H128.75V96.6667H105.417V73.3333ZM128.75 64.5833H105.417V41.25H128.75V64.5833ZM96.6667 41.25V64.5833H73.3333V41.25H96.6667ZM64.5833 41.25V64.5833H41.25V41.25H64.5833ZM41.25 105.417H64.5833V128.75H41.25V105.417ZM105.417 128.75V105.417H128.75V128.75H105.417Z" fill="url(#paint2_linear_1_2067)"/>
<rect x="7.5" y="7.5" width="155" height="155" rx="12.5" stroke="#D5EAF6" stroke-width="15"/>
</g>
<defs>
<linearGradient id="paint0_linear_1_2067" x1="85" y1="15" x2="85" y2="155" gradientUnits="userSpaceOnUse">
<stop stop-color="#199AE0"/>
<stop offset="0.472222" stop-color="#0D5176" stop-opacity="0.527778"/>
<stop offset="0.940972" stop-color="#12A6F7" stop-opacity="0.465278"/>
<stop offset="1" stop-opacity="0"/>
</linearGradient>
<linearGradient id="paint1_linear_1_2067" x1="75.6258" y1="31.8415" x2="94.3742" y2="138.16" gradientUnits="userSpaceOnUse">
<stop stop-color="#FAFAFB"/>
<stop offset="0.293" stop-color="#F6F7F8"/>
<stop offset="0.566" stop-color="#EBECEE"/>
<stop offset="0.832" stop-color="#D8DCDF"/>
<stop offset="1" stop-color="#C8CDD1"/>
</linearGradient>
<linearGradient id="paint2_linear_1_2067" x1="74.6137" y1="26.1008" x2="95.3862" y2="143.899" gradientUnits="userSpaceOnUse">
<stop stop-color="#0176D0"/>
<stop offset="1" stop-color="#22A5E2"/>
</linearGradient>
</defs>
</svg>
