<svg width="170" height="170" viewBox="0 0 170 170" fill="none" xmlns="http://www.w3.org/2000/svg">
<g id="tags">
<rect x="7.5" y="7.5" width="155" height="155" rx="12.5" fill="white"/>
<rect x="7.5" y="7.5" width="155" height="155" rx="12.5" fill="url(#paint0_linear_1_2070)" fill-opacity="0.2"/>
<path id="Vector" d="M89.445 41.447L42.5771 88.3149C38.3917 92.5004 38.3917 99.2845 42.5771 103.47L75.2787 136.172C79.4642 140.357 86.2483 140.357 90.4338 136.172L137.305 89.3008C139.297 87.3087 140.417 84.605 140.417 81.7845V48.9662C140.417 43.1183 135.63 38.332 129.783 38.332H96.9671C94.1438 38.332 91.44 39.452 89.445 41.447Z" fill="url(#paint1_linear_1_2070)"/>
<path id="Vector_2" d="M78.6913 32.6416L32.6662 78.6695C28.5567 82.7791 28.5567 89.4437 32.6662 93.5533L64.7817 125.669C68.8913 129.778 75.5558 129.778 79.6654 125.669L125.693 79.6408C127.65 77.6808 128.75 75.0237 128.75 72.2529V40.0266C128.75 34.2808 124.051 29.582 118.305 29.582H86.0792C83.3083 29.582 80.6513 30.6816 78.6913 32.6416ZM113.085 51.0224C110.212 51.0224 107.864 48.6716 107.864 45.8016C107.864 42.9316 110.215 40.5808 113.085 40.5808C115.955 40.5808 118.305 42.9316 118.305 45.8016C118.305 48.6716 115.958 51.0224 113.085 51.0224Z" fill="url(#paint2_linear_1_2070)"/>
<rect x="7.5" y="7.5" width="155" height="155" rx="12.5" stroke="#D5EAF6" stroke-width="15"/>
</g>
<defs>
<linearGradient id="paint0_linear_1_2070" x1="85" y1="15" x2="85" y2="155" gradientUnits="userSpaceOnUse">
<stop stop-color="#199AE0"/>
<stop offset="0.472222" stop-color="#0D5176" stop-opacity="0.527778"/>
<stop offset="0.940972" stop-color="#12A6F7" stop-opacity="0.465278"/>
<stop offset="1" stop-opacity="0"/>
</linearGradient>
<linearGradient id="paint1_linear_1_2070" x1="60.5467" y1="148.08" x2="127.306" y2="13.4412" gradientUnits="userSpaceOnUse">
<stop stop-color="#0077D2"/>
<stop offset="1" stop-color="#0B59A2"/>
</linearGradient>
<linearGradient id="paint2_linear_1_2070" x1="46.5554" y1="30.4833" x2="116.226" y2="100.154" gradientUnits="userSpaceOnUse">
<stop stop-color="#32BDEF"/>
<stop offset="1" stop-color="#1EA2E4"/>
</linearGradient>
</defs>
</svg>
