<svg width="170" height="170" viewBox="0 0 170 170" fill="none" xmlns="http://www.w3.org/2000/svg">
<g id="term">
<rect x="7.5" y="7.5" width="155" height="155" rx="12.5" fill="white"/>
<rect x="7.5" y="7.5" width="155" height="155" rx="12.5" fill="url(#paint0_linear_1_2086)" fill-opacity="0.2"/>
<path id="Vector" d="M47.0833 79.168H105.417C107.027 79.168 108.333 80.4746 108.333 82.0846V87.918C108.333 89.528 107.027 90.8346 105.417 90.8346H47.0833C45.4733 90.8346 44.1667 89.528 44.1667 87.918V82.0846C44.1667 80.4746 45.4733 79.168 47.0833 79.168Z" fill="url(#paint1_linear_1_2086)"/>
<path id="Vector_2" d="M47.0833 102.5H122.917C124.527 102.5 125.833 103.807 125.833 105.417V111.25C125.833 112.86 124.527 114.167 122.917 114.167H47.0833C45.4733 114.167 44.1667 112.86 44.1667 111.25V105.417C44.1667 103.807 45.4733 102.5 47.0833 102.5Z" fill="url(#paint2_linear_1_2086)"/>
<path id="Vector_3" d="M47.0833 55.832H122.917C124.527 55.832 125.833 57.1387 125.833 58.7487V64.582C125.833 66.192 124.527 67.4987 122.917 67.4987H47.0833C45.4733 67.4987 44.1667 66.192 44.1667 64.582V58.7487C44.1667 57.1387 45.4733 55.832 47.0833 55.832Z" fill="url(#paint3_linear_1_2086)"/>
<path id="Vector_4" d="M120 35.4167V41.25C120 42.86 121.307 44.1667 122.917 44.1667H137.5V32.5H122.917C121.307 32.5 120 33.8067 120 35.4167Z" fill="url(#paint4_linear_1_2086)"/>
<path id="Vector_5" d="M149.167 48.5417V105.417V121.458C149.167 127.292 144.792 131.667 137.5 137.5V105.417V32.5C144.792 38.3333 149.167 42.7083 149.167 48.5417Z" fill="url(#paint5_linear_1_2086)"/>
<path id="Vector_6" d="M120 134.582V128.749C120 127.139 121.307 125.832 122.917 125.832H137.5V137.499H122.917C121.307 137.499 120 136.192 120 134.582Z" fill="url(#paint6_linear_1_2086)"/>
<path id="Vector_7" d="M50 35.4167V41.25C50 42.86 48.6933 44.1667 47.0833 44.1667H32.5V32.5H47.0833C48.6933 32.5 50 33.8067 50 35.4167Z" fill="url(#paint7_linear_1_2086)"/>
<path id="Vector_8" d="M20.8333 48.5417V105.417V121.458C20.8333 127.292 25.2083 131.667 32.5 137.5V105.417V32.5C25.2083 38.3333 20.8333 42.7083 20.8333 48.5417Z" fill="url(#paint8_linear_1_2086)"/>
<path id="Vector_9" d="M50 134.582V128.749C50 127.139 48.6933 125.832 47.0833 125.832H32.5V137.499H47.0833C48.6933 137.499 50 136.192 50 134.582Z" fill="url(#paint9_linear_1_2086)"/>
<rect x="7.5" y="7.5" width="155" height="155" rx="12.5" stroke="#D5EAF6" stroke-width="15"/>
</g>
<defs>
<linearGradient id="paint0_linear_1_2086" x1="85" y1="15" x2="85" y2="155" gradientUnits="userSpaceOnUse">
<stop stop-color="#199AE0"/>
<stop offset="0.472222" stop-color="#0D5176" stop-opacity="0.527778"/>
<stop offset="0.940972" stop-color="#12A6F7" stop-opacity="0.465278"/>
<stop offset="1" stop-opacity="0"/>
</linearGradient>
<linearGradient id="paint1_linear_1_2086" x1="76.25" y1="79.168" x2="76.25" y2="90.8346" gradientUnits="userSpaceOnUse">
<stop stop-color="#889097"/>
<stop offset="1" stop-color="#4C5963"/>
</linearGradient>
<linearGradient id="paint2_linear_1_2086" x1="85" y1="102.5" x2="85" y2="114.167" gradientUnits="userSpaceOnUse">
<stop stop-color="#889097"/>
<stop offset="1" stop-color="#4C5963"/>
</linearGradient>
<linearGradient id="paint3_linear_1_2086" x1="85" y1="55.832" x2="85" y2="67.4987" gradientUnits="userSpaceOnUse">
<stop stop-color="#889097"/>
<stop offset="1" stop-color="#4C5963"/>
</linearGradient>
<linearGradient id="paint4_linear_1_2086" x1="120" y1="38.3333" x2="137.5" y2="38.3333" gradientUnits="userSpaceOnUse">
<stop offset="0.478" stop-color="#AD4BD5"/>
<stop offset="0.758" stop-color="#9F3DC8"/>
<stop offset="0.787" stop-color="#9A38C4"/>
<stop offset="0.868" stop-color="#9533C0"/>
<stop offset="1" stop-color="#912FBD"/>
</linearGradient>
<linearGradient id="paint5_linear_1_2086" x1="149.167" y1="85" x2="137.5" y2="85" gradientUnits="userSpaceOnUse">
<stop stop-color="#C965EB"/>
<stop offset="1" stop-color="#C767E5"/>
</linearGradient>
<linearGradient id="paint6_linear_1_2086" x1="120" y1="131.668" x2="137.5" y2="131.668" gradientUnits="userSpaceOnUse">
<stop offset="0.478" stop-color="#AD4BD5"/>
<stop offset="0.758" stop-color="#9F3DC8"/>
<stop offset="0.787" stop-color="#9A38C4"/>
<stop offset="0.868" stop-color="#9533C0"/>
<stop offset="1" stop-color="#912FBD"/>
</linearGradient>
<linearGradient id="paint7_linear_1_2086" x1="50" y1="38.3304" x2="32.5" y2="38.3304" gradientUnits="userSpaceOnUse">
<stop offset="0.478" stop-color="#AD4BD5"/>
<stop offset="0.758" stop-color="#9F3DC8"/>
<stop offset="0.787" stop-color="#9A38C4"/>
<stop offset="0.868" stop-color="#9533C0"/>
<stop offset="1" stop-color="#912FBD"/>
</linearGradient>
<linearGradient id="paint8_linear_1_2086" x1="20.8333" y1="85" x2="32.5" y2="85" gradientUnits="userSpaceOnUse">
<stop stop-color="#C965EB"/>
<stop offset="1" stop-color="#C767E5"/>
</linearGradient>
<linearGradient id="paint9_linear_1_2086" x1="50" y1="131.668" x2="32.5" y2="131.668" gradientUnits="userSpaceOnUse">
<stop offset="0.478" stop-color="#AD4BD5"/>
<stop offset="0.758" stop-color="#9F3DC8"/>
<stop offset="0.787" stop-color="#9A38C4"/>
<stop offset="0.868" stop-color="#9533C0"/>
<stop offset="1" stop-color="#912FBD"/>
</linearGradient>
</defs>
</svg>
