<svg width="170" height="170" viewBox="0 0 170 170" fill="none" xmlns="http://www.w3.org/2000/svg">
<g id="text">
<rect x="7.5" y="7.5" width="155" height="155" rx="12.5" fill="white"/>
<rect x="7.5" y="7.5" width="155" height="155" rx="12.5" fill="url(#paint0_linear_1_2110)" fill-opacity="0.2"/>
<path id="Vector" d="M128.75 26.668H41.25C39.64 26.668 38.3333 27.9746 38.3333 29.5846V55.8346C38.3333 57.4446 39.64 58.7513 41.25 58.7513H45.1087C46.3017 58.7513 47.375 58.0251 47.8154 56.9167L52.9167 44.168H73.3333V128.751L60.5846 133.853C59.4762 134.293 58.75 135.366 58.75 136.559V140.418C58.75 142.028 60.0567 143.335 61.6667 143.335H108.333C109.943 143.335 111.25 142.028 111.25 140.418V136.559C111.25 135.366 110.524 134.293 109.415 133.853L96.6667 128.751V44.168H117.083L122.182 56.9167C122.625 58.0251 123.698 58.7513 124.891 58.7513H128.75C130.36 58.7513 131.667 57.4446 131.667 55.8346V29.5846C131.667 27.9746 130.36 26.668 128.75 26.668Z" fill="url(#paint1_linear_1_2110)"/>
<rect x="7.5" y="7.5" width="155" height="155" rx="12.5" stroke="#D5EAF6" stroke-width="15"/>
</g>
<defs>
<linearGradient id="paint0_linear_1_2110" x1="85" y1="15" x2="85" y2="155" gradientUnits="userSpaceOnUse">
<stop stop-color="#199AE0"/>
<stop offset="0.472222" stop-color="#0D5176" stop-opacity="0.527778"/>
<stop offset="0.940972" stop-color="#12A6F7" stop-opacity="0.465278"/>
<stop offset="1" stop-opacity="0"/>
</linearGradient>
<linearGradient id="paint1_linear_1_2110" x1="80.9312" y1="19.6271" x2="102.92" y2="144.335" gradientUnits="userSpaceOnUse">
<stop stop-color="#A235D4"/>
<stop offset="0.441" stop-color="#A033D1"/>
<stop offset="0.702" stop-color="#982CC9"/>
<stop offset="0.915" stop-color="#8B21BB"/>
<stop offset="1" stop-color="#831BB3"/>
</linearGradient>
</defs>
</svg>
