<svg width="170" height="170" viewBox="0 0 170 170" fill="none" xmlns="http://www.w3.org/2000/svg">
<g id="text-input-form">
<rect x="7.5" y="7.5" width="155" height="155" rx="12.5" fill="white"/>
<rect x="7.5" y="7.5" width="155" height="155" rx="12.5" fill="url(#paint0_linear_1_2120)" fill-opacity="0.2"/>
<path id="Vector" d="M17.9167 59.3346V110.668C17.9167 114.212 20.9179 117.085 24.625 117.085H145.375C149.082 117.085 152.083 114.212 152.083 110.668V59.3346C152.083 55.7909 149.082 52.918 145.375 52.918H24.625C20.9179 52.918 17.9167 55.7909 17.9167 59.3346Z" fill="#50E6FF"/>
<path id="Vector_2" d="M48.5417 102.5C50.9579 102.5 52.9167 100.541 52.9167 98.125C52.9167 95.7088 50.9579 93.75 48.5417 93.75C46.1254 93.75 44.1667 95.7088 44.1667 98.125C44.1667 100.541 46.1254 102.5 48.5417 102.5Z" fill="#184F85"/>
<path id="Vector_3" d="M33.9583 102.5C36.3746 102.5 38.3333 100.541 38.3333 98.125C38.3333 95.7088 36.3746 93.75 33.9583 93.75C31.5421 93.75 29.5833 95.7088 29.5833 98.125C29.5833 100.541 31.5421 102.5 33.9583 102.5Z" fill="#184F85"/>
<path id="Vector_4" d="M63.125 102.5C65.5412 102.5 67.5 100.541 67.5 98.125C67.5 95.7088 65.5412 93.75 63.125 93.75C60.7088 93.75 58.75 95.7088 58.75 98.125C58.75 100.541 60.7088 102.5 63.125 102.5Z" fill="#184F85"/>
<rect x="7.5" y="7.5" width="155" height="155" rx="12.5" stroke="#D5EAF6" stroke-width="15"/>
</g>
<defs>
<linearGradient id="paint0_linear_1_2120" x1="85" y1="15" x2="85" y2="155" gradientUnits="userSpaceOnUse">
<stop stop-color="#199AE0"/>
<stop offset="0.472222" stop-color="#0D5176" stop-opacity="0.527778"/>
<stop offset="0.940972" stop-color="#12A6F7" stop-opacity="0.465278"/>
<stop offset="1" stop-opacity="0"/>
</linearGradient>
</defs>
</svg>
