<svg width="170" height="170" viewBox="0 0 170 170" fill="none" xmlns="http://www.w3.org/2000/svg">
<g id="ticket-booth">
<rect x="7.5" y="7.5" width="155" height="155" rx="12.5" fill="white"/>
<rect x="7.5" y="7.5" width="155" height="155" rx="12.5" fill="url(#paint0_linear_1_2140)" fill-opacity="0.2"/>
<path id="Vector" d="M111.25 35.418H58.75V143.335H111.25V35.418Z" fill="url(#paint1_linear_1_2140)"/>
<path id="Vector_2" d="M58.75 35.418H44.1667V143.335H58.75V35.418Z" fill="url(#paint2_linear_1_2140)"/>
<path id="Vector_3" d="M125.833 35.418H111.25V143.335H125.833V35.418Z" fill="url(#paint3_linear_1_2140)"/>
<path id="Vector_4" d="M105.417 47.082H64.5833V87.9154H105.417V47.082Z" fill="#50E6FF"/>
<path id="Vector_5" d="M58.75 47.082H44.1667V87.9154H58.75V47.082Z" fill="#45D5ED"/>
<path id="Vector_6" d="M125.833 47.082H111.25V87.9154H125.833V47.082Z" fill="#45D5ED"/>
<path id="Vector_7" d="M125.833 35.418H44.1667C40.945 35.418 38.3333 38.0296 38.3333 41.2513C38.3333 44.473 40.945 47.0846 44.1667 47.0846H125.833C129.055 47.0846 131.667 44.473 131.667 41.2513C131.667 38.0296 129.055 35.418 125.833 35.418Z" fill="url(#paint4_linear_1_2140)"/>
<path id="Vector_8" d="M111.25 35.7826C108.333 31.043 98.125 26.668 85 26.668C71.875 26.668 61.6667 31.043 58.75 35.7826C56.1118 40.0697 70.5025 44.8971 85 44.8971C99.4975 44.8971 113.888 40.0697 111.25 35.7826Z" fill="url(#paint5_linear_1_2140)"/>
<path id="Vector_9" d="M85 73.332C87.3206 73.332 89.5462 74.2539 91.1872 75.8948C92.8281 77.5358 93.75 79.7614 93.75 82.082V87.9154H76.25V82.082C76.25 79.7614 77.1719 77.5358 78.8128 75.8948C80.4538 74.2539 82.6794 73.332 85 73.332Z" fill="url(#paint6_linear_1_2140)"/>
<path id="Vector_10" opacity="0.05" d="M95.5 105.417C95.8091 105.418 96.1053 105.541 96.3239 105.759C96.5425 105.978 96.6657 106.274 96.6667 106.583V111.25C95.8931 111.25 95.1513 111.557 94.6043 112.104C94.0573 112.651 93.75 113.393 93.75 114.167C93.75 114.94 94.0573 115.682 94.6043 116.229C95.1513 116.776 95.8931 117.083 96.6667 117.083V121.75C96.6658 122.059 96.5426 122.355 96.324 122.574C96.1054 122.793 95.8092 122.916 95.5 122.917H74.5C74.3468 122.917 74.195 122.887 74.0535 122.828C73.9119 122.769 73.7833 122.683 73.6749 122.575C73.5666 122.467 73.4806 122.338 73.422 122.197C73.3634 122.055 73.3333 121.903 73.3333 121.75V117.083C74.1069 117.083 74.8488 116.776 75.3957 116.229C75.9427 115.682 76.25 114.94 76.25 114.167C76.25 113.393 75.9427 112.651 75.3957 112.104C74.8488 111.557 74.1069 111.25 73.3333 111.25V106.583C73.3333 106.43 73.3635 106.278 73.4221 106.137C73.4807 105.995 73.5666 105.866 73.675 105.758C73.7833 105.65 73.912 105.564 74.0535 105.505C74.1951 105.447 74.3468 105.417 74.5 105.417H95.5M95.5 102.5H74.5C73.4174 102.501 72.3796 102.932 71.614 103.697C70.8485 104.463 70.4179 105.5 70.4167 106.583V121.75C70.4179 122.833 70.8485 123.87 71.614 124.636C72.3795 125.401 73.4174 125.832 74.5 125.833H95.5C96.5826 125.832 97.6205 125.401 98.386 124.636C99.1515 123.87 99.5821 122.833 99.5833 121.75V114.167V106.583C99.5821 105.5 99.1515 104.463 98.386 103.697C97.6205 102.932 96.5826 102.501 95.5 102.5Z" fill="black"/>
<path id="Vector_11" opacity="0.07" d="M95.5 105.415C95.8091 105.416 96.1053 105.539 96.3239 105.758C96.5425 105.976 96.6657 106.273 96.6667 106.582V111.249C95.8931 111.249 95.1513 111.556 94.6043 112.103C94.0573 112.65 93.75 113.392 93.75 114.165C93.75 114.939 94.0573 115.681 94.6043 116.228C95.1513 116.775 95.8931 117.082 96.6667 117.082V121.749C96.6658 122.058 96.5426 122.354 96.324 122.573C96.1054 122.791 95.8092 122.914 95.5 122.915H74.5C74.3468 122.915 74.195 122.885 74.0535 122.827C73.9119 122.768 73.7833 122.682 73.6749 122.574C73.5666 122.465 73.4806 122.337 73.422 122.195C73.3634 122.054 73.3333 121.902 73.3333 121.749V117.082C74.1069 117.082 74.8487 116.775 75.3957 116.228C75.9427 115.681 76.25 114.939 76.25 114.165C76.25 113.392 75.9427 112.65 75.3957 112.103C74.8487 111.556 74.1069 111.249 73.3333 111.249V106.582C73.3333 106.429 73.3635 106.277 73.4221 106.135C73.4807 105.994 73.5666 105.865 73.675 105.757C73.7833 105.648 73.912 105.563 74.0535 105.504C74.1951 105.445 74.3468 105.415 74.5 105.415H95.5M95.5 103.957H74.5C73.8041 103.958 73.1369 104.235 72.6448 104.727C72.1527 105.219 71.8758 105.886 71.875 106.582V112.707H73.3333C73.7201 112.707 74.091 112.861 74.3645 113.134C74.638 113.408 74.7917 113.779 74.7917 114.165C74.7917 114.552 74.638 114.923 74.3645 115.197C74.091 115.47 73.7201 115.624 73.3333 115.624H71.875V121.749C71.8758 122.445 72.1527 123.112 72.6448 123.604C73.1369 124.096 73.8041 124.373 74.5 124.374H95.5C96.1959 124.373 96.8631 124.096 97.3552 123.604C97.8473 123.112 98.1242 122.445 98.125 121.749V115.624H96.6667C96.2799 115.624 95.909 115.47 95.6355 115.197C95.362 114.923 95.2083 114.552 95.2083 114.165C95.2083 113.779 95.362 113.408 95.6355 113.134C95.909 112.861 96.2799 112.707 96.6667 112.707H98.125V106.582C98.1242 105.886 97.8473 105.219 97.3552 104.727C96.8631 104.235 96.1959 103.958 95.5 103.957V103.957Z" fill="black"/>
<path id="Vector_12" d="M93.75 114.168C93.75 113.394 94.0573 112.653 94.6043 112.106C95.1512 111.559 95.8931 111.251 96.6667 111.251V106.584C96.6657 106.275 96.5425 105.979 96.3239 105.761C96.1053 105.542 95.8091 105.419 95.5 105.418H74.5C74.3468 105.418 74.1951 105.448 74.0535 105.507C73.912 105.565 73.7833 105.651 73.675 105.759C73.5666 105.868 73.4807 105.996 73.4221 106.138C73.3634 106.279 73.3333 106.431 73.3333 106.584V111.251C74.1069 111.251 74.8487 111.559 75.3957 112.106C75.9427 112.653 76.25 113.394 76.25 114.168C76.25 114.942 75.9427 115.683 75.3957 116.23C74.8487 116.777 74.1069 117.085 73.3333 117.085V121.751C73.3333 121.905 73.3634 122.056 73.422 122.198C73.4806 122.339 73.5666 122.468 73.6749 122.576C73.7832 122.685 73.9119 122.771 74.0535 122.829C74.195 122.888 74.3468 122.918 74.5 122.918H95.5C95.8091 122.917 96.1054 122.794 96.324 122.575C96.5426 122.357 96.6658 122.06 96.6667 121.751V117.085C95.8931 117.085 95.1512 116.777 94.6043 116.23C94.0573 115.683 93.75 114.942 93.75 114.168Z" fill="white"/>
<rect x="7.5" y="7.5" width="155" height="155" rx="12.5" stroke="#D5EAF6" stroke-width="15"/>
</g>
<defs>
<linearGradient id="paint0_linear_1_2140" x1="85" y1="15" x2="85" y2="155" gradientUnits="userSpaceOnUse">
<stop stop-color="#199AE0"/>
<stop offset="0.472222" stop-color="#0D5176" stop-opacity="0.527778"/>
<stop offset="0.940972" stop-color="#12A6F7" stop-opacity="0.465278"/>
<stop offset="1" stop-opacity="0"/>
</linearGradient>
<linearGradient id="paint1_linear_1_2140" x1="58.7179" y1="17.1684" x2="119.533" y2="184.253" gradientUnits="userSpaceOnUse">
<stop stop-color="#32BDEF"/>
<stop offset="1" stop-color="#1EA2E4"/>
</linearGradient>
<linearGradient id="paint2_linear_1_2140" x1="44.1667" y1="89.3763" x2="58.75" y2="89.3763" gradientUnits="userSpaceOnUse">
<stop stop-color="#3079D6"/>
<stop offset="1" stop-color="#297CD2"/>
</linearGradient>
<linearGradient id="paint3_linear_1_2140" x1="111.25" y1="15.0013" x2="125.833" y2="15.0013" gradientUnits="userSpaceOnUse">
<stop stop-color="#3079D6"/>
<stop offset="1" stop-color="#297CD2"/>
</linearGradient>
<linearGradient id="paint4_linear_1_2140" x1="70.3992" y1="1.13838" x2="165.045" y2="261.177" gradientUnits="userSpaceOnUse">
<stop stop-color="#32BDEF"/>
<stop offset="1" stop-color="#1EA2E4"/>
</linearGradient>
<linearGradient id="paint5_linear_1_2140" x1="75.8621" y1="11.7259" x2="148.362" y2="210.923" gradientUnits="userSpaceOnUse">
<stop stop-color="#32BDEF"/>
<stop offset="1" stop-color="#1EA2E4"/>
</linearGradient>
<linearGradient id="paint6_linear_1_2140" x1="76.25" y1="80.6237" x2="93.75" y2="80.6237" gradientUnits="userSpaceOnUse">
<stop stop-color="#3079D6"/>
<stop offset="1" stop-color="#297CD2"/>
</linearGradient>
</defs>
</svg>
