<svg width="170" height="170" viewBox="0 0 170 170" fill="none" xmlns="http://www.w3.org/2000/svg">
<g id="timeline">
<rect x="7.5" y="7.5" width="155" height="155" rx="12.5" fill="white"/>
<rect x="7.5" y="7.5" width="155" height="155" rx="12.5" fill="url(#paint0_linear_1_2183)" fill-opacity="0.2"/>
<path id="Vector" d="M44.1667 29.582H38.3333V140.415H44.1667V29.582Z" fill="#64717C"/>
<path id="Vector_2" d="M41.25 32.5013C42.8608 32.5013 44.1667 31.1955 44.1667 29.5846C44.1667 27.9738 42.8608 26.668 41.25 26.668C39.6392 26.668 38.3333 27.9738 38.3333 29.5846C38.3333 31.1955 39.6392 32.5013 41.25 32.5013Z" fill="#64717C"/>
<path id="Vector_3" d="M41.25 143.333C42.8608 143.333 44.1667 142.027 44.1667 140.417C44.1667 138.806 42.8608 137.5 41.25 137.5C39.6392 137.5 38.3333 138.806 38.3333 140.417C38.3333 142.027 39.6392 143.333 41.25 143.333Z" fill="#64717C"/>
<path id="Vector_4" d="M41.25 52.918C46.0825 52.918 50 49.0005 50 44.168C50 39.3355 46.0825 35.418 41.25 35.418C36.4175 35.418 32.5 39.3355 32.5 44.168C32.5 49.0005 36.4175 52.918 41.25 52.918Z" fill="#ABB4BE"/>
<path id="Vector_5" d="M41.25 93.75C46.0825 93.75 50 89.8325 50 85C50 80.1675 46.0825 76.25 41.25 76.25C36.4175 76.25 32.5 80.1675 32.5 85C32.5 89.8325 36.4175 93.75 41.25 93.75Z" fill="#ABB4BE"/>
<path id="Vector_6" d="M41.25 134.582C46.0825 134.582 50 130.665 50 125.832C50 121 46.0825 117.082 41.25 117.082C36.4175 117.082 32.5 121 32.5 125.832C32.5 130.665 36.4175 134.582 41.25 134.582Z" fill="#ABB4BE"/>
<path id="Vector_7" d="M120 29.582H73.3333C72.5575 29.582 71.8167 29.8883 71.2712 30.4366L59.6046 42.1033C58.4642 43.2437 58.4642 45.087 59.6046 46.2274L71.2712 57.8941C71.8167 58.4424 72.5575 58.7487 73.3333 58.7487H120C121.613 58.7487 122.917 57.442 122.917 55.832V32.4987C122.917 30.8887 121.613 29.582 120 29.582Z" fill="#50E6FF"/>
<path id="Vector_8" d="M117.083 111.25H73.3333C72.5575 111.25 71.8167 111.556 71.2712 112.105L59.6046 123.771C58.4642 124.912 58.4642 126.755 59.6046 127.895L71.2712 139.562C71.8167 140.11 72.5575 140.417 73.3333 140.417H117.083C118.696 140.417 120 139.11 120 137.5V114.167C120 112.557 118.696 111.25 117.083 111.25Z" fill="#199BE2"/>
<path id="Vector_9" d="M140.417 70.418H73.3333C72.5575 70.418 71.8167 70.7242 71.2712 71.2725L59.6046 82.9392C58.4642 84.0796 58.4642 85.923 59.6046 87.0634L71.2712 98.7301C71.8167 99.2784 72.5575 99.5846 73.3333 99.5846H140.417C142.03 99.5846 143.333 98.278 143.333 96.668V73.3346C143.333 71.7246 142.03 70.418 140.417 70.418Z" fill="#0078D4"/>
<rect x="7.5" y="7.5" width="155" height="155" rx="12.5" stroke="#D5EAF6" stroke-width="15"/>
</g>
<defs>
<linearGradient id="paint0_linear_1_2183" x1="85" y1="15" x2="85" y2="155" gradientUnits="userSpaceOnUse">
<stop stop-color="#199AE0"/>
<stop offset="0.472222" stop-color="#0D5176" stop-opacity="0.527778"/>
<stop offset="0.940972" stop-color="#12A6F7" stop-opacity="0.465278"/>
<stop offset="1" stop-opacity="0"/>
</linearGradient>
</defs>
</svg>
