<svg width="170" height="170" viewBox="0 0 170 170" fill="none" xmlns="http://www.w3.org/2000/svg">
<g id="time-card">
<rect x="7.5" y="7.5" width="155" height="155" rx="12.5" fill="white"/>
<rect x="7.5" y="7.5" width="155" height="155" rx="12.5" fill="url(#paint0_linear_1_2153)" fill-opacity="0.2"/>
<path id="Vector" d="M131.667 140.418H38.3333C35.125 140.418 32.5 137.793 32.5 134.585V67.5013C32.5 64.293 35.125 61.668 38.3333 61.668H131.667C134.875 61.668 137.5 64.293 137.5 67.5013V134.585C137.5 137.793 134.875 140.418 131.667 140.418Z" fill="url(#paint1_linear_1_2153)"/>
<path id="Vector_2" d="M122.917 67.5013H47.0833C45.4733 67.5013 44.1667 66.1946 44.1667 64.5846V61.668H125.833V64.5846C125.833 66.1946 124.527 67.5013 122.917 67.5013Z" fill="#586067"/>
<path id="Vector_3" d="M120 35.4154V67.4987H50V35.4154C50 32.1924 52.6104 29.582 55.8333 29.582H114.167C117.39 29.582 120 32.1924 120 35.4154Z" fill="url(#paint2_linear_1_2153)"/>
<path id="Vector_4" d="M85 134.585C102.719 134.585 117.083 120.22 117.083 102.501C117.083 84.7822 102.719 70.418 85 70.418C67.2809 70.418 52.9167 84.7822 52.9167 102.501C52.9167 120.22 67.2809 134.585 85 134.585Z" fill="url(#paint3_radial_1_2153)"/>
<path id="Vector_5" d="M85 131.019C100.751 131.019 113.519 118.25 113.519 102.5C113.519 86.7489 100.751 73.9805 85 73.9805C69.2493 73.9805 56.4808 86.7489 56.4808 102.5C56.4808 118.25 69.2493 131.019 85 131.019Z" fill="url(#paint4_radial_1_2153)"/>
<path id="Vector_6" d="M95.4067 122.703C94.7504 123.042 93.9454 122.782 93.6071 122.126L83.8129 103.112C83.4746 102.456 83.7342 101.651 84.3904 101.313C85.0467 100.974 85.8517 101.234 86.19 101.89L95.9842 120.904C96.3196 121.56 96.0629 122.365 95.4067 122.703Z" fill="#D83B01"/>
<path id="Vector_7" d="M85 103.834C84.6558 103.834 84.3146 103.703 84.055 103.444C83.5329 102.921 83.5329 102.076 84.055 101.554L99.1779 86.4306C99.7 85.9085 100.546 85.9085 101.068 86.4306C101.59 86.9527 101.59 87.7985 101.068 88.3206L85.945 103.444C85.6854 103.706 85.3442 103.834 85 103.834Z" fill="#45494D"/>
<path id="Vector_8" d="M84.9971 104.727C84.6733 104.727 84.3467 104.657 84.0346 104.509L70.1542 97.8499C69.0458 97.3162 68.5763 95.9862 69.11 94.8778C69.6438 93.7695 70.9738 93.2999 72.0821 93.8337L85.9625 100.492C87.0708 101.026 87.5404 102.356 87.0067 103.464C86.6246 104.261 85.8283 104.727 84.9971 104.727Z" fill="#45494D"/>
<path id="Vector_9" d="M85 106.066C86.9684 106.066 88.5642 104.47 88.5642 102.502C88.5642 100.533 86.9684 98.9375 85 98.9375C83.0316 98.9375 81.4358 100.533 81.4358 102.502C81.4358 104.47 83.0316 106.066 85 106.066Z" fill="#1E2021"/>
<path id="Vector_10" d="M102.5 55.832H79.1667C77.5567 55.832 76.25 57.1387 76.25 58.7487C76.25 60.3587 77.5567 61.6654 79.1667 61.6654H102.5C104.11 61.6654 105.417 60.3587 105.417 58.7487C105.417 57.1387 104.11 55.832 102.5 55.832Z" fill="#057093"/>
<path id="Vector_11" d="M67.5 61.6654C69.1108 61.6654 70.4167 60.3595 70.4167 58.7487C70.4167 57.1379 69.1108 55.832 67.5 55.832C65.8892 55.832 64.5833 57.1379 64.5833 58.7487C64.5833 60.3595 65.8892 61.6654 67.5 61.6654Z" fill="#057093"/>
<path id="Vector_12" d="M102.5 44.168H79.1667C77.5567 44.168 76.25 45.4746 76.25 47.0846C76.25 48.6946 77.5567 50.0013 79.1667 50.0013H102.5C104.11 50.0013 105.417 48.6946 105.417 47.0846C105.417 45.4746 104.11 44.168 102.5 44.168Z" fill="#057093"/>
<path id="Vector_13" d="M67.5 50.0013C69.1108 50.0013 70.4167 48.6955 70.4167 47.0846C70.4167 45.4738 69.1108 44.168 67.5 44.168C65.8892 44.168 64.5833 45.4738 64.5833 47.0846C64.5833 48.6955 65.8892 50.0013 67.5 50.0013Z" fill="#057093"/>
<rect x="7.5" y="7.5" width="155" height="155" rx="12.5" stroke="#D5EAF6" stroke-width="15"/>
</g>
<defs>
<linearGradient id="paint0_linear_1_2153" x1="85" y1="15" x2="85" y2="155" gradientUnits="userSpaceOnUse">
<stop stop-color="#199AE0"/>
<stop offset="0.472222" stop-color="#0D5176" stop-opacity="0.527778"/>
<stop offset="0.940972" stop-color="#12A6F7" stop-opacity="0.465278"/>
<stop offset="1" stop-opacity="0"/>
</linearGradient>
<linearGradient id="paint1_linear_1_2153" x1="82.2729" y1="63.9109" x2="88.0537" y2="142.643" gradientUnits="userSpaceOnUse">
<stop stop-color="#889097"/>
<stop offset="1" stop-color="#64717C"/>
</linearGradient>
<linearGradient id="paint2_linear_1_2153" x1="85" y1="29.8358" x2="85" y2="67.7524" gradientUnits="userSpaceOnUse">
<stop offset="0.647" stop-color="#50E6FF"/>
<stop offset="1" stop-color="#2AB1C7"/>
</linearGradient>
<radialGradient id="paint3_radial_1_2153" cx="0" cy="0" r="1" gradientUnits="userSpaceOnUse" gradientTransform="translate(85 102.501) scale(32.0833)">
<stop/>
<stop offset="1" stop-opacity="0"/>
</radialGradient>
<radialGradient id="paint4_radial_1_2153" cx="0" cy="0" r="1" gradientUnits="userSpaceOnUse" gradientTransform="translate(84.8163 74.6426) scale(63.5513)">
<stop stop-color="#FAFAFB"/>
<stop offset="1" stop-color="#C8CDD1"/>
</radialGradient>
</defs>
</svg>
