<svg width="170" height="170" viewBox="0 0 170 170" fill="none" xmlns="http://www.w3.org/2000/svg">
<g id="timesheet">
<rect x="7.5" y="7.5" width="155" height="155" rx="12.5" fill="white"/>
<rect x="7.5" y="7.5" width="155" height="155" rx="12.5" fill="url(#paint0_linear_1_2213)" fill-opacity="0.2"/>
<path id="Vector" d="M26.6667 125.835V52.918H143.333V125.835C143.333 129.043 140.708 131.668 137.5 131.668H32.5C29.2917 131.668 26.6667 129.043 26.6667 125.835Z" fill="url(#paint1_linear_1_2213)"/>
<path id="Vector_2" d="M127.292 79.1654H60.2083C59.3333 79.1654 58.75 78.582 58.75 77.707V74.7904C58.75 73.9154 59.3333 73.332 60.2083 73.332H127.292C128.167 73.332 128.75 73.9154 128.75 74.7904V77.707C128.75 78.582 128.167 79.1654 127.292 79.1654Z" fill="#0F94BF"/>
<path id="Vector_3" d="M127.292 93.7513H60.2083C59.3333 93.7513 58.75 93.168 58.75 92.293V89.3763C58.75 88.5013 59.3333 87.918 60.2083 87.918H127.292C128.167 87.918 128.75 88.5013 128.75 89.3763V92.293C128.75 93.168 128.167 93.7513 127.292 93.7513Z" fill="#0F94BF"/>
<path id="Vector_4" d="M127.292 108.333H60.2083C59.3333 108.333 58.75 107.75 58.75 106.875V103.958C58.75 103.083 59.3333 102.5 60.2083 102.5H127.292C128.167 102.5 128.75 103.083 128.75 103.958V106.875C128.75 107.75 128.167 108.333 127.292 108.333Z" fill="#0F94BF"/>
<path id="Vector_5" d="M143.333 44.1654V52.9154H26.6667V44.1654C26.6667 40.957 29.2917 38.332 32.5 38.332H137.5C140.708 38.332 143.333 40.957 143.333 44.1654Z" fill="url(#paint2_linear_1_2213)"/>
<path id="Vector_6" d="M42.7083 79.1654H45.625C46.5 79.1654 47.0833 78.582 47.0833 77.707V74.7904C47.0833 73.9154 46.5 73.332 45.625 73.332H42.7083C41.8333 73.332 41.25 73.9154 41.25 74.7904V77.707C41.25 78.582 41.8333 79.1654 42.7083 79.1654Z" fill="#0F94BF"/>
<path id="Vector_7" d="M42.7083 93.7513H45.625C46.5 93.7513 47.0833 93.168 47.0833 92.293V89.3763C47.0833 88.5013 46.5 87.918 45.625 87.918H42.7083C41.8333 87.918 41.25 88.5013 41.25 89.3763V92.293C41.25 93.168 41.8333 93.7513 42.7083 93.7513Z" fill="#0F94BF"/>
<path id="Vector_8" d="M42.7083 108.333H45.625C46.5 108.333 47.0833 107.75 47.0833 106.875V103.958C47.0833 103.083 46.5 102.5 45.625 102.5H42.7083C41.8333 102.5 41.25 103.083 41.25 103.958V106.875C41.25 107.75 41.8333 108.333 42.7083 108.333Z" fill="#0F94BF"/>
<path id="Vector_9" d="M125.833 90.832C106.583 90.832 90.8333 106.582 90.8333 125.832C90.8333 127.874 91.125 129.624 91.4167 131.665H137.5C140.708 131.665 143.333 129.04 143.333 125.832V95.4987C138.083 92.582 132.25 90.832 125.833 90.832Z" fill="url(#paint3_radial_1_2213)"/>
<path id="Vector_10" d="M125.833 155.001C141.942 155.001 155 141.943 155 125.835C155 109.726 141.942 96.668 125.833 96.668C109.725 96.668 96.6667 109.726 96.6667 125.835C96.6667 141.943 109.725 155.001 125.833 155.001Z" fill="url(#paint4_linear_1_2213)"/>
<path id="Vector_11" d="M125.833 149.167C138.72 149.167 149.167 138.72 149.167 125.833C149.167 112.947 138.72 102.5 125.833 102.5C112.947 102.5 102.5 112.947 102.5 125.833C102.5 138.72 112.947 149.167 125.833 149.167Z" fill="url(#paint5_radial_1_2213)"/>
<path id="Vector_12" d="M134.292 142.458C133.708 142.75 133.125 142.458 132.833 141.875L124.958 126.417C124.667 125.833 124.958 125.25 125.542 124.958C126.125 124.667 126.708 124.958 127 125.542L134.875 141C135.167 141.292 134.875 142.167 134.292 142.458Z" fill="#D83B01"/>
<path id="Vector_13" d="M125.833 127C125.542 127 125.25 127 124.958 126.708C124.667 126.417 124.667 125.542 124.958 125.25L137.208 113C137.5 112.708 138.375 112.708 138.667 113C138.958 113.292 138.958 114.167 138.667 114.458L126.417 126.708C126.417 126.708 126.125 127 125.833 127Z" fill="#45494D"/>
<path id="Vector_14" d="M125.833 127.585C125.542 127.585 125.25 127.585 124.958 127.293L113.583 121.751C112.708 121.46 112.417 120.293 112.708 119.418C113 118.543 114.167 118.251 115.042 118.543L126.417 124.085C127.292 124.376 127.583 125.543 127.292 126.418C127.292 127.293 126.417 127.585 125.833 127.585Z" fill="#45494D"/>
<path id="Vector_15" d="M125.833 128.751C127.444 128.751 128.75 127.445 128.75 125.835C128.75 124.224 127.444 122.918 125.833 122.918C124.222 122.918 122.917 124.224 122.917 125.835C122.917 127.445 124.222 128.751 125.833 128.751Z" fill="#1E2021"/>
<rect x="7.5" y="7.5" width="155" height="155" rx="12.5" stroke="#D5EAF6" stroke-width="15"/>
</g>
<defs>
<linearGradient id="paint0_linear_1_2213" x1="85" y1="15" x2="85" y2="155" gradientUnits="userSpaceOnUse">
<stop stop-color="#199AE0"/>
<stop offset="0.472222" stop-color="#0D5176" stop-opacity="0.527778"/>
<stop offset="0.940972" stop-color="#12A6F7" stop-opacity="0.465278"/>
<stop offset="1" stop-opacity="0"/>
</linearGradient>
<linearGradient id="paint1_linear_1_2213" x1="53.1179" y1="44.1651" x2="108.117" y2="123.72" gradientUnits="userSpaceOnUse">
<stop stop-color="#7DD8F3"/>
<stop offset="1" stop-color="#45B0D0"/>
</linearGradient>
<linearGradient id="paint2_linear_1_2213" x1="29.0233" y1="34.7737" x2="139.688" y2="57.2758" gradientUnits="userSpaceOnUse">
<stop stop-color="#0077D2"/>
<stop offset="1" stop-color="#0B59A2"/>
</linearGradient>
<radialGradient id="paint3_radial_1_2213" cx="0" cy="0" r="1" gradientUnits="userSpaceOnUse" gradientTransform="translate(125.276 126.888) scale(36.2542)">
<stop/>
<stop offset="0.979" stop-opacity="0"/>
</radialGradient>
<linearGradient id="paint4_linear_1_2213" x1="105.21" y1="105.211" x2="146.457" y2="146.458" gradientUnits="userSpaceOnUse">
<stop stop-color="#889097"/>
<stop offset="1" stop-color="#64717C"/>
</linearGradient>
<radialGradient id="paint5_radial_1_2213" cx="0" cy="0" r="1" gradientUnits="userSpaceOnUse" gradientTransform="translate(125.682 103.043) scale(51.9983)">
<stop stop-color="#FAFAFB"/>
<stop offset="1" stop-color="#C8CDD1"/>
</radialGradient>
</defs>
</svg>
