<svg width="170" height="170" viewBox="0 0 170 170" fill="none" xmlns="http://www.w3.org/2000/svg">
<g id="timer">
<rect x="7.5" y="7.5" width="155" height="155" rx="12.5" fill="white"/>
<rect x="7.5" y="7.5" width="155" height="155" rx="12.5" fill="url(#paint0_linear_1_2205)" fill-opacity="0.2"/>
<path id="Vector" d="M85 143.335C117.217 143.335 143.333 117.218 143.333 85.0013C143.333 52.7847 117.217 26.668 85 26.668C52.7834 26.668 26.6667 52.7847 26.6667 85.0013C26.6667 117.218 52.7834 143.335 85 143.335Z" fill="url(#paint1_linear_1_2205)"/>
<path id="Vector_2" opacity="0.15" d="M85 138.96C114.8 138.96 138.958 114.802 138.958 85.0013C138.958 55.2009 114.8 31.043 85 31.043C55.1996 31.043 31.0417 55.2009 31.0417 85.0013C31.0417 114.802 55.1996 138.96 85 138.96Z" fill="url(#paint2_radial_1_2205)"/>
<path id="Vector_3" d="M85 134.585C112.384 134.585 134.583 112.385 134.583 85.0013C134.583 57.6172 112.384 35.418 85 35.418C57.6159 35.418 35.4167 57.6172 35.4167 85.0013C35.4167 112.385 57.6159 134.585 85 134.585Z" fill="url(#paint3_radial_1_2205)"/>
<path id="Vector_4" d="M85 85.0013V35.418C71.3092 35.418 58.9133 40.9684 49.9388 49.9401L85 85.0013Z" fill="#6EEBFF"/>
<path id="Vector_5" d="M79.26 35.7767L85 47.0846L90.74 35.7767C88.8529 35.558 86.9454 35.418 85 35.418C83.0546 35.418 81.1471 35.558 79.26 35.7767Z" fill="url(#paint4_linear_1_2205)"/>
<g id="Group">
<path id="Vector_6" d="M89.1213 89.1311C86.8404 91.4061 83.1479 91.4032 80.8729 89.1224C78.5979 86.8416 52.9546 52.8828 52.9546 52.8828C52.9546 52.8828 86.8579 78.602 89.1329 80.8828C91.4079 83.1636 91.3992 86.8561 89.1213 89.1311Z" fill="url(#paint5_linear_1_2205)"/>
</g>
<rect x="7.5" y="7.5" width="155" height="155" rx="12.5" stroke="#D5EAF6" stroke-width="15"/>
</g>
<defs>
<linearGradient id="paint0_linear_1_2205" x1="85" y1="15" x2="85" y2="155" gradientUnits="userSpaceOnUse">
<stop stop-color="#199AE0"/>
<stop offset="0.472222" stop-color="#0D5176" stop-opacity="0.527778"/>
<stop offset="0.940972" stop-color="#12A6F7" stop-opacity="0.465278"/>
<stop offset="1" stop-opacity="0"/>
</linearGradient>
<linearGradient id="paint1_linear_1_2205" x1="43.7525" y1="43.7538" x2="126.248" y2="126.249" gradientUnits="userSpaceOnUse">
<stop stop-color="#889097"/>
<stop offset="1" stop-color="#64717C"/>
</linearGradient>
<radialGradient id="paint2_radial_1_2205" cx="0" cy="0" r="1" gradientUnits="userSpaceOnUse" gradientTransform="translate(85 85.0013) scale(53.9583)">
<stop/>
<stop offset="0.978" stop-opacity="0.022"/>
<stop offset="1" stop-opacity="0"/>
</radialGradient>
<radialGradient id="paint3_radial_1_2205" cx="0" cy="0" r="1" gradientUnits="userSpaceOnUse" gradientTransform="translate(84.6792 36.5671) scale(110.492)">
<stop stop-color="#FAFAFB"/>
<stop offset="1" stop-color="#C8CDD1"/>
</radialGradient>
<linearGradient id="paint4_linear_1_2205" x1="79.26" y1="41.2513" x2="90.74" y2="41.2513" gradientUnits="userSpaceOnUse">
<stop stop-color="#1D59B3"/>
<stop offset="1" stop-color="#195BBC"/>
</linearGradient>
<linearGradient id="paint5_linear_1_2205" x1="71.9113" y1="52.9037" x2="71.8683" y2="90.8187" gradientUnits="userSpaceOnUse">
<stop stop-color="#889097"/>
<stop offset="1" stop-color="#444D54"/>
</linearGradient>
</defs>
</svg>
