<svg width="170" height="170" viewBox="0 0 170 170" fill="none" xmlns="http://www.w3.org/2000/svg">
<g id="to-do">
<rect x="7.5" y="7.5" width="155" height="155" rx="12.5" fill="white"/>
<rect x="7.5" y="7.5" width="155" height="155" rx="12.5" fill="url(#paint0_linear_1_2257)" fill-opacity="0.2"/>
<path id="Vector" d="M140.417 55.8346H73.3333C71.7292 55.8346 70.4167 54.5221 70.4167 52.918V47.0846C70.4167 45.4805 71.7292 44.168 73.3333 44.168H140.417C142.021 44.168 143.333 45.4805 143.333 47.0846V52.918C143.333 54.5221 142.021 55.8346 140.417 55.8346Z" fill="url(#paint1_linear_1_2257)"/>
<path id="Vector_2" d="M34.7196 60.9185L24.4996 50.6985C23.5021 49.701 23.5021 48.0823 24.4996 47.0848L28.1133 43.471C29.1108 42.4735 30.7296 42.4735 31.7271 43.471L36.5279 48.2719L51.5517 33.2481C52.5492 32.2506 54.1679 32.2506 55.1654 33.2481L58.7792 36.8619C59.7767 37.8594 59.7767 39.4781 58.7792 40.4756L38.3333 60.9185C37.3358 61.919 35.7171 61.919 34.7196 60.9185Z" fill="#42A4EB"/>
<path id="Vector_3" d="M140.417 90.8346H73.3333C71.7292 90.8346 70.4167 89.5221 70.4167 87.918V82.0846C70.4167 80.4805 71.7292 79.168 73.3333 79.168H140.417C142.021 79.168 143.333 80.4805 143.333 82.0846V87.918C143.333 89.5221 142.021 90.8346 140.417 90.8346Z" fill="url(#paint2_linear_1_2257)"/>
<path id="Vector_4" d="M34.7196 95.9185L24.4996 85.6985C23.5021 84.701 23.5021 83.0823 24.4996 82.0848L28.1133 78.471C29.1108 77.4735 30.7296 77.4735 31.7271 78.471L36.5279 83.2719L51.5517 68.2481C52.5492 67.2506 54.1679 67.2506 55.1654 68.2481L58.7792 71.8619C59.7767 72.8594 59.7767 74.4781 58.7792 75.4756L38.3333 95.9185C37.3358 96.919 35.7171 96.919 34.7196 95.9185Z" fill="#42A4EB"/>
<path id="Vector_5" d="M140.417 125.835H73.3333C71.7292 125.835 70.4167 124.522 70.4167 122.918V117.085C70.4167 115.48 71.7292 114.168 73.3333 114.168H140.417C142.021 114.168 143.333 115.48 143.333 117.085V122.918C143.333 124.522 142.021 125.835 140.417 125.835Z" fill="url(#paint3_linear_1_2257)"/>
<path id="Vector_6" d="M34.7196 130.919L24.4996 120.699C23.5021 119.701 23.5021 118.082 24.4996 117.085L28.1133 113.471C29.1108 112.474 30.7296 112.474 31.7271 113.471L36.5279 118.272L51.5517 103.248C52.5492 102.251 54.1679 102.251 55.1654 103.248L58.7792 106.862C59.7767 107.859 59.7767 109.478 58.7792 110.476L38.3333 130.919C37.3358 131.919 35.7171 131.919 34.7196 130.919Z" fill="#42A4EB"/>
<rect x="7.5" y="7.5" width="155" height="155" rx="12.5" stroke="#D5EAF6" stroke-width="15"/>
</g>
<defs>
<linearGradient id="paint0_linear_1_2257" x1="85" y1="15" x2="85" y2="155" gradientUnits="userSpaceOnUse">
<stop stop-color="#199AE0"/>
<stop offset="0.472222" stop-color="#0D5176" stop-opacity="0.527778"/>
<stop offset="0.940972" stop-color="#12A6F7" stop-opacity="0.465278"/>
<stop offset="1" stop-opacity="0"/>
</linearGradient>
<linearGradient id="paint1_linear_1_2257" x1="85.6592" y1="28.7855" x2="126.236" y2="69.3621" gradientUnits="userSpaceOnUse">
<stop stop-color="#1D59B3"/>
<stop offset="1" stop-color="#195BBC"/>
</linearGradient>
<linearGradient id="paint2_linear_1_2257" x1="85.6592" y1="63.7855" x2="126.236" y2="104.362" gradientUnits="userSpaceOnUse">
<stop stop-color="#1D59B3"/>
<stop offset="1" stop-color="#195BBC"/>
</linearGradient>
<linearGradient id="paint3_linear_1_2257" x1="85.6592" y1="98.7855" x2="126.236" y2="139.362" gradientUnits="userSpaceOnUse">
<stop stop-color="#1D59B3"/>
<stop offset="1" stop-color="#195BBC"/>
</linearGradient>
</defs>
</svg>
