<svg width="170" height="170" viewBox="0 0 170 170" fill="none" xmlns="http://www.w3.org/2000/svg">
<g id="toggle-on">
<g clip-path="url(#clip0_1_2264)">
<rect x="15" y="15" width="140" height="140" rx="5" fill="white"/>
<rect x="15" y="15" width="140" height="140" rx="5" fill="url(#paint0_linear_1_2264)" fill-opacity="0.2"/>
<path id="Vector" d="M111.25 41.25C102.602 41.25 67.3979 41.25 58.75 41.25C34.5883 41.25 15 60.8383 15 85C15 109.162 34.5883 128.75 58.75 128.75C67.3979 128.75 102.602 128.75 111.25 128.75C135.412 128.75 155 109.162 155 85C155 60.8383 135.412 41.25 111.25 41.25Z" fill="#0078D4"/>
<path id="Vector_2" d="M111.25 125.835C133.802 125.835 152.083 107.553 152.083 85.0013C152.083 62.4497 133.802 44.168 111.25 44.168C88.6984 44.168 70.4167 62.4497 70.4167 85.0013C70.4167 107.553 88.6984 125.835 111.25 125.835Z" fill="url(#paint1_radial_1_2264)"/>
<path id="Vector_3" d="M111.25 120C130.58 120 146.25 104.33 146.25 85C146.25 65.67 130.58 50 111.25 50C91.92 50 76.25 65.67 76.25 85C76.25 104.33 91.92 120 111.25 120Z" fill="#F9F9F9"/>
</g>
<rect x="7.5" y="7.5" width="155" height="155" rx="12.5" stroke="#D5EAF6" stroke-width="15"/>
</g>
<defs>
<linearGradient id="paint0_linear_1_2264" x1="85" y1="15" x2="85" y2="155" gradientUnits="userSpaceOnUse">
<stop stop-color="#199AE0"/>
<stop offset="0.472222" stop-color="#0D5176" stop-opacity="0.527778"/>
<stop offset="0.940972" stop-color="#12A6F7" stop-opacity="0.465278"/>
<stop offset="1" stop-opacity="0"/>
</linearGradient>
<radialGradient id="paint1_radial_1_2264" cx="0" cy="0" r="1" gradientUnits="userSpaceOnUse" gradientTransform="translate(111.25 85.0013) scale(40.8333)">
<stop/>
<stop offset="1" stop-opacity="0"/>
</radialGradient>
<clipPath id="clip0_1_2264">
<rect x="15" y="15" width="140" height="140" rx="5" fill="white"/>
</clipPath>
</defs>
</svg>
