<svg width="170" height="170" viewBox="0 0 170 170" fill="none" xmlns="http://www.w3.org/2000/svg">
<g id="trash-can">
<rect x="7.5" y="7.5" width="155" height="155" rx="12.5" fill="white"/>
<rect x="7.5" y="7.5" width="155" height="155" rx="12.5" fill="url(#paint0_linear_1_2270)" fill-opacity="0.2"/>
<path id="Vector" d="M116.395 26.668H53.605C51.3942 26.668 49.3758 27.9163 48.3871 29.8938L44.1667 38.3346H125.833L121.613 29.8938C120.624 27.9163 118.603 26.668 116.395 26.668Z" fill="#35C1F1"/>
<path id="Vector_2" d="M125.833 38.332H44.1667C40.9437 38.332 38.3333 40.9424 38.3333 44.1654V47.082H131.667V44.1654C131.667 40.9424 129.056 38.332 125.833 38.332Z" fill="#50E6FF"/>
<path id="Vector_3" d="M127.292 47.082H42.7083L47.4537 134.897C47.62 137.992 50.1779 140.415 53.2783 140.415H116.722C119.822 140.415 122.38 137.992 122.546 134.897L127.292 47.082Z" fill="url(#paint1_linear_1_2270)"/>
<rect x="7.5" y="7.5" width="155" height="155" rx="12.5" stroke="#D5EAF6" stroke-width="15"/>
</g>
<defs>
<linearGradient id="paint0_linear_1_2270" x1="85" y1="15" x2="85" y2="155" gradientUnits="userSpaceOnUse">
<stop stop-color="#199AE0"/>
<stop offset="0.472222" stop-color="#0D5176" stop-opacity="0.527778"/>
<stop offset="0.940972" stop-color="#12A6F7" stop-opacity="0.465278"/>
<stop offset="1" stop-opacity="0"/>
</linearGradient>
<linearGradient id="paint1_linear_1_2270" x1="62.5796" y1="39.4812" x2="106.542" y2="131.727" gradientUnits="userSpaceOnUse">
<stop stop-color="#2AA4F4"/>
<stop offset="1" stop-color="#007AD9"/>
</linearGradient>
</defs>
</svg>
