<svg width="170" height="170" viewBox="0 0 170 170" fill="none" xmlns="http://www.w3.org/2000/svg">
<g id="twitter">
<rect x="7.5" y="7.5" width="155" height="155" rx="12.5" fill="white"/>
<rect x="7.5" y="7.5" width="155" height="155" rx="12.5" fill="url(#paint0_linear_1_2287)" fill-opacity="0.2"/>
<path id="Vector" d="M149.473 47.143C144.949 49.1467 140.084 50.4826 134.951 51.1155C140.169 48.018 144.185 43.0771 146.069 37.238C141.187 40.0992 135.776 42.2021 130.022 43.3105C125.425 38.4396 118.868 35.418 111.606 35.418C97.6554 35.418 86.3446 46.6267 86.3446 60.4488C86.3446 62.4059 86.575 64.3105 87.0038 66.1596C66.0154 65.1067 47.3983 55.1288 34.9442 39.9855C32.7567 43.6867 31.5258 48.018 31.5258 52.5913C31.5258 61.2801 35.9737 68.9305 42.7579 73.4367C38.6162 73.3113 34.7196 72.1592 31.3071 70.3101C31.3071 70.3859 31.3071 70.4967 31.3071 70.6046C31.3071 82.7467 40.0162 92.8588 51.5604 95.1601C49.4517 95.7376 47.2204 96.0584 44.9221 96.0584C43.2917 96.0584 41.7021 95.8746 40.1621 95.5976C43.3762 105.52 52.7008 112.774 63.7492 112.99C55.1042 119.692 44.2162 123.705 32.3775 123.705C30.3329 123.705 28.3321 123.589 26.3546 123.35C37.5458 130.434 50.8254 134.585 65.0821 134.585C111.536 134.585 136.952 96.4376 136.952 63.3421C136.952 62.2571 136.917 61.178 136.867 60.1105C141.825 56.6076 146.098 52.1917 149.473 47.143Z" fill="url(#paint1_linear_1_2287)"/>
<rect x="7.5" y="7.5" width="155" height="155" rx="12.5" stroke="#D5EAF6" stroke-width="15"/>
</g>
<defs>
<linearGradient id="paint0_linear_1_2287" x1="85" y1="15" x2="85" y2="155" gradientUnits="userSpaceOnUse">
<stop stop-color="#199AE0"/>
<stop offset="0.472222" stop-color="#0D5176" stop-opacity="0.527778"/>
<stop offset="0.940972" stop-color="#12A6F7" stop-opacity="0.465278"/>
<stop offset="1" stop-opacity="0"/>
</linearGradient>
<linearGradient id="paint1_linear_1_2287" x1="45.1612" y1="39.2446" x2="133.994" y2="128.078" gradientUnits="userSpaceOnUse">
<stop stop-color="#2AA4F4"/>
<stop offset="1" stop-color="#007AD9"/>
</linearGradient>
</defs>
</svg>
