<svg width="170" height="170" viewBox="0 0 170 170" fill="none" xmlns="http://www.w3.org/2000/svg">
<g id="twitter-squared">
<rect x="7.5" y="7.5" width="155" height="155" rx="12.5" fill="white"/>
<rect x="7.5" y="7.5" width="155" height="155" rx="12.5" fill="url(#paint0_linear_1_2289)" fill-opacity="0.2"/>
<path id="Vector" d="M137.5 131.667C137.5 134.89 134.89 137.5 131.667 137.5H38.3333C35.1104 137.5 32.5 134.89 32.5 131.667V38.3333C32.5 35.1104 35.1104 32.5 38.3333 32.5H131.667C134.89 32.5 137.5 35.1104 137.5 38.3333V131.667Z" fill="url(#paint1_linear_1_2289)"/>
<path id="Vector_2" opacity="0.05" d="M73.3333 117.083C63.8833 117.083 54.8096 114.767 48.4396 110.731L47.4567 110.109L49.1833 105.236L50.3383 105.37C50.7729 105.422 51.1142 105.431 51.4612 105.431L52.9021 105.416C55.81 105.416 60.0537 104.95 64.1196 103.733C60.0479 102.345 54.8854 99.6472 53.2696 94.6481L52.0329 90.8331H55.0283C51.8229 87.9077 50 83.8389 50 79.3327V74.6077L51.7762 75.4272C50.6242 73.196 50.0146 70.9443 50.0146 68.8297C50.0146 65.7702 50.8254 62.7777 52.3654 60.1789L54.4917 56.5972L57.1342 59.8114C62.9587 66.9018 72.4292 74.6747 82.0833 76.0368V73.3331C82.0833 63.5214 89.2817 55.8331 98.4663 55.8331C102.973 55.8331 106.875 57.1222 109.806 59.5693C112.837 58.8081 116.538 57.4022 118.524 56.2327L125.127 52.3477L122.774 59.6393C122.663 59.9893 122.523 60.3393 122.354 60.6952L128.009 58.1897L121.715 67.6193C120.405 69.6114 119.163 71.5043 117.063 73.2747C117.077 74.0302 117.083 74.8235 117.083 75.1706C117.083 95.4881 101.75 117.083 73.3333 117.083Z" fill="black"/>
<path id="Vector_3" opacity="0.07" d="M73.3333 115.625C64.1546 115.625 55.3638 113.391 49.2183 109.497L50.1663 106.817C50.6679 106.875 51.0588 106.89 51.4554 106.89L52.9167 106.875C57.6213 106.875 63.9971 105.799 68.8854 103.483C62.9763 102.384 56.3263 99.3562 54.6579 94.1966L54.0396 92.292H56.0463C57.4346 92.292 58.54 92.2191 59.4442 92.1024C54.4771 89.6087 51.4613 84.9449 51.4613 79.3333V76.8891L53.6108 77.8837C54.2379 78.222 55.0721 78.6099 55.9821 78.9862C53.4154 76.0404 51.4758 72.4091 51.4758 68.8333C51.4758 66.0362 52.2196 63.3004 53.6225 60.9262L54.6842 59.1354L56.0054 60.7424C62.4483 68.5854 72.9338 76.9416 83.5388 77.6591V73.3337C83.5388 64.3387 90.0954 57.292 98.4633 57.292C102.923 57.292 106.685 58.6279 109.404 61.1654C112.682 60.4304 116.943 58.8554 119.259 57.4933L122.561 55.5508L121.385 59.1966C120.828 60.9291 119.478 62.6733 117.894 64.2308C118.402 64.0324 118.909 63.8224 119.411 63.6008L124.01 61.562L120.505 66.8149C119.096 68.9616 117.862 70.8399 115.596 72.5929C115.613 73.4766 115.625 74.7133 115.625 75.1683C115.625 94.7829 100.803 115.625 73.3333 115.625Z" fill="black"/>
<path id="Vector_4" d="M120 58.75C117.226 60.3804 112.21 62.1217 108.937 62.7517C106.324 59.9808 102.596 58.75 98.4663 58.75C90.5329 58.75 85 65.4729 85 73.3333V79.1667C73.3333 79.1667 61.9583 70.2796 54.8796 61.6667C53.6342 63.7696 52.9342 66.2313 52.9342 68.8329C52.9342 74.1383 57.8079 79.5225 61.6667 82.0833C59.3129 82.0104 54.8563 80.2138 52.9167 79.1667V79.3329C52.9167 86.2367 57.7613 90.9238 64.3267 92.2304C63.1279 92.56 61.6667 93.75 56.0433 93.75C57.8692 99.3938 67.0479 102.378 73.3333 102.5C68.4158 106.312 59.6483 108.333 52.9167 108.333C51.7529 108.333 51.1229 108.397 50 108.266C56.3525 112.291 65.225 114.167 73.3333 114.167C99.7496 114.167 114.167 93.9892 114.167 75.1708C114.167 74.5525 114.146 72.4817 114.114 71.875C116.937 69.8858 118.081 67.8033 120 64.9333C117.428 66.0738 114.17 67.1442 111.25 67.5C114.219 65.7383 118.93 62.0692 120 58.75Z" fill="white"/>
<rect x="7.5" y="7.5" width="155" height="155" rx="12.5" stroke="#D5EAF6" stroke-width="15"/>
</g>
<defs>
<linearGradient id="paint0_linear_1_2289" x1="85" y1="15" x2="85" y2="155" gradientUnits="userSpaceOnUse">
<stop stop-color="#199AE0"/>
<stop offset="0.472222" stop-color="#0D5176" stop-opacity="0.527778"/>
<stop offset="0.940972" stop-color="#12A6F7" stop-opacity="0.465278"/>
<stop offset="1" stop-opacity="0"/>
</linearGradient>
<linearGradient id="paint1_linear_1_2289" x1="34.9413" y1="35.8863" x2="133.612" y2="132.693" gradientUnits="userSpaceOnUse">
<stop stop-color="#2AA4F4"/>
<stop offset="1" stop-color="#007AD9"/>
</linearGradient>
</defs>
</svg>
