<svg width="170" height="170" viewBox="0 0 170 170" fill="none" xmlns="http://www.w3.org/2000/svg">
<g id="unknown-results">
<rect x="7.5" y="7.5" width="155" height="155" rx="12.5" fill="white"/>
<rect x="7.5" y="7.5" width="155" height="155" rx="12.5" fill="url(#paint0_linear_1_2311)" fill-opacity="0.2"/>
<path id="Vector" d="M119.95 109.641L109.637 119.954L132.591 142.908C133.16 143.477 134.085 143.477 134.653 142.908L142.902 134.66C143.47 134.091 143.47 133.166 142.902 132.598L119.95 109.641Z" fill="#199BE2"/>
<path id="Vector_2" d="M107.17 96.8555L96.8563 107.169L109.64 119.95L119.95 109.639L107.17 96.8555Z" fill="url(#paint1_radial_1_2311)"/>
<path id="Vector_3" d="M73.3333 120.001C99.1066 120.001 120 99.1079 120 73.3346C120 47.5613 99.1066 26.668 73.3333 26.668C47.56 26.668 26.6667 47.5613 26.6667 73.3346C26.6667 99.1079 47.56 120.001 73.3333 120.001Z" fill="url(#paint2_linear_1_2311)"/>
<path id="Vector_4" d="M54.375 70.4154C58.4021 70.4154 61.6667 67.1508 61.6667 63.1237C61.6667 59.0966 58.4021 55.832 54.375 55.832C50.3479 55.832 47.0833 59.0966 47.0833 63.1237C47.0833 67.1508 50.3479 70.4154 54.375 70.4154Z" fill="#1B9DE2"/>
<path id="Vector_5" d="M92.2917 70.4154C96.3187 70.4154 99.5833 67.1508 99.5833 63.1237C99.5833 59.0966 96.3187 55.832 92.2917 55.832C88.2646 55.832 85 59.0966 85 63.1237C85 67.1508 88.2646 70.4154 92.2917 70.4154Z" fill="#1B9DE2"/>
<path id="Vector_6" d="M87.9167 93.7513H58.75C57.14 93.7513 55.8333 92.4446 55.8333 90.8346C55.8333 89.2246 57.14 87.918 58.75 87.918H87.9167C89.5267 87.918 90.8333 89.2246 90.8333 90.8346C90.8333 92.4446 89.5267 93.7513 87.9167 93.7513Z" fill="#1B9DE2"/>
<rect x="7.5" y="7.5" width="155" height="155" rx="12.5" stroke="#D5EAF6" stroke-width="15"/>
</g>
<defs>
<linearGradient id="paint0_linear_1_2311" x1="85" y1="15" x2="85" y2="155" gradientUnits="userSpaceOnUse">
<stop stop-color="#199AE0"/>
<stop offset="0.472222" stop-color="#0D5176" stop-opacity="0.527778"/>
<stop offset="0.940972" stop-color="#12A6F7" stop-opacity="0.465278"/>
<stop offset="1" stop-opacity="0"/>
</linearGradient>
<radialGradient id="paint1_radial_1_2311" cx="0" cy="0" r="1" gradientUnits="userSpaceOnUse" gradientTransform="translate(73.4033 73.6125) scale(57.1783)">
<stop offset="0.693" stop-color="#006185"/>
<stop offset="0.921" stop-color="#35C1F1"/>
</radialGradient>
<linearGradient id="paint2_linear_1_2311" x1="40.9904" y1="40.9917" x2="106.405" y2="106.407" gradientUnits="userSpaceOnUse">
<stop stop-color="#A3FFFF"/>
<stop offset="0.223" stop-color="#9DFBFF"/>
<stop offset="0.53" stop-color="#8BF1FF"/>
<stop offset="0.885" stop-color="#6EE0FF"/>
<stop offset="1" stop-color="#63DAFF"/>
</linearGradient>
</defs>
</svg>
