<svg width="170" height="170" viewBox="0 0 170 170" fill="none" xmlns="http://www.w3.org/2000/svg">
<g id="unpin">
<rect x="7.5" y="7.5" width="155" height="155" rx="12.5" fill="white"/>
<rect x="7.5" y="7.5" width="155" height="155" rx="12.5" fill="url(#paint0_linear_1_2318)" fill-opacity="0.2"/>
<path id="Vector" d="M41.5417 136.043L31.9167 138.085L33.9583 128.46C33.9583 127.876 34.25 127.293 34.8333 127.001L68.6667 93.168L76.8333 101.335L43 135.168C42.7083 135.46 42.125 135.751 41.5417 136.043Z" fill="#50E6FF"/>
<path id="Vector_2" d="M100.167 98.707L71.2917 69.832L115.042 35.707L134.292 54.957L100.167 98.707Z" fill="#6D75CF"/>
<path id="Vector_3" d="M65.6825 96.0009L61.3515 100.332L69.6013 108.581L73.9322 104.25L65.6825 96.0009Z" fill="#35C1F1"/>
<path id="Vector_4" d="M94.625 124.957L45.0417 75.3737L50.5833 69.832C57.2917 63.1237 68.375 63.1237 75.375 69.832L100.167 94.6237C106.875 101.332 106.875 112.415 100.167 119.415L94.625 124.957Z" fill="#353C9F"/>
<path id="Vector_5" d="M125.542 63.7096L106.292 44.4596C103.958 42.1263 103.958 38.043 106.292 35.7096L108.333 33.668C110.667 31.3346 114.75 31.3346 117.083 33.668L136.333 52.918C138.667 55.2513 138.667 59.3346 136.333 61.668L134.292 63.7096C131.958 66.043 127.875 66.043 125.542 63.7096Z" fill="url(#paint1_linear_1_2318)"/>
<path id="Vector_6" d="M145.958 139.543L30.4583 24.043C29.875 23.7513 29.2917 23.7513 28.7083 24.043L24.0417 28.7096C23.75 29.293 23.75 29.8763 24.0417 30.4596L139.542 145.96C139.833 146.251 140.708 146.251 141 145.96L145.667 141.293C146.25 140.71 146.25 140.126 145.958 139.543Z" fill="#E52030"/>
<rect x="7.5" y="7.5" width="155" height="155" rx="12.5" stroke="#D5EAF6" stroke-width="15"/>
</g>
<defs>
<linearGradient id="paint0_linear_1_2318" x1="85" y1="15" x2="85" y2="155" gradientUnits="userSpaceOnUse">
<stop stop-color="#199AE0"/>
<stop offset="0.472222" stop-color="#0D5176" stop-opacity="0.527778"/>
<stop offset="0.940972" stop-color="#12A6F7" stop-opacity="0.465278"/>
<stop offset="1" stop-opacity="0"/>
</linearGradient>
<linearGradient id="paint1_linear_1_2318" x1="104.527" y1="48.6713" x2="138.136" y2="48.6713" gradientUnits="userSpaceOnUse">
<stop stop-color="#464EB0"/>
<stop offset="1" stop-color="#343B9E"/>
</linearGradient>
</defs>
</svg>
