<svg width="170" height="170" viewBox="0 0 170 170" fill="none" xmlns="http://www.w3.org/2000/svg">
<g id="upload-to-ftp">
<rect x="7.5" y="7.5" width="155" height="155" rx="12.5" fill="white"/>
<rect x="7.5" y="7.5" width="155" height="155" rx="12.5" fill="url(#paint0_linear_1_2330)" fill-opacity="0.2"/>
<path id="Vector" d="M80.3742 45.3755L72.9775 37.9788C71.3383 36.3396 69.1129 35.418 66.7913 35.418H29.5833C26.3604 35.418 23.75 38.0284 23.75 41.2513V64.0013L29.5833 128.751H140.417V52.918L89.6054 47.0846H84.5013C82.9525 47.0846 81.4679 46.4692 80.3742 45.3755Z" fill="url(#paint1_linear_1_2330)"/>
<path id="Vector_2" d="M75.0425 57.0395L84.5742 47.5079C84.8454 47.2366 85.2158 47.082 85.6038 47.082H97.5708L146.25 94.8774V128.749C146.25 131.972 143.64 134.582 140.417 134.582H29.5833C26.3604 134.582 23.75 131.972 23.75 128.749V60.207C23.75 59.402 24.4033 58.7487 25.2083 58.7487H70.9183C72.4642 58.7487 73.9488 58.1333 75.0425 57.0395Z" fill="url(#paint2_linear_1_2330)"/>
<path id="Vector_3" opacity="0.05" d="M110.025 113.642C109.092 115.8 107.05 117.112 104.687 117.112H96.6667V134.583H73.3333V117.112H65.3125C62.95 117.112 60.9083 115.8 59.975 113.642C59.0125 111.512 59.3917 109.121 60.9667 107.371L78.4958 87.8875C80.1583 86.05 82.5208 85 85 85C87.4792 85 89.8417 86.05 91.5042 87.8875L109.033 107.371C110.608 109.121 110.988 111.512 110.025 113.642Z" fill="black"/>
<path id="Vector_4" opacity="0.07" d="M108.683 113.057C107.983 114.661 106.467 115.653 104.688 115.653H95.2083V134.582H74.7917V115.653H65.3125C63.5333 115.653 62.0167 114.661 61.3167 113.057C60.5875 111.453 60.8792 109.645 62.0458 108.361L79.575 88.8779C80.975 87.332 82.9292 86.457 85 86.457C87.0708 86.457 89.025 87.332 90.425 88.8779L107.954 108.361C109.121 109.645 109.412 111.453 108.683 113.057Z" fill="black"/>
<path id="Vector_5" d="M65.2979 114.194H76.25V143.361C76.25 144.971 77.5567 146.277 79.1667 146.277H90.8333C92.4433 146.277 93.75 144.971 93.75 143.361V114.194H104.702C107.228 114.194 108.558 111.204 106.869 109.326L89.3371 89.8456C87.0213 87.2702 82.9817 87.2702 80.6658 89.8456L63.1338 109.326C61.4421 111.204 62.775 114.194 65.2979 114.194Z" fill="url(#paint3_linear_1_2330)"/>
<path id="Vector_6" opacity="0.05" d="M146.25 82.0529V102.411C145.258 102.47 144.296 102.499 143.333 102.499C129.392 102.499 116.208 97.0154 106.233 87.0987C95.675 76.482 90.1042 61.9279 90.9208 47.082H111.279V47.1987C110.958 56.0362 114.167 64.7862 120.087 71.2029C126.417 78.1154 135.429 82.082 144.792 82.082C145.258 82.082 145.667 82.082 146.075 82.0529H146.25Z" fill="black"/>
<path id="Vector_7" opacity="0.07" d="M146.25 83.5112V100.953C145.258 101.011 144.296 101.04 143.333 101.04C129.771 101.04 116.967 95.732 107.283 86.0487C96.9875 75.7529 91.5625 61.5487 92.3792 47.082H109.821V47.1404C109.471 56.357 112.825 65.4862 119.008 72.1945C125.629 79.3987 135.021 83.5404 144.792 83.5404H144.879C145.287 83.5404 145.725 83.5404 146.162 83.5112H146.25Z" fill="black"/>
<path id="Vector_8" d="M108.304 85.0279C98.685 75.3766 92.98 61.8812 93.8346 47.082H108.362C108.012 56.6779 111.425 66.1279 117.929 73.1862C124.813 80.682 134.612 84.9987 144.792 84.9987C145.258 84.9987 145.754 84.9987 146.25 84.9695V99.4974C131.451 100.352 117.955 94.647 108.304 85.0279Z" fill="url(#paint4_linear_1_2330)"/>
<path id="Vector_9" d="M105.417 48.5404C105.417 48.0445 105.417 47.5487 105.446 47.082H120.058C119.679 53.7904 122.012 60.382 126.504 65.3112C131.2 70.4154 137.85 73.332 144.792 73.332C145.287 73.332 145.754 73.332 146.25 73.2737V87.8862C145.783 87.9154 145.287 87.9154 144.792 87.9154C123.092 87.9154 105.417 70.2404 105.417 48.5404Z" fill="#A238C2"/>
<path id="Vector_10" d="M117.083 48.5404C117.083 48.0445 117.083 47.5779 117.113 47.082H131.929C132.513 50.757 134.263 54.0237 136.8 56.532C139.308 59.0695 142.575 60.8195 146.25 61.4029V76.2195C145.754 76.2487 145.288 76.2487 144.792 76.2487C129.508 76.2487 117.083 63.8237 117.083 48.5404Z" fill="#BA54D9"/>
<path id="Vector_11" d="M128.811 47.1054C128.82 47.0966 128.826 47.0908 128.837 47.082H140.417C143.64 47.082 146.25 49.6866 146.25 52.9095V64.4129C146.238 64.5179 146.238 64.5179 146.227 64.5208C136.231 65.387 127.945 57.1037 128.811 47.1054Z" fill="#C767E5"/>
<rect x="7.5" y="7.5" width="155" height="155" rx="12.5" stroke="#D5EAF6" stroke-width="15"/>
</g>
<defs>
<linearGradient id="paint0_linear_1_2330" x1="85" y1="15" x2="85" y2="155" gradientUnits="userSpaceOnUse">
<stop stop-color="#199AE0"/>
<stop offset="0.472222" stop-color="#0D5176" stop-opacity="0.527778"/>
<stop offset="0.940972" stop-color="#12A6F7" stop-opacity="0.465278"/>
<stop offset="1" stop-opacity="0"/>
</linearGradient>
<linearGradient id="paint1_linear_1_2330" x1="82.0833" y1="34.6159" x2="82.0833" y2="57.3163" gradientUnits="userSpaceOnUse">
<stop stop-color="#EBA600"/>
<stop offset="1" stop-color="#C28200"/>
</linearGradient>
<linearGradient id="paint2_linear_1_2330" x1="85" y1="46.6562" x2="85" y2="134.532" gradientUnits="userSpaceOnUse">
<stop stop-color="#FFD869"/>
<stop offset="1" stop-color="#FEC52B"/>
</linearGradient>
<linearGradient id="paint3_linear_1_2330" x1="102.252" y1="145.866" x2="71.4929" y2="90.5544" gradientUnits="userSpaceOnUse">
<stop stop-color="#007AD9"/>
<stop offset="1" stop-color="#2AA4F4"/>
</linearGradient>
<linearGradient id="paint4_linear_1_2330" x1="93.75" y1="73.332" x2="146.25" y2="73.332" gradientUnits="userSpaceOnUse">
<stop stop-color="#7819A2"/>
<stop offset="1" stop-color="#771AA9"/>
</linearGradient>
</defs>
</svg>
