<svg width="170" height="170" viewBox="0 0 170 170" fill="none" xmlns="http://www.w3.org/2000/svg">
<g id="upload">
<rect x="7.5" y="7.5" width="155" height="155" rx="12.5" fill="white"/>
<rect x="7.5" y="7.5" width="155" height="155" rx="12.5" fill="url(#paint0_linear_1_2325)" fill-opacity="0.2"/>
<path id="Vector" d="M107.718 87.2997L88.0946 67.6764C86.3854 65.9672 83.6146 65.9672 81.9083 67.6764L62.285 87.2997C60.9783 88.6035 61.9029 90.8318 63.7462 90.8318H76.25V137.498C76.25 139.108 77.5567 140.415 79.1667 140.415H90.8333C92.4433 140.415 93.75 139.108 93.75 137.498V90.8318H106.254C108.097 90.8318 109.022 88.6035 107.718 87.2997Z" fill="url(#paint1_linear_1_2325)"/>
<path id="Vector_2" d="M142.832 43.6637L128.75 29.582V58.7487C128.75 60.3587 130.057 61.6654 131.667 61.6654H143.333C144.943 61.6654 146.25 60.3587 146.25 58.7487V51.9149C146.25 48.8204 145.022 45.8541 142.832 43.6637Z" fill="url(#paint2_linear_1_2325)"/>
<path id="Vector_3" d="M41.25 29.582L27.1683 43.6637C24.9779 45.8541 23.75 48.8204 23.75 51.9149V58.7487C23.75 60.3587 25.0567 61.6654 26.6667 61.6654H38.3333C39.9433 61.6654 41.25 60.3587 41.25 58.7487V29.582Z" fill="url(#paint3_linear_1_2325)"/>
<path id="Vector_4" d="M128.75 29.582H41.25V47.082H128.75V29.582Z" fill="url(#paint4_linear_1_2325)"/>
<rect x="7.5" y="7.5" width="155" height="155" rx="12.5" stroke="#D5EAF6" stroke-width="15"/>
</g>
<defs>
<linearGradient id="paint0_linear_1_2325" x1="85" y1="15" x2="85" y2="155" gradientUnits="userSpaceOnUse">
<stop stop-color="#199AE0"/>
<stop offset="0.472222" stop-color="#0D5176" stop-opacity="0.527778"/>
<stop offset="0.940972" stop-color="#12A6F7" stop-opacity="0.465278"/>
<stop offset="1" stop-opacity="0"/>
</linearGradient>
<linearGradient id="paint1_linear_1_2325" x1="79.9104" y1="68.2831" x2="98.2563" y2="142.057" gradientUnits="userSpaceOnUse">
<stop stop-color="#32BDEF"/>
<stop offset="1" stop-color="#1EA2E4"/>
</linearGradient>
<linearGradient id="paint2_linear_1_2325" x1="137.5" y1="28.1616" x2="137.5" y2="62.4879" gradientUnits="userSpaceOnUse">
<stop stop-color="#32BDEF"/>
<stop offset="1" stop-color="#1EA2E4"/>
</linearGradient>
<linearGradient id="paint3_linear_1_2325" x1="32.5" y1="28.1616" x2="32.5" y2="62.4879" gradientUnits="userSpaceOnUse">
<stop stop-color="#32BDEF"/>
<stop offset="1" stop-color="#1EA2E4"/>
</linearGradient>
<linearGradient id="paint4_linear_1_2325" x1="41.25" y1="38.332" x2="128.75" y2="38.332" gradientUnits="userSpaceOnUse">
<stop stop-color="#0362B0"/>
<stop offset="0.112" stop-color="#036ABD"/>
<stop offset="0.258" stop-color="#036FC5"/>
<stop offset="0.5" stop-color="#0370C8"/>
<stop offset="0.742" stop-color="#036FC5"/>
<stop offset="0.888" stop-color="#036ABD"/>
<stop offset="1" stop-color="#0362B0"/>
</linearGradient>
</defs>
</svg>
