<svg width="170" height="170" viewBox="0 0 170 170" fill="none" xmlns="http://www.w3.org/2000/svg">
<g id="usa">
<rect x="7.5" y="7.5" width="155" height="155" rx="12.5" fill="white"/>
<rect x="7.5" y="7.5" width="155" height="155" rx="12.5" fill="url(#paint0_linear_1_2342)" fill-opacity="0.2"/>
<path id="Vector" d="M143.333 85.0013C143.333 117.216 117.215 143.335 85 143.335C52.7854 143.335 26.6667 117.216 26.6667 85.0013C26.6667 52.7867 52.7854 26.668 85 26.668C117.215 26.668 143.333 52.7867 143.333 85.0013Z" fill="url(#paint1_linear_1_2342)"/>
<path id="Vector_2" d="M85 26.668C52.7854 26.668 26.6667 52.7867 26.6667 85.0013H85V26.668Z" fill="url(#paint2_linear_1_2342)"/>
<path id="Vector_3" d="M76.25 79.1654C77.8608 79.1654 79.1667 77.8595 79.1667 76.2487C79.1667 74.6379 77.8608 73.332 76.25 73.332C74.6392 73.332 73.3333 74.6379 73.3333 76.2487C73.3333 77.8595 74.6392 79.1654 76.25 79.1654Z" fill="#99F0FF"/>
<path id="Vector_4" d="M64.5833 79.1654C66.1942 79.1654 67.5 77.8595 67.5 76.2487C67.5 74.6379 66.1942 73.332 64.5833 73.332C62.9725 73.332 61.6667 74.6379 61.6667 76.2487C61.6667 77.8595 62.9725 79.1654 64.5833 79.1654Z" fill="#99F0FF"/>
<path id="Vector_5" d="M52.9167 79.1654C54.5275 79.1654 55.8333 77.8595 55.8333 76.2487C55.8333 74.6379 54.5275 73.332 52.9167 73.332C51.3058 73.332 50 74.6379 50 76.2487C50 77.8595 51.3058 79.1654 52.9167 79.1654Z" fill="#99F0FF"/>
<path id="Vector_6" d="M41.25 79.1654C42.8608 79.1654 44.1667 77.8595 44.1667 76.2487C44.1667 74.6379 42.8608 73.332 41.25 73.332C39.6392 73.332 38.3333 74.6379 38.3333 76.2487C38.3333 77.8595 39.6392 79.1654 41.25 79.1654Z" fill="#99F0FF"/>
<path id="Vector_7" d="M70.4167 67.5013C72.0275 67.5013 73.3333 66.1955 73.3333 64.5846C73.3333 62.9738 72.0275 61.668 70.4167 61.668C68.8058 61.668 67.5 62.9738 67.5 64.5846C67.5 66.1955 68.8058 67.5013 70.4167 67.5013Z" fill="#99F0FF"/>
<path id="Vector_8" d="M58.75 67.5013C60.3608 67.5013 61.6667 66.1955 61.6667 64.5846C61.6667 62.9738 60.3608 61.668 58.75 61.668C57.1392 61.668 55.8333 62.9738 55.8333 64.5846C55.8333 66.1955 57.1392 67.5013 58.75 67.5013Z" fill="#99F0FF"/>
<path id="Vector_9" d="M47.0833 67.5013C48.6942 67.5013 50 66.1955 50 64.5846C50 62.9738 48.6942 61.668 47.0833 61.668C45.4725 61.668 44.1667 62.9738 44.1667 64.5846C44.1667 66.1955 45.4725 67.5013 47.0833 67.5013Z" fill="#99F0FF"/>
<path id="Vector_10" d="M35.4167 67.5013C37.0275 67.5013 38.3333 66.1955 38.3333 64.5846C38.3333 62.9738 37.0275 61.668 35.4167 61.668C33.8058 61.668 32.5 62.9738 32.5 64.5846C32.5 66.1955 33.8058 67.5013 35.4167 67.5013Z" fill="#99F0FF"/>
<path id="Vector_11" d="M76.25 55.8333C77.8608 55.8333 79.1667 54.5275 79.1667 52.9167C79.1667 51.3058 77.8608 50 76.25 50C74.6392 50 73.3333 51.3058 73.3333 52.9167C73.3333 54.5275 74.6392 55.8333 76.25 55.8333Z" fill="#99F0FF"/>
<path id="Vector_12" d="M64.5833 55.8333C66.1942 55.8333 67.5 54.5275 67.5 52.9167C67.5 51.3058 66.1942 50 64.5833 50C62.9725 50 61.6667 51.3058 61.6667 52.9167C61.6667 54.5275 62.9725 55.8333 64.5833 55.8333Z" fill="#99F0FF"/>
<path id="Vector_13" d="M52.9167 55.8333C54.5275 55.8333 55.8333 54.5275 55.8333 52.9167C55.8333 51.3058 54.5275 50 52.9167 50C51.3058 50 50 51.3058 50 52.9167C50 54.5275 51.3058 55.8333 52.9167 55.8333Z" fill="#99F0FF"/>
<path id="Vector_14" d="M76.25 32.5013C77.8608 32.5013 79.1667 31.1955 79.1667 29.5846C79.1667 27.9738 77.8608 26.668 76.25 26.668C74.6392 26.668 73.3333 27.9738 73.3333 29.5846C73.3333 31.1955 74.6392 32.5013 76.25 32.5013Z" fill="#99F0FF"/>
<path id="Vector_15" d="M64.5833 32.5016C66.1933 32.5016 67.5 31.1949 67.5 29.5849C67.5 29.5062 67.4621 29.442 67.4563 29.3633C65.6888 29.9204 63.9563 30.5504 62.2646 31.2679C62.7954 31.997 63.6121 32.5016 64.5833 32.5016Z" fill="#99F0FF"/>
<path id="Vector_16" d="M41.25 55.8333C42.8608 55.8333 44.1667 54.5275 44.1667 52.9167C44.1667 51.3058 42.8608 50 41.25 50C39.6392 50 38.3333 51.3058 38.3333 52.9167C38.3333 54.5275 39.6392 55.8333 41.25 55.8333Z" fill="#99F0FF"/>
<path id="Vector_17" d="M70.4167 44.1654C72.0275 44.1654 73.3333 42.8595 73.3333 41.2487C73.3333 39.6379 72.0275 38.332 70.4167 38.332C68.8058 38.332 67.5 39.6379 67.5 41.2487C67.5 42.8595 68.8058 44.1654 70.4167 44.1654Z" fill="#99F0FF"/>
<path id="Vector_18" d="M58.75 44.1654C60.3608 44.1654 61.6667 42.8595 61.6667 41.2487C61.6667 39.6379 60.3608 38.332 58.75 38.332C57.1392 38.332 55.8333 39.6379 55.8333 41.2487C55.8333 42.8595 57.1392 44.1654 58.75 44.1654Z" fill="#99F0FF"/>
<path id="Vector_19" d="M47.0833 44.1679C48.6933 44.1679 50 42.8613 50 41.2513C50 40.4054 49.6267 39.6588 49.0521 39.125C47.5471 40.3063 46.1033 41.5517 44.7237 42.8729C45.2487 43.6371 46.0858 44.1679 47.0833 44.1679Z" fill="#99F0FF"/>
<path id="Vector_20" d="M29.5833 79.1654C31.1933 79.1654 32.5 77.8587 32.5 76.2487C32.5 74.6387 31.1933 73.332 29.5833 73.332C28.8688 73.332 28.2358 73.6179 27.7283 74.0466C27.495 75.2745 27.3142 76.5229 27.1596 77.777C27.6758 78.5908 28.545 79.1654 29.5833 79.1654Z" fill="#99F0FF"/>
<path id="Vector_21" d="M143.333 85.0013H85V73.3346H142.161C142.928 77.1059 143.333 81.0055 143.333 85.0013ZM50.1079 131.668H119.892C124.322 128.349 128.257 124.426 131.585 120.001H38.415C41.7429 124.426 45.6775 128.349 50.1079 131.668ZM85 26.668V38.3346H119.892C110.153 31.0401 98.1017 26.668 85 26.668ZM131.585 50.0013H85V61.668H138.445C136.619 57.4913 134.295 53.5976 131.585 50.0013ZM31.555 108.335H138.448C140.07 104.628 141.338 100.731 142.164 96.668H27.8392C28.6646 100.731 29.9333 104.628 31.555 108.335Z" fill="url(#paint3_linear_1_2342)"/>
<rect x="7.5" y="7.5" width="155" height="155" rx="12.5" stroke="#D5EAF6" stroke-width="15"/>
</g>
<defs>
<linearGradient id="paint0_linear_1_2342" x1="85" y1="15" x2="85" y2="155" gradientUnits="userSpaceOnUse">
<stop stop-color="#199AE0"/>
<stop offset="0.472222" stop-color="#0D5176" stop-opacity="0.527778"/>
<stop offset="0.940972" stop-color="#12A6F7" stop-opacity="0.465278"/>
<stop offset="1" stop-opacity="0"/>
</linearGradient>
<linearGradient id="paint1_linear_1_2342" x1="45.2662" y1="45.2676" x2="127.516" y2="127.518" gradientUnits="userSpaceOnUse">
<stop stop-color="#DFE9F2"/>
<stop offset="0.998" stop-color="#9EA7B0"/>
</linearGradient>
<linearGradient id="paint2_linear_1_2342" x1="43.4112" y1="43.4126" x2="125.62" y2="125.622" gradientUnits="userSpaceOnUse">
<stop stop-color="#0D61A9"/>
<stop offset="1" stop-color="#16528C"/>
</linearGradient>
<linearGradient id="paint3_linear_1_2342" x1="43.2946" y1="43.7042" x2="127.875" y2="128.285" gradientUnits="userSpaceOnUse">
<stop stop-color="#DB3542"/>
<stop offset="0.996" stop-color="#BA0B1A"/>
</linearGradient>
</defs>
</svg>
