<svg width="170" height="170" viewBox="0 0 170 170" fill="none" xmlns="http://www.w3.org/2000/svg">
<g id="user-groups">
<rect x="7.5" y="7.5" width="155" height="155" rx="12.5" fill="white"/>
<rect x="7.5" y="7.5" width="155" height="155" rx="12.5" fill="url(#paint0_linear_1_2370)" fill-opacity="0.2"/>
<path id="Vector" d="M120 93.7487C128.054 93.7487 134.583 87.2195 134.583 79.1654C134.583 71.1112 128.054 64.582 120 64.582C111.946 64.582 105.417 71.1112 105.417 79.1654C105.417 87.2195 111.946 93.7487 120 93.7487Z" fill="url(#paint1_linear_1_2370)"/>
<path id="Vector_2" d="M50 93.7487C58.0542 93.7487 64.5833 87.2195 64.5833 79.1654C64.5833 71.1112 58.0542 64.582 50 64.582C41.9458 64.582 35.4167 71.1112 35.4167 79.1654C35.4167 87.2195 41.9458 93.7487 50 93.7487Z" fill="url(#paint2_linear_1_2370)"/>
<path id="Vector_3" d="M50 99.582C37.1142 99.582 26.6667 110.03 26.6667 122.915V137.274C26.6667 139.01 28.0725 140.415 29.8079 140.415H70.1921C71.9275 140.415 73.3333 139.01 73.3333 137.274V122.915C73.3333 110.03 62.8858 99.582 50 99.582Z" fill="url(#paint3_linear_1_2370)"/>
<path id="Vector_4" d="M120 99.582C107.114 99.582 96.6667 110.03 96.6667 122.915V137.274C96.6667 139.01 98.0725 140.415 99.8079 140.415H140.192C141.927 140.415 143.333 139.01 143.333 137.274V122.915C143.333 110.03 132.886 99.582 120 99.582Z" fill="url(#paint4_linear_1_2370)"/>
<path id="Vector_5" d="M85 73.3346C93.0542 73.3346 99.5833 66.8055 99.5833 58.7513C99.5833 50.6971 93.0542 44.168 85 44.168C76.9459 44.168 70.4167 50.6971 70.4167 58.7513C70.4167 66.8055 76.9459 73.3346 85 73.3346Z" fill="url(#paint5_linear_1_2370)"/>
<path id="Vector_6" d="M120 58.7487C128.054 58.7487 134.583 52.2195 134.583 44.1654C134.583 36.1112 128.054 29.582 120 29.582C111.946 29.582 105.417 36.1112 105.417 44.1654C105.417 52.2195 111.946 58.7487 120 58.7487Z" fill="url(#paint6_linear_1_2370)"/>
<path id="Vector_7" d="M50 58.7487C58.0542 58.7487 64.5833 52.2195 64.5833 44.1654C64.5833 36.1112 58.0542 29.582 50 29.582C41.9458 29.582 35.4167 36.1112 35.4167 44.1654C35.4167 52.2195 41.9458 58.7487 50 58.7487Z" fill="url(#paint7_linear_1_2370)"/>
<rect x="7.5" y="7.5" width="155" height="155" rx="12.5" stroke="#D5EAF6" stroke-width="15"/>
</g>
<defs>
<linearGradient id="paint0_linear_1_2370" x1="85" y1="15" x2="85" y2="155" gradientUnits="userSpaceOnUse">
<stop stop-color="#199AE0"/>
<stop offset="0.472222" stop-color="#0D5176" stop-opacity="0.527778"/>
<stop offset="0.940972" stop-color="#12A6F7" stop-opacity="0.465278"/>
<stop offset="1" stop-opacity="0"/>
</linearGradient>
<linearGradient id="paint1_linear_1_2370" x1="110.162" y1="69.3274" x2="131.865" y2="91.0274" gradientUnits="userSpaceOnUse">
<stop stop-color="#32BDEF"/>
<stop offset="1" stop-color="#1EA2E4"/>
</linearGradient>
<linearGradient id="paint2_linear_1_2370" x1="40.1621" y1="69.3274" x2="61.8621" y2="91.0274" gradientUnits="userSpaceOnUse">
<stop stop-color="#32BDEF"/>
<stop offset="1" stop-color="#1EA2E4"/>
</linearGradient>
<linearGradient id="paint3_linear_1_2370" x1="37.4758" y1="102.884" x2="57.1721" y2="141.891" gradientUnits="userSpaceOnUse">
<stop stop-color="#32BDEF"/>
<stop offset="1" stop-color="#1EA2E4"/>
</linearGradient>
<linearGradient id="paint4_linear_1_2370" x1="107.476" y1="102.884" x2="127.172" y2="141.891" gradientUnits="userSpaceOnUse">
<stop stop-color="#32BDEF"/>
<stop offset="1" stop-color="#1EA2E4"/>
</linearGradient>
<linearGradient id="paint5_linear_1_2370" x1="75.1067" y1="48.858" x2="95.4533" y2="69.2046" gradientUnits="userSpaceOnUse">
<stop stop-color="#199AE0"/>
<stop offset="1" stop-color="#0782D8"/>
</linearGradient>
<linearGradient id="paint6_linear_1_2370" x1="110.107" y1="34.272" x2="130.453" y2="54.6187" gradientUnits="userSpaceOnUse">
<stop stop-color="#0D61A9"/>
<stop offset="1" stop-color="#16528C"/>
</linearGradient>
<linearGradient id="paint7_linear_1_2370" x1="40.1067" y1="34.272" x2="60.4533" y2="54.6187" gradientUnits="userSpaceOnUse">
<stop stop-color="#0D61A9"/>
<stop offset="1" stop-color="#16528C"/>
</linearGradient>
</defs>
</svg>
