<svg width="170" height="170" viewBox="0 0 170 170" fill="none" xmlns="http://www.w3.org/2000/svg">
<g id="user-folder">
<rect x="7.5" y="7.5" width="155" height="155" rx="12.5" fill="white"/>
<rect x="7.5" y="7.5" width="155" height="155" rx="12.5" fill="url(#paint0_linear_1_2364)" fill-opacity="0.2"/>
<path id="Vector" d="M144.792 134.582H25.2083C21.1804 134.582 17.9167 131.318 17.9167 127.29V36.8737C17.9167 32.8458 21.1804 29.582 25.2083 29.582H59.0329C63.4633 29.582 67.6517 31.5945 70.4196 35.0566L77.7083 44.1654H144.792C148.82 44.1654 152.083 47.4291 152.083 51.457V127.29C152.083 131.318 148.82 134.582 144.792 134.582Z" fill="url(#paint1_linear_1_2364)"/>
<path id="Vector_2" d="M17.9167 125.469V127.292C17.9167 131.32 21.1804 134.583 25.2083 134.583H144.792C148.82 134.583 152.083 131.32 152.083 127.292V125.469H17.9167Z" fill="url(#paint2_linear_1_2364)"/>
<path id="Vector_3" d="M144.792 47.082H77.7083L74.1004 49.4854C70.7492 51.7224 66.8088 52.9154 62.7779 52.9154H25.2083C21.1804 52.9154 17.9167 56.1791 17.9167 60.207V124.374C17.9167 128.402 21.1804 131.665 25.2083 131.665H144.792C148.82 131.665 152.083 128.402 152.083 124.374V54.3737C152.083 50.3458 148.82 47.082 144.792 47.082Z" fill="url(#paint3_linear_1_2364)"/>
<path id="Vector_4" d="M144.792 131.667H25.2083C21.1804 131.667 17.9167 128.403 17.9167 124.375V63.125C17.9167 59.0971 21.1804 55.8333 25.2083 55.8333H63.8717C67.9025 55.8333 71.8429 54.6404 75.1971 52.4033L78.8021 50H144.792C148.82 50 152.083 53.2637 152.083 57.2917V124.375C152.083 128.403 148.82 131.667 144.792 131.667Z" fill="url(#paint4_radial_1_2364)"/>
<path id="Vector_5" d="M85 61.668C68.8912 61.668 55.8333 74.7259 55.8333 90.8346C55.8333 106.943 68.8912 120.001 85 120.001C101.109 120.001 114.167 106.943 114.167 90.8346C114.167 74.7259 101.109 61.668 85 61.668ZM85 68.9596C91.0404 68.9596 95.9375 73.8567 95.9375 79.8971C95.9375 85.9376 91.0404 90.8346 85 90.8346C78.9596 90.8346 74.0625 85.9376 74.0625 79.8971C74.0625 73.8567 78.9596 68.9596 85 68.9596ZM85 112.707C70.4167 112.707 66.0417 103.936 66.0417 100.314C66.0417 96.6884 68.9787 93.7513 72.6042 93.7513C76.2296 93.7513 93.7704 93.7513 97.3958 93.7513C101.021 93.7513 103.958 96.6884 103.958 100.314C103.958 103.939 99.5833 112.707 85 112.707Z" fill="url(#paint5_linear_1_2364)"/>
<rect x="7.5" y="7.5" width="155" height="155" rx="12.5" stroke="#D5EAF6" stroke-width="15"/>
</g>
<defs>
<linearGradient id="paint0_linear_1_2364" x1="85" y1="15" x2="85" y2="155" gradientUnits="userSpaceOnUse">
<stop stop-color="#199AE0"/>
<stop offset="0.472222" stop-color="#0D5176" stop-opacity="0.527778"/>
<stop offset="0.940972" stop-color="#12A6F7" stop-opacity="0.465278"/>
<stop offset="1" stop-opacity="0"/>
</linearGradient>
<linearGradient id="paint1_linear_1_2364" x1="-5.46917" y1="42.147" x2="129.879" y2="112.803" gradientUnits="userSpaceOnUse">
<stop stop-color="#FAC017"/>
<stop offset="0.909" stop-color="#E1AB2D"/>
</linearGradient>
<linearGradient id="paint2_linear_1_2364" x1="64.1896" y1="129.587" x2="146.148" y2="131.06" gradientUnits="userSpaceOnUse">
<stop stop-color="#E3A917"/>
<stop offset="0.464" stop-color="#D79C1E"/>
</linearGradient>
<linearGradient id="paint3_linear_1_2364" x1="0.76958" y1="52.227" x2="119.907" y2="104.768" gradientUnits="userSpaceOnUse">
<stop offset="0.34" stop-color="#FFEFB2"/>
<stop offset="0.485" stop-color="#FFEDAD"/>
<stop offset="0.652" stop-color="#FFE99F"/>
<stop offset="0.828" stop-color="#FEE289"/>
<stop offset="1" stop-color="#FED86B"/>
</linearGradient>
<radialGradient id="paint4_radial_1_2364" cx="0" cy="0" r="1" gradientUnits="userSpaceOnUse" gradientTransform="translate(125.355 158.841) scale(157.135 157.135)">
<stop offset="0.199" stop-color="#FEC832"/>
<stop offset="0.601" stop-color="#FCD667"/>
<stop offset="0.68" stop-color="#FDDA75"/>
<stop offset="0.886" stop-color="#FEE496"/>
<stop offset="1" stop-color="#FFE8A2"/>
</radialGradient>
<linearGradient id="paint5_linear_1_2364" x1="70.4137" y1="65.5705" x2="99.5862" y2="116.099" gradientUnits="userSpaceOnUse">
<stop stop-color="#C78902"/>
<stop offset="1" stop-color="#986700"/>
</linearGradient>
</defs>
</svg>
