<svg width="170" height="170" viewBox="0 0 170 170" fill="none" xmlns="http://www.w3.org/2000/svg">
<g id="user-manual">
<rect x="7.5" y="7.5" width="155" height="155" rx="12.5" fill="white"/>
<rect x="7.5" y="7.5" width="155" height="155" rx="12.5" fill="url(#paint0_linear_1_2378)" fill-opacity="0.2"/>
<path id="Vector" d="M140.417 38.332H85V131.665H140.417C143.64 131.665 146.25 129.055 146.25 125.832V44.1654C146.25 40.9424 143.64 38.332 140.417 38.332Z" fill="#0078D4"/>
<path id="Vector_2" d="M85 38.332H29.5833C26.3604 38.332 23.75 40.9424 23.75 44.1654V125.832C23.75 129.055 26.3604 131.665 29.5833 131.665H85V38.332Z" fill="#1B9DE2"/>
<path id="Vector_3" d="M76.25 125.832C76.25 130.665 80.1671 134.582 85 134.582V117.082C80.1671 117.082 76.25 120.999 76.25 125.832Z" fill="#1B9DE2"/>
<path id="Vector_4" d="M93.75 125.832C93.75 120.999 89.8329 117.082 85 117.082V134.582C89.8329 134.582 93.75 130.665 93.75 125.832Z" fill="#0078D4"/>
<path id="Vector_5" d="M85 38.332H32.5C30.89 38.332 29.5833 39.6387 29.5833 41.2487V122.915C29.5833 124.525 30.89 125.832 32.5 125.832H85V38.332Z" fill="white"/>
<path id="Vector_6" d="M137.5 38.332H85V125.832H137.5C139.11 125.832 140.417 124.525 140.417 122.915V41.2487C140.417 39.6387 139.11 38.332 137.5 38.332Z" fill="#F0F0F0"/>
<path id="Vector_7" d="M74.7917 55.8333H39.7917C38.9867 55.8333 38.3333 55.18 38.3333 54.375V51.4583C38.3333 50.6533 38.9867 50 39.7917 50H74.7917C75.5967 50 76.25 50.6533 76.25 51.4583V54.375C76.25 55.18 75.5967 55.8333 74.7917 55.8333Z" fill="#35C1F1"/>
<path id="Vector_8" d="M74.7917 67.5013H39.7917C38.9867 67.5013 38.3333 66.848 38.3333 66.043V63.1263C38.3333 62.3213 38.9867 61.668 39.7917 61.668H74.7917C75.5967 61.668 76.25 62.3213 76.25 63.1263V66.043C76.25 66.848 75.5967 67.5013 74.7917 67.5013Z" fill="#35C1F1"/>
<path id="Vector_9" d="M74.7917 79.1654H39.7917C38.9867 79.1654 38.3333 78.512 38.3333 77.707V74.7904C38.3333 73.9854 38.9867 73.332 39.7917 73.332H74.7917C75.5967 73.332 76.25 73.9854 76.25 74.7904V77.707C76.25 78.512 75.5967 79.1654 74.7917 79.1654Z" fill="#35C1F1"/>
<path id="Vector_10" d="M74.7917 90.8333H39.7917C38.9867 90.8333 38.3333 90.18 38.3333 89.375V86.4583C38.3333 85.6533 38.9867 85 39.7917 85H74.7917C75.5967 85 76.25 85.6533 76.25 86.4583V89.375C76.25 90.18 75.5967 90.8333 74.7917 90.8333Z" fill="#35C1F1"/>
<path id="Vector_11" d="M74.7917 102.501H39.7917C38.9867 102.501 38.3333 101.848 38.3333 101.043V98.1263C38.3333 97.3213 38.9867 96.668 39.7917 96.668H74.7917C75.5967 96.668 76.25 97.3213 76.25 98.1263V101.043C76.25 101.848 75.5967 102.501 74.7917 102.501Z" fill="#35C1F1"/>
<path id="Vector_12" d="M68.9583 114.165H39.7917C38.9867 114.165 38.3333 113.512 38.3333 112.707V109.79C38.3333 108.985 38.9867 108.332 39.7917 108.332H68.9583C69.7633 108.332 70.4167 108.985 70.4167 109.79V112.707C70.4167 113.512 69.7633 114.165 68.9583 114.165Z" fill="#35C1F1"/>
<path id="Vector_13" d="M111.25 63.8017C116.208 63.8017 118.979 60.6867 118.979 56.8367C118.979 52.9867 116.054 50 111.25 50C106.446 50 103.521 52.9867 103.521 56.8367C103.521 60.6867 106.292 63.8017 111.25 63.8017Z" fill="#0D62AB"/>
<path id="Vector_14" d="M117.083 70.418H105.417V114.168H117.083V70.418Z" fill="#0D62AB"/>
<rect x="7.5" y="7.5" width="155" height="155" rx="12.5" stroke="#D5EAF6" stroke-width="15"/>
</g>
<defs>
<linearGradient id="paint0_linear_1_2378" x1="85" y1="15" x2="85" y2="155" gradientUnits="userSpaceOnUse">
<stop stop-color="#199AE0"/>
<stop offset="0.472222" stop-color="#0D5176" stop-opacity="0.527778"/>
<stop offset="0.940972" stop-color="#12A6F7" stop-opacity="0.465278"/>
<stop offset="1" stop-opacity="0"/>
</linearGradient>
</defs>
</svg>
