<svg width="170" height="170" viewBox="0 0 170 170" fill="none" xmlns="http://www.w3.org/2000/svg">
<g id="view-all">
<rect x="7.5" y="7.5" width="155" height="155" rx="12.5" fill="white"/>
<rect x="7.5" y="7.5" width="155" height="155" rx="12.5" fill="url(#paint0_linear_1_2408)" fill-opacity="0.2"/>
<path id="Vector" d="M73.3333 79.168H38.3333C35.125 79.168 32.5 76.543 32.5 73.3346V44.168H79.1667V73.3346C79.1667 76.543 76.5417 79.168 73.3333 79.168Z" fill="url(#paint1_linear_1_2408)"/>
<path id="Vector_2" d="M79.1667 44.1667H32.5V38.3333C32.5 35.1104 35.1104 32.5 38.3333 32.5H73.3333C76.5563 32.5 79.1667 35.1104 79.1667 38.3333V44.1667Z" fill="url(#paint2_linear_1_2408)"/>
<path id="Vector_3" d="M131.667 79.168H96.6667C93.4583 79.168 90.8333 76.543 90.8333 73.3346V44.168H137.5V73.3346C137.5 76.543 134.875 79.168 131.667 79.168Z" fill="url(#paint3_linear_1_2408)"/>
<path id="Vector_4" d="M137.5 44.1667H90.8333V38.3333C90.8333 35.1104 93.4438 32.5 96.6667 32.5H131.667C134.89 32.5 137.5 35.1104 137.5 38.3333V44.1667Z" fill="url(#paint4_linear_1_2408)"/>
<path id="Vector_5" d="M73.3333 137.5H38.3333C35.125 137.5 32.5 134.875 32.5 131.667V102.5H79.1667V131.667C79.1667 134.875 76.5417 137.5 73.3333 137.5Z" fill="url(#paint5_linear_1_2408)"/>
<path id="Vector_6" d="M79.1667 102.499H32.5V96.6654C32.5 93.4424 35.1104 90.832 38.3333 90.832H73.3333C76.5563 90.832 79.1667 93.4424 79.1667 96.6654V102.499Z" fill="url(#paint6_linear_1_2408)"/>
<path id="Vector_7" d="M131.667 137.5H96.6667C93.4583 137.5 90.8333 134.875 90.8333 131.667V102.5H137.5V131.667C137.5 134.875 134.875 137.5 131.667 137.5Z" fill="url(#paint7_linear_1_2408)"/>
<path id="Vector_8" d="M137.5 102.499H90.8333V96.6654C90.8333 93.4424 93.4438 90.832 96.6667 90.832H131.667C134.89 90.832 137.5 93.4424 137.5 96.6654V102.499Z" fill="url(#paint8_linear_1_2408)"/>
<rect x="7.5" y="7.5" width="155" height="155" rx="12.5" stroke="#D5EAF6" stroke-width="15"/>
</g>
<defs>
<linearGradient id="paint0_linear_1_2408" x1="85" y1="15" x2="85" y2="155" gradientUnits="userSpaceOnUse">
<stop stop-color="#199AE0"/>
<stop offset="0.472222" stop-color="#0D5176" stop-opacity="0.527778"/>
<stop offset="0.940972" stop-color="#12A6F7" stop-opacity="0.465278"/>
<stop offset="1" stop-opacity="0"/>
</linearGradient>
<linearGradient id="paint1_linear_1_2408" x1="36.0263" y1="40.1459" x2="70.6675" y2="74.7871" gradientUnits="userSpaceOnUse">
<stop stop-color="#7DD8F3"/>
<stop offset="1" stop-color="#45B0D0"/>
</linearGradient>
<linearGradient id="paint2_linear_1_2408" x1="32.5" y1="38.3333" x2="79.1667" y2="38.3333" gradientUnits="userSpaceOnUse">
<stop stop-color="#0077D2"/>
<stop offset="1" stop-color="#0B59A2"/>
</linearGradient>
<linearGradient id="paint3_linear_1_2408" x1="94.3596" y1="40.1459" x2="129.001" y2="74.7871" gradientUnits="userSpaceOnUse">
<stop stop-color="#7DD8F3"/>
<stop offset="1" stop-color="#45B0D0"/>
</linearGradient>
<linearGradient id="paint4_linear_1_2408" x1="90.8333" y1="38.3333" x2="137.5" y2="38.3333" gradientUnits="userSpaceOnUse">
<stop stop-color="#0077D2"/>
<stop offset="1" stop-color="#0B59A2"/>
</linearGradient>
<linearGradient id="paint5_linear_1_2408" x1="36.0263" y1="98.4779" x2="70.6675" y2="133.119" gradientUnits="userSpaceOnUse">
<stop stop-color="#7DD8F3"/>
<stop offset="1" stop-color="#45B0D0"/>
</linearGradient>
<linearGradient id="paint6_linear_1_2408" x1="32.5" y1="96.6654" x2="79.1667" y2="96.6654" gradientUnits="userSpaceOnUse">
<stop stop-color="#0077D2"/>
<stop offset="1" stop-color="#0B59A2"/>
</linearGradient>
<linearGradient id="paint7_linear_1_2408" x1="94.3596" y1="98.4779" x2="129.001" y2="133.119" gradientUnits="userSpaceOnUse">
<stop stop-color="#7DD8F3"/>
<stop offset="1" stop-color="#45B0D0"/>
</linearGradient>
<linearGradient id="paint8_linear_1_2408" x1="90.8333" y1="96.6654" x2="137.5" y2="96.6654" gradientUnits="userSpaceOnUse">
<stop stop-color="#0077D2"/>
<stop offset="1" stop-color="#0B59A2"/>
</linearGradient>
</defs>
</svg>
