<svg width="170" height="170" viewBox="0 0 170 170" fill="none" xmlns="http://www.w3.org/2000/svg">
<g id="web">
<rect x="7.5" y="7.5" width="155" height="155" rx="12.5" fill="white"/>
<rect x="7.5" y="7.5" width="155" height="155" rx="12.5" fill="url(#paint0_linear_1_2424)" fill-opacity="0.2"/>
<path id="Vector" d="M26.6667 125.833V58.75H143.333V125.833C143.333 129.042 140.708 131.667 137.5 131.667H32.5C29.2917 131.667 26.6667 129.042 26.6667 125.833Z" fill="url(#paint1_linear_1_2424)"/>
<path id="Vector_2" d="M143.333 44.1654V58.7487H26.6667V44.1654C26.6667 40.957 29.2917 38.332 32.5 38.332H137.5C140.708 38.332 143.333 40.957 143.333 44.1654Z" fill="url(#paint2_linear_1_2424)"/>
<path id="Vector_3" d="M63.125 52.918H136.042C136.847 52.918 137.5 52.2646 137.5 51.4596V45.6263C137.5 44.8213 136.847 44.168 136.042 44.168H63.125C62.32 44.168 61.6667 44.8213 61.6667 45.6263V51.4596C61.6667 52.2646 62.32 52.918 63.125 52.918Z" fill="url(#paint3_linear_1_2424)"/>
<path id="Vector_4" d="M36.875 52.918C39.2912 52.918 41.25 50.9592 41.25 48.543C41.25 46.1267 39.2912 44.168 36.875 44.168C34.4588 44.168 32.5 46.1267 32.5 48.543C32.5 50.9592 34.4588 52.918 36.875 52.918Z" fill="url(#paint4_linear_1_2424)"/>
<path id="Vector_5" d="M51.4583 52.918C53.8746 52.918 55.8333 50.9592 55.8333 48.543C55.8333 46.1267 53.8746 44.168 51.4583 44.168C49.0421 44.168 47.0833 46.1267 47.0833 48.543C47.0833 50.9592 49.0421 52.918 51.4583 52.918Z" fill="url(#paint5_linear_1_2424)"/>
<path id="Vector_6" d="M131.667 122.917H108.333C106.723 122.917 105.417 121.61 105.417 120V70.4167C105.417 68.8067 106.723 67.5 108.333 67.5H131.667C133.277 67.5 134.583 68.8067 134.583 70.4167V120C134.583 121.61 133.277 122.917 131.667 122.917Z" fill="#0D86AD"/>
<path id="Vector_7" d="M93.75 90.8333H38.3333C36.7233 90.8333 35.4167 89.5267 35.4167 87.9167V70.4167C35.4167 68.8067 36.7233 67.5 38.3333 67.5H93.75C95.36 67.5 96.6667 68.8067 96.6667 70.4167V87.9167C96.6667 89.5267 95.36 90.8333 93.75 90.8333Z" fill="#0D86AD"/>
<path id="Vector_8" d="M93.75 122.915H38.3333C36.7233 122.915 35.4167 121.609 35.4167 119.999V102.499C35.4167 100.889 36.7233 99.582 38.3333 99.582H93.75C95.36 99.582 96.6667 100.889 96.6667 102.499V119.999C96.6667 121.609 95.36 122.915 93.75 122.915Z" fill="#0D86AD"/>
<rect x="7.5" y="7.5" width="155" height="155" rx="12.5" stroke="#D5EAF6" stroke-width="15"/>
</g>
<defs>
<linearGradient id="paint0_linear_1_2424" x1="85" y1="15" x2="85" y2="155" gradientUnits="userSpaceOnUse">
<stop stop-color="#199AE0"/>
<stop offset="0.472222" stop-color="#0D5176" stop-opacity="0.527778"/>
<stop offset="0.940972" stop-color="#12A6F7" stop-opacity="0.465278"/>
<stop offset="1" stop-opacity="0"/>
</linearGradient>
<linearGradient id="paint1_linear_1_2424" x1="54.3167" y1="48.8129" x2="107.266" y2="125.405" gradientUnits="userSpaceOnUse">
<stop stop-color="#7DD8F3"/>
<stop offset="1" stop-color="#45B0D0"/>
</linearGradient>
<linearGradient id="paint2_linear_1_2424" x1="28.4575" y1="37.5766" x2="140.23" y2="60.3033" gradientUnits="userSpaceOnUse">
<stop stop-color="#0077D2"/>
<stop offset="1" stop-color="#0B59A2"/>
</linearGradient>
<linearGradient id="paint3_linear_1_2424" x1="61.6667" y1="48.543" x2="137.5" y2="48.543" gradientUnits="userSpaceOnUse">
<stop stop-color="#7DD8F3"/>
<stop offset="1" stop-color="#45B0D0"/>
</linearGradient>
<linearGradient id="paint4_linear_1_2424" x1="34.6904" y1="45.3813" x2="38.4267" y2="50.7859" gradientUnits="userSpaceOnUse">
<stop stop-color="#75DAFF"/>
<stop offset="1" stop-color="#49BEF1"/>
</linearGradient>
<linearGradient id="paint5_linear_1_2424" x1="49.2737" y1="45.3813" x2="53.01" y2="50.7859" gradientUnits="userSpaceOnUse">
<stop stop-color="#75DAFF"/>
<stop offset="1" stop-color="#49BEF1"/>
</linearGradient>
</defs>
</svg>
