<svg width="48" height="38" viewBox="0 0 48 38" fill="none" xmlns="http://www.w3.org/2000/svg">
<path d="M45.3542 37.7083H2.64582C1.20728 37.7083 0.0416565 36.5426 0.0416565 35.1041V2.81242C0.0416565 1.37388 1.20728 0.208252 2.64582 0.208252H14.726C16.3083 0.208252 17.8042 0.927002 18.7927 2.16346L21.3958 5.41659H45.3542C46.7927 5.41659 47.9583 6.58221 47.9583 8.02075V35.1041C47.9583 36.5426 46.7927 37.7083 45.3542 37.7083Z" fill="url(#paint0_linear_46_5715)"/>
<path d="M0.0416565 34.4531V35.1042C0.0416565 36.5427 1.20728 37.7083 2.64582 37.7083H45.3542C46.7927 37.7083 47.9583 36.5427 47.9583 35.1042V34.4531H0.0416565Z" fill="url(#paint1_linear_46_5715)"/>
<path d="M45.3542 6.45825H21.3958L20.1073 7.31659C18.9104 8.11554 17.5031 8.54159 16.0635 8.54159H2.64582C1.20728 8.54159 0.0416565 9.70721 0.0416565 11.1458V34.0624C0.0416565 35.501 1.20728 36.6666 2.64582 36.6666H45.3542C46.7927 36.6666 47.9583 35.501 47.9583 34.0624V9.06242C47.9583 7.62388 46.7927 6.45825 45.3542 6.45825Z" fill="url(#paint2_linear_46_5715)"/>
<path d="M45.3542 36.6667H2.64582C1.20728 36.6667 0.0416565 35.501 0.0416565 34.0625V12.1875C0.0416565 10.749 1.20728 9.58333 2.64582 9.58333H16.4542C17.8937 9.58333 19.301 9.15729 20.4989 8.35833L21.7864 7.5H45.3542C46.7927 7.5 47.9583 8.66562 47.9583 10.1042V34.0625C47.9583 35.501 46.7927 36.6667 45.3542 36.6667Z" fill="url(#paint3_radial_46_5715)"/>
<path d="M31.8948 20.4614V32.8737C31.8948 33.4223 31.4505 33.8668 30.9018 33.8668H17.993C17.4444 33.8668 17 33.4223 17 32.8737V15.993C17 15.4444 17.4444 15 17.993 15H26.4334L31.8948 20.4614Z" fill="#50E6FF"/>
<path d="M26.4333 15V19.4684C26.4333 20.017 26.8777 20.4614 27.4263 20.4614H31.8948L26.4333 15Z" fill="url(#paint4_linear_46_5715)"/>
<path d="M19.5425 27.0606L21.5097 29.0278C21.5896 29.1076 21.7197 29.1076 21.7996 29.0278L22.2152 28.6122C22.2951 28.5322 22.2951 28.4022 22.2152 28.3222L20.2481 26.3551C20.1681 26.2752 20.0381 26.2752 19.9581 26.3551L19.5425 26.7707C19.4626 26.8506 19.4626 26.9807 19.5425 27.0606Z" fill="#0078D4"/>
<path d="M20.2481 27.4764L22.2152 25.5094C22.2951 25.4294 22.2951 25.2994 22.2152 25.2194L21.7996 24.8039C21.7197 24.7239 21.5896 24.7239 21.5097 24.8039L19.5425 26.771C19.4626 26.8509 19.4626 26.981 19.5425 27.0609L19.9581 27.4764C20.0381 27.5564 20.1681 27.5564 20.2481 27.4764Z" fill="#0078D4"/>
<path d="M29.3522 27.0606L27.3851 29.0278C27.3051 29.1076 27.175 29.1076 27.0952 29.0278L26.6796 28.6122C26.5996 28.5322 26.5996 28.4022 26.6796 28.3222L28.6466 26.3551C28.7267 26.2752 28.8567 26.2752 28.9367 26.3551L29.3522 26.7707C29.4321 26.8506 29.4321 26.9807 29.3522 27.0606Z" fill="#0078D4"/>
<path d="M28.6466 27.4764L26.6796 25.5094C26.5996 25.4294 26.5996 25.2994 26.6796 25.2194L27.0952 24.8039C27.175 24.7239 27.3051 24.7239 27.3851 24.8039L29.3522 26.771C29.4321 26.8509 29.4321 26.981 29.3522 27.0609L28.9367 27.4764C28.8567 27.5564 28.7267 27.5564 28.6466 27.4764Z" fill="#0078D4"/>
<path d="M25.7403 22.468H24.9935C24.8957 22.468 24.8113 22.5365 24.791 22.6324L23.0026 31.1765C22.9822 31.2728 23.0562 31.3637 23.1545 31.3637H23.9013C23.9991 31.3637 24.0835 31.2951 24.1038 31.1993L25.8922 22.6552C25.9125 22.5584 25.8386 22.468 25.7403 22.468Z" fill="#0078D4"/>
<defs>
<linearGradient id="paint0_linear_46_5715" x1="-8.31043" y1="4.69575" x2="40.0281" y2="29.9301" gradientUnits="userSpaceOnUse">
<stop stop-color="#FAC017"/>
<stop offset="0.909" stop-color="#E1AB2D"/>
</linearGradient>
<linearGradient id="paint1_linear_46_5715" x1="16.5677" y1="35.924" x2="45.8385" y2="36.45" gradientUnits="userSpaceOnUse">
<stop stop-color="#E3A917"/>
<stop offset="0.464" stop-color="#D79C1E"/>
</linearGradient>
<linearGradient id="paint2_linear_46_5715" x1="-6.0823" y1="8.29575" x2="36.4667" y2="27.0603" gradientUnits="userSpaceOnUse">
<stop offset="0.34" stop-color="#FFEFB2"/>
<stop offset="0.485" stop-color="#FFEDAD"/>
<stop offset="0.652" stop-color="#FFE99F"/>
<stop offset="0.828" stop-color="#FEE289"/>
<stop offset="1" stop-color="#FED86B"/>
</linearGradient>
<radialGradient id="paint3_radial_46_5715" cx="0" cy="0" r="1" gradientUnits="userSpaceOnUse" gradientTransform="translate(38.4125 46.3719) scale(56.1198 56.1198)">
<stop offset="0.199" stop-color="#FEC832"/>
<stop offset="0.601" stop-color="#FCD667"/>
<stop offset="0.68" stop-color="#FDDA75"/>
<stop offset="0.886" stop-color="#FEE496"/>
<stop offset="1" stop-color="#FFE8A2"/>
</radialGradient>
<linearGradient id="paint4_linear_46_5715" x1="26.696" y1="20.1993" x2="29.2137" y2="17.6811" gradientUnits="userSpaceOnUse">
<stop stop-color="#3079D6"/>
<stop offset="1" stop-color="#297CD2"/>
</linearGradient>
</defs>
</svg>
