<svg width="50" height="50" viewBox="0 0 50 50" fill="none" xmlns="http://www.w3.org/2000/svg">
<path d="M25.4312 10.8478L22.7896 8.20609C22.2042 7.62067 21.4094 7.2915 20.5802 7.2915H5.20833C4.05729 7.2915 3.125 8.2238 3.125 9.37484V40.6248C3.125 41.7759 4.05729 42.7082 5.20833 42.7082H44.7917C45.9427 42.7082 46.875 41.7759 46.875 40.6248V13.5415C46.875 12.3905 45.9427 11.4582 44.7917 11.4582H26.9042C26.3521 11.4582 25.8219 11.2384 25.4312 10.8478Z" fill="url(#paint0_linear_46_5501)"/>
<path d="M22.4854 15.0147L25.8896 11.6106C25.9865 11.5137 26.1187 11.4585 26.2573 11.4585H44.7917C45.9427 11.4585 46.875 12.3908 46.875 13.5418V40.6252C46.875 41.7762 45.9427 42.7085 44.7917 42.7085H5.20833C4.05729 42.7085 3.125 41.7762 3.125 40.6252V16.146C3.125 15.8585 3.35833 15.6252 3.64583 15.6252H21.0125C21.5646 15.6252 22.0948 15.4054 22.4854 15.0147Z" fill="url(#paint1_linear_46_5501)"/>
<path d="M34.8945 25.2865L27.9813 18.6433C27.5796 18.2572 26.9403 18.2699 26.5542 18.6715L20.0013 25.4919L27.84 34.0576L34.9232 26.713C35.3092 26.3113 35.2965 25.6725 34.8945 25.2865Z" fill="url(#paint2_linear_46_5501)"/>
<path d="M24.5035 35.7772L17.01 28.5775L19.9771 25.4897L28.346 33.5307L26.3806 35.5764L24.5035 35.7772Z" fill="url(#paint3_linear_46_5501)"/>
<path opacity="0.05" d="M26.966 34.9667L31.1538 22.56C31.246 22.2865 31.2552 21.9993 31.1896 21.7253L29.9836 20.5667L26.0188 19.2285L20.0013 25.4912L20.1633 25.6684L19.9771 25.4892L17.01 28.5769L24.5035 35.7773L26.3806 35.5764L26.966 34.9667Z" fill="black"/>
<path opacity="0.07" d="M30.8505 21.5158C30.7011 21.214 30.4428 20.9884 30.1239 20.8804L25.8261 19.4297L20.0013 25.4916L20.1633 25.6687L19.9771 25.4896L17.01 28.5773L24.5035 35.7776L26.3806 35.5767L26.5547 35.3956C26.5557 35.393 26.5567 35.3911 26.5578 35.3885L30.9151 22.4796C31.0225 22.1601 30.9998 21.818 30.8505 21.5158Z" fill="black"/>
<path d="M30.0426 21.1192L20.9586 18.0532C20.4303 17.8751 19.858 18.1587 19.6794 18.6865L16.4519 28.2484L27.4484 31.9603L30.676 22.3979C30.8545 21.8701 30.5709 21.2974 30.0426 21.1192Z" fill="url(#paint4_linear_46_5501)"/>
<path d="M25.0399 35.9413L15.0022 32.5533C15.0006 32.5529 14.9996 32.5508 15.0001 32.5493L16.4514 28.2495L27.4479 31.9614L26.3181 35.3081C26.1404 35.8358 25.5677 36.1195 25.0399 35.9413Z" fill="url(#paint5_linear_46_5501)"/>
<path opacity="0.05" d="M25.6172 20.0186H19.2303L16.4519 28.2488L17.717 33.469L25.0399 35.941C25.5682 36.1192 26.1404 35.8356 26.3191 35.3078L27.131 32.9017V21.5324C27.131 20.6978 26.4518 20.0186 25.6172 20.0186Z" fill="black"/>
<path opacity="0.07" d="M25.6172 20.2705H19.145L16.4519 28.2484L17.2759 33.3198L25.0399 35.9402C25.5682 36.1184 26.1404 35.8348 26.3191 35.3069L26.8787 33.6488V21.532C26.8787 20.8367 26.3125 20.2705 25.6172 20.2705Z" fill="black"/>
<path d="M25.6172 20.5229H16.0295C15.4719 20.5229 15.0203 20.9746 15.0203 21.5322V31.6245H26.6264V21.5322C26.6264 20.9746 26.1743 20.5229 25.6172 20.5229Z" fill="url(#paint6_linear_46_5501)"/>
<path d="M25.6172 36.166H16.0295C15.4719 36.166 15.0203 35.7145 15.0203 35.1569V31.6245H26.6264V35.1569C26.6264 35.7145 26.1743 36.166 25.6172 36.166Z" fill="url(#paint7_linear_46_5501)"/>
<path d="M25.1025 35.3655C25.4965 35.3655 25.816 35.0461 25.816 34.652C25.816 34.2579 25.4965 33.9385 25.1025 33.9385C24.7084 33.9385 24.3889 34.2579 24.3889 34.652C24.3889 35.0461 24.7084 35.3655 25.1025 35.3655Z" fill="#505D66"/>
<defs>
<linearGradient id="paint0_linear_46_5501" x1="25" y1="6.98734" x2="25" y2="15.6009" gradientUnits="userSpaceOnUse">
<stop stop-color="#EBA600"/>
<stop offset="1" stop-color="#C28200"/>
</linearGradient>
<linearGradient id="paint1_linear_46_5501" x1="25" y1="11.3064" x2="25" y2="42.6908" gradientUnits="userSpaceOnUse">
<stop stop-color="#FFD869"/>
<stop offset="1" stop-color="#FEC52B"/>
</linearGradient>
<linearGradient id="paint2_linear_46_5501" x1="26.2681" y1="18.3268" x2="28.0957" y2="28.4304" gradientUnits="userSpaceOnUse">
<stop stop-color="#F44F5A"/>
<stop offset="0.443" stop-color="#EE3D4A"/>
<stop offset="1" stop-color="#E52030"/>
</linearGradient>
<linearGradient id="paint3_linear_46_5501" x1="29.6158" y1="29.6213" x2="26.7628" y2="30.0243" gradientUnits="userSpaceOnUse">
<stop stop-color="#889097"/>
<stop offset="1" stop-color="#4C5963"/>
</linearGradient>
<linearGradient id="paint4_linear_46_5501" x1="19.108" y1="18.0567" x2="24.6644" y2="26.6777" gradientUnits="userSpaceOnUse">
<stop stop-color="#BD4FF4"/>
<stop offset="0.587" stop-color="#A235EC"/>
<stop offset="1" stop-color="#8C20E5"/>
</linearGradient>
<linearGradient id="paint5_linear_46_5501" x1="27.5327" y1="30.664" x2="22.2343" y2="31.8398" gradientUnits="userSpaceOnUse">
<stop stop-color="#889097"/>
<stop offset="0.679" stop-color="#5F6B74"/>
<stop offset="1" stop-color="#4C5963"/>
</linearGradient>
<linearGradient id="paint6_linear_46_5501" x1="15.1112" y1="20.6572" x2="24.4934" y2="30.0393" gradientUnits="userSpaceOnUse">
<stop stop-color="#33BEF0"/>
<stop offset="1" stop-color="#0A85D9"/>
</linearGradient>
<linearGradient id="paint7_linear_46_5501" x1="13.5635" y1="26.0708" x2="22.4316" y2="35.2612" gradientUnits="userSpaceOnUse">
<stop stop-color="#F9F9F9"/>
<stop offset="0.966" stop-color="#C4C9CD"/>
<stop offset="1" stop-color="#C2C8CC"/>
</linearGradient>
</defs>
</svg>
