<svg width="170" height="170" viewBox="0 0 170 170" fill="none" xmlns="http://www.w3.org/2000/svg">
<g id="webpage">
<rect x="7.5" y="7.5" width="155" height="155" rx="12.5" fill="white"/>
<rect x="7.5" y="7.5" width="155" height="155" rx="12.5" fill="url(#paint0_linear_1_2433)" fill-opacity="0.2"/>
<path id="Vector" d="M86.2075 45.3755L78.8108 37.9788C77.1717 36.3396 74.9463 35.418 72.6246 35.418H29.5833C26.3604 35.418 23.75 38.0284 23.75 41.2513V128.751C23.75 131.974 26.3604 134.585 29.5833 134.585H140.417C143.64 134.585 146.25 131.974 146.25 128.751V52.918C146.25 49.6951 143.64 47.0846 140.417 47.0846H90.3317C88.7858 47.0846 87.3013 46.4692 86.2075 45.3755Z" fill="url(#paint1_linear_1_2433)"/>
<path id="Vector_2" d="M77.9592 57.0395L87.4908 47.5079C87.7621 47.2366 88.1325 47.082 88.5204 47.082H140.417C143.64 47.082 146.25 49.6924 146.25 52.9154V128.749C146.25 131.972 143.64 134.582 140.417 134.582H29.5833C26.3604 134.582 23.75 131.972 23.75 128.749V60.207C23.75 59.402 24.4033 58.7487 25.2083 58.7487H73.835C75.3808 58.7487 76.8654 58.1333 77.9592 57.0395Z" fill="url(#paint2_linear_1_2433)"/>
<path id="Vector_3" d="M67.1733 85.7383L61.7717 106.161H56.6733L53.2842 93.0591C53.1062 92.3766 52.9925 91.6124 52.9604 90.7666H52.9021C52.8175 91.697 52.6921 92.4612 52.5317 93.0591L49.0579 106.161H43.7408L38.3742 85.7383H43.3996L46.2754 99.3387C46.4008 99.9162 46.4912 100.698 46.5496 101.675H46.6342C46.6692 100.943 46.8121 100.147 47.0454 99.2833L50.7496 85.7383H55.6758L59.0242 99.4524C59.1437 99.957 59.2575 100.686 59.3479 101.646H59.4062C59.4471 100.896 59.5433 100.135 59.7096 99.3679L62.53 85.7383H67.1733Z" fill="url(#paint3_linear_1_2433)"/>
<path id="Vector_4" d="M99.3996 85.7383L93.9979 106.161H88.8996L85.5104 93.0591C85.3325 92.3766 85.2187 91.6124 85.1867 90.7666H85.1283C85.0438 91.697 84.9183 92.4612 84.7579 93.0591L81.2842 106.161H75.97L70.6033 85.7383H75.6288L78.5046 99.3387C78.63 99.9162 78.7204 100.698 78.7788 101.675H78.8633C78.8983 100.943 79.0413 100.147 79.2746 99.2833L82.9787 85.7383H87.905L91.2533 99.4524C91.3729 99.957 91.4867 100.686 91.5771 101.646H91.6354C91.6763 100.896 91.7725 100.135 91.9388 99.3679L94.7592 85.7383H99.3996Z" fill="url(#paint4_linear_1_2433)"/>
<path id="Vector_5" d="M131.623 85.7383L126.221 106.161H121.123L117.734 93.0591C117.556 92.3766 117.442 91.6124 117.41 90.7666H117.352C117.267 91.697 117.142 92.4612 116.981 93.0591L113.507 106.161H108.193L102.827 85.7383H107.852L110.728 99.3387C110.853 99.9162 110.944 100.698 111.002 101.675H111.087C111.122 100.943 111.265 100.147 111.498 99.2833L115.202 85.7383H120.128L123.477 99.4524C123.596 99.957 123.71 100.686 123.8 101.646H123.859C123.9 100.896 123.996 100.135 124.162 99.3679L126.983 85.7383H131.623Z" fill="url(#paint5_linear_1_2433)"/>
<rect x="7.5" y="7.5" width="155" height="155" rx="12.5" stroke="#D5EAF6" stroke-width="15"/>
</g>
<defs>
<linearGradient id="paint0_linear_1_2433" x1="85" y1="15" x2="85" y2="155" gradientUnits="userSpaceOnUse">
<stop stop-color="#199AE0"/>
<stop offset="0.472222" stop-color="#0D5176" stop-opacity="0.527778"/>
<stop offset="0.940972" stop-color="#12A6F7" stop-opacity="0.465278"/>
<stop offset="1" stop-opacity="0"/>
</linearGradient>
<linearGradient id="paint1_linear_1_2433" x1="85" y1="34.5663" x2="85" y2="58.6842" gradientUnits="userSpaceOnUse">
<stop stop-color="#EBA600"/>
<stop offset="1" stop-color="#C28200"/>
</linearGradient>
<linearGradient id="paint2_linear_1_2433" x1="85" y1="46.6562" x2="85" y2="134.532" gradientUnits="userSpaceOnUse">
<stop stop-color="#FFD869"/>
<stop offset="1" stop-color="#FEC52B"/>
</linearGradient>
<linearGradient id="paint3_linear_1_2433" x1="38.3771" y1="95.9495" x2="67.1733" y2="95.9495" gradientUnits="userSpaceOnUse">
<stop stop-color="#912FBD"/>
<stop offset="1" stop-color="#9332BF"/>
</linearGradient>
<linearGradient id="paint4_linear_1_2433" x1="70.6033" y1="95.9495" x2="99.3967" y2="95.9495" gradientUnits="userSpaceOnUse">
<stop stop-color="#912FBD"/>
<stop offset="1" stop-color="#9332BF"/>
</linearGradient>
<linearGradient id="paint5_linear_1_2433" x1="102.827" y1="95.9495" x2="131.623" y2="95.9495" gradientUnits="userSpaceOnUse">
<stop stop-color="#912FBD"/>
<stop offset="1" stop-color="#9332BF"/>
</linearGradient>
</defs>
</svg>
