<svg width="170" height="170" viewBox="0 0 170 170" fill="none" xmlns="http://www.w3.org/2000/svg">
<g id="window-favorite">
<g clip-path="url(#clip0_1_2448)">
<rect x="15" y="15" width="140" height="140" rx="5" fill="white"/>
<rect x="15" y="15" width="140" height="140" rx="5" fill="url(#paint0_linear_1_2448)" fill-opacity="0.2"/>
<path id="Vector" d="M26.6667 125.833V58.75H143.333V125.833C143.333 129.042 140.708 131.667 137.5 131.667H32.5C29.2917 131.667 26.6667 129.042 26.6667 125.833Z" fill="#50E6FF"/>
<path id="Vector_2" d="M143.333 44.1654V58.7487H26.6667V44.1654C26.6667 40.957 29.2917 38.332 32.5 38.332H137.5C140.708 38.332 143.333 40.957 143.333 44.1654Z" fill="url(#paint1_linear_1_2448)"/>
<path id="Vector_3" d="M36.875 52.918C39.2912 52.918 41.25 50.9592 41.25 48.543C41.25 46.1267 39.2912 44.168 36.875 44.168C34.4588 44.168 32.5 46.1267 32.5 48.543C32.5 50.9592 34.4588 52.918 36.875 52.918Z" fill="url(#paint2_linear_1_2448)"/>
<path id="Vector_4" d="M51.4583 52.918C53.8746 52.918 55.8333 50.9592 55.8333 48.543C55.8333 46.1267 53.8746 44.168 51.4583 44.168C49.0421 44.168 47.0833 46.1267 47.0833 48.543C47.0833 50.9592 49.0421 52.918 51.4583 52.918Z" fill="url(#paint3_linear_1_2448)"/>
<path id="Vector_5" d="M66.0417 52.918C68.4579 52.918 70.4167 50.9592 70.4167 48.543C70.4167 46.1267 68.4579 44.168 66.0417 44.168C63.6254 44.168 61.6667 46.1267 61.6667 48.543C61.6667 50.9592 63.6254 52.918 66.0417 52.918Z" fill="url(#paint4_linear_1_2448)"/>
<path id="Vector_6" opacity="0.05" d="M141.875 108.332C136.257 108.332 131.532 111.52 128.75 113.947C125.967 111.52 121.242 108.332 115.625 108.332C111.326 108.332 107.289 110.067 104.25 113.215C101.24 116.33 99.5833 120.436 99.5862 124.773C99.5862 127.334 100.56 129.746 101.672 131.665H137.5C140.708 131.665 143.333 129.04 143.333 125.832V108.402C142.852 108.355 142.368 108.332 141.875 108.332Z" fill="black"/>
<path id="Vector_7" opacity="0.07" d="M141.875 109.793C135.887 109.793 130.885 113.873 128.75 115.924C126.615 113.876 121.613 109.793 115.625 109.793C111.728 109.793 108.059 111.368 105.297 114.229C102.555 117.07 101.042 120.815 101.045 124.773C101.045 127.345 102.208 129.819 103.387 131.665H137.5C140.708 131.665 143.333 129.04 143.333 125.832V109.866C142.855 109.819 142.368 109.793 141.875 109.793Z" fill="black"/>
<path id="Vector_8" d="M128.75 118.014C128.75 118.014 134.627 111.25 141.875 111.25C149.123 111.25 155 117.39 155 124.775C155 129.354 150.625 133.79 150.625 133.79L130.964 154.052C129.742 155.312 127.758 155.312 126.536 154.052L106.878 133.79C106.878 133.79 102.503 129.351 102.503 124.775C102.5 117.39 108.377 111.25 115.625 111.25C122.873 111.25 128.75 118.014 128.75 118.014Z" fill="url(#paint5_linear_1_2448)"/>
</g>
<rect x="7.5" y="7.5" width="155" height="155" rx="12.5" stroke="#D5EAF6" stroke-width="15"/>
</g>
<defs>
<linearGradient id="paint0_linear_1_2448" x1="85" y1="15" x2="85" y2="155" gradientUnits="userSpaceOnUse">
<stop stop-color="#199AE0"/>
<stop offset="0.472222" stop-color="#0D5176" stop-opacity="0.527778"/>
<stop offset="0.940972" stop-color="#12A6F7" stop-opacity="0.465278"/>
<stop offset="1" stop-opacity="0"/>
</linearGradient>
<linearGradient id="paint1_linear_1_2448" x1="28.4575" y1="37.5766" x2="140.23" y2="60.3033" gradientUnits="userSpaceOnUse">
<stop stop-color="#0077D2"/>
<stop offset="1" stop-color="#0B59A2"/>
</linearGradient>
<linearGradient id="paint2_linear_1_2448" x1="34.6904" y1="45.3813" x2="38.4267" y2="50.7859" gradientUnits="userSpaceOnUse">
<stop stop-color="#75DAFF"/>
<stop offset="1" stop-color="#49BEF1"/>
</linearGradient>
<linearGradient id="paint3_linear_1_2448" x1="49.2737" y1="45.3813" x2="53.01" y2="50.7859" gradientUnits="userSpaceOnUse">
<stop stop-color="#75DAFF"/>
<stop offset="1" stop-color="#49BEF1"/>
</linearGradient>
<linearGradient id="paint4_linear_1_2448" x1="63.8571" y1="45.3813" x2="67.5933" y2="50.7859" gradientUnits="userSpaceOnUse">
<stop stop-color="#75DAFF"/>
<stop offset="1" stop-color="#49BEF1"/>
</linearGradient>
<linearGradient id="paint5_linear_1_2448" x1="118.547" y1="108.453" x2="143.24" y2="146.483" gradientUnits="userSpaceOnUse">
<stop stop-color="#F44F5A"/>
<stop offset="0.443" stop-color="#EE3D4A"/>
<stop offset="1" stop-color="#E52030"/>
</linearGradient>
<clipPath id="clip0_1_2448">
<rect x="15" y="15" width="140" height="140" rx="5" fill="white"/>
</clipPath>
</defs>
</svg>
