<svg width="170" height="170" viewBox="0 0 170 170" fill="none" xmlns="http://www.w3.org/2000/svg">
<g id="window-cloud">
<g clip-path="url(#clip0_1_2439)">
<rect x="15" y="15" width="140" height="140" rx="5" fill="white"/>
<rect x="15" y="15" width="140" height="140" rx="5" fill="url(#paint0_linear_1_2439)" fill-opacity="0.2"/>
<path id="Vector" d="M26.6667 125.833V58.75H143.333V125.833C143.333 129.042 140.708 131.667 137.5 131.667H32.5C29.2917 131.667 26.6667 129.042 26.6667 125.833Z" fill="#50E6FF"/>
<path id="Vector_2" d="M143.333 44.1654V58.7487H26.6667V44.1654C26.6667 40.957 29.2917 38.332 32.5 38.332H137.5C140.708 38.332 143.333 40.957 143.333 44.1654Z" fill="url(#paint1_linear_1_2439)"/>
<path id="Vector_3" d="M36.875 52.918C39.2912 52.918 41.25 50.9592 41.25 48.543C41.25 46.1267 39.2912 44.168 36.875 44.168C34.4588 44.168 32.5 46.1267 32.5 48.543C32.5 50.9592 34.4588 52.918 36.875 52.918Z" fill="url(#paint2_linear_1_2439)"/>
<path id="Vector_4" d="M51.4583 52.918C53.8746 52.918 55.8333 50.9592 55.8333 48.543C55.8333 46.1267 53.8746 44.168 51.4583 44.168C49.0421 44.168 47.0833 46.1267 47.0833 48.543C47.0833 50.9592 49.0421 52.918 51.4583 52.918Z" fill="url(#paint3_linear_1_2439)"/>
<path id="Vector_5" d="M66.0417 52.918C68.4579 52.918 70.4167 50.9592 70.4167 48.543C70.4167 46.1267 68.4579 44.168 66.0417 44.168C63.6254 44.168 61.6667 46.1267 61.6667 48.543C61.6667 50.9592 63.6254 52.918 66.0417 52.918Z" fill="url(#paint4_linear_1_2439)"/>
<path id="Vector_6" opacity="0.05" d="M143.333 118.003C142.324 117.7 141.309 117.44 140.306 117.3C136.202 110.055 128.318 105.418 120 105.418C109.319 105.418 99.98 112.771 97.3929 123.055C92.35 123.697 87.7533 126.561 84.9358 130.872L84.4108 131.668H137.5C140.708 131.668 143.333 129.043 143.333 125.835V118.003Z" fill="black"/>
<path id="Vector_7" opacity="0.07" d="M137.5 131.667C140.708 131.667 143.333 129.042 143.333 125.833V119.493C142.07 119.084 140.752 118.793 139.384 118.655C135.633 111.472 128.117 106.875 120 106.875C109.611 106.875 100.619 114.327 98.58 124.407C93.3796 124.728 88.85 127.545 86.155 131.667H137.5Z" fill="black"/>
<path id="Vector_8" d="M138.448 120.045C135.178 113.13 128.158 108.332 120 108.332C109.71 108.332 101.22 115.953 99.8108 125.855C99.735 125.852 99.6621 125.832 99.5833 125.832C91.5304 125.832 85 132.362 85 140.415C85 148.468 91.5304 154.999 99.5833 154.999C105.005 154.999 132.122 154.999 137.5 154.999C147.166 154.999 155 147.165 155 137.499C155 128.154 147.67 120.541 138.448 120.045Z" fill="url(#paint5_linear_1_2439)"/>
</g>
<rect x="7.5" y="7.5" width="155" height="155" rx="12.5" stroke="#D5EAF6" stroke-width="15"/>
</g>
<defs>
<linearGradient id="paint0_linear_1_2439" x1="85" y1="15" x2="85" y2="155" gradientUnits="userSpaceOnUse">
<stop stop-color="#199AE0"/>
<stop offset="0.472222" stop-color="#0D5176" stop-opacity="0.527778"/>
<stop offset="0.940972" stop-color="#12A6F7" stop-opacity="0.465278"/>
<stop offset="1" stop-opacity="0"/>
</linearGradient>
<linearGradient id="paint1_linear_1_2439" x1="28.4575" y1="37.5766" x2="140.23" y2="60.3033" gradientUnits="userSpaceOnUse">
<stop stop-color="#0077D2"/>
<stop offset="1" stop-color="#0B59A2"/>
</linearGradient>
<linearGradient id="paint2_linear_1_2439" x1="34.6904" y1="45.3813" x2="38.4267" y2="50.7859" gradientUnits="userSpaceOnUse">
<stop stop-color="#75DAFF"/>
<stop offset="1" stop-color="#49BEF1"/>
</linearGradient>
<linearGradient id="paint3_linear_1_2439" x1="49.2737" y1="45.3813" x2="53.01" y2="50.7859" gradientUnits="userSpaceOnUse">
<stop stop-color="#75DAFF"/>
<stop offset="1" stop-color="#49BEF1"/>
</linearGradient>
<linearGradient id="paint4_linear_1_2439" x1="63.8571" y1="45.3813" x2="67.5933" y2="50.7859" gradientUnits="userSpaceOnUse">
<stop stop-color="#75DAFF"/>
<stop offset="1" stop-color="#49BEF1"/>
</linearGradient>
<linearGradient id="paint5_linear_1_2439" x1="109.736" y1="110.581" x2="126.306" y2="155.982" gradientUnits="userSpaceOnUse">
<stop stop-color="#2AA4F4"/>
<stop offset="1" stop-color="#007AD9"/>
</linearGradient>
<clipPath id="clip0_1_2439">
<rect x="15" y="15" width="140" height="140" rx="5" fill="white"/>
</clipPath>
</defs>
</svg>
