<svg width="170" height="170" viewBox="0 0 170 170" fill="none" xmlns="http://www.w3.org/2000/svg">
<g id="window-settings">
<rect x="7.5" y="7.5" width="155" height="155" rx="12.5" fill="white"/>
<rect x="7.5" y="7.5" width="155" height="155" rx="12.5" fill="url(#paint0_linear_1_2481)" fill-opacity="0.2"/>
<path id="Vector" d="M26.6667 125.833V58.75H143.333V125.833C143.333 129.042 140.708 131.667 137.5 131.667H32.5C29.2917 131.667 26.6667 129.042 26.6667 125.833Z" fill="#50E6FF"/>
<path id="Vector_2" d="M143.333 44.1654V58.7487H26.6667V44.1654C26.6667 40.957 29.2917 38.332 32.5 38.332H137.5C140.708 38.332 143.333 40.957 143.333 44.1654Z" fill="url(#paint1_linear_1_2481)"/>
<path id="Vector_3" d="M36.875 52.918C39.2912 52.918 41.25 50.9592 41.25 48.543C41.25 46.1267 39.2912 44.168 36.875 44.168C34.4588 44.168 32.5 46.1267 32.5 48.543C32.5 50.9592 34.4588 52.918 36.875 52.918Z" fill="url(#paint2_linear_1_2481)"/>
<path id="Vector_4" d="M51.4583 52.918C53.8746 52.918 55.8333 50.9592 55.8333 48.543C55.8333 46.1267 53.8746 44.168 51.4583 44.168C49.0421 44.168 47.0833 46.1267 47.0833 48.543C47.0833 50.9592 49.0421 52.918 51.4583 52.918Z" fill="url(#paint3_linear_1_2481)"/>
<path id="Vector_5" d="M66.0417 52.918C68.4579 52.918 70.4167 50.9592 70.4167 48.543C70.4167 46.1267 68.4579 44.168 66.0417 44.168C63.6254 44.168 61.6667 46.1267 61.6667 48.543C61.6667 50.9592 63.6254 52.918 66.0417 52.918Z" fill="url(#paint4_linear_1_2481)"/>
<path id="Vector_6" opacity="0.05" d="M143.333 125.833V101.193C139.994 98.4251 136.144 96.2989 132.02 95.0797L129.511 94.3389L128.502 96.7539C127.557 99.0172 125.364 100.478 122.914 100.478C120.464 100.478 118.27 99.0172 117.325 96.7509L116.313 94.3359L113.805 95.0797C108.995 96.5059 104.515 99.0989 100.849 102.581L98.9563 104.381L100.537 106.458C102.019 108.409 102.185 111.037 100.96 113.157C99.8838 115.024 97.8683 116.185 95.7042 116.185C95.4533 116.185 95.1996 116.17 94.9458 116.135L92.35 115.808L91.7433 118.355C91.1367 120.878 90.8333 123.392 90.8333 125.833C90.8333 127.746 91.0754 129.703 91.4458 131.666H137.5C140.708 131.666 143.333 129.041 143.333 125.833Z" fill="black"/>
<path id="Vector_7" opacity="0.07" d="M143.333 125.832V113.188C142.438 111.202 142.441 108.985 143.333 107.031V103.094C139.947 100.052 135.928 97.7534 131.605 96.4759L130.351 96.1055L129.847 97.313C128.674 100.122 125.953 101.936 122.914 101.936C119.875 101.936 117.153 100.122 115.981 97.313L115.476 96.1055L114.222 96.4759C109.634 97.835 105.355 100.311 101.855 103.636L100.907 104.538L101.698 105.576C103.535 107.997 103.742 111.258 102.223 113.885C100.887 116.201 98.3904 117.642 95.7042 117.642C95.3921 117.642 95.0771 117.622 94.7621 117.581L93.4642 117.418L93.1608 118.692C92.5833 121.107 92.2917 123.51 92.2917 125.832C92.2917 127.743 92.5367 129.7 92.9246 131.665H137.5C140.708 131.665 143.333 129.04 143.333 125.832Z" fill="black"/>
<path id="Vector_8" d="M151.252 119.033C147.775 119.477 144.208 117.846 142.345 114.618C140.484 111.392 140.851 107.489 142.972 104.698C139.679 101.571 135.665 99.2002 131.194 97.8789C129.841 101.119 126.644 103.397 122.914 103.397C119.183 103.397 115.987 101.116 114.633 97.8789C110.162 99.2031 106.152 101.568 102.856 104.698C104.976 107.489 105.347 111.392 103.483 114.618C101.622 117.843 98.055 119.474 94.5754 119.033C94.0563 121.218 93.75 123.487 93.75 125.835C93.75 128.183 94.0562 130.452 94.5812 132.637C98.0579 132.193 101.625 133.827 103.489 137.053C105.35 140.278 104.982 144.181 102.862 146.972C106.155 150.099 110.168 152.47 114.639 153.791C115.992 150.551 119.189 148.273 122.92 148.273C126.65 148.273 129.847 150.554 131.2 153.791C135.671 152.467 139.682 150.102 142.977 146.972C140.857 144.181 140.484 140.278 142.35 137.053C144.211 133.827 147.778 132.196 151.258 132.637C151.777 130.452 152.083 128.183 152.083 125.835C152.083 123.487 151.777 121.218 151.252 119.033Z" fill="url(#paint5_linear_1_2481)"/>
<path id="Vector_9" d="M122.917 140.417C130.971 140.417 137.5 133.887 137.5 125.833C137.5 117.779 130.971 111.25 122.917 111.25C114.863 111.25 108.333 117.779 108.333 125.833C108.333 133.887 114.863 140.417 122.917 140.417Z" fill="url(#paint6_linear_1_2481)"/>
<path id="Vector_10" d="M122.917 134.582C127.749 134.582 131.667 130.665 131.667 125.832C131.667 121 127.749 117.082 122.917 117.082C118.084 117.082 114.167 121 114.167 125.832C114.167 130.665 118.084 134.582 122.917 134.582Z" fill="url(#paint7_linear_1_2481)"/>
<rect x="7.5" y="7.5" width="155" height="155" rx="12.5" stroke="#D5EAF6" stroke-width="15"/>
</g>
<defs>
<linearGradient id="paint0_linear_1_2481" x1="85" y1="15" x2="85" y2="155" gradientUnits="userSpaceOnUse">
<stop stop-color="#199AE0"/>
<stop offset="0.472222" stop-color="#0D5176" stop-opacity="0.527778"/>
<stop offset="0.940972" stop-color="#12A6F7" stop-opacity="0.465278"/>
<stop offset="1" stop-opacity="0"/>
</linearGradient>
<linearGradient id="paint1_linear_1_2481" x1="28.4575" y1="37.5766" x2="140.23" y2="60.3033" gradientUnits="userSpaceOnUse">
<stop stop-color="#0077D2"/>
<stop offset="1" stop-color="#0B59A2"/>
</linearGradient>
<linearGradient id="paint2_linear_1_2481" x1="34.6904" y1="45.3813" x2="38.4267" y2="50.7859" gradientUnits="userSpaceOnUse">
<stop stop-color="#75DAFF"/>
<stop offset="1" stop-color="#49BEF1"/>
</linearGradient>
<linearGradient id="paint3_linear_1_2481" x1="49.2737" y1="45.3813" x2="53.01" y2="50.7859" gradientUnits="userSpaceOnUse">
<stop stop-color="#75DAFF"/>
<stop offset="1" stop-color="#49BEF1"/>
</linearGradient>
<linearGradient id="paint4_linear_1_2481" x1="63.8571" y1="45.3813" x2="67.5933" y2="50.7859" gradientUnits="userSpaceOnUse">
<stop stop-color="#75DAFF"/>
<stop offset="1" stop-color="#49BEF1"/>
</linearGradient>
<linearGradient id="paint5_linear_1_2481" x1="103.051" y1="105.97" x2="144.576" y2="147.494" gradientUnits="userSpaceOnUse">
<stop stop-color="#889097"/>
<stop offset="0.331" stop-color="#848C94"/>
<stop offset="0.669" stop-color="#78828B"/>
<stop offset="1" stop-color="#64717C"/>
</linearGradient>
<linearGradient id="paint6_linear_1_2481" x1="133.078" y1="135.995" x2="112.621" y2="115.537" gradientUnits="userSpaceOnUse">
<stop stop-color="white"/>
<stop offset="0.242" stop-color="#fcfcfc"/>
<stop offset="1" stop-color="#CCCCCC"/>
</linearGradient>
<linearGradient id="paint7_linear_1_2481" x1="114.73" y1="117.645" x2="129.091" y2="132.007" gradientUnits="userSpaceOnUse">
<stop stop-color="#0D61A9"/>
<stop offset="0.363" stop-color="#0E5FA4"/>
<stop offset="0.78" stop-color="#135796"/>
<stop offset="1" stop-color="#16528C"/>
</linearGradient>
</defs>
</svg>
