<svg width="170" height="170" viewBox="0 0 170 170" fill="none" xmlns="http://www.w3.org/2000/svg">
<g id="windows-calendar">
<rect x="7.5" y="7.5" width="155" height="155" rx="12.5" fill="white"/>
<rect x="7.5" y="7.5" width="155" height="155" rx="12.5" fill="url(#paint0_linear_1_2462)" fill-opacity="0.2"/>
<path id="Vector" d="M137.5 55.8333H32.5V38.3333C32.5 35.1104 35.1104 32.5 38.3333 32.5H131.667C134.89 32.5 137.5 35.1104 137.5 38.3333V55.8333Z" fill="url(#paint1_linear_1_2462)"/>
<path id="Vector_2" d="M32.5 55.832V131.665C32.5 134.888 35.1104 137.499 38.3333 137.499H131.667C134.89 137.499 137.5 134.888 137.5 131.665V55.832H32.5Z" fill="url(#paint2_linear_1_2462)"/>
<path id="Vector_3" d="M76.25 82.0846H70.4167C68.8067 82.0846 67.5 80.778 67.5 79.168V73.3346C67.5 71.7246 68.8067 70.418 70.4167 70.418H76.25C77.86 70.418 79.1667 71.7246 79.1667 73.3346V79.168C79.1667 80.778 77.86 82.0846 76.25 82.0846Z" fill="white"/>
<path id="Vector_4" d="M99.5833 82.0846H93.75C92.14 82.0846 90.8333 80.778 90.8333 79.168V73.3346C90.8333 71.7246 92.14 70.418 93.75 70.418H99.5833C101.193 70.418 102.5 71.7246 102.5 73.3346V79.168C102.5 80.778 101.193 82.0846 99.5833 82.0846Z" fill="white"/>
<path id="Vector_5" d="M122.917 82.0846H117.083C115.473 82.0846 114.167 80.778 114.167 79.168V73.3346C114.167 71.7246 115.473 70.418 117.083 70.418H122.917C124.527 70.418 125.833 71.7246 125.833 73.3346V79.168C125.833 80.778 124.527 82.0846 122.917 82.0846Z" fill="white"/>
<path id="Vector_6" d="M76.25 102.499H70.4167C68.8067 102.499 67.5 101.192 67.5 99.582V93.7487C67.5 92.1387 68.8067 90.832 70.4167 90.832H76.25C77.86 90.832 79.1667 92.1387 79.1667 93.7487V99.582C79.1667 101.192 77.86 102.499 76.25 102.499Z" fill="white"/>
<path id="Vector_7" d="M52.9167 102.499H47.0833C45.4733 102.499 44.1667 101.192 44.1667 99.582V93.7487C44.1667 92.1387 45.4733 90.832 47.0833 90.832H52.9167C54.5267 90.832 55.8333 92.1387 55.8333 93.7487V99.582C55.8333 101.192 54.5267 102.499 52.9167 102.499Z" fill="white"/>
<path id="Vector_8" d="M99.5833 102.499H93.75C92.14 102.499 90.8333 101.192 90.8333 99.582V93.7487C90.8333 92.1387 92.14 90.832 93.75 90.832H99.5833C101.193 90.832 102.5 92.1387 102.5 93.7487V99.582C102.5 101.192 101.193 102.499 99.5833 102.499Z" fill="white"/>
<path id="Vector_9" d="M76.25 122.917H70.4167C68.8067 122.917 67.5 121.61 67.5 120V114.167C67.5 112.557 68.8067 111.25 70.4167 111.25H76.25C77.86 111.25 79.1667 112.557 79.1667 114.167V120C79.1667 121.61 77.86 122.917 76.25 122.917Z" fill="white"/>
<path id="Vector_10" d="M52.9167 122.917H47.0833C45.4733 122.917 44.1667 121.61 44.1667 120V114.167C44.1667 112.557 45.4733 111.25 47.0833 111.25H52.9167C54.5267 111.25 55.8333 112.557 55.8333 114.167V120C55.8333 121.61 54.5267 122.917 52.9167 122.917Z" fill="white"/>
<path id="Vector_11" d="M99.5833 122.917H93.75C92.14 122.917 90.8333 121.61 90.8333 120V114.167C90.8333 112.557 92.14 111.25 93.75 111.25H99.5833C101.193 111.25 102.5 112.557 102.5 114.167V120C102.5 121.61 101.193 122.917 99.5833 122.917Z" fill="white"/>
<path id="Vector_12" d="M122.917 102.499H117.083C115.473 102.499 114.167 101.192 114.167 99.582V93.7487C114.167 92.1387 115.473 90.832 117.083 90.832H122.917C124.527 90.832 125.833 92.1387 125.833 93.7487V99.582C125.833 101.192 124.527 102.499 122.917 102.499Z" fill="white"/>
<path id="Vector_13" opacity="0.05" d="M55.8333 32.5V42.7083C55.8333 43.5133 55.1771 44.1667 54.375 44.1667C53.5729 44.1667 52.9167 43.5133 52.9167 42.7083V32.5H47.0833V42.7083C47.0833 46.7275 50.3529 50 54.375 50C58.3971 50 61.6667 46.7275 61.6667 42.7083V32.5H55.8333Z" fill="black"/>
<path id="Vector_14" opacity="0.07" d="M57.2917 32.5V42.7083C57.2917 44.3154 55.985 45.625 54.375 45.625C52.765 45.625 51.4583 44.3154 51.4583 42.7083V32.5H48.5417V42.7083C48.5417 45.9254 51.1579 48.5417 54.375 48.5417C57.5921 48.5417 60.2083 45.9254 60.2083 42.7083V32.5H57.2917Z" fill="black"/>
<path id="Vector_15" opacity="0.05" d="M117.083 32.5V42.7083C117.083 43.5133 116.427 44.1667 115.625 44.1667C114.823 44.1667 114.167 43.5133 114.167 42.7083V32.5H108.333V42.7083C108.333 46.7275 111.603 50 115.625 50C119.647 50 122.917 46.7275 122.917 42.7083V32.5H117.083Z" fill="black"/>
<path id="Vector_16" opacity="0.07" d="M118.542 32.5V42.7083C118.542 44.3154 117.235 45.625 115.625 45.625C114.015 45.625 112.708 44.3154 112.708 42.7083V32.5H109.792V42.7083C109.792 45.9254 112.408 48.5417 115.625 48.5417C118.842 48.5417 121.458 45.9254 121.458 42.7083V32.5H118.542Z" fill="black"/>
<path id="Vector_17" d="M115.625 47.0833C113.21 47.0833 111.25 45.1233 111.25 42.7083V28.125C111.25 25.71 113.21 23.75 115.625 23.75C118.04 23.75 120 25.71 120 28.125V42.7083C120 45.1233 118.04 47.0833 115.625 47.0833Z" fill="#54DAFF"/>
<path id="Vector_18" d="M54.375 47.0833C51.96 47.0833 50 45.1233 50 42.7083V28.125C50 25.71 51.96 23.75 54.375 23.75C56.79 23.75 58.75 25.71 58.75 28.125V42.7083C58.75 45.1233 56.79 47.0833 54.375 47.0833Z" fill="#54DAFF"/>
<rect x="7.5" y="7.5" width="155" height="155" rx="12.5" stroke="#D5EAF6" stroke-width="15"/>
</g>
<defs>
<linearGradient id="paint0_linear_1_2462" x1="85" y1="15" x2="85" y2="155" gradientUnits="userSpaceOnUse">
<stop stop-color="#199AE0"/>
<stop offset="0.472222" stop-color="#0D5176" stop-opacity="0.527778"/>
<stop offset="0.940972" stop-color="#12A6F7" stop-opacity="0.465278"/>
<stop offset="1" stop-opacity="0"/>
</linearGradient>
<linearGradient id="paint1_linear_1_2462" x1="82.1417" y1="27.7225" x2="88.1004" y2="67.6283" gradientUnits="userSpaceOnUse">
<stop offset="0.042" stop-color="#076DB4"/>
<stop offset="0.85" stop-color="#0461AF"/>
</linearGradient>
<linearGradient id="paint2_linear_1_2462" x1="78.1021" y1="33.7149" x2="95.4038" y2="184.728" gradientUnits="userSpaceOnUse">
<stop stop-color="#0176D0"/>
<stop offset="1" stop-color="#0A85D9"/>
</linearGradient>
</defs>
</svg>
