<svg width="170" height="170" viewBox="0 0 170 170" fill="none" xmlns="http://www.w3.org/2000/svg">
<g id="workflow">
<rect x="7.5" y="7.5" width="155" height="155" rx="12.5" fill="white"/>
<rect x="7.5" y="7.5" width="155" height="155" rx="12.5" fill="url(#paint0_linear_1_2492)" fill-opacity="0.2"/>
<path id="Vector" d="M50 67.5C59.665 67.5 67.5 59.665 67.5 50C67.5 40.335 59.665 32.5 50 32.5C40.335 32.5 32.5 40.335 32.5 50C32.5 59.665 40.335 67.5 50 67.5Z" fill="#33C481"/>
<path id="Vector_2" d="M131.667 137.5H108.333C105.11 137.5 102.5 134.89 102.5 131.667V108.333C102.5 105.11 105.11 102.5 108.333 102.5H131.667C134.89 102.5 137.5 105.11 137.5 108.333V131.667C137.5 134.89 134.89 137.5 131.667 137.5Z" fill="url(#paint1_linear_1_2492)"/>
<path id="Vector_3" d="M117.078 67.7468L102.252 52.9214C100.636 51.3055 100.636 48.6893 102.252 47.0764L117.078 32.2509C118.693 30.6351 121.31 30.6351 122.923 32.2509L137.748 47.0764C139.364 48.6922 139.364 51.3084 137.748 52.9214L122.923 67.7468C121.31 69.3597 118.69 69.3597 117.078 67.7468Z" fill="url(#paint2_linear_1_2492)"/>
<path id="Vector_4" d="M50 96.6667C48.39 96.6667 47.0833 95.36 47.0833 93.75V79.1667C47.0833 77.5567 48.39 76.25 50 76.25C51.61 76.25 52.9167 77.5567 52.9167 79.1667V93.75C52.9167 95.36 51.61 96.6667 50 96.6667Z" fill="#7A848D"/>
<path id="Vector_5" d="M120 93.7487C118.39 93.7487 117.083 92.442 117.083 90.832V76.2487C117.083 74.6387 118.39 73.332 120 73.332C121.61 73.332 122.917 74.6387 122.917 76.2487V90.832C122.917 92.442 121.61 93.7487 120 93.7487Z" fill="#7A848D"/>
<path id="Vector_6" d="M90.8333 52.9154H76.25C74.64 52.9154 73.3333 51.6087 73.3333 49.9987C73.3333 48.3887 74.64 47.082 76.25 47.082H90.8333C92.4433 47.082 93.75 48.3887 93.75 49.9987C93.75 51.6087 92.4433 52.9154 90.8333 52.9154Z" fill="#7A848D"/>
<path id="Vector_7" d="M67.5 137.499H32.5C31.45 137.499 30.4787 136.933 29.9625 136.02C29.4433 135.108 29.4579 133.985 30.0004 133.083L47.5004 103.917C48.5533 102.158 51.4496 102.158 52.5025 103.917L70.0025 133.083C70.545 133.985 70.5567 135.108 70.0404 136.02C69.5212 136.933 68.55 137.499 67.5 137.499Z" fill="#ED6C47"/>
<path id="Vector_8" d="M52.9167 82.0828H47.0833C45.905 82.0828 44.8404 81.3711 44.3883 80.2832C43.9363 79.1923 44.1871 77.9382 45.0213 77.104L47.9379 74.1873C49.0783 73.0469 50.9217 73.0469 52.0621 74.1873L54.9787 77.104C55.8129 77.9382 56.0637 79.1923 55.6117 80.2832C55.1596 81.3711 54.095 82.0828 52.9167 82.0828Z" fill="#7A848D"/>
<path id="Vector_9" d="M87.9167 52.9185V47.0852C87.9167 45.9069 88.6283 44.8423 89.7162 44.3902C90.8071 43.9381 92.0613 44.1889 92.8954 45.0231L95.8121 47.9398C96.9525 49.0802 96.9525 50.9235 95.8121 52.0639L92.8954 54.9806C92.0613 55.8148 90.8071 56.0656 89.7162 55.6135C88.6283 55.1614 87.9167 54.0969 87.9167 52.9185Z" fill="#7A848D"/>
<path id="Vector_10" d="M117.083 87.918H122.917C124.095 87.918 125.16 88.6296 125.612 89.7176C126.064 90.8084 125.813 92.0626 124.979 92.8967L122.062 95.8134C120.922 96.9538 119.078 96.9538 117.938 95.8134L115.021 92.8967C114.187 92.0626 113.936 90.8084 114.388 89.7176C114.84 88.6296 115.905 87.918 117.083 87.918Z" fill="#7A848D"/>
<rect x="7.5" y="7.5" width="155" height="155" rx="12.5" stroke="#D5EAF6" stroke-width="15"/>
</g>
<defs>
<linearGradient id="paint0_linear_1_2492" x1="85" y1="15" x2="85" y2="155" gradientUnits="userSpaceOnUse">
<stop stop-color="#199AE0"/>
<stop offset="0.472222" stop-color="#0D5176" stop-opacity="0.527778"/>
<stop offset="0.940972" stop-color="#12A6F7" stop-opacity="0.465278"/>
<stop offset="1" stop-opacity="0"/>
</linearGradient>
<linearGradient id="paint1_linear_1_2492" x1="102.5" y1="120" x2="137.5" y2="120" gradientUnits="userSpaceOnUse">
<stop stop-color="#C965EB"/>
<stop offset="1" stop-color="#C767E5"/>
</linearGradient>
<linearGradient id="paint2_linear_1_2492" x1="101.042" y1="49.9989" x2="138.961" y2="49.9989" gradientUnits="userSpaceOnUse">
<stop stop-color="#42A3F2"/>
<stop offset="1" stop-color="#42A4EB"/>
</linearGradient>
</defs>
</svg>
