<svg width="170" height="170" viewBox="0 0 170 170" fill="none" xmlns="http://www.w3.org/2000/svg">
<g id="x2">
<rect x="7.5" y="7.5" width="155" height="155" rx="12.5" fill="white"/>
<rect x="7.5" y="7.5" width="155" height="155" rx="12.5" fill="url(#paint0_linear_1_2508)" fill-opacity="0.2"/>
<path id="Vector" d="M137.5 125.833C137.5 132.276 132.276 137.5 125.833 137.5H44.1667C37.7237 137.5 32.5 132.276 32.5 125.833V44.1667C32.5 37.7237 37.7237 32.5 44.1667 32.5H125.833C132.276 32.5 137.5 37.7237 137.5 44.1667V125.833Z" fill="url(#paint1_linear_1_2508)"/>
<path id="Vector_2" opacity="0.05" d="M88.2083 122.916L83.8596 115.26L79.4437 122.916H64.9333L76.4221 106.341L65.6917 89.3743H80.0533L84.2679 97.3106L88.71 89.3743H96.6171V82.6397L97.7779 81.7618C98.6792 81.0852 99.6096 80.4843 100.546 79.9739C101.482 79.4606 102.48 79.0202 103.512 78.6702C104.527 78.3202 105.618 78.0518 106.75 77.8797C107.852 77.7135 109.027 77.6289 110.247 77.6289C112.285 77.6289 114.193 77.9089 115.902 78.4602C117.713 79.0464 119.291 79.9302 120.595 81.0822C121.934 82.2635 122.978 83.751 123.695 85.4952C124.387 87.1839 124.74 89.106 124.74 91.206C124.74 93.0668 124.5 94.7818 124.028 96.3043C123.558 97.8152 122.885 99.2414 122.027 100.545C121.202 101.805 120.19 103.013 119.029 104.13C117.967 105.151 116.786 106.203 115.482 107.28C114.394 108.158 113.335 108.998 112.285 109.814C111.457 110.456 110.699 111.08 110.016 111.696H125.335V122.916H88.2083ZM95.8062 112.67C95.8062 112.664 95.8092 112.661 95.8092 112.655C96.2262 111.366 96.7833 110.135 97.4775 108.995C98.1629 107.872 98.9621 106.819 99.8517 105.856C100.695 104.943 101.593 104.066 102.55 103.22C103.471 102.4 104.416 101.607 105.373 100.846C106.28 100.131 107.158 99.4135 108.021 98.6902C108.785 98.0456 109.485 97.4068 110.118 96.7827C110.667 96.2431 111.136 95.686 111.515 95.126C111.851 94.6272 112.119 94.0935 112.306 93.5422C112.475 93.0435 112.56 92.4777 112.56 91.8622C112.56 91.2235 112.475 90.6927 112.303 90.2785C112.151 89.911 111.965 89.6339 111.717 89.4093C111.448 89.1672 111.125 88.9835 110.725 88.8493C110.258 88.6889 109.716 88.6102 109.115 88.6102C107.954 88.6102 106.726 88.8989 105.466 89.4647C104.148 90.0597 102.838 90.9843 101.572 92.2181L99.5075 94.2335L91.5625 106.3L95.8062 112.67Z" fill="black"/>
<path id="Vector_3" opacity="0.07" d="M106.787 113.158C106.825 113.097 106.86 113.042 106.901 112.981C107.347 112.313 107.954 111.624 108.698 110.936C109.494 110.195 110.398 109.44 111.402 108.667C112.443 107.859 113.496 107.025 114.563 106.161C115.838 105.111 116.99 104.082 118.028 103.084C119.11 102.043 120.05 100.92 120.82 99.7476C121.601 98.5605 122.217 97.2568 122.645 95.8743C123.074 94.4859 123.293 92.9168 123.293 91.2076C123.293 89.2972 122.978 87.5618 122.357 86.0509C121.724 84.5139 120.808 83.2072 119.635 82.1747C118.483 81.1539 117.08 80.3722 115.462 79.8472C113.895 79.3426 112.142 79.0859 110.252 79.0859C109.097 79.0859 107.995 79.1647 106.974 79.3193C105.927 79.4797 104.921 79.7247 103.99 80.0455C103.051 80.3664 102.127 80.7718 101.252 81.253C100.371 81.7314 99.4987 82.2943 98.6617 82.9243L98.0812 83.3618V90.8343H89.5704L84.2387 100.357L79.1754 90.8343H68.34L78.1721 106.38L67.7188 121.459H78.5979L83.8683 112.324L89.0542 121.459H123.882V113.158H106.787V113.158ZM103.518 104.312C102.599 105.126 101.736 105.972 100.925 106.847C100.097 107.745 99.3558 108.725 98.7229 109.755C98.09 110.793 97.5767 111.919 97.2004 113.1C96.8533 114.179 96.6842 115.349 96.6492 116.565L89.8154 106.301L98.3758 93.2959L100.555 91.1697C101.943 89.8164 103.395 88.7955 104.868 88.1305C106.315 87.4772 107.744 87.1476 109.115 87.1476C109.873 87.1476 110.57 87.2526 111.192 87.4626C111.781 87.6609 112.274 87.9439 112.694 88.323C113.105 88.6934 113.417 89.1514 113.653 89.7201C113.895 90.3093 114.018 91.0268 114.018 91.8551C114.018 92.628 113.907 93.3514 113.688 94.0018C113.461 94.6726 113.137 95.3259 112.726 95.9355C112.297 96.5714 111.766 97.2043 111.148 97.8139C110.489 98.4643 109.76 99.1293 108.963 99.803C108.091 100.535 107.202 101.261 106.286 101.985C105.347 102.734 104.422 103.51 103.518 104.312Z" fill="black"/>
<path id="Vector_4" d="M97.2908 92.293H90.4221L84.2242 103.362H84.1454C83.8012 102.656 83.4512 101.97 83.0896 101.305L78.3004 92.293H70.9912L79.925 106.418L70.5042 120.001H77.755L82.7046 111.423C83.39 110.254 83.7692 109.583 83.8421 109.423H83.95C84.3671 110.23 84.7258 110.901 85.0321 111.423L89.9058 120.001H97.1829L88.0654 106.31L97.2908 92.293Z" fill="white"/>
<path id="Vector_5" d="M122.427 120.001V114.616H104.918V114.479C104.918 113.704 105.178 112.934 105.691 112.166C106.207 111.399 106.878 110.635 107.706 109.865C108.535 109.098 109.468 108.316 110.506 107.511C111.545 106.706 112.586 105.881 113.633 105.032C114.875 104.006 116.004 103.005 117.013 102.031C118.023 101.057 118.886 100.027 119.598 98.9452C120.309 97.8631 120.86 96.6965 121.248 95.4423C121.636 94.1881 121.829 92.7765 121.829 91.2073C121.829 89.4748 121.552 87.9435 121.003 86.6077C120.455 85.2719 119.673 84.1577 118.661 83.2652C117.652 82.3698 116.433 81.696 115.01 81.2352C113.586 80.7773 111.997 80.5469 110.247 80.5469C109.165 80.5469 108.144 80.6169 107.187 80.7627C106.233 80.9085 105.32 81.1273 104.454 81.4277C103.588 81.7252 102.748 82.0956 101.94 82.536C101.126 82.9794 100.324 83.4956 99.5308 84.0935V90.1252C101.048 88.6465 102.625 87.5352 104.265 86.7973C105.907 86.0565 107.522 85.686 109.109 85.686C110.028 85.686 110.877 85.8173 111.653 86.0798C112.428 86.3423 113.099 86.7302 113.668 87.2406C114.234 87.7569 114.677 88.3956 114.992 89.1627C115.307 89.9298 115.467 90.8252 115.467 91.8548C115.467 92.791 115.33 93.6631 115.059 94.4681C114.788 95.2731 114.409 96.0315 113.922 96.7548C113.435 97.4752 112.848 98.1723 112.16 98.8519C111.478 99.5256 110.719 100.22 109.888 100.92C109.004 101.661 108.106 102.396 107.181 103.128C106.265 103.857 105.361 104.615 104.475 105.4C103.591 106.184 102.763 106.995 101.984 107.835C101.208 108.672 100.534 109.568 99.9567 110.513C99.3792 111.461 98.9213 112.473 98.5771 113.543C98.2329 114.616 98.0608 115.769 98.0608 116.996V120.001H122.427Z" fill="white"/>
<rect x="7.5" y="7.5" width="155" height="155" rx="12.5" stroke="#D5EAF6" stroke-width="15"/>
</g>
<defs>
<linearGradient id="paint0_linear_1_2508" x1="85" y1="15" x2="85" y2="155" gradientUnits="userSpaceOnUse">
<stop stop-color="#199AE0"/>
<stop offset="0.472222" stop-color="#0D5176" stop-opacity="0.527778"/>
<stop offset="0.940972" stop-color="#12A6F7" stop-opacity="0.465278"/>
<stop offset="1" stop-opacity="0"/>
</linearGradient>
<linearGradient id="paint1_linear_1_2508" x1="34.9063" y1="31.1496" x2="135.951" y2="139.775" gradientUnits="userSpaceOnUse">
<stop stop-color="#0176D0"/>
<stop offset="1" stop-color="#0A85D9"/>
</linearGradient>
</defs>
</svg>
