<svg width="191" height="191" viewBox="0 0 191 191" fill="none" xmlns="http://www.w3.org/2000/svg">
<path d="M168.8 8H22.026C14.2316 8 7.91309 14.3186 7.91309 22.1129V168.887C7.91309 176.681 14.2316 183 22.026 183H168.8C176.595 183 182.913 176.681 182.913 168.887V22.1129C182.913 14.3186 176.595 8 168.8 8Z" fill="white"/>
<path d="M168.8 8H22.026C14.2316 8 7.91309 14.3186 7.91309 22.1129V168.887C7.91309 176.681 14.2316 183 22.026 183H168.8C176.595 183 182.913 176.681 182.913 168.887V22.1129C182.913 14.3186 176.595 8 168.8 8Z" fill="url(#paint0_linear_62_9890)" fill-opacity="0.2"/>
<path d="M168.8 8H22.026C14.2316 8 7.91309 14.3186 7.91309 22.1129V168.887C7.91309 176.681 14.2316 183 22.026 183H168.8C176.595 183 182.913 176.681 182.913 168.887V22.1129C182.913 14.3186 176.595 8 168.8 8Z" stroke="#D5EAF6" stroke-width="15"/>
<path d="M137.913 139.5H57.9131C55.1631 139.5 52.9131 137.25 52.9131 134.5V77C52.9131 74.25 55.1631 72 57.9131 72H137.913C140.663 72 142.913 74.25 142.913 77V134.5C142.913 137.25 140.663 139.5 137.913 139.5Z" fill="url(#paint1_linear_62_9890)"/>
<path d="M130.413 77H65.4131C64.0331 77 62.9131 75.88 62.9131 74.5V72H132.913V74.5C132.913 75.88 131.793 77 130.413 77Z" fill="#586067"/>
<path d="M127.913 49.5V77H67.9131V49.5C67.9131 46.7375 70.1506 44.5 72.9131 44.5H122.913C125.676 44.5 127.913 46.7375 127.913 49.5Z" fill="url(#paint2_linear_62_9890)"/>
<path d="M97.9131 134.5C113.101 134.5 125.413 122.188 125.413 107C125.413 91.8122 113.101 79.5 97.9131 79.5C82.7253 79.5 70.4131 91.8122 70.4131 107C70.4131 122.188 82.7253 134.5 97.9131 134.5Z" fill="url(#paint3_radial_62_9890)"/>
<path d="M97.913 131.445C111.414 131.445 122.358 120.501 122.358 107C122.358 93.4993 111.414 82.5549 97.913 82.5549C84.4124 82.5549 73.468 93.4993 73.468 107C73.468 120.501 84.4124 131.445 97.913 131.445Z" fill="url(#paint4_radial_62_9890)"/>
<path d="M106.833 124.318C106.271 124.608 105.581 124.385 105.291 123.823L96.8956 107.525C96.6056 106.963 96.8281 106.273 97.3906 105.983C97.9531 105.693 98.6431 105.915 98.9331 106.478L107.328 122.775C107.616 123.338 107.396 124.028 106.833 124.318Z" fill="#D83B01"/>
<path d="M97.9132 108.145C97.6182 108.145 97.3257 108.032 97.1032 107.81C96.6557 107.362 96.6557 106.637 97.1032 106.19L110.066 93.2275C110.513 92.78 111.238 92.78 111.686 93.2275C112.133 93.675 112.133 94.4 111.686 94.8475L98.7232 107.81C98.5007 108.035 98.2082 108.145 97.9132 108.145Z" fill="#45494D"/>
<path d="M97.9106 108.91C97.6331 108.91 97.3531 108.85 97.0856 108.722L85.1881 103.015C84.2381 102.557 83.8356 101.417 84.2931 100.467C84.7506 99.5174 85.8906 99.1149 86.8406 99.5724L98.7381 105.28C99.6881 105.737 100.091 106.877 99.6331 107.827C99.3056 108.51 98.6231 108.91 97.9106 108.91Z" fill="#45494D"/>
<path d="M97.9132 110.055C99.6004 110.055 100.968 108.687 100.968 107C100.968 105.313 99.6004 103.945 97.9132 103.945C96.2259 103.945 94.8582 105.313 94.8582 107C94.8582 108.687 96.2259 110.055 97.9132 110.055Z" fill="#1E2021"/>
<path d="M112.913 67H92.9131C91.5331 67 90.4131 68.12 90.4131 69.5C90.4131 70.88 91.5331 72 92.9131 72H112.913C114.293 72 115.413 70.88 115.413 69.5C115.413 68.12 114.293 67 112.913 67Z" fill="#057093"/>
<path d="M82.9131 72C84.2938 72 85.4131 70.8807 85.4131 69.5C85.4131 68.1193 84.2938 67 82.9131 67C81.5324 67 80.4131 68.1193 80.4131 69.5C80.4131 70.8807 81.5324 72 82.9131 72Z" fill="#057093"/>
<path d="M112.913 57H92.9131C91.5331 57 90.4131 58.12 90.4131 59.5C90.4131 60.88 91.5331 62 92.9131 62H112.913C114.293 62 115.413 60.88 115.413 59.5C115.413 58.12 114.293 57 112.913 57Z" fill="#057093"/>
<path d="M82.9131 62C84.2938 62 85.4131 60.8807 85.4131 59.5C85.4131 58.1193 84.2938 57 82.9131 57C81.5324 57 80.4131 58.1193 80.4131 59.5C80.4131 60.8807 81.5324 62 82.9131 62Z" fill="#057093"/>
<defs>
<linearGradient id="paint0_linear_62_9890" x1="95.4131" y1="16.4677" x2="95.4131" y2="174.532" gradientUnits="userSpaceOnUse">
<stop stop-color="white"/>
<stop offset="0.472222" stop-color="#0D5176" stop-opacity="0.527778"/>
<stop offset="0.940972" stop-color="#12A6F7" stop-opacity="0.465278"/>
<stop offset="1" stop-opacity="0"/>
</linearGradient>
<linearGradient id="paint1_linear_62_9890" x1="95.5756" y1="73.9225" x2="100.531" y2="141.407" gradientUnits="userSpaceOnUse">
<stop stop-color="#889097"/>
<stop offset="1" stop-color="#64717C"/>
</linearGradient>
<linearGradient id="paint2_linear_62_9890" x1="97.9131" y1="44.7175" x2="97.9131" y2="77.2175" gradientUnits="userSpaceOnUse">
<stop offset="0.647" stop-color="#50E6FF"/>
<stop offset="1" stop-color="#2AB1C7"/>
</linearGradient>
<radialGradient id="paint3_radial_62_9890" cx="0" cy="0" r="1" gradientUnits="userSpaceOnUse" gradientTransform="translate(97.9131 107) scale(27.5)">
<stop/>
<stop offset="1" stop-opacity="0"/>
</radialGradient>
<radialGradient id="paint4_radial_62_9890" cx="0" cy="0" r="1" gradientUnits="userSpaceOnUse" gradientTransform="translate(97.7555 83.1224) scale(54.4725)">
<stop stop-color="#FAFAFB"/>
<stop offset="1" stop-color="#C8CDD1"/>
</radialGradient>
</defs>
</svg>
