<svg width="199" height="199" viewBox="0 0 199 199" fill="none" xmlns="http://www.w3.org/2000/svg">
<g filter="url(#filter0_d_65_10442)">
<path d="M172.887 8H26.1129C18.3186 8 12 14.3186 12 22.1129V168.887C12 176.681 18.3186 183 26.1129 183H172.887C180.681 183 187 176.681 187 168.887V22.1129C187 14.3186 180.681 8 172.887 8Z" fill="white"/>
<path d="M172.887 8H26.1129C18.3186 8 12 14.3186 12 22.1129V168.887C12 176.681 18.3186 183 26.1129 183H172.887C180.681 183 187 176.681 187 168.887V22.1129C187 14.3186 180.681 8 172.887 8Z" fill="url(#paint0_linear_65_10442)" fill-opacity="0.2"/>
<path d="M172.887 8H26.1129C18.3186 8 12 14.3186 12 22.1129V168.887C12 176.681 18.3186 183 26.1129 183H172.887C180.681 183 187 176.681 187 168.887V22.1129C187 14.3186 180.681 8 172.887 8Z" stroke="#D5EAF6" stroke-width="15" stroke-linecap="round"/>
</g>
<g filter="url(#filter1_bd_65_10442)">
<path d="M152.326 43H47.674C43.453 43 40 46.6688 40 51.1536V62.125V136.846C40 141.331 43.453 145 47.674 145H152.326C156.547 145 160 141.331 160 136.846V62.125V51.1536C160 46.6688 156.547 43 152.326 43Z" fill="url(#paint1_linear_65_10442)"/>
<path d="M131.469 98H55.5312C54.134 98 53 97.552 53 97V95C53 94.448 54.134 94 55.5312 94H131.469C132.866 94 134 94.448 134 95V97C134 97.552 132.866 98 131.469 98Z" fill="#2E6B7E"/>
<path d="M140.188 90H55.8125C54.26 90 53 89.552 53 89V87C53 86.448 54.26 86 55.8125 86H140.188C141.74 86 143 86.448 143 87V89C143 89.552 141.74 90 140.188 90Z" fill="#2E6B7E"/>
<path d="M96.5938 80H54.4062C53.63 80 53 79.664 53 79.25V77.75C53 77.336 53.63 77 54.4062 77H96.5938C97.37 77 98 77.336 98 77.75V79.25C98 79.664 97.37 80 96.5938 80Z" fill="#2E6B7E" fill-opacity="0.8"/>
<path d="M97.6708 109.225H54.2302C53.4309 109.225 52.7822 108.797 52.7822 108.269V106.356C52.7822 105.828 53.4309 105.4 54.2302 105.4H97.6708C98.4701 105.4 99.1189 105.828 99.1189 106.356V108.269C99.1189 108.797 98.4701 109.225 97.6708 109.225Z" fill="#2E6B7E"/>
<path d="M97.6708 120.7H54.2302C53.4309 120.7 52.7822 120.272 52.7822 119.744V117.831C52.7822 117.303 53.4309 116.875 54.2302 116.875H97.6708C98.4701 116.875 99.1189 117.303 99.1189 117.831V119.744C99.1189 120.272 98.4701 120.7 97.6708 120.7Z" fill="#2E6B7E"/>
<path d="M54.2642 70V55.4545H57.3395V61.456H63.5824V55.4545H66.6506V70H63.5824V63.9915H57.3395V70H54.2642ZM69.1861 70V55.4545H74.9247C76.0232 55.4545 76.9607 55.651 77.7372 56.044C78.5185 56.4323 79.1127 56.9839 79.5199 57.6989C79.9318 58.4091 80.1378 59.2448 80.1378 60.206C80.1378 61.1719 79.9295 62.0028 79.5128 62.6989C79.0961 63.3902 78.4924 63.9205 77.7017 64.2898C76.9157 64.6591 75.964 64.8438 74.8466 64.8438H71.0043V62.3722H74.3494C74.9366 62.3722 75.4242 62.2917 75.8125 62.1307C76.2008 61.9697 76.4896 61.7282 76.679 61.4062C76.8731 61.0843 76.9702 60.6842 76.9702 60.206C76.9702 59.723 76.8731 59.3158 76.679 58.9844C76.4896 58.6529 76.1984 58.402 75.8054 58.2315C75.4171 58.0563 74.9271 57.9688 74.3352 57.9688H72.2614V70H69.1861ZM77.0412 63.3807L80.6562 70H77.2614L73.7244 63.3807H77.0412Z" fill="white"/>
<path d="M135.001 71.8806H147.999C149.104 71.8806 150 70.9385 150 69.7762V56.1044C150 54.9422 149.104 54 147.999 54H135.001C133.896 54 133 54.9422 133 56.1044V69.7776C133 70.9385 133.896 71.8806 135.001 71.8806Z" fill="url(#paint2_linear_65_10442)"/>
<path d="M142.605 57.301H140.037C139.801 57.301 139.609 57.5027 139.609 57.7512V58.2013H143.033V57.7512C143.033 57.5027 142.841 57.301 142.605 57.301Z" fill="url(#paint3_linear_65_10442)"/>
<path d="M146.456 67.8042H136.186C135.872 67.8042 135.615 67.5341 135.615 67.204V59.4016C135.615 58.7414 136.129 58.2013 136.756 58.2013H145.885C146.513 58.2013 147.027 58.7414 147.027 59.4016V67.204C147.027 67.5341 146.77 67.8042 146.456 67.8042Z" fill="url(#paint4_radial_65_10442)"/>
<path d="M146.541 63.0793L141.321 63.903L136.101 63.0793C135.822 63.0354 135.615 62.7831 135.615 62.486V59.4016C135.615 58.7414 136.129 58.2013 136.756 58.2013H145.885C146.513 58.2013 147.027 58.7414 147.027 59.4016V62.486C147.027 62.7831 146.82 63.0354 146.541 63.0793Z" fill="url(#paint5_linear_65_10442)"/>
<path d="M141.749 61.8024H140.893C140.815 61.8024 140.751 61.8697 140.751 61.9525V62.8528C140.751 62.9356 140.815 63.0028 140.893 63.0028H141.749C141.828 63.0028 141.892 62.9356 141.892 62.8528V61.9525C141.892 61.8697 141.828 61.8024 141.749 61.8024Z" fill="#F6ECA5"/>
<path opacity="0.15" d="M145.03 63.6029C143.454 63.6029 142.177 64.9464 142.177 66.6038C142.177 67.0308 142.263 67.4363 142.416 67.8042H146.456C146.77 67.8042 147.027 67.5341 147.027 67.204V64.4624C146.512 63.9312 145.808 63.6029 145.03 63.6029Z" fill="url(#paint6_radial_65_10442)"/>
<path d="M147.31 68.4717L146.805 69.0023L147.643 69.883C147.671 69.9124 147.716 69.9124 147.744 69.883L148.147 69.4587C148.175 69.4293 148.175 69.3819 148.147 69.3525L147.31 68.4717Z" fill="#199BE2"/>
<path d="M146.685 67.8142L146.18 68.3444L146.805 69.0022L147.31 68.4717L146.685 67.8142Z" fill="url(#paint7_radial_65_10442)"/>
<path d="M145.03 69.0046C146.29 69.0046 147.312 67.9297 147.312 66.6039C147.312 65.278 146.29 64.2031 145.03 64.2031C143.769 64.2031 142.747 65.278 142.747 66.6039C142.747 67.9297 143.769 69.0046 145.03 69.0046Z" fill="url(#paint8_linear_65_10442)"/>
<path d="M159.88 155.471H120.12C116.74 155.471 114 152.811 114 149.531V110.94C114 107.659 116.74 105 120.12 105H159.88C163.26 105 166 107.659 166 110.94V149.534C166 152.811 163.26 155.471 159.88 155.471Z" fill="url(#paint9_linear_65_10442)"/>
<circle cx="143" cy="120" r="1" fill="white"/>
<circle cx="146.333" cy="120" r="1" fill="white"/>
<circle cx="149.667" cy="120" r="1" fill="white"/>
<path d="M147.82 117C147.82 117.41 147.487 117.744 147.077 117.744C146.666 117.744 146.333 117.41 146.333 117H144.846C144.846 117.41 144.513 117.744 144.103 117.744C143.692 117.744 143.359 117.41 143.359 117H141.872C141.872 117.41 141.539 117.744 141.128 117.744C140.718 117.744 140.385 117.41 140.385 117H138.897C138.897 117.41 138.564 117.744 138.154 117.744C137.743 117.744 137.41 117.41 137.41 117H135.923C135.923 117.41 135.59 117.744 135.179 117.744C134.769 117.744 134.436 117.41 134.436 117H132.949C132.949 117.41 132.616 117.744 132.205 117.744C131.795 117.744 131.462 117.41 131.462 117H129.974C129.974 117.41 129.641 117.744 129.231 117.744C128.82 117.744 128.487 117.41 128.487 117H127.744C127.333 117 127 117.333 127 117.744V143.769C127 144.591 127.666 145.256 128.487 145.256H147.82C148.642 145.256 149.308 144.591 149.308 143.769V117.744C149.308 117.333 148.975 117 148.564 117H147.82Z" fill="#50E6FF"/>
<path d="M145.962 122.949H130.346C130.141 122.949 129.974 122.782 129.974 122.577V121.09C129.974 120.884 130.141 120.718 130.346 120.718H145.962C146.167 120.718 146.333 120.884 146.333 121.09V122.577C146.333 122.782 146.167 122.949 145.962 122.949Z" fill="#0D62AB"/>
<path d="M145.962 128.154H144.474C144.269 128.154 144.103 127.987 144.103 127.782V127.038C144.103 126.833 144.269 126.667 144.474 126.667H145.962C146.167 126.667 146.333 126.833 146.333 127.038V127.782C146.333 127.987 146.167 128.154 145.962 128.154Z" fill="#0D62AB"/>
<path d="M140.013 128.154H130.346C130.141 128.154 129.974 127.987 129.974 127.782V127.038C129.974 126.833 130.141 126.667 130.346 126.667H140.013C140.218 126.667 140.385 126.833 140.385 127.038V127.782C140.385 127.987 140.218 128.154 140.013 128.154Z" fill="#0D62AB"/>
<path d="M145.962 131.128H144.474C144.269 131.128 144.103 130.962 144.103 130.756V130.013C144.103 129.808 144.269 129.641 144.474 129.641H145.962C146.167 129.641 146.333 129.808 146.333 130.013V130.756C146.333 130.962 146.167 131.128 145.962 131.128Z" fill="#0D62AB"/>
<path d="M137.782 131.128H130.346C130.141 131.128 129.974 130.962 129.974 130.756V130.013C129.974 129.808 130.141 129.641 130.346 129.641H137.782C137.987 129.641 138.154 129.808 138.154 130.013V130.756C138.154 130.962 137.987 131.128 137.782 131.128Z" fill="#0D62AB"/>
<path d="M145.962 134.103H144.474C144.269 134.103 144.103 133.936 144.103 133.731V132.987C144.103 132.782 144.269 132.615 144.474 132.615H145.962C146.167 132.615 146.333 132.782 146.333 132.987V133.731C146.333 133.936 146.167 134.103 145.962 134.103Z" fill="#0D62AB"/>
<path d="M140.013 134.103H130.346C130.141 134.103 129.974 133.936 129.974 133.731V132.987C129.974 132.782 130.141 132.615 130.346 132.615H140.013C140.218 132.615 140.385 132.782 140.385 132.987V133.731C140.385 133.936 140.218 134.103 140.013 134.103Z" fill="#0D62AB"/>
<path d="M145.962 137.077H144.474C144.269 137.077 144.103 136.91 144.103 136.705V135.961C144.103 135.756 144.269 135.59 144.474 135.59H145.962C146.167 135.59 146.333 135.756 146.333 135.961V136.705C146.333 136.91 146.167 137.077 145.962 137.077Z" fill="#0D62AB"/>
<path d="M137.782 137.077H130.346C130.141 137.077 129.974 136.91 129.974 136.705V135.961C129.974 135.756 130.141 135.59 130.346 135.59H137.782C137.987 135.59 138.154 135.756 138.154 135.961V136.705C138.154 136.91 137.987 137.077 137.782 137.077Z" fill="#0D62AB"/>
<path d="M145.962 141.538H142.987C142.782 141.538 142.615 141.372 142.615 141.167V140.423C142.615 140.218 142.782 140.051 142.987 140.051H145.962C146.167 140.051 146.333 140.218 146.333 140.423V141.167C146.333 141.372 146.167 141.538 145.962 141.538Z" fill="#0D62AB"/>
<path d="M140.013 141.538H133.321C133.115 141.538 132.949 141.372 132.949 141.167V140.423C132.949 140.218 133.115 140.051 133.321 140.051H140.013C140.218 140.051 140.385 140.218 140.385 140.423V141.167C140.385 141.372 140.218 141.538 140.013 141.538Z" fill="#0D62AB"/>
<path d="M148.564 132.615C143.644 132.615 139.641 136.618 139.641 141.538C139.641 142.866 139.941 144.123 140.463 145.256H147.82C148.642 145.256 149.308 144.591 149.308 143.769V132.653C149.061 132.632 148.815 132.615 148.564 132.615Z" fill="url(#paint10_radial_65_10442)"/>
<path d="M148.564 148.974C152.671 148.974 156 145.645 156 141.538C156 137.432 152.671 134.103 148.564 134.103C144.458 134.103 141.128 137.432 141.128 141.538C141.128 145.645 144.458 148.974 148.564 148.974Z" fill="url(#paint11_linear_65_10442)"/>
<path d="M144.846 141.91V141.167C144.846 140.961 145.013 140.795 145.218 140.795H151.91C152.116 140.795 152.282 140.961 152.282 141.167V141.91C152.282 142.115 152.116 142.282 151.91 142.282H145.218C145.013 142.282 144.846 142.115 144.846 141.91Z" fill="white"/>
</g>
<defs>
<filter id="filter0_d_65_10442" x="0.5" y="0.5" width="198" height="198" filterUnits="userSpaceOnUse" color-interpolation-filters="sRGB">
<feFlood flood-opacity="0" result="BackgroundImageFix"/>
<feColorMatrix in="SourceAlpha" type="matrix" values="0 0 0 0 0 0 0 0 0 0 0 0 0 0 0 0 0 0 127 0" result="hardAlpha"/>
<feOffset dy="4"/>
<feGaussianBlur stdDeviation="2"/>
<feComposite in2="hardAlpha" operator="out"/>
<feColorMatrix type="matrix" values="0 0 0 0 0.8375 0 0 0 0 0.732812 0 0 0 0 0.732812 0 0 0 0.25 0"/>
<feBlend mode="normal" in2="BackgroundImageFix" result="effect1_dropShadow_65_10442"/>
<feBlend mode="normal" in="SourceGraphic" in2="effect1_dropShadow_65_10442" result="shape"/>
</filter>
<filter id="filter1_bd_65_10442" x="36" y="33" width="134" height="130.471" filterUnits="userSpaceOnUse" color-interpolation-filters="sRGB">
<feFlood flood-opacity="0" result="BackgroundImageFix"/>
<feGaussianBlur in="BackgroundImageFix" stdDeviation="2"/>
<feComposite in2="SourceAlpha" operator="in" result="effect1_backgroundBlur_65_10442"/>
<feColorMatrix in="SourceAlpha" type="matrix" values="0 0 0 0 0 0 0 0 0 0 0 0 0 0 0 0 0 0 127 0" result="hardAlpha"/>
<feOffset dy="4"/>
<feGaussianBlur stdDeviation="2"/>
<feComposite in2="hardAlpha" operator="out"/>
<feColorMatrix type="matrix" values="0 0 0 0 1 0 0 0 0 1 0 0 0 0 1 0 0 0 0.25 0"/>
<feBlend mode="normal" in2="effect1_backgroundBlur_65_10442" result="effect2_dropShadow_65_10442"/>
<feBlend mode="normal" in="SourceGraphic" in2="effect2_dropShadow_65_10442" result="shape"/>
</filter>
<linearGradient id="paint0_linear_65_10442" x1="99.5" y1="16.4677" x2="99.5" y2="174.532" gradientUnits="userSpaceOnUse">
<stop stop-color="white"/>
<stop offset="0.472222" stop-color="#0D5176" stop-opacity="0.527778"/>
<stop offset="0.940972" stop-color="#12A6F7" stop-opacity="0.465278"/>
<stop offset="1" stop-opacity="0"/>
</linearGradient>
<linearGradient id="paint1_linear_65_10442" x1="12.157" y1="42.0533" x2="216.174" y2="148.924" gradientUnits="userSpaceOnUse">
<stop stop-color="#33D7F0"/>
<stop offset="0.187" stop-color="#2FD1ED"/>
<stop offset="0.445" stop-color="#24BFE3"/>
<stop offset="0.744" stop-color="#13A2D4"/>
<stop offset="1" stop-color="#0083C4"/>
</linearGradient>
<linearGradient id="paint2_linear_65_10442" x1="140.453" y1="56.6972" x2="144.936" y2="80.8727" gradientUnits="userSpaceOnUse">
<stop stop-color="#FCFCFC"/>
<stop offset="1" stop-color="#C3C9CD"/>
</linearGradient>
<linearGradient id="paint3_linear_65_10442" x1="141.321" y1="58.195" x2="141.321" y2="57.3935" gradientUnits="userSpaceOnUse">
<stop stop-color="#B33F20"/>
<stop offset="0.129" stop-color="#C74724"/>
<stop offset="0.295" stop-color="#D94F29"/>
<stop offset="0.469" stop-color="#E4532B"/>
<stop offset="0.659" stop-color="#E8552C"/>
</linearGradient>
<radialGradient id="paint4_radial_65_10442" cx="0" cy="0" r="1" gradientUnits="userSpaceOnUse" gradientTransform="translate(141.273 57.2986) scale(13.0491 11.0413)">
<stop stop-color="#40150B"/>
<stop offset="0.156" stop-color="#622110"/>
<stop offset="0.417" stop-color="#953218"/>
<stop offset="0.645" stop-color="#BA3F1E"/>
<stop offset="0.828" stop-color="#D14722"/>
<stop offset="0.944" stop-color="#D94A23"/>
</radialGradient>
<linearGradient id="paint5_linear_65_10442" x1="141.321" y1="58.2097" x2="141.321" y2="63.581" gradientUnits="userSpaceOnUse">
<stop stop-color="#FC7D5B"/>
<stop offset="0.06" stop-color="#F8734F"/>
<stop offset="0.18" stop-color="#F3653D"/>
<stop offset="0.326" stop-color="#F05B31"/>
<stop offset="0.523" stop-color="#EE552A"/>
<stop offset="1" stop-color="#ED5328"/>
</linearGradient>
<radialGradient id="paint6_radial_65_10442" cx="0" cy="0" r="1" gradientUnits="userSpaceOnUse" gradientTransform="translate(145.013 66.5786) scale(2.8121 2.958)">
<stop offset="0.627"/>
<stop offset="1" stop-opacity="0"/>
</radialGradient>
<radialGradient id="paint7_radial_65_10442" cx="0" cy="0" r="1" gradientUnits="userSpaceOnUse" gradientTransform="translate(145.033 66.6183) scale(2.79641 2.9415)">
<stop offset="0.693" stop-color="#006185"/>
<stop offset="0.921" stop-color="#35C1F1"/>
</radialGradient>
<linearGradient id="paint8_linear_65_10442" x1="143.448" y1="64.9398" x2="146.809" y2="68.135" gradientUnits="userSpaceOnUse">
<stop stop-color="#A3FFFF"/>
<stop offset="0.223" stop-color="#9DFBFF"/>
<stop offset="0.53" stop-color="#8BF1FF"/>
<stop offset="0.885" stop-color="#6EE0FF"/>
<stop offset="1" stop-color="#63DAFF"/>
</linearGradient>
<linearGradient id="paint9_linear_65_10442" x1="143.202" y1="112.613" x2="131.469" y2="181.19" gradientUnits="userSpaceOnUse">
<stop stop-color="#FCFCFC"/>
<stop offset="1" stop-color="#C3C9CD"/>
</linearGradient>
<radialGradient id="paint10_radial_65_10442" cx="0" cy="0" r="1" gradientUnits="userSpaceOnUse" gradientTransform="translate(148.334 141.467) scale(8.90596)">
<stop/>
<stop offset="0.979" stop-opacity="0"/>
</radialGradient>
<linearGradient id="paint11_linear_65_10442" x1="141.128" y1="141.538" x2="156" y2="141.538" gradientUnits="userSpaceOnUse">
<stop stop-color="#F44F5A"/>
<stop offset="0.443" stop-color="#EE3D4A"/>
<stop offset="1" stop-color="#E52030"/>
</linearGradient>
</defs>
</svg>
