<svg width="170" height="170" viewBox="0 0 170 170" fill="none" xmlns="http://www.w3.org/2000/svg">
<g id="address-book">
<rect x="7.5" y="7.5" width="155" height="155" rx="12.5" fill="white"/>
<rect x="7.5" y="7.5" width="155" height="155" rx="12.5" fill="url(#paint0_linear_1_2574)" fill-opacity="0.2"/>
<path id="Vector" d="M134.583 32.5013V137.501C134.583 140.724 131.973 143.335 128.75 143.335H114.167V26.668H128.75C131.973 26.668 134.583 29.2784 134.583 32.5013Z" fill="#1783BD"/>
<path id="Vector_2" d="M128.75 32.5013V137.501C128.75 140.724 126.14 143.335 122.917 143.335H105.417V26.668H122.917C126.14 26.668 128.75 29.2784 128.75 32.5013Z" fill="url(#paint1_linear_1_2574)"/>
<path id="Vector_3" d="M35.4167 32.5013V137.501C35.4167 140.724 38.0271 143.335 41.25 143.335H47.0833V26.668H41.25C38.0271 26.668 35.4167 29.2784 35.4167 32.5013Z" fill="url(#paint2_linear_1_2574)"/>
<path id="Vector_4" d="M117.083 26.668H47.0833V143.335H117.083C120.306 143.335 122.917 140.724 122.917 137.501V32.5013C122.917 29.2784 120.306 26.668 117.083 26.668Z" fill="url(#paint3_linear_1_2574)"/>
<path id="Vector_5" d="M89.4479 95.2884H89.2612C87.8087 99.2492 85.1779 101.23 81.36 101.23C78.4987 101.23 71.8108 100.008 71.8108 89.5046C71.8108 79.8271 77.2008 73.4571 84.2212 73.4571C87.31 73.4571 89.2496 74.6705 90.0371 77.0971H90.1625L90.4746 74.0171H97.4717C96.5383 82.8488 96.0717 88.6238 96.0717 91.3421C96.0717 94.2442 96.8592 95.6967 98.4342 95.6967C100.094 95.6967 104.157 93.8242 104.157 83.7851C104.157 78.9317 101.85 67.2067 86.5837 67.2067C75.4975 67.2067 65.9017 75.8867 65.9017 88.5421C65.9017 97.0792 70.4371 107.142 85.4958 107.142C90.1625 107.142 94.4325 106.249 98.3087 104.467V110.408C94.7621 111.922 90.2004 112.678 84.6237 112.678C72.7908 112.678 58.7471 106.348 58.7471 88.4167C58.75 74.9826 68.235 61.668 86.2133 61.668C98.9737 61.668 111.25 68.6388 111.25 83.438C111.25 93.7076 105.452 101.23 96.5383 101.23C90.9267 101.23 89.3896 97.1171 89.4479 95.2884ZM85.3121 78.8676C80.2604 78.8676 78.9975 86.2584 78.9975 89.4434C78.9975 94.9034 82.025 95.758 83.2908 95.758C86.0383 95.758 89.5733 93.2351 89.5733 84.2196C89.5733 82.5601 89.1854 81.2534 88.4067 80.2996C87.6279 79.343 86.5954 78.8676 85.3121 78.8676Z" fill="white"/>
<rect x="7.5" y="7.5" width="155" height="155" rx="12.5" stroke="#D5EAF6" stroke-width="15"/>
</g>
<defs>
<linearGradient id="paint0_linear_1_2574" x1="85" y1="15" x2="85" y2="155" gradientUnits="userSpaceOnUse">
<stop stop-color="#199AE0"/>
<stop offset="0.472222" stop-color="#0D5176" stop-opacity="0.527778"/>
<stop offset="0.940972" stop-color="#12A6F7" stop-opacity="0.465278"/>
<stop offset="1" stop-opacity="0"/>
</linearGradient>
<linearGradient id="paint1_linear_1_2574" x1="117.002" y1="85.0042" x2="126.166" y2="85.0042" gradientUnits="userSpaceOnUse">
<stop offset="0.441" stop-color="#999998"/>
<stop offset="0.653" stop-color="#C1C1C0"/>
<stop offset="0.88" stop-color="#E5E5E5"/>
<stop offset="1" stop-color="#F3F3F3"/>
</linearGradient>
<linearGradient id="paint2_linear_1_2574" x1="25.6108" y1="40.003" x2="60.7654" y2="135.766" gradientUnits="userSpaceOnUse">
<stop stop-color="#0176D0"/>
<stop offset="1" stop-color="#16538C"/>
</linearGradient>
<linearGradient id="paint3_linear_1_2574" x1="63.9417" y1="30.0338" x2="106.044" y2="144.72" gradientUnits="userSpaceOnUse">
<stop stop-color="#0176D0"/>
<stop offset="1" stop-color="#22A5E2"/>
</linearGradient>
</defs>
</svg>
