<svg width="170" height="170" viewBox="0 0 170 170" fill="none" xmlns="http://www.w3.org/2000/svg">
<g id="adjustment">
<rect x="7.5" y="7.5" width="155" height="155" rx="12.5" fill="white"/>
<rect x="7.5" y="7.5" width="155" height="155" rx="12.5" fill="url(#paint0_linear_1_2612)" fill-opacity="0.2"/>
<path id="Vector" d="M143.333 44.1654V58.7487H26.6667V44.1654C26.6667 40.957 29.2917 38.332 32.5 38.332H137.5C140.708 38.332 143.333 40.957 143.333 44.1654Z" fill="url(#paint1_linear_1_2612)"/>
<path id="Vector_2" d="M26.6667 125.832V55.832H143.333V125.832C143.333 129.04 140.708 131.665 137.5 131.665H32.5C29.2917 131.665 26.6667 129.04 26.6667 125.832Z" fill="#50E6FF"/>
<path id="Vector_3" d="M87.9167 102.5H82.0833C80.4733 102.5 79.1667 101.193 79.1667 99.5833V70.4167C79.1667 68.8067 80.4733 67.5 82.0833 67.5H87.9167C89.5267 67.5 90.8333 68.8067 90.8333 70.4167V99.5833C90.8333 101.193 89.5267 102.5 87.9167 102.5Z" fill="url(#paint2_linear_1_2612)"/>
<path id="Vector_4" d="M61.6667 87.9167H55.8333C54.2233 87.9167 52.9167 86.61 52.9167 85V70.4167C52.9167 68.8067 54.2233 67.5 55.8333 67.5H61.6667C63.2767 67.5 64.5833 68.8067 64.5833 70.4167V85C64.5833 86.61 63.2767 87.9167 61.6667 87.9167Z" fill="url(#paint3_linear_1_2612)"/>
<path id="Vector_5" d="M117.083 79.1667H111.25C109.64 79.1667 108.333 77.86 108.333 76.25V70.4167C108.333 68.8067 109.64 67.5 111.25 67.5H117.083C118.693 67.5 120 68.8067 120 70.4167V76.25C120 77.86 118.693 79.1667 117.083 79.1667Z" fill="url(#paint4_linear_1_2612)"/>
<path id="Vector_6" d="M67.0479 93.7487H50.4492C48.5912 93.7487 47.0833 92.2408 47.0833 90.3799V85.4479C47.0833 83.5899 48.5912 82.082 50.4521 82.082H67.0508C68.9087 82.082 70.4167 83.5899 70.4167 85.4508V90.3829C70.4167 92.2408 68.9087 93.7487 67.0479 93.7487Z" fill="url(#paint5_linear_1_2612)"/>
<path id="Vector_7" d="M122.465 87.9167H105.866C104.008 87.9167 102.5 86.4087 102.5 84.5479V79.6158C102.5 77.7579 104.008 76.25 105.869 76.25H122.468C124.325 76.25 125.833 77.7579 125.833 79.6188V84.5508C125.833 86.4088 124.325 87.9167 122.465 87.9167Z" fill="url(#paint6_linear_1_2612)"/>
<path id="Vector_8" d="M52.9167 93.75V117.083C52.9167 118.693 54.2233 120 55.8333 120H61.6667C63.2767 120 64.5833 118.693 64.5833 117.083V93.75H52.9167Z" fill="url(#paint7_linear_1_2612)"/>
<path id="Vector_9" d="M79.1667 96.668V117.085C79.1667 118.695 80.4733 120.001 82.0833 120.001H87.9167C89.5267 120.001 90.8333 118.695 90.8333 117.085V96.668H79.1667Z" fill="url(#paint8_linear_1_2612)"/>
<path id="Vector_10" d="M108.333 87.918V117.085C108.333 118.695 109.64 120.001 111.25 120.001H117.083C118.693 120.001 120 118.695 120 117.085V87.918H108.333Z" fill="url(#paint9_linear_1_2612)"/>
<path id="Vector_11" d="M93.2979 108.335H76.6992C74.8412 108.335 73.3333 106.827 73.3333 104.966V100.034C73.3333 98.1759 74.8412 96.668 76.7021 96.668H93.3008C95.1587 96.668 96.6667 98.1759 96.6667 100.037V104.969C96.6667 106.827 95.1587 108.335 93.2979 108.335Z" fill="url(#paint10_linear_1_2612)"/>
<rect x="7.5" y="7.5" width="155" height="155" rx="12.5" stroke="#D5EAF6" stroke-width="15"/>
</g>
<defs>
<linearGradient id="paint0_linear_1_2612" x1="85" y1="15" x2="85" y2="155" gradientUnits="userSpaceOnUse">
<stop stop-color="#199AE0"/>
<stop offset="0.472222" stop-color="#0D5176" stop-opacity="0.527778"/>
<stop offset="0.940972" stop-color="#12A6F7" stop-opacity="0.465278"/>
<stop offset="1" stop-opacity="0"/>
</linearGradient>
<linearGradient id="paint1_linear_1_2612" x1="28.4575" y1="37.5766" x2="140.23" y2="60.3033" gradientUnits="userSpaceOnUse">
<stop stop-color="#0077D2"/>
<stop offset="1" stop-color="#0B59A2"/>
</linearGradient>
<linearGradient id="paint2_linear_1_2612" x1="85" y1="67.4388" x2="85" y2="96.1242" gradientUnits="userSpaceOnUse">
<stop stop-color="#0D61A9"/>
<stop offset="1" stop-color="#16528C"/>
</linearGradient>
<linearGradient id="paint3_linear_1_2612" x1="58.75" y1="67.8092" x2="58.75" y2="81.5146" gradientUnits="userSpaceOnUse">
<stop stop-color="#0D61A9"/>
<stop offset="1" stop-color="#16528C"/>
</linearGradient>
<linearGradient id="paint4_linear_1_2612" x1="114.167" y1="67.9025" x2="114.167" y2="76.1217" gradientUnits="userSpaceOnUse">
<stop stop-color="#0D61A9"/>
<stop offset="1" stop-color="#16528C"/>
</linearGradient>
<linearGradient id="paint5_linear_1_2612" x1="58.75" y1="82.2366" x2="58.75" y2="93.072" gradientUnits="userSpaceOnUse">
<stop stop-color="#2AA4F4"/>
<stop offset="1" stop-color="#007AD9"/>
</linearGradient>
<linearGradient id="paint6_linear_1_2612" x1="114.167" y1="76.6525" x2="114.167" y2="88.3921" gradientUnits="userSpaceOnUse">
<stop stop-color="#2AA4F4"/>
<stop offset="1" stop-color="#007AD9"/>
</linearGradient>
<linearGradient id="paint7_linear_1_2612" x1="58.75" y1="92.7583" x2="58.75" y2="119.898" gradientUnits="userSpaceOnUse">
<stop stop-color="#2AA4F4"/>
<stop offset="1" stop-color="#007AD9"/>
</linearGradient>
<linearGradient id="paint8_linear_1_2612" x1="85" y1="103.09" x2="85" y2="118.861" gradientUnits="userSpaceOnUse">
<stop stop-color="#2AA4F4"/>
<stop offset="1" stop-color="#007AD9"/>
</linearGradient>
<linearGradient id="paint9_linear_1_2612" x1="114.167" y1="87.5446" x2="114.167" y2="121.623" gradientUnits="userSpaceOnUse">
<stop stop-color="#2AA4F4"/>
<stop offset="1" stop-color="#007AD9"/>
</linearGradient>
<linearGradient id="paint10_linear_1_2612" x1="85" y1="95.7376" x2="85" y2="109.113" gradientUnits="userSpaceOnUse">
<stop stop-color="#2AA4F4"/>
<stop offset="1" stop-color="#007AD9"/>
</linearGradient>
</defs>
</svg>
