<svg width="170" height="170" viewBox="0 0 170 170" fill="none" xmlns="http://www.w3.org/2000/svg">
<g id="administrative-tools">
<rect x="7.5" y="7.5" width="155" height="155" rx="12.5" fill="white"/>
<rect x="7.5" y="7.5" width="155" height="155" rx="12.5" fill="url(#paint0_linear_1_2624)" fill-opacity="0.2"/>
<path id="Vector" d="M81.5962 115.966C100.121 115.966 115.138 100.949 115.138 82.4245C115.138 63.8999 100.121 48.8828 81.5962 48.8828C63.0717 48.8828 48.0546 63.8999 48.0546 82.4245C48.0546 100.949 63.0717 115.966 81.5962 115.966Z" fill="url(#paint1_linear_1_2624)"/>
<path id="Vector_2" d="M81.5962 102.841C92.8721 102.841 102.013 93.7003 102.013 82.4245C102.013 71.1487 92.8721 62.0078 81.5962 62.0078C70.3204 62.0078 61.1796 71.1487 61.1796 82.4245C61.1796 93.7003 70.3204 102.841 81.5962 102.841Z" fill="url(#paint2_linear_1_2624)"/>
<path id="Vector_3" d="M138.2 68.5492C131.232 68.4646 124.486 64.8333 120.75 58.3613C117.153 52.1313 117.226 44.8017 120.277 38.84C114.079 33.3363 106.738 29.1013 98.6063 26.625C94.9488 32.1258 88.6983 35.7571 81.5992 35.7571C74.5 35.7571 68.2496 32.1288 64.5921 26.625C56.4604 29.1013 49.1192 33.3363 42.9212 38.84C45.9721 44.8017 46.045 52.1313 42.4488 58.3613C38.7125 64.8333 31.9662 68.4646 24.9983 68.5492C23.9104 73.0029 23.2687 77.6346 23.2687 82.4238C23.2687 86.1688 23.6567 89.8175 24.3304 93.3671C31.5317 93.2183 38.5958 96.8904 42.4517 103.57C46.4417 110.482 45.9138 118.748 41.81 124.993C47.8825 130.671 55.1479 135.073 63.2183 137.753C66.5142 130.908 73.4967 126.171 81.6021 126.171C89.7075 126.171 96.69 130.908 99.9858 137.753C108.056 135.073 115.322 130.671 121.394 124.993C117.29 118.748 116.763 110.482 120.753 103.57C124.608 96.8904 131.67 93.2183 138.874 93.3671C139.548 89.8175 139.935 86.1688 139.935 82.4238C139.93 77.6346 139.288 73.0029 138.2 68.5492ZM81.5963 113.049C64.6825 113.049 50.9713 99.3375 50.9713 82.4238C50.9713 65.51 64.6825 51.7988 81.5963 51.7988C98.51 51.7988 112.221 65.51 112.221 82.4238C112.221 99.3375 98.51 113.049 81.5963 113.049Z" fill="url(#paint3_linear_1_2624)"/>
<path id="Vector_4" d="M79.1667 136.04V95.207H143.333V136.04C143.333 139.249 140.708 141.874 137.5 141.874H85C81.7917 141.874 79.1667 139.249 79.1667 136.04Z" fill="url(#paint4_linear_1_2624)"/>
<path id="Vector_5" d="M143.333 89.3763V95.2096H79.1667V89.3763C79.1667 86.168 81.7917 83.543 85 83.543H137.5C140.708 83.543 143.333 86.168 143.333 89.3763Z" fill="url(#paint5_linear_1_2624)"/>
<path id="Vector_6" d="M94.1758 134.159L88.3425 128.325C87.7738 127.757 87.7738 126.832 88.3425 126.263L90.4046 124.201C90.9733 123.633 91.8979 123.633 92.4667 124.201L95.2054 126.94L103.778 118.368C104.346 117.799 105.271 117.799 105.84 118.368L107.902 120.43C108.47 120.999 108.47 121.923 107.902 122.492L96.235 134.159C95.6692 134.728 94.7475 134.728 94.1758 134.159Z" fill="#195BBC"/>
<path id="Vector_7" d="M94.1758 116.659L88.3425 110.825C87.7738 110.257 87.7738 109.332 88.3425 108.763L90.4046 106.701C90.9733 106.133 91.8979 106.133 92.4667 106.701L95.2054 109.44L103.778 100.868C104.346 100.299 105.271 100.299 105.84 100.868L107.902 102.93C108.47 103.499 108.47 104.423 107.902 104.992L96.235 116.659C95.6692 117.228 94.7475 117.228 94.1758 116.659Z" fill="#195BBC"/>
<rect x="7.5" y="7.5" width="155" height="155" rx="12.5" stroke="#D5EAF6" stroke-width="15"/>
</g>
<defs>
<linearGradient id="paint0_linear_1_2624" x1="85" y1="15" x2="85" y2="155" gradientUnits="userSpaceOnUse">
<stop stop-color="#199AE0"/>
<stop offset="0.472222" stop-color="#0D5176" stop-opacity="0.527778"/>
<stop offset="0.940972" stop-color="#12A6F7" stop-opacity="0.465278"/>
<stop offset="1" stop-opacity="0"/>
</linearGradient>
<linearGradient id="paint1_linear_1_2624" x1="104.965" y1="105.793" x2="57.9158" y2="58.7441" gradientUnits="userSpaceOnUse">
<stop stop-color="white"/>
<stop offset="0.242" stop-color="#fcfcfc"/>
<stop offset="1" stop-color="#CCCCCC"/>
</linearGradient>
<linearGradient id="paint2_linear_1_2624" x1="62.4921" y1="63.3203" x2="96.0046" y2="96.8328" gradientUnits="userSpaceOnUse">
<stop stop-color="#0D61A9"/>
<stop offset="0.363" stop-color="#0E5FA4"/>
<stop offset="0.78" stop-color="#135796"/>
<stop offset="1" stop-color="#16528C"/>
</linearGradient>
<linearGradient id="paint3_linear_1_2624" x1="27.1333" y1="28.0104" x2="122.669" y2="123.549" gradientUnits="userSpaceOnUse">
<stop stop-color="#889097"/>
<stop offset="0.331" stop-color="#848C94"/>
<stop offset="0.669" stop-color="#78828B"/>
<stop offset="1" stop-color="#64717C"/>
</linearGradient>
<linearGradient id="paint4_linear_1_2624" x1="93.4146" y1="90.727" x2="124.401" y2="135.553" gradientUnits="userSpaceOnUse">
<stop stop-color="#7DD8F3"/>
<stop offset="1" stop-color="#45B0D0"/>
</linearGradient>
<linearGradient id="paint5_linear_1_2624" x1="80.5229" y1="83.6626" x2="141.633" y2="96.0876" gradientUnits="userSpaceOnUse">
<stop stop-color="#0077D2"/>
<stop offset="1" stop-color="#0B59A2"/>
</linearGradient>
</defs>
</svg>
