<svg width="170" height="170" viewBox="0 0 170 170" fill="none" xmlns="http://www.w3.org/2000/svg">
<g id="alarms">
<g clip-path="url(#clip0_1_2643)">
<rect x="15" y="15" width="140" height="140" rx="5" fill="white"/>
<rect x="15" y="15" width="140" height="140" rx="5" fill="url(#paint0_linear_1_2643)" fill-opacity="0.2"/>
<path id="Vector" d="M23.75 41.2486L76.25 20.3828V58.7487C76.25 60.3587 74.9433 61.6653 73.3333 61.6653H23.75V41.2486Z" fill="url(#paint1_linear_1_2643)"/>
<path id="Vector_2" d="M15 20.3828V58.7487C15 60.3587 16.3067 61.6653 17.9167 61.6653H73.3333C74.0508 61.6653 74.6983 61.397 75.2058 60.9682L15 20.3828Z" fill="url(#paint2_linear_1_2643)"/>
<path id="Vector_3" opacity="0.05" d="M15 19.375H76.25V21.8425L50.9917 41.4571C47.8329 43.91 43.4171 43.91 40.2583 41.4571L15 21.8425V19.375Z" fill="black"/>
<path id="Vector_4" opacity="0.07" d="M15 18.6445H76.25V21.112L49.9504 40.2337C47.3808 42.1354 43.8692 42.1354 41.2996 40.2337L15 21.112V18.6445Z" fill="black"/>
<path id="Vector_5" d="M17.9167 15H73.3333C74.9433 15 76.25 16.3067 76.25 17.9167V20.3842L48.9092 39.0129C46.9288 40.3633 44.3212 40.3633 42.3408 39.0129L15 20.3842V17.9167C15 16.3067 16.3067 15 17.9167 15Z" fill="#50E6FF"/>
<path id="Vector_6" d="M145.183 125.383L90.1333 37.7109C90.1333 37.7109 88.6517 34.6484 85 34.6484C81.3483 34.6484 79.8667 37.7109 79.8667 37.7109L24.8175 125.383C24.8175 125.383 23.75 126.815 23.75 128.749C23.75 131.972 26.3604 134.582 29.5833 134.582H140.417C143.64 134.582 146.25 131.972 146.25 128.749C146.25 126.815 145.183 125.383 145.183 125.383Z" fill="url(#paint3_linear_1_2643)"/>
<path id="Vector_7" d="M85.0408 122.915C82.9058 122.915 81.1442 122.268 79.7558 120.973C78.3675 119.678 77.6733 118.112 77.6733 116.268C77.6733 114.346 78.3733 112.771 79.7763 111.543C81.1763 110.315 82.9321 109.703 85.0408 109.703C87.1758 109.703 88.9258 110.324 90.285 111.564C91.6471 112.806 92.3267 114.372 92.3267 116.268C92.3267 118.19 91.6529 119.777 90.3054 121.031C88.9579 122.285 87.2021 122.915 85.0408 122.915ZM91.5217 66.6849L90.1188 102.195C90.075 103.28 89.1825 104.138 88.0975 104.138H81.7421C80.6542 104.138 79.7617 103.277 79.7208 102.19L78.3938 66.682C78.35 65.5358 79.2688 64.582 80.415 64.582H89.5033C90.6496 64.582 91.5683 65.5358 91.5217 66.6849Z" fill="url(#paint4_radial_1_2643)"/>
</g>
<rect x="7.5" y="7.5" width="155" height="155" rx="12.5" stroke="#D5EAF6" stroke-width="15"/>
</g>
<defs>
<linearGradient id="paint0_linear_1_2643" x1="85" y1="15" x2="85" y2="155" gradientUnits="userSpaceOnUse">
<stop stop-color="#199AE0"/>
<stop offset="0.472222" stop-color="#0D5176" stop-opacity="0.527778"/>
<stop offset="0.940972" stop-color="#12A6F7" stop-opacity="0.465278"/>
<stop offset="1" stop-opacity="0"/>
</linearGradient>
<linearGradient id="paint1_linear_1_2643" x1="42.0025" y1="29.0541" x2="77.1133" y2="81.6037" gradientUnits="userSpaceOnUse">
<stop stop-color="#28AFEA"/>
<stop offset="1" stop-color="#0B88DA"/>
</linearGradient>
<linearGradient id="paint2_linear_1_2643" x1="12.6783" y1="38.9299" x2="63.6092" y2="70.6545" gradientUnits="userSpaceOnUse">
<stop stop-color="#28AFEA"/>
<stop offset="1" stop-color="#0B88DA"/>
</linearGradient>
<linearGradient id="paint3_linear_1_2643" x1="-885.524" y1="-996.717" x2="122.64" y2="159.569" gradientUnits="userSpaceOnUse">
<stop stop-color="#FFDA1C"/>
<stop offset="1" stop-color="#FEB705"/>
</linearGradient>
<radialGradient id="paint4_radial_1_2643" cx="0" cy="0" r="1" gradientUnits="userSpaceOnUse" gradientTransform="translate(68.0513 63.9433) scale(65.2254 65.2254)">
<stop stop-color="#4B4B4B"/>
<stop offset="0.531" stop-color="#393939"/>
<stop offset="1" stop-color="#252525"/>
</radialGradient>
<clipPath id="clip0_1_2643">
<rect x="15" y="15" width="140" height="140" rx="5" fill="white"/>
</clipPath>
</defs>
</svg>
