<svg width="170" height="170" viewBox="0 0 170 170" fill="none" xmlns="http://www.w3.org/2000/svg">
<g id="archive">
<rect x="7.5" y="7.5" width="155" height="155" rx="12.5" fill="white"/>
<rect x="7.5" y="7.5" width="155" height="155" rx="12.5" fill="url(#paint0_linear_1_2682)" fill-opacity="0.2"/>
<path id="Vector" d="M128.75 134.582C128.75 137.805 126.14 140.415 122.917 140.415H47.0833C43.8604 140.415 41.25 137.805 41.25 134.582V35.4154C41.25 32.1924 43.8604 29.582 47.0833 29.582H122.917C126.14 29.582 128.75 32.1924 128.75 35.4154V134.582Z" fill="url(#paint1_linear_1_2682)"/>
<path id="Vector_2" d="M91.2825 75.7179C91.0317 74.3354 89.8242 73.332 88.4154 73.332H81.5846C80.1758 73.332 78.9683 74.3295 78.7175 75.7149C77.9154 80.122 76.3171 89.6945 76.2529 96.2687C76.2092 100.667 79.3067 104.669 83.6554 105.316C89.0833 106.124 93.75 101.939 93.75 96.6654C93.75 90.0883 92.1021 80.2183 91.2825 75.7179ZM85 99.582C83.39 99.582 82.0833 98.2754 82.0833 96.6654C82.0833 95.0554 83.39 93.7487 85 93.7487C86.61 93.7487 87.9167 95.0554 87.9167 96.6654C87.9167 98.2754 86.61 99.582 85 99.582Z" fill="url(#paint2_linear_1_2682)"/>
<path id="Vector_3" d="M83.4163 64.5843H80.7533C79.8754 64.5843 79.1667 63.8756 79.1667 63.0006V60.3377C79.1667 59.4627 79.8754 58.7539 80.7504 58.7539H83.4133C84.2883 58.7539 84.9971 59.4627 84.9971 60.3377V63.0006C85 63.8756 84.2913 64.5843 83.4163 64.5843Z" fill="#E97C01"/>
<path id="Vector_4" d="M89.2496 70.4164H86.5867C85.7088 70.4164 85 69.7076 85 68.8326V66.1697C85 65.2947 85.7087 64.5859 86.5837 64.5859H89.2467C90.1217 64.5859 90.8304 65.2947 90.8304 66.1697V68.8326C90.8333 69.7076 90.1246 70.4164 89.2496 70.4164Z" fill="#E97C01"/>
<path id="Vector_5" d="M83.4163 52.9164H80.7533C79.8754 52.9164 79.1667 52.2076 79.1667 51.3326V48.6697C79.1667 47.7947 79.8754 47.0859 80.7504 47.0859H83.4133C84.2883 47.0859 84.9971 47.7947 84.9971 48.6697V51.3326C85 52.2076 84.2913 52.9164 83.4163 52.9164Z" fill="#E97C01"/>
<path id="Vector_6" d="M89.2496 58.7484H86.5867C85.7088 58.7484 85 58.0396 85 57.1646V54.5017C85 53.6267 85.7087 52.918 86.5837 52.918H89.2467C90.1217 52.918 90.8304 53.6267 90.8304 54.5017V57.1646C90.8333 58.0396 90.1246 58.7484 89.2496 58.7484Z" fill="#E97C01"/>
<path id="Vector_7" d="M83.4163 41.2513H80.7533C79.8754 41.2513 79.1667 40.5426 79.1667 39.6676V37.0017C79.1667 36.1267 79.8754 35.418 80.7504 35.418H83.4133C84.2913 35.418 85 36.1267 85 37.0017V39.6646C85 40.5426 84.2913 41.2513 83.4163 41.2513Z" fill="#E97C01"/>
<path id="Vector_8" d="M89.2496 47.0833H86.5867C85.7088 47.0833 85 46.3746 85 45.4996V42.8338C85 41.9588 85.7087 41.25 86.5837 41.25H89.2467C90.1246 41.25 90.8333 41.9588 90.8333 42.8338V45.4967C90.8333 46.3746 90.1246 47.0833 89.2496 47.0833Z" fill="#E97C01"/>
<path id="Vector_9" d="M89.2496 35.4154H86.5867C85.7088 35.4154 85 34.7066 85 33.8316V31.1658C85 30.2908 85.7087 29.582 86.5837 29.582H89.2467C90.1246 29.582 90.8333 30.2908 90.8333 31.1658V33.8287C90.8333 34.7066 90.1246 35.4154 89.2496 35.4154Z" fill="#E97C01"/>
<rect x="7.5" y="7.5" width="155" height="155" rx="12.5" stroke="#D5EAF6" stroke-width="15"/>
</g>
<defs>
<linearGradient id="paint0_linear_1_2682" x1="85" y1="15" x2="85" y2="155" gradientUnits="userSpaceOnUse">
<stop stop-color="#199AE0"/>
<stop offset="0.472222" stop-color="#0D5176" stop-opacity="0.527778"/>
<stop offset="0.940972" stop-color="#12A6F7" stop-opacity="0.465278"/>
<stop offset="1" stop-opacity="0"/>
</linearGradient>
<linearGradient id="paint1_linear_1_2682" x1="41.25" y1="84.9987" x2="128.75" y2="84.9987" gradientUnits="userSpaceOnUse">
<stop stop-color="#FEDE00"/>
<stop offset="1" stop-color="#FFD000"/>
</linearGradient>
<linearGradient id="paint2_linear_1_2682" x1="76.2529" y1="89.3737" x2="93.75" y2="89.3737" gradientUnits="userSpaceOnUse">
<stop stop-color="#4B4B4B"/>
<stop offset="1" stop-color="#3B3B3B"/>
</linearGradient>
</defs>
</svg>
