<svg width="170" height="170" viewBox="0 0 170 170" fill="none" xmlns="http://www.w3.org/2000/svg">
<g id="attendance">
<rect x="7.5" y="7.5" width="155" height="155" rx="12.5" fill="white"/>
<rect x="7.5" y="7.5" width="155" height="155" rx="12.5" fill="url(#paint0_linear_1_2700)" fill-opacity="0.2"/>
<path id="Vector" d="M128.75 61.6654V134.582C128.75 137.805 126.14 140.415 122.917 140.415H47.0833C43.8604 140.415 41.25 137.805 41.25 134.582V35.4154C41.25 32.1924 43.8604 29.582 47.0833 29.582H96.6667L128.75 61.6654Z" fill="#50E6FF"/>
<path id="Vector_2" d="M96.6667 29.582V55.832C96.6667 59.055 99.2771 61.6654 102.5 61.6654H128.75L96.6667 29.582Z" fill="url(#paint1_linear_1_2700)"/>
<path id="Vector_3" d="M92.2917 82.0833H54.375C53.57 82.0833 52.9167 81.43 52.9167 80.625V77.7083C52.9167 76.9033 53.57 76.25 54.375 76.25H92.2917C93.0967 76.25 93.75 76.9033 93.75 77.7083V80.625C93.75 81.43 93.0967 82.0833 92.2917 82.0833Z" fill="#057093"/>
<path id="Vector_4" d="M92.2917 105.415H54.375C53.57 105.415 52.9167 104.762 52.9167 103.957V101.04C52.9167 100.235 53.57 99.582 54.375 99.582H92.2917C93.0967 99.582 93.75 100.235 93.75 101.04V103.957C93.75 104.762 93.0967 105.415 92.2917 105.415Z" fill="#057093"/>
<path id="Vector_5" d="M92.2917 128.751H54.375C53.57 128.751 52.9167 128.098 52.9167 127.293V124.376C52.9167 123.571 53.57 122.918 54.375 122.918H92.2917C93.0967 122.918 93.75 123.571 93.75 124.376V127.293C93.75 128.098 93.0967 128.751 92.2917 128.751Z" fill="#057093"/>
<path id="Vector_6" d="M107.167 85.293L101.333 79.4596C100.75 78.8763 100.75 78.0013 101.333 77.418L103.375 75.3763C103.958 74.793 104.833 74.793 105.417 75.3763L108.042 78.0013L116.5 69.543C117.083 68.9596 117.958 68.9596 118.542 69.543L120.583 71.5846C121.167 72.168 121.167 73.043 120.583 73.6263L108.917 85.293C108.917 85.8763 107.75 85.8763 107.167 85.293Z" fill="url(#paint2_linear_1_2700)"/>
<path id="Vector_7" d="M107.167 131.957L101.333 126.124C100.75 125.54 100.75 124.665 101.333 124.082L103.375 122.04C103.958 121.457 104.833 121.457 105.417 122.04L108.042 124.665L116.5 116.207C117.083 115.624 117.958 115.624 118.542 116.207L120.583 118.249C121.167 118.832 121.167 119.707 120.583 120.29L108.917 131.957C108.917 132.54 107.75 132.54 107.167 131.957Z" fill="url(#paint3_linear_1_2700)"/>
<path id="Vector_8" d="M113.875 100.46L117.958 96.3763C118.542 95.793 118.542 94.918 117.958 94.3346L115.917 92.293C115.333 91.7096 114.458 91.7096 113.875 92.293L109.792 96.3763L105.708 92.293C105.125 91.7096 104.25 91.7096 103.667 92.293L101.625 94.3346C101.042 94.918 101.042 95.793 101.625 96.3763L105.708 100.46L101.625 104.543C101.042 105.126 101.042 106.001 101.625 106.585L103.667 108.626C104.25 109.21 105.125 109.21 105.708 108.626L109.792 104.543L113.875 108.626C114.458 109.21 115.333 109.21 115.917 108.626L117.958 106.585C118.542 106.001 118.542 105.126 117.958 104.543L113.875 100.46Z" fill="url(#paint4_linear_1_2700)"/>
<rect x="7.5" y="7.5" width="155" height="155" rx="12.5" stroke="#D5EAF6" stroke-width="15"/>
</g>
<defs>
<linearGradient id="paint0_linear_1_2700" x1="85" y1="15" x2="85" y2="155" gradientUnits="userSpaceOnUse">
<stop stop-color="#199AE0"/>
<stop offset="0.472222" stop-color="#0D5176" stop-opacity="0.527778"/>
<stop offset="0.940972" stop-color="#12A6F7" stop-opacity="0.465278"/>
<stop offset="1" stop-opacity="0"/>
</linearGradient>
<linearGradient id="paint1_linear_1_2700" x1="98.2096" y1="60.1225" x2="113" y2="45.332" gradientUnits="userSpaceOnUse">
<stop stop-color="#3079D6"/>
<stop offset="1" stop-color="#297CD2"/>
</linearGradient>
<linearGradient id="paint2_linear_1_2700" x1="100.896" y1="77.418" x2="121.021" y2="77.418" gradientUnits="userSpaceOnUse">
<stop stop-color="#C965EB"/>
<stop offset="1" stop-color="#C767E5"/>
</linearGradient>
<linearGradient id="paint3_linear_1_2700" x1="100.896" y1="124.082" x2="121.021" y2="124.082" gradientUnits="userSpaceOnUse">
<stop stop-color="#C965EB"/>
<stop offset="1" stop-color="#C767E5"/>
</linearGradient>
<linearGradient id="paint4_linear_1_2700" x1="101.188" y1="100.46" x2="118.396" y2="100.46" gradientUnits="userSpaceOnUse">
<stop stop-color="#C965EB"/>
<stop offset="1" stop-color="#C767E5"/>
</linearGradient>
</defs>
</svg>
