<svg width="48" height="48" viewBox="0 0 48 48" fill="none" xmlns="http://www.w3.org/2000/svg">
<path d="M4.07812 48C1.82812 48 0 46.1719 0 43.9219V4.07812C0 1.82812 1.82812 0 4.07812 0H43.9219C46.1719 0 48 1.82812 48 4.07812V43.9219C48 46.1719 46.1719 48 43.9219 48H4.07812Z" fill="url(#paint0_radial_46_16)" fill-opacity="0.5"/>
<path d="M4.07812 48C1.82812 48 0 46.1719 0 43.9219V4.07812C0 1.82812 1.82812 0 4.07812 0H43.9219C46.1719 0 48 1.82812 48 4.07812V43.9219C48 46.1719 46.1719 48 43.9219 48H4.07812Z" fill="white" fill-opacity="0.53"/>
<path d="M35.1133 24C35.1133 28.3906 33.0859 32.3047 29.9141 34.8633L32.4453 37.3945C32.707 37.6562 33.1328 37.6718 33.4023 37.4218C37.0234 34.0859 39.3008 29.3125 39.3008 24C39.3008 18.6875 37.0234 13.914 33.4023 10.5781C33.1328 10.3281 32.707 10.3437 32.4453 10.6054L29.9141 13.1367C33.0859 15.6953 35.1133 19.6093 35.1133 24Z" fill="#0078D4"/>
<path d="M30.6484 24C30.6484 27.1602 29.1016 29.9492 26.7266 31.6719L29.9141 34.8633C33.0859 32.3047 35.1133 28.3906 35.1133 24C35.1133 19.6093 33.0859 15.6953 29.9141 13.1367L26.7266 16.3281C29.1016 18.0508 30.6484 20.8398 30.6484 24Z" fill="#199BE2"/>
<path d="M30.6484 24C30.6484 20.8398 29.1016 18.0508 26.7266 16.3281L23.4961 19.5547C25.0937 20.3945 26.1836 22.0703 26.1836 24C26.1836 25.9297 25.0937 27.6055 23.4961 28.4453L26.7266 31.6719C29.1016 29.9492 30.6484 27.1602 30.6484 24Z" fill="#35C1F1"/>
<path d="M19.0508 24L23.4961 28.4453C25.0937 27.6055 26.1836 25.9297 26.1836 24C26.1836 22.0703 25.0937 20.3945 23.4961 19.5547L19.0508 24Z" fill="#50E6FF"/>
<path d="M14.5 30.3984H11.3008C10.4141 30.3984 9.69922 29.6836 9.69922 28.8008V19.1992C9.69922 18.3164 10.4141 17.6016 11.3008 17.6016H14.5V30.3984Z" fill="#5C6369"/>
<path d="M21.6992 38.3984L14.5 30.3984V17.6016L21.6992 9.60156V38.3984Z" fill="#727D86"/>
<path d="M22.5 8.80078C22.0586 8.80078 21.6992 9.16016 21.6992 9.60156V38.3984C21.6992 38.8398 22.0586 39.1992 22.5 39.1992C22.9414 39.1992 23.3008 38.8398 23.3008 38.3984V9.60156C23.3008 9.16016 22.9414 8.80078 22.5 8.80078Z" fill="url(#paint1_linear_46_16)"/>
<defs>
<radialGradient id="paint0_radial_46_16" cx="0" cy="0" r="1" gradientUnits="userSpaceOnUse" gradientTransform="translate(24 24) rotate(90) scale(24)">
<stop stop-color="#ECF0F1"/>
<stop offset="1" stop-color="#ECF0F1" stop-opacity="0"/>
</radialGradient>
<linearGradient id="paint1_linear_46_16" x1="14.8224" y1="14.2944" x2="28.0416" y2="31.0056" gradientUnits="userSpaceOnUse">
<stop stop-color="#A1AAB3"/>
<stop offset="1" stop-color="#8F979E"/>
</linearGradient>
</defs>
</svg>
