<svg width="170" height="170" viewBox="0 0 170 170" fill="none" xmlns="http://www.w3.org/2000/svg">
<g id="back">
<rect x="7.5" y="7.5" width="155" height="155" rx="12.5" fill="white"/>
<rect x="7.5" y="7.5" width="155" height="155" rx="12.5" fill="url(#paint0_linear_1_2731)" fill-opacity="0.2"/>
<path id="Vector" d="M42.9417 89.0877L98.4138 144.56C100.671 146.817 104.329 146.817 106.586 144.56L118.308 132.838C120.566 130.58 120.566 126.923 118.308 124.665L62.8362 69.1931C60.5787 66.9356 56.9213 66.9356 54.6638 69.1931L42.9417 80.9152C40.6871 83.1727 40.6871 86.8302 42.9417 89.0877Z" fill="url(#paint1_linear_1_2731)"/>
<path id="Vector_2" d="M62.8362 100.81L118.308 45.3377C120.566 43.0802 120.566 39.4227 118.308 37.1652L106.586 25.4431C104.329 23.1856 100.671 23.1856 98.4138 25.4431L42.9417 80.9152C40.6842 83.1727 40.6842 86.8302 42.9417 89.0877L54.6638 100.81C56.9213 103.064 60.5787 103.064 62.8362 100.81Z" fill="url(#paint2_linear_1_2731)"/>
<rect x="7.5" y="7.5" width="155" height="155" rx="12.5" stroke="#D5EAF6" stroke-width="15"/>
</g>
<defs>
<linearGradient id="paint0_linear_1_2731" x1="85" y1="15" x2="85" y2="155" gradientUnits="userSpaceOnUse">
<stop stop-color="#199AE0"/>
<stop offset="0.472222" stop-color="#0D5176" stop-opacity="0.527778"/>
<stop offset="0.940972" stop-color="#12A6F7" stop-opacity="0.465278"/>
<stop offset="1" stop-opacity="0"/>
</linearGradient>
<linearGradient id="paint1_linear_1_2731" x1="115.491" y1="141.742" x2="65.6683" y2="91.9198" gradientUnits="userSpaceOnUse">
<stop offset="0.365" stop-color="#199AE0"/>
<stop offset="0.699" stop-color="#1898DE"/>
<stop offset="0.819" stop-color="#1691D8"/>
<stop offset="0.905" stop-color="#1186CC"/>
<stop offset="0.974" stop-color="#0A75BC"/>
<stop offset="1" stop-color="#076CB3"/>
</linearGradient>
<linearGradient id="paint2_linear_1_2731" x1="49.1804" y1="94.571" x2="113.335" y2="30.416" gradientUnits="userSpaceOnUse">
<stop stop-color="#32BDEF"/>
<stop offset="1" stop-color="#1EA2E4"/>
</linearGradient>
</defs>
</svg>
