<svg width="170" height="170" viewBox="0 0 170 170" fill="none" xmlns="http://www.w3.org/2000/svg">
<g id="barcode">
<rect x="7.5" y="7.5" width="155" height="155" rx="12.5" fill="white"/>
<rect x="7.5" y="7.5" width="155" height="155" rx="12.5" fill="url(#paint0_linear_1_2767)" fill-opacity="0.2"/>
<path id="Vector" d="M51.4583 32.5H60.2083C61.0133 32.5 61.6667 33.1533 61.6667 33.9583V136.042C61.6667 136.847 61.0133 137.5 60.2083 137.5H51.4583C50.6533 137.5 50 136.847 50 136.042V33.9583C50 33.1533 50.6533 32.5 51.4583 32.5ZM68.9583 137.5H71.875C72.68 137.5 73.3333 136.847 73.3333 136.042V33.9583C73.3333 33.1533 72.68 32.5 71.875 32.5H68.9583C68.1533 32.5 67.5 33.1533 67.5 33.9583V136.042C67.5 136.847 68.1533 137.5 68.9583 137.5ZM33.9583 137.5H42.7083C43.5133 137.5 44.1667 136.847 44.1667 136.042V33.9583C44.1667 33.1533 43.5133 32.5 42.7083 32.5H33.9583C33.1533 32.5 32.5 33.1533 32.5 33.9583V136.042C32.5 136.847 33.1533 137.5 33.9583 137.5ZM80.625 137.5H101.042C101.847 137.5 102.5 136.847 102.5 136.042V33.9583C102.5 33.1533 101.847 32.5 101.042 32.5H80.625C79.82 32.5 79.1667 33.1533 79.1667 33.9583V136.042C79.1667 136.847 79.82 137.5 80.625 137.5ZM125.833 33.9583V136.042C125.833 136.847 126.487 137.5 127.292 137.5H136.042C136.847 137.5 137.5 136.847 137.5 136.042V33.9583C137.5 33.1533 136.847 32.5 136.042 32.5H127.292C126.487 32.5 125.833 33.1533 125.833 33.9583ZM109.792 137.5H118.542C119.347 137.5 120 136.847 120 136.042V33.9583C120 33.1533 119.347 32.5 118.542 32.5H109.792C108.987 32.5 108.333 33.1533 108.333 33.9583V136.042C108.333 136.847 108.987 137.5 109.792 137.5Z" fill="url(#paint1_linear_1_2767)"/>
<rect x="7.5" y="7.5" width="155" height="155" rx="12.5" stroke="#D5EAF6" stroke-width="15"/>
</g>
<defs>
<linearGradient id="paint0_linear_1_2767" x1="85" y1="15" x2="85" y2="155" gradientUnits="userSpaceOnUse">
<stop stop-color="#199AE0"/>
<stop offset="0.472222" stop-color="#0D5176" stop-opacity="0.527778"/>
<stop offset="0.940972" stop-color="#12A6F7" stop-opacity="0.465278"/>
<stop offset="1" stop-opacity="0"/>
</linearGradient>
<linearGradient id="paint1_linear_1_2767" x1="67.7567" y1="29.1283" x2="100.076" y2="133.843" gradientUnits="userSpaceOnUse">
<stop stop-color="#0176D0"/>
<stop offset="1" stop-color="#0A85D9"/>
</linearGradient>
</defs>
</svg>
