<svg width="170" height="170" viewBox="0 0 170 170" fill="none" xmlns="http://www.w3.org/2000/svg">
<g id="calendar-plus">
<rect x="7.5" y="7.5" width="155" height="155" rx="12.5" fill="white"/>
<rect x="7.5" y="7.5" width="155" height="155" rx="12.5" fill="url(#paint0_linear_1_2826)" fill-opacity="0.2"/>
<path id="Vector" d="M32.5 131.667V50H137.5V131.667C137.5 134.875 134.875 137.5 131.667 137.5H38.3333C35.125 137.5 32.5 134.875 32.5 131.667Z" fill="url(#paint1_linear_1_2826)"/>
<path id="Vector_2" d="M137.5 38.3333V55.8333H32.5V38.3333C32.5 35.125 35.125 32.5 38.3333 32.5H131.667C134.875 32.5 137.5 35.125 137.5 38.3333Z" fill="url(#paint2_linear_1_2826)"/>
<path id="Vector_3" opacity="0.05" d="M118.542 51.4583C113.709 51.4583 109.792 47.5413 109.792 42.7083V32.5H127.292V42.7083C127.292 47.5413 123.375 51.4583 118.542 51.4583Z" fill="black"/>
<path id="Vector_4" opacity="0.07" d="M118.542 49.2708C114.916 49.2708 111.979 46.3338 111.979 42.7083V32.5H125.104V42.7083C125.104 46.3338 122.167 49.2708 118.542 49.2708Z" fill="black"/>
<path id="Vector_5" opacity="0.05" d="M51.4583 51.4583C46.6254 51.4583 42.7083 47.5413 42.7083 42.7083V32.5H60.2083V42.7083C60.2083 47.5413 56.2912 51.4583 51.4583 51.4583Z" fill="black"/>
<path id="Vector_6" opacity="0.07" d="M51.4583 49.2708C47.8329 49.2708 44.8958 46.3338 44.8958 42.7083V32.5H58.0208V42.7083C58.0208 46.3338 55.0837 49.2708 51.4583 49.2708Z" fill="black"/>
<path id="Vector_7" d="M51.4583 47.0846C49.0433 47.0846 47.0833 45.1246 47.0833 42.7096V31.043C47.0833 28.628 49.0433 26.668 51.4583 26.668C53.8733 26.668 55.8333 28.628 55.8333 31.043V42.7096C55.8333 45.1246 53.8733 47.0846 51.4583 47.0846Z" fill="#3CCBF4"/>
<path id="Vector_8" d="M125.833 71.8763V80.6263C125.833 81.4313 125.18 82.0846 124.375 82.0846H115.625C114.82 82.0846 114.167 81.4313 114.167 80.6263V71.8763C114.167 71.0713 114.82 70.418 115.625 70.418H124.375C125.18 70.418 125.833 71.0713 125.833 71.8763ZM102.5 71.8763V80.6263C102.5 81.4313 101.847 82.0846 101.042 82.0846H92.2917C91.4867 82.0846 90.8333 81.4313 90.8333 80.6263V71.8763C90.8333 71.0713 91.4867 70.418 92.2917 70.418H101.042C101.847 70.418 102.5 71.0713 102.5 71.8763ZM79.1667 71.8763V80.6263C79.1667 81.4313 78.5133 82.0846 77.7083 82.0846H68.9583C68.1533 82.0846 67.5 81.4313 67.5 80.6263V71.8763C67.5 71.0713 68.1533 70.418 68.9583 70.418H77.7083C78.5133 70.418 79.1667 71.0713 79.1667 71.8763Z" fill="white"/>
<path id="Vector_9" d="M125.833 92.2904V101.04C125.833 101.845 125.18 102.499 124.375 102.499H115.625C114.82 102.499 114.167 101.845 114.167 101.04V92.2904C114.167 91.4854 114.82 90.832 115.625 90.832H124.375C125.18 90.832 125.833 91.4854 125.833 92.2904ZM102.5 92.2904V101.04C102.5 101.845 101.847 102.499 101.042 102.499H92.2917C91.4867 102.499 90.8333 101.845 90.8333 101.04V92.2904C90.8333 91.4854 91.4867 90.832 92.2917 90.832H101.042C101.847 90.832 102.5 91.4854 102.5 92.2904ZM79.1667 92.2904V101.04C79.1667 101.845 78.5133 102.499 77.7083 102.499H68.9583C68.1533 102.499 67.5 101.845 67.5 101.04V92.2904C67.5 91.4854 68.1533 90.832 68.9583 90.832H77.7083C78.5133 90.832 79.1667 91.4854 79.1667 92.2904ZM55.8333 92.2904V101.04C55.8333 101.845 55.18 102.499 54.375 102.499H45.625C44.82 102.499 44.1667 101.845 44.1667 101.04V92.2904C44.1667 91.4854 44.82 90.832 45.625 90.832H54.375C55.18 90.832 55.8333 91.4854 55.8333 92.2904Z" fill="white"/>
<path id="Vector_10" d="M102.5 112.708V121.458C102.5 122.263 101.847 122.917 101.042 122.917H92.2917C91.4867 122.917 90.8333 122.263 90.8333 121.458V112.708C90.8333 111.903 91.4867 111.25 92.2917 111.25H101.042C101.847 111.25 102.5 111.903 102.5 112.708ZM79.1667 112.708V121.458C79.1667 122.263 78.5133 122.917 77.7083 122.917H68.9583C68.1533 122.917 67.5 122.263 67.5 121.458V112.708C67.5 111.903 68.1533 111.25 68.9583 111.25H77.7083C78.5133 111.25 79.1667 111.903 79.1667 112.708ZM55.8333 112.708V121.458C55.8333 122.263 55.18 122.917 54.375 122.917H45.625C44.82 122.917 44.1667 122.263 44.1667 121.458V112.708C44.1667 111.903 44.82 111.25 45.625 111.25H54.375C55.18 111.25 55.8333 111.903 55.8333 112.708Z" fill="white"/>
<path id="Vector_11" d="M118.542 47.0846C116.127 47.0846 114.167 45.1246 114.167 42.7096V31.043C114.167 28.628 116.127 26.668 118.542 26.668C120.957 26.668 122.917 28.628 122.917 31.043V42.7096C122.917 45.1246 120.957 47.0846 118.542 47.0846Z" fill="#3CCBF4"/>
<path id="Vector_12" d="M125.833 90.832C106.505 90.832 90.8333 106.503 90.8333 125.832C90.8333 129.93 91.5742 133.844 92.8663 137.499H131.667C134.875 137.499 137.5 134.874 137.5 131.665V92.8649C133.845 91.5729 129.931 90.832 125.833 90.832Z" fill="url(#paint3_radial_1_2826)"/>
<path id="Vector_13" d="M125.833 155.001C141.942 155.001 155 141.943 155 125.835C155 109.726 141.942 96.668 125.833 96.668C109.725 96.668 96.6667 109.726 96.6667 125.835C96.6667 141.943 109.725 155.001 125.833 155.001Z" fill="url(#paint4_linear_1_2826)"/>
<path id="Vector_14" d="M127.292 140.417H124.375C123.57 140.417 122.917 139.763 122.917 138.958V112.708C122.917 111.903 123.57 111.25 124.375 111.25H127.292C128.097 111.25 128.75 111.903 128.75 112.708V138.958C128.75 139.763 128.097 140.417 127.292 140.417Z" fill="white"/>
<path id="Vector_15" d="M111.25 127.293V124.376C111.25 123.571 111.903 122.918 112.708 122.918H138.958C139.763 122.918 140.417 123.571 140.417 124.376V127.293C140.417 128.098 139.763 128.751 138.958 128.751H112.708C111.903 128.751 111.25 128.098 111.25 127.293Z" fill="white"/>
<rect x="7.5" y="7.5" width="155" height="155" rx="12.5" stroke="#D5EAF6" stroke-width="15"/>
</g>
<defs>
<linearGradient id="paint0_linear_1_2826" x1="85" y1="15" x2="85" y2="155" gradientUnits="userSpaceOnUse">
<stop stop-color="#199AE0"/>
<stop offset="0.472222" stop-color="#0D5176" stop-opacity="0.527778"/>
<stop offset="0.940972" stop-color="#12A6F7" stop-opacity="0.465278"/>
<stop offset="1" stop-opacity="0"/>
</linearGradient>
<linearGradient id="paint1_linear_1_2826" x1="33.7075" y1="54.8475" x2="112.35" y2="112.285" gradientUnits="userSpaceOnUse">
<stop stop-color="#28AFEA"/>
<stop offset="1" stop-color="#047ED6"/>
</linearGradient>
<linearGradient id="paint2_linear_1_2826" x1="33.725" y1="34.2733" x2="135.161" y2="54.9" gradientUnits="userSpaceOnUse">
<stop stop-color="#0077D2"/>
<stop offset="1" stop-color="#0B59A2"/>
</linearGradient>
<radialGradient id="paint3_radial_1_2826" cx="0" cy="0" r="1" gradientUnits="userSpaceOnUse" gradientTransform="translate(125.895 125.955) scale(34.2913)">
<stop/>
<stop offset="1" stop-opacity="0"/>
</radialGradient>
<linearGradient id="paint4_linear_1_2826" x1="114.429" y1="105.911" x2="143.412" y2="156.547" gradientUnits="userSpaceOnUse">
<stop stop-color="#21AD64"/>
<stop offset="1" stop-color="#088242"/>
</linearGradient>
</defs>
</svg>
