<svg width="170" height="170" viewBox="0 0 170 170" fill="none" xmlns="http://www.w3.org/2000/svg">
<g id="chat-message">
<rect x="7.5" y="7.5" width="155" height="155" rx="12.5" fill="white"/>
<rect x="7.5" y="7.5" width="155" height="155" rx="12.5" fill="url(#paint0_linear_1_19)" fill-opacity="0.2"/>
<path id="Vector" d="M85 26.6667C117.217 26.6667 143.333 52.7825 143.333 85C143.333 95.6079 140.458 105.525 135.511 114.094L148.823 144.38C150.298 147.737 146.749 151.089 143.482 149.426L115.033 134.939C106.251 140.233 95.9987 143.333 85 143.333C52.7825 143.333 26.6667 117.217 26.6667 85C26.6667 52.7825 52.7825 26.6667 85 26.6667Z" fill="url(#paint1_linear_1_19)"/>
<path id="Vector_2" opacity="0.05" d="M54.4421 76.25C51.995 76.25 50 74.2871 50 71.875V68.9583C50 66.5462 51.995 64.5833 54.4421 64.5833H115.555C118.005 64.5833 120 66.5462 120 68.9583V71.875C120 74.2871 118.005 76.25 115.558 76.25H54.4421Z" fill="black"/>
<path id="Vector_3" opacity="0.07" d="M54.4421 74.7917C52.7971 74.7917 51.4583 73.4821 51.4583 71.875V68.9583C51.4583 67.3513 52.7971 66.0417 54.4421 66.0417H115.555C117.2 66.0417 118.539 67.3513 118.539 68.9583V71.875C118.539 73.4821 117.2 74.7917 115.555 74.7917H54.4421Z" fill="black"/>
<path id="Vector_4" d="M117.083 68.9583V71.875C117.083 72.68 116.398 73.3333 115.555 73.3333H54.445C53.6021 73.3333 52.9167 72.68 52.9167 71.875V68.9583C52.9167 68.1533 53.6021 67.5 54.445 67.5H115.555C116.398 67.5 117.083 68.1533 117.083 68.9583Z" fill="white"/>
<path id="Vector_5" opacity="0.05" d="M54.4421 105.417C51.995 105.417 50 103.454 50 101.042V98.125C50 95.7129 51.995 93.75 54.4421 93.75H115.555C118.005 93.75 120 95.7129 120 98.125V101.042C120 103.454 118.005 105.417 115.558 105.417H54.4421Z" fill="black"/>
<path id="Vector_6" opacity="0.07" d="M54.4421 103.958C52.7971 103.958 51.4583 102.649 51.4583 101.042V98.125C51.4583 96.5179 52.7971 95.2083 54.4421 95.2083H115.555C117.2 95.2083 118.539 96.5179 118.539 98.125V101.042C118.539 102.649 117.2 103.958 115.555 103.958H54.4421Z" fill="black"/>
<path id="Vector_7" d="M117.083 98.125V101.042C117.083 101.847 116.398 102.5 115.555 102.5H54.445C53.6021 102.5 52.9167 101.847 52.9167 101.042V98.125C52.9167 97.32 53.6021 96.6667 54.445 96.6667H115.555C116.398 96.6667 117.083 97.32 117.083 98.125Z" fill="white"/>
<path id="Vector_8" opacity="0.05" d="M54.4508 90.8333C51.9979 90.8333 50 88.8704 50 86.4583V83.5417C50 81.1296 51.9979 79.1667 54.4508 79.1667H109.713C112.169 79.1667 114.167 81.1296 114.167 83.5417V86.4583C114.167 88.8704 112.169 90.8333 109.716 90.8333H54.4508Z" fill="black"/>
<path id="Vector_9" opacity="0.07" d="M54.4508 89.375C52.8 89.375 51.4583 88.0654 51.4583 86.4583V83.5417C51.4583 81.9346 52.8 80.625 54.4508 80.625H109.713C111.364 80.625 112.705 81.9346 112.705 83.5417V86.4583C112.705 88.0654 111.364 89.375 109.713 89.375H54.4508Z" fill="black"/>
<path id="Vector_10" d="M111.25 83.5417V86.4583C111.25 87.2633 110.562 87.9167 109.716 87.9167H54.4508C53.605 87.9167 52.9167 87.2633 52.9167 86.4583V83.5417C52.9167 82.7367 53.605 82.0833 54.4508 82.0833H109.713C110.562 82.0833 111.25 82.7367 111.25 83.5417Z" fill="white"/>
<rect x="7.5" y="7.5" width="155" height="155" rx="12.5" stroke="#D5EAF6" stroke-width="15"/>
</g>
<defs>
<linearGradient id="paint0_linear_1_19" x1="85" y1="15" x2="85" y2="155" gradientUnits="userSpaceOnUse">
<stop stop-color="#199AE0"/>
<stop offset="0.472222" stop-color="#0D5176" stop-opacity="0.527778"/>
<stop offset="0.940972" stop-color="#12A6F7" stop-opacity="0.465278"/>
<stop offset="1" stop-opacity="0"/>
</linearGradient>
<linearGradient id="paint1_linear_1_19" x1="55.2442" y1="34.8158" x2="125.982" y2="154.119" gradientUnits="userSpaceOnUse">
<stop stop-color="#0176D0"/>
<stop offset="1" stop-color="#0A85D9"/>
</linearGradient>
</defs>
</svg>
