<svg width="170" height="170" viewBox="0 0 170 170" fill="none" xmlns="http://www.w3.org/2000/svg">
<g id="check-file">
<rect x="7.5" y="7.5" width="155" height="155" rx="12.5" fill="white"/>
<rect x="7.5" y="7.5" width="155" height="155" rx="12.5" fill="url(#paint0_linear_1_59)" fill-opacity="0.2"/>
<path id="Vector" d="M128.75 61.6667V134.583C128.75 137.806 126.14 140.417 122.917 140.417H47.0833C43.8604 140.417 41.25 137.806 41.25 134.583V35.4167C41.25 32.1938 43.8604 29.5833 47.0833 29.5833H96.6667L105.417 52.9167L128.75 61.6667Z" fill="#50E6FF"/>
<path id="Vector_2" d="M96.6667 29.5833V55.8333C96.6667 59.0563 99.2771 61.6667 102.5 61.6667H128.75L96.6667 29.5833Z" fill="url(#paint1_linear_1_59)"/>
<path id="Vector_3" d="M77.6792 119.332L59.4179 101.071C58.5254 100.178 58.5254 98.7345 59.4179 97.842L62.6467 94.6133C63.5392 93.7208 64.9829 93.7208 65.8754 94.6133L79.295 108.033L104.127 83.2004C105.02 82.3079 106.464 82.3079 107.356 83.2004L110.585 86.4291C111.477 87.3216 111.477 88.7654 110.585 89.6579L80.9079 119.332C80.0154 120.222 78.5717 120.222 77.6792 119.332Z" fill="#057093"/>
<rect x="7.5" y="7.5" width="155" height="155" rx="12.5" stroke="#D5EAF6" stroke-width="15"/>
</g>
<defs>
<linearGradient id="paint0_linear_1_59" x1="85" y1="15" x2="85" y2="155" gradientUnits="userSpaceOnUse">
<stop stop-color="#199AE0"/>
<stop offset="0.472222" stop-color="#0D5176" stop-opacity="0.527778"/>
<stop offset="0.940972" stop-color="#12A6F7" stop-opacity="0.465278"/>
<stop offset="1" stop-opacity="0"/>
</linearGradient>
<linearGradient id="paint1_linear_1_59" x1="98.2096" y1="60.1238" x2="113" y2="45.3333" gradientUnits="userSpaceOnUse">
<stop stop-color="#3079D6"/>
<stop offset="1" stop-color="#297CD2"/>
</linearGradient>
</defs>
</svg>
