<svg width="170" height="170" viewBox="0 0 170 170" fill="none" xmlns="http://www.w3.org/2000/svg">
<g id="circled-play">
<rect x="7.5" y="7.5" width="155" height="155" rx="12.5" fill="white"/>
<rect x="7.5" y="7.5" width="155" height="155" rx="12.5" fill="url(#paint0_linear_1_88)" fill-opacity="0.2"/>
<path id="Vector" d="M143.333 85C143.333 117.215 117.215 143.333 85 143.333C52.7854 143.333 26.6667 117.215 26.6667 85C26.6667 52.7854 52.7854 26.6666 85 26.6666C117.215 26.6666 143.333 52.7854 143.333 85Z" fill="url(#paint1_linear_1_88)"/>
<path id="Vector_2" opacity="0.05" d="M112.277 80.45L78.9217 58.2134C77.2388 57.0904 75.0892 56.9854 73.3071 57.9421C71.525 58.8958 70.4167 60.7421 70.4167 62.7633V107.237C70.4167 109.258 71.525 111.107 73.3071 112.061C74.1179 112.495 75.0017 112.708 75.8854 112.708C76.9471 112.708 78.0029 112.399 78.9188 111.79L112.274 89.5529C113.799 88.535 114.709 86.8346 114.709 85.0029C114.712 83.1684 113.799 81.4679 112.277 80.45Z" fill="black"/>
<path id="Vector_3" opacity="0.07" d="M78.2362 59.4413L109.707 80.4238C111.717 81.8675 113.07 83.1596 113.07 84.8367C113.07 86.5138 112.417 87.6834 110.985 88.7275C109.902 89.515 78.77 110.206 78.77 110.206C76.1421 111.968 71.875 111.594 71.875 105.834V63.8367C71.875 57.9888 76.495 58.2805 78.2362 59.4413Z" fill="black"/>
<path id="Vector_4" d="M73.3333 107.073V62.9295C73.3333 60.7625 75.7483 59.4675 77.5537 60.672L110.664 82.7454C112.277 83.8187 112.277 86.187 110.664 87.2633L77.5537 109.337C75.7483 110.535 73.3333 109.243 73.3333 107.073Z" fill="white"/>
<rect x="7.5" y="7.5" width="155" height="155" rx="12.5" stroke="#D5EAF6" stroke-width="15"/>
</g>
<defs>
<linearGradient id="paint0_linear_1_88" x1="85" y1="15" x2="85" y2="155" gradientUnits="userSpaceOnUse">
<stop stop-color="#199AE0"/>
<stop offset="0.472222" stop-color="#0D5176" stop-opacity="0.527778"/>
<stop offset="0.940972" stop-color="#12A6F7" stop-opacity="0.465278"/>
<stop offset="1" stop-opacity="0"/>
</linearGradient>
<linearGradient id="paint1_linear_1_88" x1="43.7525" y1="43.7525" x2="126.248" y2="126.247" gradientUnits="userSpaceOnUse">
<stop stop-color="#0176D0"/>
<stop offset="1" stop-color="#0A85D9"/>
</linearGradient>
</defs>
</svg>
