<svg width="170" height="170" viewBox="0 0 170 170" fill="none" xmlns="http://www.w3.org/2000/svg">
<g id="close">
<rect x="7.5" y="7.5" width="155" height="155" rx="12.5" fill="white"/>
<rect x="7.5" y="7.5" width="155" height="155" rx="12.5" fill="url(#paint0_linear_1_93)" fill-opacity="0.2"/>
<path id="Vector" d="M138.725 51.1696C140.982 48.9121 140.982 45.2546 138.725 42.9971L127.003 31.275C124.745 29.0175 121.088 29.0175 118.83 31.275L85 65.1055L51.1696 31.275C48.9121 29.0175 45.2546 29.0175 42.9971 31.275L31.275 42.9971C29.0175 45.2546 29.0175 48.9121 31.275 51.1696L65.1054 85L31.275 118.83C29.0175 121.088 29.0175 124.745 31.275 127.003L42.9971 138.725C45.2546 140.983 48.9121 140.983 51.1696 138.725L138.725 51.1696Z" fill="url(#paint1_linear_1_93)"/>
<path id="Vector_2" d="M85 104.895L118.83 138.725C121.088 140.982 124.745 140.982 127.003 138.725L138.725 127.003C140.982 124.745 140.982 121.088 138.725 118.83L104.895 85L85 104.895Z" fill="url(#paint2_linear_1_93)"/>
<rect x="7.5" y="7.5" width="155" height="155" rx="12.5" stroke="#D5EAF6" stroke-width="15"/>
</g>
<defs>
<linearGradient id="paint0_linear_1_93" x1="85" y1="15" x2="85" y2="155" gradientUnits="userSpaceOnUse">
<stop stop-color="#199AE0"/>
<stop offset="0.472222" stop-color="#0D5176" stop-opacity="0.527778"/>
<stop offset="0.940972" stop-color="#12A6F7" stop-opacity="0.465278"/>
<stop offset="1" stop-opacity="0"/>
</linearGradient>
<linearGradient id="paint1_linear_1_93" x1="36.9742" y1="36.9742" x2="95.3746" y2="95.3746" gradientUnits="userSpaceOnUse">
<stop stop-color="#F44F5A"/>
<stop offset="0.443" stop-color="#EE3D4A"/>
<stop offset="1" stop-color="#E52030"/>
</linearGradient>
<linearGradient id="paint2_linear_1_93" x1="94.8379" y1="94.8379" x2="133.145" y2="133.145" gradientUnits="userSpaceOnUse">
<stop stop-color="#A8142E"/>
<stop offset="0.179" stop-color="#BA1632"/>
<stop offset="0.243" stop-color="#C21734"/>
</linearGradient>
</defs>
</svg>
