<svg width="170" height="170" viewBox="0 0 170 170" fill="none" xmlns="http://www.w3.org/2000/svg">
<g id="cloud-mail">
<g clip-path="url(#clip0_1_124)">
<rect x="15" y="15" width="140" height="140" rx="5" fill="white"/>
<rect x="15" y="15" width="140" height="140" rx="5" fill="url(#paint0_linear_1_124)" fill-opacity="0.2"/>
<path id="Vector" d="M155 90.8333C155 110.083 139.25 125.833 120 125.833C114.75 125.833 47.9583 125.833 42.7083 125.833C27.5417 125.833 15 113.583 15 98.125C15 85 24.3333 73.9166 36.5833 71C41.5417 50.5833 60.2083 35.4166 82.0833 35.4166C98.125 35.4166 112.417 43.5833 120.583 55.8333C139.833 56.125 155 71.875 155 90.8333Z" fill="url(#paint1_linear_1_124)"/>
<path id="Vector_2" opacity="0.05" d="M120.583 55.8334C113 44.4584 100.458 36.875 85.875 35.7084C85.5833 36.2917 85 36.875 85 37.4584C84.7083 39.2084 85 40.6667 86.1667 41.8334L99 54.6667V66.3334C99 68.9584 101.042 71 103.667 71H115.042L127.875 83.8334C128.75 84.7084 129.917 85.2917 131.375 85.2917C133.417 85.2917 135.167 84.125 136.042 82.0834L142.167 64C136.333 59.0417 128.75 56.125 120.583 55.8334Z" fill="black"/>
<path id="Vector_3" opacity="0.07" d="M120.583 55.8334C113.292 45.0417 101.333 37.4584 87.9167 35.7084C87.3333 36.2917 86.75 36.875 86.4583 37.75C86.1667 38.9167 86.4583 40.0834 87.3333 40.9584L100.458 54.0834V66.3334C100.458 68.0834 101.917 69.5417 103.667 69.5417H115.917L129.042 82.6667C129.625 83.25 130.5 83.5417 131.375 83.5417C132.833 83.5417 134 82.6667 134.583 81.2084L141 62.8334C135.167 58.4584 128.167 56.125 120.583 55.8334Z" fill="black"/>
<path id="Vector_4" d="M152.667 14.9999L89.0833 36.875C87.625 37.4583 87.3333 38.9166 88.5 40.0833L130.208 81.7916C131.083 82.6666 132.833 82.375 133.417 81.2083L155 17.3333C155.292 15.8749 154.125 14.7083 152.667 14.9999Z" fill="#CCCCCC"/>
<path id="Vector_5" d="M109.208 60.7917L129.917 81.5C130.792 82.375 132.542 82.0834 133.125 80.9167L155 17.3334C155.292 16.75 155 15.875 154.417 15.5834L109.208 60.7917Z" fill="#999999"/>
<path id="Vector_6" d="M146.25 23.75L101.917 53.5V66.3333C101.917 67.2083 102.792 68.0833 103.667 68.0833H116.5L146.25 23.75Z" fill="#64717C"/>
</g>
<rect x="7.5" y="7.5" width="155" height="155" rx="12.5" stroke="#D5EAF6" stroke-width="15"/>
</g>
<defs>
<linearGradient id="paint0_linear_1_124" x1="85" y1="15" x2="85" y2="155" gradientUnits="userSpaceOnUse">
<stop stop-color="#199AE0"/>
<stop offset="0.472222" stop-color="#0D5176" stop-opacity="0.527778"/>
<stop offset="0.940972" stop-color="#12A6F7" stop-opacity="0.465278"/>
<stop offset="1" stop-opacity="0"/>
</linearGradient>
<linearGradient id="paint1_linear_1_124" x1="56.5392" y1="39.3775" x2="103.002" y2="127.86" gradientUnits="userSpaceOnUse">
<stop stop-color="#2AA4F4"/>
<stop offset="1" stop-color="#007AD9"/>
</linearGradient>
<clipPath id="clip0_1_124">
<rect x="15" y="15" width="140" height="140" rx="5" fill="white"/>
</clipPath>
</defs>
</svg>
