<svg width="170" height="170" viewBox="0 0 170 170" fill="none" xmlns="http://www.w3.org/2000/svg">
<g id="collapse">
<rect x="7.5" y="7.5" width="155" height="155" rx="12.5" fill="white"/>
<rect x="7.5" y="7.5" width="155" height="155" rx="12.5" fill="url(#paint0_linear_1_143)" fill-opacity="0.2"/>
<path id="Vector" d="M96.6667 100.791L109.188 113.312L99.1575 123.342C98.2387 124.261 96.6667 123.611 96.6667 122.313V100.791Z" fill="url(#paint1_linear_1_143)"/>
<path id="Vector_2" d="M136.64 132.533L132.533 136.654C131.395 137.798 129.546 137.798 128.406 136.657L97.5125 105.767C96.9875 105.213 96.6667 104.483 96.6667 103.696V99.5834C96.6667 97.9792 97.9792 96.6667 99.5833 96.6667H122.304C123.617 96.6667 124.258 98.2417 123.354 99.1459L115.362 107.138L136.637 128.412C137.774 129.549 137.777 131.393 136.64 132.533Z" fill="url(#paint2_linear_1_143)"/>
<path id="Vector_3" d="M100.791 73.3333L113.312 60.812L123.343 70.8424C124.261 71.7612 123.611 73.3333 122.313 73.3333H100.791Z" fill="url(#paint3_linear_1_143)"/>
<path id="Vector_4" d="M136.663 37.4963C137.803 38.6367 137.8 40.483 136.663 41.6234L105.767 72.4875C105.213 73.0125 104.483 73.3334 103.696 73.3334H99.5833C97.9792 73.3334 96.6667 72.0209 96.6667 70.4167V47.6959C96.6667 46.3834 98.2417 45.7417 99.1458 46.6459L107.137 54.6375L128.409 33.3663C129.549 32.2259 131.395 32.2259 132.533 33.3663L136.663 37.4963Z" fill="url(#paint4_linear_1_143)"/>
<path id="Vector_5" d="M73.3333 100.791L60.8121 113.312L70.8425 123.342C71.7612 124.261 73.3333 123.611 73.3333 122.313V100.791Z" fill="url(#paint5_linear_1_143)"/>
<path id="Vector_6" d="M73.3333 99.5834V103.696C73.3333 104.483 73.0125 105.213 72.4875 105.767L41.6204 136.66C40.4829 137.801 38.6337 137.801 37.4933 136.66L33.3662 132.533C32.2258 131.393 32.2258 129.546 33.3662 128.409L54.6375 107.138L46.6458 99.1459C45.7417 98.2417 46.3833 96.6667 47.6958 96.6667H70.4167C72.0208 96.6667 73.3333 97.9792 73.3333 99.5834Z" fill="url(#paint6_linear_1_143)"/>
<path id="Vector_7" d="M69.2092 73.3333L56.6879 60.812L46.6575 70.8424C45.7387 71.7612 46.3892 73.3333 47.6871 73.3333H69.2092Z" fill="url(#paint7_linear_1_143)"/>
<path id="Vector_8" d="M73.3333 47.6958V70.4166C73.3333 72.0208 72.0208 73.3333 70.4167 73.3333H66.3042C65.5167 73.3333 64.7875 73.0125 64.2333 72.4875L33.3633 41.6175C32.2258 40.48 32.2229 38.6366 33.3604 37.4962L37.4671 33.375C38.6046 32.2316 40.4537 32.2316 41.5942 33.372L62.8625 54.6404L70.8542 46.6487C71.7583 45.7416 73.3333 46.3833 73.3333 47.6958Z" fill="url(#paint8_linear_1_143)"/>
<rect x="7.5" y="7.5" width="155" height="155" rx="12.5" stroke="#D5EAF6" stroke-width="15"/>
</g>
<defs>
<linearGradient id="paint0_linear_1_143" x1="85" y1="15" x2="85" y2="155" gradientUnits="userSpaceOnUse">
<stop stop-color="#199AE0"/>
<stop offset="0.472222" stop-color="#0D5176" stop-opacity="0.527778"/>
<stop offset="0.940972" stop-color="#12A6F7" stop-opacity="0.465278"/>
<stop offset="1" stop-opacity="0"/>
</linearGradient>
<linearGradient id="paint1_linear_1_143" x1="92.1662" y1="117.815" x2="101.259" y2="108.722" gradientUnits="userSpaceOnUse">
<stop offset="0.365" stop-color="#199AE0"/>
<stop offset="0.699" stop-color="#1898DE"/>
<stop offset="0.819" stop-color="#1691D8"/>
<stop offset="0.905" stop-color="#1186CC"/>
<stop offset="0.974" stop-color="#0A75BC"/>
<stop offset="1" stop-color="#076CB3"/>
</linearGradient>
<linearGradient id="paint2_linear_1_143" x1="105.245" y1="196.388" x2="134.446" y2="-4.36366" gradientUnits="userSpaceOnUse">
<stop stop-color="#32BDEF"/>
<stop offset="1" stop-color="#1EA2E4"/>
</linearGradient>
<linearGradient id="paint3_linear_1_143" x1="117.868" y1="77.9074" x2="108.779" y2="68.8184" gradientUnits="userSpaceOnUse">
<stop offset="0.365" stop-color="#199AE0"/>
<stop offset="0.699" stop-color="#1898DE"/>
<stop offset="0.819" stop-color="#1691D8"/>
<stop offset="0.905" stop-color="#1186CC"/>
<stop offset="0.974" stop-color="#0A75BC"/>
<stop offset="1" stop-color="#076CB3"/>
</linearGradient>
<linearGradient id="paint4_linear_1_143" x1="102.322" y1="145.2" x2="135.695" y2="-84.2133" gradientUnits="userSpaceOnUse">
<stop stop-color="#32BDEF"/>
<stop offset="1" stop-color="#1EA2E4"/>
</linearGradient>
<linearGradient id="paint5_linear_1_143" x1="77.8882" y1="117.887" x2="68.7993" y2="108.798" gradientUnits="userSpaceOnUse">
<stop offset="0.365" stop-color="#199AE0"/>
<stop offset="0.699" stop-color="#1898DE"/>
<stop offset="0.819" stop-color="#1691D8"/>
<stop offset="0.905" stop-color="#1186CC"/>
<stop offset="0.974" stop-color="#0A75BC"/>
<stop offset="1" stop-color="#076CB3"/>
</linearGradient>
<linearGradient id="paint6_linear_1_143" x1="39.5496" y1="209.02" x2="72.9367" y2="-20.5133" gradientUnits="userSpaceOnUse">
<stop stop-color="#32BDEF"/>
<stop offset="1" stop-color="#1EA2E4"/>
</linearGradient>
<linearGradient id="paint7_linear_1_143" x1="52.1867" y1="77.8352" x2="61.2798" y2="68.7421" gradientUnits="userSpaceOnUse">
<stop offset="0.365" stop-color="#199AE0"/>
<stop offset="0.699" stop-color="#1898DE"/>
<stop offset="0.819" stop-color="#1691D8"/>
<stop offset="0.905" stop-color="#1186CC"/>
<stop offset="0.974" stop-color="#0A75BC"/>
<stop offset="1" stop-color="#076CB3"/>
</linearGradient>
<linearGradient id="paint8_linear_1_143" x1="42.2854" y1="128.097" x2="69.4863" y2="-58.8938" gradientUnits="userSpaceOnUse">
<stop stop-color="#32BDEF"/>
<stop offset="1" stop-color="#1EA2E4"/>
</linearGradient>
</defs>
</svg>
