<svg width="170" height="170" viewBox="0 0 170 170" fill="none" xmlns="http://www.w3.org/2000/svg">
<g id="conference">
<rect x="7.5" y="7.5" width="155" height="155" rx="12.5" fill="white"/>
<rect x="7.5" y="7.5" width="155" height="155" rx="12.5" fill="url(#paint0_linear_1_221)" fill-opacity="0.2"/>
<path id="Vector" d="M122.917 64.5833C110.031 64.5833 99.5833 75.0308 99.5833 87.9166V131.667C99.5833 134.89 102.194 137.5 105.417 137.5H140.417C143.64 137.5 146.25 134.89 146.25 131.667V87.9166C146.25 75.0308 135.803 64.5833 122.917 64.5833Z" fill="url(#paint1_linear_1_221)"/>
<path id="Vector_2" d="M85 55.8333C72.1142 55.8333 61.6667 66.2808 61.6667 79.1666V131.667C61.6667 134.89 64.2771 137.5 67.5 137.5H102.5C105.723 137.5 108.333 134.89 108.333 131.667V79.1666C108.333 66.2808 97.8858 55.8333 85 55.8333Z" fill="url(#paint2_linear_1_221)"/>
<path id="Vector_3" d="M47.0833 64.5833C34.1975 64.5833 23.75 75.0308 23.75 87.9166V131.667C23.75 134.89 26.3604 137.5 29.5833 137.5H64.5833C67.8063 137.5 70.4167 134.89 70.4167 131.667V87.9166C70.4167 75.0308 59.9692 64.5833 47.0833 64.5833Z" fill="url(#paint3_linear_1_221)"/>
<path id="Vector_4" d="M122.917 58.7501C129.36 58.7501 134.583 53.5267 134.583 47.0834C134.583 40.6401 129.36 35.4167 122.917 35.4167C116.473 35.4167 111.25 40.6401 111.25 47.0834C111.25 53.5267 116.473 58.7501 122.917 58.7501Z" fill="url(#paint4_linear_1_221)"/>
<path id="Vector_5" d="M47.0833 58.7501C53.5267 58.7501 58.75 53.5267 58.75 47.0834C58.75 40.6401 53.5267 35.4167 47.0833 35.4167C40.64 35.4167 35.4167 40.6401 35.4167 47.0834C35.4167 53.5267 40.64 58.7501 47.0833 58.7501Z" fill="url(#paint5_linear_1_221)"/>
<path id="Vector_6" d="M85 50.0001C91.4433 50.0001 96.6667 44.7767 96.6667 38.3334C96.6667 31.8901 91.4433 26.6667 85 26.6667C78.5567 26.6667 73.3333 31.8901 73.3333 38.3334C73.3333 44.7767 78.5567 50.0001 85 50.0001Z" fill="url(#paint6_linear_1_221)"/>
<path id="Vector_7" d="M85 96.6666C91.4433 96.6666 96.6667 91.4432 96.6667 84.9999C96.6667 78.5566 91.4433 73.3333 85 73.3333C78.5567 73.3333 73.3333 78.5566 73.3333 84.9999C73.3333 91.4432 78.5567 96.6666 85 96.6666Z" fill="url(#paint7_linear_1_221)"/>
<path id="Vector_8" d="M83.4454 102.55C71.0437 103.355 61.6667 114.205 61.6667 126.633V134.583C61.6667 136.193 62.9733 137.5 64.5833 137.5H105.417C107.027 137.5 108.333 136.193 108.333 134.583V125.833C108.333 112.431 97.0371 101.672 83.4454 102.55Z" fill="url(#paint8_linear_1_221)"/>
<rect x="7.5" y="7.5" width="155" height="155" rx="12.5" stroke="#D5EAF6" stroke-width="15"/>
</g>
<defs>
<linearGradient id="paint0_linear_1_221" x1="85" y1="15" x2="85" y2="155" gradientUnits="userSpaceOnUse">
<stop stop-color="#199AE0"/>
<stop offset="0.472222" stop-color="#0D5176" stop-opacity="0.527778"/>
<stop offset="0.940972" stop-color="#12A6F7" stop-opacity="0.465278"/>
<stop offset="1" stop-opacity="0"/>
</linearGradient>
<linearGradient id="paint1_linear_1_221" x1="108.739" y1="47.687" x2="127.607" y2="128.989" gradientUnits="userSpaceOnUse">
<stop stop-color="#0D61A9"/>
<stop offset="1" stop-color="#16528C"/>
</linearGradient>
<linearGradient id="paint2_linear_1_221" x1="74.0362" y1="57.1662" x2="92.7525" y2="137.806" gradientUnits="userSpaceOnUse">
<stop stop-color="#0D61A9"/>
<stop offset="1" stop-color="#16528C"/>
</linearGradient>
<linearGradient id="paint3_linear_1_221" x1="37.0937" y1="65.7383" x2="55.9617" y2="147.04" gradientUnits="userSpaceOnUse">
<stop stop-color="#0D61A9"/>
<stop offset="1" stop-color="#16528C"/>
</linearGradient>
<linearGradient id="paint4_linear_1_221" x1="115.001" y1="39.1676" x2="131.279" y2="55.4455" gradientUnits="userSpaceOnUse">
<stop stop-color="#0D61A9"/>
<stop offset="1" stop-color="#16528C"/>
</linearGradient>
<linearGradient id="paint5_linear_1_221" x1="39.1675" y1="39.1676" x2="55.4454" y2="55.4455" gradientUnits="userSpaceOnUse">
<stop stop-color="#0D61A9"/>
<stop offset="1" stop-color="#16528C"/>
</linearGradient>
<linearGradient id="paint6_linear_1_221" x1="77.0842" y1="30.4176" x2="93.3621" y2="46.6955" gradientUnits="userSpaceOnUse">
<stop stop-color="#0D61A9"/>
<stop offset="1" stop-color="#16528C"/>
</linearGradient>
<linearGradient id="paint7_linear_1_221" x1="77.0842" y1="77.0841" x2="93.3621" y2="93.362" gradientUnits="userSpaceOnUse">
<stop stop-color="#32BDEF"/>
<stop offset="1" stop-color="#1EA2E4"/>
</linearGradient>
<linearGradient id="paint8_linear_1_221" x1="75.1242" y1="104.253" x2="89.2321" y2="138.431" gradientUnits="userSpaceOnUse">
<stop stop-color="#32BDEF"/>
<stop offset="1" stop-color="#1EA2E4"/>
</linearGradient>
</defs>
</svg>
