<svg width="170" height="170" viewBox="0 0 170 170" fill="none" xmlns="http://www.w3.org/2000/svg">
<g id="copy">
<rect x="7.5" y="7.5" width="155" height="155" rx="12.5" fill="white"/>
<rect x="7.5" y="7.5" width="155" height="155" rx="12.5" fill="url(#paint0_linear_1_215)" fill-opacity="0.2"/>
<path id="Vector" d="M120 64.5833V137.5C120 140.723 117.39 143.333 114.167 143.333H44.1667C40.9437 143.333 38.3333 140.723 38.3333 137.5V44.1666C38.3333 40.9437 40.9437 38.3333 44.1667 38.3333H93.75L120 64.5833Z" fill="#199BE2"/>
<path id="Vector_2" opacity="0.05" d="M44.1667 38.3333H120V137.5H54.9029C48.9733 137.5 44.1667 132.693 44.1667 126.764V38.3333Z" fill="black"/>
<path id="Vector_3" opacity="0.07" d="M47.0833 38.3333H105.245C113.394 38.3333 120 44.9395 120 53.0887V134.583H55.3637C50.7904 134.583 47.0833 130.876 47.0833 126.303V38.3333Z" fill="black"/>
<path id="Vector_4" d="M131.667 55.8334V125.833C131.667 129.056 129.056 131.667 125.833 131.667H55.8333C52.6104 131.667 50 129.056 50 125.833V32.5001C50 29.2772 52.6104 26.6667 55.8333 26.6667H102.5L131.667 55.8334Z" fill="#50E6FF"/>
<path id="Vector_5" d="M102.5 26.6667V50.0001C102.5 53.223 105.11 55.8334 108.333 55.8334H131.667L102.5 26.6667Z" fill="url(#paint1_linear_1_215)"/>
<rect x="7.5" y="7.5" width="155" height="155" rx="12.5" stroke="#D5EAF6" stroke-width="15"/>
</g>
<defs>
<linearGradient id="paint0_linear_1_215" x1="85" y1="15" x2="85" y2="155" gradientUnits="userSpaceOnUse">
<stop stop-color="#199AE0"/>
<stop offset="0.472222" stop-color="#0D5176" stop-opacity="0.527778"/>
<stop offset="0.940972" stop-color="#12A6F7" stop-opacity="0.465278"/>
<stop offset="1" stop-opacity="0"/>
</linearGradient>
<linearGradient id="paint1_linear_1_215" x1="104.057" y1="54.2759" x2="117.346" y2="40.9876" gradientUnits="userSpaceOnUse">
<stop stop-color="#3079D6"/>
<stop offset="1" stop-color="#297CD2"/>
</linearGradient>
</defs>
</svg>
