<svg width="170" height="170" viewBox="0 0 170 170" fill="none" xmlns="http://www.w3.org/2000/svg">
<g id="customer-insight">
<rect x="7.5" y="7.5" width="155" height="155" rx="12.5" fill="white"/>
<rect x="7.5" y="7.5" width="155" height="155" rx="12.5" fill="url(#paint0_linear_1_249)" fill-opacity="0.2"/>
<path id="Vector" d="M129.008 56.2227L38.0749 108.723L40.9916 113.774L131.924 61.2745L129.008 56.2227Z" fill="#64717C"/>
<path id="Vector_2" d="M38.0753 61.2759L129.008 113.776L131.925 108.724L40.992 56.2241L38.0753 61.2759Z" fill="#64717C"/>
<path id="Vector_3" d="M87.9167 137.5V32.5H82.0833V137.5H87.9167Z" fill="#64717C"/>
<path id="Vector_4" d="M85 41.25C89.8325 41.25 93.75 37.3325 93.75 32.5C93.75 27.6675 89.8325 23.75 85 23.75C80.1675 23.75 76.25 27.6675 76.25 32.5C76.25 37.3325 80.1675 41.25 85 41.25Z" fill="url(#paint1_linear_1_249)"/>
<path id="Vector_5" d="M38.3333 67.5C43.1658 67.5 47.0833 63.5825 47.0833 58.75C47.0833 53.9175 43.1658 50 38.3333 50C33.5008 50 29.5833 53.9175 29.5833 58.75C29.5833 63.5825 33.5008 67.5 38.3333 67.5Z" fill="url(#paint2_linear_1_249)"/>
<path id="Vector_6" d="M38.3333 120C43.1658 120 47.0833 116.082 47.0833 111.25C47.0833 106.418 43.1658 102.5 38.3333 102.5C33.5008 102.5 29.5833 106.418 29.5833 111.25C29.5833 116.082 33.5008 120 38.3333 120Z" fill="url(#paint3_linear_1_249)"/>
<path id="Vector_7" d="M131.667 67.5C136.499 67.5 140.417 63.5825 140.417 58.75C140.417 53.9175 136.499 50 131.667 50C126.834 50 122.917 53.9175 122.917 58.75C122.917 63.5825 126.834 67.5 131.667 67.5Z" fill="url(#paint4_linear_1_249)"/>
<path id="Vector_8" d="M131.667 120C136.499 120 140.417 116.082 140.417 111.25C140.417 106.418 136.499 102.5 131.667 102.5C126.834 102.5 122.917 106.418 122.917 111.25C122.917 116.082 126.834 120 131.667 120Z" fill="url(#paint5_linear_1_249)"/>
<path id="Vector_9" d="M85 146.25C89.8325 146.25 93.75 142.332 93.75 137.5C93.75 132.668 89.8325 128.75 85 128.75C80.1675 128.75 76.25 132.668 76.25 137.5C76.25 142.332 80.1675 146.25 85 146.25Z" fill="url(#paint6_linear_1_249)"/>
<path id="Vector_10" d="M117.083 84.9998C117.083 102.719 102.719 117.083 85 117.083C67.2812 117.083 52.9167 102.719 52.9167 84.9998C52.9167 67.2811 67.2812 52.9165 85 52.9165C102.719 52.9165 117.083 67.2811 117.083 84.9998Z" fill="url(#paint7_radial_1_249)"/>
<path id="Vector_11" d="M85 117.083C94.2954 117.083 102.643 113.105 108.502 106.787C104.533 97.7427 95.5117 91.4165 85 91.4165C74.4883 91.4165 65.4671 97.7427 61.4975 106.787C67.3571 113.105 75.7046 117.083 85 117.083Z" fill="url(#paint8_radial_1_249)"/>
<path id="Vector_12" d="M85 90.8332C93.0542 90.8332 99.5833 84.304 99.5833 76.2498C99.5833 68.1957 93.0542 61.6665 85 61.6665C76.9459 61.6665 70.4167 68.1957 70.4167 76.2498C70.4167 84.304 76.9459 90.8332 85 90.8332Z" fill="url(#paint9_radial_1_249)"/>
<path id="Vector_13" d="M85 87.9168C91.4433 87.9168 96.6667 82.6935 96.6667 76.2502C96.6667 69.8068 91.4433 64.5835 85 64.5835C78.5567 64.5835 73.3333 69.8068 73.3333 76.2502C73.3333 82.6935 78.5567 87.9168 85 87.9168Z" fill="url(#paint10_linear_1_249)"/>
<path id="Vector_14" d="M85 117.083C93.0442 117.083 100.38 114.1 106.012 109.208C102.818 100.695 94.6279 94.625 85 94.625C75.3721 94.625 67.1821 100.695 63.9883 109.208C69.6204 114.1 76.9558 117.083 85 117.083Z" fill="url(#paint11_linear_1_249)"/>
<rect x="7.5" y="7.5" width="155" height="155" rx="12.5" stroke="#D5EAF6" stroke-width="15"/>
</g>
<defs>
<linearGradient id="paint0_linear_1_249" x1="85" y1="15" x2="85" y2="155" gradientUnits="userSpaceOnUse">
<stop stop-color="#199AE0"/>
<stop offset="0.472222" stop-color="#0D5176" stop-opacity="0.527778"/>
<stop offset="0.940972" stop-color="#12A6F7" stop-opacity="0.465278"/>
<stop offset="1" stop-opacity="0"/>
</linearGradient>
<linearGradient id="paint1_linear_1_249" x1="79.1987" y1="26.6988" x2="91.4517" y2="38.9546" gradientUnits="userSpaceOnUse">
<stop stop-color="#0176D0"/>
<stop offset="1" stop-color="#0A85D9"/>
</linearGradient>
<linearGradient id="paint2_linear_1_249" x1="32.5321" y1="52.9488" x2="44.7879" y2="65.2017" gradientUnits="userSpaceOnUse">
<stop stop-color="#0176D0"/>
<stop offset="1" stop-color="#0A85D9"/>
</linearGradient>
<linearGradient id="paint3_linear_1_249" x1="32.5321" y1="105.449" x2="44.7879" y2="117.702" gradientUnits="userSpaceOnUse">
<stop stop-color="#0176D0"/>
<stop offset="1" stop-color="#0A85D9"/>
</linearGradient>
<linearGradient id="paint4_linear_1_249" x1="125.865" y1="52.9488" x2="138.118" y2="65.2017" gradientUnits="userSpaceOnUse">
<stop stop-color="#0176D0"/>
<stop offset="1" stop-color="#0A85D9"/>
</linearGradient>
<linearGradient id="paint5_linear_1_249" x1="125.865" y1="105.449" x2="138.118" y2="117.702" gradientUnits="userSpaceOnUse">
<stop stop-color="#0176D0"/>
<stop offset="1" stop-color="#0A85D9"/>
</linearGradient>
<linearGradient id="paint6_linear_1_249" x1="79.1988" y1="131.699" x2="91.4517" y2="143.952" gradientUnits="userSpaceOnUse">
<stop stop-color="#0176D0"/>
<stop offset="1" stop-color="#0A85D9"/>
</linearGradient>
<radialGradient id="paint7_radial_1_249" cx="0" cy="0" r="1" gradientUnits="userSpaceOnUse" gradientTransform="translate(64.4287 59.9632) scale(64.6683)">
<stop stop-color="#0370C8"/>
<stop offset="0.484" stop-color="#036FC5"/>
<stop offset="0.775" stop-color="#036ABD"/>
<stop offset="1" stop-color="#0362B0"/>
</radialGradient>
<radialGradient id="paint8_radial_1_249" cx="0" cy="0" r="1" gradientUnits="userSpaceOnUse" gradientTransform="translate(85 117.255) scale(25.8912 25.8912)">
<stop/>
<stop offset="1" stop-opacity="0"/>
</radialGradient>
<radialGradient id="paint9_radial_1_249" cx="0" cy="0" r="1" gradientUnits="userSpaceOnUse" gradientTransform="translate(84.9988 76.2475) scale(14.5828)">
<stop/>
<stop offset="1" stop-opacity="0"/>
</radialGradient>
<linearGradient id="paint10_linear_1_249" x1="77.0842" y1="68.3343" x2="93.3621" y2="84.6122" gradientUnits="userSpaceOnUse">
<stop stop-color="#75DAFF"/>
<stop offset="1" stop-color="#1EA2E4"/>
</linearGradient>
<linearGradient id="paint11_linear_1_249" x1="73.7825" y1="96.5646" x2="96.0483" y2="118.833" gradientUnits="userSpaceOnUse">
<stop stop-color="#75DAFF"/>
<stop offset="1" stop-color="#1EA2E4"/>
</linearGradient>
</defs>
</svg>
