<svg width="170" height="170" viewBox="0 0 170 170" fill="none" xmlns="http://www.w3.org/2000/svg">
<g id="dashboard-layout">
<rect x="7.5" y="7.5" width="155" height="155" rx="12.5" fill="white"/>
<rect x="7.5" y="7.5" width="155" height="155" rx="12.5" fill="url(#paint0_linear_1_292)" fill-opacity="0.2"/>
<path id="Vector" d="M73.3333 96.6667H38.3333C35.1104 96.6667 32.5 94.0563 32.5 90.8333V38.3333C32.5 35.1104 35.1104 32.5 38.3333 32.5H73.3333C76.5563 32.5 79.1667 35.1104 79.1667 38.3333V90.8333C79.1667 94.0563 76.5563 96.6667 73.3333 96.6667Z" fill="#0078D4"/>
<path id="Vector_2" d="M131.667 61.6667H96.6667C93.4438 61.6667 90.8333 59.0563 90.8333 55.8333V38.3333C90.8333 35.1104 93.4438 32.5 96.6667 32.5H131.667C134.89 32.5 137.5 35.1104 137.5 38.3333V55.8333C137.5 59.0563 134.89 61.6667 131.667 61.6667Z" fill="#35C1F1"/>
<path id="Vector_3" d="M73.3333 137.5H38.3333C35.1104 137.5 32.5 134.89 32.5 131.667V114.167C32.5 110.944 35.1104 108.333 38.3333 108.333H73.3333C76.5563 108.333 79.1667 110.944 79.1667 114.167V131.667C79.1667 134.89 76.5563 137.5 73.3333 137.5Z" fill="#35C1F1"/>
<path id="Vector_4" d="M131.667 137.5H96.6667C93.4438 137.5 90.8333 134.89 90.8333 131.667V79.1668C90.8333 75.9439 93.4438 73.3335 96.6667 73.3335H131.667C134.89 73.3335 137.5 75.9439 137.5 79.1668V131.667C137.5 134.89 134.89 137.5 131.667 137.5Z" fill="#0078D4"/>
<rect x="7.5" y="7.5" width="155" height="155" rx="12.5" stroke="#D5EAF6" stroke-width="15"/>
</g>
<defs>
<linearGradient id="paint0_linear_1_292" x1="85" y1="15" x2="85" y2="155" gradientUnits="userSpaceOnUse">
<stop stop-color="#199AE0"/>
<stop offset="0.472222" stop-color="#0D5176" stop-opacity="0.527778"/>
<stop offset="0.940972" stop-color="#12A6F7" stop-opacity="0.465278"/>
<stop offset="1" stop-opacity="0"/>
</linearGradient>
</defs>
</svg>
