<svg width="170" height="170" viewBox="0 0 170 170" fill="none" xmlns="http://www.w3.org/2000/svg">
<g id="delete-receipt">
<rect x="7.5" y="7.5" width="155" height="155" rx="12.5" fill="white"/>
<rect x="7.5" y="7.5" width="155" height="155" rx="12.5" fill="url(#paint0_linear_1_339)" fill-opacity="0.2"/>
<path id="Vector" d="M122.917 29.5835C122.917 31.1935 121.61 32.5002 120 32.5002C118.39 32.5002 117.083 31.1935 117.083 29.5835H111.25C111.25 31.1935 109.943 32.5002 108.333 32.5002C106.723 32.5002 105.417 31.1935 105.417 29.5835H99.5833C99.5833 31.1935 98.2767 32.5002 96.6667 32.5002C95.0567 32.5002 93.75 31.1935 93.75 29.5835H87.9167C87.9167 31.1935 86.61 32.5002 85 32.5002C83.39 32.5002 82.0833 31.1935 82.0833 29.5835H76.25C76.25 31.1935 74.9433 32.5002 73.3333 32.5002C71.7233 32.5002 70.4167 31.1935 70.4167 29.5835H64.5833C64.5833 31.1935 63.2767 32.5002 61.6667 32.5002C60.0567 32.5002 58.75 31.1935 58.75 29.5835H52.9167C52.9167 31.1935 51.61 32.5002 50 32.5002C48.39 32.5002 47.0833 31.1935 47.0833 29.5835H44.1667C42.5567 29.5835 41.25 30.8902 41.25 32.5002V134.583C41.25 137.806 43.8604 140.417 47.0833 140.417H122.917C126.14 140.417 128.75 137.806 128.75 134.583V32.5002C128.75 30.8902 127.443 29.5835 125.833 29.5835H122.917Z" fill="#50E6FF"/>
<path id="Vector_2" d="M115.625 52.9165H54.375C53.57 52.9165 52.9167 52.2632 52.9167 51.4582V45.6248C52.9167 44.8198 53.57 44.1665 54.375 44.1665H115.625C116.43 44.1665 117.083 44.8198 117.083 45.6248V51.4582C117.083 52.2632 116.43 52.9165 115.625 52.9165Z" fill="#057093"/>
<path id="Vector_3" d="M115.625 73.3333H109.792C108.987 73.3333 108.333 72.68 108.333 71.875V68.9583C108.333 68.1533 108.987 67.5 109.792 67.5H115.625C116.43 67.5 117.083 68.1533 117.083 68.9583V71.875C117.083 72.68 116.43 73.3333 115.625 73.3333Z" fill="#057093"/>
<path id="Vector_4" d="M92.2917 73.3333H54.375C53.57 73.3333 52.9167 72.68 52.9167 71.875V68.9583C52.9167 68.1533 53.57 67.5 54.375 67.5H92.2917C93.0967 67.5 93.75 68.1533 93.75 68.9583V71.875C93.75 72.68 93.0967 73.3333 92.2917 73.3333Z" fill="#057093"/>
<path id="Vector_5" d="M115.625 84.9998H109.792C108.987 84.9998 108.333 84.3465 108.333 83.5415V80.6248C108.333 79.8198 108.987 79.1665 109.792 79.1665H115.625C116.43 79.1665 117.083 79.8198 117.083 80.6248V83.5415C117.083 84.3465 116.43 84.9998 115.625 84.9998Z" fill="#057093"/>
<path id="Vector_6" d="M83.5417 84.9998H54.375C53.57 84.9998 52.9167 84.3465 52.9167 83.5415V80.6248C52.9167 79.8198 53.57 79.1665 54.375 79.1665H83.5417C84.3467 79.1665 85 79.8198 85 80.6248V83.5415C85 84.3465 84.3467 84.9998 83.5417 84.9998Z" fill="#057093"/>
<path id="Vector_7" d="M115.625 96.6668H109.792C108.987 96.6668 108.333 96.0135 108.333 95.2085V92.2918C108.333 91.4868 108.987 90.8335 109.792 90.8335H115.625C116.43 90.8335 117.083 91.4868 117.083 92.2918V95.2085C117.083 96.0135 116.43 96.6668 115.625 96.6668Z" fill="#057093"/>
<path id="Vector_8" d="M92.2917 96.6668H54.375C53.57 96.6668 52.9167 96.0135 52.9167 95.2085V92.2918C52.9167 91.4868 53.57 90.8335 54.375 90.8335H92.2917C93.0967 90.8335 93.75 91.4868 93.75 92.2918V95.2085C93.75 96.0135 93.0967 96.6668 92.2917 96.6668Z" fill="#057093"/>
<path id="Vector_9" d="M115.625 108.333H109.792C108.987 108.333 108.333 107.68 108.333 106.875V103.958C108.333 103.153 108.987 102.5 109.792 102.5H115.625C116.43 102.5 117.083 103.153 117.083 103.958V106.875C117.083 107.68 116.43 108.333 115.625 108.333Z" fill="#057093"/>
<path id="Vector_10" d="M83.5417 108.333H54.375C53.57 108.333 52.9167 107.68 52.9167 106.875V103.958C52.9167 103.153 53.57 102.5 54.375 102.5H83.5417C84.3467 102.5 85 103.153 85 103.958V106.875C85 107.68 84.3467 108.333 83.5417 108.333Z" fill="#057093"/>
<path id="Vector_11" d="M115.625 125.833H103.958C103.153 125.833 102.5 125.18 102.5 124.375V121.458C102.5 120.653 103.153 120 103.958 120H115.625C116.43 120 117.083 120.653 117.083 121.458V124.375C117.083 125.18 116.43 125.833 115.625 125.833Z" fill="#057093"/>
<path id="Vector_12" d="M92.2917 125.833H66.0417C65.2367 125.833 64.5833 125.18 64.5833 124.375V121.458C64.5833 120.653 65.2367 120 66.0417 120H92.2917C93.0967 120 93.75 120.653 93.75 121.458V124.375C93.75 125.18 93.0967 125.833 92.2917 125.833Z" fill="#057093"/>
<path id="Vector_13" d="M125.833 90.8335C106.534 90.8335 90.8333 106.534 90.8333 125.833C90.8333 131.043 92.0088 135.972 94.0563 140.417H122.917C126.14 140.417 128.75 137.806 128.75 134.583V90.9822C127.785 90.9006 126.819 90.8335 125.833 90.8335Z" fill="url(#paint1_radial_1_339)"/>
<path id="Vector_14" d="M125.833 155C141.942 155 155 141.941 155 125.833C155 109.725 141.942 96.6665 125.833 96.6665C109.725 96.6665 96.6667 109.725 96.6667 125.833C96.6667 141.941 109.725 155 125.833 155Z" fill="url(#paint2_linear_1_339)"/>
<path id="Vector_15" d="M111.25 127.292V124.375C111.25 123.57 111.903 122.917 112.708 122.917H138.958C139.763 122.917 140.417 123.57 140.417 124.375V127.292C140.417 128.097 139.763 128.75 138.958 128.75H112.708C111.903 128.75 111.25 128.097 111.25 127.292Z" fill="white"/>
<rect x="7.5" y="7.5" width="155" height="155" rx="12.5" stroke="#D5EAF6" stroke-width="15"/>
</g>
<defs>
<linearGradient id="paint0_linear_1_339" x1="85" y1="15" x2="85" y2="155" gradientUnits="userSpaceOnUse">
<stop stop-color="#199AE0"/>
<stop offset="0.472222" stop-color="#0D5176" stop-opacity="0.527778"/>
<stop offset="0.940972" stop-color="#12A6F7" stop-opacity="0.465278"/>
<stop offset="1" stop-opacity="0"/>
</linearGradient>
<radialGradient id="paint1_radial_1_339" cx="0" cy="0" r="1" gradientUnits="userSpaceOnUse" gradientTransform="translate(124.932 125.553) scale(34.9329 34.9329)">
<stop/>
<stop offset="0.979" stop-opacity="0"/>
</radialGradient>
<linearGradient id="paint2_linear_1_339" x1="96.6667" y1="125.833" x2="155" y2="125.833" gradientUnits="userSpaceOnUse">
<stop stop-color="#F44F5A"/>
<stop offset="0.443" stop-color="#EE3D4A"/>
<stop offset="1" stop-color="#E52030"/>
</linearGradient>
</defs>
</svg>
