<svg width="170" height="170" viewBox="0 0 170 170" fill="none" xmlns="http://www.w3.org/2000/svg">
<g id="design">
<rect x="7.5" y="7.5" width="155" height="155" rx="12.5" fill="white"/>
<rect x="7.5" y="7.5" width="155" height="155" rx="12.5" fill="url(#paint0_linear_1_361)" fill-opacity="0.2"/>
<path id="Vector" d="M138.708 118.291L51.7092 31.2924C49.4313 29.0145 45.7388 29.0145 43.4608 31.2924L31.2925 43.4578C29.0146 45.7358 29.0146 49.4283 31.2925 51.7062L118.291 138.704C120.569 140.982 124.261 140.982 126.539 138.704L138.708 126.536C140.985 124.264 140.985 120.569 138.708 118.291Z" fill="#0370C8"/>
<path id="Vector_2" d="M139.2 41.4456L128.552 30.7997C126.933 29.1781 124.296 29.1781 122.675 30.7997L117.664 35.8164L134.184 52.3364L139.2 47.3256C140.822 45.701 140.822 43.0731 139.2 41.4456Z" fill="#C94F60"/>
<path id="Vector_3" d="M35.1396 118.337L29.5833 140.417L51.6654 134.857L53.9812 115.704L35.1396 118.337Z" fill="#F0F0F0"/>
<path id="Vector_4" d="M120.093 66.4267L51.6683 134.855L35.1454 118.332L103.57 49.9038L120.093 66.4267Z" fill="#EDBE00"/>
<path id="Vector_5" d="M103.559 49.9068L117.652 35.8076L134.184 52.3276L120.09 66.4268L103.559 49.9068Z" fill="url(#paint1_linear_1_361)"/>
<path id="Vector_6" d="M32.3979 129.251L29.5833 140.416L40.7454 137.602L32.3979 129.251Z" fill="#787878"/>
<path id="Vector_7" d="M123.77 103.355L117.938 109.188L122.063 113.312L127.895 107.48L123.77 103.355Z" fill="#0E8DF2"/>
<path id="Vector_8" d="M132.522 112.103L123.772 120.854L127.897 124.978L136.647 116.227L132.522 112.103Z" fill="#0E8DF2"/>
<path id="Vector_9" d="M106.27 85.8549L100.438 91.6875L104.563 95.8122L110.395 89.9797L106.27 85.8549Z" fill="#0E8DF2"/>
<path id="Vector_10" d="M115.022 94.6026L106.272 103.354L110.396 107.478L119.147 98.7273L115.022 94.6026Z" fill="#0E8DF2"/>
<path id="Vector_11" d="M71.2722 50.8526L62.5216 59.6035L66.6465 63.7282L75.3971 54.9773L71.2722 50.8526Z" fill="#0E8DF2"/>
<path id="Vector_12" d="M80.0204 59.6045L74.1881 65.437L78.3129 69.5617L84.1453 63.7292L80.0204 59.6045Z" fill="#0E8DF2"/>
<path id="Vector_13" d="M53.7722 33.3526L45.0216 42.1035L49.1465 46.2282L57.8971 37.4773L53.7722 33.3526Z" fill="#0E8DF2"/>
<path id="Vector_14" d="M62.5204 42.1045L56.6881 47.937L60.8129 52.0617L66.6453 46.2292L62.5204 42.1045Z" fill="#0E8DF2"/>
<rect x="7.5" y="7.5" width="155" height="155" rx="12.5" stroke="#D5EAF6" stroke-width="15"/>
</g>
<defs>
<linearGradient id="paint0_linear_1_361" x1="85" y1="15" x2="85" y2="155" gradientUnits="userSpaceOnUse">
<stop stop-color="#199AE0"/>
<stop offset="0.472222" stop-color="#0D5176" stop-opacity="0.527778"/>
<stop offset="0.940972" stop-color="#12A6F7" stop-opacity="0.465278"/>
<stop offset="1" stop-opacity="0"/>
</linearGradient>
<linearGradient id="paint1_linear_1_361" x1="118.868" y1="36.8576" x2="118.868" y2="67.2697" gradientUnits="userSpaceOnUse">
<stop stop-color="#DEDEDE"/>
<stop offset="1" stop-color="#D6D6D6"/>
</linearGradient>
</defs>
</svg>
