<svg width="48" height="38" viewBox="0 0 48 38" fill="none" xmlns="http://www.w3.org/2000/svg">
<path d="M45.3912 37.565H2.6087C1.16765 37.565 0 36.3976 0 34.9567V2.60866C0 1.16765 1.16765 0 2.6087 0H14.7099C16.295 0 17.7934 0.720001 18.7836 1.95859L21.3913 5.21736H45.3912C46.8322 5.21736 48 6.38501 48 7.82606V34.9567C48 36.3976 46.8322 37.565 45.3912 37.565Z" fill="url(#paint0_linear_46_5720)"/>
<path d="M0 34.3042V34.9565C0 36.3975 1.16765 37.5648 2.6087 37.5648H45.3912C46.8322 37.5648 48 36.3975 48 34.9565V34.3042H0Z" fill="url(#paint1_linear_46_5720)"/>
<path d="M45.3912 6.26074H21.3913L20.1005 7.12061C18.9016 7.92092 17.4918 8.34773 16.0498 8.34773H2.6087C1.16765 8.34773 0 9.51538 0 10.9564V33.913C0 35.354 1.16765 36.5218 2.6087 36.5218H45.3912C46.8322 36.5218 48 35.354 48 33.913V8.86945C48 7.42844 46.8322 6.26074 45.3912 6.26074Z" fill="url(#paint2_linear_46_5720)"/>
<path d="M45.3912 36.5218H2.6087C1.16765 36.5218 0 35.354 0 33.913V11.9998C0 10.5588 1.16765 9.39114 2.6087 9.39114H16.4411C17.8832 9.39114 19.2929 8.96437 20.4929 8.16402L21.7826 7.3042H45.3912C46.8322 7.3042 48 8.47185 48 9.9129V33.913C48 35.354 46.8322 36.5218 45.3912 36.5218Z" fill="url(#paint3_radial_46_5720)"/>
<path d="M32.61 31.3044H31.841L24.7307 13.0206C24.4959 12.4196 23.5056 12.4196 23.2719 13.0206L16.1616 31.3044H15.3926C14.9606 31.3044 14.61 31.6548 14.61 32.0868C14.61 32.5188 14.9606 32.8697 15.3926 32.8697H18.523C18.955 32.8697 19.3056 32.5188 19.3056 32.0868C19.3056 31.6548 18.955 31.3044 18.523 31.3044H17.8416L19.769 26.3479H28.2336L30.161 31.3044H29.4796C29.0476 31.3044 28.697 31.6548 28.697 32.0868C28.697 32.5188 29.0476 32.8697 29.4796 32.8697H32.61C33.042 32.8697 33.3926 32.5188 33.3926 32.0868C33.3926 31.6548 33.042 31.3044 32.61 31.3044ZM20.3773 24.7827L24.0013 15.4634L27.6253 24.7827H20.3773Z" fill="url(#paint4_linear_46_5720)"/>
<defs>
<linearGradient id="paint0_linear_46_5720" x1="-8.36659" y1="4.4953" x2="40.056" y2="29.7735" gradientUnits="userSpaceOnUse">
<stop stop-color="#FAC017"/>
<stop offset="0.909" stop-color="#E1AB2D"/>
</linearGradient>
<linearGradient id="paint1_linear_46_5720" x1="16.5548" y1="35.7778" x2="45.8765" y2="36.3044" gradientUnits="userSpaceOnUse">
<stop stop-color="#E3A917"/>
<stop offset="0.464" stop-color="#D79C1E"/>
</linearGradient>
<linearGradient id="paint2_linear_46_5720" x1="-6.13459" y1="8.10145" x2="36.4882" y2="26.8987" gradientUnits="userSpaceOnUse">
<stop offset="0.34" stop-color="#FFEFB2"/>
<stop offset="0.485" stop-color="#FFEDAD"/>
<stop offset="0.652" stop-color="#FFE99F"/>
<stop offset="0.828" stop-color="#FEE289"/>
<stop offset="1" stop-color="#FED86B"/>
</linearGradient>
<radialGradient id="paint3_radial_46_5720" cx="0" cy="0" r="1" gradientUnits="userSpaceOnUse" gradientTransform="translate(38.4374 46.2437) scale(56.2176 56.2176)">
<stop offset="0.199" stop-color="#FEC832"/>
<stop offset="0.601" stop-color="#FCD667"/>
<stop offset="0.68" stop-color="#FDDA75"/>
<stop offset="0.886" stop-color="#FEE496"/>
<stop offset="1" stop-color="#FFE8A2"/>
</radialGradient>
<linearGradient id="paint4_linear_46_5720" x1="16.3276" y1="16.8617" x2="27.3822" y2="36.0084" gradientUnits="userSpaceOnUse">
<stop stop-color="#C78902"/>
<stop offset="0.914" stop-color="#986700"/>
</linearGradient>
</defs>
</svg>
