<svg width="170" height="170" viewBox="0 0 170 170" fill="none" xmlns="http://www.w3.org/2000/svg">
<g id="good-quality">
<rect x="7.5" y="7.5" width="155" height="155" rx="12.5" fill="white"/>
<rect x="7.5" y="7.5" width="155" height="155" rx="12.5" fill="url(#paint0_linear_1_706)" fill-opacity="0.2"/>
<path id="Vector" d="M143.333 85.0003C143.333 117.215 117.215 143.334 85 143.334C52.7854 143.334 26.6667 117.215 26.6667 85.0003C26.6667 52.7857 52.7854 26.667 85 26.667C117.215 26.667 143.333 52.7857 143.333 85.0003Z" fill="url(#paint1_linear_1_706)"/>
<path id="Vector_2" opacity="0.05" d="M113.163 82.0837C113.825 80.7187 114.167 79.237 114.167 77.7087C114.167 72.0795 109.587 67.5003 103.958 67.5003H85.5279L86.2396 63.2245C87.8875 61.7253 90.8333 58.2953 90.8333 52.917C90.8333 48.0928 86.9075 44.167 82.0833 44.167H80.6833L60.3075 69.6353C57.4229 73.2432 55.8333 77.7699 55.8333 82.387V102.5C55.8333 108.934 61.0658 114.167 67.5 114.167H98.125C103.754 114.167 108.333 109.588 108.333 103.959C108.333 103.457 108.292 102.955 108.217 102.454C110.145 100.555 111.25 97.9707 111.25 95.2087C111.25 94.707 111.209 94.2053 111.133 93.7037C113.061 91.8049 114.167 89.2207 114.167 86.4587C114.167 84.9303 113.825 83.4487 113.163 82.0837Z" fill="black"/>
<path id="Vector_3" opacity="0.07" d="M89.375 52.9166C89.375 49.4078 86.855 46.4853 83.5533 45.8787C83.0925 45.7153 81.8237 46.5932 81.3075 46.5932L80.2604 47.0249L61.4421 70.5449C58.7587 73.8991 57.2887 78.0932 57.2887 82.3866V102.5C57.2887 107.724 61.2437 112.034 66.3071 112.586C66.6921 112.664 68.0687 112.708 68.4771 112.708H96.9846C97.4512 112.708 99.0408 112.644 99.4696 112.527C103.646 111.935 106.872 108.319 106.872 103.958C106.872 103.436 106.82 102.92 106.72 102.415C106.802 102.121 106.863 101.826 106.91 101.532C108.68 99.9857 109.789 97.7137 109.789 95.2082C109.789 94.6862 109.736 94.1699 109.637 93.6682C109.719 93.3737 109.783 93.0791 109.827 92.7816C111.597 91.2357 112.702 88.9637 112.702 86.4582C112.702 84.8687 112.247 83.3753 111.454 82.0832C112.247 80.7912 112.702 79.2978 112.702 77.7082C112.702 73.7591 109.987 70.437 106.379 69.5737C105.656 69.1828 102.214 68.9582 101.336 68.9582H84.9737L84.0083 67.6953L84.7229 63.3991C84.9096 63.2299 85.2858 62.0574 85.5133 61.792C86.3037 60.8762 89.375 57.9187 89.375 52.9166Z" fill="black"/>
<path id="Vector_4" d="M111.25 77.708C111.25 73.6801 107.986 70.4163 103.958 70.4163H82.0833L83.5417 61.6663C83.5417 61.6663 87.9167 58.7497 87.9167 52.9163C87.9167 49.6934 85.3063 47.083 82.0833 47.083L62.5854 71.4576C60.1033 74.558 58.75 78.4138 58.75 82.3893V102.5C58.75 107.333 62.6671 111.25 67.5 111.25H98.125C102.153 111.25 105.417 107.986 105.417 103.958C105.417 103.039 105.227 102.17 104.918 101.362C106.965 100.07 108.333 97.8068 108.333 95.208C108.333 94.2893 108.144 93.4201 107.835 92.6122C109.882 91.3201 111.25 89.0568 111.25 86.458C111.25 84.8101 110.681 83.3051 109.76 82.083C110.681 80.8609 111.25 79.3559 111.25 77.708Z" fill="url(#paint2_linear_1_706)"/>
<rect x="7.5" y="7.5" width="155" height="155" rx="12.5" stroke="#D5EAF6" stroke-width="15"/>
</g>
<defs>
<linearGradient id="paint0_linear_1_706" x1="85" y1="15" x2="85" y2="155" gradientUnits="userSpaceOnUse">
<stop stop-color="#199AE0"/>
<stop offset="0.472222" stop-color="#0D5176" stop-opacity="0.527778"/>
<stop offset="0.940972" stop-color="#12A6F7" stop-opacity="0.465278"/>
<stop offset="1" stop-opacity="0"/>
</linearGradient>
<linearGradient id="paint1_linear_1_706" x1="43.7525" y1="43.7528" x2="126.248" y2="126.248" gradientUnits="userSpaceOnUse">
<stop stop-color="#21AD64"/>
<stop offset="1" stop-color="#088242"/>
</linearGradient>
<linearGradient id="paint2_linear_1_706" x1="68.3517" y1="49.4513" x2="94.1379" y2="112.638" gradientUnits="userSpaceOnUse">
<stop stop-color="#FFCF54"/>
<stop offset="0.261" stop-color="#FDCB4D"/>
<stop offset="0.639" stop-color="#F7C13A"/>
<stop offset="1" stop-color="#F0B421"/>
</linearGradient>
</defs>
</svg>
