<svg width="170" height="170" viewBox="0 0 170 170" fill="none" xmlns="http://www.w3.org/2000/svg">
<g id="group-objects">
<rect x="7.5" y="7.5" width="155" height="155" rx="12.5" fill="white"/>
<rect x="7.5" y="7.5" width="155" height="155" rx="12.5" fill="url(#paint0_linear_1_711)" fill-opacity="0.2"/>
<path id="Vector" d="M131.678 137.41L38.4237 137.5C35.2183 137.503 32.5933 134.884 32.5904 131.678L32.5 38.4238C32.4971 35.2183 35.1162 32.5933 38.3217 32.5904L131.576 32.5C134.782 32.4971 137.407 35.1163 137.41 38.3217L137.5 131.576C137.503 134.782 134.884 137.407 131.678 137.41Z" fill="url(#paint1_linear_1_711)"/>
<path id="Vector_2" d="M128.665 41.25L128.75 128.665L41.3346 128.75L41.25 41.3346L128.665 41.25Z" fill="url(#paint2_linear_1_711)"/>
<path id="Vector_3" d="M29.5833 122.917H44.1667C45.7767 122.917 47.0833 124.224 47.0833 125.834V140.417C47.0833 142.027 45.7767 143.334 44.1667 143.334H29.5833C27.9733 143.334 26.6667 142.027 26.6667 140.417V125.834C26.6667 124.224 27.9733 122.917 29.5833 122.917Z" fill="url(#paint3_linear_1_711)"/>
<path id="Vector_4" d="M126.32 122.917H139.932C141.811 122.917 143.333 124.439 143.333 126.321V139.933C143.333 141.811 141.811 143.334 139.93 143.334H126.317C124.439 143.334 122.917 141.811 122.917 139.93V126.318C122.917 124.439 124.439 122.917 126.32 122.917Z" fill="url(#paint4_linear_1_711)"/>
<path id="Vector_5" d="M29.5833 26.667H44.1667C45.7767 26.667 47.0833 27.9737 47.0833 29.5837V44.167C47.0833 45.777 45.7767 47.0837 44.1667 47.0837H29.5833C27.9733 47.0837 26.6667 45.777 26.6667 44.167V29.5837C26.6667 27.9737 27.9733 26.667 29.5833 26.667Z" fill="url(#paint5_linear_1_711)"/>
<path id="Vector_6" d="M125.833 26.667H140.417C142.027 26.667 143.333 27.9737 143.333 29.5837V44.167C143.333 45.777 142.027 47.0837 140.417 47.0837H125.833C124.223 47.0837 122.917 45.777 122.917 44.167V29.5837C122.917 27.9737 124.223 26.667 125.833 26.667Z" fill="url(#paint6_linear_1_711)"/>
<path id="Vector_7" d="M108.333 114.167H85C81.7771 114.167 79.1667 111.557 79.1667 108.334V85.0003C79.1667 81.7774 81.7771 79.167 85 79.167H108.333C111.556 79.167 114.167 81.7774 114.167 85.0003V108.334C114.167 111.557 111.556 114.167 108.333 114.167Z" fill="url(#paint7_linear_1_711)"/>
<path id="Vector_8" opacity="0.05" d="M85 93.7503H79.1667V85.0003C79.1667 81.7774 81.7771 79.167 85 79.167H93.75V85.0003C93.75 89.8332 89.8329 93.7503 85 93.7503Z" fill="black"/>
<path id="Vector_9" opacity="0.05" d="M85 92.292H79.1667V85.0003C79.1667 81.7774 81.7771 79.167 85 79.167H92.2917V85.0003C92.2917 89.0282 89.0279 92.292 85 92.292Z" fill="black"/>
<path id="Vector_10" d="M85 90.833H61.6667C58.4437 90.833 55.8333 88.2226 55.8333 84.9997V61.6663C55.8333 58.4434 58.4437 55.833 61.6667 55.833H85C88.2229 55.833 90.8333 58.4434 90.8333 61.6663V84.9997C90.8333 88.2226 88.2229 90.833 85 90.833Z" fill="url(#paint8_linear_1_711)"/>
<rect x="7.5" y="7.5" width="155" height="155" rx="12.5" stroke="#D5EAF6" stroke-width="15"/>
</g>
<defs>
<linearGradient id="paint0_linear_1_711" x1="85" y1="15" x2="85" y2="155" gradientUnits="userSpaceOnUse">
<stop stop-color="#199AE0"/>
<stop offset="0.472222" stop-color="#0D5176" stop-opacity="0.527778"/>
<stop offset="0.940972" stop-color="#12A6F7" stop-opacity="0.465278"/>
<stop offset="1" stop-opacity="0"/>
</linearGradient>
<linearGradient id="paint1_linear_1_711" x1="74.6138" y1="26.1008" x2="95.3862" y2="143.899" gradientUnits="userSpaceOnUse">
<stop stop-color="#0176D0"/>
<stop offset="1" stop-color="#22A5E2"/>
</linearGradient>
<linearGradient id="paint2_linear_1_711" x1="76.215" y1="35.1687" x2="93.785" y2="134.831" gradientUnits="userSpaceOnUse">
<stop stop-color="#FAFAFB"/>
<stop offset="0.293" stop-color="#F6F7F8"/>
<stop offset="0.566" stop-color="#EBECEE"/>
<stop offset="0.832" stop-color="#D8DCDF"/>
<stop offset="1" stop-color="#C8CDD1"/>
</linearGradient>
<linearGradient id="paint3_linear_1_711" x1="34.9004" y1="121.934" x2="38.8496" y2="144.317" gradientUnits="userSpaceOnUse">
<stop stop-color="#3079D6"/>
<stop offset="1" stop-color="#297CD2"/>
</linearGradient>
<linearGradient id="paint4_linear_1_711" x1="131.165" y1="122.01" x2="135.085" y2="144.241" gradientUnits="userSpaceOnUse">
<stop stop-color="#3079D6"/>
<stop offset="1" stop-color="#297CD2"/>
</linearGradient>
<linearGradient id="paint5_linear_1_711" x1="34.9004" y1="25.6841" x2="38.8496" y2="48.0666" gradientUnits="userSpaceOnUse">
<stop stop-color="#3079D6"/>
<stop offset="1" stop-color="#297CD2"/>
</linearGradient>
<linearGradient id="paint6_linear_1_711" x1="131.15" y1="25.6841" x2="135.1" y2="48.0666" gradientUnits="userSpaceOnUse">
<stop stop-color="#3079D6"/>
<stop offset="1" stop-color="#297CD2"/>
</linearGradient>
<linearGradient id="paint7_linear_1_711" x1="93.3067" y1="77.6124" x2="100.027" y2="115.722" gradientUnits="userSpaceOnUse">
<stop stop-color="#A235D4"/>
<stop offset="0.441" stop-color="#A033D1"/>
<stop offset="0.702" stop-color="#982CC9"/>
<stop offset="0.915" stop-color="#8B21BB"/>
<stop offset="1" stop-color="#831BB3"/>
</linearGradient>
<linearGradient id="paint8_linear_1_711" x1="69.9733" y1="54.2784" x2="76.6933" y2="92.3876" gradientUnits="userSpaceOnUse">
<stop stop-color="#C965EB"/>
<stop offset="1" stop-color="#C767E5"/>
</linearGradient>
</defs>
</svg>
