<svg width="170" height="170" viewBox="0 0 170 170" fill="none" xmlns="http://www.w3.org/2000/svg">
<g id="group-of-companies">
<rect x="7.5" y="7.5" width="155" height="155" rx="12.5" fill="white"/>
<rect x="7.5" y="7.5" width="155" height="155" rx="12.5" fill="url(#paint0_linear_1_674)" fill-opacity="0.2"/>
<path id="Vector" d="M35.4167 35.4163V96.6663C35.4167 98.2763 36.7233 99.583 38.3333 99.583H90.8333C92.4433 99.583 93.75 98.2763 93.75 96.6663V35.4163C93.75 32.1934 91.1396 29.583 87.9167 29.583H41.25C38.0271 29.583 35.4167 32.1934 35.4167 35.4163Z" fill="#0D62AB"/>
<path id="Vector_2" d="M50 61.667H44.1667V67.5003H50V61.667Z" fill="#199BE2"/>
<path id="Vector_3" d="M50 50H44.1667V55.8333H50V50Z" fill="#199BE2"/>
<path id="Vector_4" d="M50 73.333H44.1667V79.1663H50V73.333Z" fill="#199BE2"/>
<path id="Vector_5" d="M50 85H44.1667V90.8333H50V85Z" fill="#199BE2"/>
<path id="Vector_6" d="M93.75 41.2503H35.4167C33.8038 41.2503 32.5 39.9437 32.5 38.3337C32.5 36.7237 33.8038 35.417 35.4167 35.417H93.75C95.3629 35.417 96.6667 36.7237 96.6667 38.3337C96.6667 39.9437 95.3629 41.2503 93.75 41.2503Z" fill="#0078D4"/>
<path id="Vector_7" d="M55.8333 55.8333V117.083C55.8333 118.693 57.14 120 58.75 120H111.25C112.86 120 114.167 118.693 114.167 117.083V55.8333C114.167 52.6104 111.556 50 108.333 50H61.6667C58.4437 50 55.8333 52.6104 55.8333 55.8333Z" fill="#199BE2"/>
<path id="Vector_8" d="M70.4167 82.083H64.5833V87.9163H70.4167V82.083Z" fill="#0078D4"/>
<path id="Vector_9" d="M70.4167 70.417H64.5833V76.2503H70.4167V70.417Z" fill="#0078D4"/>
<path id="Vector_10" d="M70.4167 93.75H64.5833V99.5833H70.4167V93.75Z" fill="#0078D4"/>
<path id="Vector_11" d="M70.4167 105.417H64.5833V111.25H70.4167V105.417Z" fill="#0078D4"/>
<path id="Vector_12" d="M114.167 61.6663H55.8333C54.2204 61.6663 52.9167 60.3597 52.9167 58.7497C52.9167 57.1397 54.2204 55.833 55.8333 55.833H114.167C115.78 55.833 117.083 57.1397 117.083 58.7497C117.083 60.3597 115.78 61.6663 114.167 61.6663Z" fill="#35C1F1"/>
<path id="Vector_13" d="M76.25 76.2503V137.5C76.25 139.11 77.5567 140.417 79.1667 140.417H131.667C133.277 140.417 134.583 139.11 134.583 137.5V76.2503C134.583 73.0274 131.973 70.417 128.75 70.417H82.0833C78.8604 70.417 76.25 73.0274 76.25 76.2503Z" fill="#35C1F1"/>
<g id="Group">
<path id="Vector_14" d="M114.167 102.5H108.333V108.333H114.167V102.5Z" fill="#199BE2"/>
<path id="Vector_15" d="M102.5 102.5H96.6667V108.333H102.5V102.5Z" fill="#199BE2"/>
<path id="Vector_16" d="M90.8333 102.5H85V108.333H90.8333V102.5Z" fill="#199BE2"/>
<path id="Vector_17" d="M114.167 90.833H108.333V96.6663H114.167V90.833Z" fill="#199BE2"/>
<path id="Vector_18" d="M102.5 90.833H96.6667V96.6663H102.5V90.833Z" fill="#199BE2"/>
<path id="Vector_19" d="M125.833 102.5H120V108.333H125.833V102.5Z" fill="#199BE2"/>
<path id="Vector_20" d="M125.833 90.833H120V96.6663H125.833V90.833Z" fill="#199BE2"/>
<path id="Vector_21" d="M90.8333 90.833H85V96.6663H90.8333V90.833Z" fill="#199BE2"/>
<path id="Vector_22" d="M114.167 114.166H108.333V119.999H114.167V114.166Z" fill="#199BE2"/>
<path id="Vector_23" d="M102.5 114.166H96.6667V119.999H102.5V114.166Z" fill="#199BE2"/>
<path id="Vector_24" d="M90.8333 114.166H85V119.999H90.8333V114.166Z" fill="#199BE2"/>
<path id="Vector_25" d="M125.833 114.166H120V119.999H125.833V114.166Z" fill="#199BE2"/>
<path id="Vector_26" d="M114.167 125.833H108.333V131.666H114.167V125.833Z" fill="#199BE2"/>
<path id="Vector_27" d="M102.5 125.833H96.6667V131.666H102.5V125.833Z" fill="#199BE2"/>
<path id="Vector_28" d="M125.833 125.833H120V131.666H125.833V125.833Z" fill="#199BE2"/>
<path id="Vector_29" d="M90.8333 125.833H85V131.666H90.8333V125.833Z" fill="#199BE2"/>
</g>
<path id="Vector_30" d="M134.583 82.0833H76.25C74.6371 82.0833 73.3333 80.7767 73.3333 79.1667C73.3333 77.5567 74.6371 76.25 76.25 76.25H134.583C136.196 76.25 137.5 77.5567 137.5 79.1667C137.5 80.7767 136.196 82.0833 134.583 82.0833Z" fill="#50E6FF"/>
<rect x="7.5" y="7.5" width="155" height="155" rx="12.5" stroke="#D5EAF6" stroke-width="15"/>
</g>
<defs>
<linearGradient id="paint0_linear_1_674" x1="85" y1="15" x2="85" y2="155" gradientUnits="userSpaceOnUse">
<stop stop-color="#199AE0"/>
<stop offset="0.472222" stop-color="#0D5176" stop-opacity="0.527778"/>
<stop offset="0.940972" stop-color="#12A6F7" stop-opacity="0.465278"/>
<stop offset="1" stop-opacity="0"/>
</linearGradient>
</defs>
</svg>
