<svg width="170" height="170" viewBox="0 0 170 170" fill="none" xmlns="http://www.w3.org/2000/svg">
<g id="heat-map">
<rect x="7.5" y="7.5" width="155" height="155" rx="12.5" fill="white"/>
<rect x="7.5" y="7.5" width="155" height="155" rx="12.5" fill="url(#paint0_linear_1_729)" fill-opacity="0.2"/>
<path id="Vector" d="M61.6667 47.0833C61.6667 50.3033 59.0533 52.9167 55.8333 52.9167C52.6133 52.9167 50 50.3033 50 47.0833C50 43.8633 52.6133 41.25 55.8333 41.25C59.0533 41.25 61.6667 43.8633 61.6667 47.0833Z" fill="url(#paint1_linear_1_729)"/>
<path id="Vector_2" d="M93.75 47.0837C93.75 53.5266 88.5263 58.7503 82.0833 58.7503C75.6404 58.7503 70.4167 53.5266 70.4167 47.0837C70.4167 40.6407 75.6404 35.417 82.0833 35.417C88.5263 35.417 93.75 40.6407 93.75 47.0837Z" fill="url(#paint2_linear_1_729)"/>
<path id="Vector_3" d="M137.5 111.25C137.5 117.693 132.276 122.916 125.833 122.916C119.39 122.916 114.167 117.693 114.167 111.25C114.167 104.807 119.39 99.583 125.833 99.583C132.276 99.583 137.5 104.807 137.5 111.25Z" fill="url(#paint3_linear_1_729)"/>
<path id="Vector_4" d="M117.083 79.167C117.083 83.9999 113.166 87.917 108.333 87.917C103.5 87.917 99.5833 83.9999 99.5833 79.167C99.5833 74.3341 103.5 70.417 108.333 70.417C113.166 70.417 117.083 74.3341 117.083 79.167Z" fill="url(#paint4_linear_1_729)"/>
<path id="Vector_5" d="M87.9167 111.25C87.9167 116.083 83.9996 120 79.1667 120C74.3338 120 70.4167 116.083 70.4167 111.25C70.4167 106.417 74.3338 102.5 79.1667 102.5C83.9996 102.5 87.9167 106.417 87.9167 111.25Z" fill="url(#paint5_linear_1_729)"/>
<path id="Vector_6" d="M61.6667 79.1663C61.6667 82.3863 59.0533 84.9997 55.8333 84.9997C52.6133 84.9997 50 82.3863 50 79.1663C50 75.9463 52.6133 73.333 55.8333 73.333C59.0533 73.333 61.6667 75.9463 61.6667 79.1663Z" fill="url(#paint6_linear_1_729)"/>
<path id="Vector_7" d="M61.6667 111.25C61.6667 114.47 59.0533 117.084 55.8333 117.084C52.6133 117.084 50 114.47 50 111.25C50 108.03 52.6133 105.417 55.8333 105.417C59.0533 105.417 61.6667 108.03 61.6667 111.25Z" fill="url(#paint7_linear_1_729)"/>
<path id="Vector_8" d="M108.333 111.25C108.333 114.47 105.72 117.084 102.5 117.084C99.28 117.084 96.6667 114.47 96.6667 111.25C96.6667 108.03 99.28 105.417 102.5 105.417C105.72 105.417 108.333 108.03 108.333 111.25Z" fill="url(#paint8_linear_1_729)"/>
<path id="Vector_9" d="M134.583 79.1663C134.583 82.3863 131.97 84.9997 128.75 84.9997C125.53 84.9997 122.917 82.3863 122.917 79.1663C122.917 75.9463 125.53 73.333 128.75 73.333C131.97 73.333 134.583 75.9463 134.583 79.1663Z" fill="url(#paint9_linear_1_729)"/>
<path id="Vector_10" d="M134.583 47.0833C134.583 50.3033 131.97 52.9167 128.75 52.9167C125.53 52.9167 122.917 50.3033 122.917 47.0833C122.917 43.8633 125.53 41.25 128.75 41.25C131.97 41.25 134.583 43.8633 134.583 47.0833Z" fill="url(#paint10_linear_1_729)"/>
<path id="Vector_11" d="M114.167 47.0833C114.167 50.3033 111.553 52.9167 108.333 52.9167C105.113 52.9167 102.5 50.3033 102.5 47.0833C102.5 43.8633 105.113 41.25 108.333 41.25C111.553 41.25 114.167 43.8633 114.167 47.0833Z" fill="url(#paint11_linear_1_729)"/>
<path id="Vector_12" d="M140.417 137.5H35.4167C33.8067 137.5 32.5 136.194 32.5 134.584V29.5837C32.5 27.9737 33.8067 26.667 35.4167 26.667C37.0267 26.667 38.3333 27.9737 38.3333 29.5837V131.667H140.417C142.027 131.667 143.333 132.974 143.333 134.584C143.333 136.194 142.027 137.5 140.417 137.5Z" fill="#ABB4BE"/>
<rect x="7.5" y="7.5" width="155" height="155" rx="12.5" stroke="#D5EAF6" stroke-width="15"/>
</g>
<defs>
<linearGradient id="paint0_linear_1_729" x1="85" y1="15" x2="85" y2="155" gradientUnits="userSpaceOnUse">
<stop stop-color="#199AE0"/>
<stop offset="0.472222" stop-color="#0D5176" stop-opacity="0.527778"/>
<stop offset="0.940972" stop-color="#12A6F7" stop-opacity="0.465278"/>
<stop offset="1" stop-opacity="0"/>
</linearGradient>
<linearGradient id="paint1_linear_1_729" x1="53.2083" y1="41.9763" x2="58.6275" y2="52.5229" gradientUnits="userSpaceOnUse">
<stop stop-color="#0176D0"/>
<stop offset="1" stop-color="#0A85D9"/>
</linearGradient>
<linearGradient id="paint2_linear_1_729" x1="76.8363" y1="36.8724" x2="87.6746" y2="57.9599" gradientUnits="userSpaceOnUse">
<stop stop-color="#0176D0"/>
<stop offset="1" stop-color="#0A85D9"/>
</linearGradient>
<linearGradient id="paint3_linear_1_729" x1="120.583" y1="101.038" x2="131.425" y2="122.126" gradientUnits="userSpaceOnUse">
<stop stop-color="#0176D0"/>
<stop offset="1" stop-color="#0A85D9"/>
</linearGradient>
<linearGradient id="paint4_linear_1_729" x1="104.396" y1="71.5078" x2="112.528" y2="87.3249" gradientUnits="userSpaceOnUse">
<stop stop-color="#0176D0"/>
<stop offset="1" stop-color="#0A85D9"/>
</linearGradient>
<linearGradient id="paint5_linear_1_729" x1="75.2292" y1="103.591" x2="83.3608" y2="119.408" gradientUnits="userSpaceOnUse">
<stop stop-color="#0176D0"/>
<stop offset="1" stop-color="#0A85D9"/>
</linearGradient>
<linearGradient id="paint6_linear_1_729" x1="53.2083" y1="74.0593" x2="58.6275" y2="84.6059" gradientUnits="userSpaceOnUse">
<stop stop-color="#0176D0"/>
<stop offset="1" stop-color="#0A85D9"/>
</linearGradient>
<linearGradient id="paint7_linear_1_729" x1="53.2083" y1="106.143" x2="58.6275" y2="116.69" gradientUnits="userSpaceOnUse">
<stop stop-color="#0176D0"/>
<stop offset="1" stop-color="#0A85D9"/>
</linearGradient>
<linearGradient id="paint8_linear_1_729" x1="99.875" y1="106.143" x2="105.294" y2="116.69" gradientUnits="userSpaceOnUse">
<stop stop-color="#0176D0"/>
<stop offset="1" stop-color="#0A85D9"/>
</linearGradient>
<linearGradient id="paint9_linear_1_729" x1="126.125" y1="74.0593" x2="131.544" y2="84.6059" gradientUnits="userSpaceOnUse">
<stop stop-color="#0176D0"/>
<stop offset="1" stop-color="#0A85D9"/>
</linearGradient>
<linearGradient id="paint10_linear_1_729" x1="126.125" y1="41.9763" x2="131.544" y2="52.5229" gradientUnits="userSpaceOnUse">
<stop stop-color="#0176D0"/>
<stop offset="1" stop-color="#0A85D9"/>
</linearGradient>
<linearGradient id="paint11_linear_1_729" x1="105.708" y1="41.9763" x2="111.127" y2="52.5229" gradientUnits="userSpaceOnUse">
<stop stop-color="#0176D0"/>
<stop offset="1" stop-color="#0A85D9"/>
</linearGradient>
</defs>
</svg>
