<svg width="170" height="170" viewBox="0 0 170 170" fill="none" xmlns="http://www.w3.org/2000/svg">
<g id="high-priority-message">
<rect x="7.5" y="7.5" width="155" height="155" rx="12.5" fill="white"/>
<rect x="7.5" y="7.5" width="155" height="155" rx="12.5" fill="url(#paint0_linear_1_749)" fill-opacity="0.2"/>
<path id="Vector" d="M137.5 38.333H32.5C29.2917 38.333 26.6667 40.958 26.6667 44.1663V120C26.6667 123.208 29.2917 125.833 32.5 125.833H55.8333V149.166C55.8333 151.791 59.0417 152.958 60.7917 151.208L86.1667 125.833H137.5C140.708 125.833 143.333 123.208 143.333 120V44.1663C143.333 40.958 140.708 38.333 137.5 38.333Z" fill="url(#paint1_linear_1_749)"/>
<path id="Vector_2" opacity="0.05" d="M127 89.0833C126.417 87.9167 124.667 85.875 121.458 85.875C118.542 85.875 116.5 87.9167 116.208 88.7917L92.875 125.833H137.5C140.708 125.833 143.333 123.208 143.333 120V115.042L127 89.0833Z" fill="black"/>
<path id="Vector_3" opacity="0.07" d="M125.542 89.667C124.958 88.792 123.792 87.042 121.458 87.042C119.125 87.042 117.667 88.5003 117.375 89.3753L94.625 125.834H137.5C140.708 125.834 143.333 123.209 143.333 120V117.959L125.542 89.667Z" fill="black"/>
<path id="Vector_4" d="M154.417 138.375L124.375 90.25C124.375 90.25 123.5 88.5 121.458 88.5C119.417 88.5 118.542 90.25 118.542 90.25L88.5 138.375C88.5 138.375 87.9167 139.25 87.9167 140.125C87.9167 141.875 89.375 143.333 91.125 143.333H151.792C153.542 143.333 155 141.875 155 140.125C155 138.958 154.417 138.375 154.417 138.375Z" fill="url(#paint2_linear_1_749)"/>
<path id="Vector_5" d="M121.458 137.5C120.292 137.5 119.125 137.208 118.25 136.333C117.375 135.458 117.083 134.292 117.083 133.125C117.083 131.958 117.375 130.792 118.25 129.917C119.125 129.042 120 128.75 121.458 128.75C122.625 128.75 123.792 129.042 124.667 129.917C125.542 130.792 125.833 131.667 125.833 133.125C125.833 134.292 125.542 135.458 124.667 136.333C123.792 137.208 122.917 137.5 121.458 137.5Z" fill="url(#paint3_radial_1_749)"/>
<path id="Vector_6" d="M125.833 106.584L124.958 124.959C124.958 125.542 124.375 125.834 123.5 125.834H119.125C118.542 125.834 117.667 125.25 117.667 124.959L117.083 106.584C117.083 106 117.667 105.417 118.542 105.417H124.667C125.25 105.417 125.833 106 125.833 106.584Z" fill="url(#paint4_radial_1_749)"/>
<rect x="7.5" y="7.5" width="155" height="155" rx="12.5" stroke="#D5EAF6" stroke-width="15"/>
</g>
<defs>
<linearGradient id="paint0_linear_1_749" x1="85" y1="15" x2="85" y2="155" gradientUnits="userSpaceOnUse">
<stop stop-color="#199AE0"/>
<stop offset="0.472222" stop-color="#0D5176" stop-opacity="0.527778"/>
<stop offset="0.940972" stop-color="#12A6F7" stop-opacity="0.465278"/>
<stop offset="1" stop-opacity="0"/>
</linearGradient>
<linearGradient id="paint1_linear_1_749" x1="52.0008" y1="28.393" x2="118.775" y2="137.036" gradientUnits="userSpaceOnUse">
<stop stop-color="#0176D0"/>
<stop offset="1" stop-color="#0A85D9"/>
</linearGradient>
<linearGradient id="paint2_linear_1_749" x1="-410.02" y1="-476.187" x2="142.07" y2="157.015" gradientUnits="userSpaceOnUse">
<stop stop-color="#FFDA1C"/>
<stop offset="1" stop-color="#FEB705"/>
</linearGradient>
<radialGradient id="paint3_radial_1_749" cx="0" cy="0" r="1" gradientUnits="userSpaceOnUse" gradientTransform="translate(111.338 128.66) scale(16.9225 18.7687)">
<stop stop-color="#4B4B4B"/>
<stop offset="0.531" stop-color="#393939"/>
<stop offset="1" stop-color="#252525"/>
</radialGradient>
<radialGradient id="paint4_radial_1_749" cx="0" cy="0" r="1" gradientUnits="userSpaceOnUse" gradientTransform="translate(111.264 105.223) scale(31.1911 24.0314)">
<stop stop-color="#4B4B4B"/>
<stop offset="0.531" stop-color="#393939"/>
<stop offset="1" stop-color="#252525"/>
</radialGradient>
</defs>
</svg>
