<svg width="170" height="170" viewBox="0 0 170 170" fill="none" xmlns="http://www.w3.org/2000/svg">
<g id="hospital-folder">
<rect x="7.5" y="7.5" width="155" height="155" rx="12.5" fill="white"/>
<rect x="7.5" y="7.5" width="155" height="155" rx="12.5" fill="url(#paint0_linear_1_765)" fill-opacity="0.2"/>
<path id="Vector" d="M86.2075 45.3745L78.8108 37.9778C77.1717 36.3387 74.9463 35.417 72.6246 35.417H29.5833C26.3604 35.417 23.75 38.0274 23.75 41.2503V128.75C23.75 131.973 26.3604 134.584 29.5833 134.584H140.417C143.64 134.584 146.25 131.973 146.25 128.75V52.917C146.25 49.6941 143.64 47.0837 140.417 47.0837H90.3317C88.7858 47.0837 87.3013 46.4682 86.2075 45.3745Z" fill="url(#paint1_linear_1_765)"/>
<path id="Vector_2" d="M77.9592 57.0405L87.4908 47.5088C87.7621 47.2376 88.1325 47.083 88.5204 47.083H140.417C143.64 47.083 146.25 49.6934 146.25 52.9163V128.75C146.25 131.973 143.64 134.583 140.417 134.583H29.5833C26.3604 134.583 23.75 131.973 23.75 128.75V60.208C23.75 59.403 24.4033 58.7497 25.2083 58.7497H73.835C75.3808 58.7497 76.8654 58.1343 77.9592 57.0405Z" fill="url(#paint2_linear_1_765)"/>
<path id="Vector_3" d="M85 125.833C101.108 125.833 114.167 112.775 114.167 96.6667C114.167 80.5584 101.108 67.5 85 67.5C68.8917 67.5 55.8333 80.5584 55.8333 96.6667C55.8333 112.775 68.8917 125.833 85 125.833Z" fill="url(#paint3_linear_1_765)"/>
<path id="Vector_4" d="M92.6271 96.6663L101.844 90.2118C102.503 89.7509 102.663 88.8409 102.203 88.1818L98.8571 83.4043C98.3963 82.7451 97.4863 82.5847 96.8271 83.0455L89.375 88.2634V79.1663C89.375 78.3613 88.7217 77.708 87.9167 77.708H82.0833C81.2783 77.708 80.625 78.3613 80.625 79.1663V88.2634L73.1729 83.0455C72.5138 82.5847 71.6038 82.7451 71.1429 83.4043L67.7975 88.1818C67.3367 88.8409 67.4971 89.7509 68.1563 90.2118L77.3729 96.6663L68.1563 103.121C67.4971 103.582 67.3367 104.492 67.7975 105.151L71.1429 109.928C71.6038 110.588 72.5138 110.748 73.1729 110.287L80.625 105.069V114.166C80.625 114.971 81.2783 115.625 82.0833 115.625H87.9167C88.7217 115.625 89.375 114.971 89.375 114.166V105.069L96.8271 110.287C97.4863 110.748 98.3963 110.588 98.8571 109.928L102.203 105.151C102.663 104.492 102.503 103.582 101.844 103.121L92.6271 96.6663Z" fill="white"/>
<rect x="7.5" y="7.5" width="155" height="155" rx="12.5" stroke="#D5EAF6" stroke-width="15"/>
</g>
<defs>
<linearGradient id="paint0_linear_1_765" x1="85" y1="15" x2="85" y2="155" gradientUnits="userSpaceOnUse">
<stop stop-color="#199AE0"/>
<stop offset="0.472222" stop-color="#0D5176" stop-opacity="0.527778"/>
<stop offset="0.940972" stop-color="#12A6F7" stop-opacity="0.465278"/>
<stop offset="1" stop-opacity="0"/>
</linearGradient>
<linearGradient id="paint1_linear_1_765" x1="85" y1="34.5653" x2="85" y2="58.6832" gradientUnits="userSpaceOnUse">
<stop stop-color="#EBA600"/>
<stop offset="1" stop-color="#C28200"/>
</linearGradient>
<linearGradient id="paint2_linear_1_765" x1="85" y1="46.6572" x2="85" y2="134.533" gradientUnits="userSpaceOnUse">
<stop stop-color="#FFD869"/>
<stop offset="1" stop-color="#FEC52B"/>
</linearGradient>
<linearGradient id="paint3_linear_1_765" x1="79.015" y1="67.85" x2="90.6146" y2="123.693" gradientUnits="userSpaceOnUse">
<stop stop-color="#0176D0"/>
<stop offset="1" stop-color="#22A5E2"/>
</linearGradient>
</defs>
</svg>
