<svg width="170" height="170" viewBox="0 0 170 170" fill="none" xmlns="http://www.w3.org/2000/svg">
<g id="internet-folder">
<rect x="7.5" y="7.5" width="155" height="155" rx="12.5" fill="white"/>
<rect x="7.5" y="7.5" width="155" height="155" rx="12.5" fill="url(#paint0_linear_1_797)" fill-opacity="0.2"/>
<path id="Vector" d="M86.2075 45.3745L78.8108 37.9778C77.1717 36.3387 74.9463 35.417 72.6246 35.417H29.5833C26.3604 35.417 23.75 38.0274 23.75 41.2503V128.75C23.75 131.973 26.3604 134.584 29.5833 134.584H140.417C143.64 134.584 146.25 131.973 146.25 128.75V52.917C146.25 49.6941 143.64 47.0837 140.417 47.0837H90.3317C88.7858 47.0837 87.3013 46.4682 86.2075 45.3745Z" fill="url(#paint1_linear_1_797)"/>
<path id="Vector_2" d="M77.9592 57.0405L87.4908 47.5088C87.7621 47.2376 88.1325 47.083 88.5204 47.083H140.417C143.64 47.083 146.25 49.6934 146.25 52.9163V128.75C146.25 131.973 143.64 134.583 140.417 134.583H29.5833C26.3604 134.583 23.75 131.973 23.75 128.75V60.208C23.75 59.403 24.4033 58.7497 25.2083 58.7497H73.835C75.3808 58.7497 76.8654 58.1343 77.9592 57.0405Z" fill="url(#paint2_linear_1_797)"/>
<path id="Vector_3" d="M114.167 96.6667C114.167 112.773 101.106 125.833 85 125.833C68.8942 125.833 55.8333 112.773 55.8333 96.6667C55.8333 80.5608 68.8942 67.5 85 67.5C101.106 67.5 114.167 80.5579 114.167 96.6667Z" fill="url(#paint3_linear_1_797)"/>
<path id="Vector_4" d="M84.6646 111.991C85 112.985 84.6646 114.318 84.3292 114.989C84.0025 115.987 83.6671 117.32 82.9992 117.982C82.3371 118.65 81.6662 118.985 81.0042 119.317C80.0067 119.98 79.3387 121.31 78.3412 122.316C78.3412 122.642 77.0083 124.337 76.6758 124.337C76.5533 124.401 76.4337 124.462 76.3142 124.521C74.3483 123.908 72.4817 123.08 70.7171 122.088C70.7054 122.053 70.6937 122.018 70.6792 121.983C70.6792 121.648 70.3525 119.65 70.3525 119.32C70.0171 118.32 69.6846 116.987 69.3492 115.99C68.6871 114.324 67.3542 112.659 67.3542 110.664C67.3542 108.995 67.6837 107.339 66.6862 106C65.3562 104.335 62.6933 104.335 61.3604 103.337C59.3596 102.007 57.3675 100.012 56.37 98.0113C56.1308 97.6175 55.9704 97.2529 55.8392 96.8912C55.8421 96.8125 55.8333 96.7425 55.8333 96.6667C55.8333 88.8558 58.9221 81.7771 63.9242 76.5417C66.66 74.3279 71.9946 73.31 75.235 74.2871C76.2325 74.6167 79.8229 76.7604 79.8229 77.7608C79.8229 78.0962 79.8229 78.0962 79.4875 78.4287C79.1608 78.7642 78.8254 78.7642 78.49 78.7642C77.4925 78.7642 74.3483 78.0379 74.0129 77.7025C72.0121 77.0346 69.0196 81.3629 68.6871 82.6958C68.3517 83.6992 68.3517 86.0267 70.0171 86.3621C71.0146 86.3621 75.5792 82.4888 76.25 82.1533C78.9129 81.8267 80.9692 84.1075 81.64 86.4438C82.6375 89.1067 77.0112 91.6792 75.0075 92.35C74.3454 92.6854 74.0129 92.0146 73.3421 92.35C71.6825 93.0121 70.6996 94.4996 70.5012 96.4917C70.335 98.1746 70.1658 99.8167 69.8392 101.485C69.5037 101.485 68.8212 101.479 68.8212 101.147V100.485C68.8212 99.4813 68.4858 98.1483 67.4912 97.8158C67.1558 97.4892 66.6862 98.0142 66.3508 98.0142C65.3533 98.0142 64.3558 97.0108 63.3612 97.6788C62.6933 98.3408 62.0283 99.3442 62.0283 100.342C62.0283 100.677 62.0283 101.01 62.3579 101.339C63.0258 101.675 63.6879 101.012 64.3587 101.339C65.0208 101.339 65.0208 102.007 65.0208 102.342C65.6887 103.34 66.3508 104.673 67.3542 105.005H74.01C75.0075 105.341 76.6729 105.668 77.3408 106.338C77.6675 107 77.6675 107.668 78.0029 108.333C79.6683 109.999 81.6604 109.999 83.6612 110.667C84.3321 110.993 84.6646 111.32 84.6646 111.991ZM103.264 73.9458C103.115 73.9896 102.97 74.0304 102.827 74.0917C101.829 74.4271 99.2246 79.2308 98.5596 80.2283C98.2242 80.5638 97.8975 81.2258 98.2242 81.5583C98.2242 81.8937 98.5596 81.8937 98.8921 81.8937C99.5542 82.2292 99.6446 82.3662 100.312 82.6929C100.648 82.6929 100.975 83.0283 100.648 83.3608C100.648 83.3608 100.648 83.6962 100.312 83.6962C98.6471 85.3617 96.9817 86.6946 95.3192 88.3542C94.9837 88.6925 94.7621 89.3604 94.7621 89.6871C94.7621 90.0225 94.9837 90.0225 94.9837 90.355C94.9837 90.6875 94.6483 90.6904 94.3158 91.0171C93.6537 91.3525 92.9829 91.685 92.6504 92.0204C92.3237 92.6825 92.6504 93.6858 92.3237 94.3508C91.9883 96.0162 90.9879 97.3492 90.3229 99.0146C89.655 100.012 89.0571 101.01 88.3892 102.013C88.3892 103.343 88.0537 104.343 88.7246 105.338C90.39 107.671 93.7237 105.44 96.0542 106.435C96.7162 106.77 97.2879 106.828 97.7196 107.432C98.5479 108.578 98.6471 110.999 98.9825 112C99.3092 113.333 99.6446 114.662 100.312 115.992C100.645 117.643 101.295 119.294 101.634 120.61C109.202 115.339 114.167 106.586 114.167 96.6667C114.167 87.4763 109.905 79.2921 103.264 73.9458ZM91.72 75.3108C92.7117 74.6721 93.3767 73.4033 93.7092 72.4525C94.0329 71.8137 95.0304 70.545 94.7008 69.5942C94.4412 69.0983 93.3942 68.8008 92.6242 68.5413C90.1887 67.885 87.6425 67.5 85 67.5C84.3292 67.5 83.6729 67.5554 83.0137 67.6021C82.4567 67.7946 81.9812 68.1213 81.7975 68.6433C81.465 70.23 82.7892 69.9121 84.1104 70.23C84.1104 70.23 84.4429 72.7704 84.4429 73.0912C84.7754 74.6808 83.7808 75.6317 83.7808 77.2154C83.7808 78.1721 83.7808 79.7587 84.4429 80.3946H84.7754C85.1079 80.3946 85.4346 80.0738 86.0967 79.7646C87.0883 79.1258 88.0858 78.175 89.0746 77.5363C90.0662 76.9004 91.055 75.9467 91.72 75.3108Z" fill="url(#paint4_linear_1_797)"/>
<rect x="7.5" y="7.5" width="155" height="155" rx="12.5" stroke="#D5EAF6" stroke-width="15"/>
</g>
<defs>
<linearGradient id="paint0_linear_1_797" x1="85" y1="15" x2="85" y2="155" gradientUnits="userSpaceOnUse">
<stop stop-color="#199AE0"/>
<stop offset="0.472222" stop-color="#0D5176" stop-opacity="0.527778"/>
<stop offset="0.940972" stop-color="#12A6F7" stop-opacity="0.465278"/>
<stop offset="1" stop-opacity="0"/>
</linearGradient>
<linearGradient id="paint1_linear_1_797" x1="85" y1="34.5653" x2="85" y2="58.6832" gradientUnits="userSpaceOnUse">
<stop stop-color="#EBA600"/>
<stop offset="1" stop-color="#C28200"/>
</linearGradient>
<linearGradient id="paint2_linear_1_797" x1="85" y1="46.6572" x2="85" y2="134.533" gradientUnits="userSpaceOnUse">
<stop stop-color="#FFD869"/>
<stop offset="1" stop-color="#FEC52B"/>
</linearGradient>
<linearGradient id="paint3_linear_1_797" x1="64.3762" y1="76.0429" x2="105.982" y2="117.646" gradientUnits="userSpaceOnUse">
<stop stop-color="#00BFFE"/>
<stop offset="1" stop-color="#1D55C4"/>
</linearGradient>
<linearGradient id="paint4_linear_1_797" x1="64.8808" y1="75.7833" x2="106.327" y2="117.229" gradientUnits="userSpaceOnUse">
<stop stop-color="#84E1FE"/>
<stop offset="1" stop-color="#167CF7"/>
</linearGradient>
</defs>
</svg>
