<svg width="170" height="170" viewBox="0 0 170 170" fill="none" xmlns="http://www.w3.org/2000/svg">
<g id="launch">
<g clip-path="url(#clip0_1_894)">
<rect x="15" y="15" width="140" height="140" rx="5" fill="white"/>
<rect x="15" y="15" width="140" height="140" rx="5" fill="url(#paint0_linear_1_894)" fill-opacity="0.2"/>
<path id="Vector" d="M93.75 140.417C93.75 146.25 85 155 85 155C85 155 76.25 146.25 76.25 140.417C76.25 135.584 80.1671 131.667 85 131.667C89.8329 131.667 93.75 135.584 93.75 140.417Z" fill="url(#paint1_linear_1_894)"/>
<path id="Vector_2" d="M87.9167 140.417C87.9167 143.333 85 146.25 85 146.25C85 146.25 82.0833 143.333 82.0833 140.417C82.0833 138.807 83.39 137.5 85 137.5C86.61 137.5 87.9167 138.807 87.9167 140.417Z" fill="url(#paint2_linear_1_894)"/>
<path id="Vector_3" d="M102.5 47.083H67.5V114.166H102.5V47.083Z" fill="#35C1F1"/>
<path id="Vector_4" d="M89.2642 22.6968C86.9513 20.2118 83.0458 20.2118 80.7358 22.6968C75.5558 28.2618 67.5 38.193 67.5 46.1059V47.083H102.5V46.1059C102.5 38.193 94.4442 28.2618 89.2642 22.6968Z" fill="#50E6FF"/>
<path id="Vector_5" d="M85 87.9164C90.712 87.9164 95.3425 83.2859 95.3425 77.5739C95.3425 71.8619 90.712 67.2314 85 67.2314C79.288 67.2314 74.6575 71.8619 74.6575 77.5739C74.6575 83.2859 79.288 87.9164 85 87.9164Z" fill="#50E6FF"/>
<path id="Vector_6" d="M85 84.732C88.953 84.732 92.1575 81.5275 92.1575 77.5745C92.1575 73.6215 88.953 70.417 85 70.417C81.047 70.417 77.8425 73.6215 77.8425 77.5745C77.8425 81.5275 81.047 84.732 85 84.732Z" fill="#0078D4"/>
<path id="Vector_7" d="M102.5 82.083L117.891 100.041C119.25 101.628 119.997 103.646 119.997 105.734L120 122.916L102.5 114.166V82.083Z" fill="#199BE2"/>
<path id="Vector_8" d="M67.5 114.166L50 122.916L50.0029 105.734C50.0029 103.646 50.7496 101.628 52.1087 100.041L67.5 82.083V114.166Z" fill="#199BE2"/>
<path id="Vector_9" d="M96.6667 122.917H73.3333C70.1104 122.917 67.5 120.307 67.5 117.084V114.167H102.5V117.084C102.5 120.307 99.8896 122.917 96.6667 122.917Z" fill="#50E6FF"/>
<path id="Vector_10" d="M89.1942 134.584H80.8029C78.1254 134.584 75.7921 132.761 75.1446 130.165L73.3333 122.917H96.6667L94.8554 130.165C94.205 132.761 91.8717 134.584 89.1942 134.584Z" fill="#199BE2"/>
</g>
<rect x="7.5" y="7.5" width="155" height="155" rx="12.5" stroke="#D5EAF6" stroke-width="15"/>
</g>
<defs>
<linearGradient id="paint0_linear_1_894" x1="85" y1="15" x2="85" y2="155" gradientUnits="userSpaceOnUse">
<stop stop-color="#199AE0"/>
<stop offset="0.472222" stop-color="#0D5176" stop-opacity="0.527778"/>
<stop offset="0.940972" stop-color="#12A6F7" stop-opacity="0.465278"/>
<stop offset="1" stop-opacity="0"/>
</linearGradient>
<linearGradient id="paint1_linear_1_894" x1="82.6346" y1="131.991" x2="89.2554" y2="155.242" gradientUnits="userSpaceOnUse">
<stop stop-color="#F44F5A"/>
<stop offset="0.443" stop-color="#EE3D4A"/>
<stop offset="1" stop-color="#E52030"/>
</linearGradient>
<linearGradient id="paint2_linear_1_894" x1="84.1658" y1="137.62" x2="86.645" y2="146.326" gradientUnits="userSpaceOnUse">
<stop stop-color="#FFCF7B"/>
<stop offset="0.195" stop-color="#FECD76"/>
<stop offset="0.439" stop-color="#FAC666"/>
<stop offset="0.71" stop-color="#F3BC4D"/>
<stop offset="0.997" stop-color="#EAAD29"/>
<stop offset="1" stop-color="#EAAD29"/>
</linearGradient>
<clipPath id="clip0_1_894">
<rect x="15" y="15" width="140" height="140" rx="5" fill="white"/>
</clipPath>
</defs>
</svg>
