<svg width="170" height="170" viewBox="0 0 170 170" fill="none" xmlns="http://www.w3.org/2000/svg">
<g id="libre-office-writer">
<rect x="7.5" y="7.5" width="155" height="155" rx="12.5" fill="white"/>
<rect x="7.5" y="7.5" width="155" height="155" rx="12.5" fill="url(#paint0_linear_1_912)" fill-opacity="0.2"/>
<path id="Vector" d="M128.75 143.334H41.25C38.0271 143.334 35.4167 140.723 35.4167 137.5V32.5003C35.4167 29.2774 38.0271 26.667 41.25 26.667H128.75C131.973 26.667 134.583 29.2774 134.583 32.5003V137.5C134.583 140.723 131.973 143.334 128.75 143.334Z" fill="url(#paint1_linear_1_912)"/>
<path id="Vector_2" opacity="0.05" d="M100.085 32.4997C101.631 32.4997 103.115 33.1151 104.209 34.2088L127.041 57.0405C128.135 58.1343 128.75 59.6188 128.75 61.1647V134.583C128.75 136.193 127.443 137.5 125.833 137.5H44.1667C42.5567 137.5 41.25 136.193 41.25 134.583V35.4163C41.25 33.8063 42.5567 32.4997 44.1667 32.4997H100.085ZM100.085 29.583H44.1667C40.9496 29.583 38.3333 32.1993 38.3333 35.4163V134.583C38.3333 137.8 40.9496 140.416 44.1667 140.416H125.833C129.05 140.416 131.667 137.8 131.667 134.583V61.1647C131.667 58.8284 130.757 56.6293 129.103 54.9784L106.271 32.1468C104.617 30.493 102.421 29.583 100.085 29.583Z" fill="black"/>
<path id="Vector_3" opacity="0.07" d="M100.085 32.5003C101.631 32.5003 103.115 33.1157 104.209 34.2095L127.041 57.0412C128.135 58.1349 128.75 59.6195 128.75 61.1653V134.584C128.75 136.194 127.443 137.5 125.833 137.5H44.1667C42.5567 137.5 41.25 136.194 41.25 134.584V35.417C41.25 33.807 42.5567 32.5003 44.1667 32.5003H100.085ZM100.085 31.042H44.1667C41.7546 31.042 39.7917 33.0049 39.7917 35.417V134.584C39.7917 136.996 41.7546 138.959 44.1667 138.959H125.833C128.245 138.959 130.208 136.996 130.208 134.584V61.1653C130.208 59.217 129.45 57.3853 128.073 56.0087L105.242 33.177C103.862 31.8003 102.03 31.042 100.085 31.042Z" fill="black"/>
<path id="Vector_4" d="M44.1667 32.5C42.5567 32.5 41.25 33.8067 41.25 35.4167V134.583C41.25 136.193 42.5567 137.5 44.1667 137.5H125.833C127.443 137.5 128.75 136.193 128.75 134.583V61.165C128.75 59.6192 128.135 58.1346 127.041 57.0408L104.209 34.2092C103.115 33.1154 101.631 32.5 100.085 32.5H44.1667Z" fill="url(#paint2_linear_1_912)"/>
<path id="Vector_5" d="M115.788 76.25H86.295C83.9675 76.25 82.0833 78.1138 82.0833 80.4179V99.1692C82.0833 102.62 84.9125 105.417 88.4037 105.417H114.835C117.687 105.417 120 103.13 120 100.31V80.4179C120 78.1138 118.116 76.25 115.788 76.25Z" fill="url(#paint3_radial_1_912)"/>
<path id="Vector_6" d="M120 100.185L109.112 88.8387C107.896 87.6341 105.93 87.6108 104.679 88.7804L94.7213 97.8279V105.417H115.785C118.116 105.417 120 103.553 120 101.249V100.185Z" fill="#436DCD"/>
<path id="Vector_7" d="M115.788 105.417L96.445 86.1229C94.9604 84.6529 92.5629 84.6237 91.0375 86.05L82.0833 94.2137V101.252C82.0833 103.553 83.9675 105.417 86.295 105.417H115.788Z" fill="url(#paint4_linear_1_912)"/>
<path id="Vector_8" d="M111.25 84.9362C112.861 84.9362 114.167 83.6447 114.167 82.0516C114.167 80.4585 112.861 79.167 111.25 79.167C109.639 79.167 108.333 80.4585 108.333 82.0516C108.333 83.6447 109.639 84.9362 111.25 84.9362Z" fill="white"/>
<path id="Vector_9" d="M74.7917 82.0833H51.4583C50.6533 82.0833 50 81.43 50 80.625V77.7083C50 76.9033 50.6533 76.25 51.4583 76.25H74.7917C75.5967 76.25 76.25 76.9033 76.25 77.7083V80.625C76.25 81.43 75.5967 82.0833 74.7917 82.0833Z" fill="#29AFEA"/>
<path id="Vector_10" d="M74.7917 93.7503H51.4583C50.6533 93.7503 50 93.097 50 92.292V89.3753C50 88.5703 50.6533 87.917 51.4583 87.917H74.7917C75.5967 87.917 76.25 88.5703 76.25 89.3753V92.292C76.25 93.097 75.5967 93.7503 74.7917 93.7503Z" fill="#29AFEA"/>
<path id="Vector_11" d="M74.7917 105.416H51.4583C50.6533 105.416 50 104.763 50 103.958V101.041C50 100.236 50.6533 99.583 51.4583 99.583H74.7917C75.5967 99.583 76.25 100.236 76.25 101.041V103.958C76.25 104.763 75.5967 105.416 74.7917 105.416Z" fill="#29AFEA"/>
<path id="Vector_12" d="M118.542 117.083H51.4583C50.6533 117.083 50 116.43 50 115.625V112.708C50 111.903 50.6533 111.25 51.4583 111.25H118.542C119.347 111.25 120 111.903 120 112.708V115.625C120 116.43 119.347 117.083 118.542 117.083Z" fill="#29AFEA"/>
<path id="Vector_13" d="M118.542 128.75H51.4583C50.6533 128.75 50 128.097 50 127.292V124.375C50 123.57 50.6533 122.917 51.4583 122.917H118.542C119.347 122.917 120 123.57 120 124.375V127.292C120 128.097 119.347 128.75 118.542 128.75Z" fill="#29AFEA"/>
<rect x="7.5" y="7.5" width="155" height="155" rx="12.5" stroke="#D5EAF6" stroke-width="15"/>
</g>
<defs>
<linearGradient id="paint0_linear_1_912" x1="85" y1="15" x2="85" y2="155" gradientUnits="userSpaceOnUse">
<stop stop-color="#199AE0"/>
<stop offset="0.472222" stop-color="#0D5176" stop-opacity="0.527778"/>
<stop offset="0.940972" stop-color="#12A6F7" stop-opacity="0.465278"/>
<stop offset="1" stop-opacity="0"/>
</linearGradient>
<linearGradient id="paint1_linear_1_912" x1="85" y1="30.7999" x2="85" y2="148.937" gradientUnits="userSpaceOnUse">
<stop stop-color="#2AA4F4"/>
<stop offset="1" stop-color="#007AD9"/>
</linearGradient>
<linearGradient id="paint2_linear_1_912" x1="85" y1="68.4712" x2="85" y2="192.925" gradientUnits="userSpaceOnUse">
<stop stop-color="#F9F9F9"/>
<stop offset="0.26" stop-color="#F0F1F2"/>
<stop offset="0.678" stop-color="#D9DCDF"/>
<stop offset="1" stop-color="#C2C8CC"/>
</linearGradient>
<radialGradient id="paint3_radial_1_912" cx="0" cy="0" r="1" gradientUnits="userSpaceOnUse" gradientTransform="translate(126.823 100.943) scale(22.0618 21.8196)">
<stop stop-color="#BD8AF5"/>
<stop offset="0.137" stop-color="#B88BF5"/>
<stop offset="0.309" stop-color="#A88FF3"/>
<stop offset="0.499" stop-color="#8F96F2"/>
<stop offset="0.702" stop-color="#6B9EEF"/>
<stop offset="0.913" stop-color="#3EAAEC"/>
<stop offset="1" stop-color="#29AFEA"/>
</radialGradient>
<linearGradient id="paint4_linear_1_912" x1="98.9358" y1="84.9533" x2="98.9358" y2="105.772" gradientUnits="userSpaceOnUse">
<stop stop-color="#124787"/>
<stop offset="0.923" stop-color="#173B75"/>
<stop offset="1" stop-color="#173A73"/>
</linearGradient>
</defs>
</svg>
