<svg width="170" height="170" viewBox="0 0 170 170" fill="none" xmlns="http://www.w3.org/2000/svg">
<g id="list">
<rect x="7.5" y="7.5" width="155" height="155" rx="12.5" fill="white"/>
<rect x="7.5" y="7.5" width="155" height="155" rx="12.5" fill="url(#paint0_linear_1_953)" fill-opacity="0.2"/>
<path id="Vector" d="M140.417 58.75H58.75C55.5417 58.75 52.9167 56.125 52.9167 52.9167V47.0833C52.9167 43.875 55.5417 41.25 58.75 41.25H140.417C143.625 41.25 146.25 43.875 146.25 47.0833V52.9167C146.25 56.125 143.625 58.75 140.417 58.75Z" fill="url(#paint1_linear_1_953)"/>
<path id="Vector_2" d="M35.4167 58.75H29.5833C26.375 58.75 23.75 56.125 23.75 52.9167V47.0833C23.75 43.875 26.375 41.25 29.5833 41.25H35.4167C38.625 41.25 41.25 43.875 41.25 47.0833V52.9167C41.25 56.125 38.625 58.75 35.4167 58.75Z" fill="url(#paint2_linear_1_953)"/>
<path id="Vector_3" d="M140.417 93.75H58.75C55.5417 93.75 52.9167 91.125 52.9167 87.9167V82.0833C52.9167 78.875 55.5417 76.25 58.75 76.25H140.417C143.625 76.25 146.25 78.875 146.25 82.0833V87.9167C146.25 91.125 143.625 93.75 140.417 93.75Z" fill="url(#paint3_linear_1_953)"/>
<path id="Vector_4" d="M35.4167 93.75H29.5833C26.375 93.75 23.75 91.125 23.75 87.9167V82.0833C23.75 78.875 26.375 76.25 29.5833 76.25H35.4167C38.625 76.25 41.25 78.875 41.25 82.0833V87.9167C41.25 91.125 38.625 93.75 35.4167 93.75Z" fill="url(#paint4_linear_1_953)"/>
<path id="Vector_5" d="M140.417 128.75H58.75C55.5417 128.75 52.9167 126.125 52.9167 122.917V117.083C52.9167 113.875 55.5417 111.25 58.75 111.25H140.417C143.625 111.25 146.25 113.875 146.25 117.083V122.917C146.25 126.125 143.625 128.75 140.417 128.75Z" fill="url(#paint5_linear_1_953)"/>
<path id="Vector_6" d="M35.4167 128.75H29.5833C26.375 128.75 23.75 126.125 23.75 122.917V117.083C23.75 113.875 26.375 111.25 29.5833 111.25H35.4167C38.625 111.25 41.25 113.875 41.25 117.083V122.917C41.25 126.125 38.625 128.75 35.4167 128.75Z" fill="url(#paint6_linear_1_953)"/>
<rect x="7.5" y="7.5" width="155" height="155" rx="12.5" stroke="#D5EAF6" stroke-width="15"/>
</g>
<defs>
<linearGradient id="paint0_linear_1_953" x1="85" y1="15" x2="85" y2="155" gradientUnits="userSpaceOnUse">
<stop stop-color="#199AE0"/>
<stop offset="0.472222" stop-color="#0D5176" stop-opacity="0.527778"/>
<stop offset="0.940972" stop-color="#12A6F7" stop-opacity="0.465278"/>
<stop offset="1" stop-opacity="0"/>
</linearGradient>
<linearGradient id="paint1_linear_1_953" x1="72.4" y1="22.8167" x2="124.39" y2="74.8062" gradientUnits="userSpaceOnUse">
<stop stop-color="#1D59B3"/>
<stop offset="1" stop-color="#195BBC"/>
</linearGradient>
<linearGradient id="paint2_linear_1_953" x1="25.1412" y1="42.6412" x2="39.2142" y2="56.7142" gradientUnits="userSpaceOnUse">
<stop offset="0.003" stop-color="#42A3F2"/>
<stop offset="1" stop-color="#42A4EB"/>
</linearGradient>
<linearGradient id="paint3_linear_1_953" x1="72.4" y1="57.8167" x2="124.39" y2="109.806" gradientUnits="userSpaceOnUse">
<stop stop-color="#1D59B3"/>
<stop offset="1" stop-color="#195BBC"/>
</linearGradient>
<linearGradient id="paint4_linear_1_953" x1="25.1412" y1="77.6412" x2="39.2142" y2="91.7142" gradientUnits="userSpaceOnUse">
<stop stop-color="#42A3F2"/>
<stop offset="1" stop-color="#42A4EB"/>
</linearGradient>
<linearGradient id="paint5_linear_1_953" x1="72.4" y1="92.8167" x2="124.39" y2="144.806" gradientUnits="userSpaceOnUse">
<stop stop-color="#1D59B3"/>
<stop offset="1" stop-color="#195BBC"/>
</linearGradient>
<linearGradient id="paint6_linear_1_953" x1="25.1412" y1="112.641" x2="39.2142" y2="126.714" gradientUnits="userSpaceOnUse">
<stop stop-color="#42A3F2"/>
<stop offset="1" stop-color="#42A4EB"/>
</linearGradient>
</defs>
</svg>
