<svg width="170" height="170" viewBox="0 0 170 170" fill="none" xmlns="http://www.w3.org/2000/svg">
<g id="mail">
<rect x="7.5" y="7.5" width="155" height="155" rx="12.5" fill="white"/>
<rect x="7.5" y="7.5" width="155" height="155" rx="12.5" fill="url(#paint0_linear_1_978)" fill-opacity="0.2"/>
<path id="Vector" d="M140.417 100.902H29.5833V63.2833C29.5833 61.2825 30.61 59.4187 32.3017 58.3512L80.3275 28.0179C83.1829 26.2154 86.8171 26.2154 89.6725 28.0179L137.698 58.3512C139.39 59.4216 140.417 61.2825 140.417 63.2833V100.902Z" fill="url(#paint1_linear_1_978)"/>
<path id="Vector_2" d="M128.75 111.25H41.25V61.6667C41.25 60.0567 42.5567 58.75 44.1667 58.75H125.833C127.443 58.75 128.75 60.0567 128.75 61.6667V111.25Z" fill="url(#paint2_linear_1_978)"/>
<path id="Vector_3" d="M140.417 64.584V126.581C140.417 129.389 138.101 131.667 135.243 131.667H42.8833L56.8921 113.214L140.417 64.584Z" fill="url(#paint3_linear_1_978)"/>
<path id="Vector_4" d="M29.5833 64.584V126.581C29.5833 129.389 31.8992 131.667 34.7575 131.667H135.245C136.879 131.667 138.317 130.909 139.265 129.748L29.5833 64.584Z" fill="url(#paint4_linear_1_978)"/>
<rect x="7.5" y="7.5" width="155" height="155" rx="12.5" stroke="#D5EAF6" stroke-width="15"/>
</g>
<defs>
<linearGradient id="paint0_linear_1_978" x1="85" y1="15" x2="85" y2="155" gradientUnits="userSpaceOnUse">
<stop stop-color="#199AE0"/>
<stop offset="0.472222" stop-color="#0D5176" stop-opacity="0.527778"/>
<stop offset="0.940972" stop-color="#12A6F7" stop-opacity="0.465278"/>
<stop offset="1" stop-opacity="0"/>
</linearGradient>
<linearGradient id="paint1_linear_1_978" x1="70.1862" y1="31.6696" x2="88.3338" y2="92.9196" gradientUnits="userSpaceOnUse">
<stop stop-color="#0078D3"/>
<stop offset="1" stop-color="#0858A1"/>
</linearGradient>
<linearGradient id="paint2_linear_1_978" x1="85" y1="59.8992" x2="85" y2="98.0783" gradientUnits="userSpaceOnUse">
<stop stop-color="white"/>
<stop offset="0.24" stop-color="#F8F8F7"/>
<stop offset="1" stop-color="#E3E3E1"/>
</linearGradient>
<linearGradient id="paint3_linear_1_978" x1="90.5008" y1="96.4807" x2="125.825" y2="147.035" gradientUnits="userSpaceOnUse">
<stop stop-color="#3CCBF4"/>
<stop offset="1" stop-color="#1FA0E5"/>
</linearGradient>
<linearGradient id="paint4_linear_1_978" x1="23.9658" y1="94.439" x2="131.556" y2="146.615" gradientUnits="userSpaceOnUse">
<stop stop-color="#28AFEA"/>
<stop offset="1" stop-color="#0B88DA"/>
</linearGradient>
</defs>
</svg>
