<svg width="170" height="170" viewBox="0 0 170 170" fill="none" xmlns="http://www.w3.org/2000/svg">
<g id="math-folder">
<rect x="7.5" y="7.5" width="155" height="155" rx="12.5" fill="white"/>
<rect x="7.5" y="7.5" width="155" height="155" rx="12.5" fill="url(#paint0_linear_1_1029)" fill-opacity="0.2"/>
<path id="Vector" d="M86.2075 45.3735L78.8108 37.9768C77.1717 36.3377 74.9463 35.416 72.6246 35.416H29.5833C26.3604 35.416 23.75 38.0264 23.75 41.2493V128.749C23.75 131.972 26.3604 134.583 29.5833 134.583H140.417C143.64 134.583 146.25 131.972 146.25 128.749V52.916C146.25 49.6931 143.64 47.0827 140.417 47.0827H90.3317C88.7858 47.0827 87.3013 46.4673 86.2075 45.3735Z" fill="url(#paint1_linear_1_1029)"/>
<path id="Vector_2" d="M77.9592 57.0415L87.4908 47.5098C87.7621 47.2386 88.1325 47.084 88.5204 47.084H140.417C143.64 47.084 146.25 49.6944 146.25 52.9173V128.751C146.25 131.974 143.64 134.584 140.417 134.584H29.5833C26.3604 134.584 23.75 131.974 23.75 128.751V60.209C23.75 59.404 24.4033 58.7507 25.2083 58.7507H73.835C75.3808 58.7507 76.8654 58.1352 77.9592 57.0415Z" fill="url(#paint2_linear_1_1029)"/>
<path id="Vector_3" d="M93.75 77.7083V80.625C93.75 81.43 94.4033 82.0833 95.2083 82.0833H115.625C116.43 82.0833 117.083 81.43 117.083 80.625V77.7083C117.083 76.9033 116.43 76.25 115.625 76.25H95.2083C94.4033 76.25 93.75 76.9033 93.75 77.7083Z" fill="url(#paint3_linear_1_1029)"/>
<path id="Vector_4" d="M93.75 106.874V109.791C93.75 110.596 94.4033 111.249 95.2083 111.249H115.625C116.43 111.249 117.083 110.596 117.083 109.791V106.874C117.083 106.069 116.43 105.416 115.625 105.416H95.2083C94.4033 105.416 93.75 106.069 93.75 106.874Z" fill="url(#paint4_linear_1_1029)"/>
<path id="Vector_5" d="M93.75 118.542V121.459C93.75 122.264 94.4033 122.917 95.2083 122.917H115.625C116.43 122.917 117.083 122.264 117.083 121.459V118.542C117.083 117.737 116.43 117.084 115.625 117.084H95.2083C94.4033 117.084 93.75 117.737 93.75 118.542Z" fill="url(#paint5_linear_1_1029)"/>
<path id="Vector_6" d="M66.0417 67.5H63.125C62.32 67.5 61.6667 68.1533 61.6667 68.9583V76.25H54.375C53.57 76.25 52.9167 76.9033 52.9167 77.7083V80.625C52.9167 81.43 53.57 82.0833 54.375 82.0833H61.6667V89.375C61.6667 90.18 62.32 90.8333 63.125 90.8333H66.0417C66.8467 90.8333 67.5 90.18 67.5 89.375V82.0833H74.7917C75.5967 82.0833 76.25 81.43 76.25 80.625V77.7083C76.25 76.9033 75.5967 76.25 74.7917 76.25H67.5V68.9583C67.5 68.1533 66.8467 67.5 66.0417 67.5Z" fill="url(#paint6_linear_1_1029)"/>
<path id="Vector_7" d="M69.74 104.888L64.5833 110.042L59.4267 104.886C58.8579 104.317 57.9333 104.317 57.3646 104.886L55.3025 106.948C54.7338 107.516 54.7338 108.441 55.3025 109.01L60.4592 114.166L55.3025 119.323C54.7338 119.892 54.7338 120.816 55.3025 121.385L57.3646 123.447C57.9333 124.016 58.8579 124.016 59.4267 123.447L64.5833 118.291L69.74 123.447C70.3088 124.016 71.2333 124.016 71.8021 123.447L73.8642 121.385C74.4329 120.816 74.4329 119.892 73.8642 119.323L68.7075 114.166L73.8642 109.01C74.4329 108.441 74.4329 107.516 73.8642 106.948L71.8021 104.886C71.2304 104.317 70.3088 104.317 69.74 104.888Z" fill="url(#paint7_linear_1_1029)"/>
<rect x="7.5" y="7.5" width="155" height="155" rx="12.5" stroke="#D5EAF6" stroke-width="15"/>
</g>
<defs>
<linearGradient id="paint0_linear_1_1029" x1="85" y1="15" x2="85" y2="155" gradientUnits="userSpaceOnUse">
<stop stop-color="#199AE0"/>
<stop offset="0.472222" stop-color="#0D5176" stop-opacity="0.527778"/>
<stop offset="0.940972" stop-color="#12A6F7" stop-opacity="0.465278"/>
<stop offset="1" stop-opacity="0"/>
</linearGradient>
<linearGradient id="paint1_linear_1_1029" x1="85" y1="34.5643" x2="85" y2="58.6823" gradientUnits="userSpaceOnUse">
<stop stop-color="#EBA600"/>
<stop offset="1" stop-color="#C28200"/>
</linearGradient>
<linearGradient id="paint2_linear_1_1029" x1="85" y1="46.6582" x2="85" y2="134.534" gradientUnits="userSpaceOnUse">
<stop stop-color="#FFD869"/>
<stop offset="1" stop-color="#FEC52B"/>
</linearGradient>
<linearGradient id="paint3_linear_1_1029" x1="105.128" y1="76.2033" x2="105.627" y2="81.3367" gradientUnits="userSpaceOnUse">
<stop stop-color="#BD4FF4"/>
<stop offset="0.587" stop-color="#A235EC"/>
<stop offset="1" stop-color="#8C20E5"/>
</linearGradient>
<linearGradient id="paint4_linear_1_1029" x1="105.128" y1="105.369" x2="105.627" y2="110.5" gradientUnits="userSpaceOnUse">
<stop stop-color="#BD4FF4"/>
<stop offset="0.587" stop-color="#A235EC"/>
<stop offset="1" stop-color="#8C20E5"/>
</linearGradient>
<linearGradient id="paint5_linear_1_1029" x1="105.128" y1="117.037" x2="105.627" y2="122.168" gradientUnits="userSpaceOnUse">
<stop stop-color="#BD4FF4"/>
<stop offset="0.587" stop-color="#A235EC"/>
<stop offset="1" stop-color="#8C20E5"/>
</linearGradient>
<linearGradient id="paint6_linear_1_1029" x1="61.6112" y1="67.7887" x2="67.1617" y2="89.0308" gradientUnits="userSpaceOnUse">
<stop stop-color="#BD4FF4"/>
<stop offset="0.587" stop-color="#A235EC"/>
<stop offset="1" stop-color="#8C20E5"/>
</linearGradient>
<linearGradient id="paint7_linear_1_1029" x1="63.2796" y1="104.293" x2="65.7004" y2="122.631" gradientUnits="userSpaceOnUse">
<stop stop-color="#BD4FF4"/>
<stop offset="0.587" stop-color="#A235EC"/>
<stop offset="1" stop-color="#8C20E5"/>
</linearGradient>
</defs>
</svg>
