<svg width="170" height="170" viewBox="0 0 170 170" fill="none" xmlns="http://www.w3.org/2000/svg">
<g id="microsoft-outlook-2019">
<rect x="7.5" y="7.5" width="155" height="155" rx="12.5" fill="white"/>
<rect x="7.5" y="7.5" width="155" height="155" rx="12.5" fill="url(#paint0_linear_1_1058)" fill-opacity="0.2"/>
<path id="Vector" d="M141.16 83.6778L121.298 72.1074V105.923H143.333V87.4578C143.333 85.9003 142.505 84.4624 141.16 83.6778Z" fill="#103262"/>
<path id="Vector_2" d="M52.9167 44.166H82.0833V70.416H52.9167V44.166Z" fill="#0084D7"/>
<path id="Vector_3" d="M82.0833 44.166H111.25V70.416H82.0833V44.166Z" fill="#33AFEC"/>
<path id="Vector_4" d="M111.25 44.166H140.417V70.416H111.25V44.166Z" fill="#54DAFF"/>
<path id="Vector_5" d="M82.0833 70.416H111.25V96.666H82.0833V70.416Z" fill="#027AD4"/>
<path id="Vector_6" d="M82.0833 96.666H111.25V122.916H82.0833V96.666Z" fill="#0553A4"/>
<path id="Vector_7" d="M111.25 70.416H140.417V96.666H111.25V70.416Z" fill="#25A2E5"/>
<path id="Vector_8" d="M111.25 96.666H140.417V122.916H111.25V96.666Z" fill="#0262B8"/>
<path id="Vector_9" opacity="0.019" d="M52.9167 122.916H140.417V85.6934L99.5542 109.027L52.9167 85.6934V122.916Z" fill="black"/>
<path id="Vector_10" opacity="0.038" d="M52.9167 122.917H140.417V86.3887L99.5542 109.722L52.9167 86.3887V122.917Z" fill="black"/>
<path id="Vector_11" opacity="0.057" d="M52.9167 122.916H140.417V87.082L99.5542 110.415L52.9167 87.082V122.916Z" fill="black"/>
<path id="Vector_12" opacity="0.076" d="M52.9167 122.917H140.417V87.7773L99.5542 111.111L52.9167 87.7773V122.917Z" fill="black"/>
<path id="Vector_13" opacity="0.095" d="M52.9167 122.917H140.417V88.4707L99.5542 111.804L52.9167 88.4707V122.917Z" fill="black"/>
<path id="Vector_14" opacity="0.114" d="M52.9167 122.917H140.417V89.168L99.5542 112.501L52.9167 89.168V122.917Z" fill="black"/>
<path id="Vector_15" opacity="0.133" d="M52.9167 122.916H140.417V89.8613L99.5542 113.195L52.9167 89.8613V122.916Z" fill="black"/>
<path id="Vector_16" opacity="0.152" d="M52.9167 122.917H140.417V90.5566L99.5542 113.89L52.9167 90.5566V122.917Z" fill="black"/>
<path id="Vector_17" opacity="0.171" d="M52.9167 122.916H140.417V91.25L99.5542 114.583L52.9167 91.25V122.916Z" fill="black"/>
<path id="Vector_18" opacity="0.191" d="M52.9167 122.917H140.417V91.9453L99.5542 115.279L52.9167 91.9453V122.917Z" fill="black"/>
<path id="Vector_19" opacity="0.209" d="M52.9167 122.917H140.417V92.6387L99.5542 115.972L52.9167 92.6387V122.917Z" fill="black"/>
<path id="Vector_20" opacity="0.229" d="M52.9167 122.916H140.417V93.332L99.5542 116.665L52.9167 93.332V122.916Z" fill="black"/>
<path id="Vector_21" opacity="0.248" d="M52.9167 122.917H140.417V94.0273L99.5542 117.361L52.9167 94.0273V122.917Z" fill="black"/>
<path id="Vector_22" opacity="0.267" d="M52.9167 122.916H140.417V94.7207L99.5542 118.054L52.9167 94.7207V122.916Z" fill="black"/>
<path id="Vector_23" opacity="0.286" d="M52.9167 122.917H140.417V95.416L99.5542 118.749L52.9167 95.416V122.917Z" fill="black"/>
<path id="Vector_24" opacity="0.305" d="M52.9167 122.917H140.417V96.1133L99.5542 119.447L52.9167 96.1133V122.917Z" fill="black"/>
<path id="Vector_25" opacity="0.324" d="M52.9167 122.917H140.417V96.8066L99.5542 120.14L52.9167 96.8066V122.917Z" fill="black"/>
<path id="Vector_26" opacity="0.343" d="M52.9167 122.916H140.417V97.5L99.5542 120.833L52.9167 97.5V122.916Z" fill="black"/>
<path id="Vector_27" opacity="0.362" d="M52.9167 122.917H140.417V98.1953L99.5542 121.529L52.9167 98.1953V122.917Z" fill="black"/>
<path id="Vector_28" opacity="0.381" d="M52.9167 122.916H140.417V98.8887L99.5542 122.222L52.9167 98.8887V122.916Z" fill="black"/>
<path id="Vector_29" opacity="0.4" d="M52.9167 122.917H140.417V99.584L99.5542 122.917L52.9167 99.584V122.917Z" fill="black"/>
<path id="Vector_30" d="M60.0362 137.5H137.512C140.732 137.5 143.342 134.907 143.345 131.684C143.354 118.498 143.333 87.459 143.333 87.459C143.333 87.459 143.313 88.1065 138.226 90.994C133.14 93.8815 58.0033 136.234 58.0033 136.234C58.0033 136.234 58.6858 137.5 60.0362 137.5Z" fill="url(#paint1_linear_1_1058)"/>
<path id="Vector_31" d="M140.417 44.1667H52.9167V38.3333C52.9167 35.1104 55.5271 32.5 58.75 32.5H134.583C137.806 32.5 140.417 35.1104 140.417 38.3333V44.1667Z" fill="url(#paint2_linear_1_1058)"/>
<path id="Vector_32" d="M52.9167 87.916V131.666C52.9167 134.889 55.5271 137.499 58.75 137.499H102.5H137.512C138.859 137.499 140.087 137.027 141.073 136.26L52.9167 87.916Z" fill="url(#paint3_linear_1_1058)"/>
<path id="Vector_33" opacity="0.05" d="M77.1804 52.916H52.9167V122.916H77.1804C83.11 122.916 87.9167 118.109 87.9167 112.18V63.6523C87.9167 57.7227 83.11 52.916 77.1804 52.916Z" fill="black"/>
<path id="Vector_34" opacity="0.07" d="M76.8712 120.001H52.9167V53.8887H76.8712C81.8996 53.8887 85.9742 57.9633 85.9742 62.9916V110.898C85.9712 115.926 81.8967 120.001 76.8712 120.001Z" fill="black"/>
<path id="Vector_35" opacity="0.09" d="M76.5592 117.083H52.9167V54.8613H76.5592C80.6833 54.8613 84.0258 58.2038 84.0258 62.328V109.616C84.0287 113.74 80.6833 117.083 76.5592 117.083Z" fill="black"/>
<path id="Vector_36" d="M76.25 114.167H29.5833C26.3604 114.167 23.75 111.557 23.75 108.334V61.6673C23.75 58.4444 26.3604 55.834 29.5833 55.834H76.25C79.4729 55.834 82.0833 58.4444 82.0833 61.6673V108.334C82.0833 111.557 79.4729 114.167 76.25 114.167Z" fill="url(#paint4_linear_1_1058)"/>
<path id="Vector_37" d="M52.9167 69.5156C43.8429 69.5156 38.3771 76.4485 38.3771 85.0002C38.3771 93.5519 43.8225 100.485 52.9167 100.485C62.0137 100.485 67.4563 93.5519 67.4563 85.0031C67.4563 76.4485 61.9904 69.5156 52.9167 69.5156ZM52.9167 95.2581C47.7687 95.2581 44.6917 90.6673 44.6917 85.0031C44.6917 79.339 47.7833 74.7481 52.9167 74.7481C58.05 74.7481 61.1446 79.3419 61.1446 85.0031C61.1446 90.6644 58.0617 95.2581 52.9167 95.2581Z" fill="white"/>
<rect x="7.5" y="7.5" width="155" height="155" rx="12.5" stroke="#D5EAF6" stroke-width="15"/>
</g>
<defs>
<linearGradient id="paint0_linear_1_1058" x1="85" y1="15" x2="85" y2="155" gradientUnits="userSpaceOnUse">
<stop stop-color="#199AE0"/>
<stop offset="0.472222" stop-color="#0D5176" stop-opacity="0.527778"/>
<stop offset="0.940972" stop-color="#12A6F7" stop-opacity="0.465278"/>
<stop offset="1" stop-opacity="0"/>
</linearGradient>
<linearGradient id="paint1_linear_1_1058" x1="128.531" y1="86.6248" x2="109.168" y2="120.07" gradientUnits="userSpaceOnUse">
<stop stop-color="#31ABEC"/>
<stop offset="1" stop-color="#1582D5"/>
</linearGradient>
<linearGradient id="paint2_linear_1_1058" x1="54.8562" y1="35.3933" x2="135.415" y2="41.4658" gradientUnits="userSpaceOnUse">
<stop offset="0.042" stop-color="#076DB4"/>
<stop offset="0.85" stop-color="#0461AF"/>
</linearGradient>
<linearGradient id="paint3_linear_1_1058" x1="97.1129" y1="111.885" x2="83.9442" y2="134.874" gradientUnits="userSpaceOnUse">
<stop stop-color="#33ACEE"/>
<stop offset="1" stop-color="#1B8EDF"/>
</linearGradient>
<linearGradient id="paint4_linear_1_1058" x1="25.2958" y1="57.3798" x2="80.3625" y2="112.446" gradientUnits="userSpaceOnUse">
<stop stop-color="#1784D8"/>
<stop offset="1" stop-color="#0864C5"/>
</linearGradient>
</defs>
</svg>
