<svg width="170" height="170" viewBox="0 0 170 170" fill="none" xmlns="http://www.w3.org/2000/svg">
<g id="new-window">
<rect x="7.5" y="7.5" width="155" height="155" rx="12.5" fill="white"/>
<rect x="7.5" y="7.5" width="155" height="155" rx="12.5" fill="url(#paint0_linear_1_1182)" fill-opacity="0.2"/>
<path id="Vector" d="M143.333 44.1673V58.7507H26.6667V44.1673C26.6667 40.959 29.2917 38.334 32.5 38.334H137.5C140.708 38.334 143.333 40.959 143.333 44.1673Z" fill="url(#paint1_linear_1_1182)"/>
<path id="Vector_2" d="M26.6667 125.834V55.834H143.333V125.834C143.333 129.042 140.708 131.667 137.5 131.667H32.5C29.2917 131.667 26.6667 129.042 26.6667 125.834Z" fill="url(#paint2_linear_1_1182)"/>
<path id="Vector_3" opacity="0.05" d="M82.0833 120C78.8663 120 76.25 117.384 76.25 114.167V102.5H64.5833C61.3662 102.5 58.75 99.8838 58.75 96.6667V90.8333C58.75 87.6163 61.3662 85 64.5833 85H76.25V73.3333C76.25 70.1162 78.8663 67.5 82.0833 67.5H87.9167C91.1338 67.5 93.75 70.1162 93.75 73.3333V85H105.417C108.634 85 111.25 87.6163 111.25 90.8333V96.6667C111.25 99.8838 108.634 102.5 105.417 102.5H93.75V114.167C93.75 117.384 91.1338 120 87.9167 120H82.0833Z" fill="black"/>
<path id="Vector_4" opacity="0.07" d="M82.0833 118.542C79.6712 118.542 77.7083 116.579 77.7083 114.167V101.042H64.5833C62.1712 101.042 60.2083 99.0794 60.2083 96.6673V90.834C60.2083 88.4219 62.1712 86.459 64.5833 86.459H77.7083V73.334C77.7083 70.9219 79.6712 68.959 82.0833 68.959H87.9167C90.3287 68.959 92.2917 70.9219 92.2917 73.334V86.459H105.417C107.829 86.459 109.792 88.4219 109.792 90.834V96.6673C109.792 99.0794 107.829 101.042 105.417 101.042H92.2917V114.167C92.2917 116.579 90.3287 118.542 87.9167 118.542H82.0833Z" fill="black"/>
<path id="Vector_5" d="M105.417 87.916H90.8333V73.3327C90.8333 71.7227 89.5267 70.416 87.9167 70.416H82.0833C80.4733 70.416 79.1667 71.7227 79.1667 73.3327V87.916H64.5833C62.9733 87.916 61.6667 89.2227 61.6667 90.8327V96.666C61.6667 98.276 62.9733 99.5827 64.5833 99.5827H79.1667V114.166C79.1667 115.776 80.4733 117.083 82.0833 117.083H87.9167C89.5267 117.083 90.8333 115.776 90.8333 114.166V99.5827H105.417C107.027 99.5827 108.333 98.276 108.333 96.666V90.8327C108.333 89.2227 107.027 87.916 105.417 87.916Z" fill="white"/>
<rect x="7.5" y="7.5" width="155" height="155" rx="12.5" stroke="#D5EAF6" stroke-width="15"/>
</g>
<defs>
<linearGradient id="paint0_linear_1_1182" x1="85" y1="15" x2="85" y2="155" gradientUnits="userSpaceOnUse">
<stop stop-color="#199AE0"/>
<stop offset="0.472222" stop-color="#0D5176" stop-opacity="0.527778"/>
<stop offset="0.940972" stop-color="#12A6F7" stop-opacity="0.465278"/>
<stop offset="1" stop-opacity="0"/>
</linearGradient>
<linearGradient id="paint1_linear_1_1182" x1="28.4575" y1="37.5786" x2="140.23" y2="60.3052" gradientUnits="userSpaceOnUse">
<stop stop-color="#0077D2"/>
<stop offset="1" stop-color="#0B59A2"/>
</linearGradient>
<linearGradient id="paint2_linear_1_1182" x1="53.7187" y1="46.489" x2="107.692" y2="124.562" gradientUnits="userSpaceOnUse">
<stop stop-color="#7DD8F3"/>
<stop offset="1" stop-color="#45B0D0"/>
</linearGradient>
</defs>
</svg>
