<svg width="170" height="170" viewBox="0 0 170 170" fill="none" xmlns="http://www.w3.org/2000/svg">
<g id="omnichannel">
<rect x="7.5" y="7.5" width="155" height="155" rx="12.5" fill="white"/>
<rect x="7.5" y="7.5" width="155" height="155" rx="12.5" fill="url(#paint0_linear_1_1218)" fill-opacity="0.2"/>
<path id="Vector" d="M85 41.25C89.8325 41.25 93.75 37.3325 93.75 32.5C93.75 27.6675 89.8325 23.75 85 23.75C80.1675 23.75 76.25 27.6675 76.25 32.5C76.25 37.3325 80.1675 41.25 85 41.25Z" fill="#21A366"/>
<path id="Vector_2" d="M38.3333 67.5C43.1658 67.5 47.0833 63.5825 47.0833 58.75C47.0833 53.9175 43.1658 50 38.3333 50C33.5008 50 29.5833 53.9175 29.5833 58.75C29.5833 63.5825 33.5008 67.5 38.3333 67.5Z" fill="#21A366"/>
<path id="Vector_3" d="M38.3333 120C43.1658 120 47.0833 116.082 47.0833 111.25C47.0833 106.418 43.1658 102.5 38.3333 102.5C33.5008 102.5 29.5833 106.418 29.5833 111.25C29.5833 116.082 33.5008 120 38.3333 120Z" fill="#21A366"/>
<path id="Vector_4" d="M131.667 67.5C136.499 67.5 140.417 63.5825 140.417 58.75C140.417 53.9175 136.499 50 131.667 50C126.834 50 122.917 53.9175 122.917 58.75C122.917 63.5825 126.834 67.5 131.667 67.5Z" fill="#21A366"/>
<path id="Vector_5" d="M131.667 120C136.499 120 140.417 116.082 140.417 111.25C140.417 106.418 136.499 102.5 131.667 102.5C126.834 102.5 122.917 106.418 122.917 111.25C122.917 116.082 126.834 120 131.667 120Z" fill="#21A366"/>
<path id="Vector_6" d="M85 146.25C89.8325 146.25 93.75 142.332 93.75 137.5C93.75 132.668 89.8325 128.75 85 128.75C80.1675 128.75 76.25 132.668 76.25 137.5C76.25 142.332 80.1675 146.25 85 146.25Z" fill="#21A366"/>
<path id="Vector_7" d="M117.083 84.9994C117.083 102.718 102.719 117.083 85 117.083C67.2812 117.083 52.9167 102.718 52.9167 84.9994C52.9167 67.2806 67.2812 52.916 85 52.916C102.719 52.916 117.083 67.2806 117.083 84.9994Z" fill="url(#paint1_radial_1_1218)"/>
<path id="Vector_8" d="M85 117.083C94.2954 117.083 102.643 113.104 108.502 106.787C104.533 97.7423 95.5117 91.416 85 91.416C74.4883 91.416 65.4671 97.7423 61.4975 106.787C67.3571 113.104 75.7046 117.083 85 117.083Z" fill="url(#paint2_radial_1_1218)"/>
<path id="Vector_9" d="M85 90.8327C93.0542 90.8327 99.5833 84.3035 99.5833 76.2493C99.5833 68.1952 93.0542 61.666 85 61.666C76.9459 61.666 70.4167 68.1952 70.4167 76.2493C70.4167 84.3035 76.9459 90.8327 85 90.8327Z" fill="url(#paint3_radial_1_1218)"/>
<path id="Vector_10" d="M85 87.9173C91.4433 87.9173 96.6667 82.694 96.6667 76.2507C96.6667 69.8073 91.4433 64.584 85 64.584C78.5567 64.584 73.3333 69.8073 73.3333 76.2507C73.3333 82.694 78.5567 87.9173 85 87.9173Z" fill="url(#paint4_linear_1_1218)"/>
<path id="Vector_11" d="M85 117.083C93.0442 117.083 100.38 114.1 106.012 109.208C102.818 100.695 94.6279 94.625 85 94.625C75.3721 94.625 67.1821 100.695 63.9883 109.208C69.6204 114.1 76.9558 117.083 85 117.083Z" fill="url(#paint5_linear_1_1218)"/>
<rect x="7.5" y="7.5" width="155" height="155" rx="12.5" stroke="#D5EAF6" stroke-width="15"/>
</g>
<defs>
<linearGradient id="paint0_linear_1_1218" x1="85" y1="15" x2="85" y2="155" gradientUnits="userSpaceOnUse">
<stop stop-color="#199AE0"/>
<stop offset="0.472222" stop-color="#0D5176" stop-opacity="0.527778"/>
<stop offset="0.940972" stop-color="#12A6F7" stop-opacity="0.465278"/>
<stop offset="1" stop-opacity="0"/>
</linearGradient>
<radialGradient id="paint1_radial_1_1218" cx="0" cy="0" r="1" gradientUnits="userSpaceOnUse" gradientTransform="translate(64.4287 59.9627) scale(64.6683)">
<stop stop-color="#0370C8"/>
<stop offset="0.484" stop-color="#036FC5"/>
<stop offset="0.775" stop-color="#036ABD"/>
<stop offset="1" stop-color="#0362B0"/>
</radialGradient>
<radialGradient id="paint2_radial_1_1218" cx="0" cy="0" r="1" gradientUnits="userSpaceOnUse" gradientTransform="translate(85 117.255) scale(25.8912 25.8912)">
<stop/>
<stop offset="1" stop-opacity="0"/>
</radialGradient>
<radialGradient id="paint3_radial_1_1218" cx="0" cy="0" r="1" gradientUnits="userSpaceOnUse" gradientTransform="translate(84.9975 76.2444) scale(14.5828)">
<stop/>
<stop offset="1" stop-opacity="0"/>
</radialGradient>
<linearGradient id="paint4_linear_1_1218" x1="77.0842" y1="68.3348" x2="93.3621" y2="84.6127" gradientUnits="userSpaceOnUse">
<stop stop-color="#75DAFF"/>
<stop offset="1" stop-color="#1EA2E4"/>
</linearGradient>
<linearGradient id="paint5_linear_1_1218" x1="73.7825" y1="96.5646" x2="96.0483" y2="118.833" gradientUnits="userSpaceOnUse">
<stop stop-color="#75DAFF"/>
<stop offset="1" stop-color="#1EA2E4"/>
</linearGradient>
</defs>
</svg>
