<svg width="170" height="170" viewBox="0 0 170 170" fill="none" xmlns="http://www.w3.org/2000/svg">
<g id="online-maintenance-portal">
<rect x="7.5" y="7.5" width="155" height="155" rx="12.5" fill="white"/>
<rect x="7.5" y="7.5" width="155" height="155" rx="12.5" fill="url(#paint0_linear_1_1242)" fill-opacity="0.2"/>
<path id="Vector" d="M26.6667 125.833V58.75H143.333V125.833C143.333 129.042 140.708 131.667 137.5 131.667H32.5C29.2917 131.667 26.6667 129.042 26.6667 125.833Z" fill="#50E6FF"/>
<path id="Vector_2" d="M143.333 44.1673V58.7507H26.6667V44.1673C26.6667 40.959 29.2917 38.334 32.5 38.334H137.5C140.708 38.334 143.333 40.959 143.333 44.1673Z" fill="url(#paint1_linear_1_1242)"/>
<path id="Vector_3" d="M36.875 52.916C39.2912 52.916 41.25 50.9573 41.25 48.541C41.25 46.1248 39.2912 44.166 36.875 44.166C34.4588 44.166 32.5 46.1248 32.5 48.541C32.5 50.9573 34.4588 52.916 36.875 52.916Z" fill="url(#paint2_linear_1_1242)"/>
<path id="Vector_4" d="M51.4583 52.916C53.8746 52.916 55.8333 50.9573 55.8333 48.541C55.8333 46.1248 53.8746 44.166 51.4583 44.166C49.0421 44.166 47.0833 46.1248 47.0833 48.541C47.0833 50.9573 49.0421 52.916 51.4583 52.916Z" fill="url(#paint3_linear_1_1242)"/>
<path id="Vector_5" d="M66.0417 52.916C68.4579 52.916 70.4167 50.9573 70.4167 48.541C70.4167 46.1248 68.4579 44.166 66.0417 44.166C63.6254 44.166 61.6667 46.1248 61.6667 48.541C61.6667 50.9573 63.6254 52.916 66.0417 52.916Z" fill="url(#paint4_linear_1_1242)"/>
<path id="Vector_6" d="M91.5625 100.429L81.2375 90.1035L65.9192 105.422C60.3367 105.489 55.8333 110.027 55.8333 115.624C55.8333 121.262 60.4037 125.833 66.0417 125.833C71.6387 125.833 76.18 121.326 76.2442 115.744L91.5625 100.429Z" fill="url(#paint5_linear_1_1242)"/>
<path id="Vector_7" d="M105.271 86.6305C102.445 89.4567 97.8625 89.4567 95.0362 86.6305C92.21 83.8042 92.21 79.2221 95.0362 76.3959C95.7275 75.7046 98.5071 72.925 101.336 70.0959C102.016 69.4163 101.715 68.2292 100.782 68.0017C98.4867 67.4359 96.0162 67.3192 93.4496 67.8034C85.9158 69.2238 80.0417 75.5267 79.26 83.1538C78.1196 94.2721 87.4004 103.55 98.5187 102.407C106.143 101.622 112.446 95.748 113.863 88.2171C114.347 85.6475 114.228 83.18 113.662 80.8875C113.432 79.9542 112.247 79.6538 111.568 80.3334C108.742 83.1596 105.959 85.9392 105.271 86.6305Z" fill="url(#paint6_linear_1_1242)"/>
<path id="Vector_8" d="M66.0417 120C68.4579 120 70.4167 118.041 70.4167 115.625C70.4167 113.209 68.4579 111.25 66.0417 111.25C63.6254 111.25 61.6667 113.209 61.6667 115.625C61.6667 118.041 63.6254 120 66.0417 120Z" fill="url(#paint7_linear_1_1242)"/>
<rect x="7.5" y="7.5" width="155" height="155" rx="12.5" stroke="#D5EAF6" stroke-width="15"/>
</g>
<defs>
<linearGradient id="paint0_linear_1_1242" x1="85" y1="15" x2="85" y2="155" gradientUnits="userSpaceOnUse">
<stop stop-color="#199AE0"/>
<stop offset="0.472222" stop-color="#0D5176" stop-opacity="0.527778"/>
<stop offset="0.940972" stop-color="#12A6F7" stop-opacity="0.465278"/>
<stop offset="1" stop-opacity="0"/>
</linearGradient>
<linearGradient id="paint1_linear_1_1242" x1="28.4575" y1="37.5786" x2="140.23" y2="60.3052" gradientUnits="userSpaceOnUse">
<stop stop-color="#0077D2"/>
<stop offset="1" stop-color="#0B59A2"/>
</linearGradient>
<linearGradient id="paint2_linear_1_1242" x1="34.6904" y1="45.3793" x2="38.4267" y2="50.7839" gradientUnits="userSpaceOnUse">
<stop stop-color="#75DAFF"/>
<stop offset="1" stop-color="#49BEF1"/>
</linearGradient>
<linearGradient id="paint3_linear_1_1242" x1="49.2737" y1="45.3793" x2="53.01" y2="50.7839" gradientUnits="userSpaceOnUse">
<stop stop-color="#75DAFF"/>
<stop offset="1" stop-color="#49BEF1"/>
</linearGradient>
<linearGradient id="paint4_linear_1_1242" x1="63.8571" y1="45.3793" x2="67.5933" y2="50.7839" gradientUnits="userSpaceOnUse">
<stop stop-color="#75DAFF"/>
<stop offset="1" stop-color="#49BEF1"/>
</linearGradient>
<linearGradient id="paint5_linear_1_1242" x1="59.3829" y1="122.283" x2="84.5362" y2="97.1298" gradientUnits="userSpaceOnUse">
<stop offset="0.503" stop-color="#A1AAB3"/>
<stop offset="0.658" stop-color="#9EA7AF"/>
<stop offset="0.796" stop-color="#949DA5"/>
<stop offset="0.928" stop-color="#848C92"/>
<stop offset="1" stop-color="#787F85"/>
</linearGradient>
<linearGradient id="paint6_linear_1_1242" x1="83.3083" y1="73.3363" x2="107.674" y2="97.7021" gradientUnits="userSpaceOnUse">
<stop stop-color="#A1AAB3"/>
<stop offset="1" stop-color="#8F979E"/>
</linearGradient>
<linearGradient id="paint7_linear_1_1242" x1="69.0925" y1="118.676" x2="62.9587" y2="112.542" gradientUnits="userSpaceOnUse">
<stop stop-color="white"/>
<stop offset="0.242" stop-color="#fcfcfc"/>
<stop offset="1" stop-color="#CCCCCC"/>
</linearGradient>
</defs>
</svg>
