<svg width="170" height="170" viewBox="0 0 170 170" fill="none" xmlns="http://www.w3.org/2000/svg">
<g id="pencil-drawing">
<rect x="7.5" y="7.5" width="155" height="155" rx="12.5" fill="white"/>
<rect x="7.5" y="7.5" width="155" height="155" rx="12.5" fill="url(#paint0_linear_1_1290)" fill-opacity="0.2"/>
<path id="Vector" d="M50.4667 76.25L45.4325 81.2842C43.9421 82.7746 42.8833 84.6412 42.3671 86.6858L35.9621 112.128L42.7083 127.292L57.8254 134.012L83.2792 127.604C85.3237 127.087 87.1904 126.029 88.6838 124.538L93.75 119.446L50.4667 76.25Z" fill="url(#paint1_linear_1_1290)"/>
<path id="Vector_2" d="M35.9679 112.131L29.7933 136.619C29.2537 138.76 31.1933 140.7 33.3342 140.16L57.8137 133.988L35.9679 112.131Z" fill="url(#paint2_linear_1_1290)"/>
<path id="Vector_3" d="M102.967 23.75L46.5292 80.1875C51.9658 82.3079 55.8333 87.5637 55.8333 93.75C55.8333 93.75 55.8333 94.4033 55.8333 95.2083C55.8333 96.0133 56.4867 96.6667 57.2917 96.6667C58.0967 96.6667 58.75 96.6667 58.75 96.6667C66.8029 96.6667 73.3333 103.197 73.3333 111.25C73.3333 111.25 73.3333 111.903 73.3333 112.708C73.3333 113.513 73.9867 114.167 74.7917 114.167C75.5967 114.167 76.25 114.167 76.25 114.167C82.4217 114.167 87.6658 118.014 89.7979 123.427L146.25 66.9458L102.967 23.75Z" fill="#EDBE00"/>
<path id="Vector_4" d="M56.2592 96.2408L115.87 36.63L102.967 23.75L46.5292 80.1875C51.9658 82.3079 55.8333 87.5638 55.8333 93.75C55.8333 93.75 55.8333 94.4033 55.8333 95.2083C55.8333 95.6108 55.9967 95.9754 56.2592 96.2408Z" fill="url(#paint3_linear_1_1290)"/>
<path id="Vector_5" d="M73.7592 113.741C74.0246 114.003 74.3892 114.166 74.7917 114.166C75.5967 114.166 76.25 114.166 76.25 114.166C82.4217 114.166 87.6658 118.014 89.7979 123.427L146.25 66.9456L133.39 54.1094L73.7592 113.741Z" fill="url(#paint4_linear_1_1290)"/>
<rect x="7.5" y="7.5" width="155" height="155" rx="12.5" stroke="#D5EAF6" stroke-width="15"/>
</g>
<defs>
<linearGradient id="paint0_linear_1_1290" x1="85" y1="15" x2="85" y2="155" gradientUnits="userSpaceOnUse">
<stop stop-color="#199AE0"/>
<stop offset="0.472222" stop-color="#0D5176" stop-opacity="0.527778"/>
<stop offset="0.940972" stop-color="#12A6F7" stop-opacity="0.465278"/>
<stop offset="1" stop-opacity="0"/>
</linearGradient>
<linearGradient id="paint1_linear_1_1290" x1="21.7521" y1="76.8917" x2="96.6404" y2="151.777" gradientUnits="userSpaceOnUse">
<stop stop-color="#F9F9F9"/>
<stop offset="1" stop-color="#C2C8CC"/>
</linearGradient>
<linearGradient id="paint2_linear_1_1290" x1="27.8012" y1="120.3" x2="49.6529" y2="142.152" gradientUnits="userSpaceOnUse">
<stop stop-color="#787878"/>
<stop offset="1" stop-color="#666666"/>
</linearGradient>
<linearGradient id="paint3_linear_1_1290" x1="88.5583" y1="68.9263" x2="71.7058" y2="52.0738" gradientUnits="userSpaceOnUse">
<stop stop-color="#FEDE00"/>
<stop offset="1" stop-color="#FFD000"/>
</linearGradient>
<linearGradient id="paint4_linear_1_1290" x1="116.445" y1="96.7802" x2="58.3533" y2="38.6919" gradientUnits="userSpaceOnUse">
<stop stop-color="#EBA601"/>
<stop offset="1" stop-color="#C18310"/>
</linearGradient>
</defs>
</svg>
