<svg width="170" height="170" viewBox="0 0 170 170" fill="none" xmlns="http://www.w3.org/2000/svg">
<g id="people">
<rect x="7.5" y="7.5" width="155" height="155" rx="12.5" fill="white"/>
<rect x="7.5" y="7.5" width="155" height="155" rx="12.5" fill="url(#paint0_linear_1_1296)" fill-opacity="0.2"/>
<path id="Vector" d="M50 73.3327C58.0542 73.3327 64.5833 66.8035 64.5833 58.7493C64.5833 50.6952 58.0542 44.166 50 44.166C41.9458 44.166 35.4167 50.6952 35.4167 58.7493C35.4167 66.8035 41.9458 73.3327 50 73.3327Z" fill="url(#paint1_linear_1_1296)"/>
<path id="Vector_2" d="M50 79.166C35.5012 79.166 23.75 90.9173 23.75 105.416V131.666C23.75 134.889 26.3604 137.499 29.5833 137.499H70.4167C73.6396 137.499 76.25 134.889 76.25 131.666V105.416C76.25 90.9173 64.4988 79.166 50 79.166Z" fill="url(#paint2_linear_1_1296)"/>
<path id="Vector_3" d="M120 73.3327C128.054 73.3327 134.583 66.8035 134.583 58.7493C134.583 50.6952 128.054 44.166 120 44.166C111.946 44.166 105.417 50.6952 105.417 58.7493C105.417 66.8035 111.946 73.3327 120 73.3327Z" fill="url(#paint3_linear_1_1296)"/>
<path id="Vector_4" d="M120 79.166C105.501 79.166 93.75 90.9173 93.75 105.416V131.666C93.75 134.889 96.3604 137.499 99.5833 137.499H140.417C143.64 137.499 146.25 134.889 146.25 131.666V105.416C146.25 90.9173 134.499 79.166 120 79.166Z" fill="url(#paint4_linear_1_1296)"/>
<path id="Vector_5" d="M85 61.6667C93.0542 61.6667 99.5833 55.1375 99.5833 47.0833C99.5833 39.0292 93.0542 32.5 85 32.5C76.9459 32.5 70.4167 39.0292 70.4167 47.0833C70.4167 55.1375 76.9459 61.6667 85 61.6667Z" fill="url(#paint5_linear_1_1296)"/>
<path id="Vector_6" opacity="0.05" d="M117.083 131.667V93.7507C117.083 88.7895 115.92 84.1053 113.898 79.9082C102.348 82.6645 93.75 93.0245 93.75 105.417V131.667C93.75 134.89 96.3604 137.501 99.5833 137.501H115.462C116.465 135.777 117.083 133.802 117.083 131.667Z" fill="black"/>
<path id="Vector_7" opacity="0.067" d="M115.138 131.667V93.7508C115.138 89.0228 114.015 84.5633 112.067 80.5762C101.476 83.8399 93.75 93.7128 93.75 105.417V131.667C93.75 134.89 96.3604 137.501 99.5833 137.501H112.113C113.858 136.352 115.138 134.164 115.138 131.667Z" fill="black"/>
<path id="Vector_8" opacity="0.09" d="M113.195 131.667V93.7508C113.195 89.2533 112.113 85.0183 110.238 81.2441C100.604 85.0154 93.75 94.4012 93.75 105.417V131.667C93.75 134.89 96.3604 137.501 99.5833 137.501H108.765C111.247 136.926 113.195 134.526 113.195 131.667Z" fill="black"/>
<path id="Vector_9" opacity="0.05" d="M52.9167 131.667V93.7507C52.9167 88.7895 54.0804 84.1053 56.1017 79.9082C67.6517 82.6645 76.25 93.0245 76.25 105.417V131.667C76.25 134.89 73.6396 137.501 70.4167 137.501H54.5383C53.535 135.777 52.9167 133.802 52.9167 131.667Z" fill="black"/>
<path id="Vector_10" opacity="0.067" d="M54.8621 131.667V93.7508C54.8621 89.0228 55.985 84.5633 57.9333 80.5762C68.5237 83.8399 76.25 93.7128 76.25 105.417V131.667C76.25 134.89 73.6396 137.501 70.4167 137.501H57.8867C56.1425 136.352 54.8621 134.164 54.8621 131.667Z" fill="black"/>
<path id="Vector_11" opacity="0.09" d="M56.8046 131.667V93.7508C56.8046 89.2533 57.8867 85.0183 59.7621 81.2441C69.3958 85.0154 76.25 94.4012 76.25 105.417V131.667C76.25 134.89 73.6396 137.501 70.4167 137.501H61.235C58.7529 136.926 56.8046 134.526 56.8046 131.667Z" fill="black"/>
<path id="Vector_12" d="M85 67.5C70.5012 67.5 58.75 79.2512 58.75 93.75V131.667C58.75 134.89 61.3604 137.5 64.5833 137.5H105.417C108.64 137.5 111.25 134.89 111.25 131.667V93.75C111.25 79.2512 99.4988 67.5 85 67.5Z" fill="url(#paint6_linear_1_1296)"/>
<rect x="7.5" y="7.5" width="155" height="155" rx="12.5" stroke="#D5EAF6" stroke-width="15"/>
</g>
<defs>
<linearGradient id="paint0_linear_1_1296" x1="85" y1="15" x2="85" y2="155" gradientUnits="userSpaceOnUse">
<stop stop-color="#199AE0"/>
<stop offset="0.472222" stop-color="#0D5176" stop-opacity="0.527778"/>
<stop offset="0.940972" stop-color="#12A6F7" stop-opacity="0.465278"/>
<stop offset="1" stop-opacity="0"/>
</linearGradient>
<linearGradient id="paint1_linear_1_1296" x1="40.1067" y1="48.856" x2="60.4533" y2="69.2027" gradientUnits="userSpaceOnUse">
<stop stop-color="#199AE0"/>
<stop offset="1" stop-color="#0782D8"/>
</linearGradient>
<linearGradient id="paint2_linear_1_1296" x1="27.9238" y1="92.2385" x2="73.3275" y2="137.639" gradientUnits="userSpaceOnUse">
<stop stop-color="#199AE0"/>
<stop offset="1" stop-color="#0782D8"/>
</linearGradient>
<linearGradient id="paint3_linear_1_1296" x1="110.107" y1="48.856" x2="130.453" y2="69.2027" gradientUnits="userSpaceOnUse">
<stop stop-color="#0D61A9"/>
<stop offset="1" stop-color="#16528C"/>
</linearGradient>
<linearGradient id="paint4_linear_1_1296" x1="97.9238" y1="92.2385" x2="143.328" y2="137.639" gradientUnits="userSpaceOnUse">
<stop stop-color="#0D61A9"/>
<stop offset="1" stop-color="#16528C"/>
</linearGradient>
<linearGradient id="paint5_linear_1_1296" x1="75.1067" y1="37.19" x2="95.4533" y2="57.5367" gradientUnits="userSpaceOnUse">
<stop stop-color="#32BDEF"/>
<stop offset="1" stop-color="#1EA2E4"/>
</linearGradient>
<linearGradient id="paint6_linear_1_1296" x1="76.7779" y1="70.5829" x2="91.4225" y2="143.8" gradientUnits="userSpaceOnUse">
<stop stop-color="#32BDEF"/>
<stop offset="1" stop-color="#1EA2E4"/>
</linearGradient>
</defs>
</svg>
