<svg width="170" height="170" viewBox="0 0 170 170" fill="none" xmlns="http://www.w3.org/2000/svg">
<g id="photo-editor">
<rect x="7.5" y="7.5" width="155" height="155" rx="12.5" fill="white"/>
<rect x="7.5" y="7.5" width="155" height="155" rx="12.5" fill="url(#paint0_linear_1_1317)" fill-opacity="0.2"/>
<path id="Vector" d="M131.667 32.5H38.3333C35.1104 32.5 32.5 35.1104 32.5 38.3333V125.833C32.5 129.056 35.1104 131.667 38.3333 131.667H131.667C134.89 131.667 137.5 129.056 137.5 125.833V38.3333C137.5 35.1104 134.89 32.5 131.667 32.5Z" fill="#50E6FF"/>
<path id="Vector_2" d="M108.523 82.2733C105.172 78.9221 99.7583 78.8491 96.3167 82.1071L67.5 109.407V137.5H131.667C134.89 137.5 137.5 134.89 137.5 131.667V111.25L108.523 82.2733Z" fill="url(#paint1_linear_1_1317)"/>
<path id="Vector_3" d="M103.958 67.5007C109.596 67.5007 114.167 62.9302 114.167 57.2923C114.167 51.6544 109.596 47.084 103.958 47.084C98.3204 47.084 93.75 51.6544 93.75 57.2923C93.75 62.9302 98.3204 67.5007 103.958 67.5007Z" fill="#FFF8DE"/>
<path id="Vector_4" d="M38.3333 137.499H131.667C134.032 137.499 136.062 136.085 136.975 134.057L73.5229 70.6053C70.1717 67.2541 64.7583 67.1812 61.3167 70.4391L32.5 97.7391V131.666C32.5 134.889 35.1104 137.499 38.3333 137.499Z" fill="url(#paint2_linear_1_1317)"/>
<g id="Group">
<path id="Vector_5" opacity="0.05" d="M137.5 137.5H93.75V111.25C93.75 106.417 97.6671 102.5 102.5 102.5H137.5V137.5Z" fill="black"/>
<path id="Vector_6" opacity="0.05" d="M137.5 137.501H95.2083V111.251C95.2083 107.223 98.4721 103.959 102.5 103.959H137.5V137.501Z" fill="black"/>
<path id="Vector_7" d="M149.167 154.999H102.5C99.2771 154.999 96.6667 152.389 96.6667 149.166V111.249C96.6667 108.026 99.2771 105.416 102.5 105.416H149.167C152.39 105.416 155 108.026 155 111.249V149.166C155 152.389 152.39 154.999 149.167 154.999Z" fill="url(#paint3_linear_1_1317)"/>
<path id="Vector_8" d="M105.417 121.459V118.542C105.417 117.737 106.07 117.084 106.875 117.084H144.792C145.597 117.084 146.25 117.737 146.25 118.542V121.459C146.25 122.264 145.597 122.917 144.792 122.917H106.875C106.07 122.917 105.417 122.264 105.417 121.459ZM106.875 143.334H144.792C145.597 143.334 146.25 142.681 146.25 141.876V138.959C146.25 138.154 145.597 137.501 144.792 137.501H106.875C106.07 137.501 105.417 138.154 105.417 138.959V141.876C105.417 142.681 106.07 143.334 106.875 143.334Z" fill="url(#paint4_linear_1_1317)"/>
<path id="Vector_9" d="M117.083 125.833C120.305 125.833 122.917 123.221 122.917 119.999C122.917 116.778 120.305 114.166 117.083 114.166C113.862 114.166 111.25 116.778 111.25 119.999C111.25 123.221 113.862 125.833 117.083 125.833Z" fill="url(#paint5_linear_1_1317)"/>
<path id="Vector_10" d="M134.583 146.251C137.805 146.251 140.417 143.639 140.417 140.417C140.417 137.196 137.805 134.584 134.583 134.584C131.362 134.584 128.75 137.196 128.75 140.417C128.75 143.639 131.362 146.251 134.583 146.251Z" fill="url(#paint6_linear_1_1317)"/>
</g>
<rect x="7.5" y="7.5" width="155" height="155" rx="12.5" stroke="#D5EAF6" stroke-width="15"/>
</g>
<defs>
<linearGradient id="paint0_linear_1_1317" x1="85" y1="15" x2="85" y2="155" gradientUnits="userSpaceOnUse">
<stop stop-color="#199AE0"/>
<stop offset="0.472222" stop-color="#0D5176" stop-opacity="0.527778"/>
<stop offset="0.940972" stop-color="#12A6F7" stop-opacity="0.465278"/>
<stop offset="1" stop-opacity="0"/>
</linearGradient>
<linearGradient id="paint1_linear_1_1317" x1="67.5" y1="108.605" x2="137.5" y2="108.605" gradientUnits="userSpaceOnUse">
<stop stop-color="#3CCBF4"/>
<stop offset="1" stop-color="#1FA0E5"/>
</linearGradient>
<linearGradient id="paint2_linear_1_1317" x1="84.7375" y1="68.0416" x2="84.7375" y2="137.499" gradientUnits="userSpaceOnUse">
<stop stop-color="#28AFEA"/>
<stop offset="1" stop-color="#0B88DA"/>
</linearGradient>
<linearGradient id="paint3_linear_1_1317" x1="114.03" y1="63.2731" x2="132.457" y2="167.774" gradientUnits="userSpaceOnUse">
<stop stop-color="#F9F9F9"/>
<stop offset="0.966" stop-color="#C4C9CD"/>
<stop offset="1" stop-color="#C2C8CC"/>
</linearGradient>
<linearGradient id="paint4_linear_1_1317" x1="119.86" y1="96.3261" x2="129.304" y2="149.896" gradientUnits="userSpaceOnUse">
<stop stop-color="#28AFEA"/>
<stop offset="1" stop-color="#0B88DA"/>
</linearGradient>
<linearGradient id="paint5_linear_1_1317" x1="111.25" y1="119.999" x2="122.917" y2="119.999" gradientUnits="userSpaceOnUse">
<stop stop-color="#1D59B3"/>
<stop offset="1" stop-color="#195BBC"/>
</linearGradient>
<linearGradient id="paint6_linear_1_1317" x1="128.75" y1="140.417" x2="140.417" y2="140.417" gradientUnits="userSpaceOnUse">
<stop stop-color="#1D59B3"/>
<stop offset="1" stop-color="#195BBC"/>
</linearGradient>
</defs>
</svg>
