<svg width="170" height="170" viewBox="0 0 170 170" fill="none" xmlns="http://www.w3.org/2000/svg">
<g id="play">
<rect x="7.5" y="7.5" width="155" height="155" rx="12.5" fill="white"/>
<rect x="7.5" y="7.5" width="155" height="155" rx="12.5" fill="url(#paint0_linear_1_1335)" fill-opacity="0.2"/>
<path id="Vector" d="M54.2262 30.8633L44.1667 35.8799V84.9995H128.75L131.635 80.0179L54.2262 30.8633Z" fill="#0883D9"/>
<path id="Vector_2" d="M134.583 84.9993H122.917C122.917 81.7764 125.527 79.166 128.75 79.166C131.973 79.166 134.583 81.7764 134.583 84.9993Z" fill="#0883D9"/>
<path id="Vector_3" d="M50.4637 42.1782C53.9415 42.1782 56.7608 39.3589 56.7608 35.8811C56.7608 32.4033 53.9415 29.584 50.4637 29.584C46.986 29.584 44.1667 32.4033 44.1667 35.8811C44.1667 39.3589 46.986 42.1782 50.4637 42.1782Z" fill="#0883D9"/>
<path id="Vector_4" d="M54.2262 139.136L44.1667 134.12V85H128.75L131.635 89.9817L54.2262 139.136Z" fill="#0370C8"/>
<path id="Vector_5" d="M134.583 85H122.917C122.917 88.2229 125.527 90.8333 128.75 90.8333C131.973 90.8333 134.583 88.2229 134.583 85Z" fill="#0370C8"/>
<path id="Vector_6" d="M50.4637 140.416C53.9415 140.416 56.7608 137.597 56.7608 134.119C56.7608 130.642 53.9415 127.822 50.4637 127.822C46.986 127.822 44.1667 130.642 44.1667 134.119C44.1667 137.597 46.986 140.416 50.4637 140.416Z" fill="#0370C8"/>
<rect x="7.5" y="7.5" width="155" height="155" rx="12.5" stroke="#D5EAF6" stroke-width="15"/>
</g>
<defs>
<linearGradient id="paint0_linear_1_1335" x1="85" y1="15" x2="85" y2="155" gradientUnits="userSpaceOnUse">
<stop stop-color="#199AE0"/>
<stop offset="0.472222" stop-color="#0D5176" stop-opacity="0.527778"/>
<stop offset="0.940972" stop-color="#12A6F7" stop-opacity="0.465278"/>
<stop offset="1" stop-opacity="0"/>
</linearGradient>
</defs>
</svg>
