<svg width="170" height="170" viewBox="0 0 170 170" fill="none" xmlns="http://www.w3.org/2000/svg">
<g id="pregnant">
<rect x="7.5" y="7.5" width="155" height="155" rx="12.5" fill="white"/>
<rect x="7.5" y="7.5" width="155" height="155" rx="12.5" fill="url(#paint0_linear_1_1353)" fill-opacity="0.2"/>
<path id="Vector" d="M75.1767 25.9688C75.1767 25.9688 70.4196 33.1817 70.4196 41.7392C70.4196 42.9846 71.0817 44.0988 72.0821 44.545C77.7842 47.0825 85 47.0825 85 47.0825V26.695L75.1767 25.9688Z" fill="#B55017"/>
<path id="Vector_2" d="M95.0712 26.3516C95.0712 26.3516 99.5804 33.0424 99.5804 41.737C99.5804 42.9824 98.9183 44.0966 97.9179 44.5428C92.2158 47.0832 85 47.0832 85 47.0832V26.6957L95.0712 26.3516Z" fill="#B55017"/>
<path id="Vector_3" d="M85 47.0833C78.5833 47.0833 73.3333 41.8333 73.3333 35.4167C73.3333 29 78.5833 23.75 85 23.75C91.4167 23.75 96.6667 29 96.6667 35.4167C96.6667 41.8333 91.4167 47.0833 85 47.0833Z" fill="url(#paint1_linear_1_1353)"/>
<path id="Vector_4" d="M73.3333 35.4173C76.2821 34.8923 79.54 33.4982 82.0833 28.1257C84.8454 33.0315 91.965 35.0673 96.6667 35.4173C96.6667 31.7715 96.9933 20.834 85 20.834C73.1175 20.834 73.3333 31.7715 73.3333 35.4173Z" fill="#B55017"/>
<path id="Vector_5" d="M99.5833 105.416H87.9167V143.333C87.9167 146.556 90.5271 149.166 93.75 149.166C96.9729 149.166 99.5833 146.556 99.5833 143.333V105.416Z" fill="url(#paint2_linear_1_1353)"/>
<path id="Vector_6" d="M82.0833 105.416H70.4167V143.333C70.4167 146.556 73.0271 149.166 76.25 149.166C79.4729 149.166 82.0833 146.556 82.0833 143.333V105.416Z" fill="url(#paint3_linear_1_1353)"/>
<path id="Vector_7" d="M111.25 73.3327L102.5 70.416C102.5 70.416 102.5 97.3106 102.5 98.1244C102.5 100.539 104.46 102.499 106.875 102.499C109.29 102.499 111.25 100.539 111.25 98.1244C111.25 97.3106 111.25 109.146 111.25 73.3327Z" fill="url(#paint4_linear_1_1353)"/>
<path id="Vector_8" d="M67.5 70.416L58.75 73.3327C58.75 73.3327 58.75 97.3106 58.75 98.1244C58.75 100.539 60.71 102.499 63.125 102.499C65.54 102.499 67.5 100.539 67.5 98.1244C67.5 97.3106 67.5 106.23 67.5 70.416Z" fill="url(#paint5_linear_1_1353)"/>
<path id="Vector_9" d="M111.25 72.3585C111.25 61.6194 101.573 52.916 90.8333 52.916H87.9167H82.0833H79.1667C68.4275 52.916 58.75 61.6223 58.75 72.3614V73.3327H67.5C64.5833 82.0827 62.1829 102.499 62.1829 116.639C62.1625 118.139 63.2796 119.999 65.0675 119.999H104.935C106.723 119.999 107.838 118.325 107.817 116.639C107.817 102.499 105.417 82.0827 102.5 73.3327H111.25V72.3585Z" fill="url(#paint6_linear_1_1353)"/>
<path id="Vector_10" d="M85 80.2278C85 80.2278 87.6133 77.2207 90.8333 77.2207C94.0533 77.2207 96.6667 79.9507 96.6667 83.232C96.6667 85.2678 94.7213 87.2395 94.7213 87.2395L85.9829 96.2461C85.4404 96.8061 84.5596 96.8061 84.0142 96.2461L75.2758 87.2395C75.2758 87.2395 73.3304 85.2678 73.3304 83.232C73.3304 79.9507 75.9408 77.2207 79.1638 77.2207C82.3867 77.2207 85 80.2278 85 80.2278Z" fill="#FFADC8"/>
<rect x="7.5" y="7.5" width="155" height="155" rx="12.5" stroke="#D5EAF6" stroke-width="15"/>
</g>
<defs>
<linearGradient id="paint0_linear_1_1353" x1="85" y1="15" x2="85" y2="155" gradientUnits="userSpaceOnUse">
<stop stop-color="#199AE0"/>
<stop offset="0.472222" stop-color="#0D5176" stop-opacity="0.527778"/>
<stop offset="0.940972" stop-color="#12A6F7" stop-opacity="0.465278"/>
<stop offset="1" stop-opacity="0"/>
</linearGradient>
<linearGradient id="paint1_linear_1_1353" x1="81.0654" y1="24.5783" x2="88.9317" y2="46.2521" gradientUnits="userSpaceOnUse">
<stop stop-color="#FFCF54"/>
<stop offset="0.261" stop-color="#FDCB4D"/>
<stop offset="0.639" stop-color="#F7C13A"/>
<stop offset="1" stop-color="#F0B421"/>
</linearGradient>
<linearGradient id="paint2_linear_1_1353" x1="91.9067" y1="120.297" x2="102.967" y2="148.128" gradientUnits="userSpaceOnUse">
<stop stop-color="#FFCF54"/>
<stop offset="0.261" stop-color="#FDCB4D"/>
<stop offset="0.639" stop-color="#F7C13A"/>
<stop offset="1" stop-color="#F0B421"/>
</linearGradient>
<linearGradient id="paint3_linear_1_1353" x1="74.4067" y1="120.297" x2="85.4667" y2="148.128" gradientUnits="userSpaceOnUse">
<stop stop-color="#FFCF54"/>
<stop offset="0.261" stop-color="#FDCB4D"/>
<stop offset="0.639" stop-color="#F7C13A"/>
<stop offset="1" stop-color="#F0B421"/>
</linearGradient>
<linearGradient id="paint4_linear_1_1353" x1="102.249" y1="75.9227" x2="113.957" y2="101.934" gradientUnits="userSpaceOnUse">
<stop stop-color="#FFCF54"/>
<stop offset="0.261" stop-color="#FDCB4D"/>
<stop offset="0.639" stop-color="#F7C13A"/>
<stop offset="1" stop-color="#F0B421"/>
</linearGradient>
<linearGradient id="paint5_linear_1_1353" x1="59.9663" y1="77.7223" x2="70.6821" y2="101.534" gradientUnits="userSpaceOnUse">
<stop stop-color="#FFCF54"/>
<stop offset="0.261" stop-color="#FDCB4D"/>
<stop offset="0.639" stop-color="#F7C13A"/>
<stop offset="1" stop-color="#F0B421"/>
</linearGradient>
<linearGradient id="paint6_linear_1_1353" x1="82.3196" y1="48.4681" x2="88.7742" y2="115.554" gradientUnits="userSpaceOnUse">
<stop stop-color="#0D61A9"/>
<stop offset="1" stop-color="#16528C"/>
</linearGradient>
</defs>
</svg>
