<svg width="170" height="170" viewBox="0 0 170 170" fill="none" xmlns="http://www.w3.org/2000/svg">
<g id="purchase-order">
<rect x="7.5" y="7.5" width="155" height="155" rx="12.5" fill="white"/>
<rect x="7.5" y="7.5" width="155" height="155" rx="12.5" fill="url(#paint0_linear_1_1491)" fill-opacity="0.2"/>
<path id="Vector" d="M120 137.5H44.1667C40.9437 137.5 38.3333 134.89 38.3333 131.667V38.3333C38.3333 35.1104 40.9437 32.5 44.1667 32.5H120C123.223 32.5 125.833 35.1104 125.833 38.3333V131.667C125.833 134.89 123.223 137.5 120 137.5Z" fill="url(#paint1_linear_1_1491)"/>
<path id="Vector_2" d="M114.167 131.666V122.916H26.6667V131.666C26.6667 134.889 29.2771 137.499 32.5 137.499H120C116.777 137.499 114.167 134.889 114.167 131.666Z" fill="url(#paint2_linear_1_1491)"/>
<path id="Vector_3" d="M109.792 70.416H71.875C71.07 70.416 70.4167 69.7627 70.4167 68.9577V63.1243C70.4167 62.3193 71.07 61.666 71.875 61.666H109.792C110.597 61.666 111.25 62.3193 111.25 63.1243V68.9577C111.25 69.7627 110.597 70.416 109.792 70.416Z" fill="#057093"/>
<path id="Vector_4" d="M109.792 87.916H71.875C71.07 87.916 70.4167 87.2627 70.4167 86.4577V80.6243C70.4167 79.8193 71.07 79.166 71.875 79.166H109.792C110.597 79.166 111.25 79.8193 111.25 80.6243V86.4577C111.25 87.2627 110.597 87.916 109.792 87.916Z" fill="#057093"/>
<path id="Vector_5" d="M109.792 105.416H71.875C71.07 105.416 70.4167 104.763 70.4167 103.958V98.1243C70.4167 97.3193 71.07 96.666 71.875 96.666H109.792C110.597 96.666 111.25 97.3193 111.25 98.1243V103.958C111.25 104.763 110.597 105.416 109.792 105.416Z" fill="#057093"/>
<path id="Vector_6" d="M60.2083 70.416H54.375C53.57 70.416 52.9167 69.7627 52.9167 68.9577V63.1243C52.9167 62.3193 53.57 61.666 54.375 61.666H60.2083C61.0133 61.666 61.6667 62.3193 61.6667 63.1243V68.9577C61.6667 69.7627 61.0133 70.416 60.2083 70.416Z" fill="#057093"/>
<path id="Vector_7" d="M60.2083 87.916H54.375C53.57 87.916 52.9167 87.2627 52.9167 86.4577V80.6243C52.9167 79.8193 53.57 79.166 54.375 79.166H60.2083C61.0133 79.166 61.6667 79.8193 61.6667 80.6243V86.4577C61.6667 87.2627 61.0133 87.916 60.2083 87.916Z" fill="#057093"/>
<path id="Vector_8" d="M60.2083 105.416H54.375C53.57 105.416 52.9167 104.763 52.9167 103.958V98.1243C52.9167 97.3193 53.57 96.666 54.375 96.666H60.2083C61.0133 96.666 61.6667 97.3193 61.6667 98.1243V103.958C61.6667 104.763 61.0133 105.416 60.2083 105.416Z" fill="#057093"/>
<rect x="7.5" y="7.5" width="155" height="155" rx="12.5" stroke="#D5EAF6" stroke-width="15"/>
</g>
<defs>
<linearGradient id="paint0_linear_1_1491" x1="85" y1="15" x2="85" y2="155" gradientUnits="userSpaceOnUse">
<stop stop-color="#199AE0"/>
<stop offset="0.472222" stop-color="#0D5176" stop-opacity="0.527778"/>
<stop offset="0.940972" stop-color="#12A6F7" stop-opacity="0.465278"/>
<stop offset="1" stop-opacity="0"/>
</linearGradient>
<linearGradient id="paint1_linear_1_1491" x1="52.7767" y1="36.6708" x2="115.292" y2="139.766" gradientUnits="userSpaceOnUse">
<stop stop-color="#7DD8F3"/>
<stop offset="1" stop-color="#45B0D0"/>
</linearGradient>
<linearGradient id="paint2_linear_1_1491" x1="73.3333" y1="123.744" x2="73.3333" y2="137.529" gradientUnits="userSpaceOnUse">
<stop stop-color="#0176D0"/>
<stop offset="1" stop-color="#16538C"/>
</linearGradient>
</defs>
</svg>
