<svg width="170" height="170" viewBox="0 0 170 170" fill="none" xmlns="http://www.w3.org/2000/svg">
<g id="push-notifications">
<rect x="7.5" y="7.5" width="155" height="155" rx="12.5" fill="white"/>
<rect x="7.5" y="7.5" width="155" height="155" rx="12.5" fill="url(#paint0_linear_1_1500)" fill-opacity="0.2"/>
<path id="Vector" d="M99.5833 131.666H29.5833V140.416C29.5833 143.639 32.1937 146.249 35.4167 146.249H93.75C96.9729 146.249 99.5833 143.639 99.5833 140.416V131.666Z" fill="#184F85"/>
<path id="Vector_2" d="M99.5833 111.25H29.5833V131.667H99.5833V111.25Z" fill="#0078D4"/>
<path id="Vector_3" d="M99.5833 82.084H29.5833V111.251H99.5833V82.084Z" fill="#1B9DE2"/>
<path id="Vector_4" d="M99.5833 41.25H29.5833V82.0833H99.5833V41.25Z" fill="#35C1F1"/>
<path id="Vector_5" d="M99.5833 41.2493H29.5833V32.4993C29.5833 29.2764 32.1937 26.666 35.4167 26.666H93.75C96.9729 26.666 99.5833 29.2764 99.5833 32.4993V41.2493Z" fill="#50E6FF"/>
<path id="Vector_6" d="M52.9167 36.1465C54.1248 36.1465 55.1042 35.1671 55.1042 33.959C55.1042 32.7509 54.1248 31.7715 52.9167 31.7715C51.7085 31.7715 50.7292 32.7509 50.7292 33.959C50.7292 35.1671 51.7085 36.1465 52.9167 36.1465Z" fill="#0C63AD"/>
<path id="Vector_7" d="M74.7917 31.7715C74.2258 31.7715 60.7742 31.7715 60.2083 31.7715C59.0008 31.7715 58.0208 32.7515 58.0208 33.959C58.0208 35.1665 59.0008 36.1465 60.2083 36.1465C60.7742 36.1465 74.2258 36.1465 74.7917 36.1465C75.9992 36.1465 76.9792 35.1665 76.9792 33.959C76.9792 32.7515 75.9992 31.7715 74.7917 31.7715Z" fill="#0C63AD"/>
<path id="Vector_8" opacity="0.07" d="M99.5833 48.541H71.1925C68.3517 48.541 66.0417 50.851 66.0417 53.6918V101.726C66.0417 104.567 68.3517 106.877 71.1925 106.877H83.5417V120.198C83.5417 122.021 85.0292 123.505 86.8579 123.505C87.73 123.505 88.5554 123.161 89.1796 122.534L99.5833 112.127V48.541Z" fill="black"/>
<path id="Vector_9" opacity="0.05" d="M99.5833 47.084H71.1925C67.5496 47.084 64.5833 50.0473 64.5833 53.6932V101.728C64.5833 105.371 67.5496 108.334 71.1925 108.334H82.0833V120.196C82.0833 122.824 84.2242 124.962 86.8579 124.962C88.1179 124.962 89.3108 124.466 90.2121 123.565L99.5833 114.191V47.084Z" fill="black"/>
<path id="Vector_10" d="M136.727 50H71.1896C69.1537 50 67.5 51.6538 67.5 53.6896V101.724C67.5 103.763 69.1537 105.417 71.1896 105.417H85V120.195C85 121.84 86.9863 122.663 88.15 121.499L104.233 105.417H136.724C138.763 105.417 140.417 103.763 140.417 101.727V53.6896C140.417 51.6538 138.763 50 136.727 50Z" fill="url(#paint1_linear_1_1500)"/>
<path id="Vector_11" d="M103.958 70.3263C102.751 70.3263 101.771 69.3463 101.771 68.1388V60.2988C101.771 59.0913 102.751 58.1113 103.958 58.1113C105.166 58.1113 106.146 59.0913 106.146 60.2988V68.1388C106.146 69.3463 105.166 70.3263 103.958 70.3263Z" fill="#FFD600"/>
<path id="Vector_12" d="M120 77.0701C120 66.9697 109.873 59.1414 98.8396 62.4285C92.2217 64.4001 87.9167 70.8051 87.9167 77.7089V87.9172H120C120 87.9172 120 77.4697 120 77.0701Z" fill="#F5BE00"/>
<path id="Vector_13" d="M108.395 92.2305C108.395 94.6805 106.408 96.6667 103.958 96.6667C101.508 96.6667 99.5221 94.6805 99.5221 92.2305H108.395Z" fill="url(#paint2_linear_1_1500)"/>
<path id="Vector_14" d="M123.019 90.2756L120 87.916H87.9167L84.8979 90.2756C84.4371 90.6314 84.1162 91.1681 84.1162 91.8068C84.1162 92.8802 84.9679 93.7523 86.0179 93.7523H121.902C122.952 93.7523 123.803 92.8802 123.803 91.8068C123.8 91.1681 123.482 90.6314 123.019 90.2756Z" fill="url(#paint3_linear_1_1500)"/>
<rect x="7.5" y="7.5" width="155" height="155" rx="12.5" stroke="#D5EAF6" stroke-width="15"/>
</g>
<defs>
<linearGradient id="paint0_linear_1_1500" x1="85" y1="15" x2="85" y2="155" gradientUnits="userSpaceOnUse">
<stop stop-color="#199AE0"/>
<stop offset="0.472222" stop-color="#0D5176" stop-opacity="0.527778"/>
<stop offset="0.940972" stop-color="#12A6F7" stop-opacity="0.465278"/>
<stop offset="1" stop-opacity="0"/>
</linearGradient>
<linearGradient id="paint1_linear_1_1500" x1="73.5988" y1="49.1979" x2="134.414" y2="107.283" gradientUnits="userSpaceOnUse">
<stop stop-color="#F44F5A"/>
<stop offset="0.443" stop-color="#EE3D4A"/>
<stop offset="1" stop-color="#E52030"/>
</linearGradient>
<linearGradient id="paint2_linear_1_1500" x1="103.958" y1="96.5763" x2="103.958" y2="92.073" gradientUnits="userSpaceOnUse">
<stop offset="0.486" stop-color="#FBC300"/>
<stop offset="1" stop-color="#DBAA00"/>
</linearGradient>
<linearGradient id="paint3_linear_1_1500" x1="103.958" y1="87.9073" x2="103.958" y2="93.7552" gradientUnits="userSpaceOnUse">
<stop stop-color="#FEDE00"/>
<stop offset="1" stop-color="#FFD000"/>
</linearGradient>
</defs>
</svg>
