<svg width="170" height="170" viewBox="0 0 170 170" fill="none" xmlns="http://www.w3.org/2000/svg">
<g id="receipt-dollar">
<rect x="7.5" y="7.5" width="155" height="155" rx="12.5" fill="white"/>
<rect x="7.5" y="7.5" width="155" height="155" rx="12.5" fill="url(#paint0_linear_1_1528)" fill-opacity="0.2"/>
<path id="Vector" d="M122.917 29.584C122.917 31.194 121.61 32.5007 120 32.5007C118.39 32.5007 117.083 31.194 117.083 29.584H111.25C111.25 31.194 109.943 32.5007 108.333 32.5007C106.723 32.5007 105.417 31.194 105.417 29.584H99.5833C99.5833 31.194 98.2767 32.5007 96.6667 32.5007C95.0567 32.5007 93.75 31.194 93.75 29.584H87.9167C87.9167 31.194 86.61 32.5007 85 32.5007C83.39 32.5007 82.0833 31.194 82.0833 29.584H76.25C76.25 31.194 74.9433 32.5007 73.3333 32.5007C71.7233 32.5007 70.4167 31.194 70.4167 29.584H64.5833C64.5833 31.194 63.2767 32.5007 61.6667 32.5007C60.0567 32.5007 58.75 31.194 58.75 29.584H52.9167C52.9167 31.194 51.61 32.5007 50 32.5007C48.39 32.5007 47.0833 31.194 47.0833 29.584H44.1667C42.5567 29.584 41.25 30.8907 41.25 32.5007V134.584C41.25 137.807 43.8604 140.417 47.0833 140.417H122.917C126.14 140.417 128.75 137.807 128.75 134.584V32.5007C128.75 30.8907 127.443 29.584 125.833 29.584H122.917Z" fill="#50E6FF"/>
<path id="Vector_2" d="M115.625 52.916H54.375C53.57 52.916 52.9167 52.2627 52.9167 51.4577V45.6243C52.9167 44.8193 53.57 44.166 54.375 44.166H115.625C116.43 44.166 117.083 44.8193 117.083 45.6243V51.4577C117.083 52.2627 116.43 52.916 115.625 52.916Z" fill="#057093"/>
<path id="Vector_3" d="M115.625 73.3333H109.792C108.987 73.3333 108.333 72.68 108.333 71.875V68.9583C108.333 68.1533 108.987 67.5 109.792 67.5H115.625C116.43 67.5 117.083 68.1533 117.083 68.9583V71.875C117.083 72.68 116.43 73.3333 115.625 73.3333Z" fill="#057093"/>
<path id="Vector_4" d="M92.2917 73.3333H54.375C53.57 73.3333 52.9167 72.68 52.9167 71.875V68.9583C52.9167 68.1533 53.57 67.5 54.375 67.5H92.2917C93.0967 67.5 93.75 68.1533 93.75 68.9583V71.875C93.75 72.68 93.0967 73.3333 92.2917 73.3333Z" fill="#057093"/>
<path id="Vector_5" d="M115.625 84.9993H109.792C108.987 84.9993 108.333 84.346 108.333 83.541V80.6243C108.333 79.8193 108.987 79.166 109.792 79.166H115.625C116.43 79.166 117.083 79.8193 117.083 80.6243V83.541C117.083 84.346 116.43 84.9993 115.625 84.9993Z" fill="#057093"/>
<path id="Vector_6" d="M83.5417 84.9993H54.375C53.57 84.9993 52.9167 84.346 52.9167 83.541V80.6243C52.9167 79.8193 53.57 79.166 54.375 79.166H83.5417C84.3467 79.166 85 79.8193 85 80.6243V83.541C85 84.346 84.3467 84.9993 83.5417 84.9993Z" fill="#057093"/>
<path id="Vector_7" d="M115.625 96.6673H109.792C108.987 96.6673 108.333 96.014 108.333 95.209V92.2923C108.333 91.4873 108.987 90.834 109.792 90.834H115.625C116.43 90.834 117.083 91.4873 117.083 92.2923V95.209C117.083 96.014 116.43 96.6673 115.625 96.6673Z" fill="#057093"/>
<path id="Vector_8" d="M92.2917 96.6673H54.375C53.57 96.6673 52.9167 96.014 52.9167 95.209V92.2923C52.9167 91.4873 53.57 90.834 54.375 90.834H92.2917C93.0967 90.834 93.75 91.4873 93.75 92.2923V95.209C93.75 96.014 93.0967 96.6673 92.2917 96.6673Z" fill="#057093"/>
<path id="Vector_9" d="M115.625 108.333H109.792C108.987 108.333 108.333 107.68 108.333 106.875V103.958C108.333 103.153 108.987 102.5 109.792 102.5H115.625C116.43 102.5 117.083 103.153 117.083 103.958V106.875C117.083 107.68 116.43 108.333 115.625 108.333Z" fill="#057093"/>
<path id="Vector_10" d="M83.5417 108.333H54.375C53.57 108.333 52.9167 107.68 52.9167 106.875V103.958C52.9167 103.153 53.57 102.5 54.375 102.5H83.5417C84.3467 102.5 85 103.153 85 103.958V106.875C85 107.68 84.3467 108.333 83.5417 108.333Z" fill="#057093"/>
<path id="Vector_11" d="M115.625 125.833H103.958C103.153 125.833 102.5 125.18 102.5 124.375V121.458C102.5 120.653 103.153 120 103.958 120H115.625C116.43 120 117.083 120.653 117.083 121.458V124.375C117.083 125.18 116.43 125.833 115.625 125.833Z" fill="#057093"/>
<path id="Vector_12" d="M92.2917 125.833H66.0417C65.2367 125.833 64.5833 125.18 64.5833 124.375V121.458C64.5833 120.653 65.2367 120 66.0417 120H92.2917C93.0967 120 93.75 120.653 93.75 121.458V124.375C93.75 125.18 93.0967 125.833 92.2917 125.833Z" fill="#057093"/>
<path id="Vector_13" d="M125.833 90.834C106.534 90.834 90.8333 106.534 90.8333 125.834C90.8333 131.043 92.0088 135.972 94.0563 140.417H122.917C126.14 140.417 128.75 137.807 128.75 134.584V90.9827C127.785 90.9011 126.819 90.834 125.833 90.834Z" fill="url(#paint1_radial_1_1528)"/>
<path id="Vector_14" d="M125.833 154.999C141.942 154.999 155 141.941 155 125.833C155 109.724 141.942 96.666 125.833 96.666C109.725 96.666 96.6667 109.724 96.6667 125.833C96.6667 141.941 109.725 154.999 125.833 154.999Z" fill="url(#paint2_linear_1_1528)"/>
<path id="Vector_15" opacity="0.05" d="M125.104 149.172C123.095 149.172 121.458 147.536 121.458 145.527V144.372C119.347 143.995 117.232 143.389 115.5 142.654C113.799 141.925 112.705 140.274 112.705 138.445V134.971C112.705 132.842 114.435 131.107 116.561 131.107C117.162 131.107 117.766 131.252 118.305 131.527C119.183 131.976 122.301 133.431 125.833 133.431C127.356 133.431 127.712 133.102 127.715 133.096C127.429 132.515 124.897 131.576 123.681 131.127C119.11 129.435 112.198 126.878 112.198 118.542C112.198 112.808 115.634 108.613 121.455 107.123V106.146C121.455 104.136 123.092 102.5 125.101 102.5H126.56C128.569 102.5 130.205 104.136 130.205 106.146V106.793C131.935 106.992 133.393 107.33 134.639 107.814C135.313 108.08 137.5 109.188 137.5 112.405V115.459C137.5 117.585 135.767 119.315 133.638 119.315C133.064 119.315 132.504 119.189 131.979 118.941C130.865 118.419 128.581 117.541 125.833 117.541C125.142 117.541 123.973 117.646 123.973 118.031C123.973 118.731 126.819 119.837 128.348 120.429C132.781 122.152 139.469 124.751 139.469 132.679C139.469 137.095 137.016 142.619 130.211 144.293V145.524C130.211 147.533 128.575 149.17 126.565 149.17L125.104 149.172Z" fill="black"/>
<path id="Vector_16" opacity="0.05" d="M125.104 147.715C123.9 147.715 122.917 146.735 122.917 145.527V143.124C120.542 142.806 118.06 142.156 116.068 141.31C114.91 140.814 114.164 139.688 114.164 138.446V134.972C114.164 133.645 115.24 132.566 116.561 132.566C116.935 132.566 117.311 132.656 117.643 132.825C118.591 133.312 121.969 134.89 125.833 134.89C129.152 134.89 129.152 133.514 129.152 132.994C129.152 131.694 127.277 130.906 124.188 129.76C119.746 128.115 113.659 125.86 113.659 118.539C113.659 112.204 118.224 109.154 122.917 108.293V106.146C122.917 104.939 123.9 103.959 125.104 103.959H126.562C127.767 103.959 128.75 104.939 128.75 106.146V108.124C130.937 108.279 132.699 108.626 134.111 109.174C134.694 109.404 136.045 110.171 136.045 112.406V115.459C136.045 116.781 134.965 117.857 133.641 117.857C133.28 117.857 132.932 117.778 132.603 117.621C131.378 117.046 128.87 116.084 125.836 116.084C123.634 116.084 122.517 116.74 122.517 118.032C122.517 119.616 124.524 120.508 127.822 121.791C132.122 123.463 138.01 125.749 138.01 132.682C138.01 136.894 135.555 141.978 128.753 143.109V145.53C128.753 146.738 127.77 147.718 126.565 147.718H125.104V147.715Z" fill="black"/>
<path id="Vector_17" d="M136.549 132.678C136.549 122.181 121.053 124.231 121.053 118.031C121.053 114.793 124.693 114.621 125.83 114.621C128.566 114.621 131.206 115.356 133.218 116.298C133.854 116.599 134.583 116.158 134.583 115.458V112.404C134.583 111.381 134.198 110.774 133.583 110.532C132.203 109.995 130.223 109.601 127.292 109.505V106.145C127.292 105.743 126.965 105.416 126.562 105.416H125.104C124.702 105.416 124.375 105.743 124.375 106.145V109.561C119.828 110.004 115.117 112.571 115.117 118.538C115.117 129.42 130.614 127.259 130.614 132.99C130.614 134.793 129.462 136.344 125.836 136.344C122.19 136.344 118.839 135.073 116.987 134.122C116.363 133.804 115.628 134.265 115.628 134.965V138.441C115.628 139.106 116.03 139.701 116.646 139.964C118.842 140.897 121.788 141.603 124.381 141.81V145.523C124.381 145.926 124.707 146.252 125.11 146.252H126.568C126.971 146.252 127.297 145.926 127.297 145.523V141.816C134.093 141.25 136.549 136.697 136.549 132.678Z" fill="white"/>
<rect x="7.5" y="7.5" width="155" height="155" rx="12.5" stroke="#D5EAF6" stroke-width="15"/>
</g>
<defs>
<linearGradient id="paint0_linear_1_1528" x1="85" y1="15" x2="85" y2="155" gradientUnits="userSpaceOnUse">
<stop stop-color="#199AE0"/>
<stop offset="0.472222" stop-color="#0D5176" stop-opacity="0.527778"/>
<stop offset="0.940972" stop-color="#12A6F7" stop-opacity="0.465278"/>
<stop offset="1" stop-opacity="0"/>
</linearGradient>
<radialGradient id="paint1_radial_1_1528" cx="0" cy="0" r="1" gradientUnits="userSpaceOnUse" gradientTransform="translate(124.932 125.554) scale(34.9329 34.9329)">
<stop/>
<stop offset="0.979" stop-opacity="0"/>
</radialGradient>
<linearGradient id="paint2_linear_1_1528" x1="96.6667" y1="125.833" x2="155" y2="125.833" gradientUnits="userSpaceOnUse">
<stop stop-color="#21AD64"/>
<stop offset="1" stop-color="#088242"/>
</linearGradient>
</defs>
</svg>
