<svg width="170" height="170" viewBox="0 0 170 170" fill="none" xmlns="http://www.w3.org/2000/svg">
<g id="report-file">
<rect x="7.5" y="7.5" width="155" height="155" rx="12.5" fill="white"/>
<rect x="7.5" y="7.5" width="155" height="155" rx="12.5" fill="url(#paint0_linear_1_1581)" fill-opacity="0.2"/>
<path id="Vector" d="M122.917 61.6673V134.584C122.917 137.807 120.306 140.417 117.083 140.417H41.25C38.0271 140.417 35.4167 137.807 35.4167 134.584V35.4173C35.4167 32.1944 38.0271 29.584 41.25 29.584H90.8333L122.917 61.6673Z" fill="#50E6FF"/>
<path id="Vector_2" d="M90.8333 29.584V55.834C90.8333 59.0569 93.4438 61.6673 96.6667 61.6673H122.917L90.8333 29.584Z" fill="url(#paint1_linear_1_1581)"/>
<path id="Vector_3" d="M103.958 76.2493H54.375C53.57 76.2493 52.9167 75.596 52.9167 74.791V71.8743C52.9167 71.0693 53.57 70.416 54.375 70.416H103.958C104.763 70.416 105.417 71.0693 105.417 71.8743V74.791C105.417 75.596 104.763 76.2493 103.958 76.2493Z" fill="#057093"/>
<path id="Vector_4" d="M98.125 87.9173H54.375C53.57 87.9173 52.9167 87.264 52.9167 86.459V83.5423C52.9167 82.7373 53.57 82.084 54.375 82.084H98.125C98.93 82.084 99.5833 82.7373 99.5833 83.5423V86.459C99.5833 87.264 98.93 87.9173 98.125 87.9173Z" fill="#057093"/>
<path id="Vector_5" d="M103.958 99.5833H54.375C53.57 99.5833 52.9167 98.93 52.9167 98.125V95.2083C52.9167 94.4033 53.57 93.75 54.375 93.75H103.958C104.763 93.75 105.417 94.4033 105.417 95.2083V98.125C105.417 98.93 104.763 99.5833 103.958 99.5833Z" fill="#057093"/>
<path id="Vector_6" d="M98.125 111.249H54.375C53.57 111.249 52.9167 110.596 52.9167 109.791V106.874C52.9167 106.069 53.57 105.416 54.375 105.416H98.125C98.93 105.416 99.5833 106.069 99.5833 106.874V109.791C99.5833 110.596 98.93 111.249 98.125 111.249Z" fill="#057093"/>
<path id="Vector_7" d="M105.417 149.167H96.6667C95.0567 149.167 93.75 147.861 93.75 146.251V128.751C93.75 127.141 95.0567 125.834 96.6667 125.834H105.417C107.027 125.834 108.333 127.141 108.333 128.751V146.251C108.333 147.861 107.027 149.167 105.417 149.167Z" fill="url(#paint2_linear_1_1581)"/>
<path id="Vector_8" d="M125.833 149.167H117.083C115.473 149.167 114.167 147.861 114.167 146.251V111.251C114.167 109.641 115.473 108.334 117.083 108.334H125.833C127.443 108.334 128.75 109.641 128.75 111.251V146.251C128.75 147.861 127.443 149.167 125.833 149.167Z" fill="url(#paint3_linear_1_1581)"/>
<path id="Vector_9" d="M146.25 149.167H137.5C135.89 149.167 134.583 147.861 134.583 146.251V120.001C134.583 118.391 135.89 117.084 137.5 117.084H146.25C147.86 117.084 149.167 118.391 149.167 120.001V146.251C149.167 147.861 147.86 149.167 146.25 149.167Z" fill="url(#paint4_linear_1_1581)"/>
<rect x="7.5" y="7.5" width="155" height="155" rx="12.5" stroke="#D5EAF6" stroke-width="15"/>
</g>
<defs>
<linearGradient id="paint0_linear_1_1581" x1="85" y1="15" x2="85" y2="155" gradientUnits="userSpaceOnUse">
<stop stop-color="#199AE0"/>
<stop offset="0.472222" stop-color="#0D5176" stop-opacity="0.527778"/>
<stop offset="0.940972" stop-color="#12A6F7" stop-opacity="0.465278"/>
<stop offset="1" stop-opacity="0"/>
</linearGradient>
<linearGradient id="paint1_linear_1_1581" x1="92.3763" y1="60.1244" x2="107.167" y2="45.334" gradientUnits="userSpaceOnUse">
<stop stop-color="#3079D6"/>
<stop offset="1" stop-color="#297CD2"/>
</linearGradient>
<linearGradient id="paint2_linear_1_1581" x1="93.75" y1="137.501" x2="108.333" y2="137.501" gradientUnits="userSpaceOnUse">
<stop stop-color="#3079D6"/>
<stop offset="1" stop-color="#297CD2"/>
</linearGradient>
<linearGradient id="paint3_linear_1_1581" x1="114.167" y1="128.751" x2="128.75" y2="128.751" gradientUnits="userSpaceOnUse">
<stop stop-color="#3079D6"/>
<stop offset="1" stop-color="#297CD2"/>
</linearGradient>
<linearGradient id="paint4_linear_1_1581" x1="134.583" y1="133.126" x2="149.167" y2="133.126" gradientUnits="userSpaceOnUse">
<stop stop-color="#3079D6"/>
<stop offset="1" stop-color="#297CD2"/>
</linearGradient>
</defs>
</svg>
