<svg width="170" height="170" viewBox="0 0 170 170" fill="none" xmlns="http://www.w3.org/2000/svg">
<g id="restaurant-menu">
<rect x="7.5" y="7.5" width="155" height="155" rx="12.5" fill="white"/>
<rect x="7.5" y="7.5" width="155" height="155" rx="12.5" fill="url(#paint0_linear_1_1591)" fill-opacity="0.2"/>
<path id="Vector" d="M85 137.5C89.8325 137.5 93.75 133.582 93.75 128.75C93.75 123.918 89.8325 120 85 120C80.1675 120 76.25 123.918 76.25 128.75C76.25 133.582 80.1675 137.5 85 137.5Z" fill="url(#paint1_linear_1_1591)"/>
<path id="Vector_2" d="M140.417 38.334H85V131.667H140.417C141.183 131.668 141.941 131.517 142.649 131.224C143.357 130.931 144 130.501 144.542 129.959C145.084 129.418 145.513 128.774 145.806 128.067C146.099 127.359 146.25 126.6 146.25 125.834V44.1673C146.25 43.4012 146.099 42.6426 145.806 41.9347C145.513 41.2269 145.084 40.5838 144.542 40.0421C144 39.5003 143.357 39.0707 142.649 38.7776C141.941 38.4845 141.183 38.3338 140.417 38.334Z" fill="url(#paint2_linear_1_1591)"/>
<path id="Vector_3" d="M85 38.334H29.5833C28.8172 38.3338 28.0586 38.4845 27.3508 38.7776C26.6429 39.0707 25.9998 39.5003 25.4581 40.0421C24.9164 40.5838 24.4867 41.2269 24.1936 41.9347C23.9005 42.6426 23.7498 43.4012 23.75 44.1673V125.834C23.7498 126.6 23.9005 127.359 24.1936 128.067C24.4867 128.774 24.9164 129.418 25.4581 129.959C25.9998 130.501 26.6429 130.931 27.3508 131.224C28.0586 131.517 28.8172 131.668 29.5833 131.667H85V38.334Z" fill="url(#paint3_linear_1_1591)"/>
<path id="Vector_4" d="M136.042 64.5833H106.875C106.488 64.5832 106.117 64.4295 105.844 64.156C105.57 63.8826 105.417 63.5117 105.417 63.125V60.2083C105.417 59.8216 105.57 59.4508 105.844 59.1773C106.117 58.9038 106.488 58.7501 106.875 58.75H136.042C136.428 58.7501 136.799 58.9038 137.073 59.1773C137.346 59.4508 137.5 59.8216 137.5 60.2083V63.125C137.5 63.5117 137.346 63.8826 137.073 64.156C136.799 64.4295 136.428 64.5832 136.042 64.5833Z" fill="url(#paint4_linear_1_1591)"/>
<path id="Vector_5" d="M130.208 76.2493H106.875C106.488 76.2492 106.117 76.0955 105.844 75.8221C105.57 75.5486 105.417 75.1777 105.417 74.791V71.8743C105.417 71.4876 105.57 71.1168 105.844 70.8433C106.117 70.5698 106.488 70.4162 106.875 70.416H130.208C130.595 70.4162 130.966 70.5698 131.239 70.8433C131.513 71.1168 131.667 71.4876 131.667 71.8743V74.791C131.667 75.1777 131.513 75.5486 131.239 75.8221C130.966 76.0955 130.595 76.2492 130.208 76.2493V76.2493Z" fill="url(#paint5_linear_1_1591)"/>
<path id="Vector_6" d="M136.042 87.9173H106.875C106.488 87.9172 106.117 87.7635 105.844 87.49C105.57 87.2166 105.417 86.8457 105.417 86.459V83.5423C105.417 83.1556 105.57 82.7847 105.844 82.5113C106.117 82.2378 106.488 82.0841 106.875 82.084H136.042C136.428 82.0841 136.799 82.2378 137.073 82.5113C137.346 82.7847 137.5 83.1556 137.5 83.5423V86.459C137.5 86.8457 137.346 87.2166 137.073 87.49C136.799 87.7635 136.428 87.9172 136.042 87.9173V87.9173Z" fill="url(#paint6_linear_1_1591)"/>
<path id="Vector_7" d="M136.042 99.5833H106.875C106.488 99.5832 106.117 99.4295 105.844 99.156C105.57 98.8826 105.417 98.5117 105.417 98.125V95.2083C105.417 94.8216 105.57 94.4508 105.844 94.1773C106.117 93.9038 106.488 93.7501 106.875 93.75H136.042C136.428 93.7501 136.799 93.9038 137.073 94.1773C137.346 94.4508 137.5 94.8216 137.5 95.2083V98.125C137.5 98.5117 137.346 98.8826 137.073 99.156C136.799 99.4295 136.428 99.5832 136.042 99.5833V99.5833Z" fill="url(#paint7_linear_1_1591)"/>
<path id="Vector_8" d="M130.208 111.249H106.875C106.488 111.249 106.117 111.096 105.844 110.822C105.57 110.549 105.417 110.178 105.417 109.791V106.874C105.417 106.488 105.57 106.117 105.844 105.843C106.117 105.57 106.488 105.416 106.875 105.416H130.208C130.595 105.416 130.966 105.57 131.239 105.843C131.513 106.117 131.667 106.488 131.667 106.874V109.791C131.667 110.178 131.513 110.549 131.239 110.822C130.966 111.096 130.595 111.249 130.208 111.249V111.249Z" fill="url(#paint8_linear_1_1591)"/>
<path id="Vector_9" d="M98.125 58.75H95.2083C94.4029 58.75 93.75 59.4029 93.75 60.2083V63.125C93.75 63.9304 94.4029 64.5833 95.2083 64.5833H98.125C98.9304 64.5833 99.5833 63.9304 99.5833 63.125V60.2083C99.5833 59.4029 98.9304 58.75 98.125 58.75Z" fill="url(#paint9_linear_1_1591)"/>
<path id="Vector_10" d="M98.125 70.416H95.2083C94.4029 70.416 93.75 71.0689 93.75 71.8743V74.791C93.75 75.5964 94.4029 76.2493 95.2083 76.2493H98.125C98.9304 76.2493 99.5833 75.5964 99.5833 74.791V71.8743C99.5833 71.0689 98.9304 70.416 98.125 70.416Z" fill="url(#paint10_linear_1_1591)"/>
<path id="Vector_11" d="M98.125 82.084H95.2083C94.4029 82.084 93.75 82.7369 93.75 83.5423V86.459C93.75 87.2644 94.4029 87.9173 95.2083 87.9173H98.125C98.9304 87.9173 99.5833 87.2644 99.5833 86.459V83.5423C99.5833 82.7369 98.9304 82.084 98.125 82.084Z" fill="url(#paint11_linear_1_1591)"/>
<path id="Vector_12" d="M98.125 93.75H95.2083C94.4029 93.75 93.75 94.4029 93.75 95.2083V98.125C93.75 98.9304 94.4029 99.5833 95.2083 99.5833H98.125C98.9304 99.5833 99.5833 98.9304 99.5833 98.125V95.2083C99.5833 94.4029 98.9304 93.75 98.125 93.75Z" fill="url(#paint12_linear_1_1591)"/>
<path id="Vector_13" d="M98.125 105.416H95.2083C94.4029 105.416 93.75 106.069 93.75 106.874V109.791C93.75 110.596 94.4029 111.249 95.2083 111.249H98.125C98.9304 111.249 99.5833 110.596 99.5833 109.791V106.874C99.5833 106.069 98.9304 105.416 98.125 105.416Z" fill="url(#paint13_linear_1_1591)"/>
<g id="Group">
<path id="Vector_14" d="M68.1858 102.5C67.9379 102.5 67.6924 102.451 67.4634 102.356C67.2344 102.261 67.0265 102.121 66.8516 101.946L47.9783 83.0724C47.8031 82.8972 47.6641 82.6892 47.5693 82.4603C47.4745 82.2314 47.4257 81.9861 47.4257 81.7383C47.4257 81.4905 47.4745 81.2452 47.5693 81.0163C47.6641 80.7874 47.8031 80.5794 47.9783 80.4042C48.1535 80.229 48.3615 80.09 48.5904 79.9952C48.8193 79.9004 49.0647 79.8516 49.3124 79.8516C49.5602 79.8516 49.8056 79.9004 50.0345 79.9952C50.2634 80.09 50.4714 80.229 50.6466 80.4042L69.5199 99.2775C69.7836 99.5415 69.9631 99.8778 70.0358 100.244C70.1085 100.61 70.0711 100.989 69.9284 101.334C69.7856 101.679 69.5439 101.973 69.2337 102.181C68.9236 102.388 68.5589 102.499 68.1858 102.5V102.5Z" fill="#0176D0"/>
<path id="Vector_15" d="M37.8468 67.5059L52.4975 82.315L47.0498 87.7627L37.0027 77.7156C36.3868 77.0999 35.8983 76.3689 35.565 75.5643C35.2317 74.7598 35.0602 73.8975 35.0602 73.0266C35.0602 72.1558 35.2317 71.2934 35.565 70.4889C35.8983 69.6844 36.3868 68.9534 37.0027 68.3376L37.8468 67.5059Z" fill="#0176D0"/>
<path id="Vector_16" d="M43.1504 102.499C42.7745 102.5 42.407 102.389 42.0944 102.18C41.7817 101.971 41.538 101.675 41.3941 101.328C41.2501 100.98 41.2124 100.598 41.2857 100.23C41.3591 99.861 41.5401 99.5224 41.8059 99.2568L62.7113 78.3514C63.0676 77.9951 63.5508 77.7949 64.0547 77.7949C64.5586 77.7949 65.0418 77.9951 65.3981 78.3514C65.7544 78.7077 65.9546 79.1909 65.9546 79.6948C65.9546 80.1986 65.7544 80.6819 65.3981 81.0381L44.4948 101.941C44.1383 102.298 43.6547 102.499 43.1504 102.499V102.499Z" fill="#50E6FF"/>
<path id="Vector_17" d="M72.8948 82.5817C76.8243 78.6519 77.3856 72.8421 74.1485 69.6051C70.9113 66.368 65.1015 66.9295 61.1719 70.8592C57.2423 74.7889 56.681 80.5988 59.9182 83.8358C63.1554 87.0729 68.9652 86.5114 72.8948 82.5817Z" fill="#50E6FF"/>
</g>
<rect x="7.5" y="7.5" width="155" height="155" rx="12.5" stroke="#D5EAF6" stroke-width="15"/>
</g>
<defs>
<linearGradient id="paint0_linear_1_1591" x1="85" y1="15" x2="85" y2="155" gradientUnits="userSpaceOnUse">
<stop stop-color="#199AE0"/>
<stop offset="0.472222" stop-color="#0D5176" stop-opacity="0.527778"/>
<stop offset="0.940972" stop-color="#12A6F7" stop-opacity="0.465278"/>
<stop offset="1" stop-opacity="0"/>
</linearGradient>
<linearGradient id="paint1_linear_1_1591" x1="56.0813" y1="49.2942" x2="110.923" y2="199.969" gradientUnits="userSpaceOnUse">
<stop offset="0.002" stop-color="#427FDB"/>
<stop offset="0.397" stop-color="#2668CB"/>
<stop offset="0.763" stop-color="#1358BF"/>
<stop offset="1" stop-color="#0C52BB"/>
</linearGradient>
<linearGradient id="paint2_linear_1_1591" x1="97.3754" y1="37.2577" x2="153.69" y2="191.987" gradientUnits="userSpaceOnUse">
<stop offset="0.002" stop-color="#427FDB"/>
<stop offset="0.397" stop-color="#2668CB"/>
<stop offset="0.763" stop-color="#1358BF"/>
<stop offset="1" stop-color="#0C52BB"/>
</linearGradient>
<linearGradient id="paint3_linear_1_1591" x1="44.4963" y1="55.4607" x2="90.04" y2="180.591" gradientUnits="userSpaceOnUse">
<stop stop-color="#0176D0"/>
<stop offset="1" stop-color="#22A5E2"/>
</linearGradient>
<linearGradient id="paint4_linear_1_1591" x1="111.577" y1="34.5183" x2="159.086" y2="165.048" gradientUnits="userSpaceOnUse">
<stop stop-color="#0176D0"/>
<stop offset="1" stop-color="#22A5E2"/>
</linearGradient>
<linearGradient id="paint5_linear_1_1591" x1="104.095" y1="33.6456" x2="150.155" y2="160.188" gradientUnits="userSpaceOnUse">
<stop stop-color="#0176D0"/>
<stop offset="1" stop-color="#22A5E2"/>
</linearGradient>
<linearGradient id="paint6_linear_1_1591" x1="101.004" y1="28.8023" x2="148.513" y2="159.335" gradientUnits="userSpaceOnUse">
<stop stop-color="#0176D0"/>
<stop offset="1" stop-color="#22A5E2"/>
</linearGradient>
<linearGradient id="paint7_linear_1_1591" x1="95.7187" y1="25.9462" x2="143.228" y2="156.476" gradientUnits="userSpaceOnUse">
<stop stop-color="#0176D0"/>
<stop offset="1" stop-color="#22A5E2"/>
</linearGradient>
<linearGradient id="paint8_linear_1_1591" x1="88.7217" y1="26.4064" x2="134.782" y2="152.949" gradientUnits="userSpaceOnUse">
<stop stop-color="#0176D0"/>
<stop offset="1" stop-color="#22A5E2"/>
</linearGradient>
<linearGradient id="paint9_linear_1_1591" x1="90.7721" y1="45.4733" x2="127.586" y2="146.615" gradientUnits="userSpaceOnUse">
<stop stop-color="#0176D0"/>
<stop offset="1" stop-color="#22A5E2"/>
</linearGradient>
<linearGradient id="paint10_linear_1_1591" x1="86.6771" y1="45.8868" x2="123.488" y2="147.028" gradientUnits="userSpaceOnUse">
<stop stop-color="#0176D0"/>
<stop offset="1" stop-color="#22A5E2"/>
</linearGradient>
<linearGradient id="paint11_linear_1_1591" x1="82.5821" y1="46.2994" x2="119.393" y2="147.441" gradientUnits="userSpaceOnUse">
<stop stop-color="#0176D0"/>
<stop offset="1" stop-color="#22A5E2"/>
</linearGradient>
<linearGradient id="paint12_linear_1_1591" x1="78.4842" y1="46.7129" x2="115.298" y2="147.854" gradientUnits="userSpaceOnUse">
<stop stop-color="#0176D0"/>
<stop offset="1" stop-color="#22A5E2"/>
</linearGradient>
<linearGradient id="paint13_linear_1_1591" x1="74.3892" y1="47.1264" x2="111.2" y2="148.265" gradientUnits="userSpaceOnUse">
<stop stop-color="#0176D0"/>
<stop offset="1" stop-color="#22A5E2"/>
</linearGradient>
</defs>
</svg>
