<svg width="170" height="170" viewBox="0 0 170 170" fill="none" xmlns="http://www.w3.org/2000/svg">
<g id="resume">
<rect x="7.5" y="7.5" width="155" height="155" rx="12.5" fill="white"/>
<rect x="7.5" y="7.5" width="155" height="155" rx="12.5" fill="url(#paint0_linear_1_1610)" fill-opacity="0.2"/>
<path id="Vector" d="M128.75 35.4173V134.584C128.75 137.807 126.14 140.417 122.917 140.417H47.0833C43.8604 140.417 41.25 137.807 41.25 134.584V35.4173C41.25 32.1944 43.8604 29.584 47.0833 29.584H122.917C126.14 29.584 128.75 32.1944 128.75 35.4173Z" fill="#50E6FF"/>
<path id="Vector_2" d="M64.5833 58.7507C67.805 58.7507 70.4167 56.139 70.4167 52.9173C70.4167 49.6957 67.805 47.084 64.5833 47.084C61.3617 47.084 58.75 49.6957 58.75 52.9173C58.75 56.139 61.3617 58.7507 64.5833 58.7507Z" fill="#057093"/>
<path id="Vector_3" d="M64.5833 61.666C59.7504 61.666 55.8333 65.5831 55.8333 70.416V74.4993C55.8333 75.4648 56.6179 76.2493 57.5833 76.2493H71.5833C72.5487 76.2493 73.3333 75.4648 73.3333 74.4993V70.416C73.3333 65.5831 69.4162 61.666 64.5833 61.666Z" fill="#057093"/>
<path id="Vector_4" d="M99.5833 96.666H58.75C57.14 96.666 55.8333 97.9727 55.8333 99.5827C55.8333 101.193 57.14 102.499 58.75 102.499H99.5833C101.193 102.499 102.5 101.193 102.5 99.5827C102.5 97.9727 101.193 96.666 99.5833 96.666Z" fill="#057093"/>
<path id="Vector_5" d="M111.25 85H58.75C57.14 85 55.8333 86.3067 55.8333 87.9167C55.8333 89.5267 57.14 90.8333 58.75 90.8333H111.25C112.86 90.8333 114.167 89.5267 114.167 87.9167C114.167 86.3067 112.86 85 111.25 85Z" fill="#057093"/>
<path id="Vector_6" d="M99.5833 120H58.75C57.14 120 55.8333 121.307 55.8333 122.917C55.8333 124.527 57.14 125.833 58.75 125.833H99.5833C101.193 125.833 102.5 124.527 102.5 122.917C102.5 121.307 101.193 120 99.5833 120Z" fill="#057093"/>
<path id="Vector_7" d="M111.25 108.334H58.75C57.14 108.334 55.8333 109.641 55.8333 111.251C55.8333 112.861 57.14 114.167 58.75 114.167H111.25C112.86 114.167 114.167 112.861 114.167 111.251C114.167 109.641 112.86 108.334 111.25 108.334Z" fill="#057093"/>
<path id="Vector_8" d="M111.25 61.666H87.9167C86.3067 61.666 85 62.9727 85 64.5827C85 66.1927 86.3067 67.4993 87.9167 67.4993H111.25C112.86 67.4993 114.167 66.1927 114.167 64.5827C114.167 62.9727 112.86 61.666 111.25 61.666Z" fill="#057093"/>
<path id="Vector_9" d="M111.25 50H87.9167C86.3067 50 85 51.3067 85 52.9167C85 54.5267 86.3067 55.8333 87.9167 55.8333H111.25C112.86 55.8333 114.167 54.5267 114.167 52.9167C114.167 51.3067 112.86 50 111.25 50Z" fill="#057093"/>
<rect x="7.5" y="7.5" width="155" height="155" rx="12.5" stroke="#D5EAF6" stroke-width="15"/>
</g>
<defs>
<linearGradient id="paint0_linear_1_1610" x1="85" y1="15" x2="85" y2="155" gradientUnits="userSpaceOnUse">
<stop stop-color="#199AE0"/>
<stop offset="0.472222" stop-color="#0D5176" stop-opacity="0.527778"/>
<stop offset="0.940972" stop-color="#12A6F7" stop-opacity="0.465278"/>
<stop offset="1" stop-opacity="0"/>
</linearGradient>
</defs>
</svg>
