<svg width="170" height="170" viewBox="0 0 170 170" fill="none" xmlns="http://www.w3.org/2000/svg">
<g id="rgb-color-wheel">
<rect x="7.5" y="7.5" width="155" height="155" rx="12.5" fill="white"/>
<rect x="7.5" y="7.5" width="155" height="155" rx="12.5" fill="url(#paint0_linear_1_1631)" fill-opacity="0.2"/>
<path id="Vector" d="M85 26.666L82.0833 29.5827V84.9994H89.1242L126.242 47.8819V43.7577C115.683 33.1993 101.1 26.666 85 26.666Z" fill="url(#paint1_linear_1_1631)"/>
<path id="Vector_2" d="M126.247 43.752L85 84.9995L87.9167 87.9161H140.408L143.325 84.9995C143.325 70.069 137.631 55.1357 126.247 43.752Z" fill="url(#paint2_linear_1_1631)"/>
<path id="Vector_3" d="M143.333 85H85V89.1242L122.118 126.242H126.242C136.8 115.683 143.333 101.1 143.333 85Z" fill="url(#paint3_linear_1_1631)"/>
<path id="Vector_4" d="M126.247 126.247L85 85L82.0833 87.9167V140.408L85 143.325C99.9304 143.325 114.864 137.631 126.247 126.247Z" fill="url(#paint4_linear_1_1631)"/>
<path id="Vector_5" d="M85 143.333V85H80.8758L43.7583 122.118V126.242C54.3167 136.8 68.9 143.333 85 143.333Z" fill="url(#paint5_linear_1_1631)"/>
<path id="Vector_6" d="M43.7525 126.248L85 85.0007L82.0833 82.084H29.5921L26.6754 85.0007C26.6754 99.9311 32.3687 114.864 43.7525 126.248Z" fill="url(#paint6_linear_1_1631)"/>
<path id="Vector_7" d="M26.6667 84.9995H85V80.8753L47.8825 43.7578H43.7583C33.2 54.3161 26.6667 68.8995 26.6667 84.9995Z" fill="url(#paint7_linear_1_1631)"/>
<path id="Vector_8" d="M43.7525 43.7529L85 85.0004V26.6758C70.0696 26.6758 55.1363 32.3691 43.7525 43.7529Z" fill="url(#paint8_linear_1_1631)"/>
<rect x="7.5" y="7.5" width="155" height="155" rx="12.5" stroke="#D5EAF6" stroke-width="15"/>
</g>
<defs>
<linearGradient id="paint0_linear_1_1631" x1="85" y1="15" x2="85" y2="155" gradientUnits="userSpaceOnUse">
<stop stop-color="#199AE0"/>
<stop offset="0.472222" stop-color="#0D5176" stop-opacity="0.527778"/>
<stop offset="0.940972" stop-color="#12A6F7" stop-opacity="0.465278"/>
<stop offset="1" stop-opacity="0"/>
</linearGradient>
<linearGradient id="paint1_linear_1_1631" x1="63.8775" y1="24.0935" x2="105.075" y2="65.2885" gradientUnits="userSpaceOnUse">
<stop stop-color="#F44F5A"/>
<stop offset="0.443" stop-color="#EE3D4A"/>
<stop offset="1" stop-color="#E52030"/>
</linearGradient>
<linearGradient id="paint2_linear_1_1631" x1="114.17" y1="15.3127" x2="114.165" y2="154.316" gradientUnits="userSpaceOnUse">
<stop stop-color="#FED100"/>
<stop offset="1" stop-color="#E36001"/>
</linearGradient>
<linearGradient id="paint3_linear_1_1631" x1="134.788" y1="76.4542" x2="103.559" y2="107.683" gradientUnits="userSpaceOnUse">
<stop stop-color="#FFD747"/>
<stop offset="0.482" stop-color="#FFD645"/>
<stop offset="1" stop-color="#F5BC00"/>
</linearGradient>
<linearGradient id="paint4_linear_1_1631" x1="126.245" y1="114.163" x2="82.0808" y2="114.163" gradientUnits="userSpaceOnUse">
<stop stop-color="#33C481"/>
<stop offset="1" stop-color="#21A366"/>
</linearGradient>
<linearGradient id="paint5_linear_1_1631" x1="93.5458" y1="134.788" x2="62.3171" y2="103.559" gradientUnits="userSpaceOnUse">
<stop stop-color="#28AFEA"/>
<stop offset="1" stop-color="#0B88DA"/>
</linearGradient>
<linearGradient id="paint6_linear_1_1631" x1="55.8404" y1="132.568" x2="55.8411" y2="88.4042" gradientUnits="userSpaceOnUse">
<stop offset="0.002" stop-color="#427FDB"/>
<stop offset="0.397" stop-color="#2668CB"/>
<stop offset="0.763" stop-color="#1358BF"/>
<stop offset="1" stop-color="#0C52BB"/>
</linearGradient>
<linearGradient id="paint7_linear_1_1631" x1="35.2125" y1="93.5453" x2="66.4412" y2="62.3166" gradientUnits="userSpaceOnUse">
<stop stop-color="#A235D4"/>
<stop offset="0.441" stop-color="#A033D1"/>
<stop offset="0.702" stop-color="#982CC9"/>
<stop offset="0.915" stop-color="#8B21BB"/>
<stop offset="1" stop-color="#831BB3"/>
</linearGradient>
<linearGradient id="paint8_linear_1_1631" x1="43.7473" y1="55.8378" x2="156.538" y2="55.8338" gradientUnits="userSpaceOnUse">
<stop stop-color="#E83C67"/>
<stop offset="0.423" stop-color="#C5214A"/>
<stop offset="0.773" stop-color="#B01038"/>
<stop offset="1" stop-color="#A80A31"/>
</linearGradient>
</defs>
</svg>
