<svg width="170" height="170" viewBox="0 0 170 170" fill="none" xmlns="http://www.w3.org/2000/svg">
<g id="send-mail">
<g clip-path="url(#clip0_1_1844)">
<rect x="15" y="15" width="140" height="140" rx="5" fill="white"/>
<rect x="15" y="15" width="140" height="140" rx="5" fill="url(#paint0_linear_1_1844)" fill-opacity="0.2"/>
<path id="Vector" d="M55.8333 41.25H114.167C130.208 41.25 143.333 54.375 143.333 70.4167V131.667C143.333 134.875 140.708 137.5 137.5 137.5H55.8333V41.25Z" fill="#007AD9"/>
<path id="Vector_2" d="M55.8333 41.25C39.7917 41.25 26.6667 54.375 26.6667 70.4167V131.667C26.6667 134.875 29.2917 137.5 32.5 137.5H79.1667C82.375 137.5 85 134.875 85 131.667V70.4167C85 54.375 71.875 41.25 55.8333 41.25Z" fill="url(#paint1_linear_1_1844)"/>
<path id="Vector_3" opacity="0.05" d="M114.167 41.25H85.875C86.1667 41.5417 86.1667 41.8333 86.4583 41.8333L99.2917 54.6667V66.0417C99.2917 68.6667 101.333 70.7083 103.958 70.7083H115.333L128.167 83.5417C129.042 84.4167 130.208 85 131.667 85C133.708 85 135.458 83.8333 136.333 81.7917L142.75 63.125C139.25 50.5833 127.875 41.25 114.167 41.25Z" fill="black"/>
<path id="Vector_4" opacity="0.07" d="M114.167 41.25H87.625L100.458 54.0833V66.3333C100.458 68.0833 101.917 69.5417 103.667 69.5417H115.917L129.042 82.6667C129.625 83.25 130.5 83.5417 131.375 83.5417C132.833 83.5417 134 82.6667 134.583 81.2083L141.583 60.5C137.5 49.4167 127 41.25 114.167 41.25Z" fill="black"/>
<path id="Vector_5" d="M64.5833 76.2493H44.1667C42.4167 76.2493 41.25 75.0827 41.25 73.3327C41.25 71.5827 42.4167 70.416 44.1667 70.416H64.5833C66.3333 70.416 67.5 71.5827 67.5 73.3327C67.5 75.0827 66.3333 76.2493 64.5833 76.2493Z" fill="#007AD9"/>
<path id="Vector_6" d="M152.667 15.0001L89.0833 36.8751C87.625 37.4584 87.3333 38.9167 88.5 40.0834L130.208 81.7917C131.083 82.6667 132.833 82.3751 133.417 81.2084L155 17.3334C155.292 15.8751 154.125 14.7084 152.667 15.0001Z" fill="#CCCCCC"/>
<path id="Vector_7" d="M146.25 23.75L101.917 53.5V66.3333C101.917 67.2083 102.792 68.0833 103.667 68.0833H116.5L146.25 23.75Z" fill="#64717C"/>
</g>
<rect x="7.5" y="7.5" width="155" height="155" rx="12.5" stroke="#D5EAF6" stroke-width="15"/>
</g>
<defs>
<linearGradient id="paint0_linear_1_1844" x1="85" y1="15" x2="85" y2="155" gradientUnits="userSpaceOnUse">
<stop stop-color="#199AE0"/>
<stop offset="0.472222" stop-color="#0D5176" stop-opacity="0.527778"/>
<stop offset="0.940972" stop-color="#12A6F7" stop-opacity="0.465278"/>
<stop offset="1" stop-opacity="0"/>
</linearGradient>
<linearGradient id="paint1_linear_1_1844" x1="36.0146" y1="46.9958" x2="73.8671" y2="146.09" gradientUnits="userSpaceOnUse">
<stop stop-color="#32BDEF"/>
<stop offset="1" stop-color="#1EA2E4"/>
</linearGradient>
<clipPath id="clip0_1_1844">
<rect x="15" y="15" width="140" height="140" rx="5" fill="white"/>
</clipPath>
</defs>
</svg>
