<svg width="170" height="170" viewBox="0 0 170 170" fill="none" xmlns="http://www.w3.org/2000/svg">
<g id="settings">
<rect x="7.5" y="7.5" width="155" height="155" rx="12.5" fill="white"/>
<rect x="7.5" y="7.5" width="155" height="155" rx="12.5" fill="url(#paint0_linear_1_1863)" fill-opacity="0.2"/>
<path id="Vector" d="M85 118.542C103.525 118.542 118.542 103.525 118.542 85.0007C118.542 66.4761 103.525 51.459 85 51.459C66.4754 51.459 51.4583 66.4761 51.4583 85.0007C51.4583 103.525 66.4754 118.542 85 118.542Z" fill="url(#paint1_linear_1_1863)"/>
<path id="Vector_2" d="M85 105.417C96.2758 105.417 105.417 96.2765 105.417 85.0007C105.417 73.7248 96.2758 64.584 85 64.584C73.7242 64.584 64.5833 73.7248 64.5833 85.0007C64.5833 96.2765 73.7242 105.417 85 105.417Z" fill="url(#paint2_linear_1_1863)"/>
<path id="Vector_3" d="M141.604 71.1253C134.636 71.0408 127.89 67.4095 124.153 60.9374C120.557 54.7074 120.63 47.3778 123.681 41.4162C117.483 35.9124 110.142 31.6774 102.01 29.2012C98.3496 34.7049 92.1021 38.3333 85 38.3333C77.8979 38.3333 71.6504 34.7049 67.9929 29.2012C59.8612 31.6774 52.52 35.9124 46.3221 41.4162C49.3729 47.3778 49.4458 54.7074 45.8496 60.9374C42.1133 67.4095 35.3671 71.0408 28.3992 71.1253C27.3083 75.5791 26.6667 80.2108 26.6667 84.9999C26.6667 88.7449 27.0546 92.3937 27.7283 95.9433C34.9296 95.7945 41.9937 99.4666 45.8496 106.146C49.8396 113.058 49.3117 121.324 45.2079 127.569C51.2804 133.247 58.5458 137.649 66.6163 140.329C69.9121 133.487 76.8946 128.75 85 128.75C93.1054 128.75 100.088 133.487 103.384 140.332C111.454 137.652 118.72 133.25 124.792 127.572C120.688 121.327 120.16 113.061 124.15 106.149C128.006 99.4695 135.068 95.7974 142.272 95.9462C142.945 92.3937 143.333 88.7449 143.333 84.9999C143.333 80.2108 142.692 75.5791 141.604 71.1253ZM85 115.625C68.0862 115.625 54.375 101.914 54.375 84.9999C54.375 68.0862 68.0862 54.3749 85 54.3749C101.914 54.3749 115.625 68.0862 115.625 84.9999C115.625 101.914 101.914 115.625 85 115.625Z" fill="url(#paint3_linear_1_1863)"/>
<rect x="7.5" y="7.5" width="155" height="155" rx="12.5" stroke="#D5EAF6" stroke-width="15"/>
</g>
<defs>
<linearGradient id="paint0_linear_1_1863" x1="85" y1="15" x2="85" y2="155" gradientUnits="userSpaceOnUse">
<stop stop-color="#199AE0"/>
<stop offset="0.472222" stop-color="#0D5176" stop-opacity="0.527778"/>
<stop offset="0.940972" stop-color="#12A6F7" stop-opacity="0.465278"/>
<stop offset="1" stop-opacity="0"/>
</linearGradient>
<linearGradient id="paint1_linear_1_1863" x1="108.368" y1="108.369" x2="61.3196" y2="61.3202" gradientUnits="userSpaceOnUse">
<stop stop-color="white"/>
<stop offset="0.242" stop-color="#fcfcfc"/>
<stop offset="1" stop-color="#CCCCCC"/>
</linearGradient>
<linearGradient id="paint2_linear_1_1863" x1="65.8958" y1="65.8965" x2="99.4083" y2="99.409" gradientUnits="userSpaceOnUse">
<stop stop-color="#0D61A9"/>
<stop offset="0.363" stop-color="#0E5FA4"/>
<stop offset="0.78" stop-color="#135796"/>
<stop offset="1" stop-color="#16528C"/>
</linearGradient>
<linearGradient id="paint3_linear_1_1863" x1="30.5342" y1="30.5866" x2="126.073" y2="126.122" gradientUnits="userSpaceOnUse">
<stop stop-color="#889097"/>
<stop offset="0.331" stop-color="#848C94"/>
<stop offset="0.669" stop-color="#78828B"/>
<stop offset="1" stop-color="#64717C"/>
</linearGradient>
</defs>
</svg>
