<svg width="170" height="170" viewBox="0 0 170 170" fill="none" xmlns="http://www.w3.org/2000/svg">
<g id="shopping-cart">
<g clip-path="url(#clip0_1_1884)">
<rect x="15" y="15" width="140" height="140" rx="5" fill="white"/>
<rect x="15" y="15" width="140" height="140" rx="5" fill="url(#paint0_linear_1_1884)" fill-opacity="0.2"/>
<path id="Vector" d="M20.8333 38.334H25.9462C30.0996 38.334 33.6783 41.2536 34.5154 45.3194L42.6121 84.6419" stroke="url(#paint1_linear_1_1884)" stroke-width="1.33333" stroke-miterlimit="10" stroke-linecap="round" stroke-linejoin="round"/>
<path id="Vector_2" d="M122.917 143.334C127.749 143.334 131.667 139.416 131.667 134.584C131.667 129.751 127.749 125.834 122.917 125.834C118.084 125.834 114.167 129.751 114.167 134.584C114.167 139.416 118.084 143.334 122.917 143.334Z" fill="#5C5F61"/>
<path id="Vector_3" opacity="0.15" d="M122.917 137.499C124.527 137.499 125.833 136.194 125.833 134.583C125.833 132.972 124.527 131.666 122.917 131.666C121.306 131.666 120 132.972 120 134.583C120 136.194 121.306 137.499 122.917 137.499Z" fill="black"/>
<path id="Vector_4" d="M58.75 143.334C63.5825 143.334 67.5 139.416 67.5 134.584C67.5 129.751 63.5825 125.834 58.75 125.834C53.9175 125.834 50 129.751 50 134.584C50 139.416 53.9175 143.334 58.75 143.334Z" fill="#5C5F61"/>
<path id="Vector_5" opacity="0.15" d="M58.75 137.499C60.3608 137.499 61.6667 136.194 61.6667 134.583C61.6667 132.972 60.3608 131.666 58.75 131.666C57.1392 131.666 55.8333 132.972 55.8333 134.583C55.8333 136.194 57.1392 137.499 58.75 137.499Z" fill="black"/>
<path id="Vector_6" d="M134.583 125.834H52.9167C48.0837 125.834 44.1667 121.917 44.1667 117.084C44.1667 112.251 48.0837 108.334 52.9167 108.334H125.833" stroke="url(#paint2_linear_1_1884)" stroke-width="1.33333" stroke-miterlimit="10" stroke-linecap="round" stroke-linejoin="round"/>
<path id="Vector_7" d="M26.6667 38.3333C26.6667 41.5533 24.0533 44.1667 20.8333 44.1667C17.6133 44.1667 15 41.5533 15 38.3333C15 35.1133 17.6133 32.5 20.8333 32.5C24.0533 32.5 26.6667 35.1133 26.6667 38.3333Z" fill="url(#paint3_linear_1_1884)"/>
<path id="Vector_8" d="M43.2625 106.508C43.7875 109.261 46.1937 111.25 48.9937 111.25H132.559C135.412 111.25 137.844 109.188 138.314 106.376L144.331 70.271L34.7546 61.8418L43.2625 106.508Z" fill="url(#paint4_linear_1_1884)"/>
<path id="Vector_9" d="M143.074 58.505L32.5 50L34.7546 61.8417L144.328 70.2708L145.725 61.8942C146.008 60.2054 144.78 58.6363 143.074 58.505Z" fill="url(#paint5_linear_1_1884)"/>
</g>
<rect x="7.5" y="7.5" width="155" height="155" rx="12.5" stroke="#D5EAF6" stroke-width="15"/>
</g>
<defs>
<linearGradient id="paint0_linear_1_1884" x1="85" y1="15" x2="85" y2="155" gradientUnits="userSpaceOnUse">
<stop stop-color="#199AE0"/>
<stop offset="0.472222" stop-color="#0D5176" stop-opacity="0.527778"/>
<stop offset="0.940972" stop-color="#12A6F7" stop-opacity="0.465278"/>
<stop offset="1" stop-opacity="0"/>
</linearGradient>
<linearGradient id="paint1_linear_1_1884" x1="31.7242" y1="87.5586" x2="31.7242" y2="35.4173" gradientUnits="userSpaceOnUse">
<stop stop-color="#92A3B0"/>
<stop offset="0.015" stop-color="#A3B5C4"/>
<stop offset="0.032" stop-color="#AEC2D1"/>
<stop offset="0.046" stop-color="#B2C6D6"/>
</linearGradient>
<linearGradient id="paint2_linear_1_1884" x1="89.375" y1="128.751" x2="89.375" y2="105.417" gradientUnits="userSpaceOnUse">
<stop stop-color="#92A3B0"/>
<stop offset="0.015" stop-color="#A3B5C4"/>
<stop offset="0.032" stop-color="#AEC2D1"/>
<stop offset="0.046" stop-color="#B2C6D6"/>
</linearGradient>
<linearGradient id="paint3_linear_1_1884" x1="17.205" y1="34.705" x2="24.87" y2="42.37" gradientUnits="userSpaceOnUse">
<stop stop-color="#199AE0"/>
<stop offset="1" stop-color="#0782D8"/>
</linearGradient>
<linearGradient id="paint4_linear_1_1884" x1="34.7546" y1="86.546" x2="144.331" y2="86.546" gradientUnits="userSpaceOnUse">
<stop stop-color="#3079D6"/>
<stop offset="1" stop-color="#297CD2"/>
</linearGradient>
<linearGradient id="paint5_linear_1_1884" x1="32.5" y1="60.1354" x2="145.766" y2="60.1354" gradientUnits="userSpaceOnUse">
<stop stop-color="#42A3F2"/>
<stop offset="1" stop-color="#42A4EB"/>
</linearGradient>
<clipPath id="clip0_1_1884">
<rect x="15" y="15" width="140" height="140" rx="5" fill="white"/>
</clipPath>
</defs>
</svg>
