<svg width="170" height="170" viewBox="0 0 170 170" fill="none" xmlns="http://www.w3.org/2000/svg">
<g id="shortcut">
<rect x="7.5" y="7.5" width="155" height="155" rx="12.5" fill="white"/>
<rect x="7.5" y="7.5" width="155" height="155" rx="12.5" fill="url(#paint0_linear_1_1909)" fill-opacity="0.2"/>
<path id="Vector" d="M131.667 32.5H38.3333C35.1104 32.5 32.5 35.1104 32.5 38.3333V131.667C32.5 134.89 35.1104 137.5 38.3333 137.5H131.667C134.89 137.5 137.5 134.89 137.5 131.667V38.3333C137.5 35.1104 134.89 32.5 131.667 32.5Z" fill="#50E6FF"/>
<path id="Vector_2" d="M59.2633 96.8382C59.2633 81.9107 68.6317 71.9619 88.5321 52.0586L103.46 66.9861C83.5592 86.8865 64.2392 101.814 84.1425 131.666C84.1425 131.666 59.2633 116.739 59.2633 96.8382Z" fill="#057093"/>
<path id="Vector_3" d="M108.333 52.9173V85.2019C108.333 87.2815 105.819 88.3227 104.349 86.8527L68.5675 51.0682C67.0975 49.5982 68.1387 47.084 70.2154 47.084H102.5C105.723 47.084 108.333 49.6944 108.333 52.9173Z" fill="#057093"/>
<rect x="7.5" y="7.5" width="155" height="155" rx="12.5" stroke="#D5EAF6" stroke-width="15"/>
</g>
<defs>
<linearGradient id="paint0_linear_1_1909" x1="85" y1="15" x2="85" y2="155" gradientUnits="userSpaceOnUse">
<stop stop-color="#199AE0"/>
<stop offset="0.472222" stop-color="#0D5176" stop-opacity="0.527778"/>
<stop offset="0.940972" stop-color="#12A6F7" stop-opacity="0.465278"/>
<stop offset="1" stop-opacity="0"/>
</linearGradient>
</defs>
</svg>
