<svg width="170" height="170" viewBox="0 0 170 170" fill="none" xmlns="http://www.w3.org/2000/svg">
<g id="small-business">
<rect x="7.5" y="7.5" width="155" height="155" rx="12.5" fill="white"/>
<rect x="7.5" y="7.5" width="155" height="155" rx="12.5" fill="url(#paint0_linear_1_1949)" fill-opacity="0.2"/>
<path id="Vector" d="M29.5833 70.416H140.417V128.749H29.5833V70.416Z" fill="#50E6FF"/>
<path id="Vector_2" d="M29.5833 128.75H140.417V131.667C140.417 134.89 137.806 137.5 134.583 137.5H35.4167C32.1937 137.5 29.5833 134.89 29.5833 131.667V128.75Z" fill="#35C1F1"/>
<path id="Vector_3" d="M82.0833 90.834H87.9167V128.751H82.0833V90.834Z" fill="url(#paint1_linear_1_1949)"/>
<path id="Vector_4" d="M134.583 32.5H35.4167C32.2083 32.5 29.5833 35.125 29.5833 38.3333V44.1667H140.417V38.3333C140.417 35.125 137.792 32.5 134.583 32.5Z" fill="#0078D4"/>
<path id="Vector_5" d="M137.5 61.666H32.5L23.75 70.416V73.3327C23.75 76.5556 26.3604 79.166 29.5833 79.166H140.417C143.64 79.166 146.25 76.5556 146.25 73.3327V70.416L137.5 61.666Z" fill="#0078D4"/>
<path id="Vector_6" d="M140.417 44.166H29.5833L23.75 70.416H146.25L140.417 44.166Z" fill="#199BE2"/>
<path id="Vector_7" d="M87.9167 128.75H82.0833V137.5H87.9167V128.75Z" fill="url(#paint2_linear_1_1949)"/>
<path id="Vector_8" d="M87.9167 90.834H117.083C118.693 90.834 120 92.1407 120 93.7507V128.751H87.9167V90.834Z" fill="#199BE2"/>
<path id="Vector_9" d="M120 128.75H87.9167V137.5H120V128.75Z" fill="#0078D4"/>
<path id="Vector_10" d="M52.9167 90.834H82.0833V128.751H50V93.7507C50 92.1407 51.3067 90.834 52.9167 90.834Z" fill="#199BE2"/>
<path id="Vector_11" d="M82.0833 128.75H50V137.5H82.0833V128.75Z" fill="#0078D4"/>
<path id="Vector_12" d="M96.6667 119.999C98.2775 119.999 99.5833 118.694 99.5833 117.083C99.5833 115.472 98.2775 114.166 96.6667 114.166C95.0558 114.166 93.75 115.472 93.75 117.083C93.75 118.694 95.0558 119.999 96.6667 119.999Z" fill="#0078D4"/>
<path id="Vector_13" d="M73.3333 119.999C74.9442 119.999 76.25 118.694 76.25 117.083C76.25 115.472 74.9442 114.166 73.3333 114.166C71.7225 114.166 70.4167 115.472 70.4167 117.083C70.4167 118.694 71.7225 119.999 73.3333 119.999Z" fill="#0078D4"/>
<rect x="7.5" y="7.5" width="155" height="155" rx="12.5" stroke="#D5EAF6" stroke-width="15"/>
</g>
<defs>
<linearGradient id="paint0_linear_1_1949" x1="85" y1="15" x2="85" y2="155" gradientUnits="userSpaceOnUse">
<stop stop-color="#199AE0"/>
<stop offset="0.472222" stop-color="#0D5176" stop-opacity="0.527778"/>
<stop offset="0.940972" stop-color="#12A6F7" stop-opacity="0.465278"/>
<stop offset="1" stop-opacity="0"/>
</linearGradient>
<linearGradient id="paint1_linear_1_1949" x1="82.0833" y1="109.792" x2="87.9167" y2="109.792" gradientUnits="userSpaceOnUse">
<stop stop-color="#3079D6"/>
<stop offset="1" stop-color="#297CD2"/>
</linearGradient>
<linearGradient id="paint2_linear_1_1949" x1="82.0833" y1="133.125" x2="87.9167" y2="133.125" gradientUnits="userSpaceOnUse">
<stop stop-color="#1D59B3"/>
<stop offset="1" stop-color="#195BBC"/>
</linearGradient>
</defs>
</svg>
