<svg width="170" height="170" viewBox="0 0 170 170" fill="none" xmlns="http://www.w3.org/2000/svg">
<g id="smart-card-reader">
<rect x="7.5" y="7.5" width="155" height="155" rx="12.5" fill="white"/>
<rect x="7.5" y="7.5" width="155" height="155" rx="12.5" fill="url(#paint0_linear_1_1972)" fill-opacity="0.2"/>
<path id="Vector" d="M128.75 61.6673V140.417C128.75 143.64 126.14 146.251 122.917 146.251H47.0833C43.8604 146.251 41.25 143.64 41.25 140.417V61.6673C41.25 58.4444 43.8604 55.834 47.0833 55.834H122.917C126.14 55.834 128.75 58.4444 128.75 61.6673Z" fill="url(#paint1_linear_1_1972)"/>
<path id="Vector_2" d="M120 55.834H50V76.2507H120V55.834Z" fill="#666666"/>
<path id="Vector_3" d="M117.308 79.1673H52.6921C51.2046 79.1673 50 77.8607 50 76.2507C50 74.6407 51.2046 73.334 52.6921 73.334H117.308C118.795 73.334 120 74.6407 120 76.2507C120 77.8607 118.795 79.1673 117.308 79.1673Z" fill="#666666"/>
<path id="Vector_4" d="M114.167 79.1673H55.8333V26.6673C55.8333 23.4444 58.4437 20.834 61.6667 20.834H108.333C111.556 20.834 114.167 23.4444 114.167 26.6673V79.1673Z" fill="url(#paint2_linear_1_1972)"/>
<path id="Vector_5" opacity="0.05" d="M77.2125 137.501C73.4646 137.501 70.4167 134.453 70.4167 130.705V115.13C70.4167 111.382 73.4646 108.334 77.2125 108.334H92.7875C96.5354 108.334 99.5833 111.382 99.5833 115.13V130.705C99.5833 134.453 96.5354 137.501 92.7875 137.501H77.2125Z" fill="black"/>
<path id="Vector_6" opacity="0.07" d="M77.2125 136.041C74.2696 136.041 71.875 133.646 71.875 130.704V115.129C71.875 112.186 74.2696 109.791 77.2125 109.791H92.7875C95.7304 109.791 98.125 112.186 98.125 115.129V130.704C98.125 133.646 95.7304 136.041 92.7875 136.041H77.2125Z" fill="black"/>
<path id="Vector_7" d="M79.1667 111.25V121.458H73.3333V115.129C73.3333 113 75.0833 111.25 77.2125 111.25H79.1667ZM73.3333 130.704C73.3333 132.833 75.0833 134.583 77.2125 134.583H79.1667V124.375H73.3333V130.704ZM82.0833 111.25V121.458H87.9167V111.25H82.0833ZM82.0833 134.583H87.9167V124.375H82.0833V134.583ZM92.7875 111.25H90.8333V121.458H96.6667V115.129C96.6667 113 94.9167 111.25 92.7875 111.25ZM90.8333 134.583H92.7875C94.9167 134.583 96.6667 132.833 96.6667 130.704V124.375H90.8333V134.583Z" fill="url(#paint3_linear_1_1972)"/>
<path id="Vector_8" d="M70.4167 58.75C75.2492 58.75 79.1667 54.8325 79.1667 50C79.1667 45.1675 75.2492 41.25 70.4167 41.25C65.5842 41.25 61.6667 45.1675 61.6667 50C61.6667 54.8325 65.5842 58.75 70.4167 58.75Z" fill="url(#paint4_radial_1_1972)"/>
<path id="Vector_9" d="M70.4167 56.5625C74.041 56.5625 76.9792 53.6244 76.9792 50C76.9792 46.3756 74.041 43.4375 70.4167 43.4375C66.7923 43.4375 63.8542 46.3756 63.8542 50C63.8542 53.6244 66.7923 56.5625 70.4167 56.5625Z" fill="url(#paint5_linear_1_1972)"/>
<path id="Vector_10" opacity="0.05" d="M92.0846 63.2102C84.9592 63.2102 79.1667 57.2835 79.1667 50.0006C79.1667 42.7177 84.9592 36.791 92.0846 36.791H100.248C103.288 36.791 105.761 39.2527 105.761 42.2802V57.7239C105.761 60.7514 103.288 63.2131 100.248 63.2131H92.0846V63.2102V63.2102Z" fill="black"/>
<path id="Vector_11" opacity="0.07" d="M92.0846 61.7505C85.7671 61.7505 80.625 56.4772 80.625 49.9993C80.625 43.5214 85.7671 38.248 92.0846 38.248H100.248C102.485 38.248 104.303 40.0564 104.303 42.2789V57.7226C104.303 59.9451 102.485 61.7535 100.248 61.7535H92.0846V61.7505Z" fill="black"/>
<path id="Vector_12" d="M82.0833 49.9999C82.0833 55.6845 86.5604 60.2929 92.0817 60.2929H100.248C101.68 60.2929 102.844 59.1408 102.844 57.7204V42.2795C102.844 40.8591 101.683 39.707 100.248 39.707H92.0817C86.5604 39.707 82.0833 44.3154 82.0833 49.9999Z" fill="url(#paint6_linear_1_1972)"/>
<rect x="7.5" y="7.5" width="155" height="155" rx="12.5" stroke="#D5EAF6" stroke-width="15"/>
</g>
<defs>
<linearGradient id="paint0_linear_1_1972" x1="85" y1="15" x2="85" y2="155" gradientUnits="userSpaceOnUse">
<stop stop-color="#199AE0"/>
<stop offset="0.472222" stop-color="#0D5176" stop-opacity="0.527778"/>
<stop offset="0.940972" stop-color="#12A6F7" stop-opacity="0.465278"/>
<stop offset="1" stop-opacity="0"/>
</linearGradient>
<linearGradient id="paint1_linear_1_1972" x1="60.9025" y1="55.7232" x2="108.645" y2="145.51" gradientUnits="userSpaceOnUse">
<stop stop-color="#A1AAB3"/>
<stop offset="1" stop-color="#8F979E"/>
</linearGradient>
<linearGradient id="paint2_linear_1_1972" x1="85" y1="22.7882" x2="85" y2="79.9752" gradientUnits="userSpaceOnUse">
<stop stop-color="#0077D2"/>
<stop offset="0.693" stop-color="#0077D2"/>
<stop offset="0.781" stop-color="#0272CA"/>
<stop offset="0.92" stop-color="#0763B2"/>
<stop offset="1" stop-color="#0B59A2"/>
</linearGradient>
<linearGradient id="paint3_linear_1_1972" x1="78.7233" y1="111.113" x2="90.8858" y2="133.988" gradientUnits="userSpaceOnUse">
<stop stop-color="#FFDA1C"/>
<stop offset="1" stop-color="#FEB705"/>
</linearGradient>
<radialGradient id="paint4_radial_1_1972" cx="0" cy="0" r="1" gradientUnits="userSpaceOnUse" gradientTransform="translate(70.4167 50) scale(8.75)">
<stop/>
<stop offset="0.009" stop-opacity="0.991"/>
<stop offset="0.98" stop-opacity="0"/>
</radialGradient>
<linearGradient id="paint5_linear_1_1972" x1="61.06" y1="50" x2="107.902" y2="50" gradientUnits="userSpaceOnUse">
<stop stop-color="#75DAFF"/>
<stop offset="1" stop-color="#1EA2E4"/>
</linearGradient>
<linearGradient id="paint6_linear_1_1972" x1="61.1562" y1="49.9999" x2="107.461" y2="49.9999" gradientUnits="userSpaceOnUse">
<stop stop-color="#75DAFF"/>
<stop offset="1" stop-color="#1EA2E4"/>
</linearGradient>
</defs>
</svg>
