<svg width="170" height="170" viewBox="0 0 170 170" fill="none" xmlns="http://www.w3.org/2000/svg">
<g id="statistics">
<rect x="7.5" y="7.5" width="155" height="155" rx="12.5" fill="white"/>
<rect x="7.5" y="7.5" width="155" height="155" rx="12.5" fill="url(#paint0_linear_1_2018)" fill-opacity="0.2"/>
<path id="Vector" d="M85 47.0833C83.39 47.0833 82.0833 45.7767 82.0833 44.1667V35.4167C82.0833 33.8067 83.39 32.5 85 32.5C86.61 32.5 87.9167 33.8067 87.9167 35.4167V44.1667C87.9167 45.7767 86.61 47.0833 85 47.0833Z" fill="#16538C"/>
<path id="Vector_2" d="M103.958 143.332C102.156 143.332 100.47 142.209 99.8342 140.415L85 98.4824L70.1658 140.415C69.3608 142.693 66.8525 143.883 64.5833 143.081C62.3054 142.276 61.1125 139.777 61.9175 137.499L80.8758 83.9049C81.4942 82.1549 83.145 80.9883 85 80.9883C86.855 80.9883 88.5058 82.1549 89.1242 83.9049L108.083 137.499C108.888 139.777 107.695 142.276 105.417 143.081C104.935 143.253 104.443 143.332 103.958 143.332Z" fill="#16538C"/>
<path id="Vector_3" d="M137.5 38.6992H32.5C30.89 38.6992 29.5833 40.0059 29.5833 41.6159V120.001C29.5833 121.611 30.89 122.918 32.5 122.918H137.5C139.11 122.918 140.417 121.611 140.417 120.001V41.6159C140.417 40.0059 139.11 38.6992 137.5 38.6992Z" fill="url(#paint1_radial_1_2018)"/>
<path id="Vector_4" d="M52.9167 99.5828C52.17 99.5828 51.4233 99.2969 50.8546 98.7282C49.7142 97.5878 49.7142 95.7444 50.8546 94.604L72.7296 72.729C73.87 71.5886 75.7133 71.5886 76.8537 72.729L92.2917 88.1669L110.646 69.8123C111.787 68.6719 113.63 68.6719 114.77 69.8123C115.911 70.9528 115.911 72.7961 114.77 73.9365L94.3537 94.3532C93.2133 95.4936 91.37 95.4936 90.2296 94.3532L74.7917 78.9153L54.9787 98.7282C54.41 99.2969 53.6633 99.5828 52.9167 99.5828Z" fill="white"/>
<path id="Vector_5" d="M105.417 64.582L120 79.1654V64.582H105.417Z" fill="white"/>
<rect x="7.5" y="7.5" width="155" height="155" rx="12.5" stroke="#D5EAF6" stroke-width="15"/>
</g>
<defs>
<linearGradient id="paint0_linear_1_2018" x1="85" y1="15" x2="85" y2="155" gradientUnits="userSpaceOnUse">
<stop stop-color="#199AE0"/>
<stop offset="0.472222" stop-color="#0D5176" stop-opacity="0.527778"/>
<stop offset="0.940972" stop-color="#12A6F7" stop-opacity="0.465278"/>
<stop offset="1" stop-opacity="0"/>
</linearGradient>
<radialGradient id="paint1_radial_1_2018" cx="0" cy="0" r="1" gradientUnits="userSpaceOnUse" gradientTransform="translate(168.983 153.49) scale(189.219 189.219)">
<stop offset="0.131" stop-color="#23D9D6"/>
<stop offset="0.214" stop-color="#21BDDD"/>
<stop offset="0.364" stop-color="#1E90E7"/>
<stop offset="0.508" stop-color="#1B6CF0"/>
<stop offset="0.642" stop-color="#1953F6"/>
<stop offset="0.764" stop-color="#1843FA"/>
<stop offset="0.862" stop-color="#183EFB"/>
</radialGradient>
</defs>
</svg>
