<svg width="170" height="170" viewBox="0 0 170 170" fill="none" xmlns="http://www.w3.org/2000/svg">
<g id="static-view-level2">
<rect x="7.5" y="7.5" width="155" height="155" rx="12.5" fill="white"/>
<rect x="7.5" y="7.5" width="155" height="155" rx="12.5" fill="url(#paint0_linear_1_2011)" fill-opacity="0.2"/>
<path id="Vector" d="M117.083 103.487V43.8672H26.6667V103.487C26.6667 106.109 28.7025 108.256 31.1875 108.256H112.563C115.048 108.256 117.083 106.109 117.083 103.487Z" fill="url(#paint1_linear_1_2011)"/>
<path id="Vector_2" opacity="0.05" d="M57.4375 58.75C53.3367 58.75 50 62.0954 50 66.2138V108.255H112.563C115.048 108.255 117.083 106.108 117.083 103.486V58.75H57.4375Z" fill="black"/>
<path id="Vector_3" opacity="0.07" d="M57.4375 60.207C54.1417 60.207 51.4583 62.902 51.4583 66.2124V108.253H112.562C115.047 108.253 117.083 106.107 117.083 103.485V60.207H57.4375Z" fill="black"/>
<path id="Vector_4" d="M26.6667 37.0471V44.7179H117.083V37.0471C117.083 34.5446 115.048 32.5 112.563 32.5H31.1875C28.6996 32.5 26.6667 34.5446 26.6667 37.0471Z" fill="url(#paint2_linear_1_2011)"/>
<path id="Vector_5" d="M143.333 132.651V73.0312H52.9167V132.651C52.9167 135.273 54.9525 137.42 57.4375 137.42H138.813C141.298 137.42 143.333 135.273 143.333 132.651Z" fill="#50E6FF"/>
<path id="Vector_6" d="M52.9167 66.2151V73.8859H143.333V66.2151C143.333 63.7126 141.298 61.668 138.813 61.668H57.4375C54.9496 61.668 52.9167 63.7126 52.9167 66.2151Z" fill="url(#paint3_linear_1_2011)"/>
<rect x="7.5" y="7.5" width="155" height="155" rx="12.5" stroke="#D5EAF6" stroke-width="15"/>
</g>
<defs>
<linearGradient id="paint0_linear_1_2011" x1="85" y1="15" x2="85" y2="155" gradientUnits="userSpaceOnUse">
<stop stop-color="#199AE0"/>
<stop offset="0.472222" stop-color="#0D5176" stop-opacity="0.527778"/>
<stop offset="0.940972" stop-color="#12A6F7" stop-opacity="0.465278"/>
<stop offset="1" stop-opacity="0"/>
</linearGradient>
<linearGradient id="paint1_linear_1_2011" x1="26.6667" y1="76.0614" x2="117.083" y2="76.0614" gradientUnits="userSpaceOnUse">
<stop stop-color="#199AE0"/>
<stop offset="1" stop-color="#0782D8"/>
</linearGradient>
<linearGradient id="paint2_linear_1_2011" x1="21.3933" y1="38.6104" x2="116.398" y2="38.6104" gradientUnits="userSpaceOnUse">
<stop stop-color="#004C87"/>
<stop offset="1" stop-color="#003A70"/>
</linearGradient>
<linearGradient id="paint3_linear_1_2011" x1="73.7067" y1="67.7784" x2="177.216" y2="67.7784" gradientUnits="userSpaceOnUse">
<stop stop-color="#2AA4F4"/>
<stop offset="1" stop-color="#007AD9"/>
</linearGradient>
</defs>
</svg>
