<svg width="170" height="170" viewBox="0 0 170 170" fill="none" xmlns="http://www.w3.org/2000/svg">
<g id="tasklist">
<rect x="7.5" y="7.5" width="155" height="155" rx="12.5" fill="white"/>
<rect x="7.5" y="7.5" width="155" height="155" rx="12.5" fill="url(#paint0_linear_1_2073)" fill-opacity="0.2"/>
<path id="Vector" d="M137.5 35.418H32.5C29.2771 35.418 26.6667 38.0284 26.6667 41.2513V128.751C26.6667 131.974 29.2771 134.585 32.5 134.585H137.5C140.723 134.585 143.333 131.974 143.333 128.751V41.2513C143.333 38.0284 140.723 35.418 137.5 35.418Z" fill="url(#paint1_linear_1_2073)"/>
<path id="Vector_2" d="M74.7917 64.582H130.208C131.013 64.582 131.667 65.2354 131.667 66.0404V68.957C131.667 69.762 131.013 70.4154 130.208 70.4154H74.7917C73.9867 70.4154 73.3333 69.762 73.3333 68.957V66.0404C73.3333 65.2354 73.9867 64.582 74.7917 64.582Z" fill="#35C1F1"/>
<path id="Vector_3" d="M74.7917 82.082H130.208C131.013 82.082 131.667 82.7354 131.667 83.5404V86.457C131.667 87.262 131.013 87.9154 130.208 87.9154H74.7917C73.9867 87.9154 73.3333 87.262 73.3333 86.457V83.5404C73.3333 82.7354 73.9867 82.082 74.7917 82.082Z" fill="#35C1F1"/>
<path id="Vector_4" d="M42.7083 82.082H51.4583C52.2633 82.082 52.9167 82.7354 52.9167 83.5404V86.457C52.9167 87.262 52.2633 87.9154 51.4583 87.9154H42.7083C41.9033 87.9154 41.25 87.262 41.25 86.457V83.5404C41.25 82.7354 41.9033 82.082 42.7083 82.082Z" fill="#0782D8"/>
<path id="Vector_5" d="M42.7083 99.582H51.4583C52.2633 99.582 52.9167 100.235 52.9167 101.04V103.957C52.9167 104.762 52.2633 105.415 51.4583 105.415H42.7083C41.9033 105.415 41.25 104.762 41.25 103.957V101.04C41.25 100.235 41.9033 99.582 42.7083 99.582Z" fill="#0782D8"/>
<path id="Vector_6" d="M74.7917 99.582H130.208C131.013 99.582 131.667 100.235 131.667 101.04V103.957C131.667 104.762 131.013 105.415 130.208 105.415H74.7917C73.9867 105.415 73.3333 104.762 73.3333 103.957V101.04C73.3333 100.235 73.9867 99.582 74.7917 99.582Z" fill="#35C1F1"/>
<path id="Vector_7" d="M45.0212 72.4798L35.8425 63.3011C35.2737 62.7323 35.2737 61.8078 35.8425 61.239L37.9046 59.1769C38.4733 58.6082 39.3979 58.6082 39.9667 59.1769L47.0833 66.2936L62.8683 50.5086C63.4371 49.9398 64.3617 49.9398 64.9304 50.5086L66.9925 52.5707C67.5612 53.1394 67.5612 54.064 66.9925 54.6328L49.1454 72.4798C48.0079 73.6173 46.1587 73.6173 45.0212 72.4798Z" fill="#35C1F1"/>
<rect x="7.5" y="7.5" width="155" height="155" rx="12.5" stroke="#D5EAF6" stroke-width="15"/>
</g>
<defs>
<linearGradient id="paint0_linear_1_2073" x1="85" y1="15" x2="85" y2="155" gradientUnits="userSpaceOnUse">
<stop stop-color="#199AE0"/>
<stop offset="0.472222" stop-color="#0D5176" stop-opacity="0.527778"/>
<stop offset="0.940972" stop-color="#12A6F7" stop-opacity="0.465278"/>
<stop offset="1" stop-opacity="0"/>
</linearGradient>
<linearGradient id="paint1_linear_1_2073" x1="77.9125" y1="34.9076" x2="92.1633" y2="135.614" gradientUnits="userSpaceOnUse">
<stop stop-color="#0D61A9"/>
<stop offset="1" stop-color="#16528C"/>
</linearGradient>
</defs>
</svg>
