<svg width="170" height="170" viewBox="0 0 170 170" fill="none" xmlns="http://www.w3.org/2000/svg">
<g id="template">
<rect x="7.5" y="7.5" width="155" height="155" rx="12.5" fill="white"/>
<rect x="7.5" y="7.5" width="155" height="155" rx="12.5" fill="url(#paint0_linear_1_2081)" fill-opacity="0.2"/>
<path id="Vector" d="M137.5 38.332H32.5C29.2917 38.332 26.6667 40.957 26.6667 44.1654V125.832C26.6667 129.04 29.2917 131.665 32.5 131.665H137.5C140.708 131.665 143.333 129.04 143.333 125.832V44.1654C143.333 40.957 140.708 38.332 137.5 38.332Z" fill="#50E6FF"/>
<path id="Vector_2" d="M131.667 49.9987V61.6654C131.667 63.4154 130.208 64.582 128.458 64.582H41.5417C39.7917 64.582 38.3333 63.4154 38.3333 61.6654V49.9987C38.3333 48.2487 39.7917 47.082 41.5417 47.082H128.75C130.208 47.082 131.667 48.2487 131.667 49.9987Z" fill="#35C1F1"/>
<path id="Vector_3" d="M79.1667 117.957V78.2904C79.1667 75.6654 77.125 73.332 74.5 73.332H43C40.375 73.332 38.3333 75.6654 38.3333 78.2904V117.957C38.3333 120.582 40.375 122.915 43 122.915H74.7917C77.125 122.915 79.1667 120.582 79.1667 117.957Z" fill="url(#paint1_linear_1_2081)"/>
<path id="Vector_4" d="M131.667 117.957V78.2904C131.667 75.6654 129.625 73.332 127 73.332H95.5C92.875 73.332 90.8333 75.6654 90.8333 78.2904V117.957C90.8333 120.582 92.875 122.915 95.5 122.915H127.292C129.625 122.915 131.667 120.582 131.667 117.957Z" fill="url(#paint2_linear_1_2081)"/>
<rect x="7.5" y="7.5" width="155" height="155" rx="12.5" stroke="#D5EAF6" stroke-width="15"/>
</g>
<defs>
<linearGradient id="paint0_linear_1_2081" x1="85" y1="15" x2="85" y2="155" gradientUnits="userSpaceOnUse">
<stop stop-color="#199AE0"/>
<stop offset="0.472222" stop-color="#0D5176" stop-opacity="0.527778"/>
<stop offset="0.940972" stop-color="#12A6F7" stop-opacity="0.465278"/>
<stop offset="1" stop-opacity="0"/>
</linearGradient>
<linearGradient id="paint1_linear_1_2081" x1="38.3333" y1="98.1237" x2="79.1667" y2="98.1237" gradientUnits="userSpaceOnUse">
<stop stop-color="#3079D6"/>
<stop offset="1" stop-color="#297CD2"/>
</linearGradient>
<linearGradient id="paint2_linear_1_2081" x1="90.8333" y1="98.1237" x2="131.667" y2="98.1237" gradientUnits="userSpaceOnUse">
<stop stop-color="#3079D6"/>
<stop offset="1" stop-color="#297CD2"/>
</linearGradient>
</defs>
</svg>
