<svg width="170" height="170" viewBox="0 0 170 170" fill="none" xmlns="http://www.w3.org/2000/svg">
<g id="text-box">
<rect x="7.5" y="7.5" width="155" height="155" rx="12.5" fill="white"/>
<rect x="7.5" y="7.5" width="155" height="155" rx="12.5" fill="url(#paint0_linear_1_2112)" fill-opacity="0.2"/>
<path id="Vector" d="M131.678 137.41L38.4237 137.5C35.2183 137.503 32.5933 134.884 32.5904 131.678L32.5 38.4238C32.4971 35.2183 35.1162 32.5933 38.3217 32.5904L131.576 32.5C134.782 32.4971 137.407 35.1163 137.41 38.3217L137.5 131.576C137.503 134.782 134.884 137.407 131.678 137.41Z" fill="url(#paint1_linear_1_2112)"/>
<path id="Vector_2" d="M128.665 41.25L128.75 128.665L41.3346 128.75L41.25 41.3346L128.665 41.25Z" fill="url(#paint2_linear_1_2112)"/>
<path id="Vector_3" d="M102.5 70.4167H90.8333V108.333C90.8333 109.943 89.5267 111.25 87.9167 111.25H82.0833C80.4733 111.25 79.1667 109.943 79.1667 108.333V70.4167H67.5C65.89 70.4167 64.5833 69.11 64.5833 67.5V61.6667C64.5833 60.0567 65.89 58.75 67.5 58.75H102.5C104.11 58.75 105.417 60.0567 105.417 61.6667V67.5C105.417 69.11 104.11 70.4167 102.5 70.4167Z" fill="url(#paint3_linear_1_2112)"/>
<path id="Vector_4" d="M29.5833 122.918H44.1667C45.7767 122.918 47.0833 124.225 47.0833 125.835V140.418C47.0833 142.028 45.7767 143.335 44.1667 143.335H29.5833C27.9733 143.335 26.6667 142.028 26.6667 140.418V125.835C26.6667 124.225 27.9733 122.918 29.5833 122.918Z" fill="url(#paint4_linear_1_2112)"/>
<path id="Vector_5" d="M126.32 122.918H139.932C141.811 122.918 143.333 124.44 143.333 126.322V139.934C143.333 141.812 141.811 143.335 139.93 143.335H126.317C124.439 143.335 122.917 141.812 122.917 139.931V126.319C122.917 124.44 124.439 122.918 126.32 122.918Z" fill="url(#paint5_linear_1_2112)"/>
<path id="Vector_6" d="M29.5833 26.668H44.1667C45.7767 26.668 47.0833 27.9746 47.0833 29.5846V44.168C47.0833 45.778 45.7767 47.0846 44.1667 47.0846H29.5833C27.9733 47.0846 26.6667 45.778 26.6667 44.168V29.5846C26.6667 27.9746 27.9733 26.668 29.5833 26.668Z" fill="url(#paint6_linear_1_2112)"/>
<path id="Vector_7" d="M125.833 26.668H140.417C142.027 26.668 143.333 27.9746 143.333 29.5846V44.168C143.333 45.778 142.027 47.0846 140.417 47.0846H125.833C124.223 47.0846 122.917 45.778 122.917 44.168V29.5846C122.917 27.9746 124.223 26.668 125.833 26.668Z" fill="url(#paint7_linear_1_2112)"/>
<rect x="7.5" y="7.5" width="155" height="155" rx="12.5" stroke="#D5EAF6" stroke-width="15"/>
</g>
<defs>
<linearGradient id="paint0_linear_1_2112" x1="85" y1="15" x2="85" y2="155" gradientUnits="userSpaceOnUse">
<stop stop-color="#199AE0"/>
<stop offset="0.472222" stop-color="#0D5176" stop-opacity="0.527778"/>
<stop offset="0.940972" stop-color="#12A6F7" stop-opacity="0.465278"/>
<stop offset="1" stop-opacity="0"/>
</linearGradient>
<linearGradient id="paint1_linear_1_2112" x1="74.6138" y1="26.1008" x2="95.3862" y2="143.899" gradientUnits="userSpaceOnUse">
<stop stop-color="#0176D0"/>
<stop offset="1" stop-color="#22A5E2"/>
</linearGradient>
<linearGradient id="paint2_linear_1_2112" x1="76.215" y1="35.1687" x2="93.785" y2="134.831" gradientUnits="userSpaceOnUse">
<stop stop-color="#FAFAFB"/>
<stop offset="0.293" stop-color="#F6F7F8"/>
<stop offset="0.566" stop-color="#EBECEE"/>
<stop offset="0.832" stop-color="#D8DCDF"/>
<stop offset="1" stop-color="#C8CDD1"/>
</linearGradient>
<linearGradient id="paint3_linear_1_2112" x1="83.4658" y1="55.8887" x2="93.0762" y2="110.387" gradientUnits="userSpaceOnUse">
<stop stop-color="#A235D4"/>
<stop offset="0.441" stop-color="#A033D1"/>
<stop offset="0.702" stop-color="#982CC9"/>
<stop offset="0.915" stop-color="#8B21BB"/>
<stop offset="1" stop-color="#831BB3"/>
</linearGradient>
<linearGradient id="paint4_linear_1_2112" x1="34.9004" y1="121.935" x2="38.8496" y2="144.318" gradientUnits="userSpaceOnUse">
<stop stop-color="#3079D6"/>
<stop offset="1" stop-color="#297CD2"/>
</linearGradient>
<linearGradient id="paint5_linear_1_2112" x1="131.165" y1="122.011" x2="135.085" y2="144.242" gradientUnits="userSpaceOnUse">
<stop stop-color="#3079D6"/>
<stop offset="1" stop-color="#297CD2"/>
</linearGradient>
<linearGradient id="paint6_linear_1_2112" x1="34.9004" y1="25.6851" x2="38.8496" y2="48.0676" gradientUnits="userSpaceOnUse">
<stop stop-color="#3079D6"/>
<stop offset="1" stop-color="#297CD2"/>
</linearGradient>
<linearGradient id="paint7_linear_1_2112" x1="131.15" y1="25.6851" x2="135.1" y2="48.0676" gradientUnits="userSpaceOnUse">
<stop stop-color="#3079D6"/>
<stop offset="1" stop-color="#297CD2"/>
</linearGradient>
</defs>
</svg>
