<svg width="170" height="170" viewBox="0 0 170 170" fill="none" xmlns="http://www.w3.org/2000/svg">
<g id="thumbs-up">
<g clip-path="url(#clip0_1_2137)">
<rect x="15" y="15" width="140" height="140" rx="5" fill="white"/>
<rect x="15" y="15" width="140" height="140" rx="5" fill="url(#paint0_linear_1_2137)" fill-opacity="0.2"/>
<path id="Vector" d="M52.9167 55.832H29.5833C26.3604 55.832 23.75 58.4424 23.75 61.6654V131.665C23.75 134.888 26.3604 137.499 29.5833 137.499H52.9167V55.832Z" fill="url(#paint1_linear_1_2137)"/>
<path id="Vector_2" d="M137.494 55.8333H93.75L96.6667 44.1667C96.6667 44.1667 105.417 38.3333 105.417 26.6667C105.417 20.2237 100.193 15 93.75 15L52.9167 55.8333V137.5H124.996C130.497 137.5 135.251 133.656 136.403 128.278L148.904 69.9442C150.459 62.6817 144.923 55.8333 137.494 55.8333Z" fill="url(#paint2_linear_1_2137)"/>
</g>
<rect x="7.5" y="7.5" width="155" height="155" rx="12.5" stroke="#D5EAF6" stroke-width="15"/>
</g>
<defs>
<linearGradient id="paint0_linear_1_2137" x1="85" y1="15" x2="85" y2="155" gradientUnits="userSpaceOnUse">
<stop stop-color="#199AE0"/>
<stop offset="0.472222" stop-color="#0D5176" stop-opacity="0.527778"/>
<stop offset="0.940972" stop-color="#12A6F7" stop-opacity="0.465278"/>
<stop offset="1" stop-opacity="0"/>
</linearGradient>
<linearGradient id="paint1_linear_1_2137" x1="28.4867" y1="55.5112" x2="47.9729" y2="131.913" gradientUnits="userSpaceOnUse">
<stop stop-color="#0077D2"/>
<stop offset="1" stop-color="#0B59A2"/>
</linearGradient>
<linearGradient id="paint2_linear_1_2137" x1="67.6283" y1="19.4829" x2="116.882" y2="140.169" gradientUnits="userSpaceOnUse">
<stop stop-color="#FFCF54"/>
<stop offset="0.261" stop-color="#FDCB4D"/>
<stop offset="0.639" stop-color="#F7C13A"/>
<stop offset="1" stop-color="#F0B421"/>
</linearGradient>
<clipPath id="clip0_1_2137">
<rect x="15" y="15" width="140" height="140" rx="5" fill="white"/>
</clipPath>
</defs>
</svg>
