<svg width="170" height="170" viewBox="0 0 170 170" fill="none" xmlns="http://www.w3.org/2000/svg">
<g id="timetable">
<rect x="7.5" y="7.5" width="155" height="155" rx="12.5" fill="white"/>
<rect x="7.5" y="7.5" width="155" height="155" rx="12.5" fill="url(#paint0_linear_1_2229)" fill-opacity="0.2"/>
<path id="Vector" d="M32.5 131.667V50H137.5V131.667C137.491 134.884 134.884 137.491 131.667 137.5H38.3333C35.1162 137.491 32.5088 134.884 32.5 131.667Z" fill="url(#paint1_linear_1_2229)"/>
<path id="Vector_2" d="M137.5 38.3333V55.8333H32.5V38.3333C32.5088 35.1162 35.1162 32.5088 38.3333 32.5H131.667C134.884 32.5088 137.491 35.1162 137.5 38.3333Z" fill="url(#paint2_linear_1_2229)"/>
<path id="Vector_3" opacity="0.05" d="M118.542 51.4583C113.709 51.4583 109.792 47.5413 109.792 42.7083V32.5H127.292V42.7083C127.292 47.5413 123.375 51.4583 118.542 51.4583Z" fill="black"/>
<path id="Vector_4" opacity="0.07" d="M118.542 49.2708C114.919 49.2708 111.979 46.3338 111.979 42.7113V42.7083V32.5H125.104V42.7083C125.104 46.3308 122.167 49.2708 118.542 49.2708C118.542 49.2708 118.545 49.2708 118.542 49.2708Z" fill="black"/>
<path id="Vector_5" opacity="0.05" d="M51.4583 51.4583C46.6254 51.4583 42.7083 47.5413 42.7083 42.7083V32.5H60.2083V42.7083C60.2083 47.5413 56.2912 51.4583 51.4583 51.4583Z" fill="black"/>
<path id="Vector_6" opacity="0.07" d="M51.4583 49.2708C47.8358 49.2708 44.8958 46.3338 44.8958 42.7113V42.7083V32.5H58.0208V42.7083C58.0208 46.3308 55.0837 49.2708 51.4583 49.2708C51.4583 49.2708 51.4612 49.2708 51.4583 49.2708Z" fill="black"/>
<path id="Vector_7" d="M51.4583 47.0846C49.0433 47.0846 47.0833 45.1246 47.0833 42.7096V31.043C47.0833 28.628 49.0433 26.668 51.4583 26.668C53.8733 26.668 55.8333 28.628 55.8333 31.043V42.7096C55.8333 45.1246 53.8733 47.0846 51.4583 47.0846Z" fill="#3CCBF4"/>
<path id="Vector_8" d="M115.625 70.418H124.375C125.18 70.418 125.833 71.0713 125.833 71.8763V80.6263C125.833 81.4313 125.18 82.0846 124.375 82.0846H115.625C114.82 82.0846 114.167 81.4313 114.167 80.6263V71.8763C114.167 71.0713 114.82 70.418 115.625 70.418Z" fill="#E52030"/>
<path id="Vector_9" d="M115.625 111.25H124.375C125.18 111.25 125.833 111.903 125.833 112.708V121.458C125.833 122.263 125.18 122.917 124.375 122.917H115.625C114.82 122.917 114.167 122.263 114.167 121.458V112.708C114.167 111.903 114.82 111.25 115.625 111.25Z" fill="white"/>
<path id="Vector_10" d="M92.2917 70.418H101.042C101.847 70.418 102.5 71.0713 102.5 71.8763V80.6263C102.5 81.4313 101.847 82.0846 101.042 82.0846H92.2917C91.4867 82.0846 90.8333 81.4313 90.8333 80.6263V71.8763C90.8333 71.0713 91.4867 70.418 92.2917 70.418Z" fill="#E52030"/>
<path id="Vector_11" d="M68.9583 70.418H77.7083C78.5133 70.418 79.1667 71.0713 79.1667 71.8763V80.6263C79.1667 81.4313 78.5133 82.0846 77.7083 82.0846H68.9583C68.1533 82.0846 67.5 81.4313 67.5 80.6263V71.8763C67.5 71.0713 68.1533 70.418 68.9583 70.418Z" fill="#E52030"/>
<path id="Vector_12" d="M45.625 70.418H54.375C55.18 70.418 55.8333 71.0713 55.8333 71.8763V80.6263C55.8333 81.4313 55.18 82.0846 54.375 82.0846H45.625C44.82 82.0846 44.1667 81.4313 44.1667 80.6263V71.8763C44.1667 71.0713 44.82 70.418 45.625 70.418Z" fill="#E52030"/>
<path id="Vector_13" d="M92.2917 90.832H101.042C101.847 90.832 102.5 91.4854 102.5 92.2904V101.04C102.5 101.845 101.847 102.499 101.042 102.499H92.2917C91.4867 102.499 90.8333 101.845 90.8333 101.04V92.2904C90.8333 91.4854 91.4867 90.832 92.2917 90.832Z" fill="white"/>
<path id="Vector_14" d="M92.2917 111.25H101.042C101.847 111.25 102.5 111.903 102.5 112.708V121.458C102.5 122.263 101.847 122.917 101.042 122.917H92.2917C91.4867 122.917 90.8333 122.263 90.8333 121.458V112.708C90.8333 111.903 91.4867 111.25 92.2917 111.25Z" fill="white"/>
<path id="Vector_15" d="M115.625 90.832H124.375C125.18 90.832 125.833 91.4854 125.833 92.2904V101.04C125.833 101.845 125.18 102.499 124.375 102.499H115.625C114.82 102.499 114.167 101.845 114.167 101.04V92.2904C114.167 91.4854 114.82 90.832 115.625 90.832Z" fill="white"/>
<path id="Vector_16" d="M68.9583 90.832H77.7083C78.5133 90.832 79.1667 91.4854 79.1667 92.2904V101.04C79.1667 101.845 78.5133 102.499 77.7083 102.499H68.9583C68.1533 102.499 67.5 101.845 67.5 101.04V92.2904C67.5 91.4854 68.1533 90.832 68.9583 90.832Z" fill="white"/>
<path id="Vector_17" d="M45.625 90.832H54.375C55.18 90.832 55.8333 91.4854 55.8333 92.2904V101.04C55.8333 101.845 55.18 102.499 54.375 102.499H45.625C44.82 102.499 44.1667 101.845 44.1667 101.04V92.2904C44.1667 91.4854 44.82 90.832 45.625 90.832Z" fill="white"/>
<path id="Vector_18" d="M68.9583 111.25H77.7083C78.5133 111.25 79.1667 111.903 79.1667 112.708V121.458C79.1667 122.263 78.5133 122.917 77.7083 122.917H68.9583C68.1533 122.917 67.5 122.263 67.5 121.458V112.708C67.5 111.903 68.1533 111.25 68.9583 111.25Z" fill="white"/>
<path id="Vector_19" d="M45.625 111.25H54.375C55.18 111.25 55.8333 111.903 55.8333 112.708V121.458C55.8333 122.263 55.18 122.917 54.375 122.917H45.625C44.82 122.917 44.1667 122.263 44.1667 121.458V112.708C44.1667 111.903 44.82 111.25 45.625 111.25Z" fill="white"/>
<path id="Vector_20" d="M118.542 47.0846C116.127 47.0846 114.167 45.1246 114.167 42.7096V31.043C114.167 28.628 116.127 26.668 118.542 26.668C120.957 26.668 122.917 28.628 122.917 31.043V42.7096C122.917 45.1246 120.957 47.0846 118.542 47.0846Z" fill="#3CCBF4"/>
<path id="Vector_21" opacity="0.2" d="M132.314 137.499C135.175 137.49 137.491 135.174 137.5 132.313V93.1245C133.705 91.6779 129.616 90.832 125.314 90.832C106.271 90.832 90.8333 106.27 90.8333 125.313C90.8333 129.615 91.6792 133.704 93.1258 137.499H132.314Z" fill="url(#paint3_radial_1_2229)"/>
<path id="Vector_22" d="M125.833 155.001C141.942 155.001 155 141.943 155 125.835C155 109.726 141.942 96.668 125.833 96.668C109.725 96.668 96.6667 109.726 96.6667 125.835C96.6667 141.943 109.725 155.001 125.833 155.001Z" fill="url(#paint4_linear_1_2229)"/>
<path id="Vector_23" d="M125.833 149.167C138.72 149.167 149.167 138.72 149.167 125.833C149.167 112.947 138.72 102.5 125.833 102.5C112.947 102.5 102.5 112.947 102.5 125.833C102.5 138.72 112.947 149.167 125.833 149.167Z" fill="url(#paint5_radial_1_2229)"/>
<path id="Vector_24" d="M134.292 142.458C133.708 142.75 133.125 142.458 132.833 141.875L124.958 126.417C124.667 125.833 124.958 125.25 125.542 124.958C126.125 124.667 126.708 124.958 127 125.542L134.875 141C135.167 141.292 134.875 142.167 134.292 142.458Z" fill="#D83B01"/>
<path id="Vector_25" d="M125.833 127C125.542 127 125.25 127 124.958 126.708C124.667 126.417 124.667 125.542 124.958 125.25L137.208 113C137.5 112.708 138.375 112.708 138.667 113C138.958 113.292 138.958 114.167 138.667 114.458L126.417 126.708C126.417 126.708 126.125 127 125.833 127Z" fill="#45494D"/>
<path id="Vector_26" d="M125.833 127.585C125.542 127.585 125.25 127.585 124.958 127.293L113.583 121.751C112.708 121.46 112.417 120.293 112.708 119.418C113 118.543 114.167 118.251 115.042 118.543L126.417 124.085C127.292 124.376 127.583 125.543 127.292 126.418C127.292 127.293 126.417 127.585 125.833 127.585Z" fill="#45494D"/>
<path id="Vector_27" d="M125.833 128.751C127.444 128.751 128.75 127.445 128.75 125.835C128.75 124.224 127.444 122.918 125.833 122.918C124.222 122.918 122.917 124.224 122.917 125.835C122.917 127.445 124.222 128.751 125.833 128.751Z" fill="#1E2021"/>
<rect x="7.5" y="7.5" width="155" height="155" rx="12.5" stroke="#D5EAF6" stroke-width="15"/>
</g>
<defs>
<linearGradient id="paint0_linear_1_2229" x1="85" y1="15" x2="85" y2="155" gradientUnits="userSpaceOnUse">
<stop stop-color="#199AE0"/>
<stop offset="0.472222" stop-color="#0D5176" stop-opacity="0.527778"/>
<stop offset="0.940972" stop-color="#12A6F7" stop-opacity="0.465278"/>
<stop offset="1" stop-opacity="0"/>
</linearGradient>
<linearGradient id="paint1_linear_1_2229" x1="33.7075" y1="54.8475" x2="136.841" y2="130.173" gradientUnits="userSpaceOnUse">
<stop stop-color="#A8E2F7"/>
<stop offset="1" stop-color="#47C1FF"/>
</linearGradient>
<linearGradient id="paint2_linear_1_2229" x1="33.725" y1="34.2733" x2="135.161" y2="54.9" gradientUnits="userSpaceOnUse">
<stop stop-color="#0077D2"/>
<stop offset="1" stop-color="#0B59A2"/>
</linearGradient>
<radialGradient id="paint3_radial_1_2229" cx="0" cy="0" r="1" gradientUnits="userSpaceOnUse" gradientTransform="translate(124.643 124.922) scale(32.7658)">
<stop offset="0.847"/>
<stop offset="1" stop-opacity="0"/>
</radialGradient>
<linearGradient id="paint4_linear_1_2229" x1="105.21" y1="105.211" x2="146.457" y2="146.458" gradientUnits="userSpaceOnUse">
<stop stop-color="#889097"/>
<stop offset="1" stop-color="#64717C"/>
</linearGradient>
<radialGradient id="paint5_radial_1_2229" cx="0" cy="0" r="1" gradientUnits="userSpaceOnUse" gradientTransform="translate(125.682 103.042) scale(51.9983)">
<stop stop-color="#FAFAFB"/>
<stop offset="1" stop-color="#C8CDD1"/>
</radialGradient>
</defs>
</svg>
