<svg width="170" height="170" viewBox="0 0 170 170" fill="none" xmlns="http://www.w3.org/2000/svg">
<g id="topic">
<rect x="7.5" y="7.5" width="155" height="155" rx="12.5" fill="white"/>
<rect x="7.5" y="7.5" width="155" height="155" rx="12.5" fill="url(#paint0_linear_1_2268)" fill-opacity="0.2"/>
<path id="Vector" d="M137.5 38.332H32.5C29.2771 38.332 26.6667 40.9424 26.6667 44.1654V119.999C26.6667 123.222 29.2771 125.832 32.5 125.832H55.8333V149.16C55.8333 151.758 58.9746 153.059 60.8121 151.222L86.2017 125.832H137.5C140.723 125.832 143.333 123.222 143.333 119.999V44.1654C143.333 40.9424 140.723 38.332 137.5 38.332Z" fill="url(#paint1_linear_1_2268)"/>
<rect x="7.5" y="7.5" width="155" height="155" rx="12.5" stroke="#D5EAF6" stroke-width="15"/>
</g>
<defs>
<linearGradient id="paint0_linear_1_2268" x1="85" y1="15" x2="85" y2="155" gradientUnits="userSpaceOnUse">
<stop stop-color="#199AE0"/>
<stop offset="0.472222" stop-color="#0D5176" stop-opacity="0.527778"/>
<stop offset="0.940972" stop-color="#12A6F7" stop-opacity="0.465278"/>
<stop offset="1" stop-opacity="0"/>
</linearGradient>
<linearGradient id="paint1_linear_1_2268" x1="52.0008" y1="28.392" x2="118.775" y2="137.035" gradientUnits="userSpaceOnUse">
<stop stop-color="#0176D0"/>
<stop offset="1" stop-color="#0A85D9"/>
</linearGradient>
</defs>
</svg>
