<svg width="170" height="170" viewBox="0 0 170 170" fill="none" xmlns="http://www.w3.org/2000/svg">
<g id="underline">
<rect x="7.5" y="7.5" width="155" height="155" rx="12.5" fill="white"/>
<rect x="7.5" y="7.5" width="155" height="155" rx="12.5" fill="url(#paint0_linear_1_2298)" fill-opacity="0.2"/>
<path id="Vector" d="M134.583 134.582H35.4167C33.8038 134.582 32.5 135.886 32.5 137.499V143.332C32.5 144.942 33.8038 146.249 35.4167 146.249H134.583C136.193 146.249 137.5 144.942 137.5 143.332V137.499C137.5 135.886 136.193 134.582 134.583 134.582Z" fill="url(#paint1_linear_1_2298)"/>
<path id="Vector_2" d="M125.626 23.75H108.333C106.723 23.75 105.417 25.0567 105.417 26.6667V79.96C105.417 96.9292 98.6733 105.417 85.1896 105.417C71.4492 105.417 64.5833 96.6317 64.5833 79.0529V26.6667C64.5833 25.0567 63.2767 23.75 61.6667 23.75H44.3738C42.65 23.75 41.25 25.15 41.25 26.8738V79.2775C41.25 110.314 55.6087 125.833 84.335 125.833C113.945 125.833 128.75 109.946 128.75 78.1692V26.8738C128.75 25.15 127.35 23.75 125.626 23.75Z" fill="url(#paint2_linear_1_2298)"/>
<rect x="7.5" y="7.5" width="155" height="155" rx="12.5" stroke="#D5EAF6" stroke-width="15"/>
</g>
<defs>
<linearGradient id="paint0_linear_1_2298" x1="85" y1="15" x2="85" y2="155" gradientUnits="userSpaceOnUse">
<stop stop-color="#199AE0"/>
<stop offset="0.472222" stop-color="#0D5176" stop-opacity="0.527778"/>
<stop offset="0.940972" stop-color="#12A6F7" stop-opacity="0.465278"/>
<stop offset="1" stop-opacity="0"/>
</linearGradient>
<linearGradient id="paint1_linear_1_2298" x1="73.9458" y1="116.338" x2="115.57" y2="206.994" gradientUnits="userSpaceOnUse">
<stop stop-color="#FED100"/>
<stop offset="1" stop-color="#E36001"/>
</linearGradient>
<linearGradient id="paint2_linear_1_2298" x1="78.1371" y1="17.7475" x2="96.9963" y2="124.708" gradientUnits="userSpaceOnUse">
<stop stop-color="#A235D4"/>
<stop offset="0.441" stop-color="#A033D1"/>
<stop offset="0.702" stop-color="#982CC9"/>
<stop offset="0.915" stop-color="#8B21BB"/>
<stop offset="1" stop-color="#831BB3"/>
</linearGradient>
</defs>
</svg>
