<svg width="170" height="170" viewBox="0 0 170 170" fill="none" xmlns="http://www.w3.org/2000/svg">
<g id="ungroup-objects">
<rect x="7.5" y="7.5" width="155" height="155" rx="12.5" fill="white"/>
<rect x="7.5" y="7.5" width="155" height="155" rx="12.5" fill="url(#paint0_linear_1_2301)" fill-opacity="0.2"/>
<path id="Vector" d="M108.333 108.335H35.4167V35.418H108.333V108.335ZM41.25 102.501H102.5V41.2513H41.25V102.501Z" fill="#64717C"/>
<path id="Vector_2" d="M134.583 137.499H61.6667V105.415H67.5V131.665H128.75V70.4154H105.417V64.582H134.583V137.499Z" fill="#64717C"/>
<path id="Vector_3" d="M38.3333 47.082C43.1658 47.082 47.0833 43.1645 47.0833 38.332C47.0833 33.4995 43.1658 29.582 38.3333 29.582C33.5008 29.582 29.5833 33.4995 29.5833 38.332C29.5833 43.1645 33.5008 47.082 38.3333 47.082Z" fill="url(#paint1_linear_1_2301)"/>
<path id="Vector_4" d="M105.417 47.082C110.249 47.082 114.167 43.1645 114.167 38.332C114.167 33.4995 110.249 29.582 105.417 29.582C100.584 29.582 96.6667 33.4995 96.6667 38.332C96.6667 43.1645 100.584 47.082 105.417 47.082Z" fill="url(#paint2_linear_1_2301)"/>
<path id="Vector_5" d="M38.3333 114.168C43.1658 114.168 47.0833 110.25 47.0833 105.418C47.0833 100.585 43.1658 96.668 38.3333 96.668C33.5008 96.668 29.5833 100.585 29.5833 105.418C29.5833 110.25 33.5008 114.168 38.3333 114.168Z" fill="url(#paint3_linear_1_2301)"/>
<path id="Vector_6" d="M105.417 114.168C110.249 114.168 114.167 110.25 114.167 105.418C114.167 100.585 110.249 96.668 105.417 96.668C100.584 96.668 96.6667 100.585 96.6667 105.418C96.6667 110.25 100.584 114.168 105.417 114.168Z" fill="url(#paint4_linear_1_2301)"/>
<path id="Vector_7" d="M64.5833 140.418C69.4158 140.418 73.3333 136.5 73.3333 131.668C73.3333 126.835 69.4158 122.918 64.5833 122.918C59.7508 122.918 55.8333 126.835 55.8333 131.668C55.8333 136.5 59.7508 140.418 64.5833 140.418Z" fill="url(#paint5_linear_1_2301)"/>
<path id="Vector_8" d="M131.667 140.418C136.499 140.418 140.417 136.5 140.417 131.668C140.417 126.835 136.499 122.918 131.667 122.918C126.834 122.918 122.917 126.835 122.917 131.668C122.917 136.5 126.834 140.418 131.667 140.418Z" fill="url(#paint6_linear_1_2301)"/>
<path id="Vector_9" d="M131.667 73.332C136.499 73.332 140.417 69.4145 140.417 64.582C140.417 59.7495 136.499 55.832 131.667 55.832C126.834 55.832 122.917 59.7495 122.917 64.582C122.917 69.4145 126.834 73.332 131.667 73.332Z" fill="url(#paint7_linear_1_2301)"/>
<rect x="7.5" y="7.5" width="155" height="155" rx="12.5" stroke="#D5EAF6" stroke-width="15"/>
</g>
<defs>
<linearGradient id="paint0_linear_1_2301" x1="85" y1="15" x2="85" y2="155" gradientUnits="userSpaceOnUse">
<stop stop-color="#199AE0"/>
<stop offset="0.472222" stop-color="#0D5176" stop-opacity="0.527778"/>
<stop offset="0.940972" stop-color="#12A6F7" stop-opacity="0.465278"/>
<stop offset="1" stop-opacity="0"/>
</linearGradient>
<linearGradient id="paint1_linear_1_2301" x1="32.5321" y1="32.5308" x2="44.7879" y2="44.7866" gradientUnits="userSpaceOnUse">
<stop stop-color="#0176D0"/>
<stop offset="1" stop-color="#0A85D9"/>
</linearGradient>
<linearGradient id="paint2_linear_1_2301" x1="99.6154" y1="32.5308" x2="111.868" y2="44.7866" gradientUnits="userSpaceOnUse">
<stop stop-color="#0176D0"/>
<stop offset="1" stop-color="#0A85D9"/>
</linearGradient>
<linearGradient id="paint3_linear_1_2301" x1="32.5321" y1="99.6167" x2="44.7879" y2="111.87" gradientUnits="userSpaceOnUse">
<stop stop-color="#0176D0"/>
<stop offset="1" stop-color="#0A85D9"/>
</linearGradient>
<linearGradient id="paint4_linear_1_2301" x1="99.6154" y1="99.6167" x2="111.868" y2="111.87" gradientUnits="userSpaceOnUse">
<stop stop-color="#0176D0"/>
<stop offset="1" stop-color="#0A85D9"/>
</linearGradient>
<linearGradient id="paint5_linear_1_2301" x1="58.7821" y1="125.867" x2="71.035" y2="138.12" gradientUnits="userSpaceOnUse">
<stop stop-color="#0176D0"/>
<stop offset="1" stop-color="#0A85D9"/>
</linearGradient>
<linearGradient id="paint6_linear_1_2301" x1="125.865" y1="125.867" x2="138.118" y2="138.12" gradientUnits="userSpaceOnUse">
<stop stop-color="#0176D0"/>
<stop offset="1" stop-color="#0A85D9"/>
</linearGradient>
<linearGradient id="paint7_linear_1_2301" x1="125.865" y1="58.7808" x2="138.118" y2="71.0337" gradientUnits="userSpaceOnUse">
<stop stop-color="#0176D0"/>
<stop offset="1" stop-color="#0A85D9"/>
</linearGradient>
</defs>
</svg>
