<svg width="170" height="170" viewBox="0 0 170 170" fill="none" xmlns="http://www.w3.org/2000/svg">
<g id="variable">
<rect x="7.5" y="7.5" width="155" height="155" rx="12.5" fill="white"/>
<rect x="7.5" y="7.5" width="155" height="155" rx="12.5" fill="url(#paint0_linear_1_2393)" fill-opacity="0.2"/>
<path id="Vector" d="M26.6667 125.835V52.918H143.333V125.835C143.333 129.043 140.708 131.668 137.5 131.668H32.5C29.2917 131.668 26.6667 129.043 26.6667 125.835Z" fill="url(#paint1_linear_1_2393)"/>
<path id="Vector_2" d="M143.333 44.1654V52.9154H26.6667V44.1654C26.6667 40.957 29.2917 38.332 32.5 38.332H137.5C140.708 38.332 143.333 40.957 143.333 44.1654Z" fill="url(#paint2_linear_1_2393)"/>
<path id="Vector_3" opacity="0.05" d="M102.792 71.582L101.917 70.707H90.25L94.0417 75.3737C95.2083 76.5404 96.0833 77.9987 96.6667 79.457H88.2083L85.2917 84.9987L82.375 79.457H73.3333C74.2083 77.9987 75.0833 76.832 75.9583 75.3737L79.75 70.707H68.0833L67.2083 71.582C62.25 77.4154 59.625 84.4154 59.625 92.582C59.625 100.749 62.25 107.749 67.2083 113.29L68.0833 114.165H79.75L75.6667 109.499C75.0833 108.915 74.5 108.04 73.9167 107.165H81.5L84.7083 101.624L87.9167 107.165H95.7917C95.2083 108.04 94.625 108.624 94.0417 109.207L89.9583 113.874H101.625L102.5 112.999C107.458 107.457 110.083 100.457 110.083 92.2904C110.375 84.4154 107.75 77.4154 102.792 71.582ZM71.875 102.499C70.7083 99.2904 69.8333 96.082 69.8333 92.2904C69.8333 88.7904 70.4167 85.582 71.5833 82.6654L78.2917 93.1654L71.875 102.499ZM91.7083 93.1654L98.4167 82.957C99.5833 85.8737 99.875 89.082 99.875 92.2904C99.875 96.082 99.2917 99.582 97.8333 102.79L91.7083 93.1654Z" fill="black"/>
<path id="Vector_4" opacity="0.07" d="M68.6667 112.417L68.375 111.833C63.7083 106.583 61.375 99.875 61.375 92.2917C61.375 84.4167 63.7083 77.7083 68.375 72.4583L68.6667 71.875H76.5417L74.5 74.2083C70.4167 79.4583 68.0833 85.2917 68.0833 92.2917C68.0833 99 70.125 105.125 74.2083 110.083L76.25 112.417H68.6667V112.417Z" fill="black"/>
<path id="Vector_5" d="M73.625 110.957H69.5417C65.1667 105.999 62.8333 99.582 62.8333 92.2904C62.8333 84.9987 65.1667 78.582 69.5417 73.332H73.625C69.25 78.8737 66.9167 84.9987 66.9167 92.2904C66.9167 99.582 69.25 105.707 73.625 110.957Z" fill="white"/>
<path id="Vector_6" opacity="0.07" d="M88.7917 105.71L85 98.7096L80.9167 105.71H71.5833L80.0417 93.4596L72.1667 80.918H81.5L85.2917 87.918L89.375 80.918H98.125L89.9583 93.4596L98.125 105.71H88.7917Z" fill="black"/>
<path id="Vector_7" d="M95.5 82.375L88.2083 93.4583L95.5 104.25H89.6667L85.875 97.5417C85.5833 97.25 85.2917 96.6667 85 96.0833C85 96.0833 84.7083 96.6667 84.125 97.5417L80.3333 104.25H74.5L81.7917 93.4583L74.7917 82.375H80.625L84.4167 89.375C84.7083 89.9583 85 90.5417 85.2917 91.125L90.25 82.375H95.5Z" fill="white"/>
<path id="Vector_8" opacity="0.07" d="M93.1667 112.417L95.2083 110.083C99.2917 105.125 101.625 99 101.625 92.2917C101.625 85.5833 99.5833 79.4583 95.2083 74.2083L93.1667 71.875H101.042L101.333 72.4583C106 78 108.333 84.7083 108.333 92.2917C108.333 99.875 106 106.583 101.042 111.833L100.75 112.417H93.1667V112.417Z" fill="black"/>
<path id="Vector_9" d="M100.458 110.957H96.375C100.75 105.707 103.083 99.2904 103.083 92.2904C103.083 84.9987 100.75 78.8737 96.375 73.332H100.75C105.125 78.582 107.458 84.9987 107.458 92.2904C107.458 99.8737 105.125 105.999 100.458 110.957Z" fill="white"/>
<rect x="7.5" y="7.5" width="155" height="155" rx="12.5" stroke="#D5EAF6" stroke-width="15"/>
</g>
<defs>
<linearGradient id="paint0_linear_1_2393" x1="85" y1="15" x2="85" y2="155" gradientUnits="userSpaceOnUse">
<stop stop-color="#199AE0"/>
<stop offset="0.472222" stop-color="#0D5176" stop-opacity="0.527778"/>
<stop offset="0.940972" stop-color="#12A6F7" stop-opacity="0.465278"/>
<stop offset="1" stop-opacity="0"/>
</linearGradient>
<linearGradient id="paint1_linear_1_2393" x1="53.1179" y1="44.1651" x2="108.117" y2="123.72" gradientUnits="userSpaceOnUse">
<stop stop-color="#7DD8F3"/>
<stop offset="1" stop-color="#45B0D0"/>
</linearGradient>
<linearGradient id="paint2_linear_1_2393" x1="29.0233" y1="34.7737" x2="139.688" y2="57.2758" gradientUnits="userSpaceOnUse">
<stop stop-color="#0077D2"/>
<stop offset="1" stop-color="#0B59A2"/>
</linearGradient>
</defs>
</svg>
