<svg width="50" height="50" viewBox="0 0 50 50" fill="none" xmlns="http://www.w3.org/2000/svg">
<path d="M25.4312 10.8478L22.7896 8.20609C22.2042 7.62067 21.4094 7.2915 20.5802 7.2915H5.20833C4.05729 7.2915 3.125 8.2238 3.125 9.37484V40.6248C3.125 41.7759 4.05729 42.7082 5.20833 42.7082H44.7917C45.9427 42.7082 46.875 41.7759 46.875 40.6248V13.5415C46.875 12.3905 45.9427 11.4582 44.7917 11.4582H26.9042C26.3521 11.4582 25.8219 11.2384 25.4312 10.8478Z" fill="url(#paint0_linear_46_5626)"/>
<path d="M22.4854 15.0147L25.8896 11.6106C25.9865 11.5137 26.1187 11.4585 26.2573 11.4585H44.7917C45.9427 11.4585 46.875 12.3908 46.875 13.5418V40.6252C46.875 41.7762 45.9427 42.7085 44.7917 42.7085H5.20833C4.05729 42.7085 3.125 41.7762 3.125 40.6252V16.146C3.125 15.8585 3.35833 15.6252 3.64583 15.6252H21.0125C21.5646 15.6252 22.0948 15.4054 22.4854 15.0147Z" fill="url(#paint1_linear_46_5626)"/>
<path d="M17.7083 22.9165H27.0833C28.8021 22.9165 30.2083 24.3228 30.2083 26.0415V32.2915C30.2083 34.0103 28.8021 35.4165 27.0833 35.4165H17.7083C15.9896 35.4165 14.5833 34.0103 14.5833 32.2915V26.0415C14.5833 24.3228 15.9896 22.9165 17.7083 22.9165Z" fill="#33BEF0"/>
<path d="M35.4167 34.8958L30.2083 31.7708V26.5625L35.4167 23.4375V34.8958Z" fill="#0077D2"/>
<defs>
<linearGradient id="paint0_linear_46_5626" x1="25" y1="6.98734" x2="25" y2="15.6009" gradientUnits="userSpaceOnUse">
<stop stop-color="#EBA600"/>
<stop offset="1" stop-color="#C28200"/>
</linearGradient>
<linearGradient id="paint1_linear_46_5626" x1="25" y1="11.3064" x2="25" y2="42.6908" gradientUnits="userSpaceOnUse">
<stop stop-color="#FFD869"/>
<stop offset="1" stop-color="#FEC52B"/>
</linearGradient>
</defs>
</svg>
