<svg width="170" height="170" viewBox="0 0 170 170" fill="none" xmlns="http://www.w3.org/2000/svg">
<g id="windows-10">
<rect x="7.5" y="7.5" width="155" height="155" rx="12.5" fill="white"/>
<rect x="7.5" y="7.5" width="155" height="155" rx="12.5" fill="url(#paint0_linear_1_2457)" fill-opacity="0.2"/>
<path id="Vector" d="M73.3333 87.9938L29.6154 87.918L29.6183 120.007C29.6183 122.921 31.7679 125.385 34.6525 125.785L73.3333 131.137V87.9938Z" fill="url(#paint1_linear_1_2457)"/>
<path id="Vector_2" d="M79.1667 88.0039V131.943L133.773 139.498C137.278 139.982 140.405 137.261 140.405 133.72L140.417 88.1089L79.1667 88.0039Z" fill="url(#paint2_linear_1_2457)"/>
<path id="Vector_3" d="M73.3333 39.0781L34.6058 44.5615C31.7271 44.9698 29.5862 47.4344 29.5892 50.3423L29.6242 82.0815H73.3333V39.0781Z" fill="url(#paint3_linear_1_2457)"/>
<path id="Vector_4" d="M79.1667 38.253V82.0818H140.402V36.2988C140.402 32.7522 137.264 30.0251 133.752 30.5238L79.1667 38.253Z" fill="url(#paint4_linear_1_2457)"/>
<rect x="7.5" y="7.5" width="155" height="155" rx="12.5" stroke="#D5EAF6" stroke-width="15"/>
</g>
<defs>
<linearGradient id="paint0_linear_1_2457" x1="85" y1="15" x2="85" y2="155" gradientUnits="userSpaceOnUse">
<stop stop-color="#199AE0"/>
<stop offset="0.472222" stop-color="#0D5176" stop-opacity="0.527778"/>
<stop offset="0.940972" stop-color="#12A6F7" stop-opacity="0.465278"/>
<stop offset="1" stop-opacity="0"/>
</linearGradient>
<linearGradient id="paint1_linear_1_2457" x1="43.3004" y1="91.1817" x2="63.3729" y2="124.639" gradientUnits="userSpaceOnUse">
<stop stop-color="#1784D8"/>
<stop offset="1" stop-color="#0864C5"/>
</linearGradient>
<linearGradient id="paint2_linear_1_2457" x1="86.7617" y1="94.1289" x2="144.923" y2="134.277" gradientUnits="userSpaceOnUse">
<stop stop-color="#31ABEC"/>
<stop offset="1" stop-color="#1582D5"/>
</linearGradient>
<linearGradient id="paint3_linear_1_2457" x1="38.7475" y1="49.1202" x2="90.215" y2="95.4427" gradientUnits="userSpaceOnUse">
<stop stop-color="#31ABEC"/>
<stop offset="1" stop-color="#1582D5"/>
</linearGradient>
<linearGradient id="paint4_linear_1_2457" x1="90.5796" y1="44.5938" x2="178.424" y2="104.301" gradientUnits="userSpaceOnUse">
<stop stop-color="#54DAFF"/>
<stop offset="1" stop-color="#25A2E5"/>
</linearGradient>
</defs>
</svg>
