<svg width="199" height="199" viewBox="0 0 199 199" fill="none" xmlns="http://www.w3.org/2000/svg">
<path d="M172.887 12H26.1129C18.3186 12 12 18.3186 12 26.1129V172.887C12 180.681 18.3186 187 26.1129 187H172.887C180.681 187 187 180.681 187 172.887V26.1129C187 18.3186 180.681 12 172.887 12Z" fill="white"/>
<path d="M172.887 12H26.1129C18.3186 12 12 18.3186 12 26.1129V172.887C12 180.681 18.3186 187 26.1129 187H172.887C180.681 187 187 180.681 187 172.887V26.1129C187 18.3186 180.681 12 172.887 12Z" fill="url(#paint0_linear_17_22)" fill-opacity="0.2"/>
<path d="M172.887 12H26.1129C18.3186 12 12 18.3186 12 26.1129V172.887C12 180.681 18.3186 187 26.1129 187H172.887C180.681 187 187 180.681 187 172.887V26.1129C187 18.3186 180.681 12 172.887 12Z" stroke="#D5EAF6" stroke-width="15"/>
<path d="M150 110V145H130V107.5H147.5C148.88 107.5 150 108.62 150 110Z" fill="#61E3A7"/>
<path d="M130 107.5V145H110V107.5H130Z" fill="#33C481"/>
<path d="M110 87.5V145H90V87.5C90 86.12 91.12 85 92.5 85H107.5C108.88 85 110 86.12 110 87.5Z" fill="#21A366"/>
<path d="M90 100V145H70V102.5C70 101.12 71.12 100 72.5 100H90Z" fill="#107C42"/>
<path d="M70 115V145H50V117.5C50 116.12 51.12 115 52.5 115H70Z" fill="#185C37"/>
<path d="M51.5175 84.9075L81.5675 63.075L87.09 70.675L57.04 92.5075C55.9225 93.32 54.3575 93.0725 53.5475 91.955L50.965 88.4C50.15 87.285 50.3975 85.72 51.5175 84.9075Z" fill="#33C481"/>
<path d="M89.4974 80.15L92.1549 63.3775C92.3699 62.015 91.4399 60.7325 90.0774 60.5175L73.3049 57.86C72.2049 57.685 71.4424 58.93 72.0974 59.83L87.2524 80.69C87.9049 81.5875 89.3224 81.2475 89.4974 80.15Z" fill="#33C481"/>
<path d="M131.662 91.405C133.897 91.045 135.015 89.8725 135.015 87.8875C135.015 86.28 133.897 84.9675 131.662 83.95C130.697 83.5325 129.547 83.05 128.24 82.5475C124.582 81.12 122.085 79.575 120.75 77.91C119.622 76.5075 118.972 74.845 118.795 72.9225C118.542 70.1675 119.407 67.32 121.252 65.3425C122.997 63.4675 125.327 62.38 128.242 62.0775V58.7275C128.237 58.05 128.762 57.5 129.407 57.5H130.49C131.135 57.5 131.66 58.05 131.66 58.7275V61.9775C134.542 62.12 136.787 62.565 138.392 63.31C138.805 63.5025 139.045 63.95 139.045 64.425V68.265C139.045 69.1475 138.177 69.755 137.415 69.38C135.655 68.52 133.737 67.97 131.66 67.735C130.597 67.6125 129.32 67.575 128.157 67.7975C126.18 68.185 124.98 69.4975 124.977 71.4C124.975 73.09 126.047 74.4575 128.237 75.6325C129.442 76.2875 130.615 76.74 131.66 77.06C135.09 78.235 137.535 79.8375 139.02 81.5025C140.505 83.1675 141.247 85.18 141.247 87.5425C141.247 90.265 140.42 92.46 138.762 94.1225C137.105 95.7875 134.737 96.8 131.66 97.16V101.27C131.66 101.947 131.135 102.498 130.49 102.498H129.407C128.762 102.498 128.237 101.947 128.237 101.27V97.3075C125.322 97.2925 122.595 96.655 120.05 95.395C119.637 95.19 119.377 94.7375 119.377 94.2575V90.485C119.377 89.57 120.292 88.93 121.07 89.3425C121.745 89.7 122.532 90.0425 123.432 90.37C125.23 91.025 126.832 91.4025 128.237 91.5025C129.437 91.5775 130.582 91.55 131.662 91.405Z" fill="#107C42"/>
<defs>
<linearGradient id="paint0_linear_17_22" x1="99.5" y1="20.4677" x2="99.5" y2="178.532" gradientUnits="userSpaceOnUse">
<stop stop-color="white"/>
<stop offset="0.472222" stop-color="#0D5176" stop-opacity="0.527778"/>
<stop offset="0.940972" stop-color="#12A6F7" stop-opacity="0.465278"/>
<stop offset="1" stop-opacity="0"/>
</linearGradient>
</defs>
</svg>
