<svg width="199" height="199" viewBox="0 0 199 199" fill="none" xmlns="http://www.w3.org/2000/svg">
<g filter="url(#filter0_d_54_3995)">
<path d="M172.887 8H26.1129C18.3186 8 12 14.3186 12 22.1129V168.887C12 176.681 18.3186 183 26.1129 183H172.887C180.681 183 187 176.681 187 168.887V22.1129C187 14.3186 180.681 8 172.887 8Z" fill="white"/>
<path d="M172.887 8H26.1129C18.3186 8 12 14.3186 12 22.1129V168.887C12 176.681 18.3186 183 26.1129 183H172.887C180.681 183 187 176.681 187 168.887V22.1129C187 14.3186 180.681 8 172.887 8Z" fill="url(#paint0_linear_54_3995)" fill-opacity="0.2"/>
<path d="M172.887 8H26.1129C18.3186 8 12 14.3186 12 22.1129V168.887C12 176.681 18.3186 183 26.1129 183H172.887C180.681 183 187 176.681 187 168.887V22.1129C187 14.3186 180.681 8 172.887 8Z" stroke="#D5EAF6" stroke-width="15" stroke-linecap="round"/>
</g>
<path d="M46 83.7812L67.1481 67.0867C68.8344 65.7555 70.9269 65.0312 73.0835 65.0312H113.971V109.902L93.7708 125.228C87.13 130.267 78.9857 133 70.6086 133H46V83.7812Z" fill="url(#paint1_linear_54_3995)"/>
<path d="M155.255 109.562H88.7521C86.1276 109.562 84.0018 107.465 84.0018 104.875V62.6875C84.0018 60.0977 86.1276 58 88.7521 58H155.255C157.88 58 160.006 60.0977 160.006 62.6875V104.875C160.006 107.465 157.88 109.562 155.255 109.562Z" fill="url(#paint2_linear_54_3995)"/>
<path d="M67.3761 107.219L113.603 86.8423L123.315 102.843L110.347 112.642L81.6268 114.25L67.3761 107.219Z" fill="url(#paint3_linear_54_3995)"/>
<path d="M160.006 65.0312H84.0018V74.4062H160.006V65.0312Z" fill="url(#paint4_linear_54_3995)"/>
<path d="M117.254 104.875C122.501 104.875 126.754 100.678 126.754 95.4999C126.754 90.3222 122.501 86.1249 117.254 86.1249C112.007 86.1249 107.753 90.3222 107.753 95.4999C107.753 100.678 112.007 104.875 117.254 104.875Z" fill="url(#paint5_linear_54_3995)"/>
<path d="M117.254 101.359C120.533 101.359 123.192 98.736 123.192 95.5C123.192 92.264 120.533 89.6406 117.254 89.6406C113.974 89.6406 111.316 92.264 111.316 95.5C111.316 98.736 113.974 101.359 117.254 101.359Z" fill="#FFDE87"/>
<path d="M74.5015 102.531L84.0019 100.188V65.0312H74.5015V102.531Z" fill="url(#paint6_linear_54_3995)"/>
<defs>
<filter id="filter0_d_54_3995" x="0.5" y="0.5" width="198" height="198" filterUnits="userSpaceOnUse" color-interpolation-filters="sRGB">
<feFlood flood-opacity="0" result="BackgroundImageFix"/>
<feColorMatrix in="SourceAlpha" type="matrix" values="0 0 0 0 0 0 0 0 0 0 0 0 0 0 0 0 0 0 127 0" result="hardAlpha"/>
<feOffset dy="4"/>
<feGaussianBlur stdDeviation="2"/>
<feComposite in2="hardAlpha" operator="out"/>
<feColorMatrix type="matrix" values="0 0 0 0 0.8375 0 0 0 0 0.732812 0 0 0 0 0.732812 0 0 0 0.25 0"/>
<feBlend mode="normal" in2="BackgroundImageFix" result="effect1_dropShadow_54_3995"/>
<feBlend mode="normal" in="SourceGraphic" in2="effect1_dropShadow_54_3995" result="shape"/>
</filter>
<linearGradient id="paint0_linear_54_3995" x1="99.5" y1="16.4677" x2="99.5" y2="174.532" gradientUnits="userSpaceOnUse">
<stop stop-color="white"/>
<stop offset="0.472222" stop-color="#0D5176" stop-opacity="0.527778"/>
<stop offset="0.940972" stop-color="#12A6F7" stop-opacity="0.465278"/>
<stop offset="1" stop-opacity="0"/>
</linearGradient>
<linearGradient id="paint1_linear_54_3995" x1="64.0533" y1="66.4562" x2="96.9332" y2="135.454" gradientUnits="userSpaceOnUse">
<stop stop-color="#FFCF54"/>
<stop offset="0.261" stop-color="#FDCB4D"/>
<stop offset="0.639" stop-color="#F7C13A"/>
<stop offset="1" stop-color="#F0B421"/>
</linearGradient>
<linearGradient id="paint2_linear_54_3995" x1="115.695" y1="61.5578" x2="129.912" y2="112.984" gradientUnits="userSpaceOnUse">
<stop stop-color="#32BDEF"/>
<stop offset="1" stop-color="#1EA2E4"/>
</linearGradient>
<linearGradient id="paint3_linear_54_3995" x1="66.3168" y1="45.7142" x2="110.119" y2="137.628" gradientUnits="userSpaceOnUse">
<stop stop-color="#FFCF54"/>
<stop offset="0.261" stop-color="#FDCB4D"/>
<stop offset="0.639" stop-color="#F7C13A"/>
<stop offset="1" stop-color="#F0B421"/>
</linearGradient>
<linearGradient id="paint4_linear_54_3995" x1="84.0018" y1="69.7188" x2="160.006" y2="69.7188" gradientUnits="userSpaceOnUse">
<stop stop-color="#323538"/>
<stop offset="1" stop-color="#6D7479"/>
</linearGradient>
<linearGradient id="paint5_linear_54_3995" x1="93.3337" y1="46.6233" x2="128.554" y2="120.532" gradientUnits="userSpaceOnUse">
<stop stop-color="#FFCF54"/>
<stop offset="0.261" stop-color="#FDCB4D"/>
<stop offset="0.639" stop-color="#F7C13A"/>
<stop offset="1" stop-color="#F0B421"/>
</linearGradient>
<linearGradient id="paint6_linear_54_3995" x1="76.3398" y1="83.4625" x2="84.0907" y2="82.082" gradientUnits="userSpaceOnUse">
<stop stop-color="#F0B421" stop-opacity="0"/>
<stop offset="0.512" stop-color="#E9AB12" stop-opacity="0.512"/>
<stop offset="1" stop-color="#E09F00"/>
</linearGradient>
</defs>
</svg>
