<svg xmlns="http://www.w3.org/2000/svg" xmlns:xlink="http://www.w3.org/1999/xlink" viewBox="0 0 48 48" width="50px" height="50px"><defs><linearGradient id="KiRQpeVc6Nite8SbaIDQ_c" x1="11.548" x2="11.385" y1="12.829" y2="26.949" gradientUnits="userSpaceOnUse"><stop offset="0" stop-color="#a8e2f7"/><stop offset="1" stop-color="#47c1ff"/></linearGradient><linearGradient id="KiRQpeVc6Nite8SbaIDQ_b" x1="27.489" x2="35.432" y1="-1181.1" y2="-1181.1" data-name="Безымянный градиент 99" gradientTransform="matrix(1 0 0 -1 0 -1168)" gradientUnits="userSpaceOnUse"><stop offset="0" stop-color="#3079d6"/><stop offset="1" stop-color="#297cd2"/></linearGradient><linearGradient id="KiRQpeVc6Nite8SbaIDQ_a" x1="24" x2="40.209" y1="-1183.655" y2="-1183.655" data-name="Безымянный градиент 103" gradientTransform="matrix(1 0 0 -1 0 -1168)" gradientUnits="userSpaceOnUse"><stop offset="0" stop-color="#42a3f2"/><stop offset="1" stop-color="#42a4eb"/></linearGradient><linearGradient id="KiRQpeVc6Nite8SbaIDQ_d" x1="38.44" x2="41" y1="-1181.118" y2="-1181.118" xlink:href="#KiRQpeVc6Nite8SbaIDQ_a"/><linearGradient id="KiRQpeVc6Nite8SbaIDQ_e" x1="25.213" x2="27.773" y1="-1186.2" y2="-1186.2" xlink:href="#KiRQpeVc6Nite8SbaIDQ_a"/><linearGradient id="KiRQpeVc6Nite8SbaIDQ_f" x1="31.755" x2="36.022" y1="-1187.017" y2="-1187.017" xlink:href="#KiRQpeVc6Nite8SbaIDQ_b"/><linearGradient id="KiRQpeVc6Nite8SbaIDQ_g" x1="20.675" x2="30.39" y1="26.239" y2="52.932" xlink:href="#KiRQpeVc6Nite8SbaIDQ_c"/></defs><rect width="3" height="12" x="10" y="17" fill="#64717c"/><path fill="#64717c" d="M11.5,12.5A.49971.49971,0,0,1,11,12V5.5a.5.5,0,0,1,1,0V12A.49971.49971,0,0,1,11.5,12.5Z"/><path fill="#889097" d="M13.3705,15H9.6295a1.33334,1.33334,0,0,1-1.31519-1.11413l-.3516-2.1096A.66667.66667,0,0,1,8.62031,11h5.75938a.66667.66667,0,0,1,.6576.77627l-.3516,2.1096A1.33334,1.33334,0,0,1,13.3705,15Z"/><path fill="#35c1f1" d="M14.30575,20H8.69425a2,2,0,0,1-1.97278-1.6712l-.5274-3.1644A1,1,0,0,1,7.18046,14h8.63908a1,1,0,0,1,.98639,1.1644l-.5274,3.1644A2,2,0,0,1,14.30575,20Z"/><rect width="5" height="6" x="9" y="14" fill="url(#KiRQpeVc6Nite8SbaIDQ_c)"/><path fill="url(#KiRQpeVc6Nite8SbaIDQ_b)" d="M35.432,13.93841l-6.0092-2.8042a1.43021,1.43021,0,0,0-1.6111.27953l-.323.32061,4.03671,3.46492Z"/><path fill="url(#KiRQpeVc6Nite8SbaIDQ_a)" d="M40.20938,14.29164l-.88832-2.38152L26.77785,16.6469l-1.28342-1.12151a1.16575,1.16575,0,0,0-1.283-.166l-.08491.04193a.226.226,0,0,0-.10795.29224L25.334,18.73746l1.577.66325Z"/><ellipse cx="39.72" cy="13.118" fill="url(#KiRQpeVc6Nite8SbaIDQ_d)" rx="1.28" ry="1.271"/><ellipse cx="26.493" cy="18.2" fill="url(#KiRQpeVc6Nite8SbaIDQ_e)" rx="1.28" ry="1.271"/><path fill="url(#KiRQpeVc6Nite8SbaIDQ_f)" d="M32.48241,16.2797a.40375.40375,0,0,0-.26155.34814l-.46549,6.372h.45653a1.4212,1.4212,0,0,0,1.33761-.933l2.461-6.77609a.19155.19155,0,0,0-.24917-.24311Z"/><rect width="38" height="12.75" x="5" y="29" fill="url(#KiRQpeVc6Nite8SbaIDQ_g)"/><rect width="2" height="12.5" x="13" y="29" fill="#35c1f1"/><rect width="2" height="12.5" x="23" y="29" fill="#35c1f1"/><rect width="2" height="12.5" x="33" y="29" fill="#35c1f1"/><rect width="42" height="2" x="3" y="28" fill="#889097" rx="1"/><rect width="42" height="2" x="3" y="41" fill="#889097" rx="1"/></svg>