<svg xmlns="http://www.w3.org/2000/svg"  viewBox="0 0 48 48" width="50px" height="50px"><linearGradient id="gzBMcXaIMKTqigWUs7utYa" x1="-4.144" x2="27.532" y1="7.969" y2="36.826" gradientUnits="userSpaceOnUse"><stop offset="0" stop-color="#bd4ff4"/><stop offset=".587" stop-color="#a235ec"/><stop offset="1" stop-color="#8c20e5"/></linearGradient><path fill="url(#gzBMcXaIMKTqigWUs7utYa)" d="M13.321,35c-3.046,0-5.529-0.992-7.447-2.975c-1.918-1.983-2.878-4.566-2.878-7.751 c0-3.362,0.974-6.082,2.922-8.159C7.867,14.038,10.449,13,13.663,13c3.035,0,5.49,0.995,7.364,2.982 c1.874,1.988,2.811,4.608,2.811,7.862c0,3.342-0.971,6.037-2.914,8.084C18.98,33.976,16.447,35,13.321,35z M13.529,17.124 c-1.681,0-3.016,0.631-4.005,1.891c-0.989,1.262-1.483,2.931-1.483,5.008c0,2.106,0.494,3.773,1.483,4.999 c0.989,1.227,2.284,1.839,3.887,1.839c1.651,0,2.962-0.596,3.932-1.788c0.969-1.191,1.452-2.846,1.452-4.961 c0-2.206-0.47-3.921-1.409-5.148C16.447,17.738,15.161,17.124,13.529,17.124z"/><linearGradient id="gzBMcXaIMKTqigWUs7utYb" x1="7.298" x2="37.11" y1="-1.595" y2="25.565" gradientUnits="userSpaceOnUse"><stop offset="0" stop-color="#bd4ff4"/><stop offset=".587" stop-color="#a235ec"/><stop offset="1" stop-color="#8c20e5"/></linearGradient><path fill="url(#gzBMcXaIMKTqigWUs7utYb)" d="M42.993,34.628h-3.433c-0.35,0-0.678-0.175-0.873-0.466l-6.527-8.897v8.311 c0,0.581-0.471,1.051-1.051,1.051h-2.688c-0.581,0-1.051-0.471-1.051-1.051v-19.17c0-0.581,0.471-1.051,1.051-1.051h2.688 c0.581,0,1.051,0.471,1.051,1.051v7.955l6.231-8.535c0.195-0.294,0.524-0.471,0.877-0.471h3.076c0.86,0,1.357,0.977,0.849,1.672 l-6.195,8.475l6.847,9.458C44.348,33.656,43.852,34.628,42.993,34.628z"/></svg>