<svg xmlns="http://www.w3.org/2000/svg"  viewBox="0 0 64 64" width="50px" height="50px"><path fill="#5aaae7" d="M42,9V47a5.8,5.8,0,0,1-.35,2A5.981,5.981,0,0,1,36,53H16a6.01,6.01,0,0,1-5.9-4.9A5.627,5.627,0,0,1,10,47V9a6,6,0,0,1,6-6H36A6,6,0,0,1,42,9Z"/><path fill="#e6e7e8" d="M30,47a1.955,1.955,0,0,1-.59,1.41,1.813,1.813,0,0,1-.41.32A2,2,0,0,1,28,49H24a2.006,2.006,0,0,1-2-2,2.015,2.015,0,0,1,2-2h4a2,2,0,0,1,2,2Z"/><polygon fill="#787680" points="61 41 61 61 57 61 57 57 57 41 61 41"/><path fill="#898890" d="M57,57v4H45a3.995,3.995,0,0,1,4-4Z"/><path fill="#e6e7e8" d="M57,41V57H49a3.995,3.995,0,0,0-4,4V41a4,4,0,0,1,4-4h8Z"/><path fill="#898890" d="M45,61H33V57h8a3.995,3.995,0,0,1,4,4Z"/><path fill="#e0e0e2" d="M45,41V61a3.995,3.995,0,0,0-4-4H33V37h8a3.657,3.657,0,0,1,1,.13A3.992,3.992,0,0,1,45,41Z"/><polygon fill="#787680" points="29 41 29 45.27 29 48.73 29 53 29 61 33 61 33 57 33 53 33 41 29 41"/><path fill="#3d9ae2" d="M22.83,18.17A4.008,4.008,0,1,1,20,17,4.025,4.025,0,0,1,22.83,18.17Z"/><path fill="#3d9ae2" d="M22.83,30.17A4.008,4.008,0,1,1,20,29,4.025,4.025,0,0,1,22.83,30.17Z"/><path fill="#ffd422" d="M22.83,16.17A4.008,4.008,0,1,1,20,15,4.025,4.025,0,0,1,22.83,16.17Z"/><path fill="#ffd422" d="M22.83,28.17A4.008,4.008,0,1,1,20,27,4.025,4.025,0,0,1,22.83,28.17Z"/><path fill="#ffc477" d="M20.5,43.21,16,51l1.2,2,.94,1.56A6.024,6.024,0,0,1,19,57.65v4.34L3,62V44.19a9.908,9.908,0,0,1,.92-4.18l4.54-9.85A2,2,0,0,1,10,29.02V47a5.627,5.627,0,0,0,.1,1.1l.7-.1,4.5-7.79a3,3,0,0,1,5.2,3Z"/><rect width="2" height="2" x="18" y="6" fill="#3d9ae2"/><rect width="8" height="2" x="22" y="6" fill="#3d9ae2"/><rect width="8.485" height="2" x="17.757" y="16" fill="#ff9811" transform="rotate(-45 22 17)"/><rect width="8" height="2" x="29" y="16" fill="#1e81ce"/><rect width="8" height="2" x="29" y="20" fill="#1e81ce"/><rect width="8.485" height="2" x="17.757" y="28" fill="#ff9811" transform="rotate(-45 22 29)"/><rect width="8" height="2" x="29" y="28" fill="#1e81ce"/><rect width="8" height="2" x="29" y="32" fill="#1e81ce"/><rect width="6" height="2" x="36" y="40" fill="#bcbec0"/><rect width="6" height="2" x="36" y="44" fill="#bcbec0"/><rect width="6" height="2" x="36" y="48" fill="#bcbec0"/><rect width="6" height="2" x="48" y="40" fill="#bcbec0"/><rect width="6" height="2" x="48" y="44" fill="#bcbec0"/><rect width="6" height="2" x="48" y="48" fill="#bcbec0"/><rect width="6" height="2" x="36" y="52" fill="#bcbec0"/><rect width="6" height="2" x="48" y="52" fill="#bcbec0"/><rect width="2" height="2" x="49" y="32" fill="#ffa733"/><rect width="2" height="2" x="49" y="28" fill="#ffa733"/><rect width="2" height="2" x="49" y="24" fill="#ffa733"/><rect width="2" height="2" x="49" y="20" fill="#ffa733"/><rect width="2" height="2" x="53" y="28" fill="#ffa733"/><rect width="2" height="2" x="53" y="24" fill="#ffa733"/><rect width="2" height="2" x="53" y="20" fill="#ffa733"/><rect width="2" height="2" x="53" y="32" fill="#ffa733"/><rect width="2" height="2" x="53" y="16" fill="#ffa733"/><rect width="2" height="2" x="49" y="16" fill="#ffa733"/><rect width="2" height="2" x="45" y="16" fill="#ffa733"/><rect width="2" height="2" x="45" y="20" fill="#ffa733"/></svg>