<svg xmlns="http://www.w3.org/2000/svg"  viewBox="0 0 48 48" width="50px" height="50px"><linearGradient id="1Rrg96e2Gc4MdPErOmJMLa" x1="-7.018" x2="39.387" y1="9.308" y2="33.533" gradientUnits="userSpaceOnUse"><stop offset="0" stop-color="#fac017"/><stop offset=".909" stop-color="#e1ab2d"/></linearGradient><path fill="url(#1Rrg96e2Gc4MdPErOmJMLa)" d="M44.5,41h-41C2.119,41,1,39.881,1,38.5v-31C1,6.119,2.119,5,3.5,5h11.597	c1.519,0,2.955,0.69,3.904,1.877L21.5,10h23c1.381,0,2.5,1.119,2.5,2.5v26C47,39.881,45.881,41,44.5,41z"/><linearGradient id="1Rrg96e2Gc4MdPErOmJMLb" x1="16.865" x2="44.965" y1="39.287" y2="39.792" gradientUnits="userSpaceOnUse"><stop offset="0" stop-color="#e3a917"/><stop offset=".464" stop-color="#d79c1e"/></linearGradient><path fill="url(#1Rrg96e2Gc4MdPErOmJMLb)" d="M1,37.875V38.5C1,39.881,2.119,41,3.5,41h41c1.381,0,2.5-1.119,2.5-2.5v-0.625H1z"/><linearGradient id="1Rrg96e2Gc4MdPErOmJMLc" x1="-4.879" x2="35.968" y1="12.764" y2="30.778" gradientUnits="userSpaceOnUse"><stop offset=".34" stop-color="#ffefb2"/><stop offset=".485" stop-color="#ffedad"/><stop offset=".652" stop-color="#ffe99f"/><stop offset=".828" stop-color="#fee289"/><stop offset="1" stop-color="#fed86b"/></linearGradient><path fill="url(#1Rrg96e2Gc4MdPErOmJMLc)" d="M44.5,11h-23l-1.237,0.824C19.114,12.591,17.763,13,16.381,13H3.5C2.119,13,1,14.119,1,15.5	v22C1,38.881,2.119,40,3.5,40h41c1.381,0,2.5-1.119,2.5-2.5v-24C47,12.119,45.881,11,44.5,11z"/><radialGradient id="1Rrg96e2Gc4MdPErOmJMLd" cx="37.836" cy="49.317" r="53.875" gradientUnits="userSpaceOnUse"><stop offset=".199" stop-color="#fec832"/><stop offset=".601" stop-color="#fcd667"/><stop offset=".68" stop-color="#fdda75"/><stop offset=".886" stop-color="#fee496"/><stop offset="1" stop-color="#ffe8a2"/></radialGradient><path fill="url(#1Rrg96e2Gc4MdPErOmJMLd)" d="M44.5,40h-41C2.119,40,1,38.881,1,37.5v-21C1,15.119,2.119,14,3.5,14h13.256	c1.382,0,2.733-0.409,3.883-1.176L21.875,12H44.5c1.381,0,2.5,1.119,2.5,2.5v23C47,38.881,45.881,40,44.5,40z"/><linearGradient id="1Rrg96e2Gc4MdPErOmJMLe" x1="16.646" x2="27.24" y1="21.159" y2="39.508" gradientUnits="userSpaceOnUse"><stop offset="0" stop-color="#c78902"/><stop offset=".914" stop-color="#986700"/></linearGradient><path fill="url(#1Rrg96e2Gc4MdPErOmJMLe)" d="M32.25,35h-0.737l-6.814-17.522c-0.225-0.576-1.174-0.576-1.398,0L16.487,35H15.75	C15.336,35,15,35.336,15,35.75s0.336,0.75,0.75,0.75h3c0.414,0,0.75-0.336,0.75-0.75S19.164,35,18.75,35h-0.653l1.847-4.75h8.112	L29.903,35H29.25c-0.414,0-0.75,0.336-0.75,0.75s0.336,0.75,0.75,0.75h3c0.414,0,0.75-0.336,0.75-0.75S32.664,35,32.25,35z M20.527,28.75L24,19.819l3.473,8.931H20.527z"/></svg>