<svg width="156" height="151" viewBox="0 0 156 151" fill="none" xmlns="http://www.w3.org/2000/svg">
<path d="M135.144 3H20.8559C14.7868 3 9.8667 8.02245 9.8667 14.2179V130.885C9.8667 137.08 14.7868 142.103 20.8559 142.103H135.144C141.213 142.103 146.133 137.08 146.133 130.885V14.2179C146.133 8.02245 141.213 3 135.144 3Z" fill="white"/>
<path d="M135.144 3H20.8559C14.7868 3 9.8667 8.02245 9.8667 14.2179V130.885C9.8667 137.08 14.7868 142.103 20.8559 142.103H135.144C141.213 142.103 146.133 137.08 146.133 130.885V14.2179C146.133 8.02245 141.213 3 135.144 3Z" fill="url(#paint0_linear_70_3)" fill-opacity="0.2"/>
<path d="M38.0112 51.1113C37.592 51.9382 37.3545 52.8535 37.3545 53.8079V95.4341C37.3545 97.7254 38.6744 99.8277 40.7836 100.895L74.0142 117.713C75.2614 118.344 76.6305 118.659 77.9996 118.659V71.3495L38.0112 51.1113Z" fill="url(#paint1_linear_70_3)" fill-opacity="0.2"/>
<path d="M78 71.3495V118.659C79.3691 118.659 80.7382 118.344 81.9854 117.713L115.216 100.895C117.325 99.8277 118.645 97.7254 118.645 95.4341V53.8079C118.645 52.8535 118.408 51.9382 117.988 51.1113L78 71.3495Z" fill="url(#paint2_linear_70_3)" fill-opacity="0.2"/>
<path d="M77.9996 71.3489L117.988 51.1107C117.361 49.8724 116.317 48.8419 114.974 48.231L81.6619 33.059C79.3431 32.0038 76.654 32.0038 74.3351 33.059L41.0254 48.231C39.682 48.844 38.638 49.8744 38.0112 51.1107L77.9996 71.3489Z" fill="url(#paint3_linear_70_3)" fill-opacity="0.2"/>
<path d="M54.849 59.6367C54.6051 60.114 54.4683 60.6446 54.4683 61.1979V85.297C54.4683 86.6236 55.2319 87.8415 56.4534 88.4586L75.6935 98.1944C76.4166 98.5604 77.2081 98.743 78.0017 98.743V71.353L54.849 59.6367Z" fill="#25A2E5" fill-opacity="0.2"/>
<path d="M78 71.353V98.743C78.7915 98.743 79.5852 98.5604 80.3082 98.1944L99.5486 88.4586C100.77 87.8415 101.533 86.6236 101.533 85.297V61.1979C101.533 60.6446 101.397 60.116 101.153 59.6367L78 71.353Z" fill="#027AD4" fill-opacity="0.5"/>
<path d="M77.9999 71.3539L101.15 59.6375C100.787 58.9217 100.184 58.3252 99.4048 57.9693L80.1199 49.1862C78.7764 48.5753 77.2212 48.5753 75.8778 49.1862L56.5928 57.9693C55.8141 58.3231 55.2108 58.9196 54.8472 59.6375L77.9999 71.3539Z" fill="#54DAFF" fill-opacity="0.2"/>
<path d="M136.71 8.38477H19.2903C13.0548 8.38477 8 13.2452 8 19.2408V132.144C8 138.14 13.0548 143 19.2903 143H136.71C142.945 143 148 138.14 148 132.144V19.2408C148 13.2452 142.945 8.38477 136.71 8.38477Z" stroke="#D5EAF6" stroke-width="15"/>
<defs>
<linearGradient id="paint0_linear_70_3" x1="78" y1="9.73077" x2="78" y2="135.372" gradientUnits="userSpaceOnUse">
<stop stop-color="#199AE0"/>
<stop offset="0.472222" stop-color="#0D5176" stop-opacity="0.527778"/>
<stop offset="0.940972" stop-color="#12A6F7" stop-opacity="0.465278"/>
<stop offset="1" stop-opacity="0"/>
</linearGradient>
<linearGradient id="paint1_linear_70_3" x1="37.3545" y1="84.8862" x2="77.9996" y2="84.8862" gradientUnits="userSpaceOnUse">
<stop stop-color="#1D59B3"/>
<stop offset="1" stop-color="#195BBC"/>
</linearGradient>
<linearGradient id="paint2_linear_70_3" x1="78" y1="84.8862" x2="118.645" y2="84.8862" gradientUnits="userSpaceOnUse">
<stop stop-color="#11408A"/>
<stop offset="1" stop-color="#103F8F"/>
</linearGradient>
<linearGradient id="paint3_linear_70_3" x1="38.0112" y1="51.808" x2="117.988" y2="51.808" gradientUnits="userSpaceOnUse">
<stop stop-color="#3079D6"/>
<stop offset="1" stop-color="#297CD2"/>
</linearGradient>
</defs>
</svg>
