<svg width="170" height="171" viewBox="0 0 170 171" fill="none" xmlns="http://www.w3.org/2000/svg">
<path d="M150 8H20C13.0964 8 7.5 13.5964 7.5 20.5V150.5C7.5 157.404 13.0964 163 20 163H150C156.904 163 162.5 157.404 162.5 150.5V20.5C162.5 13.5964 156.904 8 150 8Z" fill="white"/>
<path d="M149.5 8.5H19.5C12.5964 8.5 7 14.0964 7 21V151C7 157.904 12.5964 163.5 19.5 163.5H149.5C156.404 163.5 162 157.904 162 151V21C162 14.0964 156.404 8.5 149.5 8.5Z" fill="url(#paint0_linear_4_131)" fill-opacity="0.2"/>
<path d="M150 8H20C13.0964 8 7.5 13.5964 7.5 20.5V150.5C7.5 157.404 13.0964 163 20 163H150C156.904 163 162.5 157.404 162.5 150.5V20.5C162.5 13.5964 156.904 8 150 8Z" stroke="#D5EAF6" stroke-width="15"/>
<g filter="url(#filter0_d_4_131)">
<path d="M128.605 46H41.395C37.8775 46 35 48.8775 35 52.395V61V119.605C35 123.123 37.8775 126 41.395 126H128.605C132.123 126 135 123.123 135 119.605V61V52.395C135 48.8775 132.123 46 128.605 46Z" fill="url(#paint1_linear_4_131)"/>
<path d="M101.325 121H126.178C128.29 121 130.002 119.288 130.002 117.175V92.325C130.002 90.2125 128.29 88.5 126.178 88.5H101.325C99.2125 88.5 97.5 90.2125 97.5 92.325V117.178C97.5 119.288 99.2125 121 101.325 121Z" fill="url(#paint2_linear_4_131)"/>
<path d="M101.325 83.5H126.178C128.29 83.5 130.002 81.7875 130.002 79.675V54.825C130.002 52.7125 128.29 51 126.178 51H101.325C99.2125 51 97.5 52.7125 97.5 54.825V79.6775C97.5 81.7875 99.2125 83.5 101.325 83.5Z" fill="url(#paint3_linear_4_131)"/>
<path d="M83.75 73.5H46.25C45.56 73.5 45 72.94 45 72.25V69.75C45 69.06 45.56 68.5 46.25 68.5H83.75C84.44 68.5 85 69.06 85 69.75V72.25C85 72.94 84.44 73.5 83.75 73.5Z" fill="#0D86AD"/>
<path d="M83.75 83.5H46.25C45.56 83.5 45 82.94 45 82.25V79.75C45 79.06 45.56 78.5 46.25 78.5H83.75C84.44 78.5 85 79.06 85 79.75V82.25C85 82.94 84.44 83.5 83.75 83.5Z" fill="#0D86AD"/>
<path d="M83.75 93.5H46.25C45.56 93.5 45 92.94 45 92.25V89.75C45 89.06 45.56 88.5 46.25 88.5H83.75C84.44 88.5 85 89.06 85 89.75V92.25C85 92.94 84.44 93.5 83.75 93.5Z" fill="#0D86AD"/>
<path d="M76.25 103.5H46.25C45.56 103.5 45 102.94 45 102.25V99.75C45 99.06 45.56 98.5 46.25 98.5H76.25C76.94 98.5 77.5 99.06 77.5 99.75V102.25C77.5 102.94 76.94 103.5 76.25 103.5Z" fill="#0D86AD"/>
<path d="M125 94.75V116H117.5V94.75C117.5 94.06 118.06 93.5 118.75 93.5H123.75C124.44 93.5 125 94.06 125 94.75Z" fill="#35C1F1"/>
<path d="M117.5 98.5V116H110V99.75C110 99.06 110.56 98.5 111.25 98.5H117.5Z" fill="#199BE2"/>
<path d="M110 103.5V116H102.5V104.75C102.5 104.06 103.06 103.5 103.75 103.5H110Z" fill="#0078D4"/>
<path d="M102.5 67.25C102.5 73.4625 107.538 78.5 113.75 78.5C119.962 78.5 125 73.4625 125 67.25H113.75H102.5Z" fill="#D35230"/>
<path d="M113.75 56V67.25H125C125 61.0375 119.962 56 113.75 56Z" fill="#FF8F6B"/>
<path d="M113.75 56C107.538 56 102.5 61.0375 102.5 67.25H113.75V56Z" fill="#ED6C47"/>
</g>
<defs>
<filter id="filter0_d_4_131" x="31" y="46" width="108" height="88" filterUnits="userSpaceOnUse" color-interpolation-filters="sRGB">
<feFlood flood-opacity="0" result="BackgroundImageFix"/>
<feColorMatrix in="SourceAlpha" type="matrix" values="0 0 0 0 0 0 0 0 0 0 0 0 0 0 0 0 0 0 127 0" result="hardAlpha"/>
<feOffset dy="4"/>
<feGaussianBlur stdDeviation="2"/>
<feComposite in2="hardAlpha" operator="out"/>
<feColorMatrix type="matrix" values="0 0 0 0 0 0 0 0 0 0 0 0 0 0 0 0 0 0 0.25 0"/>
<feBlend mode="normal" in2="BackgroundImageFix" result="effect1_dropShadow_4_131"/>
<feBlend mode="normal" in="SourceGraphic" in2="effect1_dropShadow_4_131" result="shape"/>
</filter>
<linearGradient id="paint0_linear_4_131" x1="84.5" y1="16" x2="84.5" y2="156" gradientUnits="userSpaceOnUse">
<stop stop-color="#199AE0"/>
<stop offset="0.472222" stop-color="#0D5176" stop-opacity="0.527778"/>
<stop offset="0.940972" stop-color="#12A6F7" stop-opacity="0.465278"/>
<stop offset="1" stop-opacity="0"/>
</linearGradient>
<linearGradient id="paint1_linear_4_131" x1="11.7975" y1="45.2575" x2="177.22" y2="137.328" gradientUnits="userSpaceOnUse">
<stop stop-color="#33D7F0"/>
<stop offset="0.187" stop-color="#2FD1ED"/>
<stop offset="0.445" stop-color="#24BFE3"/>
<stop offset="0.744" stop-color="#13A2D4"/>
<stop offset="1" stop-color="#0083C4"/>
</linearGradient>
<linearGradient id="paint2_linear_4_131" x1="111.75" y1="93.4025" x2="119.52" y2="137.485" gradientUnits="userSpaceOnUse">
<stop stop-color="#FCFCFC"/>
<stop offset="1" stop-color="#C3C9CD"/>
</linearGradient>
<linearGradient id="paint3_linear_4_131" x1="111.75" y1="55.9025" x2="119.52" y2="99.985" gradientUnits="userSpaceOnUse">
<stop stop-color="#FCFCFC"/>
<stop offset="1" stop-color="#C3C9CD"/>
</linearGradient>
</defs>
</svg>
