<svg width="170" height="171" viewBox="0 0 170 171" fill="none" xmlns="http://www.w3.org/2000/svg">
<path d="M150 8H20C13.0964 8 7.5 13.5964 7.5 20.5V150.5C7.5 157.404 13.0964 163 20 163H150C156.904 163 162.5 157.404 162.5 150.5V20.5C162.5 13.5964 156.904 8 150 8Z" fill="white"/>
<path d="M149.5 8.5H19.5C12.5964 8.5 7 14.0964 7 21V151C7 157.904 12.5964 163.5 19.5 163.5H149.5C156.404 163.5 162 157.904 162 151V21C162 14.0964 156.404 8.5 149.5 8.5Z" fill="url(#paint0_linear_5_317)" fill-opacity="0.2"/>
<path d="M150 8H20C13.0964 8 7.5 13.5964 7.5 20.5V150.5C7.5 157.404 13.0964 163 20 163H150C156.904 163 162.5 157.404 162.5 150.5V20.5C162.5 13.5964 156.904 8 150 8Z" stroke="#D5EAF6" stroke-width="15"/>
<g filter="url(#filter0_d_5_317)">
<path d="M137.5 101C137.5 101.875 137.25 102.75 136.8 103.525L103.775 101L136.8 98.4751C137.25 99.2501 137.5 100.125 137.5 101Z" fill="#EBA400"/>
</g>
<g filter="url(#filter1_d_5_317)">
<path d="M137.5 101C137.5 101.875 137.25 102.75 136.8 103.525L122.725 128.525C121.85 130.05 120.2 131 118.425 131H53.85C52.975 131 52.125 130.775 51.375 130.325L53.625 101H137.5Z" fill="url(#paint1_linear_5_317)"/>
<path d="M95.5849 55.175L51.375 130.325H51.35C50.6 129.9 49.975 129.275 49.525 128.5L35.75 103.825C34.85 102.275 34.85 100.35 35.75 98.8L67.325 43.5C67.775 42.725 68.4 42.1 69.15 41.675H69.175L95.5849 55.175Z" fill="url(#paint2_linear_5_317)"/>
<path d="M137.5 101H103.778L69.175 41.675C69.925 41.225 70.775 41 71.65 41H100.925C102.7 41 104.35 41.95 105.225 43.475L136.8 98.475C137.25 99.25 137.5 100.125 137.5 101Z" fill="url(#paint3_linear_5_317)"/>
</g>
<defs>
<filter id="filter0_d_5_317" x="99.775" y="98.4751" width="41.725" height="13.05" filterUnits="userSpaceOnUse" color-interpolation-filters="sRGB">
<feFlood flood-opacity="0" result="BackgroundImageFix"/>
<feColorMatrix in="SourceAlpha" type="matrix" values="0 0 0 0 0 0 0 0 0 0 0 0 0 0 0 0 0 0 127 0" result="hardAlpha"/>
<feOffset dy="4"/>
<feGaussianBlur stdDeviation="2"/>
<feComposite in2="hardAlpha" operator="out"/>
<feColorMatrix type="matrix" values="0 0 0 0 0 0 0 0 0 0 0 0 0 0 0 0 0 0 0.25 0"/>
<feBlend mode="normal" in2="BackgroundImageFix" result="effect1_dropShadow_5_317"/>
<feBlend mode="normal" in="SourceGraphic" in2="effect1_dropShadow_5_317" result="shape"/>
</filter>
<filter id="filter1_d_5_317" x="31.075" y="41" width="110.425" height="98" filterUnits="userSpaceOnUse" color-interpolation-filters="sRGB">
<feFlood flood-opacity="0" result="BackgroundImageFix"/>
<feColorMatrix in="SourceAlpha" type="matrix" values="0 0 0 0 0 0 0 0 0 0 0 0 0 0 0 0 0 0 127 0" result="hardAlpha"/>
<feOffset dy="4"/>
<feGaussianBlur stdDeviation="2"/>
<feComposite in2="hardAlpha" operator="out"/>
<feColorMatrix type="matrix" values="0 0 0 0 0 0 0 0 0 0 0 0 0 0 0 0 0 0 0.25 0"/>
<feBlend mode="normal" in2="BackgroundImageFix" result="effect1_dropShadow_5_317"/>
<feBlend mode="normal" in="SourceGraphic" in2="effect1_dropShadow_5_317" result="shape"/>
</filter>
<linearGradient id="paint0_linear_5_317" x1="84.5" y1="16" x2="84.5" y2="156" gradientUnits="userSpaceOnUse">
<stop stop-color="#199AE0"/>
<stop offset="0.472222" stop-color="#0D5176" stop-opacity="0.527778"/>
<stop offset="0.940972" stop-color="#12A6F7" stop-opacity="0.465278"/>
<stop offset="1" stop-opacity="0"/>
</linearGradient>
<linearGradient id="paint1_linear_5_317" x1="124.6" y1="129.74" x2="67.09" y2="102.925" gradientUnits="userSpaceOnUse">
<stop stop-color="#2A96F4"/>
<stop offset="0.535" stop-color="#2895F3"/>
<stop offset="0.728" stop-color="#2190EE"/>
<stop offset="0.865" stop-color="#1687E7"/>
<stop offset="0.976" stop-color="#057BDC"/>
<stop offset="1" stop-color="#0077D9"/>
</linearGradient>
<linearGradient id="paint2_linear_5_317" x1="33.805" y1="101.275" x2="86.6399" y2="70.7725" gradientUnits="userSpaceOnUse">
<stop stop-color="#4CAF50"/>
<stop offset="0.486" stop-color="#4AAE50"/>
<stop offset="0.661" stop-color="#43A94E"/>
<stop offset="0.786" stop-color="#38A14C"/>
<stop offset="0.887" stop-color="#279648"/>
<stop offset="0.972" stop-color="#118844"/>
<stop offset="1" stop-color="#088242"/>
</linearGradient>
<linearGradient id="paint3_linear_5_317" x1="103.338" y1="41" x2="103.338" y2="101" gradientUnits="userSpaceOnUse">
<stop stop-color="#FFD747"/>
<stop offset="0.482" stop-color="#FED645"/>
<stop offset="0.655" stop-color="#FDD13E"/>
<stop offset="0.779" stop-color="#F9C833"/>
<stop offset="0.879" stop-color="#F4BC22"/>
<stop offset="0.964" stop-color="#EEAD0C"/>
<stop offset="1" stop-color="#EBA400"/>
</linearGradient>
</defs>
</svg>
