<svg width="199" height="199" viewBox="0 0 199 199" fill="none" xmlns="http://www.w3.org/2000/svg">
<g filter="url(#filter0_d_54_4154)">
<path d="M172.887 8H26.1129C18.3186 8 12 14.3186 12 22.1129V168.887C12 176.681 18.3186 183 26.1129 183H172.887C180.681 183 187 176.681 187 168.887V22.1129C187 14.3186 180.681 8 172.887 8Z" fill="white"/>
<path d="M172.887 8H26.1129C18.3186 8 12 14.3186 12 22.1129V168.887C12 176.681 18.3186 183 26.1129 183H172.887C180.681 183 187 176.681 187 168.887V22.1129C187 14.3186 180.681 8 172.887 8Z" fill="url(#paint0_linear_54_4154)" fill-opacity="0.2"/>
<path d="M172.887 8H26.1129C18.3186 8 12 14.3186 12 22.1129V168.887C12 176.681 18.3186 183 26.1129 183H172.887C180.681 183 187 176.681 187 168.887V22.1129C187 14.3186 180.681 8 172.887 8Z" stroke="#D5EAF6" stroke-width="15"/>
</g>
<g filter="url(#filter1_bdd_54_4154)">
<mask id="path-4-inside-1_54_4154" fill="white">
<path d="M88.5983 91.2433H50.8151C47.6035 91.2433 45 88.7013 45 85.5655V48.6779C45 45.5421 47.6035 43 50.8151 43H88.5983C91.8099 43 94.4134 45.5421 94.4134 48.6779V85.5692C94.4134 88.7013 91.8099 91.2433 88.5983 91.2433Z"/>
<path d="M82.7865 85.5675H56.6265C54.2285 85.5675 52.2665 83.652 52.2665 81.3108V60.027H87.1465V81.3108C87.1465 83.652 85.1845 85.5675 82.7865 85.5675Z"/>
<path d="M87.1465 60.027H52.2665V55.7703C52.2665 53.4184 54.2176 51.5135 56.6265 51.5135H82.7865C85.1954 51.5135 87.1465 53.4184 87.1465 55.7703V60.027Z"/>
<path d="M148.185 91.2433H110.402C107.19 91.2433 104.587 88.7013 104.587 85.5655V48.6779C104.587 45.5421 107.19 43 110.402 43H148.185C151.396 43 154 45.5421 154 48.6779V85.5692C154 88.7013 151.396 91.2433 148.185 91.2433Z"/>
<path d="M142.373 85.5675H116.213C113.815 85.5675 111.853 83.652 111.853 81.3108V60.027H146.733V81.3108C146.733 83.652 144.771 85.5675 142.373 85.5675Z"/>
<path d="M146.733 60.027H111.853V55.7703C111.853 53.4184 113.804 51.5135 116.213 51.5135H142.373C144.782 51.5135 146.733 53.4184 146.733 55.7703V60.027Z"/>
<path d="M88.5983 148H50.8151C47.6035 148 45 145.458 45 142.322V105.435C45 102.299 47.6035 99.7567 50.8151 99.7567H88.5983C91.8099 99.7567 94.4134 102.299 94.4134 105.435V142.326C94.4134 145.458 91.8099 148 88.5983 148Z"/>
<path d="M82.7865 142.324H56.6265C54.2285 142.324 52.2665 140.409 52.2665 138.067V116.784H87.1465V138.067C87.1465 140.409 85.1845 142.324 82.7865 142.324Z"/>
<path d="M87.1465 116.784H52.2665V112.527C52.2665 110.175 54.2176 108.27 56.6265 108.27H82.7865C85.1954 108.27 87.1465 110.175 87.1465 112.527V116.784Z"/>
<path d="M148.185 148H110.402C107.19 148 104.587 145.458 104.587 142.322V105.435C104.587 102.299 107.19 99.7567 110.402 99.7567H148.185C151.396 99.7567 154 102.299 154 105.435V142.326C154 145.458 151.396 148 148.185 148Z"/>
<path d="M142.373 142.324H116.213C113.815 142.324 111.853 140.409 111.853 138.067V116.784H146.733V138.067C146.733 140.409 144.771 142.324 142.373 142.324Z"/>
<path d="M146.733 116.784H111.853V112.527C111.853 110.175 113.804 108.27 116.213 108.27H142.373C144.782 108.27 146.733 110.175 146.733 112.527V116.784Z"/>
</mask>
<path d="M88.5983 91.2433H50.8151C47.6035 91.2433 45 88.7013 45 85.5655V48.6779C45 45.5421 47.6035 43 50.8151 43H88.5983C91.8099 43 94.4134 45.5421 94.4134 48.6779V85.5692C94.4134 88.7013 91.8099 91.2433 88.5983 91.2433Z" fill="url(#paint1_linear_54_4154)"/>
<path d="M82.7865 85.5675H56.6265C54.2285 85.5675 52.2665 83.652 52.2665 81.3108V60.027H87.1465V81.3108C87.1465 83.652 85.1845 85.5675 82.7865 85.5675Z" fill="url(#paint2_linear_54_4154)"/>
<path d="M87.1465 60.027H52.2665V55.7703C52.2665 53.4184 54.2176 51.5135 56.6265 51.5135H82.7865C85.1954 51.5135 87.1465 53.4184 87.1465 55.7703V60.027Z" fill="url(#paint3_linear_54_4154)"/>
<path d="M148.185 91.2433H110.402C107.19 91.2433 104.587 88.7013 104.587 85.5655V48.6779C104.587 45.5421 107.19 43 110.402 43H148.185C151.396 43 154 45.5421 154 48.6779V85.5692C154 88.7013 151.396 91.2433 148.185 91.2433Z" fill="url(#paint4_linear_54_4154)"/>
<path d="M142.373 85.5675H116.213C113.815 85.5675 111.853 83.652 111.853 81.3108V60.027H146.733V81.3108C146.733 83.652 144.771 85.5675 142.373 85.5675Z" fill="url(#paint5_linear_54_4154)"/>
<path d="M146.733 60.027H111.853V55.7703C111.853 53.4184 113.804 51.5135 116.213 51.5135H142.373C144.782 51.5135 146.733 53.4184 146.733 55.7703V60.027Z" fill="url(#paint6_linear_54_4154)"/>
<path d="M88.5983 148H50.8151C47.6035 148 45 145.458 45 142.322V105.435C45 102.299 47.6035 99.7567 50.8151 99.7567H88.5983C91.8099 99.7567 94.4134 102.299 94.4134 105.435V142.326C94.4134 145.458 91.8099 148 88.5983 148Z" fill="url(#paint7_linear_54_4154)"/>
<path d="M82.7865 142.324H56.6265C54.2285 142.324 52.2665 140.409 52.2665 138.067V116.784H87.1465V138.067C87.1465 140.409 85.1845 142.324 82.7865 142.324Z" fill="url(#paint8_linear_54_4154)"/>
<path d="M87.1465 116.784H52.2665V112.527C52.2665 110.175 54.2176 108.27 56.6265 108.27H82.7865C85.1954 108.27 87.1465 110.175 87.1465 112.527V116.784Z" fill="url(#paint9_linear_54_4154)"/>
<path d="M148.185 148H110.402C107.19 148 104.587 145.458 104.587 142.322V105.435C104.587 102.299 107.19 99.7567 110.402 99.7567H148.185C151.396 99.7567 154 102.299 154 105.435V142.326C154 145.458 151.396 148 148.185 148Z" fill="url(#paint10_linear_54_4154)"/>
<path d="M142.373 142.324H116.213C113.815 142.324 111.853 140.409 111.853 138.067V116.784H146.733V138.067C146.733 140.409 144.771 142.324 142.373 142.324Z" fill="url(#paint11_linear_54_4154)"/>
<path d="M146.733 116.784H111.853V112.527C111.853 110.175 113.804 108.27 116.213 108.27H142.373C144.782 108.27 146.733 110.175 146.733 112.527V116.784Z" fill="url(#paint12_linear_54_4154)"/>
<path d="M52.2665 60.152H87.1465V59.902H52.2665V60.152ZM111.853 60.152H146.733V59.902H111.853V60.152ZM52.2665 116.909H87.1465V116.659H52.2665V116.909ZM111.853 116.909H146.733V116.659H111.853V116.909ZM88.5983 90.9933H50.8151V91.4933H88.5983V90.9933ZM50.8151 90.9933C47.7359 90.9933 45.25 88.5576 45.25 85.5655H44.75C44.75 88.845 47.4711 91.4933 50.8151 91.4933V90.9933ZM45.25 85.5655V48.6779H44.75V85.5655H45.25ZM45.25 48.6779C45.25 45.6857 47.7359 43.25 50.8151 43.25V42.75C47.4711 42.75 44.75 45.3984 44.75 48.6779H45.25ZM50.8151 43.25H88.5983V42.75H50.8151V43.25ZM88.5983 43.25C91.6775 43.25 94.1634 45.6857 94.1634 48.6779H94.6634C94.6634 45.3984 91.9423 42.75 88.5983 42.75V43.25ZM94.1634 48.6779V85.5692H94.6634V48.6779H94.1634ZM94.1634 85.5692C94.1634 88.5575 91.6776 90.9933 88.5983 90.9933V91.4933C91.9422 91.4933 94.6634 88.8451 94.6634 85.5692H94.1634ZM82.7865 85.3175H56.6265V85.8175H82.7865V85.3175ZM56.6265 85.3175C54.3609 85.3175 52.5165 83.5083 52.5165 81.3108H52.0165C52.0165 83.7957 54.0961 85.8175 56.6265 85.8175V85.3175ZM52.5165 81.3108V60.027H52.0165V81.3108H52.5165ZM86.8965 60.027V81.3108H87.3965V60.027H86.8965ZM86.8965 81.3108C86.8965 83.5083 85.0521 85.3175 82.7865 85.3175V85.8175C85.3168 85.8175 87.3965 83.7957 87.3965 81.3108H86.8965ZM52.5165 60.027V55.7703H52.0165V60.027H52.5165ZM52.5165 55.7703C52.5165 53.5621 54.35 51.7635 56.6265 51.7635V51.2635C54.0852 51.2635 52.0165 53.2747 52.0165 55.7703H52.5165ZM56.6265 51.7635H82.7865V51.2635H56.6265V51.7635ZM82.7865 51.7635C85.063 51.7635 86.8965 53.5621 86.8965 55.7703H87.3965C87.3965 53.2747 85.3277 51.2635 82.7865 51.2635V51.7635ZM86.8965 55.7703V60.027H87.3965V55.7703H86.8965ZM148.185 90.9933H110.402V91.4933H148.185V90.9933ZM110.402 90.9933C107.322 90.9933 104.837 88.5576 104.837 85.5655H104.337C104.337 88.845 107.058 91.4933 110.402 91.4933V90.9933ZM104.837 85.5655V48.6779H104.337V85.5655H104.837ZM104.837 48.6779C104.837 45.6857 107.322 43.25 110.402 43.25V42.75C107.058 42.75 104.337 45.3984 104.337 48.6779H104.837ZM110.402 43.25H148.185V42.75H110.402V43.25ZM148.185 43.25C151.264 43.25 153.75 45.6857 153.75 48.6779H154.25C154.25 45.3984 151.529 42.75 148.185 42.75V43.25ZM153.75 48.6779V85.5692H154.25V48.6779H153.75ZM153.75 85.5692C153.75 88.5575 151.264 90.9933 148.185 90.9933V91.4933C151.529 91.4933 154.25 88.8451 154.25 85.5692H153.75ZM142.373 85.3175H116.213V85.8175H142.373V85.3175ZM116.213 85.3175C113.947 85.3175 112.103 83.5083 112.103 81.3108H111.603C111.603 83.7957 113.683 85.8175 116.213 85.8175V85.3175ZM112.103 81.3108V60.027H111.603V81.3108H112.103ZM146.483 60.027V81.3108H146.983V60.027H146.483ZM146.483 81.3108C146.483 83.5083 144.639 85.3175 142.373 85.3175V85.8175C144.903 85.8175 146.983 83.7957 146.983 81.3108H146.483ZM112.103 60.027V55.7703H111.603V60.027H112.103ZM112.103 55.7703C112.103 53.5621 113.937 51.7635 116.213 51.7635V51.2635C113.672 51.2635 111.603 53.2747 111.603 55.7703H112.103ZM116.213 51.7635H142.373V51.2635H116.213V51.7635ZM142.373 51.7635C144.65 51.7635 146.483 53.5621 146.483 55.7703H146.983C146.983 53.2747 144.914 51.2635 142.373 51.2635V51.7635ZM146.483 55.7703V60.027H146.983V55.7703H146.483ZM88.5983 147.75H50.8151V148.25H88.5983V147.75ZM50.8151 147.75C47.7359 147.75 45.25 145.314 45.25 142.322H44.75C44.75 145.602 47.4711 148.25 50.8151 148.25V147.75ZM45.25 142.322V105.435H44.75V142.322H45.25ZM45.25 105.435C45.25 102.442 47.7359 100.007 50.8151 100.007V99.5067C47.4711 99.5067 44.75 102.155 44.75 105.435H45.25ZM50.8151 100.007H88.5983V99.5067H50.8151V100.007ZM88.5983 100.007C91.6775 100.007 94.1634 102.442 94.1634 105.435H94.6634C94.6634 102.155 91.9423 99.5067 88.5983 99.5067V100.007ZM94.1634 105.435V142.326H94.6634V105.435H94.1634ZM94.1634 142.326C94.1634 145.314 91.6776 147.75 88.5983 147.75V148.25C91.9422 148.25 94.6634 145.602 94.6634 142.326H94.1634ZM82.7865 142.074H56.6265V142.574H82.7865V142.074ZM56.6265 142.074C54.3609 142.074 52.5165 140.265 52.5165 138.067H52.0165C52.0165 140.552 54.0961 142.574 56.6265 142.574V142.074ZM52.5165 138.067V116.784H52.0165V138.067H52.5165ZM86.8965 116.784V138.067H87.3965V116.784H86.8965ZM86.8965 138.067C86.8965 140.265 85.0521 142.074 82.7865 142.074V142.574C85.3168 142.574 87.3965 140.552 87.3965 138.067H86.8965ZM52.5165 116.784V112.527H52.0165V116.784H52.5165ZM52.5165 112.527C52.5165 110.319 54.35 108.52 56.6265 108.52V108.02C54.0852 108.02 52.0165 110.031 52.0165 112.527H52.5165ZM56.6265 108.52H82.7865V108.02H56.6265V108.52ZM82.7865 108.52C85.063 108.52 86.8965 110.319 86.8965 112.527H87.3965C87.3965 110.031 85.3277 108.02 82.7865 108.02V108.52ZM86.8965 112.527V116.784H87.3965V112.527H86.8965ZM148.185 147.75H110.402V148.25H148.185V147.75ZM110.402 147.75C107.322 147.75 104.837 145.314 104.837 142.322H104.337C104.337 145.602 107.058 148.25 110.402 148.25V147.75ZM104.837 142.322V105.435H104.337V142.322H104.837ZM104.837 105.435C104.837 102.442 107.322 100.007 110.402 100.007V99.5067C107.058 99.5067 104.337 102.155 104.337 105.435H104.837ZM110.402 100.007H148.185V99.5067H110.402V100.007ZM148.185 100.007C151.264 100.007 153.75 102.442 153.75 105.435H154.25C154.25 102.155 151.529 99.5067 148.185 99.5067V100.007ZM153.75 105.435V142.326H154.25V105.435H153.75ZM153.75 142.326C153.75 145.314 151.264 147.75 148.185 147.75V148.25C151.529 148.25 154.25 145.602 154.25 142.326H153.75ZM142.373 142.074H116.213V142.574H142.373V142.074ZM116.213 142.074C113.947 142.074 112.103 140.265 112.103 138.067H111.603C111.603 140.552 113.683 142.574 116.213 142.574V142.074ZM112.103 138.067V116.784H111.603V138.067H112.103ZM146.483 116.784V138.067H146.983V116.784H146.483ZM146.483 138.067C146.483 140.265 144.639 142.074 142.373 142.074V142.574C144.903 142.574 146.983 140.552 146.983 138.067H146.483ZM112.103 116.784V112.527H111.603V116.784H112.103ZM112.103 112.527C112.103 110.319 113.937 108.52 116.213 108.52V108.02C113.672 108.02 111.603 110.031 111.603 112.527H112.103ZM116.213 108.52H142.373V108.02H116.213V108.52ZM142.373 108.52C144.65 108.52 146.483 110.319 146.483 112.527H146.983C146.983 110.031 144.914 108.02 142.373 108.02V108.52ZM146.483 112.527V116.784H146.983V112.527H146.483Z" fill="#96A0A7" fill-opacity="0.72" mask="url(#path-4-inside-1_54_4154)"/>
</g>
<defs>
<filter id="filter0_d_54_4154" x="0.5" y="0.5" width="198" height="198" filterUnits="userSpaceOnUse" color-interpolation-filters="sRGB">
<feFlood flood-opacity="0" result="BackgroundImageFix"/>
<feColorMatrix in="SourceAlpha" type="matrix" values="0 0 0 0 0 0 0 0 0 0 0 0 0 0 0 0 0 0 127 0" result="hardAlpha"/>
<feOffset dy="4"/>
<feGaussianBlur stdDeviation="2"/>
<feComposite in2="hardAlpha" operator="out"/>
<feColorMatrix type="matrix" values="0 0 0 0 0.8375 0 0 0 0 0.732812 0 0 0 0 0.732812 0 0 0 0.25 0"/>
<feBlend mode="normal" in2="BackgroundImageFix" result="effect1_dropShadow_54_4154"/>
<feBlend mode="normal" in="SourceGraphic" in2="effect1_dropShadow_54_4154" result="shape"/>
</filter>
<filter id="filter1_bdd_54_4154" x="41" y="39" width="117" height="117" filterUnits="userSpaceOnUse" color-interpolation-filters="sRGB">
<feFlood flood-opacity="0" result="BackgroundImageFix"/>
<feGaussianBlur in="BackgroundImageFix" stdDeviation="2"/>
<feComposite in2="SourceAlpha" operator="in" result="effect1_backgroundBlur_54_4154"/>
<feColorMatrix in="SourceAlpha" type="matrix" values="0 0 0 0 0 0 0 0 0 0 0 0 0 0 0 0 0 0 127 0" result="hardAlpha"/>
<feOffset dy="4"/>
<feGaussianBlur stdDeviation="2"/>
<feComposite in2="hardAlpha" operator="out"/>
<feColorMatrix type="matrix" values="0 0 0 0 1 0 0 0 0 1 0 0 0 0 1 0 0 0 0.25 0"/>
<feBlend mode="normal" in2="effect1_backgroundBlur_54_4154" result="effect2_dropShadow_54_4154"/>
<feColorMatrix in="SourceAlpha" type="matrix" values="0 0 0 0 0 0 0 0 0 0 0 0 0 0 0 0 0 0 127 0" result="hardAlpha"/>
<feOffset dy="4"/>
<feGaussianBlur stdDeviation="2"/>
<feComposite in2="hardAlpha" operator="out"/>
<feColorMatrix type="matrix" values="0 0 0 0 0.869375 0 0 0 0 0.885769 0 0 0 0 0.891667 0 0 0 1 0"/>
<feBlend mode="normal" in2="effect2_dropShadow_54_4154" result="effect3_dropShadow_54_4154"/>
<feBlend mode="normal" in="SourceGraphic" in2="effect3_dropShadow_54_4154" result="shape"/>
</filter>
<linearGradient id="paint0_linear_54_4154" x1="99.5" y1="16.4677" x2="99.5" y2="174.532" gradientUnits="userSpaceOnUse">
<stop stop-color="white"/>
<stop offset="0.472222" stop-color="#0D5176" stop-opacity="0.527778"/>
<stop offset="0.940972" stop-color="#12A6F7" stop-opacity="0.465278"/>
<stop offset="1" stop-opacity="0"/>
</linearGradient>
<linearGradient id="paint1_linear_54_4154" x1="92.7886" y1="58.8388" x2="117.025" y2="201.568" gradientUnits="userSpaceOnUse">
<stop stop-color="#EEEEEE" stop-opacity="0.51"/>
<stop offset="1" stop-color="#C3C9CD"/>
</linearGradient>
<linearGradient id="paint2_linear_54_4154" x1="53.2363" y1="30.9337" x2="153.988" y2="109.376" gradientUnits="userSpaceOnUse">
<stop stop-color="#7DD8F3"/>
<stop offset="1" stop-color="#45B0D0"/>
</linearGradient>
<linearGradient id="paint3_linear_54_4154" x1="111.853" y1="112.527" x2="146.733" y2="112.527" gradientUnits="userSpaceOnUse">
<stop stop-color="#0077D2"/>
<stop offset="1" stop-color="#0B59A2"/>
</linearGradient>
<linearGradient id="paint4_linear_54_4154" x1="92.7886" y1="58.8388" x2="117.025" y2="201.568" gradientUnits="userSpaceOnUse">
<stop stop-color="#EEEEEE" stop-opacity="0.51"/>
<stop offset="1" stop-color="#C3C9CD"/>
</linearGradient>
<linearGradient id="paint5_linear_54_4154" x1="53.2363" y1="30.9337" x2="153.988" y2="109.376" gradientUnits="userSpaceOnUse">
<stop stop-color="#7DD8F3"/>
<stop offset="1" stop-color="#45B0D0"/>
</linearGradient>
<linearGradient id="paint6_linear_54_4154" x1="111.853" y1="112.527" x2="146.733" y2="112.527" gradientUnits="userSpaceOnUse">
<stop stop-color="#0077D2"/>
<stop offset="1" stop-color="#0B59A2"/>
</linearGradient>
<linearGradient id="paint7_linear_54_4154" x1="92.7886" y1="58.8388" x2="117.025" y2="201.568" gradientUnits="userSpaceOnUse">
<stop stop-color="#EEEEEE" stop-opacity="0.51"/>
<stop offset="1" stop-color="#C3C9CD"/>
</linearGradient>
<linearGradient id="paint8_linear_54_4154" x1="53.2363" y1="30.9337" x2="153.988" y2="109.376" gradientUnits="userSpaceOnUse">
<stop stop-color="#7DD8F3"/>
<stop offset="1" stop-color="#45B0D0"/>
</linearGradient>
<linearGradient id="paint9_linear_54_4154" x1="111.853" y1="112.527" x2="146.733" y2="112.527" gradientUnits="userSpaceOnUse">
<stop stop-color="#0077D2"/>
<stop offset="1" stop-color="#0B59A2"/>
</linearGradient>
<linearGradient id="paint10_linear_54_4154" x1="92.7886" y1="58.8388" x2="117.025" y2="201.568" gradientUnits="userSpaceOnUse">
<stop stop-color="#EEEEEE" stop-opacity="0.51"/>
<stop offset="1" stop-color="#C3C9CD"/>
</linearGradient>
<linearGradient id="paint11_linear_54_4154" x1="53.2363" y1="30.9337" x2="153.988" y2="109.376" gradientUnits="userSpaceOnUse">
<stop stop-color="#7DD8F3"/>
<stop offset="1" stop-color="#45B0D0"/>
</linearGradient>
<linearGradient id="paint12_linear_54_4154" x1="111.853" y1="112.527" x2="146.733" y2="112.527" gradientUnits="userSpaceOnUse">
<stop stop-color="#0077D2"/>
<stop offset="1" stop-color="#0B59A2"/>
</linearGradient>
</defs>
</svg>
