<svg width="179" height="179" viewBox="0 0 179 179" fill="none" xmlns="http://www.w3.org/2000/svg">
<g filter="url(#filter0_d_253_1142)">
<path d="M154.5 8H24.5C17.5964 8 12 13.5964 12 20.5V150.5C12 157.404 17.5964 163 24.5 163H154.5C161.404 163 167 157.404 167 150.5V20.5C167 13.5964 161.404 8 154.5 8Z" fill="white"/>
<path d="M154.5 8H24.5C17.5964 8 12 13.5964 12 20.5V150.5C12 157.404 17.5964 163 24.5 163H154.5C161.404 163 167 157.404 167 150.5V20.5C167 13.5964 161.404 8 154.5 8Z" fill="url(#paint0_linear_253_1142)" fill-opacity="0.2"/>
<path d="M154.5 8H24.5C17.5964 8 12 13.5964 12 20.5V150.5C12 157.404 17.5964 163 24.5 163H154.5C161.404 163 167 157.404 167 150.5V20.5C167 13.5964 161.404 8 154.5 8Z" stroke="#D5EAF6" stroke-width="15"/>
</g>
<g filter="url(#filter1_d_253_1142)">
<path d="M43.524 112.042C43.2986 112.549 43.1296 114.239 43.0733 115.873L43.017 118.802L45.1577 118.971C47.6927 119.197 49.2137 118.126 49.6644 115.76C49.8334 114.859 50.1714 113.507 50.3967 112.662C50.6221 111.592 50.5094 111.197 49.9461 111.197C49.4391 111.197 48.8757 112.437 48.3687 114.408C47.6364 117.338 47.3547 117.676 46.0027 117.845C44.5943 118.014 44.4253 117.845 44.4253 116.436C44.4253 115.591 44.6507 114.014 44.9323 113C45.383 111.535 45.3267 111.197 44.6507 111.197C44.2 111.197 43.693 111.592 43.524 112.042Z" fill="url(#paint1_linear_253_1142)"/>
<path d="M51.8615 114.465C51.0728 118.352 51.0165 119.084 51.6925 119.084C51.9178 119.084 52.5375 117.732 52.9882 116.098L53.7769 113.169L54.7909 116.098C55.5232 118.239 56.0866 119.084 56.8189 119.084C57.6639 119.084 58.0019 118.408 58.5089 115.817C58.8469 114.07 59.2413 112.268 59.3539 111.873C59.5229 111.535 59.2413 111.197 58.7906 111.197C58.2836 111.197 57.8893 112.099 57.6076 113.732C57.1006 117.225 56.4809 117.338 55.6359 114.014C55.0725 111.761 54.6782 111.197 53.7205 111.197C52.7065 111.197 52.4248 111.704 51.8615 114.465Z" fill="url(#paint2_linear_253_1142)"/>
<path d="M60.7623 114.408C60.3679 116.211 59.9172 117.957 59.8046 118.352C59.6356 118.746 59.9172 119.084 60.3679 119.084C60.9313 119.084 61.4383 118.07 61.8889 116.098C62.2269 114.521 62.6776 112.718 62.8466 112.155C63.0156 111.535 62.7903 111.197 62.2269 111.197C61.6636 111.197 61.2129 112.211 60.7623 114.408Z" fill="url(#paint3_linear_253_1142)"/>
<path d="M64.1423 111.761C64.1423 112.042 64.7057 112.324 65.3254 112.324C66.5647 112.324 66.5647 113.113 65.438 117.788C65.2127 118.69 65.3817 119.084 66.0014 119.084C66.5647 119.084 67.0154 118.014 67.4661 115.704C68.0857 112.662 68.3111 112.324 69.5504 112.324C70.2828 112.324 70.9024 112.042 70.9024 111.761C70.9024 111.423 69.3814 111.197 67.5224 111.197C65.6634 111.197 64.1423 111.423 64.1423 111.761Z" fill="url(#paint4_linear_253_1142)"/>
<path d="M71.8601 113.282C71.6348 114.465 71.3531 116.267 71.1278 117.225L70.7898 119.084H73.6628C75.2402 119.084 76.5359 118.802 76.5359 118.521C76.5359 118.183 75.6345 117.957 74.5642 117.957C72.9868 117.957 72.5925 117.732 72.5925 116.831C72.5925 115.929 72.9868 115.704 74.5642 115.704C75.6345 115.704 76.5359 115.422 76.5359 115.141C76.5359 114.803 75.7472 114.577 74.7895 114.577C73.4375 114.577 73.0995 114.408 73.3812 113.676C73.5502 113.169 73.7192 112.662 73.7192 112.549C73.7192 112.437 74.6205 112.324 75.6909 112.324C76.7612 112.324 77.6626 112.042 77.6626 111.761C77.6626 111.423 76.4232 111.197 74.9022 111.197C72.1981 111.197 72.1981 111.197 71.8601 113.282Z" fill="url(#paint5_linear_253_1142)"/>
<path d="M78.7892 114.408C78.3949 116.211 77.9442 118.014 77.8315 118.352C77.6062 118.859 78.2822 119.084 80.1976 119.084C82.3383 119.084 83.1269 118.802 84.479 117.45C86.2253 115.704 86.676 113.113 85.4366 111.873C85.0423 111.479 83.5776 111.197 82.1693 111.197H79.5216L78.7892 114.408ZM84.31 114.408C84.479 116.324 82.9016 117.957 80.8172 117.957C79.9159 117.957 79.8032 117.676 80.1412 115.591C80.6482 112.549 80.8736 112.211 82.6199 112.437C83.8593 112.549 84.1973 112.944 84.31 114.408Z" fill="url(#paint6_linear_253_1142)"/>
<path d="M90.1687 111.873C89.1546 112.887 89.3236 113.676 90.901 115.141C92.8727 117 92.7037 117.957 90.3377 117.957C89.2673 117.957 88.366 118.183 88.366 118.521C88.366 119.422 92.7037 119.197 93.6614 118.183C94.6754 117.225 94.2811 116.098 92.3657 114.352C91.0137 113.113 91.2953 112.324 93.1544 112.324C93.8867 112.324 94.6754 112.042 94.8444 111.761C95.3514 110.972 91.0137 111.028 90.1687 111.873Z" fill="url(#paint7_linear_253_1142)"/>
<path d="M95.9711 111.761C95.7458 112.099 96.2528 112.324 97.0415 112.324C97.8302 112.324 98.5062 112.38 98.5062 112.437C98.5062 112.549 98.1118 114.014 97.6612 115.704C97.2105 117.394 96.8161 118.859 96.8161 118.915C96.8161 119.028 97.1541 119.084 97.6048 119.084C98.5625 119.084 98.8442 118.352 99.3512 114.915C99.6892 112.662 99.9145 112.324 101.098 112.324C101.83 112.324 102.45 112.042 102.45 111.761C102.45 111.423 101.098 111.197 99.4075 111.197C97.7175 111.197 96.1401 111.423 95.9711 111.761Z" fill="url(#paint8_linear_253_1142)"/>
<path d="M102.506 114.972C101.323 117.112 100.365 118.915 100.478 119.028C101.098 119.647 102.337 118.352 103.576 115.76C105.154 112.493 105.83 112.155 105.83 114.521C105.83 115.422 105.999 116.549 106.168 117.056C106.449 117.732 106.168 117.957 105.097 117.957C104.309 117.957 103.464 118.183 103.295 118.521C103.069 118.859 103.971 119.084 105.548 119.084C107.745 119.084 108.139 118.915 107.858 118.07C107.745 117.563 107.407 115.76 107.238 114.127C106.675 109.902 105.379 110.127 102.506 114.972Z" fill="url(#paint9_linear_253_1142)"/>
<path d="M108.646 111.761C108.646 112.042 109.21 112.324 109.829 112.324C110.9 112.324 111.012 112.549 110.674 114.408C110.505 115.591 110.167 117.112 109.998 117.788C109.717 118.746 109.886 119.084 110.505 119.084C111.069 119.084 111.519 118.014 111.97 115.704C112.59 112.662 112.815 112.324 114.054 112.324C114.787 112.324 115.406 112.042 115.406 111.761C115.406 111.423 113.885 111.197 112.026 111.197C110.167 111.197 108.646 111.423 108.646 111.761Z" fill="url(#paint10_linear_253_1142)"/>
<path d="M116.082 114.465C115.125 119.197 115.068 119.084 118.223 119.084C119.8 119.084 121.04 118.802 121.04 118.521C121.04 118.183 120.138 117.957 119.012 117.957C117.434 117.957 117.04 117.788 117.209 116.943C117.322 116.324 117.998 115.929 119.237 115.817C121.547 115.591 121.603 114.577 119.293 114.577C117.941 114.577 117.603 114.408 117.885 113.676C118.054 113.169 118.223 112.662 118.223 112.549C118.223 112.437 119.124 112.324 120.195 112.324C121.265 112.324 122.166 112.042 122.166 111.761C122.166 111.423 120.927 111.197 119.462 111.197H116.758L116.082 114.465Z" fill="url(#paint11_linear_253_1142)"/>
<path d="M123.969 111.873C122.955 112.887 123.124 113.676 124.702 115.141C126.673 117 126.504 117.957 124.138 117.957C123.068 117.957 122.167 118.183 122.167 118.521C122.167 118.802 123.124 119.084 124.307 119.084C127.913 119.084 128.927 116.943 126.392 114.577C124.814 113.113 124.983 112.324 126.955 112.324C127.687 112.324 128.476 112.042 128.645 111.761C129.152 110.972 124.814 111.028 123.969 111.873Z" fill="url(#paint12_linear_253_1142)"/>
<path d="M64.3113 121.168C76.9302 121.281 97.5485 121.281 110.224 121.168C122.843 121.112 112.477 121.056 87.2393 121.056C62.0016 121.056 51.6361 121.112 64.3113 121.168Z" fill="url(#paint13_linear_253_1142)"/>
<path d="M40.8763 124.548C40.651 125.731 40.3693 127.534 40.144 128.492C39.8623 129.956 39.975 130.351 40.651 130.351C41.2143 130.351 41.6087 129.506 41.8903 127.759C42.3973 124.154 42.679 123.591 43.9184 123.591C45.383 123.591 45.3267 125.844 43.862 126.238C42.6227 126.576 42.341 127.534 43.4677 127.534C45.045 127.534 46.7351 125.731 46.5661 124.267C46.3971 122.915 46.1154 122.746 43.8057 122.577L41.2143 122.408L40.8763 124.548Z" fill="url(#paint14_linear_253_1142)"/>
<path d="M48.8757 124.098C46.0027 126.971 47.1294 130.351 50.9601 130.351C53.4951 130.351 55.6922 128.266 55.6922 125.9C55.6922 122.295 51.7488 121.225 48.8757 124.098ZM53.8895 124.886C54.2275 126.745 53.4388 128.717 52.1431 129.168C49.3827 130.238 47.9181 127.534 49.8334 124.83C50.9038 123.253 53.6078 123.309 53.8895 124.886Z" fill="url(#paint15_linear_253_1142)"/>
<path d="M57.8328 123.084C56.4245 123.872 56.5935 124.83 58.2272 126.407C60.1989 128.266 60.0299 129.224 57.6638 129.224C56.5935 129.224 55.6921 129.449 55.6921 129.787C55.6921 130.407 59.0159 130.576 60.4242 130.013C61.7762 129.506 61.4946 127.309 59.9172 125.957C58.1708 124.436 58.5088 123.591 60.8185 123.591C61.7199 123.591 62.4522 123.309 62.4522 123.027C62.4522 122.295 59.0722 122.351 57.8328 123.084Z" fill="url(#paint16_linear_253_1142)"/>
<path d="M63.2973 123.027C63.1283 123.365 63.5227 123.591 64.1987 123.591C65.3254 123.591 65.3817 123.816 65.1 126.013C64.931 127.365 64.593 128.886 64.3677 129.393C64.1423 130.069 64.3114 130.351 64.8747 130.351C65.4944 130.351 65.945 129.393 66.452 126.971C67.0154 123.985 67.2407 123.591 68.4237 123.591C69.1561 123.591 69.7758 123.309 69.7758 123.027C69.7758 122.689 68.4237 122.464 66.7337 122.464C65.0437 122.464 63.4663 122.689 63.2973 123.027Z" fill="url(#paint17_linear_253_1142)"/>
<path d="M71.2967 123.703C68.1983 128.83 67.5223 130.351 68.3673 130.351C68.8743 130.351 69.8883 128.999 70.7333 127.252C72.367 123.985 73.043 124.098 73.0994 127.647C73.1557 128.83 72.874 129.224 72.0854 129.224C71.4657 129.224 70.7897 129.449 70.6207 129.787C70.3953 130.125 71.184 130.351 72.5924 130.351H74.9584L74.5641 126.802C74.3387 124.886 74.057 123.14 73.888 122.858C73.381 122.07 72.029 122.464 71.2967 123.703Z" fill="url(#paint18_linear_253_1142)"/>
<path d="M77.2119 125.731C76.2542 130.407 76.1979 130.351 79.0709 130.351C80.4793 130.351 81.606 130.069 81.606 129.787C81.606 129.449 80.8173 129.224 79.8596 129.224C78.1696 129.224 78.1132 129.111 78.4513 127.534C78.6203 126.576 78.9583 125.055 79.1273 124.154C79.4089 122.915 79.2963 122.464 78.6766 122.464C78.1696 122.464 77.6626 123.591 77.2119 125.731Z" fill="url(#paint19_linear_253_1142)"/>
<path d="M86.3944 123.591C85.3804 124.718 85.3804 124.774 87.1268 126.577C89.0985 128.605 88.9858 129.224 86.6198 129.224C85.7748 129.224 84.8734 129.506 84.7044 129.844C84.4227 130.238 85.2114 130.351 87.0141 130.238C90.6758 130.013 91.4645 128.717 89.2675 126.464C87.5211 124.661 87.6901 123.591 89.8308 123.591C90.5632 123.591 91.1828 123.309 91.1828 123.028C91.1828 121.957 87.4648 122.408 86.3944 123.591Z" fill="url(#paint20_linear_253_1142)"/>
<path d="M92.3094 125.675C91.9151 127.478 91.4644 129.224 91.3518 129.618C91.1264 130.182 91.8588 130.351 93.9431 130.351C95.5205 130.351 96.8162 130.069 96.8162 129.787C96.8162 129.449 95.9712 129.224 94.9008 129.224C93.2671 129.224 93.0418 129.055 93.2671 128.097C93.4925 127.252 94.0558 126.971 95.4642 126.971C96.5345 126.971 97.3795 126.689 97.3795 126.407C97.3795 126.069 96.6472 125.844 95.6895 125.844C94.3938 125.844 93.9995 125.619 93.9995 124.717C93.9995 123.76 94.3938 123.591 96.2528 123.591C97.4922 123.591 98.5062 123.309 98.5062 123.027C98.5062 122.689 97.2669 122.464 95.7458 122.464H92.9291L92.3094 125.675Z" fill="url(#paint21_linear_253_1142)"/>
<path d="M99.9145 123.14C99.5201 124.267 98.5624 128.886 98.5061 129.618C98.5061 130.013 98.8441 130.351 99.2948 130.351C99.8018 130.351 100.196 129.393 100.478 127.647C100.928 124.323 101.435 123.422 102.731 123.703C104.309 123.985 104.365 125.224 102.844 125.9C101.604 126.464 101.492 126.689 102.055 128.435C102.449 129.675 103.013 130.351 103.633 130.351C104.534 130.351 104.59 130.182 104.083 128.999C103.52 127.872 103.633 127.365 104.59 126.126C106.337 123.929 105.435 122.464 102.393 122.464C101.097 122.464 100.027 122.746 99.9145 123.14Z" fill="url(#paint22_linear_253_1142)"/>
<path d="M107.182 125.055C107.351 126.52 107.52 128.266 107.52 128.999C107.52 129.956 107.858 130.351 108.59 130.351C109.829 130.351 110.111 129.956 112.533 125.675C113.885 123.309 114.167 122.464 113.547 122.464C113.097 122.464 112.026 123.872 111.125 125.562C110.224 127.252 109.322 128.661 109.097 128.661C108.815 128.661 108.646 127.647 108.646 126.464C108.646 123.872 108.196 122.464 107.407 122.464C107.013 122.464 106.956 123.422 107.182 125.055Z" fill="url(#paint23_linear_253_1142)"/>
<path d="M114.73 126.407C114.054 129.562 114.054 130.351 114.618 130.351C115.294 130.351 115.913 128.661 116.815 124.267C117.096 122.915 116.984 122.464 116.364 122.464C115.857 122.464 115.294 123.816 114.73 126.407Z" fill="url(#paint24_linear_253_1142)"/>
<path d="M119.744 123.084C119.124 123.422 118.336 124.605 117.885 125.675C117.153 127.421 117.153 127.816 117.941 128.999C118.561 130.013 119.35 130.351 120.758 130.351C121.772 130.351 122.842 130.069 123.068 129.675C123.349 129.28 123.068 129.168 122.279 129.337C120.983 129.675 118.786 128.435 118.786 127.309C118.786 125.731 121.096 123.591 122.786 123.591C123.687 123.591 124.42 123.309 124.42 123.027C124.42 122.295 121.04 122.351 119.744 123.084Z" fill="url(#paint25_linear_253_1142)"/>
<path d="M125.828 123.14C125.603 123.929 124.42 129.675 124.42 130.069C124.42 130.238 125.716 130.351 127.237 130.351C128.814 130.351 130.053 130.069 130.053 129.787C130.053 129.449 129.152 129.224 128.025 129.224C126.392 129.224 126.054 129.055 126.335 128.323C126.504 127.816 126.673 127.309 126.673 127.196C126.673 127.083 127.462 126.971 128.363 126.971C129.321 126.971 130.053 126.689 130.053 126.407C130.053 126.069 129.321 125.844 128.42 125.844C127.068 125.844 126.842 125.675 127.068 124.717C127.293 123.816 127.856 123.591 129.546 123.591C130.786 123.591 131.743 123.309 131.743 123.027C131.743 122.182 126.11 122.295 125.828 123.14Z" fill="url(#paint26_linear_253_1142)"/>
<path d="M53.527 41.2941C53.865 41.4068 64.7375 43.6601 77.7507 46.3078C90.7639 48.9556 103.721 51.6033 106.594 52.2229C112.002 53.406 116.34 54.8706 116.34 55.603C116.34 55.8283 118.48 56.1663 121.072 56.3353C123.719 56.5043 126.367 57.0113 126.987 57.4057C129.747 59.0957 129.353 64.5038 126.142 70.0245C124.508 72.8412 127.437 71.6019 84.5108 88.2768C66.8782 95.0932 51.4989 101.065 50.4286 101.515C48.6822 102.191 53.2453 102.304 87.8908 102.304L127.381 102.36L128.113 98.8113C128.508 96.8959 131.324 83.4884 134.423 69.0105C137.465 54.5326 140 42.3081 140 41.8011C140 41.0688 135.324 40.9561 96.51 41.0124C72.5679 41.0124 53.2453 41.1251 53.527 41.2941Z" fill="url(#paint27_linear_253_1142)"/>
<path d="M49.6963 56.5608C49.5273 57.1242 48.4569 61.8562 47.3302 67.1516C41.1335 96.2764 39.8941 102.079 40.0068 102.248C40.0631 102.304 50.7666 97.1778 63.7235 90.7557C76.7367 84.3899 88.7359 78.5311 90.4259 77.7425C97.862 74.3624 107.664 71.1514 115.382 69.405C117.748 68.898 119.72 68.222 119.72 67.9403C119.72 66.8136 111.777 67.4333 105.523 69.067C98.8197 70.8134 89.0739 74.2497 84.8488 76.3904C83.5531 77.0665 82.2574 77.5171 82.0884 77.3481C81.6941 76.9538 76.3424 60.6732 76.3424 59.8282C76.3424 59.4339 82.8208 59.3212 94.989 59.3775C112.396 59.5465 113.579 59.4902 113.41 58.5325C112.96 56.1101 110.368 55.9411 79.3281 55.7158C51.3863 55.5468 49.9216 55.6031 49.6963 56.5608Z" fill="url(#paint28_linear_253_1142)"/>
<path d="M113.636 60.6168C112.791 61.3491 111.101 61.9124 108.96 62.1378C107.157 62.3631 105.636 62.7575 105.636 63.0955C105.636 63.6588 114.988 63.3208 119.72 62.6448C122.874 62.1378 123.494 62.9265 122.649 66.0812C122.255 67.5459 122.086 68.8416 122.198 68.9542C122.649 69.4612 124.79 65.5742 125.128 63.6025C125.691 60.7294 124.564 59.9408 119.325 59.7154C115.551 59.5464 114.762 59.6591 113.636 60.6168Z" fill="url(#paint29_linear_253_1142)"/>
</g>
<path d="M132 111.683V111H135.22V111.683H134.02V114.921H133.2V111.683H132Z" fill="#199BE2"/>
<path d="M135.75 111H136.772L137.852 113.634H137.898L138.978 111H140V114.921H139.196V112.369H139.163L138.149 114.901H137.601L136.587 112.359H136.554V114.921H135.75V111Z" fill="#199BE2"/>
<defs>
<filter id="filter0_d_253_1142" x="0.5" y="0.5" width="178" height="178" filterUnits="userSpaceOnUse" color-interpolation-filters="sRGB">
<feFlood flood-opacity="0" result="BackgroundImageFix"/>
<feColorMatrix in="SourceAlpha" type="matrix" values="0 0 0 0 0 0 0 0 0 0 0 0 0 0 0 0 0 0 127 0" result="hardAlpha"/>
<feOffset dy="4"/>
<feGaussianBlur stdDeviation="2"/>
<feComposite in2="hardAlpha" operator="out"/>
<feColorMatrix type="matrix" values="0 0 0 0 0.8375 0 0 0 0 0.732812 0 0 0 0 0.732812 0 0 0 0.25 0"/>
<feBlend mode="normal" in2="BackgroundImageFix" result="effect1_dropShadow_253_1142"/>
<feBlend mode="normal" in="SourceGraphic" in2="effect1_dropShadow_253_1142" result="shape"/>
</filter>
<filter id="filter1_d_253_1142" x="36" y="41" width="108" height="97.356" filterUnits="userSpaceOnUse" color-interpolation-filters="sRGB">
<feFlood flood-opacity="0" result="BackgroundImageFix"/>
<feColorMatrix in="SourceAlpha" type="matrix" values="0 0 0 0 0 0 0 0 0 0 0 0 0 0 0 0 0 0 127 0" result="hardAlpha"/>
<feOffset dy="4"/>
<feGaussianBlur stdDeviation="2"/>
<feComposite in2="hardAlpha" operator="out"/>
<feColorMatrix type="matrix" values="0 0 0 0 1 0 0 0 0 1 0 0 0 0 1 0 0 0 0.25 0"/>
<feBlend mode="normal" in2="BackgroundImageFix" result="effect1_dropShadow_253_1142"/>
<feBlend mode="normal" in="SourceGraphic" in2="effect1_dropShadow_253_1142" result="shape"/>
</filter>
<linearGradient id="paint0_linear_253_1142" x1="89.5" y1="15.5" x2="89.5" y2="155.5" gradientUnits="userSpaceOnUse">
<stop stop-color="white"/>
<stop offset="0.472222" stop-color="#0D5176" stop-opacity="0.527778"/>
<stop offset="0.940972" stop-color="#12A6F7" stop-opacity="0.465278"/>
<stop offset="1" stop-opacity="0"/>
</linearGradient>
<linearGradient id="paint1_linear_253_1142" x1="46.7613" y1="119.001" x2="46.7613" y2="111.197" gradientUnits="userSpaceOnUse">
<stop stop-color="#3079D6"/>
<stop offset="1" stop-color="#42A3F2"/>
</linearGradient>
<linearGradient id="paint2_linear_253_1142" x1="55.314" y1="119.084" x2="55.314" y2="111.197" gradientUnits="userSpaceOnUse">
<stop stop-color="#3079D6"/>
<stop offset="1" stop-color="#42A3F2"/>
</linearGradient>
<linearGradient id="paint3_linear_253_1142" x1="61.3283" y1="119.084" x2="61.3283" y2="111.197" gradientUnits="userSpaceOnUse">
<stop stop-color="#3079D6"/>
<stop offset="1" stop-color="#42A3F2"/>
</linearGradient>
<linearGradient id="paint4_linear_253_1142" x1="67.5224" y1="119.084" x2="67.5224" y2="111.197" gradientUnits="userSpaceOnUse">
<stop stop-color="#3079D6"/>
<stop offset="1" stop-color="#42A3F2"/>
</linearGradient>
<linearGradient id="paint5_linear_253_1142" x1="74.2262" y1="119.084" x2="74.2262" y2="111.197" gradientUnits="userSpaceOnUse">
<stop stop-color="#3079D6"/>
<stop offset="1" stop-color="#42A3F2"/>
</linearGradient>
<linearGradient id="paint6_linear_253_1142" x1="81.9645" y1="119.084" x2="81.9645" y2="111.197" gradientUnits="userSpaceOnUse">
<stop stop-color="#3079D6"/>
<stop offset="1" stop-color="#42A3F2"/>
</linearGradient>
<linearGradient id="paint7_linear_253_1142" x1="91.6257" y1="119.085" x2="91.6257" y2="111.203" gradientUnits="userSpaceOnUse">
<stop stop-color="#3079D6"/>
<stop offset="1" stop-color="#42A3F2"/>
</linearGradient>
<linearGradient id="paint8_linear_253_1142" x1="99.1835" y1="119.084" x2="99.1835" y2="111.197" gradientUnits="userSpaceOnUse">
<stop stop-color="#3079D6"/>
<stop offset="1" stop-color="#42A3F2"/>
</linearGradient>
<linearGradient id="paint9_linear_253_1142" x1="104.203" y1="119.181" x2="104.203" y2="111.136" gradientUnits="userSpaceOnUse">
<stop stop-color="#3079D6"/>
<stop offset="1" stop-color="#42A3F2"/>
</linearGradient>
<linearGradient id="paint10_linear_253_1142" x1="112.026" y1="119.084" x2="112.026" y2="111.197" gradientUnits="userSpaceOnUse">
<stop stop-color="#3079D6"/>
<stop offset="1" stop-color="#42A3F2"/>
</linearGradient>
<linearGradient id="paint11_linear_253_1142" x1="118.836" y1="119.084" x2="118.836" y2="111.197" gradientUnits="userSpaceOnUse">
<stop stop-color="#3079D6"/>
<stop offset="1" stop-color="#42A3F2"/>
</linearGradient>
<linearGradient id="paint12_linear_253_1142" x1="125.426" y1="119.084" x2="125.426" y2="111.203" gradientUnits="userSpaceOnUse">
<stop stop-color="#3079D6"/>
<stop offset="1" stop-color="#42A3F2"/>
</linearGradient>
<linearGradient id="paint13_linear_253_1142" x1="87.2494" y1="121.253" x2="87.2494" y2="121.056" gradientUnits="userSpaceOnUse">
<stop stop-color="#3079D6"/>
<stop offset="1" stop-color="#42A3F2"/>
</linearGradient>
<linearGradient id="paint14_linear_253_1142" x1="43.2889" y1="130.351" x2="43.2889" y2="122.408" gradientUnits="userSpaceOnUse">
<stop stop-color="#3079D6"/>
<stop offset="1" stop-color="#42A3F2"/>
</linearGradient>
<linearGradient id="paint15_linear_253_1142" x1="51.4771" y1="130.351" x2="51.4771" y2="122.452" gradientUnits="userSpaceOnUse">
<stop stop-color="#3079D6"/>
<stop offset="1" stop-color="#42A3F2"/>
</linearGradient>
<linearGradient id="paint16_linear_253_1142" x1="59.0722" y1="130.356" x2="59.0722" y2="122.505" gradientUnits="userSpaceOnUse">
<stop stop-color="#3079D6"/>
<stop offset="1" stop-color="#42A3F2"/>
</linearGradient>
<linearGradient id="paint17_linear_253_1142" x1="66.517" y1="130.351" x2="66.517" y2="122.464" gradientUnits="userSpaceOnUse">
<stop stop-color="#3079D6"/>
<stop offset="1" stop-color="#42A3F2"/>
</linearGradient>
<linearGradient id="paint18_linear_253_1142" x1="71.4954" y1="130.351" x2="71.4954" y2="122.451" gradientUnits="userSpaceOnUse">
<stop stop-color="#3079D6"/>
<stop offset="1" stop-color="#42A3F2"/>
</linearGradient>
<linearGradient id="paint19_linear_253_1142" x1="79.1138" y1="130.351" x2="79.1138" y2="122.464" gradientUnits="userSpaceOnUse">
<stop stop-color="#3079D6"/>
<stop offset="1" stop-color="#42A3F2"/>
</linearGradient>
<linearGradient id="paint20_linear_253_1142" x1="87.9158" y1="130.28" x2="87.9158" y2="122.423" gradientUnits="userSpaceOnUse">
<stop stop-color="#3079D6"/>
<stop offset="1" stop-color="#42A3F2"/>
</linearGradient>
<linearGradient id="paint21_linear_253_1142" x1="94.9094" y1="130.351" x2="94.9094" y2="122.464" gradientUnits="userSpaceOnUse">
<stop stop-color="#3079D6"/>
<stop offset="1" stop-color="#42A3F2"/>
</linearGradient>
<linearGradient id="paint22_linear_253_1142" x1="101.99" y1="130.351" x2="101.99" y2="122.464" gradientUnits="userSpaceOnUse">
<stop stop-color="#3079D6"/>
<stop offset="1" stop-color="#42A3F2"/>
</linearGradient>
<linearGradient id="paint23_linear_253_1142" x1="110.455" y1="130.351" x2="110.455" y2="122.464" gradientUnits="userSpaceOnUse">
<stop stop-color="#3079D6"/>
<stop offset="1" stop-color="#42A3F2"/>
</linearGradient>
<linearGradient id="paint24_linear_253_1142" x1="115.585" y1="130.351" x2="115.585" y2="122.464" gradientUnits="userSpaceOnUse">
<stop stop-color="#3079D6"/>
<stop offset="1" stop-color="#42A3F2"/>
</linearGradient>
<linearGradient id="paint25_linear_253_1142" x1="120.881" y1="130.351" x2="120.881" y2="122.505" gradientUnits="userSpaceOnUse">
<stop stop-color="#3079D6"/>
<stop offset="1" stop-color="#42A3F2"/>
</linearGradient>
<linearGradient id="paint26_linear_253_1142" x1="128.082" y1="130.351" x2="128.082" y2="122.447" gradientUnits="userSpaceOnUse">
<stop stop-color="#3079D6"/>
<stop offset="1" stop-color="#42A3F2"/>
</linearGradient>
<linearGradient id="paint27_linear_253_1142" x1="95.0562" y1="102.36" x2="95.0562" y2="40.9999" gradientUnits="userSpaceOnUse">
<stop stop-color="#0077D2"/>
<stop offset="1" stop-color="#42A3F2"/>
</linearGradient>
<linearGradient id="paint28_linear_253_1142" x1="79.8598" y1="102.248" x2="79.8598" y2="55.6415" gradientUnits="userSpaceOnUse">
<stop stop-color="#0077D2"/>
<stop offset="1" stop-color="#42A3F2"/>
</linearGradient>
<linearGradient id="paint29_linear_253_1142" x1="115.448" y1="68.9994" x2="115.448" y2="59.6502" gradientUnits="userSpaceOnUse">
<stop stop-color="#0077D2"/>
<stop offset="1" stop-color="#42A3F2"/>
</linearGradient>
</defs>
</svg>
