<svg width="199" height="199" viewBox="0 0 199 199" fill="none" xmlns="http://www.w3.org/2000/svg">
<g filter="url(#filter0_d_62_9776)">
<path d="M172.887 8H26.1129C18.3186 8 12 14.3186 12 22.1129V168.887C12 176.681 18.3186 183 26.1129 183H172.887C180.681 183 187 176.681 187 168.887V22.1129C187 14.3186 180.681 8 172.887 8Z" fill="white"/>
<path d="M172.887 8H26.1129C18.3186 8 12 14.3186 12 22.1129V168.887C12 176.681 18.3186 183 26.1129 183H172.887C180.681 183 187 176.681 187 168.887V22.1129C187 14.3186 180.681 8 172.887 8Z" fill="url(#paint0_linear_62_9776)" fill-opacity="0.2"/>
<path d="M172.887 8H26.1129C18.3186 8 12 14.3186 12 22.1129V168.887C12 176.681 18.3186 183 26.1129 183H172.887C180.681 183 187 176.681 187 168.887V22.1129C187 14.3186 180.681 8 172.887 8Z" stroke="#D5EAF6" stroke-width="15"/>
</g>
<path d="M121.795 46C121.795 47.4154 120.646 48.5641 119.231 48.5641C117.815 48.5641 116.667 47.4154 116.667 46H111.538C111.538 47.4154 110.39 48.5641 108.974 48.5641C107.559 48.5641 106.41 47.4154 106.41 46H101.282C101.282 47.4154 100.133 48.5641 98.7178 48.5641C97.3025 48.5641 96.1538 47.4154 96.1538 46H91.0256C91.0256 47.4154 89.8768 48.5641 88.4615 48.5641C87.0461 48.5641 85.8974 47.4154 85.8974 46H80.7692C80.7692 47.4154 79.6205 48.5641 78.2051 48.5641C76.7897 48.5641 75.641 47.4154 75.641 46H70.5128C70.5128 47.4154 69.3641 48.5641 67.9487 48.5641C66.5333 48.5641 65.3846 47.4154 65.3846 46H60.2564C60.2564 47.4154 59.1077 48.5641 57.6923 48.5641C56.2769 48.5641 55.1282 47.4154 55.1282 46H52.5641C51.1487 46 50 47.1487 50 48.5641V138.308C50 141.141 52.2949 143.436 55.1282 143.436H121.795C124.628 143.436 126.923 141.141 126.923 138.308V48.5641C126.923 47.1487 125.774 46 124.359 46H121.795Z" fill="#50E6FF"/>
<path d="M115.385 66.5127H61.5386C60.8309 66.5127 60.2566 65.9384 60.2566 65.2307V60.1025C60.2566 59.3948 60.8309 58.8204 61.5386 58.8204H115.385C116.092 58.8204 116.667 59.3948 116.667 60.1025V65.2307C116.667 65.9384 116.092 66.5127 115.385 66.5127Z" fill="#057093"/>
<path d="M115.384 84.4614H110.256C109.548 84.4614 108.974 83.8871 108.974 83.1794V80.6153C108.974 79.9076 109.548 79.3333 110.256 79.3333H115.384C116.092 79.3333 116.666 79.9076 116.666 80.6153V83.1794C116.666 83.8871 116.092 84.4614 115.384 84.4614Z" fill="#057093"/>
<path d="M94.8719 84.4614H61.5386C60.8309 84.4614 60.2566 83.8871 60.2566 83.1794V80.6153C60.2566 79.9076 60.8309 79.3333 61.5386 79.3333H94.8719C95.5796 79.3333 96.154 79.9076 96.154 80.6153V83.1794C96.154 83.8871 95.5796 84.4614 94.8719 84.4614Z" fill="#057093"/>
<path d="M115.384 94.7178H110.256C109.548 94.7178 108.974 94.1434 108.974 93.4357V90.8716C108.974 90.164 109.548 89.5896 110.256 89.5896H115.384C116.092 89.5896 116.666 90.164 116.666 90.8716V93.4357C116.666 94.1434 116.092 94.7178 115.384 94.7178Z" fill="#057093"/>
<path d="M87.1796 94.7178H61.5386C60.8309 94.7178 60.2566 94.1434 60.2566 93.4357V90.8716C60.2566 90.164 60.8309 89.5896 61.5386 89.5896H87.1796C87.8873 89.5896 88.4617 90.164 88.4617 90.8716V93.4357C88.4617 94.1434 87.8873 94.7178 87.1796 94.7178Z" fill="#057093"/>
<path d="M115.384 104.974H110.256C109.548 104.974 108.974 104.4 108.974 103.692V101.128C108.974 100.42 109.548 99.8461 110.256 99.8461H115.384C116.092 99.8461 116.666 100.42 116.666 101.128V103.692C116.666 104.4 116.092 104.974 115.384 104.974Z" fill="#057093"/>
<path d="M94.8719 104.974H61.5386C60.8309 104.974 60.2566 104.4 60.2566 103.692V101.128C60.2566 100.42 60.8309 99.8461 61.5386 99.8461H94.8719C95.5796 99.8461 96.154 100.42 96.154 101.128V103.692C96.154 104.4 95.5796 104.974 94.8719 104.974Z" fill="#057093"/>
<path d="M115.384 115.231H110.256C109.548 115.231 108.974 114.656 108.974 113.949V111.384C108.974 110.677 109.548 110.102 110.256 110.102H115.384C116.092 110.102 116.666 110.677 116.666 111.384V113.949C116.666 114.656 116.092 115.231 115.384 115.231Z" fill="#057093"/>
<path d="M87.1796 115.231H61.5386C60.8309 115.231 60.2566 114.656 60.2566 113.949V111.384C60.2566 110.677 60.8309 110.102 61.5386 110.102H87.1796C87.8873 110.102 88.4617 110.677 88.4617 111.384V113.949C88.4617 114.656 87.8873 115.231 87.1796 115.231Z" fill="#057093"/>
<path d="M115.384 130.615H105.128C104.42 130.615 103.846 130.041 103.846 129.333V126.769C103.846 126.061 104.42 125.487 105.128 125.487H115.384C116.092 125.487 116.666 126.061 116.666 126.769V129.333C116.666 130.041 116.092 130.615 115.384 130.615Z" fill="#057093"/>
<path d="M94.8714 130.615H71.7945C71.0868 130.615 70.5125 130.041 70.5125 129.333V126.769C70.5125 126.061 71.0868 125.487 71.7945 125.487H94.8714C95.5791 125.487 96.1534 126.061 96.1534 126.769V129.333C96.1534 130.041 95.5791 130.615 94.8714 130.615Z" fill="#057093"/>
<path d="M124.359 99.8461C107.392 99.8461 93.5894 113.649 93.5894 130.615C93.5894 135.195 94.6227 139.528 96.4227 143.436H121.794C124.628 143.436 126.923 141.141 126.923 138.308V99.9768C126.074 99.905 125.225 99.8461 124.359 99.8461Z" fill="url(#paint1_radial_62_9776)"/>
<path d="M150 130.615C150 144.774 138.518 156.256 124.359 156.256C110.2 156.256 98.718 144.774 98.718 130.615C98.718 116.456 110.2 104.974 124.359 104.974C138.518 104.974 150 116.456 150 130.615Z" fill="url(#paint2_linear_62_9776)"/>
<path d="M120.887 141.779L110.631 131.523C110.131 131.023 110.131 130.21 110.631 129.71L112.444 127.897C112.944 127.397 113.756 127.397 114.256 127.897L121.795 135.433L135.741 121.487C136.241 120.987 137.054 120.987 137.554 121.487L139.367 123.3C139.867 123.8 139.867 124.613 139.367 125.113L122.7 141.779C122.2 142.279 121.39 142.279 120.887 141.779Z" fill="white"/>
<defs>
<filter id="filter0_d_62_9776" x="0.5" y="0.5" width="198" height="198" filterUnits="userSpaceOnUse" color-interpolation-filters="sRGB">
<feFlood flood-opacity="0" result="BackgroundImageFix"/>
<feColorMatrix in="SourceAlpha" type="matrix" values="0 0 0 0 0 0 0 0 0 0 0 0 0 0 0 0 0 0 127 0" result="hardAlpha"/>
<feOffset dy="4"/>
<feGaussianBlur stdDeviation="2"/>
<feComposite in2="hardAlpha" operator="out"/>
<feColorMatrix type="matrix" values="0 0 0 0 0.8375 0 0 0 0 0.732812 0 0 0 0 0.732812 0 0 0 0.25 0"/>
<feBlend mode="normal" in2="BackgroundImageFix" result="effect1_dropShadow_62_9776"/>
<feBlend mode="normal" in="SourceGraphic" in2="effect1_dropShadow_62_9776" result="shape"/>
</filter>
<linearGradient id="paint0_linear_62_9776" x1="99.5" y1="16.4677" x2="99.5" y2="174.532" gradientUnits="userSpaceOnUse">
<stop stop-color="white"/>
<stop offset="0.472222" stop-color="#0D5176" stop-opacity="0.527778"/>
<stop offset="0.940972" stop-color="#12A6F7" stop-opacity="0.465278"/>
<stop offset="1" stop-opacity="0"/>
</linearGradient>
<radialGradient id="paint1_radial_62_9776" cx="0" cy="0" r="1" gradientUnits="userSpaceOnUse" gradientTransform="translate(123.566 130.369) scale(30.7102)">
<stop/>
<stop offset="0.979" stop-opacity="0"/>
</radialGradient>
<linearGradient id="paint2_linear_62_9776" x1="106.228" y1="112.484" x2="142.49" y2="148.746" gradientUnits="userSpaceOnUse">
<stop stop-color="#21AD64"/>
<stop offset="1" stop-color="#088242"/>
</linearGradient>
</defs>
</svg>
