<svg width="199" height="199" viewBox="0 0 199 199" fill="none" xmlns="http://www.w3.org/2000/svg">
<g filter="url(#filter0_d_64_10299)">
<path d="M172.887 8H26.1129C18.3186 8 12 14.3186 12 22.1129V168.887C12 176.681 18.3186 183 26.1129 183H172.887C180.681 183 187 176.681 187 168.887V22.1129C187 14.3186 180.681 8 172.887 8Z" fill="white"/>
<path d="M172.887 8H26.1129C18.3186 8 12 14.3186 12 22.1129V168.887C12 176.681 18.3186 183 26.1129 183H172.887C180.681 183 187 176.681 187 168.887V22.1129C187 14.3186 180.681 8 172.887 8Z" fill="url(#paint0_linear_64_10299)" fill-opacity="0.2"/>
<path d="M172.887 8H26.1129C18.3186 8 12 14.3186 12 22.1129V168.887C12 176.681 18.3186 183 26.1129 183H172.887C180.681 183 187 176.681 187 168.887V22.1129C187 14.3186 180.681 8 172.887 8Z" stroke="#D5EAF6" stroke-width="15" stroke-linecap="round"/>
</g>
<g filter="url(#filter1_bd_64_10299)">
<path d="M127.495 135.602C127.15 135.607 126.808 135.543 126.488 135.416C126.166 135.272 125.87 135.075 125.613 134.833C125.125 134.328 124.85 133.654 124.844 132.951C124.844 132.248 125.124 131.574 125.621 131.077C126.118 130.58 126.792 130.301 127.495 130.301C128.198 130.301 128.872 130.58 129.369 131.077C129.866 131.574 130.146 132.248 130.146 132.951C130.149 133.3 130.083 133.647 129.951 133.97C129.819 134.293 129.624 134.586 129.377 134.833C129.13 135.08 128.837 135.275 128.513 135.407C128.19 135.539 127.844 135.605 127.495 135.602L127.495 135.602Z" fill="#057093"/>
<path d="M66.9565 144.905C66.8878 144.564 66.8876 144.212 66.956 143.871C67.0244 143.529 67.1599 143.205 67.3547 142.916C67.5496 142.628 67.7998 142.381 68.0909 142.19C68.382 141.999 68.7082 141.868 69.0505 141.804C69.3918 141.735 69.7434 141.735 70.0848 141.803C70.4262 141.872 70.7506 142.007 71.0392 142.202C71.3277 142.397 71.5747 142.647 71.7656 142.938C71.9566 143.229 72.0877 143.556 72.1514 143.898C72.2846 144.587 72.1388 145.3 71.7462 145.882C71.3536 146.463 70.7462 146.865 70.0575 146.999C69.8913 147.03 69.723 147.048 69.554 147.053C68.9384 147.055 68.3416 146.841 67.8672 146.448C67.3927 146.056 67.0706 145.51 66.9565 144.905ZM76.605 142.997C76.5388 142.656 76.5403 142.306 76.6097 141.965C76.679 141.625 76.8147 141.301 77.009 141.013C77.2034 140.725 77.4525 140.479 77.7423 140.287C78.032 140.095 78.3567 139.962 78.6978 139.896C79.0393 139.825 79.3916 139.824 79.7338 139.891C80.0761 139.959 80.4013 140.094 80.6905 140.289C80.9796 140.484 81.2267 140.735 81.4173 141.028C81.6078 141.32 81.738 141.647 81.8 141.99C81.8686 142.33 81.8695 142.679 81.8026 143.019C81.7357 143.359 81.6024 143.682 81.4102 143.97C81.218 144.259 80.9708 144.506 80.6828 144.698C80.3948 144.891 80.0716 145.024 79.7319 145.091C79.5586 145.133 79.3805 145.15 79.2025 145.143C78.5883 145.141 77.9938 144.926 77.5203 144.534C77.0467 144.143 76.7233 143.6 76.605 142.997ZM86.2522 141.09C86.1243 140.401 86.2722 139.69 86.6639 139.109C87.0556 138.529 87.6598 138.125 88.3461 137.986C88.6891 137.917 89.0423 137.917 89.3854 137.985C89.7285 138.053 90.0547 138.188 90.3454 138.383C90.6361 138.578 90.8854 138.828 91.0792 139.119C91.2729 139.41 91.4072 139.737 91.4743 140.08C91.6024 140.768 91.4546 141.479 91.0628 142.06C90.671 142.64 90.0666 143.043 89.3803 143.181C89.2162 143.225 89.0465 143.243 88.8769 143.235C88.2595 143.234 87.6616 143.019 87.1836 142.628C86.7056 142.238 86.3767 141.694 86.2522 141.09ZM95.9265 139.179C95.858 138.838 95.8579 138.487 95.9263 138.145C95.9947 137.804 96.1303 137.479 96.3251 137.191C96.5199 136.902 96.7701 136.656 97.0611 136.465C97.3522 136.274 97.6783 136.142 98.0205 136.078C98.3619 136.01 98.7134 136.01 99.0548 136.078C99.3962 136.147 99.7206 136.282 100.009 136.477C100.298 136.672 100.545 136.922 100.736 137.213C100.927 137.504 101.059 137.83 101.123 138.172C101.192 138.514 101.192 138.865 101.123 139.207C101.055 139.548 100.919 139.872 100.725 140.161C100.53 140.45 100.28 140.696 99.9884 140.887C99.6973 141.078 99.3711 141.21 99.0288 141.273C98.8624 141.306 98.6935 141.324 98.524 141.328C97.9085 141.329 97.3119 141.115 96.8376 140.722C96.3632 140.33 96.0409 139.784 95.9265 139.179ZM105.575 137.297C105.443 136.606 105.589 135.89 105.981 135.305C106.373 134.719 106.979 134.312 107.669 134.171C108.012 134.102 108.365 134.101 108.708 134.169C109.051 134.237 109.378 134.372 109.669 134.567C109.959 134.762 110.209 135.012 110.402 135.303C110.596 135.594 110.73 135.921 110.797 136.265C110.929 136.953 110.783 137.666 110.39 138.247C109.998 138.828 109.391 139.23 108.703 139.365C108.528 139.396 108.35 139.413 108.173 139.417C107.562 139.415 106.971 139.203 106.498 138.818C106.025 138.432 105.699 137.895 105.575 137.298V137.297ZM115.249 135.39C115.179 135.049 115.176 134.697 115.242 134.354C115.308 134.012 115.44 133.686 115.633 133.396C115.825 133.105 116.073 132.855 116.362 132.661C116.651 132.467 116.976 132.331 117.318 132.263C117.661 132.192 118.014 132.19 118.358 132.257C118.702 132.324 119.029 132.459 119.32 132.654C119.611 132.849 119.861 133.1 120.054 133.392C120.247 133.685 120.38 134.013 120.444 134.357C120.578 135.046 120.432 135.759 120.04 136.341C119.647 136.922 119.04 137.324 118.352 137.458C118.185 137.488 118.016 137.505 117.847 137.51C117.235 137.511 116.642 137.301 116.169 136.915C115.695 136.528 115.37 135.989 115.249 135.39V135.39Z" fill="#057093"/>
<path d="M59.8798 148.961C59.5331 148.957 59.1905 148.885 58.8716 148.749C58.5554 148.62 58.2675 148.431 58.0238 148.192C57.7735 147.942 57.5752 147.645 57.4401 147.317C57.301 147 57.2292 146.657 57.2292 146.31C57.2292 145.964 57.301 145.621 57.4401 145.303C57.5682 144.973 57.7674 144.674 58.0238 144.429C58.2675 144.19 58.5554 144.001 58.8716 143.872C59.3552 143.661 59.8923 143.605 60.4091 143.711C60.5836 143.741 60.7531 143.795 60.9126 143.872C61.076 143.924 61.2289 144.005 61.3643 144.11C61.5077 144.202 61.641 144.309 61.7617 144.429C62.0093 144.681 62.207 144.978 62.3441 145.303C62.4723 145.623 62.5356 145.966 62.5303 146.311C62.5337 146.66 62.4675 147.006 62.3355 147.329C62.2035 147.652 62.0084 147.946 61.7616 148.192C61.5148 148.439 61.2212 148.634 60.8981 148.766C60.575 148.898 60.2288 148.964 59.8798 148.961Z" fill="#057093"/>
<path d="M55.1353 135.92C55.0013 135.228 55.1462 134.511 55.5383 133.925C55.9305 133.339 56.5382 132.931 57.2292 132.791C57.9179 132.66 58.6305 132.806 59.2115 133.199C59.7925 133.591 60.1947 134.197 60.3302 134.885C60.4007 135.225 60.4031 135.575 60.337 135.915C60.2709 136.256 60.1378 136.58 59.9453 136.868C59.7528 137.157 59.5049 137.404 59.2159 137.596C58.9269 137.788 58.6027 137.921 58.262 137.986C58.0891 138.03 57.9108 138.048 57.7327 138.04C57.1212 138.043 56.5279 137.832 56.0541 137.446C55.5804 137.059 55.2556 136.52 55.1353 135.92ZM52.988 125C52.9173 124.66 52.9148 124.31 52.9808 123.97C53.0467 123.629 53.1797 123.305 53.3721 123.016C53.5644 122.728 53.8123 122.48 54.1012 122.289C54.3901 122.097 54.7143 121.964 55.0549 121.899C55.396 121.828 55.7478 121.825 56.09 121.891C56.4322 121.956 56.758 122.089 57.0487 122.281C57.3395 122.473 57.5894 122.72 57.784 123.009C57.9787 123.298 58.1143 123.623 58.1831 123.964C58.3167 124.657 58.1718 125.374 57.7797 125.96C57.3876 126.546 56.78 126.953 56.0891 127.094C55.9228 127.124 55.7545 127.141 55.5856 127.146C54.9704 127.147 54.3739 126.933 53.8995 126.542C53.4251 126.15 53.1027 125.604 52.988 125ZM50.8137 114.105C50.6821 113.413 50.828 112.698 51.2198 112.112C51.6116 111.527 52.2179 111.12 52.9077 110.978C53.2507 110.909 53.6039 110.909 53.9471 110.977C54.2903 111.045 54.6167 111.18 54.9074 111.374C55.1981 111.569 55.4475 111.819 55.6412 112.111C55.8348 112.402 55.969 112.729 56.0358 113.072C56.1636 113.76 56.0157 114.471 55.6239 115.051C55.2322 115.632 54.628 116.034 53.9419 116.173C53.7669 116.203 53.59 116.22 53.4125 116.225C52.803 116.219 52.2136 116.006 51.7413 115.621C51.269 115.235 50.9418 114.701 50.8137 114.105V114.105ZM48.6678 103.184C48.5339 102.492 48.6789 101.775 49.0711 101.19C49.4633 100.604 50.0709 100.197 50.7618 100.057C51.4504 99.9263 52.163 100.073 52.7439 100.465C53.3249 100.857 53.7271 101.464 53.8628 102.151C53.9318 102.494 53.9323 102.847 53.8642 103.19C53.7962 103.534 53.661 103.86 53.4664 104.15C53.2717 104.441 53.0216 104.69 52.7302 104.884C52.4389 105.077 52.1121 105.211 51.7688 105.278C51.6021 105.302 51.4337 105.311 51.2654 105.307C50.6545 105.305 50.0629 105.093 49.5899 104.707C49.1169 104.32 48.7913 103.782 48.6678 103.184ZM46.5209 92.2636C46.4502 91.9221 46.4487 91.57 46.5162 91.2279C46.5838 90.8858 46.7191 90.5607 46.9143 90.2717C47.1094 89.9828 47.3604 89.7358 47.6524 89.5453C47.9445 89.3548 48.2717 89.2247 48.6148 89.1626C48.9543 89.094 49.304 89.0932 49.6438 89.1601C49.9836 89.227 50.3068 89.3604 50.5949 89.5525C50.883 89.7447 51.1304 89.9919 51.3227 90.2799C51.5151 90.5679 51.6487 90.891 51.7158 91.2308C51.7839 91.5736 51.7838 91.9265 51.7154 92.2693C51.647 92.612 51.5117 92.938 51.3172 93.2284C51.1227 93.5188 50.8728 93.768 50.5819 93.9618C50.291 94.1556 49.9648 94.2901 49.6218 94.3576C49.4558 94.3898 49.2874 94.408 49.1184 94.412C48.5027 94.4135 47.9059 94.1994 47.4315 93.807C46.9571 93.4146 46.6349 92.8686 46.5209 92.2636ZM44.3466 81.3454C44.219 80.6569 44.367 79.9458 44.7586 79.3653C45.1503 78.7848 45.7543 78.3814 46.4405 78.2419C46.7835 78.1731 47.1367 78.1727 47.4797 78.2408C47.8228 78.309 48.1491 78.4442 48.4398 78.6388C48.7305 78.8333 48.9798 79.0834 49.1735 79.3747C49.3673 79.6659 49.5016 79.9926 49.5687 80.3359C49.7001 81.0248 49.5537 81.7378 49.1614 82.3193C48.7691 82.9007 48.1628 83.3034 47.4747 83.4394C47.3103 83.4809 47.1407 83.4983 46.9713 83.4912C46.3539 83.4893 45.7559 83.275 45.2779 82.8843C44.7999 82.4935 44.471 81.9501 44.3465 81.3454H44.3466ZM42.1994 70.4506C42.0654 69.7586 42.2103 69.0417 42.6025 68.456C42.9947 67.8703 43.6025 67.4634 44.2934 67.3238C44.985 67.1951 45.6995 67.3421 46.2841 67.7334C46.8687 68.1248 47.2769 68.7293 47.4215 69.4177C47.5498 70.1091 47.4026 70.8233 47.0113 71.4076C46.62 71.9918 46.0157 72.3999 45.3276 72.5446C45.1526 72.5747 44.9757 72.592 44.7982 72.5964C44.1852 72.589 43.5932 72.3721 43.1204 71.9818C42.6476 71.5914 42.3226 71.0512 42.1993 70.4506H42.1994Z" fill="#057093"/>
<path d="M42.6507 61.6757C42.3029 61.6851 41.9577 61.6133 41.6425 61.466C41.3222 61.3306 41.0269 61.1425 40.7689 60.9094C40.3982 60.538 40.147 60.0643 40.0476 59.5491C39.9482 59.0338 40.0052 58.5007 40.2111 58.0181C40.34 57.6938 40.5292 57.397 40.7688 57.1433C41.2818 56.6714 41.9535 56.4094 42.6506 56.4094C43.3477 56.4094 44.0194 56.6714 44.5324 57.1433C44.7712 57.3974 44.96 57.6942 45.089 58.0182C45.2615 58.4193 45.331 58.8572 45.2913 59.292C45.2516 59.7268 45.104 60.1449 44.8618 60.5082C44.6196 60.8715 44.2905 61.1686 43.9044 61.3725C43.5182 61.5763 43.0873 61.6806 42.6507 61.6757Z" fill="#057093"/>
<path d="M49.7007 57.6221C49.5728 56.9338 49.7207 56.2229 50.1124 55.6427C50.5042 55.0625 51.1084 54.6597 51.7946 54.5212C52.1361 54.4502 52.4883 54.4484 52.8305 54.5159C53.1727 54.5833 53.4979 54.7186 53.787 54.9138C54.076 55.109 54.323 55.3601 54.5134 55.6523C54.7038 55.9445 54.8338 56.2719 54.8956 56.6151C54.9645 56.9545 54.9656 57.3042 54.8989 57.644C54.8322 57.9838 54.699 58.3071 54.5069 58.5953C54.3148 58.8835 54.0677 59.1309 53.7797 59.3232C53.4917 59.5155 53.1685 59.6491 52.8287 59.7161C52.6553 59.7589 52.4765 59.7764 52.2981 59.7678C51.6851 59.7611 51.0929 59.5444 50.6202 59.1539C50.1476 58.7635 49.823 58.2228 49.7007 57.6221ZM59.3763 55.7118C59.3076 55.3725 59.3067 55.0228 59.3734 54.6831C59.4402 54.3433 59.5735 54.0201 59.7655 53.732C59.9576 53.4438 60.2046 53.1965 60.4925 53.0041C60.7804 52.8117 61.1035 52.678 61.4432 52.6109C61.7863 52.5404 62.14 52.5388 62.4837 52.6062C62.8274 52.6736 63.1542 52.8087 63.4453 53.0035C63.7364 53.1983 63.9858 53.449 64.1791 53.7411C64.3724 54.0332 64.5057 54.3608 64.5714 54.7048C64.7049 55.3937 64.5593 56.1074 64.1666 56.6889C63.7739 57.2705 63.1663 57.6722 62.4774 57.8058C62.3114 57.8379 62.143 57.8561 61.974 57.8601C61.3583 57.8617 60.7615 57.6477 60.287 57.2553C59.8126 56.863 59.4904 56.317 59.3763 55.7119V55.7118ZM69.0235 53.8041C68.8904 53.1153 69.0361 52.4018 69.4287 51.8203C69.8214 51.2389 70.4288 50.8371 71.1175 50.7032C71.4589 50.6325 71.8111 50.6309 72.1532 50.6985C72.4953 50.766 72.8204 50.9013 73.1094 51.0965C73.3983 51.2916 73.6454 51.5426 73.8358 51.8347C74.0263 52.1268 74.1564 52.454 74.2184 52.7971C74.2875 53.1385 74.2879 53.4901 74.2196 53.8316C74.1514 54.1731 74.0159 54.4976 73.821 54.7862C73.6261 55.0748 73.3758 55.3218 73.0845 55.5127C72.7932 55.7036 72.4669 55.8346 72.1245 55.8981C71.9583 55.9291 71.79 55.9472 71.621 55.9525C71.0055 55.9536 70.4089 55.7394 69.9346 55.3471C69.4602 54.9548 69.138 54.4091 69.0235 53.8042V53.8041ZM78.672 51.8964C78.5438 51.2081 78.6916 50.4971 79.0834 49.9168C79.4753 49.3366 80.0796 48.9338 80.7659 48.7955C81.1089 48.7265 81.4622 48.726 81.8054 48.794C82.1485 48.8621 82.4749 48.9973 82.7656 49.1919C83.0564 49.3866 83.3057 49.6367 83.4994 49.9281C83.6931 50.2195 83.8273 50.5462 83.8942 50.8896C84.0217 51.5779 83.8737 52.2887 83.482 52.8687C83.0903 53.4488 82.4863 53.8517 81.8002 53.9906C81.6248 54.0206 81.4475 54.0379 81.2696 54.0424C80.6565 54.0357 80.0643 53.819 79.5916 53.4285C79.1189 53.038 78.7943 52.4973 78.672 51.8965V51.8964ZM88.3464 49.9888C88.2776 49.6474 88.2774 49.2959 88.3457 48.9545C88.4141 48.6131 88.5496 48.2887 88.7445 48.0001C88.9393 47.7116 89.1896 47.4646 89.4807 47.2737C89.7718 47.0827 90.098 46.9515 90.4403 46.8878C90.7817 46.8187 91.1333 46.8183 91.4748 46.8865C91.8163 46.9547 92.1409 47.0902 92.4295 47.2851C92.7181 47.48 92.965 47.7304 93.1559 48.0217C93.3468 48.3129 93.4778 48.6393 93.5413 48.9817C93.6099 49.323 93.6101 49.6746 93.5417 50.016C93.4733 50.3573 93.3378 50.6817 93.1429 50.9702C92.9481 51.2588 92.6979 51.5057 92.4068 51.6967C92.1157 51.8876 91.7896 52.0189 91.4473 52.0827C91.2811 52.1128 91.1128 52.1301 90.9439 52.1345C90.3287 52.1359 89.7323 51.9222 89.258 51.5304C88.7836 51.1386 88.4612 50.5933 88.3464 49.9889V49.9888ZM97.9948 48.0785C97.867 47.3902 98.015 46.6793 98.4067 46.0991C98.7985 45.519 99.4026 45.1161 100.089 44.9775C100.432 44.9087 100.785 44.9084 101.128 44.9765C101.471 45.0446 101.797 45.1799 102.088 45.3745C102.378 45.569 102.627 45.8191 102.821 46.1104C103.015 46.4016 103.149 46.7282 103.216 47.0715C103.344 47.7596 103.196 48.4705 102.805 49.0507C102.413 49.6309 101.809 50.0338 101.123 50.1724C100.948 50.2045 100.77 50.2227 100.592 50.2268C99.9777 50.2241 99.3831 50.0086 98.9096 49.6169C98.436 49.2253 98.1128 48.6817 97.9948 48.0786V48.0785Z" fill="#057093"/>
<path d="M110.267 48.3192C109.833 48.3143 109.406 48.2041 109.024 47.998C108.642 47.7919 108.316 47.4962 108.073 47.1362C107.831 46.7762 107.679 46.3627 107.632 45.9312C107.585 45.4997 107.643 45.0632 107.801 44.6591C107.95 44.3478 108.147 44.0621 108.385 43.8127C108.758 43.4465 109.23 43.1964 109.743 43.0925C110.255 42.9887 110.787 43.0357 111.274 43.2277C111.601 43.3629 111.898 43.5617 112.148 43.8127C112.63 44.3121 112.904 44.9751 112.917 45.6686C112.912 46.3713 112.637 47.045 112.148 47.5505C111.647 48.0445 110.971 48.3208 110.267 48.3192Z" fill="#057093"/>
<path d="M122.75 122.561C122.611 121.872 122.751 121.156 123.138 120.57C123.526 119.983 124.13 119.574 124.819 119.432C125.51 119.3 126.226 119.446 126.811 119.838C127.396 120.23 127.804 120.836 127.945 121.526C128.079 122.218 127.935 122.936 127.542 123.522C127.15 124.108 126.543 124.515 125.851 124.656C125.685 124.686 125.517 124.703 125.348 124.707C124.733 124.708 124.136 124.495 123.662 124.103C123.188 123.711 122.865 123.166 122.75 122.561ZM120.577 111.641C120.446 110.952 120.592 110.239 120.984 109.658C121.377 109.077 121.983 108.675 122.671 108.54C123.36 108.4 124.076 108.54 124.662 108.927C125.249 109.315 125.657 109.919 125.798 110.608C125.93 111.3 125.784 112.016 125.392 112.601C125.001 113.186 124.394 113.593 123.704 113.735C123.529 113.765 123.352 113.782 123.175 113.787C122.562 113.78 121.97 113.563 121.497 113.173C121.024 112.782 120.7 112.242 120.577 111.641V111.641ZM118.43 100.746C118.297 100.054 118.442 99.3372 118.834 98.7516C119.226 98.166 119.833 97.759 120.524 97.619C120.865 97.5511 121.217 97.5515 121.558 97.6202C121.899 97.6889 122.223 97.8245 122.511 98.0192C122.8 98.2139 123.047 98.4639 123.238 98.7546C123.429 99.0453 123.561 99.3711 123.625 99.713C123.696 100.053 123.698 100.403 123.632 100.743C123.567 101.084 123.433 101.408 123.241 101.696C123.049 101.985 122.801 102.232 122.512 102.424C122.223 102.616 121.899 102.749 121.558 102.814C121.385 102.856 121.206 102.873 121.028 102.866C120.416 102.869 119.822 102.659 119.349 102.272C118.875 101.885 118.55 101.346 118.43 100.746V100.746ZM116.283 89.8252C116.213 89.4837 116.211 89.1317 116.279 88.7897C116.347 88.4477 116.482 88.1227 116.677 87.8338C116.872 87.5449 117.123 87.2979 117.415 87.1073C117.707 86.9168 118.034 86.7865 118.377 86.7242C118.717 86.6556 119.066 86.6548 119.406 86.7217C119.746 86.7886 120.069 86.922 120.357 87.1141C120.645 87.3063 120.893 87.5535 121.085 87.8415C121.277 88.1295 121.411 88.4526 121.478 88.7924C121.547 89.1353 121.548 89.4885 121.48 89.8316C121.412 90.1747 121.277 90.501 121.082 90.7917C120.887 91.0823 120.637 91.3316 120.346 91.5251C120.054 91.7186 119.728 91.8526 119.384 91.9192C119.218 91.9514 119.05 91.9696 118.881 91.9736C118.265 91.9749 117.668 91.7608 117.194 91.3685C116.72 90.9761 116.397 90.4302 116.283 89.8253V89.8252ZM114.11 78.9046C113.983 78.2164 114.131 77.5056 114.523 76.9256C114.914 76.3455 115.518 75.9426 116.204 75.8036C116.896 75.6701 117.613 75.8151 118.198 76.2073C118.784 76.5994 119.191 77.2069 119.331 77.8976C119.463 78.5863 119.316 79.2991 118.924 79.8802C118.532 80.4614 117.925 80.8634 117.237 80.9985C117.062 81.0307 116.885 81.0489 116.708 81.0529C116.094 81.0461 115.502 80.8291 115.029 80.4381C114.556 80.0471 114.232 79.5058 114.11 78.9046ZM111.963 68.0124C111.834 67.321 111.981 66.6067 112.373 66.0223C112.764 65.438 113.369 65.0299 114.057 64.8856C114.748 64.7569 115.462 64.9036 116.046 65.2945C116.631 65.6853 117.039 66.2892 117.184 66.9771C117.315 67.666 117.169 68.379 116.777 68.9605C116.384 69.5419 115.778 69.9446 115.09 70.0806C114.917 70.1222 114.738 70.1397 114.56 70.1324C113.95 70.1305 113.359 69.9189 112.886 69.5329C112.413 69.1469 112.087 68.6101 111.963 68.0124ZM109.816 57.0917C109.745 56.7503 109.744 56.3981 109.811 56.056C109.879 55.7139 110.014 55.3888 110.209 55.0998C110.404 54.8109 110.655 54.5639 110.947 54.3734C111.239 54.1829 111.567 54.0528 111.91 53.9908C112.249 53.9219 112.599 53.9209 112.939 53.9877C113.279 54.0545 113.602 54.1878 113.89 54.38C114.179 54.5723 114.426 54.8195 114.618 55.1077C114.81 55.3958 114.944 55.7191 115.011 56.059C115.081 56.402 115.083 56.7557 115.016 57.0994C114.949 57.4431 114.814 57.77 114.619 58.061C114.424 58.352 114.173 58.6013 113.881 58.7944C113.589 58.9875 113.261 59.1206 112.917 59.1858C112.751 59.2158 112.582 59.2332 112.413 59.2376C111.798 59.2391 111.202 59.0254 110.727 58.6335C110.253 58.2416 109.93 57.6962 109.816 57.0916V57.0917Z" fill="#057093"/>
<path d="M149.999 63.586V144.217C150.018 145.453 149.546 146.647 148.687 147.536C147.827 148.425 146.65 148.938 145.414 148.961H85.6699C84.4333 148.938 83.2564 148.425 82.397 147.536C81.5375 146.647 81.0655 145.453 81.0843 144.217V63.586C81.0655 62.3494 81.5375 61.1557 82.3969 60.2664C83.2564 59.3771 84.4333 58.8647 85.6699 58.8414H145.414C146.65 58.8647 147.827 59.3771 148.687 60.2664C149.546 61.1557 150.018 62.3494 149.999 63.586Z" fill="white"/>
<path d="M138.072 80.046H93.0116C92.6602 80.0459 92.3232 79.9062 92.0746 79.6577C91.8261 79.4092 91.6865 79.0722 91.6863 78.7207V76.0702C91.6865 75.7187 91.8261 75.3817 92.0746 75.1332C92.3232 74.8847 92.6602 74.745 93.0116 74.7449H138.072C138.423 74.745 138.76 74.8847 139.008 75.1332C139.257 75.3817 139.397 75.7187 139.397 76.0702V78.7207C139.397 79.0722 139.257 79.4092 139.008 79.6577C138.76 79.9062 138.423 80.0459 138.072 80.046Z" fill="#AFC5CC"/>
<path d="M132.77 90.6482H93.0116C92.6602 90.6481 92.3232 90.5084 92.0746 90.2599C91.8261 90.0114 91.6865 89.6744 91.6863 89.3229V86.6723C91.6865 86.3209 91.8261 85.9839 92.0746 85.7354C92.3232 85.4868 92.6602 85.3472 93.0116 85.347H132.77C133.122 85.3472 133.459 85.4868 133.707 85.7354C133.956 85.9839 134.096 86.3209 134.096 86.6723V89.3229C134.096 89.6744 133.956 90.0114 133.707 90.2599C133.459 90.5084 133.122 90.6481 132.77 90.6482Z" fill="#AFC5CC"/>
<path d="M138.072 101.251H93.0116C92.6602 101.25 92.3232 101.111 92.0746 100.862C91.8261 100.614 91.6865 100.277 91.6863 99.9253V97.2748C91.6865 96.9233 91.8261 96.5863 92.0746 96.3378C92.3232 96.0893 92.6602 95.9496 93.0116 95.9495H138.072C138.423 95.9496 138.76 96.0893 139.008 96.3378C139.257 96.5863 139.397 96.9233 139.397 97.2748V99.9253C139.397 100.277 139.257 100.614 139.008 100.862C138.76 101.111 138.423 101.25 138.072 101.251Z" fill="#AFC5CC"/>
<path d="M138.072 122.455H93.0116C92.6602 122.455 92.3232 122.315 92.0746 122.067C91.8261 121.818 91.6865 121.481 91.6863 121.13V118.479C91.6865 118.128 91.8261 117.791 92.0746 117.542C92.3232 117.294 92.6602 117.154 93.0116 117.154H138.072C138.423 117.154 138.76 117.294 139.008 117.542C139.257 117.791 139.397 118.128 139.397 118.479V121.13C139.397 121.481 139.257 121.818 139.008 122.067C138.76 122.315 138.423 122.455 138.072 122.455Z" fill="#AFC5CC"/>
<path d="M132.77 111.853H93.0116C92.6602 111.853 92.3232 111.713 92.0746 111.465C91.8261 111.216 91.6865 110.879 91.6863 110.528V107.877C91.6865 107.526 91.8261 107.189 92.0746 106.94C92.3232 106.692 92.6602 106.552 93.0116 106.552H132.77C133.122 106.552 133.459 106.692 133.707 106.94C133.956 107.189 134.096 107.526 134.096 107.877V110.528C134.096 110.879 133.956 111.216 133.707 111.465C133.459 111.713 133.122 111.853 132.77 111.853Z" fill="#AFC5CC"/>
<path d="M132.77 133.058H93.0116C92.6602 133.058 92.3232 132.918 92.0746 132.669C91.8261 132.421 91.6865 132.084 91.6863 131.732V129.082C91.6865 128.73 91.8261 128.393 92.0746 128.145C92.3232 127.896 92.6602 127.757 93.0116 127.756H132.77C133.122 127.757 133.459 127.896 133.707 128.145C133.956 128.393 134.096 128.73 134.096 129.082V131.732C134.096 132.084 133.956 132.421 133.707 132.669C133.459 132.918 133.122 133.058 132.77 133.058Z" fill="#AFC5CC"/>
<path d="M86.3854 91.6683V116.134C86.3947 116.345 86.4665 116.549 86.5916 116.72C86.7167 116.89 86.8896 117.02 87.0883 117.092C87.2871 117.165 87.5029 117.177 87.7084 117.126C87.9139 117.076 88.0999 116.966 88.243 116.81L99.2014 105.002C99.482 104.704 99.6383 104.31 99.6383 103.901C99.6383 103.492 99.482 103.098 99.2014 102.8L88.243 90.9918C88.0999 90.8359 87.9139 90.726 87.7084 90.6758C87.5029 90.6256 87.2871 90.6375 87.0883 90.7099C86.8896 90.7823 86.7167 90.9119 86.5916 91.0825C86.4665 91.2531 86.3947 91.4569 86.3854 91.6683Z" fill="url(#paint1_linear_64_10299)"/>
<path d="M91.6863 98.6001V109.202H67.8311C67.1281 109.202 66.4539 108.923 65.9569 108.426C65.4598 107.929 65.1805 107.255 65.1805 106.552V101.251C65.1805 100.548 65.4598 99.8735 65.9569 99.3764C66.4539 98.8794 67.1281 98.6001 67.8311 98.6001H91.6863Z" fill="url(#paint2_linear_64_10299)"/>
<path opacity="0.05" d="M101.149 100.986L90.1759 89.1905C89.6721 88.6455 89.0165 88.264 88.2938 88.0951C87.5711 87.9262 86.8143 87.9778 86.1211 88.243C85.428 88.5083 84.8302 88.9752 84.4049 89.5834C83.9796 90.1917 83.7462 90.9134 83.735 91.6555V95.9495H81.0844V98.6H86.3856V91.6555C86.3927 91.3814 86.5083 91.1213 86.7072 90.9324C86.906 90.7435 87.1717 90.6413 87.4458 90.6483C87.5953 90.6456 87.7436 90.6749 87.8808 90.7344C88.0179 90.7938 88.1408 90.882 88.241 90.9929L99.2144 102.788C99.4835 103.096 99.6317 103.492 99.6317 103.901C99.6317 104.311 99.4835 104.706 99.2144 105.014L88.241 116.81C88.1407 116.92 88.0179 117.009 87.8807 117.068C87.7436 117.127 87.5953 117.157 87.4458 117.154C87.1717 117.161 86.906 117.059 86.7072 116.87C86.5084 116.681 86.3927 116.421 86.3856 116.147V109.202H81.0844V111.853H83.735V116.147C83.7462 116.889 83.9796 117.611 84.4049 118.219C84.8302 118.827 85.428 119.294 86.1211 119.559C86.8143 119.825 87.5711 119.876 88.2938 119.707C89.0165 119.538 89.6721 119.157 90.1759 118.612L101.149 106.817C101.89 106.027 102.302 104.984 102.302 103.901C102.302 102.818 101.89 101.776 101.149 100.986Z" fill="black"/>
<path opacity="0.07" d="M100.169 101.887L89.2216 90.0917C88.8974 89.742 88.4765 89.4968 88.0125 89.3873C87.5484 89.2777 87.0622 89.3088 86.6159 89.4765C86.1696 89.6442 85.7833 89.941 85.5062 90.3291C85.2292 90.7172 85.0739 91.1789 85.0602 91.6555V97.2748H81.0844V98.6001H86.3855V91.6555C86.3926 91.3814 86.5083 91.1213 86.7071 90.9324C86.9059 90.7435 87.1716 90.6413 87.4457 90.6483C87.5952 90.6456 87.7435 90.6749 87.8807 90.7344C88.0179 90.7938 88.1407 90.882 88.2409 90.9929L99.2143 102.788C99.4834 103.096 99.6317 103.492 99.6317 103.901C99.6317 104.311 99.4834 104.706 99.2143 105.014L88.2409 116.81C88.1407 116.92 88.0178 117.009 87.8807 117.068C87.7435 117.127 87.5952 117.157 87.4457 117.154C87.1716 117.161 86.9059 117.059 86.7071 116.87C86.5083 116.681 86.3926 116.421 86.3855 116.147V109.202H81.0844V110.528H85.0602V116.147C85.0739 116.624 85.2292 117.085 85.5062 117.473C85.7833 117.861 86.1696 118.158 86.6159 118.326C87.0622 118.494 87.5484 118.525 88.0125 118.415C88.4765 118.306 88.8974 118.06 89.2216 117.711L100.169 105.916C100.679 105.369 100.964 104.649 100.964 103.901C100.964 103.153 100.679 102.433 100.169 101.887Z" fill="black"/>
<path d="M148.621 126.908C148.621 135.573 141.594 142.6 132.93 142.6C124.265 142.6 117.238 135.573 117.238 126.908C117.238 118.243 124.265 111.217 132.93 111.217C141.594 111.217 148.621 118.243 148.621 126.908Z" fill="url(#paint3_linear_64_10299)"/>
<path d="M130.805 133.74L124.529 127.464C124.223 127.158 124.223 126.66 124.529 126.354L125.638 125.245C125.944 124.939 126.441 124.939 126.747 125.245L131.361 129.857L139.895 121.322C140.201 121.016 140.699 121.016 141.005 121.322L142.114 122.432C142.42 122.738 142.42 123.235 142.114 123.541L131.914 133.74C131.609 134.046 131.113 134.046 130.805 133.74Z" fill="white"/>
</g>
<defs>
<filter id="filter0_d_64_10299" x="0.5" y="0.5" width="198" height="198" filterUnits="userSpaceOnUse" color-interpolation-filters="sRGB">
<feFlood flood-opacity="0" result="BackgroundImageFix"/>
<feColorMatrix in="SourceAlpha" type="matrix" values="0 0 0 0 0 0 0 0 0 0 0 0 0 0 0 0 0 0 127 0" result="hardAlpha"/>
<feOffset dy="4"/>
<feGaussianBlur stdDeviation="2"/>
<feComposite in2="hardAlpha" operator="out"/>
<feColorMatrix type="matrix" values="0 0 0 0 0.8375 0 0 0 0 0.732812 0 0 0 0 0.732812 0 0 0 0.25 0"/>
<feBlend mode="normal" in2="BackgroundImageFix" result="effect1_dropShadow_64_10299"/>
<feBlend mode="normal" in="SourceGraphic" in2="effect1_dropShadow_64_10299" result="shape"/>
</filter>
<filter id="filter1_bd_64_10299" x="36" y="32" width="133" height="132" filterUnits="userSpaceOnUse" color-interpolation-filters="sRGB">
<feFlood flood-opacity="0" result="BackgroundImageFix"/>
<feGaussianBlur in="BackgroundImageFix" stdDeviation="2"/>
<feComposite in2="SourceAlpha" operator="in" result="effect1_backgroundBlur_64_10299"/>
<feColorMatrix in="SourceAlpha" type="matrix" values="0 0 0 0 0 0 0 0 0 0 0 0 0 0 0 0 0 0 127 0" result="hardAlpha"/>
<feOffset dy="4"/>
<feGaussianBlur stdDeviation="2"/>
<feComposite in2="hardAlpha" operator="out"/>
<feColorMatrix type="matrix" values="0 0 0 0 1 0 0 0 0 1 0 0 0 0 1 0 0 0 0.25 0"/>
<feBlend mode="normal" in2="effect1_backgroundBlur_64_10299" result="effect2_dropShadow_64_10299"/>
<feBlend mode="normal" in="SourceGraphic" in2="effect2_dropShadow_64_10299" result="shape"/>
</filter>
<linearGradient id="paint0_linear_64_10299" x1="99.5" y1="16.4677" x2="99.5" y2="174.532" gradientUnits="userSpaceOnUse">
<stop stop-color="white"/>
<stop offset="0.472222" stop-color="#0D5176" stop-opacity="0.527778"/>
<stop offset="0.940972" stop-color="#12A6F7" stop-opacity="0.465278"/>
<stop offset="1" stop-opacity="0"/>
</linearGradient>
<linearGradient id="paint1_linear_64_10299" x1="87.7955" y1="86.1237" x2="95.7022" y2="122.296" gradientUnits="userSpaceOnUse">
<stop stop-color="#FFD869"/>
<stop offset="1" stop-color="#FEC52B"/>
</linearGradient>
<linearGradient id="paint2_linear_64_10299" x1="75.3985" y1="88.8327" x2="83.3052" y2="125.005" gradientUnits="userSpaceOnUse">
<stop stop-color="#F8E115"/>
<stop offset="1" stop-color="#FEC52B"/>
</linearGradient>
<linearGradient id="paint3_linear_64_10299" x1="121.834" y1="115.813" x2="144.025" y2="138.004" gradientUnits="userSpaceOnUse">
<stop stop-color="#21AD64"/>
<stop offset="1" stop-color="#088242"/>
</linearGradient>
</defs>
</svg>
