<svg width="199" height="199" viewBox="0 0 199 199" fill="none" xmlns="http://www.w3.org/2000/svg">
<g filter="url(#filter0_d_54_604)">
<path d="M172.887 8H26.1129C18.3186 8 12 14.3186 12 22.1129V168.887C12 176.681 18.3186 183 26.1129 183H172.887C180.681 183 187 176.681 187 168.887V22.1129C187 14.3186 180.681 8 172.887 8Z" fill="white"/>
<path d="M172.887 8H26.1129C18.3186 8 12 14.3186 12 22.1129V168.887C12 176.681 18.3186 183 26.1129 183H172.887C180.681 183 187 176.681 187 168.887V22.1129C187 14.3186 180.681 8 172.887 8Z" fill="url(#paint0_linear_54_604)" fill-opacity="0.2"/>
<path d="M172.887 8H26.1129C18.3186 8 12 14.3186 12 22.1129V168.887C12 176.681 18.3186 183 26.1129 183H172.887C180.681 183 187 176.681 187 168.887V22.1129C187 14.3186 180.681 8 172.887 8Z" stroke="#D5EAF6" stroke-width="15" stroke-linecap="round"/>
</g>
<g filter="url(#filter1_dd_54_604)">
<path d="M152.272 145.322L143.13 124.522C145.917 119.387 147.5 113.502 147.5 107.25C147.5 87.23 131.27 71 111.25 71C91.23 71 75 87.23 75 107.25C75 127.27 91.23 143.5 111.25 143.5C117.783 143.5 123.895 141.747 129.188 138.725L148.725 148.672C150.895 149.777 153.253 147.55 152.272 145.322Z" fill="url(#paint1_linear_54_604)"/>
<path d="M93.75 108.5H133.75C134.44 108.5 135 107.94 135 107.25V104.75C135 104.06 134.44 103.5 133.75 103.5H93.75C93.06 103.5 92.5 104.06 92.5 104.75V107.25C92.5 107.94 93.06 108.5 93.75 108.5Z" fill="url(#paint2_linear_54_604)"/>
<path d="M93.75 118.5H126.25C126.94 118.5 127.5 117.94 127.5 117.25V114.75C127.5 114.06 126.94 113.5 126.25 113.5H93.75C93.06 113.5 92.5 114.06 92.5 114.75V117.25C92.5 117.94 93.06 118.5 93.75 118.5Z" fill="url(#paint3_linear_54_604)"/>
<path opacity="0.15" d="M75 107.25C75 110.708 75.515 114.037 76.4175 117.205C79.635 118.02 82.9825 118.5 86.45 118.5C109.095 118.5 127.455 100.032 127.455 77.25C127.455 76.4225 127.38 75.615 127.332 74.8C122.48 72.39 117.035 71 111.25 71C91.23 71 75 87.23 75 107.25Z" fill="url(#paint4_radial_54_604)"/>
<path d="M86.25 43.5C67.61 43.5 52.5 58.61 52.5 77.25C52.5 82.3975 53.685 87.255 55.7475 91.62C55.715 91.695 55.675 91.755 55.6475 91.84L47.73 109.855C46.75 112.085 49.1075 114.312 51.2775 113.207L67.2 105.1C72.6225 108.817 79.1775 111 86.25 111C104.89 111 120 95.89 120 77.25C120 58.61 104.89 43.5 86.25 43.5Z" fill="url(#paint5_linear_54_604)"/>
<path d="M66.25 73.5H106.25C106.94 73.5 107.5 72.94 107.5 72.25V69.75C107.5 69.06 106.94 68.5 106.25 68.5H66.25C65.56 68.5 65 69.06 65 69.75V72.25C65 72.94 65.56 73.5 66.25 73.5Z" fill="url(#paint6_linear_54_604)"/>
<path d="M66.25 83.5H98.75C99.44 83.5 100 82.94 100 82.25V79.75C100 79.06 99.44 78.5 98.75 78.5H66.25C65.56 78.5 65 79.06 65 79.75V82.25C65 82.94 65.56 83.5 66.25 83.5Z" fill="url(#paint7_linear_54_604)"/>
</g>
<defs>
<filter id="filter0_d_54_604" x="0.5" y="0.5" width="198" height="198" filterUnits="userSpaceOnUse" color-interpolation-filters="sRGB">
<feFlood flood-opacity="0" result="BackgroundImageFix"/>
<feColorMatrix in="SourceAlpha" type="matrix" values="0 0 0 0 0 0 0 0 0 0 0 0 0 0 0 0 0 0 127 0" result="hardAlpha"/>
<feOffset dy="4"/>
<feGaussianBlur stdDeviation="2"/>
<feComposite in2="hardAlpha" operator="out"/>
<feColorMatrix type="matrix" values="0 0 0 0 0.8375 0 0 0 0 0.732812 0 0 0 0 0.732812 0 0 0 0.25 0"/>
<feBlend mode="normal" in2="BackgroundImageFix" result="effect1_dropShadow_54_604"/>
<feBlend mode="normal" in="SourceGraphic" in2="effect1_dropShadow_54_604" result="shape"/>
</filter>
<filter id="filter1_dd_54_604" x="36" y="36" width="128" height="128" filterUnits="userSpaceOnUse" color-interpolation-filters="sRGB">
<feFlood flood-opacity="0" result="BackgroundImageFix"/>
<feColorMatrix in="SourceAlpha" type="matrix" values="0 0 0 0 0 0 0 0 0 0 0 0 0 0 0 0 0 0 127 0" result="hardAlpha"/>
<feOffset dy="4"/>
<feGaussianBlur stdDeviation="2"/>
<feComposite in2="hardAlpha" operator="out"/>
<feColorMatrix type="matrix" values="0 0 0 0 0 0 0 0 0 0 0 0 0 0 0 0 0 0 0.25 0"/>
<feBlend mode="normal" in2="BackgroundImageFix" result="effect1_dropShadow_54_604"/>
<feColorMatrix in="SourceAlpha" type="matrix" values="0 0 0 0 0 0 0 0 0 0 0 0 0 0 0 0 0 0 127 0" result="hardAlpha"/>
<feOffset dy="4"/>
<feGaussianBlur stdDeviation="2"/>
<feComposite in2="hardAlpha" operator="out"/>
<feColorMatrix type="matrix" values="0 0 0 0 1 0 0 0 0 1 0 0 0 0 1 0 0 0 1 0"/>
<feBlend mode="normal" in2="effect1_dropShadow_54_604" result="effect2_dropShadow_54_604"/>
<feBlend mode="normal" in="SourceGraphic" in2="effect2_dropShadow_54_604" result="shape"/>
</filter>
<linearGradient id="paint0_linear_54_604" x1="99.5" y1="16.4677" x2="99.5" y2="174.532" gradientUnits="userSpaceOnUse">
<stop stop-color="white"/>
<stop offset="0.472222" stop-color="#0D5176" stop-opacity="0.527778"/>
<stop offset="0.940972" stop-color="#12A6F7" stop-opacity="0.465278"/>
<stop offset="1" stop-opacity="0"/>
</linearGradient>
<linearGradient id="paint1_linear_54_604" x1="92.76" y1="76.065" x2="137.617" y2="151.72" gradientUnits="userSpaceOnUse">
<stop stop-color="#0176D0"/>
<stop offset="1" stop-color="#16538C"/>
</linearGradient>
<linearGradient id="paint2_linear_54_604" x1="109.197" y1="96.36" x2="118.728" y2="116.542" gradientUnits="userSpaceOnUse">
<stop stop-color="#199AE0"/>
<stop offset="1" stop-color="#0782D8"/>
</linearGradient>
<linearGradient id="paint3_linear_54_604" x1="106.115" y1="107.772" x2="114.248" y2="124.997" gradientUnits="userSpaceOnUse">
<stop stop-color="#199AE0"/>
<stop offset="1" stop-color="#0782D8"/>
</linearGradient>
<radialGradient id="paint4_radial_54_604" cx="0" cy="0" r="1" gradientUnits="userSpaceOnUse" gradientTransform="translate(86.725 77.8525) scale(40.2825 40.2825)">
<stop offset="0.627"/>
<stop offset="1" stop-opacity="0"/>
</radialGradient>
<linearGradient id="paint5_linear_54_604" x1="64.9925" y1="50.835" x2="94.45" y2="113.235" gradientUnits="userSpaceOnUse">
<stop stop-color="#0176D0"/>
<stop offset="1" stop-color="#22A5E2"/>
</linearGradient>
<linearGradient id="paint6_linear_54_604" x1="81.6975" y1="61.36" x2="91.2275" y2="81.5425" gradientUnits="userSpaceOnUse">
<stop stop-color="#199AE0"/>
<stop offset="1" stop-color="#0782D8"/>
</linearGradient>
<linearGradient id="paint7_linear_54_604" x1="78.615" y1="72.7725" x2="86.7475" y2="89.9975" gradientUnits="userSpaceOnUse">
<stop stop-color="#199AE0"/>
<stop offset="1" stop-color="#0782D8"/>
</linearGradient>
</defs>
</svg>
