<svg width="199" height="199" viewBox="0 0 199 199" fill="none" xmlns="http://www.w3.org/2000/svg">
<g filter="url(#filter0_d_52_2270)">
<path d="M172.887 8H26.1129C18.3186 8 12 14.3186 12 22.1129V168.887C12 176.681 18.3186 183 26.1129 183H172.887C180.681 183 187 176.681 187 168.887V22.1129C187 14.3186 180.681 8 172.887 8Z" fill="white"/>
<path d="M172.887 8H26.1129C18.3186 8 12 14.3186 12 22.1129V168.887C12 176.681 18.3186 183 26.1129 183H172.887C180.681 183 187 176.681 187 168.887V22.1129C187 14.3186 180.681 8 172.887 8Z" fill="url(#paint0_linear_52_2270)" fill-opacity="0.2"/>
<path d="M172.887 8H26.1129C18.3186 8 12 14.3186 12 22.1129V168.887C12 176.681 18.3186 183 26.1129 183H172.887C180.681 183 187 176.681 187 168.887V22.1129C187 14.3186 180.681 8 172.887 8Z" stroke="#D5EAF6" stroke-width="15" stroke-linecap="round"/>
</g>
<g filter="url(#filter1_bd_52_2270)">
<path d="M152.326 45H47.674C43.453 45 40 48.6688 40 53.1536V138.846C40 143.331 43.453 147 47.674 147H152.326C156.547 147 160 143.331 160 138.846V53.1536C160 48.6688 156.547 45 152.326 45Z" fill="url(#paint1_linear_52_2270)"/>
<path d="M119.59 141H149.413C151.948 141 154.003 138.945 154.003 136.41V106.59C154.003 104.055 151.948 102 149.413 102H119.59C117.055 102 115 104.055 115 106.59V136.413C115 138.945 117.055 141 119.59 141Z" fill="url(#paint2_linear_52_2270)"/>
<path d="M98.5 99H53.5C52.672 99 52 98.328 52 97.5V94.5C52 93.672 52.672 93 53.5 93H98.5C99.328 93 100 93.672 100 94.5V97.5C100 98.328 99.328 99 98.5 99Z" fill="#0D86AD"/>
<path d="M98.5 111H53.5C52.672 111 52 110.328 52 109.5V106.5C52 105.672 52.672 105 53.5 105H98.5C99.328 105 100 105.672 100 106.5V109.5C100 110.328 99.328 111 98.5 111Z" fill="#0D86AD"/>
<path d="M98.5 123H53.5C52.672 123 52 122.328 52 121.5V118.5C52 117.672 52.672 117 53.5 117H98.5C99.328 117 100 117.672 100 118.5V121.5C100 122.328 99.328 123 98.5 123Z" fill="#0D86AD"/>
<path d="M89.5 135H53.5C52.672 135 52 134.328 52 133.5V130.5C52 129.672 52.672 129 53.5 129H89.5C90.328 129 91 129.672 91 130.5V133.5C91 134.328 90.328 135 89.5 135Z" fill="#0D86AD"/>
<path d="M148 109.5V135H139V109.5C139 108.672 139.672 108 140.5 108H146.5C147.328 108 148 108.672 148 109.5Z" fill="#35C1F1"/>
<path d="M139 114V135H130V115.5C130 114.672 130.672 114 131.5 114H139Z" fill="#199BE2"/>
<path d="M130 120V135H121V121.5C121 120.672 121.672 120 122.5 120H130Z" fill="#0078D4"/>
<path d="M119.59 96H149.413C151.948 96 154.003 93.945 154.003 91.41V61.59C154.003 59.055 151.948 57 149.413 57H119.59C117.055 57 115 59.055 115 61.59V91.413C115 93.945 117.055 96 119.59 96Z" fill="url(#paint3_linear_52_2270)"/>
<path d="M121 76.5C121 83.955 127.045 90 134.5 90C141.955 90 148 83.955 148 76.5H134.5H121Z" fill="#D35230"/>
<path d="M134.5 63V76.5H148C148 69.045 141.955 63 134.5 63Z" fill="#FF8F6B"/>
<path d="M134.5 63C127.045 63 121 69.045 121 76.5H134.5V63Z" fill="#ED6C47"/>
</g>
<path d="M65.534 75.5251H62.5477C62.4931 75.1387 62.3818 74.7956 62.2136 74.4956C62.0454 74.191 61.8295 73.9319 61.5659 73.7183C61.3022 73.5046 60.9977 73.341 60.6522 73.2274C60.3113 73.1137 59.9409 73.0569 59.5409 73.0569C58.8181 73.0569 58.1886 73.2365 57.6522 73.5956C57.1159 73.9501 56.7 74.4683 56.4045 75.1501C56.109 75.8274 55.9613 76.6501 55.9613 77.6183C55.9613 78.6137 56.109 79.4501 56.4045 80.1274C56.7045 80.8046 57.1227 81.316 57.659 81.6615C58.1954 82.0069 58.8159 82.1796 59.5204 82.1796C59.9159 82.1796 60.2818 82.1274 60.6181 82.0228C60.959 81.9183 61.2613 81.766 61.525 81.566C61.7886 81.3615 62.0068 81.1137 62.1795 80.8228C62.3568 80.5319 62.4795 80.2001 62.5477 79.8274L65.534 79.841C65.4568 80.4819 65.2636 81.1001 64.9545 81.6956C64.65 82.2865 64.2386 82.816 63.7204 83.2842C63.2068 83.7478 62.5931 84.116 61.8795 84.3887C61.1704 84.6569 60.3681 84.791 59.4727 84.791C58.2272 84.791 57.1136 84.5092 56.1318 83.9456C55.1545 83.3819 54.3818 82.566 53.8136 81.4978C53.25 80.4296 52.9681 79.1365 52.9681 77.6183C52.9681 76.0956 53.2545 74.8001 53.8272 73.7319C54.4 72.6637 55.1772 71.8501 56.159 71.291C57.1409 70.7274 58.2454 70.4456 59.4727 70.4456C60.2818 70.4456 61.0318 70.5592 61.7227 70.7865C62.4181 71.0137 63.034 71.3456 63.5704 71.7819C64.1068 72.2137 64.5431 72.7433 64.8795 73.3706C65.2204 73.9978 65.4386 74.716 65.534 75.5251Z" fill="white"/>
<path d="M67.6511 84.6001V70.6365H73.1602C74.2147 70.6365 75.1147 70.8251 75.8602 71.2024C76.6102 71.5751 77.1806 72.1046 77.5715 72.791C77.967 73.4728 78.1647 74.2751 78.1647 75.1978C78.1647 76.1251 77.9647 76.9228 77.5647 77.591C77.1647 78.2546 76.5852 78.7637 75.8261 79.1183C75.0715 79.4728 74.1579 79.6501 73.0852 79.6501H69.3965V77.2774H72.6079C73.1715 77.2774 73.6397 77.2001 74.0125 77.0456C74.3852 76.891 74.6625 76.6592 74.8443 76.3501C75.0306 76.041 75.1238 75.6569 75.1238 75.1978C75.1238 74.7342 75.0306 74.3433 74.8443 74.0251C74.6625 73.7069 74.3829 73.466 74.0056 73.3024C73.6329 73.1342 73.1625 73.0501 72.5943 73.0501H70.6034V84.6001H67.6511ZM75.192 78.2456L78.6625 84.6001H75.4034L72.0079 78.2456H75.192Z" fill="white"/>
<path d="M80.2511 70.6365H83.892L87.7375 80.0183H87.9011L91.7465 70.6365H95.3875V84.6001H92.5238V75.5115H92.4079L88.7943 84.5319H86.8443L83.2306 75.4774H83.1147V84.6001H80.2511V70.6365Z" fill="white"/>
<defs>
<filter id="filter0_d_52_2270" x="0.5" y="0.5" width="198" height="198" filterUnits="userSpaceOnUse" color-interpolation-filters="sRGB">
<feFlood flood-opacity="0" result="BackgroundImageFix"/>
<feColorMatrix in="SourceAlpha" type="matrix" values="0 0 0 0 0 0 0 0 0 0 0 0 0 0 0 0 0 0 127 0" result="hardAlpha"/>
<feOffset dy="4"/>
<feGaussianBlur stdDeviation="2"/>
<feComposite in2="hardAlpha" operator="out"/>
<feColorMatrix type="matrix" values="0 0 0 0 0.8375 0 0 0 0 0.732812 0 0 0 0 0.732812 0 0 0 0.25 0"/>
<feBlend mode="normal" in2="BackgroundImageFix" result="effect1_dropShadow_52_2270"/>
<feBlend mode="normal" in="SourceGraphic" in2="effect1_dropShadow_52_2270" result="shape"/>
</filter>
<filter id="filter1_bd_52_2270" x="36" y="41" width="128" height="114" filterUnits="userSpaceOnUse" color-interpolation-filters="sRGB">
<feFlood flood-opacity="0" result="BackgroundImageFix"/>
<feGaussianBlur in="BackgroundImageFix" stdDeviation="2"/>
<feComposite in2="SourceAlpha" operator="in" result="effect1_backgroundBlur_52_2270"/>
<feColorMatrix in="SourceAlpha" type="matrix" values="0 0 0 0 0 0 0 0 0 0 0 0 0 0 0 0 0 0 127 0" result="hardAlpha"/>
<feOffset dy="4"/>
<feGaussianBlur stdDeviation="2"/>
<feComposite in2="hardAlpha" operator="out"/>
<feColorMatrix type="matrix" values="0 0 0 0 1 0 0 0 0 1 0 0 0 0 1 0 0 0 0.25 0"/>
<feBlend mode="normal" in2="effect1_backgroundBlur_52_2270" result="effect2_dropShadow_52_2270"/>
<feBlend mode="normal" in="SourceGraphic" in2="effect2_dropShadow_52_2270" result="shape"/>
</filter>
<linearGradient id="paint0_linear_52_2270" x1="99.5" y1="16.4677" x2="99.5" y2="174.532" gradientUnits="userSpaceOnUse">
<stop stop-color="white"/>
<stop offset="0.472222" stop-color="#0D5176" stop-opacity="0.527778"/>
<stop offset="0.940972" stop-color="#12A6F7" stop-opacity="0.465278"/>
<stop offset="1" stop-opacity="0"/>
</linearGradient>
<linearGradient id="paint1_linear_52_2270" x1="12.157" y1="44.0533" x2="216.174" y2="150.924" gradientUnits="userSpaceOnUse">
<stop stop-color="#33D7F0"/>
<stop offset="0.187" stop-color="#2FD1ED"/>
<stop offset="0.445" stop-color="#24BFE3"/>
<stop offset="0.744" stop-color="#13A2D4"/>
<stop offset="1" stop-color="#0083C4"/>
</linearGradient>
<linearGradient id="paint2_linear_52_2270" x1="92.6113" y1="60.3863" x2="113.516" y2="199.904" gradientUnits="userSpaceOnUse">
<stop stop-color="#FCFCFC"/>
<stop offset="1" stop-color="#C3C9CD"/>
</linearGradient>
<linearGradient id="paint3_linear_52_2270" x1="92.6113" y1="60.3863" x2="113.516" y2="199.904" gradientUnits="userSpaceOnUse">
<stop stop-color="#FCFCFC"/>
<stop offset="1" stop-color="#C3C9CD"/>
</linearGradient>
</defs>
</svg>
