<svg width="199" height="199" viewBox="0 0 199 199" fill="none" xmlns="http://www.w3.org/2000/svg">
<g filter="url(#filter0_d_54_4287)">
<path d="M172.887 8H26.1129C18.3186 8 12 14.3186 12 22.1129V168.887C12 176.681 18.3186 183 26.1129 183H172.887C180.681 183 187 176.681 187 168.887V22.1129C187 14.3186 180.681 8 172.887 8Z" fill="white"/>
<path d="M172.887 8H26.1129C18.3186 8 12 14.3186 12 22.1129V168.887C12 176.681 18.3186 183 26.1129 183H172.887C180.681 183 187 176.681 187 168.887V22.1129C187 14.3186 180.681 8 172.887 8Z" fill="url(#paint0_linear_54_4287)" fill-opacity="0.2"/>
<path d="M172.887 8H26.1129C18.3186 8 12 14.3186 12 22.1129V168.887C12 176.681 18.3186 183 26.1129 183H172.887C180.681 183 187 176.681 187 168.887V22.1129C187 14.3186 180.681 8 172.887 8Z" stroke="#D5EAF6" stroke-width="15"/>
</g>
<g filter="url(#filter1_bdd_54_4287)">
<path d="M144.052 48.6451L54.3025 79.3476C52.435 79.9851 51.885 82.3601 53.28 83.7551L112.242 142.718C113.637 144.113 116.012 143.563 116.65 141.695L147.352 51.9451C148.055 49.9026 146.097 47.9451 144.052 48.6451Z" fill="#35C1F1"/>
<path d="M135 61L72.5 102.972V121C72.5 122.38 73.62 123.5 75 123.5H93.0275L135 61Z" fill="#1B9DE2"/>
</g>
<defs>
<filter id="filter0_d_54_4287" x="0.5" y="0.5" width="198" height="198" filterUnits="userSpaceOnUse" color-interpolation-filters="sRGB">
<feFlood flood-opacity="0" result="BackgroundImageFix"/>
<feColorMatrix in="SourceAlpha" type="matrix" values="0 0 0 0 0 0 0 0 0 0 0 0 0 0 0 0 0 0 127 0" result="hardAlpha"/>
<feOffset dy="4"/>
<feGaussianBlur stdDeviation="2"/>
<feComposite in2="hardAlpha" operator="out"/>
<feColorMatrix type="matrix" values="0 0 0 0 0.8375 0 0 0 0 0.732812 0 0 0 0 0.732812 0 0 0 0.25 0"/>
<feBlend mode="normal" in2="BackgroundImageFix" result="effect1_dropShadow_54_4287"/>
<feBlend mode="normal" in="SourceGraphic" in2="effect1_dropShadow_54_4287" result="shape"/>
</filter>
<filter id="filter1_bdd_54_4287" x="36" y="32" width="128" height="132" filterUnits="userSpaceOnUse" color-interpolation-filters="sRGB">
<feFlood flood-opacity="0" result="BackgroundImageFix"/>
<feGaussianBlur in="BackgroundImageFix" stdDeviation="2"/>
<feComposite in2="SourceAlpha" operator="in" result="effect1_backgroundBlur_54_4287"/>
<feColorMatrix in="SourceAlpha" type="matrix" values="0 0 0 0 0 0 0 0 0 0 0 0 0 0 0 0 0 0 127 0" result="hardAlpha"/>
<feOffset dy="4"/>
<feGaussianBlur stdDeviation="2"/>
<feComposite in2="hardAlpha" operator="out"/>
<feColorMatrix type="matrix" values="0 0 0 0 1 0 0 0 0 1 0 0 0 0 1 0 0 0 0.25 0"/>
<feBlend mode="normal" in2="effect1_backgroundBlur_54_4287" result="effect2_dropShadow_54_4287"/>
<feColorMatrix in="SourceAlpha" type="matrix" values="0 0 0 0 0 0 0 0 0 0 0 0 0 0 0 0 0 0 127 0" result="hardAlpha"/>
<feOffset dy="4"/>
<feGaussianBlur stdDeviation="2"/>
<feComposite in2="hardAlpha" operator="out"/>
<feColorMatrix type="matrix" values="0 0 0 0 0 0 0 0 0 0 0 0 0 0 0 0 0 0 0.25 0"/>
<feBlend mode="normal" in2="effect2_dropShadow_54_4287" result="effect3_dropShadow_54_4287"/>
<feBlend mode="normal" in="SourceGraphic" in2="effect3_dropShadow_54_4287" result="shape"/>
</filter>
<linearGradient id="paint0_linear_54_4287" x1="99.5" y1="16.4677" x2="99.5" y2="174.532" gradientUnits="userSpaceOnUse">
<stop stop-color="white"/>
<stop offset="0.472222" stop-color="#0D5176" stop-opacity="0.527778"/>
<stop offset="0.940972" stop-color="#12A6F7" stop-opacity="0.465278"/>
<stop offset="1" stop-opacity="0"/>
</linearGradient>
</defs>
</svg>
