<svg width="199" height="199" viewBox="0 0 199 199" fill="none" xmlns="http://www.w3.org/2000/svg">
<g filter="url(#filter0_d_29_125)">
<path d="M172.887 8H26.1129C18.3186 8 12 14.3186 12 22.1129V168.887C12 176.681 18.3186 183 26.1129 183H172.887C180.681 183 187 176.681 187 168.887V22.1129C187 14.3186 180.681 8 172.887 8Z" fill="white"/>
<path d="M172.887 8H26.1129C18.3186 8 12 14.3186 12 22.1129V168.887C12 176.681 18.3186 183 26.1129 183H172.887C180.681 183 187 176.681 187 168.887V22.1129C187 14.3186 180.681 8 172.887 8Z" fill="url(#paint0_linear_29_125)" fill-opacity="0.2"/>
<path d="M172.887 8H26.1129C18.3186 8 12 14.3186 12 22.1129V168.887C12 176.681 18.3186 183 26.1129 183H172.887C180.681 183 187 176.681 187 168.887V22.1129C187 14.3186 180.681 8 172.887 8Z" stroke="#D5EAF6" stroke-width="15" stroke-linecap="round"/>
</g>
<path d="M42 138V69H162V138C162 141.3 159.3 144 156 144H48C44.7 144 42 141.3 42 138Z" fill="url(#paint1_linear_29_125)"/>
<path d="M162 54V69H42V54C42 50.7 44.7 48 48 48H156C159.3 48 162 50.7 162 54Z" fill="url(#paint2_linear_29_125)"/>
<path d="M79.5 63H154.5C155.328 63 156 62.328 156 61.5V55.5C156 54.672 155.328 54 154.5 54H79.5C78.672 54 78 54.672 78 55.5V61.5C78 62.328 78.672 63 79.5 63Z" fill="url(#paint3_linear_29_125)"/>
<path d="M52.5 63C54.9853 63 57 60.9853 57 58.5C57 56.0148 54.9853 54 52.5 54C50.0148 54 48 56.0148 48 58.5C48 60.9853 50.0148 63 52.5 63Z" fill="url(#paint4_linear_29_125)"/>
<path d="M67.4906 63C69.9759 63 71.9906 60.9853 71.9906 58.5C71.9906 56.0148 69.9759 54 67.4906 54C65.0054 54 62.9906 56.0148 62.9906 58.5C62.9906 60.9853 65.0054 63 67.4906 63Z" fill="url(#paint5_linear_29_125)"/>
<path d="M100 130C114.359 130 126 118.359 126 104C126 89.6406 114.359 78 100 78C85.6406 78 74 89.6406 74 104C74 118.359 85.6406 130 100 130Z" fill="url(#paint6_linear_29_125)"/>
<path d="M100 124.8C111.488 124.8 120.8 115.487 120.8 104C120.8 92.5124 111.488 83.2 100 83.2C88.513 83.2 79.2005 92.5124 79.2005 104C79.2005 115.487 88.513 124.8 100 124.8Z" fill="url(#paint7_radial_29_125)"/>
<path d="M107.54 118.82C107.02 119.08 106.5 118.82 106.24 118.3L99.2199 104.52C98.9599 104 99.2199 103.48 99.7399 103.22C100.26 102.96 100.78 103.22 101.04 103.74L108.06 117.52C108.32 117.78 108.06 118.56 107.54 118.82Z" fill="#D83B01"/>
<path d="M99.9996 105.04C99.7396 105.04 99.4797 105.04 99.2197 104.78C98.9597 104.52 98.9597 103.74 99.2197 103.48L110.14 92.5601C110.4 92.3001 111.18 92.3001 111.44 92.5601C111.7 92.8201 111.7 93.6001 111.44 93.8601L100.52 104.78C100.52 104.78 100.26 105.04 99.9996 105.04Z" fill="#45494D"/>
<path d="M99.9992 105.56C99.7392 105.56 99.4792 105.56 99.2192 105.3L89.0792 100.36C88.2992 100.1 88.0392 99.0601 88.2992 98.2801C88.5592 97.5001 89.5992 97.2401 90.3792 97.5001L100.519 102.44C101.299 102.7 101.559 103.74 101.299 104.52C101.299 105.3 100.519 105.56 99.9992 105.56Z" fill="#45494D"/>
<path d="M100 106.6C101.436 106.6 102.6 105.436 102.6 104C102.6 102.564 101.436 101.4 100 101.4C98.5644 101.4 97.4003 102.564 97.4003 104C97.4003 105.436 98.5644 106.6 100 106.6Z" fill="#1E2021"/>
<defs>
<filter id="filter0_d_29_125" x="0.5" y="0.5" width="198" height="198" filterUnits="userSpaceOnUse" color-interpolation-filters="sRGB">
<feFlood flood-opacity="0" result="BackgroundImageFix"/>
<feColorMatrix in="SourceAlpha" type="matrix" values="0 0 0 0 0 0 0 0 0 0 0 0 0 0 0 0 0 0 127 0" result="hardAlpha"/>
<feOffset dy="4"/>
<feGaussianBlur stdDeviation="2"/>
<feComposite in2="hardAlpha" operator="out"/>
<feColorMatrix type="matrix" values="0 0 0 0 0.8375 0 0 0 0 0.732812 0 0 0 0 0.732812 0 0 0 0.25 0"/>
<feBlend mode="normal" in2="BackgroundImageFix" result="effect1_dropShadow_29_125"/>
<feBlend mode="normal" in="SourceGraphic" in2="effect1_dropShadow_29_125" result="shape"/>
</filter>
<linearGradient id="paint0_linear_29_125" x1="99.5" y1="16.4677" x2="99.5" y2="174.532" gradientUnits="userSpaceOnUse">
<stop stop-color="white"/>
<stop offset="0.472222" stop-color="#0D5176" stop-opacity="0.527778"/>
<stop offset="0.940972" stop-color="#12A6F7" stop-opacity="0.465278"/>
<stop offset="1" stop-opacity="0"/>
</linearGradient>
<linearGradient id="paint1_linear_29_125" x1="70.44" y1="58.779" x2="124.902" y2="137.56" gradientUnits="userSpaceOnUse">
<stop stop-color="#7DD8F3"/>
<stop offset="1" stop-color="#45B0D0"/>
</linearGradient>
<linearGradient id="paint2_linear_29_125" x1="43.842" y1="47.223" x2="158.808" y2="70.599" gradientUnits="userSpaceOnUse">
<stop stop-color="#0077D2"/>
<stop offset="1" stop-color="#0B59A2"/>
</linearGradient>
<linearGradient id="paint3_linear_29_125" x1="78" y1="58.5" x2="156" y2="58.5" gradientUnits="userSpaceOnUse">
<stop stop-color="#7DD8F3"/>
<stop offset="1" stop-color="#45B0D0"/>
</linearGradient>
<linearGradient id="paint4_linear_29_125" x1="50.253" y1="55.248" x2="54.096" y2="60.807" gradientUnits="userSpaceOnUse">
<stop stop-color="#75DAFF"/>
<stop offset="1" stop-color="#49BEF1"/>
</linearGradient>
<linearGradient id="paint5_linear_29_125" x1="65.2436" y1="55.248" x2="69.0866" y2="60.807" gradientUnits="userSpaceOnUse">
<stop stop-color="#75DAFF"/>
<stop offset="1" stop-color="#49BEF1"/>
</linearGradient>
<linearGradient id="paint6_linear_29_125" x1="81.6154" y1="85.6154" x2="118.385" y2="122.385" gradientUnits="userSpaceOnUse">
<stop stop-color="#889097"/>
<stop offset="1" stop-color="#64717C"/>
</linearGradient>
<radialGradient id="paint7_radial_29_125" cx="0" cy="0" r="1" gradientUnits="userSpaceOnUse" gradientTransform="translate(99.8653 83.6836) scale(46.3528)">
<stop stop-color="#FAFAFB"/>
<stop offset="1" stop-color="#C8CDD1"/>
</radialGradient>
</defs>
</svg>
