<svg width="199" height="199" viewBox="0 0 199 199" fill="none" xmlns="http://www.w3.org/2000/svg">
<g filter="url(#filter0_d_52_2214)">
<path d="M172.887 8H26.1129C18.3186 8 12 14.3186 12 22.1129V168.887C12 176.681 18.3186 183 26.1129 183H172.887C180.681 183 187 176.681 187 168.887V22.1129C187 14.3186 180.681 8 172.887 8Z" fill="white"/>
<path d="M172.887 8H26.1129C18.3186 8 12 14.3186 12 22.1129V168.887C12 176.681 18.3186 183 26.1129 183H172.887C180.681 183 187 176.681 187 168.887V22.1129C187 14.3186 180.681 8 172.887 8Z" fill="url(#paint0_linear_52_2214)" fill-opacity="0.2"/>
<path d="M172.887 8H26.1129C18.3186 8 12 14.3186 12 22.1129V168.887C12 176.681 18.3186 183 26.1129 183H172.887C180.681 183 187 176.681 187 168.887V22.1129C187 14.3186 180.681 8 172.887 8Z" stroke="#D5EAF6" stroke-width="15" stroke-linecap="round"/>
</g>
<g filter="url(#filter1_bd_52_2214)">
<path d="M140.308 151H59.47C54.9906 151 51.3606 147.37 51.3606 142.891V49.1094C51.3606 44.63 54.9906 41 59.47 41H140.311C144.79 41 148.42 44.63 148.42 49.1094V142.891C148.417 147.37 144.787 151 140.308 151Z" fill="#50E6FF"/>
<path d="M128.917 71.5556H70.8612C70.0178 71.5556 69.3334 70.8711 69.3334 70.0278V63.9167C69.3334 63.0734 70.0178 62.3889 70.8612 62.3889H128.917C129.76 62.3889 130.444 63.0734 130.444 63.9167V70.0278C130.444 70.8711 129.76 71.5556 128.917 71.5556Z" fill="#057093"/>
<path d="M128.917 89.8887H122.805C121.962 89.8887 121.278 89.2043 121.278 88.3609V85.3054C121.278 84.462 121.962 83.7776 122.805 83.7776H128.917C129.76 83.7776 130.444 84.462 130.444 85.3054V88.3609C130.444 89.2043 129.76 89.8887 128.917 89.8887Z" fill="#057093"/>
<path d="M104.472 89.8887H70.8612C70.0178 89.8887 69.3334 89.2043 69.3334 88.3609V85.3054C69.3334 84.462 70.0178 83.7776 70.8612 83.7776H104.472C105.316 83.7776 106 84.462 106 85.3054V88.3609C106 89.2043 105.316 89.8887 104.472 89.8887Z" fill="#057093"/>
<path d="M128.917 102.111H122.805C121.962 102.111 121.278 101.427 121.278 100.583V97.5278C121.278 96.6844 121.962 96 122.805 96H128.917C129.76 96 130.444 96.6844 130.444 97.5278V100.583C130.444 101.427 129.76 102.111 128.917 102.111Z" fill="#057093"/>
<path d="M95.3056 102.111H70.8612C70.0178 102.111 69.3334 101.427 69.3334 100.583V97.5278C69.3334 96.6844 70.0178 96 70.8612 96H95.3056C96.1489 96 96.8334 96.6844 96.8334 97.5278V100.583C96.8334 101.427 96.1489 102.111 95.3056 102.111Z" fill="#057093"/>
<path d="M128.917 114.333H122.805C121.962 114.333 121.278 113.649 121.278 112.805V109.75C121.278 108.907 121.962 108.222 122.805 108.222H128.917C129.76 108.222 130.444 108.907 130.444 109.75V112.805C130.444 113.649 129.76 114.333 128.917 114.333Z" fill="#057093"/>
<path d="M104.472 114.333H70.8612C70.0178 114.333 69.3334 113.649 69.3334 112.805V109.75C69.3334 108.907 70.0178 108.222 70.8612 108.222H104.472C105.316 108.222 106 108.907 106 109.75V112.805C106 113.649 105.316 114.333 104.472 114.333Z" fill="#057093"/>
<path d="M128.917 126.556H122.805C121.962 126.556 121.278 125.871 121.278 125.028V121.972C121.278 121.129 121.962 120.444 122.805 120.444H128.917C129.76 120.444 130.444 121.129 130.444 121.972V125.028C130.444 125.871 129.76 126.556 128.917 126.556Z" fill="#057093"/>
<path d="M95.3056 126.556H70.8612C70.0178 126.556 69.3334 125.871 69.3334 125.028V121.972C69.3334 121.129 70.0178 120.444 70.8612 120.444H95.3056C96.1489 120.444 96.8334 121.129 96.8334 121.972V125.028C96.8334 125.871 96.1489 126.556 95.3056 126.556Z" fill="#057093"/>
<path d="M136.556 47.1111H142.667V53.2222C142.667 54.9089 144.036 56.2778 145.722 56.2778C147.409 56.2778 148.778 54.9089 148.778 53.2222V47.1111C148.778 43.75 146.028 41 142.667 41H136.556C134.869 41 133.5 42.3689 133.5 44.0556C133.5 45.7422 134.869 47.1111 136.556 47.1111Z" fill="#64717C" fill-opacity="0.19"/>
<path d="M57.1111 53.2222V47.1111H63.2222C64.9089 47.1111 66.2778 45.7422 66.2778 44.0556C66.2778 42.3689 64.9089 41 63.2222 41H57.1111C53.75 41 51 43.75 51 47.1111V53.2222C51 54.9089 52.3689 56.2778 54.0556 56.2778C55.7422 56.2778 57.1111 54.9089 57.1111 53.2222Z" fill="#64717C" fill-opacity="0.19"/>
<path d="M142.667 138.778V144.889H136.556C134.869 144.889 133.5 146.258 133.5 147.944C133.5 149.631 134.869 151 136.556 151H142.667C146.028 151 148.778 148.25 148.778 144.889V138.778C148.778 137.091 147.409 135.722 145.722 135.722C144.036 135.722 142.667 137.091 142.667 138.778Z" fill="#64717C" fill-opacity="0.19"/>
<path d="M63.2222 144.889H57.1111V138.778C57.1111 137.091 55.7422 135.722 54.0556 135.722C52.3689 135.722 51 137.091 51 138.778V144.889C51 148.25 53.75 151 57.1111 151H63.2222C64.9089 151 66.2778 149.631 66.2778 147.944C66.2778 146.258 64.9089 144.889 63.2222 144.889Z" fill="#64717C" fill-opacity="0.19"/>
<path d="M75.4445 47.1111C77.132 47.1111 78.5 45.7431 78.5 44.0556C78.5 42.368 77.132 41 75.4445 41C73.7569 41 72.3889 42.368 72.3889 44.0556C72.3889 45.7431 73.7569 47.1111 75.4445 47.1111Z" fill="#64717C" fill-opacity="0.19"/>
<path d="M87.6666 47.1111C89.3542 47.1111 90.7222 45.7431 90.7222 44.0556C90.7222 42.368 89.3542 41 87.6666 41C85.9791 41 84.6111 42.368 84.6111 44.0556C84.6111 45.7431 85.9791 47.1111 87.6666 47.1111Z" fill="#64717C" fill-opacity="0.19"/>
<path d="M99.8888 47.1111C101.576 47.1111 102.944 45.7431 102.944 44.0556C102.944 42.368 101.576 41 99.8888 41C98.2013 41 96.8333 42.368 96.8333 44.0556C96.8333 45.7431 98.2013 47.1111 99.8888 47.1111Z" fill="#64717C" fill-opacity="0.19"/>
<path d="M124.333 47.1111C126.021 47.1111 127.389 45.7431 127.389 44.0556C127.389 42.368 126.021 41 124.333 41C122.646 41 121.278 42.368 121.278 44.0556C121.278 45.7431 122.646 47.1111 124.333 47.1111Z" fill="#64717C" fill-opacity="0.19"/>
<path d="M142.667 47.1111C144.354 47.1111 145.722 45.7431 145.722 44.0556C145.722 42.368 144.354 41 142.667 41C140.979 41 139.611 42.368 139.611 44.0556C139.611 45.7431 140.979 47.1111 142.667 47.1111Z" fill="#64717C" fill-opacity="0.19"/>
<path d="M112.111 47.1111C113.799 47.1111 115.167 45.7431 115.167 44.0556C115.167 42.368 113.799 41 112.111 41C110.424 41 109.056 42.368 109.056 44.0556C109.056 45.7431 110.424 47.1111 112.111 47.1111Z" fill="#64717C" fill-opacity="0.19"/>
<path d="M75.4445 151C77.132 151 78.5 149.632 78.5 147.945C78.5 146.257 77.132 144.889 75.4445 144.889C73.7569 144.889 72.3889 146.257 72.3889 147.945C72.3889 149.632 73.7569 151 75.4445 151Z" fill="#64717C" fill-opacity="0.19"/>
<path d="M87.6666 151C89.3542 151 90.7222 149.632 90.7222 147.945C90.7222 146.257 89.3542 144.889 87.6666 144.889C85.9791 144.889 84.6111 146.257 84.6111 147.945C84.6111 149.632 85.9791 151 87.6666 151Z" fill="#64717C" fill-opacity="0.19"/>
<path d="M99.8888 151C101.576 151 102.944 149.632 102.944 147.945C102.944 146.257 101.576 144.889 99.8888 144.889C98.2013 144.889 96.8333 146.257 96.8333 147.945C96.8333 149.632 98.2013 151 99.8888 151Z" fill="#64717C" fill-opacity="0.19"/>
<path d="M124.333 151C126.021 151 127.389 149.632 127.389 147.945C127.389 146.257 126.021 144.889 124.333 144.889C122.646 144.889 121.278 146.257 121.278 147.945C121.278 149.632 122.646 151 124.333 151Z" fill="#64717C" fill-opacity="0.19"/>
<path d="M142.667 151C144.354 151 145.722 149.632 145.722 147.945C145.722 146.257 144.354 144.889 142.667 144.889C140.979 144.889 139.611 146.257 139.611 147.945C139.611 149.632 140.979 151 142.667 151Z" fill="#64717C" fill-opacity="0.19"/>
<path d="M112.111 151C113.799 151 115.167 149.632 115.167 147.945C115.167 146.257 113.799 144.889 112.111 144.889C110.424 144.889 109.056 146.257 109.056 147.945C109.056 149.632 110.424 151 112.111 151Z" fill="#64717C" fill-opacity="0.19"/>
<path d="M145.722 68.5C147.41 68.5 148.778 67.132 148.778 65.4445C148.778 63.7569 147.41 62.3889 145.722 62.3889C144.035 62.3889 142.667 63.7569 142.667 65.4445C142.667 67.132 144.035 68.5 145.722 68.5Z" fill="#64717C" fill-opacity="0.19"/>
<path d="M145.722 80.7222C147.41 80.7222 148.778 79.3542 148.778 77.6666C148.778 75.9791 147.41 74.6111 145.722 74.6111C144.035 74.6111 142.667 75.9791 142.667 77.6666C142.667 79.3542 144.035 80.7222 145.722 80.7222Z" fill="#64717C" fill-opacity="0.19"/>
<path d="M145.722 92.9445C147.41 92.9445 148.778 91.5765 148.778 89.8889C148.778 88.2014 147.41 86.8334 145.722 86.8334C144.035 86.8334 142.667 88.2014 142.667 89.8889C142.667 91.5765 144.035 92.9445 145.722 92.9445Z" fill="#64717C" fill-opacity="0.19"/>
<path d="M145.722 117.389C147.41 117.389 148.778 116.021 148.778 114.333C148.778 112.646 147.41 111.278 145.722 111.278C144.035 111.278 142.667 112.646 142.667 114.333C142.667 116.021 144.035 117.389 145.722 117.389Z" fill="#64717C" fill-opacity="0.19"/>
<path d="M145.722 129.611C147.41 129.611 148.778 128.243 148.778 126.556C148.778 124.868 147.41 123.5 145.722 123.5C144.035 123.5 142.667 124.868 142.667 126.556C142.667 128.243 144.035 129.611 145.722 129.611Z" fill="#64717C" fill-opacity="0.19"/>
<path d="M145.722 105.167C147.41 105.167 148.778 103.799 148.778 102.111C148.778 100.424 147.41 99.0555 145.722 99.0555C144.035 99.0555 142.667 100.424 142.667 102.111C142.667 103.799 144.035 105.167 145.722 105.167Z" fill="#64717C" fill-opacity="0.19"/>
<path d="M54.0556 68.5C55.7431 68.5 57.1111 67.132 57.1111 65.4445C57.1111 63.7569 55.7431 62.3889 54.0556 62.3889C52.368 62.3889 51 63.7569 51 65.4445C51 67.132 52.368 68.5 54.0556 68.5Z" fill="#64717C" fill-opacity="0.19"/>
<path d="M54.0556 80.7222C55.7431 80.7222 57.1111 79.3542 57.1111 77.6666C57.1111 75.9791 55.7431 74.6111 54.0556 74.6111C52.368 74.6111 51 75.9791 51 77.6666C51 79.3542 52.368 80.7222 54.0556 80.7222Z" fill="#64717C" fill-opacity="0.19"/>
<path d="M54.0556 92.9445C55.7431 92.9445 57.1111 91.5765 57.1111 89.8889C57.1111 88.2014 55.7431 86.8334 54.0556 86.8334C52.368 86.8334 51 88.2014 51 89.8889C51 91.5765 52.368 92.9445 54.0556 92.9445Z" fill="#64717C" fill-opacity="0.19"/>
<path d="M54.0556 117.389C55.7431 117.389 57.1111 116.021 57.1111 114.333C57.1111 112.646 55.7431 111.278 54.0556 111.278C52.368 111.278 51 112.646 51 114.333C51 116.021 52.368 117.389 54.0556 117.389Z" fill="#64717C" fill-opacity="0.19"/>
<path d="M54.0556 129.611C55.7431 129.611 57.1111 128.243 57.1111 126.556C57.1111 124.868 55.7431 123.5 54.0556 123.5C52.368 123.5 51 124.868 51 126.556C51 128.243 52.368 129.611 54.0556 129.611Z" fill="#64717C" fill-opacity="0.19"/>
<path d="M54.0556 105.167C55.7431 105.167 57.1111 103.799 57.1111 102.111C57.1111 100.424 55.7431 99.0555 54.0556 99.0555C52.368 99.0555 51 100.424 51 102.111C51 103.799 52.368 105.167 54.0556 105.167Z" fill="#64717C" fill-opacity="0.19"/>
</g>
<defs>
<filter id="filter0_d_52_2214" x="0.5" y="0.5" width="198" height="198" filterUnits="userSpaceOnUse" color-interpolation-filters="sRGB">
<feFlood flood-opacity="0" result="BackgroundImageFix"/>
<feColorMatrix in="SourceAlpha" type="matrix" values="0 0 0 0 0 0 0 0 0 0 0 0 0 0 0 0 0 0 127 0" result="hardAlpha"/>
<feOffset dy="4"/>
<feGaussianBlur stdDeviation="2"/>
<feComposite in2="hardAlpha" operator="out"/>
<feColorMatrix type="matrix" values="0 0 0 0 0.8375 0 0 0 0 0.732812 0 0 0 0 0.732812 0 0 0 0.25 0"/>
<feBlend mode="normal" in2="BackgroundImageFix" result="effect1_dropShadow_52_2214"/>
<feBlend mode="normal" in="SourceGraphic" in2="effect1_dropShadow_52_2214" result="shape"/>
</filter>
<filter id="filter1_bd_52_2214" x="47" y="37" width="105.778" height="122" filterUnits="userSpaceOnUse" color-interpolation-filters="sRGB">
<feFlood flood-opacity="0" result="BackgroundImageFix"/>
<feGaussianBlur in="BackgroundImageFix" stdDeviation="2"/>
<feComposite in2="SourceAlpha" operator="in" result="effect1_backgroundBlur_52_2214"/>
<feColorMatrix in="SourceAlpha" type="matrix" values="0 0 0 0 0 0 0 0 0 0 0 0 0 0 0 0 0 0 127 0" result="hardAlpha"/>
<feOffset dy="4"/>
<feGaussianBlur stdDeviation="2"/>
<feComposite in2="hardAlpha" operator="out"/>
<feColorMatrix type="matrix" values="0 0 0 0 1 0 0 0 0 1 0 0 0 0 1 0 0 0 0.25 0"/>
<feBlend mode="normal" in2="effect1_backgroundBlur_52_2214" result="effect2_dropShadow_52_2214"/>
<feBlend mode="normal" in="SourceGraphic" in2="effect2_dropShadow_52_2214" result="shape"/>
</filter>
<linearGradient id="paint0_linear_52_2214" x1="99.5" y1="16.4677" x2="99.5" y2="174.532" gradientUnits="userSpaceOnUse">
<stop stop-color="white"/>
<stop offset="0.472222" stop-color="#0D5176" stop-opacity="0.527778"/>
<stop offset="0.940972" stop-color="#12A6F7" stop-opacity="0.465278"/>
<stop offset="1" stop-opacity="0"/>
</linearGradient>
</defs>
</svg>
