<svg width="199" height="199" viewBox="0 0 199 199" fill="none" xmlns="http://www.w3.org/2000/svg">
<g filter="url(#filter0_d_54_4017)">
<path d="M172.887 8H26.1129C18.3186 8 12 14.3186 12 22.1129V168.887C12 176.681 18.3186 183 26.1129 183H172.887C180.681 183 187 176.681 187 168.887V22.1129C187 14.3186 180.681 8 172.887 8Z" fill="white"/>
<path d="M172.887 8H26.1129C18.3186 8 12 14.3186 12 22.1129V168.887C12 176.681 18.3186 183 26.1129 183H172.887C180.681 183 187 176.681 187 168.887V22.1129C187 14.3186 180.681 8 172.887 8Z" fill="url(#paint0_linear_54_4017)" fill-opacity="0.2"/>
<path d="M172.887 8H26.1129C18.3186 8 12 14.3186 12 22.1129V168.887C12 176.681 18.3186 183 26.1129 183H172.887C180.681 183 187 176.681 187 168.887V22.1129C187 14.3186 180.681 8 172.887 8Z" stroke="#D5EAF6" stroke-width="15" stroke-linecap="round"/>
</g>
<g filter="url(#filter1_dd_54_4017)">
<g clip-path="url(#clip0_54_4017)" filter="url(#filter2_bdd_54_4017)">
<g filter="url(#filter3_bdd_54_4017)">
<path d="M45.8334 139.333V66.2084H154.167V139.333C154.167 142.313 151.729 144.75 148.75 144.75H51.25C48.2709 144.75 45.8334 142.313 45.8334 139.333Z" fill="#50E6FF"/>
<path d="M154.167 52.6667V66.2083H45.8334V52.6667C45.8334 49.6875 48.2709 47.25 51.25 47.25H148.75C151.729 47.25 154.167 49.6875 154.167 52.6667Z" fill="url(#paint1_linear_54_4017)"/>
<path d="M55.3125 60.7916C57.5562 60.7916 59.375 58.9728 59.375 56.7291C59.375 54.4855 57.5562 52.6666 55.3125 52.6666C53.0688 52.6666 51.25 54.4855 51.25 56.7291C51.25 58.9728 53.0688 60.7916 55.3125 60.7916Z" fill="url(#paint2_linear_54_4017)"/>
<path d="M68.8541 60.7916C71.0978 60.7916 72.9166 58.9728 72.9166 56.7291C72.9166 54.4855 71.0978 52.6666 68.8541 52.6666C66.6105 52.6666 64.7916 54.4855 64.7916 56.7291C64.7916 58.9728 66.6105 60.7916 68.8541 60.7916Z" fill="url(#paint3_linear_54_4017)"/>
<path d="M82.3959 60.7916C84.6395 60.7916 86.4584 58.9728 86.4584 56.7291C86.4584 54.4855 84.6395 52.6666 82.3959 52.6666C80.1522 52.6666 78.3334 54.4855 78.3334 56.7291C78.3334 58.9728 80.1522 60.7916 82.3959 60.7916Z" fill="url(#paint4_linear_54_4017)"/>
<path d="M100.265 131.208C115.223 131.208 127.349 119.083 127.349 104.125C127.349 89.1672 115.223 77.0416 100.265 77.0416C85.3077 77.0416 73.1821 89.1672 73.1821 104.125C73.1821 119.083 85.3077 131.208 100.265 131.208Z" fill="url(#paint5_radial_54_4017)"/>
<path d="M107.266 126.453H92.7335C92.7335 127.471 92.7335 129.359 92.7335 129.359C92.7335 133.429 95.9321 136.625 100 136.625C104.068 136.625 107.266 133.429 107.266 129.359C107.266 129.359 107.266 127.471 107.266 126.453Z" fill="url(#paint6_radial_54_4017)"/>
<path d="M114.349 104.932C114.349 97.04 107.892 90.5834 100 90.5834C92.1079 90.5834 85.6512 97.04 85.6512 104.932C85.6512 112.106 92.8256 117.845 92.8256 125.02V126.455H107.174V125.02C107.174 117.843 114.349 112.104 114.349 104.932Z" fill="#FEFEFE"/>
</g>
</g>
</g>
<defs>
<filter id="filter0_d_54_4017" x="0.5" y="0.5" width="198" height="198" filterUnits="userSpaceOnUse" color-interpolation-filters="sRGB">
<feFlood flood-opacity="0" result="BackgroundImageFix"/>
<feColorMatrix in="SourceAlpha" type="matrix" values="0 0 0 0 0 0 0 0 0 0 0 0 0 0 0 0 0 0 127 0" result="hardAlpha"/>
<feOffset dy="4"/>
<feGaussianBlur stdDeviation="2"/>
<feComposite in2="hardAlpha" operator="out"/>
<feColorMatrix type="matrix" values="0 0 0 0 0.8375 0 0 0 0 0.732812 0 0 0 0 0.732812 0 0 0 0.25 0"/>
<feBlend mode="normal" in2="BackgroundImageFix" result="effect1_dropShadow_54_4017"/>
<feBlend mode="normal" in="SourceGraphic" in2="effect1_dropShadow_54_4017" result="shape"/>
</filter>
<filter id="filter1_dd_54_4017" x="31" y="31" width="138" height="138" filterUnits="userSpaceOnUse" color-interpolation-filters="sRGB">
<feFlood flood-opacity="0" result="BackgroundImageFix"/>
<feColorMatrix in="SourceAlpha" type="matrix" values="0 0 0 0 0 0 0 0 0 0 0 0 0 0 0 0 0 0 127 0" result="hardAlpha"/>
<feOffset dy="4"/>
<feGaussianBlur stdDeviation="2"/>
<feComposite in2="hardAlpha" operator="out"/>
<feColorMatrix type="matrix" values="0 0 0 0 0 0 0 0 0 0 0 0 0 0 0 0 0 0 0.25 0"/>
<feBlend mode="normal" in2="BackgroundImageFix" result="effect1_dropShadow_54_4017"/>
<feColorMatrix in="SourceAlpha" type="matrix" values="0 0 0 0 0 0 0 0 0 0 0 0 0 0 0 0 0 0 127 0" result="hardAlpha"/>
<feOffset dy="4"/>
<feGaussianBlur stdDeviation="2"/>
<feComposite in2="hardAlpha" operator="out"/>
<feColorMatrix type="matrix" values="0 0 0 0 1 0 0 0 0 1 0 0 0 0 1 0 0 0 0.25 0"/>
<feBlend mode="normal" in2="effect1_dropShadow_54_4017" result="effect2_dropShadow_54_4017"/>
<feBlend mode="normal" in="SourceGraphic" in2="effect2_dropShadow_54_4017" result="shape"/>
</filter>
<filter id="filter2_bdd_54_4017" x="31" y="27" width="138" height="142" filterUnits="userSpaceOnUse" color-interpolation-filters="sRGB">
<feFlood flood-opacity="0" result="BackgroundImageFix"/>
<feGaussianBlur in="BackgroundImageFix" stdDeviation="2"/>
<feComposite in2="SourceAlpha" operator="in" result="effect1_backgroundBlur_54_4017"/>
<feColorMatrix in="SourceAlpha" type="matrix" values="0 0 0 0 0 0 0 0 0 0 0 0 0 0 0 0 0 0 127 0" result="hardAlpha"/>
<feOffset dy="4"/>
<feGaussianBlur stdDeviation="2"/>
<feComposite in2="hardAlpha" operator="out"/>
<feColorMatrix type="matrix" values="0 0 0 0 1 0 0 0 0 1 0 0 0 0 1 0 0 0 0.25 0"/>
<feBlend mode="normal" in2="effect1_backgroundBlur_54_4017" result="effect2_dropShadow_54_4017"/>
<feColorMatrix in="SourceAlpha" type="matrix" values="0 0 0 0 0 0 0 0 0 0 0 0 0 0 0 0 0 0 127 0" result="hardAlpha"/>
<feOffset dy="4"/>
<feGaussianBlur stdDeviation="2"/>
<feComposite in2="hardAlpha" operator="out"/>
<feColorMatrix type="matrix" values="0 0 0 0 0 0 0 0 0 0 0 0 0 0 0 0 0 0 0.25 0"/>
<feBlend mode="normal" in2="effect2_dropShadow_54_4017" result="effect3_dropShadow_54_4017"/>
<feBlend mode="normal" in="SourceGraphic" in2="effect3_dropShadow_54_4017" result="shape"/>
</filter>
<filter id="filter3_bdd_54_4017" x="31" y="27" width="138" height="142" filterUnits="userSpaceOnUse" color-interpolation-filters="sRGB">
<feFlood flood-opacity="0" result="BackgroundImageFix"/>
<feGaussianBlur in="BackgroundImageFix" stdDeviation="2"/>
<feComposite in2="SourceAlpha" operator="in" result="effect1_backgroundBlur_54_4017"/>
<feColorMatrix in="SourceAlpha" type="matrix" values="0 0 0 0 0 0 0 0 0 0 0 0 0 0 0 0 0 0 127 0" result="hardAlpha"/>
<feOffset dy="4"/>
<feGaussianBlur stdDeviation="2"/>
<feComposite in2="hardAlpha" operator="out"/>
<feColorMatrix type="matrix" values="0 0 0 0 1 0 0 0 0 1 0 0 0 0 1 0 0 0 0.25 0"/>
<feBlend mode="normal" in2="effect1_backgroundBlur_54_4017" result="effect2_dropShadow_54_4017"/>
<feColorMatrix in="SourceAlpha" type="matrix" values="0 0 0 0 0 0 0 0 0 0 0 0 0 0 0 0 0 0 127 0" result="hardAlpha"/>
<feOffset dy="4"/>
<feGaussianBlur stdDeviation="2"/>
<feComposite in2="hardAlpha" operator="out"/>
<feColorMatrix type="matrix" values="0 0 0 0 0 0 0 0 0 0 0 0 0 0 0 0 0 0 0.25 0"/>
<feBlend mode="normal" in2="effect2_dropShadow_54_4017" result="effect3_dropShadow_54_4017"/>
<feBlend mode="normal" in="SourceGraphic" in2="effect3_dropShadow_54_4017" result="shape"/>
</filter>
<linearGradient id="paint0_linear_54_4017" x1="99.5" y1="16.4677" x2="99.5" y2="174.532" gradientUnits="userSpaceOnUse">
<stop stop-color="white"/>
<stop offset="0.472222" stop-color="#0D5176" stop-opacity="0.527778"/>
<stop offset="0.940972" stop-color="#12A6F7" stop-opacity="0.465278"/>
<stop offset="1" stop-opacity="0"/>
</linearGradient>
<linearGradient id="paint1_linear_54_4017" x1="47.4963" y1="46.5485" x2="151.285" y2="67.6519" gradientUnits="userSpaceOnUse">
<stop stop-color="#0077D2"/>
<stop offset="1" stop-color="#0B59A2"/>
</linearGradient>
<linearGradient id="paint2_linear_54_4017" x1="53.284" y1="53.7933" x2="56.7533" y2="58.8118" gradientUnits="userSpaceOnUse">
<stop stop-color="#75DAFF"/>
<stop offset="1" stop-color="#49BEF1"/>
</linearGradient>
<linearGradient id="paint3_linear_54_4017" x1="66.8256" y1="53.7933" x2="70.295" y2="58.8118" gradientUnits="userSpaceOnUse">
<stop stop-color="#75DAFF"/>
<stop offset="1" stop-color="#49BEF1"/>
</linearGradient>
<linearGradient id="paint4_linear_54_4017" x1="80.3673" y1="53.7933" x2="83.8367" y2="58.8118" gradientUnits="userSpaceOnUse">
<stop stop-color="#75DAFF"/>
<stop offset="1" stop-color="#49BEF1"/>
</linearGradient>
<radialGradient id="paint5_radial_54_4017" cx="0" cy="0" r="1" gradientUnits="userSpaceOnUse" gradientTransform="translate(100.265 104.125) scale(27.0833)">
<stop offset="0.078" stop-color="white"/>
<stop offset="0.202" stop-color="#FFF5A3"/>
<stop offset="0.216" stop-color="#FFF392"/>
<stop offset="0.263" stop-color="#FFEE5F"/>
<stop offset="0.307" stop-color="#FFEA37"/>
<stop offset="0.347" stop-color="#FFE71A"/>
<stop offset="0.382" stop-color="#FFE508"/>
<stop offset="0.408" stop-color="#FFE402"/>
<stop offset="0.545" stop-color="#FDDE02"/>
<stop offset="0.736" stop-color="#F9CC01"/>
<stop offset="0.956" stop-color="#F2AF00"/>
<stop offset="1" stop-color="#F0A800"/>
</radialGradient>
<radialGradient id="paint6_radial_54_4017" cx="0" cy="0" r="1" gradientUnits="userSpaceOnUse" gradientTransform="translate(96.6227 125.673) scale(14.6277)">
<stop stop-color="#6E757B"/>
<stop offset="1" stop-color="#4A4E52"/>
</radialGradient>
<clipPath id="clip0_54_4017">
<rect width="130" height="130" fill="white" transform="translate(35 31)"/>
</clipPath>
</defs>
</svg>
