<svg width="199" height="199" viewBox="0 0 199 199" fill="none" xmlns="http://www.w3.org/2000/svg">
<g filter="url(#filter0_d_62_9888)">
<path d="M172.671 8H25.8967C18.1024 8 11.7838 14.3186 11.7838 22.1129V168.887C11.7838 176.681 18.1024 183 25.8967 183H172.671C180.465 183 186.784 176.681 186.784 168.887V22.1129C186.784 14.3186 180.465 8 172.671 8Z" fill="white"/>
<path d="M172.671 8H25.8967C18.1024 8 11.7838 14.3186 11.7838 22.1129V168.887C11.7838 176.681 18.1024 183 25.8967 183H172.671C180.465 183 186.784 176.681 186.784 168.887V22.1129C186.784 14.3186 180.465 8 172.671 8Z" fill="url(#paint0_linear_62_9888)" fill-opacity="0.2"/>
<path d="M172.671 8H25.8967C18.1024 8 11.7838 14.3186 11.7838 22.1129V168.887C11.7838 176.681 18.1024 183 25.8967 183H172.671C180.465 183 186.784 176.681 186.784 168.887V22.1129C186.784 14.3186 180.465 8 172.671 8Z" stroke="#D5EAF6" stroke-width="15"/>
</g>
<path d="M99.7844 147.143C104.518 147.143 108.356 143.305 108.356 138.571C108.356 133.837 104.518 130 99.7844 130C95.0506 130 91.213 133.837 91.213 138.571C91.213 143.305 95.0506 147.143 99.7844 147.143Z" fill="url(#paint1_linear_62_9888)"/>
<path d="M154.07 50H99.7838V141.429H154.07C154.82 141.429 155.563 141.281 156.257 140.994C156.95 140.707 157.58 140.286 158.111 139.755C158.641 139.225 159.062 138.595 159.349 137.901C159.636 137.208 159.784 136.465 159.784 135.714V55.7143C159.784 54.9638 159.636 54.2207 159.349 53.5273C159.062 52.8339 158.641 52.2039 158.111 51.6732C157.58 51.1426 156.95 50.7217 156.257 50.4346C155.563 50.1475 154.82 49.9998 154.07 50Z" fill="url(#paint2_linear_62_9888)"/>
<path d="M99.7838 50H45.4981C44.7476 49.9998 44.0045 50.1475 43.3111 50.4346C42.6177 50.7217 41.9877 51.1426 41.457 51.6732C40.9264 52.2039 40.5055 52.8339 40.2184 53.5273C39.9313 54.2207 39.7836 54.9638 39.7838 55.7143V135.714C39.7836 136.465 39.9313 137.208 40.2184 137.901C40.5055 138.595 40.9264 139.225 41.457 139.755C41.9877 140.286 42.6177 140.707 43.3111 140.994C44.0045 141.281 44.7476 141.429 45.4981 141.429H99.7838V50Z" fill="url(#paint3_linear_62_9888)"/>
<path d="M149.783 75.7142H121.212C120.833 75.714 120.47 75.5635 120.202 75.2956C119.934 75.0277 119.783 74.6644 119.783 74.2856V71.4284C119.783 71.0496 119.934 70.6863 120.202 70.4184C120.47 70.1506 120.833 70 121.212 69.9999H149.783C150.162 70 150.525 70.1506 150.793 70.4184C151.061 70.6863 151.212 71.0496 151.212 71.4284V74.2856C151.212 74.6644 151.061 75.0277 150.793 75.2956C150.525 75.5635 150.162 75.714 149.783 75.7142Z" fill="url(#paint4_linear_62_9888)"/>
<path d="M144.069 87.1429H121.212C120.833 87.1427 120.47 86.9922 120.202 86.7243C119.934 86.4564 119.783 86.0931 119.783 85.7143V82.8572C119.783 82.4783 119.934 82.115 120.202 81.8472C120.47 81.5793 120.833 81.4287 121.212 81.4286H144.069C144.448 81.4287 144.811 81.5793 145.079 81.8472C145.347 82.115 145.497 82.4783 145.498 82.8572V85.7143C145.497 86.0931 145.347 86.4564 145.079 86.7243C144.811 86.9922 144.448 87.1427 144.069 87.1429Z" fill="url(#paint5_linear_62_9888)"/>
<path d="M149.783 98.5716H121.212C120.833 98.5714 120.47 98.4209 120.202 98.153C119.934 97.8851 119.783 97.5219 119.783 97.143V94.2859C119.783 93.907 119.934 93.5437 120.202 93.2759C120.47 93.008 120.833 92.8574 121.212 92.8573H149.783C150.162 92.8574 150.525 93.008 150.793 93.2759C151.061 93.5437 151.212 93.907 151.212 94.2859V97.143C151.212 97.5219 151.061 97.8851 150.793 98.153C150.525 98.4209 150.162 98.5714 149.783 98.5716Z" fill="url(#paint6_linear_62_9888)"/>
<path d="M149.783 110H121.212C120.833 110 120.47 109.849 120.202 109.581C119.934 109.313 119.783 108.95 119.783 108.571V105.714C119.783 105.335 119.934 104.972 120.202 104.704C120.47 104.436 120.833 104.286 121.212 104.286H149.783C150.162 104.286 150.525 104.436 150.793 104.704C151.061 104.972 151.212 105.335 151.212 105.714V108.571C151.212 108.95 151.061 109.313 150.793 109.581C150.525 109.849 150.162 110 149.783 110Z" fill="url(#paint7_linear_62_9888)"/>
<path d="M144.069 121.429H121.212C120.833 121.429 120.47 121.278 120.202 121.01C119.934 120.742 119.783 120.379 119.783 120V117.143C119.783 116.764 119.934 116.401 120.202 116.133C120.47 115.865 120.833 115.714 121.212 115.714H144.069C144.448 115.714 144.811 115.865 145.079 116.133C145.347 116.401 145.497 116.764 145.498 117.143V120C145.497 120.379 145.347 120.742 145.079 121.01C144.811 121.278 144.448 121.429 144.069 121.429Z" fill="url(#paint8_linear_62_9888)"/>
<path d="M112.64 69.9999H109.783C108.994 69.9999 108.355 70.6395 108.355 71.4284V74.2856C108.355 75.0746 108.994 75.7142 109.783 75.7142H112.64C113.429 75.7142 114.069 75.0746 114.069 74.2856V71.4284C114.069 70.6395 113.429 69.9999 112.64 69.9999Z" fill="url(#paint9_linear_62_9888)"/>
<path d="M112.64 81.4286H109.783C108.994 81.4286 108.355 82.0682 108.355 82.8572V85.7143C108.355 86.5033 108.994 87.1429 109.783 87.1429H112.64C113.429 87.1429 114.069 86.5033 114.069 85.7143V82.8572C114.069 82.0682 113.429 81.4286 112.64 81.4286Z" fill="url(#paint10_linear_62_9888)"/>
<path d="M112.64 92.8573H109.783C108.994 92.8573 108.355 93.4969 108.355 94.2859V97.143C108.355 97.932 108.994 98.5716 109.783 98.5716H112.64C113.429 98.5716 114.069 97.932 114.069 97.143V94.2859C114.069 93.4969 113.429 92.8573 112.64 92.8573Z" fill="url(#paint11_linear_62_9888)"/>
<path d="M112.64 104.286H109.783C108.994 104.286 108.355 104.925 108.355 105.714V108.571C108.355 109.36 108.994 110 109.783 110H112.64C113.429 110 114.069 109.36 114.069 108.571V105.714C114.069 104.925 113.429 104.286 112.64 104.286Z" fill="url(#paint12_linear_62_9888)"/>
<path d="M112.64 115.714H109.783C108.994 115.714 108.355 116.354 108.355 117.143V120C108.355 120.789 108.994 121.429 109.783 121.429H112.64C113.429 121.429 114.069 120.789 114.069 120V117.143C114.069 116.354 113.429 115.714 112.64 115.714Z" fill="url(#paint13_linear_62_9888)"/>
<path d="M83.3131 112.857C83.0702 112.857 82.8297 112.81 82.6054 112.716C82.3812 112.623 82.1775 112.487 82.0062 112.315L63.518 93.8265C63.3464 93.6549 63.2103 93.4512 63.1174 93.2269C63.0245 93.0027 62.9767 92.7623 62.9767 92.5196C62.9767 92.2769 63.0245 92.0366 63.1174 91.8123C63.2103 91.5881 63.3464 91.3843 63.518 91.2127C63.6896 91.0411 63.8934 90.905 64.1176 90.8121C64.3419 90.7192 64.5822 90.6714 64.8249 90.6714C65.0676 90.6714 65.308 90.7192 65.5322 90.8121C65.7564 90.905 65.9602 91.0411 66.1318 91.2127L84.62 109.701C84.8783 109.96 85.0541 110.289 85.1254 110.647C85.1966 111.006 85.1599 111.378 85.0201 111.715C84.8803 112.053 84.6435 112.342 84.3397 112.545C84.0358 112.748 83.6786 112.857 83.3131 112.857Z" fill="#0176D0"/>
<path d="M53.5922 78.5773L67.9438 93.0842L62.6073 98.4207L52.7653 88.5786C52.162 87.9755 51.6835 87.2594 51.357 86.4713C51.0305 85.6832 50.8624 84.8384 50.8624 83.9854C50.8624 83.1323 51.0305 82.2876 51.357 81.4994C51.6835 80.7113 52.162 79.9952 52.7653 79.3921L53.5922 78.5773Z" fill="#0176D0"/>
<path d="M58.7877 112.857C58.4195 112.858 58.0595 112.749 57.7533 112.544C57.447 112.34 57.2083 112.049 57.0673 111.709C56.9263 111.369 56.8893 110.995 56.9612 110.634C57.033 110.273 57.2103 109.941 57.4707 109.681L77.9495 89.202C78.2985 88.8529 78.7719 88.6569 79.2655 88.6569C79.759 88.6569 80.2324 88.8529 80.5814 89.202C80.9304 89.551 81.1265 90.0243 81.1265 90.5179C81.1265 91.0115 80.9304 91.4849 80.5814 91.8339L60.1047 112.311C59.7555 112.66 59.2818 112.857 58.7877 112.857Z" fill="white"/>
<path d="M87.9253 93.3457C91.7747 89.4962 92.3246 83.8049 89.1535 80.6339C85.9824 77.4629 80.2911 78.0129 76.4417 81.8625C72.5923 85.712 72.0425 91.4032 75.2136 94.5742C78.3847 97.7452 84.076 97.1952 87.9253 93.3457Z" fill="white"/>
<defs>
<filter id="filter0_d_62_9888" x="0.283813" y="0.5" width="198" height="198" filterUnits="userSpaceOnUse" color-interpolation-filters="sRGB">
<feFlood flood-opacity="0" result="BackgroundImageFix"/>
<feColorMatrix in="SourceAlpha" type="matrix" values="0 0 0 0 0 0 0 0 0 0 0 0 0 0 0 0 0 0 127 0" result="hardAlpha"/>
<feOffset dy="4"/>
<feGaussianBlur stdDeviation="2"/>
<feComposite in2="hardAlpha" operator="out"/>
<feColorMatrix type="matrix" values="0 0 0 0 0.8375 0 0 0 0 0.732812 0 0 0 0 0.732812 0 0 0 0.25 0"/>
<feBlend mode="normal" in2="BackgroundImageFix" result="effect1_dropShadow_62_9888"/>
<feBlend mode="normal" in="SourceGraphic" in2="effect1_dropShadow_62_9888" result="shape"/>
</filter>
<linearGradient id="paint0_linear_62_9888" x1="99.2838" y1="16.4677" x2="99.2838" y2="174.532" gradientUnits="userSpaceOnUse">
<stop stop-color="white"/>
<stop offset="0.472222" stop-color="#0D5176" stop-opacity="0.527778"/>
<stop offset="0.940972" stop-color="#12A6F7" stop-opacity="0.465278"/>
<stop offset="1" stop-opacity="0"/>
</linearGradient>
<linearGradient id="paint1_linear_62_9888" x1="71.4559" y1="60.737" x2="125.179" y2="208.337" gradientUnits="userSpaceOnUse">
<stop offset="0.002" stop-color="#427FDB"/>
<stop offset="0.397" stop-color="#2668CB"/>
<stop offset="0.763" stop-color="#1358BF"/>
<stop offset="1" stop-color="#0C52BB"/>
</linearGradient>
<linearGradient id="paint2_linear_62_9888" x1="111.907" y1="48.9457" x2="167.072" y2="200.517" gradientUnits="userSpaceOnUse">
<stop offset="0.002" stop-color="#427FDB"/>
<stop offset="0.397" stop-color="#2668CB"/>
<stop offset="0.763" stop-color="#1358BF"/>
<stop offset="1" stop-color="#0C52BB"/>
</linearGradient>
<linearGradient id="paint3_linear_62_9888" x1="60.1067" y1="66.7771" x2="104.721" y2="189.354" gradientUnits="userSpaceOnUse">
<stop stop-color="#0176D0"/>
<stop offset="1" stop-color="#22A5E2"/>
</linearGradient>
<linearGradient id="paint4_linear_62_9888" x1="125.818" y1="46.2627" x2="172.358" y2="174.128" gradientUnits="userSpaceOnUse">
<stop stop-color="#0176D0"/>
<stop offset="1" stop-color="#22A5E2"/>
</linearGradient>
<linearGradient id="paint5_linear_62_9888" x1="118.489" y1="45.4086" x2="163.609" y2="169.369" gradientUnits="userSpaceOnUse">
<stop stop-color="#0176D0"/>
<stop offset="1" stop-color="#22A5E2"/>
</linearGradient>
<linearGradient id="paint6_linear_62_9888" x1="115.46" y1="40.663" x2="162" y2="168.532" gradientUnits="userSpaceOnUse">
<stop stop-color="#0176D0"/>
<stop offset="1" stop-color="#22A5E2"/>
</linearGradient>
<linearGradient id="paint7_linear_62_9888" x1="110.283" y1="37.8656" x2="156.823" y2="165.731" gradientUnits="userSpaceOnUse">
<stop stop-color="#0176D0"/>
<stop offset="1" stop-color="#22A5E2"/>
</linearGradient>
<linearGradient id="paint8_linear_62_9888" x1="103.429" y1="38.3172" x2="148.549" y2="162.277" gradientUnits="userSpaceOnUse">
<stop stop-color="#0176D0"/>
<stop offset="1" stop-color="#22A5E2"/>
</linearGradient>
<linearGradient id="paint9_linear_62_9888" x1="105.437" y1="56.9942" x2="141.5" y2="156.071" gradientUnits="userSpaceOnUse">
<stop stop-color="#0176D0"/>
<stop offset="1" stop-color="#22A5E2"/>
</linearGradient>
<linearGradient id="paint10_linear_62_9888" x1="101.426" y1="57.4" x2="137.486" y2="156.477" gradientUnits="userSpaceOnUse">
<stop stop-color="#0176D0"/>
<stop offset="1" stop-color="#22A5E2"/>
</linearGradient>
<linearGradient id="paint11_linear_62_9888" x1="97.4146" y1="57.803" x2="133.475" y2="156.88" gradientUnits="userSpaceOnUse">
<stop stop-color="#0176D0"/>
<stop offset="1" stop-color="#22A5E2"/>
</linearGradient>
<linearGradient id="paint12_linear_62_9888" x1="93.4003" y1="58.2085" x2="129.463" y2="157.286" gradientUnits="userSpaceOnUse">
<stop stop-color="#0176D0"/>
<stop offset="1" stop-color="#22A5E2"/>
</linearGradient>
<linearGradient id="paint13_linear_62_9888" x1="89.3889" y1="58.6144" x2="125.449" y2="157.689" gradientUnits="userSpaceOnUse">
<stop stop-color="#0176D0"/>
<stop offset="1" stop-color="#22A5E2"/>
</linearGradient>
</defs>
</svg>
