<svg width="199" height="199" viewBox="0 0 199 199" fill="none" xmlns="http://www.w3.org/2000/svg">
<g filter="url(#filter0_d_66_10591)">
<path d="M172.887 8H26.1129C18.3186 8 12 14.3186 12 22.1129V168.887C12 176.681 18.3186 183 26.1129 183H172.887C180.681 183 187 176.681 187 168.887V22.1129C187 14.3186 180.681 8 172.887 8Z" fill="white"/>
<path d="M172.887 8H26.1129C18.3186 8 12 14.3186 12 22.1129V168.887C12 176.681 18.3186 183 26.1129 183H172.887C180.681 183 187 176.681 187 168.887V22.1129C187 14.3186 180.681 8 172.887 8Z" fill="url(#paint0_linear_66_10591)" fill-opacity="0.2"/>
<path d="M172.887 8H26.1129C18.3186 8 12 14.3186 12 22.1129V168.887C12 176.681 18.3186 183 26.1129 183H172.887C180.681 183 187 176.681 187 168.887V22.1129C187 14.3186 180.681 8 172.887 8Z" stroke="#D5EAF6" stroke-width="15"/>
</g>
<g filter="url(#filter1_dd_66_10591)">
<path d="M145.572 40H45.8651C42.6246 40 40 42.6246 40 45.8651V127.976C40 131.217 42.6246 133.841 45.8651 133.841H145.572C148.812 133.841 151.437 131.217 151.437 127.976V45.8651C151.437 42.6246 148.812 40 145.572 40Z" fill="#50E6FF"/>
<path d="M64.927 83.9881H56.1294C55.32 83.9881 54.6631 83.3312 54.6631 82.5218V73.7242C54.6631 72.9148 55.32 72.2579 56.1294 72.2579H64.927C65.7364 72.2579 66.3933 72.9148 66.3933 73.7242V82.5218C66.3933 83.3312 65.7364 83.9881 64.927 83.9881Z" fill="#057093"/>
<path d="M82.5225 83.9881H73.7248C72.9154 83.9881 72.2585 83.3312 72.2585 82.5218V73.7242C72.2585 72.9148 72.9154 72.2579 73.7248 72.2579H82.5225C83.3318 72.2579 83.9887 72.9148 83.9887 73.7242V82.5218C83.9887 83.3312 83.3318 83.9881 82.5225 83.9881Z" fill="#057093"/>
<path d="M100.118 83.9881H91.32C90.5107 83.9881 89.8538 83.3312 89.8538 82.5218V73.7242C89.8538 72.9148 90.5107 72.2579 91.32 72.2579H100.118C100.927 72.2579 101.584 72.9148 101.584 73.7242V82.5218C101.584 83.3312 100.927 83.9881 100.118 83.9881Z" fill="#057093"/>
<path d="M117.713 83.9881H108.915C108.106 83.9881 107.449 83.3312 107.449 82.5218V73.7242C107.449 72.9148 108.106 72.2579 108.915 72.2579H117.713C118.522 72.2579 119.179 72.9148 119.179 73.7242V82.5218C119.179 83.3312 118.522 83.9881 117.713 83.9881Z" fill="#057093"/>
<path d="M135.308 83.9881H126.51C125.701 83.9881 125.044 83.3312 125.044 82.5218V73.7242C125.044 72.9148 125.701 72.2579 126.51 72.2579H135.308C136.117 72.2579 136.774 72.9148 136.774 73.7242V82.5218C136.774 83.3312 136.117 83.9881 135.308 83.9881Z" fill="#057093"/>
<path d="M64.927 101.583H56.1294C55.32 101.583 54.6631 100.927 54.6631 100.117V91.3195C54.6631 90.5102 55.32 89.8533 56.1294 89.8533H64.927C65.7364 89.8533 66.3933 90.5102 66.3933 91.3195V100.117C66.3933 100.927 65.7364 101.583 64.927 101.583Z" fill="#057093"/>
<path d="M82.5225 101.583H73.7248C72.9154 101.583 72.2585 100.927 72.2585 100.117V91.3195C72.2585 90.5102 72.9154 89.8533 73.7248 89.8533H82.5225C83.3318 89.8533 83.9887 90.5102 83.9887 91.3195V100.117C83.9887 100.927 83.3318 101.583 82.5225 101.583Z" fill="#057093"/>
<path d="M100.118 101.583H91.32C90.5107 101.583 89.8538 100.927 89.8538 100.117V91.3195C89.8538 90.5102 90.5107 89.8533 91.32 89.8533H100.118C100.927 89.8533 101.584 90.5102 101.584 91.3195V100.117C101.584 100.927 100.927 101.583 100.118 101.583Z" fill="#057093"/>
<path d="M117.713 101.583H108.915C108.106 101.583 107.449 100.927 107.449 100.117V91.3195C107.449 90.5102 108.106 89.8533 108.915 89.8533H117.713C118.522 89.8533 119.179 90.5102 119.179 91.3195V100.117C119.179 100.927 118.522 101.583 117.713 101.583Z" fill="#057093"/>
<path d="M135.308 101.583H126.51C125.701 101.583 125.044 100.927 125.044 100.117V91.3195C125.044 90.5102 125.701 89.8533 126.51 89.8533H135.308C136.117 89.8533 136.774 90.5102 136.774 91.3195V100.117C136.774 100.927 136.117 101.583 135.308 101.583Z" fill="#057093"/>
<path d="M133.842 86.9207C112.821 86.9207 95.7185 104.023 95.7185 125.044C95.7185 128.07 96.0733 131.017 96.7449 133.841H145.572C148.812 133.841 151.437 131.217 151.437 127.976V91.2315C146.17 88.4778 140.185 86.9207 133.842 86.9207Z" fill="url(#paint1_radial_66_10591)"/>
<path d="M125.546 60.5278H65.892C64.5489 60.5278 63.4609 59.4398 63.4609 58.0967V54.1612C63.4609 52.8181 64.5489 51.7302 65.892 51.7302H125.546C126.889 51.7302 127.977 52.8181 127.977 54.1612V58.0967C127.977 59.4398 126.889 60.5278 125.546 60.5278Z" fill="#057093"/>
<path d="M120.411 107.097H114.546C113.737 107.097 113.08 106.44 113.08 105.63V102.698C113.08 101.888 113.737 101.232 114.546 101.232H120.411C121.221 101.232 121.877 101.888 121.877 102.698V105.63C121.877 106.44 121.221 107.097 120.411 107.097Z" fill="#057093"/>
<path d="M120.411 124.692H108.681C107.871 124.692 107.215 124.035 107.215 123.226V120.293C107.215 119.484 107.871 118.827 108.681 118.827H120.411C121.22 118.827 121.877 119.484 121.877 120.293V123.226C121.877 124.035 121.22 124.692 120.411 124.692Z" fill="#057093"/>
<path opacity="0.05" d="M129.942 148.158C127.922 148.158 126.276 146.513 126.276 144.492V143.331C124.153 142.953 122.027 142.343 120.285 141.604C118.576 140.871 117.476 139.211 117.476 137.372V133.88C117.476 131.739 119.215 129.994 121.353 129.994C121.957 129.994 122.564 130.141 123.106 130.416C123.989 130.868 127.124 132.331 130.675 132.331C132.206 132.331 132.564 132 132.567 131.994C132.279 131.41 129.734 130.466 128.511 130.014C123.916 128.314 116.966 125.742 116.966 117.361C116.966 111.595 120.42 107.378 126.273 105.88V104.897C126.273 102.877 127.919 101.232 129.939 101.232H131.405C133.426 101.232 135.071 102.877 135.071 104.897V105.548C136.81 105.748 138.276 106.088 139.529 106.575C140.206 106.842 142.405 107.956 142.405 111.19V114.261C142.405 116.399 140.663 118.138 138.523 118.138C137.945 118.138 137.382 118.012 136.854 117.762C135.734 117.237 133.438 116.355 130.675 116.355C129.98 116.355 128.804 116.46 128.804 116.847C128.804 117.551 131.666 118.663 133.203 119.258C137.661 120.991 144.385 123.604 144.385 131.575C144.385 136.014 141.919 141.569 135.077 143.252V144.49C135.077 146.51 133.432 148.155 131.411 148.155L129.942 148.158Z" fill="black"/>
<path opacity="0.05" d="M129.942 146.692C128.73 146.692 127.742 145.707 127.742 144.493V142.076C125.355 141.757 122.86 141.103 120.857 140.252C119.692 139.754 118.942 138.622 118.942 137.372V133.88C118.942 132.545 120.024 131.46 121.352 131.46C121.728 131.46 122.106 131.551 122.44 131.721C123.393 132.211 126.789 133.798 130.675 133.798C134.012 133.798 134.012 132.413 134.012 131.891C134.012 130.584 132.126 129.792 129.021 128.639C124.555 126.985 118.434 124.718 118.434 117.358C118.434 110.988 123.024 107.921 127.742 107.056V104.897C127.742 103.683 128.73 102.698 129.942 102.698H131.408C132.619 102.698 133.607 103.683 133.607 104.897V106.886C135.807 107.041 137.578 107.39 138.997 107.941C139.584 108.173 140.942 108.944 140.942 111.191V114.261C140.942 115.589 139.857 116.672 138.525 116.672C138.162 116.672 137.813 116.592 137.481 116.434C136.25 115.856 133.728 114.889 130.678 114.889C128.464 114.889 127.34 115.548 127.34 116.848C127.34 118.44 129.358 119.337 132.675 120.628C136.997 122.308 142.918 124.607 142.918 131.578C142.918 135.812 140.449 140.924 133.61 142.062V144.496C133.61 145.71 132.622 146.695 131.411 146.695H129.942V146.692Z" fill="black"/>
<path d="M130.675 154.017C146.871 154.017 160 140.888 160 124.692C160 108.496 146.871 95.3665 130.675 95.3665C114.479 95.3665 101.349 108.496 101.349 124.692C101.349 140.888 114.479 154.017 130.675 154.017Z" fill="url(#paint2_linear_66_10591)"/>
<path d="M141.449 131.574C141.449 121.02 125.868 123.082 125.868 116.847C125.868 113.592 129.528 113.419 130.672 113.419C133.422 113.419 136.076 114.158 138.1 115.105C138.739 115.407 139.472 114.965 139.472 114.261V111.19C139.472 110.161 139.085 109.551 138.466 109.308C137.079 108.768 135.088 108.372 132.141 108.275V104.897C132.141 104.492 131.812 104.164 131.408 104.164H129.941C129.537 104.164 129.208 104.492 129.208 104.897V108.331C124.636 108.777 119.9 111.357 119.9 117.357C119.9 128.299 135.481 126.126 135.481 131.888C135.481 133.701 134.323 135.261 130.677 135.261C127.012 135.261 123.642 133.982 121.78 133.026C121.153 132.706 120.414 133.17 120.414 133.874V137.369C120.414 138.038 120.818 138.636 121.437 138.9C123.645 139.838 126.607 140.548 129.214 140.756V144.489C129.214 144.894 129.543 145.223 129.947 145.223H131.414C131.818 145.223 132.147 144.894 132.147 144.489V140.762C138.98 140.193 141.449 135.615 141.449 131.574Z" fill="white"/>
</g>
<defs>
<filter id="filter0_d_66_10591" x="0.5" y="0.5" width="198" height="198" filterUnits="userSpaceOnUse" color-interpolation-filters="sRGB">
<feFlood flood-opacity="0" result="BackgroundImageFix"/>
<feColorMatrix in="SourceAlpha" type="matrix" values="0 0 0 0 0 0 0 0 0 0 0 0 0 0 0 0 0 0 127 0" result="hardAlpha"/>
<feOffset dy="4"/>
<feGaussianBlur stdDeviation="2"/>
<feComposite in2="hardAlpha" operator="out"/>
<feColorMatrix type="matrix" values="0 0 0 0 0.8375 0 0 0 0 0.732812 0 0 0 0 0.732812 0 0 0 0.25 0"/>
<feBlend mode="normal" in2="BackgroundImageFix" result="effect1_dropShadow_66_10591"/>
<feBlend mode="normal" in="SourceGraphic" in2="effect1_dropShadow_66_10591" result="shape"/>
</filter>
<filter id="filter1_dd_66_10591" x="36" y="40" width="128" height="122.017" filterUnits="userSpaceOnUse" color-interpolation-filters="sRGB">
<feFlood flood-opacity="0" result="BackgroundImageFix"/>
<feColorMatrix in="SourceAlpha" type="matrix" values="0 0 0 0 0 0 0 0 0 0 0 0 0 0 0 0 0 0 127 0" result="hardAlpha"/>
<feOffset dy="4"/>
<feGaussianBlur stdDeviation="2"/>
<feComposite in2="hardAlpha" operator="out"/>
<feColorMatrix type="matrix" values="0 0 0 0 1 0 0 0 0 0.954167 0 0 0 0 0.954167 0 0 0 0.25 0"/>
<feBlend mode="normal" in2="BackgroundImageFix" result="effect1_dropShadow_66_10591"/>
<feColorMatrix in="SourceAlpha" type="matrix" values="0 0 0 0 0 0 0 0 0 0 0 0 0 0 0 0 0 0 127 0" result="hardAlpha"/>
<feOffset dy="4"/>
<feGaussianBlur stdDeviation="2"/>
<feComposite in2="hardAlpha" operator="out"/>
<feColorMatrix type="matrix" values="0 0 0 0 0 0 0 0 0 0 0 0 0 0 0 0 0 0 0.25 0"/>
<feBlend mode="normal" in2="effect1_dropShadow_66_10591" result="effect2_dropShadow_66_10591"/>
<feBlend mode="normal" in="SourceGraphic" in2="effect2_dropShadow_66_10591" result="shape"/>
</filter>
<linearGradient id="paint0_linear_66_10591" x1="99.5" y1="16.4677" x2="99.5" y2="174.532" gradientUnits="userSpaceOnUse">
<stop stop-color="white"/>
<stop offset="0.472222" stop-color="#0D5176" stop-opacity="0.527778"/>
<stop offset="0.940972" stop-color="#12A6F7" stop-opacity="0.465278"/>
<stop offset="1" stop-opacity="0"/>
</linearGradient>
<radialGradient id="paint1_radial_66_10591" cx="0" cy="0" r="1" gradientUnits="userSpaceOnUse" gradientTransform="translate(133.874 126.29) scale(38.4515 38.4515)">
<stop/>
<stop offset="1" stop-opacity="0"/>
</radialGradient>
<linearGradient id="paint2_linear_66_10591" x1="101.349" y1="124.692" x2="160" y2="124.692" gradientUnits="userSpaceOnUse">
<stop stop-color="#21AD64"/>
<stop offset="1" stop-color="#088242"/>
</linearGradient>
</defs>
</svg>
