<svg width="199" height="199" viewBox="0 0 199 199" fill="none" xmlns="http://www.w3.org/2000/svg">
<g filter="url(#filter0_d_63_10147)">
<path d="M172.887 8H26.1129C18.3186 8 12 14.3186 12 22.1129V168.887C12 176.681 18.3186 183 26.1129 183H172.887C180.681 183 187 176.681 187 168.887V22.1129C187 14.3186 180.681 8 172.887 8Z" fill="white"/>
<path d="M172.887 8H26.1129C18.3186 8 12 14.3186 12 22.1129V168.887C12 176.681 18.3186 183 26.1129 183H172.887C180.681 183 187 176.681 187 168.887V22.1129C187 14.3186 180.681 8 172.887 8Z" fill="url(#paint0_linear_63_10147)" fill-opacity="0.2"/>
<path d="M172.887 8H26.1129C18.3186 8 12 14.3186 12 22.1129V168.887C12 176.681 18.3186 183 26.1129 183H172.887C180.681 183 187 176.681 187 168.887V22.1129C187 14.3186 180.681 8 172.887 8Z" stroke="#D5EAF6" stroke-width="15" stroke-linecap="round"/>
</g>
<path d="M40 128.443V62.9368H153.924V128.443C153.924 131.576 151.361 134.139 148.228 134.139H45.6962C42.5633 134.139 40 131.576 40 128.443Z" fill="url(#paint1_linear_63_10147)"/>
<path d="M153.924 48.6962V62.9367H40V48.6962C40 45.5633 42.5633 43 45.6962 43H148.228C151.361 43 153.924 45.5633 153.924 48.6962Z" fill="url(#paint2_linear_63_10147)"/>
<path d="M75.6013 57.2405H146.804C147.59 57.2405 148.228 56.6025 148.228 55.8164V50.1202C148.228 49.3341 147.59 48.6962 146.804 48.6962H75.6013C74.8152 48.6962 74.1772 49.3341 74.1772 50.1202V55.8164C74.1772 56.6025 74.8152 57.2405 75.6013 57.2405Z" fill="url(#paint3_linear_63_10147)"/>
<path d="M49.9683 57.2405C52.3278 57.2405 54.2405 55.3278 54.2405 52.9683C54.2405 50.609 52.3278 48.6962 49.9683 48.6962C47.609 48.6962 45.6962 50.609 45.6962 52.9683C45.6962 55.3278 47.609 57.2405 49.9683 57.2405Z" fill="url(#paint4_linear_63_10147)"/>
<path d="M64.1999 57.2405C66.5594 57.2405 68.4721 55.3278 68.4721 52.9683C68.4721 50.609 66.5594 48.6962 64.1999 48.6962C61.8406 48.6962 59.9278 50.609 59.9278 52.9683C59.9278 55.3278 61.8406 57.2405 64.1999 57.2405Z" fill="url(#paint5_linear_63_10147)"/>
<rect x="49.8734" y="72.6202" width="45.5696" height="48.6076" rx="5" fill="white" fill-opacity="0.3"/>
<path d="M84.472 89.1397H67.4307V81.7341H83.8408C84.1892 81.7341 84.472 82.0357 84.472 82.4074V89.1397Z" fill="url(#paint6_linear_63_10147)" fill-opacity="0.8"/>
<path d="M78.1604 89.1397H62.3814C62.033 89.1397 61.7502 88.8381 61.7502 88.4665V82.4074C61.7502 82.0357 62.033 81.7341 62.3814 81.7341H78.1604C78.5088 81.7341 78.7915 82.0357 78.7915 82.4074V88.4665C78.7915 88.8381 78.5088 89.1397 78.1604 89.1397Z" fill="url(#paint7_linear_63_10147)"/>
<path opacity="0.05" d="M84.472 87.12H61.7502V88.4665C61.7502 88.8381 62.033 89.1397 62.3814 89.1397H67.4307H78.1604H84.472V87.12Z" fill="black"/>
<path opacity="0.07" d="M84.472 87.4567H61.7502V88.4665C61.7502 88.8381 62.033 89.1398 62.3814 89.1398H67.4307H78.1604H84.472V87.4567Z" fill="black"/>
<path d="M84.472 105.971H77.5292V87.7932H85.1031C85.4515 87.7932 85.7343 88.0948 85.7343 88.4664V104.624C85.7343 105.368 85.1694 105.971 84.472 105.971Z" fill="url(#paint8_linear_63_10147)"/>
<path d="M77.5292 105.971H61.7502C61.0528 105.971 60.4879 105.368 60.4879 104.624V88.4664C60.4879 88.0948 60.7707 87.7932 61.1191 87.7932H78.7915V104.624C78.7915 105.368 78.2266 105.971 77.5292 105.971Z" fill="url(#paint9_linear_63_10147)"/>
<path d="M78.7915 87.7932H60.878C60.6388 87.7932 60.4204 87.9373 60.3137 88.1655L58.8229 91.3459C58.7181 91.5694 58.8703 91.8326 59.105 91.8326H76.508C76.7472 91.8326 76.9656 91.6886 77.0722 91.4603L78.7915 87.7932Z" fill="url(#paint10_linear_63_10147)" fill-opacity="0.8"/>
<path d="M78.7915 87.7932H85.3442C85.5834 87.7932 85.8018 87.9373 85.9085 88.1655L87.3993 91.3459C87.5041 91.5694 87.3519 91.8326 87.1172 91.8326H81.0751C80.8359 91.8326 80.6175 91.6886 80.5108 91.4603L78.7915 87.7932Z" fill="url(#paint11_linear_63_10147)"/>
<path d="M82.5095 113.127H88.1224C88.6387 113.127 89.0578 113.576 89.0578 114.129V116.133C89.0578 116.686 88.6387 117.135 88.1224 117.135H82.5095C81.9931 117.135 81.574 116.686 81.574 116.133V114.129C81.574 113.576 81.9931 113.127 82.5095 113.127Z" fill="white"/>
<path d="M70.6218 113.127H76.2346C76.751 113.127 77.1701 113.576 77.1701 114.129V116.133C77.1701 116.686 76.751 117.135 76.2346 117.135H70.6218C70.1054 117.135 69.6863 116.686 69.6863 116.133V114.129C69.6863 113.576 70.1054 113.127 70.6218 113.127Z" fill="white"/>
<path d="M58.734 113.127H64.3469C64.8633 113.127 65.2824 113.576 65.2824 114.129V116.133C65.2824 116.686 64.8633 117.135 64.3469 117.135H58.734C58.2176 117.135 57.7986 116.686 57.7986 116.133V114.129C57.7986 113.576 58.2176 113.127 58.734 113.127Z" fill="white"/>
<path d="M115.114 77.1772H141.089C141.466 77.1772 141.772 77.5175 141.772 77.9367V79.4557C141.772 79.875 141.466 80.2152 141.089 80.2152H115.114C114.737 80.2152 114.43 79.875 114.43 79.4557V77.9367C114.43 77.5175 114.737 77.1772 115.114 77.1772Z" fill="#F9FDFF"/>
<path d="M115.114 85.5316H141.089C141.466 85.5316 141.772 85.8719 141.772 86.2911V87.8101C141.772 88.2293 141.466 88.5696 141.089 88.5696H115.114C114.737 88.5696 114.43 88.2293 114.43 87.8101V86.2911C114.43 85.8719 114.737 85.5316 115.114 85.5316Z" fill="#DADFE1" fill-opacity="0.5"/>
<path d="M104.272 85.5316H107.12C107.382 85.5316 107.595 85.8719 107.595 86.2911V87.8101C107.595 88.2293 107.382 88.5696 107.12 88.5696H104.272C104.01 88.5696 103.797 88.2293 103.797 87.8101V86.2911C103.797 85.8719 104.01 85.5316 104.272 85.5316Z" fill="#0782D8" fill-opacity="0.5"/>
<path d="M104.272 93.1266H107.12C107.382 93.1266 107.595 93.4668 107.595 93.8861V95.4051C107.595 95.8243 107.382 96.1646 107.12 96.1646H104.272C104.01 96.1646 103.797 95.8243 103.797 95.4051V93.8861C103.797 93.4668 104.01 93.1266 104.272 93.1266Z" fill="#0782D8" fill-opacity="0.3"/>
<path d="M104.272 100.722H107.12C107.382 100.722 107.595 101.062 107.595 101.481V103C107.595 103.419 107.382 103.76 107.12 103.76H104.272C104.01 103.76 103.797 103.419 103.797 103V101.481C103.797 101.062 104.01 100.722 104.272 100.722Z" fill="url(#paint12_linear_63_10147)" fill-opacity="0.5"/>
<path d="M104.272 108.316H107.12C107.382 108.316 107.595 108.657 107.595 109.076V110.595C107.595 111.014 107.382 111.354 107.12 111.354H104.272C104.01 111.354 103.797 111.014 103.797 110.595V109.076C103.797 108.657 104.01 108.316 104.272 108.316Z" fill="url(#paint13_linear_63_10147)" fill-opacity="0.5"/>
<path d="M115.114 93.1266H141.089C141.466 93.1266 141.772 93.4668 141.772 93.8861V95.4051C141.772 95.8243 141.466 96.1646 141.089 96.1646H115.114C114.737 96.1646 114.43 95.8243 114.43 95.4051V93.8861C114.43 93.4668 114.737 93.1266 115.114 93.1266Z" fill="#DADFE1" fill-opacity="0.5"/>
<path d="M105.165 80.1038L103.858 78.9045C103.777 78.8301 103.777 78.7093 103.858 78.635L104.152 78.3656C104.233 78.2913 104.364 78.2913 104.445 78.3656L105.459 79.2955L107.706 77.233C107.787 77.1587 107.919 77.1587 108 77.233L108.294 77.5024C108.375 77.5767 108.375 77.6975 108.294 77.7718L105.752 80.1038C105.59 80.2524 105.327 80.2524 105.165 80.1038Z" fill="white" fill-opacity="0.99"/>
<rect x="114.43" y="100.722" width="28.8608" height="23.5443" rx="3" fill="#D9D9D9" fill-opacity="0.3"/>
<g filter="url(#filter1_bd_63_10147)">
<path opacity="0.05" d="M142.543 121.225C142.696 120.912 142.774 120.571 142.774 120.219C142.774 118.925 141.721 117.872 140.427 117.872H136.189L136.352 116.889C136.731 116.544 137.409 115.755 137.409 114.519C137.409 113.409 136.506 112.507 135.397 112.507H135.075L130.389 118.363C129.726 119.193 129.361 120.234 129.361 121.295V125.92C129.361 127.4 130.564 128.603 132.043 128.603H139.085C140.38 128.603 141.433 127.55 141.433 126.256C141.433 126.14 141.423 126.025 141.406 125.909C141.849 125.473 142.103 124.879 142.103 124.243C142.103 124.128 142.094 124.013 142.077 123.897C142.52 123.461 142.774 122.867 142.774 122.231C142.774 121.88 142.696 121.539 142.543 121.225Z" fill="black"/>
<path opacity="0.07" d="M137.073 114.519C137.073 113.712 136.494 113.04 135.735 112.901C135.629 112.863 135.337 113.065 135.218 113.065L134.977 113.164L130.65 118.572C130.033 119.344 129.695 120.308 129.695 121.295V125.92C129.695 127.121 130.605 128.113 131.769 128.239C131.857 128.258 132.174 128.268 132.268 128.268H138.823C138.93 128.268 139.296 128.253 139.394 128.226C140.355 128.09 141.097 127.258 141.097 126.256C141.097 126.136 141.085 126.017 141.062 125.901C141.081 125.833 141.095 125.765 141.105 125.698C141.512 125.342 141.767 124.82 141.767 124.244C141.767 124.124 141.755 124.005 141.732 123.89C141.751 123.822 141.766 123.754 141.776 123.686C142.183 123.33 142.437 122.808 142.437 122.232C142.437 121.866 142.333 121.523 142.15 121.226C142.333 120.928 142.437 120.585 142.437 120.22C142.437 119.311 141.813 118.548 140.983 118.349C140.817 118.259 140.026 118.208 139.824 118.208H136.061L135.839 117.917L136.004 116.929C136.046 116.89 136.133 116.621 136.185 116.56C136.367 116.349 137.073 115.669 137.073 114.519Z" fill="black"/>
<path d="M153.704 142.64H119.296C116.371 142.64 114 140.339 114 137.5V104.104C114 101.265 116.371 98.9635 119.296 98.9635H153.704C156.629 98.9635 159 101.265 159 104.104V137.503C159 140.339 156.629 142.64 153.704 142.64Z" fill="url(#paint14_linear_63_10147)"/>
<path d="M153 121C153 129.836 145.836 137 137 137C128.164 137 121 129.836 121 121C121 112.164 128.164 105 137 105C145.836 105 153 112.164 153 121Z" fill="url(#paint15_linear_63_10147)"/>
<path d="M142.103 120.219C142.103 119.293 141.353 118.543 140.427 118.543H135.397L135.732 116.531C135.732 116.531 136.738 115.86 136.738 114.519C136.738 113.778 136.138 113.177 135.397 113.177L130.913 118.782C130.342 119.495 130.031 120.382 130.031 121.296V125.92C130.031 127.031 130.932 127.932 132.043 127.932H139.085C140.011 127.932 140.762 127.182 140.762 126.255C140.762 126.044 140.718 125.844 140.647 125.659C141.118 125.361 141.433 124.841 141.433 124.243C141.433 124.032 141.389 123.832 141.318 123.647C141.789 123.349 142.103 122.829 142.103 122.231C142.103 121.853 141.972 121.506 141.761 121.225C141.972 120.944 142.103 120.598 142.103 120.219Z" fill="url(#paint16_linear_63_10147)"/>
</g>
<defs>
<filter id="filter0_d_63_10147" x="0.5" y="0.5" width="198" height="198" filterUnits="userSpaceOnUse" color-interpolation-filters="sRGB">
<feFlood flood-opacity="0" result="BackgroundImageFix"/>
<feColorMatrix in="SourceAlpha" type="matrix" values="0 0 0 0 0 0 0 0 0 0 0 0 0 0 0 0 0 0 127 0" result="hardAlpha"/>
<feOffset dy="4"/>
<feGaussianBlur stdDeviation="2"/>
<feComposite in2="hardAlpha" operator="out"/>
<feColorMatrix type="matrix" values="0 0 0 0 0.8375 0 0 0 0 0.732812 0 0 0 0 0.732812 0 0 0 0.25 0"/>
<feBlend mode="normal" in2="BackgroundImageFix" result="effect1_dropShadow_63_10147"/>
<feBlend mode="normal" in="SourceGraphic" in2="effect1_dropShadow_63_10147" result="shape"/>
</filter>
<filter id="filter1_bd_63_10147" x="110" y="94.9635" width="53" height="55.6765" filterUnits="userSpaceOnUse" color-interpolation-filters="sRGB">
<feFlood flood-opacity="0" result="BackgroundImageFix"/>
<feGaussianBlur in="BackgroundImageFix" stdDeviation="2"/>
<feComposite in2="SourceAlpha" operator="in" result="effect1_backgroundBlur_63_10147"/>
<feColorMatrix in="SourceAlpha" type="matrix" values="0 0 0 0 0 0 0 0 0 0 0 0 0 0 0 0 0 0 127 0" result="hardAlpha"/>
<feOffset dy="4"/>
<feGaussianBlur stdDeviation="2"/>
<feComposite in2="hardAlpha" operator="out"/>
<feColorMatrix type="matrix" values="0 0 0 0 1 0 0 0 0 1 0 0 0 0 1 0 0 0 0.25 0"/>
<feBlend mode="normal" in2="effect1_backgroundBlur_63_10147" result="effect2_dropShadow_63_10147"/>
<feBlend mode="normal" in="SourceGraphic" in2="effect2_dropShadow_63_10147" result="shape"/>
</filter>
<linearGradient id="paint0_linear_63_10147" x1="99.5" y1="16.4677" x2="99.5" y2="174.532" gradientUnits="userSpaceOnUse">
<stop stop-color="white"/>
<stop offset="0.472222" stop-color="#0D5176" stop-opacity="0.527778"/>
<stop offset="0.940972" stop-color="#12A6F7" stop-opacity="0.465278"/>
<stop offset="1" stop-opacity="0"/>
</linearGradient>
<linearGradient id="paint1_linear_63_10147" x1="67" y1="53.2333" x2="118.704" y2="128.025" gradientUnits="userSpaceOnUse">
<stop stop-color="#7DD8F3"/>
<stop offset="1" stop-color="#45B0D0"/>
</linearGradient>
<linearGradient id="paint2_linear_63_10147" x1="41.7487" y1="42.2623" x2="150.894" y2="64.4547" gradientUnits="userSpaceOnUse">
<stop stop-color="#0077D2"/>
<stop offset="1" stop-color="#0B59A2"/>
</linearGradient>
<linearGradient id="paint3_linear_63_10147" x1="74.1772" y1="52.9683" x2="148.228" y2="52.9683" gradientUnits="userSpaceOnUse">
<stop stop-color="#7DD8F3"/>
<stop offset="1" stop-color="#45B0D0"/>
</linearGradient>
<linearGradient id="paint4_linear_63_10147" x1="47.8351" y1="49.881" x2="51.4835" y2="55.1585" gradientUnits="userSpaceOnUse">
<stop stop-color="#75DAFF"/>
<stop offset="1" stop-color="#49BEF1"/>
</linearGradient>
<linearGradient id="paint5_linear_63_10147" x1="62.0667" y1="49.881" x2="65.7151" y2="55.1585" gradientUnits="userSpaceOnUse">
<stop stop-color="#75DAFF"/>
<stop offset="1" stop-color="#49BEF1"/>
</linearGradient>
<linearGradient id="paint6_linear_63_10147" x1="73.4412" y1="82.9641" x2="83.617" y2="92.4769" gradientUnits="userSpaceOnUse">
<stop stop-color="#C26715"/>
<stop offset="0.508" stop-color="#B85515"/>
<stop offset="1" stop-color="#AD3F16"/>
</linearGradient>
<linearGradient id="paint7_linear_63_10147" x1="62.5657" y1="79.0277" x2="76.2451" y2="89.0282" gradientUnits="userSpaceOnUse">
<stop stop-color="#EBA84B"/>
<stop offset="1" stop-color="#D97218"/>
</linearGradient>
<linearGradient id="paint8_linear_63_10147" x1="75.3416" y1="90.1738" x2="88.074" y2="102.464" gradientUnits="userSpaceOnUse">
<stop stop-color="#EBA600"/>
<stop offset="1" stop-color="#C28200"/>
</linearGradient>
<linearGradient id="paint9_linear_63_10147" x1="61.3829" y1="87.4128" x2="79.0667" y2="104.484" gradientUnits="userSpaceOnUse">
<stop stop-color="#FFD869"/>
<stop offset="1" stop-color="#FEC52B"/>
</linearGradient>
<linearGradient id="paint10_linear_63_10147" x1="68.7902" y1="91.6576" x2="68.7902" y2="70.3086" gradientUnits="userSpaceOnUse">
<stop stop-color="#EBA600"/>
<stop offset="1" stop-color="#C28200"/>
</linearGradient>
<linearGradient id="paint11_linear_63_10147" x1="83.1124" y1="91.6502" x2="83.1124" y2="88.8515" gradientUnits="userSpaceOnUse">
<stop stop-color="#FFD869"/>
<stop offset="1" stop-color="#FEC52B"/>
</linearGradient>
<linearGradient id="paint12_linear_63_10147" x1="105.696" y1="100.722" x2="105.696" y2="103.76" gradientUnits="userSpaceOnUse">
<stop stop-color="#0782D8" stop-opacity="0.42"/>
<stop offset="1" stop-color="#0782D8" stop-opacity="0"/>
</linearGradient>
<linearGradient id="paint13_linear_63_10147" x1="105.696" y1="108.316" x2="105.696" y2="111.354" gradientUnits="userSpaceOnUse">
<stop stop-color="#0782D8" stop-opacity="0.56"/>
<stop offset="1" stop-color="#0782D8" stop-opacity="0"/>
</linearGradient>
<linearGradient id="paint14_linear_63_10147" x1="139.271" y1="105.552" x2="129.117" y2="164.897" gradientUnits="userSpaceOnUse">
<stop stop-color="#FCFCFC"/>
<stop offset="1" stop-color="#C3C9CD"/>
</linearGradient>
<linearGradient id="paint15_linear_63_10147" x1="125.686" y1="109.686" x2="148.314" y2="132.314" gradientUnits="userSpaceOnUse">
<stop stop-color="#21AD64"/>
<stop offset="1" stop-color="#088242"/>
</linearGradient>
<linearGradient id="paint16_linear_63_10147" x1="132.239" y1="113.722" x2="138.168" y2="128.251" gradientUnits="userSpaceOnUse">
<stop stop-color="#FFCF54"/>
<stop offset="0.261" stop-color="#FDCB4D"/>
<stop offset="0.639" stop-color="#F7C13A"/>
<stop offset="1" stop-color="#F0B421"/>
</linearGradient>
</defs>
</svg>
