<svg width="199" height="199" viewBox="0 0 199 199" fill="none" xmlns="http://www.w3.org/2000/svg">
<g filter="url(#filter0_d_62_9174)">
<path d="M172.887 8H26.1129C18.3186 8 12 14.3186 12 22.1129V168.887C12 176.681 18.3186 183 26.1129 183H172.887C180.681 183 187 176.681 187 168.887V22.1129C187 14.3186 180.681 8 172.887 8Z" fill="white"/>
<path d="M172.887 8H26.1129C18.3186 8 12 14.3186 12 22.1129V168.887C12 176.681 18.3186 183 26.1129 183H172.887C180.681 183 187 176.681 187 168.887V22.1129C187 14.3186 180.681 8 172.887 8Z" fill="url(#paint0_linear_62_9174)" fill-opacity="0.2"/>
<path d="M172.887 8H26.1129C18.3186 8 12 14.3186 12 22.1129V168.887C12 176.681 18.3186 183 26.1129 183H172.887C180.681 183 187 176.681 187 168.887V22.1129C187 14.3186 180.681 8 172.887 8Z" stroke="#D5EAF6" stroke-width="15"/>
<g filter="url(#filter1_bdd_62_9174)">
<path d="M145 56H55C52.2375 56 50 58.2375 50 61V126C50 128.762 52.2375 131 55 131H75V150.995C75 153.223 77.6925 154.338 79.2675 152.763L101.03 131H145C147.762 131 150 128.762 150 126V61C150 58.2375 147.762 56 145 56Z" fill="url(#paint1_linear_62_9174)"/>
<path opacity="0.05" d="M129.57 77.465C129.28 76.2875 128.372 75.3525 127.202 75.025C126.017 74.7 124.745 75.0275 123.877 75.8975L119.375 80.4C118.332 81.435 116.637 81.4325 115.602 80.3975C115.097 79.8925 114.82 79.2225 114.82 78.51C114.82 77.7975 115.097 77.1275 115.605 76.62L120.1 72.1225C120.967 71.255 121.302 69.985 120.972 68.8C120.645 67.6275 119.712 66.72 118.535 66.4325C116.457 65.9225 114.337 65.865 112.237 66.2625C105.747 67.4825 100.747 72.8975 100.08 79.4275C99.8899 81.285 100.057 83.1225 100.525 84.87L97.1075 88.2875L88.1449 79.3225L87.905 77.87C87.6925 76.5725 86.95 75.3975 85.8725 74.645L78.5775 69.5525C77.085 68.505 75.0675 68.68 73.7825 69.97L71.47 72.2825C70.1875 73.57 70.01 75.5825 71.05 77.075L76.1525 84.3725C76.905 85.45 78.0799 86.19 79.3724 86.4025L80.8274 86.645L89.7875 95.6125L77.2 108.2C74.275 111.125 74.275 115.88 77.2 118.805C78.6125 120.22 80.4975 121 82.5 121C84.5025 121 86.3875 120.22 87.8025 118.802L111.127 95.4775C112.385 95.8125 113.685 96 115.01 96C115.53 96 116.052 95.9725 116.577 95.92C123.105 95.2475 128.517 90.2475 129.74 83.76C130.137 81.6525 130.08 79.5325 129.57 77.465Z" fill="black"/>
<path opacity="0.05" d="M111.517 99.4124C110.54 98.4349 108.96 98.4349 107.982 99.4124L100.91 106.482C100.44 106.952 100.177 107.585 100.177 108.25C100.177 108.915 100.44 109.55 100.91 110.017L109.695 118.802C111.112 120.22 112.997 121 115 121C117.002 121 118.887 120.22 120.302 118.802C123.227 115.877 123.227 111.122 120.302 108.197L111.517 99.4124Z" fill="black"/>
<path opacity="0.07" d="M128.355 77.7625C128.172 77.0125 127.615 76.44 126.867 76.2325C126.117 76.0225 125.312 76.235 124.762 76.7825L120.262 81.2825C118.735 82.8125 116.247 82.81 114.72 81.2825C113.98 80.5425 113.572 79.56 113.572 78.5125C113.572 77.465 113.982 76.4825 114.722 75.7425L119.22 71.24C119.77 70.6925 119.98 69.8875 119.77 69.14C119.565 68.4 118.977 67.83 118.237 67.6475C116.337 67.18 114.397 67.13 112.47 67.4925C106.522 68.6125 101.937 73.575 101.325 79.555C101.125 81.505 101.35 83.43 101.932 85.2325L97.1075 90.0575L86.9775 79.9275L86.67 78.0775C86.5125 77.11 85.96 76.2375 85.1575 75.675L77.86 70.58C76.865 69.88 75.5225 70 74.665 70.8575L72.355 73.1675C71.5 74.025 71.3825 75.3675 72.075 76.36L77.175 83.66C77.7375 84.4625 78.6125 85.0125 79.575 85.17L81.4275 85.475L91.555 95.6125L78.085 109.083C75.6475 111.52 75.6475 115.485 78.085 117.92C79.26 119.1 80.83 119.75 82.5 119.75C84.17 119.75 85.74 119.1 86.92 117.92L110.807 94.0325C112.16 94.4675 113.562 94.7525 115.012 94.7525C115.49 94.7525 115.97 94.7275 116.452 94.6775C122.432 94.065 127.392 89.48 128.512 83.5325C128.875 81.5975 128.822 79.6575 128.355 77.7625Z" fill="black"/>
<path opacity="0.07" d="M109.75 99.4125L100.912 108.25L110.582 117.917C111.76 119.1 113.33 119.75 115 119.75C116.67 119.75 118.24 119.1 119.42 117.92C121.857 115.482 121.857 111.517 119.42 109.082L109.75 99.4125Z" fill="black"/>
<path d="M95 97.29L82.025 84.305L79.7775 83.9325C79.1375 83.8275 78.5675 83.4675 78.1975 82.9375L73.1 75.64C72.755 75.145 72.8125 74.475 73.24 74.0475L75.55 71.7375C75.9775 71.31 76.6475 71.2525 77.1425 71.5975L84.4425 76.695C84.975 77.065 85.3325 77.635 85.44 78.275L85.8125 80.5225L98.795 93.505L95 97.29Z" fill="white"/>
<path d="M121.145 82.165C119.128 84.1825 115.853 84.1825 113.835 82.165C111.818 80.1475 111.818 76.8725 113.835 74.855C114.328 74.3625 116.313 72.3775 118.335 70.355C118.82 69.87 118.605 69.0225 117.938 68.86C116.298 68.4575 114.535 68.3725 112.7 68.7175C107.32 69.7325 103.125 74.235 102.565 79.68C101.75 87.6225 108.378 94.2475 116.32 93.4325C121.768 92.8725 126.268 88.6775 127.28 83.2975C127.625 81.4625 127.54 79.7 127.138 78.0625C126.973 77.3975 126.128 77.18 125.643 77.665C123.623 79.6875 121.638 81.6725 121.145 82.165Z" fill="white"/>
<path d="M105.215 83.715C105.215 83.715 79.9425 108.987 78.965 109.965C77.0125 111.917 77.0125 115.082 78.965 117.035C80.9175 118.987 84.0825 118.987 86.035 117.035C87.0125 116.057 112.285 90.785 112.285 90.785L105.215 83.715Z" fill="white"/>
<path d="M102.68 108.25C102.68 108.25 110.488 116.058 111.465 117.035C113.418 118.988 116.583 118.988 118.535 117.035C120.488 115.083 120.488 111.918 118.535 109.965C117.558 108.988 109.75 101.18 109.75 101.18L102.68 108.25Z" fill="white"/>
</g>
</g>
<defs>
<filter id="filter0_d_62_9174" x="0.5" y="0.5" width="198" height="198" filterUnits="userSpaceOnUse" color-interpolation-filters="sRGB">
<feFlood flood-opacity="0" result="BackgroundImageFix"/>
<feColorMatrix in="SourceAlpha" type="matrix" values="0 0 0 0 0 0 0 0 0 0 0 0 0 0 0 0 0 0 127 0" result="hardAlpha"/>
<feOffset dy="4"/>
<feGaussianBlur stdDeviation="2"/>
<feComposite in2="hardAlpha" operator="out"/>
<feColorMatrix type="matrix" values="0 0 0 0 0.8375 0 0 0 0 0.732812 0 0 0 0 0.732812 0 0 0 0.25 0"/>
<feBlend mode="normal" in2="BackgroundImageFix" result="effect1_dropShadow_62_9174"/>
<feBlend mode="normal" in="SourceGraphic" in2="effect1_dropShadow_62_9174" result="shape"/>
</filter>
<filter id="filter1_bdd_62_9174" x="36" y="32" width="128" height="132" filterUnits="userSpaceOnUse" color-interpolation-filters="sRGB">
<feFlood flood-opacity="0" result="BackgroundImageFix"/>
<feGaussianBlur in="BackgroundImageFix" stdDeviation="2"/>
<feComposite in2="SourceAlpha" operator="in" result="effect1_backgroundBlur_62_9174"/>
<feColorMatrix in="SourceAlpha" type="matrix" values="0 0 0 0 0 0 0 0 0 0 0 0 0 0 0 0 0 0 127 0" result="hardAlpha"/>
<feOffset dy="4"/>
<feGaussianBlur stdDeviation="2"/>
<feComposite in2="hardAlpha" operator="out"/>
<feColorMatrix type="matrix" values="0 0 0 0 1 0 0 0 0 1 0 0 0 0 1 0 0 0 0.25 0"/>
<feBlend mode="normal" in2="effect1_backgroundBlur_62_9174" result="effect2_dropShadow_62_9174"/>
<feColorMatrix in="SourceAlpha" type="matrix" values="0 0 0 0 0 0 0 0 0 0 0 0 0 0 0 0 0 0 127 0" result="hardAlpha"/>
<feOffset dy="4"/>
<feGaussianBlur stdDeviation="2"/>
<feComposite in2="hardAlpha" operator="out"/>
<feColorMatrix type="matrix" values="0 0 0 0 0 0 0 0 0 0 0 0 0 0 0 0 0 0 0.25 0"/>
<feBlend mode="normal" in2="effect2_dropShadow_62_9174" result="effect3_dropShadow_62_9174"/>
<feBlend mode="normal" in="SourceGraphic" in2="effect3_dropShadow_62_9174" result="shape"/>
</filter>
<linearGradient id="paint0_linear_62_9174" x1="99.5" y1="16.4677" x2="99.5" y2="174.532" gradientUnits="userSpaceOnUse">
<stop stop-color="white"/>
<stop offset="0.472222" stop-color="#0D5176" stop-opacity="0.527778"/>
<stop offset="0.940972" stop-color="#12A6F7" stop-opacity="0.465278"/>
<stop offset="1" stop-opacity="0"/>
</linearGradient>
<linearGradient id="paint1_linear_62_9174" x1="71.715" y1="47.48" x2="128.95" y2="140.602" gradientUnits="userSpaceOnUse">
<stop stop-color="#0176D0"/>
<stop offset="1" stop-color="#0A85D9"/>
</linearGradient>
</defs>
</svg>
