<svg width="199" height="199" viewBox="0 0 199 199" fill="none" xmlns="http://www.w3.org/2000/svg">
<g filter="url(#filter0_d_52_2259)">
<path d="M172.887 8H26.1129C18.3186 8 12 14.3186 12 22.1129V168.887C12 176.681 18.3186 183 26.1129 183H172.887C180.681 183 187 176.681 187 168.887V22.1129C187 14.3186 180.681 8 172.887 8Z" fill="white"/>
<path d="M172.887 8H26.1129C18.3186 8 12 14.3186 12 22.1129V168.887C12 176.681 18.3186 183 26.1129 183H172.887C180.681 183 187 176.681 187 168.887V22.1129C187 14.3186 180.681 8 172.887 8Z" fill="url(#paint0_linear_52_2259)" fill-opacity="0.2"/>
<path d="M172.887 8H26.1129C18.3186 8 12 14.3186 12 22.1129V168.887C12 176.681 18.3186 183 26.1129 183H172.887C180.681 183 187 176.681 187 168.887V22.1129C187 14.3186 180.681 8 172.887 8Z" stroke="#D5EAF6" stroke-width="15" stroke-linecap="round"/>
</g>
<g filter="url(#filter1_bd_52_2259)">
<g filter="url(#filter2_bd_52_2259)">
<path d="M40 137V68H160V137C160 140.3 157.3 143 154 143H46C42.7 143 40 140.3 40 137Z" fill="url(#paint1_linear_52_2259)"/>
<path d="M160 53V68H40V53C40 49.7 42.7 47 46 47H154C157.3 47 160 49.7 160 53Z" fill="url(#paint2_linear_52_2259)"/>
<path d="M77.5 62H152.5C153.328 62 154 61.328 154 60.5V54.5C154 53.672 153.328 53 152.5 53H77.5C76.672 53 76 53.672 76 54.5V60.5C76 61.328 76.672 62 77.5 62Z" fill="url(#paint3_linear_52_2259)"/>
<path d="M50.5 62C52.9853 62 55 59.9853 55 57.5C55 55.0148 52.9853 53 50.5 53C48.0148 53 46 55.0148 46 57.5C46 59.9853 48.0148 62 50.5 62Z" fill="url(#paint4_linear_52_2259)"/>
<path d="M65.4906 62C67.9759 62 69.9906 59.9853 69.9906 57.5C69.9906 55.0148 67.9759 53 65.4906 53C63.0054 53 60.9906 55.0148 60.9906 57.5C60.9906 59.9853 63.0054 62 65.4906 62Z" fill="url(#paint5_linear_52_2259)"/>
<path d="M112.8 111.848C112.8 98.2766 93.1353 100.927 93.1353 92.9089C93.1353 88.7215 97.7528 88.5023 99.1987 88.5023C102.671 88.5023 106.019 89.4502 108.574 90.6726C109.38 91.0581 110.305 90.4878 110.305 89.5822V85.6323C110.305 84.3069 109.815 83.5228 109.035 83.2139C107.283 82.5195 104.77 82.0152 101.049 81.8884V77.5426C101.049 77.0224 100.634 76.6 100.124 76.6H98.2736C97.7632 76.6 97.3486 77.0224 97.3486 77.5426V81.9597C91.5805 82.5353 85.6 85.8515 85.6 93.569C85.6 107.636 105.265 104.848 105.265 112.257C105.265 114.585 103.806 116.592 99.2013 116.592C94.5734 116.592 90.3238 114.947 87.971 113.719C87.1755 113.302 86.2426 113.899 86.2426 114.805V119.301C86.2426 120.164 86.7531 120.93 87.5305 121.268C90.3186 122.475 94.0577 123.388 97.346 123.655V128.457C97.346 128.978 97.7606 129.4 98.271 129.4H100.121C100.632 129.4 101.046 128.978 101.046 128.457V123.665C109.68 122.931 112.8 117.044 112.8 111.848Z" fill="#FCFCFC"/>
</g>
</g>
<g filter="url(#filter3_bd_52_2259)">
<g filter="url(#filter4_bd_52_2259)">
<path d="M40 137V68H160V137C160 140.3 157.3 143 154 143H46C42.7 143 40 140.3 40 137Z" fill="url(#paint6_linear_52_2259)"/>
<path d="M160 53V68H40V53C40 49.7 42.7 47 46 47H154C157.3 47 160 49.7 160 53Z" fill="url(#paint7_linear_52_2259)"/>
<path d="M77.5 62H152.5C153.328 62 154 61.328 154 60.5V54.5C154 53.672 153.328 53 152.5 53H77.5C76.672 53 76 53.672 76 54.5V60.5C76 61.328 76.672 62 77.5 62Z" fill="url(#paint8_linear_52_2259)"/>
<path d="M50.5 62C52.9853 62 55 59.9853 55 57.5C55 55.0148 52.9853 53 50.5 53C48.0148 53 46 55.0148 46 57.5C46 59.9853 48.0148 62 50.5 62Z" fill="url(#paint9_linear_52_2259)"/>
<path d="M65.4906 62C67.9759 62 69.9906 59.9853 69.9906 57.5C69.9906 55.0148 67.9759 53 65.4906 53C63.0054 53 60.9906 55.0148 60.9906 57.5C60.9906 59.9853 63.0054 62 65.4906 62Z" fill="url(#paint10_linear_52_2259)"/>
<path d="M112.8 111.848C112.8 98.2766 93.1353 100.927 93.1353 92.9089C93.1353 88.7215 97.7528 88.5023 99.1987 88.5023C102.671 88.5023 106.019 89.4502 108.574 90.6726C109.38 91.0581 110.305 90.4878 110.305 89.5822V85.6323C110.305 84.3069 109.815 83.5228 109.035 83.2139C107.283 82.5195 104.77 82.0152 101.049 81.8884V77.5426C101.049 77.0224 100.634 76.6 100.124 76.6H98.2736C97.7632 76.6 97.3486 77.0224 97.3486 77.5426V81.9597C91.5805 82.5353 85.6 85.8515 85.6 93.569C85.6 107.636 105.265 104.848 105.265 112.257C105.265 114.585 103.806 116.592 99.2013 116.592C94.5734 116.592 90.3238 114.947 87.971 113.719C87.1755 113.302 86.2426 113.899 86.2426 114.805V119.301C86.2426 120.164 86.7531 120.93 87.5305 121.268C90.3186 122.475 94.0577 123.388 97.346 123.655V128.457C97.346 128.978 97.7606 129.4 98.271 129.4H100.121C100.632 129.4 101.046 128.978 101.046 128.457V123.665C109.68 122.931 112.8 117.044 112.8 111.848Z" fill="#FCFCFC"/>
</g>
</g>
<defs>
<filter id="filter0_d_52_2259" x="0.5" y="0.5" width="198" height="198" filterUnits="userSpaceOnUse" color-interpolation-filters="sRGB">
<feFlood flood-opacity="0" result="BackgroundImageFix"/>
<feColorMatrix in="SourceAlpha" type="matrix" values="0 0 0 0 0 0 0 0 0 0 0 0 0 0 0 0 0 0 127 0" result="hardAlpha"/>
<feOffset dy="4"/>
<feGaussianBlur stdDeviation="2"/>
<feComposite in2="hardAlpha" operator="out"/>
<feColorMatrix type="matrix" values="0 0 0 0 0.8375 0 0 0 0 0.732812 0 0 0 0 0.732812 0 0 0 0.25 0"/>
<feBlend mode="normal" in2="BackgroundImageFix" result="effect1_dropShadow_52_2259"/>
<feBlend mode="normal" in="SourceGraphic" in2="effect1_dropShadow_52_2259" result="shape"/>
</filter>
<filter id="filter1_bd_52_2259" x="36" y="43" width="128" height="108" filterUnits="userSpaceOnUse" color-interpolation-filters="sRGB">
<feFlood flood-opacity="0" result="BackgroundImageFix"/>
<feGaussianBlur in="BackgroundImageFix" stdDeviation="2"/>
<feComposite in2="SourceAlpha" operator="in" result="effect1_backgroundBlur_52_2259"/>
<feColorMatrix in="SourceAlpha" type="matrix" values="0 0 0 0 0 0 0 0 0 0 0 0 0 0 0 0 0 0 127 0" result="hardAlpha"/>
<feOffset dy="4"/>
<feGaussianBlur stdDeviation="2"/>
<feComposite in2="hardAlpha" operator="out"/>
<feColorMatrix type="matrix" values="0 0 0 0 0.857346 0 0 0 0 0.887393 0 0 0 0 0.897222 0 0 0 1 0"/>
<feBlend mode="normal" in2="effect1_backgroundBlur_52_2259" result="effect2_dropShadow_52_2259"/>
<feBlend mode="normal" in="SourceGraphic" in2="effect2_dropShadow_52_2259" result="shape"/>
</filter>
<filter id="filter2_bd_52_2259" x="36" y="43" width="128" height="108" filterUnits="userSpaceOnUse" color-interpolation-filters="sRGB">
<feFlood flood-opacity="0" result="BackgroundImageFix"/>
<feGaussianBlur in="BackgroundImageFix" stdDeviation="2"/>
<feComposite in2="SourceAlpha" operator="in" result="effect1_backgroundBlur_52_2259"/>
<feColorMatrix in="SourceAlpha" type="matrix" values="0 0 0 0 0 0 0 0 0 0 0 0 0 0 0 0 0 0 127 0" result="hardAlpha"/>
<feOffset dy="4"/>
<feGaussianBlur stdDeviation="2"/>
<feComposite in2="hardAlpha" operator="out"/>
<feColorMatrix type="matrix" values="0 0 0 0 1 0 0 0 0 1 0 0 0 0 1 0 0 0 0.25 0"/>
<feBlend mode="normal" in2="effect1_backgroundBlur_52_2259" result="effect2_dropShadow_52_2259"/>
<feBlend mode="normal" in="SourceGraphic" in2="effect2_dropShadow_52_2259" result="shape"/>
</filter>
<filter id="filter3_bd_52_2259" x="36" y="43" width="128" height="108" filterUnits="userSpaceOnUse" color-interpolation-filters="sRGB">
<feFlood flood-opacity="0" result="BackgroundImageFix"/>
<feGaussianBlur in="BackgroundImageFix" stdDeviation="2"/>
<feComposite in2="SourceAlpha" operator="in" result="effect1_backgroundBlur_52_2259"/>
<feColorMatrix in="SourceAlpha" type="matrix" values="0 0 0 0 0 0 0 0 0 0 0 0 0 0 0 0 0 0 127 0" result="hardAlpha"/>
<feOffset dy="4"/>
<feGaussianBlur stdDeviation="2"/>
<feComposite in2="hardAlpha" operator="out"/>
<feColorMatrix type="matrix" values="0 0 0 0 0.857346 0 0 0 0 0.887393 0 0 0 0 0.897222 0 0 0 1 0"/>
<feBlend mode="normal" in2="effect1_backgroundBlur_52_2259" result="effect2_dropShadow_52_2259"/>
<feBlend mode="normal" in="SourceGraphic" in2="effect2_dropShadow_52_2259" result="shape"/>
</filter>
<filter id="filter4_bd_52_2259" x="36" y="43" width="128" height="108" filterUnits="userSpaceOnUse" color-interpolation-filters="sRGB">
<feFlood flood-opacity="0" result="BackgroundImageFix"/>
<feGaussianBlur in="BackgroundImageFix" stdDeviation="2"/>
<feComposite in2="SourceAlpha" operator="in" result="effect1_backgroundBlur_52_2259"/>
<feColorMatrix in="SourceAlpha" type="matrix" values="0 0 0 0 0 0 0 0 0 0 0 0 0 0 0 0 0 0 127 0" result="hardAlpha"/>
<feOffset dy="4"/>
<feGaussianBlur stdDeviation="2"/>
<feComposite in2="hardAlpha" operator="out"/>
<feColorMatrix type="matrix" values="0 0 0 0 1 0 0 0 0 1 0 0 0 0 1 0 0 0 0.25 0"/>
<feBlend mode="normal" in2="effect1_backgroundBlur_52_2259" result="effect2_dropShadow_52_2259"/>
<feBlend mode="normal" in="SourceGraphic" in2="effect2_dropShadow_52_2259" result="shape"/>
</filter>
<linearGradient id="paint0_linear_52_2259" x1="99.5" y1="16.4677" x2="99.5" y2="174.532" gradientUnits="userSpaceOnUse">
<stop stop-color="white"/>
<stop offset="0.472222" stop-color="#0D5176" stop-opacity="0.527778"/>
<stop offset="0.940972" stop-color="#12A6F7" stop-opacity="0.465278"/>
<stop offset="1" stop-opacity="0"/>
</linearGradient>
<linearGradient id="paint1_linear_52_2259" x1="68.44" y1="33.9171" x2="142.402" y2="117.501" gradientUnits="userSpaceOnUse">
<stop stop-color="#7DD8F3"/>
<stop offset="1" stop-color="#45B0D0"/>
</linearGradient>
<linearGradient id="paint2_linear_52_2259" x1="41.842" y1="43.448" x2="161.325" y2="48.7624" gradientUnits="userSpaceOnUse">
<stop stop-color="#0077D2"/>
<stop offset="1" stop-color="#0B59A2"/>
</linearGradient>
<linearGradient id="paint3_linear_52_2259" x1="40" y1="95" x2="160" y2="95" gradientUnits="userSpaceOnUse">
<stop stop-color="#7DD8F3"/>
<stop offset="1" stop-color="#45B0D0"/>
</linearGradient>
<linearGradient id="paint4_linear_52_2259" x1="70.04" y1="60.312" x2="107.154" y2="127.42" gradientUnits="userSpaceOnUse">
<stop stop-color="#75DAFF"/>
<stop offset="1" stop-color="#49BEF1"/>
</linearGradient>
<linearGradient id="paint5_linear_52_2259" x1="70.04" y1="60.312" x2="107.154" y2="127.42" gradientUnits="userSpaceOnUse">
<stop stop-color="#75DAFF"/>
<stop offset="1" stop-color="#49BEF1"/>
</linearGradient>
<linearGradient id="paint6_linear_52_2259" x1="68.44" y1="33.9171" x2="142.402" y2="117.501" gradientUnits="userSpaceOnUse">
<stop stop-color="#7DD8F3"/>
<stop offset="1" stop-color="#45B0D0"/>
</linearGradient>
<linearGradient id="paint7_linear_52_2259" x1="41.842" y1="43.448" x2="161.325" y2="48.7624" gradientUnits="userSpaceOnUse">
<stop stop-color="#0077D2"/>
<stop offset="1" stop-color="#0B59A2"/>
</linearGradient>
<linearGradient id="paint8_linear_52_2259" x1="40" y1="95" x2="160" y2="95" gradientUnits="userSpaceOnUse">
<stop stop-color="#7DD8F3"/>
<stop offset="1" stop-color="#45B0D0"/>
</linearGradient>
<linearGradient id="paint9_linear_52_2259" x1="70.04" y1="60.312" x2="107.154" y2="127.42" gradientUnits="userSpaceOnUse">
<stop stop-color="#75DAFF"/>
<stop offset="1" stop-color="#49BEF1"/>
</linearGradient>
<linearGradient id="paint10_linear_52_2259" x1="70.04" y1="60.312" x2="107.154" y2="127.42" gradientUnits="userSpaceOnUse">
<stop stop-color="#75DAFF"/>
<stop offset="1" stop-color="#49BEF1"/>
</linearGradient>
</defs>
</svg>
