<svg width="199" height="199" viewBox="0 0 199 199" fill="none" xmlns="http://www.w3.org/2000/svg">
<g filter="url(#filter0_d_60_8768)">
<path d="M172.887 8H26.1129C18.3186 8 12 14.3186 12 22.1129V168.887C12 176.681 18.3186 183 26.1129 183H172.887C180.681 183 187 176.681 187 168.887V22.1129C187 14.3186 180.681 8 172.887 8Z" fill="white"/>
<path d="M172.887 8H26.1129C18.3186 8 12 14.3186 12 22.1129V168.887C12 176.681 18.3186 183 26.1129 183H172.887C180.681 183 187 176.681 187 168.887V22.1129C187 14.3186 180.681 8 172.887 8Z" fill="url(#paint0_linear_60_8768)" fill-opacity="0.2"/>
<path d="M172.887 8H26.1129C18.3186 8 12 14.3186 12 22.1129V168.887C12 176.681 18.3186 183 26.1129 183H172.887C180.681 183 187 176.681 187 168.887V22.1129C187 14.3186 180.681 8 172.887 8Z" stroke="#D5EAF6" stroke-width="15"/>
</g>
<g filter="url(#filter1_bdd_60_8768)">
<path d="M147.5 141H52.5C51.1175 141 50 139.882 50 138.5C50 137.118 51.1175 136 52.5 136H147.5C148.882 136 150 137.118 150 138.5C150 139.882 148.882 141 147.5 141Z" fill="#64717C"/>
<path d="M52.5025 123.5C51.78 123.5 51.065 123.19 50.5725 122.59C49.6925 121.522 49.8475 119.947 50.9125 119.072C51.015 118.987 54.98 115.675 59.8175 110.157C58.9 108.865 58.0225 107.462 57.19 105.955C52.685 97.81 50 87.545 50 78.5C50 60.275 56.87 48.5 67.5 48.5C78.4275 48.5 82.5 62.3025 82.5 71C82.5 86.765 74.005 100.817 66.2975 110.32C69.5 113.8 73.2775 116 77.5 116C84.375 116 89.8875 113.767 94.1175 110.177C89.86 104.807 87.5 96.4525 87.5 88.265C87.5 74.74 92.4075 66 100 66C106.17 66 110 72.7075 110 83.5C110 93.125 107.025 102.81 101.205 109.922C102.38 110.617 103.65 111 105 111C118 111 119.99 88.5225 120.007 88.295C120.115 86.9975 121.197 86 122.5 86C127.447 86 128.92 91.3825 130.217 96.135C131.162 99.5875 132.232 103.5 134.067 103.5C135.265 103.5 136.287 99.4 136.962 96.6875C138.35 91.1225 140.25 83.5 147.5 83.5C148.882 83.5 150 84.6175 150 86C150 87.3825 148.882 88.5 147.5 88.5C144.387 88.5 143.227 92.22 141.815 97.8975C140.575 102.867 139.172 108.5 134.067 108.5C128.412 108.5 126.74 102.375 125.395 97.4525C125.092 96.3525 124.7 94.9075 124.252 93.6675C122.687 101.557 118.04 116 105 116C102.272 116 99.8225 115.125 97.6725 113.605C92.5175 118.162 85.775 121 77.5 121C72.32 121 67.375 118.607 63.065 114.112C58.3425 119.387 54.5075 122.585 54.09 122.93C53.6225 123.315 53.0625 123.5 52.5025 123.5ZM100 71C95.655 71 92.5 78.26 92.5 88.265C92.5 95.0425 94.415 102.112 97.6375 106.535C102.627 100.27 105 91.72 105 83.5C105 76.14 102.945 71 100 71ZM67.5 53.5C58.865 53.5 55 66.055 55 78.5C55 87.1175 57.99 98.2825 63.12 106.18C70.11 97.3125 77.5 84.6975 77.5 71C77.5 65.5175 74.9825 53.5 67.5 53.5Z" fill="#0D62AB"/>
</g>
<defs>
<filter id="filter0_d_60_8768" x="0.5" y="0.5" width="198" height="198" filterUnits="userSpaceOnUse" color-interpolation-filters="sRGB">
<feFlood flood-opacity="0" result="BackgroundImageFix"/>
<feColorMatrix in="SourceAlpha" type="matrix" values="0 0 0 0 0 0 0 0 0 0 0 0 0 0 0 0 0 0 127 0" result="hardAlpha"/>
<feOffset dy="4"/>
<feGaussianBlur stdDeviation="2"/>
<feComposite in2="hardAlpha" operator="out"/>
<feColorMatrix type="matrix" values="0 0 0 0 0.8375 0 0 0 0 0.732812 0 0 0 0 0.732812 0 0 0 0.25 0"/>
<feBlend mode="normal" in2="BackgroundImageFix" result="effect1_dropShadow_60_8768"/>
<feBlend mode="normal" in="SourceGraphic" in2="effect1_dropShadow_60_8768" result="shape"/>
</filter>
<filter id="filter1_bdd_60_8768" x="36" y="32" width="128" height="132" filterUnits="userSpaceOnUse" color-interpolation-filters="sRGB">
<feFlood flood-opacity="0" result="BackgroundImageFix"/>
<feGaussianBlur in="BackgroundImageFix" stdDeviation="2"/>
<feComposite in2="SourceAlpha" operator="in" result="effect1_backgroundBlur_60_8768"/>
<feColorMatrix in="SourceAlpha" type="matrix" values="0 0 0 0 0 0 0 0 0 0 0 0 0 0 0 0 0 0 127 0" result="hardAlpha"/>
<feOffset dy="4"/>
<feGaussianBlur stdDeviation="2"/>
<feComposite in2="hardAlpha" operator="out"/>
<feColorMatrix type="matrix" values="0 0 0 0 1 0 0 0 0 1 0 0 0 0 1 0 0 0 0.25 0"/>
<feBlend mode="normal" in2="effect1_backgroundBlur_60_8768" result="effect2_dropShadow_60_8768"/>
<feColorMatrix in="SourceAlpha" type="matrix" values="0 0 0 0 0 0 0 0 0 0 0 0 0 0 0 0 0 0 127 0" result="hardAlpha"/>
<feOffset dy="4"/>
<feGaussianBlur stdDeviation="2"/>
<feComposite in2="hardAlpha" operator="out"/>
<feColorMatrix type="matrix" values="0 0 0 0 0 0 0 0 0 0 0 0 0 0 0 0 0 0 0.25 0"/>
<feBlend mode="normal" in2="effect2_dropShadow_60_8768" result="effect3_dropShadow_60_8768"/>
<feBlend mode="normal" in="SourceGraphic" in2="effect3_dropShadow_60_8768" result="shape"/>
</filter>
<linearGradient id="paint0_linear_60_8768" x1="99.5" y1="16.4677" x2="99.5" y2="174.532" gradientUnits="userSpaceOnUse">
<stop stop-color="white"/>
<stop offset="0.472222" stop-color="#0D5176" stop-opacity="0.527778"/>
<stop offset="0.940972" stop-color="#12A6F7" stop-opacity="0.465278"/>
<stop offset="1" stop-opacity="0"/>
</linearGradient>
</defs>
</svg>
