<svg width="199" height="199" viewBox="0 0 199 199" fill="none" xmlns="http://www.w3.org/2000/svg">
<g filter="url(#filter0_d_62_9007)">
<path d="M172.887 8H26.1129C18.3186 8 12 14.3186 12 22.1129V168.887C12 176.681 18.3186 183 26.1129 183H172.887C180.681 183 187 176.681 187 168.887V22.1129C187 14.3186 180.681 8 172.887 8Z" fill="white"/>
<path d="M172.887 8H26.1129C18.3186 8 12 14.3186 12 22.1129V168.887C12 176.681 18.3186 183 26.1129 183H172.887C180.681 183 187 176.681 187 168.887V22.1129C187 14.3186 180.681 8 172.887 8Z" fill="url(#paint0_linear_62_9007)" fill-opacity="0.2"/>
<path d="M172.887 8H26.1129C18.3186 8 12 14.3186 12 22.1129V168.887C12 176.681 18.3186 183 26.1129 183H172.887C180.681 183 187 176.681 187 168.887V22.1129C187 14.3186 180.681 8 172.887 8Z" stroke="#D5EAF6" stroke-width="15"/>
</g>
<path d="M67.647 125.174V101.76C67.647 100.357 67.1441 98.9981 66.2323 97.9304L55.1765 85.0305C53.3971 82.9569 50 84.2158 50 86.9452V125.174H67.647Z" fill="#0368BA"/>
<path d="M132.353 66.3511V89.7657C132.353 91.1687 132.856 92.5275 133.768 93.5951L144.824 106.495C146.603 108.569 150 107.31 150 104.58V66.3511H132.353Z" fill="#0368BA"/>
<path d="M123.529 112.851V125.175H50L64.2 139.374C66.4058 141.58 69.4 142.822 72.5176 142.822H123.529V155.145C123.529 157.263 126.088 158.322 127.585 156.824L147.294 137.116C149.017 135.392 149.017 132.598 147.294 130.877L127.585 111.169C126.088 109.672 123.529 110.733 123.529 112.851Z" fill="#0884DB"/>
<path d="M76.4709 78.6746V66.3511H150L135.8 52.1511C133.591 49.9423 130.6 48.704 127.48 48.704H76.4709V36.3805C76.4709 34.2629 73.912 33.2041 72.415 34.7011L52.7062 54.407C50.9827 56.1305 50.9827 58.9246 52.7062 60.6452L72.415 80.354C73.912 81.854 76.4709 80.7922 76.4709 78.6746Z" fill="#0884DB"/>
<path d="M99.0589 117.88C111.014 117.88 120.706 108.189 120.706 96.2333C120.706 84.278 111.014 74.5863 99.0589 74.5863C87.1036 74.5863 77.4119 84.278 77.4119 96.2333C77.4119 108.189 87.1036 117.88 99.0589 117.88Z" fill="url(#paint1_linear_62_9007)"/>
<path d="M107.012 101.314C107.012 93.523 95.5109 95.0448 95.5109 90.4427C95.5109 88.0398 98.2124 87.9121 99.0567 87.9121C101.087 87.9121 103.046 88.4576 104.54 89.1568C105.012 89.3798 105.553 89.0529 105.553 88.5334V86.2669C105.553 85.5071 105.267 85.0569 104.81 84.8772C103.787 84.4789 102.317 84.1867 100.141 84.1152V81.6215C100.141 81.3228 99.8987 81.0803 99.6 81.0803H98.5176C98.2189 81.0803 97.9765 81.3228 97.9765 81.6215V84.1564C94.6017 84.4854 91.1057 86.3903 91.1057 90.8193C91.1057 98.8958 102.607 97.2918 102.607 101.545C102.607 102.883 101.752 104.035 99.061 104.035C96.3551 104.035 93.8679 103.091 92.4933 102.385C92.03 102.149 91.4845 102.491 91.4845 103.011V105.591C91.4845 106.085 91.7833 106.526 92.24 106.721C93.87 107.414 96.0564 107.938 97.9808 108.091V110.847C97.9808 111.146 98.2232 111.388 98.522 111.388H99.6043C99.9031 111.388 100.145 111.146 100.145 110.847V108.096C105.189 107.676 107.012 104.297 107.012 101.314Z" fill="white"/>
<defs>
<filter id="filter0_d_62_9007" x="0.5" y="0.5" width="198" height="198" filterUnits="userSpaceOnUse" color-interpolation-filters="sRGB">
<feFlood flood-opacity="0" result="BackgroundImageFix"/>
<feColorMatrix in="SourceAlpha" type="matrix" values="0 0 0 0 0 0 0 0 0 0 0 0 0 0 0 0 0 0 127 0" result="hardAlpha"/>
<feOffset dy="4"/>
<feGaussianBlur stdDeviation="2"/>
<feComposite in2="hardAlpha" operator="out"/>
<feColorMatrix type="matrix" values="0 0 0 0 0.8375 0 0 0 0 0.732812 0 0 0 0 0.732812 0 0 0 0.25 0"/>
<feBlend mode="normal" in2="BackgroundImageFix" result="effect1_dropShadow_62_9007"/>
<feBlend mode="normal" in="SourceGraphic" in2="effect1_dropShadow_62_9007" result="shape"/>
</filter>
<linearGradient id="paint0_linear_62_9007" x1="99.5" y1="16.4677" x2="99.5" y2="174.532" gradientUnits="userSpaceOnUse">
<stop stop-color="white"/>
<stop offset="0.472222" stop-color="#0D5176" stop-opacity="0.527778"/>
<stop offset="0.940972" stop-color="#12A6F7" stop-opacity="0.465278"/>
<stop offset="1" stop-opacity="0"/>
</linearGradient>
<linearGradient id="paint1_linear_62_9007" x1="77.4119" y1="96.2333" x2="120.706" y2="96.2333" gradientUnits="userSpaceOnUse">
<stop stop-color="#21AD64"/>
<stop offset="1" stop-color="#088242"/>
</linearGradient>
</defs>
</svg>
