<svg width="199" height="199" viewBox="0 0 199 199" fill="none" xmlns="http://www.w3.org/2000/svg">
<g filter="url(#filter0_d_74_11242)">
<path d="M172.887 8H26.1129C18.3186 8 12 14.3186 12 22.1129V168.887C12 176.681 18.3186 183 26.1129 183H172.887C180.681 183 187 176.681 187 168.887V22.1129C187 14.3186 180.681 8 172.887 8Z" fill="white"/>
<path d="M172.887 8H26.1129C18.3186 8 12 14.3186 12 22.1129V168.887C12 176.681 18.3186 183 26.1129 183H172.887C180.681 183 187 176.681 187 168.887V22.1129C187 14.3186 180.681 8 172.887 8Z" fill="url(#paint0_linear_74_11242)" fill-opacity="0.2"/>
<path d="M172.887 8H26.1129C18.3186 8 12 14.3186 12 22.1129V168.887C12 176.681 18.3186 183 26.1129 183H172.887C180.681 183 187 176.681 187 168.887V22.1129C187 14.3186 180.681 8 172.887 8Z" stroke="#D5EAF6" stroke-width="15" stroke-linecap="round"/>
</g>
<path d="M45 128.002V65.502H145V128.002C145 130.752 142.75 133.002 140 133.002H50C47.25 133.002 45 130.752 45 128.002Z" fill="url(#paint1_linear_74_11242)"/>
<path d="M131.25 88.0003H73.75C73 88.0003 72.5 87.5002 72.5 86.7502V84.2503C72.5 83.5003 73 83.0002 73.75 83.0002H131.25C132 83.0002 132.5 83.5003 132.5 84.2503V86.7502C132.5 87.5002 132 88.0003 131.25 88.0003Z" fill="#0F94BF"/>
<path d="M131.25 100.502H73.75C73 100.502 72.5 100.002 72.5 99.2522V96.7522C72.5 96.0022 73 95.5022 73.75 95.5022H131.25C132 95.5022 132.5 96.0022 132.5 96.7522V99.2522C132.5 100.002 132 100.502 131.25 100.502Z" fill="#0F94BF"/>
<path d="M131.25 113.001H73.75C73 113.001 72.5 112.501 72.5 111.751V109.251C72.5 108.501 73 108.001 73.75 108.001H131.25C132 108.001 132.5 108.501 132.5 109.251V111.751C132.5 112.501 132 113.001 131.25 113.001Z" fill="#0F94BF"/>
<path d="M145 58.0001V65.5001H45V58.0001C45 55.25 47.25 53 50 53H140C142.75 53 145 55.25 145 58.0001Z" fill="url(#paint2_linear_74_11242)"/>
<path d="M58.7499 88.0003H61.2499C61.9999 88.0003 62.4999 87.5002 62.4999 86.7502V84.2503C62.4999 83.5003 61.9999 83.0002 61.2499 83.0002H58.7499C57.9999 83.0002 57.4999 83.5003 57.4999 84.2503V86.7502C57.4999 87.5002 57.9999 88.0003 58.7499 88.0003Z" fill="#0F94BF"/>
<path d="M58.7499 100.502H61.2499C61.9999 100.502 62.4999 100.002 62.4999 99.2522V96.7522C62.4999 96.0022 61.9999 95.5022 61.2499 95.5022H58.7499C57.9999 95.5022 57.4999 96.0022 57.4999 96.7522V99.2522C57.4999 100.002 57.9999 100.502 58.7499 100.502Z" fill="#0F94BF"/>
<path d="M58.7499 113.001H61.2499C61.9999 113.001 62.4999 112.501 62.4999 111.751V109.251C62.4999 108.501 61.9999 108.001 61.2499 108.001H58.7499C57.9999 108.001 57.4999 108.501 57.4999 109.251V111.751C57.4999 112.501 57.9999 113.001 58.7499 113.001Z" fill="#0F94BF"/>
<path d="M130 98.0004C113.5 98.0004 99.9998 111.5 99.9998 128C99.9998 129.751 100.25 131.251 100.5 133H140C142.75 133 145 130.75 145 128V102C140.5 99.5004 135.5 98.0004 130 98.0004Z" fill="url(#paint3_radial_74_11242)"/>
<path d="M130 153.002C143.807 153.002 155 141.81 155 128.003C155 114.195 143.807 103.003 130 103.003C116.193 103.003 105 114.195 105 128.003C105 141.81 116.193 153.002 130 153.002Z" fill="url(#paint4_linear_74_11242)"/>
<path d="M130 148.002C141.046 148.002 150 139.047 150 128.001C150 116.956 141.046 108.001 130 108.001C118.955 108.001 110 116.956 110 128.001C110 139.047 118.955 148.002 130 148.002Z" fill="url(#paint5_radial_74_11242)"/>
<path d="M137.25 142.251C136.75 142.501 136.25 142.251 136 141.751L129.25 128.501C129 128.001 129.25 127.501 129.75 127.251C130.25 127.001 130.75 127.251 131 127.751L137.75 141.001C138 141.251 137.75 142.001 137.25 142.251Z" fill="#D83B01"/>
<path d="M130 129.001C129.75 129.001 129.5 129.001 129.25 128.751C129 128.501 129 127.751 129.25 127.501L139.75 117.001C140 116.751 140.75 116.751 141 117.001C141.25 117.251 141.25 118.001 141 118.251L130.5 128.751C130.5 128.751 130.25 129.001 130 129.001Z" fill="#45494D"/>
<path d="M130 129.503C129.75 129.503 129.5 129.503 129.25 129.252L119.5 124.502C118.75 124.253 118.5 123.252 118.75 122.502C119 121.752 120 121.502 120.75 121.752L130.5 126.503C131.25 126.752 131.5 127.752 131.25 128.502C131.25 129.252 130.5 129.503 130 129.503Z" fill="#45494D"/>
<path d="M130 130.502C131.381 130.502 132.5 129.383 132.5 128.003C132.5 126.622 131.381 125.502 130 125.502C128.619 125.502 127.5 126.622 127.5 128.003C127.5 129.383 128.619 130.502 130 130.502Z" fill="#1E2021"/>
<defs>
<filter id="filter0_d_74_11242" x="0.5" y="0.5" width="198" height="198" filterUnits="userSpaceOnUse" color-interpolation-filters="sRGB">
<feFlood flood-opacity="0" result="BackgroundImageFix"/>
<feColorMatrix in="SourceAlpha" type="matrix" values="0 0 0 0 0 0 0 0 0 0 0 0 0 0 0 0 0 0 127 0" result="hardAlpha"/>
<feOffset dy="4"/>
<feGaussianBlur stdDeviation="2"/>
<feComposite in2="hardAlpha" operator="out"/>
<feColorMatrix type="matrix" values="0 0 0 0 0.8375 0 0 0 0 0.732812 0 0 0 0 0.732812 0 0 0 0.25 0"/>
<feBlend mode="normal" in2="BackgroundImageFix" result="effect1_dropShadow_74_11242"/>
<feBlend mode="normal" in="SourceGraphic" in2="effect1_dropShadow_74_11242" result="shape"/>
</filter>
<linearGradient id="paint0_linear_74_11242" x1="99.5" y1="16.4677" x2="99.5" y2="174.532" gradientUnits="userSpaceOnUse">
<stop stop-color="white"/>
<stop offset="0.472222" stop-color="#0D5176" stop-opacity="0.527778"/>
<stop offset="0.940972" stop-color="#12A6F7" stop-opacity="0.465278"/>
<stop offset="1" stop-opacity="0"/>
</linearGradient>
<linearGradient id="paint1_linear_74_11242" x1="67.6725" y1="57.9995" x2="114.815" y2="126.189" gradientUnits="userSpaceOnUse">
<stop stop-color="#7DD8F3"/>
<stop offset="1" stop-color="#45B0D0"/>
</linearGradient>
<linearGradient id="paint2_linear_74_11242" x1="47.0199" y1="49.95" x2="141.875" y2="69.2376" gradientUnits="userSpaceOnUse">
<stop stop-color="#0077D2"/>
<stop offset="1" stop-color="#0B59A2"/>
</linearGradient>
<radialGradient id="paint3_radial_74_11242" cx="0" cy="0" r="1" gradientUnits="userSpaceOnUse" gradientTransform="translate(129.522 128.906) scale(31.075 31.075)">
<stop/>
<stop offset="0.979" stop-opacity="0"/>
</radialGradient>
<linearGradient id="paint4_linear_74_11242" x1="112.323" y1="110.325" x2="147.677" y2="145.68" gradientUnits="userSpaceOnUse">
<stop stop-color="#889097"/>
<stop offset="1" stop-color="#64717C"/>
</linearGradient>
<radialGradient id="paint5_radial_74_11242" cx="0" cy="0" r="1" gradientUnits="userSpaceOnUse" gradientTransform="translate(129.87 108.467) scale(44.57)">
<stop stop-color="#FAFAFB"/>
<stop offset="1" stop-color="#C8CDD1"/>
</radialGradient>
</defs>
</svg>
