<svg width="199" height="199" viewBox="0 0 199 199" fill="none" xmlns="http://www.w3.org/2000/svg">
<g filter="url(#filter0_d_29_114)">
<path d="M172.887 8H26.1129C18.3186 8 12 14.3186 12 22.1129V168.887C12 176.681 18.3186 183 26.1129 183H172.887C180.681 183 187 176.681 187 168.887V22.1129C187 14.3186 180.681 8 172.887 8Z" fill="white"/>
<path d="M172.887 8H26.1129C18.3186 8 12 14.3186 12 22.1129V168.887C12 176.681 18.3186 183 26.1129 183H172.887C180.681 183 187 176.681 187 168.887V22.1129C187 14.3186 180.681 8 172.887 8Z" fill="url(#paint0_linear_29_114)" fill-opacity="0.2"/>
<path d="M172.887 8H26.1129C18.3186 8 12 14.3186 12 22.1129V168.887C12 176.681 18.3186 183 26.1129 183H172.887C180.681 183 187 176.681 187 168.887V22.1129C187 14.3186 180.681 8 172.887 8Z" stroke="#D5EAF6" stroke-width="15" stroke-linecap="round"/>
</g>
<g filter="url(#filter1_dd_29_114)">
<path d="M40 138V69H160V138C160 141.3 157.3 144 154 144H46C42.7 144 40 141.3 40 138Z" fill="url(#paint1_linear_29_114)"/>
<path d="M160 54V69H40V54C40 50.7 42.7 48 46 48H154C157.3 48 160 50.7 160 54Z" fill="url(#paint2_linear_29_114)"/>
<path d="M77.5 63H152.5C153.328 63 154 62.328 154 61.5V55.5C154 54.672 153.328 54 152.5 54H77.5C76.672 54 76 54.672 76 55.5V61.5C76 62.328 76.672 63 77.5 63Z" fill="url(#paint3_linear_29_114)"/>
<path d="M50.5 63C52.9853 63 55 60.9853 55 58.5C55 56.0148 52.9853 54 50.5 54C48.0148 54 46 56.0148 46 58.5C46 60.9853 48.0148 63 50.5 63Z" fill="url(#paint4_linear_29_114)"/>
<path d="M65.4906 63C67.9759 63 69.9906 60.9853 69.9906 58.5C69.9906 56.0148 67.9759 54 65.4906 54C63.0054 54 60.9906 56.0148 60.9906 58.5C60.9906 60.9853 63.0054 63 65.4906 63Z" fill="url(#paint5_linear_29_114)"/>
<path d="M72 106.067C72 90.7877 84.3877 78.4 99.6667 78.4C114.946 78.4 127.333 90.7877 127.333 106.067C127.333 121.346 114.946 133.733 99.6667 133.733C84.3877 133.733 72 121.346 72 106.067Z" fill="#3079D6" fill-opacity="0.51"/>
<path d="M123.183 106.067C123.183 101.586 122.252 97.3641 120.639 93.6167H124.349C123.868 92.6636 123.347 91.7353 122.761 90.85H119.286C115.074 83.3579 107.857 78.4 99.6667 78.4C91.4759 78.4 84.2591 83.3579 80.0469 90.85H76.5719C75.9868 91.7353 75.4653 92.6636 74.9839 93.6167H78.694C77.081 97.3641 76.15 101.586 76.15 106.067C76.15 110.547 77.081 114.769 78.694 118.517H74.9839C75.4653 119.47 75.9868 120.398 76.5719 121.283H80.0469C84.2591 128.775 91.4759 133.733 99.6667 133.733C107.857 133.733 115.074 128.775 119.286 121.283H122.761C123.347 120.398 123.868 119.47 124.349 118.517H120.639C122.252 114.769 123.183 110.547 123.183 106.067ZM120.417 106.067C120.417 110.604 119.383 114.849 117.61 118.517H109.596C110.347 114.598 110.733 110.29 110.733 106.067C110.733 101.843 110.347 97.5356 109.596 93.6167H117.61C119.383 97.2839 120.417 101.529 120.417 106.067ZM99.6667 130.967C97.3288 130.967 94.8375 127.319 93.201 121.283H106.134C104.496 127.319 102.005 130.967 99.6667 130.967ZM92.5397 118.517C91.8107 114.938 91.3667 110.73 91.3667 106.067C91.3667 101.403 91.8107 97.1954 92.5397 93.6167H106.794C107.523 97.1954 107.967 101.403 107.967 106.067C107.967 110.73 107.523 114.938 106.794 118.517H92.5397ZM99.6667 81.1667C102.005 81.1667 104.496 84.8145 106.132 90.85H93.1996C94.8375 84.8145 97.3288 81.1667 99.6667 81.1667ZM116.055 90.85H108.985C108.119 87.3931 106.939 84.3705 105.455 82.1724C109.714 83.6608 113.402 86.7443 116.055 90.85ZM93.8788 82.1724C92.3945 84.3719 91.2145 87.3931 90.3485 90.85H83.2783C85.9316 86.7443 89.6195 83.6608 93.8788 82.1724ZM78.9167 106.067C78.9167 101.529 79.95 97.2839 81.7235 93.6167H89.7371C88.986 97.5356 88.6 101.843 88.6 106.067C88.6 110.29 88.986 114.598 89.7371 118.517H81.7235C79.95 114.849 78.9167 110.604 78.9167 106.067ZM83.2783 121.283H90.3485C91.2145 124.74 92.3945 127.763 93.8788 129.961C89.6195 128.473 85.9316 125.389 83.2783 121.283ZM105.455 129.961C106.939 127.761 108.119 124.74 108.985 121.283H116.055C113.402 125.389 109.714 128.473 105.455 129.961Z" fill="#D9D9D9" fill-opacity="0.3"/>
<path d="M125.029 99.15H121.377C120.893 99.15 120.475 99.4889 120.375 99.962L119.724 103.063L118.92 99.9191C118.805 99.4668 118.397 99.15 117.929 99.15H114.604C114.136 99.15 113.728 99.4668 113.612 99.9205L112.808 103.065L112.157 99.9634C112.059 99.4889 111.641 99.15 111.157 99.15H104.777C104.293 99.15 103.875 99.4889 103.775 99.962L103.124 103.063L102.32 99.9191C102.205 99.4668 101.797 99.15 101.329 99.15H98.0039C97.5363 99.15 97.1283 99.4668 97.0121 99.9205L96.2083 103.065L95.5568 99.9634C95.4586 99.4889 95.0408 99.15 94.5566 99.15H88.1767C87.6925 99.15 87.2748 99.4889 87.1752 99.962L86.5236 103.063L85.7199 99.9191C85.6051 99.4668 85.197 99.15 84.7294 99.15H81.4039C80.9363 99.15 80.5283 99.4668 80.4121 99.9205L79.6097 103.065L78.9582 99.962C78.8586 99.4889 78.4408 99.15 77.9566 99.15H74.3046C73.6393 99.15 73.1509 99.7753 73.3128 100.421L76.2593 112.209C76.3727 112.664 76.7822 112.983 77.2511 112.983H81.1992C81.6626 112.983 82.0665 112.678 82.1855 112.231C82.4511 111.242 82.9021 109.557 83.0653 108.938C83.2285 109.557 83.6795 111.242 83.9451 112.231C84.0668 112.678 84.4708 112.983 84.9342 112.983H88.8822C89.3512 112.983 89.7606 112.664 89.8741 112.209L91.3667 106.24L92.8593 112.209C92.9727 112.664 93.3822 112.983 93.8511 112.983H97.7992C98.2626 112.983 98.6665 112.678 98.7855 112.231C99.0511 111.242 99.5021 109.557 99.6653 108.938C99.8285 109.557 100.279 111.242 100.545 112.231C100.667 112.678 101.071 112.983 101.534 112.983H105.482C105.951 112.983 106.361 112.664 106.474 112.209L107.967 106.24L109.459 112.209C109.573 112.664 109.982 112.983 110.451 112.983H114.399C114.863 112.983 115.267 112.678 115.385 112.231C115.651 111.242 116.102 109.557 116.265 108.938C116.429 109.557 116.879 111.242 117.145 112.231C117.267 112.678 117.671 112.983 118.134 112.983H122.082C122.551 112.983 122.961 112.664 123.074 112.209L126.021 100.421C126.182 99.7753 125.694 99.15 125.029 99.15Z" fill="white"/>
<path d="M124.502 99.8417H121.711C121.36 99.8417 121.056 100.088 120.984 100.432L119.79 106.116L118.331 100.401C118.246 100.071 117.95 99.8417 117.61 99.8417H114.923C114.585 99.8417 114.287 100.071 114.203 100.401L112.743 106.116L111.548 100.432C111.476 100.088 111.172 99.8417 110.821 99.8417H105.109C104.757 99.8417 104.453 100.088 104.381 100.432L103.187 106.116L101.728 100.401C101.643 100.071 101.347 99.8417 101.007 99.8417H98.3207C97.9818 99.8417 97.6844 100.071 97.6 100.401L96.1406 106.116L94.9454 100.432C94.8734 100.088 94.5691 99.8417 94.2177 99.8417H88.506C88.1546 99.8417 87.8503 100.088 87.7783 100.432L86.5845 106.116L85.1251 100.401C85.0407 100.071 84.7447 99.8417 84.4044 99.8417H81.7179C81.379 99.8417 81.0816 100.071 80.9972 100.401L79.5378 106.116L78.3495 100.432C78.2776 100.088 77.9746 99.8417 77.6233 99.8417H74.8317C74.3489 99.8417 73.9934 100.295 74.111 100.766L76.8514 111.729C76.9344 112.059 77.2318 112.292 77.5721 112.292H80.8824C81.2186 112.292 81.5118 112.069 81.599 111.744C81.9337 110.493 82.9616 106.649 83.0639 106.119C83.1677 106.649 84.1941 110.495 84.5289 111.744C84.616 112.069 84.9093 112.292 85.2454 112.292H88.5558C88.8974 112.292 89.1935 112.059 89.2765 111.729L91.3667 103.387L93.4528 111.729C93.5358 112.059 93.8332 112.292 94.1735 112.292H97.4838C97.8199 112.292 98.1132 112.069 98.2004 111.744C98.5351 110.493 99.5629 106.649 99.6653 106.119C99.7691 106.649 100.795 110.495 101.13 111.744C101.217 112.069 101.511 112.292 101.847 112.292H105.157C105.499 112.292 105.795 112.059 105.878 111.729L107.967 103.387L110.053 111.729C110.136 112.059 110.433 112.292 110.773 112.292H114.084C114.42 112.292 114.713 112.069 114.8 111.744C115.135 110.493 116.163 106.649 116.265 106.119C116.369 106.649 117.395 110.495 117.73 111.744C117.817 112.069 118.111 112.292 118.447 112.292H121.757C122.099 112.292 122.395 112.059 122.478 111.729L125.218 100.766C125.34 100.295 124.984 99.8417 124.502 99.8417Z" fill="white"/>
<path d="M105.069 100.533L103.254 109.169L101.05 100.533H98.2833L96.0797 109.169L94.2648 100.533H91.3667L94.1333 111.6H97.5239C97.5239 111.6 99.6169 103.804 99.6667 103.3C99.7165 103.804 101.809 111.6 101.809 111.6H105.2L107.967 100.533H105.069Z" fill="white"/>
<path d="M88.4686 100.533L86.6537 109.169L84.45 100.533H81.6833L79.4797 109.169L77.6648 100.533H74.7667L77.5333 111.6H80.9239C80.9239 111.6 83.0169 103.804 83.0667 103.3C83.1165 103.804 85.2095 111.6 85.2095 111.6H88.6L91.3667 100.533H88.4686Z" fill="white"/>
<path d="M121.669 100.533L119.854 109.169L117.65 100.533H114.883L112.68 109.169L110.865 100.533H107.967L110.733 111.6H114.124C114.124 111.6 116.217 103.804 116.267 103.3C116.316 103.804 118.409 111.6 118.409 111.6H121.8L124.567 100.533H121.669Z" fill="white"/>
</g>
<defs>
<filter id="filter0_d_29_114" x="0.5" y="0.5" width="198" height="198" filterUnits="userSpaceOnUse" color-interpolation-filters="sRGB">
<feFlood flood-opacity="0" result="BackgroundImageFix"/>
<feColorMatrix in="SourceAlpha" type="matrix" values="0 0 0 0 0 0 0 0 0 0 0 0 0 0 0 0 0 0 127 0" result="hardAlpha"/>
<feOffset dy="4"/>
<feGaussianBlur stdDeviation="2"/>
<feComposite in2="hardAlpha" operator="out"/>
<feColorMatrix type="matrix" values="0 0 0 0 0.8375 0 0 0 0 0.732812 0 0 0 0 0.732812 0 0 0 0.25 0"/>
<feBlend mode="normal" in2="BackgroundImageFix" result="effect1_dropShadow_29_114"/>
<feBlend mode="normal" in="SourceGraphic" in2="effect1_dropShadow_29_114" result="shape"/>
</filter>
<filter id="filter1_dd_29_114" x="36" y="48" width="128" height="104" filterUnits="userSpaceOnUse" color-interpolation-filters="sRGB">
<feFlood flood-opacity="0" result="BackgroundImageFix"/>
<feColorMatrix in="SourceAlpha" type="matrix" values="0 0 0 0 0 0 0 0 0 0 0 0 0 0 0 0 0 0 127 0" result="hardAlpha"/>
<feOffset dy="4"/>
<feGaussianBlur stdDeviation="2"/>
<feComposite in2="hardAlpha" operator="out"/>
<feColorMatrix type="matrix" values="0 0 0 0 1 0 0 0 0 1 0 0 0 0 1 0 0 0 0.25 0"/>
<feBlend mode="normal" in2="BackgroundImageFix" result="effect1_dropShadow_29_114"/>
<feColorMatrix in="SourceAlpha" type="matrix" values="0 0 0 0 0 0 0 0 0 0 0 0 0 0 0 0 0 0 127 0" result="hardAlpha"/>
<feOffset dy="4"/>
<feGaussianBlur stdDeviation="2"/>
<feComposite in2="hardAlpha" operator="out"/>
<feColorMatrix type="matrix" values="0 0 0 0 1 0 0 0 0 1 0 0 0 0 1 0 0 0 1 0"/>
<feBlend mode="normal" in2="effect1_dropShadow_29_114" result="effect2_dropShadow_29_114"/>
<feBlend mode="normal" in="SourceGraphic" in2="effect2_dropShadow_29_114" result="shape"/>
</filter>
<linearGradient id="paint0_linear_29_114" x1="99.5" y1="16.4677" x2="99.5" y2="174.532" gradientUnits="userSpaceOnUse">
<stop stop-color="white"/>
<stop offset="0.472222" stop-color="#0D5176" stop-opacity="0.527778"/>
<stop offset="0.940972" stop-color="#12A6F7" stop-opacity="0.465278"/>
<stop offset="1" stop-opacity="0"/>
</linearGradient>
<linearGradient id="paint1_linear_29_114" x1="68.44" y1="34.9171" x2="142.402" y2="118.501" gradientUnits="userSpaceOnUse">
<stop stop-color="#7DD8F3"/>
<stop offset="1" stop-color="#45B0D0"/>
</linearGradient>
<linearGradient id="paint2_linear_29_114" x1="41.842" y1="44.448" x2="161.325" y2="49.7624" gradientUnits="userSpaceOnUse">
<stop stop-color="#0077D2"/>
<stop offset="1" stop-color="#0B59A2"/>
</linearGradient>
<linearGradient id="paint3_linear_29_114" x1="40" y1="96" x2="160" y2="96" gradientUnits="userSpaceOnUse">
<stop stop-color="#7DD8F3"/>
<stop offset="1" stop-color="#45B0D0"/>
</linearGradient>
<linearGradient id="paint4_linear_29_114" x1="70.04" y1="61.312" x2="107.154" y2="128.42" gradientUnits="userSpaceOnUse">
<stop stop-color="#75DAFF"/>
<stop offset="1" stop-color="#49BEF1"/>
</linearGradient>
<linearGradient id="paint5_linear_29_114" x1="70.04" y1="61.312" x2="107.154" y2="128.42" gradientUnits="userSpaceOnUse">
<stop stop-color="#75DAFF"/>
<stop offset="1" stop-color="#49BEF1"/>
</linearGradient>
</defs>
</svg>
