<svg width="199" height="199" viewBox="0 0 199 199" fill="none" xmlns="http://www.w3.org/2000/svg">
<g filter="url(#filter0_d_62_9471)">
<path d="M172.887 8H26.1129C18.3186 8 12 14.3186 12 22.1129V168.887C12 176.681 18.3186 183 26.1129 183H172.887C180.681 183 187 176.681 187 168.887V22.1129C187 14.3186 180.681 8 172.887 8Z" fill="white"/>
<path d="M172.887 8H26.1129C18.3186 8 12 14.3186 12 22.1129V168.887C12 176.681 18.3186 183 26.1129 183H172.887C180.681 183 187 176.681 187 168.887V22.1129C187 14.3186 180.681 8 172.887 8Z" fill="url(#paint0_linear_62_9471)" fill-opacity="0.2"/>
<path d="M172.887 8H26.1129C18.3186 8 12 14.3186 12 22.1129V168.887C12 176.681 18.3186 183 26.1129 183H172.887C180.681 183 187 176.681 187 168.887V22.1129C187 14.3186 180.681 8 172.887 8Z" stroke="#D5EAF6" stroke-width="15"/>
</g>
<g filter="url(#filter1_bd_62_9471)">
<path d="M37 131.345V64.3804H153.46V131.345C153.46 134.547 150.839 137.168 147.637 137.168H42.823C39.6203 137.168 37 134.547 37 131.345Z" fill="url(#paint1_linear_62_9471)"/>
<path d="M153.46 49.823V64.3804H37V49.823C37 46.6203 39.6203 44 42.823 44H147.637C150.839 44 153.46 46.6203 153.46 49.823Z" fill="url(#paint2_linear_62_9471)"/>
<path d="M73.3936 58.5575H146.181C146.984 58.5575 147.637 57.9053 147.637 57.1017V51.2787C147.637 50.4752 146.984 49.823 146.181 49.823H73.3936C72.5901 49.823 71.9379 50.4752 71.9379 51.2787V57.1017C71.9379 57.9053 72.5901 58.5575 73.3936 58.5575Z" fill="url(#paint3_linear_62_9471)"/>
<path d="M47.1902 58.5575C49.6022 58.5575 51.5575 56.6022 51.5575 54.1902C51.5575 51.7783 49.6022 49.823 47.1902 49.823C44.7783 49.823 42.823 51.7783 42.823 54.1902C42.823 56.6022 44.7783 58.5575 47.1902 58.5575Z" fill="url(#paint4_linear_62_9471)"/>
<path d="M61.7386 58.5575C64.1506 58.5575 66.1058 56.6022 66.1058 54.1902C66.1058 51.7783 64.1506 49.823 61.7386 49.823C59.3267 49.823 57.3713 51.7783 57.3713 54.1902C57.3713 56.6022 59.3267 58.5575 61.7386 58.5575Z" fill="url(#paint5_linear_62_9471)"/>
<path d="M138.553 73.5031H51.9068C49.2473 73.5031 47.0932 74.9337 47.0932 76.7V124.654C47.0932 126.42 49.2473 127.851 51.9068 127.851H138.553C141.212 127.851 143.366 126.42 143.366 124.654V76.7C143.366 74.9337 141.212 73.5031 138.553 73.5031Z" fill="url(#paint6_linear_62_9471)" fill-opacity="0.4"/>
<path d="M80.323 90.5839H133.429C134.2 90.5839 134.826 91.0186 134.826 91.5543V93.4953C134.826 94.0311 134.2 94.4658 133.429 94.4658H80.323C79.5516 94.4658 78.9255 94.0311 78.9255 93.4953V91.5543C78.9255 91.0186 79.5516 90.5839 80.323 90.5839Z" fill="#35C1F1"/>
<path d="M79.7407 101.453H110.719C111.169 101.453 111.534 101.801 111.534 102.23V103.783C111.534 104.211 111.169 104.559 110.719 104.559H79.7407C79.2907 104.559 78.9255 104.211 78.9255 103.783V102.23C78.9255 101.801 79.2907 101.453 79.7407 101.453Z" fill="#35C1F1"/>
<path d="M62.0069 100.567H66.8594C67.3058 100.567 67.6681 100.93 67.6681 101.376V102.994C67.6681 103.44 67.3058 103.802 66.8594 103.802H62.0069C61.5605 103.802 61.1982 103.44 61.1982 102.994V101.376C61.1982 100.93 61.5605 100.567 62.0069 100.567Z" fill="white"/>
<path d="M62.0069 110.272H66.8594C67.3058 110.272 67.6681 110.635 67.6681 111.081V112.699C67.6681 113.145 67.3058 113.507 66.8594 113.507H62.0069C61.5605 113.507 61.1982 113.145 61.1982 112.699V111.081C61.1982 110.635 61.5605 110.272 62.0069 110.272Z" fill="white"/>
<path d="M79.7342 112.323H110.467C110.913 112.323 111.275 112.685 111.275 113.132V114.749C111.275 115.196 110.913 115.558 110.467 115.558H79.7342C79.2878 115.558 78.9255 115.196 78.9255 114.749V113.132C78.9255 112.685 79.2878 112.323 79.7342 112.323Z" fill="#35C1F1"/>
<path d="M63.2895 95.241L58.1993 90.1508C57.8839 89.8354 57.8839 89.3226 58.1993 89.0072L59.3429 87.8636C59.6583 87.5482 60.171 87.5482 60.4864 87.8636L64.4331 91.8103L73.187 83.0564C73.5024 82.741 74.0152 82.741 74.3306 83.0564L75.4741 84.2C75.7895 84.5154 75.7895 85.0282 75.4741 85.3436L65.5767 95.241C64.9459 95.8718 63.9204 95.8718 63.2895 95.241Z" fill="white"/>
<path d="M156.518 148.996H120.898C117.871 148.996 115.416 146.614 115.416 143.675V109.104C115.416 106.165 117.871 103.783 120.898 103.783H156.518C159.546 103.783 162 106.165 162 109.104V143.679C162 146.614 159.546 148.996 156.518 148.996Z" fill="url(#paint7_linear_62_9471)"/>
<path d="M152.3 141.305H124.831C122.6 141.305 120.791 139.365 120.791 136.973C120.791 134.581 122.6 132.641 124.831 132.641H152.3C154.531 132.641 156.34 134.581 156.34 136.973C156.34 139.365 154.531 141.305 152.3 141.305Z" fill="url(#paint8_linear_62_9471)"/>
<path d="M125.639 139.572C126.977 139.572 128.063 138.408 128.063 136.973C128.063 135.537 126.977 134.373 125.639 134.373C124.3 134.373 123.215 135.537 123.215 136.973C123.215 138.408 124.3 139.572 125.639 139.572Z" fill="url(#paint9_linear_62_9471)"/>
<path d="M132.102 139.572C133.441 139.572 134.526 138.408 134.526 136.973C134.526 135.537 133.441 134.373 132.102 134.373C130.764 134.373 129.678 135.537 129.678 136.973C129.678 138.408 130.764 139.572 132.102 139.572Z" fill="url(#paint10_linear_62_9471)"/>
<path d="M138.566 139.572C139.904 139.572 140.989 138.408 140.989 136.973C140.989 135.537 139.904 134.373 138.566 134.373C137.227 134.373 136.142 135.537 136.142 136.973C136.142 138.408 137.227 139.572 138.566 139.572Z" fill="url(#paint11_linear_62_9471)"/>
<path d="M145.029 139.572C146.368 139.572 147.453 138.408 147.453 136.973C147.453 135.537 146.368 134.373 145.029 134.373C143.69 134.373 142.605 135.537 142.605 136.973C142.605 138.408 143.69 139.572 145.029 139.572Z" fill="url(#paint12_linear_62_9471)"/>
<path d="M151.492 139.572C152.831 139.572 153.916 138.408 153.916 136.973C153.916 135.537 152.831 134.373 151.492 134.373C150.154 134.373 149.069 135.537 149.069 136.973C149.069 138.408 150.154 139.572 151.492 139.572Z" fill="url(#paint13_linear_62_9471)"/>
<path d="M128.87 131.486V113C128.87 112.365 129.355 111.845 129.947 111.845H147.183C147.776 111.845 148.261 112.365 148.261 113V131.485C148.261 132.121 147.776 132.641 147.184 132.641H129.947C129.355 132.641 128.87 132.121 128.87 131.486Z" fill="url(#paint14_linear_62_9471)"/>
<path d="M141.258 114.733H135.872V111.845H141.258V114.733Z" fill="#FFF8E6"/>
<path d="M148.261 119.643H143.413C142.522 119.643 141.797 120.421 141.797 121.376V123.109C141.797 124.065 142.522 124.842 143.413 124.842H148.261V119.643Z" fill="black"/>
<path d="M148.261 120.077H143.413C142.745 120.077 142.201 120.66 142.201 121.376V123.109C142.201 123.826 142.745 124.409 143.413 124.409H148.261V120.077Z" fill="black"/>
<path d="M151.492 117.57V120.51H143.413C142.967 120.51 142.605 120.898 142.605 121.376V123.109C142.605 123.588 142.967 123.976 143.413 123.976H151.492V126.916C151.492 127.384 152.02 127.618 152.328 127.287L156.338 122.985C156.72 122.576 156.72 121.91 156.338 121.5L152.328 117.199C152.02 116.868 151.492 117.102 151.492 117.57Z" fill="#50E6FF"/>
</g>
<defs>
<filter id="filter0_d_62_9471" x="0.5" y="0.5" width="198" height="198" filterUnits="userSpaceOnUse" color-interpolation-filters="sRGB">
<feFlood flood-opacity="0" result="BackgroundImageFix"/>
<feColorMatrix in="SourceAlpha" type="matrix" values="0 0 0 0 0 0 0 0 0 0 0 0 0 0 0 0 0 0 127 0" result="hardAlpha"/>
<feOffset dy="4"/>
<feGaussianBlur stdDeviation="2"/>
<feComposite in2="hardAlpha" operator="out"/>
<feColorMatrix type="matrix" values="0 0 0 0 0.8375 0 0 0 0 0.732812 0 0 0 0 0.732812 0 0 0 0.25 0"/>
<feBlend mode="normal" in2="BackgroundImageFix" result="effect1_dropShadow_62_9471"/>
<feBlend mode="normal" in="SourceGraphic" in2="effect1_dropShadow_62_9471" result="shape"/>
</filter>
<filter id="filter1_bd_62_9471" x="33" y="40" width="133" height="116.996" filterUnits="userSpaceOnUse" color-interpolation-filters="sRGB">
<feFlood flood-opacity="0" result="BackgroundImageFix"/>
<feGaussianBlur in="BackgroundImageFix" stdDeviation="2"/>
<feComposite in2="SourceAlpha" operator="in" result="effect1_backgroundBlur_62_9471"/>
<feColorMatrix in="SourceAlpha" type="matrix" values="0 0 0 0 0 0 0 0 0 0 0 0 0 0 0 0 0 0 127 0" result="hardAlpha"/>
<feOffset dy="4"/>
<feGaussianBlur stdDeviation="2"/>
<feComposite in2="hardAlpha" operator="out"/>
<feColorMatrix type="matrix" values="0 0 0 0 1 0 0 0 0 1 0 0 0 0 1 0 0 0 0.25 0"/>
<feBlend mode="normal" in2="effect1_backgroundBlur_62_9471" result="effect2_dropShadow_62_9471"/>
<feBlend mode="normal" in="SourceGraphic" in2="effect2_dropShadow_62_9471" result="shape"/>
</filter>
<linearGradient id="paint0_linear_62_9471" x1="99.5" y1="16.4677" x2="99.5" y2="174.532" gradientUnits="userSpaceOnUse">
<stop stop-color="white"/>
<stop offset="0.472222" stop-color="#0D5176" stop-opacity="0.527778"/>
<stop offset="0.940972" stop-color="#12A6F7" stop-opacity="0.465278"/>
<stop offset="1" stop-opacity="0"/>
</linearGradient>
<linearGradient id="paint1_linear_62_9471" x1="66.625" y1="29.6911" x2="147.904" y2="117.173" gradientUnits="userSpaceOnUse">
<stop stop-color="#7DD8F3"/>
<stop offset="1" stop-color="#45B0D0"/>
</linearGradient>
<linearGradient id="paint2_linear_62_9471" x1="38.9188" y1="40.1151" x2="163.403" y2="45.3885" gradientUnits="userSpaceOnUse">
<stop stop-color="#0077D2"/>
<stop offset="1" stop-color="#0B59A2"/>
</linearGradient>
<linearGradient id="paint3_linear_62_9471" x1="37" y1="96.4982" x2="162" y2="96.4982" gradientUnits="userSpaceOnUse">
<stop stop-color="#7DD8F3"/>
<stop offset="1" stop-color="#45B0D0"/>
</linearGradient>
<linearGradient id="paint4_linear_62_9471" x1="68.2917" y1="58.5595" x2="109.914" y2="130.237" gradientUnits="userSpaceOnUse">
<stop stop-color="#75DAFF"/>
<stop offset="1" stop-color="#49BEF1"/>
</linearGradient>
<linearGradient id="paint5_linear_62_9471" x1="68.2917" y1="58.5595" x2="109.914" y2="130.237" gradientUnits="userSpaceOnUse">
<stop stop-color="#75DAFF"/>
<stop offset="1" stop-color="#49BEF1"/>
</linearGradient>
<linearGradient id="paint6_linear_62_9471" x1="91.9062" y1="43.4596" x2="106.824" y2="150.136" gradientUnits="userSpaceOnUse">
<stop stop-color="#0D61A9"/>
<stop offset="1" stop-color="#16528C"/>
</linearGradient>
<linearGradient id="paint7_linear_62_9471" x1="91.8035" y1="59.8383" x2="113.079" y2="203.528" gradientUnits="userSpaceOnUse">
<stop stop-color="#FCFCFC"/>
<stop offset="1" stop-color="#C3C9CD"/>
</linearGradient>
<linearGradient id="paint8_linear_62_9471" x1="99.5" y1="169.103" x2="99.5" y2="64.5373" gradientUnits="userSpaceOnUse">
<stop stop-color="#737B80"/>
<stop offset="1" stop-color="#575C61"/>
</linearGradient>
<linearGradient id="paint9_linear_62_9471" x1="143.042" y1="133.072" x2="70.5099" y2="46.7216" gradientUnits="userSpaceOnUse">
<stop stop-color="white"/>
<stop offset="0.242" stop-color="#F2F2F2"/>
<stop offset="1" stop-color="#CCCCCC"/>
</linearGradient>
<linearGradient id="paint10_linear_62_9471" x1="143.042" y1="133.072" x2="70.5099" y2="46.7216" gradientUnits="userSpaceOnUse">
<stop stop-color="white"/>
<stop offset="0.242" stop-color="#F2F2F2"/>
<stop offset="1" stop-color="#CCCCCC"/>
</linearGradient>
<linearGradient id="paint11_linear_62_9471" x1="143.042" y1="133.072" x2="70.5099" y2="46.7216" gradientUnits="userSpaceOnUse">
<stop stop-color="white"/>
<stop offset="0.242" stop-color="#F2F2F2"/>
<stop offset="1" stop-color="#CCCCCC"/>
</linearGradient>
<linearGradient id="paint12_linear_62_9471" x1="143.042" y1="133.072" x2="70.5099" y2="46.7216" gradientUnits="userSpaceOnUse">
<stop stop-color="white"/>
<stop offset="0.242" stop-color="#F2F2F2"/>
<stop offset="1" stop-color="#CCCCCC"/>
</linearGradient>
<linearGradient id="paint13_linear_62_9471" x1="143.042" y1="133.072" x2="70.5099" y2="46.7216" gradientUnits="userSpaceOnUse">
<stop stop-color="white"/>
<stop offset="0.242" stop-color="#F2F2F2"/>
<stop offset="1" stop-color="#CCCCCC"/>
</linearGradient>
<linearGradient id="paint14_linear_62_9471" x1="42.6458" y1="27.3537" x2="109.006" y2="141.736" gradientUnits="userSpaceOnUse">
<stop stop-color="#FFD869"/>
<stop offset="1" stop-color="#FEC52B"/>
</linearGradient>
</defs>
</svg>
