<svg width="191" height="191" viewBox="0 0 191 191" fill="none" xmlns="http://www.w3.org/2000/svg">
<path d="M168.887 8H22.1129C14.3186 8 8 14.3186 8 22.1129V168.887C8 176.681 14.3186 183 22.1129 183H168.887C176.681 183 183 176.681 183 168.887V22.1129C183 14.3186 176.681 8 168.887 8Z" fill="white"/>
<path d="M168.887 8H22.1129C14.3186 8 8 14.3186 8 22.1129V168.887C8 176.681 14.3186 183 22.1129 183H168.887C176.681 183 183 176.681 183 168.887V22.1129C183 14.3186 176.681 8 168.887 8Z" fill="url(#paint0_linear_70_9)" fill-opacity="0.2"/>
<path d="M168.887 8H22.1129C14.3186 8 8 14.3186 8 22.1129V168.887C8 176.681 14.3186 183 22.1129 183H168.887C176.681 183 183 176.681 183 168.887V22.1129C183 14.3186 176.681 8 168.887 8Z" stroke="#D5EAF6" stroke-width="15"/>
<path opacity="0.3" d="M94.8929 71.2256V86.4239H94.7964C92.8692 84.212 90.4621 83.4422 87.6692 83.4422C81.945 83.4422 77.6316 87.3297 76.1191 92.4668C74.3927 86.8062 69.9385 83.3345 63.3407 83.3345C57.979 83.3345 53.7491 85.7388 51.5376 89.6545V84.7868H40.4569V79.5034H52.5495V71.2282H30.5811V108.363H40.4569V92.7542H50.3015C49.9984 93.9544 49.8469 95.1868 49.8503 96.4235C49.8503 104.168 55.7753 109.613 63.3381 109.613C69.6986 109.613 73.892 106.626 76.106 101.194H67.6436C66.4962 102.828 65.6277 103.311 63.3407 103.311C60.6859 103.311 58.3962 100.999 58.3962 98.2608H75.634C76.3772 104.411 81.1756 109.715 87.763 109.715C90.603 109.715 93.203 108.319 94.7938 105.964H94.8903V108.368H103.6V71.2282H94.8929V71.2256ZM58.67 92.8645C59.2229 90.5038 61.0536 88.9642 63.3381 88.9642C65.8572 88.9642 67.5967 90.4576 68.053 92.8645H58.6726H58.67ZM89.6094 102.713C86.4018 102.713 84.4068 99.7259 84.4068 96.6057C84.4068 93.2725 86.141 90.0702 89.6094 90.0702C93.2082 90.0702 94.6425 93.2751 94.6425 96.6083C94.6425 99.7644 93.1221 102.713 89.6094 102.713ZM147.968 109.715L142.726 103.734L137.531 109.715H126.596L137.283 97.5013L126.596 85.282H137.873L143.166 91.2172L148.262 85.282H159.142L148.51 97.4499L159.291 109.715H147.968ZM105.603 109.715V71.2256H126.596V79.8037H114.496V85.282H126.596V93.5368H114.496V101.114H126.596V109.715H105.603ZM139.609 118.717H136.261V116.685H145.414V118.717H142.066V127.677H139.609V118.717ZM146.697 116.685H150.155L152.769 124.244H152.8L155.272 116.685H158.73V127.677H156.43V119.887H156.399L153.66 127.677H151.767L149.029 119.964H148.998V127.677H146.697V116.685Z" fill="black" fill-opacity="0.5"/>
<path d="M94.8929 67.8389V83.3411H94.7964C92.8692 81.085 90.4622 80.2998 87.6692 80.2998C81.945 80.2998 77.6316 84.2651 76.1191 89.5049C74.3927 83.7311 69.9385 80.1899 63.3407 80.1899C57.979 80.1899 53.7491 82.6423 51.5376 86.6363V81.6713H40.4569V76.2823H52.5495V67.8415H30.5811V105.719H40.4569V89.798H50.3015C49.9984 91.0223 49.8469 92.2793 49.8503 93.5408C49.8503 101.44 55.7753 106.994 63.3381 106.994C69.6986 106.994 73.892 103.947 76.106 98.4063H67.6436C66.4962 100.074 65.6277 100.566 63.3407 100.566C60.6859 100.566 58.3962 98.2074 58.3962 95.4148H75.634C76.3772 101.688 81.1756 107.098 87.763 107.098C90.603 107.098 93.203 105.675 94.7938 103.272H94.8903V105.724H103.6V67.8415H94.8929V67.8389ZM58.67 89.9106C59.2229 87.5027 61.0536 85.9323 63.3381 85.9323C65.8572 85.9323 67.5967 87.4555 68.053 89.9106H58.6726H58.67ZM89.6094 99.9558C86.4017 99.9558 84.4068 96.9092 84.4068 93.7266C84.4068 90.3267 86.141 87.0603 89.6094 87.0603C93.2082 87.0603 94.6425 90.3293 94.6425 93.7292C94.6425 96.9485 93.1221 99.9558 89.6094 99.9558ZM147.968 107.098L142.726 100.997L137.531 107.098H126.596L137.283 94.64L126.596 82.1764H137.873L143.166 88.2303L148.262 82.1764H159.142L148.51 94.5877L159.291 107.098H147.968ZM105.603 107.098V67.8389H126.596V76.5885H114.496V82.1764H126.596V90.5963H114.496V98.3252H126.596V107.098H105.603ZM139.609 116.28H136.261V114.207H145.414V116.28H142.066V125.42H139.609V116.28ZM146.698 114.207H150.155L152.769 121.918H152.8L155.272 114.207H158.73V125.42H156.43V117.473H156.399L153.66 125.42H151.767L149.029 117.552H148.998V125.42H146.698V114.207Z" fill="url(#paint1_linear_70_9)"/>
<defs>
<linearGradient id="paint0_linear_70_9" x1="95.5" y1="16.4677" x2="95.5" y2="174.532" gradientUnits="userSpaceOnUse">
<stop stop-color="#FEFEFE"/>
<stop offset="0.472222" stop-color="#0D5176" stop-opacity="0.527778"/>
<stop offset="0.940972" stop-color="#12A6F7" stop-opacity="0.465278"/>
<stop offset="1" stop-opacity="0"/>
</linearGradient>
<linearGradient id="paint1_linear_70_9" x1="30.5811" y1="96.6292" x2="159.291" y2="96.6292" gradientUnits="userSpaceOnUse">
<stop stop-color="#33BEF0"/>
<stop offset="1" stop-color="#0A85D9"/>
</linearGradient>
</defs>
</svg>
