<svg width="82" height="60" viewBox="0 0 82 60" fill="none" xmlns="http://www.w3.org/2000/svg">
<g filter="url(#filter0_b_3_2155)">
<g clip-path="url(#clip0_3_2155)">
<rect width="82" height="60" rx="3" fill="url(#paint0_linear_3_2155)"/>
<rect width="82" height="60" rx="3" fill="url(#paint1_radial_3_2155)" fill-opacity="0.2"/>
<rect width="82" height="60" rx="3" fill="white" fill-opacity="0.2"/>
<path d="M33.15 16.5V18.5H10.15V16.5H33.15Z" fill="#C7C7C7"/>
<path d="M33.15 22.5V23.5H10.15V22.5H33.15ZM38.15 20.5V21.5H10.15V20.5H38.15Z" fill="#595959"/>
<path d="M17.9 29.75V33.25H10.4V29.75H17.9ZM26.9 29.75V33.25H19.4V29.75H26.9ZM35.9 29.75V33.25H28.4V29.75H35.9Z" stroke="url(#paint2_linear_3_2155)" stroke-width="0.5"/>
<path d="M27.15 38.5H10.15V43.5H27.15V38.5Z" fill="url(#paint3_linear_3_2155)"/>
<path d="M69.51 29.722V41.581H50.79V29.722" stroke="#C7C7C7" stroke-width="1.5" stroke-linecap="round" stroke-linejoin="round"/>
<path d="M71.85 23.792H48.45V29.721H71.85V23.792Z" stroke="#C7C7C7" stroke-width="1.5" stroke-linecap="round" stroke-linejoin="round"/>
<path d="M60.15 41.625V22.804" stroke="url(#paint4_linear_3_2155)" stroke-linecap="square" stroke-linejoin="round"/>
<path d="M54.885 16.875C58.98 16.875 60.15 22.804 60.15 22.804H54.885C53.27 22.804 51.96 21.477 51.96 19.84C51.96 18.202 53.27 16.875 54.885 16.875ZM65.415 16.875C67.031 16.875 68.34 18.203 68.34 19.84C68.34 21.478 67.031 22.805 65.415 22.805H60.15C60.15 22.804 61.32 16.875 65.415 16.875Z" stroke="url(#paint5_linear_3_2155)" stroke-linecap="round" stroke-linejoin="round"/>
</g>
</g>
<defs>
<filter id="filter0_b_3_2155" x="-4" y="-4" width="90" height="68" filterUnits="userSpaceOnUse" color-interpolation-filters="sRGB">
<feFlood flood-opacity="0" result="BackgroundImageFix"/>
<feGaussianBlur in="BackgroundImageFix" stdDeviation="2"/>
<feComposite in2="SourceAlpha" operator="in" result="effect1_backgroundBlur_3_2155"/>
<feBlend mode="normal" in="SourceGraphic" in2="effect1_backgroundBlur_3_2155" result="shape"/>
</filter>
<linearGradient id="paint0_linear_3_2155" x1="41" y1="0" x2="41" y2="60" gradientUnits="userSpaceOnUse">
<stop stop-color="#F2F2F2" stop-opacity="0.23"/>
<stop offset="1" stop-color="white" stop-opacity="0"/>
</linearGradient>
<radialGradient id="paint1_radial_3_2155" cx="0" cy="0" r="1" gradientUnits="userSpaceOnUse" gradientTransform="translate(41 30) rotate(90) scale(30 41)">
<stop stop-color="#F2F2F2"/>
<stop offset="1" stop-opacity="0.25"/>
</radialGradient>
<linearGradient id="paint2_linear_3_2155" x1="23.1502" y1="29.7499" x2="23.1502" y2="33.2499" gradientUnits="userSpaceOnUse">
<stop stop-color="#00CECC"/>
<stop offset="1" stop-color="#00A09D"/>
</linearGradient>
<linearGradient id="paint3_linear_3_2155" x1="10.1507" y1="40.7835" x2="25.9118" y2="45.4242" gradientUnits="userSpaceOnUse">
<stop stop-color="#00A09D"/>
<stop offset="1" stop-color="#00E2FF"/>
</linearGradient>
<linearGradient id="paint4_linear_3_2155" x1="-nan" y1="-nan" x2="-nan" y2="-nan" gradientUnits="userSpaceOnUse">
<stop stop-color="#00CECC"/>
<stop offset="1" stop-color="#00A09D"/>
</linearGradient>
<linearGradient id="paint5_linear_3_2155" x1="60.1491" y1="16.71" x2="60.1491" y2="22.9686" gradientUnits="userSpaceOnUse">
<stop stop-color="#00CECC"/>
<stop offset="1" stop-color="#00A09D"/>
</linearGradient>
<clipPath id="clip0_3_2155">
<rect width="82" height="60" rx="3" fill="white"/>
</clipPath>
</defs>
</svg>
