<svg width="82" height="60" viewBox="0 0 82 60" fill="none" xmlns="http://www.w3.org/2000/svg">
<g filter="url(#filter0_b_3_2266)">
<g clip-path="url(#clip0_3_2266)">
<rect width="82" height="60" rx="3" fill="url(#paint0_linear_3_2266)"/>
<rect width="82" height="60" rx="3" fill="url(#paint1_radial_3_2266)" fill-opacity="0.2"/>
<rect width="82" height="60" rx="3" fill="white" fill-opacity="0.2"/>
<g filter="url(#filter1_bd_3_2266)">
<g filter="url(#filter2_ii_3_2266)">
<path d="M30.1785 36.7008H23.5491V34H29.9329C30.0685 34 30.1785 34.11 30.1785 34.2455V36.7008Z" fill="url(#paint2_linear_3_2266)"/>
<path d="M27.7231 36.7008H21.5849C21.4494 36.7008 21.3394 36.5908 21.3394 36.4553V34.2455C21.3394 34.11 21.4494 34 21.5849 34H27.7231C27.8587 34 27.9687 34.11 27.9687 34.2455V36.4553C27.9687 36.5908 27.8587 36.7008 27.7231 36.7008Z" fill="url(#paint3_linear_3_2266)"/>
<path opacity="0.05" d="M30.1784 35.9642H21.3394V36.4553C21.3394 36.5908 21.4494 36.7008 21.5849 36.7008H23.5491H27.7231H30.1784V35.9642Z" fill="black"/>
<path opacity="0.07" d="M30.1784 36.087H21.3394V36.4553C21.3394 36.5908 21.4494 36.7008 21.5849 36.7008H23.5491H27.7231H30.1784V36.087Z" fill="black"/>
<path d="M30.1785 42.8391H27.4777V36.2098H30.424C30.5596 36.2098 30.6696 36.3198 30.6696 36.4553V42.348C30.6696 42.6193 30.4499 42.8391 30.1785 42.8391Z" fill="url(#paint4_linear_3_2266)"/>
<path d="M27.4776 42.8391H21.3394C21.0681 42.8391 20.8483 42.6193 20.8483 42.348V36.4553C20.8483 36.3198 20.9583 36.2098 21.0939 36.2098H27.9687V42.348C27.9687 42.6193 27.7489 42.8391 27.4776 42.8391Z" fill="url(#paint5_linear_3_2266)"/>
<path d="M27.9687 36.2098H21.0001C20.907 36.2098 20.822 36.2623 20.7806 36.3455L20.2006 37.5054C20.1599 37.5869 20.219 37.683 20.3104 37.683H27.0804C27.1734 37.683 27.2583 37.6304 27.2999 37.5472L27.9687 36.2098Z" fill="url(#paint6_linear_3_2266)"/>
<path d="M27.9687 36.2098H30.5178C30.6109 36.2098 30.6958 36.2623 30.7373 36.3455L31.3172 37.5054C31.358 37.5869 31.2989 37.683 31.2075 37.683H28.857C28.7639 37.683 28.679 37.6304 28.6375 37.5472L27.9687 36.2098Z" fill="url(#paint7_linear_3_2266)"/>
</g>
<g filter="url(#filter3_ii_3_2266)">
<path d="M30.1785 36.7008H23.5491V34H29.9329C30.0685 34 30.1785 34.11 30.1785 34.2455V36.7008Z" fill="url(#paint8_linear_3_2266)"/>
<path d="M27.7231 36.7008H21.5849C21.4494 36.7008 21.3394 36.5908 21.3394 36.4553V34.2455C21.3394 34.11 21.4494 34 21.5849 34H27.7231C27.8587 34 27.9687 34.11 27.9687 34.2455V36.4553C27.9687 36.5908 27.8587 36.7008 27.7231 36.7008Z" fill="url(#paint9_linear_3_2266)"/>
<path opacity="0.05" d="M30.1784 35.9642H21.3394V36.4553C21.3394 36.5908 21.4494 36.7008 21.5849 36.7008H23.5491H27.7231H30.1784V35.9642Z" fill="black"/>
<path opacity="0.07" d="M30.1784 36.087H21.3394V36.4553C21.3394 36.5908 21.4494 36.7008 21.5849 36.7008H23.5491H27.7231H30.1784V36.087Z" fill="black"/>
<path d="M30.1785 42.8391H27.4777V36.2098H30.424C30.5596 36.2098 30.6696 36.3198 30.6696 36.4553V42.348C30.6696 42.6193 30.4499 42.8391 30.1785 42.8391Z" fill="url(#paint10_linear_3_2266)"/>
<path d="M27.4776 42.8391H21.3394C21.0681 42.8391 20.8483 42.6193 20.8483 42.348V36.4553C20.8483 36.3198 20.9583 36.2098 21.0939 36.2098H27.9687V42.348C27.9687 42.6193 27.7489 42.8391 27.4776 42.8391Z" fill="url(#paint11_linear_3_2266)"/>
<path d="M27.9687 36.2098H21.0001C20.907 36.2098 20.822 36.2623 20.7806 36.3455L20.2006 37.5054C20.1599 37.5869 20.219 37.683 20.3104 37.683H27.0804C27.1734 37.683 27.2583 37.6304 27.2999 37.5472L27.9687 36.2098Z" fill="url(#paint12_linear_3_2266)"/>
<path d="M27.9687 36.2098H30.5178C30.6109 36.2098 30.6958 36.2623 30.7373 36.3455L31.3172 37.5054C31.358 37.5869 31.2989 37.683 31.2075 37.683H28.857C28.7639 37.683 28.679 37.6304 28.6375 37.5472L27.9687 36.2098Z" fill="url(#paint13_linear_3_2266)"/>
</g>
</g>
<path d="M13.5 30.5H37.875V46C37.875 46.2761 37.6511 46.5 37.375 46.5H14C13.7239 46.5 13.5 46.2761 13.5 46V30.5Z" stroke="white" stroke-opacity="0.5"/>
<path d="M13.5 29H37.875V14C37.875 13.7239 37.6511 13.5 37.375 13.5H14C13.7239 13.5 13.5 13.7239 13.5 14V29Z" fill="#45B0D0" stroke="white"/>
<path d="M35.9578 29.5C36.6252 29.5 37.1666 28.8916 37.1666 28.1417V27.4625L29.7446 19.1226C29.0058 18.2925 27.8074 18.2925 27.0687 19.1226L17.8333 29.5H35.9578Z" fill="#00A09D"/>
<path d="M32.3333 29.5H15.0644C13.929 29.5 13 28.6489 13 27.6088V23.7979L18.2333 19.0035C18.9662 18.3322 20.1429 18.3322 20.8655 19.0035L32.3333 29.5Z" fill="url(#paint14_linear_3_2266)"/>
<path d="M33.019 19.4457C33.9666 19.4457 34.7349 18.58 34.7349 17.5121C34.7349 16.4442 33.9666 15.5785 33.019 15.5785C32.0713 15.5785 31.303 16.4442 31.303 17.5121C31.303 18.58 32.0713 19.4457 33.019 19.4457Z" fill="#F3EC60"/>
<path d="M13.5 29H37.875V14C37.875 13.7239 37.6511 13.5 37.375 13.5H14C13.7239 13.5 13.5 13.7239 13.5 14V29Z" stroke="white"/>
<g filter="url(#filter4_bd_3_2266)">
<g filter="url(#filter5_ii_3_2266)">
<path d="M59.366 36.7008H52.7366V34H59.1204C59.256 34 59.366 34.11 59.366 34.2455V36.7008Z" fill="url(#paint15_linear_3_2266)"/>
<path d="M56.9106 36.7008H50.7724C50.6369 36.7008 50.5269 36.5908 50.5269 36.4553V34.2455C50.5269 34.11 50.6369 34 50.7724 34H56.9106C57.0462 34 57.1562 34.11 57.1562 34.2455V36.4553C57.1562 36.5908 57.0462 36.7008 56.9106 36.7008Z" fill="url(#paint16_linear_3_2266)"/>
<path opacity="0.05" d="M59.3659 35.9642H50.5269V36.4553C50.5269 36.5908 50.6369 36.7008 50.7724 36.7008H52.7366H56.9106H59.3659V35.9642Z" fill="black"/>
<path opacity="0.07" d="M59.3659 36.087H50.5269V36.4553C50.5269 36.5908 50.6369 36.7008 50.7724 36.7008H52.7366H56.9106H59.3659V36.087Z" fill="black"/>
<path d="M59.366 42.8391H56.6652V36.2098H59.6115C59.7471 36.2098 59.8571 36.3198 59.8571 36.4553V42.348C59.8571 42.6193 59.6374 42.8391 59.366 42.8391Z" fill="url(#paint17_linear_3_2266)"/>
<path d="M56.6651 42.8391H50.5269C50.2556 42.8391 50.0358 42.6193 50.0358 42.348V36.4553C50.0358 36.3198 50.1458 36.2098 50.2814 36.2098H57.1562V42.348C57.1562 42.6193 56.9364 42.8391 56.6651 42.8391Z" fill="url(#paint18_linear_3_2266)"/>
<path d="M57.1562 36.2098H50.1876C50.0945 36.2098 50.0095 36.2623 49.9681 36.3455L49.3881 37.5054C49.3474 37.5869 49.4065 37.683 49.4979 37.683H56.2679C56.3609 37.683 56.4458 37.6304 56.4874 37.5472L57.1562 36.2098Z" fill="url(#paint19_linear_3_2266)"/>
<path d="M57.1562 36.2098H59.7053C59.7984 36.2098 59.8833 36.2623 59.9248 36.3455L60.5047 37.5054C60.5455 37.5869 60.4864 37.683 60.395 37.683H58.0445C57.9514 37.683 57.8665 37.6304 57.825 37.5472L57.1562 36.2098Z" fill="url(#paint20_linear_3_2266)"/>
</g>
<g filter="url(#filter6_ii_3_2266)">
<path d="M59.366 36.7008H52.7366V34H59.1204C59.256 34 59.366 34.11 59.366 34.2455V36.7008Z" fill="url(#paint21_linear_3_2266)"/>
<path d="M56.9106 36.7008H50.7724C50.6369 36.7008 50.5269 36.5908 50.5269 36.4553V34.2455C50.5269 34.11 50.6369 34 50.7724 34H56.9106C57.0462 34 57.1562 34.11 57.1562 34.2455V36.4553C57.1562 36.5908 57.0462 36.7008 56.9106 36.7008Z" fill="url(#paint22_linear_3_2266)"/>
<path opacity="0.05" d="M59.3659 35.9642H50.5269V36.4553C50.5269 36.5908 50.6369 36.7008 50.7724 36.7008H52.7366H56.9106H59.3659V35.9642Z" fill="black"/>
<path opacity="0.07" d="M59.3659 36.087H50.5269V36.4553C50.5269 36.5908 50.6369 36.7008 50.7724 36.7008H52.7366H56.9106H59.3659V36.087Z" fill="black"/>
<path d="M59.366 42.8391H56.6652V36.2098H59.6115C59.7471 36.2098 59.8571 36.3198 59.8571 36.4553V42.348C59.8571 42.6193 59.6374 42.8391 59.366 42.8391Z" fill="url(#paint23_linear_3_2266)"/>
<path d="M56.6651 42.8391H50.5269C50.2556 42.8391 50.0358 42.6193 50.0358 42.348V36.4553C50.0358 36.3198 50.1458 36.2098 50.2814 36.2098H57.1562V42.348C57.1562 42.6193 56.9364 42.8391 56.6651 42.8391Z" fill="url(#paint24_linear_3_2266)"/>
<path d="M57.1562 36.2098H50.1876C50.0945 36.2098 50.0095 36.2623 49.9681 36.3455L49.3881 37.5054C49.3474 37.5869 49.4065 37.683 49.4979 37.683H56.2679C56.3609 37.683 56.4458 37.6304 56.4874 37.5472L57.1562 36.2098Z" fill="url(#paint25_linear_3_2266)"/>
<path d="M57.1562 36.2098H59.7053C59.7984 36.2098 59.8833 36.2623 59.9248 36.3455L60.5047 37.5054C60.5455 37.5869 60.4864 37.683 60.395 37.683H58.0445C57.9514 37.683 57.8665 37.6304 57.825 37.5472L57.1562 36.2098Z" fill="url(#paint26_linear_3_2266)"/>
</g>
</g>
<path d="M42.6875 30.5H67.0625V46C67.0625 46.2761 66.8386 46.5 66.5625 46.5H43.1875C42.9114 46.5 42.6875 46.2761 42.6875 46V30.5Z" stroke="white" stroke-opacity="0.5"/>
<path d="M42.6875 29H67.0625V14C67.0625 13.7239 66.8386 13.5 66.5625 13.5H43.1875C42.9114 13.5 42.6875 13.7239 42.6875 14V29Z" fill="#45B0D0" stroke="white"/>
<path d="M65.1453 29.5C65.8127 29.5 66.3541 28.8916 66.3541 28.1417V27.4625L58.9321 19.1226C58.1933 18.2925 56.9949 18.2925 56.2562 19.1226L47.0208 29.5H65.1453Z" fill="#00A09D"/>
<path d="M61.5208 29.5H44.2519C43.1165 29.5 42.1875 28.6489 42.1875 27.6088V23.7979L47.4208 19.0035C48.1537 18.3322 49.3304 18.3322 50.053 19.0035L61.5208 29.5Z" fill="url(#paint27_linear_3_2266)"/>
<path d="M62.2065 19.4457C63.1541 19.4457 63.9224 18.58 63.9224 17.5121C63.9224 16.4442 63.1541 15.5785 62.2065 15.5785C61.2588 15.5785 60.4905 16.4442 60.4905 17.5121C60.4905 18.58 61.2588 19.4457 62.2065 19.4457Z" fill="#F3EC60"/>
<path d="M42.6875 29H67.0625V14C67.0625 13.7239 66.8386 13.5 66.5625 13.5H43.1875C42.9114 13.5 42.6875 13.7239 42.6875 14V29Z" stroke="white"/>
</g>
</g>
<defs>
<filter id="filter0_b_3_2266" x="-4" y="-4" width="90" height="68" filterUnits="userSpaceOnUse" color-interpolation-filters="sRGB">
<feFlood flood-opacity="0" result="BackgroundImageFix"/>
<feGaussianBlur in="BackgroundImageFix" stdDeviation="2"/>
<feComposite in2="SourceAlpha" operator="in" result="effect1_backgroundBlur_3_2266"/>
<feBlend mode="normal" in="SourceGraphic" in2="effect1_backgroundBlur_3_2266" result="shape"/>
</filter>
<filter id="filter1_bd_3_2266" x="16.1875" y="30" width="19.1428" height="17.8391" filterUnits="userSpaceOnUse" color-interpolation-filters="sRGB">
<feFlood flood-opacity="0" result="BackgroundImageFix"/>
<feGaussianBlur in="BackgroundImageFix" stdDeviation="2"/>
<feComposite in2="SourceAlpha" operator="in" result="effect1_backgroundBlur_3_2266"/>
<feColorMatrix in="SourceAlpha" type="matrix" values="0 0 0 0 0 0 0 0 0 0 0 0 0 0 0 0 0 0 127 0" result="hardAlpha"/>
<feOffset dy="1"/>
<feGaussianBlur stdDeviation="2"/>
<feComposite in2="hardAlpha" operator="out"/>
<feColorMatrix type="matrix" values="0 0 0 0 1 0 0 0 0 1 0 0 0 0 1 0 0 0 0.25 0"/>
<feBlend mode="normal" in2="effect1_backgroundBlur_3_2266" result="effect2_dropShadow_3_2266"/>
<feBlend mode="normal" in="SourceGraphic" in2="effect2_dropShadow_3_2266" result="shape"/>
</filter>
<filter id="filter2_ii_3_2266" x="20.1875" y="34" width="11.1428" height="12.8391" filterUnits="userSpaceOnUse" color-interpolation-filters="sRGB">
<feFlood flood-opacity="0" result="BackgroundImageFix"/>
<feBlend mode="normal" in="SourceGraphic" in2="BackgroundImageFix" result="shape"/>
<feColorMatrix in="SourceAlpha" type="matrix" values="0 0 0 0 0 0 0 0 0 0 0 0 0 0 0 0 0 0 127 0" result="hardAlpha"/>
<feOffset dy="4"/>
<feGaussianBlur stdDeviation="2"/>
<feComposite in2="hardAlpha" operator="arithmetic" k2="-1" k3="1"/>
<feColorMatrix type="matrix" values="0 0 0 0 0.991667 0 0 0 0 0.991667 0 0 0 0 0.991667 0 0 0 0.25 0"/>
<feBlend mode="normal" in2="shape" result="effect1_innerShadow_3_2266"/>
<feColorMatrix in="SourceAlpha" type="matrix" values="0 0 0 0 0 0 0 0 0 0 0 0 0 0 0 0 0 0 127 0" result="hardAlpha"/>
<feOffset dy="4"/>
<feGaussianBlur stdDeviation="2"/>
<feComposite in2="hardAlpha" operator="arithmetic" k2="-1" k3="1"/>
<feColorMatrix type="matrix" values="0 0 0 0 0 0 0 0 0 0 0 0 0 0 0 0 0 0 0.25 0"/>
<feBlend mode="normal" in2="effect1_innerShadow_3_2266" result="effect2_innerShadow_3_2266"/>
</filter>
<filter id="filter3_ii_3_2266" x="20.1875" y="34" width="11.1428" height="12.8391" filterUnits="userSpaceOnUse" color-interpolation-filters="sRGB">
<feFlood flood-opacity="0" result="BackgroundImageFix"/>
<feBlend mode="normal" in="SourceGraphic" in2="BackgroundImageFix" result="shape"/>
<feColorMatrix in="SourceAlpha" type="matrix" values="0 0 0 0 0 0 0 0 0 0 0 0 0 0 0 0 0 0 127 0" result="hardAlpha"/>
<feOffset dy="4"/>
<feGaussianBlur stdDeviation="2"/>
<feComposite in2="hardAlpha" operator="arithmetic" k2="-1" k3="1"/>
<feColorMatrix type="matrix" values="0 0 0 0 0.991667 0 0 0 0 0.991667 0 0 0 0 0.991667 0 0 0 0.25 0"/>
<feBlend mode="normal" in2="shape" result="effect1_innerShadow_3_2266"/>
<feColorMatrix in="SourceAlpha" type="matrix" values="0 0 0 0 0 0 0 0 0 0 0 0 0 0 0 0 0 0 127 0" result="hardAlpha"/>
<feOffset dy="4"/>
<feGaussianBlur stdDeviation="2"/>
<feComposite in2="hardAlpha" operator="arithmetic" k2="-1" k3="1"/>
<feColorMatrix type="matrix" values="0 0 0 0 0 0 0 0 0 0 0 0 0 0 0 0 0 0 0.25 0"/>
<feBlend mode="normal" in2="effect1_innerShadow_3_2266" result="effect2_innerShadow_3_2266"/>
</filter>
<filter id="filter4_bd_3_2266" x="45.375" y="30" width="19.1428" height="17.8391" filterUnits="userSpaceOnUse" color-interpolation-filters="sRGB">
<feFlood flood-opacity="0" result="BackgroundImageFix"/>
<feGaussianBlur in="BackgroundImageFix" stdDeviation="2"/>
<feComposite in2="SourceAlpha" operator="in" result="effect1_backgroundBlur_3_2266"/>
<feColorMatrix in="SourceAlpha" type="matrix" values="0 0 0 0 0 0 0 0 0 0 0 0 0 0 0 0 0 0 127 0" result="hardAlpha"/>
<feOffset dy="1"/>
<feGaussianBlur stdDeviation="2"/>
<feComposite in2="hardAlpha" operator="out"/>
<feColorMatrix type="matrix" values="0 0 0 0 1 0 0 0 0 1 0 0 0 0 1 0 0 0 0.25 0"/>
<feBlend mode="normal" in2="effect1_backgroundBlur_3_2266" result="effect2_dropShadow_3_2266"/>
<feBlend mode="normal" in="SourceGraphic" in2="effect2_dropShadow_3_2266" result="shape"/>
</filter>
<filter id="filter5_ii_3_2266" x="49.375" y="34" width="11.1428" height="12.8391" filterUnits="userSpaceOnUse" color-interpolation-filters="sRGB">
<feFlood flood-opacity="0" result="BackgroundImageFix"/>
<feBlend mode="normal" in="SourceGraphic" in2="BackgroundImageFix" result="shape"/>
<feColorMatrix in="SourceAlpha" type="matrix" values="0 0 0 0 0 0 0 0 0 0 0 0 0 0 0 0 0 0 127 0" result="hardAlpha"/>
<feOffset dy="4"/>
<feGaussianBlur stdDeviation="2"/>
<feComposite in2="hardAlpha" operator="arithmetic" k2="-1" k3="1"/>
<feColorMatrix type="matrix" values="0 0 0 0 0.991667 0 0 0 0 0.991667 0 0 0 0 0.991667 0 0 0 0.25 0"/>
<feBlend mode="normal" in2="shape" result="effect1_innerShadow_3_2266"/>
<feColorMatrix in="SourceAlpha" type="matrix" values="0 0 0 0 0 0 0 0 0 0 0 0 0 0 0 0 0 0 127 0" result="hardAlpha"/>
<feOffset dy="4"/>
<feGaussianBlur stdDeviation="2"/>
<feComposite in2="hardAlpha" operator="arithmetic" k2="-1" k3="1"/>
<feColorMatrix type="matrix" values="0 0 0 0 0 0 0 0 0 0 0 0 0 0 0 0 0 0 0.25 0"/>
<feBlend mode="normal" in2="effect1_innerShadow_3_2266" result="effect2_innerShadow_3_2266"/>
</filter>
<filter id="filter6_ii_3_2266" x="49.375" y="34" width="11.1428" height="12.8391" filterUnits="userSpaceOnUse" color-interpolation-filters="sRGB">
<feFlood flood-opacity="0" result="BackgroundImageFix"/>
<feBlend mode="normal" in="SourceGraphic" in2="BackgroundImageFix" result="shape"/>
<feColorMatrix in="SourceAlpha" type="matrix" values="0 0 0 0 0 0 0 0 0 0 0 0 0 0 0 0 0 0 127 0" result="hardAlpha"/>
<feOffset dy="4"/>
<feGaussianBlur stdDeviation="2"/>
<feComposite in2="hardAlpha" operator="arithmetic" k2="-1" k3="1"/>
<feColorMatrix type="matrix" values="0 0 0 0 0.991667 0 0 0 0 0.991667 0 0 0 0 0.991667 0 0 0 0.25 0"/>
<feBlend mode="normal" in2="shape" result="effect1_innerShadow_3_2266"/>
<feColorMatrix in="SourceAlpha" type="matrix" values="0 0 0 0 0 0 0 0 0 0 0 0 0 0 0 0 0 0 127 0" result="hardAlpha"/>
<feOffset dy="4"/>
<feGaussianBlur stdDeviation="2"/>
<feComposite in2="hardAlpha" operator="arithmetic" k2="-1" k3="1"/>
<feColorMatrix type="matrix" values="0 0 0 0 0 0 0 0 0 0 0 0 0 0 0 0 0 0 0.25 0"/>
<feBlend mode="normal" in2="effect1_innerShadow_3_2266" result="effect2_innerShadow_3_2266"/>
</filter>
<linearGradient id="paint0_linear_3_2266" x1="41" y1="0" x2="41" y2="60" gradientUnits="userSpaceOnUse">
<stop stop-color="#F2F2F2" stop-opacity="0.23"/>
<stop offset="1" stop-color="white" stop-opacity="0"/>
</linearGradient>
<radialGradient id="paint1_radial_3_2266" cx="0" cy="0" r="1" gradientUnits="userSpaceOnUse" gradientTransform="translate(41 30) rotate(90) scale(30 41)">
<stop stop-color="#F2F2F2"/>
<stop offset="1" stop-opacity="0.25"/>
</radialGradient>
<linearGradient id="paint2_linear_3_2266" x1="25.8873" y1="34.4486" x2="29.6069" y2="38.1576" gradientUnits="userSpaceOnUse">
<stop stop-color="#C26715"/>
<stop offset="0.508" stop-color="#B85515"/>
<stop offset="1" stop-color="#AD3F16"/>
</linearGradient>
<linearGradient id="paint3_linear_3_2266" x1="21.6566" y1="33.013" x2="26.7344" y2="36.9726" gradientUnits="userSpaceOnUse">
<stop stop-color="#EBA84B"/>
<stop offset="1" stop-color="#D97218"/>
</linearGradient>
<linearGradient id="paint4_linear_3_2266" x1="26.6267" y1="37.078" x2="31.2711" y2="41.8601" gradientUnits="userSpaceOnUse">
<stop stop-color="#EBA600"/>
<stop offset="1" stop-color="#C28200"/>
</linearGradient>
<linearGradient id="paint5_linear_3_2266" x1="21.1965" y1="36.071" x2="27.6471" y2="42.7131" gradientUnits="userSpaceOnUse">
<stop stop-color="#FFD869"/>
<stop offset="1" stop-color="#FEC52B"/>
</linearGradient>
<linearGradient id="paint6_linear_3_2266" x1="24.078" y1="37.6191" x2="24.078" y2="29.8331" gradientUnits="userSpaceOnUse">
<stop stop-color="#EBA600"/>
<stop offset="1" stop-color="#C28200"/>
</linearGradient>
<linearGradient id="paint7_linear_3_2266" x1="29.6496" y1="37.6164" x2="29.6496" y2="36.5957" gradientUnits="userSpaceOnUse">
<stop stop-color="#FFD869"/>
<stop offset="1" stop-color="#FEC52B"/>
</linearGradient>
<linearGradient id="paint8_linear_3_2266" x1="25.8873" y1="34.4486" x2="29.6069" y2="38.1576" gradientUnits="userSpaceOnUse">
<stop stop-color="#C26715"/>
<stop offset="0.508" stop-color="#B85515"/>
<stop offset="1" stop-color="#AD3F16"/>
</linearGradient>
<linearGradient id="paint9_linear_3_2266" x1="21.6566" y1="33.013" x2="26.7344" y2="36.9726" gradientUnits="userSpaceOnUse">
<stop stop-color="#EBA84B"/>
<stop offset="1" stop-color="#D97218"/>
</linearGradient>
<linearGradient id="paint10_linear_3_2266" x1="26.6267" y1="37.078" x2="31.2711" y2="41.8601" gradientUnits="userSpaceOnUse">
<stop stop-color="#EBA600"/>
<stop offset="1" stop-color="#C28200"/>
</linearGradient>
<linearGradient id="paint11_linear_3_2266" x1="21.1965" y1="36.071" x2="27.6471" y2="42.7131" gradientUnits="userSpaceOnUse">
<stop stop-color="#FFD869"/>
<stop offset="1" stop-color="#FEC52B"/>
</linearGradient>
<linearGradient id="paint12_linear_3_2266" x1="24.078" y1="37.6191" x2="24.078" y2="29.8331" gradientUnits="userSpaceOnUse">
<stop stop-color="#EBA600"/>
<stop offset="1" stop-color="#C28200"/>
</linearGradient>
<linearGradient id="paint13_linear_3_2266" x1="29.6496" y1="37.6164" x2="29.6496" y2="36.5957" gradientUnits="userSpaceOnUse">
<stop stop-color="#FFD869"/>
<stop offset="1" stop-color="#FEC52B"/>
</linearGradient>
<linearGradient id="paint14_linear_3_2266" x1="22.6667" y1="18.4759" x2="22.6667" y2="29.692" gradientUnits="userSpaceOnUse">
<stop stop-color="#124787"/>
<stop offset="0.923" stop-color="#173B75"/>
<stop offset="1" stop-color="#173A73"/>
</linearGradient>
<linearGradient id="paint15_linear_3_2266" x1="55.0748" y1="34.4486" x2="58.7944" y2="38.1576" gradientUnits="userSpaceOnUse">
<stop stop-color="#C26715"/>
<stop offset="0.508" stop-color="#B85515"/>
<stop offset="1" stop-color="#AD3F16"/>
</linearGradient>
<linearGradient id="paint16_linear_3_2266" x1="50.8441" y1="33.013" x2="55.9219" y2="36.9726" gradientUnits="userSpaceOnUse">
<stop stop-color="#EBA84B"/>
<stop offset="1" stop-color="#D97218"/>
</linearGradient>
<linearGradient id="paint17_linear_3_2266" x1="55.8142" y1="37.078" x2="60.4586" y2="41.8601" gradientUnits="userSpaceOnUse">
<stop stop-color="#EBA600"/>
<stop offset="1" stop-color="#C28200"/>
</linearGradient>
<linearGradient id="paint18_linear_3_2266" x1="50.384" y1="36.071" x2="56.8346" y2="42.7131" gradientUnits="userSpaceOnUse">
<stop stop-color="#FFD869"/>
<stop offset="1" stop-color="#FEC52B"/>
</linearGradient>
<linearGradient id="paint19_linear_3_2266" x1="53.2655" y1="37.6191" x2="53.2655" y2="29.8331" gradientUnits="userSpaceOnUse">
<stop stop-color="#EBA600"/>
<stop offset="1" stop-color="#C28200"/>
</linearGradient>
<linearGradient id="paint20_linear_3_2266" x1="58.8371" y1="37.6164" x2="58.8371" y2="36.5957" gradientUnits="userSpaceOnUse">
<stop stop-color="#FFD869"/>
<stop offset="1" stop-color="#FEC52B"/>
</linearGradient>
<linearGradient id="paint21_linear_3_2266" x1="55.0748" y1="34.4486" x2="58.7944" y2="38.1576" gradientUnits="userSpaceOnUse">
<stop stop-color="#C26715"/>
<stop offset="0.508" stop-color="#B85515"/>
<stop offset="1" stop-color="#AD3F16"/>
</linearGradient>
<linearGradient id="paint22_linear_3_2266" x1="50.8441" y1="33.013" x2="55.9219" y2="36.9726" gradientUnits="userSpaceOnUse">
<stop stop-color="#EBA84B"/>
<stop offset="1" stop-color="#D97218"/>
</linearGradient>
<linearGradient id="paint23_linear_3_2266" x1="55.8142" y1="37.078" x2="60.4586" y2="41.8601" gradientUnits="userSpaceOnUse">
<stop stop-color="#EBA600"/>
<stop offset="1" stop-color="#C28200"/>
</linearGradient>
<linearGradient id="paint24_linear_3_2266" x1="50.384" y1="36.071" x2="56.8346" y2="42.7131" gradientUnits="userSpaceOnUse">
<stop stop-color="#FFD869"/>
<stop offset="1" stop-color="#FEC52B"/>
</linearGradient>
<linearGradient id="paint25_linear_3_2266" x1="53.2655" y1="37.6191" x2="53.2655" y2="29.8331" gradientUnits="userSpaceOnUse">
<stop stop-color="#EBA600"/>
<stop offset="1" stop-color="#C28200"/>
</linearGradient>
<linearGradient id="paint26_linear_3_2266" x1="58.8371" y1="37.6164" x2="58.8371" y2="36.5957" gradientUnits="userSpaceOnUse">
<stop stop-color="#FFD869"/>
<stop offset="1" stop-color="#FEC52B"/>
</linearGradient>
<linearGradient id="paint27_linear_3_2266" x1="51.8542" y1="18.4759" x2="51.8542" y2="29.692" gradientUnits="userSpaceOnUse">
<stop stop-color="#124787"/>
<stop offset="0.923" stop-color="#173B75"/>
<stop offset="1" stop-color="#173A73"/>
</linearGradient>
<clipPath id="clip0_3_2266">
<rect width="82" height="60" rx="3" fill="white"/>
</clipPath>
</defs>
</svg>
