<svg width="82" height="60" viewBox="0 0 82 60" fill="none" xmlns="http://www.w3.org/2000/svg">
<g filter="url(#filter0_b_3_3023)">
<g clip-path="url(#clip0_3_3023)">
<rect width="82" height="60" rx="3" fill="url(#paint0_linear_3_3023)"/>
<rect width="82" height="60" rx="3" fill="url(#paint1_radial_3_3023)" fill-opacity="0.2"/>
<rect width="82" height="60" rx="3" fill="white" fill-opacity="0.2"/>
<path d="M17 26C18.1046 26 19 25.1046 19 24C19 22.8954 18.1046 22 17 22C15.8954 22 15 22.8954 15 24C15 25.1046 15.8954 26 17 26Z" fill="url(#paint2_linear_3_3023)"/>
<path d="M24 23H20V25H24V23Z" fill="black"/>
<path d="M24 23H20V25H24V23Z" fill="white" fill-opacity="0.78"/>
<path d="M29 26C30.1046 26 31 25.1046 31 24C31 22.8954 30.1046 22 29 22C27.8954 22 27 22.8954 27 24C27 25.1046 27.8954 26 29 26Z" fill="url(#paint3_linear_3_3023)"/>
<path d="M36 23H32V25H36V23Z" fill="black"/>
<path d="M36 23H32V25H36V23Z" fill="white" fill-opacity="0.78"/>
<path d="M41 26C42.1046 26 43 25.1046 43 24C43 22.8954 42.1046 22 41 22C39.8954 22 39 22.8954 39 24C39 25.1046 39.8954 26 41 26Z" fill="url(#paint4_linear_3_3023)"/>
<path d="M48 23H44V25H48V23Z" fill="black"/>
<path d="M48 23H44V25H48V23Z" fill="white" fill-opacity="0.78"/>
<path d="M17 32C18.1046 32 19 31.1046 19 30C19 28.8954 18.1046 28 17 28C15.8954 28 15 28.8954 15 30C15 31.1046 15.8954 32 17 32Z" fill="url(#paint5_linear_3_3023)"/>
<path d="M25 29H21V31H25V29Z" fill="black"/>
<path d="M25 29H21V31H25V29Z" fill="white" fill-opacity="0.78"/>
<path d="M29 32C30.1046 32 31 31.1046 31 30C31 28.8954 30.1046 28 29 28C27.8954 28 27 28.8954 27 30C27 31.1046 27.8954 32 29 32Z" fill="url(#paint6_linear_3_3023)"/>
<path d="M36 29H32V31H36V29Z" fill="black"/>
<path d="M36 29H32V31H36V29Z" fill="white" fill-opacity="0.78"/>
<path d="M41 32C42.1046 32 43 31.1046 43 30C43 28.8954 42.1046 28 41 28C39.8954 28 39 28.8954 39 30C39 31.1046 39.8954 32 41 32Z" fill="url(#paint7_linear_3_3023)"/>
<path d="M48 29H44V31H48V29Z" fill="black"/>
<path d="M48 29H44V31H48V29Z" fill="white" fill-opacity="0.78"/>
<path d="M17 38C18.1046 38 19 37.1046 19 36C19 34.8954 18.1046 34 17 34C15.8954 34 15 34.8954 15 36C15 37.1046 15.8954 38 17 38Z" fill="url(#paint8_linear_3_3023)"/>
<path d="M25 35H21V37H25V35Z" fill="black"/>
<path d="M25 35H21V37H25V35Z" fill="white" fill-opacity="0.78"/>
<path d="M29 38C30.1046 38 31 37.1046 31 36C31 34.8954 30.1046 34 29 34C27.8954 34 27 34.8954 27 36C27 37.1046 27.8954 38 29 38Z" fill="url(#paint9_linear_3_3023)"/>
<path d="M36 35H32V37H36V35Z" fill="black"/>
<path d="M36 35H32V37H36V35Z" fill="white" fill-opacity="0.78"/>
<path d="M41 38C42.1046 38 43 37.1046 43 36C43 34.8954 42.1046 34 41 34C39.8954 34 39 34.8954 39 36C39 37.1046 39.8954 38 41 38Z" fill="url(#paint10_linear_3_3023)"/>
<path d="M48 35H44V37H48V35Z" fill="black"/>
<path d="M48 35H44V37H48V35Z" fill="white" fill-opacity="0.78"/>
<path opacity="0.219" d="M68 21H51V39H68V21Z" fill="#D8D8D8"/>
<path d="M54 28H65V29H54M54 30H62V31H54M54 32H65V33H54" fill="black"/>
<path d="M54 28H65V29H54M54 30H62V31H54M54 32H65V33H54" fill="#F0B421"/>
<g filter="url(#filter1_i_3_3023)">
<path d="M64 24H54V25H64V24Z" fill="black"/>
</g>
<path d="M64 24H54V25H64V24Z" fill="white" fill-opacity="0.78"/>
</g>
</g>
<defs>
<filter id="filter0_b_3_3023" x="-4" y="-4" width="90" height="68" filterUnits="userSpaceOnUse" color-interpolation-filters="sRGB">
<feFlood flood-opacity="0" result="BackgroundImageFix"/>
<feGaussianBlur in="BackgroundImageFix" stdDeviation="2"/>
<feComposite in2="SourceAlpha" operator="in" result="effect1_backgroundBlur_3_3023"/>
<feBlend mode="normal" in="SourceGraphic" in2="effect1_backgroundBlur_3_3023" result="shape"/>
</filter>
<filter id="filter1_i_3_3023" x="54" y="24" width="10" height="2" filterUnits="userSpaceOnUse" color-interpolation-filters="sRGB">
<feFlood flood-opacity="0" result="BackgroundImageFix"/>
<feBlend mode="normal" in="SourceGraphic" in2="BackgroundImageFix" result="shape"/>
<feColorMatrix in="SourceAlpha" type="matrix" values="0 0 0 0 0 0 0 0 0 0 0 0 0 0 0 0 0 0 127 0" result="hardAlpha"/>
<feOffset dy="1"/>
<feGaussianBlur stdDeviation="2"/>
<feComposite in2="hardAlpha" operator="arithmetic" k2="-1" k3="1"/>
<feColorMatrix type="matrix" values="0 0 0 0 1 0 0 0 0 1 0 0 0 0 1 0 0 0 0.292013 0"/>
<feBlend mode="normal" in2="shape" result="effect1_innerShadow_3_3023"/>
</filter>
<linearGradient id="paint0_linear_3_3023" x1="41" y1="0" x2="41" y2="60" gradientUnits="userSpaceOnUse">
<stop stop-color="#F2F2F2" stop-opacity="0.23"/>
<stop offset="1" stop-color="white" stop-opacity="0"/>
</linearGradient>
<radialGradient id="paint1_radial_3_3023" cx="0" cy="0" r="1" gradientUnits="userSpaceOnUse" gradientTransform="translate(41 30) rotate(90) scale(30 41)">
<stop stop-color="#F2F2F2"/>
<stop offset="1" stop-opacity="0.25"/>
</radialGradient>
<linearGradient id="paint2_linear_3_3023" x1="15" y1="22" x2="19" y2="26" gradientUnits="userSpaceOnUse">
<stop stop-color="#00A09D"/>
<stop offset="1" stop-color="#00E2FF"/>
</linearGradient>
<linearGradient id="paint3_linear_3_3023" x1="27" y1="22" x2="31" y2="26" gradientUnits="userSpaceOnUse">
<stop stop-color="#00A09D"/>
<stop offset="1" stop-color="#00E2FF"/>
</linearGradient>
<linearGradient id="paint4_linear_3_3023" x1="39" y1="22" x2="43" y2="26" gradientUnits="userSpaceOnUse">
<stop stop-color="#00A09D"/>
<stop offset="1" stop-color="#00E2FF"/>
</linearGradient>
<linearGradient id="paint5_linear_3_3023" x1="15" y1="28" x2="19" y2="32" gradientUnits="userSpaceOnUse">
<stop stop-color="#00A09D"/>
<stop offset="1" stop-color="#00E2FF"/>
</linearGradient>
<linearGradient id="paint6_linear_3_3023" x1="27" y1="28" x2="31" y2="32" gradientUnits="userSpaceOnUse">
<stop stop-color="#00A09D"/>
<stop offset="1" stop-color="#00E2FF"/>
</linearGradient>
<linearGradient id="paint7_linear_3_3023" x1="39" y1="28" x2="43" y2="32" gradientUnits="userSpaceOnUse">
<stop stop-color="#00A09D"/>
<stop offset="1" stop-color="#00E2FF"/>
</linearGradient>
<linearGradient id="paint8_linear_3_3023" x1="15" y1="34" x2="19" y2="38" gradientUnits="userSpaceOnUse">
<stop stop-color="#00A09D"/>
<stop offset="1" stop-color="#00E2FF"/>
</linearGradient>
<linearGradient id="paint9_linear_3_3023" x1="27" y1="34" x2="31" y2="38" gradientUnits="userSpaceOnUse">
<stop stop-color="#00A09D"/>
<stop offset="1" stop-color="#00E2FF"/>
</linearGradient>
<linearGradient id="paint10_linear_3_3023" x1="39" y1="34" x2="43" y2="38" gradientUnits="userSpaceOnUse">
<stop stop-color="#00A09D"/>
<stop offset="1" stop-color="#00E2FF"/>
</linearGradient>
<clipPath id="clip0_3_3023">
<rect width="82" height="60" rx="3" fill="white"/>
</clipPath>
</defs>
</svg>
