<svg width="82" height="60" viewBox="0 0 82 60" fill="none" xmlns="http://www.w3.org/2000/svg">
<g filter="url(#filter0_b_3_2917)">
<g clip-path="url(#clip0_3_2917)">
<rect width="82" height="60" rx="3" fill="url(#paint0_linear_3_2917)"/>
<rect width="82" height="60" rx="3" fill="url(#paint1_radial_3_2917)" fill-opacity="0.2"/>
<rect width="82" height="60" rx="3" fill="white" fill-opacity="0.2"/>
<g filter="url(#filter1_i_3_2917)">
<path d="M23 10H15V12H23V10Z" fill="black"/>
</g>
<path d="M23 10H15V12H23V10Z" fill="white" fill-opacity="0.78"/>
<g filter="url(#filter2_i_3_2917)">
<path d="M15 14H22V15H15M15 17H19V18H15M15 20H22V21H15" fill="black"/>
</g>
<path d="M15 14H22V15H15M15 17H19V18H15M15 20H22V21H15" fill="#F0B421"/>
<g filter="url(#filter3_i_3_2917)">
<path d="M35 10H27V12H35V10Z" fill="black"/>
</g>
<path d="M35 10H27V12H35V10Z" fill="white" fill-opacity="0.78"/>
<g filter="url(#filter4_i_3_2917)">
<path d="M27 14H34V15H27M27 17H31V18H27M27 20H34V21H27" fill="black"/>
</g>
<path d="M27 14H34V15H27M27 17H31V18H27M27 20H34V21H27" fill="#F0B421"/>
<g filter="url(#filter5_i_3_2917)">
<path d="M47 10H39V12H47V10Z" fill="black"/>
</g>
<path d="M47 10H39V12H47V10Z" fill="white" fill-opacity="0.78"/>
<g filter="url(#filter6_i_3_2917)">
<path d="M39 14H46V15H39M39 17H43V18H39M39 20H46V21H39" fill="black"/>
</g>
<path d="M39 14H46V15H39M39 17H43V18H39M39 20H46V21H39" fill="#F0B421"/>
<g filter="url(#filter7_i_3_2917)">
<path d="M23 25H15V27H23V25Z" fill="black"/>
</g>
<path d="M23 25H15V27H23V25Z" fill="white" fill-opacity="0.78"/>
<g filter="url(#filter8_i_3_2917)">
<path d="M15 29H22V30H15M15 32H19V33H15M15 35H22V36H15" fill="black"/>
</g>
<path d="M15 29H22V30H15M15 32H19V33H15M15 35H22V36H15" fill="#F0B421"/>
<g filter="url(#filter9_i_3_2917)">
<path d="M35 25H27V27H35V25Z" fill="black"/>
</g>
<path d="M35 25H27V27H35V25Z" fill="white" fill-opacity="0.78"/>
<g filter="url(#filter10_i_3_2917)">
<path d="M27 29H34V30H27M27 32H31V33H27M27 35H34V36H27" fill="black"/>
</g>
<path d="M27 29H34V30H27M27 32H31V33H27M27 35H34V36H27" fill="#F0B421"/>
<g filter="url(#filter11_i_3_2917)">
<path d="M47 25H39V27H47V25Z" fill="black"/>
</g>
<path d="M47 25H39V27H47V25Z" fill="white" fill-opacity="0.78"/>
<g filter="url(#filter12_i_3_2917)">
<path d="M39 29H46V30H39M39 32H43V33H39M39 35H46V36H39" fill="black"/>
</g>
<path d="M39 29H46V30H39M39 32H43V33H39M39 35H46V36H39" fill="#F0B421"/>
<path opacity="0.219" d="M68 10H51V39H68V10Z" fill="#D8D8D8"/>
<path d="M64.5 16H54.5C54.2239 16 54 16.2239 54 16.5V25.5C54 25.7761 54.2239 26 54.5 26H64.5C64.7761 26 65 25.7761 65 25.5V16.5C65 16.2239 64.7761 16 64.5 16Z" fill="white"/>
<mask id="mask0_3_2917" style="mask-type:alpha" maskUnits="userSpaceOnUse" x="54" y="16" width="11" height="10">
<path d="M64.25 16.233H54.75C54.4739 16.233 54.25 16.4569 54.25 16.733V25.268C54.25 25.5441 54.4739 25.768 54.75 25.768H64.25C64.5261 25.768 64.75 25.5441 64.75 25.268V16.733C64.75 16.4569 64.5261 16.233 64.25 16.233Z" fill="white"/>
</mask>
<g mask="url(#mask0_3_2917)">
<path d="M64.25 16.233H54.75C54.4739 16.233 54.25 16.4569 54.25 16.733V25.268C54.25 25.5441 54.4739 25.768 54.75 25.768H64.25C64.5261 25.768 64.75 25.5441 64.75 25.268V16.733C64.75 16.4569 64.5261 16.233 64.25 16.233Z" fill="#79D1F2"/>
<path d="M63.875 20.419C64.9105 20.419 65.75 19.6382 65.75 18.675C65.75 17.7118 64.9105 16.931 63.875 16.931C62.8395 16.931 62 17.7118 62 18.675C62 19.6382 62.8395 20.419 63.875 20.419Z" fill="#F3EC60"/>
<path d="M66.875 30.186C70.1197 30.186 72.75 28.6244 72.75 26.698C72.75 24.7716 70.1197 23.21 66.875 23.21C63.6303 23.21 61 24.7716 61 26.698C61 28.6244 63.6303 30.186 66.875 30.186Z" fill="url(#paint2_linear_3_2917)"/>
<path d="M54.375 32.279C59.5527 32.279 63.75 29.8322 63.75 26.814C63.75 23.7958 59.5527 21.349 54.375 21.349C49.1973 21.349 45 23.7958 45 26.814C45 29.8322 49.1973 32.279 54.375 32.279Z" fill="url(#paint3_linear_3_2917)"/>
</g>
<path fill-rule="evenodd" clip-rule="evenodd" d="M64.5 16C64.7761 16 65 16.2239 65 16.5V25.5C65 25.7761 64.7761 26 64.5 26H54.5C54.2239 26 54 25.7761 54 25.5V16.5C54 16.2239 54.2239 16 54.5 16H64.5ZM54 17H54.5C54.7761 17 55 17.2239 55 17.5V24.5C55 24.7761 55.2239 25 55.5 25H63.5C63.7761 25 64 24.7761 64 24.5V17.5C64 17.2239 63.7761 17 63.5 17H54Z" fill="white"/>
<g filter="url(#filter13_i_3_2917)">
<path d="M63.5 29H55.5C55.2239 29 55 29.2239 55 29.5V30.5C55 30.7761 55.2239 31 55.5 31H63.5C63.7761 31 64 30.7761 64 30.5V29.5C64 29.2239 63.7761 29 63.5 29Z" fill="black"/>
</g>
<path d="M63.5 29H55.5C55.2239 29 55 29.2239 55 29.5V30.5C55 30.7761 55.2239 31 55.5 31H63.5C63.7761 31 64 30.7761 64 30.5V29.5C64 29.2239 63.7761 29 63.5 29Z" fill="white" fill-opacity="0.78"/>
<path opacity="0.219" d="M68 39H15V40H68V39Z" fill="#D8D8D8"/>
<path d="M20.5 43H15.5C15.2239 43 15 43.2239 15 43.5V48.5C15 48.7761 15.2239 49 15.5 49H20.5C20.7761 49 21 48.7761 21 48.5V43.5C21 43.2239 20.7761 43 20.5 43Z" fill="white"/>
<mask id="mask1_3_2917" style="mask-type:alpha" maskUnits="userSpaceOnUse" x="15" y="43" width="7" height="7">
<path d="M21.285 43.233H15.75C15.4739 43.233 15.25 43.4569 15.25 43.733V49.268C15.25 49.5441 15.4739 49.768 15.75 49.768H21.285C21.5611 49.768 21.785 49.5441 21.785 49.268V43.733C21.785 43.4569 21.5611 43.233 21.285 43.233Z" fill="white"/>
</mask>
<g mask="url(#mask1_3_2917)">
<path d="M21.285 43.233H15.75C15.4739 43.233 15.25 43.4569 15.25 43.733V49.268C15.25 49.5441 15.4739 49.768 15.75 49.768H21.285C21.5611 49.768 21.785 49.5441 21.785 49.268V43.733C21.785 43.4569 21.5611 43.233 21.285 43.233Z" fill="#79D1F2"/>
<path d="M20.875 47.419C21.9105 47.419 22.75 46.6382 22.75 45.675C22.75 44.7118 21.9105 43.931 20.875 43.931C19.8395 43.931 19 44.7118 19 45.675C19 46.6382 19.8395 47.419 20.875 47.419Z" fill="#F3EC60"/>
<path d="M15.375 58.279C20.5527 58.279 24.75 55.8322 24.75 52.814C24.75 49.7958 20.5527 47.349 15.375 47.349C10.1973 47.349 6 49.7958 6 52.814C6 55.8322 10.1973 58.279 15.375 58.279Z" fill="url(#paint4_linear_3_2917)"/>
</g>
<path fill-rule="evenodd" clip-rule="evenodd" d="M21.5 43C21.7761 43 22 43.2239 22 43.5V49.5C22 49.7761 21.7761 50 21.5 50H15.5C15.2239 50 15 49.7761 15 49.5V43.5C15 43.2239 15.2239 43 15.5 43H21.5ZM21 44.5C21 44.2239 20.7761 44 20.5 44H16.5C16.2239 44 16 44.2239 16 44.5V48.5C16 48.7761 16.2239 49 16.5 49H20.5C20.7761 49 21 48.7761 21 48.5V44.5Z" fill="white"/>
<path d="M35.5 43H30.5C30.2239 43 30 43.2239 30 43.5V48.5C30 48.7761 30.2239 49 30.5 49H35.5C35.7761 49 36 48.7761 36 48.5V43.5C36 43.2239 35.7761 43 35.5 43Z" fill="white"/>
<mask id="mask2_3_2917" style="mask-type:alpha" maskUnits="userSpaceOnUse" x="30" y="43" width="7" height="7">
<path d="M36.285 43.233H30.75C30.4739 43.233 30.25 43.4569 30.25 43.733V49.268C30.25 49.5441 30.4739 49.768 30.75 49.768H36.285C36.5611 49.768 36.785 49.5441 36.785 49.268V43.733C36.785 43.4569 36.5611 43.233 36.285 43.233Z" fill="white"/>
</mask>
<g mask="url(#mask2_3_2917)">
<path d="M36.285 43.233H30.75C30.4739 43.233 30.25 43.4569 30.25 43.733V49.268C30.25 49.5441 30.4739 49.768 30.75 49.768H36.285C36.5611 49.768 36.785 49.5441 36.785 49.268V43.733C36.785 43.4569 36.5611 43.233 36.285 43.233Z" fill="#79D1F2"/>
<path d="M35.875 47.419C36.9105 47.419 37.75 46.6382 37.75 45.675C37.75 44.7118 36.9105 43.931 35.875 43.931C34.8395 43.931 34 44.7118 34 45.675C34 46.6382 34.8395 47.419 35.875 47.419Z" fill="#F3EC60"/>
<path d="M30.375 58.279C35.5527 58.279 39.75 55.8322 39.75 52.814C39.75 49.7958 35.5527 47.349 30.375 47.349C25.1973 47.349 21 49.7958 21 52.814C21 55.8322 25.1973 58.279 30.375 58.279Z" fill="url(#paint5_linear_3_2917)"/>
</g>
<path fill-rule="evenodd" clip-rule="evenodd" d="M36.5 43C36.7761 43 37 43.2239 37 43.5V49.5C37 49.7761 36.7761 50 36.5 50H30.5C30.2239 50 30 49.7761 30 49.5V43.5C30 43.2239 30.2239 43 30.5 43H36.5ZM36 44.5C36 44.2239 35.7761 44 35.5 44H31.5C31.2239 44 31 44.2239 31 44.5V48.5C31 48.7761 31.2239 49 31.5 49H35.5C35.7761 49 36 48.7761 36 48.5V44.5Z" fill="white"/>
<path d="M51.5 43H46.5C46.2239 43 46 43.2239 46 43.5V48.5C46 48.7761 46.2239 49 46.5 49H51.5C51.7761 49 52 48.7761 52 48.5V43.5C52 43.2239 51.7761 43 51.5 43Z" fill="white"/>
<mask id="mask3_3_2917" style="mask-type:alpha" maskUnits="userSpaceOnUse" x="46" y="43" width="7" height="7">
<path d="M52.285 43.233H46.75C46.4739 43.233 46.25 43.4569 46.25 43.733V49.268C46.25 49.5441 46.4739 49.768 46.75 49.768H52.285C52.5611 49.768 52.785 49.5441 52.785 49.268V43.733C52.785 43.4569 52.5611 43.233 52.285 43.233Z" fill="white"/>
</mask>
<g mask="url(#mask3_3_2917)">
<path d="M52.285 43.233H46.75C46.4739 43.233 46.25 43.4569 46.25 43.733V49.268C46.25 49.5441 46.4739 49.768 46.75 49.768H52.285C52.5611 49.768 52.785 49.5441 52.785 49.268V43.733C52.785 43.4569 52.5611 43.233 52.285 43.233Z" fill="#79D1F2"/>
<path d="M51.875 47.419C52.9105 47.419 53.75 46.6382 53.75 45.675C53.75 44.7118 52.9105 43.931 51.875 43.931C50.8395 43.931 50 44.7118 50 45.675C50 46.6382 50.8395 47.419 51.875 47.419Z" fill="#F3EC60"/>
<path d="M46.375 58.279C51.5527 58.279 55.75 55.8322 55.75 52.814C55.75 49.7958 51.5527 47.349 46.375 47.349C41.1973 47.349 37 49.7958 37 52.814C37 55.8322 41.1973 58.279 46.375 58.279Z" fill="url(#paint6_linear_3_2917)"/>
</g>
<path fill-rule="evenodd" clip-rule="evenodd" d="M52.5 43C52.7761 43 53 43.2239 53 43.5V49.5C53 49.7761 52.7761 50 52.5 50H46.5C46.2239 50 46 49.7761 46 49.5V43.5C46 43.2239 46.2239 43 46.5 43H52.5ZM52 44.5C52 44.2239 51.7761 44 51.5 44H47.5C47.2239 44 47 44.2239 47 44.5V48.5C47 48.7761 47.2239 49 47.5 49H51.5C51.7761 49 52 48.7761 52 48.5V44.5Z" fill="white"/>
<path d="M66.5 43H61.5C61.2239 43 61 43.2239 61 43.5V48.5C61 48.7761 61.2239 49 61.5 49H66.5C66.7761 49 67 48.7761 67 48.5V43.5C67 43.2239 66.7761 43 66.5 43Z" fill="white"/>
<mask id="mask4_3_2917" style="mask-type:alpha" maskUnits="userSpaceOnUse" x="61" y="43" width="7" height="7">
<path d="M67.285 43.233H61.75C61.4739 43.233 61.25 43.4569 61.25 43.733V49.268C61.25 49.5441 61.4739 49.768 61.75 49.768H67.285C67.5611 49.768 67.785 49.5441 67.785 49.268V43.733C67.785 43.4569 67.5611 43.233 67.285 43.233Z" fill="white"/>
</mask>
<g mask="url(#mask4_3_2917)">
<path d="M67.285 43.233H61.75C61.4739 43.233 61.25 43.4569 61.25 43.733V49.268C61.25 49.5441 61.4739 49.768 61.75 49.768H67.285C67.5611 49.768 67.785 49.5441 67.785 49.268V43.733C67.785 43.4569 67.5611 43.233 67.285 43.233Z" fill="#79D1F2"/>
<path d="M66.875 47.419C67.9105 47.419 68.75 46.6382 68.75 45.675C68.75 44.7118 67.9105 43.931 66.875 43.931C65.8395 43.931 65 44.7118 65 45.675C65 46.6382 65.8395 47.419 66.875 47.419Z" fill="#F3EC60"/>
<path d="M61.375 58.279C66.5527 58.279 70.75 55.8322 70.75 52.814C70.75 49.7958 66.5527 47.349 61.375 47.349C56.1973 47.349 52 49.7958 52 52.814C52 55.8322 56.1973 58.279 61.375 58.279Z" fill="url(#paint7_linear_3_2917)"/>
</g>
<path fill-rule="evenodd" clip-rule="evenodd" d="M67.5 43C67.7761 43 68 43.2239 68 43.5V49.5C68 49.7761 67.7761 50 67.5 50H61.5C61.2239 50 61 49.7761 61 49.5V43.5C61 43.2239 61.2239 43 61.5 43H67.5ZM67 44.5C67 44.2239 66.7761 44 66.5 44H62.5C62.2239 44 62 44.2239 62 44.5V48.5C62 48.7761 62.2239 49 62.5 49H66.5C66.7761 49 67 48.7761 67 48.5V44.5Z" fill="white"/>
</g>
</g>
<defs>
<filter id="filter0_b_3_2917" x="-4" y="-4" width="90" height="68" filterUnits="userSpaceOnUse" color-interpolation-filters="sRGB">
<feFlood flood-opacity="0" result="BackgroundImageFix"/>
<feGaussianBlur in="BackgroundImageFix" stdDeviation="2"/>
<feComposite in2="SourceAlpha" operator="in" result="effect1_backgroundBlur_3_2917"/>
<feBlend mode="normal" in="SourceGraphic" in2="effect1_backgroundBlur_3_2917" result="shape"/>
</filter>
<filter id="filter1_i_3_2917" x="15" y="10" width="8" height="3" filterUnits="userSpaceOnUse" color-interpolation-filters="sRGB">
<feFlood flood-opacity="0" result="BackgroundImageFix"/>
<feBlend mode="normal" in="SourceGraphic" in2="BackgroundImageFix" result="shape"/>
<feColorMatrix in="SourceAlpha" type="matrix" values="0 0 0 0 0 0 0 0 0 0 0 0 0 0 0 0 0 0 127 0" result="hardAlpha"/>
<feOffset dy="1"/>
<feGaussianBlur stdDeviation="2"/>
<feComposite in2="hardAlpha" operator="arithmetic" k2="-1" k3="1"/>
<feColorMatrix type="matrix" values="0 0 0 0 1 0 0 0 0 1 0 0 0 0 1 0 0 0 0.292013 0"/>
<feBlend mode="normal" in2="shape" result="effect1_innerShadow_3_2917"/>
</filter>
<filter id="filter2_i_3_2917" x="15" y="14" width="7" height="8" filterUnits="userSpaceOnUse" color-interpolation-filters="sRGB">
<feFlood flood-opacity="0" result="BackgroundImageFix"/>
<feBlend mode="normal" in="SourceGraphic" in2="BackgroundImageFix" result="shape"/>
<feColorMatrix in="SourceAlpha" type="matrix" values="0 0 0 0 0 0 0 0 0 0 0 0 0 0 0 0 0 0 127 0" result="hardAlpha"/>
<feOffset dy="1"/>
<feGaussianBlur stdDeviation="2"/>
<feComposite in2="hardAlpha" operator="arithmetic" k2="-1" k3="1"/>
<feColorMatrix type="matrix" values="0 0 0 0 1 0 0 0 0 1 0 0 0 0 1 0 0 0 0.0995138 0"/>
<feBlend mode="normal" in2="shape" result="effect1_innerShadow_3_2917"/>
</filter>
<filter id="filter3_i_3_2917" x="27" y="10" width="8" height="3" filterUnits="userSpaceOnUse" color-interpolation-filters="sRGB">
<feFlood flood-opacity="0" result="BackgroundImageFix"/>
<feBlend mode="normal" in="SourceGraphic" in2="BackgroundImageFix" result="shape"/>
<feColorMatrix in="SourceAlpha" type="matrix" values="0 0 0 0 0 0 0 0 0 0 0 0 0 0 0 0 0 0 127 0" result="hardAlpha"/>
<feOffset dy="1"/>
<feGaussianBlur stdDeviation="2"/>
<feComposite in2="hardAlpha" operator="arithmetic" k2="-1" k3="1"/>
<feColorMatrix type="matrix" values="0 0 0 0 1 0 0 0 0 1 0 0 0 0 1 0 0 0 0.292013 0"/>
<feBlend mode="normal" in2="shape" result="effect1_innerShadow_3_2917"/>
</filter>
<filter id="filter4_i_3_2917" x="27" y="14" width="7" height="8" filterUnits="userSpaceOnUse" color-interpolation-filters="sRGB">
<feFlood flood-opacity="0" result="BackgroundImageFix"/>
<feBlend mode="normal" in="SourceGraphic" in2="BackgroundImageFix" result="shape"/>
<feColorMatrix in="SourceAlpha" type="matrix" values="0 0 0 0 0 0 0 0 0 0 0 0 0 0 0 0 0 0 127 0" result="hardAlpha"/>
<feOffset dy="1"/>
<feGaussianBlur stdDeviation="2"/>
<feComposite in2="hardAlpha" operator="arithmetic" k2="-1" k3="1"/>
<feColorMatrix type="matrix" values="0 0 0 0 1 0 0 0 0 1 0 0 0 0 1 0 0 0 0.0995138 0"/>
<feBlend mode="normal" in2="shape" result="effect1_innerShadow_3_2917"/>
</filter>
<filter id="filter5_i_3_2917" x="39" y="10" width="8" height="3" filterUnits="userSpaceOnUse" color-interpolation-filters="sRGB">
<feFlood flood-opacity="0" result="BackgroundImageFix"/>
<feBlend mode="normal" in="SourceGraphic" in2="BackgroundImageFix" result="shape"/>
<feColorMatrix in="SourceAlpha" type="matrix" values="0 0 0 0 0 0 0 0 0 0 0 0 0 0 0 0 0 0 127 0" result="hardAlpha"/>
<feOffset dy="1"/>
<feGaussianBlur stdDeviation="2"/>
<feComposite in2="hardAlpha" operator="arithmetic" k2="-1" k3="1"/>
<feColorMatrix type="matrix" values="0 0 0 0 1 0 0 0 0 1 0 0 0 0 1 0 0 0 0.292013 0"/>
<feBlend mode="normal" in2="shape" result="effect1_innerShadow_3_2917"/>
</filter>
<filter id="filter6_i_3_2917" x="39" y="14" width="7" height="8" filterUnits="userSpaceOnUse" color-interpolation-filters="sRGB">
<feFlood flood-opacity="0" result="BackgroundImageFix"/>
<feBlend mode="normal" in="SourceGraphic" in2="BackgroundImageFix" result="shape"/>
<feColorMatrix in="SourceAlpha" type="matrix" values="0 0 0 0 0 0 0 0 0 0 0 0 0 0 0 0 0 0 127 0" result="hardAlpha"/>
<feOffset dy="1"/>
<feGaussianBlur stdDeviation="2"/>
<feComposite in2="hardAlpha" operator="arithmetic" k2="-1" k3="1"/>
<feColorMatrix type="matrix" values="0 0 0 0 1 0 0 0 0 1 0 0 0 0 1 0 0 0 0.0995138 0"/>
<feBlend mode="normal" in2="shape" result="effect1_innerShadow_3_2917"/>
</filter>
<filter id="filter7_i_3_2917" x="15" y="25" width="8" height="3" filterUnits="userSpaceOnUse" color-interpolation-filters="sRGB">
<feFlood flood-opacity="0" result="BackgroundImageFix"/>
<feBlend mode="normal" in="SourceGraphic" in2="BackgroundImageFix" result="shape"/>
<feColorMatrix in="SourceAlpha" type="matrix" values="0 0 0 0 0 0 0 0 0 0 0 0 0 0 0 0 0 0 127 0" result="hardAlpha"/>
<feOffset dy="1"/>
<feGaussianBlur stdDeviation="2"/>
<feComposite in2="hardAlpha" operator="arithmetic" k2="-1" k3="1"/>
<feColorMatrix type="matrix" values="0 0 0 0 1 0 0 0 0 1 0 0 0 0 1 0 0 0 0.292013 0"/>
<feBlend mode="normal" in2="shape" result="effect1_innerShadow_3_2917"/>
</filter>
<filter id="filter8_i_3_2917" x="15" y="29" width="7" height="8" filterUnits="userSpaceOnUse" color-interpolation-filters="sRGB">
<feFlood flood-opacity="0" result="BackgroundImageFix"/>
<feBlend mode="normal" in="SourceGraphic" in2="BackgroundImageFix" result="shape"/>
<feColorMatrix in="SourceAlpha" type="matrix" values="0 0 0 0 0 0 0 0 0 0 0 0 0 0 0 0 0 0 127 0" result="hardAlpha"/>
<feOffset dy="1"/>
<feGaussianBlur stdDeviation="2"/>
<feComposite in2="hardAlpha" operator="arithmetic" k2="-1" k3="1"/>
<feColorMatrix type="matrix" values="0 0 0 0 1 0 0 0 0 1 0 0 0 0 1 0 0 0 0.0995138 0"/>
<feBlend mode="normal" in2="shape" result="effect1_innerShadow_3_2917"/>
</filter>
<filter id="filter9_i_3_2917" x="27" y="25" width="8" height="3" filterUnits="userSpaceOnUse" color-interpolation-filters="sRGB">
<feFlood flood-opacity="0" result="BackgroundImageFix"/>
<feBlend mode="normal" in="SourceGraphic" in2="BackgroundImageFix" result="shape"/>
<feColorMatrix in="SourceAlpha" type="matrix" values="0 0 0 0 0 0 0 0 0 0 0 0 0 0 0 0 0 0 127 0" result="hardAlpha"/>
<feOffset dy="1"/>
<feGaussianBlur stdDeviation="2"/>
<feComposite in2="hardAlpha" operator="arithmetic" k2="-1" k3="1"/>
<feColorMatrix type="matrix" values="0 0 0 0 1 0 0 0 0 1 0 0 0 0 1 0 0 0 0.292013 0"/>
<feBlend mode="normal" in2="shape" result="effect1_innerShadow_3_2917"/>
</filter>
<filter id="filter10_i_3_2917" x="27" y="29" width="7" height="8" filterUnits="userSpaceOnUse" color-interpolation-filters="sRGB">
<feFlood flood-opacity="0" result="BackgroundImageFix"/>
<feBlend mode="normal" in="SourceGraphic" in2="BackgroundImageFix" result="shape"/>
<feColorMatrix in="SourceAlpha" type="matrix" values="0 0 0 0 0 0 0 0 0 0 0 0 0 0 0 0 0 0 127 0" result="hardAlpha"/>
<feOffset dy="1"/>
<feGaussianBlur stdDeviation="2"/>
<feComposite in2="hardAlpha" operator="arithmetic" k2="-1" k3="1"/>
<feColorMatrix type="matrix" values="0 0 0 0 1 0 0 0 0 1 0 0 0 0 1 0 0 0 0.0995138 0"/>
<feBlend mode="normal" in2="shape" result="effect1_innerShadow_3_2917"/>
</filter>
<filter id="filter11_i_3_2917" x="39" y="25" width="8" height="3" filterUnits="userSpaceOnUse" color-interpolation-filters="sRGB">
<feFlood flood-opacity="0" result="BackgroundImageFix"/>
<feBlend mode="normal" in="SourceGraphic" in2="BackgroundImageFix" result="shape"/>
<feColorMatrix in="SourceAlpha" type="matrix" values="0 0 0 0 0 0 0 0 0 0 0 0 0 0 0 0 0 0 127 0" result="hardAlpha"/>
<feOffset dy="1"/>
<feGaussianBlur stdDeviation="2"/>
<feComposite in2="hardAlpha" operator="arithmetic" k2="-1" k3="1"/>
<feColorMatrix type="matrix" values="0 0 0 0 1 0 0 0 0 1 0 0 0 0 1 0 0 0 0.292013 0"/>
<feBlend mode="normal" in2="shape" result="effect1_innerShadow_3_2917"/>
</filter>
<filter id="filter12_i_3_2917" x="39" y="29" width="7" height="8" filterUnits="userSpaceOnUse" color-interpolation-filters="sRGB">
<feFlood flood-opacity="0" result="BackgroundImageFix"/>
<feBlend mode="normal" in="SourceGraphic" in2="BackgroundImageFix" result="shape"/>
<feColorMatrix in="SourceAlpha" type="matrix" values="0 0 0 0 0 0 0 0 0 0 0 0 0 0 0 0 0 0 127 0" result="hardAlpha"/>
<feOffset dy="1"/>
<feGaussianBlur stdDeviation="2"/>
<feComposite in2="hardAlpha" operator="arithmetic" k2="-1" k3="1"/>
<feColorMatrix type="matrix" values="0 0 0 0 1 0 0 0 0 1 0 0 0 0 1 0 0 0 0.0995138 0"/>
<feBlend mode="normal" in2="shape" result="effect1_innerShadow_3_2917"/>
</filter>
<filter id="filter13_i_3_2917" x="55" y="29" width="9" height="3" filterUnits="userSpaceOnUse" color-interpolation-filters="sRGB">
<feFlood flood-opacity="0" result="BackgroundImageFix"/>
<feBlend mode="normal" in="SourceGraphic" in2="BackgroundImageFix" result="shape"/>
<feColorMatrix in="SourceAlpha" type="matrix" values="0 0 0 0 0 0 0 0 0 0 0 0 0 0 0 0 0 0 127 0" result="hardAlpha"/>
<feOffset dy="1"/>
<feGaussianBlur stdDeviation="2"/>
<feComposite in2="hardAlpha" operator="arithmetic" k2="-1" k3="1"/>
<feColorMatrix type="matrix" values="0 0 0 0 1 0 0 0 0 1 0 0 0 0 1 0 0 0 0.292013 0"/>
<feBlend mode="normal" in2="shape" result="effect1_innerShadow_3_2917"/>
</filter>
<linearGradient id="paint0_linear_3_2917" x1="41" y1="0" x2="41" y2="60" gradientUnits="userSpaceOnUse">
<stop stop-color="#F2F2F2" stop-opacity="0.23"/>
<stop offset="1" stop-color="white" stop-opacity="0"/>
</linearGradient>
<radialGradient id="paint1_radial_3_2917" cx="0" cy="0" r="1" gradientUnits="userSpaceOnUse" gradientTransform="translate(41 30) rotate(90) scale(30 41)">
<stop stop-color="#F2F2F2"/>
<stop offset="1" stop-opacity="0.25"/>
</radialGradient>
<linearGradient id="paint2_linear_3_2917" x1="69.5628" y1="26.4681" x2="66.393" y2="24.569" gradientUnits="userSpaceOnUse">
<stop stop-color="#22A5E2"/>
<stop offset="1" stop-color="#199BE2"/>
</linearGradient>
<linearGradient id="paint3_linear_3_2917" x1="61.5969" y1="25.7272" x2="55.1567" y2="28.5792" gradientUnits="userSpaceOnUse">
<stop stop-color="#00AA89"/>
<stop offset="1" stop-color="#009989"/>
</linearGradient>
<linearGradient id="paint4_linear_3_2917" x1="22.5969" y1="51.7272" x2="16.1567" y2="54.5792" gradientUnits="userSpaceOnUse">
<stop stop-color="#00AA89"/>
<stop offset="1" stop-color="#009989"/>
</linearGradient>
<linearGradient id="paint5_linear_3_2917" x1="37.5969" y1="51.7272" x2="31.1567" y2="54.5792" gradientUnits="userSpaceOnUse">
<stop stop-color="#00AA89"/>
<stop offset="1" stop-color="#009989"/>
</linearGradient>
<linearGradient id="paint6_linear_3_2917" x1="53.5969" y1="51.7272" x2="47.1567" y2="54.5792" gradientUnits="userSpaceOnUse">
<stop stop-color="#00AA89"/>
<stop offset="1" stop-color="#009989"/>
</linearGradient>
<linearGradient id="paint7_linear_3_2917" x1="68.5969" y1="51.7272" x2="62.1567" y2="54.5792" gradientUnits="userSpaceOnUse">
<stop stop-color="#00AA89"/>
<stop offset="1" stop-color="#009989"/>
</linearGradient>
<clipPath id="clip0_3_2917">
<rect width="82" height="60" rx="3" fill="white"/>
</clipPath>
</defs>
</svg>
