<svg width="82" height="60" viewBox="0 0 82 60" fill="none" xmlns="http://www.w3.org/2000/svg">
<g filter="url(#filter0_b_3_2676)">
<g clip-path="url(#clip0_3_2676)">
<rect width="82" height="60" rx="3" fill="url(#paint0_linear_3_2676)"/>
<rect width="82" height="60" rx="3" fill="url(#paint1_radial_3_2676)" fill-opacity="0.2"/>
<rect width="82" height="60" rx="3" fill="white" fill-opacity="0.2"/>
<path d="M29 9H15V16H29V9Z" fill="white"/>
<mask id="mask0_3_2676" style="mask-type:alpha" maskUnits="userSpaceOnUse" x="15" y="9" width="14" height="7">
<path d="M28.472 9.47H15.472V15.47H28.472V9.47Z" fill="white"/>
</mask>
<g mask="url(#mask0_3_2676)">
<path d="M28.472 9.47H15.472V15.47H28.472V9.47Z" fill="#79D1F2"/>
<path d="M25.991 13.258C27.4236 13.258 28.585 12.1862 28.585 10.864C28.585 9.54183 27.4236 8.47 25.991 8.47C24.5583 8.47 23.397 9.54183 23.397 10.864C23.397 12.1862 24.5583 13.258 25.991 13.258Z" fill="#F3EC60"/>
<path d="M26.293 24.058C32.4151 24.058 37.378 21.4245 37.378 18.176C37.378 14.9275 32.4151 12.294 26.293 12.294C20.1709 12.294 15.208 14.9275 15.208 18.176C15.208 21.4245 20.1709 24.058 26.293 24.058Z" fill="url(#paint2_linear_3_2676)"/>
<path d="M4.48998 27.941C18.8593 27.941 30.508 24.1484 30.508 19.47C30.508 14.7916 18.8593 10.999 4.48998 10.999C-9.87936 10.999 -21.528 14.7916 -21.528 19.47C-21.528 24.1484 -9.87936 27.941 4.48998 27.941Z" fill="url(#paint3_linear_3_2676)"/>
</g>
<path fill-rule="evenodd" clip-rule="evenodd" d="M29 9V16H15V9H29ZM29 10H16V15H28V10H29Z" fill="white"/>
<g filter="url(#filter1_i_3_2676)">
<path d="M29 19H15V21H29V19Z" fill="black"/>
</g>
<path d="M29 19H15V21H29V19Z" fill="white" fill-opacity="0.78"/>
<g filter="url(#filter2_i_3_2676)">
<path d="M27 26V27H17V26H27ZM29 23V24H15V23H29Z" fill="black"/>
</g>
<path d="M27 26V27H17V26H27ZM29 23V24H15V23H29Z" fill="#F0B421"/>
<path d="M48 9H34V16H48V9Z" fill="white"/>
<mask id="mask1_3_2676" style="mask-type:alpha" maskUnits="userSpaceOnUse" x="34" y="9" width="14" height="7">
<path d="M47.472 9.47H34.472V15.47H47.472V9.47Z" fill="white"/>
</mask>
<g mask="url(#mask1_3_2676)">
<path d="M47.472 9.47H34.472V15.47H47.472V9.47Z" fill="#79D1F2"/>
<path d="M44.991 13.258C46.4236 13.258 47.585 12.1862 47.585 10.864C47.585 9.54183 46.4236 8.47 44.991 8.47C43.5583 8.47 42.397 9.54183 42.397 10.864C42.397 12.1862 43.5583 13.258 44.991 13.258Z" fill="#F3EC60"/>
<path d="M45.293 24.058C51.4151 24.058 56.378 21.4245 56.378 18.176C56.378 14.9275 51.4151 12.294 45.293 12.294C39.1709 12.294 34.208 14.9275 34.208 18.176C34.208 21.4245 39.1709 24.058 45.293 24.058Z" fill="url(#paint4_linear_3_2676)"/>
<path d="M23.49 27.941C37.8593 27.941 49.508 24.1484 49.508 19.47C49.508 14.7916 37.8593 10.999 23.49 10.999C9.12064 10.999 -2.52802 14.7916 -2.52802 19.47C-2.52802 24.1484 9.12064 27.941 23.49 27.941Z" fill="url(#paint5_linear_3_2676)"/>
</g>
<path fill-rule="evenodd" clip-rule="evenodd" d="M48 9V16H34V9H48ZM48 10H35V15H47V10H48Z" fill="white"/>
<g filter="url(#filter3_i_3_2676)">
<path d="M48 19H34V21H48V19Z" fill="black"/>
</g>
<path d="M48 19H34V21H48V19Z" fill="white" fill-opacity="0.78"/>
<g filter="url(#filter4_i_3_2676)">
<path d="M46 26V27H36V26H46ZM48 23V24H34V23H48Z" fill="black"/>
</g>
<path d="M46 26V27H36V26H46ZM48 23V24H34V23H48Z" fill="#F0B421"/>
<path d="M68 9H54V16H68V9Z" fill="white"/>
<mask id="mask2_3_2676" style="mask-type:alpha" maskUnits="userSpaceOnUse" x="54" y="9" width="14" height="7">
<path d="M67.472 9.47H54.472V15.47H67.472V9.47Z" fill="white"/>
</mask>
<g mask="url(#mask2_3_2676)">
<path d="M67.472 9.47H54.472V15.47H67.472V9.47Z" fill="#79D1F2"/>
<path d="M64.991 13.258C66.4236 13.258 67.585 12.1862 67.585 10.864C67.585 9.54183 66.4236 8.47 64.991 8.47C63.5583 8.47 62.397 9.54183 62.397 10.864C62.397 12.1862 63.5583 13.258 64.991 13.258Z" fill="#F3EC60"/>
<path d="M65.293 24.058C71.4151 24.058 76.378 21.4245 76.378 18.176C76.378 14.9275 71.4151 12.294 65.293 12.294C59.1709 12.294 54.208 14.9275 54.208 18.176C54.208 21.4245 59.1709 24.058 65.293 24.058Z" fill="url(#paint6_linear_3_2676)"/>
<path d="M43.49 27.941C57.8593 27.941 69.508 24.1484 69.508 19.47C69.508 14.7916 57.8593 10.999 43.49 10.999C29.1206 10.999 17.472 14.7916 17.472 19.47C17.472 24.1484 29.1206 27.941 43.49 27.941Z" fill="url(#paint7_linear_3_2676)"/>
</g>
<path fill-rule="evenodd" clip-rule="evenodd" d="M68 9V16H54V9H68ZM68 10H55V15H67V10H68Z" fill="white"/>
<g filter="url(#filter5_i_3_2676)">
<path d="M68 19H54V21H68V19Z" fill="black"/>
</g>
<path d="M68 19H54V21H68V19Z" fill="white" fill-opacity="0.78"/>
<g filter="url(#filter6_i_3_2676)">
<path d="M66 26V27H56V26H66ZM68 23V24H54V23H68Z" fill="black"/>
</g>
<path d="M66 26V27H56V26H66ZM68 23V24H54V23H68Z" fill="#F0B421"/>
<path d="M29 32H15V39H29V32Z" fill="white"/>
<mask id="mask3_3_2676" style="mask-type:alpha" maskUnits="userSpaceOnUse" x="15" y="32" width="14" height="7">
<path d="M28.472 32.47H15.472V38.47H28.472V32.47Z" fill="white"/>
</mask>
<g mask="url(#mask3_3_2676)">
<path d="M28.472 32.47H15.472V38.47H28.472V32.47Z" fill="#79D1F2"/>
<path d="M25.991 36.258C27.4236 36.258 28.585 35.1862 28.585 33.864C28.585 32.5418 27.4236 31.47 25.991 31.47C24.5583 31.47 23.397 32.5418 23.397 33.864C23.397 35.1862 24.5583 36.258 25.991 36.258Z" fill="#F3EC60"/>
<path d="M26.293 47.058C32.4151 47.058 37.378 44.4245 37.378 41.176C37.378 37.9275 32.4151 35.294 26.293 35.294C20.1709 35.294 15.208 37.9275 15.208 41.176C15.208 44.4245 20.1709 47.058 26.293 47.058Z" fill="url(#paint8_linear_3_2676)"/>
<path d="M4.48998 50.941C18.8593 50.941 30.508 47.1484 30.508 42.47C30.508 37.7916 18.8593 33.999 4.48998 33.999C-9.87936 33.999 -21.528 37.7916 -21.528 42.47C-21.528 47.1484 -9.87936 50.941 4.48998 50.941Z" fill="url(#paint9_linear_3_2676)"/>
</g>
<path fill-rule="evenodd" clip-rule="evenodd" d="M29 32V39H15V32H29ZM29 33H16V38H28V33H29Z" fill="white"/>
<g filter="url(#filter7_i_3_2676)">
<path d="M29 42H15V44H29V42Z" fill="black"/>
</g>
<path d="M29 42H15V44H29V42Z" fill="white" fill-opacity="0.78"/>
<g filter="url(#filter8_i_3_2676)">
<path d="M27 49V50H17V49H27ZM29 46V47H15V46H29Z" fill="black"/>
</g>
<path d="M27 49V50H17V49H27ZM29 46V47H15V46H29Z" fill="#F0B421"/>
<path d="M48 32H34V39H48V32Z" fill="white"/>
<mask id="mask4_3_2676" style="mask-type:alpha" maskUnits="userSpaceOnUse" x="34" y="32" width="14" height="7">
<path d="M47.472 32.47H34.472V38.47H47.472V32.47Z" fill="white"/>
</mask>
<g mask="url(#mask4_3_2676)">
<path d="M47.472 32.47H34.472V38.47H47.472V32.47Z" fill="#79D1F2"/>
<path d="M44.991 36.258C46.4236 36.258 47.585 35.1862 47.585 33.864C47.585 32.5418 46.4236 31.47 44.991 31.47C43.5583 31.47 42.397 32.5418 42.397 33.864C42.397 35.1862 43.5583 36.258 44.991 36.258Z" fill="#F3EC60"/>
<path d="M45.293 47.058C51.4151 47.058 56.378 44.4245 56.378 41.176C56.378 37.9275 51.4151 35.294 45.293 35.294C39.1709 35.294 34.208 37.9275 34.208 41.176C34.208 44.4245 39.1709 47.058 45.293 47.058Z" fill="url(#paint10_linear_3_2676)"/>
<path d="M23.49 50.941C37.8593 50.941 49.508 47.1484 49.508 42.47C49.508 37.7916 37.8593 33.999 23.49 33.999C9.12064 33.999 -2.52802 37.7916 -2.52802 42.47C-2.52802 47.1484 9.12064 50.941 23.49 50.941Z" fill="url(#paint11_linear_3_2676)"/>
</g>
<path fill-rule="evenodd" clip-rule="evenodd" d="M48 32V39H34V32H48ZM48 33H35V38H47V33H48Z" fill="white"/>
<g filter="url(#filter9_i_3_2676)">
<path d="M48 42H34V44H48V42Z" fill="black"/>
</g>
<path d="M48 42H34V44H48V42Z" fill="white" fill-opacity="0.78"/>
<g filter="url(#filter10_i_3_2676)">
<path d="M46 49V50H36V49H46ZM48 46V47H34V46H48Z" fill="black"/>
</g>
<path d="M46 49V50H36V49H46ZM48 46V47H34V46H48Z" fill="#F0B421"/>
<path d="M68 32H54V39H68V32Z" fill="white"/>
<mask id="mask5_3_2676" style="mask-type:alpha" maskUnits="userSpaceOnUse" x="54" y="32" width="14" height="7">
<path d="M67.472 32.47H54.472V38.47H67.472V32.47Z" fill="white"/>
</mask>
<g mask="url(#mask5_3_2676)">
<path d="M67.472 32.47H54.472V38.47H67.472V32.47Z" fill="#79D1F2"/>
<path d="M64.991 36.258C66.4236 36.258 67.585 35.1862 67.585 33.864C67.585 32.5418 66.4236 31.47 64.991 31.47C63.5583 31.47 62.397 32.5418 62.397 33.864C62.397 35.1862 63.5583 36.258 64.991 36.258Z" fill="#F3EC60"/>
<path d="M65.293 47.058C71.4151 47.058 76.378 44.4245 76.378 41.176C76.378 37.9275 71.4151 35.294 65.293 35.294C59.1709 35.294 54.208 37.9275 54.208 41.176C54.208 44.4245 59.1709 47.058 65.293 47.058Z" fill="url(#paint12_linear_3_2676)"/>
<path d="M43.49 50.941C57.8593 50.941 69.508 47.1484 69.508 42.47C69.508 37.7916 57.8593 33.999 43.49 33.999C29.1206 33.999 17.472 37.7916 17.472 42.47C17.472 47.1484 29.1206 50.941 43.49 50.941Z" fill="url(#paint13_linear_3_2676)"/>
</g>
<path fill-rule="evenodd" clip-rule="evenodd" d="M68 32V39H54V32H68ZM68 33H55V38H67V33H68Z" fill="white"/>
<g filter="url(#filter11_i_3_2676)">
<path d="M68 42H54V44H68V42Z" fill="black"/>
</g>
<path d="M68 42H54V44H68V42Z" fill="white" fill-opacity="0.78"/>
<g filter="url(#filter12_i_3_2676)">
<path d="M66 49V50H56V49H66ZM68 46V47H54V46H68Z" fill="black"/>
</g>
<path d="M66 49V50H56V49H66ZM68 46V47H54V46H68Z" fill="#F0B421"/>
</g>
</g>
<defs>
<filter id="filter0_b_3_2676" x="-4" y="-4" width="90" height="68" filterUnits="userSpaceOnUse" color-interpolation-filters="sRGB">
<feFlood flood-opacity="0" result="BackgroundImageFix"/>
<feGaussianBlur in="BackgroundImageFix" stdDeviation="2"/>
<feComposite in2="SourceAlpha" operator="in" result="effect1_backgroundBlur_3_2676"/>
<feBlend mode="normal" in="SourceGraphic" in2="effect1_backgroundBlur_3_2676" result="shape"/>
</filter>
<filter id="filter1_i_3_2676" x="15" y="19" width="14" height="3" filterUnits="userSpaceOnUse" color-interpolation-filters="sRGB">
<feFlood flood-opacity="0" result="BackgroundImageFix"/>
<feBlend mode="normal" in="SourceGraphic" in2="BackgroundImageFix" result="shape"/>
<feColorMatrix in="SourceAlpha" type="matrix" values="0 0 0 0 0 0 0 0 0 0 0 0 0 0 0 0 0 0 127 0" result="hardAlpha"/>
<feOffset dy="1"/>
<feGaussianBlur stdDeviation="2"/>
<feComposite in2="hardAlpha" operator="arithmetic" k2="-1" k3="1"/>
<feColorMatrix type="matrix" values="0 0 0 0 1 0 0 0 0 1 0 0 0 0 1 0 0 0 0.292013 0"/>
<feBlend mode="normal" in2="shape" result="effect1_innerShadow_3_2676"/>
</filter>
<filter id="filter2_i_3_2676" x="15" y="23" width="14" height="5" filterUnits="userSpaceOnUse" color-interpolation-filters="sRGB">
<feFlood flood-opacity="0" result="BackgroundImageFix"/>
<feBlend mode="normal" in="SourceGraphic" in2="BackgroundImageFix" result="shape"/>
<feColorMatrix in="SourceAlpha" type="matrix" values="0 0 0 0 0 0 0 0 0 0 0 0 0 0 0 0 0 0 127 0" result="hardAlpha"/>
<feOffset dy="1"/>
<feGaussianBlur stdDeviation="2"/>
<feComposite in2="hardAlpha" operator="arithmetic" k2="-1" k3="1"/>
<feColorMatrix type="matrix" values="0 0 0 0 1 0 0 0 0 1 0 0 0 0 1 0 0 0 0.0995138 0"/>
<feBlend mode="normal" in2="shape" result="effect1_innerShadow_3_2676"/>
</filter>
<filter id="filter3_i_3_2676" x="34" y="19" width="14" height="3" filterUnits="userSpaceOnUse" color-interpolation-filters="sRGB">
<feFlood flood-opacity="0" result="BackgroundImageFix"/>
<feBlend mode="normal" in="SourceGraphic" in2="BackgroundImageFix" result="shape"/>
<feColorMatrix in="SourceAlpha" type="matrix" values="0 0 0 0 0 0 0 0 0 0 0 0 0 0 0 0 0 0 127 0" result="hardAlpha"/>
<feOffset dy="1"/>
<feGaussianBlur stdDeviation="2"/>
<feComposite in2="hardAlpha" operator="arithmetic" k2="-1" k3="1"/>
<feColorMatrix type="matrix" values="0 0 0 0 1 0 0 0 0 1 0 0 0 0 1 0 0 0 0.292013 0"/>
<feBlend mode="normal" in2="shape" result="effect1_innerShadow_3_2676"/>
</filter>
<filter id="filter4_i_3_2676" x="34" y="23" width="14" height="5" filterUnits="userSpaceOnUse" color-interpolation-filters="sRGB">
<feFlood flood-opacity="0" result="BackgroundImageFix"/>
<feBlend mode="normal" in="SourceGraphic" in2="BackgroundImageFix" result="shape"/>
<feColorMatrix in="SourceAlpha" type="matrix" values="0 0 0 0 0 0 0 0 0 0 0 0 0 0 0 0 0 0 127 0" result="hardAlpha"/>
<feOffset dy="1"/>
<feGaussianBlur stdDeviation="2"/>
<feComposite in2="hardAlpha" operator="arithmetic" k2="-1" k3="1"/>
<feColorMatrix type="matrix" values="0 0 0 0 1 0 0 0 0 1 0 0 0 0 1 0 0 0 0.0995138 0"/>
<feBlend mode="normal" in2="shape" result="effect1_innerShadow_3_2676"/>
</filter>
<filter id="filter5_i_3_2676" x="54" y="19" width="14" height="3" filterUnits="userSpaceOnUse" color-interpolation-filters="sRGB">
<feFlood flood-opacity="0" result="BackgroundImageFix"/>
<feBlend mode="normal" in="SourceGraphic" in2="BackgroundImageFix" result="shape"/>
<feColorMatrix in="SourceAlpha" type="matrix" values="0 0 0 0 0 0 0 0 0 0 0 0 0 0 0 0 0 0 127 0" result="hardAlpha"/>
<feOffset dy="1"/>
<feGaussianBlur stdDeviation="2"/>
<feComposite in2="hardAlpha" operator="arithmetic" k2="-1" k3="1"/>
<feColorMatrix type="matrix" values="0 0 0 0 1 0 0 0 0 1 0 0 0 0 1 0 0 0 0.292013 0"/>
<feBlend mode="normal" in2="shape" result="effect1_innerShadow_3_2676"/>
</filter>
<filter id="filter6_i_3_2676" x="54" y="23" width="14" height="5" filterUnits="userSpaceOnUse" color-interpolation-filters="sRGB">
<feFlood flood-opacity="0" result="BackgroundImageFix"/>
<feBlend mode="normal" in="SourceGraphic" in2="BackgroundImageFix" result="shape"/>
<feColorMatrix in="SourceAlpha" type="matrix" values="0 0 0 0 0 0 0 0 0 0 0 0 0 0 0 0 0 0 127 0" result="hardAlpha"/>
<feOffset dy="1"/>
<feGaussianBlur stdDeviation="2"/>
<feComposite in2="hardAlpha" operator="arithmetic" k2="-1" k3="1"/>
<feColorMatrix type="matrix" values="0 0 0 0 1 0 0 0 0 1 0 0 0 0 1 0 0 0 0.0995138 0"/>
<feBlend mode="normal" in2="shape" result="effect1_innerShadow_3_2676"/>
</filter>
<filter id="filter7_i_3_2676" x="15" y="42" width="14" height="3" filterUnits="userSpaceOnUse" color-interpolation-filters="sRGB">
<feFlood flood-opacity="0" result="BackgroundImageFix"/>
<feBlend mode="normal" in="SourceGraphic" in2="BackgroundImageFix" result="shape"/>
<feColorMatrix in="SourceAlpha" type="matrix" values="0 0 0 0 0 0 0 0 0 0 0 0 0 0 0 0 0 0 127 0" result="hardAlpha"/>
<feOffset dy="1"/>
<feGaussianBlur stdDeviation="2"/>
<feComposite in2="hardAlpha" operator="arithmetic" k2="-1" k3="1"/>
<feColorMatrix type="matrix" values="0 0 0 0 1 0 0 0 0 1 0 0 0 0 1 0 0 0 0.292013 0"/>
<feBlend mode="normal" in2="shape" result="effect1_innerShadow_3_2676"/>
</filter>
<filter id="filter8_i_3_2676" x="15" y="46" width="14" height="5" filterUnits="userSpaceOnUse" color-interpolation-filters="sRGB">
<feFlood flood-opacity="0" result="BackgroundImageFix"/>
<feBlend mode="normal" in="SourceGraphic" in2="BackgroundImageFix" result="shape"/>
<feColorMatrix in="SourceAlpha" type="matrix" values="0 0 0 0 0 0 0 0 0 0 0 0 0 0 0 0 0 0 127 0" result="hardAlpha"/>
<feOffset dy="1"/>
<feGaussianBlur stdDeviation="2"/>
<feComposite in2="hardAlpha" operator="arithmetic" k2="-1" k3="1"/>
<feColorMatrix type="matrix" values="0 0 0 0 1 0 0 0 0 1 0 0 0 0 1 0 0 0 0.0995138 0"/>
<feBlend mode="normal" in2="shape" result="effect1_innerShadow_3_2676"/>
</filter>
<filter id="filter9_i_3_2676" x="34" y="42" width="14" height="3" filterUnits="userSpaceOnUse" color-interpolation-filters="sRGB">
<feFlood flood-opacity="0" result="BackgroundImageFix"/>
<feBlend mode="normal" in="SourceGraphic" in2="BackgroundImageFix" result="shape"/>
<feColorMatrix in="SourceAlpha" type="matrix" values="0 0 0 0 0 0 0 0 0 0 0 0 0 0 0 0 0 0 127 0" result="hardAlpha"/>
<feOffset dy="1"/>
<feGaussianBlur stdDeviation="2"/>
<feComposite in2="hardAlpha" operator="arithmetic" k2="-1" k3="1"/>
<feColorMatrix type="matrix" values="0 0 0 0 1 0 0 0 0 1 0 0 0 0 1 0 0 0 0.292013 0"/>
<feBlend mode="normal" in2="shape" result="effect1_innerShadow_3_2676"/>
</filter>
<filter id="filter10_i_3_2676" x="34" y="46" width="14" height="5" filterUnits="userSpaceOnUse" color-interpolation-filters="sRGB">
<feFlood flood-opacity="0" result="BackgroundImageFix"/>
<feBlend mode="normal" in="SourceGraphic" in2="BackgroundImageFix" result="shape"/>
<feColorMatrix in="SourceAlpha" type="matrix" values="0 0 0 0 0 0 0 0 0 0 0 0 0 0 0 0 0 0 127 0" result="hardAlpha"/>
<feOffset dy="1"/>
<feGaussianBlur stdDeviation="2"/>
<feComposite in2="hardAlpha" operator="arithmetic" k2="-1" k3="1"/>
<feColorMatrix type="matrix" values="0 0 0 0 1 0 0 0 0 1 0 0 0 0 1 0 0 0 0.0995138 0"/>
<feBlend mode="normal" in2="shape" result="effect1_innerShadow_3_2676"/>
</filter>
<filter id="filter11_i_3_2676" x="54" y="42" width="14" height="3" filterUnits="userSpaceOnUse" color-interpolation-filters="sRGB">
<feFlood flood-opacity="0" result="BackgroundImageFix"/>
<feBlend mode="normal" in="SourceGraphic" in2="BackgroundImageFix" result="shape"/>
<feColorMatrix in="SourceAlpha" type="matrix" values="0 0 0 0 0 0 0 0 0 0 0 0 0 0 0 0 0 0 127 0" result="hardAlpha"/>
<feOffset dy="1"/>
<feGaussianBlur stdDeviation="2"/>
<feComposite in2="hardAlpha" operator="arithmetic" k2="-1" k3="1"/>
<feColorMatrix type="matrix" values="0 0 0 0 1 0 0 0 0 1 0 0 0 0 1 0 0 0 0.292013 0"/>
<feBlend mode="normal" in2="shape" result="effect1_innerShadow_3_2676"/>
</filter>
<filter id="filter12_i_3_2676" x="54" y="46" width="14" height="5" filterUnits="userSpaceOnUse" color-interpolation-filters="sRGB">
<feFlood flood-opacity="0" result="BackgroundImageFix"/>
<feBlend mode="normal" in="SourceGraphic" in2="BackgroundImageFix" result="shape"/>
<feColorMatrix in="SourceAlpha" type="matrix" values="0 0 0 0 0 0 0 0 0 0 0 0 0 0 0 0 0 0 127 0" result="hardAlpha"/>
<feOffset dy="1"/>
<feGaussianBlur stdDeviation="2"/>
<feComposite in2="hardAlpha" operator="arithmetic" k2="-1" k3="1"/>
<feColorMatrix type="matrix" values="0 0 0 0 1 0 0 0 0 1 0 0 0 0 1 0 0 0 0.0995138 0"/>
<feBlend mode="normal" in2="shape" result="effect1_innerShadow_3_2676"/>
</filter>
<linearGradient id="paint0_linear_3_2676" x1="41" y1="0" x2="41" y2="60" gradientUnits="userSpaceOnUse">
<stop stop-color="#F2F2F2" stop-opacity="0.23"/>
<stop offset="1" stop-color="white" stop-opacity="0"/>
</linearGradient>
<radialGradient id="paint1_radial_3_2676" cx="0" cy="0" r="1" gradientUnits="userSpaceOnUse" gradientTransform="translate(41 30) rotate(90) scale(30 41)">
<stop stop-color="#F2F2F2"/>
<stop offset="1" stop-opacity="0.25"/>
</radialGradient>
<linearGradient id="paint2_linear_3_2676" x1="31.3644" y1="17.8663" x2="25.3043" y2="14.6218" gradientUnits="userSpaceOnUse">
<stop stop-color="#008374"/>
<stop offset="1" stop-color="#006A59"/>
</linearGradient>
<linearGradient id="paint3_linear_3_2676" x1="24.5327" y1="18.9446" x2="5.52249" y2="23.6455" gradientUnits="userSpaceOnUse">
<stop stop-color="#00AA89"/>
<stop offset="1" stop-color="#009989"/>
</linearGradient>
<linearGradient id="paint4_linear_3_2676" x1="50.3644" y1="17.8663" x2="44.3043" y2="14.6218" gradientUnits="userSpaceOnUse">
<stop stop-color="#008374"/>
<stop offset="1" stop-color="#006A59"/>
</linearGradient>
<linearGradient id="paint5_linear_3_2676" x1="43.5327" y1="18.9446" x2="24.5225" y2="23.6455" gradientUnits="userSpaceOnUse">
<stop stop-color="#00AA89"/>
<stop offset="1" stop-color="#009989"/>
</linearGradient>
<linearGradient id="paint6_linear_3_2676" x1="70.3644" y1="17.8663" x2="64.3043" y2="14.6218" gradientUnits="userSpaceOnUse">
<stop stop-color="#008374"/>
<stop offset="1" stop-color="#006A59"/>
</linearGradient>
<linearGradient id="paint7_linear_3_2676" x1="63.5327" y1="18.9446" x2="44.5225" y2="23.6455" gradientUnits="userSpaceOnUse">
<stop stop-color="#00AA89"/>
<stop offset="1" stop-color="#009989"/>
</linearGradient>
<linearGradient id="paint8_linear_3_2676" x1="31.3644" y1="40.8663" x2="25.3043" y2="37.6218" gradientUnits="userSpaceOnUse">
<stop stop-color="#008374"/>
<stop offset="1" stop-color="#006A59"/>
</linearGradient>
<linearGradient id="paint9_linear_3_2676" x1="24.5327" y1="41.9446" x2="5.52249" y2="46.6455" gradientUnits="userSpaceOnUse">
<stop stop-color="#00AA89"/>
<stop offset="1" stop-color="#009989"/>
</linearGradient>
<linearGradient id="paint10_linear_3_2676" x1="50.3644" y1="40.8663" x2="44.3043" y2="37.6218" gradientUnits="userSpaceOnUse">
<stop stop-color="#008374"/>
<stop offset="1" stop-color="#006A59"/>
</linearGradient>
<linearGradient id="paint11_linear_3_2676" x1="43.5327" y1="41.9446" x2="24.5225" y2="46.6455" gradientUnits="userSpaceOnUse">
<stop stop-color="#00AA89"/>
<stop offset="1" stop-color="#009989"/>
</linearGradient>
<linearGradient id="paint12_linear_3_2676" x1="70.3644" y1="40.8663" x2="64.3043" y2="37.6218" gradientUnits="userSpaceOnUse">
<stop stop-color="#008374"/>
<stop offset="1" stop-color="#006A59"/>
</linearGradient>
<linearGradient id="paint13_linear_3_2676" x1="63.5327" y1="41.9446" x2="44.5225" y2="46.6455" gradientUnits="userSpaceOnUse">
<stop stop-color="#00AA89"/>
<stop offset="1" stop-color="#009989"/>
</linearGradient>
<clipPath id="clip0_3_2676">
<rect width="82" height="60" rx="3" fill="white"/>
</clipPath>
</defs>
</svg>
