<svg width="82" height="60" viewBox="0 0 82 60" fill="none" xmlns="http://www.w3.org/2000/svg">
<g filter="url(#filter0_b_3_3531)">
<g clip-path="url(#clip0_3_3531)">
<rect width="82" height="60" rx="3" fill="url(#paint0_linear_3_3531)"/>
<rect width="82" height="60" rx="3" fill="url(#paint1_radial_3_3531)" fill-opacity="0.2"/>
<rect width="82" height="60" rx="3" fill="white" fill-opacity="0.2"/>
<path opacity="0.433" fill-rule="evenodd" clip-rule="evenodd" d="M39 29H62C62.2652 29 62.5196 29.1054 62.7071 29.2929C62.8946 29.4804 63 29.7348 63 30V36C63 36.2652 62.8946 36.5196 62.7071 36.7071C62.5196 36.8946 62.2652 37 62 37H39V29Z" fill="white" fill-opacity="0.641"/>
<path fill-rule="evenodd" clip-rule="evenodd" d="M20 29H38V37H20C19.7348 37 19.4804 36.8946 19.2929 36.7071C19.1054 36.5196 19 36.2652 19 36V30C19 29.7348 19.1054 29.4804 19.2929 29.2929C19.4804 29.1054 19.7348 29 20 29Z" fill="url(#paint2_linear_3_3531)"/>
<g filter="url(#filter1_i_3_3531)">
<path d="M41 24H19V26H41V24Z" fill="black"/>
</g>
<path d="M41 24H19V26H41V24Z" fill="white" fill-opacity="0.95"/>
</g>
</g>
<defs>
<filter id="filter0_b_3_3531" x="-4" y="-4" width="90" height="68" filterUnits="userSpaceOnUse" color-interpolation-filters="sRGB">
<feFlood flood-opacity="0" result="BackgroundImageFix"/>
<feGaussianBlur in="BackgroundImageFix" stdDeviation="2"/>
<feComposite in2="SourceAlpha" operator="in" result="effect1_backgroundBlur_3_3531"/>
<feBlend mode="normal" in="SourceGraphic" in2="effect1_backgroundBlur_3_3531" result="shape"/>
</filter>
<filter id="filter1_i_3_3531" x="19" y="24" width="22" height="3" filterUnits="userSpaceOnUse" color-interpolation-filters="sRGB">
<feFlood flood-opacity="0" result="BackgroundImageFix"/>
<feBlend mode="normal" in="SourceGraphic" in2="BackgroundImageFix" result="shape"/>
<feColorMatrix in="SourceAlpha" type="matrix" values="0 0 0 0 0 0 0 0 0 0 0 0 0 0 0 0 0 0 127 0" result="hardAlpha"/>
<feOffset dy="1"/>
<feGaussianBlur stdDeviation="2"/>
<feComposite in2="hardAlpha" operator="arithmetic" k2="-1" k3="1"/>
<feColorMatrix type="matrix" values="0 0 0 0 1 0 0 0 0 1 0 0 0 0 1 0 0 0 0.4 0"/>
<feBlend mode="normal" in2="shape" result="effect1_innerShadow_3_3531"/>
</filter>
<linearGradient id="paint0_linear_3_3531" x1="41" y1="0" x2="41" y2="60" gradientUnits="userSpaceOnUse">
<stop stop-color="#F2F2F2" stop-opacity="0.23"/>
<stop offset="1" stop-color="white" stop-opacity="0"/>
</linearGradient>
<radialGradient id="paint1_radial_3_3531" cx="0" cy="0" r="1" gradientUnits="userSpaceOnUse" gradientTransform="translate(41 30) rotate(90) scale(30 41)">
<stop stop-color="#F2F2F2"/>
<stop offset="1" stop-opacity="0.25"/>
</radialGradient>
<linearGradient id="paint2_linear_3_3531" x1="28.5" y1="29" x2="28.5" y2="37" gradientUnits="userSpaceOnUse">
<stop stop-color="#00A09D"/>
<stop offset="1" stop-color="#00E2FF"/>
</linearGradient>
<clipPath id="clip0_3_3531">
<rect width="82" height="60" rx="3" fill="white"/>
</clipPath>
</defs>
</svg>
