<svg width="82" height="60" viewBox="0 0 82 60" fill="none" xmlns="http://www.w3.org/2000/svg">
<g filter="url(#filter0_b_3_3433)">
<g clip-path="url(#clip0_3_3433)">
<rect width="82" height="60" rx="3" fill="url(#paint0_linear_3_3433)"/>
<rect width="82" height="60" rx="3" fill="url(#paint1_radial_3_3433)" fill-opacity="0.2"/>
<rect width="82" height="60" rx="3" fill="white" fill-opacity="0.2"/>
<g filter="url(#filter1_i_3_3433)">
<path d="M49 15H12V17H49V15Z" fill="black"/>
</g>
<path d="M49 15H12V17H49V15Z" fill="white" fill-opacity="0.78"/>
<g filter="url(#filter2_i_3_3433)">
<path d="M29 42.813V44H12V42.812H29V42.813ZM29 36.875V38.063H12V36.875H29ZM29 30.937V32.125H12V30.937H29ZM29 25V26.188H12V25H29Z" fill="black"/>
</g>
<path d="M29 42.813V44H12V42.812H29V42.813ZM29 36.875V38.063H12V36.875H29ZM29 30.937V32.125H12V30.937H29ZM29 25V26.188H12V25H29Z" fill="#F0B421"/>
<g filter="url(#filter3_i_3_3433)">
<path d="M36 42.813V44H34V42.812H36V42.813ZM36 36.875V38.063H34V36.875H36ZM36 30.937V32.125H34V30.937H36ZM36 25V26.188H34V25H36Z" fill="black"/>
</g>
<path d="M36 42.813V44H34V42.812H36V42.813ZM36 36.875V38.063H34V36.875H36ZM36 30.937V32.125H34V30.937H36ZM36 25V26.188H34V25H36Z" fill="white" fill-opacity="0.95"/>
<g filter="url(#filter4_i_3_3433)">
<path d="M63 42.813V44H46V42.812H63V42.813ZM63 36.875V38.063H46V36.875H63ZM63 30.937V32.125H46V30.937H63ZM63 25V26.188H46V25H63Z" fill="black"/>
</g>
<path d="M63 42.813V44H46V42.812H63V42.813ZM63 36.875V38.063H46V36.875H63ZM63 30.937V32.125H46V30.937H63ZM63 25V26.188H46V25H63Z" fill="#F0B421"/>
<g filter="url(#filter5_i_3_3433)">
<path d="M70 42.813V44H68V42.812H70V42.813ZM70 36.875V38.063H68V36.875H70ZM70 30.937V32.125H68V30.937H70ZM70 25V26.188H68V25H70Z" fill="black"/>
</g>
<path d="M70 42.813V44H68V42.812H70V42.813ZM70 36.875V38.063H68V36.875H70ZM70 30.937V32.125H68V30.937H70ZM70 25V26.188H68V25H70Z" fill="white" fill-opacity="0.95"/>
</g>
</g>
<defs>
<filter id="filter0_b_3_3433" x="-4" y="-4" width="90" height="68" filterUnits="userSpaceOnUse" color-interpolation-filters="sRGB">
<feFlood flood-opacity="0" result="BackgroundImageFix"/>
<feGaussianBlur in="BackgroundImageFix" stdDeviation="2"/>
<feComposite in2="SourceAlpha" operator="in" result="effect1_backgroundBlur_3_3433"/>
<feBlend mode="normal" in="SourceGraphic" in2="effect1_backgroundBlur_3_3433" result="shape"/>
</filter>
<filter id="filter1_i_3_3433" x="12" y="15" width="37" height="3" filterUnits="userSpaceOnUse" color-interpolation-filters="sRGB">
<feFlood flood-opacity="0" result="BackgroundImageFix"/>
<feBlend mode="normal" in="SourceGraphic" in2="BackgroundImageFix" result="shape"/>
<feColorMatrix in="SourceAlpha" type="matrix" values="0 0 0 0 0 0 0 0 0 0 0 0 0 0 0 0 0 0 127 0" result="hardAlpha"/>
<feOffset dy="1"/>
<feGaussianBlur stdDeviation="2"/>
<feComposite in2="hardAlpha" operator="arithmetic" k2="-1" k3="1"/>
<feColorMatrix type="matrix" values="0 0 0 0 1 0 0 0 0 1 0 0 0 0 1 0 0 0 0.292013 0"/>
<feBlend mode="normal" in2="shape" result="effect1_innerShadow_3_3433"/>
</filter>
<filter id="filter2_i_3_3433" x="12" y="25" width="17" height="20" filterUnits="userSpaceOnUse" color-interpolation-filters="sRGB">
<feFlood flood-opacity="0" result="BackgroundImageFix"/>
<feBlend mode="normal" in="SourceGraphic" in2="BackgroundImageFix" result="shape"/>
<feColorMatrix in="SourceAlpha" type="matrix" values="0 0 0 0 0 0 0 0 0 0 0 0 0 0 0 0 0 0 127 0" result="hardAlpha"/>
<feOffset dy="1"/>
<feGaussianBlur stdDeviation="2"/>
<feComposite in2="hardAlpha" operator="arithmetic" k2="-1" k3="1"/>
<feColorMatrix type="matrix" values="0 0 0 0 1 0 0 0 0 1 0 0 0 0 1 0 0 0 0.0995138 0"/>
<feBlend mode="normal" in2="shape" result="effect1_innerShadow_3_3433"/>
</filter>
<filter id="filter3_i_3_3433" x="34" y="25" width="2" height="20" filterUnits="userSpaceOnUse" color-interpolation-filters="sRGB">
<feFlood flood-opacity="0" result="BackgroundImageFix"/>
<feBlend mode="normal" in="SourceGraphic" in2="BackgroundImageFix" result="shape"/>
<feColorMatrix in="SourceAlpha" type="matrix" values="0 0 0 0 0 0 0 0 0 0 0 0 0 0 0 0 0 0 127 0" result="hardAlpha"/>
<feOffset dy="1"/>
<feGaussianBlur stdDeviation="2"/>
<feComposite in2="hardAlpha" operator="arithmetic" k2="-1" k3="1"/>
<feColorMatrix type="matrix" values="0 0 0 0 1 0 0 0 0 1 0 0 0 0 1 0 0 0 0.4 0"/>
<feBlend mode="normal" in2="shape" result="effect1_innerShadow_3_3433"/>
</filter>
<filter id="filter4_i_3_3433" x="46" y="25" width="17" height="20" filterUnits="userSpaceOnUse" color-interpolation-filters="sRGB">
<feFlood flood-opacity="0" result="BackgroundImageFix"/>
<feBlend mode="normal" in="SourceGraphic" in2="BackgroundImageFix" result="shape"/>
<feColorMatrix in="SourceAlpha" type="matrix" values="0 0 0 0 0 0 0 0 0 0 0 0 0 0 0 0 0 0 127 0" result="hardAlpha"/>
<feOffset dy="1"/>
<feGaussianBlur stdDeviation="2"/>
<feComposite in2="hardAlpha" operator="arithmetic" k2="-1" k3="1"/>
<feColorMatrix type="matrix" values="0 0 0 0 1 0 0 0 0 1 0 0 0 0 1 0 0 0 0.0995138 0"/>
<feBlend mode="normal" in2="shape" result="effect1_innerShadow_3_3433"/>
</filter>
<filter id="filter5_i_3_3433" x="68" y="25" width="2" height="20" filterUnits="userSpaceOnUse" color-interpolation-filters="sRGB">
<feFlood flood-opacity="0" result="BackgroundImageFix"/>
<feBlend mode="normal" in="SourceGraphic" in2="BackgroundImageFix" result="shape"/>
<feColorMatrix in="SourceAlpha" type="matrix" values="0 0 0 0 0 0 0 0 0 0 0 0 0 0 0 0 0 0 127 0" result="hardAlpha"/>
<feOffset dy="1"/>
<feGaussianBlur stdDeviation="2"/>
<feComposite in2="hardAlpha" operator="arithmetic" k2="-1" k3="1"/>
<feColorMatrix type="matrix" values="0 0 0 0 1 0 0 0 0 1 0 0 0 0 1 0 0 0 0.4 0"/>
<feBlend mode="normal" in2="shape" result="effect1_innerShadow_3_3433"/>
</filter>
<linearGradient id="paint0_linear_3_3433" x1="41" y1="0" x2="41" y2="60" gradientUnits="userSpaceOnUse">
<stop stop-color="#F2F2F2" stop-opacity="0.23"/>
<stop offset="1" stop-color="white" stop-opacity="0"/>
</linearGradient>
<radialGradient id="paint1_radial_3_3433" cx="0" cy="0" r="1" gradientUnits="userSpaceOnUse" gradientTransform="translate(41 30) rotate(90) scale(30 41)">
<stop stop-color="#F2F2F2"/>
<stop offset="1" stop-opacity="0.25"/>
</radialGradient>
<clipPath id="clip0_3_3433">
<rect width="82" height="60" rx="3" fill="white"/>
</clipPath>
</defs>
</svg>
