<svg width="82" height="60" viewBox="0 0 82 60" fill="none" xmlns="http://www.w3.org/2000/svg">
<g filter="url(#filter0_b_3_3590)">
<g clip-path="url(#clip0_3_3590)">
<rect width="82" height="60" rx="3" fill="url(#paint0_linear_3_3590)"/>
<rect width="82" height="60" rx="3" fill="url(#paint1_radial_3_3590)" fill-opacity="0.2"/>
<rect width="82" height="60" rx="3" fill="white" fill-opacity="0.2"/>
<path d="M54.5 31H44.5C44.2239 31 44 31.2239 44 31.5V39.5C44 39.7761 44.2239 40 44.5 40H54.5C54.7761 40 55 39.7761 55 39.5V31.5C55 31.2239 54.7761 31 54.5 31Z" fill="white"/>
<mask id="mask0_3_3590" style="mask-type:alpha" maskUnits="userSpaceOnUse" x="44" y="31" width="11" height="9">
<path d="M54.289 31.21H44.712C44.4358 31.21 44.212 31.4338 44.212 31.71V39.291C44.212 39.5671 44.4358 39.791 44.712 39.791H54.289C54.5651 39.791 54.789 39.5671 54.789 39.291V31.71C54.789 31.4338 54.5651 31.21 54.289 31.21Z" fill="white"/>
</mask>
<g mask="url(#mask0_3_3590)">
<path d="M54.289 31.21H44.712C44.4358 31.21 44.212 31.4338 44.212 31.71V39.291C44.212 39.5671 44.4358 39.791 44.712 39.791H54.289C54.5651 39.791 54.789 39.5671 54.789 39.291V31.71C54.789 31.4338 54.5651 31.21 54.289 31.21Z" fill="#79D1F2"/>
<path d="M52.356 34.978C53.2325 34.978 53.943 34.2751 53.943 33.408C53.943 32.5409 53.2325 31.838 52.356 31.838C51.4795 31.838 50.769 32.5409 50.769 33.408C50.769 34.2751 51.4795 34.978 52.356 34.978Z" fill="#F3EC60"/>
<path d="M54.8949 43.769C57.6404 43.769 59.866 42.3632 59.866 40.629C59.866 38.8948 57.6404 37.489 54.8949 37.489C52.1495 37.489 49.924 38.8948 49.924 40.629C49.924 42.3632 52.1495 43.769 54.8949 43.769Z" fill="url(#paint2_linear_3_3590)"/>
<path d="M44.3179 45.652C48.6992 45.652 52.2509 43.4497 52.2509 40.733C52.2509 38.0163 48.6992 35.814 44.3179 35.814C39.9367 35.814 36.3849 38.0163 36.3849 40.733C36.3849 43.4497 39.9367 45.652 44.3179 45.652Z" fill="url(#paint3_linear_3_3590)"/>
</g>
<path fill-rule="evenodd" clip-rule="evenodd" d="M54.5 31C54.7761 31 55 31.2239 55 31.5V39.5C55 39.7761 54.7761 40 54.5 40H44.5C44.2239 40 44 39.7761 44 39.5V31.5C44 31.2239 44.2239 31 44.5 31H54.5ZM54 32.5C54 32.2239 53.7761 32 53.5 32H45.5C45.2239 32 45 32.2239 45 32.5V38.5C45 38.7761 45.2239 39 45.5 39H53.5C53.7761 39 54 38.7761 54 38.5V32.5Z" fill="white"/>
<path d="M68.5 31H59.5C59.2239 31 59 31.2239 59 31.5V39.5C59 39.7761 59.2239 40 59.5 40H68.5C68.7761 40 69 39.7761 69 39.5V31.5C69 31.2239 68.7761 31 68.5 31Z" fill="white"/>
<mask id="mask1_3_3590" style="mask-type:alpha" maskUnits="userSpaceOnUse" x="59" y="31" width="10" height="9">
<path d="M68.307 31.21H59.692C59.4159 31.21 59.192 31.4338 59.192 31.71V39.291C59.192 39.5671 59.4159 39.791 59.692 39.791H68.307C68.5832 39.791 68.807 39.5671 68.807 39.291V31.71C68.807 31.4338 68.5832 31.21 68.307 31.21Z" fill="white"/>
</mask>
<g mask="url(#mask1_3_3590)">
<path d="M68.307 31.21H59.692C59.4159 31.21 59.192 31.4338 59.192 31.71V39.291C59.192 39.5671 59.4159 39.791 59.692 39.791H68.307C68.5832 39.791 68.807 39.5671 68.807 39.291V31.71C68.807 31.4338 68.5832 31.21 68.307 31.21Z" fill="#79D1F2"/>
<path d="M66.596 34.978C67.3924 34.978 68.038 34.2751 68.038 33.408C68.038 32.5409 67.3924 31.838 66.596 31.838C65.7996 31.838 65.154 32.5409 65.154 33.408C65.154 34.2751 65.7996 34.978 66.596 34.978Z" fill="#F3EC60"/>
<path d="M68.904 43.769C71.3998 43.769 73.423 42.3632 73.423 40.629C73.423 38.8948 71.3998 37.489 68.904 37.489C66.4082 37.489 64.385 38.8948 64.385 40.629C64.385 42.3632 66.4082 43.769 68.904 43.769Z" fill="url(#paint4_linear_3_3590)"/>
<path d="M59.288 45.652C63.2711 45.652 66.5 43.4497 66.5 40.733C66.5 38.0163 63.2711 35.814 59.288 35.814C55.3049 35.814 52.076 38.0163 52.076 40.733C52.076 43.4497 55.3049 45.652 59.288 45.652Z" fill="url(#paint5_linear_3_3590)"/>
</g>
<path fill-rule="evenodd" clip-rule="evenodd" d="M68.5 31C68.7761 31 69 31.2239 69 31.5V39.5C69 39.7761 68.7761 40 68.5 40H59.5C59.2239 40 59 39.7761 59 39.5V31.5C59 31.2239 59.2239 31 59.5 31H68.5ZM68 32.5C68 32.2239 67.7761 32 67.5 32H60.5C60.2239 32 60 32.2239 60 32.5V38.5C60 38.7761 60.2239 39 60.5 39H67.5C67.7761 39 68 38.7761 68 38.5V32.5Z" fill="white"/>
<path d="M25.5 31H14.5C14.2239 31 14 31.2239 14 31.5V39.5C14 39.7761 14.2239 40 14.5 40H25.5C25.7761 40 26 39.7761 26 39.5V31.5C26 31.2239 25.7761 31 25.5 31Z" fill="white"/>
<mask id="mask2_3_3590" style="mask-type:alpha" maskUnits="userSpaceOnUse" x="14" y="31" width="12" height="9">
<path d="M25.268 31.21H14.73C14.4539 31.21 14.23 31.4338 14.23 31.71V39.291C14.23 39.5671 14.4539 39.791 14.73 39.791H25.268C25.5442 39.791 25.768 39.5671 25.768 39.291V31.71C25.768 31.4338 25.5442 31.21 25.268 31.21Z" fill="white"/>
</mask>
<g mask="url(#mask2_3_3590)">
<path d="M25.268 31.21H14.73C14.4539 31.21 14.23 31.4338 14.23 31.71V39.291C14.23 39.5671 14.4539 39.791 14.73 39.791H25.268C25.5442 39.791 25.768 39.5671 25.768 39.291V31.71C25.768 31.4338 25.5442 31.21 25.268 31.21Z" fill="#79D1F2"/>
<path d="M23.115 34.978C24.071 34.978 24.846 34.2751 24.846 33.408C24.846 32.5409 24.071 31.838 23.115 31.838C22.159 31.838 21.384 32.5409 21.384 33.408C21.384 34.2751 22.159 34.978 23.115 34.978Z" fill="#F3EC60"/>
<path d="M25.884 43.769C28.879 43.769 31.307 42.3632 31.307 40.629C31.307 38.8948 28.879 37.489 25.884 37.489C22.889 37.489 20.461 38.8948 20.461 40.629C20.461 42.3632 22.889 43.769 25.884 43.769Z" fill="url(#paint6_linear_3_3590)"/>
<path d="M14.345 45.652C19.1245 45.652 22.999 43.4497 22.999 40.733C22.999 38.0163 19.1245 35.814 14.345 35.814C9.56554 35.814 5.69101 38.0163 5.69101 40.733C5.69101 43.4497 9.56554 45.652 14.345 45.652Z" fill="url(#paint7_linear_3_3590)"/>
</g>
<path fill-rule="evenodd" clip-rule="evenodd" d="M25.5 31C25.7761 31 26 31.2239 26 31.5V39.5C26 39.7761 25.7761 40 25.5 40H14.5C14.2239 40 14 39.7761 14 39.5V31.5C14 31.2239 14.2239 31 14.5 31H25.5ZM25 32.5C25 32.2239 24.7761 32 24.5 32H15.5C15.2239 32 15 32.2239 15 32.5V38.5C15 38.7761 15.2239 39 15.5 39H24.5C24.7761 39 25 38.7761 25 38.5V32.5Z" fill="white"/>
<path d="M39.5 31H29.5C29.2239 31 29 31.2239 29 31.5V39.5C29 39.7761 29.2239 40 29.5 40H39.5C39.7761 40 40 39.7761 40 39.5V31.5C40 31.2239 39.7761 31 39.5 31Z" fill="white"/>
<mask id="mask3_3_3590" style="mask-type:alpha" maskUnits="userSpaceOnUse" x="29" y="31" width="11" height="9">
<path d="M39.289 31.21H29.712C29.4358 31.21 29.212 31.4338 29.212 31.71V39.291C29.212 39.5671 29.4358 39.791 29.712 39.791H39.289C39.5651 39.791 39.789 39.5671 39.789 39.291V31.71C39.789 31.4338 39.5651 31.21 39.289 31.21Z" fill="white"/>
</mask>
<g mask="url(#mask3_3_3590)">
<path d="M39.289 31.21H29.712C29.4358 31.21 29.212 31.4338 29.212 31.71V39.291C29.212 39.5671 29.4358 39.791 29.712 39.791H39.289C39.5651 39.791 39.789 39.5671 39.789 39.291V31.71C39.789 31.4338 39.5651 31.21 39.289 31.21Z" fill="#79D1F2"/>
<path d="M37.356 34.978C38.2325 34.978 38.943 34.2751 38.943 33.408C38.943 32.5409 38.2325 31.838 37.356 31.838C36.4795 31.838 35.769 32.5409 35.769 33.408C35.769 34.2751 36.4795 34.978 37.356 34.978Z" fill="#F3EC60"/>
<path d="M39.8949 43.769C42.6404 43.769 44.866 42.3632 44.866 40.629C44.866 38.8948 42.6404 37.489 39.8949 37.489C37.1495 37.489 34.924 38.8948 34.924 40.629C34.924 42.3632 37.1495 43.769 39.8949 43.769Z" fill="url(#paint8_linear_3_3590)"/>
<path d="M29.3179 45.652C33.6992 45.652 37.2509 43.4497 37.2509 40.733C37.2509 38.0163 33.6992 35.814 29.3179 35.814C24.9367 35.814 21.3849 38.0163 21.3849 40.733C21.3849 43.4497 24.9367 45.652 29.3179 45.652Z" fill="url(#paint9_linear_3_3590)"/>
</g>
<path fill-rule="evenodd" clip-rule="evenodd" d="M39.5 31C39.7761 31 40 31.2239 40 31.5V39.5C40 39.7761 39.7761 40 39.5 40H29.5C29.2239 40 29 39.7761 29 39.5V31.5C29 31.2239 29.2239 31 29.5 31H39.5ZM39 32.5C39 32.2239 38.7761 32 38.5 32H30.5C30.2239 32 30 32.2239 30 32.5V38.5C30 38.7761 30.2239 39 30.5 39H38.5C38.7761 39 39 38.7761 39 38.5V32.5Z" fill="white"/>
<g filter="url(#filter1_i_3_3590)">
<path d="M52.5 20H31.5C31.2239 20 31 20.2239 31 20.5V21.5C31 21.7761 31.2239 22 31.5 22H52.5C52.7761 22 53 21.7761 53 21.5V20.5C53 20.2239 52.7761 20 52.5 20Z" fill="black"/>
</g>
<path d="M52.5 20H31.5C31.2239 20 31 20.2239 31 20.5V21.5C31 21.7761 31.2239 22 31.5 22H52.5C52.7761 22 53 21.7761 53 21.5V20.5C53 20.2239 52.7761 20 52.5 20Z" fill="white" fill-opacity="0.78"/>
<g filter="url(#filter2_i_3_3590)">
<path d="M48.5 25H35.5C35.2239 25 35 25.2239 35 25.5C35 25.7761 35.2239 26 35.5 26H48.5C48.7761 26 49 25.7761 49 25.5C49 25.2239 48.7761 25 48.5 25Z" fill="black"/>
</g>
<path d="M48.5 25H35.5C35.2239 25 35 25.2239 35 25.5C35 25.7761 35.2239 26 35.5 26H48.5C48.7761 26 49 25.7761 49 25.5C49 25.2239 48.7761 25 48.5 25Z" fill="#F0B421"/>
</g>
</g>
<defs>
<filter id="filter0_b_3_3590" x="-4" y="-4" width="90" height="68" filterUnits="userSpaceOnUse" color-interpolation-filters="sRGB">
<feFlood flood-opacity="0" result="BackgroundImageFix"/>
<feGaussianBlur in="BackgroundImageFix" stdDeviation="2"/>
<feComposite in2="SourceAlpha" operator="in" result="effect1_backgroundBlur_3_3590"/>
<feBlend mode="normal" in="SourceGraphic" in2="effect1_backgroundBlur_3_3590" result="shape"/>
</filter>
<filter id="filter1_i_3_3590" x="31" y="20" width="22" height="3" filterUnits="userSpaceOnUse" color-interpolation-filters="sRGB">
<feFlood flood-opacity="0" result="BackgroundImageFix"/>
<feBlend mode="normal" in="SourceGraphic" in2="BackgroundImageFix" result="shape"/>
<feColorMatrix in="SourceAlpha" type="matrix" values="0 0 0 0 0 0 0 0 0 0 0 0 0 0 0 0 0 0 127 0" result="hardAlpha"/>
<feOffset dy="1"/>
<feGaussianBlur stdDeviation="2"/>
<feComposite in2="hardAlpha" operator="arithmetic" k2="-1" k3="1"/>
<feColorMatrix type="matrix" values="0 0 0 0 1 0 0 0 0 1 0 0 0 0 1 0 0 0 0.292013 0"/>
<feBlend mode="normal" in2="shape" result="effect1_innerShadow_3_3590"/>
</filter>
<filter id="filter2_i_3_3590" x="35" y="25" width="14" height="2" filterUnits="userSpaceOnUse" color-interpolation-filters="sRGB">
<feFlood flood-opacity="0" result="BackgroundImageFix"/>
<feBlend mode="normal" in="SourceGraphic" in2="BackgroundImageFix" result="shape"/>
<feColorMatrix in="SourceAlpha" type="matrix" values="0 0 0 0 0 0 0 0 0 0 0 0 0 0 0 0 0 0 127 0" result="hardAlpha"/>
<feOffset dy="1"/>
<feGaussianBlur stdDeviation="2"/>
<feComposite in2="hardAlpha" operator="arithmetic" k2="-1" k3="1"/>
<feColorMatrix type="matrix" values="0 0 0 0 1 0 0 0 0 1 0 0 0 0 1 0 0 0 0.0995138 0"/>
<feBlend mode="normal" in2="shape" result="effect1_innerShadow_3_3590"/>
</filter>
<linearGradient id="paint0_linear_3_3590" x1="41" y1="0" x2="41" y2="60" gradientUnits="userSpaceOnUse">
<stop stop-color="#F2F2F2" stop-opacity="0.23"/>
<stop offset="1" stop-color="white" stop-opacity="0"/>
</linearGradient>
<radialGradient id="paint1_radial_3_3590" cx="0" cy="0" r="1" gradientUnits="userSpaceOnUse" gradientTransform="translate(41 30) rotate(90) scale(30 41)">
<stop stop-color="#F2F2F2"/>
<stop offset="1" stop-opacity="0.25"/>
</radialGradient>
<linearGradient id="paint2_linear_3_3590" x1="57.1692" y1="40.3948" x2="54.4951" y2="38.6913" gradientUnits="userSpaceOnUse">
<stop stop-color="#008374"/>
<stop offset="1" stop-color="#006A59"/>
</linearGradient>
<linearGradient id="paint3_linear_3_3590" x1="50.4291" y1="39.6263" x2="45.0009" y2="42.183" gradientUnits="userSpaceOnUse">
<stop stop-color="#00AA89"/>
<stop offset="1" stop-color="#009989"/>
</linearGradient>
<linearGradient id="paint4_linear_3_3590" x1="70.9715" y1="40.3456" x2="68.5311" y2="38.6357" gradientUnits="userSpaceOnUse">
<stop stop-color="#008374"/>
<stop offset="1" stop-color="#006A59"/>
</linearGradient>
<linearGradient id="paint5_linear_3_3590" x1="64.8437" y1="39.3939" x2="59.9168" y2="41.9466" gradientUnits="userSpaceOnUse">
<stop stop-color="#00AA89"/>
<stop offset="1" stop-color="#009989"/>
</linearGradient>
<linearGradient id="paint6_linear_3_3590" x1="28.365" y1="40.4322" x2="25.4319" y2="38.7196" gradientUnits="userSpaceOnUse">
<stop stop-color="#008374"/>
<stop offset="1" stop-color="#006A59"/>
</linearGradient>
<linearGradient id="paint7_linear_3_3590" x1="21.0115" y1="39.8031" x2="15.054" y2="42.3752" gradientUnits="userSpaceOnUse">
<stop stop-color="#00AA89"/>
<stop offset="1" stop-color="#009989"/>
</linearGradient>
<linearGradient id="paint8_linear_3_3590" x1="42.1692" y1="40.3948" x2="39.4951" y2="38.6913" gradientUnits="userSpaceOnUse">
<stop stop-color="#008374"/>
<stop offset="1" stop-color="#006A59"/>
</linearGradient>
<linearGradient id="paint9_linear_3_3590" x1="35.4291" y1="39.6263" x2="30.0009" y2="42.183" gradientUnits="userSpaceOnUse">
<stop stop-color="#00AA89"/>
<stop offset="1" stop-color="#009989"/>
</linearGradient>
<clipPath id="clip0_3_3590">
<rect width="82" height="60" rx="3" fill="white"/>
</clipPath>
</defs>
</svg>
