<svg width="82" height="60" viewBox="0 0 82 60" fill="none" xmlns="http://www.w3.org/2000/svg">
<g filter="url(#filter0_b_3_3818)">
<g clip-path="url(#clip0_3_3818)">
<rect width="82" height="60" rx="3" fill="url(#paint0_linear_3_3818)"/>
<rect width="82" height="60" rx="3" fill="url(#paint1_radial_3_3818)" fill-opacity="0.2"/>
<rect width="82" height="60" rx="3" fill="white" fill-opacity="0.2"/>
<path d="M62 22H20C19.4477 22 19 22.4477 19 23V38C19 38.5523 19.4477 39 20 39H62C62.5523 39 63 38.5523 63 38V23C63 22.4477 62.5523 22 62 22Z" fill="url(#paint2_linear_3_3818)" fill-opacity="0.4"/>
<g filter="url(#filter1_i_3_3818)">
<path d="M52 25H30V27H52V25Z" fill="black"/>
</g>
<path d="M52 25H30V27H52V25Z" fill="white" fill-opacity="0.95"/>
<g filter="url(#filter2_i_3_3818)">
<path d="M47 33V34H35V33H47ZM49 30V31H33V30H49Z" fill="black"/>
</g>
<path d="M47 33V34H35V33H47ZM49 30V31H33V30H49Z" fill="white" fill-opacity="0.8"/>
</g>
</g>
<defs>
<filter id="filter0_b_3_3818" x="-4" y="-4" width="90" height="68" filterUnits="userSpaceOnUse" color-interpolation-filters="sRGB">
<feFlood flood-opacity="0" result="BackgroundImageFix"/>
<feGaussianBlur in="BackgroundImageFix" stdDeviation="2"/>
<feComposite in2="SourceAlpha" operator="in" result="effect1_backgroundBlur_3_3818"/>
<feBlend mode="normal" in="SourceGraphic" in2="effect1_backgroundBlur_3_3818" result="shape"/>
</filter>
<filter id="filter1_i_3_3818" x="30" y="25" width="22" height="3" filterUnits="userSpaceOnUse" color-interpolation-filters="sRGB">
<feFlood flood-opacity="0" result="BackgroundImageFix"/>
<feBlend mode="normal" in="SourceGraphic" in2="BackgroundImageFix" result="shape"/>
<feColorMatrix in="SourceAlpha" type="matrix" values="0 0 0 0 0 0 0 0 0 0 0 0 0 0 0 0 0 0 127 0" result="hardAlpha"/>
<feOffset dy="1"/>
<feGaussianBlur stdDeviation="2"/>
<feComposite in2="hardAlpha" operator="arithmetic" k2="-1" k3="1"/>
<feColorMatrix type="matrix" values="0 0 0 0 1 0 0 0 0 1 0 0 0 0 1 0 0 0 0.4 0"/>
<feBlend mode="normal" in2="shape" result="effect1_innerShadow_3_3818"/>
</filter>
<filter id="filter2_i_3_3818" x="33" y="30" width="16" height="5" filterUnits="userSpaceOnUse" color-interpolation-filters="sRGB">
<feFlood flood-opacity="0" result="BackgroundImageFix"/>
<feBlend mode="normal" in="SourceGraphic" in2="BackgroundImageFix" result="shape"/>
<feColorMatrix in="SourceAlpha" type="matrix" values="0 0 0 0 0 0 0 0 0 0 0 0 0 0 0 0 0 0 127 0" result="hardAlpha"/>
<feOffset dy="1"/>
<feGaussianBlur stdDeviation="2"/>
<feComposite in2="hardAlpha" operator="arithmetic" k2="-1" k3="1"/>
<feColorMatrix type="matrix" values="0 0 0 0 1 0 0 0 0 1 0 0 0 0 1 0 0 0 0.2 0"/>
<feBlend mode="normal" in2="shape" result="effect1_innerShadow_3_3818"/>
</filter>
<linearGradient id="paint0_linear_3_3818" x1="41" y1="0" x2="41" y2="60" gradientUnits="userSpaceOnUse">
<stop stop-color="#F2F2F2" stop-opacity="0.23"/>
<stop offset="1" stop-color="white" stop-opacity="0"/>
</linearGradient>
<radialGradient id="paint1_radial_3_3818" cx="0" cy="0" r="1" gradientUnits="userSpaceOnUse" gradientTransform="translate(41 30) rotate(90) scale(30 41)">
<stop stop-color="#F2F2F2"/>
<stop offset="1" stop-opacity="0.25"/>
</radialGradient>
<linearGradient id="paint2_linear_3_3818" x1="41" y1="22" x2="41" y2="39" gradientUnits="userSpaceOnUse">
<stop stop-color="#00A09D"/>
<stop offset="1" stop-color="#00E2FF"/>
</linearGradient>
<clipPath id="clip0_3_3818">
<rect width="82" height="60" rx="3" fill="white"/>
</clipPath>
</defs>
</svg>
