<svg width="82" height="60" viewBox="0 0 82 60" fill="none" xmlns="http://www.w3.org/2000/svg">
<g filter="url(#filter0_b_3_3891)">
<g clip-path="url(#clip0_3_3891)">
<rect width="82" height="60" rx="3" fill="url(#paint0_linear_3_3891)"/>
<rect width="82" height="60" rx="3" fill="url(#paint1_radial_3_3891)" fill-opacity="0.2"/>
<rect width="82" height="60" rx="3" fill="white" fill-opacity="0.2"/>
<g filter="url(#filter1_i_3_3891)">
<path d="M36 34V38H31V34H36ZM43 34V38H38V34H43ZM35 35H32V37H35V35ZM42 35H39V37H42V35ZM65 27V31H31V27H65ZM64 28H32V30H64V28ZM65 20V24H31V20H65ZM64 21H32V23H64V21ZM65 13V17H31V13H65ZM64 14H32V16H64V14Z" fill="black"/>
</g>
<path d="M36 34V38H31V34H36ZM43 34V38H38V34H43ZM35 35H32V37H35V35ZM42 35H39V37H42V35ZM65 27V31H31V27H65ZM64 28H32V30H64V28ZM65 20V24H31V20H65ZM64 21H32V23H64V21ZM65 13V17H31V13H65ZM64 14H32V16H64V14Z" fill="white" fill-opacity="0.78"/>
<g filter="url(#filter2_i_3_3891)">
<path d="M27 34V36H19V34H27ZM27 27V29H19V27H27ZM27 20V22H20V20H27ZM27 13V15H17V13H27Z" fill="black"/>
</g>
<path d="M27 34V36H19V34H27ZM27 27V29H19V27H27ZM27 20V22H20V20H27ZM27 13V15H17V13H27Z" fill="#F0B421"/>
<path d="M48 43H31V48H48V43Z" fill="url(#paint2_linear_3_3891)"/>
</g>
</g>
<defs>
<filter id="filter0_b_3_3891" x="-4" y="-4" width="90" height="68" filterUnits="userSpaceOnUse" color-interpolation-filters="sRGB">
<feFlood flood-opacity="0" result="BackgroundImageFix"/>
<feGaussianBlur in="BackgroundImageFix" stdDeviation="2"/>
<feComposite in2="SourceAlpha" operator="in" result="effect1_backgroundBlur_3_3891"/>
<feBlend mode="normal" in="SourceGraphic" in2="effect1_backgroundBlur_3_3891" result="shape"/>
</filter>
<filter id="filter1_i_3_3891" x="31" y="13" width="34" height="26" filterUnits="userSpaceOnUse" color-interpolation-filters="sRGB">
<feFlood flood-opacity="0" result="BackgroundImageFix"/>
<feBlend mode="normal" in="SourceGraphic" in2="BackgroundImageFix" result="shape"/>
<feColorMatrix in="SourceAlpha" type="matrix" values="0 0 0 0 0 0 0 0 0 0 0 0 0 0 0 0 0 0 127 0" result="hardAlpha"/>
<feOffset dy="1"/>
<feGaussianBlur stdDeviation="2"/>
<feComposite in2="hardAlpha" operator="arithmetic" k2="-1" k3="1"/>
<feColorMatrix type="matrix" values="0 0 0 0 1 0 0 0 0 1 0 0 0 0 1 0 0 0 0.292013 0"/>
<feBlend mode="normal" in2="shape" result="effect1_innerShadow_3_3891"/>
</filter>
<filter id="filter2_i_3_3891" x="17" y="13" width="10" height="24" filterUnits="userSpaceOnUse" color-interpolation-filters="sRGB">
<feFlood flood-opacity="0" result="BackgroundImageFix"/>
<feBlend mode="normal" in="SourceGraphic" in2="BackgroundImageFix" result="shape"/>
<feColorMatrix in="SourceAlpha" type="matrix" values="0 0 0 0 0 0 0 0 0 0 0 0 0 0 0 0 0 0 127 0" result="hardAlpha"/>
<feOffset dy="1"/>
<feGaussianBlur stdDeviation="2"/>
<feComposite in2="hardAlpha" operator="arithmetic" k2="-1" k3="1"/>
<feColorMatrix type="matrix" values="0 0 0 0 1 0 0 0 0 1 0 0 0 0 1 0 0 0 0.0995138 0"/>
<feBlend mode="normal" in2="shape" result="effect1_innerShadow_3_3891"/>
</filter>
<linearGradient id="paint0_linear_3_3891" x1="41" y1="0" x2="41" y2="60" gradientUnits="userSpaceOnUse">
<stop stop-color="#F2F2F2" stop-opacity="0.23"/>
<stop offset="1" stop-color="white" stop-opacity="0"/>
</linearGradient>
<radialGradient id="paint1_radial_3_3891" cx="0" cy="0" r="1" gradientUnits="userSpaceOnUse" gradientTransform="translate(41 30) rotate(90) scale(30 41)">
<stop stop-color="#F2F2F2"/>
<stop offset="1" stop-opacity="0.25"/>
</radialGradient>
<linearGradient id="paint2_linear_3_3891" x1="31" y1="45.2837" x2="46.7637" y2="49.9199" gradientUnits="userSpaceOnUse">
<stop stop-color="#00A09D"/>
<stop offset="1" stop-color="#00E2FF"/>
</linearGradient>
<clipPath id="clip0_3_3891">
<rect width="82" height="60" rx="3" fill="white"/>
</clipPath>
</defs>
</svg>
