<svg width="310" height="150" viewBox="0 0 310 150" fill="none" xmlns="http://www.w3.org/2000/svg">
<path d="M132.175 113.735H118.583C118.254 113.735 117.928 113.669 117.624 113.542C117.32 113.415 117.044 113.228 116.811 112.992C116.578 112.756 116.394 112.477 116.268 112.169C116.142 111.861 116.078 111.531 116.078 111.197V47.384H129.673V111.197C129.672 111.53 129.737 111.86 129.862 112.168C129.988 112.476 130.172 112.756 130.405 112.991C130.637 113.227 130.913 113.414 131.217 113.541C131.521 113.669 131.846 113.735 132.175 113.735Z" fill="white"/>
<path d="M125.469 54.2222H120.495C119.868 54.2222 119.36 54.7664 119.36 55.4378V60.7652C119.36 61.4365 119.868 61.9807 120.495 61.9807H125.469C126.096 61.9807 126.605 61.4365 126.605 60.7652V55.4378C126.605 54.7664 126.096 54.2222 125.469 54.2222Z" fill="#151515" fill-opacity="0.18"/>
<path d="M125.469 64.7659H120.495C119.868 64.7659 119.36 65.3101 119.36 65.9816V71.309C119.36 71.9802 119.868 72.5246 120.495 72.5246H125.469C126.096 72.5246 126.605 71.9802 126.605 71.309V65.9816C126.605 65.3101 126.096 64.7659 125.469 64.7659Z" fill="#FFD600" fill-opacity="0.18"/>
<path d="M125.469 75.3075H120.495C119.868 75.3075 119.36 75.8517 119.36 76.523V81.8504C119.36 82.5218 119.868 83.066 120.495 83.066H125.469C126.096 83.066 126.605 82.5218 126.605 81.8504V76.523C126.605 75.8517 126.096 75.3075 125.469 75.3075Z" fill="#FFD600" fill-opacity="0.18"/>
<path d="M125.469 85.8489H120.495C119.868 85.8489 119.36 86.3931 119.36 87.0646V92.3918C119.36 93.0632 119.868 93.6074 120.495 93.6074H125.469C126.096 93.6074 126.605 93.0632 126.605 92.3918V87.0646C126.605 86.3931 126.096 85.8489 125.469 85.8489Z" fill="#FFD600" fill-opacity="0.18"/>
<path d="M118.479 36.1699H191.579C192.126 36.1699 192.673 36.571 193.086 37.3317C193.498 38.0899 193.733 39.1245 193.733 40.2082V47.3242H116.325V40.2082C116.325 39.1245 116.56 38.0899 116.972 37.3316C117.385 36.571 117.932 36.1699 118.479 36.1699Z" fill="#3586CB" stroke="#3586CB" stroke-width="0.183594"/>
<path d="M118.439 36.0974H191.578C192.163 36.0974 192.729 36.5241 193.149 37.2936C193.569 38.0624 193.805 39.1066 193.805 40.1965V47.3644H116.212V40.1965C116.212 39.1066 116.448 38.0624 116.867 37.2936C117.287 36.5241 117.853 36.0974 118.439 36.0974Z" stroke="white" stroke-opacity="0.4" stroke-width="0.0458984"/>
<path d="M118.439 36.0974H191.578C192.163 36.0974 192.729 36.5241 193.149 37.2936C193.569 38.0624 193.805 39.1066 193.805 40.1965V47.3644H116.212V40.1965C116.212 39.1066 116.448 38.0624 116.867 37.2936C117.287 36.5241 117.853 36.0974 118.439 36.0974Z" stroke="black" stroke-opacity="0.2" stroke-width="0.0458984"/>
<path d="M132.148 36.0781C131.485 36.0791 130.849 36.5112 130.381 37.2796C129.912 38.048 129.649 39.0898 129.649 40.176V47.3274H116.078V40.176C116.078 39.0891 116.342 38.0469 116.811 37.2784C117.28 36.5099 117.916 36.0781 118.579 36.0781H132.148Z" fill="#366FCA"/>
<path d="M160.682 44.8788H161.383V40.7042H160.682V44.8788ZM158.775 39.3899V40.0083H163.29V39.3899H158.775Z" fill="white"/>
<path d="M160.682 44.8788H161.383V40.7042H160.682V44.8788ZM158.775 39.3899V40.0083H163.29V39.3899H158.775Z" fill="url(#paint0_radial_35_116)" fill-opacity="0.2"/>
<path d="M163.93 44.9482C164.114 44.9482 164.292 44.9274 164.462 44.8788C164.633 44.8372 164.782 44.7748 164.924 44.6916C165.066 44.6083 165.187 44.5113 165.294 44.4003C165.4 44.2893 165.485 44.1714 165.549 44.0327L165.009 43.8871C164.967 43.9842 164.91 44.0674 164.839 44.1368C164.768 44.213 164.683 44.2755 164.59 44.324C164.491 44.3795 164.391 44.4211 164.285 44.4488C164.171 44.4766 164.065 44.4904 163.951 44.4904C163.788 44.4904 163.631 44.4627 163.489 44.4003C163.347 44.3448 163.219 44.2616 163.106 44.1506C162.992 44.0466 162.9 43.9218 162.829 43.7692C162.758 43.6236 162.715 43.4571 162.701 43.2768H165.777C165.777 43.256 165.784 43.2213 165.784 43.1797C165.784 43.1381 165.791 43.0965 165.791 43.041C165.791 42.8052 165.741 42.5694 165.656 42.3475C165.571 42.1256 165.443 41.9245 165.286 41.758C165.123 41.5916 164.924 41.4529 164.697 41.3489C164.47 41.2518 164.214 41.1963 163.937 41.1963C163.653 41.1963 163.397 41.2518 163.17 41.3489C162.935 41.446 162.736 41.5846 162.566 41.7511C162.395 41.9245 162.267 42.1256 162.175 42.3475C162.083 42.5764 162.04 42.8191 162.04 43.0688C162.04 43.3254 162.083 43.5681 162.175 43.7969C162.267 44.0258 162.395 44.2269 162.566 44.3934C162.729 44.5667 162.928 44.7054 163.162 44.8025C163.39 44.8996 163.646 44.9482 163.93 44.9482ZM165.201 42.826H162.687C162.701 42.6596 162.736 42.5001 162.807 42.3545C162.878 42.2157 162.964 42.0909 163.077 41.9869C163.191 41.8829 163.319 41.7996 163.468 41.7442C163.61 41.6887 163.766 41.654 163.937 41.654C164.1 41.654 164.257 41.6887 164.406 41.7442C164.548 41.7996 164.676 41.8829 164.789 41.98C164.903 42.084 164.995 42.2088 165.066 42.3545C165.137 42.5001 165.187 42.6596 165.201 42.826Z" fill="white"/>
<path d="M163.93 44.9482C164.114 44.9482 164.292 44.9274 164.462 44.8788C164.633 44.8372 164.782 44.7748 164.924 44.6916C165.066 44.6083 165.187 44.5113 165.294 44.4003C165.4 44.2893 165.485 44.1714 165.549 44.0327L165.009 43.8871C164.967 43.9842 164.91 44.0674 164.839 44.1368C164.768 44.213 164.683 44.2755 164.59 44.324C164.491 44.3795 164.391 44.4211 164.285 44.4488C164.171 44.4766 164.065 44.4904 163.951 44.4904C163.788 44.4904 163.631 44.4627 163.489 44.4003C163.347 44.3448 163.219 44.2616 163.106 44.1506C162.992 44.0466 162.9 43.9218 162.829 43.7692C162.758 43.6236 162.715 43.4571 162.701 43.2768H165.777C165.777 43.256 165.784 43.2213 165.784 43.1797C165.784 43.1381 165.791 43.0965 165.791 43.041C165.791 42.8052 165.741 42.5694 165.656 42.3475C165.571 42.1256 165.443 41.9245 165.286 41.758C165.123 41.5916 164.924 41.4529 164.697 41.3489C164.47 41.2518 164.214 41.1963 163.937 41.1963C163.653 41.1963 163.397 41.2518 163.17 41.3489C162.935 41.446 162.736 41.5846 162.566 41.7511C162.395 41.9245 162.267 42.1256 162.175 42.3475C162.083 42.5764 162.04 42.8191 162.04 43.0688C162.04 43.3254 162.083 43.5681 162.175 43.7969C162.267 44.0258 162.395 44.2269 162.566 44.3934C162.729 44.5667 162.928 44.7054 163.162 44.8025C163.39 44.8996 163.646 44.9482 163.93 44.9482ZM165.201 42.826H162.687C162.701 42.6596 162.736 42.5001 162.807 42.3545C162.878 42.2157 162.964 42.0909 163.077 41.9869C163.191 41.8829 163.319 41.7996 163.468 41.7442C163.61 41.6887 163.766 41.654 163.937 41.654C164.1 41.654 164.257 41.6887 164.406 41.7442C164.548 41.7996 164.676 41.8829 164.789 41.98C164.903 42.084 164.995 42.2088 165.066 42.3545C165.137 42.5001 165.187 42.6596 165.201 42.826Z" fill="url(#paint1_radial_35_116)" fill-opacity="0.2"/>
<path d="M166.068 39.3899V44.0595C166.068 44.3202 166.141 44.5213 166.302 44.6628C166.464 44.8117 166.682 44.8788 166.957 44.8788C167.078 44.8788 167.223 44.8639 167.385 44.8341C167.546 44.8043 167.684 44.767 167.805 44.7224L167.692 44.1936C167.619 44.2234 167.546 44.2457 167.466 44.2606C167.385 44.2755 167.312 44.2829 167.256 44.2829C167.102 44.2829 166.981 44.2457 166.9 44.1638C166.82 44.0819 166.779 43.9702 166.779 43.8212V39.3899L166.068 39.3899Z" fill="white"/>
<path d="M166.068 39.3899V44.0595C166.068 44.3202 166.141 44.5213 166.302 44.6628C166.464 44.8117 166.682 44.8788 166.957 44.8788C167.078 44.8788 167.223 44.8639 167.385 44.8341C167.546 44.8043 167.684 44.767 167.805 44.7224L167.692 44.1936C167.619 44.2234 167.546 44.2457 167.466 44.2606C167.385 44.2755 167.312 44.2829 167.256 44.2829C167.102 44.2829 166.981 44.2457 166.9 44.1638C166.82 44.0819 166.779 43.9702 166.779 43.8212V39.3899L166.068 39.3899Z" fill="url(#paint2_radial_35_116)" fill-opacity="0.2"/>
<path d="M169.417 44.9482C169.602 44.9482 169.779 44.9274 169.95 44.8788C170.12 44.8372 170.269 44.7748 170.411 44.6916C170.553 44.6083 170.674 44.5113 170.781 44.4003C170.887 44.2893 170.973 44.1714 171.036 44.0327L170.497 43.8871C170.454 43.9842 170.397 44.0674 170.326 44.1368C170.255 44.213 170.17 44.2755 170.078 44.324C169.978 44.3795 169.879 44.4211 169.772 44.4488C169.658 44.4766 169.552 44.4904 169.438 44.4904C169.275 44.4904 169.118 44.4627 168.976 44.4003C168.834 44.3448 168.707 44.2616 168.593 44.1506C168.479 44.0466 168.387 43.9218 168.316 43.7692C168.245 43.6236 168.202 43.4571 168.188 43.2768H171.264C171.264 43.256 171.271 43.2213 171.271 43.1797C171.271 43.1381 171.278 43.0965 171.278 43.041C171.278 42.8052 171.228 42.5694 171.143 42.3475C171.058 42.1256 170.93 41.9245 170.774 41.758C170.61 41.5916 170.411 41.4529 170.184 41.3489C169.957 41.2518 169.701 41.1963 169.424 41.1963C169.14 41.1963 168.884 41.2518 168.657 41.3489C168.422 41.446 168.223 41.5846 168.053 41.7511C167.882 41.9245 167.755 42.1256 167.662 42.3475C167.57 42.5764 167.527 42.8191 167.527 43.0688C167.527 43.3254 167.57 43.5681 167.662 43.7969C167.755 44.0258 167.882 44.2269 168.053 44.3934C168.216 44.5667 168.415 44.7054 168.65 44.8025C168.877 44.8996 169.133 44.9482 169.417 44.9482ZM170.688 42.826H168.174C168.188 42.6596 168.223 42.5001 168.294 42.3545C168.366 42.2157 168.451 42.0909 168.564 41.9869C168.678 41.8829 168.806 41.7996 168.955 41.7442C169.097 41.6887 169.253 41.654 169.424 41.654C169.587 41.654 169.744 41.6887 169.893 41.7442C170.035 41.7996 170.163 41.8829 170.276 41.98C170.39 42.084 170.482 42.2088 170.553 42.3545C170.625 42.5001 170.674 42.6596 170.688 42.826Z" fill="white"/>
<path d="M169.417 44.9482C169.602 44.9482 169.779 44.9274 169.95 44.8788C170.12 44.8372 170.269 44.7748 170.411 44.6916C170.553 44.6083 170.674 44.5113 170.781 44.4003C170.887 44.2893 170.973 44.1714 171.036 44.0327L170.497 43.8871C170.454 43.9842 170.397 44.0674 170.326 44.1368C170.255 44.213 170.17 44.2755 170.078 44.324C169.978 44.3795 169.879 44.4211 169.772 44.4488C169.658 44.4766 169.552 44.4904 169.438 44.4904C169.275 44.4904 169.118 44.4627 168.976 44.4003C168.834 44.3448 168.707 44.2616 168.593 44.1506C168.479 44.0466 168.387 43.9218 168.316 43.7692C168.245 43.6236 168.202 43.4571 168.188 43.2768H171.264C171.264 43.256 171.271 43.2213 171.271 43.1797C171.271 43.1381 171.278 43.0965 171.278 43.041C171.278 42.8052 171.228 42.5694 171.143 42.3475C171.058 42.1256 170.93 41.9245 170.774 41.758C170.61 41.5916 170.411 41.4529 170.184 41.3489C169.957 41.2518 169.701 41.1963 169.424 41.1963C169.14 41.1963 168.884 41.2518 168.657 41.3489C168.422 41.446 168.223 41.5846 168.053 41.7511C167.882 41.9245 167.755 42.1256 167.662 42.3475C167.57 42.5764 167.527 42.8191 167.527 43.0688C167.527 43.3254 167.57 43.5681 167.662 43.7969C167.755 44.0258 167.882 44.2269 168.053 44.3934C168.216 44.5667 168.415 44.7054 168.65 44.8025C168.877 44.8996 169.133 44.9482 169.417 44.9482ZM170.688 42.826H168.174C168.188 42.6596 168.223 42.5001 168.294 42.3545C168.366 42.2157 168.451 42.0909 168.564 41.9869C168.678 41.8829 168.806 41.7996 168.955 41.7442C169.097 41.6887 169.253 41.654 169.424 41.654C169.587 41.654 169.744 41.6887 169.893 41.7442C170.035 41.7996 170.163 41.8829 170.276 41.98C170.39 42.084 170.482 42.2088 170.553 42.3545C170.625 42.5001 170.674 42.6596 170.688 42.826Z" fill="url(#paint3_radial_35_116)" fill-opacity="0.2"/>
<path d="M171.697 42.4291L173.179 42.4161L173.175 41.9543L171.693 41.9673L171.697 42.4291Z" fill="white"/>
<path d="M171.697 42.4291L173.179 42.4161L173.175 41.9543L171.693 41.9673L171.697 42.4291Z" fill="url(#paint4_radial_35_116)" fill-opacity="0.2"/>
<path d="M176.53 43.8817C175.619 43.8817 174.831 43.1032 174.823 42.1613C174.696 42.4649 174.49 43.0254 174.68 43.6248C174.735 43.8117 174.894 44.2087 175.354 44.5823C175.52 44.7147 175.673 44.7827 175.863 44.8528C176.077 44.8995 176.337 44.9482 176.574 44.9482C177.668 44.9482 178.588 44.4578 179.111 43.6949L177.97 43.1966C177.645 43.617 177.129 43.8817 176.59 43.8817H176.53ZM176.59 40.4642C177.137 40.4642 177.652 40.7289 177.977 41.1492L179.127 40.6432C178.604 39.8803 177.676 39.3899 176.574 39.3899C174.862 39.3899 173.57 40.581 173.57 42.1535C173.57 42.5427 173.649 42.9086 173.792 43.2434C174.173 40.3863 176.59 40.4642 176.59 40.4642Z" fill="white"/>
<path d="M176.53 43.8817C175.619 43.8817 174.831 43.1032 174.823 42.1613C174.696 42.4649 174.49 43.0254 174.68 43.6248C174.735 43.8117 174.894 44.2087 175.354 44.5823C175.52 44.7147 175.673 44.7827 175.863 44.8528C176.077 44.8995 176.337 44.9482 176.574 44.9482C177.668 44.9482 178.588 44.4578 179.111 43.6949L177.97 43.1966C177.645 43.617 177.129 43.8817 176.59 43.8817H176.53ZM176.59 40.4642C177.137 40.4642 177.652 40.7289 177.977 41.1492L179.127 40.6432C178.604 39.8803 177.676 39.3899 176.574 39.3899C174.862 39.3899 173.57 40.581 173.57 42.1535C173.57 42.5427 173.649 42.9086 173.792 43.2434C174.173 40.3863 176.59 40.4642 176.59 40.4642Z" fill="url(#paint5_radial_35_116)" fill-opacity="0.2"/>
<path d="M183.822 39.3899L182.315 42.835L180.807 39.3899H179.404V44.9162H180.511V41.0218L181.906 44.3564H182.724L184.119 41.0296L184.127 44.9241H185.217V39.3978L183.822 39.3899Z" fill="white"/>
<path d="M183.822 39.3899L182.315 42.835L180.807 39.3899H179.404V44.9162H180.511V41.0218L181.906 44.3564H182.724L184.119 41.0296L184.127 44.9241H185.217V39.3978L183.822 39.3899Z" fill="url(#paint6_radial_35_116)" fill-opacity="0.2"/>
<path d="M188.231 41.6342C187.64 41.4633 187.123 41.3158 187.123 40.8809C187.123 40.5936 187.369 40.4227 187.788 40.4227C188.239 40.4227 188.946 40.6479 189.529 40.9741L190.013 39.9723C189.438 39.6073 188.658 39.3899 187.911 39.3899C186.605 39.3899 185.767 40.0267 185.767 41.0051C185.767 42.1156 186.72 42.3797 187.558 42.6126C188.166 42.7835 188.691 42.931 188.691 43.3814C188.691 43.7231 188.404 43.925 187.919 43.925C187.32 43.925 186.498 43.5911 185.94 43.1252L185.447 44.1036C186.112 44.6317 187.024 44.9501 187.903 44.9501C189.209 44.9501 190.055 44.3055 190.055 43.3115C190.055 42.17 189.094 41.8904 188.239 41.6497L188.231 41.6342Z" fill="white"/>
<path d="M188.231 41.6342C187.64 41.4633 187.123 41.3158 187.123 40.8809C187.123 40.5936 187.369 40.4227 187.788 40.4227C188.239 40.4227 188.946 40.6479 189.529 40.9741L190.013 39.9723C189.438 39.6073 188.658 39.3899 187.911 39.3899C186.605 39.3899 185.767 40.0267 185.767 41.0051C185.767 42.1156 186.72 42.3797 187.558 42.6126C188.166 42.7835 188.691 42.931 188.691 43.3814C188.691 43.7231 188.404 43.925 187.919 43.925C187.32 43.925 186.498 43.5911 185.94 43.1252L185.447 44.1036C186.112 44.6317 187.024 44.9501 187.903 44.9501C189.209 44.9501 190.055 44.3055 190.055 43.3115C190.055 42.17 189.094 41.8904 188.239 41.6497L188.231 41.6342Z" fill="url(#paint7_radial_35_116)" fill-opacity="0.2"/>
<path d="M187.282 108.596C187.411 108.595 187.515 108.49 187.514 108.361C187.514 108.232 187.409 108.128 187.28 108.128C187.151 108.129 187.047 108.234 187.047 108.363C187.048 108.492 187.153 108.596 187.282 108.596Z" fill="white"/>
<path d="M187.277 107.194C186.975 107.195 186.685 107.313 186.468 107.524C186.424 107.567 186.398 107.626 186.397 107.688C186.396 107.75 186.42 107.81 186.463 107.854C186.507 107.899 186.566 107.924 186.628 107.925C186.69 107.926 186.749 107.902 186.794 107.859C186.926 107.737 187.099 107.669 187.279 107.669C187.459 107.668 187.632 107.735 187.765 107.856C187.81 107.898 187.87 107.922 187.932 107.92C187.994 107.919 188.053 107.893 188.096 107.849C188.139 107.804 188.162 107.744 188.161 107.682C188.159 107.62 188.133 107.561 188.089 107.518C187.87 107.309 187.579 107.193 187.277 107.194ZM187.273 106.026C186.991 106.027 186.712 106.085 186.453 106.196C186.194 106.308 185.96 106.47 185.764 106.674C185.743 106.696 185.727 106.723 185.716 106.752C185.705 106.781 185.7 106.812 185.7 106.843C185.701 106.874 185.709 106.905 185.721 106.933C185.734 106.961 185.752 106.987 185.775 107.008C185.821 107.051 185.881 107.074 185.944 107.072C185.975 107.071 186.006 107.064 186.034 107.051C186.062 107.038 186.088 107.02 186.109 106.997C186.261 106.838 186.443 106.712 186.645 106.625C186.847 106.538 187.064 106.493 187.284 106.493C187.504 106.492 187.721 106.535 187.924 106.62C188.126 106.706 188.31 106.831 188.463 106.989C188.484 107.011 188.51 107.028 188.539 107.04C188.567 107.052 188.598 107.058 188.629 107.058C188.674 107.058 188.719 107.044 188.757 107.019C188.795 106.993 188.824 106.957 188.842 106.915C188.86 106.873 188.865 106.827 188.857 106.782C188.848 106.737 188.827 106.696 188.796 106.663C188.598 106.459 188.361 106.298 188.099 106.189C187.838 106.079 187.557 106.024 187.273 106.026Z" fill="white"/>
<path d="M189.541 105.768C188.93 105.182 188.115 104.856 187.268 104.859C186.421 104.862 185.609 105.194 185.001 105.784C184.962 105.828 184.941 105.885 184.942 105.944C184.943 106.003 184.967 106.059 185.008 106.102C185.048 106.144 185.104 106.17 185.163 106.173C185.222 106.176 185.28 106.157 185.325 106.119C185.846 105.612 186.543 105.327 187.27 105.324C187.996 105.322 188.696 105.602 189.22 106.105C189.264 106.147 189.321 106.17 189.381 106.17C189.413 106.17 189.444 106.163 189.473 106.151C189.502 106.138 189.528 106.12 189.549 106.097C189.592 106.052 189.615 105.992 189.613 105.931C189.612 105.869 189.586 105.81 189.541 105.768Z" fill="white"/>
<path d="M179.435 67.6202L142.821 88.7346L143.995 90.7664L180.609 69.6519L179.435 67.6202Z" fill="#64717C"/>
<path d="M142.821 69.6524L179.435 90.7668L180.609 88.7351L143.996 67.6207L142.821 69.6524Z" fill="#64717C"/>
<path d="M162.889 100.308V58.0796H160.541V100.308H162.889Z" fill="#64717C"/>
<path d="M161.715 61.5984C163.661 61.5984 165.238 60.0229 165.238 58.0794C165.238 56.1358 163.661 54.5603 161.715 54.5603C159.769 54.5603 158.192 56.1358 158.192 58.0794C158.192 60.0229 159.769 61.5984 161.715 61.5984Z" fill="url(#paint8_linear_35_116)"/>
<path d="M142.925 72.1558C144.871 72.1558 146.448 70.5803 146.448 68.6367C146.448 66.6932 144.871 65.1177 142.925 65.1177C140.979 65.1177 139.402 66.6932 139.402 68.6367C139.402 70.5803 140.979 72.1558 142.925 72.1558Z" fill="url(#paint9_linear_35_116)"/>
<path d="M142.925 93.2701C144.871 93.2701 146.448 91.6945 146.448 89.751C146.448 87.8075 144.871 86.2319 142.925 86.2319C140.979 86.2319 139.402 87.8075 139.402 89.751C139.402 91.6945 140.979 93.2701 142.925 93.2701Z" fill="url(#paint10_linear_35_116)"/>
<path d="M180.505 72.1558C182.451 72.1558 184.028 70.5803 184.028 68.6367C184.028 66.6932 182.451 65.1177 180.505 65.1177C178.559 65.1177 176.982 66.6932 176.982 68.6367C176.982 70.5803 178.559 72.1558 180.505 72.1558Z" fill="url(#paint11_linear_35_116)"/>
<path d="M180.505 93.2701C182.451 93.2701 184.028 91.6945 184.028 89.751C184.028 87.8075 182.451 86.2319 180.505 86.2319C178.559 86.2319 176.982 87.8075 176.982 89.751C176.982 91.6945 178.559 93.2701 180.505 93.2701Z" fill="url(#paint12_linear_35_116)"/>
<path d="M161.715 103.827C163.661 103.827 165.238 102.252 165.238 100.308C165.238 98.3646 163.661 96.7891 161.715 96.7891C159.769 96.7891 158.192 98.3646 158.192 100.308C158.192 102.252 159.769 103.827 161.715 103.827Z" fill="url(#paint13_linear_35_116)"/>
<path d="M174.633 79.1938C174.633 86.3199 168.849 92.097 161.715 92.097C154.581 92.097 148.797 86.3199 148.797 79.1938C148.797 72.0677 154.581 66.2905 161.715 66.2905C168.849 66.2905 174.633 72.0677 174.633 79.1938Z" fill="url(#paint14_radial_35_116)"/>
<path d="M161.715 92.097C165.458 92.097 168.819 90.497 171.178 87.9562C169.58 84.3187 165.948 81.7744 161.715 81.7744C157.483 81.7744 153.85 84.3187 152.252 87.9562C154.611 90.497 157.972 92.097 161.715 92.097Z" fill="url(#paint15_radial_35_116)"/>
<path d="M161.715 81.5398C164.958 81.5398 167.587 78.9139 167.587 75.6747C167.587 72.4355 164.958 69.8096 161.715 69.8096C158.472 69.8096 155.843 72.4355 155.843 75.6747C155.843 78.9139 158.472 81.5398 161.715 81.5398Z" fill="url(#paint16_radial_35_116)"/>
<path d="M161.715 80.3668C164.31 80.3668 166.413 78.2661 166.413 75.6748C166.413 73.0834 164.31 70.9827 161.715 70.9827C159.121 70.9827 157.018 73.0834 157.018 75.6748C157.018 78.2661 159.121 80.3668 161.715 80.3668Z" fill="url(#paint17_linear_35_116)"/>
<path d="M161.715 92.097C164.954 92.097 167.908 90.897 170.175 88.9298C168.889 85.5058 165.592 83.0647 161.715 83.0647C157.839 83.0647 154.541 85.5058 153.255 88.9298C155.523 90.897 158.476 92.097 161.715 92.097Z" fill="url(#paint18_linear_35_116)"/>
<path d="M193.844 47.4937V109.651C193.844 111.967 191.965 113.844 189.646 113.844H133.26C131.285 113.844 129.684 112.245 129.684 110.272V47.4937H193.844Z" fill="url(#paint19_linear_35_116)" fill-opacity="0.5"/>
<path d="M193.922 47.4937V47.416H193.844H129.684H129.606V47.4937V110.272C129.606 112.288 131.242 113.922 133.26 113.922H189.646C192.007 113.922 193.922 112.01 193.922 109.651V47.4937Z" stroke="url(#paint20_radial_35_116)" stroke-width="0.183594"/>
<path d="M193.922 47.4937V47.416H193.844H129.684H129.606V47.4937V110.272C129.606 112.288 131.242 113.922 133.26 113.922H189.646C192.007 113.922 193.922 112.01 193.922 109.651V47.4937Z" stroke="url(#paint21_radial_35_116)" stroke-width="0.183594"/>
<path d="M193.922 47.4937V47.416H193.844H129.684H129.606V47.4937V110.272C129.606 112.288 131.242 113.922 133.26 113.922H189.646C192.007 113.922 193.922 112.01 193.922 109.651V47.4937Z" stroke="url(#paint22_radial_35_116)" stroke-width="0.183594"/>
<defs>
<radialGradient id="paint0_radial_35_116" cx="0" cy="0" r="1" gradientUnits="userSpaceOnUse" gradientTransform="translate(161.033 42.1343) rotate(90.2483) scale(1.54233 1.2697)">
<stop stop-opacity="0.541667"/>
<stop offset="0.0001" stop-opacity="0.29"/>
<stop offset="0.53125" stop-opacity="0.09"/>
<stop offset="1" stop-opacity="0"/>
</radialGradient>
<radialGradient id="paint1_radial_35_116" cx="0" cy="0" r="1" gradientUnits="userSpaceOnUse" gradientTransform="translate(163.916 43.0722) rotate(90.3018) scale(1.05425 1.05482)">
<stop stop-opacity="0.541667"/>
<stop offset="0.0001" stop-opacity="0.29"/>
<stop offset="0.53125" stop-opacity="0.09"/>
<stop offset="1" stop-opacity="0"/>
</radialGradient>
<radialGradient id="paint2_radial_35_116" cx="0" cy="0" r="1" gradientUnits="userSpaceOnUse" gradientTransform="translate(166.937 42.1343) rotate(90.0955) scale(1.54232 0.488348)">
<stop stop-opacity="0.541667"/>
<stop offset="0.0001" stop-opacity="0.29"/>
<stop offset="0.53125" stop-opacity="0.09"/>
<stop offset="1" stop-opacity="0"/>
</radialGradient>
<radialGradient id="paint3_radial_35_116" cx="0" cy="0" r="1" gradientUnits="userSpaceOnUse" gradientTransform="translate(169.403 43.0722) rotate(90.3018) scale(1.05425 1.05482)">
<stop stop-opacity="0.541667"/>
<stop offset="0.0001" stop-opacity="0.29"/>
<stop offset="0.53125" stop-opacity="0.09"/>
<stop offset="1" stop-opacity="0"/>
</radialGradient>
<radialGradient id="paint4_radial_35_116" cx="0" cy="0" r="1" gradientUnits="userSpaceOnUse" gradientTransform="translate(172.436 42.1917) rotate(90.4692) scale(0.129783 0.416878)">
<stop stop-opacity="0.541667"/>
<stop offset="0.0001" stop-opacity="0.29"/>
<stop offset="0.53125" stop-opacity="0.09"/>
<stop offset="1" stop-opacity="0"/>
</radialGradient>
<radialGradient id="paint5_radial_35_116" cx="0" cy="0" r="1" gradientUnits="userSpaceOnUse" gradientTransform="translate(176.349 42.1691) rotate(90.3018) scale(1.56186 1.5627)">
<stop stop-opacity="0.541667"/>
<stop offset="0.0001" stop-opacity="0.29"/>
<stop offset="0.53125" stop-opacity="0.09"/>
<stop offset="1" stop-opacity="0"/>
</radialGradient>
<radialGradient id="paint6_radial_35_116" cx="0" cy="0" r="1" gradientUnits="userSpaceOnUse" gradientTransform="translate(182.311 42.157) rotate(90.3171) scale(1.55507 1.63477)">
<stop stop-opacity="0.541667"/>
<stop offset="0.0001" stop-opacity="0.29"/>
<stop offset="0.53125" stop-opacity="0.09"/>
<stop offset="1" stop-opacity="0"/>
</radialGradient>
<radialGradient id="paint7_radial_35_116" cx="0" cy="0" r="1" gradientUnits="userSpaceOnUse" gradientTransform="translate(187.751 42.17) rotate(90.2502) scale(1.56237 1.29575)">
<stop stop-opacity="0.541667"/>
<stop offset="0.0001" stop-opacity="0.29"/>
<stop offset="0.53125" stop-opacity="0.09"/>
<stop offset="1" stop-opacity="0"/>
</radialGradient>
<linearGradient id="paint8_linear_35_116" x1="159.379" y1="55.7462" x2="164.307" y2="60.681" gradientUnits="userSpaceOnUse">
<stop stop-color="#0176D0"/>
<stop offset="1" stop-color="#0A85D9"/>
</linearGradient>
<linearGradient id="paint9_linear_35_116" x1="140.589" y1="66.3036" x2="145.518" y2="71.2372" gradientUnits="userSpaceOnUse">
<stop stop-color="#0176D0"/>
<stop offset="1" stop-color="#0A85D9"/>
</linearGradient>
<linearGradient id="paint10_linear_35_116" x1="140.589" y1="87.4179" x2="145.518" y2="92.3514" gradientUnits="userSpaceOnUse">
<stop stop-color="#0176D0"/>
<stop offset="1" stop-color="#0A85D9"/>
</linearGradient>
<linearGradient id="paint11_linear_35_116" x1="178.169" y1="66.3036" x2="183.097" y2="71.2372" gradientUnits="userSpaceOnUse">
<stop stop-color="#0176D0"/>
<stop offset="1" stop-color="#0A85D9"/>
</linearGradient>
<linearGradient id="paint12_linear_35_116" x1="178.169" y1="87.4179" x2="183.097" y2="92.3514" gradientUnits="userSpaceOnUse">
<stop stop-color="#0176D0"/>
<stop offset="1" stop-color="#0A85D9"/>
</linearGradient>
<linearGradient id="paint13_linear_35_116" x1="159.379" y1="97.975" x2="164.307" y2="102.909" gradientUnits="userSpaceOnUse">
<stop stop-color="#0176D0"/>
<stop offset="1" stop-color="#0A85D9"/>
</linearGradient>
<radialGradient id="paint14_radial_35_116" cx="0" cy="0" r="1" gradientUnits="userSpaceOnUse" gradientTransform="translate(153.432 69.1246) scale(26.0383 26.0083)">
<stop stop-color="#0370C8"/>
<stop offset="0.484" stop-color="#036FC5"/>
<stop offset="0.775" stop-color="#036ABD"/>
<stop offset="1" stop-color="#0362B0"/>
</radialGradient>
<radialGradient id="paint15_radial_35_116" cx="0" cy="0" r="1" gradientUnits="userSpaceOnUse" gradientTransform="translate(161.715 92.1662) scale(10.4249 10.4129)">
<stop/>
<stop offset="1" stop-opacity="0"/>
</radialGradient>
<radialGradient id="paint16_radial_35_116" cx="0" cy="0" r="1" gradientUnits="userSpaceOnUse" gradientTransform="translate(161.715 75.6737) scale(5.87165 5.86488)">
<stop/>
<stop offset="1" stop-opacity="0"/>
</radialGradient>
<linearGradient id="paint17_linear_35_116" x1="158.528" y1="72.4912" x2="165.075" y2="79.0454" gradientUnits="userSpaceOnUse">
<stop stop-color="#75DAFF"/>
<stop offset="1" stop-color="#1EA2E4"/>
</linearGradient>
<linearGradient id="paint18_linear_35_116" x1="157.198" y1="83.8448" x2="166.153" y2="92.8111" gradientUnits="userSpaceOnUse">
<stop stop-color="#75DAFF"/>
<stop offset="1" stop-color="#1EA2E4"/>
</linearGradient>
<linearGradient id="paint19_linear_35_116" x1="193.844" y1="47.4937" x2="115.917" y2="85.94" gradientUnits="userSpaceOnUse">
<stop stop-color="white" stop-opacity="0.4"/>
<stop offset="1" stop-color="white" stop-opacity="0"/>
</linearGradient>
<radialGradient id="paint20_radial_35_116" cx="0" cy="0" r="1" gradientUnits="userSpaceOnUse" gradientTransform="translate(161.764 80.6689) rotate(-43.5402) scale(61.4514 47.7798)">
<stop stop-color="white"/>
<stop offset="1" stop-color="white" stop-opacity="0"/>
</radialGradient>
<radialGradient id="paint21_radial_35_116" cx="0" cy="0" r="1" gradientUnits="userSpaceOnUse" gradientTransform="translate(161.764 80.6689) rotate(129.731) scale(51.7659 36.9767)">
<stop stop-color="#0938DF"/>
<stop offset="1" stop-color="#0938DF" stop-opacity="0"/>
</radialGradient>
<radialGradient id="paint22_radial_35_116" cx="0" cy="0" r="1" gradientUnits="userSpaceOnUse" gradientTransform="translate(161.764 80.6689) rotate(-133.083) scale(49.7835 37.122)">
<stop stop-color="#151515"/>
<stop offset="1" stop-color="#151515" stop-opacity="0"/>
</radialGradient>
</defs>
</svg>
