<svg width="199" height="199" viewBox="0 0 199 199" fill="none" xmlns="http://www.w3.org/2000/svg">
<g filter="url(#filter0_d_137_593)">
<path d="M172.887 8H26.1129C18.3186 8 12 14.3186 12 22.1129V168.887C12 176.681 18.3186 183 26.1129 183H172.887C180.681 183 187 176.681 187 168.887V22.1129C187 14.3186 180.681 8 172.887 8Z" fill="white"/>
<path d="M172.887 8H26.1129C18.3186 8 12 14.3186 12 22.1129V168.887C12 176.681 18.3186 183 26.1129 183H172.887C180.681 183 187 176.681 187 168.887V22.1129C187 14.3186 180.681 8 172.887 8Z" fill="url(#paint0_linear_137_593)" fill-opacity="0.2"/>
<path d="M172.887 8H26.1129C18.3186 8 12 14.3186 12 22.1129V168.887C12 176.681 18.3186 183 26.1129 183H172.887C180.681 183 187 176.681 187 168.887V22.1129C187 14.3186 180.681 8 172.887 8Z" stroke="#D5EAF6" stroke-width="15" stroke-linecap="round"/>
</g>
<path d="M72.8396 81.0372L66.6258 75.0453C62.1513 81.5585 59.5316 89.3595 59.5316 97.758C59.5316 105.316 61.6535 112.394 65.3416 118.482C65.9677 119.517 67.4655 119.663 68.3438 118.814L71.8481 115.435C72.4357 114.868 72.5447 114.007 72.1515 113.302C69.5682 108.668 68.0788 103.387 68.0788 97.758C68.0788 91.6466 69.8331 85.9453 72.8396 81.0372Z" fill="#50E6FF" fill-opacity="0.5"/>
<path d="M136.456 97.758C136.456 103.869 134.702 109.571 131.696 114.479L137.909 120.471C142.384 113.958 145.004 106.154 145.004 97.758C145.004 90.2002 142.882 83.1224 139.194 77.0337C138.568 75.9993 137.07 75.8551 136.191 76.7019L132.687 80.0811C132.099 80.6478 131.99 81.509 132.384 82.2137C134.967 86.8478 136.456 92.1288 136.456 97.758Z" fill="#199BE2" fill-opacity="0.5"/>
<path d="M83.936 68.425C84.5236 68.9916 85.4168 69.0967 86.1476 68.7176C90.9532 66.2264 96.4298 64.7903 102.268 64.7903C108.605 64.7903 114.518 66.4819 119.608 69.381L125.824 63.3871C119.067 59.0745 110.977 56.5483 102.268 56.5483C94.4683 56.5483 87.1647 58.5738 80.8718 62.0972C79.7585 62.7215 79.5235 64.1701 80.4338 65.0478L83.936 68.425Z" fill="#35C1F1" fill-opacity="0.5"/>
<path d="M120.599 127.091C120.012 126.524 119.118 126.419 118.388 126.798C113.582 129.29 108.105 130.726 102.268 130.726C95.9298 130.726 90.0173 129.034 84.9275 126.135L78.7137 132.127C85.4681 136.442 93.5601 138.968 102.268 138.968C110.105 138.968 117.445 136.922 123.759 133.365C124.832 132.762 124.984 131.317 124.104 130.47L120.599 127.091Z" fill="#0078D4" fill-opacity="0.5"/>
<path d="M127.768 73.1867L117.439 72.8447C116.708 72.82 116.345 71.9772 116.847 71.4621L126.798 61.2112C127.315 60.6775 128.242 61.0113 128.272 61.7408L128.702 72.2843C128.721 72.7891 128.292 73.2032 127.768 73.1867Z" fill="#35C1F1" fill-opacity="0.5"/>
<path d="M76.767 122.329L87.0963 122.671C87.8271 122.696 88.1904 123.539 87.6882 124.054L77.7371 134.305C77.22 134.838 76.2927 134.505 76.2627 133.775L75.8332 123.232C75.814 122.727 76.2435 122.313 76.767 122.329Z" fill="#0078D4" fill-opacity="0.5"/>
<path d="M127.749 122.348L128.104 112.387C128.129 111.683 129.003 111.332 129.537 111.817L140.168 121.412C140.721 121.911 140.375 122.805 139.619 122.834L128.685 123.248C128.161 123.267 127.732 122.853 127.749 122.348Z" fill="#199BE2" fill-opacity="0.5"/>
<path d="M76.7863 73.1682L76.4316 83.1286C76.4059 83.8333 75.532 84.1836 74.9978 83.6993L64.3651 74.1037C63.8116 73.605 64.1578 72.7108 64.9142 72.6819L75.8482 72.2678C76.3739 72.2492 76.8034 72.6634 76.7863 73.1682Z" fill="#50E6FF" fill-opacity="0.5"/>
<g filter="url(#filter1_dd_137_593)">
<path d="M40.5 83.5V49H100.5V83.5C100.5 85.15 99.15 86.5 97.5 86.5H43.5C41.85 86.5 40.5 85.15 40.5 83.5Z" fill="url(#paint1_linear_137_593)"/>
<path d="M100.5 41.5V49H40.5V41.5C40.5 39.85 41.85 38.5 43.5 38.5H97.5C99.15 38.5 100.5 39.85 100.5 41.5Z" fill="url(#paint2_linear_137_593)"/>
<path d="M59.25 46H96.75C97.164 46 97.5 45.664 97.5 45.25V42.25C97.5 41.836 97.164 41.5 96.75 41.5H59.25C58.836 41.5 58.5 41.836 58.5 42.25V45.25C58.5 45.664 58.836 46 59.25 46Z" fill="url(#paint3_linear_137_593)"/>
<path d="M45.75 46C46.9927 46 48 44.9927 48 43.75C48 42.5074 46.9927 41.5 45.75 41.5C44.5074 41.5 43.5 42.5074 43.5 43.75C43.5 44.9927 44.5074 46 45.75 46Z" fill="url(#paint4_linear_137_593)"/>
<path d="M53.2453 46C54.488 46 55.4953 44.9927 55.4953 43.75C55.4953 42.5074 54.488 41.5 53.2453 41.5C52.0027 41.5 50.9953 42.5074 50.9953 43.75C50.9953 44.9927 52.0027 46 53.2453 46Z" fill="url(#paint5_linear_137_593)"/>
<path d="M56.5 67.5333C56.5 59.8939 62.6939 53.7 70.3333 53.7C77.9728 53.7 84.1667 59.8939 84.1667 67.5333C84.1667 75.1728 77.9728 81.3667 70.3333 81.3667C62.6939 81.3667 56.5 75.1728 56.5 67.5333Z" fill="#3079D6" fill-opacity="0.51"/>
<path d="M82.0917 67.5333C82.0917 65.293 81.6262 63.1821 80.8197 61.3083H82.6747C82.434 60.8318 82.1733 60.3677 81.8807 59.925H80.1432C78.0371 56.1789 74.4287 53.7 70.3333 53.7C66.238 53.7 62.6296 56.1789 60.5234 59.925H58.786C58.4934 60.3677 58.2326 60.8318 57.9919 61.3083H59.847C59.0405 63.1821 58.575 65.293 58.575 67.5333C58.575 69.7736 59.0405 71.8846 59.847 73.7583H57.9919C58.2326 74.2349 58.4934 74.699 58.786 75.1417H60.5234C62.6296 78.8877 66.238 81.3667 70.3333 81.3667C74.4287 81.3667 78.0371 78.8877 80.1432 75.1417H81.8807C82.1733 74.699 82.434 74.2349 82.6747 73.7583H80.8197C81.6262 71.8846 82.0917 69.7736 82.0917 67.5333ZM80.7083 67.5333C80.7083 69.802 80.1917 71.9247 79.305 73.7583H75.2981C75.6737 71.7988 75.8667 69.645 75.8667 67.5333C75.8667 65.4217 75.6737 63.2678 75.2981 61.3083H79.305C80.1917 63.1419 80.7083 65.2647 80.7083 67.5333ZM70.3333 79.9833C69.1644 79.9833 67.9187 78.1594 67.1005 75.1417H73.5669C72.7479 78.1594 71.5023 79.9833 70.3333 79.9833ZM66.7699 73.7583C66.4054 71.969 66.1833 69.8649 66.1833 67.5333C66.1833 65.2017 66.4054 63.0977 66.7699 61.3083H73.8968C74.2613 63.0977 74.4833 65.2017 74.4833 67.5333C74.4833 69.8649 74.2613 71.969 73.8968 73.7583H66.7699ZM70.3333 55.0833C71.5023 55.0833 72.7479 56.9073 73.5662 59.925H67.0998C67.9187 56.9073 69.1644 55.0833 70.3333 55.0833ZM78.5275 59.925H74.9924C74.5594 58.1965 73.9694 56.6852 73.2273 55.5862C75.3569 56.3304 77.2009 57.8721 78.5275 59.925ZM67.4394 55.5862C66.6972 56.6859 66.1073 58.1965 65.6743 59.925H62.1392C63.4658 57.8721 65.3098 56.3304 67.4394 55.5862ZM59.9583 67.5333C59.9583 65.2647 60.475 63.1419 61.3617 61.3083H65.3686C64.993 63.2678 64.8 65.4217 64.8 67.5333C64.8 69.645 64.993 71.7988 65.3686 73.7583H61.3617C60.475 71.9247 59.9583 69.802 59.9583 67.5333ZM62.1392 75.1417H65.6743C66.1073 76.8701 66.6972 78.3814 67.4394 79.4805C65.3098 78.7363 63.4658 77.1945 62.1392 75.1417ZM73.2273 79.4805C73.9694 78.3807 74.5594 76.8701 74.9924 75.1417H78.5275C77.2009 77.1945 75.3569 78.7363 73.2273 79.4805Z" fill="#D9D9D9" fill-opacity="0.3"/>
<path d="M83.0144 64.075H81.1884C80.9463 64.075 80.7374 64.2445 80.6876 64.481L80.3618 66.0317L79.96 64.4596C79.9025 64.2334 79.6985 64.075 79.4647 64.075H77.802C77.5682 64.075 77.3641 64.2334 77.306 64.4603L76.9042 66.0324L76.5784 64.4817C76.5293 64.2445 76.3204 64.075 76.0783 64.075H72.8884C72.6463 64.075 72.4374 64.2445 72.3876 64.481L72.0618 66.0317L71.66 64.4596C71.6025 64.2334 71.3985 64.075 71.1647 64.075H69.502C69.2682 64.075 69.0641 64.2334 69.006 64.4603L68.6042 66.0324L68.2784 64.4817C68.2293 64.2445 68.0204 64.075 67.7783 64.075H64.5884C64.3463 64.075 64.1374 64.2445 64.0876 64.481L63.7618 66.0317L63.36 64.4596C63.3025 64.2334 63.0985 64.075 62.8647 64.075H61.202C60.9682 64.075 60.7641 64.2334 60.706 64.4603L60.3049 66.0324L59.9791 64.481C59.9293 64.2445 59.7204 64.075 59.4783 64.075H57.6523C57.3196 64.075 57.0755 64.3876 57.1564 64.7106L58.6296 70.6043C58.6864 70.8319 58.8911 70.9917 59.1256 70.9917H61.0996C61.3313 70.9917 61.5333 70.8388 61.5927 70.6154C61.7255 70.1209 61.951 69.2784 62.0326 68.9692C62.1143 69.2784 62.3397 70.1209 62.4725 70.6154C62.5334 70.8388 62.7354 70.9917 62.9671 70.9917H64.9411C65.1756 70.9917 65.3803 70.8319 65.437 70.6043L66.1833 67.6198L66.9296 70.6043C66.9864 70.8319 67.1911 70.9917 67.4256 70.9917H69.3996C69.6313 70.9917 69.8333 70.8388 69.8927 70.6154C70.0255 70.1209 70.251 69.2784 70.3326 68.9692C70.4143 69.2784 70.6397 70.1209 70.7725 70.6154C70.8334 70.8388 71.0354 70.9917 71.2671 70.9917H73.2411C73.4756 70.9917 73.6803 70.8319 73.737 70.6043L74.4833 67.6198L75.2296 70.6043C75.2864 70.8319 75.4911 70.9917 75.7256 70.9917H77.6996C77.9313 70.9917 78.1333 70.8388 78.1927 70.6154C78.3255 70.1209 78.551 69.2784 78.6326 68.9692C78.7143 69.2784 78.9397 70.1209 79.0725 70.6154C79.1334 70.8388 79.3354 70.9917 79.5671 70.9917H81.5411C81.7756 70.9917 81.9803 70.8319 82.037 70.6043L83.5103 64.7106C83.5912 64.3876 83.347 64.075 83.0144 64.075Z" fill="white"/>
<path d="M82.7508 64.4208H81.3557C81.1801 64.4208 81.0279 64.5439 80.9919 64.7162L80.395 67.5582L79.6653 64.7003C79.6231 64.5357 79.4751 64.4208 79.305 64.4208H77.9617C77.7923 64.4208 77.6436 64.5357 77.6014 64.7003L76.8717 67.5582L76.2741 64.7162C76.2381 64.5439 76.0859 64.4208 75.9103 64.4208H73.0544C72.8787 64.4208 72.7265 64.5439 72.6905 64.7162L72.0936 67.5582L71.3639 64.7003C71.3217 64.5357 71.1737 64.4208 71.0036 64.4208H69.6604C69.4909 64.4208 69.3422 64.5357 69.3 64.7003L68.5703 67.5582L67.9727 64.7162C67.9367 64.5439 67.7846 64.4208 67.6089 64.4208H64.753C64.5773 64.4208 64.4251 64.5439 64.3892 64.7162L63.7923 67.5582L63.0625 64.7003C63.0204 64.5357 62.8723 64.4208 62.7022 64.4208H61.359C61.1895 64.4208 61.0408 64.5357 60.9986 64.7003L60.2689 67.5582L59.6748 64.7162C59.6388 64.5439 59.4873 64.4208 59.3116 64.4208H57.9159C57.6745 64.4208 57.4967 64.6477 57.5555 64.8829L58.9257 70.3643C58.9672 70.5296 59.1159 70.6458 59.286 70.6458H60.9412C61.1093 70.6458 61.2559 70.5345 61.2995 70.3719C61.4669 69.7467 61.9808 67.8245 62.032 67.5596C62.0838 67.8245 62.5971 69.7474 62.7644 70.3719C62.808 70.5345 62.9546 70.6458 63.1227 70.6458H64.7779C64.9487 70.6458 65.0967 70.5296 65.1382 70.3643L66.1833 66.1936L67.2264 70.3643C67.2679 70.5296 67.4166 70.6458 67.5867 70.6458H69.2419C69.41 70.6458 69.5566 70.5345 69.6002 70.3719C69.7676 69.7467 70.2815 67.8245 70.3327 67.5596C70.3845 67.8245 70.8977 69.7474 71.0651 70.3719C71.1087 70.5345 71.2553 70.6458 71.4234 70.6458H73.0786C73.2494 70.6458 73.3974 70.5296 73.4389 70.3643L74.4833 66.1936L75.5264 70.3643C75.5679 70.5296 75.7166 70.6458 75.8867 70.6458H77.5419C77.71 70.6458 77.8566 70.5345 77.9002 70.3719C78.0676 69.7467 78.5815 67.8245 78.6327 67.5596C78.6845 67.8245 79.1977 69.7474 79.3651 70.3719C79.4087 70.5345 79.5553 70.6458 79.7234 70.6458H81.3786C81.5494 70.6458 81.6974 70.5296 81.7389 70.3643L83.1091 64.8829C83.17 64.6477 82.9922 64.4208 82.7508 64.4208Z" fill="white"/>
<path d="M73.0343 64.7667L72.1268 69.0847L71.025 64.7667H69.6417L68.5398 69.0847L67.6324 64.7667H66.1833L67.5667 70.3H69.2619C69.2619 70.3 70.3084 66.4018 70.3333 66.15C70.3582 66.4018 71.4047 70.3 71.4047 70.3H73.1L74.4833 64.7667H73.0343Z" fill="white"/>
<path d="M64.7343 64.7667L63.8268 69.0847L62.725 64.7667H61.3417L60.2398 69.0847L59.3324 64.7667H57.8833L59.2667 70.3H60.9619C60.9619 70.3 62.0084 66.4018 62.0333 66.15C62.0582 66.4018 63.1047 70.3 63.1047 70.3H64.8L66.1833 64.7667H64.7343Z" fill="white"/>
<path d="M81.3343 64.7667L80.4268 69.0847L79.325 64.7667H77.9417L76.8398 69.0847L75.9324 64.7667H74.4833L75.8667 70.3H77.5619C77.5619 70.3 78.6084 66.4018 78.6333 66.15C78.6582 66.4018 79.7047 70.3 79.7047 70.3H81.4L82.7833 64.7667H81.3343Z" fill="white"/>
</g>
<g filter="url(#filter2_bd_137_593)">
<path d="M156.58 156.471H115.346C111.841 156.471 109 153.811 109 150.531V111.94C109 108.659 111.841 106 115.346 106H156.58C160.085 106 162.926 108.659 162.926 111.94V150.534C162.926 153.811 160.085 156.471 156.58 156.471Z" fill="url(#paint6_linear_137_593)"/>
</g>
<path d="M139.333 112H130.762C129.973 112 129.333 112.64 129.333 113.429V114.857H140.762V113.429C140.762 112.64 140.122 112 139.333 112Z" fill="url(#paint7_linear_137_593)"/>
<path d="M152.19 145.333H117.905C116.857 145.333 116 144.476 116 143.428V118.667C116 116.571 117.714 114.857 119.809 114.857H150.285C152.381 114.857 154.095 116.571 154.095 118.667V143.428C154.095 144.476 153.238 145.333 152.19 145.333Z" fill="url(#paint8_radial_137_593)"/>
<path d="M152.473 130.338L135.047 132.952L117.622 130.338C116.69 130.199 116 129.398 116 128.455V118.667C116 116.571 117.714 114.857 119.809 114.857H150.285C152.381 114.857 154.095 116.571 154.095 118.667V128.455C154.095 129.398 153.405 130.199 152.473 130.338Z" fill="url(#paint9_linear_137_593)"/>
<path d="M136.476 126.286H133.619C133.356 126.286 133.143 126.499 133.143 126.762V129.619C133.143 129.882 133.356 130.095 133.619 130.095H136.476C136.739 130.095 136.952 129.882 136.952 129.619V126.762C136.952 126.499 136.739 126.286 136.476 126.286Z" fill="#F6ECA5"/>
<path opacity="0.15" d="M147.428 132C142.168 132 137.905 136.264 137.905 141.523C137.905 142.879 138.192 144.165 138.703 145.333H152.19C153.238 145.333 154.095 144.476 154.095 143.428V134.727C152.377 133.042 150.025 132 147.428 132Z" fill="url(#paint10_radial_137_593)"/>
<path d="M155.04 147.451L153.356 149.135L156.151 151.93C156.244 152.023 156.395 152.023 156.488 151.93L157.835 150.583C157.928 150.49 157.928 150.339 157.835 150.246L155.04 147.451Z" fill="#199BE2"/>
<path d="M152.952 145.364L151.269 147.047L153.356 149.135L155.04 147.451L152.952 145.364Z" fill="url(#paint11_radial_137_593)"/>
<path d="M147.428 149.142C151.636 149.142 155.047 145.731 155.047 141.523C155.047 137.316 151.636 133.905 147.428 133.905C143.22 133.905 139.809 137.316 139.809 141.523C139.809 145.731 143.22 149.142 147.428 149.142Z" fill="url(#paint12_linear_137_593)"/>
<defs>
<filter id="filter0_d_137_593" x="0.5" y="0.5" width="198" height="198" filterUnits="userSpaceOnUse" color-interpolation-filters="sRGB">
<feFlood flood-opacity="0" result="BackgroundImageFix"/>
<feColorMatrix in="SourceAlpha" type="matrix" values="0 0 0 0 0 0 0 0 0 0 0 0 0 0 0 0 0 0 127 0" result="hardAlpha"/>
<feOffset dy="4"/>
<feGaussianBlur stdDeviation="2"/>
<feComposite in2="hardAlpha" operator="out"/>
<feColorMatrix type="matrix" values="0 0 0 0 0.8375 0 0 0 0 0.732812 0 0 0 0 0.732812 0 0 0 0.25 0"/>
<feBlend mode="normal" in2="BackgroundImageFix" result="effect1_dropShadow_137_593"/>
<feBlend mode="normal" in="SourceGraphic" in2="effect1_dropShadow_137_593" result="shape"/>
</filter>
<filter id="filter1_dd_137_593" x="36.5" y="38.5" width="68" height="56" filterUnits="userSpaceOnUse" color-interpolation-filters="sRGB">
<feFlood flood-opacity="0" result="BackgroundImageFix"/>
<feColorMatrix in="SourceAlpha" type="matrix" values="0 0 0 0 0 0 0 0 0 0 0 0 0 0 0 0 0 0 127 0" result="hardAlpha"/>
<feOffset dy="4"/>
<feGaussianBlur stdDeviation="2"/>
<feComposite in2="hardAlpha" operator="out"/>
<feColorMatrix type="matrix" values="0 0 0 0 1 0 0 0 0 1 0 0 0 0 1 0 0 0 0.25 0"/>
<feBlend mode="normal" in2="BackgroundImageFix" result="effect1_dropShadow_137_593"/>
<feColorMatrix in="SourceAlpha" type="matrix" values="0 0 0 0 0 0 0 0 0 0 0 0 0 0 0 0 0 0 127 0" result="hardAlpha"/>
<feOffset dy="4"/>
<feGaussianBlur stdDeviation="2"/>
<feComposite in2="hardAlpha" operator="out"/>
<feColorMatrix type="matrix" values="0 0 0 0 1 0 0 0 0 1 0 0 0 0 1 0 0 0 1 0"/>
<feBlend mode="normal" in2="effect1_dropShadow_137_593" result="effect2_dropShadow_137_593"/>
<feBlend mode="normal" in="SourceGraphic" in2="effect2_dropShadow_137_593" result="shape"/>
</filter>
<filter id="filter2_bd_137_593" x="105" y="102" width="61.9259" height="62.4706" filterUnits="userSpaceOnUse" color-interpolation-filters="sRGB">
<feFlood flood-opacity="0" result="BackgroundImageFix"/>
<feGaussianBlur in="BackgroundImageFix" stdDeviation="2"/>
<feComposite in2="SourceAlpha" operator="in" result="effect1_backgroundBlur_137_593"/>
<feColorMatrix in="SourceAlpha" type="matrix" values="0 0 0 0 0 0 0 0 0 0 0 0 0 0 0 0 0 0 127 0" result="hardAlpha"/>
<feOffset dy="4"/>
<feGaussianBlur stdDeviation="2"/>
<feComposite in2="hardAlpha" operator="out"/>
<feColorMatrix type="matrix" values="0 0 0 0 1 0 0 0 0 1 0 0 0 0 1 0 0 0 0.25 0"/>
<feBlend mode="normal" in2="effect1_backgroundBlur_137_593" result="effect2_dropShadow_137_593"/>
<feBlend mode="normal" in="SourceGraphic" in2="effect2_dropShadow_137_593" result="shape"/>
</filter>
<linearGradient id="paint0_linear_137_593" x1="99.5" y1="16.4677" x2="99.5" y2="174.532" gradientUnits="userSpaceOnUse">
<stop stop-color="white"/>
<stop offset="0.472222" stop-color="#0D5176" stop-opacity="0.527778"/>
<stop offset="0.940972" stop-color="#12A6F7" stop-opacity="0.465278"/>
<stop offset="1" stop-opacity="0"/>
</linearGradient>
<linearGradient id="paint1_linear_137_593" x1="54.72" y1="31.9586" x2="91.7009" y2="73.7506" gradientUnits="userSpaceOnUse">
<stop stop-color="#7DD8F3"/>
<stop offset="1" stop-color="#45B0D0"/>
</linearGradient>
<linearGradient id="paint2_linear_137_593" x1="41.421" y1="36.724" x2="101.162" y2="39.3812" gradientUnits="userSpaceOnUse">
<stop stop-color="#0077D2"/>
<stop offset="1" stop-color="#0B59A2"/>
</linearGradient>
<linearGradient id="paint3_linear_137_593" x1="40.5" y1="62.5" x2="100.5" y2="62.5" gradientUnits="userSpaceOnUse">
<stop stop-color="#7DD8F3"/>
<stop offset="1" stop-color="#45B0D0"/>
</linearGradient>
<linearGradient id="paint4_linear_137_593" x1="55.52" y1="45.156" x2="74.0771" y2="78.7101" gradientUnits="userSpaceOnUse">
<stop stop-color="#75DAFF"/>
<stop offset="1" stop-color="#49BEF1"/>
</linearGradient>
<linearGradient id="paint5_linear_137_593" x1="55.52" y1="45.156" x2="74.0771" y2="78.7101" gradientUnits="userSpaceOnUse">
<stop stop-color="#75DAFF"/>
<stop offset="1" stop-color="#49BEF1"/>
</linearGradient>
<linearGradient id="paint6_linear_137_593" x1="139.283" y1="113.613" x2="127.947" y2="182.327" gradientUnits="userSpaceOnUse">
<stop stop-color="#FCFCFC"/>
<stop offset="1" stop-color="#C3C9CD"/>
</linearGradient>
<linearGradient id="paint7_linear_137_593" x1="135.047" y1="114.837" x2="135.047" y2="112.293" gradientUnits="userSpaceOnUse">
<stop stop-color="#B33F20"/>
<stop offset="0.129" stop-color="#C74724"/>
<stop offset="0.295" stop-color="#D94F29"/>
<stop offset="0.469" stop-color="#E4532B"/>
<stop offset="0.659" stop-color="#E8552C"/>
</linearGradient>
<radialGradient id="paint8_radial_137_593" cx="0" cy="0" r="1" gradientUnits="userSpaceOnUse" gradientTransform="translate(134.887 111.992) scale(43.5614 35.0408)">
<stop stop-color="#40150B"/>
<stop offset="0.156" stop-color="#622110"/>
<stop offset="0.417" stop-color="#953218"/>
<stop offset="0.645" stop-color="#BA3F1E"/>
<stop offset="0.828" stop-color="#D14722"/>
<stop offset="0.944" stop-color="#D94A23"/>
</radialGradient>
<linearGradient id="paint9_linear_137_593" x1="135.047" y1="114.884" x2="135.047" y2="131.93" gradientUnits="userSpaceOnUse">
<stop stop-color="#FC7D5B"/>
<stop offset="0.06" stop-color="#F8734F"/>
<stop offset="0.18" stop-color="#F3653D"/>
<stop offset="0.326" stop-color="#F05B31"/>
<stop offset="0.523" stop-color="#EE552A"/>
<stop offset="1" stop-color="#ED5328"/>
</linearGradient>
<radialGradient id="paint10_radial_137_593" cx="0" cy="0" r="1" gradientUnits="userSpaceOnUse" gradientTransform="translate(147.372 141.443) scale(9.38751)">
<stop offset="0.627"/>
<stop offset="1" stop-opacity="0"/>
</radialGradient>
<radialGradient id="paint11_radial_137_593" cx="0" cy="0" r="1" gradientUnits="userSpaceOnUse" gradientTransform="translate(147.44 141.569) scale(9.33513)">
<stop offset="0.693" stop-color="#006185"/>
<stop offset="0.921" stop-color="#35C1F1"/>
</radialGradient>
<linearGradient id="paint12_linear_137_593" x1="142.147" y1="136.243" x2="152.827" y2="146.922" gradientUnits="userSpaceOnUse">
<stop stop-color="#A3FFFF"/>
<stop offset="0.223" stop-color="#9DFBFF"/>
<stop offset="0.53" stop-color="#8BF1FF"/>
<stop offset="0.885" stop-color="#6EE0FF"/>
<stop offset="1" stop-color="#63DAFF"/>
</linearGradient>
</defs>
</svg>
