<svg width="224" height="117" viewBox="0 0 224 117" fill="none" xmlns="http://www.w3.org/2000/svg">
<g id="tele_logo">
<g id="Group">
<g id="Group_2">
<g id="Group_3">
<g id="Group_4">
<g id="Group_5">
<path id="Vector" d="M46.1507 112.032C37.4556 112.032 30.4327 105.009 30.4327 96.4816V36.6195H46.9867V33.2753H30.4327V10.5344H27.0884C25.0819 23.577 13.5442 33.2753 0 33.2753V36.6195H12.7082V87.6194C12.7082 103.337 25.4163 116.045 41.1343 116.045C47.3212 116.045 53.1736 114.039 57.8556 110.527L56.3507 108.187C53.5081 110.695 49.9966 112.032 46.1507 112.032H46.1507Z" fill="url(#paint0_linear_3_3422)"/>
<path id="Vector_2" d="M97.6171 108.019C84.4074 108.019 67.5189 98.8226 67.5189 69.8948C67.5189 67.5539 67.6861 65.2129 67.8533 63.2063H121.529C121.529 49.8293 119.689 31.9376 90.5942 31.9376C67.1845 31.9376 49.6272 48.8261 49.6272 75.5801C49.6272 102.501 65.6796 116.045 86.0796 116.045C106.479 116.045 118.017 102.167 122.03 95.1439L119.522 92.9702C119.522 92.9702 110.66 108.019 97.6173 108.019L97.6171 108.019ZM90.5942 35.9507C99.6237 35.9507 103.47 42.8064 103.971 59.8621H68.5222C71.6992 43.8097 82.568 35.9507 90.5942 35.9507Z" fill="url(#paint1_linear_3_3422)"/>
<path id="Vector_3" d="M117.538 0.836064C117.538 1.3377 117.872 1.67213 118.374 1.67213C123.223 1.67213 127.069 5.68523 127.069 10.5344V105.344C126.567 109.691 122.888 113.036 118.374 113.036C117.872 113.036 117.538 113.37 117.538 113.872C117.538 114.373 117.872 114.708 118.374 114.708H153.656C154.157 114.708 154.492 114.373 154.492 113.872C154.492 113.37 154.157 113.036 153.656 113.036C149.141 113.036 145.629 109.691 144.96 105.511V0H118.374C117.872 0 117.538 0.334426 117.538 0.836064Z" fill="url(#paint2_linear_3_3422)"/>
<path id="Vector_4" d="M199.28 108.019C186.07 108.019 169.182 98.8226 169.182 69.8948C169.182 67.5539 169.349 65.2129 169.516 63.2063H223.191C223.191 49.8293 221.352 31.9376 192.257 31.9376C168.847 31.9376 151.29 48.8261 151.29 75.5801C151.29 102.501 167.342 116.045 187.742 116.045C208.142 116.045 219.68 102.167 223.693 95.1439L221.185 92.9702C221.185 92.9702 212.322 108.019 199.28 108.019L199.28 108.019ZM192.257 35.9507C201.287 35.9507 205.132 42.8064 205.634 59.8621H170.185C173.362 43.8097 184.231 35.9507 192.257 35.9507H192.257Z" fill="url(#paint3_linear_3_3422)"/>
</g>
</g>
</g>
</g>
</g>
</g>
<defs>
<linearGradient id="paint0_linear_3_3422" x1="17.1662" y1="15.1565" x2="78.2296" y2="56.3382" gradientUnits="userSpaceOnUse">
<stop stop-color="#2AA4F4"/>
<stop offset="1" stop-color="#007AD9"/>
</linearGradient>
<linearGradient id="paint1_linear_3_3422" x1="71.1098" y1="35.6221" x2="123.526" y2="91.1187" gradientUnits="userSpaceOnUse">
<stop stop-color="#2AA4F4"/>
<stop offset="1" stop-color="#007AD9"/>
</linearGradient>
<linearGradient id="paint2_linear_3_3422" x1="128.502" y1="5.02494" x2="177.545" y2="24.4571" gradientUnits="userSpaceOnUse">
<stop stop-color="#2AA4F4"/>
<stop offset="1" stop-color="#007AD9"/>
</linearGradient>
<linearGradient id="paint3_linear_3_3422" x1="172.772" y1="35.6221" x2="225.189" y2="91.1186" gradientUnits="userSpaceOnUse">
<stop stop-color="#2AA4F4"/>
<stop offset="1" stop-color="#007AD9"/>
</linearGradient>
</defs>
</svg>
