<svg width="199" height="199" viewBox="0 0 199 199" fill="none" xmlns="http://www.w3.org/2000/svg">
<g filter="url(#filter0_d_142_1053)">
<path d="M172.887 8H26.1129C18.3186 8 12 14.3186 12 22.1129V168.887C12 176.681 18.3186 183 26.1129 183H172.887C180.681 183 187 176.681 187 168.887V22.1129C187 14.3186 180.681 8 172.887 8Z" fill="white"/>
<path d="M172.887 8H26.1129C18.3186 8 12 14.3186 12 22.1129V168.887C12 176.681 18.3186 183 26.1129 183H172.887C180.681 183 187 176.681 187 168.887V22.1129C187 14.3186 180.681 8 172.887 8Z" fill="url(#paint0_linear_142_1053)" fill-opacity="0.2"/>
<path d="M172.887 8H26.1129C18.3186 8 12 14.3186 12 22.1129V168.887C12 176.681 18.3186 183 26.1129 183H172.887C180.681 183 187 176.681 187 168.887V22.1129C187 14.3186 180.681 8 172.887 8Z" stroke="#D5EAF6" stroke-width="15" stroke-linecap="round"/>
</g>
<g filter="url(#filter1_dd_142_1053)">
<path d="M137.633 97.4815C137.633 118.286 120.577 135.153 99.5399 135.153C78.5027 135.153 61.4464 118.286 61.4464 97.4815C61.4464 76.6773 78.5027 59.8098 99.5399 59.8098C120.577 59.8098 137.633 76.6773 137.633 97.4815Z" fill="url(#paint1_radial_142_1053)"/>
<path d="M131.919 97.4815C131.919 92.8384 131.16 88.4064 129.832 84.2964H135.186C134.698 83.0061 134.146 81.7479 133.523 80.5292H128.415C123.072 68.2577 112.151 59.8098 99.5399 59.8098C86.9291 59.8098 76.0076 68.2577 70.6631 80.5292H65.5547C64.9319 81.7479 64.3815 83.0061 63.892 84.2964H69.246C67.9203 88.4064 67.1604 92.8384 67.1604 97.4815C67.1604 102.125 67.9203 106.557 69.2479 110.667H63.8939C64.3815 111.957 64.9338 113.215 65.5566 114.434H70.665C76.0095 126.705 86.9309 135.153 99.5418 135.153C112.153 135.153 123.074 126.705 128.419 114.434H133.527C134.15 113.215 134.7 111.957 135.19 110.667H129.836C131.16 106.557 131.919 102.125 131.919 97.4815ZM128.11 97.4815C128.11 102.155 127.308 106.611 125.86 110.667H113.844C114.459 106.398 114.777 101.908 114.777 97.4815C114.777 93.0551 114.461 88.5646 113.844 84.2964H125.86C127.308 88.3517 128.11 92.8083 128.11 97.4815ZM99.5399 131.386C95.8524 131.386 91.8812 124.897 89.727 114.434H109.353C107.199 124.897 103.227 131.386 99.5399 131.386ZM89.0641 110.667C88.4642 106.687 88.1118 102.264 88.1118 97.4815C88.1118 92.6991 88.4642 88.2764 89.0641 84.2964H110.016C110.615 88.2764 110.968 92.6991 110.968 97.4815C110.968 102.264 110.615 106.687 110.016 110.667H89.0641ZM99.5399 63.577C103.227 63.577 107.199 70.0659 109.353 80.5292H89.727C91.8812 70.0659 95.8524 63.577 99.5399 63.577ZM124.243 80.5292H113.212C111.995 74.2569 110.082 68.7154 107.509 64.9463C114.629 67.4063 120.594 73.0665 124.243 80.5292ZM91.5707 64.9463C88.9994 68.7173 87.0852 74.2569 85.8681 80.5292H74.8362C78.4856 73.0665 84.4511 67.4063 91.5707 64.9463ZM70.9697 97.4815C70.9697 92.8083 71.7716 88.3517 73.2192 84.2964H85.2357C84.6186 88.5646 84.3025 93.0551 84.3025 97.4815C84.3025 101.908 84.6186 106.398 85.2357 110.667H73.2192C71.7716 106.611 70.9697 102.155 70.9697 97.4815ZM74.8362 114.434H85.8681C87.0852 120.706 88.9975 126.248 91.5707 130.017C84.4511 127.557 78.4856 121.896 74.8362 114.434ZM107.509 130.017C110.08 126.246 111.995 120.706 113.212 114.434H124.243C120.594 121.896 114.629 127.557 107.509 130.017Z" fill="url(#paint2_radial_142_1053)"/>
<path d="M100 53.1761C104.796 53.1761 108.684 49.3311 108.684 44.588C108.684 39.845 104.796 36 100 36C95.2038 36 91.3158 39.845 91.3158 44.588C91.3158 49.3311 95.2038 53.1761 100 53.1761Z" fill="#21A366"/>
<path d="M53.6842 78.9402C58.4804 78.9402 62.3684 75.0952 62.3684 70.3522C62.3684 65.6091 58.4804 61.7641 53.6842 61.7641C48.8881 61.7641 45 65.6091 45 70.3522C45 75.0952 48.8881 78.9402 53.6842 78.9402Z" fill="#21A366"/>
<path d="M53.6842 130.468C58.4804 130.468 62.3684 126.623 62.3684 121.88C62.3684 117.137 58.4804 113.292 53.6842 113.292C48.8881 113.292 45 117.137 45 121.88C45 126.623 48.8881 130.468 53.6842 130.468Z" fill="#21A366"/>
<path d="M146.316 78.9402C151.112 78.9402 155 75.0952 155 70.3522C155 65.6091 151.112 61.7641 146.316 61.7641C141.52 61.7641 137.632 65.6091 137.632 70.3522C137.632 75.0952 141.52 78.9402 146.316 78.9402Z" fill="#21A366"/>
<path d="M146.316 130.468C151.112 130.468 155 126.623 155 121.88C155 117.137 151.112 113.292 146.316 113.292C141.52 113.292 137.632 117.137 137.632 121.88C137.632 126.623 141.52 130.468 146.316 130.468Z" fill="#21A366"/>
<path d="M100 156.233C104.796 156.233 108.684 152.388 108.684 147.645C108.684 142.901 104.796 139.056 100 139.056C95.2038 139.056 91.3158 142.901 91.3158 147.645C91.3158 152.388 95.2038 156.233 100 156.233Z" fill="#21A366"/>
<path d="M137.267 96.5713C137.267 117.176 120.376 133.881 99.5399 133.881C78.7041 133.881 61.8125 117.176 61.8125 96.5713C61.8125 75.9662 78.7041 59.2616 99.5399 59.2616C120.376 59.2616 137.267 75.9662 137.267 96.5713Z" fill="url(#paint3_radial_142_1053)" fill-opacity="0.5"/>
<path d="M100 127.606C109.226 127.606 117.51 123.701 123.326 117.501C119.386 108.623 110.433 102.414 100 102.414C89.5674 102.414 80.6139 108.623 76.6742 117.501C82.4897 123.701 90.7745 127.606 100 127.606Z" fill="url(#paint4_radial_142_1053)" fill-opacity="0.5"/>
<path d="M100 101.842C107.994 101.842 114.474 95.4333 114.474 87.5283C114.474 79.6232 107.994 73.2149 100 73.2149C92.0064 73.2149 85.5263 79.6232 85.5263 87.5283C85.5263 95.4333 92.0064 101.842 100 101.842Z" fill="url(#paint5_radial_142_1053)" fill-opacity="0.5"/>
<path d="M100 98.9789C106.395 98.9789 111.579 93.8523 111.579 87.5282C111.579 81.2041 106.395 76.0775 100 76.0775C93.6051 76.0775 88.4211 81.2041 88.4211 87.5282C88.4211 93.8523 93.6051 98.9789 100 98.9789Z" fill="url(#paint6_linear_142_1053)"/>
<path d="M100 127.606C107.984 127.606 115.264 124.677 120.854 119.876C117.684 111.52 109.556 105.563 100 105.563C90.4445 105.563 82.316 111.52 79.1463 119.876C84.736 124.677 92.0163 127.606 100 127.606Z" fill="url(#paint7_linear_142_1053)"/>
</g>
<path opacity="0.05" d="M131.224 98.5088L120.283 87.5676C119.719 87.0049 118.883 86.8428 118.163 87.1615C117.456 87.465 117 88.1579 117 88.927V104.584C117 106.391 118.93 107.133 120.172 106.068L122.366 104.24L124.011 108.024C124.327 108.744 125.406 109.439 126.541 109.017L128.405 108.207C129.385 107.791 129.913 106.772 129.405 105.676L127.808 102.001L130.028 101.801C131.796 101.801 132.452 99.7256 131.224 98.5088Z" fill="black"/>
<path d="M132.708 99.5037L120.047 87.178C119.848 86.9844 119.579 86.9594 119.361 87.0516C119.151 87.1406 118.987 87.3404 118.987 87.6058V105.242C118.987 105.765 119.614 106.051 120.028 105.717L124.21 102.321L126.966 108.493C127.102 108.798 127.469 108.939 127.783 108.807L129.943 107.892C130.258 107.759 130.402 107.401 130.266 107.095L127.531 100.971L132.317 100.554C132.853 100.507 133.09 99.8735 132.708 99.5037Z" fill="white"/>
<defs>
<filter id="filter0_d_142_1053" x="0.5" y="0.5" width="198" height="198" filterUnits="userSpaceOnUse" color-interpolation-filters="sRGB">
<feFlood flood-opacity="0" result="BackgroundImageFix"/>
<feColorMatrix in="SourceAlpha" type="matrix" values="0 0 0 0 0 0 0 0 0 0 0 0 0 0 0 0 0 0 127 0" result="hardAlpha"/>
<feOffset dy="4"/>
<feGaussianBlur stdDeviation="2"/>
<feComposite in2="hardAlpha" operator="out"/>
<feColorMatrix type="matrix" values="0 0 0 0 0.8375 0 0 0 0 0.732812 0 0 0 0 0.732812 0 0 0 0.25 0"/>
<feBlend mode="normal" in2="BackgroundImageFix" result="effect1_dropShadow_142_1053"/>
<feBlend mode="normal" in="SourceGraphic" in2="effect1_dropShadow_142_1053" result="shape"/>
</filter>
<filter id="filter1_dd_142_1053" x="41" y="36" width="118" height="128.233" filterUnits="userSpaceOnUse" color-interpolation-filters="sRGB">
<feFlood flood-opacity="0" result="BackgroundImageFix"/>
<feColorMatrix in="SourceAlpha" type="matrix" values="0 0 0 0 0 0 0 0 0 0 0 0 0 0 0 0 0 0 127 0" result="hardAlpha"/>
<feOffset dy="4"/>
<feGaussianBlur stdDeviation="2"/>
<feComposite in2="hardAlpha" operator="out"/>
<feColorMatrix type="matrix" values="0 0 0 0 0 0 0 0 0 0 0 0 0 0 0 0 0 0 0.25 0"/>
<feBlend mode="normal" in2="BackgroundImageFix" result="effect1_dropShadow_142_1053"/>
<feColorMatrix in="SourceAlpha" type="matrix" values="0 0 0 0 0 0 0 0 0 0 0 0 0 0 0 0 0 0 127 0" result="hardAlpha"/>
<feOffset dy="4"/>
<feGaussianBlur stdDeviation="2"/>
<feComposite in2="hardAlpha" operator="out"/>
<feColorMatrix type="matrix" values="0 0 0 0 0.975 0 0 0 0 0.975 0 0 0 0 0.975 0 0 0 0.25 0"/>
<feBlend mode="normal" in2="effect1_dropShadow_142_1053" result="effect2_dropShadow_142_1053"/>
<feBlend mode="normal" in="SourceGraphic" in2="effect2_dropShadow_142_1053" result="shape"/>
</filter>
<linearGradient id="paint0_linear_142_1053" x1="99.5" y1="16.4677" x2="99.5" y2="174.532" gradientUnits="userSpaceOnUse">
<stop stop-color="white"/>
<stop offset="0.472222" stop-color="#0D5176" stop-opacity="0.527778"/>
<stop offset="0.940972" stop-color="#12A6F7" stop-opacity="0.465278"/>
<stop offset="1" stop-opacity="0"/>
</linearGradient>
<radialGradient id="paint1_radial_142_1053" cx="0" cy="0" r="1" gradientUnits="userSpaceOnUse" gradientTransform="translate(61.6705 52.3455) scale(112.519 122.985)">
<stop stop-color="#6FCEFC"/>
<stop offset="1" stop-color="#167CF7"/>
</radialGradient>
<radialGradient id="paint2_radial_142_1053" cx="0" cy="0" r="1" gradientUnits="userSpaceOnUse" gradientTransform="translate(60.9037 48.1735) scale(120.241 122.991)">
<stop offset="0.001" stop-color="#54C0F5"/>
<stop offset="0.998" stop-color="#0B69DB"/>
</radialGradient>
<radialGradient id="paint3_radial_142_1053" cx="0" cy="0" r="1" gradientUnits="userSpaceOnUse" gradientTransform="translate(64.735 49.2037) scale(110.86 121.173)">
<stop stop-color="#0370C8"/>
<stop offset="0.484" stop-color="#036FC5"/>
<stop offset="0.775" stop-color="#036ABD"/>
<stop offset="1" stop-color="#0362B0"/>
</radialGradient>
<radialGradient id="paint4_radial_142_1053" cx="0" cy="0" r="1" gradientUnits="userSpaceOnUse" gradientTransform="translate(100 157.039) scale(60.5901 121.285)">
<stop stop-opacity="0.47"/>
<stop offset="0.78125" stop-opacity="0"/>
</radialGradient>
<radialGradient id="paint5_radial_142_1053" cx="0" cy="0" r="1" gradientUnits="userSpaceOnUse" gradientTransform="translate(99.9906 96.096) scale(54.9978 60.1139)">
<stop stop-opacity="0.2"/>
<stop offset="1" stop-opacity="0"/>
</radialGradient>
<linearGradient id="paint6_linear_142_1053" x1="62.6825" y1="55.3274" x2="146.229" y2="131.764" gradientUnits="userSpaceOnUse">
<stop stop-color="#75DAFF"/>
<stop offset="1" stop-color="#1EA2E4"/>
</linearGradient>
<linearGradient id="paint7_linear_142_1053" x1="88.8668" y1="107.467" x2="110.719" y2="129.567" gradientUnits="userSpaceOnUse">
<stop stop-color="#75DAFF"/>
<stop offset="1" stop-color="#1EA2E4"/>
</linearGradient>
</defs>
</svg>
