<svg width="179" height="179" viewBox="0 0 179 179" fill="none" xmlns="http://www.w3.org/2000/svg">
<g filter="url(#filter0_d_254_1252)">
<path d="M154.5 8H24.5C17.5964 8 12 13.5964 12 20.5V150.5C12 157.404 17.5964 163 24.5 163H154.5C161.404 163 167 157.404 167 150.5V20.5C167 13.5964 161.404 8 154.5 8Z" fill="white"/>
<path d="M154.5 8H24.5C17.5964 8 12 13.5964 12 20.5V150.5C12 157.404 17.5964 163 24.5 163H154.5C161.404 163 167 157.404 167 150.5V20.5C167 13.5964 161.404 8 154.5 8Z" fill="url(#paint0_linear_254_1252)" fill-opacity="0.2"/>
<path d="M154.5 8H24.5C17.5964 8 12 13.5964 12 20.5V150.5C12 157.404 17.5964 163 24.5 163H154.5C161.404 163 167 157.404 167 150.5V20.5C167 13.5964 161.404 8 154.5 8Z" stroke="#D5EAF6" stroke-width="15"/>
</g>
<path d="M131 71.6834V71H134.22V71.6834H133.02V74.9206H132.2V71.6834H131Z" fill="#199BE2"/>
<path d="M134.75 71H135.772L136.852 73.6341H136.898L137.978 71H139V74.9206H138.196V72.3687H138.163L137.149 74.9014H136.601L135.587 72.3592H135.554V74.9206H134.75V71Z" fill="#199BE2"/>
<g filter="url(#filter1_ddd_254_1252)">
<path d="M54.0801 75.4159C53.2002 77.8265 52.4652 79.9332 52.4445 80.0749C52.4135 80.2978 54.1215 80.3383 61.8852 80.3383C70.7979 80.3383 71.3672 80.3585 71.4604 80.6826C71.5846 81.1283 71.3568 81.9386 70.1664 85.1391C69.3072 87.4686 69.1416 88.2789 69.4625 88.5219C69.5557 88.5827 71.4811 88.6435 73.748 88.6435H77.868L78.9756 85.6658C80.4973 81.5942 80.5283 81.4524 80.5283 79.2242C80.5283 77.6644 80.4869 77.239 80.2488 76.2262C79.7209 74.0182 78.6133 72.3572 77.1123 71.4862C76.543 71.1621 75.6527 71.1215 66.0879 71.0608L55.6846 71L54.0801 75.4159Z" fill="url(#paint1_linear_254_1252)"/>
<path d="M84.3273 79.7306C82.5469 84.5111 81.0977 88.4814 81.0977 88.5422C81.0977 88.603 86.4494 88.6435 92.9916 88.6435H104.886L108.084 79.9939C109.834 75.2539 111.293 71.2836 111.304 71.1823C111.324 71.1013 109.15 71.0203 106.48 71.0203H101.625L100.082 75.2134C99.2232 77.5429 98.3951 79.8116 98.2295 80.2775L97.9189 81.1485H95.7762C94.5857 81.1485 93.623 81.108 93.623 81.0675C93.623 81.0068 94.4098 78.8393 95.3621 76.2465C96.3145 73.6536 97.1322 71.4051 97.184 71.2633C97.2461 71.081 96.2627 71.0203 92.4016 71.0203H87.5467L84.3273 79.7306Z" fill="url(#paint2_linear_254_1252)"/>
<path d="M111.345 79.7103C109.564 84.4909 108.115 88.4612 108.115 88.5219C108.115 88.5827 110.424 88.6435 113.229 88.6435H118.353L121.521 80.1155C123.27 75.4159 124.719 71.4659 124.75 71.3038C124.792 71.0608 124.026 71.0203 119.688 71.0203H114.575L111.345 79.7103Z" fill="url(#paint3_linear_254_1252)"/>
<path d="M54.4217 91.5199C52.5998 96.4625 51.0781 100.615 51.0367 100.757C50.9746 100.959 52.693 101 60.2082 100.939C69.2451 100.878 69.4728 100.878 70.1768 100.453C71.8123 99.501 73.0234 98.3261 74.2139 96.5841C75.042 95.3889 76.2945 92.9784 76.7293 91.7427L76.9674 91.0945L70.9738 91.0338C64.7939 90.973 64.6387 90.9527 64.6387 90.183C64.6387 90.0614 65.1562 88.5422 65.7773 86.8204C66.4088 85.0986 66.916 83.5388 66.916 83.3363C66.916 83.1539 66.8229 82.8906 66.7193 82.7691C66.5848 82.6475 64.9492 82.5665 62.1129 82.5665H57.7135L54.4217 91.5199Z" fill="url(#paint4_linear_254_1252)"/>
<path d="M37 93.0999H44.5359L52.0615 93.0797L52.4031 92.1884C52.5791 91.7022 52.7344 91.2363 52.7344 91.1756C52.7344 91.1148 49.1941 91.0743 44.8672 91.0743H37V93.0999Z" fill="url(#paint5_linear_254_1252)"/>
<path d="M78.81 94.761C78.0646 96.8069 77.2779 98.9136 77.0709 99.4808C76.8535 100.028 76.6465 100.615 76.6051 100.737C76.543 100.939 77.5264 101 81.3875 101H86.2424L87.9918 96.3005C88.9545 93.7279 89.7826 91.4794 89.824 91.3376C89.8965 91.1148 89.0476 91.0743 85.0416 91.0743H80.1764L78.81 94.761Z" fill="url(#paint6_linear_254_1252)"/>
<path d="M92.5154 95.7738C91.5527 98.3666 90.735 100.615 90.6832 100.737C90.6211 100.939 91.6045 101 95.4656 101H100.321L101.915 96.7056C102.795 94.3356 103.612 92.1074 103.747 91.7427L103.985 91.0743H94.2648L92.5154 95.7738Z" fill="url(#paint7_linear_254_1252)"/>
<path d="M106.707 92.3302C105.962 94.3356 105.734 95.2066 105.672 96.26C105.6 97.6171 105.91 98.6502 106.666 99.5415C107.887 100.959 107.329 100.899 116.966 100.939L125.661 101L127.421 96.2397C128.394 93.6266 129.201 91.3781 129.212 91.2768C129.243 91.135 125.444 91.0743 118.218 91.0743H107.184L106.707 92.3302Z" fill="url(#paint8_linear_254_1252)"/>
<path d="M130.971 91.4186C130.889 91.6212 130.713 92.0871 130.588 92.4315L130.361 93.0999H143V91.0743H137.069C131.541 91.0743 131.116 91.0945 130.971 91.4186Z" fill="url(#paint9_linear_254_1252)"/>
<path d="M37 97.1512H50.5605L50.9229 96.1992C51.1195 95.6523 51.2852 95.1661 51.2852 95.0648C51.2852 94.9838 48.0762 94.923 44.1426 94.923H37V97.1512Z" fill="url(#paint10_linear_254_1252)"/>
<path d="M129.284 95.8751C129.087 96.422 128.922 96.9082 128.922 96.9892C128.922 97.0905 132.089 97.1512 135.961 97.1512H143V94.923H129.646L129.284 95.8751Z" fill="url(#paint11_linear_254_1252)"/>
<path d="M37 101H49.1631L49.4219 100.251C49.5668 99.8251 49.7221 99.3795 49.7635 99.2377C49.8256 99.0351 48.573 98.9743 43.418 98.9743H37V101Z" fill="url(#paint12_linear_254_1252)"/>
<path d="M127.814 99.8859C127.628 100.372 127.473 100.838 127.473 100.899C127.473 100.959 130.971 101 135.236 101H143V98.9743H135.578L128.146 98.9946L127.814 99.8859Z" fill="url(#paint13_linear_254_1252)"/>
</g>
<defs>
<filter id="filter0_d_254_1252" x="0.5" y="0.5" width="178" height="178" filterUnits="userSpaceOnUse" color-interpolation-filters="sRGB">
<feFlood flood-opacity="0" result="BackgroundImageFix"/>
<feColorMatrix in="SourceAlpha" type="matrix" values="0 0 0 0 0 0 0 0 0 0 0 0 0 0 0 0 0 0 127 0" result="hardAlpha"/>
<feOffset dy="4"/>
<feGaussianBlur stdDeviation="2"/>
<feComposite in2="hardAlpha" operator="out"/>
<feColorMatrix type="matrix" values="0 0 0 0 0.8375 0 0 0 0 0.732812 0 0 0 0 0.732812 0 0 0 0.25 0"/>
<feBlend mode="normal" in2="BackgroundImageFix" result="effect1_dropShadow_254_1252"/>
<feBlend mode="normal" in="SourceGraphic" in2="effect1_dropShadow_254_1252" result="shape"/>
</filter>
<filter id="filter1_ddd_254_1252" x="33" y="71" width="114" height="38" filterUnits="userSpaceOnUse" color-interpolation-filters="sRGB">
<feFlood flood-opacity="0" result="BackgroundImageFix"/>
<feColorMatrix in="SourceAlpha" type="matrix" values="0 0 0 0 0 0 0 0 0 0 0 0 0 0 0 0 0 0 127 0" result="hardAlpha"/>
<feOffset dy="4"/>
<feGaussianBlur stdDeviation="2"/>
<feComposite in2="hardAlpha" operator="out"/>
<feColorMatrix type="matrix" values="0 0 0 0 1 0 0 0 0 1 0 0 0 0 1 0 0 0 0.25 0"/>
<feBlend mode="normal" in2="BackgroundImageFix" result="effect1_dropShadow_254_1252"/>
<feColorMatrix in="SourceAlpha" type="matrix" values="0 0 0 0 0 0 0 0 0 0 0 0 0 0 0 0 0 0 127 0" result="hardAlpha"/>
<feOffset dy="4"/>
<feGaussianBlur stdDeviation="2"/>
<feComposite in2="hardAlpha" operator="out"/>
<feColorMatrix type="matrix" values="0 0 0 0 0.9125 0 0 0 0 0.9125 0 0 0 0 0.9125 0 0 0 0.25 0"/>
<feBlend mode="normal" in2="effect1_dropShadow_254_1252" result="effect2_dropShadow_254_1252"/>
<feColorMatrix in="SourceAlpha" type="matrix" values="0 0 0 0 0 0 0 0 0 0 0 0 0 0 0 0 0 0 127 0" result="hardAlpha"/>
<feOffset dy="4"/>
<feGaussianBlur stdDeviation="2"/>
<feComposite in2="hardAlpha" operator="out"/>
<feColorMatrix type="matrix" values="0 0 0 0 0.670833 0 0 0 0 0.641019 0 0 0 0 0.641019 0 0 0 0.25 0"/>
<feBlend mode="normal" in2="effect2_dropShadow_254_1252" result="effect3_dropShadow_254_1252"/>
<feBlend mode="normal" in="SourceGraphic" in2="effect3_dropShadow_254_1252" result="shape"/>
</filter>
<linearGradient id="paint0_linear_254_1252" x1="89.5" y1="15.5" x2="89.5" y2="155.5" gradientUnits="userSpaceOnUse">
<stop stop-color="white"/>
<stop offset="0.472222" stop-color="#0D5176" stop-opacity="0.527778"/>
<stop offset="0.940972" stop-color="#12A6F7" stop-opacity="0.465278"/>
<stop offset="1" stop-opacity="0"/>
</linearGradient>
<linearGradient id="paint1_linear_254_1252" x1="135.236" y1="101" x2="135.236" y2="98.9744" gradientUnits="userSpaceOnUse">
<stop stop-color="#3079D6"/>
<stop offset="0.222222" stop-color="#93C7FF"/>
<stop offset="0.498264" stop-color="#D6EAFF"/>
<stop offset="1" stop-color="#42A3F2"/>
</linearGradient>
<linearGradient id="paint2_linear_254_1252" x1="135.236" y1="101" x2="135.236" y2="98.9744" gradientUnits="userSpaceOnUse">
<stop stop-color="#3079D6"/>
<stop offset="0.222222" stop-color="#93C7FF"/>
<stop offset="0.498264" stop-color="#D6EAFF"/>
<stop offset="1" stop-color="#42A3F2"/>
</linearGradient>
<linearGradient id="paint3_linear_254_1252" x1="135.236" y1="101" x2="135.236" y2="98.9744" gradientUnits="userSpaceOnUse">
<stop stop-color="#3079D6"/>
<stop offset="0.222222" stop-color="#93C7FF"/>
<stop offset="0.498264" stop-color="#D6EAFF"/>
<stop offset="1" stop-color="#42A3F2"/>
</linearGradient>
<linearGradient id="paint4_linear_254_1252" x1="135.236" y1="101" x2="135.236" y2="98.9744" gradientUnits="userSpaceOnUse">
<stop stop-color="#3079D6"/>
<stop offset="0.222222" stop-color="#93C7FF"/>
<stop offset="0.498264" stop-color="#D6EAFF"/>
<stop offset="1" stop-color="#42A3F2"/>
</linearGradient>
<linearGradient id="paint5_linear_254_1252" x1="135.236" y1="101" x2="135.236" y2="98.9744" gradientUnits="userSpaceOnUse">
<stop stop-color="#3079D6"/>
<stop offset="0.222222" stop-color="#93C7FF"/>
<stop offset="0.498264" stop-color="#D6EAFF"/>
<stop offset="1" stop-color="#42A3F2"/>
</linearGradient>
<linearGradient id="paint6_linear_254_1252" x1="135.236" y1="101" x2="135.236" y2="98.9744" gradientUnits="userSpaceOnUse">
<stop stop-color="#3079D6"/>
<stop offset="0.222222" stop-color="#93C7FF"/>
<stop offset="0.498264" stop-color="#D6EAFF"/>
<stop offset="1" stop-color="#42A3F2"/>
</linearGradient>
<linearGradient id="paint7_linear_254_1252" x1="135.236" y1="101" x2="135.236" y2="98.9744" gradientUnits="userSpaceOnUse">
<stop stop-color="#3079D6"/>
<stop offset="0.222222" stop-color="#93C7FF"/>
<stop offset="0.498264" stop-color="#D6EAFF"/>
<stop offset="1" stop-color="#42A3F2"/>
</linearGradient>
<linearGradient id="paint8_linear_254_1252" x1="135.236" y1="101" x2="135.236" y2="98.9744" gradientUnits="userSpaceOnUse">
<stop stop-color="#3079D6"/>
<stop offset="0.222222" stop-color="#93C7FF"/>
<stop offset="0.498264" stop-color="#D6EAFF"/>
<stop offset="1" stop-color="#42A3F2"/>
</linearGradient>
<linearGradient id="paint9_linear_254_1252" x1="135.236" y1="101" x2="135.236" y2="98.9744" gradientUnits="userSpaceOnUse">
<stop stop-color="#3079D6"/>
<stop offset="0.222222" stop-color="#93C7FF"/>
<stop offset="0.498264" stop-color="#D6EAFF"/>
<stop offset="1" stop-color="#42A3F2"/>
</linearGradient>
<linearGradient id="paint10_linear_254_1252" x1="135.236" y1="101" x2="135.236" y2="98.9744" gradientUnits="userSpaceOnUse">
<stop stop-color="#3079D6"/>
<stop offset="0.222222" stop-color="#93C7FF"/>
<stop offset="0.498264" stop-color="#D6EAFF"/>
<stop offset="1" stop-color="#42A3F2"/>
</linearGradient>
<linearGradient id="paint11_linear_254_1252" x1="135.236" y1="101" x2="135.236" y2="98.9744" gradientUnits="userSpaceOnUse">
<stop stop-color="#3079D6"/>
<stop offset="0.222222" stop-color="#93C7FF"/>
<stop offset="0.498264" stop-color="#D6EAFF"/>
<stop offset="1" stop-color="#42A3F2"/>
</linearGradient>
<linearGradient id="paint12_linear_254_1252" x1="135.236" y1="101" x2="135.236" y2="98.9744" gradientUnits="userSpaceOnUse">
<stop stop-color="#3079D6"/>
<stop offset="0.222222" stop-color="#93C7FF"/>
<stop offset="0.498264" stop-color="#D6EAFF"/>
<stop offset="1" stop-color="#42A3F2"/>
</linearGradient>
<linearGradient id="paint13_linear_254_1252" x1="135.236" y1="101" x2="135.236" y2="98.9744" gradientUnits="userSpaceOnUse">
<stop stop-color="#3079D6"/>
<stop offset="0.222222" stop-color="#93C7FF"/>
<stop offset="0.498264" stop-color="#D6EAFF"/>
<stop offset="1" stop-color="#42A3F2"/>
</linearGradient>
</defs>
</svg>
