<svg width="50" height="50" viewBox="0 0 50 50" fill="none" xmlns="http://www.w3.org/2000/svg">
<g id="checkbox_active">
<path id="Vector" d="M44.1158 50H5.88416C2.63441 50 1.37356e-06 47.3654 1.37356e-06 44.1154V5.88462C1.37356e-06 2.63462 2.63441 0 5.88416 0H44.1158C47.3656 0 50 2.63462 50 5.88462V44.1192C50 47.3654 47.3656 50 44.1158 50Z" fill="url(#paint0_linear_16_31)"/>
<path id="Vector_2" d="M40.4691 45.2H9.73081C7.11802 45.2 4.99995 43.0818 4.99995 40.4688V9.73123C4.99995 7.11823 7.11802 5 9.73081 5H40.4691C43.0819 5 45.2 7.11823 45.2 9.73123V40.4719C45.2 43.0818 43.0819 45.2 40.4691 45.2Z" fill="black" fill-opacity="0.11"/>
<path id="Vector_3" d="M21.0959 34.6427L11.357 24.8952C10.881 24.4188 10.881 23.6475 11.357 23.1723L13.0783 21.4495C13.5543 20.9731 14.3249 20.9731 14.7997 21.4495L21.9566 28.6127L35.2003 15.3573C35.6763 14.8809 36.4469 14.8809 36.9217 15.3573L38.643 17.0802C39.119 17.5566 39.119 18.3279 38.643 18.803L22.8173 34.6427C22.3425 35.1191 21.5707 35.1191 21.0959 34.6427Z" fill="#33C481"/>
</g>
<defs>
<linearGradient id="paint0_linear_16_31" x1="28.0786" y1="7.54231" x2="16.1239" y2="75.3612" gradientUnits="userSpaceOnUse">
<stop stop-color="#FCFCFC"/>
<stop offset="1" stop-color="#C3C9CD"/>
</linearGradient>
</defs>
</svg>
