<svg width="191" height="191" viewBox="0 0 191 191" fill="none" xmlns="http://www.w3.org/2000/svg">
<path d="M168.887 8H22.1129C14.3186 8 8 14.3186 8 22.1129V168.887C8 176.681 14.3186 183 22.1129 183H168.887C176.681 183 183 176.681 183 168.887V22.1129C183 14.3186 176.681 8 168.887 8Z" fill="white"/>
<path d="M168.887 8H22.1129C14.3186 8 8 14.3186 8 22.1129V168.887C8 176.681 14.3186 183 22.1129 183H168.887C176.681 183 183 176.681 183 168.887V22.1129C183 14.3186 176.681 8 168.887 8Z" fill="url(#paint0_linear_116_411)" fill-opacity="0.2"/>
<path d="M168.887 8H22.1129C14.3186 8 8 14.3186 8 22.1129V168.887C8 176.681 14.3186 183 22.1129 183H168.887C176.681 183 183 176.681 183 168.887V22.1129C183 14.3186 176.681 8 168.887 8Z" stroke="#D5EAF6" stroke-width="15" stroke-linecap="round"/>
<path d="M146 52.5H143.5C143.5 53.88 142.38 55 141 55C139.62 55 138.5 53.88 138.5 52.5H133.5C133.5 53.88 132.38 55 131 55C129.62 55 128.5 53.88 128.5 52.5H123.5C123.5 53.88 122.38 55 121 55C119.62 55 118.5 53.88 118.5 52.5H113.5C113.5 53.88 112.38 55 111 55C109.62 55 108.5 53.88 108.5 52.5H103.5C103.5 53.88 102.38 55 101 55C99.62 55 98.5 53.88 98.5 52.5H93.5C93.5 53.88 92.38 55 91 55C89.62 55 88.5 53.88 88.5 52.5H83.5C83.5 53.88 82.38 55 81 55C79.62 55 78.5 53.88 78.5 52.5H73.5C73.5 53.88 72.38 55 71 55C69.62 55 68.5 53.88 68.5 52.5H63.5C63.5 53.88 62.38 55 61 55C59.62 55 58.5 53.88 58.5 52.5H53.5C53.5 53.88 52.38 55 51 55C49.62 55 48.5 53.88 48.5 52.5H46C44.62 52.5 43.5 53.62 43.5 55V132.5C43.5 135.263 45.7375 137.5 48.5 137.5H143.5C146.263 137.5 148.5 135.263 148.5 132.5V55C148.5 53.62 147.38 52.5 146 52.5Z" fill="#50E6FF"/>
<path d="M94.75 77.5H57.25C56.56 77.5 56 76.94 56 76.25V73.75C56 73.06 56.56 72.5 57.25 72.5H94.75C95.44 72.5 96 73.06 96 73.75V76.25C96 76.94 95.44 77.5 94.75 77.5Z" fill="#199BE2"/>
<path d="M87.25 87.5H57.25C56.56 87.5 56 86.94 56 86.25V83.75C56 83.06 56.56 82.5 57.25 82.5H87.25C87.94 82.5 88.5 83.06 88.5 83.75V86.25C88.5 86.94 87.94 87.5 87.25 87.5Z" fill="#199BE2"/>
<path d="M137.933 106.718C137.933 92.5825 117.063 95.3425 117.063 86.99C117.063 82.63 121.963 82.4 123.498 82.4C127.18 82.4 130.738 83.3875 133.448 84.66C134.303 85.06 135.283 84.4675 135.283 83.525V79.4125C135.283 78.0325 134.763 77.215 133.935 76.8925C132.075 76.17 129.408 75.6425 125.46 75.5125V70.985C125.46 70.4425 125.02 70.0025 124.478 70.0025H122.513C121.97 70.0025 121.53 70.4425 121.53 70.985V75.585C115.41 76.1825 109.06 79.6375 109.06 87.6775C109.06 102.33 129.928 99.425 129.928 107.143C129.928 109.568 128.378 111.66 123.493 111.66C118.583 111.66 114.07 109.945 111.573 108.667C110.733 108.237 109.743 108.86 109.743 109.805V114.487C109.743 115.385 110.283 116.185 111.11 116.535C114.07 117.792 118.038 118.743 121.528 119.023V124.025C121.528 124.568 121.968 125.007 122.51 125.007H124.475C125.018 125.007 125.458 124.568 125.458 124.025V119.025C134.623 118.263 137.933 112.13 137.933 106.718Z" fill="#0078D4"/>
<path d="M70.9998 125C69.8198 125 68.7848 124.448 68.1573 123.488C67.7348 122.838 67.5198 122.03 67.5198 121.088C67.5198 119.45 68.3923 116.595 69.7798 113.74C69.3973 111.223 68.6748 108.53 67.5273 106.582C66.7923 105.33 66.2073 105 65.9998 105C63.3923 105 61.4423 110.48 60.9523 112.98C60.6873 114.335 59.3898 115.215 58.0173 114.953C56.6623 114.688 55.7773 113.372 56.0448 112.017C56.2873 110.79 58.6123 100 65.9998 100C69.7548 100 72.1423 103.69 73.5298 107.935C75.0848 106.182 76.7998 105 78.4998 105C83.4823 105 85.1198 110.78 86.3173 115.002C86.3598 115.147 86.4023 115.3 86.4473 115.455C86.5548 115.242 86.6573 115.038 86.7498 114.85C88.3448 111.638 90.1523 108 93.4998 108C94.8823 108 95.9998 109.12 95.9998 110.5C95.9998 111.81 94.9923 112.888 93.7073 112.993C93.0073 113.493 91.8548 115.81 91.2273 117.075C89.7823 119.988 88.5323 122.5 85.9998 122.5C83.2448 122.5 82.4398 119.658 81.5073 116.368C81.0148 114.625 79.7023 110 78.4998 110C77.6898 110.312 76.2248 112.368 74.9423 114.67C75.0698 115.82 75.1273 116.877 75.1273 117.765C75.1273 119.445 74.9548 120.843 74.6098 121.92C73.7248 124.7 71.7898 125 70.9998 125Z" fill="#199BE2"/>
<defs>
<linearGradient id="paint0_linear_116_411" x1="95.5" y1="16.4677" x2="95.5" y2="174.532" gradientUnits="userSpaceOnUse">
<stop stop-color="white"/>
<stop offset="0.472222" stop-color="#0D5176" stop-opacity="0.527778"/>
<stop offset="0.940972" stop-color="#12A6F7" stop-opacity="0.465278"/>
<stop offset="1" stop-opacity="0"/>
</linearGradient>
</defs>
</svg>
