<svg width="191" height="191" viewBox="0 0 191 191" fill="none" xmlns="http://www.w3.org/2000/svg">
<path d="M168.887 8H22.1129C14.3186 8 8 14.3186 8 22.1129V168.887C8 176.681 14.3186 183 22.1129 183H168.887C176.681 183 183 176.681 183 168.887V22.1129C183 14.3186 176.681 8 168.887 8Z" fill="white"/>
<path d="M168.887 8H22.1129C14.3186 8 8 14.3186 8 22.1129V168.887C8 176.681 14.3186 183 22.1129 183H168.887C176.681 183 183 176.681 183 168.887V22.1129C183 14.3186 176.681 8 168.887 8Z" fill="url(#paint0_linear_70_10)" fill-opacity="0.2"/>
<path d="M168.887 8H22.1129C14.3186 8 8 14.3186 8 22.1129V168.887C8 176.681 14.3186 183 22.1129 183H168.887C176.681 183 183 176.681 183 168.887V22.1129C183 14.3186 176.681 8 168.887 8Z" stroke="#D5EAF6" stroke-width="15"/>
<path opacity="0.3" d="M56.5488 53.585C60.9746 51.258 65.7253 49.5675 70.5836 48.2964C75.2268 47.0275 79.8699 46.2877 84.6206 45.7586C91.5427 45.0012 98.5228 44.9306 105.459 45.5479C112.585 46.1823 119.601 47.4512 126.512 49.7783C129.535 50.8343 132.45 51.9978 135.256 53.4796C135.355 53.5278 135.437 53.6028 135.495 53.6961C135.552 53.7893 135.582 53.897 135.581 54.0065V98.6378C135.581 104.137 134.176 109.213 131.263 113.867C128.887 117.568 125.757 120.635 121.869 122.855C117.756 125.291 113.502 127.481 109.129 129.412C105.026 131.315 100.816 133.113 96.605 135.017C96.2801 135.124 95.9574 135.23 95.6325 135.017C87.9663 131.739 80.41 128.354 73.0688 124.442C70.1533 122.855 67.2379 121.059 64.8626 118.732C61.0844 114.923 58.5993 110.482 57.4116 105.406C56.9813 103.716 56.8737 101.915 56.6564 100.225C56.6564 100.012 56.6564 99.9067 56.5488 99.6959V53.5828V53.585ZM132.569 78.2036V72.7723V56.2743C132.569 55.9713 132.569 55.7694 132.264 55.6706L130.429 54.7639C125.737 52.551 120.741 51.0428 115.643 50.0352C111.139 49.113 106.571 48.5412 101.979 48.325C97.2564 48.0402 92.5189 48.1077 87.8061 48.527C83.8281 48.7289 79.9533 49.3326 76.0786 50.1361C70.5727 51.3436 65.1677 53.0559 59.967 55.5696C59.6618 55.7694 59.5608 55.9714 59.5608 56.3731V97.1164C59.5608 98.4248 59.5608 99.6301 59.7628 100.938C60.3775 107.377 62.9241 113.011 67.8197 117.436C70.0633 119.548 72.7153 121.059 75.3651 122.567C81.995 126.189 88.8247 129.206 95.6566 132.123C95.9195 132.224 96.2104 132.224 96.4733 132.123C100.041 130.514 103.61 129.006 107.18 127.294C111.461 125.283 115.643 123.272 119.722 120.857C123.597 118.543 126.758 115.524 129.002 111.702C131.447 107.478 132.569 102.952 132.569 98.2228V78.2036ZM131.19 56.6365V97.9287C131.19 102.407 130.014 106.686 127.447 110.565C125.417 113.649 122.637 116.038 119.428 117.928C114.723 120.615 109.806 122.804 104.886 124.894C102.107 126.088 99.2196 127.283 96.4381 128.477C96.2252 128.576 95.9047 128.576 95.7971 128.477C89.8104 126.088 83.8215 123.502 77.9402 120.618C75.589 119.421 73.2356 118.227 71.0973 116.835C66.07 113.551 62.9702 108.976 61.5805 103.399C61.0471 101.41 60.9395 99.4215 60.9395 97.3315V74.05C60.9395 73.7514 61.0471 73.5516 61.26 73.4528C69.3872 66.6868 78.7964 62.1095 89.2748 59.3236C95.1618 57.8131 101.175 56.8467 107.239 56.4368C112.692 56.0394 118.04 56.0394 123.491 56.2392C125.737 56.2392 128.196 56.4368 130.549 56.5377C130.753 56.6187 130.972 56.6525 131.19 56.6365ZM95.7642 104.295C95.9705 104.295 96.1791 104.396 96.2823 104.396C99.7004 104.993 102.912 104.497 105.606 102.109C107.158 100.813 108.196 99.1229 108.815 97.2328C110.37 92.9518 110.473 88.5743 109.54 84.098C109.12 81.9954 108.157 80.0395 106.745 78.4253C104.776 76.2365 102.289 75.1411 99.3909 74.9435C95.9705 74.6449 92.6556 75.1411 89.6523 76.8337C89.3428 77.0312 89.2374 77.1322 89.2374 77.5296V117.232H95.7642V104.297V104.295ZM79.3979 75.5406V98.326C79.3979 98.7256 79.2947 98.8244 78.983 99.0242C78.0522 99.4193 77.117 99.5203 76.1861 99.5203C74.7372 99.5203 73.701 98.7256 73.2861 97.4303C73.0806 96.6171 72.9759 95.7818 72.9744 94.943V76.1377V75.5406H66.4498V94.943C66.4498 96.0385 66.553 97.2327 66.8647 98.326C67.5892 101.61 69.7626 103.601 73.1829 104.297C75.2553 104.695 77.4287 104.596 79.6043 104.297C81.7799 103.999 83.7491 103.402 85.7161 102.306C86.0278 102.109 86.131 101.909 86.131 101.61V75.837V75.3408C83.6437 75.5384 81.5735 75.5384 79.3979 75.5384V75.5406ZM111.924 97.2306V102.605C111.924 102.706 112.13 102.903 112.234 102.903C114.409 103.999 116.69 104.695 119.175 104.695C121.245 104.695 123.318 104.297 124.975 103.004C127.254 101.41 128.394 99.2217 128.497 96.5346C128.705 93.8497 127.875 91.4612 125.7 89.571C124.457 88.4755 123.109 87.6786 121.66 86.8839C120.624 86.2868 119.588 85.7885 118.657 84.9937C118.258 84.6138 117.973 84.1303 117.833 83.5975C117.694 83.0647 117.705 82.5034 117.866 81.9767C118.027 81.4499 118.332 80.9783 118.745 80.6148C119.159 80.2512 119.666 80.01 120.209 79.9181C120.521 79.8193 120.833 79.8193 121.142 79.8193C123.421 79.7183 125.287 80.5152 127.048 81.9093C127.151 82.0081 127.357 82.1069 127.46 82.3044V81.9093V77.4308C127.46 77.1322 127.357 76.8337 127.048 76.7349C123.939 74.9435 120.727 74.4451 117.309 75.5406C110.163 77.8281 110.058 85.9882 114.203 89.2724C115.445 90.2669 116.688 91.0639 118.036 91.8586C118.967 92.4557 120.003 93.0528 120.833 93.8497C121.972 94.943 122.179 96.2361 121.66 97.7289C121.142 99.0242 120.003 99.6213 118.657 99.7201C117.103 99.9177 115.549 99.4215 114.201 98.8244C113.483 98.237 112.722 97.7049 111.924 97.2328V97.2306ZM96.0649 97.4523V95.3228V81.0312C96.0649 80.6777 96.1835 80.5877 96.5391 80.4999C98.5588 80.1442 100.46 80.0564 102.122 81.1212C103.31 81.8302 103.786 82.8072 104.142 83.7841C104.497 84.9367 104.734 86.0892 104.734 87.244C104.974 89.4634 104.853 91.7707 104.142 93.9024C103.865 94.7776 103.375 95.57 102.715 96.2075C101.29 97.7179 98.3217 98.2492 96.0649 97.4523ZM86.8621 142.843H84.0433V141.104H91.7489V142.843H88.9301V150.507H86.8621V142.841V142.843ZM92.829 141.104H95.74L97.9398 147.572H97.9661L100.047 141.104H102.958V150.507H101.022V143.842H100.996L98.6906 150.507H97.0968L94.7916 143.908H94.7653V150.507H92.829V141.102V141.104Z" fill="black" fill-opacity="0.2"/>
<path d="M56.5488 49.1944C60.9746 46.8673 65.7253 45.1769 70.5836 43.9058C75.2268 42.6369 79.8699 41.8971 84.6206 41.368C91.5427 40.6106 98.5228 40.54 105.459 41.1573C112.585 41.7917 119.601 43.0606 126.512 45.3877C129.535 46.4436 132.45 47.6072 135.256 49.089C135.355 49.1371 135.437 49.2122 135.495 49.3054C135.552 49.3987 135.582 49.5063 135.581 49.6159V94.2471C135.581 99.7465 134.176 104.822 131.263 109.476C128.887 113.178 125.757 116.244 121.869 118.464C117.756 120.901 113.502 123.09 109.129 125.021C105.026 126.925 100.816 128.723 96.605 130.626C96.2801 130.734 95.9574 130.839 95.6325 130.626C87.9663 127.348 80.41 123.963 73.0688 120.051C70.1533 118.464 67.2379 116.668 64.8626 114.341C61.0844 110.532 58.5993 106.091 57.4116 101.015C56.9813 99.325 56.8737 97.5248 56.6564 95.8344C56.6564 95.6214 56.6564 95.5161 56.5488 95.3053V49.1922V49.1944ZM132.569 73.8129V68.3817V51.8837C132.569 51.5807 132.569 51.3788 132.264 51.28L130.429 50.3733C125.737 48.1604 120.741 46.6522 115.643 45.6445C111.139 44.7224 106.571 44.1506 101.979 43.9344C97.2564 43.6496 92.5189 43.7171 87.8061 44.1363C83.8281 44.3383 79.9533 44.942 76.0786 45.7455C70.5727 46.9529 65.1677 48.6653 59.967 51.179C59.6618 51.3788 59.5608 51.5807 59.5608 51.9825V92.7258C59.5608 94.0342 59.5608 95.2394 59.7628 96.5479C60.3775 102.987 62.9241 108.62 67.8197 113.046C70.0633 115.158 72.7153 116.668 75.3651 118.176C81.995 121.799 88.8247 124.815 95.6566 127.733C95.9195 127.833 96.2104 127.833 96.4733 127.733C100.041 126.123 103.61 124.615 107.18 122.903C111.461 120.892 115.643 118.881 119.722 116.466C123.597 114.152 126.758 111.134 129.002 107.312C131.447 103.088 132.569 98.561 132.569 93.8322V73.8129ZM131.19 52.2459V93.538C131.19 98.0165 130.014 102.295 127.447 106.174C125.417 109.259 122.637 111.647 119.428 113.538C114.723 116.225 109.806 118.413 104.886 120.503C102.107 121.698 99.2196 122.892 96.4381 124.086C96.2252 124.185 95.9047 124.185 95.7971 124.086C89.8104 121.698 83.8215 119.112 77.9402 116.227C75.589 115.03 73.2356 113.836 71.0973 112.444C66.07 109.16 62.9702 104.585 61.5805 99.0088C61.0471 97.0199 60.9395 95.0309 60.9395 92.9409V69.6593C60.9395 69.3608 61.0471 69.161 61.26 69.0622C69.3872 62.2962 78.7964 57.7189 89.2748 54.933C95.1618 53.4224 101.175 52.4561 107.239 52.0461C112.692 51.6488 118.04 51.6488 123.491 51.8486C125.737 51.8486 128.196 52.0461 130.549 52.1471C130.753 52.2281 130.972 52.2618 131.19 52.2459ZM95.7642 99.9045C95.9705 99.9045 96.1791 100.006 96.2823 100.006C99.7004 100.603 102.912 100.107 105.606 97.718C107.158 96.4227 108.196 94.7323 108.815 92.8421C110.37 88.5612 110.473 84.1837 109.54 79.7074C109.12 77.6048 108.157 75.6489 106.745 74.0347C104.776 71.8459 102.289 70.7504 99.3909 70.5528C95.9705 70.2543 92.6556 70.7504 89.6523 72.443C89.3428 72.6406 89.2374 72.7416 89.2374 73.139V112.842H95.7642V99.9067V99.9045ZM79.3979 71.15V93.9354C79.3979 94.335 79.2947 94.4338 78.983 94.6335C78.0522 95.0287 77.117 95.1297 76.1861 95.1297C74.7372 95.1297 73.701 94.335 73.2861 93.0397C73.0806 92.2265 72.9759 91.3911 72.9744 90.5524V71.7471V71.15H66.4498V90.5524C66.4498 91.6479 66.553 92.8421 66.8647 93.9354C67.5892 97.2196 69.7626 99.2108 73.1829 99.9067C75.2553 100.304 77.4287 100.205 79.6043 99.9067C81.7799 99.6082 83.7491 99.011 85.7161 97.9156C86.0278 97.718 86.131 97.5182 86.131 97.2196V71.4464V70.9502C83.6437 71.1478 81.5735 71.1478 79.3979 71.1478V71.15ZM111.924 92.8399V98.2141C111.924 98.3151 112.13 98.5127 112.234 98.5127C114.409 99.6082 116.69 100.304 119.175 100.304C121.245 100.304 123.318 99.9067 124.975 98.6137C127.254 97.0199 128.394 94.8311 128.497 92.144C128.705 89.4591 127.875 87.0706 125.7 85.1804C124.457 84.0849 123.109 83.288 121.66 82.4933C120.624 81.8962 119.588 81.3978 118.657 80.6031C118.258 80.2232 117.973 79.7397 117.833 79.2069C117.694 78.674 117.705 78.1128 117.866 77.586C118.027 77.0593 118.332 76.5877 118.745 76.2242C119.159 75.8606 119.666 75.6194 120.209 75.5275C120.521 75.4287 120.833 75.4287 121.142 75.4287C123.421 75.3277 125.287 76.1246 127.048 77.5187C127.151 77.6175 127.357 77.7162 127.46 77.9138V77.5187V73.0402C127.46 72.7416 127.357 72.443 127.048 72.3442C123.939 70.5528 120.727 70.0545 117.309 71.15C110.163 73.4375 110.058 81.5976 114.203 84.8818C115.445 85.8763 116.688 86.6732 118.036 87.4679C118.967 88.0651 120.003 88.6622 120.833 89.4591C121.972 90.5524 122.179 91.8454 121.66 93.3383C121.142 94.6335 120.003 95.2307 118.657 95.3294C117.103 95.527 115.549 95.0309 114.201 94.4338C113.483 93.8463 112.722 93.3143 111.924 92.8421V92.8399ZM96.0649 93.0617V90.9322V76.6405C96.0649 76.2871 96.1835 76.1971 96.5391 76.1093C98.5588 75.7536 100.46 75.6658 102.122 76.7305C103.31 77.4396 103.786 78.4166 104.142 79.3935C104.497 80.546 104.734 81.6986 104.734 82.8533C104.974 85.0728 104.853 87.3801 104.142 89.5118C103.865 90.387 103.375 91.1794 102.715 91.8169C101.29 93.3273 98.3217 93.8586 96.0649 93.0617ZM86.8621 138.452H84.0433V136.714H91.7489V138.452H88.9301V146.116H86.8621V138.45V138.452ZM92.829 136.714H95.74L97.9398 143.181H97.9661L100.047 136.714H102.958V146.116H101.022V139.451H100.996L98.6906 146.116H97.0968L94.7916 139.517H94.7653V146.116H92.829V136.712V136.714Z" fill="url(#paint1_linear_70_10)"/>
<defs>
<linearGradient id="paint0_linear_70_10" x1="95.5" y1="16.4677" x2="95.5" y2="174.532" gradientUnits="userSpaceOnUse">
<stop stop-color="white"/>
<stop offset="0.472222" stop-color="#0D5176" stop-opacity="0.527778"/>
<stop offset="0.940972" stop-color="#12A6F7" stop-opacity="0.465278"/>
<stop offset="1" stop-opacity="0"/>
</linearGradient>
<linearGradient id="paint1_linear_70_10" x1="96.065" y1="40.7417" x2="96.065" y2="146.116" gradientUnits="userSpaceOnUse">
<stop stop-color="#3079D6"/>
<stop offset="0.524305" stop-color="#3079D6"/>
<stop offset="1" stop-color="#199AE0"/>
</linearGradient>
</defs>
</svg>
